<?xml version="1.0" encoding="UTF-8" standalone="no"?>
<!DOCTYPE svg PUBLIC "-//W3C//DTD SVG 1.1//EN"
 "http://www.w3.org/Graphics/SVG/1.1/DTD/svg11.dtd">
<!-- Generated by graphviz version 2.40.1 (20161225.0304)
 -->
<!-- Title: G Pages: 1 -->
<svg width="237pt" height="360pt"
 viewBox="0.00 0.00 236.84 360.00" xmlns="http://www.w3.org/2000/svg" xmlns:xlink="http://www.w3.org/1999/xlink">
<g id="graph0" class="graph" transform="scale(1 1) rotate(0) translate(4 356)">
<title>G</title>
<polygon fill="#ffffff" stroke="transparent" points="-4,4 -4,-356 232.8426,-356 232.8426,4 -4,4"/>
<!-- GO:0003824 -->
<g id="node1" class="node">
<title>GO:0003824</title>
<polygon fill="#ffffff" stroke="#000000" points="108.8686,-274.2019 .0438,-274.2019 .0438,-232.9981 108.8686,-232.9981 108.8686,-274.2019"/>
<text text-anchor="middle" x="54.4562" y="-257.8" font-family="Times,serif" font-size="14.00" fill="#000000">GO:0003824</text>
<text text-anchor="middle" x="54.4562" y="-241" font-family="Times,serif" font-size="14.00" fill="#000000">catalytic activity</text>
</g>
<!-- GO:0003674 -->
<g id="node2" class="node">
<title>GO:0003674</title>
<polygon fill="#ffffff" stroke="#000000" points="175.0893,-351.8019 49.8231,-351.8019 49.8231,-310.5981 175.0893,-310.5981 175.0893,-351.8019"/>
<text text-anchor="middle" x="112.4562" y="-335.4" font-family="Times,serif" font-size="14.00" fill="#000000">GO:0003674</text>
<text text-anchor="middle" x="112.4562" y="-318.6" font-family="Times,serif" font-size="14.00" fill="#000000">molecular_function</text>
</g>
<!-- GO:0003824&#45;&gt;GO:0003674 -->
<g id="edge1" class="edge">
<title>GO:0003824&#45;&gt;GO:0003674</title>
<path fill="none" stroke="#000000" d="M69.9991,-274.3954C76.3704,-282.9197 83.8553,-292.9339 90.7514,-302.1605"/>
<polygon fill="#000000" stroke="#000000" points="88.0801,-304.4327 96.8704,-310.3472 93.687,-300.2419 88.0801,-304.4327"/>
</g>
<!-- GO:0046872 -->
<g id="node3" class="node">
<title>GO:0046872</title>
<polygon fill="#ffffff" stroke="#000000" points="228.7292,-41.4019 114.1832,-41.4019 114.1832,-.1981 228.7292,-.1981 228.7292,-41.4019"/>
<text text-anchor="middle" x="171.4562" y="-25" font-family="Times,serif" font-size="14.00" fill="#000000">GO:0046872</text>
<text text-anchor="middle" x="171.4562" y="-8.2" font-family="Times,serif" font-size="14.00" fill="#000000">metal ion binding</text>
</g>
<!-- GO:0043169 -->
<g id="node4" class="node">
<title>GO:0043169</title>
<polygon fill="#ffffff" stroke="#000000" points="219.9491,-119.0019 122.9633,-119.0019 122.9633,-77.7981 219.9491,-77.7981 219.9491,-119.0019"/>
<text text-anchor="middle" x="171.4562" y="-102.6" font-family="Times,serif" font-size="14.00" fill="#000000">GO:0043169</text>
<text text-anchor="middle" x="171.4562" y="-85.8" font-family="Times,serif" font-size="14.00" fill="#000000">cation binding</text>
</g>
<!-- GO:0046872&#45;&gt;GO:0043169 -->
<g id="edge2" class="edge">
<title>GO:0046872&#45;&gt;GO:0043169</title>
<path fill="none" stroke="#000000" d="M171.4562,-41.5954C171.4562,-49.5109 171.4562,-58.7109 171.4562,-67.3722"/>
<polygon fill="#000000" stroke="#000000" points="167.9563,-67.5472 171.4562,-77.5472 174.9563,-67.5473 167.9563,-67.5472"/>
</g>
<!-- GO:0043167 -->
<g id="node5" class="node">
<title>GO:0043167</title>
<polygon fill="#ffffff" stroke="#000000" points="216.0601,-196.6019 126.8523,-196.6019 126.8523,-155.3981 216.0601,-155.3981 216.0601,-196.6019"/>
<text text-anchor="middle" x="171.4562" y="-180.2" font-family="Times,serif" font-size="14.00" fill="#000000">GO:0043167</text>
<text text-anchor="middle" x="171.4562" y="-163.4" font-family="Times,serif" font-size="14.00" fill="#000000">ion binding</text>
</g>
<!-- GO:0043169&#45;&gt;GO:0043167 -->
<g id="edge3" class="edge">
<title>GO:0043169&#45;&gt;GO:0043167</title>
<path fill="none" stroke="#000000" d="M171.4562,-119.1954C171.4562,-127.1109 171.4562,-136.3109 171.4562,-144.9722"/>
<polygon fill="#000000" stroke="#000000" points="167.9563,-145.1472 171.4562,-155.1472 174.9563,-145.1473 167.9563,-145.1472"/>
</g>
<!-- GO:0005488 -->
<g id="node6" class="node">
<title>GO:0005488</title>
<polygon fill="#ffffff" stroke="#000000" points="216.0601,-274.2019 126.8523,-274.2019 126.8523,-232.9981 216.0601,-232.9981 216.0601,-274.2019"/>
<text text-anchor="middle" x="171.4562" y="-257.8" font-family="Times,serif" font-size="14.00" fill="#000000">GO:0005488</text>
<text text-anchor="middle" x="171.4562" y="-241" font-family="Times,serif" font-size="14.00" fill="#000000">binding</text>
</g>
<!-- GO:0043167&#45;&gt;GO:0005488 -->
<g id="edge4" class="edge">
<title>GO:0043167&#45;&gt;GO:0005488</title>
<path fill="none" stroke="#000000" d="M171.4562,-196.7954C171.4562,-204.7109 171.4562,-213.9109 171.4562,-222.5722"/>
<polygon fill="#000000" stroke="#000000" points="167.9563,-222.7472 171.4562,-232.7472 174.9563,-222.7473 167.9563,-222.7472"/>
</g>
<!-- GO:0005488&#45;&gt;GO:0003674 -->
<g id="edge5" class="edge">
<title>GO:0005488&#45;&gt;GO:0003674</title>
<path fill="none" stroke="#000000" d="M155.6453,-274.3954C149.1641,-282.9197 141.5503,-292.9339 134.5352,-302.1605"/>
<polygon fill="#000000" stroke="#000000" points="131.577,-300.2684 128.3108,-310.3472 137.1494,-304.5051 131.577,-300.2684"/>
</g>
</g>
</svg>
