<?xml version="1.0" encoding="UTF-8" standalone="no"?>
<!DOCTYPE svg PUBLIC "-//W3C//DTD SVG 1.1//EN"
 "http://www.w3.org/Graphics/SVG/1.1/DTD/svg11.dtd">
<!-- Generated by graphviz version 2.40.1 (20161225.0304)
 -->
<!-- Title: G Pages: 1 -->
<svg width="536pt" height="444pt"
 viewBox="0.00 0.00 535.50 444.00" xmlns="http://www.w3.org/2000/svg" xmlns:xlink="http://www.w3.org/1999/xlink">
<g id="graph0" class="graph" transform="scale(1 1) rotate(0) translate(4 440)">
<title>G</title>
<polygon fill="#ffffff" stroke="transparent" points="-4,4 -4,-440 531.5004,-440 531.5004,4 -4,4"/>
<!-- GO:0030048 -->
<g id="node1" class="node">
<title>GO:0030048</title>
<polygon fill="#00ffff" stroke="#000000" points="206.8455,-58.6014 77.0515,-58.6014 77.0515,.2014 206.8455,.2014 206.8455,-58.6014"/>
<text text-anchor="middle" x="141.9485" y="-41.8" font-family="Times,serif" font-size="14.00" fill="#000000">GO:0030048</text>
<text text-anchor="middle" x="141.9485" y="-25" font-family="Times,serif" font-size="14.00" fill="#000000">actin filament&#45;based</text>
<text text-anchor="middle" x="141.9485" y="-8.2" font-family="Times,serif" font-size="14.00" fill="#000000">movement</text>
</g>
<!-- GO:0030029 -->
<g id="node2" class="node">
<title>GO:0030029</title>
<polygon fill="#ffffff" stroke="#000000" points="129.8455,-153.0014 .0515,-153.0014 .0515,-94.1986 129.8455,-94.1986 129.8455,-153.0014"/>
<text text-anchor="middle" x="64.9485" y="-136.2" font-family="Times,serif" font-size="14.00" fill="#000000">GO:0030029</text>
<text text-anchor="middle" x="64.9485" y="-119.4" font-family="Times,serif" font-size="14.00" fill="#000000">actin filament&#45;based</text>
<text text-anchor="middle" x="64.9485" y="-102.6" font-family="Times,serif" font-size="14.00" fill="#000000">process</text>
</g>
<!-- GO:0030048&#45;&gt;GO:0030029 -->
<g id="edge1" class="edge">
<title>GO:0030048&#45;&gt;GO:0030029</title>
<path fill="none" stroke="#000000" d="M118.0073,-58.5513C110.8368,-67.3422 102.8761,-77.1018 95.3482,-86.3308"/>
<polygon fill="#000000" stroke="#000000" points="92.4835,-84.3055 88.8749,-94.2669 97.9079,-88.73 92.4835,-84.3055"/>
</g>
<!-- GO:0006928 -->
<g id="node3" class="node">
<title>GO:0006928</title>
<polygon fill="#00ffff" stroke="#000000" points="291.5798,-153.0014 148.3172,-153.0014 148.3172,-94.1986 291.5798,-94.1986 291.5798,-153.0014"/>
<text text-anchor="middle" x="219.9485" y="-136.2" font-family="Times,serif" font-size="14.00" fill="#000000">GO:0006928</text>
<text text-anchor="middle" x="219.9485" y="-119.4" font-family="Times,serif" font-size="14.00" fill="#000000">movement of cell or</text>
<text text-anchor="middle" x="219.9485" y="-102.6" font-family="Times,serif" font-size="14.00" fill="#000000">subcellular component</text>
</g>
<!-- GO:0030048&#45;&gt;GO:0006928 -->
<g id="edge2" class="edge">
<title>GO:0030048&#45;&gt;GO:0006928</title>
<path fill="none" stroke="#000000" d="M166.2006,-58.5513C173.4643,-67.3422 181.5283,-77.1018 189.154,-86.3308"/>
<polygon fill="#000000" stroke="#000000" points="186.6436,-88.7873 195.7114,-94.2669 192.0398,-84.3285 186.6436,-88.7873"/>
</g>
<!-- GO:0044763 -->
<g id="node4" class="node">
<title>GO:0044763</title>
<polygon fill="#00ff00" stroke="#000000" points="217.627,-247.4014 66.27,-247.4014 66.27,-188.5986 217.627,-188.5986 217.627,-247.4014"/>
<text text-anchor="middle" x="141.9485" y="-230.6" font-family="Times,serif" font-size="14.00" fill="#000000">GO:0044763</text>
<text text-anchor="middle" x="141.9485" y="-213.8" font-family="Times,serif" font-size="14.00" fill="#000000">single&#45;organism cellular</text>
<text text-anchor="middle" x="141.9485" y="-197" font-family="Times,serif" font-size="14.00" fill="#000000">process</text>
</g>
<!-- GO:0030029&#45;&gt;GO:0044763 -->
<g id="edge3" class="edge">
<title>GO:0030029&#45;&gt;GO:0044763</title>
<path fill="none" stroke="#000000" d="M88.8897,-152.9513C96.0602,-161.7422 104.0209,-171.5018 111.5488,-180.7308"/>
<polygon fill="#000000" stroke="#000000" points="108.9891,-183.13 118.0221,-188.6669 114.4135,-178.7055 108.9891,-183.13"/>
</g>
<!-- GO:0006928&#45;&gt;GO:0044763 -->
<g id="edge4" class="edge">
<title>GO:0006928&#45;&gt;GO:0044763</title>
<path fill="none" stroke="#000000" d="M195.6964,-152.9513C188.4327,-161.7422 180.3687,-171.5018 172.743,-180.7308"/>
<polygon fill="#000000" stroke="#000000" points="169.8572,-178.7285 166.1856,-188.6669 175.2534,-183.1873 169.8572,-178.7285"/>
</g>
<!-- GO:0009987 -->
<g id="node5" class="node">
<title>GO:0009987</title>
<polygon fill="#ff0000" stroke="#000000" points="278.9047,-341.4019 174.9923,-341.4019 174.9923,-300.1981 278.9047,-300.1981 278.9047,-341.4019"/>
<text text-anchor="middle" x="226.9485" y="-325" font-family="Times,serif" font-size="14.00" fill="#000000">GO:0009987</text>
<text text-anchor="middle" x="226.9485" y="-308.2" font-family="Times,serif" font-size="14.00" fill="#000000">cellular process</text>
</g>
<!-- GO:0044763&#45;&gt;GO:0009987 -->
<g id="edge5" class="edge">
<title>GO:0044763&#45;&gt;GO:0009987</title>
<path fill="none" stroke="#000000" d="M166.3061,-247.4584C177.9526,-261.5438 191.8368,-278.3355 203.3795,-292.2954"/>
<polygon fill="#000000" stroke="#000000" points="200.8008,-294.6692 209.8705,-300.1456 206.1955,-290.2086 200.8008,-294.6692"/>
</g>
<!-- GO:0044699 -->
<g id="node6" class="node">
<title>GO:0044699</title>
<polygon fill="#00ff00" stroke="#000000" points="156.6298,-341.4019 5.2672,-341.4019 5.2672,-300.1981 156.6298,-300.1981 156.6298,-341.4019"/>
<text text-anchor="middle" x="80.9485" y="-325" font-family="Times,serif" font-size="14.00" fill="#000000">GO:0044699</text>
<text text-anchor="middle" x="80.9485" y="-308.2" font-family="Times,serif" font-size="14.00" fill="#000000">single&#45;organism process</text>
</g>
<!-- GO:0044763&#45;&gt;GO:0044699 -->
<g id="edge6" class="edge">
<title>GO:0044763&#45;&gt;GO:0044699</title>
<path fill="none" stroke="#000000" d="M124.4683,-247.4584C116.2665,-261.2805 106.5182,-277.7087 98.329,-291.5096"/>
<polygon fill="#000000" stroke="#000000" points="95.2976,-289.7596 93.2045,-300.1456 101.3176,-293.3318 95.2976,-289.7596"/>
</g>
<!-- GO:0008150 -->
<g id="node7" class="node">
<title>GO:0008150</title>
<polygon fill="#ffffff" stroke="#000000" points="353.4191,-435.8019 232.4779,-435.8019 232.4779,-394.5981 353.4191,-394.5981 353.4191,-435.8019"/>
<text text-anchor="middle" x="292.9485" y="-419.4" font-family="Times,serif" font-size="14.00" fill="#000000">GO:0008150</text>
<text text-anchor="middle" x="292.9485" y="-402.6" font-family="Times,serif" font-size="14.00" fill="#000000">biological_process</text>
</g>
<!-- GO:0009987&#45;&gt;GO:0008150 -->
<g id="edge7" class="edge">
<title>GO:0009987&#45;&gt;GO:0008150</title>
<path fill="none" stroke="#000000" d="M241.596,-341.7504C250.6535,-354.7054 262.4156,-371.5287 272.3971,-385.8053"/>
<polygon fill="#000000" stroke="#000000" points="269.7434,-388.118 278.3419,-394.3081 275.4804,-384.107 269.7434,-388.118"/>
</g>
<!-- GO:0044699&#45;&gt;GO:0008150 -->
<g id="edge8" class="edge">
<title>GO:0044699&#45;&gt;GO:0008150</title>
<path fill="none" stroke="#000000" d="M127.4728,-341.5165C159.7821,-355.9033 202.9913,-375.1436 237.1537,-390.3555"/>
<polygon fill="#000000" stroke="#000000" points="235.9737,-393.6614 246.5327,-394.5318 238.8212,-387.2667 235.9737,-393.6614"/>
</g>
<!-- GO:0016043 -->
<g id="node8" class="node">
<title>GO:0016043</title>
<polygon fill="#00ffff" stroke="#000000" points="389.6355,-247.4014 266.2615,-247.4014 266.2615,-188.5986 389.6355,-188.5986 389.6355,-247.4014"/>
<text text-anchor="middle" x="327.9485" y="-230.6" font-family="Times,serif" font-size="14.00" fill="#000000">GO:0016043</text>
<text text-anchor="middle" x="327.9485" y="-213.8" font-family="Times,serif" font-size="14.00" fill="#000000">cellular component</text>
<text text-anchor="middle" x="327.9485" y="-197" font-family="Times,serif" font-size="14.00" fill="#000000">organization</text>
</g>
<!-- GO:0016043&#45;&gt;GO:0009987 -->
<g id="edge9" class="edge">
<title>GO:0016043&#45;&gt;GO:0009987</title>
<path fill="none" stroke="#000000" d="M299.006,-247.4584C285.0378,-261.6754 268.3609,-278.6496 254.5702,-292.686"/>
<polygon fill="#000000" stroke="#000000" points="251.7529,-290.5594 247.2412,-300.1456 256.7462,-295.4653 251.7529,-290.5594"/>
</g>
<!-- GO:0071840 -->
<g id="node9" class="node">
<title>GO:0071840</title>
<polygon fill="#ffffff" stroke="#000000" points="420.6355,-358.5003 297.2615,-358.5003 297.2615,-283.0997 420.6355,-283.0997 420.6355,-358.5003"/>
<text text-anchor="middle" x="358.9485" y="-341.8" font-family="Times,serif" font-size="14.00" fill="#000000">GO:0071840</text>
<text text-anchor="middle" x="358.9485" y="-325" font-family="Times,serif" font-size="14.00" fill="#000000">cellular component</text>
<text text-anchor="middle" x="358.9485" y="-308.2" font-family="Times,serif" font-size="14.00" fill="#000000">organization or</text>
<text text-anchor="middle" x="358.9485" y="-291.4" font-family="Times,serif" font-size="14.00" fill="#000000">biogenesis</text>
</g>
<!-- GO:0016043&#45;&gt;GO:0071840 -->
<g id="edge10" class="edge">
<title>GO:0016043&#45;&gt;GO:0071840</title>
<path fill="none" stroke="#000000" d="M336.8319,-247.4584C339.2497,-255.4763 341.932,-264.3712 344.5707,-273.1215"/>
<polygon fill="#000000" stroke="#000000" points="341.2768,-274.3213 347.515,-282.885 347.9787,-272.3003 341.2768,-274.3213"/>
</g>
<!-- GO:0071840&#45;&gt;GO:0008150 -->
<g id="edge11" class="edge">
<title>GO:0071840&#45;&gt;GO:0008150</title>
<path fill="none" stroke="#000000" d="M332.4841,-358.6522C326.0826,-367.8082 319.3393,-377.4532 313.2706,-386.1333"/>
<polygon fill="#000000" stroke="#000000" points="310.3259,-384.2368 307.4644,-394.4379 316.0628,-388.2478 310.3259,-384.2368"/>
</g>
<!-- GO:0051179 -->
<g id="node10" class="node">
<title>GO:0051179</title>
<polygon fill="#00ff00" stroke="#000000" points="527.5524,-341.4019 438.3446,-341.4019 438.3446,-300.1981 527.5524,-300.1981 527.5524,-341.4019"/>
<text text-anchor="middle" x="482.9485" y="-325" font-family="Times,serif" font-size="14.00" fill="#000000">GO:0051179</text>
<text text-anchor="middle" x="482.9485" y="-308.2" font-family="Times,serif" font-size="14.00" fill="#000000">localization</text>
</g>
<!-- GO:0051179&#45;&gt;GO:0008150 -->
<g id="edge12" class="edge">
<title>GO:0051179&#45;&gt;GO:0008150</title>
<path fill="none" stroke="#000000" d="M456.2033,-341.5291C448.0231,-347.3817 438.8345,-353.4874 429.9485,-358.4 408.0628,-370.4995 383.0639,-381.5939 360.4643,-390.7041"/>
<polygon fill="#000000" stroke="#000000" points="358.9449,-387.5415 350.9418,-394.4842 361.5276,-394.0477 358.9449,-387.5415"/>
</g>
</g>
</svg>
