<?xml version="1.0" encoding="UTF-8" standalone="no"?>
<!DOCTYPE svg PUBLIC "-//W3C//DTD SVG 1.1//EN"
 "http://www.w3.org/Graphics/SVG/1.1/DTD/svg11.dtd">
<!-- Generated by graphviz version 2.40.1 (20161225.0304)
 -->
<!-- Title: G Pages: 1 -->
<svg width="685pt" height="471pt"
 viewBox="0.00 0.00 684.59 471.20" xmlns="http://www.w3.org/2000/svg" xmlns:xlink="http://www.w3.org/1999/xlink">
<g id="graph0" class="graph" transform="scale(1 1) rotate(0) translate(4 467.2)">
<title>G</title>
<polygon fill="#ffffff" stroke="transparent" points="-4,4 -4,-467.2 680.5895,-467.2 680.5895,4 -4,4"/>
<!-- GO:0043229 -->
<g id="node1" class="node">
<title>GO:0043229</title>
<polygon fill="#ffa500" stroke="#000000" points="285.6988,-221.8019 146.262,-221.8019 146.262,-180.5981 285.6988,-180.5981 285.6988,-221.8019"/>
<text text-anchor="middle" x="215.9804" y="-205.4" font-family="Times,serif" font-size="14.00" fill="#000000">GO:0043229</text>
<text text-anchor="middle" x="215.9804" y="-188.6" font-family="Times,serif" font-size="14.00" fill="#000000">intracellular organelle</text>
</g>
<!-- GO:0044424 -->
<g id="node2" class="node">
<title>GO:0044424</title>
<polygon fill="#ff0000" stroke="#000000" points="421.3788,-307.8019 312.582,-307.8019 312.582,-266.5981 421.3788,-266.5981 421.3788,-307.8019"/>
<text text-anchor="middle" x="366.9804" y="-291.4" font-family="Times,serif" font-size="14.00" fill="#000000">GO:0044424</text>
<text text-anchor="middle" x="366.9804" y="-274.6" font-family="Times,serif" font-size="14.00" fill="#000000">intracellular part</text>
</g>
<!-- GO:0043229&#45;&gt;GO:0044424 -->
<g id="edge1" class="edge">
<title>GO:0043229&#45;&gt;GO:0044424</title>
<path fill="none" stroke="#000000" d="M252.5333,-222.0182C273.3994,-233.9022 299.7309,-248.899 321.875,-261.5108"/>
<polygon fill="#000000" stroke="#000000" points="320.3424,-264.6658 330.7641,-266.5735 323.8068,-258.5831 320.3424,-264.6658"/>
</g>
<!-- GO:0043226 -->
<g id="node3" class="node">
<title>GO:0043226</title>
<polygon fill="#ffa500" stroke="#000000" points="260.5843,-307.8019 171.3765,-307.8019 171.3765,-266.5981 260.5843,-266.5981 260.5843,-307.8019"/>
<text text-anchor="middle" x="215.9804" y="-291.4" font-family="Times,serif" font-size="14.00" fill="#000000">GO:0043226</text>
<text text-anchor="middle" x="215.9804" y="-274.6" font-family="Times,serif" font-size="14.00" fill="#000000">organelle</text>
</g>
<!-- GO:0043229&#45;&gt;GO:0043226 -->
<g id="edge2" class="edge">
<title>GO:0043229&#45;&gt;GO:0043226</title>
<path fill="none" stroke="#000000" d="M215.9804,-222.0182C215.9804,-232.3705 215.9804,-245.0848 215.9804,-256.5271"/>
<polygon fill="#000000" stroke="#000000" points="212.4805,-256.5735 215.9804,-266.5735 219.4805,-256.5735 212.4805,-256.5735"/>
</g>
<!-- GO:0044464 -->
<g id="node4" class="node">
<title>GO:0044464</title>
<polygon fill="#ffffff" stroke="#000000" points="411.5843,-385.4019 322.3765,-385.4019 322.3765,-344.1981 411.5843,-344.1981 411.5843,-385.4019"/>
<text text-anchor="middle" x="366.9804" y="-369" font-family="Times,serif" font-size="14.00" fill="#000000">GO:0044464</text>
<text text-anchor="middle" x="366.9804" y="-352.2" font-family="Times,serif" font-size="14.00" fill="#000000">cell part</text>
</g>
<!-- GO:0044424&#45;&gt;GO:0044464 -->
<g id="edge3" class="edge">
<title>GO:0044424&#45;&gt;GO:0044464</title>
<path fill="none" stroke="#000000" d="M366.9804,-307.9954C366.9804,-315.9109 366.9804,-325.1109 366.9804,-333.7722"/>
<polygon fill="#000000" stroke="#000000" points="363.4805,-333.9472 366.9804,-343.9472 370.4805,-333.9473 363.4805,-333.9472"/>
</g>
<!-- GO:0005575 -->
<g id="node5" class="node">
<title>GO:0005575</title>
<polygon fill="#ffffff" stroke="#000000" points="430.6671,-463.0019 303.2937,-463.0019 303.2937,-421.7981 430.6671,-421.7981 430.6671,-463.0019"/>
<text text-anchor="middle" x="366.9804" y="-446.6" font-family="Times,serif" font-size="14.00" fill="#000000">GO:0005575</text>
<text text-anchor="middle" x="366.9804" y="-429.8" font-family="Times,serif" font-size="14.00" fill="#000000">cellular_component</text>
</g>
<!-- GO:0043226&#45;&gt;GO:0005575 -->
<g id="edge4" class="edge">
<title>GO:0043226&#45;&gt;GO:0005575</title>
<path fill="none" stroke="#000000" d="M236.032,-307.8094C262.6565,-335.1744 309.784,-383.6127 339.6482,-414.3075"/>
<polygon fill="#000000" stroke="#000000" points="337.3638,-416.9787 346.8458,-421.7054 342.381,-412.0973 337.3638,-416.9787"/>
</g>
<!-- GO:0044464&#45;&gt;GO:0005575 -->
<g id="edge7" class="edge">
<title>GO:0044464&#45;&gt;GO:0005575</title>
<path fill="none" stroke="#000000" d="M366.9804,-385.5954C366.9804,-393.5109 366.9804,-402.7109 366.9804,-411.3722"/>
<polygon fill="#000000" stroke="#000000" points="363.4805,-411.5472 366.9804,-421.5472 370.4805,-411.5473 363.4805,-411.5472"/>
</g>
<!-- GO:0043227 -->
<g id="node6" class="node">
<title>GO:0043227</title>
<polygon fill="#ffa500" stroke="#000000" points="127.9412,-230.6014 .0196,-230.6014 .0196,-171.7986 127.9412,-171.7986 127.9412,-230.6014"/>
<text text-anchor="middle" x="63.9804" y="-213.8" font-family="Times,serif" font-size="14.00" fill="#000000">GO:0043227</text>
<text text-anchor="middle" x="63.9804" y="-197" font-family="Times,serif" font-size="14.00" fill="#000000">membrane&#45;bounded</text>
<text text-anchor="middle" x="63.9804" y="-180.2" font-family="Times,serif" font-size="14.00" fill="#000000">organelle</text>
</g>
<!-- GO:0043227&#45;&gt;GO:0043226 -->
<g id="edge5" class="edge">
<title>GO:0043227&#45;&gt;GO:0043226</title>
<path fill="none" stroke="#000000" d="M115.865,-230.5558C133.5883,-240.5834 153.2634,-251.7154 170.448,-261.4383"/>
<polygon fill="#000000" stroke="#000000" points="168.7569,-264.5028 179.1839,-266.3809 172.204,-258.4103 168.7569,-264.5028"/>
</g>
<!-- GO:0005737 -->
<g id="node7" class="node">
<title>GO:0005737</title>
<polygon fill="#ffa500" stroke="#000000" points="392.5843,-221.8019 303.3765,-221.8019 303.3765,-180.5981 392.5843,-180.5981 392.5843,-221.8019"/>
<text text-anchor="middle" x="347.9804" y="-205.4" font-family="Times,serif" font-size="14.00" fill="#000000">GO:0005737</text>
<text text-anchor="middle" x="347.9804" y="-188.6" font-family="Times,serif" font-size="14.00" fill="#000000">cytoplasm</text>
</g>
<!-- GO:0005737&#45;&gt;GO:0044424 -->
<g id="edge6" class="edge">
<title>GO:0005737&#45;&gt;GO:0044424</title>
<path fill="none" stroke="#000000" d="M352.5798,-222.0182C354.8669,-232.3705 357.6759,-245.0848 360.2038,-256.5271"/>
<polygon fill="#000000" stroke="#000000" points="356.8484,-257.5641 362.4234,-266.5735 363.6836,-256.0539 356.8484,-257.5641"/>
</g>
<!-- GO:0005634 -->
<g id="node8" class="node">
<title>GO:0005634</title>
<polygon fill="#00ffff" stroke="#000000" points="184.5843,-41.4019 95.3765,-41.4019 95.3765,-.1981 184.5843,-.1981 184.5843,-41.4019"/>
<text text-anchor="middle" x="139.9804" y="-25" font-family="Times,serif" font-size="14.00" fill="#000000">GO:0005634</text>
<text text-anchor="middle" x="139.9804" y="-8.2" font-family="Times,serif" font-size="14.00" fill="#000000">nucleus</text>
</g>
<!-- GO:0043231 -->
<g id="node9" class="node">
<title>GO:0043231</title>
<polygon fill="#ffa500" stroke="#000000" points="215.3592,-136.2014 64.6016,-136.2014 64.6016,-77.3986 215.3592,-77.3986 215.3592,-136.2014"/>
<text text-anchor="middle" x="139.9804" y="-119.4" font-family="Times,serif" font-size="14.00" fill="#000000">GO:0043231</text>
<text text-anchor="middle" x="139.9804" y="-102.6" font-family="Times,serif" font-size="14.00" fill="#000000">intracellular membrane&#45;</text>
<text text-anchor="middle" x="139.9804" y="-85.8" font-family="Times,serif" font-size="14.00" fill="#000000">bounded organelle</text>
</g>
<!-- GO:0005634&#45;&gt;GO:0043231 -->
<g id="edge8" class="edge">
<title>GO:0005634&#45;&gt;GO:0043231</title>
<path fill="none" stroke="#000000" d="M139.9804,-41.6182C139.9804,-49.3358 139.9804,-58.3662 139.9804,-67.2036"/>
<polygon fill="#000000" stroke="#000000" points="136.4805,-67.3991 139.9804,-77.3991 143.4805,-67.3992 136.4805,-67.3991"/>
</g>
<!-- GO:0043231&#45;&gt;GO:0043229 -->
<g id="edge9" class="edge">
<title>GO:0043231&#45;&gt;GO:0043229</title>
<path fill="none" stroke="#000000" d="M163.6107,-136.1513C172.9376,-147.7363 183.619,-161.0037 192.8922,-172.522"/>
<polygon fill="#000000" stroke="#000000" points="190.3588,-174.9565 199.3562,-180.551 195.8114,-170.5667 190.3588,-174.9565"/>
</g>
<!-- GO:0043231&#45;&gt;GO:0043227 -->
<g id="edge10" class="edge">
<title>GO:0043231&#45;&gt;GO:0043227</title>
<path fill="none" stroke="#000000" d="M116.3501,-136.1513C109.2727,-144.9422 101.4154,-154.7018 93.9853,-163.9308"/>
<polygon fill="#000000" stroke="#000000" points="91.1409,-161.8826 87.5961,-171.8669 96.5934,-166.2724 91.1409,-161.8826"/>
</g>
<!-- GO:0044446 -->
<g id="node10" class="node">
<title>GO:0044446</title>
<polygon fill="#00ffff" stroke="#000000" points="676.6988,-230.6014 537.262,-230.6014 537.262,-171.7986 676.6988,-171.7986 676.6988,-230.6014"/>
<text text-anchor="middle" x="606.9804" y="-213.8" font-family="Times,serif" font-size="14.00" fill="#000000">GO:0044446</text>
<text text-anchor="middle" x="606.9804" y="-197" font-family="Times,serif" font-size="14.00" fill="#000000">intracellular organelle</text>
<text text-anchor="middle" x="606.9804" y="-180.2" font-family="Times,serif" font-size="14.00" fill="#000000">part</text>
</g>
<!-- GO:0044446&#45;&gt;GO:0044424 -->
<g id="edge11" class="edge">
<title>GO:0044446&#45;&gt;GO:0044424</title>
<path fill="none" stroke="#000000" d="M537.2141,-227.051C534.095,-228.1866 531.006,-229.3072 527.9804,-230.4 496.172,-241.8887 460.7345,-254.4199 431.2219,-264.7819"/>
<polygon fill="#000000" stroke="#000000" points="429.7319,-261.5954 421.4542,-268.2082 432.049,-268.2008 429.7319,-261.5954"/>
</g>
<!-- GO:0044422 -->
<g id="node11" class="node">
<title>GO:0044422</title>
<polygon fill="#00ffff" stroke="#000000" points="559.8325,-385.4019 466.1283,-385.4019 466.1283,-344.1981 559.8325,-344.1981 559.8325,-385.4019"/>
<text text-anchor="middle" x="512.9804" y="-369" font-family="Times,serif" font-size="14.00" fill="#000000">GO:0044422</text>
<text text-anchor="middle" x="512.9804" y="-352.2" font-family="Times,serif" font-size="14.00" fill="#000000">organelle part</text>
</g>
<!-- GO:0044446&#45;&gt;GO:0044422 -->
<g id="edge12" class="edge">
<title>GO:0044446&#45;&gt;GO:0044422</title>
<path fill="none" stroke="#000000" d="M590.1751,-230.4484C573.2113,-259.9726 547.1468,-305.3359 530.079,-335.0411"/>
<polygon fill="#000000" stroke="#000000" points="526.8239,-333.6811 524.8766,-344.0955 532.8933,-337.1685 526.8239,-333.6811"/>
</g>
<!-- GO:0044422&#45;&gt;GO:0005575 -->
<g id="edge13" class="edge">
<title>GO:0044422&#45;&gt;GO:0005575</title>
<path fill="none" stroke="#000000" d="M473.8551,-385.5954C455.6984,-395.2458 433.9493,-406.8056 414.8246,-416.9705"/>
<polygon fill="#000000" stroke="#000000" points="413.1479,-413.8979 405.9604,-421.6819 416.4333,-420.0791 413.1479,-413.8979"/>
</g>
<!-- GO:0044444 -->
<g id="node12" class="node">
<title>GO:0044444</title>
<polygon fill="#00ff00" stroke="#000000" points="519.397,-221.8019 410.5638,-221.8019 410.5638,-180.5981 519.397,-180.5981 519.397,-221.8019"/>
<text text-anchor="middle" x="464.9804" y="-205.4" font-family="Times,serif" font-size="14.00" fill="#000000">GO:0044444</text>
<text text-anchor="middle" x="464.9804" y="-188.6" font-family="Times,serif" font-size="14.00" fill="#000000">cytoplasmic part</text>
</g>
<!-- GO:0044444&#45;&gt;GO:0044424 -->
<g id="edge14" class="edge">
<title>GO:0044444&#45;&gt;GO:0044424</title>
<path fill="none" stroke="#000000" d="M441.2573,-222.0182C428.3772,-233.3212 412.2882,-247.4401 398.3807,-259.6446"/>
<polygon fill="#000000" stroke="#000000" points="395.6927,-257.3469 390.485,-266.5735 400.3099,-262.6083 395.6927,-257.3469"/>
</g>
</g>
</svg>
