<?xml version="1.0" encoding="UTF-8" standalone="no"?>
<!DOCTYPE svg PUBLIC "-//W3C//DTD SVG 1.1//EN"
 "http://www.w3.org/Graphics/SVG/1.1/DTD/svg11.dtd">
<!-- Generated by graphviz version 2.40.1 (20161225.0304)
 -->
<!-- Title: G Pages: 1 -->
<svg width="1710pt" height="683pt"
 viewBox="0.00 0.00 1709.77 683.20" xmlns="http://www.w3.org/2000/svg" xmlns:xlink="http://www.w3.org/1999/xlink">
<g id="graph0" class="graph" transform="scale(1 1) rotate(0) translate(4 679.2)">
<title>G</title>
<polygon fill="#ffffff" stroke="transparent" points="-4,4 -4,-679.2 1705.7704,-679.2 1705.7704,4 -4,4"/>
<!-- GO:0080090 -->
<g id="node1" class="node">
<title>GO:0080090</title>
<polygon fill="#00ffff" stroke="#000000" points="938.3619,-383.8014 802.8829,-383.8014 802.8829,-324.9986 938.3619,-324.9986 938.3619,-383.8014"/>
<text text-anchor="middle" x="870.6224" y="-367" font-family="Times,serif" font-size="14.00" fill="#000000">GO:0080090</text>
<text text-anchor="middle" x="870.6224" y="-350.2" font-family="Times,serif" font-size="14.00" fill="#000000">regulation of primary</text>
<text text-anchor="middle" x="870.6224" y="-333.4" font-family="Times,serif" font-size="14.00" fill="#000000">metabolic process</text>
</g>
<!-- GO:0019222 -->
<g id="node2" class="node">
<title>GO:0019222</title>
<polygon fill="#00ffff" stroke="#000000" points="641.7513,-495.0014 495.4935,-495.0014 495.4935,-436.1986 641.7513,-436.1986 641.7513,-495.0014"/>
<text text-anchor="middle" x="568.6224" y="-478.2" font-family="Times,serif" font-size="14.00" fill="#000000">GO:0019222</text>
<text text-anchor="middle" x="568.6224" y="-461.4" font-family="Times,serif" font-size="14.00" fill="#000000">regulation of metabolic</text>
<text text-anchor="middle" x="568.6224" y="-444.6" font-family="Times,serif" font-size="14.00" fill="#000000">process</text>
</g>
<!-- GO:0080090&#45;&gt;GO:0019222 -->
<g id="edge1" class="edge">
<title>GO:0080090&#45;&gt;GO:0019222</title>
<path fill="none" stroke="#000000" d="M814.011,-383.6749C807.228,-386.6944 800.3292,-389.5485 793.6224,-392 732.0671,-414.5 712.4468,-406.2502 650.6224,-428 646.7166,-429.3741 642.7429,-430.8653 638.7572,-432.4349"/>
<polygon fill="#000000" stroke="#000000" points="637.4021,-429.2076 629.4611,-436.2212 640.0427,-435.6905 637.4021,-429.2076"/>
</g>
<!-- GO:0065007 -->
<g id="node3" class="node">
<title>GO:0065007</title>
<polygon fill="#ffff00" stroke="#000000" points="545.8758,-589.0019 413.369,-589.0019 413.369,-547.7981 545.8758,-547.7981 545.8758,-589.0019"/>
<text text-anchor="middle" x="479.6224" y="-572.6" font-family="Times,serif" font-size="14.00" fill="#000000">GO:0065007</text>
<text text-anchor="middle" x="479.6224" y="-555.8" font-family="Times,serif" font-size="14.00" fill="#000000">biological regulation</text>
</g>
<!-- GO:0019222&#45;&gt;GO:0065007 -->
<g id="edge2" class="edge">
<title>GO:0019222&#45;&gt;GO:0065007</title>
<path fill="none" stroke="#000000" d="M543.1186,-495.0584C530.924,-509.1438 516.3864,-525.9355 504.3005,-539.8954"/>
<polygon fill="#000000" stroke="#000000" points="501.4034,-537.8944 497.5041,-547.7456 506.6956,-542.4762 501.4034,-537.8944"/>
</g>
<!-- GO:0050789 -->
<g id="node4" class="node">
<title>GO:0050789</title>
<polygon fill="#ffffff" stroke="#000000" points="395.5368,-597.8014 247.708,-597.8014 247.708,-538.9986 395.5368,-538.9986 395.5368,-597.8014"/>
<text text-anchor="middle" x="321.6224" y="-581" font-family="Times,serif" font-size="14.00" fill="#000000">GO:0050789</text>
<text text-anchor="middle" x="321.6224" y="-564.2" font-family="Times,serif" font-size="14.00" fill="#000000">regulation of biological</text>
<text text-anchor="middle" x="321.6224" y="-547.4" font-family="Times,serif" font-size="14.00" fill="#000000">process</text>
</g>
<!-- GO:0019222&#45;&gt;GO:0050789 -->
<g id="edge3" class="edge">
<title>GO:0019222&#45;&gt;GO:0050789</title>
<path fill="none" stroke="#000000" d="M504.8626,-494.848C498.3818,-497.7116 491.8828,-500.5393 485.6224,-503.2 459.5034,-514.3008 430.8155,-525.9041 404.837,-536.1931"/>
<polygon fill="#000000" stroke="#000000" points="403.4135,-532.9922 395.3983,-539.9209 405.9849,-539.5028 403.4135,-532.9922"/>
</g>
<!-- GO:0008150 -->
<g id="node5" class="node">
<title>GO:0008150</title>
<polygon fill="#ffffff" stroke="#000000" points="936.093,-675.0019 815.1518,-675.0019 815.1518,-633.7981 936.093,-633.7981 936.093,-675.0019"/>
<text text-anchor="middle" x="875.6224" y="-658.6" font-family="Times,serif" font-size="14.00" fill="#000000">GO:0008150</text>
<text text-anchor="middle" x="875.6224" y="-641.8" font-family="Times,serif" font-size="14.00" fill="#000000">biological_process</text>
</g>
<!-- GO:0065007&#45;&gt;GO:0008150 -->
<g id="edge4" class="edge">
<title>GO:0065007&#45;&gt;GO:0008150</title>
<path fill="none" stroke="#000000" d="M545.9039,-582.7945C617.6121,-598.3675 731.504,-623.1016 804.8993,-639.0409"/>
<polygon fill="#000000" stroke="#000000" points="804.4633,-642.5278 814.9783,-641.2298 805.9489,-635.6872 804.4633,-642.5278"/>
</g>
<!-- GO:0050789&#45;&gt;GO:0008150 -->
<g id="edge5" class="edge">
<title>GO:0050789&#45;&gt;GO:0008150</title>
<path fill="none" stroke="#000000" d="M395.5963,-595.3239C398.6302,-596.1423 401.6472,-596.906 404.6224,-597.6 544.364,-630.1942 712.0436,-644.7312 804.9154,-650.6927"/>
<polygon fill="#000000" stroke="#000000" points="804.8397,-654.1948 815.0392,-651.3275 805.2779,-647.2085 804.8397,-654.1948"/>
</g>
<!-- GO:0044707 -->
<g id="node6" class="node">
<title>GO:0044707</title>
<polygon fill="#00ffff" stroke="#000000" points="785.2625,-495.0014 659.9823,-495.0014 659.9823,-436.1986 785.2625,-436.1986 785.2625,-495.0014"/>
<text text-anchor="middle" x="722.6224" y="-478.2" font-family="Times,serif" font-size="14.00" fill="#000000">GO:0044707</text>
<text text-anchor="middle" x="722.6224" y="-461.4" font-family="Times,serif" font-size="14.00" fill="#000000">single&#45;multicellular</text>
<text text-anchor="middle" x="722.6224" y="-444.6" font-family="Times,serif" font-size="14.00" fill="#000000">organism process</text>
</g>
<!-- GO:0032501 -->
<g id="node7" class="node">
<title>GO:0032501</title>
<polygon fill="#00ffff" stroke="#000000" points="782.3674,-597.8014 628.8774,-597.8014 628.8774,-538.9986 782.3674,-538.9986 782.3674,-597.8014"/>
<text text-anchor="middle" x="705.6224" y="-581" font-family="Times,serif" font-size="14.00" fill="#000000">GO:0032501</text>
<text text-anchor="middle" x="705.6224" y="-564.2" font-family="Times,serif" font-size="14.00" fill="#000000">multicellular organismal</text>
<text text-anchor="middle" x="705.6224" y="-547.4" font-family="Times,serif" font-size="14.00" fill="#000000">process</text>
</g>
<!-- GO:0044707&#45;&gt;GO:0032501 -->
<g id="edge6" class="edge">
<title>GO:0044707&#45;&gt;GO:0032501</title>
<path fill="none" stroke="#000000" d="M717.7509,-495.0584C716.0081,-505.5969 714.0148,-517.6505 712.1546,-528.8994"/>
<polygon fill="#000000" stroke="#000000" points="708.6731,-528.5003 710.4946,-538.9373 715.5794,-529.6424 708.6731,-528.5003"/>
</g>
<!-- GO:0044699 -->
<g id="node8" class="node">
<title>GO:0044699</title>
<polygon fill="#ffff00" stroke="#000000" points="951.3037,-589.0019 799.9411,-589.0019 799.9411,-547.7981 951.3037,-547.7981 951.3037,-589.0019"/>
<text text-anchor="middle" x="875.6224" y="-572.6" font-family="Times,serif" font-size="14.00" fill="#000000">GO:0044699</text>
<text text-anchor="middle" x="875.6224" y="-555.8" font-family="Times,serif" font-size="14.00" fill="#000000">single&#45;organism process</text>
</g>
<!-- GO:0044707&#45;&gt;GO:0044699 -->
<g id="edge7" class="edge">
<title>GO:0044707&#45;&gt;GO:0044699</title>
<path fill="none" stroke="#000000" d="M766.4661,-495.0584C788.5074,-509.8678 815.0012,-527.6689 836.3676,-542.0249"/>
<polygon fill="#000000" stroke="#000000" points="834.6296,-545.0737 844.882,-547.7456 838.5335,-539.2634 834.6296,-545.0737"/>
</g>
<!-- GO:0032501&#45;&gt;GO:0008150 -->
<g id="edge8" class="edge">
<title>GO:0032501&#45;&gt;GO:0008150</title>
<path fill="none" stroke="#000000" d="M763.6513,-597.7558C783.8291,-607.9634 806.2691,-619.3154 825.7303,-629.1605"/>
<polygon fill="#000000" stroke="#000000" points="824.2285,-632.3231 834.7316,-633.7141 827.3884,-626.0768 824.2285,-632.3231"/>
</g>
<!-- GO:0044699&#45;&gt;GO:0008150 -->
<g id="edge9" class="edge">
<title>GO:0044699&#45;&gt;GO:0008150</title>
<path fill="none" stroke="#000000" d="M875.6224,-589.2182C875.6224,-599.5705 875.6224,-612.2848 875.6224,-623.7271"/>
<polygon fill="#000000" stroke="#000000" points="872.1225,-623.7735 875.6224,-633.7735 879.1225,-623.7735 872.1225,-623.7735"/>
</g>
<!-- GO:0044267 -->
<g id="node9" class="node">
<title>GO:0044267</title>
<polygon fill="#00ffff" stroke="#000000" points="1488.808,-161.4014 1372.4368,-161.4014 1372.4368,-102.5986 1488.808,-102.5986 1488.808,-161.4014"/>
<text text-anchor="middle" x="1430.6224" y="-144.6" font-family="Times,serif" font-size="14.00" fill="#000000">GO:0044267</text>
<text text-anchor="middle" x="1430.6224" y="-127.8" font-family="Times,serif" font-size="14.00" fill="#000000">cellular protein</text>
<text text-anchor="middle" x="1430.6224" y="-111" font-family="Times,serif" font-size="14.00" fill="#000000">metabolic process</text>
</g>
<!-- GO:0019538 -->
<g id="node10" class="node">
<title>GO:0019538</title>
<polygon fill="#ffffff" stroke="#000000" points="1581.4641,-263.8019 1421.7807,-263.8019 1421.7807,-222.5981 1581.4641,-222.5981 1581.4641,-263.8019"/>
<text text-anchor="middle" x="1501.6224" y="-247.4" font-family="Times,serif" font-size="14.00" fill="#000000">GO:0019538</text>
<text text-anchor="middle" x="1501.6224" y="-230.6" font-family="Times,serif" font-size="14.00" fill="#000000">protein metabolic process</text>
</g>
<!-- GO:0044267&#45;&gt;GO:0019538 -->
<g id="edge10" class="edge">
<title>GO:0044267&#45;&gt;GO:0019538</title>
<path fill="none" stroke="#000000" d="M1449.2768,-161.2165C1459.6074,-177.3962 1472.4156,-197.4564 1482.7766,-213.6837"/>
<polygon fill="#000000" stroke="#000000" points="1479.9181,-215.7106 1488.2496,-222.2556 1485.818,-211.9435 1479.9181,-215.7106"/>
</g>
<!-- GO:0044260 -->
<g id="node11" class="node">
<title>GO:0044260</title>
<polygon fill="#00ffff" stroke="#000000" points="1403.3948,-272.6014 1255.85,-272.6014 1255.85,-213.7986 1403.3948,-213.7986 1403.3948,-272.6014"/>
<text text-anchor="middle" x="1329.6224" y="-255.8" font-family="Times,serif" font-size="14.00" fill="#000000">GO:0044260</text>
<text text-anchor="middle" x="1329.6224" y="-239" font-family="Times,serif" font-size="14.00" fill="#000000">cellular macromolecule</text>
<text text-anchor="middle" x="1329.6224" y="-222.2" font-family="Times,serif" font-size="14.00" fill="#000000">metabolic process</text>
</g>
<!-- GO:0044267&#45;&gt;GO:0044260 -->
<g id="edge11" class="edge">
<title>GO:0044267&#45;&gt;GO:0044260</title>
<path fill="none" stroke="#000000" d="M1404.0858,-161.2165C1391.5436,-175.0254 1376.4341,-191.6608 1363.1126,-206.3276"/>
<polygon fill="#000000" stroke="#000000" points="1360.465,-204.0369 1356.3324,-213.7926 1365.6467,-208.7433 1360.465,-204.0369"/>
</g>
<!-- GO:0044238 -->
<g id="node12" class="node">
<title>GO:0044238</title>
<polygon fill="#00ffff" stroke="#000000" points="1518.6254,-375.0019 1354.6194,-375.0019 1354.6194,-333.7981 1518.6254,-333.7981 1518.6254,-375.0019"/>
<text text-anchor="middle" x="1436.6224" y="-358.6" font-family="Times,serif" font-size="14.00" fill="#000000">GO:0044238</text>
<text text-anchor="middle" x="1436.6224" y="-341.8" font-family="Times,serif" font-size="14.00" fill="#000000">primary metabolic process</text>
</g>
<!-- GO:0019538&#45;&gt;GO:0044238 -->
<g id="edge12" class="edge">
<title>GO:0019538&#45;&gt;GO:0044238</title>
<path fill="none" stroke="#000000" d="M1489.5487,-263.8553C1479.5333,-280.9894 1465.1656,-305.5692 1453.9266,-324.7965"/>
<polygon fill="#000000" stroke="#000000" points="1450.8768,-323.0784 1448.852,-333.478 1456.9201,-326.611 1450.8768,-323.0784"/>
</g>
<!-- GO:0043170 -->
<g id="node13" class="node">
<title>GO:0043170</title>
<polygon fill="#ffffff" stroke="#000000" points="1698.1246,-383.8014 1537.1202,-383.8014 1537.1202,-324.9986 1698.1246,-324.9986 1698.1246,-383.8014"/>
<text text-anchor="middle" x="1617.6224" y="-367" font-family="Times,serif" font-size="14.00" fill="#000000">GO:0043170</text>
<text text-anchor="middle" x="1617.6224" y="-350.2" font-family="Times,serif" font-size="14.00" fill="#000000">macromolecule metabolic</text>
<text text-anchor="middle" x="1617.6224" y="-333.4" font-family="Times,serif" font-size="14.00" fill="#000000">process</text>
</g>
<!-- GO:0019538&#45;&gt;GO:0043170 -->
<g id="edge13" class="edge">
<title>GO:0019538&#45;&gt;GO:0043170</title>
<path fill="none" stroke="#000000" d="M1523.1693,-263.8553C1539.018,-279.0482 1560.9736,-300.0953 1579.7284,-318.074"/>
<polygon fill="#000000" stroke="#000000" points="1577.3651,-320.657 1587.0061,-325.0506 1582.2093,-315.6038 1577.3651,-320.657"/>
</g>
<!-- GO:0044260&#45;&gt;GO:0043170 -->
<g id="edge15" class="edge">
<title>GO:0044260&#45;&gt;GO:0043170</title>
<path fill="none" stroke="#000000" d="M1392.2746,-272.553C1399.0934,-275.4564 1405.971,-278.2632 1412.6224,-280.8 1462.6633,-299.8855 1477.3044,-298.4576 1527.6224,-316.8 1531.7614,-318.3088 1535.9886,-319.8992 1540.2434,-321.5391"/>
<polygon fill="#000000" stroke="#000000" points="1538.9906,-324.8073 1549.5783,-325.1957 1541.5437,-318.2895 1538.9906,-324.8073"/>
</g>
<!-- GO:0044237 -->
<g id="node14" class="node">
<title>GO:0044237</title>
<polygon fill="#ffffff" stroke="#000000" points="1399.8052,-495.0014 1283.4396,-495.0014 1283.4396,-436.1986 1399.8052,-436.1986 1399.8052,-495.0014"/>
<text text-anchor="middle" x="1341.6224" y="-478.2" font-family="Times,serif" font-size="14.00" fill="#000000">GO:0044237</text>
<text text-anchor="middle" x="1341.6224" y="-461.4" font-family="Times,serif" font-size="14.00" fill="#000000">cellular metabolic</text>
<text text-anchor="middle" x="1341.6224" y="-444.6" font-family="Times,serif" font-size="14.00" fill="#000000">process</text>
</g>
<!-- GO:0044260&#45;&gt;GO:0044237 -->
<g id="edge14" class="edge">
<title>GO:0044260&#45;&gt;GO:0044237</title>
<path fill="none" stroke="#000000" d="M1331.2159,-272.733C1333.3466,-312.2224 1337.1297,-382.3353 1339.5001,-426.2672"/>
<polygon fill="#000000" stroke="#000000" points="1336.0076,-426.5022 1340.0414,-436.2991 1342.9975,-426.125 1336.0076,-426.5022"/>
</g>
<!-- GO:0008152 -->
<g id="node15" class="node">
<title>GO:0008152</title>
<polygon fill="#ffffff" stroke="#000000" points="1448.808,-589.0019 1332.4368,-589.0019 1332.4368,-547.7981 1448.808,-547.7981 1448.808,-589.0019"/>
<text text-anchor="middle" x="1390.6224" y="-572.6" font-family="Times,serif" font-size="14.00" fill="#000000">GO:0008152</text>
<text text-anchor="middle" x="1390.6224" y="-555.8" font-family="Times,serif" font-size="14.00" fill="#000000">metabolic process</text>
</g>
<!-- GO:0044238&#45;&gt;GO:0008152 -->
<g id="edge16" class="edge">
<title>GO:0044238&#45;&gt;GO:0008152</title>
<path fill="none" stroke="#000000" d="M1433.2691,-375.2156C1428.4894,-404.0922 1419.1245,-457.8733 1408.6224,-503.2 1405.9911,-514.5567 1402.6937,-526.9102 1399.6426,-537.7795"/>
<polygon fill="#000000" stroke="#000000" points="1396.2002,-537.0883 1396.8225,-547.6648 1402.9316,-539.0087 1396.2002,-537.0883"/>
</g>
<!-- GO:0071704 -->
<g id="node16" class="node">
<title>GO:0071704</title>
<polygon fill="#ffffff" stroke="#000000" points="1621.808,-495.0014 1505.4368,-495.0014 1505.4368,-436.1986 1621.808,-436.1986 1621.808,-495.0014"/>
<text text-anchor="middle" x="1563.6224" y="-478.2" font-family="Times,serif" font-size="14.00" fill="#000000">GO:0071704</text>
<text text-anchor="middle" x="1563.6224" y="-461.4" font-family="Times,serif" font-size="14.00" fill="#000000">organic substance</text>
<text text-anchor="middle" x="1563.6224" y="-444.6" font-family="Times,serif" font-size="14.00" fill="#000000">metabolic process</text>
</g>
<!-- GO:0043170&#45;&gt;GO:0071704 -->
<g id="edge17" class="edge">
<title>GO:0043170&#45;&gt;GO:0071704</title>
<path fill="none" stroke="#000000" d="M1603.4345,-383.6165C1596.9749,-396.9186 1589.2415,-412.8436 1582.3159,-427.1052"/>
<polygon fill="#000000" stroke="#000000" points="1579.1229,-425.6682 1577.903,-436.1926 1585.4198,-428.726 1579.1229,-425.6682"/>
</g>
<!-- GO:0044237&#45;&gt;GO:0008152 -->
<g id="edge19" class="edge">
<title>GO:0044237&#45;&gt;GO:0008152</title>
<path fill="none" stroke="#000000" d="M1355.6638,-495.0584C1362.1895,-508.7489 1369.9337,-524.996 1376.4728,-538.7146"/>
<polygon fill="#000000" stroke="#000000" points="1373.3152,-540.2246 1380.7774,-547.7456 1379.6341,-537.2127 1373.3152,-540.2246"/>
</g>
<!-- GO:0009987 -->
<g id="node17" class="node">
<title>GO:0009987</title>
<polygon fill="#00ff00" stroke="#000000" points="1235.5786,-589.0019 1131.6662,-589.0019 1131.6662,-547.7981 1235.5786,-547.7981 1235.5786,-589.0019"/>
<text text-anchor="middle" x="1183.6224" y="-572.6" font-family="Times,serif" font-size="14.00" fill="#000000">GO:0009987</text>
<text text-anchor="middle" x="1183.6224" y="-555.8" font-family="Times,serif" font-size="14.00" fill="#000000">cellular process</text>
</g>
<!-- GO:0044237&#45;&gt;GO:0009987 -->
<g id="edge18" class="edge">
<title>GO:0044237&#45;&gt;GO:0009987</title>
<path fill="none" stroke="#000000" d="M1296.3459,-495.0584C1273.4832,-509.9336 1245.9814,-527.8272 1223.8662,-542.2161"/>
<polygon fill="#000000" stroke="#000000" points="1221.8407,-539.3583 1215.3674,-547.7456 1225.6582,-545.2257 1221.8407,-539.3583"/>
</g>
<!-- GO:0008152&#45;&gt;GO:0008150 -->
<g id="edge20" class="edge">
<title>GO:0008152&#45;&gt;GO:0008150</title>
<path fill="none" stroke="#000000" d="M1332.1261,-580.7203C1305.4844,-586.1714 1273.5128,-592.49 1244.6224,-597.6 1141.1443,-615.9026 1020.7374,-633.8038 946.3454,-644.4714"/>
<polygon fill="#000000" stroke="#000000" points="945.5641,-641.0475 936.1603,-645.928 946.5551,-647.977 945.5641,-641.0475"/>
</g>
<!-- GO:0071704&#45;&gt;GO:0008152 -->
<g id="edge21" class="edge">
<title>GO:0071704&#45;&gt;GO:0008152</title>
<path fill="none" stroke="#000000" d="M1514.0475,-495.0584C1488.7927,-510.0653 1458.3682,-528.1441 1434.0453,-542.5973"/>
<polygon fill="#000000" stroke="#000000" points="1432.19,-539.6283 1425.3812,-547.7456 1435.7659,-545.6461 1432.19,-539.6283"/>
</g>
<!-- GO:0009987&#45;&gt;GO:0008150 -->
<g id="edge22" class="edge">
<title>GO:0009987&#45;&gt;GO:0008150</title>
<path fill="none" stroke="#000000" d="M1143.7933,-589.0037C1136.8453,-592.1517 1129.6051,-595.1595 1122.6224,-597.6 1064.6239,-617.8713 996.4125,-632.9271 946.3833,-642.4262"/>
<polygon fill="#000000" stroke="#000000" points="945.4974,-639.0312 936.3114,-644.3103 946.7845,-645.9118 945.4974,-639.0312"/>
</g>
<!-- GO:0051130 -->
<g id="node18" class="node">
<title>GO:0051130</title>
<polygon fill="#00ffff" stroke="#000000" points="387.3758,-280.9003 251.869,-280.9003 251.869,-205.4997 387.3758,-205.4997 387.3758,-280.9003"/>
<text text-anchor="middle" x="319.6224" y="-264.2" font-family="Times,serif" font-size="14.00" fill="#000000">GO:0051130</text>
<text text-anchor="middle" x="319.6224" y="-247.4" font-family="Times,serif" font-size="14.00" fill="#000000">positive regulation of</text>
<text text-anchor="middle" x="319.6224" y="-230.6" font-family="Times,serif" font-size="14.00" fill="#000000">cellular component</text>
<text text-anchor="middle" x="319.6224" y="-213.8" font-family="Times,serif" font-size="14.00" fill="#000000">organization</text>
</g>
<!-- GO:0051128 -->
<g id="node19" class="node">
<title>GO:0051128</title>
<polygon fill="#ffffff" stroke="#000000" points="476.3093,-383.8014 324.9355,-383.8014 324.9355,-324.9986 476.3093,-324.9986 476.3093,-383.8014"/>
<text text-anchor="middle" x="400.6224" y="-367" font-family="Times,serif" font-size="14.00" fill="#000000">GO:0051128</text>
<text text-anchor="middle" x="400.6224" y="-350.2" font-family="Times,serif" font-size="14.00" fill="#000000">regulation of cellular</text>
<text text-anchor="middle" x="400.6224" y="-333.4" font-family="Times,serif" font-size="14.00" fill="#000000">component organization</text>
</g>
<!-- GO:0051130&#45;&gt;GO:0051128 -->
<g id="edge23" class="edge">
<title>GO:0051130&#45;&gt;GO:0051128</title>
<path fill="none" stroke="#000000" d="M347.0453,-280.8472C355.4658,-292.4072 364.7311,-305.127 373.1546,-316.6911"/>
<polygon fill="#000000" stroke="#000000" points="370.3984,-318.8519 379.1153,-324.8742 376.0565,-314.7305 370.3984,-318.8519"/>
</g>
<!-- GO:0048522 -->
<g id="node20" class="node">
<title>GO:0048522</title>
<polygon fill="#00ffff" stroke="#000000" points="306.3758,-383.8014 170.869,-383.8014 170.869,-324.9986 306.3758,-324.9986 306.3758,-383.8014"/>
<text text-anchor="middle" x="238.6224" y="-367" font-family="Times,serif" font-size="14.00" fill="#000000">GO:0048522</text>
<text text-anchor="middle" x="238.6224" y="-350.2" font-family="Times,serif" font-size="14.00" fill="#000000">positive regulation of</text>
<text text-anchor="middle" x="238.6224" y="-333.4" font-family="Times,serif" font-size="14.00" fill="#000000">cellular process</text>
</g>
<!-- GO:0051130&#45;&gt;GO:0048522 -->
<g id="edge24" class="edge">
<title>GO:0051130&#45;&gt;GO:0048522</title>
<path fill="none" stroke="#000000" d="M292.1995,-280.8472C283.779,-292.4072 274.5137,-305.127 266.0902,-316.6911"/>
<polygon fill="#000000" stroke="#000000" points="263.1883,-314.7305 260.1295,-324.8742 268.8464,-318.8519 263.1883,-314.7305"/>
</g>
<!-- GO:0050794 -->
<g id="node21" class="node">
<title>GO:0050794</title>
<polygon fill="#ffff00" stroke="#000000" points="476.5214,-495.0014 342.7234,-495.0014 342.7234,-436.1986 476.5214,-436.1986 476.5214,-495.0014"/>
<text text-anchor="middle" x="409.6224" y="-478.2" font-family="Times,serif" font-size="14.00" fill="#000000">GO:0050794</text>
<text text-anchor="middle" x="409.6224" y="-461.4" font-family="Times,serif" font-size="14.00" fill="#000000">regulation of cellular</text>
<text text-anchor="middle" x="409.6224" y="-444.6" font-family="Times,serif" font-size="14.00" fill="#000000">process</text>
</g>
<!-- GO:0051128&#45;&gt;GO:0050794 -->
<g id="edge25" class="edge">
<title>GO:0051128&#45;&gt;GO:0050794</title>
<path fill="none" stroke="#000000" d="M402.987,-383.6165C404.0329,-396.5386 405.2791,-411.9358 406.4076,-425.8788"/>
<polygon fill="#000000" stroke="#000000" points="402.9469,-426.5075 407.2423,-436.1926 409.9241,-425.9428 402.9469,-426.5075"/>
</g>
<!-- GO:0048522&#45;&gt;GO:0050794 -->
<g id="edge27" class="edge">
<title>GO:0048522&#45;&gt;GO:0050794</title>
<path fill="none" stroke="#000000" d="M283.5506,-383.6165C305.8477,-398.1161 332.9371,-415.7321 356.2821,-430.9132"/>
<polygon fill="#000000" stroke="#000000" points="354.4062,-433.8683 364.6977,-436.3858 358.2224,-428 354.4062,-433.8683"/>
</g>
<!-- GO:0048518 -->
<g id="node22" class="node">
<title>GO:0048518</title>
<polygon fill="#ffffff" stroke="#000000" points="324.3758,-495.0014 188.869,-495.0014 188.869,-436.1986 324.3758,-436.1986 324.3758,-495.0014"/>
<text text-anchor="middle" x="256.6224" y="-478.2" font-family="Times,serif" font-size="14.00" fill="#000000">GO:0048518</text>
<text text-anchor="middle" x="256.6224" y="-461.4" font-family="Times,serif" font-size="14.00" fill="#000000">positive regulation of</text>
<text text-anchor="middle" x="256.6224" y="-444.6" font-family="Times,serif" font-size="14.00" fill="#000000">biological process</text>
</g>
<!-- GO:0048522&#45;&gt;GO:0048518 -->
<g id="edge26" class="edge">
<title>GO:0048522&#45;&gt;GO:0048518</title>
<path fill="none" stroke="#000000" d="M243.3517,-383.6165C245.4639,-396.6652 247.9847,-412.2379 250.259,-426.2885"/>
<polygon fill="#000000" stroke="#000000" points="246.8092,-426.8803 251.8622,-436.1926 253.7192,-425.7617 246.8092,-426.8803"/>
</g>
<!-- GO:0050794&#45;&gt;GO:0065007 -->
<g id="edge28" class="edge">
<title>GO:0050794&#45;&gt;GO:0065007</title>
<path fill="none" stroke="#000000" d="M429.6816,-495.0584C439.0936,-508.8805 450.2801,-525.3087 459.6776,-539.1096"/>
<polygon fill="#000000" stroke="#000000" points="457.0367,-541.4499 465.5581,-547.7456 462.8227,-537.51 457.0367,-541.4499"/>
</g>
<!-- GO:0050794&#45;&gt;GO:0050789 -->
<g id="edge29" class="edge">
<title>GO:0050794&#45;&gt;GO:0050789</title>
<path fill="none" stroke="#000000" d="M384.4051,-495.0584C374.7394,-506.3497 363.5849,-519.3801 353.3839,-531.2967"/>
<polygon fill="#000000" stroke="#000000" points="350.6876,-529.0645 346.8434,-538.9373 356.0053,-533.6167 350.6876,-529.0645"/>
</g>
<!-- GO:0048518&#45;&gt;GO:0065007 -->
<g id="edge30" class="edge">
<title>GO:0048518&#45;&gt;GO:0065007</title>
<path fill="none" stroke="#000000" d="M316.2178,-494.9507C322.0858,-497.7656 327.9617,-500.5549 333.6224,-503.2 362.8687,-516.8661 395.6711,-531.5703 422.764,-543.5494"/>
<polygon fill="#000000" stroke="#000000" points="421.532,-546.8313 432.0938,-547.6668 424.3582,-540.4272 421.532,-546.8313"/>
</g>
<!-- GO:0048518&#45;&gt;GO:0050789 -->
<g id="edge31" class="edge">
<title>GO:0048518&#45;&gt;GO:0050789</title>
<path fill="none" stroke="#000000" d="M275.2488,-495.0584C282.1843,-506.0271 290.1574,-518.6369 297.5146,-530.2727"/>
<polygon fill="#000000" stroke="#000000" points="294.6907,-532.3557 302.9933,-538.9373 300.6072,-528.6147 294.6907,-532.3557"/>
</g>
<!-- GO:0043412 -->
<g id="node23" class="node">
<title>GO:0043412</title>
<polygon fill="#00ffff" stroke="#000000" points="1701.9188,-272.6014 1599.326,-272.6014 1599.326,-213.7986 1701.9188,-213.7986 1701.9188,-272.6014"/>
<text text-anchor="middle" x="1650.6224" y="-255.8" font-family="Times,serif" font-size="14.00" fill="#000000">GO:0043412</text>
<text text-anchor="middle" x="1650.6224" y="-239" font-family="Times,serif" font-size="14.00" fill="#000000">macromolecule</text>
<text text-anchor="middle" x="1650.6224" y="-222.2" font-family="Times,serif" font-size="14.00" fill="#000000">modification</text>
</g>
<!-- GO:0043412&#45;&gt;GO:0043170 -->
<g id="edge32" class="edge">
<title>GO:0043412&#45;&gt;GO:0043170</title>
<path fill="none" stroke="#000000" d="M1641.952,-272.4165C1638.0797,-285.4652 1633.4583,-301.0379 1629.2886,-315.0885"/>
<polygon fill="#000000" stroke="#000000" points="1625.8391,-314.41 1626.3494,-324.9926 1632.5499,-316.4016 1625.8391,-314.41"/>
</g>
<!-- GO:0051240 -->
<g id="node24" class="node">
<title>GO:0051240</title>
<polygon fill="#00ffff" stroke="#000000" points="153.3674,-392.1003 -.1226,-392.1003 -.1226,-316.6997 153.3674,-316.6997 153.3674,-392.1003"/>
<text text-anchor="middle" x="76.6224" y="-375.4" font-family="Times,serif" font-size="14.00" fill="#000000">GO:0051240</text>
<text text-anchor="middle" x="76.6224" y="-358.6" font-family="Times,serif" font-size="14.00" fill="#000000">positive regulation of</text>
<text text-anchor="middle" x="76.6224" y="-341.8" font-family="Times,serif" font-size="14.00" fill="#000000">multicellular organismal</text>
<text text-anchor="middle" x="76.6224" y="-325" font-family="Times,serif" font-size="14.00" fill="#000000">process</text>
</g>
<!-- GO:0051240&#45;&gt;GO:0048518 -->
<g id="edge33" class="edge">
<title>GO:0051240&#45;&gt;GO:0048518</title>
<path fill="none" stroke="#000000" d="M137.5622,-392.0472C157.9074,-404.6161 180.4721,-418.556 200.4385,-430.8908"/>
<polygon fill="#000000" stroke="#000000" points="198.7691,-433.9735 209.1162,-436.2517 202.4482,-428.0183 198.7691,-433.9735"/>
</g>
<!-- GO:0051239 -->
<g id="node25" class="node">
<title>GO:0051239</title>
<polygon fill="#ffffff" stroke="#000000" points="171.3674,-503.3003 17.8774,-503.3003 17.8774,-427.8997 171.3674,-427.8997 171.3674,-503.3003"/>
<text text-anchor="middle" x="94.6224" y="-486.6" font-family="Times,serif" font-size="14.00" fill="#000000">GO:0051239</text>
<text text-anchor="middle" x="94.6224" y="-469.8" font-family="Times,serif" font-size="14.00" fill="#000000">regulation of</text>
<text text-anchor="middle" x="94.6224" y="-453" font-family="Times,serif" font-size="14.00" fill="#000000">multicellular organismal</text>
<text text-anchor="middle" x="94.6224" y="-436.2" font-family="Times,serif" font-size="14.00" fill="#000000">process</text>
</g>
<!-- GO:0051240&#45;&gt;GO:0051239 -->
<g id="edge34" class="edge">
<title>GO:0051240&#45;&gt;GO:0051239</title>
<path fill="none" stroke="#000000" d="M82.7164,-392.0472C84.0652,-400.38 85.5116,-409.3155 86.9151,-417.9863"/>
<polygon fill="#000000" stroke="#000000" points="83.4817,-418.6793 88.5347,-427.9915 90.3917,-417.5607 83.4817,-418.6793"/>
</g>
<!-- GO:0051239&#45;&gt;GO:0065007 -->
<g id="edge35" class="edge">
<title>GO:0051239&#45;&gt;GO:0065007</title>
<path fill="none" stroke="#000000" d="M171.6694,-500.6903C174.3359,-501.5815 176.9919,-502.422 179.6224,-503.2 276.7358,-531.9226 306.8847,-512.6792 404.6224,-539.2 410.1514,-540.7003 415.8331,-542.4689 421.4768,-544.3816"/>
<polygon fill="#000000" stroke="#000000" points="420.3104,-547.6815 430.9052,-547.7144 422.6434,-541.0817 420.3104,-547.6815"/>
</g>
<!-- GO:0051239&#45;&gt;GO:0050789 -->
<g id="edge36" class="edge">
<title>GO:0051239&#45;&gt;GO:0050789</title>
<path fill="none" stroke="#000000" d="M171.4742,-500.4034C196.1094,-511.5597 223.3249,-523.8846 247.7428,-534.9426"/>
<polygon fill="#000000" stroke="#000000" points="246.3997,-538.1765 256.953,-539.1136 249.2874,-531.7999 246.3997,-538.1765"/>
</g>
<!-- GO:0032502 -->
<g id="node26" class="node">
<title>GO:0032502</title>
<polygon fill="#00ff00" stroke="#000000" points="1113.5222,-589.0019 969.7226,-589.0019 969.7226,-547.7981 1113.5222,-547.7981 1113.5222,-589.0019"/>
<text text-anchor="middle" x="1041.6224" y="-572.6" font-family="Times,serif" font-size="14.00" fill="#000000">GO:0032502</text>
<text text-anchor="middle" x="1041.6224" y="-555.8" font-family="Times,serif" font-size="14.00" fill="#000000">developmental process</text>
</g>
<!-- GO:0032502&#45;&gt;GO:0008150 -->
<g id="edge37" class="edge">
<title>GO:0032502&#45;&gt;GO:0008150</title>
<path fill="none" stroke="#000000" d="M1001.4384,-589.2182C978.2957,-601.2078 949.0372,-616.3658 924.5604,-629.0466"/>
<polygon fill="#000000" stroke="#000000" points="922.7055,-626.0657 915.4363,-633.7735 925.9255,-632.2811 922.7055,-626.0657"/>
</g>
<!-- GO:0031323 -->
<g id="node27" class="node">
<title>GO:0031323</title>
<polygon fill="#00ffff" stroke="#000000" points="628.5214,-383.8014 494.7234,-383.8014 494.7234,-324.9986 628.5214,-324.9986 628.5214,-383.8014"/>
<text text-anchor="middle" x="561.6224" y="-367" font-family="Times,serif" font-size="14.00" fill="#000000">GO:0031323</text>
<text text-anchor="middle" x="561.6224" y="-350.2" font-family="Times,serif" font-size="14.00" fill="#000000">regulation of cellular</text>
<text text-anchor="middle" x="561.6224" y="-333.4" font-family="Times,serif" font-size="14.00" fill="#000000">metabolic process</text>
</g>
<!-- GO:0031323&#45;&gt;GO:0019222 -->
<g id="edge38" class="edge">
<title>GO:0031323&#45;&gt;GO:0019222</title>
<path fill="none" stroke="#000000" d="M563.4616,-383.6165C564.275,-396.5386 565.2443,-411.9358 566.122,-425.8788"/>
<polygon fill="#000000" stroke="#000000" points="562.6498,-426.4322 566.7712,-436.1926 569.636,-425.9924 562.6498,-426.4322"/>
</g>
<!-- GO:0031323&#45;&gt;GO:0050794 -->
<g id="edge39" class="edge">
<title>GO:0031323&#45;&gt;GO:0050794</title>
<path fill="none" stroke="#000000" d="M521.6862,-383.6165C502.1273,-397.9253 478.42,-415.2691 457.8568,-430.3127"/>
<polygon fill="#000000" stroke="#000000" points="455.5598,-427.6565 449.5555,-436.3858 459.6929,-433.3061 455.5598,-427.6565"/>
</g>
<!-- GO:2000112 -->
<g id="node28" class="node">
<title>GO:2000112</title>
<polygon fill="#00ffff" stroke="#000000" points="1018.5214,-169.7003 884.7234,-169.7003 884.7234,-94.2997 1018.5214,-94.2997 1018.5214,-169.7003"/>
<text text-anchor="middle" x="951.6224" y="-153" font-family="Times,serif" font-size="14.00" fill="#000000">GO:2000112</text>
<text text-anchor="middle" x="951.6224" y="-136.2" font-family="Times,serif" font-size="14.00" fill="#000000">regulation of cellular</text>
<text text-anchor="middle" x="951.6224" y="-119.4" font-family="Times,serif" font-size="14.00" fill="#000000">macromolecule</text>
<text text-anchor="middle" x="951.6224" y="-102.6" font-family="Times,serif" font-size="14.00" fill="#000000">biosynthetic process</text>
</g>
<!-- GO:0031326 -->
<g id="node29" class="node">
<title>GO:0031326</title>
<polygon fill="#ffffff" stroke="#000000" points="943.5214,-272.6014 809.7234,-272.6014 809.7234,-213.7986 943.5214,-213.7986 943.5214,-272.6014"/>
<text text-anchor="middle" x="876.6224" y="-255.8" font-family="Times,serif" font-size="14.00" fill="#000000">GO:0031326</text>
<text text-anchor="middle" x="876.6224" y="-239" font-family="Times,serif" font-size="14.00" fill="#000000">regulation of cellular</text>
<text text-anchor="middle" x="876.6224" y="-222.2" font-family="Times,serif" font-size="14.00" fill="#000000">biosynthetic process</text>
</g>
<!-- GO:2000112&#45;&gt;GO:0031326 -->
<g id="edge40" class="edge">
<title>GO:2000112&#45;&gt;GO:0031326</title>
<path fill="none" stroke="#000000" d="M926.2308,-169.6472C918.5098,-181.095 910.0216,-193.6801 902.283,-205.154"/>
<polygon fill="#000000" stroke="#000000" points="899.2264,-203.4265 896.5364,-213.6742 905.0298,-207.3407 899.2264,-203.4265"/>
</g>
<!-- GO:0010556 -->
<g id="node30" class="node">
<title>GO:0010556</title>
<polygon fill="#ffffff" stroke="#000000" points="1091.5376,-280.9003 961.7072,-280.9003 961.7072,-205.4997 1091.5376,-205.4997 1091.5376,-280.9003"/>
<text text-anchor="middle" x="1026.6224" y="-264.2" font-family="Times,serif" font-size="14.00" fill="#000000">GO:0010556</text>
<text text-anchor="middle" x="1026.6224" y="-247.4" font-family="Times,serif" font-size="14.00" fill="#000000">regulation of</text>
<text text-anchor="middle" x="1026.6224" y="-230.6" font-family="Times,serif" font-size="14.00" fill="#000000">macromolecule</text>
<text text-anchor="middle" x="1026.6224" y="-213.8" font-family="Times,serif" font-size="14.00" fill="#000000">biosynthetic process</text>
</g>
<!-- GO:2000112&#45;&gt;GO:0010556 -->
<g id="edge41" class="edge">
<title>GO:2000112&#45;&gt;GO:0010556</title>
<path fill="none" stroke="#000000" d="M977.014,-169.6472C983.0006,-178.5235 989.4485,-188.0835 995.6506,-197.2791"/>
<polygon fill="#000000" stroke="#000000" points="992.7636,-199.258 1001.257,-205.5915 998.567,-195.3439 992.7636,-199.258"/>
</g>
<!-- GO:0031326&#45;&gt;GO:0031323 -->
<g id="edge43" class="edge">
<title>GO:0031326&#45;&gt;GO:0031323</title>
<path fill="none" stroke="#000000" d="M809.6938,-260.6983C761.22,-274.1193 694.4928,-294.1458 637.6224,-316.8 634.3787,-318.0921 631.0836,-319.4676 627.7746,-320.8999"/>
<polygon fill="#000000" stroke="#000000" points="626.1484,-317.7928 618.4431,-325.0646 629.0013,-324.1851 626.1484,-317.7928"/>
</g>
<!-- GO:0009889 -->
<g id="node31" class="node">
<title>GO:0009889</title>
<polygon fill="#ffffff" stroke="#000000" points="1086.5376,-383.8014 956.7072,-383.8014 956.7072,-324.9986 1086.5376,-324.9986 1086.5376,-383.8014"/>
<text text-anchor="middle" x="1021.6224" y="-367" font-family="Times,serif" font-size="14.00" fill="#000000">GO:0009889</text>
<text text-anchor="middle" x="1021.6224" y="-350.2" font-family="Times,serif" font-size="14.00" fill="#000000">regulation of</text>
<text text-anchor="middle" x="1021.6224" y="-333.4" font-family="Times,serif" font-size="14.00" fill="#000000">biosynthetic process</text>
</g>
<!-- GO:0031326&#45;&gt;GO:0009889 -->
<g id="edge42" class="edge">
<title>GO:0031326&#45;&gt;GO:0009889</title>
<path fill="none" stroke="#000000" d="M914.7194,-272.4165C933.2946,-286.6617 955.7921,-303.915 975.3476,-318.912"/>
<polygon fill="#000000" stroke="#000000" points="973.4632,-321.8776 983.5283,-325.1858 977.723,-316.323 973.4632,-321.8776"/>
</g>
<!-- GO:0010556&#45;&gt;GO:0009889 -->
<g id="edge45" class="edge">
<title>GO:0010556&#45;&gt;GO:0009889</title>
<path fill="none" stroke="#000000" d="M1024.9296,-280.8472C1024.4401,-291.7338 1023.9044,-303.649 1023.4093,-314.6589"/>
<polygon fill="#000000" stroke="#000000" points="1019.9028,-314.727 1022.95,-324.8742 1026.8957,-315.0415 1019.9028,-314.727"/>
</g>
<!-- GO:0060255 -->
<g id="node32" class="node">
<title>GO:0060255</title>
<polygon fill="#ffffff" stroke="#000000" points="1265.1246,-392.1003 1104.1202,-392.1003 1104.1202,-316.6997 1265.1246,-316.6997 1265.1246,-392.1003"/>
<text text-anchor="middle" x="1184.6224" y="-375.4" font-family="Times,serif" font-size="14.00" fill="#000000">GO:0060255</text>
<text text-anchor="middle" x="1184.6224" y="-358.6" font-family="Times,serif" font-size="14.00" fill="#000000">regulation of</text>
<text text-anchor="middle" x="1184.6224" y="-341.8" font-family="Times,serif" font-size="14.00" fill="#000000">macromolecule metabolic</text>
<text text-anchor="middle" x="1184.6224" y="-325" font-family="Times,serif" font-size="14.00" fill="#000000">process</text>
</g>
<!-- GO:0010556&#45;&gt;GO:0060255 -->
<g id="edge44" class="edge">
<title>GO:0010556&#45;&gt;GO:0060255</title>
<path fill="none" stroke="#000000" d="M1080.114,-280.8472C1093.8841,-290.5386 1108.8125,-301.0452 1122.9606,-311.0026"/>
<polygon fill="#000000" stroke="#000000" points="1120.9938,-313.8982 1131.1859,-316.7915 1125.0226,-308.1738 1120.9938,-313.8982"/>
</g>
<!-- GO:0009889&#45;&gt;GO:0019222 -->
<g id="edge46" class="edge">
<title>GO:0009889&#45;&gt;GO:0019222</title>
<path fill="none" stroke="#000000" d="M969.608,-383.6386C962.3824,-386.8625 954.9292,-389.7768 947.6224,-392 820.4143,-430.7054 778.5824,-391.858 650.6224,-428 645.969,-429.3143 641.2453,-430.8586 636.536,-432.5581"/>
<polygon fill="#000000" stroke="#000000" points="635.0042,-429.3967 626.9167,-436.2409 637.5071,-435.934 635.0042,-429.3967"/>
</g>
<!-- GO:0060255&#45;&gt;GO:0019222 -->
<g id="edge47" class="edge">
<title>GO:0060255&#45;&gt;GO:0019222</title>
<path fill="none" stroke="#000000" d="M1103.9897,-389.7506C1101.1863,-390.5674 1098.392,-391.3216 1095.6224,-392 902.8963,-439.2093 842.6136,-377.8858 650.6224,-428 645.6359,-429.3016 640.5765,-430.8898 635.5453,-432.6695"/>
<polygon fill="#000000" stroke="#000000" points="634.0482,-429.4936 625.9313,-436.3028 636.5229,-436.0416 634.0482,-429.4936"/>
</g>
<!-- GO:0010468 -->
<g id="node33" class="node">
<title>GO:0010468</title>
<polygon fill="#00ffff" stroke="#000000" points="1237.4739,-272.6014 1119.7709,-272.6014 1119.7709,-213.7986 1237.4739,-213.7986 1237.4739,-272.6014"/>
<text text-anchor="middle" x="1178.6224" y="-255.8" font-family="Times,serif" font-size="14.00" fill="#000000">GO:0010468</text>
<text text-anchor="middle" x="1178.6224" y="-239" font-family="Times,serif" font-size="14.00" fill="#000000">regulation of gene</text>
<text text-anchor="middle" x="1178.6224" y="-222.2" font-family="Times,serif" font-size="14.00" fill="#000000">expression</text>
</g>
<!-- GO:0010468&#45;&gt;GO:0060255 -->
<g id="edge48" class="edge">
<title>GO:0010468&#45;&gt;GO:0060255</title>
<path fill="none" stroke="#000000" d="M1180.1988,-272.4165C1180.7628,-282.8682 1181.4141,-294.9391 1182.0406,-306.5501"/>
<polygon fill="#000000" stroke="#000000" points="1178.5481,-306.7862 1182.5819,-316.583 1185.538,-306.409 1178.5481,-306.7862"/>
</g>
<!-- GO:0006464 -->
<g id="node34" class="node">
<title>GO:0006464</title>
<polygon fill="#00ffff" stroke="#000000" points="1568.1442,-58.6014 1435.1006,-58.6014 1435.1006,.2014 1568.1442,.2014 1568.1442,-58.6014"/>
<text text-anchor="middle" x="1501.6224" y="-41.8" font-family="Times,serif" font-size="14.00" fill="#000000">GO:0006464</text>
<text text-anchor="middle" x="1501.6224" y="-25" font-family="Times,serif" font-size="14.00" fill="#000000">cellular protein</text>
<text text-anchor="middle" x="1501.6224" y="-8.2" font-family="Times,serif" font-size="14.00" fill="#000000">modification process</text>
</g>
<!-- GO:0006464&#45;&gt;GO:0044267 -->
<g id="edge49" class="edge">
<title>GO:0006464&#45;&gt;GO:0044267</title>
<path fill="none" stroke="#000000" d="M1481.2766,-58.6584C1473.6267,-69.7346 1464.821,-82.4844 1456.7193,-94.2146"/>
<polygon fill="#000000" stroke="#000000" points="1453.7742,-92.32 1450.9711,-102.5373 1459.534,-96.2981 1453.7742,-92.32"/>
</g>
<!-- GO:0036211 -->
<g id="node35" class="node">
<title>GO:0036211</title>
<polygon fill="#ffffff" stroke="#000000" points="1637.8219,-161.4014 1507.4229,-161.4014 1507.4229,-102.5986 1637.8219,-102.5986 1637.8219,-161.4014"/>
<text text-anchor="middle" x="1572.6224" y="-144.6" font-family="Times,serif" font-size="14.00" fill="#000000">GO:0036211</text>
<text text-anchor="middle" x="1572.6224" y="-127.8" font-family="Times,serif" font-size="14.00" fill="#000000">protein modification</text>
<text text-anchor="middle" x="1572.6224" y="-111" font-family="Times,serif" font-size="14.00" fill="#000000">process</text>
</g>
<!-- GO:0006464&#45;&gt;GO:0036211 -->
<g id="edge50" class="edge">
<title>GO:0006464&#45;&gt;GO:0036211</title>
<path fill="none" stroke="#000000" d="M1521.9682,-58.6584C1529.6181,-69.7346 1538.4238,-82.4844 1546.5255,-94.2146"/>
<polygon fill="#000000" stroke="#000000" points="1543.7108,-96.2981 1552.2737,-102.5373 1549.4706,-92.32 1543.7108,-96.2981"/>
</g>
<!-- GO:0036211&#45;&gt;GO:0019538 -->
<g id="edge51" class="edge">
<title>GO:0036211&#45;&gt;GO:0019538</title>
<path fill="none" stroke="#000000" d="M1553.968,-161.2165C1543.6374,-177.3962 1530.8292,-197.4564 1520.4682,-213.6837"/>
<polygon fill="#000000" stroke="#000000" points="1517.4268,-211.9435 1514.9952,-222.2556 1523.3267,-215.7106 1517.4268,-211.9435"/>
</g>
<!-- GO:0036211&#45;&gt;GO:0043412 -->
<g id="edge52" class="edge">
<title>GO:0036211&#45;&gt;GO:0043412</title>
<path fill="none" stroke="#000000" d="M1593.116,-161.2165C1602.6243,-174.772 1614.0433,-191.0513 1624.191,-205.5183"/>
<polygon fill="#000000" stroke="#000000" points="1621.3869,-207.6157 1629.9949,-213.7926 1627.1177,-203.5959 1621.3869,-207.6157"/>
</g>
<!-- GO:0044767 -->
<g id="node36" class="node">
<title>GO:0044767</title>
<polygon fill="#00ff00" stroke="#000000" points="947.5222,-495.0014 803.7226,-495.0014 803.7226,-436.1986 947.5222,-436.1986 947.5222,-495.0014"/>
<text text-anchor="middle" x="875.6224" y="-478.2" font-family="Times,serif" font-size="14.00" fill="#000000">GO:0044767</text>
<text text-anchor="middle" x="875.6224" y="-461.4" font-family="Times,serif" font-size="14.00" fill="#000000">single&#45;organism</text>
<text text-anchor="middle" x="875.6224" y="-444.6" font-family="Times,serif" font-size="14.00" fill="#000000">developmental process</text>
</g>
<!-- GO:0044767&#45;&gt;GO:0044699 -->
<g id="edge54" class="edge">
<title>GO:0044767&#45;&gt;GO:0044699</title>
<path fill="none" stroke="#000000" d="M875.6224,-495.0584C875.6224,-508.3539 875.6224,-524.0608 875.6224,-537.5212"/>
<polygon fill="#000000" stroke="#000000" points="872.1225,-537.7456 875.6224,-547.7456 879.1225,-537.7457 872.1225,-537.7456"/>
</g>
<!-- GO:0044767&#45;&gt;GO:0032502 -->
<g id="edge53" class="edge">
<title>GO:0044767&#45;&gt;GO:0032502</title>
<path fill="none" stroke="#000000" d="M923.1913,-495.0584C947.318,-509.9994 976.3618,-527.9856 999.6491,-542.4069"/>
<polygon fill="#000000" stroke="#000000" points="997.9255,-545.4563 1008.27,-547.7456 1001.611,-539.505 997.9255,-545.4563"/>
</g>
<!-- GO:0044763 -->
<g id="node37" class="node">
<title>GO:0044763</title>
<polygon fill="#00ffff" stroke="#000000" points="1117.3009,-495.0014 965.9439,-495.0014 965.9439,-436.1986 1117.3009,-436.1986 1117.3009,-495.0014"/>
<text text-anchor="middle" x="1041.6224" y="-478.2" font-family="Times,serif" font-size="14.00" fill="#000000">GO:0044763</text>
<text text-anchor="middle" x="1041.6224" y="-461.4" font-family="Times,serif" font-size="14.00" fill="#000000">single&#45;organism cellular</text>
<text text-anchor="middle" x="1041.6224" y="-444.6" font-family="Times,serif" font-size="14.00" fill="#000000">process</text>
</g>
<!-- GO:0044763&#45;&gt;GO:0044699 -->
<g id="edge56" class="edge">
<title>GO:0044763&#45;&gt;GO:0044699</title>
<path fill="none" stroke="#000000" d="M994.0535,-495.0584C969.9268,-509.9994 940.883,-527.9856 917.5957,-542.4069"/>
<polygon fill="#000000" stroke="#000000" points="915.6338,-539.505 908.9748,-547.7456 919.3193,-545.4563 915.6338,-539.505"/>
</g>
<!-- GO:0044763&#45;&gt;GO:0009987 -->
<g id="edge55" class="edge">
<title>GO:0044763&#45;&gt;GO:0009987</title>
<path fill="none" stroke="#000000" d="M1082.3139,-495.0584C1102.6796,-509.802 1127.1411,-527.5107 1146.9251,-541.8332"/>
<polygon fill="#000000" stroke="#000000" points="1144.9394,-544.7166 1155.0921,-547.7456 1149.0443,-539.0465 1144.9394,-544.7166"/>
</g>
<!-- GO:0051171 -->
<g id="node38" class="node">
<title>GO:0051171</title>
<polygon fill="#00ffff" stroke="#000000" points="784.701,-392.1003 646.5438,-392.1003 646.5438,-316.6997 784.701,-316.6997 784.701,-392.1003"/>
<text text-anchor="middle" x="715.6224" y="-375.4" font-family="Times,serif" font-size="14.00" fill="#000000">GO:0051171</text>
<text text-anchor="middle" x="715.6224" y="-358.6" font-family="Times,serif" font-size="14.00" fill="#000000">regulation of nitrogen</text>
<text text-anchor="middle" x="715.6224" y="-341.8" font-family="Times,serif" font-size="14.00" fill="#000000">compound metabolic</text>
<text text-anchor="middle" x="715.6224" y="-325" font-family="Times,serif" font-size="14.00" fill="#000000">process</text>
</g>
<!-- GO:0051171&#45;&gt;GO:0019222 -->
<g id="edge57" class="edge">
<title>GO:0051171&#45;&gt;GO:0019222</title>
<path fill="none" stroke="#000000" d="M665.8549,-392.0472C649.6831,-404.2806 631.7942,-417.8129 615.816,-429.8998"/>
<polygon fill="#000000" stroke="#000000" points="613.5175,-427.2499 607.6539,-436.0742 617.7406,-432.8325 613.5175,-427.2499"/>
</g>
<!-- GO:0048856 -->
<g id="node39" class="node">
<title>GO:0048856</title>
<polygon fill="#00ff00" stroke="#000000" points="1265.5194,-495.0014 1135.7254,-495.0014 1135.7254,-436.1986 1265.5194,-436.1986 1265.5194,-495.0014"/>
<text text-anchor="middle" x="1200.6224" y="-478.2" font-family="Times,serif" font-size="14.00" fill="#000000">GO:0048856</text>
<text text-anchor="middle" x="1200.6224" y="-461.4" font-family="Times,serif" font-size="14.00" fill="#000000">anatomical structure</text>
<text text-anchor="middle" x="1200.6224" y="-444.6" font-family="Times,serif" font-size="14.00" fill="#000000">development</text>
</g>
<!-- GO:0048856&#45;&gt;GO:0032502 -->
<g id="edge58" class="edge">
<title>GO:0048856&#45;&gt;GO:0032502</title>
<path fill="none" stroke="#000000" d="M1155.0594,-495.0584C1132.0519,-509.9336 1104.3761,-527.8272 1082.1209,-542.2161"/>
<polygon fill="#000000" stroke="#000000" points="1080.0657,-539.3769 1073.5684,-547.7456 1083.8664,-545.2553 1080.0657,-539.3769"/>
</g>
</g>
</svg>
