<?xml version="1.0" encoding="UTF-8" standalone="no"?>
<!DOCTYPE svg PUBLIC "-//W3C//DTD SVG 1.1//EN"
 "http://www.w3.org/Graphics/SVG/1.1/DTD/svg11.dtd">
<!-- Generated by graphviz version 2.40.1 (20161225.0304)
 -->
<!-- Title: G Pages: 1 -->
<svg width="751pt" height="950pt"
 viewBox="0.00 0.00 750.59 949.60" xmlns="http://www.w3.org/2000/svg" xmlns:xlink="http://www.w3.org/1999/xlink">
<g id="graph0" class="graph" transform="scale(1 1) rotate(0) translate(4 945.6)">
<title>G</title>
<polygon fill="#ffffff" stroke="transparent" points="-4,4 -4,-945.6 746.5891,-945.6 746.5891,4 -4,4"/>
<!-- GO:0038023 -->
<g id="node1" class="node">
<title>GO:0038023</title>
<polygon fill="#00ffff" stroke="#000000" points="742.4328,-683.8014 626.0588,-683.8014 626.0588,-624.9986 742.4328,-624.9986 742.4328,-683.8014"/>
<text text-anchor="middle" x="684.2458" y="-667" font-family="Times,serif" font-size="14.00" fill="#000000">GO:0038023</text>
<text text-anchor="middle" x="684.2458" y="-650.2" font-family="Times,serif" font-size="14.00" fill="#000000">signaling receptor</text>
<text text-anchor="middle" x="684.2458" y="-633.4" font-family="Times,serif" font-size="14.00" fill="#000000">activity</text>
</g>
<!-- GO:0004872 -->
<g id="node2" class="node">
<title>GO:0004872</title>
<polygon fill="#00ff00" stroke="#000000" points="586.0936,-769.4019 478.398,-769.4019 478.398,-728.1981 586.0936,-728.1981 586.0936,-769.4019"/>
<text text-anchor="middle" x="532.2458" y="-753" font-family="Times,serif" font-size="14.00" fill="#000000">GO:0004872</text>
<text text-anchor="middle" x="532.2458" y="-736.2" font-family="Times,serif" font-size="14.00" fill="#000000">receptor activity</text>
</g>
<!-- GO:0038023&#45;&gt;GO:0004872 -->
<g id="edge1" class="edge">
<title>GO:0038023&#45;&gt;GO:0004872</title>
<path fill="none" stroke="#000000" d="M636.9853,-683.7513C616.8826,-696.2361 593.6338,-710.6748 574.1542,-722.7727"/>
<polygon fill="#000000" stroke="#000000" points="572.1427,-719.9018 565.4942,-728.151 575.8358,-725.8483 572.1427,-719.9018"/>
</g>
<!-- GO:0004871 -->
<g id="node3" class="node">
<title>GO:0004871</title>
<polygon fill="#ffffff" stroke="#000000" points="730.9867,-864.2014 619.5049,-864.2014 619.5049,-805.3986 730.9867,-805.3986 730.9867,-864.2014"/>
<text text-anchor="middle" x="675.2458" y="-847.4" font-family="Times,serif" font-size="14.00" fill="#000000">GO:0004871</text>
<text text-anchor="middle" x="675.2458" y="-830.6" font-family="Times,serif" font-size="14.00" fill="#000000">signal transducer</text>
<text text-anchor="middle" x="675.2458" y="-813.8" font-family="Times,serif" font-size="14.00" fill="#000000">activity</text>
</g>
<!-- GO:0038023&#45;&gt;GO:0004871 -->
<g id="edge2" class="edge">
<title>GO:0038023&#45;&gt;GO:0004871</title>
<path fill="none" stroke="#000000" d="M682.7798,-683.7859C681.2696,-714.0564 678.9061,-761.4309 677.2295,-795.0381"/>
<polygon fill="#000000" stroke="#000000" points="673.7139,-795.2647 676.7112,-805.4267 680.7052,-795.6135 673.7139,-795.2647"/>
</g>
<!-- GO:0060089 -->
<g id="node4" class="node">
<title>GO:0060089</title>
<polygon fill="#ffffff" stroke="#000000" points="588.0224,-864.2014 454.4692,-864.2014 454.4692,-805.3986 588.0224,-805.3986 588.0224,-864.2014"/>
<text text-anchor="middle" x="521.2458" y="-847.4" font-family="Times,serif" font-size="14.00" fill="#000000">GO:0060089</text>
<text text-anchor="middle" x="521.2458" y="-830.6" font-family="Times,serif" font-size="14.00" fill="#000000">molecular transducer</text>
<text text-anchor="middle" x="521.2458" y="-813.8" font-family="Times,serif" font-size="14.00" fill="#000000">activity</text>
</g>
<!-- GO:0004872&#45;&gt;GO:0060089 -->
<g id="edge3" class="edge">
<title>GO:0004872&#45;&gt;GO:0060089</title>
<path fill="none" stroke="#000000" d="M529.583,-769.6182C528.5959,-777.3358 527.4408,-786.3662 526.3105,-795.2036"/>
<polygon fill="#000000" stroke="#000000" points="522.8035,-795.0359 525.0064,-805.3991 529.7469,-795.924 522.8035,-795.0359"/>
</g>
<!-- GO:0003674 -->
<g id="node5" class="node">
<title>GO:0003674</title>
<polygon fill="#ffffff" stroke="#000000" points="497.8789,-941.4019 372.6127,-941.4019 372.6127,-900.1981 497.8789,-900.1981 497.8789,-941.4019"/>
<text text-anchor="middle" x="435.2458" y="-925" font-family="Times,serif" font-size="14.00" fill="#000000">GO:0003674</text>
<text text-anchor="middle" x="435.2458" y="-908.2" font-family="Times,serif" font-size="14.00" fill="#000000">molecular_function</text>
</g>
<!-- GO:0004871&#45;&gt;GO:0003674 -->
<g id="edge4" class="edge">
<title>GO:0004871&#45;&gt;GO:0003674</title>
<path fill="none" stroke="#000000" d="M619.4825,-855.8375C612.0155,-858.607 604.4507,-861.3886 597.2458,-864 566.9109,-874.9947 533.2606,-886.8484 504.5243,-896.8682"/>
<polygon fill="#000000" stroke="#000000" points="503.272,-893.598 494.9792,-900.192 505.5741,-900.2087 503.272,-893.598"/>
</g>
<!-- GO:0060089&#45;&gt;GO:0003674 -->
<g id="edge5" class="edge">
<title>GO:0060089&#45;&gt;GO:0003674</title>
<path fill="none" stroke="#000000" d="M491.6495,-864.3963C482.3716,-873.6742 472.1686,-883.8772 463.0212,-893.0246"/>
<polygon fill="#000000" stroke="#000000" points="460.5455,-890.5506 455.9492,-900.0966 465.4952,-895.5003 460.5455,-890.5506"/>
</g>
<!-- GO:0050431 -->
<g id="node6" class="node">
<title>GO:0050431</title>
<polygon fill="#00ffff" stroke="#000000" points="194.2172,-572.6014 62.2744,-572.6014 62.2744,-513.7986 194.2172,-513.7986 194.2172,-572.6014"/>
<text text-anchor="middle" x="128.2458" y="-555.8" font-family="Times,serif" font-size="14.00" fill="#000000">GO:0050431</text>
<text text-anchor="middle" x="128.2458" y="-539" font-family="Times,serif" font-size="14.00" fill="#000000">transforming growth</text>
<text text-anchor="middle" x="128.2458" y="-522.2" font-family="Times,serif" font-size="14.00" fill="#000000">factor beta binding</text>
</g>
<!-- GO:0019955 -->
<g id="node7" class="node">
<title>GO:0019955</title>
<polygon fill="#ffffff" stroke="#000000" points="110.7385,-675.0019 -.2469,-675.0019 -.2469,-633.7981 110.7385,-633.7981 110.7385,-675.0019"/>
<text text-anchor="middle" x="55.2458" y="-658.6" font-family="Times,serif" font-size="14.00" fill="#000000">GO:0019955</text>
<text text-anchor="middle" x="55.2458" y="-641.8" font-family="Times,serif" font-size="14.00" fill="#000000">cytokine binding</text>
</g>
<!-- GO:0050431&#45;&gt;GO:0019955 -->
<g id="edge6" class="edge">
<title>GO:0050431&#45;&gt;GO:0019955</title>
<path fill="none" stroke="#000000" d="M109.0659,-572.4165C98.4443,-588.5962 85.2753,-608.6564 74.6225,-624.8837"/>
<polygon fill="#000000" stroke="#000000" points="71.5573,-623.1752 68.9953,-633.4556 77.4091,-627.0167 71.5573,-623.1752"/>
</g>
<!-- GO:0019838 -->
<g id="node8" class="node">
<title>GO:0019838</title>
<polygon fill="#ffffff" stroke="#000000" points="266.3258,-675.0019 128.1658,-675.0019 128.1658,-633.7981 266.3258,-633.7981 266.3258,-675.0019"/>
<text text-anchor="middle" x="197.2458" y="-658.6" font-family="Times,serif" font-size="14.00" fill="#000000">GO:0019838</text>
<text text-anchor="middle" x="197.2458" y="-641.8" font-family="Times,serif" font-size="14.00" fill="#000000">growth factor binding</text>
</g>
<!-- GO:0050431&#45;&gt;GO:0019838 -->
<g id="edge7" class="edge">
<title>GO:0050431&#45;&gt;GO:0019838</title>
<path fill="none" stroke="#000000" d="M146.3747,-572.4165C156.4143,-588.5962 168.8617,-608.6564 178.9308,-624.8837"/>
<polygon fill="#000000" stroke="#000000" points="176.0032,-626.8038 184.2497,-633.4556 181.9512,-623.113 176.0032,-626.8038"/>
</g>
<!-- GO:0005515 -->
<g id="node9" class="node">
<title>GO:0005515</title>
<polygon fill="#ffffff" stroke="#000000" points="248.1834,-769.4019 146.3082,-769.4019 146.3082,-728.1981 248.1834,-728.1981 248.1834,-769.4019"/>
<text text-anchor="middle" x="197.2458" y="-753" font-family="Times,serif" font-size="14.00" fill="#000000">GO:0005515</text>
<text text-anchor="middle" x="197.2458" y="-736.2" font-family="Times,serif" font-size="14.00" fill="#000000">protein binding</text>
</g>
<!-- GO:0019955&#45;&gt;GO:0005515 -->
<g id="edge8" class="edge">
<title>GO:0019955&#45;&gt;GO:0005515</title>
<path fill="none" stroke="#000000" d="M86.4083,-675.1165C107.4021,-689.0729 135.2664,-707.5968 157.8043,-722.5798"/>
<polygon fill="#000000" stroke="#000000" points="155.8906,-725.5103 166.156,-728.1318 159.7659,-719.6809 155.8906,-725.5103"/>
</g>
<!-- GO:0019838&#45;&gt;GO:0005515 -->
<g id="edge9" class="edge">
<title>GO:0019838&#45;&gt;GO:0005515</title>
<path fill="none" stroke="#000000" d="M197.2458,-675.3504C197.2458,-687.8165 197.2458,-703.8645 197.2458,-717.7786"/>
<polygon fill="#000000" stroke="#000000" points="193.7459,-717.9081 197.2458,-727.9081 200.7459,-717.9082 193.7459,-717.9081"/>
</g>
<!-- GO:0005488 -->
<g id="node10" class="node">
<title>GO:0005488</title>
<polygon fill="#ffffff" stroke="#000000" points="270.8497,-855.4019 181.6419,-855.4019 181.6419,-814.1981 270.8497,-814.1981 270.8497,-855.4019"/>
<text text-anchor="middle" x="226.2458" y="-839" font-family="Times,serif" font-size="14.00" fill="#000000">GO:0005488</text>
<text text-anchor="middle" x="226.2458" y="-822.2" font-family="Times,serif" font-size="14.00" fill="#000000">binding</text>
</g>
<!-- GO:0005515&#45;&gt;GO:0005488 -->
<g id="edge10" class="edge">
<title>GO:0005515&#45;&gt;GO:0005488</title>
<path fill="none" stroke="#000000" d="M204.2659,-769.6182C207.7924,-780.0761 212.1318,-792.9446 216.0206,-804.477"/>
<polygon fill="#000000" stroke="#000000" points="212.7785,-805.8161 219.2904,-814.1735 219.4115,-803.5794 212.7785,-805.8161"/>
</g>
<!-- GO:0005488&#45;&gt;GO:0003674 -->
<g id="edge11" class="edge">
<title>GO:0005488&#45;&gt;GO:0003674</title>
<path fill="none" stroke="#000000" d="M270.8252,-853.1437C301.268,-865.6704 341.9579,-882.4136 375.2423,-896.1096"/>
<polygon fill="#000000" stroke="#000000" points="374.286,-899.5007 384.8656,-900.0694 376.9497,-893.0274 374.286,-899.5007"/>
</g>
<!-- GO:0016740 -->
<g id="node11" class="node">
<title>GO:0016740</title>
<polygon fill="#00ffff" stroke="#000000" points="424.3575,-769.4019 302.1341,-769.4019 302.1341,-728.1981 424.3575,-728.1981 424.3575,-769.4019"/>
<text text-anchor="middle" x="363.2458" y="-753" font-family="Times,serif" font-size="14.00" fill="#000000">GO:0016740</text>
<text text-anchor="middle" x="363.2458" y="-736.2" font-family="Times,serif" font-size="14.00" fill="#000000">transferase activity</text>
</g>
<!-- GO:0003824 -->
<g id="node12" class="node">
<title>GO:0003824</title>
<polygon fill="#00ff00" stroke="#000000" points="420.6582,-855.4019 311.8334,-855.4019 311.8334,-814.1981 420.6582,-814.1981 420.6582,-855.4019"/>
<text text-anchor="middle" x="366.2458" y="-839" font-family="Times,serif" font-size="14.00" fill="#000000">GO:0003824</text>
<text text-anchor="middle" x="366.2458" y="-822.2" font-family="Times,serif" font-size="14.00" fill="#000000">catalytic activity</text>
</g>
<!-- GO:0016740&#45;&gt;GO:0003824 -->
<g id="edge12" class="edge">
<title>GO:0016740&#45;&gt;GO:0003824</title>
<path fill="none" stroke="#000000" d="M363.972,-769.6182C364.3331,-779.9705 364.7767,-792.6848 365.1758,-804.1271"/>
<polygon fill="#000000" stroke="#000000" points="361.6797,-804.3016 365.5263,-814.1735 368.6754,-804.0575 361.6797,-804.3016"/>
</g>
<!-- GO:0003824&#45;&gt;GO:0003674 -->
<g id="edge13" class="edge">
<title>GO:0003824&#45;&gt;GO:0003674</title>
<path fill="none" stroke="#000000" d="M382.9488,-855.6182C391.7632,-866.6043 402.7119,-880.2506 412.3102,-892.2137"/>
<polygon fill="#000000" stroke="#000000" points="409.7087,-894.564 418.6966,-900.1735 415.1685,-890.1833 409.7087,-894.564"/>
</g>
<!-- GO:0005025 -->
<g id="node13" class="node">
<title>GO:0005025</title>
<polygon fill="#00ffff" stroke="#000000" points="573.2172,-75.3003 441.2744,-75.3003 441.2744,.1003 573.2172,.1003 573.2172,-75.3003"/>
<text text-anchor="middle" x="507.2458" y="-58.6" font-family="Times,serif" font-size="14.00" fill="#000000">GO:0005025</text>
<text text-anchor="middle" x="507.2458" y="-41.8" font-family="Times,serif" font-size="14.00" fill="#000000">transforming growth</text>
<text text-anchor="middle" x="507.2458" y="-25" font-family="Times,serif" font-size="14.00" fill="#000000">factor beta receptor</text>
<text text-anchor="middle" x="507.2458" y="-8.2" font-family="Times,serif" font-size="14.00" fill="#000000">activity, type I</text>
</g>
<!-- GO:0005024 -->
<g id="node14" class="node">
<title>GO:0005024</title>
<polygon fill="#ffffff" stroke="#000000" points="573.2172,-186.5003 441.2744,-186.5003 441.2744,-111.0997 573.2172,-111.0997 573.2172,-186.5003"/>
<text text-anchor="middle" x="507.2458" y="-169.8" font-family="Times,serif" font-size="14.00" fill="#000000">GO:0005024</text>
<text text-anchor="middle" x="507.2458" y="-153" font-family="Times,serif" font-size="14.00" fill="#000000">transforming growth</text>
<text text-anchor="middle" x="507.2458" y="-136.2" font-family="Times,serif" font-size="14.00" fill="#000000">factor beta&#45;activated</text>
<text text-anchor="middle" x="507.2458" y="-119.4" font-family="Times,serif" font-size="14.00" fill="#000000">receptor activity</text>
</g>
<!-- GO:0005025&#45;&gt;GO:0005024 -->
<g id="edge14" class="edge">
<title>GO:0005025&#45;&gt;GO:0005024</title>
<path fill="none" stroke="#000000" d="M507.2458,-75.2472C507.2458,-83.58 507.2458,-92.5155 507.2458,-101.1863"/>
<polygon fill="#000000" stroke="#000000" points="503.7459,-101.1915 507.2458,-111.1915 510.7459,-101.1916 503.7459,-101.1915"/>
</g>
<!-- GO:0004675 -->
<g id="node15" class="node">
<title>GO:0004675</title>
<polygon fill="#ffffff" stroke="#000000" points="582.8978,-297.7003 431.5938,-297.7003 431.5938,-222.2997 582.8978,-222.2997 582.8978,-297.7003"/>
<text text-anchor="middle" x="507.2458" y="-281" font-family="Times,serif" font-size="14.00" fill="#000000">GO:0004675</text>
<text text-anchor="middle" x="507.2458" y="-264.2" font-family="Times,serif" font-size="14.00" fill="#000000">transmembrane receptor</text>
<text text-anchor="middle" x="507.2458" y="-247.4" font-family="Times,serif" font-size="14.00" fill="#000000">protein serine/threonine</text>
<text text-anchor="middle" x="507.2458" y="-230.6" font-family="Times,serif" font-size="14.00" fill="#000000">kinase activity</text>
</g>
<!-- GO:0005024&#45;&gt;GO:0004675 -->
<g id="edge15" class="edge">
<title>GO:0005024&#45;&gt;GO:0004675</title>
<path fill="none" stroke="#000000" d="M507.2458,-186.4472C507.2458,-194.78 507.2458,-203.7155 507.2458,-212.3863"/>
<polygon fill="#000000" stroke="#000000" points="503.7459,-212.3915 507.2458,-222.3915 510.7459,-212.3916 503.7459,-212.3915"/>
</g>
<!-- GO:0004674 -->
<g id="node16" class="node">
<title>GO:0004674</title>
<polygon fill="#ffffff" stroke="#000000" points="498.0892,-392.2014 348.4024,-392.2014 348.4024,-333.3986 498.0892,-333.3986 498.0892,-392.2014"/>
<text text-anchor="middle" x="423.2458" y="-375.4" font-family="Times,serif" font-size="14.00" fill="#000000">GO:0004674</text>
<text text-anchor="middle" x="423.2458" y="-358.6" font-family="Times,serif" font-size="14.00" fill="#000000">protein serine/threonine</text>
<text text-anchor="middle" x="423.2458" y="-341.8" font-family="Times,serif" font-size="14.00" fill="#000000">kinase activity</text>
</g>
<!-- GO:0004675&#45;&gt;GO:0004674 -->
<g id="edge16" class="edge">
<title>GO:0004675&#45;&gt;GO:0004674</title>
<path fill="none" stroke="#000000" d="M476.4443,-297.6952C468.984,-306.8252 461.0152,-316.5775 453.5768,-325.6807"/>
<polygon fill="#000000" stroke="#000000" points="450.8199,-323.5231 447.2027,-333.4814 456.2404,-327.9524 450.8199,-323.5231"/>
</g>
<!-- GO:0019199 -->
<g id="node17" class="node">
<title>GO:0019199</title>
<polygon fill="#ffffff" stroke="#000000" points="666.8978,-392.2014 515.5938,-392.2014 515.5938,-333.3986 666.8978,-333.3986 666.8978,-392.2014"/>
<text text-anchor="middle" x="591.2458" y="-375.4" font-family="Times,serif" font-size="14.00" fill="#000000">GO:0019199</text>
<text text-anchor="middle" x="591.2458" y="-358.6" font-family="Times,serif" font-size="14.00" fill="#000000">transmembrane receptor</text>
<text text-anchor="middle" x="591.2458" y="-341.8" font-family="Times,serif" font-size="14.00" fill="#000000">protein kinase activity</text>
</g>
<!-- GO:0004675&#45;&gt;GO:0019199 -->
<g id="edge17" class="edge">
<title>GO:0004675&#45;&gt;GO:0019199</title>
<path fill="none" stroke="#000000" d="M538.0473,-297.6952C545.5076,-306.8252 553.4764,-316.5775 560.9148,-325.6807"/>
<polygon fill="#000000" stroke="#000000" points="558.2512,-327.9524 567.2889,-333.4814 563.6717,-323.5231 558.2512,-327.9524"/>
</g>
<!-- GO:0004672 -->
<g id="node18" class="node">
<title>GO:0004672</title>
<polygon fill="#ffffff" stroke="#000000" points="504.6588,-469.4019 363.8328,-469.4019 363.8328,-428.1981 504.6588,-428.1981 504.6588,-469.4019"/>
<text text-anchor="middle" x="434.2458" y="-453" font-family="Times,serif" font-size="14.00" fill="#000000">GO:0004672</text>
<text text-anchor="middle" x="434.2458" y="-436.2" font-family="Times,serif" font-size="14.00" fill="#000000">protein kinase activity</text>
</g>
<!-- GO:0004674&#45;&gt;GO:0004672 -->
<g id="edge18" class="edge">
<title>GO:0004674&#45;&gt;GO:0004672</title>
<path fill="none" stroke="#000000" d="M427.0314,-392.3963C428.0888,-400.6638 429.2403,-409.6657 430.3064,-418.0008"/>
<polygon fill="#000000" stroke="#000000" points="426.8571,-418.6214 431.5977,-428.0966 433.8006,-417.7333 426.8571,-418.6214"/>
</g>
<!-- GO:0019199&#45;&gt;GO:0004672 -->
<g id="edge20" class="edge">
<title>GO:0019199&#45;&gt;GO:0004672</title>
<path fill="none" stroke="#000000" d="M537.6544,-392.1558C519.3482,-402.1834 499.0258,-413.3154 481.2759,-423.0383"/>
<polygon fill="#000000" stroke="#000000" points="479.3416,-420.1071 472.2527,-427.9809 482.7046,-426.2464 479.3416,-420.1071"/>
</g>
<!-- GO:0004888 -->
<g id="node19" class="node">
<title>GO:0004888</title>
<polygon fill="#ffffff" stroke="#000000" points="669.8729,-572.6014 512.6187,-572.6014 512.6187,-513.7986 669.8729,-513.7986 669.8729,-572.6014"/>
<text text-anchor="middle" x="591.2458" y="-555.8" font-family="Times,serif" font-size="14.00" fill="#000000">GO:0004888</text>
<text text-anchor="middle" x="591.2458" y="-539" font-family="Times,serif" font-size="14.00" fill="#000000">transmembrane signaling</text>
<text text-anchor="middle" x="591.2458" y="-522.2" font-family="Times,serif" font-size="14.00" fill="#000000">receptor activity</text>
</g>
<!-- GO:0019199&#45;&gt;GO:0004888 -->
<g id="edge19" class="edge">
<title>GO:0019199&#45;&gt;GO:0004888</title>
<path fill="none" stroke="#000000" d="M591.2458,-392.1859C591.2458,-422.4564 591.2458,-469.8309 591.2458,-503.4381"/>
<polygon fill="#000000" stroke="#000000" points="587.7459,-503.8267 591.2458,-513.8267 594.7459,-503.8267 587.7459,-503.8267"/>
</g>
<!-- GO:0016773 -->
<g id="node20" class="node">
<title>GO:0016773</title>
<polygon fill="#ffffff" stroke="#000000" points="373.6089,-580.9003 230.8827,-580.9003 230.8827,-505.4997 373.6089,-505.4997 373.6089,-580.9003"/>
<text text-anchor="middle" x="302.2458" y="-564.2" font-family="Times,serif" font-size="14.00" fill="#000000">GO:0016773</text>
<text text-anchor="middle" x="302.2458" y="-547.4" font-family="Times,serif" font-size="14.00" fill="#000000">phosphotransferase</text>
<text text-anchor="middle" x="302.2458" y="-530.6" font-family="Times,serif" font-size="14.00" fill="#000000">activity, alcohol group</text>
<text text-anchor="middle" x="302.2458" y="-513.8" font-family="Times,serif" font-size="14.00" fill="#000000">as acceptor</text>
</g>
<!-- GO:0004672&#45;&gt;GO:0016773 -->
<g id="edge21" class="edge">
<title>GO:0004672&#45;&gt;GO:0016773</title>
<path fill="none" stroke="#000000" d="M405.2778,-469.5165C392.9704,-478.3182 378.1228,-488.9365 363.5789,-499.3375"/>
<polygon fill="#000000" stroke="#000000" points="361.1703,-496.7571 355.0723,-505.4211 365.2423,-502.4509 361.1703,-496.7571"/>
</g>
<!-- GO:0016301 -->
<g id="node21" class="node">
<title>GO:0016301</title>
<polygon fill="#ffffff" stroke="#000000" points="489.0021,-563.8019 391.4895,-563.8019 391.4895,-522.5981 489.0021,-522.5981 489.0021,-563.8019"/>
<text text-anchor="middle" x="440.2458" y="-547.4" font-family="Times,serif" font-size="14.00" fill="#000000">GO:0016301</text>
<text text-anchor="middle" x="440.2458" y="-530.6" font-family="Times,serif" font-size="14.00" fill="#000000">kinase activity</text>
</g>
<!-- GO:0004672&#45;&gt;GO:0016301 -->
<g id="edge22" class="edge">
<title>GO:0004672&#45;&gt;GO:0016301</title>
<path fill="none" stroke="#000000" d="M435.5774,-469.7504C436.3697,-482.2165 437.3897,-498.2645 438.2741,-512.1786"/>
<polygon fill="#000000" stroke="#000000" points="434.7906,-512.5503 438.9179,-522.3081 441.7765,-512.1062 434.7906,-512.5503"/>
</g>
<!-- GO:0004888&#45;&gt;GO:0038023 -->
<g id="edge23" class="edge">
<title>GO:0004888&#45;&gt;GO:0038023</title>
<path fill="none" stroke="#000000" d="M615.6805,-572.4165C627.1233,-586.0987 640.8869,-602.5558 653.0703,-617.1234"/>
<polygon fill="#000000" stroke="#000000" points="650.5512,-619.567 659.6514,-624.9926 655.9208,-615.0762 650.5512,-619.567"/>
</g>
<!-- GO:0099600 -->
<g id="node22" class="node">
<title>GO:0099600</title>
<polygon fill="#00ffff" stroke="#000000" points="607.8978,-683.8014 456.5938,-683.8014 456.5938,-624.9986 607.8978,-624.9986 607.8978,-683.8014"/>
<text text-anchor="middle" x="532.2458" y="-667" font-family="Times,serif" font-size="14.00" fill="#000000">GO:0099600</text>
<text text-anchor="middle" x="532.2458" y="-650.2" font-family="Times,serif" font-size="14.00" fill="#000000">transmembrane receptor</text>
<text text-anchor="middle" x="532.2458" y="-633.4" font-family="Times,serif" font-size="14.00" fill="#000000">activity</text>
</g>
<!-- GO:0004888&#45;&gt;GO:0099600 -->
<g id="edge24" class="edge">
<title>GO:0004888&#45;&gt;GO:0099600</title>
<path fill="none" stroke="#000000" d="M575.7442,-572.4165C568.6865,-585.7186 560.237,-601.6436 552.6702,-615.9052"/>
<polygon fill="#000000" stroke="#000000" points="549.4439,-614.5185 547.8487,-624.9926 555.6274,-617.7994 549.4439,-614.5185"/>
</g>
<!-- GO:0016772 -->
<g id="node23" class="node">
<title>GO:0016772</title>
<polygon fill="#ffffff" stroke="#000000" points="438.2536,-692.1003 284.238,-692.1003 284.238,-616.6997 438.2536,-616.6997 438.2536,-692.1003"/>
<text text-anchor="middle" x="361.2458" y="-675.4" font-family="Times,serif" font-size="14.00" fill="#000000">GO:0016772</text>
<text text-anchor="middle" x="361.2458" y="-658.6" font-family="Times,serif" font-size="14.00" fill="#000000">transferase activity,</text>
<text text-anchor="middle" x="361.2458" y="-641.8" font-family="Times,serif" font-size="14.00" fill="#000000">transferring phosphorus&#45;</text>
<text text-anchor="middle" x="361.2458" y="-625" font-family="Times,serif" font-size="14.00" fill="#000000">containing groups</text>
</g>
<!-- GO:0016773&#45;&gt;GO:0016772 -->
<g id="edge25" class="edge">
<title>GO:0016773&#45;&gt;GO:0016772</title>
<path fill="none" stroke="#000000" d="M322.2205,-580.8472C326.8339,-589.5423 331.7955,-598.8936 336.5824,-607.9157"/>
<polygon fill="#000000" stroke="#000000" points="333.5129,-609.5983 341.2917,-616.7915 339.6965,-606.3175 333.5129,-609.5983"/>
</g>
<!-- GO:0016301&#45;&gt;GO:0016772 -->
<g id="edge26" class="edge">
<title>GO:0016301&#45;&gt;GO:0016772</title>
<path fill="none" stroke="#000000" d="M425.5716,-563.8553C416.6864,-576.3621 404.9827,-592.8361 393.9968,-608.2998"/>
<polygon fill="#000000" stroke="#000000" points="390.9282,-606.5759 387.9899,-616.7552 396.6347,-610.63 390.9282,-606.5759"/>
</g>
<!-- GO:0099600&#45;&gt;GO:0004872 -->
<g id="edge27" class="edge">
<title>GO:0099600&#45;&gt;GO:0004872</title>
<path fill="none" stroke="#000000" d="M532.2458,-683.7513C532.2458,-694.6614 532.2458,-707.0637 532.2458,-718.092"/>
<polygon fill="#000000" stroke="#000000" points="528.7459,-718.1509 532.2458,-728.151 535.7459,-718.151 528.7459,-718.1509"/>
</g>
<!-- GO:0016772&#45;&gt;GO:0016740 -->
<g id="edge28" class="edge">
<title>GO:0016772&#45;&gt;GO:0016740</title>
<path fill="none" stroke="#000000" d="M362.0478,-692.2522C362.2276,-700.7406 362.4163,-709.6492 362.5894,-717.8197"/>
<polygon fill="#000000" stroke="#000000" points="359.0948,-718.1143 362.8059,-728.0379 366.0932,-717.966 359.0948,-718.1143"/>
</g>
</g>
</svg>
