<?xml version="1.0" encoding="UTF-8" standalone="no"?>
<!DOCTYPE svg PUBLIC "-//W3C//DTD SVG 1.1//EN"
 "http://www.w3.org/Graphics/SVG/1.1/DTD/svg11.dtd">
<!-- Generated by graphviz version 2.40.1 (20161225.0304)
 -->
<!-- Title: G Pages: 1 -->
<svg width="280pt" height="438pt"
 viewBox="0.00 0.00 279.78 437.60" xmlns="http://www.w3.org/2000/svg" xmlns:xlink="http://www.w3.org/1999/xlink">
<g id="graph0" class="graph" transform="scale(1 1) rotate(0) translate(4 433.6)">
<title>G</title>
<polygon fill="#ffffff" stroke="transparent" points="-4,4 -4,-433.6 275.7827,-433.6 275.7827,4 -4,4"/>
<!-- GO:0043234 -->
<g id="node1" class="node">
<title>GO:0043234</title>
<polygon fill="#ffa500" stroke="#000000" points="244.3166,-196.6019 136.5818,-196.6019 136.5818,-155.3981 244.3166,-155.3981 244.3166,-196.6019"/>
<text text-anchor="middle" x="190.4492" y="-180.2" font-family="Times,serif" font-size="14.00" fill="#000000">GO:0043234</text>
<text text-anchor="middle" x="190.4492" y="-163.4" font-family="Times,serif" font-size="14.00" fill="#000000">protein complex</text>
</g>
<!-- GO:0032991 -->
<g id="node2" class="node">
<title>GO:0032991</title>
<polygon fill="#ffa500" stroke="#000000" points="271.6165,-351.8019 113.2819,-351.8019 113.2819,-310.5981 271.6165,-310.5981 271.6165,-351.8019"/>
<text text-anchor="middle" x="192.4492" y="-335.4" font-family="Times,serif" font-size="14.00" fill="#000000">GO:0032991</text>
<text text-anchor="middle" x="192.4492" y="-318.6" font-family="Times,serif" font-size="14.00" fill="#000000">macromolecular complex</text>
</g>
<!-- GO:0043234&#45;&gt;GO:0032991 -->
<g id="edge1" class="edge">
<title>GO:0043234&#45;&gt;GO:0032991</title>
<path fill="none" stroke="#000000" d="M190.7148,-196.6094C191.057,-223.1627 191.6548,-269.5577 192.0514,-300.3304"/>
<polygon fill="#000000" stroke="#000000" points="188.5539,-300.5514 192.1825,-310.5054 195.5533,-300.4611 188.5539,-300.5514"/>
</g>
<!-- GO:0005575 -->
<g id="node3" class="node">
<title>GO:0005575</title>
<polygon fill="#ffffff" stroke="#000000" points="185.1359,-429.4019 57.7625,-429.4019 57.7625,-388.1981 185.1359,-388.1981 185.1359,-429.4019"/>
<text text-anchor="middle" x="121.4492" y="-413" font-family="Times,serif" font-size="14.00" fill="#000000">GO:0005575</text>
<text text-anchor="middle" x="121.4492" y="-396.2" font-family="Times,serif" font-size="14.00" fill="#000000">cellular_component</text>
</g>
<!-- GO:0032991&#45;&gt;GO:0005575 -->
<g id="edge2" class="edge">
<title>GO:0032991&#45;&gt;GO:0005575</title>
<path fill="none" stroke="#000000" d="M173.4225,-351.9954C165.464,-360.6937 156.0862,-370.9433 147.5029,-380.3244"/>
<polygon fill="#000000" stroke="#000000" points="144.6965,-378.2067 140.5284,-387.9472 149.8611,-382.932 144.6965,-378.2067"/>
</g>
<!-- GO:0044464 -->
<g id="node4" class="node">
<title>GO:0044464</title>
<polygon fill="#ff0000" stroke="#000000" points="95.0531,-351.8019 5.8453,-351.8019 5.8453,-310.5981 95.0531,-310.5981 95.0531,-351.8019"/>
<text text-anchor="middle" x="50.4492" y="-335.4" font-family="Times,serif" font-size="14.00" fill="#000000">GO:0044464</text>
<text text-anchor="middle" x="50.4492" y="-318.6" font-family="Times,serif" font-size="14.00" fill="#000000">cell part</text>
</g>
<!-- GO:0044464&#45;&gt;GO:0005575 -->
<g id="edge3" class="edge">
<title>GO:0044464&#45;&gt;GO:0005575</title>
<path fill="none" stroke="#000000" d="M69.4759,-351.9954C77.4344,-360.6937 86.8122,-370.9433 95.3955,-380.3244"/>
<polygon fill="#000000" stroke="#000000" points="93.0373,-382.932 102.37,-387.9472 98.2019,-378.2067 93.0373,-382.932"/>
</g>
<!-- GO:0044444 -->
<g id="node5" class="node">
<title>GO:0044444</title>
<polygon fill="#ffa500" stroke="#000000" points="116.8658,-196.6019 8.0326,-196.6019 8.0326,-155.3981 116.8658,-155.3981 116.8658,-196.6019"/>
<text text-anchor="middle" x="62.4492" y="-180.2" font-family="Times,serif" font-size="14.00" fill="#000000">GO:0044444</text>
<text text-anchor="middle" x="62.4492" y="-163.4" font-family="Times,serif" font-size="14.00" fill="#000000">cytoplasmic part</text>
</g>
<!-- GO:0044424 -->
<g id="node6" class="node">
<title>GO:0044424</title>
<polygon fill="#ff0000" stroke="#000000" points="108.8476,-274.2019 .0508,-274.2019 .0508,-232.9981 108.8476,-232.9981 108.8476,-274.2019"/>
<text text-anchor="middle" x="54.4492" y="-257.8" font-family="Times,serif" font-size="14.00" fill="#000000">GO:0044424</text>
<text text-anchor="middle" x="54.4492" y="-241" font-family="Times,serif" font-size="14.00" fill="#000000">intracellular part</text>
</g>
<!-- GO:0044444&#45;&gt;GO:0044424 -->
<g id="edge4" class="edge">
<title>GO:0044444&#45;&gt;GO:0044424</title>
<path fill="none" stroke="#000000" d="M60.3053,-196.7954C59.4893,-204.7109 58.5409,-213.9109 57.6479,-222.5722"/>
<polygon fill="#000000" stroke="#000000" points="54.143,-222.441 56.599,-232.7472 61.1061,-223.1589 54.143,-222.441"/>
</g>
<!-- GO:0044424&#45;&gt;GO:0044464 -->
<g id="edge5" class="edge">
<title>GO:0044424&#45;&gt;GO:0044464</title>
<path fill="none" stroke="#000000" d="M53.3773,-274.3954C52.9693,-282.3109 52.495,-291.5109 52.0486,-300.1722"/>
<polygon fill="#000000" stroke="#000000" points="48.5436,-300.1803 51.5241,-310.3472 55.5343,-300.5407 48.5436,-300.1803"/>
</g>
<!-- GO:0097342 -->
<g id="node7" class="node">
<title>GO:0097342</title>
<polygon fill="#ffff00" stroke="#000000" points="169.0531,-41.4019 79.8453,-41.4019 79.8453,-.1981 169.0531,-.1981 169.0531,-41.4019"/>
<text text-anchor="middle" x="124.4492" y="-25" font-family="Times,serif" font-size="14.00" fill="#000000">GO:0097342</text>
<text text-anchor="middle" x="124.4492" y="-8.2" font-family="Times,serif" font-size="14.00" fill="#000000">ripoptosome</text>
</g>
<!-- GO:0044445 -->
<g id="node8" class="node">
<title>GO:0044445</title>
<polygon fill="#ffffff" stroke="#000000" points="110.2608,-119.0019 18.6376,-119.0019 18.6376,-77.7981 110.2608,-77.7981 110.2608,-119.0019"/>
<text text-anchor="middle" x="64.4492" y="-102.6" font-family="Times,serif" font-size="14.00" fill="#000000">GO:0044445</text>
<text text-anchor="middle" x="64.4492" y="-85.8" font-family="Times,serif" font-size="14.00" fill="#000000">cytosolic part</text>
</g>
<!-- GO:0097342&#45;&gt;GO:0044445 -->
<g id="edge6" class="edge">
<title>GO:0097342&#45;&gt;GO:0044445</title>
<path fill="none" stroke="#000000" d="M108.3703,-41.5954C101.7793,-50.1197 94.0364,-60.1339 86.9024,-69.3605"/>
<polygon fill="#000000" stroke="#000000" points="83.9204,-67.4953 80.5725,-77.5472 89.4582,-71.777 83.9204,-67.4953"/>
</g>
<!-- GO:1902494 -->
<g id="node9" class="node">
<title>GO:1902494</title>
<polygon fill="#ffffff" stroke="#000000" points="245.0805,-119.0019 129.8179,-119.0019 129.8179,-77.7981 245.0805,-77.7981 245.0805,-119.0019"/>
<text text-anchor="middle" x="187.4492" y="-102.6" font-family="Times,serif" font-size="14.00" fill="#000000">GO:1902494</text>
<text text-anchor="middle" x="187.4492" y="-85.8" font-family="Times,serif" font-size="14.00" fill="#000000">catalytic complex</text>
</g>
<!-- GO:0097342&#45;&gt;GO:1902494 -->
<g id="edge7" class="edge">
<title>GO:0097342&#45;&gt;GO:1902494</title>
<path fill="none" stroke="#000000" d="M141.332,-41.5954C148.3232,-50.2067 156.5487,-60.3384 164.1024,-69.6427"/>
<polygon fill="#000000" stroke="#000000" points="161.4995,-71.9896 170.5198,-77.5472 166.9341,-67.5776 161.4995,-71.9896"/>
</g>
<!-- GO:0044445&#45;&gt;GO:0044444 -->
<g id="edge8" class="edge">
<title>GO:0044445&#45;&gt;GO:0044444</title>
<path fill="none" stroke="#000000" d="M63.9132,-119.1954C63.7092,-127.1109 63.4721,-136.3109 63.2489,-144.9722"/>
<polygon fill="#000000" stroke="#000000" points="59.7455,-145.0603 62.9866,-155.1472 66.7432,-145.2408 59.7455,-145.0603"/>
</g>
<!-- GO:1902494&#45;&gt;GO:0043234 -->
<g id="edge9" class="edge">
<title>GO:1902494&#45;&gt;GO:0043234</title>
<path fill="none" stroke="#000000" d="M188.2531,-119.1954C188.5592,-127.1109 188.9148,-136.3109 189.2497,-144.9722"/>
<polygon fill="#000000" stroke="#000000" points="185.7592,-145.2899 189.643,-155.1472 192.754,-145.0194 185.7592,-145.2899"/>
</g>
</g>
</svg>
