<?xml version="1.0" encoding="UTF-8" standalone="no"?>
<!DOCTYPE svg PUBLIC "-//W3C//DTD SVG 1.1//EN"
 "http://www.w3.org/Graphics/SVG/1.1/DTD/svg11.dtd">
<!-- Generated by graphviz version 2.40.1 (20161225.0304)
 -->
<!-- Title: G Pages: 1 -->
<svg width="401pt" height="394pt"
 viewBox="0.00 0.00 400.66 393.60" xmlns="http://www.w3.org/2000/svg" xmlns:xlink="http://www.w3.org/1999/xlink">
<g id="graph0" class="graph" transform="scale(1 1) rotate(0) translate(4 389.6)">
<title>G</title>
<polygon fill="#ffffff" stroke="transparent" points="-4,4 -4,-389.6 396.6596,-389.6 396.6596,4 -4,4"/>
<!-- GO:0043167 -->
<g id="node1" class="node">
<title>GO:0043167</title>
<polygon fill="#00ff00" stroke="#000000" points="378.8771,-205.0019 289.6693,-205.0019 289.6693,-163.7981 378.8771,-163.7981 378.8771,-205.0019"/>
<text text-anchor="middle" x="334.2732" y="-188.6" font-family="Times,serif" font-size="14.00" fill="#000000">GO:0043167</text>
<text text-anchor="middle" x="334.2732" y="-171.8" font-family="Times,serif" font-size="14.00" fill="#000000">ion binding</text>
</g>
<!-- GO:0005488 -->
<g id="node2" class="node">
<title>GO:0005488</title>
<polygon fill="#ffffff" stroke="#000000" points="261.8771,-299.4019 172.6693,-299.4019 172.6693,-258.1981 261.8771,-258.1981 261.8771,-299.4019"/>
<text text-anchor="middle" x="217.2732" y="-283" font-family="Times,serif" font-size="14.00" fill="#000000">GO:0005488</text>
<text text-anchor="middle" x="217.2732" y="-266.2" font-family="Times,serif" font-size="14.00" fill="#000000">binding</text>
</g>
<!-- GO:0043167&#45;&gt;GO:0005488 -->
<g id="edge1" class="edge">
<title>GO:0043167&#45;&gt;GO:0005488</title>
<path fill="none" stroke="#000000" d="M308.5971,-205.1165C291.6804,-218.7655 269.3493,-236.783 251.0041,-251.5846"/>
<polygon fill="#000000" stroke="#000000" points="248.4744,-249.1285 242.8895,-258.1318 252.8699,-254.5764 248.4744,-249.1285"/>
</g>
<!-- GO:0003674 -->
<g id="node3" class="node">
<title>GO:0003674</title>
<polygon fill="#ffffff" stroke="#000000" points="217.9063,-385.4019 92.6401,-385.4019 92.6401,-344.1981 217.9063,-344.1981 217.9063,-385.4019"/>
<text text-anchor="middle" x="155.2732" y="-369" font-family="Times,serif" font-size="14.00" fill="#000000">GO:0003674</text>
<text text-anchor="middle" x="155.2732" y="-352.2" font-family="Times,serif" font-size="14.00" fill="#000000">molecular_function</text>
</g>
<!-- GO:0005488&#45;&gt;GO:0003674 -->
<g id="edge2" class="edge">
<title>GO:0005488&#45;&gt;GO:0003674</title>
<path fill="none" stroke="#000000" d="M202.2647,-299.6182C194.4207,-310.4987 184.6955,-323.9884 176.1311,-335.8681"/>
<polygon fill="#000000" stroke="#000000" points="173.1524,-334.0149 170.1435,-344.1735 178.8306,-338.1086 173.1524,-334.0149"/>
</g>
<!-- GO:0098772 -->
<g id="node4" class="node">
<title>GO:0098772</title>
<polygon fill="#00ff00" stroke="#000000" points="154.4059,-308.2014 32.1405,-308.2014 32.1405,-249.3986 154.4059,-249.3986 154.4059,-308.2014"/>
<text text-anchor="middle" x="93.2732" y="-291.4" font-family="Times,serif" font-size="14.00" fill="#000000">GO:0098772</text>
<text text-anchor="middle" x="93.2732" y="-274.6" font-family="Times,serif" font-size="14.00" fill="#000000">molecular function</text>
<text text-anchor="middle" x="93.2732" y="-257.8" font-family="Times,serif" font-size="14.00" fill="#000000">regulator</text>
</g>
<!-- GO:0098772&#45;&gt;GO:0003674 -->
<g id="edge3" class="edge">
<title>GO:0098772&#45;&gt;GO:0003674</title>
<path fill="none" stroke="#000000" d="M114.6101,-308.3963C121.0339,-317.3068 128.0728,-327.0705 134.4621,-335.9329"/>
<polygon fill="#000000" stroke="#000000" points="131.6603,-338.0316 140.3475,-344.0966 137.3385,-333.9379 131.6603,-338.0316"/>
</g>
<!-- GO:0046872 -->
<g id="node5" class="node">
<title>GO:0046872</title>
<polygon fill="#00ff00" stroke="#000000" points="392.5462,-41.4019 278.0002,-41.4019 278.0002,-.1981 392.5462,-.1981 392.5462,-41.4019"/>
<text text-anchor="middle" x="335.2732" y="-25" font-family="Times,serif" font-size="14.00" fill="#000000">GO:0046872</text>
<text text-anchor="middle" x="335.2732" y="-8.2" font-family="Times,serif" font-size="14.00" fill="#000000">metal ion binding</text>
</g>
<!-- GO:0043169 -->
<g id="node6" class="node">
<title>GO:0043169</title>
<polygon fill="#ffffff" stroke="#000000" points="383.7661,-119.0019 286.7803,-119.0019 286.7803,-77.7981 383.7661,-77.7981 383.7661,-119.0019"/>
<text text-anchor="middle" x="335.2732" y="-102.6" font-family="Times,serif" font-size="14.00" fill="#000000">GO:0043169</text>
<text text-anchor="middle" x="335.2732" y="-85.8" font-family="Times,serif" font-size="14.00" fill="#000000">cation binding</text>
</g>
<!-- GO:0046872&#45;&gt;GO:0043169 -->
<g id="edge4" class="edge">
<title>GO:0046872&#45;&gt;GO:0043169</title>
<path fill="none" stroke="#000000" d="M335.2732,-41.5954C335.2732,-49.5109 335.2732,-58.7109 335.2732,-67.3722"/>
<polygon fill="#000000" stroke="#000000" points="331.7733,-67.5472 335.2732,-77.5472 338.7733,-67.5473 331.7733,-67.5472"/>
</g>
<!-- GO:0043169&#45;&gt;GO:0043167 -->
<g id="edge5" class="edge">
<title>GO:0043169&#45;&gt;GO:0043167</title>
<path fill="none" stroke="#000000" d="M335.0311,-119.2182C334.9108,-129.5705 334.7629,-142.2848 334.6299,-153.7271"/>
<polygon fill="#000000" stroke="#000000" points="331.1296,-153.7335 334.513,-163.7735 338.1292,-153.8149 331.1296,-153.7335"/>
</g>
<!-- GO:0097367 -->
<g id="node7" class="node">
<title>GO:0097367</title>
<polygon fill="#00ffff" stroke="#000000" points="148.3203,-213.8014 .2261,-213.8014 .2261,-154.9986 148.3203,-154.9986 148.3203,-213.8014"/>
<text text-anchor="middle" x="74.2732" y="-197" font-family="Times,serif" font-size="14.00" fill="#000000">GO:0097367</text>
<text text-anchor="middle" x="74.2732" y="-180.2" font-family="Times,serif" font-size="14.00" fill="#000000">carbohydrate derivative</text>
<text text-anchor="middle" x="74.2732" y="-163.4" font-family="Times,serif" font-size="14.00" fill="#000000">binding</text>
</g>
<!-- GO:0097367&#45;&gt;GO:0005488 -->
<g id="edge6" class="edge">
<title>GO:0097367&#45;&gt;GO:0005488</title>
<path fill="none" stroke="#000000" d="M118.7354,-213.7513C137.4774,-226.1236 159.1261,-240.4148 177.35,-252.4451"/>
<polygon fill="#000000" stroke="#000000" points="175.7196,-255.5627 185.9934,-258.151 179.5761,-249.7208 175.7196,-255.5627"/>
</g>
<!-- GO:0005102 -->
<g id="node8" class="node">
<title>GO:0005102</title>
<polygon fill="#ffff00" stroke="#000000" points="269.4101,-119.0019 161.1363,-119.0019 161.1363,-77.7981 269.4101,-77.7981 269.4101,-119.0019"/>
<text text-anchor="middle" x="215.2732" y="-102.6" font-family="Times,serif" font-size="14.00" fill="#000000">GO:0005102</text>
<text text-anchor="middle" x="215.2732" y="-85.8" font-family="Times,serif" font-size="14.00" fill="#000000">receptor binding</text>
</g>
<!-- GO:0005515 -->
<g id="node9" class="node">
<title>GO:0005515</title>
<polygon fill="#ffffff" stroke="#000000" points="268.2108,-205.0019 166.3356,-205.0019 166.3356,-163.7981 268.2108,-163.7981 268.2108,-205.0019"/>
<text text-anchor="middle" x="217.2732" y="-188.6" font-family="Times,serif" font-size="14.00" fill="#000000">GO:0005515</text>
<text text-anchor="middle" x="217.2732" y="-171.8" font-family="Times,serif" font-size="14.00" fill="#000000">protein binding</text>
</g>
<!-- GO:0005102&#45;&gt;GO:0005515 -->
<g id="edge7" class="edge">
<title>GO:0005102&#45;&gt;GO:0005515</title>
<path fill="none" stroke="#000000" d="M215.7573,-119.2182C215.9981,-129.5705 216.2938,-142.2848 216.5599,-153.7271"/>
<polygon fill="#000000" stroke="#000000" points="213.0619,-153.8576 216.7935,-163.7735 220.06,-153.6948 213.0619,-153.8576"/>
</g>
<!-- GO:0005515&#45;&gt;GO:0005488 -->
<g id="edge8" class="edge">
<title>GO:0005515&#45;&gt;GO:0005488</title>
<path fill="none" stroke="#000000" d="M217.2732,-205.3504C217.2732,-217.8165 217.2732,-233.8645 217.2732,-247.7786"/>
<polygon fill="#000000" stroke="#000000" points="213.7733,-247.9081 217.2732,-257.9081 220.7733,-247.9082 213.7733,-247.9081"/>
</g>
</g>
</svg>
