<?xml version="1.0" encoding="UTF-8" standalone="no"?>
<!DOCTYPE svg PUBLIC "-//W3C//DTD SVG 1.1//EN"
 "http://www.w3.org/Graphics/SVG/1.1/DTD/svg11.dtd">
<!-- Generated by graphviz version 2.40.1 (20161225.0304)
 -->
<!-- Title: G Pages: 1 -->
<svg width="947pt" height="454pt"
 viewBox="0.00 0.00 946.78 454.40" xmlns="http://www.w3.org/2000/svg" xmlns:xlink="http://www.w3.org/1999/xlink">
<g id="graph0" class="graph" transform="scale(1 1) rotate(0) translate(4 450.4)">
<title>G</title>
<polygon fill="#ffffff" stroke="transparent" points="-4,4 -4,-450.4 942.7764,-450.4 942.7764,4 -4,4"/>
<!-- GO:0043227 -->
<g id="node1" class="node">
<title>GO:0043227</title>
<polygon fill="#00ff00" stroke="#000000" points="204.126,-291.4014 76.2044,-291.4014 76.2044,-232.5986 204.126,-232.5986 204.126,-291.4014"/>
<text text-anchor="middle" x="140.1652" y="-274.6" font-family="Times,serif" font-size="14.00" fill="#000000">GO:0043227</text>
<text text-anchor="middle" x="140.1652" y="-257.8" font-family="Times,serif" font-size="14.00" fill="#000000">membrane&#45;bounded</text>
<text text-anchor="middle" x="140.1652" y="-241" font-family="Times,serif" font-size="14.00" fill="#000000">organelle</text>
</g>
<!-- GO:0043226 -->
<g id="node2" class="node">
<title>GO:0043226</title>
<polygon fill="#ffffff" stroke="#000000" points="296.7691,-368.6019 207.5613,-368.6019 207.5613,-327.3981 296.7691,-327.3981 296.7691,-368.6019"/>
<text text-anchor="middle" x="252.1652" y="-352.2" font-family="Times,serif" font-size="14.00" fill="#000000">GO:0043226</text>
<text text-anchor="middle" x="252.1652" y="-335.4" font-family="Times,serif" font-size="14.00" fill="#000000">organelle</text>
</g>
<!-- GO:0043227&#45;&gt;GO:0043226 -->
<g id="edge1" class="edge">
<title>GO:0043227&#45;&gt;GO:0043226</title>
<path fill="none" stroke="#000000" d="M178.396,-291.3558C190.8562,-300.9234 204.6257,-311.4964 216.8612,-320.8916"/>
<polygon fill="#000000" stroke="#000000" points="214.9889,-323.8667 225.052,-327.1809 219.2521,-318.3146 214.9889,-323.8667"/>
</g>
<!-- GO:0005575 -->
<g id="node3" class="node">
<title>GO:0005575</title>
<polygon fill="#ffffff" stroke="#000000" points="636.8519,-446.2019 509.4785,-446.2019 509.4785,-404.9981 636.8519,-404.9981 636.8519,-446.2019"/>
<text text-anchor="middle" x="573.1652" y="-429.8" font-family="Times,serif" font-size="14.00" fill="#000000">GO:0005575</text>
<text text-anchor="middle" x="573.1652" y="-413" font-family="Times,serif" font-size="14.00" fill="#000000">cellular_component</text>
</g>
<!-- GO:0043226&#45;&gt;GO:0005575 -->
<g id="edge2" class="edge">
<title>GO:0043226&#45;&gt;GO:0005575</title>
<path fill="none" stroke="#000000" d="M296.7989,-358.7899C349.2893,-371.4792 437.1826,-392.7269 499.751,-407.8525"/>
<polygon fill="#000000" stroke="#000000" points="499.0237,-411.2774 509.5661,-410.2253 500.6686,-404.4734 499.0237,-411.2774"/>
</g>
<!-- GO:0005615 -->
<g id="node4" class="node">
<title>GO:0005615</title>
<polygon fill="#00ffff" stroke="#000000" points="461.2111,-196.6019 341.1193,-196.6019 341.1193,-155.3981 461.2111,-155.3981 461.2111,-196.6019"/>
<text text-anchor="middle" x="401.1652" y="-180.2" font-family="Times,serif" font-size="14.00" fill="#000000">GO:0005615</text>
<text text-anchor="middle" x="401.1652" y="-163.4" font-family="Times,serif" font-size="14.00" fill="#000000">extracellular space</text>
</g>
<!-- GO:0044421 -->
<g id="node5" class="node">
<title>GO:0044421</title>
<polygon fill="#ff0000" stroke="#000000" points="470.6542,-282.6019 319.6762,-282.6019 319.6762,-241.3981 470.6542,-241.3981 470.6542,-282.6019"/>
<text text-anchor="middle" x="395.1652" y="-266.2" font-family="Times,serif" font-size="14.00" fill="#000000">GO:0044421</text>
<text text-anchor="middle" x="395.1652" y="-249.4" font-family="Times,serif" font-size="14.00" fill="#000000">extracellular region part</text>
</g>
<!-- GO:0005615&#45;&gt;GO:0044421 -->
<g id="edge3" class="edge">
<title>GO:0005615&#45;&gt;GO:0044421</title>
<path fill="none" stroke="#000000" d="M399.7128,-196.8182C398.9905,-207.1705 398.1035,-219.8848 397.3052,-231.3271"/>
<polygon fill="#000000" stroke="#000000" points="393.8088,-231.1541 396.6043,-241.3735 400.7918,-231.6414 393.8088,-231.1541"/>
</g>
<!-- GO:0044421&#45;&gt;GO:0005575 -->
<g id="edge4" class="edge">
<title>GO:0044421&#45;&gt;GO:0005575</title>
<path fill="none" stroke="#000000" d="M393.1155,-282.6188C391.9384,-306.1946 393.7374,-344.6394 414.1652,-368.8 425.8855,-382.662 463.4825,-396.4061 499.174,-406.9017"/>
<polygon fill="#000000" stroke="#000000" points="498.5895,-410.3754 509.1672,-409.7733 500.5228,-403.6476 498.5895,-410.3754"/>
</g>
<!-- GO:0016020 -->
<g id="node6" class="node">
<title>GO:0016020</title>
<polygon fill="#00ff00" stroke="#000000" points="688.7691,-368.6019 599.5613,-368.6019 599.5613,-327.3981 688.7691,-327.3981 688.7691,-368.6019"/>
<text text-anchor="middle" x="644.1652" y="-352.2" font-family="Times,serif" font-size="14.00" fill="#000000">GO:0016020</text>
<text text-anchor="middle" x="644.1652" y="-335.4" font-family="Times,serif" font-size="14.00" fill="#000000">membrane</text>
</g>
<!-- GO:0016020&#45;&gt;GO:0005575 -->
<g id="edge5" class="edge">
<title>GO:0016020&#45;&gt;GO:0005575</title>
<path fill="none" stroke="#000000" d="M625.1385,-368.7954C617.18,-377.4937 607.8022,-387.7433 599.2189,-397.1244"/>
<polygon fill="#000000" stroke="#000000" points="596.4125,-395.0067 592.2444,-404.7472 601.5771,-399.732 596.4125,-395.0067"/>
</g>
<!-- GO:0031982 -->
<g id="node7" class="node">
<title>GO:0031982</title>
<polygon fill="#00ffff" stroke="#000000" points="163.7691,-196.6019 74.5613,-196.6019 74.5613,-155.3981 163.7691,-155.3981 163.7691,-196.6019"/>
<text text-anchor="middle" x="119.1652" y="-180.2" font-family="Times,serif" font-size="14.00" fill="#000000">GO:0031982</text>
<text text-anchor="middle" x="119.1652" y="-163.4" font-family="Times,serif" font-size="14.00" fill="#000000">vesicle</text>
</g>
<!-- GO:0031982&#45;&gt;GO:0043227 -->
<g id="edge6" class="edge">
<title>GO:0031982&#45;&gt;GO:0043227</title>
<path fill="none" stroke="#000000" d="M124.2487,-196.8182C126.1537,-204.6197 128.3863,-213.7626 130.5667,-222.6917"/>
<polygon fill="#000000" stroke="#000000" points="127.2136,-223.7149 132.9859,-232.5991 134.0138,-222.0543 127.2136,-223.7149"/>
</g>
<!-- GO:0070062 -->
<g id="node8" class="node">
<title>GO:0070062</title>
<polygon fill="#ff00ff" stroke="#000000" points="237.8864,-41.4019 98.444,-41.4019 98.444,-.1981 237.8864,-.1981 237.8864,-41.4019"/>
<text text-anchor="middle" x="168.1652" y="-25" font-family="Times,serif" font-size="14.00" fill="#000000">GO:0070062</text>
<text text-anchor="middle" x="168.1652" y="-8.2" font-family="Times,serif" font-size="14.00" fill="#000000">extracellular exosome</text>
</g>
<!-- GO:1903561 -->
<g id="node9" class="node">
<title>GO:1903561</title>
<polygon fill="#ffffff" stroke="#000000" points="316.4918,-119.0019 187.8386,-119.0019 187.8386,-77.7981 316.4918,-77.7981 316.4918,-119.0019"/>
<text text-anchor="middle" x="252.1652" y="-102.6" font-family="Times,serif" font-size="14.00" fill="#000000">GO:1903561</text>
<text text-anchor="middle" x="252.1652" y="-85.8" font-family="Times,serif" font-size="14.00" fill="#000000">extracellular vesicle</text>
</g>
<!-- GO:0070062&#45;&gt;GO:1903561 -->
<g id="edge7" class="edge">
<title>GO:0070062&#45;&gt;GO:1903561</title>
<path fill="none" stroke="#000000" d="M190.6757,-41.5954C200.2797,-50.4677 211.6307,-60.9539 221.9493,-70.4862"/>
<polygon fill="#000000" stroke="#000000" points="219.8722,-73.3324 229.5926,-77.5472 224.6222,-68.1906 219.8722,-73.3324"/>
</g>
<!-- GO:0031988 -->
<g id="node10" class="node">
<title>GO:0031988</title>
<polygon fill="#ffffff" stroke="#000000" points="170.4959,-119.0019 -.1655,-119.0019 -.1655,-77.7981 170.4959,-77.7981 170.4959,-119.0019"/>
<text text-anchor="middle" x="85.1652" y="-102.6" font-family="Times,serif" font-size="14.00" fill="#000000">GO:0031988</text>
<text text-anchor="middle" x="85.1652" y="-85.8" font-family="Times,serif" font-size="14.00" fill="#000000">membrane&#45;bounded vesicle</text>
</g>
<!-- GO:0070062&#45;&gt;GO:0031988 -->
<g id="edge8" class="edge">
<title>GO:0070062&#45;&gt;GO:0031988</title>
<path fill="none" stroke="#000000" d="M145.9227,-41.5954C136.433,-50.4677 125.2171,-60.9539 115.0214,-70.4862"/>
<polygon fill="#000000" stroke="#000000" points="112.3835,-68.1611 107.4691,-77.5472 117.1641,-73.2744 112.3835,-68.1611"/>
</g>
<!-- GO:1903561&#45;&gt;GO:0031982 -->
<g id="edge10" class="edge">
<title>GO:1903561&#45;&gt;GO:0031982</title>
<path fill="none" stroke="#000000" d="M216.5236,-119.1954C200.2737,-128.6766 180.8649,-140.0008 163.668,-150.0345"/>
<polygon fill="#000000" stroke="#000000" points="161.7786,-147.0846 154.9051,-155.1472 165.3063,-153.1307 161.7786,-147.0846"/>
</g>
<!-- GO:0043230 -->
<g id="node11" class="node">
<title>GO:0043230</title>
<polygon fill="#ffffff" stroke="#000000" points="322.7081,-196.6019 181.6223,-196.6019 181.6223,-155.3981 322.7081,-155.3981 322.7081,-196.6019"/>
<text text-anchor="middle" x="252.1652" y="-180.2" font-family="Times,serif" font-size="14.00" fill="#000000">GO:0043230</text>
<text text-anchor="middle" x="252.1652" y="-163.4" font-family="Times,serif" font-size="14.00" fill="#000000">extracellular organelle</text>
</g>
<!-- GO:1903561&#45;&gt;GO:0043230 -->
<g id="edge9" class="edge">
<title>GO:1903561&#45;&gt;GO:0043230</title>
<path fill="none" stroke="#000000" d="M252.1652,-119.1954C252.1652,-127.1109 252.1652,-136.3109 252.1652,-144.9722"/>
<polygon fill="#000000" stroke="#000000" points="248.6653,-145.1472 252.1652,-155.1472 255.6653,-145.1473 248.6653,-145.1472"/>
</g>
<!-- GO:0031988&#45;&gt;GO:0031982 -->
<g id="edge11" class="edge">
<title>GO:0031988&#45;&gt;GO:0031982</title>
<path fill="none" stroke="#000000" d="M94.2766,-119.1954C97.859,-127.3718 102.042,-136.9189 105.9451,-145.827"/>
<polygon fill="#000000" stroke="#000000" points="102.8097,-147.3924 110.0287,-155.1472 109.2213,-144.5832 102.8097,-147.3924"/>
</g>
<!-- GO:0043230&#45;&gt;GO:0043226 -->
<g id="edge12" class="edge">
<title>GO:0043230&#45;&gt;GO:0043226</title>
<path fill="none" stroke="#000000" d="M252.1652,-196.7472C252.1652,-226.7071 252.1652,-282.2979 252.1652,-317.098"/>
<polygon fill="#000000" stroke="#000000" points="248.6653,-317.1792 252.1652,-327.1792 255.6653,-317.1792 248.6653,-317.1792"/>
</g>
<!-- GO:0043230&#45;&gt;GO:0044421 -->
<g id="edge13" class="edge">
<title>GO:0043230&#45;&gt;GO:0044421</title>
<path fill="none" stroke="#000000" d="M286.7815,-196.8182C306.4543,-208.6494 331.257,-223.5657 352.1696,-236.1425"/>
<polygon fill="#000000" stroke="#000000" points="350.4942,-239.2191 360.8677,-241.3735 354.1019,-233.2203 350.4942,-239.2191"/>
</g>
<!-- GO:0043234 -->
<g id="node12" class="node">
<title>GO:0043234</title>
<polygon fill="#ffff00" stroke="#000000" points="596.0326,-282.6019 488.2978,-282.6019 488.2978,-241.3981 596.0326,-241.3981 596.0326,-282.6019"/>
<text text-anchor="middle" x="542.1652" y="-266.2" font-family="Times,serif" font-size="14.00" fill="#000000">GO:0043234</text>
<text text-anchor="middle" x="542.1652" y="-249.4" font-family="Times,serif" font-size="14.00" fill="#000000">protein complex</text>
</g>
<!-- GO:0032991 -->
<g id="node13" class="node">
<title>GO:0032991</title>
<polygon fill="#ffffff" stroke="#000000" points="581.3325,-368.6019 422.9979,-368.6019 422.9979,-327.3981 581.3325,-327.3981 581.3325,-368.6019"/>
<text text-anchor="middle" x="502.1652" y="-352.2" font-family="Times,serif" font-size="14.00" fill="#000000">GO:0032991</text>
<text text-anchor="middle" x="502.1652" y="-335.4" font-family="Times,serif" font-size="14.00" fill="#000000">macromolecular complex</text>
</g>
<!-- GO:0043234&#45;&gt;GO:0032991 -->
<g id="edge14" class="edge">
<title>GO:0043234&#45;&gt;GO:0032991</title>
<path fill="none" stroke="#000000" d="M532.4823,-282.8182C527.569,-293.3818 521.5118,-306.4048 516.1066,-318.0261"/>
<polygon fill="#000000" stroke="#000000" points="512.8028,-316.8302 511.7589,-327.3735 519.1498,-319.7824 512.8028,-316.8302"/>
</g>
<!-- GO:0032991&#45;&gt;GO:0005575 -->
<g id="edge15" class="edge">
<title>GO:0032991&#45;&gt;GO:0005575</title>
<path fill="none" stroke="#000000" d="M521.1919,-368.7954C529.1504,-377.4937 538.5282,-387.7433 547.1115,-397.1244"/>
<polygon fill="#000000" stroke="#000000" points="544.7533,-399.732 554.086,-404.7472 549.9179,-395.0067 544.7533,-399.732"/>
</g>
<!-- GO:0044464 -->
<g id="node14" class="node">
<title>GO:0044464</title>
<polygon fill="#ffa500" stroke="#000000" points="795.7691,-368.6019 706.5613,-368.6019 706.5613,-327.3981 795.7691,-327.3981 795.7691,-368.6019"/>
<text text-anchor="middle" x="751.1652" y="-352.2" font-family="Times,serif" font-size="14.00" fill="#000000">GO:0044464</text>
<text text-anchor="middle" x="751.1652" y="-335.4" font-family="Times,serif" font-size="14.00" fill="#000000">cell part</text>
</g>
<!-- GO:0044464&#45;&gt;GO:0005575 -->
<g id="edge16" class="edge">
<title>GO:0044464&#45;&gt;GO:0005575</title>
<path fill="none" stroke="#000000" d="M706.2483,-367.5818C683.0521,-377.6942 654.5111,-390.1368 629.8162,-400.9027"/>
<polygon fill="#000000" stroke="#000000" points="628.3272,-397.7337 620.5591,-404.9384 631.1246,-404.1504 628.3272,-397.7337"/>
</g>
<!-- GO:0005577 -->
<g id="node15" class="node">
<title>GO:0005577</title>
<polygon fill="#00ffff" stroke="#000000" points="605.1926,-196.6019 479.1378,-196.6019 479.1378,-155.3981 605.1926,-155.3981 605.1926,-196.6019"/>
<text text-anchor="middle" x="542.1652" y="-180.2" font-family="Times,serif" font-size="14.00" fill="#000000">GO:0005577</text>
<text text-anchor="middle" x="542.1652" y="-163.4" font-family="Times,serif" font-size="14.00" fill="#000000">fibrinogen complex</text>
</g>
<!-- GO:0005577&#45;&gt;GO:0044421 -->
<g id="edge18" class="edge">
<title>GO:0005577&#45;&gt;GO:0044421</title>
<path fill="none" stroke="#000000" d="M506.5806,-196.8182C486.2673,-208.7022 460.6333,-223.699 439.0758,-236.3108"/>
<polygon fill="#000000" stroke="#000000" points="437.2861,-233.3028 430.4221,-241.3735 440.8209,-239.3448 437.2861,-233.3028"/>
</g>
<!-- GO:0005577&#45;&gt;GO:0043234 -->
<g id="edge17" class="edge">
<title>GO:0005577&#45;&gt;GO:0043234</title>
<path fill="none" stroke="#000000" d="M542.1652,-196.8182C542.1652,-207.1705 542.1652,-219.8848 542.1652,-231.3271"/>
<polygon fill="#000000" stroke="#000000" points="538.6653,-231.3735 542.1652,-241.3735 545.6653,-231.3735 538.6653,-231.3735"/>
</g>
<!-- GO:0005576 -->
<g id="node16" class="node">
<title>GO:0005576</title>
<polygon fill="#ffa500" stroke="#000000" points="938.8878,-368.6019 813.4426,-368.6019 813.4426,-327.3981 938.8878,-327.3981 938.8878,-368.6019"/>
<text text-anchor="middle" x="876.1652" y="-352.2" font-family="Times,serif" font-size="14.00" fill="#000000">GO:0005576</text>
<text text-anchor="middle" x="876.1652" y="-335.4" font-family="Times,serif" font-size="14.00" fill="#000000">extracellular region</text>
</g>
<!-- GO:0005576&#45;&gt;GO:0005575 -->
<g id="edge19" class="edge">
<title>GO:0005576&#45;&gt;GO:0005575</title>
<path fill="none" stroke="#000000" d="M813.4883,-366.5273C810.6784,-367.3056 807.8941,-368.0666 805.1652,-368.8 752.3732,-382.9877 692.4315,-397.6254 646.7025,-408.4873"/>
<polygon fill="#000000" stroke="#000000" points="645.7982,-405.1046 636.8744,-410.8157 647.4119,-411.9161 645.7982,-405.1046"/>
</g>
<!-- GO:0044424 -->
<g id="node17" class="node">
<title>GO:0044424</title>
<polygon fill="#00ff00" stroke="#000000" points="805.5636,-282.6019 696.7668,-282.6019 696.7668,-241.3981 805.5636,-241.3981 805.5636,-282.6019"/>
<text text-anchor="middle" x="751.1652" y="-266.2" font-family="Times,serif" font-size="14.00" fill="#000000">GO:0044424</text>
<text text-anchor="middle" x="751.1652" y="-249.4" font-family="Times,serif" font-size="14.00" fill="#000000">intracellular part</text>
</g>
<!-- GO:0044424&#45;&gt;GO:0044464 -->
<g id="edge20" class="edge">
<title>GO:0044424&#45;&gt;GO:0044464</title>
<path fill="none" stroke="#000000" d="M751.1652,-282.8182C751.1652,-293.1705 751.1652,-305.8848 751.1652,-317.3271"/>
<polygon fill="#000000" stroke="#000000" points="747.6653,-317.3735 751.1652,-327.3735 754.6653,-317.3735 747.6653,-317.3735"/>
</g>
</g>
</svg>
