<?xml version="1.0" encoding="UTF-8" standalone="no"?>
<!DOCTYPE svg PUBLIC "-//W3C//DTD SVG 1.1//EN"
 "http://www.w3.org/Graphics/SVG/1.1/DTD/svg11.dtd">
<!-- Generated by graphviz version 2.40.1 (20161225.0304)
 -->
<!-- Title: G Pages: 1 -->
<svg width="512pt" height="394pt"
 viewBox="0.00 0.00 512.07 393.60" xmlns="http://www.w3.org/2000/svg" xmlns:xlink="http://www.w3.org/1999/xlink">
<g id="graph0" class="graph" transform="scale(1 1) rotate(0) translate(4 389.6)">
<title>G</title>
<polygon fill="#ffffff" stroke="transparent" points="-4,4 -4,-389.6 508.0695,-389.6 508.0695,4 -4,4"/>
<!-- GO:0044464 -->
<g id="node1" class="node">
<title>GO:0044464</title>
<polygon fill="#ffa500" stroke="#000000" points="204.0622,-307.8019 114.8544,-307.8019 114.8544,-266.5981 204.0622,-266.5981 204.0622,-307.8019"/>
<text text-anchor="middle" x="159.4583" y="-291.4" font-family="Times,serif" font-size="14.00" fill="#000000">GO:0044464</text>
<text text-anchor="middle" x="159.4583" y="-274.6" font-family="Times,serif" font-size="14.00" fill="#000000">cell part</text>
</g>
<!-- GO:0005575 -->
<g id="node2" class="node">
<title>GO:0005575</title>
<polygon fill="#ffffff" stroke="#000000" points="343.145,-385.4019 215.7716,-385.4019 215.7716,-344.1981 343.145,-344.1981 343.145,-385.4019"/>
<text text-anchor="middle" x="279.4583" y="-369" font-family="Times,serif" font-size="14.00" fill="#000000">GO:0005575</text>
<text text-anchor="middle" x="279.4583" y="-352.2" font-family="Times,serif" font-size="14.00" fill="#000000">cellular_component</text>
</g>
<!-- GO:0044464&#45;&gt;GO:0005575 -->
<g id="edge1" class="edge">
<title>GO:0044464&#45;&gt;GO:0005575</title>
<path fill="none" stroke="#000000" d="M191.6161,-307.9954C206.0087,-317.3026 223.1477,-328.3858 238.4493,-338.2809"/>
<polygon fill="#000000" stroke="#000000" points="236.9139,-341.456 247.2117,-343.9472 240.7151,-335.578 236.9139,-341.456"/>
</g>
<!-- GO:0043229 -->
<g id="node3" class="node">
<title>GO:0043229</title>
<polygon fill="#00ff00" stroke="#000000" points="266.1767,-144.2019 126.7399,-144.2019 126.7399,-102.9981 266.1767,-102.9981 266.1767,-144.2019"/>
<text text-anchor="middle" x="196.4583" y="-127.8" font-family="Times,serif" font-size="14.00" fill="#000000">GO:0043229</text>
<text text-anchor="middle" x="196.4583" y="-111" font-family="Times,serif" font-size="14.00" fill="#000000">intracellular organelle</text>
</g>
<!-- GO:0044424 -->
<g id="node4" class="node">
<title>GO:0044424</title>
<polygon fill="#ffff00" stroke="#000000" points="191.8567,-230.2019 83.0599,-230.2019 83.0599,-188.9981 191.8567,-188.9981 191.8567,-230.2019"/>
<text text-anchor="middle" x="137.4583" y="-213.8" font-family="Times,serif" font-size="14.00" fill="#000000">GO:0044424</text>
<text text-anchor="middle" x="137.4583" y="-197" font-family="Times,serif" font-size="14.00" fill="#000000">intracellular part</text>
</g>
<!-- GO:0043229&#45;&gt;GO:0044424 -->
<g id="edge2" class="edge">
<title>GO:0043229&#45;&gt;GO:0044424</title>
<path fill="none" stroke="#000000" d="M182.176,-144.4182C174.7115,-155.2987 165.457,-168.7884 157.3069,-180.6681"/>
<polygon fill="#000000" stroke="#000000" points="154.3801,-178.7475 151.609,-188.9735 160.1523,-182.7075 154.3801,-178.7475"/>
</g>
<!-- GO:0043226 -->
<g id="node5" class="node">
<title>GO:0043226</title>
<polygon fill="#00ff00" stroke="#000000" points="299.0622,-230.2019 209.8544,-230.2019 209.8544,-188.9981 299.0622,-188.9981 299.0622,-230.2019"/>
<text text-anchor="middle" x="254.4583" y="-213.8" font-family="Times,serif" font-size="14.00" fill="#000000">GO:0043226</text>
<text text-anchor="middle" x="254.4583" y="-197" font-family="Times,serif" font-size="14.00" fill="#000000">organelle</text>
</g>
<!-- GO:0043229&#45;&gt;GO:0043226 -->
<g id="edge3" class="edge">
<title>GO:0043229&#45;&gt;GO:0043226</title>
<path fill="none" stroke="#000000" d="M210.4985,-144.4182C217.8365,-155.2987 226.9342,-168.7884 234.9461,-180.6681"/>
<polygon fill="#000000" stroke="#000000" points="232.0542,-182.6398 240.5474,-188.9735 237.8577,-178.7258 232.0542,-182.6398"/>
</g>
<!-- GO:0044424&#45;&gt;GO:0044464 -->
<g id="edge4" class="edge">
<title>GO:0044424&#45;&gt;GO:0044464</title>
<path fill="none" stroke="#000000" d="M143.3539,-230.3954C145.6226,-238.3978 148.2636,-247.7133 150.7426,-256.4575"/>
<polygon fill="#000000" stroke="#000000" points="147.4515,-257.6811 153.5464,-266.3472 154.1861,-255.7717 147.4515,-257.6811"/>
</g>
<!-- GO:0043226&#45;&gt;GO:0005575 -->
<g id="edge5" class="edge">
<title>GO:0043226&#45;&gt;GO:0005575</title>
<path fill="none" stroke="#000000" d="M254.8899,-230.501C255.6012,-250.5366 257.4829,-281.5546 262.4583,-308 264.082,-316.6301 266.5114,-325.8162 269.0293,-334.2293"/>
<polygon fill="#000000" stroke="#000000" points="265.7666,-335.5225 272.0961,-344.0188 272.4465,-333.4298 265.7666,-335.5225"/>
</g>
<!-- GO:0043227 -->
<g id="node6" class="node">
<title>GO:0043227</title>
<polygon fill="#00ff00" stroke="#000000" points="412.4191,-153.0014 284.4975,-153.0014 284.4975,-94.1986 412.4191,-94.1986 412.4191,-153.0014"/>
<text text-anchor="middle" x="348.4583" y="-136.2" font-family="Times,serif" font-size="14.00" fill="#000000">GO:0043227</text>
<text text-anchor="middle" x="348.4583" y="-119.4" font-family="Times,serif" font-size="14.00" fill="#000000">membrane&#45;bounded</text>
<text text-anchor="middle" x="348.4583" y="-102.6" font-family="Times,serif" font-size="14.00" fill="#000000">organelle</text>
</g>
<!-- GO:0043227&#45;&gt;GO:0043226 -->
<g id="edge6" class="edge">
<title>GO:0043227&#45;&gt;GO:0043226</title>
<path fill="none" stroke="#000000" d="M316.3717,-152.9558C306.1152,-162.3394 294.8016,-172.6902 284.6823,-181.9483"/>
<polygon fill="#000000" stroke="#000000" points="282.2295,-179.4484 277.214,-188.7809 286.9547,-184.6131 282.2295,-179.4484"/>
</g>
<!-- GO:0016020 -->
<g id="node7" class="node">
<title>GO:0016020</title>
<polygon fill="#00ff00" stroke="#000000" points="361.0622,-307.8019 271.8544,-307.8019 271.8544,-266.5981 361.0622,-266.5981 361.0622,-307.8019"/>
<text text-anchor="middle" x="316.4583" y="-291.4" font-family="Times,serif" font-size="14.00" fill="#000000">GO:0016020</text>
<text text-anchor="middle" x="316.4583" y="-274.6" font-family="Times,serif" font-size="14.00" fill="#000000">membrane</text>
</g>
<!-- GO:0016020&#45;&gt;GO:0005575 -->
<g id="edge7" class="edge">
<title>GO:0016020&#45;&gt;GO:0005575</title>
<path fill="none" stroke="#000000" d="M306.543,-307.9954C302.6029,-316.2588 297.9954,-325.9222 293.7095,-334.911"/>
<polygon fill="#000000" stroke="#000000" points="290.5456,-333.4144 289.401,-343.9472 296.8642,-336.4271 290.5456,-333.4144"/>
</g>
<!-- GO:0043231 -->
<g id="node8" class="node">
<title>GO:0043231</title>
<polygon fill="#00ffff" stroke="#000000" points="347.8371,-58.6014 197.0795,-58.6014 197.0795,.2014 347.8371,.2014 347.8371,-58.6014"/>
<text text-anchor="middle" x="272.4583" y="-41.8" font-family="Times,serif" font-size="14.00" fill="#000000">GO:0043231</text>
<text text-anchor="middle" x="272.4583" y="-25" font-family="Times,serif" font-size="14.00" fill="#000000">intracellular membrane&#45;</text>
<text text-anchor="middle" x="272.4583" y="-8.2" font-family="Times,serif" font-size="14.00" fill="#000000">bounded organelle</text>
</g>
<!-- GO:0043231&#45;&gt;GO:0043229 -->
<g id="edge8" class="edge">
<title>GO:0043231&#45;&gt;GO:0043229</title>
<path fill="none" stroke="#000000" d="M248.828,-58.5513C239.5011,-70.1363 228.8197,-83.4037 219.5465,-94.922"/>
<polygon fill="#000000" stroke="#000000" points="216.6273,-92.9667 213.0825,-102.951 222.0799,-97.3565 216.6273,-92.9667"/>
</g>
<!-- GO:0043231&#45;&gt;GO:0043227 -->
<g id="edge9" class="edge">
<title>GO:0043231&#45;&gt;GO:0043227</title>
<path fill="none" stroke="#000000" d="M296.0886,-58.5513C303.166,-67.3422 311.0233,-77.1018 318.4534,-86.3308"/>
<polygon fill="#000000" stroke="#000000" points="315.8453,-88.6724 324.8426,-94.2669 321.2978,-84.2826 315.8453,-88.6724"/>
</g>
<!-- GO:0044444 -->
<g id="node9" class="node">
<title>GO:0044444</title>
<polygon fill="#00ffff" stroke="#000000" points="108.8749,-144.2019 .0417,-144.2019 .0417,-102.9981 108.8749,-102.9981 108.8749,-144.2019"/>
<text text-anchor="middle" x="54.4583" y="-127.8" font-family="Times,serif" font-size="14.00" fill="#000000">GO:0044444</text>
<text text-anchor="middle" x="54.4583" y="-111" font-family="Times,serif" font-size="14.00" fill="#000000">cytoplasmic part</text>
</g>
<!-- GO:0044444&#45;&gt;GO:0044424 -->
<g id="edge10" class="edge">
<title>GO:0044444&#45;&gt;GO:0044424</title>
<path fill="none" stroke="#000000" d="M74.5503,-144.4182C85.357,-155.6156 98.8309,-169.5764 110.5334,-181.7019"/>
<polygon fill="#000000" stroke="#000000" points="108.0884,-184.2086 117.5513,-188.9735 113.1253,-179.3475 108.0884,-184.2086"/>
</g>
<!-- GO:0005576 -->
<g id="node10" class="node">
<title>GO:0005576</title>
<polygon fill="#ffa500" stroke="#000000" points="504.1809,-307.8019 378.7357,-307.8019 378.7357,-266.5981 504.1809,-266.5981 504.1809,-307.8019"/>
<text text-anchor="middle" x="441.4583" y="-291.4" font-family="Times,serif" font-size="14.00" fill="#000000">GO:0005576</text>
<text text-anchor="middle" x="441.4583" y="-274.6" font-family="Times,serif" font-size="14.00" fill="#000000">extracellular region</text>
</g>
<!-- GO:0005576&#45;&gt;GO:0005575 -->
<g id="edge11" class="edge">
<title>GO:0005576&#45;&gt;GO:0005575</title>
<path fill="none" stroke="#000000" d="M398.0453,-307.9954C377.7165,-317.7331 353.3291,-329.415 331.9703,-339.6461"/>
<polygon fill="#000000" stroke="#000000" points="330.2167,-336.6052 322.71,-344.0819 333.2408,-342.9183 330.2167,-336.6052"/>
</g>
</g>
</svg>
