<?xml version="1.0" encoding="UTF-8" standalone="no"?>
<!DOCTYPE svg PUBLIC "-//W3C//DTD SVG 1.1//EN"
 "http://www.w3.org/Graphics/SVG/1.1/DTD/svg11.dtd">
<!-- Generated by graphviz version 2.40.1 (20161225.0304)
 -->
<!-- Title: G Pages: 1 -->
<svg width="1357pt" height="461pt"
 viewBox="0.00 0.00 1356.57 460.80" xmlns="http://www.w3.org/2000/svg" xmlns:xlink="http://www.w3.org/1999/xlink">
<g id="graph0" class="graph" transform="scale(1 1) rotate(0) translate(4 456.8)">
<title>G</title>
<polygon fill="#ffffff" stroke="transparent" points="-4,4 -4,-456.8 1352.5709,-456.8 1352.5709,4 -4,4"/>
<!-- GO:0048518 -->
<g id="node1" class="node">
<title>GO:0048518</title>
<polygon fill="#00ffff" stroke="#000000" points="146.3758,-272.6014 10.869,-272.6014 10.869,-213.7986 146.3758,-213.7986 146.3758,-272.6014"/>
<text text-anchor="middle" x="78.6224" y="-255.8" font-family="Times,serif" font-size="14.00" fill="#000000">GO:0048518</text>
<text text-anchor="middle" x="78.6224" y="-239" font-family="Times,serif" font-size="14.00" fill="#000000">positive regulation of</text>
<text text-anchor="middle" x="78.6224" y="-222.2" font-family="Times,serif" font-size="14.00" fill="#000000">biological process</text>
</g>
<!-- GO:0065007 -->
<g id="node2" class="node">
<title>GO:0065007</title>
<polygon fill="#ffff00" stroke="#000000" points="457.8758,-366.6019 325.369,-366.6019 325.369,-325.3981 457.8758,-325.3981 457.8758,-366.6019"/>
<text text-anchor="middle" x="391.6224" y="-350.2" font-family="Times,serif" font-size="14.00" fill="#000000">GO:0065007</text>
<text text-anchor="middle" x="391.6224" y="-333.4" font-family="Times,serif" font-size="14.00" fill="#000000">biological regulation</text>
</g>
<!-- GO:0048518&#45;&gt;GO:0065007 -->
<g id="edge1" class="edge">
<title>GO:0048518&#45;&gt;GO:0065007</title>
<path fill="none" stroke="#000000" d="M133.9921,-272.4891C140.8369,-275.5428 147.8198,-278.4009 154.6224,-280.8 224.1799,-305.3306 246.0516,-295.358 316.6224,-316.8 321.5921,-318.31 326.6998,-319.9971 331.8007,-321.778"/>
<polygon fill="#000000" stroke="#000000" points="330.9692,-325.1987 341.5636,-325.2968 333.3427,-318.6134 330.9692,-325.1987"/>
</g>
<!-- GO:0050789 -->
<g id="node3" class="node">
<title>GO:0050789</title>
<polygon fill="#ffff00" stroke="#000000" points="307.5368,-375.4014 159.708,-375.4014 159.708,-316.5986 307.5368,-316.5986 307.5368,-375.4014"/>
<text text-anchor="middle" x="233.6224" y="-358.6" font-family="Times,serif" font-size="14.00" fill="#000000">GO:0050789</text>
<text text-anchor="middle" x="233.6224" y="-341.8" font-family="Times,serif" font-size="14.00" fill="#000000">regulation of biological</text>
<text text-anchor="middle" x="233.6224" y="-325" font-family="Times,serif" font-size="14.00" fill="#000000">process</text>
</g>
<!-- GO:0048518&#45;&gt;GO:0050789 -->
<g id="edge2" class="edge">
<title>GO:0048518&#45;&gt;GO:0050789</title>
<path fill="none" stroke="#000000" d="M123.0392,-272.6584C141.1145,-284.6464 162.1455,-298.5947 180.9844,-311.0891"/>
<polygon fill="#000000" stroke="#000000" points="179.1991,-314.1048 189.4673,-316.7152 183.0681,-308.2712 179.1991,-314.1048"/>
</g>
<!-- GO:0008150 -->
<g id="node4" class="node">
<title>GO:0008150</title>
<polygon fill="#ffffff" stroke="#000000" points="754.093,-452.6019 633.1518,-452.6019 633.1518,-411.3981 754.093,-411.3981 754.093,-452.6019"/>
<text text-anchor="middle" x="693.6224" y="-436.2" font-family="Times,serif" font-size="14.00" fill="#000000">GO:0008150</text>
<text text-anchor="middle" x="693.6224" y="-419.4" font-family="Times,serif" font-size="14.00" fill="#000000">biological_process</text>
</g>
<!-- GO:0065007&#45;&gt;GO:0008150 -->
<g id="edge3" class="edge">
<title>GO:0065007&#45;&gt;GO:0008150</title>
<path fill="none" stroke="#000000" d="M442.1456,-366.6672C450.27,-369.7014 458.6338,-372.6566 466.6224,-375.2 518.2657,-391.6421 577.7315,-406.3729 622.8415,-416.7107"/>
<polygon fill="#000000" stroke="#000000" points="622.2934,-420.1753 632.8206,-418.9797 623.8455,-413.3495 622.2934,-420.1753"/>
</g>
<!-- GO:0050789&#45;&gt;GO:0008150 -->
<g id="edge4" class="edge">
<title>GO:0050789&#45;&gt;GO:0008150</title>
<path fill="none" stroke="#000000" d="M307.6232,-372.8121C310.6497,-373.6615 313.6577,-374.4622 316.6224,-375.2 421.7378,-401.3597 546.5252,-417.2853 622.8767,-425.371"/>
<polygon fill="#000000" stroke="#000000" points="622.5524,-428.8561 632.8617,-426.4129 623.279,-421.8939 622.5524,-428.8561"/>
</g>
<!-- GO:0051704 -->
<g id="node5" class="node">
<title>GO:0051704</title>
<polygon fill="#00ff00" stroke="#000000" points="623.4255,-366.6019 475.8193,-366.6019 475.8193,-325.3981 623.4255,-325.3981 623.4255,-366.6019"/>
<text text-anchor="middle" x="549.6224" y="-350.2" font-family="Times,serif" font-size="14.00" fill="#000000">GO:0051704</text>
<text text-anchor="middle" x="549.6224" y="-333.4" font-family="Times,serif" font-size="14.00" fill="#000000">multi&#45;organism process</text>
</g>
<!-- GO:0051704&#45;&gt;GO:0008150 -->
<g id="edge5" class="edge">
<title>GO:0051704&#45;&gt;GO:0008150</title>
<path fill="none" stroke="#000000" d="M584.4808,-366.8182C604.2911,-378.6494 629.2673,-393.5657 650.3261,-406.1425"/>
<polygon fill="#000000" stroke="#000000" points="648.705,-409.251 659.085,-411.3735 652.2942,-403.2411 648.705,-409.251"/>
</g>
<!-- GO:0044260 -->
<g id="node6" class="node">
<title>GO:0044260</title>
<polygon fill="#00ff00" stroke="#000000" points="829.3948,-58.6014 681.85,-58.6014 681.85,.2014 829.3948,.2014 829.3948,-58.6014"/>
<text text-anchor="middle" x="755.6224" y="-41.8" font-family="Times,serif" font-size="14.00" fill="#000000">GO:0044260</text>
<text text-anchor="middle" x="755.6224" y="-25" font-family="Times,serif" font-size="14.00" fill="#000000">cellular macromolecule</text>
<text text-anchor="middle" x="755.6224" y="-8.2" font-family="Times,serif" font-size="14.00" fill="#000000">metabolic process</text>
</g>
<!-- GO:0044237 -->
<g id="node7" class="node">
<title>GO:0044237</title>
<polygon fill="#ffffff" stroke="#000000" points="751.8052,-272.6014 635.4396,-272.6014 635.4396,-213.7986 751.8052,-213.7986 751.8052,-272.6014"/>
<text text-anchor="middle" x="693.6224" y="-255.8" font-family="Times,serif" font-size="14.00" fill="#000000">GO:0044237</text>
<text text-anchor="middle" x="693.6224" y="-239" font-family="Times,serif" font-size="14.00" fill="#000000">cellular metabolic</text>
<text text-anchor="middle" x="693.6224" y="-222.2" font-family="Times,serif" font-size="14.00" fill="#000000">process</text>
</g>
<!-- GO:0044260&#45;&gt;GO:0044237 -->
<g id="edge6" class="edge">
<title>GO:0044260&#45;&gt;GO:0044237</title>
<path fill="none" stroke="#000000" d="M740.4753,-58.5056C735.2173,-69.542 729.6389,-82.3419 725.6224,-94.4 713.5586,-130.6175 704.9198,-173.3452 699.6823,-203.7016"/>
<polygon fill="#000000" stroke="#000000" points="696.1755,-203.4506 697.9715,-213.8921 703.0789,-204.6096 696.1755,-203.4506"/>
</g>
<!-- GO:0043170 -->
<g id="node8" class="node">
<title>GO:0043170</title>
<polygon fill="#ffffff" stroke="#000000" points="896.1246,-161.4014 735.1202,-161.4014 735.1202,-102.5986 896.1246,-102.5986 896.1246,-161.4014"/>
<text text-anchor="middle" x="815.6224" y="-144.6" font-family="Times,serif" font-size="14.00" fill="#000000">GO:0043170</text>
<text text-anchor="middle" x="815.6224" y="-127.8" font-family="Times,serif" font-size="14.00" fill="#000000">macromolecule metabolic</text>
<text text-anchor="middle" x="815.6224" y="-111" font-family="Times,serif" font-size="14.00" fill="#000000">process</text>
</g>
<!-- GO:0044260&#45;&gt;GO:0043170 -->
<g id="edge7" class="edge">
<title>GO:0044260&#45;&gt;GO:0043170</title>
<path fill="none" stroke="#000000" d="M772.816,-58.6584C779.218,-69.6271 786.5778,-82.2369 793.3691,-93.8727"/>
<polygon fill="#000000" stroke="#000000" points="790.3626,-95.6651 798.4263,-102.5373 796.4083,-92.1365 790.3626,-95.6651"/>
</g>
<!-- GO:0009987 -->
<g id="node9" class="node">
<title>GO:0009987</title>
<polygon fill="#ffff00" stroke="#000000" points="745.5786,-366.6019 641.6662,-366.6019 641.6662,-325.3981 745.5786,-325.3981 745.5786,-366.6019"/>
<text text-anchor="middle" x="693.6224" y="-350.2" font-family="Times,serif" font-size="14.00" fill="#000000">GO:0009987</text>
<text text-anchor="middle" x="693.6224" y="-333.4" font-family="Times,serif" font-size="14.00" fill="#000000">cellular process</text>
</g>
<!-- GO:0044237&#45;&gt;GO:0009987 -->
<g id="edge8" class="edge">
<title>GO:0044237&#45;&gt;GO:0009987</title>
<path fill="none" stroke="#000000" d="M693.6224,-272.6584C693.6224,-285.9539 693.6224,-301.6608 693.6224,-315.1212"/>
<polygon fill="#000000" stroke="#000000" points="690.1225,-315.3456 693.6224,-325.3456 697.1225,-315.3457 690.1225,-315.3456"/>
</g>
<!-- GO:0008152 -->
<g id="node10" class="node">
<title>GO:0008152</title>
<polygon fill="#ffffff" stroke="#000000" points="879.808,-366.6019 763.4368,-366.6019 763.4368,-325.3981 879.808,-325.3981 879.808,-366.6019"/>
<text text-anchor="middle" x="821.6224" y="-350.2" font-family="Times,serif" font-size="14.00" fill="#000000">GO:0008152</text>
<text text-anchor="middle" x="821.6224" y="-333.4" font-family="Times,serif" font-size="14.00" fill="#000000">metabolic process</text>
</g>
<!-- GO:0044237&#45;&gt;GO:0008152 -->
<g id="edge9" class="edge">
<title>GO:0044237&#45;&gt;GO:0008152</title>
<path fill="none" stroke="#000000" d="M730.3021,-272.6584C748.496,-287.2703 770.3162,-304.7947 788.0645,-319.0488"/>
<polygon fill="#000000" stroke="#000000" points="785.9165,-321.8127 795.9049,-325.3456 790.2997,-316.3549 785.9165,-321.8127"/>
</g>
<!-- GO:0071704 -->
<g id="node11" class="node">
<title>GO:0071704</title>
<polygon fill="#00ff00" stroke="#000000" points="886.808,-272.6014 770.4368,-272.6014 770.4368,-213.7986 886.808,-213.7986 886.808,-272.6014"/>
<text text-anchor="middle" x="828.6224" y="-255.8" font-family="Times,serif" font-size="14.00" fill="#000000">GO:0071704</text>
<text text-anchor="middle" x="828.6224" y="-239" font-family="Times,serif" font-size="14.00" fill="#000000">organic substance</text>
<text text-anchor="middle" x="828.6224" y="-222.2" font-family="Times,serif" font-size="14.00" fill="#000000">metabolic process</text>
</g>
<!-- GO:0043170&#45;&gt;GO:0071704 -->
<g id="edge10" class="edge">
<title>GO:0043170&#45;&gt;GO:0071704</title>
<path fill="none" stroke="#000000" d="M819.038,-161.2165C820.5487,-174.1386 822.3487,-189.5358 823.9787,-203.4788"/>
<polygon fill="#000000" stroke="#000000" points="820.5469,-204.2666 825.1845,-213.7926 827.4996,-203.4538 820.5469,-204.2666"/>
</g>
<!-- GO:0009987&#45;&gt;GO:0008150 -->
<g id="edge11" class="edge">
<title>GO:0009987&#45;&gt;GO:0008150</title>
<path fill="none" stroke="#000000" d="M693.6224,-366.8182C693.6224,-377.1705 693.6224,-389.8848 693.6224,-401.3271"/>
<polygon fill="#000000" stroke="#000000" points="690.1225,-401.3735 693.6224,-411.3735 697.1225,-401.3735 690.1225,-401.3735"/>
</g>
<!-- GO:0008152&#45;&gt;GO:0008150 -->
<g id="edge12" class="edge">
<title>GO:0008152&#45;&gt;GO:0008150</title>
<path fill="none" stroke="#000000" d="M790.6372,-366.8182C773.2638,-378.4909 751.4208,-393.1667 732.8619,-405.6359"/>
<polygon fill="#000000" stroke="#000000" points="730.6709,-402.8914 724.3223,-411.3735 734.5747,-408.7018 730.6709,-402.8914"/>
</g>
<!-- GO:0071704&#45;&gt;GO:0008152 -->
<g id="edge13" class="edge">
<title>GO:0071704&#45;&gt;GO:0008152</title>
<path fill="none" stroke="#000000" d="M826.6165,-272.6584C825.7111,-285.9539 824.6416,-301.6608 823.725,-315.1212"/>
<polygon fill="#000000" stroke="#000000" points="820.2164,-315.1309 823.0288,-325.3456 827.2002,-315.6065 820.2164,-315.1309"/>
</g>
<!-- GO:0009887 -->
<g id="node12" class="node">
<title>GO:0009887</title>
<polygon fill="#00ffff" stroke="#000000" points="1057.7579,-152.6019 921.4869,-152.6019 921.4869,-111.3981 1057.7579,-111.3981 1057.7579,-152.6019"/>
<text text-anchor="middle" x="989.6224" y="-136.2" font-family="Times,serif" font-size="14.00" fill="#000000">GO:0009887</text>
<text text-anchor="middle" x="989.6224" y="-119.4" font-family="Times,serif" font-size="14.00" fill="#000000">organ morphogenesis</text>
</g>
<!-- GO:0044767 -->
<g id="node13" class="node">
<title>GO:0044767</title>
<polygon fill="#ffa500" stroke="#000000" points="1052.5222,-272.6014 908.7226,-272.6014 908.7226,-213.7986 1052.5222,-213.7986 1052.5222,-272.6014"/>
<text text-anchor="middle" x="980.6224" y="-255.8" font-family="Times,serif" font-size="14.00" fill="#000000">GO:0044767</text>
<text text-anchor="middle" x="980.6224" y="-239" font-family="Times,serif" font-size="14.00" fill="#000000">single&#45;organism</text>
<text text-anchor="middle" x="980.6224" y="-222.2" font-family="Times,serif" font-size="14.00" fill="#000000">developmental process</text>
</g>
<!-- GO:0009887&#45;&gt;GO:0044767 -->
<g id="edge14" class="edge">
<title>GO:0009887&#45;&gt;GO:0044767</title>
<path fill="none" stroke="#000000" d="M987.9507,-152.6553C986.7972,-166.907 985.2268,-186.3101 983.8356,-203.4996"/>
<polygon fill="#000000" stroke="#000000" points="980.316,-203.6008 982.9978,-213.8506 987.2932,-204.1655 980.316,-203.6008"/>
</g>
<!-- GO:0009653 -->
<g id="node14" class="node">
<title>GO:0009653</title>
<polygon fill="#00ffff" stroke="#000000" points="1200.5194,-272.6014 1070.7254,-272.6014 1070.7254,-213.7986 1200.5194,-213.7986 1200.5194,-272.6014"/>
<text text-anchor="middle" x="1135.6224" y="-255.8" font-family="Times,serif" font-size="14.00" fill="#000000">GO:0009653</text>
<text text-anchor="middle" x="1135.6224" y="-239" font-family="Times,serif" font-size="14.00" fill="#000000">anatomical structure</text>
<text text-anchor="middle" x="1135.6224" y="-222.2" font-family="Times,serif" font-size="14.00" fill="#000000">morphogenesis</text>
</g>
<!-- GO:0009887&#45;&gt;GO:0009653 -->
<g id="edge15" class="edge">
<title>GO:0009887&#45;&gt;GO:0009653</title>
<path fill="none" stroke="#000000" d="M1016.7417,-152.6553C1036.954,-168.0498 1065.058,-189.4551 1088.866,-207.5883"/>
<polygon fill="#000000" stroke="#000000" points="1087.012,-210.5758 1097.0881,-213.8506 1091.2534,-205.007 1087.012,-210.5758"/>
</g>
<!-- GO:0032502 -->
<g id="node15" class="node">
<title>GO:0032502</title>
<polygon fill="#ffffff" stroke="#000000" points="1211.5222,-366.6019 1067.7226,-366.6019 1067.7226,-325.3981 1211.5222,-325.3981 1211.5222,-366.6019"/>
<text text-anchor="middle" x="1139.6224" y="-350.2" font-family="Times,serif" font-size="14.00" fill="#000000">GO:0032502</text>
<text text-anchor="middle" x="1139.6224" y="-333.4" font-family="Times,serif" font-size="14.00" fill="#000000">developmental process</text>
</g>
<!-- GO:0044767&#45;&gt;GO:0032502 -->
<g id="edge16" class="edge">
<title>GO:0044767&#45;&gt;GO:0032502</title>
<path fill="none" stroke="#000000" d="M1026.1854,-272.6584C1049.1929,-287.5336 1076.8687,-305.4272 1099.1239,-319.8161"/>
<polygon fill="#000000" stroke="#000000" points="1097.3784,-322.8553 1107.6764,-325.3456 1101.1791,-316.9769 1097.3784,-322.8553"/>
</g>
<!-- GO:0044699 -->
<g id="node16" class="node">
<title>GO:0044699</title>
<polygon fill="#ff0000" stroke="#000000" points="1049.3037,-366.6019 897.9411,-366.6019 897.9411,-325.3981 1049.3037,-325.3981 1049.3037,-366.6019"/>
<text text-anchor="middle" x="973.6224" y="-350.2" font-family="Times,serif" font-size="14.00" fill="#000000">GO:0044699</text>
<text text-anchor="middle" x="973.6224" y="-333.4" font-family="Times,serif" font-size="14.00" fill="#000000">single&#45;organism process</text>
</g>
<!-- GO:0044767&#45;&gt;GO:0044699 -->
<g id="edge17" class="edge">
<title>GO:0044767&#45;&gt;GO:0044699</title>
<path fill="none" stroke="#000000" d="M978.6165,-272.6584C977.7111,-285.9539 976.6416,-301.6608 975.725,-315.1212"/>
<polygon fill="#000000" stroke="#000000" points="972.2164,-315.1309 975.0288,-325.3456 979.2002,-315.6065 972.2164,-315.1309"/>
</g>
<!-- GO:0009653&#45;&gt;GO:0032502 -->
<g id="edge18" class="edge">
<title>GO:0009653&#45;&gt;GO:0032502</title>
<path fill="none" stroke="#000000" d="M1136.7686,-272.6584C1137.286,-285.9539 1137.8971,-301.6608 1138.4209,-315.1212"/>
<polygon fill="#000000" stroke="#000000" points="1134.9325,-315.4893 1138.8187,-325.3456 1141.9272,-315.2171 1134.9325,-315.4893"/>
</g>
<!-- GO:0032502&#45;&gt;GO:0008150 -->
<g id="edge19" class="edge">
<title>GO:0032502&#45;&gt;GO:0008150</title>
<path fill="none" stroke="#000000" d="M1086.9202,-366.6405C1077.5885,-369.8221 1067.8915,-372.8314 1058.6224,-375.2 958.0361,-400.9038 838.7058,-416.8127 764.5608,-425.0361"/>
<polygon fill="#000000" stroke="#000000" points="763.9658,-421.5802 754.4052,-426.1457 764.7262,-428.5388 763.9658,-421.5802"/>
</g>
<!-- GO:0044699&#45;&gt;GO:0008150 -->
<g id="edge20" class="edge">
<title>GO:0044699&#45;&gt;GO:0008150</title>
<path fill="none" stroke="#000000" d="M914.7559,-366.6269C906.0164,-369.5715 897.1001,-372.5108 888.6224,-375.2 847.5872,-388.2167 801.3404,-401.7367 764.1863,-412.3193"/>
<polygon fill="#000000" stroke="#000000" points="763.1172,-408.9845 754.4539,-415.0835 765.0297,-415.7182 763.1172,-408.9845"/>
</g>
<!-- GO:0051239 -->
<g id="node17" class="node">
<title>GO:0051239</title>
<polygon fill="#00ffff" stroke="#000000" points="317.3674,-280.9003 163.8774,-280.9003 163.8774,-205.4997 317.3674,-205.4997 317.3674,-280.9003"/>
<text text-anchor="middle" x="240.6224" y="-264.2" font-family="Times,serif" font-size="14.00" fill="#000000">GO:0051239</text>
<text text-anchor="middle" x="240.6224" y="-247.4" font-family="Times,serif" font-size="14.00" fill="#000000">regulation of</text>
<text text-anchor="middle" x="240.6224" y="-230.6" font-family="Times,serif" font-size="14.00" fill="#000000">multicellular organismal</text>
<text text-anchor="middle" x="240.6224" y="-213.8" font-family="Times,serif" font-size="14.00" fill="#000000">process</text>
</g>
<!-- GO:0051239&#45;&gt;GO:0065007 -->
<g id="edge21" class="edge">
<title>GO:0051239&#45;&gt;GO:0065007</title>
<path fill="none" stroke="#000000" d="M295.9918,-280.8952C314.771,-293.68 335.3428,-307.6852 352.5789,-319.4194"/>
<polygon fill="#000000" stroke="#000000" points="351.0252,-322.5957 361.2611,-325.3302 354.9646,-316.8094 351.0252,-322.5957"/>
</g>
<!-- GO:0051239&#45;&gt;GO:0050789 -->
<g id="edge22" class="edge">
<title>GO:0051239&#45;&gt;GO:0050789</title>
<path fill="none" stroke="#000000" d="M238.0556,-280.8952C237.4842,-289.2874 236.8769,-298.2054 236.3011,-306.6618"/>
<polygon fill="#000000" stroke="#000000" points="232.8063,-306.4667 235.6188,-316.6814 239.7902,-306.9423 232.8063,-306.4667"/>
</g>
<!-- GO:0051240 -->
<g id="node18" class="node">
<title>GO:0051240</title>
<polygon fill="#00ffff" stroke="#000000" points="153.3674,-169.7003 -.1226,-169.7003 -.1226,-94.2997 153.3674,-94.2997 153.3674,-169.7003"/>
<text text-anchor="middle" x="76.6224" y="-153" font-family="Times,serif" font-size="14.00" fill="#000000">GO:0051240</text>
<text text-anchor="middle" x="76.6224" y="-136.2" font-family="Times,serif" font-size="14.00" fill="#000000">positive regulation of</text>
<text text-anchor="middle" x="76.6224" y="-119.4" font-family="Times,serif" font-size="14.00" fill="#000000">multicellular organismal</text>
<text text-anchor="middle" x="76.6224" y="-102.6" font-family="Times,serif" font-size="14.00" fill="#000000">process</text>
</g>
<!-- GO:0051240&#45;&gt;GO:0048518 -->
<g id="edge23" class="edge">
<title>GO:0051240&#45;&gt;GO:0048518</title>
<path fill="none" stroke="#000000" d="M77.2995,-169.6472C77.4953,-180.5338 77.7096,-192.449 77.9076,-203.4589"/>
<polygon fill="#000000" stroke="#000000" points="74.412,-203.7388 78.0914,-213.6742 81.4109,-203.6128 74.412,-203.7388"/>
</g>
<!-- GO:0051240&#45;&gt;GO:0051239 -->
<g id="edge24" class="edge">
<title>GO:0051240&#45;&gt;GO:0051239</title>
<path fill="none" stroke="#000000" d="M132.1453,-169.6472C146.4384,-179.3386 161.9337,-189.8452 176.619,-199.8026"/>
<polygon fill="#000000" stroke="#000000" points="174.9156,-202.8763 185.1567,-205.5915 178.8441,-197.0826 174.9156,-202.8763"/>
</g>
<!-- GO:0009405 -->
<g id="node19" class="node">
<title>GO:0009405</title>
<polygon fill="#00ffff" stroke="#000000" points="594.2263,-263.8019 505.0185,-263.8019 505.0185,-222.5981 594.2263,-222.5981 594.2263,-263.8019"/>
<text text-anchor="middle" x="549.6224" y="-247.4" font-family="Times,serif" font-size="14.00" fill="#000000">GO:0009405</text>
<text text-anchor="middle" x="549.6224" y="-230.6" font-family="Times,serif" font-size="14.00" fill="#000000">pathogenesis</text>
</g>
<!-- GO:0009405&#45;&gt;GO:0051704 -->
<g id="edge25" class="edge">
<title>GO:0009405&#45;&gt;GO:0051704</title>
<path fill="none" stroke="#000000" d="M549.6224,-264.0031C549.6224,-278.6337 549.6224,-298.4642 549.6224,-314.9586"/>
<polygon fill="#000000" stroke="#000000" points="546.1225,-315.2278 549.6224,-325.2278 553.1225,-315.2279 546.1225,-315.2278"/>
</g>
<!-- GO:0051094 -->
<g id="node20" class="node">
<title>GO:0051094</title>
<polygon fill="#00ffff" stroke="#000000" points="315.5222,-161.4014 171.7226,-161.4014 171.7226,-102.5986 315.5222,-102.5986 315.5222,-161.4014"/>
<text text-anchor="middle" x="243.6224" y="-144.6" font-family="Times,serif" font-size="14.00" fill="#000000">GO:0051094</text>
<text text-anchor="middle" x="243.6224" y="-127.8" font-family="Times,serif" font-size="14.00" fill="#000000">positive regulation of</text>
<text text-anchor="middle" x="243.6224" y="-111" font-family="Times,serif" font-size="14.00" fill="#000000">developmental process</text>
</g>
<!-- GO:0051094&#45;&gt;GO:0048518 -->
<g id="edge26" class="edge">
<title>GO:0051094&#45;&gt;GO:0048518</title>
<path fill="none" stroke="#000000" d="M200.2706,-161.2165C178.8502,-175.6525 152.8462,-193.1777 130.3877,-208.3133"/>
<polygon fill="#000000" stroke="#000000" points="128.3074,-205.4946 121.9708,-213.9858 132.2195,-211.2995 128.3074,-205.4946"/>
</g>
<!-- GO:0050793 -->
<g id="node21" class="node">
<title>GO:0050793</title>
<polygon fill="#ffffff" stroke="#000000" points="479.5222,-272.6014 335.7226,-272.6014 335.7226,-213.7986 479.5222,-213.7986 479.5222,-272.6014"/>
<text text-anchor="middle" x="407.6224" y="-255.8" font-family="Times,serif" font-size="14.00" fill="#000000">GO:0050793</text>
<text text-anchor="middle" x="407.6224" y="-239" font-family="Times,serif" font-size="14.00" fill="#000000">regulation of</text>
<text text-anchor="middle" x="407.6224" y="-222.2" font-family="Times,serif" font-size="14.00" fill="#000000">developmental process</text>
</g>
<!-- GO:0051094&#45;&gt;GO:0050793 -->
<g id="edge27" class="edge">
<title>GO:0051094&#45;&gt;GO:0050793</title>
<path fill="none" stroke="#000000" d="M286.7115,-161.2165C308.002,-175.6525 333.8484,-193.1777 356.1708,-208.3133"/>
<polygon fill="#000000" stroke="#000000" points="354.2957,-211.2706 364.5367,-213.9858 358.2241,-205.4768 354.2957,-211.2706"/>
</g>
<!-- GO:0050793&#45;&gt;GO:0065007 -->
<g id="edge28" class="edge">
<title>GO:0050793&#45;&gt;GO:0065007</title>
<path fill="none" stroke="#000000" d="M403.0374,-272.6584C400.9681,-285.9539 398.5234,-301.6608 396.4284,-315.1212"/>
<polygon fill="#000000" stroke="#000000" points="392.9167,-314.9263 394.8371,-325.3456 399.8334,-316.0029 392.9167,-314.9263"/>
</g>
<!-- GO:0050793&#45;&gt;GO:0050789 -->
<g id="edge29" class="edge">
<title>GO:0050793&#45;&gt;GO:0050789</title>
<path fill="none" stroke="#000000" d="M357.761,-272.6584C337.1958,-284.8084 313.2223,-298.972 291.8568,-311.5948"/>
<polygon fill="#000000" stroke="#000000" points="290.0194,-308.6151 283.1901,-316.7152 293.5801,-314.6419 290.0194,-308.6151"/>
</g>
<!-- GO:0048856 -->
<g id="node22" class="node">
<title>GO:0048856</title>
<polygon fill="#00ffff" stroke="#000000" points="1348.5194,-272.6014 1218.7254,-272.6014 1218.7254,-213.7986 1348.5194,-213.7986 1348.5194,-272.6014"/>
<text text-anchor="middle" x="1283.6224" y="-255.8" font-family="Times,serif" font-size="14.00" fill="#000000">GO:0048856</text>
<text text-anchor="middle" x="1283.6224" y="-239" font-family="Times,serif" font-size="14.00" fill="#000000">anatomical structure</text>
<text text-anchor="middle" x="1283.6224" y="-222.2" font-family="Times,serif" font-size="14.00" fill="#000000">development</text>
</g>
<!-- GO:0048856&#45;&gt;GO:0032502 -->
<g id="edge30" class="edge">
<title>GO:0048856&#45;&gt;GO:0032502</title>
<path fill="none" stroke="#000000" d="M1242.3578,-272.6584C1221.7052,-287.402 1196.8992,-305.1107 1176.8365,-319.4332"/>
<polygon fill="#000000" stroke="#000000" points="1174.6599,-316.6867 1168.5546,-325.3456 1178.7271,-322.384 1174.6599,-316.6867"/>
</g>
<!-- GO:2000026 -->
<g id="node23" class="node">
<title>GO:2000026</title>
<polygon fill="#00ffff" stroke="#000000" points="487.3674,-169.7003 333.8774,-169.7003 333.8774,-94.2997 487.3674,-94.2997 487.3674,-169.7003"/>
<text text-anchor="middle" x="410.6224" y="-153" font-family="Times,serif" font-size="14.00" fill="#000000">GO:2000026</text>
<text text-anchor="middle" x="410.6224" y="-136.2" font-family="Times,serif" font-size="14.00" fill="#000000">regulation of</text>
<text text-anchor="middle" x="410.6224" y="-119.4" font-family="Times,serif" font-size="14.00" fill="#000000">multicellular organismal</text>
<text text-anchor="middle" x="410.6224" y="-102.6" font-family="Times,serif" font-size="14.00" fill="#000000">development</text>
</g>
<!-- GO:2000026&#45;&gt;GO:0051239 -->
<g id="edge32" class="edge">
<title>GO:2000026&#45;&gt;GO:0051239</title>
<path fill="none" stroke="#000000" d="M353.0682,-169.6472C338.1137,-179.4292 321.8896,-190.0417 306.5408,-200.0816"/>
<polygon fill="#000000" stroke="#000000" points="304.5701,-197.1884 298.1174,-205.5915 308.402,-203.0464 304.5701,-197.1884"/>
</g>
<!-- GO:2000026&#45;&gt;GO:0050793 -->
<g id="edge31" class="edge">
<title>GO:2000026&#45;&gt;GO:0050793</title>
<path fill="none" stroke="#000000" d="M409.6067,-169.6472C409.313,-180.5338 408.9916,-192.449 408.6946,-203.4589"/>
<polygon fill="#000000" stroke="#000000" points="405.19,-203.5834 408.419,-213.6742 412.1875,-203.7722 405.19,-203.5834"/>
</g>
</g>
</svg>
