<?xml version="1.0" encoding="UTF-8" standalone="no"?>
<!DOCTYPE svg PUBLIC "-//W3C//DTD SVG 1.1//EN"
 "http://www.w3.org/Graphics/SVG/1.1/DTD/svg11.dtd">
<!-- Generated by graphviz version 2.40.1 (20161225.0304)
 -->
<!-- Title: G Pages: 1 -->
<svg width="517pt" height="727pt"
 viewBox="0.00 0.00 516.52 727.20" xmlns="http://www.w3.org/2000/svg" xmlns:xlink="http://www.w3.org/1999/xlink">
<g id="graph0" class="graph" transform="scale(1 1) rotate(0) translate(4 723.2)">
<title>G</title>
<polygon fill="#ffffff" stroke="transparent" points="-4,4 -4,-723.2 512.5246,-723.2 512.5246,4 -4,4"/>
<!-- GO:0004675 -->
<g id="node1" class="node">
<title>GO:0004675</title>
<polygon fill="#00ffff" stroke="#000000" points="351.8333,-75.3003 200.5293,-75.3003 200.5293,.1003 351.8333,.1003 351.8333,-75.3003"/>
<text text-anchor="middle" x="276.1813" y="-58.6" font-family="Times,serif" font-size="14.00" fill="#000000">GO:0004675</text>
<text text-anchor="middle" x="276.1813" y="-41.8" font-family="Times,serif" font-size="14.00" fill="#000000">transmembrane receptor</text>
<text text-anchor="middle" x="276.1813" y="-25" font-family="Times,serif" font-size="14.00" fill="#000000">protein serine/threonine</text>
<text text-anchor="middle" x="276.1813" y="-8.2" font-family="Times,serif" font-size="14.00" fill="#000000">kinase activity</text>
</g>
<!-- GO:0004674 -->
<g id="node2" class="node">
<title>GO:0004674</title>
<polygon fill="#00ff00" stroke="#000000" points="267.0247,-169.8014 117.3379,-169.8014 117.3379,-110.9986 267.0247,-110.9986 267.0247,-169.8014"/>
<text text-anchor="middle" x="192.1813" y="-153" font-family="Times,serif" font-size="14.00" fill="#000000">GO:0004674</text>
<text text-anchor="middle" x="192.1813" y="-136.2" font-family="Times,serif" font-size="14.00" fill="#000000">protein serine/threonine</text>
<text text-anchor="middle" x="192.1813" y="-119.4" font-family="Times,serif" font-size="14.00" fill="#000000">kinase activity</text>
</g>
<!-- GO:0004675&#45;&gt;GO:0004674 -->
<g id="edge1" class="edge">
<title>GO:0004675&#45;&gt;GO:0004674</title>
<path fill="none" stroke="#000000" d="M245.3798,-75.2952C237.9195,-84.4252 229.9507,-94.1775 222.5123,-103.2807"/>
<polygon fill="#000000" stroke="#000000" points="219.7554,-101.1231 216.1382,-111.0814 225.1759,-105.5524 219.7554,-101.1231"/>
</g>
<!-- GO:0019199 -->
<g id="node3" class="node">
<title>GO:0019199</title>
<polygon fill="#ffffff" stroke="#000000" points="435.8333,-169.8014 284.5293,-169.8014 284.5293,-110.9986 435.8333,-110.9986 435.8333,-169.8014"/>
<text text-anchor="middle" x="360.1813" y="-153" font-family="Times,serif" font-size="14.00" fill="#000000">GO:0019199</text>
<text text-anchor="middle" x="360.1813" y="-136.2" font-family="Times,serif" font-size="14.00" fill="#000000">transmembrane receptor</text>
<text text-anchor="middle" x="360.1813" y="-119.4" font-family="Times,serif" font-size="14.00" fill="#000000">protein kinase activity</text>
</g>
<!-- GO:0004675&#45;&gt;GO:0019199 -->
<g id="edge2" class="edge">
<title>GO:0004675&#45;&gt;GO:0019199</title>
<path fill="none" stroke="#000000" d="M306.9828,-75.2952C314.4431,-84.4252 322.4119,-94.1775 329.8503,-103.2807"/>
<polygon fill="#000000" stroke="#000000" points="327.1867,-105.5524 336.2244,-111.0814 332.6072,-101.1231 327.1867,-105.5524"/>
</g>
<!-- GO:0004672 -->
<g id="node4" class="node">
<title>GO:0004672</title>
<polygon fill="#ffffff" stroke="#000000" points="273.5943,-247.0019 132.7683,-247.0019 132.7683,-205.7981 273.5943,-205.7981 273.5943,-247.0019"/>
<text text-anchor="middle" x="203.1813" y="-230.6" font-family="Times,serif" font-size="14.00" fill="#000000">GO:0004672</text>
<text text-anchor="middle" x="203.1813" y="-213.8" font-family="Times,serif" font-size="14.00" fill="#000000">protein kinase activity</text>
</g>
<!-- GO:0004674&#45;&gt;GO:0004672 -->
<g id="edge3" class="edge">
<title>GO:0004674&#45;&gt;GO:0004672</title>
<path fill="none" stroke="#000000" d="M195.9669,-169.9963C197.0243,-178.2638 198.1758,-187.2657 199.2419,-195.6008"/>
<polygon fill="#000000" stroke="#000000" points="195.7926,-196.2214 200.5332,-205.6966 202.7361,-195.3333 195.7926,-196.2214"/>
</g>
<!-- GO:0019199&#45;&gt;GO:0004672 -->
<g id="edge5" class="edge">
<title>GO:0019199&#45;&gt;GO:0004672</title>
<path fill="none" stroke="#000000" d="M306.5899,-169.7558C288.2837,-179.7834 267.9613,-190.9154 250.2114,-200.6383"/>
<polygon fill="#000000" stroke="#000000" points="248.2771,-197.7071 241.1882,-205.5809 251.6401,-203.8464 248.2771,-197.7071"/>
</g>
<!-- GO:0004888 -->
<g id="node5" class="node">
<title>GO:0004888</title>
<polygon fill="#ffffff" stroke="#000000" points="438.8084,-350.2014 281.5542,-350.2014 281.5542,-291.3986 438.8084,-291.3986 438.8084,-350.2014"/>
<text text-anchor="middle" x="360.1813" y="-333.4" font-family="Times,serif" font-size="14.00" fill="#000000">GO:0004888</text>
<text text-anchor="middle" x="360.1813" y="-316.6" font-family="Times,serif" font-size="14.00" fill="#000000">transmembrane signaling</text>
<text text-anchor="middle" x="360.1813" y="-299.8" font-family="Times,serif" font-size="14.00" fill="#000000">receptor activity</text>
</g>
<!-- GO:0019199&#45;&gt;GO:0004888 -->
<g id="edge4" class="edge">
<title>GO:0019199&#45;&gt;GO:0004888</title>
<path fill="none" stroke="#000000" d="M360.1813,-169.7859C360.1813,-200.0564 360.1813,-247.4309 360.1813,-281.0381"/>
<polygon fill="#000000" stroke="#000000" points="356.6814,-281.4267 360.1813,-291.4267 363.6814,-281.4267 356.6814,-281.4267"/>
</g>
<!-- GO:0016773 -->
<g id="node6" class="node">
<title>GO:0016773</title>
<polygon fill="#ffffff" stroke="#000000" points="142.5444,-358.5003 -.1818,-358.5003 -.1818,-283.0997 142.5444,-283.0997 142.5444,-358.5003"/>
<text text-anchor="middle" x="71.1813" y="-341.8" font-family="Times,serif" font-size="14.00" fill="#000000">GO:0016773</text>
<text text-anchor="middle" x="71.1813" y="-325" font-family="Times,serif" font-size="14.00" fill="#000000">phosphotransferase</text>
<text text-anchor="middle" x="71.1813" y="-308.2" font-family="Times,serif" font-size="14.00" fill="#000000">activity, alcohol group</text>
<text text-anchor="middle" x="71.1813" y="-291.4" font-family="Times,serif" font-size="14.00" fill="#000000">as acceptor</text>
</g>
<!-- GO:0004672&#45;&gt;GO:0016773 -->
<g id="edge6" class="edge">
<title>GO:0004672&#45;&gt;GO:0016773</title>
<path fill="none" stroke="#000000" d="M174.2133,-247.1165C161.9059,-255.9182 147.0583,-266.5365 132.5144,-276.9375"/>
<polygon fill="#000000" stroke="#000000" points="130.1058,-274.3571 124.0078,-283.0211 134.1778,-280.0509 130.1058,-274.3571"/>
</g>
<!-- GO:0016301 -->
<g id="node7" class="node">
<title>GO:0016301</title>
<polygon fill="#ffffff" stroke="#000000" points="257.9376,-341.4019 160.425,-341.4019 160.425,-300.1981 257.9376,-300.1981 257.9376,-341.4019"/>
<text text-anchor="middle" x="209.1813" y="-325" font-family="Times,serif" font-size="14.00" fill="#000000">GO:0016301</text>
<text text-anchor="middle" x="209.1813" y="-308.2" font-family="Times,serif" font-size="14.00" fill="#000000">kinase activity</text>
</g>
<!-- GO:0004672&#45;&gt;GO:0016301 -->
<g id="edge7" class="edge">
<title>GO:0004672&#45;&gt;GO:0016301</title>
<path fill="none" stroke="#000000" d="M204.5129,-247.3504C205.3052,-259.8165 206.3252,-275.8645 207.2096,-289.7786"/>
<polygon fill="#000000" stroke="#000000" points="203.7261,-290.1503 207.8534,-299.9081 210.712,-289.7062 203.7261,-290.1503"/>
</g>
<!-- GO:0038023 -->
<g id="node8" class="node">
<title>GO:0038023</title>
<polygon fill="#ffffff" stroke="#000000" points="508.3683,-461.4014 391.9943,-461.4014 391.9943,-402.5986 508.3683,-402.5986 508.3683,-461.4014"/>
<text text-anchor="middle" x="450.1813" y="-444.6" font-family="Times,serif" font-size="14.00" fill="#000000">GO:0038023</text>
<text text-anchor="middle" x="450.1813" y="-427.8" font-family="Times,serif" font-size="14.00" fill="#000000">signaling receptor</text>
<text text-anchor="middle" x="450.1813" y="-411" font-family="Times,serif" font-size="14.00" fill="#000000">activity</text>
</g>
<!-- GO:0004888&#45;&gt;GO:0038023 -->
<g id="edge8" class="edge">
<title>GO:0004888&#45;&gt;GO:0038023</title>
<path fill="none" stroke="#000000" d="M383.8277,-350.0165C394.9015,-363.6987 408.2211,-380.1558 420.0114,-394.7234"/>
<polygon fill="#000000" stroke="#000000" points="417.3685,-397.0214 426.3803,-402.5926 422.8097,-392.6175 417.3685,-397.0214"/>
</g>
<!-- GO:0099600 -->
<g id="node9" class="node">
<title>GO:0099600</title>
<polygon fill="#00ff00" stroke="#000000" points="373.8333,-461.4014 222.5293,-461.4014 222.5293,-402.5986 373.8333,-402.5986 373.8333,-461.4014"/>
<text text-anchor="middle" x="298.1813" y="-444.6" font-family="Times,serif" font-size="14.00" fill="#000000">GO:0099600</text>
<text text-anchor="middle" x="298.1813" y="-427.8" font-family="Times,serif" font-size="14.00" fill="#000000">transmembrane receptor</text>
<text text-anchor="middle" x="298.1813" y="-411" font-family="Times,serif" font-size="14.00" fill="#000000">activity</text>
</g>
<!-- GO:0004888&#45;&gt;GO:0099600 -->
<g id="edge9" class="edge">
<title>GO:0004888&#45;&gt;GO:0099600</title>
<path fill="none" stroke="#000000" d="M343.8915,-350.0165C336.4749,-363.3186 327.5958,-379.2436 319.6442,-393.5052"/>
<polygon fill="#000000" stroke="#000000" points="316.3904,-392.154 314.5775,-402.5926 322.5043,-395.5628 316.3904,-392.154"/>
</g>
<!-- GO:0016772 -->
<g id="node10" class="node">
<title>GO:0016772</title>
<polygon fill="#ffffff" stroke="#000000" points="204.1891,-469.7003 50.1735,-469.7003 50.1735,-394.2997 204.1891,-394.2997 204.1891,-469.7003"/>
<text text-anchor="middle" x="127.1813" y="-453" font-family="Times,serif" font-size="14.00" fill="#000000">GO:0016772</text>
<text text-anchor="middle" x="127.1813" y="-436.2" font-family="Times,serif" font-size="14.00" fill="#000000">transferase activity,</text>
<text text-anchor="middle" x="127.1813" y="-419.4" font-family="Times,serif" font-size="14.00" fill="#000000">transferring phosphorus&#45;</text>
<text text-anchor="middle" x="127.1813" y="-402.6" font-family="Times,serif" font-size="14.00" fill="#000000">containing groups</text>
</g>
<!-- GO:0016773&#45;&gt;GO:0016772 -->
<g id="edge10" class="edge">
<title>GO:0016773&#45;&gt;GO:0016772</title>
<path fill="none" stroke="#000000" d="M90.1403,-358.4472C94.4735,-367.0517 99.1304,-376.2989 103.6299,-385.2336"/>
<polygon fill="#000000" stroke="#000000" points="100.6179,-387.0344 108.2418,-394.3915 106.8699,-383.8859 100.6179,-387.0344"/>
</g>
<!-- GO:0016301&#45;&gt;GO:0016772 -->
<g id="edge11" class="edge">
<title>GO:0016301&#45;&gt;GO:0016772</title>
<path fill="none" stroke="#000000" d="M193.9499,-341.4553C184.7272,-353.9621 172.5791,-370.4361 161.1761,-385.8998"/>
<polygon fill="#000000" stroke="#000000" points="158.059,-384.2295 154.941,-394.3552 163.6929,-388.384 158.059,-384.2295"/>
</g>
<!-- GO:0004872 -->
<g id="node11" class="node">
<title>GO:0004872</title>
<polygon fill="#ffffff" stroke="#000000" points="353.0291,-547.0019 245.3335,-547.0019 245.3335,-505.7981 353.0291,-505.7981 353.0291,-547.0019"/>
<text text-anchor="middle" x="299.1813" y="-530.6" font-family="Times,serif" font-size="14.00" fill="#000000">GO:0004872</text>
<text text-anchor="middle" x="299.1813" y="-513.8" font-family="Times,serif" font-size="14.00" fill="#000000">receptor activity</text>
</g>
<!-- GO:0038023&#45;&gt;GO:0004872 -->
<g id="edge12" class="edge">
<title>GO:0038023&#45;&gt;GO:0004872</title>
<path fill="none" stroke="#000000" d="M403.2317,-461.3513C383.2613,-473.8361 360.1655,-488.2748 340.814,-500.3727"/>
<polygon fill="#000000" stroke="#000000" points="338.835,-497.4822 332.211,-505.751 342.5457,-503.4177 338.835,-497.4822"/>
</g>
<!-- GO:0004871 -->
<g id="node12" class="node">
<title>GO:0004871</title>
<polygon fill="#ffffff" stroke="#000000" points="500.9222,-641.8014 389.4404,-641.8014 389.4404,-582.9986 500.9222,-582.9986 500.9222,-641.8014"/>
<text text-anchor="middle" x="445.1813" y="-625" font-family="Times,serif" font-size="14.00" fill="#000000">GO:0004871</text>
<text text-anchor="middle" x="445.1813" y="-608.2" font-family="Times,serif" font-size="14.00" fill="#000000">signal transducer</text>
<text text-anchor="middle" x="445.1813" y="-591.4" font-family="Times,serif" font-size="14.00" fill="#000000">activity</text>
</g>
<!-- GO:0038023&#45;&gt;GO:0004871 -->
<g id="edge13" class="edge">
<title>GO:0038023&#45;&gt;GO:0004871</title>
<path fill="none" stroke="#000000" d="M449.3668,-461.3859C448.5279,-491.6564 447.2148,-539.0309 446.2833,-572.6381"/>
<polygon fill="#000000" stroke="#000000" points="442.7739,-572.9335 445.9954,-583.0267 449.7712,-573.1275 442.7739,-572.9335"/>
</g>
<!-- GO:0099600&#45;&gt;GO:0004872 -->
<g id="edge14" class="edge">
<title>GO:0099600&#45;&gt;GO:0004872</title>
<path fill="none" stroke="#000000" d="M298.4922,-461.3513C298.6078,-472.2614 298.7392,-484.6637 298.856,-495.692"/>
<polygon fill="#000000" stroke="#000000" points="295.3567,-495.7887 298.9626,-505.751 302.3563,-495.7144 295.3567,-495.7887"/>
</g>
<!-- GO:0016740 -->
<g id="node13" class="node">
<title>GO:0016740</title>
<polygon fill="#00ff00" stroke="#000000" points="197.293,-547.0019 75.0696,-547.0019 75.0696,-505.7981 197.293,-505.7981 197.293,-547.0019"/>
<text text-anchor="middle" x="136.1813" y="-530.6" font-family="Times,serif" font-size="14.00" fill="#000000">GO:0016740</text>
<text text-anchor="middle" x="136.1813" y="-513.8" font-family="Times,serif" font-size="14.00" fill="#000000">transferase activity</text>
</g>
<!-- GO:0016772&#45;&gt;GO:0016740 -->
<g id="edge15" class="edge">
<title>GO:0016772&#45;&gt;GO:0016740</title>
<path fill="none" stroke="#000000" d="M130.7901,-469.8522C131.5994,-478.3406 132.4487,-487.2492 133.2277,-495.4197"/>
<polygon fill="#000000" stroke="#000000" points="129.7685,-496.0152 134.2019,-505.6379 136.7369,-495.3508 129.7685,-496.0152"/>
</g>
<!-- GO:0060089 -->
<g id="node14" class="node">
<title>GO:0060089</title>
<polygon fill="#ffffff" stroke="#000000" points="365.9579,-641.8014 232.4047,-641.8014 232.4047,-582.9986 365.9579,-582.9986 365.9579,-641.8014"/>
<text text-anchor="middle" x="299.1813" y="-625" font-family="Times,serif" font-size="14.00" fill="#000000">GO:0060089</text>
<text text-anchor="middle" x="299.1813" y="-608.2" font-family="Times,serif" font-size="14.00" fill="#000000">molecular transducer</text>
<text text-anchor="middle" x="299.1813" y="-591.4" font-family="Times,serif" font-size="14.00" fill="#000000">activity</text>
</g>
<!-- GO:0004872&#45;&gt;GO:0060089 -->
<g id="edge16" class="edge">
<title>GO:0004872&#45;&gt;GO:0060089</title>
<path fill="none" stroke="#000000" d="M299.1813,-547.2182C299.1813,-554.9358 299.1813,-563.9662 299.1813,-572.8036"/>
<polygon fill="#000000" stroke="#000000" points="295.6814,-572.9991 299.1813,-582.9991 302.6814,-572.9992 295.6814,-572.9991"/>
</g>
<!-- GO:0003674 -->
<g id="node15" class="node">
<title>GO:0003674</title>
<polygon fill="#ffffff" stroke="#000000" points="361.8144,-719.0019 236.5482,-719.0019 236.5482,-677.7981 361.8144,-677.7981 361.8144,-719.0019"/>
<text text-anchor="middle" x="299.1813" y="-702.6" font-family="Times,serif" font-size="14.00" fill="#000000">GO:0003674</text>
<text text-anchor="middle" x="299.1813" y="-685.8" font-family="Times,serif" font-size="14.00" fill="#000000">molecular_function</text>
</g>
<!-- GO:0004871&#45;&gt;GO:0003674 -->
<g id="edge17" class="edge">
<title>GO:0004871&#45;&gt;GO:0003674</title>
<path fill="none" stroke="#000000" d="M395.3447,-641.7558C378.4773,-651.6914 359.7692,-662.7112 343.3712,-672.3703"/>
<polygon fill="#000000" stroke="#000000" points="341.3652,-669.4898 334.5253,-677.5809 344.918,-675.5212 341.3652,-669.4898"/>
</g>
<!-- GO:0003824 -->
<g id="node16" class="node">
<title>GO:0003824</title>
<polygon fill="#00ff00" stroke="#000000" points="206.5937,-633.0019 97.7689,-633.0019 97.7689,-591.7981 206.5937,-591.7981 206.5937,-633.0019"/>
<text text-anchor="middle" x="152.1813" y="-616.6" font-family="Times,serif" font-size="14.00" fill="#000000">GO:0003824</text>
<text text-anchor="middle" x="152.1813" y="-599.8" font-family="Times,serif" font-size="14.00" fill="#000000">catalytic activity</text>
</g>
<!-- GO:0016740&#45;&gt;GO:0003824 -->
<g id="edge18" class="edge">
<title>GO:0016740&#45;&gt;GO:0003824</title>
<path fill="none" stroke="#000000" d="M140.0545,-547.2182C141.9805,-557.5705 144.3459,-570.2848 146.4747,-581.7271"/>
<polygon fill="#000000" stroke="#000000" points="143.0737,-582.5824 148.3438,-591.7735 149.9556,-581.302 143.0737,-582.5824"/>
</g>
<!-- GO:0060089&#45;&gt;GO:0003674 -->
<g id="edge19" class="edge">
<title>GO:0060089&#45;&gt;GO:0003674</title>
<path fill="none" stroke="#000000" d="M299.1813,-641.9963C299.1813,-650.2638 299.1813,-659.2657 299.1813,-667.6008"/>
<polygon fill="#000000" stroke="#000000" points="295.6814,-667.6965 299.1813,-677.6966 302.6814,-667.6966 295.6814,-667.6965"/>
</g>
<!-- GO:0003824&#45;&gt;GO:0003674 -->
<g id="edge20" class="edge">
<title>GO:0003824&#45;&gt;GO:0003674</title>
<path fill="none" stroke="#000000" d="M187.7659,-633.2182C208.0792,-645.1022 233.7132,-660.099 255.2707,-672.7108"/>
<polygon fill="#000000" stroke="#000000" points="253.5256,-675.7448 263.9244,-677.7735 257.0604,-669.7028 253.5256,-675.7448"/>
</g>
</g>
</svg>
