<?xml version="1.0" encoding="UTF-8" standalone="no"?>
<!DOCTYPE svg PUBLIC "-//W3C//DTD SVG 1.1//EN"
 "http://www.w3.org/Graphics/SVG/1.1/DTD/svg11.dtd">
<!-- Generated by graphviz version 2.40.1 (20161225.0304)
 -->
<!-- Title: G Pages: 1 -->
<svg width="299pt" height="444pt"
 viewBox="0.00 0.00 298.64 444.00" xmlns="http://www.w3.org/2000/svg" xmlns:xlink="http://www.w3.org/1999/xlink">
<g id="graph0" class="graph" transform="scale(1 1) rotate(0) translate(4 440)">
<title>G</title>
<polygon fill="#ffffff" stroke="transparent" points="-4,4 -4,-440 294.6421,-440 294.6421,4 -4,4"/>
<!-- GO:0004930 -->
<g id="node1" class="node">
<title>GO:0004930</title>
<polygon fill="#ff0000" stroke="#000000" points="211.0695,-58.6014 92.5821,-58.6014 92.5821,.2014 211.0695,.2014 211.0695,-58.6014"/>
<text text-anchor="middle" x="151.8258" y="-41.8" font-family="Times,serif" font-size="14.00" fill="#000000">GO:0004930</text>
<text text-anchor="middle" x="151.8258" y="-25" font-family="Times,serif" font-size="14.00" fill="#000000">G&#45;protein coupled</text>
<text text-anchor="middle" x="151.8258" y="-8.2" font-family="Times,serif" font-size="14.00" fill="#000000">receptor activity</text>
</g>
<!-- GO:0004888 -->
<g id="node2" class="node">
<title>GO:0004888</title>
<polygon fill="#ff0000" stroke="#000000" points="230.4529,-153.0014 73.1987,-153.0014 73.1987,-94.1986 230.4529,-94.1986 230.4529,-153.0014"/>
<text text-anchor="middle" x="151.8258" y="-136.2" font-family="Times,serif" font-size="14.00" fill="#000000">GO:0004888</text>
<text text-anchor="middle" x="151.8258" y="-119.4" font-family="Times,serif" font-size="14.00" fill="#000000">transmembrane signaling</text>
<text text-anchor="middle" x="151.8258" y="-102.6" font-family="Times,serif" font-size="14.00" fill="#000000">receptor activity</text>
</g>
<!-- GO:0004930&#45;&gt;GO:0004888 -->
<g id="edge1" class="edge">
<title>GO:0004930&#45;&gt;GO:0004888</title>
<path fill="none" stroke="#000000" d="M151.8258,-58.5513C151.8258,-66.6318 151.8258,-75.5308 151.8258,-84.0838"/>
<polygon fill="#000000" stroke="#000000" points="148.3259,-84.2668 151.8258,-94.2669 155.3259,-84.2669 148.3259,-84.2668"/>
</g>
<!-- GO:0038023 -->
<g id="node3" class="node">
<title>GO:0038023</title>
<polygon fill="#ffffff" stroke="#000000" points="286.0128,-247.4014 169.6388,-247.4014 169.6388,-188.5986 286.0128,-188.5986 286.0128,-247.4014"/>
<text text-anchor="middle" x="227.8258" y="-230.6" font-family="Times,serif" font-size="14.00" fill="#000000">GO:0038023</text>
<text text-anchor="middle" x="227.8258" y="-213.8" font-family="Times,serif" font-size="14.00" fill="#000000">signaling receptor</text>
<text text-anchor="middle" x="227.8258" y="-197" font-family="Times,serif" font-size="14.00" fill="#000000">activity</text>
</g>
<!-- GO:0004888&#45;&gt;GO:0038023 -->
<g id="edge2" class="edge">
<title>GO:0004888&#45;&gt;GO:0038023</title>
<path fill="none" stroke="#000000" d="M175.4561,-152.9513C182.5335,-161.7422 190.3908,-171.5018 197.8209,-180.7308"/>
<polygon fill="#000000" stroke="#000000" points="195.2128,-183.0724 204.2101,-188.6669 200.6653,-178.6826 195.2128,-183.0724"/>
</g>
<!-- GO:0099600 -->
<g id="node4" class="node">
<title>GO:0099600</title>
<polygon fill="#ffffff" stroke="#000000" points="151.4778,-247.4014 .1738,-247.4014 .1738,-188.5986 151.4778,-188.5986 151.4778,-247.4014"/>
<text text-anchor="middle" x="75.8258" y="-230.6" font-family="Times,serif" font-size="14.00" fill="#000000">GO:0099600</text>
<text text-anchor="middle" x="75.8258" y="-213.8" font-family="Times,serif" font-size="14.00" fill="#000000">transmembrane receptor</text>
<text text-anchor="middle" x="75.8258" y="-197" font-family="Times,serif" font-size="14.00" fill="#000000">activity</text>
</g>
<!-- GO:0004888&#45;&gt;GO:0099600 -->
<g id="edge3" class="edge">
<title>GO:0004888&#45;&gt;GO:0099600</title>
<path fill="none" stroke="#000000" d="M128.1955,-152.9513C121.1181,-161.7422 113.2608,-171.5018 105.8307,-180.7308"/>
<polygon fill="#000000" stroke="#000000" points="102.9863,-178.6826 99.4415,-188.6669 108.4388,-183.0724 102.9863,-178.6826"/>
</g>
<!-- GO:0004872 -->
<g id="node5" class="node">
<title>GO:0004872</title>
<polygon fill="#ffffff" stroke="#000000" points="131.6736,-333.0019 23.978,-333.0019 23.978,-291.7981 131.6736,-291.7981 131.6736,-333.0019"/>
<text text-anchor="middle" x="77.8258" y="-316.6" font-family="Times,serif" font-size="14.00" fill="#000000">GO:0004872</text>
<text text-anchor="middle" x="77.8258" y="-299.8" font-family="Times,serif" font-size="14.00" fill="#000000">receptor activity</text>
</g>
<!-- GO:0038023&#45;&gt;GO:0004872 -->
<g id="edge4" class="edge">
<title>GO:0038023&#45;&gt;GO:0004872</title>
<path fill="none" stroke="#000000" d="M181.1871,-247.3513C161.3489,-259.8361 138.4061,-274.2748 119.1828,-286.3727"/>
<polygon fill="#000000" stroke="#000000" points="117.236,-283.4624 110.6367,-291.751 120.9644,-289.3868 117.236,-283.4624"/>
</g>
<!-- GO:0004871 -->
<g id="node6" class="node">
<title>GO:0004871</title>
<polygon fill="#ffffff" stroke="#000000" points="283.5667,-341.8014 172.0849,-341.8014 172.0849,-282.9986 283.5667,-282.9986 283.5667,-341.8014"/>
<text text-anchor="middle" x="227.8258" y="-325" font-family="Times,serif" font-size="14.00" fill="#000000">GO:0004871</text>
<text text-anchor="middle" x="227.8258" y="-308.2" font-family="Times,serif" font-size="14.00" fill="#000000">signal transducer</text>
<text text-anchor="middle" x="227.8258" y="-291.4" font-family="Times,serif" font-size="14.00" fill="#000000">activity</text>
</g>
<!-- GO:0038023&#45;&gt;GO:0004871 -->
<g id="edge5" class="edge">
<title>GO:0038023&#45;&gt;GO:0004871</title>
<path fill="none" stroke="#000000" d="M227.8258,-247.3513C227.8258,-255.4318 227.8258,-264.3308 227.8258,-272.8838"/>
<polygon fill="#000000" stroke="#000000" points="224.3259,-273.0668 227.8258,-283.0669 231.3259,-273.0669 224.3259,-273.0668"/>
</g>
<!-- GO:0099600&#45;&gt;GO:0004872 -->
<g id="edge6" class="edge">
<title>GO:0099600&#45;&gt;GO:0004872</title>
<path fill="none" stroke="#000000" d="M76.4476,-247.3513C76.6788,-258.2614 76.9416,-270.6637 77.1752,-281.692"/>
<polygon fill="#000000" stroke="#000000" points="73.6772,-281.8274 77.3883,-291.751 80.6756,-281.6791 73.6772,-281.8274"/>
</g>
<!-- GO:0060089 -->
<g id="node7" class="node">
<title>GO:0060089</title>
<polygon fill="#ffffff" stroke="#000000" points="144.6024,-436.2014 11.0492,-436.2014 11.0492,-377.3986 144.6024,-377.3986 144.6024,-436.2014"/>
<text text-anchor="middle" x="77.8258" y="-419.4" font-family="Times,serif" font-size="14.00" fill="#000000">GO:0060089</text>
<text text-anchor="middle" x="77.8258" y="-402.6" font-family="Times,serif" font-size="14.00" fill="#000000">molecular transducer</text>
<text text-anchor="middle" x="77.8258" y="-385.8" font-family="Times,serif" font-size="14.00" fill="#000000">activity</text>
</g>
<!-- GO:0004872&#45;&gt;GO:0060089 -->
<g id="edge7" class="edge">
<title>GO:0004872&#45;&gt;GO:0060089</title>
<path fill="none" stroke="#000000" d="M77.8258,-333.3504C77.8258,-343.3492 77.8258,-355.6525 77.8258,-367.3106"/>
<polygon fill="#000000" stroke="#000000" points="74.3259,-367.3155 77.8258,-377.3155 81.3259,-367.3156 74.3259,-367.3155"/>
</g>
<!-- GO:0003674 -->
<g id="node8" class="node">
<title>GO:0003674</title>
<polygon fill="#ffffff" stroke="#000000" points="290.4589,-427.4019 165.1927,-427.4019 165.1927,-386.1981 290.4589,-386.1981 290.4589,-427.4019"/>
<text text-anchor="middle" x="227.8258" y="-411" font-family="Times,serif" font-size="14.00" fill="#000000">GO:0003674</text>
<text text-anchor="middle" x="227.8258" y="-394.2" font-family="Times,serif" font-size="14.00" fill="#000000">molecular_function</text>
</g>
<!-- GO:0004871&#45;&gt;GO:0003674 -->
<g id="edge8" class="edge">
<title>GO:0004871&#45;&gt;GO:0003674</title>
<path fill="none" stroke="#000000" d="M227.8258,-341.7513C227.8258,-352.6614 227.8258,-365.0637 227.8258,-376.092"/>
<polygon fill="#000000" stroke="#000000" points="224.3259,-376.1509 227.8258,-386.151 231.3259,-376.151 224.3259,-376.1509"/>
</g>
</g>
</svg>
