<?xml version="1.0" encoding="UTF-8" standalone="no"?>
<!DOCTYPE svg PUBLIC "-//W3C//DTD SVG 1.1//EN"
 "http://www.w3.org/Graphics/SVG/1.1/DTD/svg11.dtd">
<!-- Generated by graphviz version 2.40.1 (20161225.0304)
 -->
<!-- Title: G Pages: 1 -->
<svg width="598pt" height="427pt"
 viewBox="0.00 0.00 597.55 427.20" xmlns="http://www.w3.org/2000/svg" xmlns:xlink="http://www.w3.org/1999/xlink">
<g id="graph0" class="graph" transform="scale(1 1) rotate(0) translate(4 423.2)">
<title>G</title>
<polygon fill="#ffffff" stroke="transparent" points="-4,4 -4,-423.2 593.5474,-423.2 593.5474,4 -4,4"/>
<!-- GO:0007165 -->
<g id="node1" class="node">
<title>GO:0007165</title>
<polygon fill="#ffa500" stroke="#000000" points="460.9872,-152.6019 338.6938,-152.6019 338.6938,-111.3981 460.9872,-111.3981 460.9872,-152.6019"/>
<text text-anchor="middle" x="399.8405" y="-136.2" font-family="Times,serif" font-size="14.00" fill="#000000">GO:0007165</text>
<text text-anchor="middle" x="399.8405" y="-119.4" font-family="Times,serif" font-size="14.00" fill="#000000">signal transduction</text>
</g>
<!-- GO:0050794 -->
<g id="node2" class="node">
<title>GO:0050794</title>
<polygon fill="#ff0000" stroke="#000000" points="466.7395,-247.4014 332.9415,-247.4014 332.9415,-188.5986 466.7395,-188.5986 466.7395,-247.4014"/>
<text text-anchor="middle" x="399.8405" y="-230.6" font-family="Times,serif" font-size="14.00" fill="#000000">GO:0050794</text>
<text text-anchor="middle" x="399.8405" y="-213.8" font-family="Times,serif" font-size="14.00" fill="#000000">regulation of cellular</text>
<text text-anchor="middle" x="399.8405" y="-197" font-family="Times,serif" font-size="14.00" fill="#000000">process</text>
</g>
<!-- GO:0007165&#45;&gt;GO:0050794 -->
<g id="edge1" class="edge">
<title>GO:0007165&#45;&gt;GO:0050794</title>
<path fill="none" stroke="#000000" d="M399.8405,-152.8182C399.8405,-160.5358 399.8405,-169.5662 399.8405,-178.4036"/>
<polygon fill="#000000" stroke="#000000" points="396.3406,-178.5991 399.8405,-188.5991 403.3406,-178.5992 396.3406,-178.5991"/>
</g>
<!-- GO:0065007 -->
<g id="node3" class="node">
<title>GO:0065007</title>
<polygon fill="#ff0000" stroke="#000000" points="424.0939,-333.0019 291.5871,-333.0019 291.5871,-291.7981 424.0939,-291.7981 424.0939,-333.0019"/>
<text text-anchor="middle" x="357.8405" y="-316.6" font-family="Times,serif" font-size="14.00" fill="#000000">GO:0065007</text>
<text text-anchor="middle" x="357.8405" y="-299.8" font-family="Times,serif" font-size="14.00" fill="#000000">biological regulation</text>
</g>
<!-- GO:0050794&#45;&gt;GO:0065007 -->
<g id="edge2" class="edge">
<title>GO:0050794&#45;&gt;GO:0065007</title>
<path fill="none" stroke="#000000" d="M386.7817,-247.3513C381.8275,-258.4864 376.1818,-271.1758 371.2002,-282.3724"/>
<polygon fill="#000000" stroke="#000000" points="367.8948,-281.1917 367.0276,-291.751 374.2904,-284.0372 367.8948,-281.1917"/>
</g>
<!-- GO:0050789 -->
<g id="node4" class="node">
<title>GO:0050789</title>
<polygon fill="#ff0000" stroke="#000000" points="589.7549,-341.8014 441.9261,-341.8014 441.9261,-282.9986 589.7549,-282.9986 589.7549,-341.8014"/>
<text text-anchor="middle" x="515.8405" y="-325" font-family="Times,serif" font-size="14.00" fill="#000000">GO:0050789</text>
<text text-anchor="middle" x="515.8405" y="-308.2" font-family="Times,serif" font-size="14.00" fill="#000000">regulation of biological</text>
<text text-anchor="middle" x="515.8405" y="-291.4" font-family="Times,serif" font-size="14.00" fill="#000000">process</text>
</g>
<!-- GO:0050794&#45;&gt;GO:0050789 -->
<g id="edge3" class="edge">
<title>GO:0050794&#45;&gt;GO:0050789</title>
<path fill="none" stroke="#000000" d="M435.9078,-247.3513C447.2557,-256.5861 459.9172,-266.89 471.7566,-276.5249"/>
<polygon fill="#000000" stroke="#000000" points="469.8301,-279.4696 479.7955,-283.0669 474.2485,-274.0402 469.8301,-279.4696"/>
</g>
<!-- GO:0008150 -->
<g id="node5" class="node">
<title>GO:0008150</title>
<polygon fill="#ffffff" stroke="#000000" points="350.3111,-419.0019 229.3699,-419.0019 229.3699,-377.7981 350.3111,-377.7981 350.3111,-419.0019"/>
<text text-anchor="middle" x="289.8405" y="-402.6" font-family="Times,serif" font-size="14.00" fill="#000000">GO:0008150</text>
<text text-anchor="middle" x="289.8405" y="-385.8" font-family="Times,serif" font-size="14.00" fill="#000000">biological_process</text>
</g>
<!-- GO:0065007&#45;&gt;GO:0008150 -->
<g id="edge4" class="edge">
<title>GO:0065007&#45;&gt;GO:0008150</title>
<path fill="none" stroke="#000000" d="M341.3796,-333.2182C332.6929,-344.2043 321.9029,-357.8506 312.4437,-369.8137"/>
<polygon fill="#000000" stroke="#000000" points="309.6067,-367.7585 306.1498,-377.7735 315.0977,-372.1002 309.6067,-367.7585"/>
</g>
<!-- GO:0050789&#45;&gt;GO:0008150 -->
<g id="edge5" class="edge">
<title>GO:0050789&#45;&gt;GO:0008150</title>
<path fill="none" stroke="#000000" d="M441.8396,-340.5596C413.3963,-351.3832 381.1954,-363.6366 353.777,-374.0702"/>
<polygon fill="#000000" stroke="#000000" points="352.3936,-370.8517 344.2922,-377.6794 354.8832,-377.394 352.3936,-370.8517"/>
</g>
<!-- GO:0044699 -->
<g id="node6" class="node">
<title>GO:0044699</title>
<polygon fill="#00ff00" stroke="#000000" points="151.5218,-333.0019 .1592,-333.0019 .1592,-291.7981 151.5218,-291.7981 151.5218,-333.0019"/>
<text text-anchor="middle" x="75.8405" y="-316.6" font-family="Times,serif" font-size="14.00" fill="#000000">GO:0044699</text>
<text text-anchor="middle" x="75.8405" y="-299.8" font-family="Times,serif" font-size="14.00" fill="#000000">single&#45;organism process</text>
</g>
<!-- GO:0044699&#45;&gt;GO:0008150 -->
<g id="edge6" class="edge">
<title>GO:0044699&#45;&gt;GO:0008150</title>
<path fill="none" stroke="#000000" d="M127.3712,-333.1086C157.9888,-345.4129 196.982,-361.083 229.0931,-373.9875"/>
<polygon fill="#000000" stroke="#000000" points="227.8026,-377.2409 238.3865,-377.7222 230.4128,-370.7457 227.8026,-377.2409"/>
</g>
<!-- GO:0007186 -->
<g id="node7" class="node">
<title>GO:0007186</title>
<polygon fill="#ffa500" stroke="#000000" points="459.0842,-75.3003 340.5968,-75.3003 340.5968,.1003 459.0842,.1003 459.0842,-75.3003"/>
<text text-anchor="middle" x="399.8405" y="-58.6" font-family="Times,serif" font-size="14.00" fill="#000000">GO:0007186</text>
<text text-anchor="middle" x="399.8405" y="-41.8" font-family="Times,serif" font-size="14.00" fill="#000000">G&#45;protein coupled</text>
<text text-anchor="middle" x="399.8405" y="-25" font-family="Times,serif" font-size="14.00" fill="#000000">receptor signaling</text>
<text text-anchor="middle" x="399.8405" y="-8.2" font-family="Times,serif" font-size="14.00" fill="#000000">pathway</text>
</g>
<!-- GO:0007186&#45;&gt;GO:0007165 -->
<g id="edge7" class="edge">
<title>GO:0007186&#45;&gt;GO:0007165</title>
<path fill="none" stroke="#000000" d="M399.8405,-75.4522C399.8405,-83.9406 399.8405,-92.8492 399.8405,-101.0197"/>
<polygon fill="#000000" stroke="#000000" points="396.3406,-101.2379 399.8405,-111.2379 403.3406,-101.2379 396.3406,-101.2379"/>
</g>
<!-- GO:0009987 -->
<g id="node8" class="node">
<title>GO:0009987</title>
<polygon fill="#00ff00" stroke="#000000" points="273.7967,-333.0019 169.8843,-333.0019 169.8843,-291.7981 273.7967,-291.7981 273.7967,-333.0019"/>
<text text-anchor="middle" x="221.8405" y="-316.6" font-family="Times,serif" font-size="14.00" fill="#000000">GO:0009987</text>
<text text-anchor="middle" x="221.8405" y="-299.8" font-family="Times,serif" font-size="14.00" fill="#000000">cellular process</text>
</g>
<!-- GO:0009987&#45;&gt;GO:0008150 -->
<g id="edge8" class="edge">
<title>GO:0009987&#45;&gt;GO:0008150</title>
<path fill="none" stroke="#000000" d="M238.3014,-333.2182C246.9881,-344.2043 257.7781,-357.8506 267.2373,-369.8137"/>
<polygon fill="#000000" stroke="#000000" points="264.5833,-372.1002 273.5312,-377.7735 270.0743,-367.7585 264.5833,-372.1002"/>
</g>
<!-- GO:0044763 -->
<g id="node9" class="node">
<title>GO:0044763</title>
<polygon fill="#00ffff" stroke="#000000" points="254.519,-247.4014 103.162,-247.4014 103.162,-188.5986 254.519,-188.5986 254.519,-247.4014"/>
<text text-anchor="middle" x="178.8405" y="-230.6" font-family="Times,serif" font-size="14.00" fill="#000000">GO:0044763</text>
<text text-anchor="middle" x="178.8405" y="-213.8" font-family="Times,serif" font-size="14.00" fill="#000000">single&#45;organism cellular</text>
<text text-anchor="middle" x="178.8405" y="-197" font-family="Times,serif" font-size="14.00" fill="#000000">process</text>
</g>
<!-- GO:0044763&#45;&gt;GO:0044699 -->
<g id="edge10" class="edge">
<title>GO:0044763&#45;&gt;GO:0044699</title>
<path fill="none" stroke="#000000" d="M146.8153,-247.3513C133.8067,-259.2737 118.8539,-272.978 106.0379,-284.724"/>
<polygon fill="#000000" stroke="#000000" points="103.378,-282.4141 98.3707,-291.751 108.1077,-287.5746 103.378,-282.4141"/>
</g>
<!-- GO:0044763&#45;&gt;GO:0009987 -->
<g id="edge9" class="edge">
<title>GO:0044763&#45;&gt;GO:0009987</title>
<path fill="none" stroke="#000000" d="M192.2103,-247.3513C197.2824,-258.4864 203.0625,-271.1758 208.1627,-282.3724"/>
<polygon fill="#000000" stroke="#000000" points="205.1042,-284.1015 212.4347,-291.751 211.4745,-281.1997 205.1042,-284.1015"/>
</g>
</g>
</svg>
