<?xml version="1.0" encoding="UTF-8" standalone="no"?>
<!DOCTYPE svg PUBLIC "-//W3C//DTD SVG 1.1//EN"
 "http://www.w3.org/Graphics/SVG/1.1/DTD/svg11.dtd">
<!-- Generated by graphviz version 2.40.1 (20161225.0304)
 -->
<!-- Title: G Pages: 1 -->
<svg width="330pt" height="377pt"
 viewBox="0.00 0.00 330.26 376.80" xmlns="http://www.w3.org/2000/svg" xmlns:xlink="http://www.w3.org/1999/xlink">
<g id="graph0" class="graph" transform="scale(1 1) rotate(0) translate(4 372.8)">
<title>G</title>
<polygon fill="#ffffff" stroke="transparent" points="-4,4 -4,-372.8 326.2606,-372.8 326.2606,4 -4,4"/>
<!-- GO:0003676 -->
<g id="node1" class="node">
<title>GO:0003676</title>
<polygon fill="#00ff00" stroke="#000000" points="228.2822,-119.0019 99.2284,-119.0019 99.2284,-77.7981 228.2822,-77.7981 228.2822,-119.0019"/>
<text text-anchor="middle" x="163.7553" y="-102.6" font-family="Times,serif" font-size="14.00" fill="#000000">GO:0003676</text>
<text text-anchor="middle" x="163.7553" y="-85.8" font-family="Times,serif" font-size="14.00" fill="#000000">nucleic acid binding</text>
</g>
<!-- GO:0097159 -->
<g id="node2" class="node">
<title>GO:0097159</title>
<polygon fill="#ffa500" stroke="#000000" points="157.2667,-213.8014 .2439,-213.8014 .2439,-154.9986 157.2667,-154.9986 157.2667,-213.8014"/>
<text text-anchor="middle" x="78.7553" y="-197" font-family="Times,serif" font-size="14.00" fill="#000000">GO:0097159</text>
<text text-anchor="middle" x="78.7553" y="-180.2" font-family="Times,serif" font-size="14.00" fill="#000000">organic cyclic compound</text>
<text text-anchor="middle" x="78.7553" y="-163.4" font-family="Times,serif" font-size="14.00" fill="#000000">binding</text>
</g>
<!-- GO:0003676&#45;&gt;GO:0097159 -->
<g id="edge1" class="edge">
<title>GO:0003676&#45;&gt;GO:0097159</title>
<path fill="none" stroke="#000000" d="M143.1792,-119.2182C134.7222,-127.7747 124.6703,-137.9448 115.0517,-147.6766"/>
<polygon fill="#000000" stroke="#000000" points="112.3546,-145.4264 107.8143,-154.9991 117.3332,-150.3472 112.3546,-145.4264"/>
</g>
<!-- GO:1901363 -->
<g id="node3" class="node">
<title>GO:1901363</title>
<polygon fill="#ffa500" stroke="#000000" points="322.2659,-213.8014 175.2447,-213.8014 175.2447,-154.9986 322.2659,-154.9986 322.2659,-213.8014"/>
<text text-anchor="middle" x="248.7553" y="-197" font-family="Times,serif" font-size="14.00" fill="#000000">GO:1901363</text>
<text text-anchor="middle" x="248.7553" y="-180.2" font-family="Times,serif" font-size="14.00" fill="#000000">heterocyclic compound</text>
<text text-anchor="middle" x="248.7553" y="-163.4" font-family="Times,serif" font-size="14.00" fill="#000000">binding</text>
</g>
<!-- GO:0003676&#45;&gt;GO:1901363 -->
<g id="edge2" class="edge">
<title>GO:0003676&#45;&gt;GO:1901363</title>
<path fill="none" stroke="#000000" d="M184.3314,-119.2182C192.7884,-127.7747 202.8403,-137.9448 212.4589,-147.6766"/>
<polygon fill="#000000" stroke="#000000" points="210.1774,-150.3472 219.6963,-154.9991 215.156,-145.4264 210.1774,-150.3472"/>
</g>
<!-- GO:0005488 -->
<g id="node4" class="node">
<title>GO:0005488</title>
<polygon fill="#ffffff" stroke="#000000" points="208.3592,-291.0019 119.1514,-291.0019 119.1514,-249.7981 208.3592,-249.7981 208.3592,-291.0019"/>
<text text-anchor="middle" x="163.7553" y="-274.6" font-family="Times,serif" font-size="14.00" fill="#000000">GO:0005488</text>
<text text-anchor="middle" x="163.7553" y="-257.8" font-family="Times,serif" font-size="14.00" fill="#000000">binding</text>
</g>
<!-- GO:0097159&#45;&gt;GO:0005488 -->
<g id="edge3" class="edge">
<title>GO:0097159&#45;&gt;GO:0005488</title>
<path fill="none" stroke="#000000" d="M108.0075,-213.9963C117.0867,-223.1824 127.0622,-233.2752 136.034,-242.3526"/>
<polygon fill="#000000" stroke="#000000" points="133.7736,-245.0446 143.2926,-249.6966 138.7523,-240.1239 133.7736,-245.0446"/>
</g>
<!-- GO:1901363&#45;&gt;GO:0005488 -->
<g id="edge4" class="edge">
<title>GO:1901363&#45;&gt;GO:0005488</title>
<path fill="none" stroke="#000000" d="M219.5031,-213.9963C210.4239,-223.1824 200.4484,-233.2752 191.4766,-242.3526"/>
<polygon fill="#000000" stroke="#000000" points="188.7583,-240.1239 184.218,-249.6966 193.737,-245.0446 188.7583,-240.1239"/>
</g>
<!-- GO:0003674 -->
<g id="node5" class="node">
<title>GO:0003674</title>
<polygon fill="#ffffff" stroke="#000000" points="226.3884,-368.6019 101.1222,-368.6019 101.1222,-327.3981 226.3884,-327.3981 226.3884,-368.6019"/>
<text text-anchor="middle" x="163.7553" y="-352.2" font-family="Times,serif" font-size="14.00" fill="#000000">GO:0003674</text>
<text text-anchor="middle" x="163.7553" y="-335.4" font-family="Times,serif" font-size="14.00" fill="#000000">molecular_function</text>
</g>
<!-- GO:0005488&#45;&gt;GO:0003674 -->
<g id="edge5" class="edge">
<title>GO:0005488&#45;&gt;GO:0003674</title>
<path fill="none" stroke="#000000" d="M163.7553,-291.1954C163.7553,-299.1109 163.7553,-308.3109 163.7553,-316.9722"/>
<polygon fill="#000000" stroke="#000000" points="160.2554,-317.1472 163.7553,-327.1472 167.2554,-317.1473 160.2554,-317.1472"/>
</g>
<!-- GO:0003723 -->
<g id="node6" class="node">
<title>GO:0003723</title>
<polygon fill="#00ffff" stroke="#000000" points="209.5865,-41.4019 117.9241,-41.4019 117.9241,-.1981 209.5865,-.1981 209.5865,-41.4019"/>
<text text-anchor="middle" x="163.7553" y="-25" font-family="Times,serif" font-size="14.00" fill="#000000">GO:0003723</text>
<text text-anchor="middle" x="163.7553" y="-8.2" font-family="Times,serif" font-size="14.00" fill="#000000">RNA binding</text>
</g>
<!-- GO:0003723&#45;&gt;GO:0003676 -->
<g id="edge6" class="edge">
<title>GO:0003723&#45;&gt;GO:0003676</title>
<path fill="none" stroke="#000000" d="M163.7553,-41.5954C163.7553,-49.5109 163.7553,-58.7109 163.7553,-67.3722"/>
<polygon fill="#000000" stroke="#000000" points="160.2554,-67.5472 163.7553,-77.5472 167.2554,-67.5473 160.2554,-67.5472"/>
</g>
</g>
</svg>
