<?xml version="1.0" encoding="UTF-8" standalone="no"?>
<!DOCTYPE svg PUBLIC "-//W3C//DTD SVG 1.1//EN"
 "http://www.w3.org/Graphics/SVG/1.1/DTD/svg11.dtd">
<!-- Generated by graphviz version 2.40.1 (20161225.0304)
 -->
<!-- Title: G Pages: 1 -->
<svg width="870pt" height="394pt"
 viewBox="0.00 0.00 869.60 393.60" xmlns="http://www.w3.org/2000/svg" xmlns:xlink="http://www.w3.org/1999/xlink">
<g id="graph0" class="graph" transform="scale(1 1) rotate(0) translate(4 389.6)">
<title>G</title>
<polygon fill="#ffffff" stroke="transparent" points="-4,4 -4,-389.6 865.5993,-389.6 865.5993,4 -4,4"/>
<!-- GO:0044464 -->
<g id="node1" class="node">
<title>GO:0044464</title>
<polygon fill="#ff0000" stroke="#000000" points="411.2228,-307.8019 322.015,-307.8019 322.015,-266.5981 411.2228,-266.5981 411.2228,-307.8019"/>
<text text-anchor="middle" x="366.6189" y="-291.4" font-family="Times,serif" font-size="14.00" fill="#000000">GO:0044464</text>
<text text-anchor="middle" x="366.6189" y="-274.6" font-family="Times,serif" font-size="14.00" fill="#000000">cell part</text>
</g>
<!-- GO:0005575 -->
<g id="node2" class="node">
<title>GO:0005575</title>
<polygon fill="#ffffff" stroke="#000000" points="551.3056,-385.4019 423.9322,-385.4019 423.9322,-344.1981 551.3056,-344.1981 551.3056,-385.4019"/>
<text text-anchor="middle" x="487.6189" y="-369" font-family="Times,serif" font-size="14.00" fill="#000000">GO:0005575</text>
<text text-anchor="middle" x="487.6189" y="-352.2" font-family="Times,serif" font-size="14.00" fill="#000000">cellular_component</text>
</g>
<!-- GO:0044464&#45;&gt;GO:0005575 -->
<g id="edge1" class="edge">
<title>GO:0044464&#45;&gt;GO:0005575</title>
<path fill="none" stroke="#000000" d="M399.0447,-307.9954C413.5572,-317.3026 430.839,-328.3858 446.2682,-338.2809"/>
<polygon fill="#000000" stroke="#000000" points="444.7965,-341.4949 455.1036,-343.9472 448.5754,-335.6026 444.7965,-341.4949"/>
</g>
<!-- GO:0043229 -->
<g id="node3" class="node">
<title>GO:0043229</title>
<polygon fill="#00ffff" stroke="#000000" points="715.3373,-144.2019 575.9005,-144.2019 575.9005,-102.9981 715.3373,-102.9981 715.3373,-144.2019"/>
<text text-anchor="middle" x="645.6189" y="-127.8" font-family="Times,serif" font-size="14.00" fill="#000000">GO:0043229</text>
<text text-anchor="middle" x="645.6189" y="-111" font-family="Times,serif" font-size="14.00" fill="#000000">intracellular organelle</text>
</g>
<!-- GO:0044424 -->
<g id="node4" class="node">
<title>GO:0044424</title>
<polygon fill="#ff0000" stroke="#000000" points="407.0173,-230.2019 298.2205,-230.2019 298.2205,-188.9981 407.0173,-188.9981 407.0173,-230.2019"/>
<text text-anchor="middle" x="352.6189" y="-213.8" font-family="Times,serif" font-size="14.00" fill="#000000">GO:0044424</text>
<text text-anchor="middle" x="352.6189" y="-197" font-family="Times,serif" font-size="14.00" fill="#000000">intracellular part</text>
</g>
<!-- GO:0043229&#45;&gt;GO:0044424 -->
<g id="edge2" class="edge">
<title>GO:0043229&#45;&gt;GO:0044424</title>
<path fill="none" stroke="#000000" d="M593.0397,-144.2315C584.5949,-147.2704 575.9071,-150.2363 567.6189,-152.8 503.7711,-172.5491 486.0784,-171.1497 421.6189,-188.8 420.1482,-189.2027 418.6611,-189.6142 417.1626,-190.0328"/>
<polygon fill="#000000" stroke="#000000" points="415.8186,-186.7762 407.1579,-192.879 417.734,-193.509 415.8186,-186.7762"/>
</g>
<!-- GO:0043226 -->
<g id="node5" class="node">
<title>GO:0043226</title>
<polygon fill="#00ff00" stroke="#000000" points="690.2228,-230.2019 601.015,-230.2019 601.015,-188.9981 690.2228,-188.9981 690.2228,-230.2019"/>
<text text-anchor="middle" x="645.6189" y="-213.8" font-family="Times,serif" font-size="14.00" fill="#000000">GO:0043226</text>
<text text-anchor="middle" x="645.6189" y="-197" font-family="Times,serif" font-size="14.00" fill="#000000">organelle</text>
</g>
<!-- GO:0043229&#45;&gt;GO:0043226 -->
<g id="edge3" class="edge">
<title>GO:0043229&#45;&gt;GO:0043226</title>
<path fill="none" stroke="#000000" d="M645.6189,-144.4182C645.6189,-154.7705 645.6189,-167.4848 645.6189,-178.9271"/>
<polygon fill="#000000" stroke="#000000" points="642.119,-178.9735 645.6189,-188.9735 649.119,-178.9735 642.119,-178.9735"/>
</g>
<!-- GO:0044424&#45;&gt;GO:0044464 -->
<g id="edge4" class="edge">
<title>GO:0044424&#45;&gt;GO:0044464</title>
<path fill="none" stroke="#000000" d="M356.3706,-230.3954C357.8144,-238.3978 359.495,-247.7133 361.0726,-256.4575"/>
<polygon fill="#000000" stroke="#000000" points="357.6369,-257.1275 362.8568,-266.3472 364.5257,-255.8847 357.6369,-257.1275"/>
</g>
<!-- GO:0043226&#45;&gt;GO:0005575 -->
<g id="edge5" class="edge">
<title>GO:0043226&#45;&gt;GO:0005575</title>
<path fill="none" stroke="#000000" d="M600.9719,-221.6861C575.9341,-230.4744 545.778,-244.7008 525.6189,-266.4 508.1591,-285.1937 498.4292,-312.8819 493.1974,-334.1038"/>
<polygon fill="#000000" stroke="#000000" points="489.7661,-333.4096 490.9763,-343.9351 496.594,-334.9523 489.7661,-333.4096"/>
</g>
<!-- GO:0043227 -->
<g id="node6" class="node">
<title>GO:0043227</title>
<polygon fill="#00ffff" stroke="#000000" points="861.5797,-153.0014 733.6581,-153.0014 733.6581,-94.1986 861.5797,-94.1986 861.5797,-153.0014"/>
<text text-anchor="middle" x="797.6189" y="-136.2" font-family="Times,serif" font-size="14.00" fill="#000000">GO:0043227</text>
<text text-anchor="middle" x="797.6189" y="-119.4" font-family="Times,serif" font-size="14.00" fill="#000000">membrane&#45;bounded</text>
<text text-anchor="middle" x="797.6189" y="-102.6" font-family="Times,serif" font-size="14.00" fill="#000000">organelle</text>
</g>
<!-- GO:0043227&#45;&gt;GO:0043226 -->
<g id="edge6" class="edge">
<title>GO:0043227&#45;&gt;GO:0043226</title>
<path fill="none" stroke="#000000" d="M745.7343,-152.9558C728.011,-162.9834 708.3359,-174.1154 691.1513,-183.8383"/>
<polygon fill="#000000" stroke="#000000" points="689.3953,-180.8103 682.4154,-188.7809 692.8424,-186.9028 689.3953,-180.8103"/>
</g>
<!-- GO:0005737 -->
<g id="node7" class="node">
<title>GO:0005737</title>
<polygon fill="#ffff00" stroke="#000000" points="274.2228,-144.2019 185.015,-144.2019 185.015,-102.9981 274.2228,-102.9981 274.2228,-144.2019"/>
<text text-anchor="middle" x="229.6189" y="-127.8" font-family="Times,serif" font-size="14.00" fill="#000000">GO:0005737</text>
<text text-anchor="middle" x="229.6189" y="-111" font-family="Times,serif" font-size="14.00" fill="#000000">cytoplasm</text>
</g>
<!-- GO:0005737&#45;&gt;GO:0044424 -->
<g id="edge7" class="edge">
<title>GO:0005737&#45;&gt;GO:0044424</title>
<path fill="none" stroke="#000000" d="M259.3938,-144.4182C276.0129,-156.0381 296.8884,-170.634 314.6699,-183.0665"/>
<polygon fill="#000000" stroke="#000000" points="312.9172,-186.1117 323.1182,-188.9735 316.9283,-180.3749 312.9172,-186.1117"/>
</g>
<!-- GO:0016020 -->
<g id="node8" class="node">
<title>GO:0016020</title>
<polygon fill="#00ffff" stroke="#000000" points="624.2228,-307.8019 535.015,-307.8019 535.015,-266.5981 624.2228,-266.5981 624.2228,-307.8019"/>
<text text-anchor="middle" x="579.6189" y="-291.4" font-family="Times,serif" font-size="14.00" fill="#000000">GO:0016020</text>
<text text-anchor="middle" x="579.6189" y="-274.6" font-family="Times,serif" font-size="14.00" fill="#000000">membrane</text>
</g>
<!-- GO:0016020&#45;&gt;GO:0005575 -->
<g id="edge8" class="edge">
<title>GO:0016020&#45;&gt;GO:0005575</title>
<path fill="none" stroke="#000000" d="M554.9646,-307.9954C544.2396,-317.0416 531.5255,-327.7657 520.0491,-337.4458"/>
<polygon fill="#000000" stroke="#000000" points="517.7286,-334.8243 512.3413,-343.9472 522.2419,-340.1751 517.7286,-334.8243"/>
</g>
<!-- GO:0030529 -->
<g id="node9" class="node">
<title>GO:0030529</title>
<polygon fill="#ff00ff" stroke="#000000" points="167.3569,-153.0014 -.1191,-153.0014 -.1191,-94.1986 167.3569,-94.1986 167.3569,-153.0014"/>
<text text-anchor="middle" x="83.6189" y="-136.2" font-family="Times,serif" font-size="14.00" fill="#000000">GO:0030529</text>
<text text-anchor="middle" x="83.6189" y="-119.4" font-family="Times,serif" font-size="14.00" fill="#000000">intracellular</text>
<text text-anchor="middle" x="83.6189" y="-102.6" font-family="Times,serif" font-size="14.00" fill="#000000">ribonucleoprotein complex</text>
</g>
<!-- GO:0030529&#45;&gt;GO:0044424 -->
<g id="edge9" class="edge">
<title>GO:0030529&#45;&gt;GO:0044424</title>
<path fill="none" stroke="#000000" d="M167.2576,-150.3395C206.1669,-162.7789 251.7359,-177.3474 287.9548,-188.9267"/>
<polygon fill="#000000" stroke="#000000" points="287.3183,-192.3977 297.9092,-192.1092 289.45,-185.7301 287.3183,-192.3977"/>
</g>
<!-- GO:1990904 -->
<g id="node10" class="node">
<title>GO:1990904</title>
<polygon fill="#ffffff" stroke="#000000" points="227.3569,-230.2019 59.8809,-230.2019 59.8809,-188.9981 227.3569,-188.9981 227.3569,-230.2019"/>
<text text-anchor="middle" x="143.6189" y="-213.8" font-family="Times,serif" font-size="14.00" fill="#000000">GO:1990904</text>
<text text-anchor="middle" x="143.6189" y="-197" font-family="Times,serif" font-size="14.00" fill="#000000">ribonucleoprotein complex</text>
</g>
<!-- GO:0030529&#45;&gt;GO:1990904 -->
<g id="edge10" class="edge">
<title>GO:0030529&#45;&gt;GO:1990904</title>
<path fill="none" stroke="#000000" d="M104.2675,-153.1963C110.42,-162.0149 117.1556,-171.6692 123.2877,-180.4586"/>
<polygon fill="#000000" stroke="#000000" points="120.5823,-182.6979 129.1746,-188.8966 126.3232,-178.6926 120.5823,-182.6979"/>
</g>
<!-- GO:0032991 -->
<g id="node11" class="node">
<title>GO:0032991</title>
<polygon fill="#00ff00" stroke="#000000" points="270.7862,-307.8019 112.4516,-307.8019 112.4516,-266.5981 270.7862,-266.5981 270.7862,-307.8019"/>
<text text-anchor="middle" x="191.6189" y="-291.4" font-family="Times,serif" font-size="14.00" fill="#000000">GO:0032991</text>
<text text-anchor="middle" x="191.6189" y="-274.6" font-family="Times,serif" font-size="14.00" fill="#000000">macromolecular complex</text>
</g>
<!-- GO:1990904&#45;&gt;GO:0032991 -->
<g id="edge11" class="edge">
<title>GO:1990904&#45;&gt;GO:0032991</title>
<path fill="none" stroke="#000000" d="M156.482,-230.3954C161.6472,-238.7458 167.6967,-248.5258 173.3063,-257.5947"/>
<polygon fill="#000000" stroke="#000000" points="170.4831,-259.6839 178.7203,-266.3472 176.4363,-256.0015 170.4831,-259.6839"/>
</g>
<!-- GO:0032991&#45;&gt;GO:0005575 -->
<g id="edge12" class="edge">
<title>GO:0032991&#45;&gt;GO:0005575</title>
<path fill="none" stroke="#000000" d="M270.5526,-307.8934C315.134,-319.581 370.4933,-334.0941 414.147,-345.5385"/>
<polygon fill="#000000" stroke="#000000" points="413.2803,-348.9295 423.841,-348.0799 415.0555,-342.1583 413.2803,-348.9295"/>
</g>
<!-- GO:0043231 -->
<g id="node12" class="node">
<title>GO:0043231</title>
<polygon fill="#00ffff" stroke="#000000" points="796.9977,-58.6014 646.2401,-58.6014 646.2401,.2014 796.9977,.2014 796.9977,-58.6014"/>
<text text-anchor="middle" x="721.6189" y="-41.8" font-family="Times,serif" font-size="14.00" fill="#000000">GO:0043231</text>
<text text-anchor="middle" x="721.6189" y="-25" font-family="Times,serif" font-size="14.00" fill="#000000">intracellular membrane&#45;</text>
<text text-anchor="middle" x="721.6189" y="-8.2" font-family="Times,serif" font-size="14.00" fill="#000000">bounded organelle</text>
</g>
<!-- GO:0043231&#45;&gt;GO:0043229 -->
<g id="edge13" class="edge">
<title>GO:0043231&#45;&gt;GO:0043229</title>
<path fill="none" stroke="#000000" d="M697.9886,-58.5513C688.6617,-70.1363 677.9803,-83.4037 668.7071,-94.922"/>
<polygon fill="#000000" stroke="#000000" points="665.7879,-92.9667 662.2431,-102.951 671.2405,-97.3565 665.7879,-92.9667"/>
</g>
<!-- GO:0043231&#45;&gt;GO:0043227 -->
<g id="edge14" class="edge">
<title>GO:0043231&#45;&gt;GO:0043227</title>
<path fill="none" stroke="#000000" d="M745.2492,-58.5513C752.3266,-67.3422 760.1839,-77.1018 767.614,-86.3308"/>
<polygon fill="#000000" stroke="#000000" points="765.0059,-88.6724 774.0032,-94.2669 770.4584,-84.2826 765.0059,-88.6724"/>
</g>
<!-- GO:0044446 -->
<g id="node13" class="node">
<title>GO:0044446</title>
<polygon fill="#ffff00" stroke="#000000" points="558.3373,-153.0014 418.9005,-153.0014 418.9005,-94.1986 558.3373,-94.1986 558.3373,-153.0014"/>
<text text-anchor="middle" x="488.6189" y="-136.2" font-family="Times,serif" font-size="14.00" fill="#000000">GO:0044446</text>
<text text-anchor="middle" x="488.6189" y="-119.4" font-family="Times,serif" font-size="14.00" fill="#000000">intracellular organelle</text>
<text text-anchor="middle" x="488.6189" y="-102.6" font-family="Times,serif" font-size="14.00" fill="#000000">part</text>
</g>
<!-- GO:0044446&#45;&gt;GO:0044424 -->
<g id="edge15" class="edge">
<title>GO:0044446&#45;&gt;GO:0044424</title>
<path fill="none" stroke="#000000" d="M442.1958,-152.9558C426.6291,-162.7994 409.3795,-173.7073 394.207,-183.3017"/>
<polygon fill="#000000" stroke="#000000" points="392.1234,-180.4781 385.5421,-188.7809 395.8646,-186.3945 392.1234,-180.4781"/>
</g>
<!-- GO:0044422 -->
<g id="node14" class="node">
<title>GO:0044422</title>
<polygon fill="#ffffff" stroke="#000000" points="524.471,-230.2019 430.7668,-230.2019 430.7668,-188.9981 524.471,-188.9981 524.471,-230.2019"/>
<text text-anchor="middle" x="477.6189" y="-213.8" font-family="Times,serif" font-size="14.00" fill="#000000">GO:0044422</text>
<text text-anchor="middle" x="477.6189" y="-197" font-family="Times,serif" font-size="14.00" fill="#000000">organelle part</text>
</g>
<!-- GO:0044446&#45;&gt;GO:0044422 -->
<g id="edge16" class="edge">
<title>GO:0044446&#45;&gt;GO:0044422</title>
<path fill="none" stroke="#000000" d="M484.8333,-153.1963C483.7759,-161.4638 482.6244,-170.4657 481.5583,-178.8008"/>
<polygon fill="#000000" stroke="#000000" points="478.0641,-178.5333 480.267,-188.8966 485.0076,-179.4214 478.0641,-178.5333"/>
</g>
<!-- GO:0044422&#45;&gt;GO:0005575 -->
<g id="edge17" class="edge">
<title>GO:0044422&#45;&gt;GO:0005575</title>
<path fill="none" stroke="#000000" d="M478.9468,-230.2094C480.6577,-256.7627 483.6471,-303.1577 485.6299,-333.9304"/>
<polygon fill="#000000" stroke="#000000" points="482.1496,-334.3512 486.2855,-344.1054 489.1352,-333.901 482.1496,-334.3512"/>
</g>
<!-- GO:0044444 -->
<g id="node15" class="node">
<title>GO:0044444</title>
<polygon fill="#00ffff" stroke="#000000" points="401.0355,-144.2019 292.2023,-144.2019 292.2023,-102.9981 401.0355,-102.9981 401.0355,-144.2019"/>
<text text-anchor="middle" x="346.6189" y="-127.8" font-family="Times,serif" font-size="14.00" fill="#000000">GO:0044444</text>
<text text-anchor="middle" x="346.6189" y="-111" font-family="Times,serif" font-size="14.00" fill="#000000">cytoplasmic part</text>
</g>
<!-- GO:0044444&#45;&gt;GO:0044424 -->
<g id="edge18" class="edge">
<title>GO:0044444&#45;&gt;GO:0044424</title>
<path fill="none" stroke="#000000" d="M348.0713,-144.4182C348.7936,-154.7705 349.6806,-167.4848 350.4789,-178.9271"/>
<polygon fill="#000000" stroke="#000000" points="346.9923,-179.2414 351.1798,-188.9735 353.9753,-178.7541 346.9923,-179.2414"/>
</g>
<!-- GO:0044428 -->
<g id="node16" class="node">
<title>GO:0044428</title>
<polygon fill="#00ffff" stroke="#000000" points="533.2228,-49.8019 444.015,-49.8019 444.015,-8.5981 533.2228,-8.5981 533.2228,-49.8019"/>
<text text-anchor="middle" x="488.6189" y="-33.4" font-family="Times,serif" font-size="14.00" fill="#000000">GO:0044428</text>
<text text-anchor="middle" x="488.6189" y="-16.6" font-family="Times,serif" font-size="14.00" fill="#000000">nuclear part</text>
</g>
<!-- GO:0044428&#45;&gt;GO:0044446 -->
<g id="edge19" class="edge">
<title>GO:0044428&#45;&gt;GO:0044446</title>
<path fill="none" stroke="#000000" d="M488.6189,-50.1504C488.6189,-60.1492 488.6189,-72.4525 488.6189,-84.1106"/>
<polygon fill="#000000" stroke="#000000" points="485.119,-84.1155 488.6189,-94.1155 492.119,-84.1156 485.119,-84.1155"/>
</g>
<!-- GO:0044425 -->
<g id="node17" class="node">
<title>GO:0044425</title>
<polygon fill="#ff00ff" stroke="#000000" points="742.9709,-307.8019 642.2669,-307.8019 642.2669,-266.5981 742.9709,-266.5981 742.9709,-307.8019"/>
<text text-anchor="middle" x="692.6189" y="-291.4" font-family="Times,serif" font-size="14.00" fill="#000000">GO:0044425</text>
<text text-anchor="middle" x="692.6189" y="-274.6" font-family="Times,serif" font-size="14.00" fill="#000000">membrane part</text>
</g>
<!-- GO:0044425&#45;&gt;GO:0005575 -->
<g id="edge20" class="edge">
<title>GO:0044425&#45;&gt;GO:0005575</title>
<path fill="none" stroke="#000000" d="M642.2077,-306.2825C614.9408,-316.604 580.9758,-329.461 551.833,-340.4926"/>
<polygon fill="#000000" stroke="#000000" points="550.2646,-337.3439 542.1513,-344.1575 552.7428,-343.8905 550.2646,-337.3439"/>
</g>
</g>
</svg>
