<?xml version="1.0" encoding="UTF-8" standalone="no"?>
<!DOCTYPE svg PUBLIC "-//W3C//DTD SVG 1.1//EN"
 "http://www.w3.org/Graphics/SVG/1.1/DTD/svg11.dtd">
<!-- Generated by graphviz version 2.40.1 (20161225.0304)
 -->
<!-- Title: G Pages: 1 -->
<svg width="858pt" height="788pt"
 viewBox="0.00 0.00 858.09 788.00" xmlns="http://www.w3.org/2000/svg" xmlns:xlink="http://www.w3.org/1999/xlink">
<g id="graph0" class="graph" transform="scale(1 1) rotate(0) translate(4 784)">
<title>G</title>
<polygon fill="#ffffff" stroke="transparent" points="-4,4 -4,-784 854.0881,-784 854.0881,4 -4,4"/>
<!-- GO:0006807 -->
<g id="node1" class="node">
<title>GO:0006807</title>
<polygon fill="#ffff00" stroke="#000000" points="474.1523,-608.2014 348.6286,-608.2014 348.6286,-549.3986 474.1523,-549.3986 474.1523,-608.2014"/>
<text text-anchor="middle" x="411.3905" y="-591.4" font-family="Times,serif" font-size="14.00" fill="#000000">GO:0006807</text>
<text text-anchor="middle" x="411.3905" y="-574.6" font-family="Times,serif" font-size="14.00" fill="#000000">nitrogen compound</text>
<text text-anchor="middle" x="411.3905" y="-557.8" font-family="Times,serif" font-size="14.00" fill="#000000">metabolic process</text>
</g>
<!-- GO:0008152 -->
<g id="node2" class="node">
<title>GO:0008152</title>
<polygon fill="#ffff00" stroke="#000000" points="463.5761,-693.8019 347.2049,-693.8019 347.2049,-652.5981 463.5761,-652.5981 463.5761,-693.8019"/>
<text text-anchor="middle" x="405.3905" y="-677.4" font-family="Times,serif" font-size="14.00" fill="#000000">GO:0008152</text>
<text text-anchor="middle" x="405.3905" y="-660.6" font-family="Times,serif" font-size="14.00" fill="#000000">metabolic process</text>
</g>
<!-- GO:0006807&#45;&gt;GO:0008152 -->
<g id="edge1" class="edge">
<title>GO:0006807&#45;&gt;GO:0008152</title>
<path fill="none" stroke="#000000" d="M409.5249,-608.1513C408.8315,-619.0614 408.0432,-631.4637 407.3423,-642.492"/>
<polygon fill="#000000" stroke="#000000" points="403.8444,-642.3491 406.7029,-652.551 410.8303,-642.7932 403.8444,-642.3491"/>
</g>
<!-- GO:0008150 -->
<g id="node3" class="node">
<title>GO:0008150</title>
<polygon fill="#ffffff" stroke="#000000" points="465.8611,-779.8019 344.9199,-779.8019 344.9199,-738.5981 465.8611,-738.5981 465.8611,-779.8019"/>
<text text-anchor="middle" x="405.3905" y="-763.4" font-family="Times,serif" font-size="14.00" fill="#000000">GO:0008150</text>
<text text-anchor="middle" x="405.3905" y="-746.6" font-family="Times,serif" font-size="14.00" fill="#000000">biological_process</text>
</g>
<!-- GO:0008152&#45;&gt;GO:0008150 -->
<g id="edge2" class="edge">
<title>GO:0008152&#45;&gt;GO:0008150</title>
<path fill="none" stroke="#000000" d="M405.3905,-694.0182C405.3905,-704.3705 405.3905,-717.0848 405.3905,-728.5271"/>
<polygon fill="#000000" stroke="#000000" points="401.8906,-728.5735 405.3905,-738.5735 408.8906,-728.5735 401.8906,-728.5735"/>
</g>
<!-- GO:0050789 -->
<g id="node4" class="node">
<title>GO:0050789</title>
<polygon fill="#00ffff" stroke="#000000" points="328.3049,-702.6014 180.4761,-702.6014 180.4761,-643.7986 328.3049,-643.7986 328.3049,-702.6014"/>
<text text-anchor="middle" x="254.3905" y="-685.8" font-family="Times,serif" font-size="14.00" fill="#000000">GO:0050789</text>
<text text-anchor="middle" x="254.3905" y="-669" font-family="Times,serif" font-size="14.00" fill="#000000">regulation of biological</text>
<text text-anchor="middle" x="254.3905" y="-652.2" font-family="Times,serif" font-size="14.00" fill="#000000">process</text>
</g>
<!-- GO:0050789&#45;&gt;GO:0008150 -->
<g id="edge3" class="edge">
<title>GO:0050789&#45;&gt;GO:0008150</title>
<path fill="none" stroke="#000000" d="M305.9338,-702.5558C323.3789,-712.4914 342.7276,-723.5112 359.6872,-733.1703"/>
<polygon fill="#000000" stroke="#000000" points="358.4144,-736.4732 368.8361,-738.3809 361.8787,-730.3906 358.4144,-736.4732"/>
</g>
<!-- GO:0044260 -->
<g id="node5" class="node">
<title>GO:0044260</title>
<polygon fill="#ffff00" stroke="#000000" points="601.1628,-291.4014 453.6181,-291.4014 453.6181,-232.5986 601.1628,-232.5986 601.1628,-291.4014"/>
<text text-anchor="middle" x="527.3905" y="-274.6" font-family="Times,serif" font-size="14.00" fill="#000000">GO:0044260</text>
<text text-anchor="middle" x="527.3905" y="-257.8" font-family="Times,serif" font-size="14.00" fill="#000000">cellular macromolecule</text>
<text text-anchor="middle" x="527.3905" y="-241" font-family="Times,serif" font-size="14.00" fill="#000000">metabolic process</text>
</g>
<!-- GO:0044237 -->
<g id="node6" class="node">
<title>GO:0044237</title>
<polygon fill="#ffff00" stroke="#000000" points="608.5733,-608.2014 492.2076,-608.2014 492.2076,-549.3986 608.5733,-549.3986 608.5733,-608.2014"/>
<text text-anchor="middle" x="550.3905" y="-591.4" font-family="Times,serif" font-size="14.00" fill="#000000">GO:0044237</text>
<text text-anchor="middle" x="550.3905" y="-574.6" font-family="Times,serif" font-size="14.00" fill="#000000">cellular metabolic</text>
<text text-anchor="middle" x="550.3905" y="-557.8" font-family="Times,serif" font-size="14.00" fill="#000000">process</text>
</g>
<!-- GO:0044260&#45;&gt;GO:0044237 -->
<g id="edge4" class="edge">
<title>GO:0044260&#45;&gt;GO:0044237</title>
<path fill="none" stroke="#000000" d="M601.2246,-280.9513C675.2862,-304.3358 785.3272,-352.0347 835.3905,-438.4 852.1518,-467.3154 857.0127,-488.1143 835.3905,-513.6 805.3624,-548.9935 679.3762,-537.2069 618.7452,-549.8641"/>
<polygon fill="#000000" stroke="#000000" points="617.764,-546.5016 608.9099,-552.3201 619.46,-553.293 617.764,-546.5016"/>
</g>
<!-- GO:0043170 -->
<g id="node7" class="node">
<title>GO:0043170</title>
<polygon fill="#ffffff" stroke="#000000" points="360.8927,-394.2014 199.8883,-394.2014 199.8883,-335.3986 360.8927,-335.3986 360.8927,-394.2014"/>
<text text-anchor="middle" x="280.3905" y="-377.4" font-family="Times,serif" font-size="14.00" fill="#000000">GO:0043170</text>
<text text-anchor="middle" x="280.3905" y="-360.6" font-family="Times,serif" font-size="14.00" fill="#000000">macromolecule metabolic</text>
<text text-anchor="middle" x="280.3905" y="-343.8" font-family="Times,serif" font-size="14.00" fill="#000000">process</text>
</g>
<!-- GO:0044260&#45;&gt;GO:0043170 -->
<g id="edge5" class="edge">
<title>GO:0044260&#45;&gt;GO:0043170</title>
<path fill="none" stroke="#000000" d="M456.1577,-291.247C428.9827,-302.4434 397.7319,-315.3659 369.3905,-327.2 365.9368,-328.6421 362.4091,-330.1184 358.8465,-331.6121"/>
<polygon fill="#000000" stroke="#000000" points="357.2265,-328.4962 349.3613,-335.5948 359.9365,-334.9504 357.2265,-328.4962"/>
</g>
<!-- GO:0044237&#45;&gt;GO:0008152 -->
<g id="edge7" class="edge">
<title>GO:0044237&#45;&gt;GO:0008152</title>
<path fill="none" stroke="#000000" d="M505.3064,-608.1513C486.2159,-620.5799 464.1512,-634.9448 445.6203,-647.009"/>
<polygon fill="#000000" stroke="#000000" points="443.5786,-644.1618 437.1077,-652.551 447.3978,-650.0281 443.5786,-644.1618"/>
</g>
<!-- GO:0009987 -->
<g id="node8" class="node">
<title>GO:0009987</title>
<polygon fill="#ff0000" stroke="#000000" points="602.3467,-693.8019 498.4343,-693.8019 498.4343,-652.5981 602.3467,-652.5981 602.3467,-693.8019"/>
<text text-anchor="middle" x="550.3905" y="-677.4" font-family="Times,serif" font-size="14.00" fill="#000000">GO:0009987</text>
<text text-anchor="middle" x="550.3905" y="-660.6" font-family="Times,serif" font-size="14.00" fill="#000000">cellular process</text>
</g>
<!-- GO:0044237&#45;&gt;GO:0009987 -->
<g id="edge6" class="edge">
<title>GO:0044237&#45;&gt;GO:0009987</title>
<path fill="none" stroke="#000000" d="M550.3905,-608.1513C550.3905,-619.0614 550.3905,-631.4637 550.3905,-642.492"/>
<polygon fill="#000000" stroke="#000000" points="546.8906,-642.5509 550.3905,-652.551 553.8906,-642.551 546.8906,-642.5509"/>
</g>
<!-- GO:0071704 -->
<g id="node9" class="node">
<title>GO:0071704</title>
<polygon fill="#ffff00" stroke="#000000" points="292.5761,-608.2014 176.2049,-608.2014 176.2049,-549.3986 292.5761,-549.3986 292.5761,-608.2014"/>
<text text-anchor="middle" x="234.3905" y="-591.4" font-family="Times,serif" font-size="14.00" fill="#000000">GO:0071704</text>
<text text-anchor="middle" x="234.3905" y="-574.6" font-family="Times,serif" font-size="14.00" fill="#000000">organic substance</text>
<text text-anchor="middle" x="234.3905" y="-557.8" font-family="Times,serif" font-size="14.00" fill="#000000">metabolic process</text>
</g>
<!-- GO:0043170&#45;&gt;GO:0071704 -->
<g id="edge8" class="edge">
<title>GO:0043170&#45;&gt;GO:0071704</title>
<path fill="none" stroke="#000000" d="M199.6494,-376.372C130.2072,-388.1727 37.7838,-408.9397 15.3905,-438.4 -4.8347,-465.008 -5.3412,-487.3847 15.3905,-513.6 56.5197,-565.6081 97.6593,-531.0834 166.2946,-549.7005"/>
<polygon fill="#000000" stroke="#000000" points="165.5793,-553.141 176.1647,-552.6947 167.6114,-546.4424 165.5793,-553.141"/>
</g>
<!-- GO:0009987&#45;&gt;GO:0008150 -->
<g id="edge9" class="edge">
<title>GO:0009987&#45;&gt;GO:0008150</title>
<path fill="none" stroke="#000000" d="M515.29,-694.0182C495.3421,-705.8494 470.1925,-720.7657 448.9874,-733.3425"/>
<polygon fill="#000000" stroke="#000000" points="446.9832,-730.4618 440.1677,-738.5735 450.5542,-736.4825 446.9832,-730.4618"/>
</g>
<!-- GO:0071704&#45;&gt;GO:0008152 -->
<g id="edge10" class="edge">
<title>GO:0071704&#45;&gt;GO:0008152</title>
<path fill="none" stroke="#000000" d="M287.5586,-608.1513C310.4797,-620.8048 337.0365,-635.4654 359.1296,-647.6618"/>
<polygon fill="#000000" stroke="#000000" points="357.5399,-650.7821 367.986,-652.551 360.923,-644.6539 357.5399,-650.7821"/>
</g>
<!-- GO:0065007 -->
<g id="node10" class="node">
<title>GO:0065007</title>
<polygon fill="#00ffff" stroke="#000000" points="159.6439,-693.8019 27.137,-693.8019 27.137,-652.5981 159.6439,-652.5981 159.6439,-693.8019"/>
<text text-anchor="middle" x="93.3905" y="-677.4" font-family="Times,serif" font-size="14.00" fill="#000000">GO:0065007</text>
<text text-anchor="middle" x="93.3905" y="-660.6" font-family="Times,serif" font-size="14.00" fill="#000000">biological regulation</text>
</g>
<!-- GO:0065007&#45;&gt;GO:0008150 -->
<g id="edge11" class="edge">
<title>GO:0065007&#45;&gt;GO:0008150</title>
<path fill="none" stroke="#000000" d="M145.9615,-693.8579C154.4073,-696.8934 163.0976,-699.8513 171.3905,-702.4 225.5579,-719.0473 287.9696,-733.9903 334.7074,-744.3664"/>
<polygon fill="#000000" stroke="#000000" points="334.2141,-747.8416 344.733,-746.5756 335.7205,-741.0056 334.2141,-747.8416"/>
</g>
<!-- GO:0050794 -->
<g id="node11" class="node">
<title>GO:0050794</title>
<polygon fill="#00ffff" stroke="#000000" points="158.2895,-608.2014 24.4915,-608.2014 24.4915,-549.3986 158.2895,-549.3986 158.2895,-608.2014"/>
<text text-anchor="middle" x="91.3905" y="-591.4" font-family="Times,serif" font-size="14.00" fill="#000000">GO:0050794</text>
<text text-anchor="middle" x="91.3905" y="-574.6" font-family="Times,serif" font-size="14.00" fill="#000000">regulation of cellular</text>
<text text-anchor="middle" x="91.3905" y="-557.8" font-family="Times,serif" font-size="14.00" fill="#000000">process</text>
</g>
<!-- GO:0050794&#45;&gt;GO:0050789 -->
<g id="edge13" class="edge">
<title>GO:0050794&#45;&gt;GO:0050789</title>
<path fill="none" stroke="#000000" d="M142.0712,-608.1513C158.7836,-617.8301 177.5237,-628.6833 194.8362,-638.7097"/>
<polygon fill="#000000" stroke="#000000" points="193.3335,-641.8839 203.7411,-643.8669 196.8416,-635.8265 193.3335,-641.8839"/>
</g>
<!-- GO:0050794&#45;&gt;GO:0065007 -->
<g id="edge12" class="edge">
<title>GO:0050794&#45;&gt;GO:0065007</title>
<path fill="none" stroke="#000000" d="M92.0123,-608.1513C92.2435,-619.0614 92.5062,-631.4637 92.7399,-642.492"/>
<polygon fill="#000000" stroke="#000000" points="89.2419,-642.6274 92.953,-652.551 96.2403,-642.4791 89.2419,-642.6274"/>
</g>
<!-- GO:0016070 -->
<g id="node12" class="node">
<title>GO:0016070</title>
<polygon fill="#00ff00" stroke="#000000" points="520.1257,-196.6019 370.6552,-196.6019 370.6552,-155.3981 520.1257,-155.3981 520.1257,-196.6019"/>
<text text-anchor="middle" x="445.3905" y="-180.2" font-family="Times,serif" font-size="14.00" fill="#000000">GO:0016070</text>
<text text-anchor="middle" x="445.3905" y="-163.4" font-family="Times,serif" font-size="14.00" fill="#000000">RNA metabolic process</text>
</g>
<!-- GO:0016070&#45;&gt;GO:0044260 -->
<g id="edge15" class="edge">
<title>GO:0016070&#45;&gt;GO:0044260</title>
<path fill="none" stroke="#000000" d="M465.2404,-196.8182C473.3989,-205.3747 483.096,-215.5448 492.3751,-225.2766"/>
<polygon fill="#000000" stroke="#000000" points="489.9232,-227.777 499.3571,-232.5991 494.9894,-222.9465 489.9232,-227.777"/>
</g>
<!-- GO:0090304 -->
<g id="node13" class="node">
<title>GO:0090304</title>
<polygon fill="#ffffff" stroke="#000000" points="435.3415,-291.4014 293.4395,-291.4014 293.4395,-232.5986 435.3415,-232.5986 435.3415,-291.4014"/>
<text text-anchor="middle" x="364.3905" y="-274.6" font-family="Times,serif" font-size="14.00" fill="#000000">GO:0090304</text>
<text text-anchor="middle" x="364.3905" y="-257.8" font-family="Times,serif" font-size="14.00" fill="#000000">nucleic acid metabolic</text>
<text text-anchor="middle" x="364.3905" y="-241" font-family="Times,serif" font-size="14.00" fill="#000000">process</text>
</g>
<!-- GO:0016070&#45;&gt;GO:0090304 -->
<g id="edge14" class="edge">
<title>GO:0016070&#45;&gt;GO:0090304</title>
<path fill="none" stroke="#000000" d="M425.7826,-196.8182C417.7236,-205.3747 408.1448,-215.5448 398.9788,-225.2766"/>
<polygon fill="#000000" stroke="#000000" points="396.3905,-222.9199 392.082,-232.5991 401.4861,-227.7193 396.3905,-222.9199"/>
</g>
<!-- GO:0090304&#45;&gt;GO:0043170 -->
<g id="edge17" class="edge">
<title>GO:0090304&#45;&gt;GO:0043170</title>
<path fill="none" stroke="#000000" d="M340.3194,-291.4584C331.1809,-302.6421 320.6483,-315.5321 310.9868,-327.356"/>
<polygon fill="#000000" stroke="#000000" points="308.0822,-325.3791 304.465,-335.3373 313.5028,-329.8083 308.0822,-325.3791"/>
</g>
<!-- GO:0006139 -->
<g id="node14" class="node">
<title>GO:0006139</title>
<polygon fill="#00ff00" stroke="#000000" points="520.3457,-402.5003 378.4353,-402.5003 378.4353,-327.0997 520.3457,-327.0997 520.3457,-402.5003"/>
<text text-anchor="middle" x="449.3905" y="-385.8" font-family="Times,serif" font-size="14.00" fill="#000000">GO:0006139</text>
<text text-anchor="middle" x="449.3905" y="-369" font-family="Times,serif" font-size="14.00" fill="#000000">nucleobase&#45;containing</text>
<text text-anchor="middle" x="449.3905" y="-352.2" font-family="Times,serif" font-size="14.00" fill="#000000">compound metabolic</text>
<text text-anchor="middle" x="449.3905" y="-335.4" font-family="Times,serif" font-size="14.00" fill="#000000">process</text>
</g>
<!-- GO:0090304&#45;&gt;GO:0006139 -->
<g id="edge16" class="edge">
<title>GO:0090304&#45;&gt;GO:0006139</title>
<path fill="none" stroke="#000000" d="M388.7481,-291.4584C395.8767,-300.0798 403.8437,-309.7152 411.5989,-319.0945"/>
<polygon fill="#000000" stroke="#000000" points="408.9708,-321.4085 418.0405,-326.885 414.3655,-316.9479 408.9708,-321.4085"/>
</g>
<!-- GO:0044238 -->
<g id="node15" class="node">
<title>GO:0044238</title>
<polygon fill="#ffff00" stroke="#000000" points="364.3934,-496.6019 200.3875,-496.6019 200.3875,-455.3981 364.3934,-455.3981 364.3934,-496.6019"/>
<text text-anchor="middle" x="282.3905" y="-480.2" font-family="Times,serif" font-size="14.00" fill="#000000">GO:0044238</text>
<text text-anchor="middle" x="282.3905" y="-463.4" font-family="Times,serif" font-size="14.00" fill="#000000">primary metabolic process</text>
</g>
<!-- GO:0006139&#45;&gt;GO:0044238 -->
<g id="edge18" class="edge">
<title>GO:0006139&#45;&gt;GO:0044238</title>
<path fill="none" stroke="#000000" d="M392.8519,-402.4472C369.5653,-417.9531 343.1447,-435.5457 321.9826,-449.6368"/>
<polygon fill="#000000" stroke="#000000" points="319.9408,-446.7914 313.5571,-455.2471 323.8205,-452.618 319.9408,-446.7914"/>
</g>
<!-- GO:0034641 -->
<g id="node16" class="node">
<title>GO:0034641</title>
<polygon fill="#00ff00" stroke="#000000" points="516.202,-513.7003 382.5789,-513.7003 382.5789,-438.2997 516.202,-438.2997 516.202,-513.7003"/>
<text text-anchor="middle" x="449.3905" y="-497" font-family="Times,serif" font-size="14.00" fill="#000000">GO:0034641</text>
<text text-anchor="middle" x="449.3905" y="-480.2" font-family="Times,serif" font-size="14.00" fill="#000000">cellular nitrogen</text>
<text text-anchor="middle" x="449.3905" y="-463.4" font-family="Times,serif" font-size="14.00" fill="#000000">compound metabolic</text>
<text text-anchor="middle" x="449.3905" y="-446.6" font-family="Times,serif" font-size="14.00" fill="#000000">process</text>
</g>
<!-- GO:0006139&#45;&gt;GO:0034641 -->
<g id="edge19" class="edge">
<title>GO:0006139&#45;&gt;GO:0034641</title>
<path fill="none" stroke="#000000" d="M449.3905,-402.4472C449.3905,-410.78 449.3905,-419.7155 449.3905,-428.3863"/>
<polygon fill="#000000" stroke="#000000" points="445.8906,-428.3915 449.3905,-438.3915 452.8906,-428.3916 445.8906,-428.3915"/>
</g>
<!-- GO:0006725 -->
<g id="node17" class="node">
<title>GO:0006725</title>
<polygon fill="#ffffff" stroke="#000000" points="668.202,-513.7003 534.5789,-513.7003 534.5789,-438.2997 668.202,-438.2997 668.202,-513.7003"/>
<text text-anchor="middle" x="601.3905" y="-497" font-family="Times,serif" font-size="14.00" fill="#000000">GO:0006725</text>
<text text-anchor="middle" x="601.3905" y="-480.2" font-family="Times,serif" font-size="14.00" fill="#000000">cellular aromatic</text>
<text text-anchor="middle" x="601.3905" y="-463.4" font-family="Times,serif" font-size="14.00" fill="#000000">compound metabolic</text>
<text text-anchor="middle" x="601.3905" y="-446.6" font-family="Times,serif" font-size="14.00" fill="#000000">process</text>
</g>
<!-- GO:0006139&#45;&gt;GO:0006725 -->
<g id="edge20" class="edge">
<title>GO:0006139&#45;&gt;GO:0006725</title>
<path fill="none" stroke="#000000" d="M500.8507,-402.4472C513.9741,-412.0481 528.1911,-422.4489 541.6884,-432.3232"/>
<polygon fill="#000000" stroke="#000000" points="539.8458,-435.3118 549.9832,-438.3915 543.9789,-429.6623 539.8458,-435.3118"/>
</g>
<!-- GO:1901360 -->
<g id="node18" class="node">
<title>GO:1901360</title>
<polygon fill="#ffffff" stroke="#000000" points="181.9018,-505.4014 24.8791,-505.4014 24.8791,-446.5986 181.9018,-446.5986 181.9018,-505.4014"/>
<text text-anchor="middle" x="103.3905" y="-488.6" font-family="Times,serif" font-size="14.00" fill="#000000">GO:1901360</text>
<text text-anchor="middle" x="103.3905" y="-471.8" font-family="Times,serif" font-size="14.00" fill="#000000">organic cyclic compound</text>
<text text-anchor="middle" x="103.3905" y="-455" font-family="Times,serif" font-size="14.00" fill="#000000">metabolic process</text>
</g>
<!-- GO:0006139&#45;&gt;GO:1901360 -->
<g id="edge21" class="edge">
<title>GO:0006139&#45;&gt;GO:1901360</title>
<path fill="none" stroke="#000000" d="M378.2338,-399.6293C375.6045,-400.6084 372.9846,-401.5364 370.3905,-402.4 293.3958,-428.0303 268.8874,-414.3312 191.3905,-438.4 186.7744,-439.8337 182.0709,-441.4271 177.3595,-443.1254"/>
<polygon fill="#000000" stroke="#000000" points="175.8408,-439.9568 167.7032,-446.7414 178.2956,-446.5122 175.8408,-439.9568"/>
</g>
<!-- GO:0046483 -->
<g id="node19" class="node">
<title>GO:0046483</title>
<polygon fill="#ffffff" stroke="#000000" points="826.1116,-505.4014 686.6693,-505.4014 686.6693,-446.5986 826.1116,-446.5986 826.1116,-505.4014"/>
<text text-anchor="middle" x="756.3905" y="-488.6" font-family="Times,serif" font-size="14.00" fill="#000000">GO:0046483</text>
<text text-anchor="middle" x="756.3905" y="-471.8" font-family="Times,serif" font-size="14.00" fill="#000000">heterocycle metabolic</text>
<text text-anchor="middle" x="756.3905" y="-455" font-family="Times,serif" font-size="14.00" fill="#000000">process</text>
</g>
<!-- GO:0006139&#45;&gt;GO:0046483 -->
<g id="edge22" class="edge">
<title>GO:0006139&#45;&gt;GO:0046483</title>
<path fill="none" stroke="#000000" d="M520.599,-385.1436C566.0002,-398.7602 625.7866,-417.8943 677.3905,-438.4 680.6658,-439.7015 683.9964,-441.076 687.3453,-442.4995"/>
<polygon fill="#000000" stroke="#000000" points="686.2356,-445.8338 696.8011,-446.6212 689.0327,-439.4169 686.2356,-445.8338"/>
</g>
<!-- GO:0044238&#45;&gt;GO:0008152 -->
<g id="edge23" class="edge">
<title>GO:0044238&#45;&gt;GO:0008152</title>
<path fill="none" stroke="#000000" d="M288.6447,-496.9163C297.3568,-524.0476 314.8815,-572.1418 339.3905,-608 348.7099,-621.635 361.1524,-634.8075 372.7209,-645.7005"/>
<polygon fill="#000000" stroke="#000000" points="370.4175,-648.337 380.1553,-652.5116 375.1462,-643.1756 370.4175,-648.337"/>
</g>
<!-- GO:0034641&#45;&gt;GO:0006807 -->
<g id="edge24" class="edge">
<title>GO:0034641&#45;&gt;GO:0006807</title>
<path fill="none" stroke="#000000" d="M435.4565,-513.6952C432.2861,-522.2718 428.9127,-531.3976 425.726,-540.0187"/>
<polygon fill="#000000" stroke="#000000" points="422.4125,-538.8881 422.2281,-549.4814 428.9783,-541.3152 422.4125,-538.8881"/>
</g>
<!-- GO:0034641&#45;&gt;GO:0044237 -->
<g id="edge25" class="edge">
<title>GO:0034641&#45;&gt;GO:0044237</title>
<path fill="none" stroke="#000000" d="M486.4256,-513.6952C495.5769,-523.0096 505.3647,-532.9717 514.4623,-542.2316"/>
<polygon fill="#000000" stroke="#000000" points="512.0802,-544.801 521.5852,-549.4814 517.0735,-539.8952 512.0802,-544.801"/>
</g>
<!-- GO:0006725&#45;&gt;GO:0044237 -->
<g id="edge26" class="edge">
<title>GO:0006725&#45;&gt;GO:0044237</title>
<path fill="none" stroke="#000000" d="M582.6895,-513.6952C578.3889,-522.364 573.8098,-531.594 569.4924,-540.2966"/>
<polygon fill="#000000" stroke="#000000" points="566.2446,-538.9677 564.9357,-549.4814 572.5154,-542.0787 566.2446,-538.9677"/>
</g>
<!-- GO:1901360&#45;&gt;GO:0071704 -->
<g id="edge27" class="edge">
<title>GO:1901360&#45;&gt;GO:0071704</title>
<path fill="none" stroke="#000000" d="M140.9298,-505.4584C155.8667,-517.1798 173.1919,-530.7754 188.8382,-543.0536"/>
<polygon fill="#000000" stroke="#000000" points="186.818,-545.9173 196.8456,-549.3373 191.1394,-540.4104 186.818,-545.9173"/>
</g>
<!-- GO:0046483&#45;&gt;GO:0044237 -->
<g id="edge28" class="edge">
<title>GO:0046483&#45;&gt;GO:0044237</title>
<path fill="none" stroke="#000000" d="M697.6348,-505.3208C672.7421,-517.743 643.5925,-532.2895 617.8273,-545.147"/>
<polygon fill="#000000" stroke="#000000" points="616.2525,-542.0213 608.8676,-549.6182 619.3781,-548.2847 616.2525,-542.0213"/>
</g>
<!-- GO:0016071 -->
<g id="node20" class="node">
<title>GO:0016071</title>
<polygon fill="#00ffff" stroke="#000000" points="449.5165,-119.0019 289.2644,-119.0019 289.2644,-77.7981 449.5165,-77.7981 449.5165,-119.0019"/>
<text text-anchor="middle" x="369.3905" y="-102.6" font-family="Times,serif" font-size="14.00" fill="#000000">GO:0016071</text>
<text text-anchor="middle" x="369.3905" y="-85.8" font-family="Times,serif" font-size="14.00" fill="#000000">mRNA metabolic process</text>
</g>
<!-- GO:0016071&#45;&gt;GO:0016070 -->
<g id="edge29" class="edge">
<title>GO:0016071&#45;&gt;GO:0016070</title>
<path fill="none" stroke="#000000" d="M389.7571,-119.1954C398.3613,-127.9807 408.5152,-138.3484 417.7774,-147.8056"/>
<polygon fill="#000000" stroke="#000000" points="415.4701,-150.4518 424.9676,-155.1472 420.4711,-145.5539 415.4701,-150.4518"/>
</g>
<!-- GO:0044699 -->
<g id="node21" class="node">
<title>GO:0044699</title>
<polygon fill="#00ffff" stroke="#000000" points="775.0718,-693.8019 623.7091,-693.8019 623.7091,-652.5981 775.0718,-652.5981 775.0718,-693.8019"/>
<text text-anchor="middle" x="699.3905" y="-677.4" font-family="Times,serif" font-size="14.00" fill="#000000">GO:0044699</text>
<text text-anchor="middle" x="699.3905" y="-660.6" font-family="Times,serif" font-size="14.00" fill="#000000">single&#45;organism process</text>
</g>
<!-- GO:0044699&#45;&gt;GO:0008150 -->
<g id="edge30" class="edge">
<title>GO:0044699&#45;&gt;GO:0008150</title>
<path fill="none" stroke="#000000" d="M638.4514,-693.8705C629.4027,-696.809 620.1701,-699.7349 611.3905,-702.4 566.5564,-716.0096 515.8212,-730.0153 475.9197,-740.7138"/>
<polygon fill="#000000" stroke="#000000" points="474.7759,-737.3966 466.0189,-743.3603 476.5836,-744.1592 474.7759,-737.3966"/>
</g>
<!-- GO:0044763 -->
<g id="node22" class="node">
<title>GO:0044763</title>
<polygon fill="#00ffff" stroke="#000000" points="778.069,-608.2014 626.7119,-608.2014 626.7119,-549.3986 778.069,-549.3986 778.069,-608.2014"/>
<text text-anchor="middle" x="702.3905" y="-591.4" font-family="Times,serif" font-size="14.00" fill="#000000">GO:0044763</text>
<text text-anchor="middle" x="702.3905" y="-574.6" font-family="Times,serif" font-size="14.00" fill="#000000">single&#45;organism cellular</text>
<text text-anchor="middle" x="702.3905" y="-557.8" font-family="Times,serif" font-size="14.00" fill="#000000">process</text>
</g>
<!-- GO:0044763&#45;&gt;GO:0009987 -->
<g id="edge31" class="edge">
<title>GO:0044763&#45;&gt;GO:0009987</title>
<path fill="none" stroke="#000000" d="M655.1299,-608.1513C635.0273,-620.6361 611.7785,-635.0748 592.2989,-647.1727"/>
<polygon fill="#000000" stroke="#000000" points="590.2874,-644.3018 583.6389,-652.551 593.9805,-650.2483 590.2874,-644.3018"/>
</g>
<!-- GO:0044763&#45;&gt;GO:0044699 -->
<g id="edge32" class="edge">
<title>GO:0044763&#45;&gt;GO:0044699</title>
<path fill="none" stroke="#000000" d="M701.4577,-608.1513C701.111,-619.0614 700.7168,-631.4637 700.3664,-642.492"/>
<polygon fill="#000000" stroke="#000000" points="696.8662,-642.4448 700.0467,-652.551 703.8627,-642.6672 696.8662,-642.4448"/>
</g>
<!-- GO:0006396 -->
<g id="node23" class="node">
<title>GO:0006396</title>
<polygon fill="#00ffff" stroke="#000000" points="576.8099,-119.0019 467.971,-119.0019 467.971,-77.7981 576.8099,-77.7981 576.8099,-119.0019"/>
<text text-anchor="middle" x="522.3905" y="-102.6" font-family="Times,serif" font-size="14.00" fill="#000000">GO:0006396</text>
<text text-anchor="middle" x="522.3905" y="-85.8" font-family="Times,serif" font-size="14.00" fill="#000000">RNA processing</text>
</g>
<!-- GO:0006396&#45;&gt;GO:0016070 -->
<g id="edge33" class="edge">
<title>GO:0006396&#45;&gt;GO:0016070</title>
<path fill="none" stroke="#000000" d="M501.7559,-119.1954C493.0385,-127.9807 482.7509,-138.3484 473.3669,-147.8056"/>
<polygon fill="#000000" stroke="#000000" points="470.6412,-145.5835 466.082,-155.1472 475.6101,-150.514 470.6412,-145.5835"/>
</g>
<!-- GO:0006397 -->
<g id="node24" class="node">
<title>GO:0006397</title>
<polygon fill="#00ffff" stroke="#000000" points="505.2006,-41.4019 385.5803,-41.4019 385.5803,-.1981 505.2006,-.1981 505.2006,-41.4019"/>
<text text-anchor="middle" x="445.3905" y="-25" font-family="Times,serif" font-size="14.00" fill="#000000">GO:0006397</text>
<text text-anchor="middle" x="445.3905" y="-8.2" font-family="Times,serif" font-size="14.00" fill="#000000">mRNA processing</text>
</g>
<!-- GO:0006397&#45;&gt;GO:0016071 -->
<g id="edge34" class="edge">
<title>GO:0006397&#45;&gt;GO:0016071</title>
<path fill="none" stroke="#000000" d="M425.0239,-41.5954C416.4197,-50.3807 406.2657,-60.7484 397.0036,-70.2056"/>
<polygon fill="#000000" stroke="#000000" points="394.3098,-67.9539 389.8133,-77.5472 399.3109,-72.8518 394.3098,-67.9539"/>
</g>
<!-- GO:0006397&#45;&gt;GO:0006396 -->
<g id="edge35" class="edge">
<title>GO:0006397&#45;&gt;GO:0006396</title>
<path fill="none" stroke="#000000" d="M466.0251,-41.5954C474.7425,-50.3807 485.03,-60.7484 494.4141,-70.2056"/>
<polygon fill="#000000" stroke="#000000" points="492.1709,-72.914 501.6989,-77.5472 497.1398,-67.9835 492.1709,-72.914"/>
</g>
</g>
</svg>
