<?xml version="1.0" encoding="UTF-8" standalone="no"?>
<!DOCTYPE svg PUBLIC "-//W3C//DTD SVG 1.1//EN"
 "http://www.w3.org/Graphics/SVG/1.1/DTD/svg11.dtd">
<!-- Generated by graphviz version 2.40.1 (20161225.0304)
 -->
<!-- Title: G Pages: 1 -->
<svg width="1045pt" height="633pt"
 viewBox="0.00 0.00 1045.47 632.80" xmlns="http://www.w3.org/2000/svg" xmlns:xlink="http://www.w3.org/1999/xlink">
<g id="graph0" class="graph" transform="scale(1 1) rotate(0) translate(4 628.8)">
<title>G</title>
<polygon fill="#ffffff" stroke="transparent" points="-4,4 -4,-628.8 1041.4713,-628.8 1041.4713,4 -4,4"/>
<!-- GO:0035639 -->
<g id="node1" class="node">
<title>GO:0035639</title>
<polygon fill="#00ffff" stroke="#000000" points="137.5303,-255.8014 .1563,-255.8014 .1563,-196.9986 137.5303,-196.9986 137.5303,-255.8014"/>
<text text-anchor="middle" x="68.8433" y="-239" font-family="Times,serif" font-size="14.00" fill="#000000">GO:0035639</text>
<text text-anchor="middle" x="68.8433" y="-222.2" font-family="Times,serif" font-size="14.00" fill="#000000">purine ribonucleoside</text>
<text text-anchor="middle" x="68.8433" y="-205.4" font-family="Times,serif" font-size="14.00" fill="#000000">triphosphate binding</text>
</g>
<!-- GO:1901265 -->
<g id="node2" class="node">
<title>GO:1901265</title>
<polygon fill="#ffffff" stroke="#000000" points="302.9774,-367.0014 166.7092,-367.0014 166.7092,-308.1986 302.9774,-308.1986 302.9774,-367.0014"/>
<text text-anchor="middle" x="234.8433" y="-350.2" font-family="Times,serif" font-size="14.00" fill="#000000">GO:1901265</text>
<text text-anchor="middle" x="234.8433" y="-333.4" font-family="Times,serif" font-size="14.00" fill="#000000">nucleoside phosphate</text>
<text text-anchor="middle" x="234.8433" y="-316.6" font-family="Times,serif" font-size="14.00" fill="#000000">binding</text>
</g>
<!-- GO:0035639&#45;&gt;GO:1901265 -->
<g id="edge1" class="edge">
<title>GO:0035639&#45;&gt;GO:1901265</title>
<path fill="none" stroke="#000000" d="M112.4578,-255.6165C134.008,-270.0525 160.1697,-287.5777 182.7643,-302.7133"/>
<polygon fill="#000000" stroke="#000000" points="180.976,-305.7281 191.2321,-308.3858 184.8719,-299.9124 180.976,-305.7281"/>
</g>
<!-- GO:0097159 -->
<g id="node3" class="node">
<title>GO:0097159</title>
<polygon fill="#00ffff" stroke="#000000" points="302.3547,-469.8014 145.3319,-469.8014 145.3319,-410.9986 302.3547,-410.9986 302.3547,-469.8014"/>
<text text-anchor="middle" x="223.8433" y="-453" font-family="Times,serif" font-size="14.00" fill="#000000">GO:0097159</text>
<text text-anchor="middle" x="223.8433" y="-436.2" font-family="Times,serif" font-size="14.00" fill="#000000">organic cyclic compound</text>
<text text-anchor="middle" x="223.8433" y="-419.4" font-family="Times,serif" font-size="14.00" fill="#000000">binding</text>
</g>
<!-- GO:1901265&#45;&gt;GO:0097159 -->
<g id="edge2" class="edge">
<title>GO:1901265&#45;&gt;GO:0097159</title>
<path fill="none" stroke="#000000" d="M231.6911,-367.0584C230.5635,-377.5969 229.2737,-389.6505 228.07,-400.8994"/>
<polygon fill="#000000" stroke="#000000" points="224.5798,-400.6217 226.9959,-410.9373 231.5401,-401.3665 224.5798,-400.6217"/>
</g>
<!-- GO:1901363 -->
<g id="node4" class="node">
<title>GO:1901363</title>
<polygon fill="#00ffff" stroke="#000000" points="467.3539,-469.8014 320.3327,-469.8014 320.3327,-410.9986 467.3539,-410.9986 467.3539,-469.8014"/>
<text text-anchor="middle" x="393.8433" y="-453" font-family="Times,serif" font-size="14.00" fill="#000000">GO:1901363</text>
<text text-anchor="middle" x="393.8433" y="-436.2" font-family="Times,serif" font-size="14.00" fill="#000000">heterocyclic compound</text>
<text text-anchor="middle" x="393.8433" y="-419.4" font-family="Times,serif" font-size="14.00" fill="#000000">binding</text>
</g>
<!-- GO:1901265&#45;&gt;GO:1901363 -->
<g id="edge3" class="edge">
<title>GO:1901265&#45;&gt;GO:1901363</title>
<path fill="none" stroke="#000000" d="M280.4063,-367.0584C299.0316,-379.1004 320.7163,-393.1204 340.1079,-405.6578"/>
<polygon fill="#000000" stroke="#000000" points="338.2507,-408.6249 348.5487,-411.1152 342.0513,-402.7465 338.2507,-408.6249"/>
</g>
<!-- GO:0005488 -->
<g id="node5" class="node">
<title>GO:0005488</title>
<polygon fill="#ffffff" stroke="#000000" points="603.4472,-547.0019 514.2394,-547.0019 514.2394,-505.7981 603.4472,-505.7981 603.4472,-547.0019"/>
<text text-anchor="middle" x="558.8433" y="-530.6" font-family="Times,serif" font-size="14.00" fill="#000000">GO:0005488</text>
<text text-anchor="middle" x="558.8433" y="-513.8" font-family="Times,serif" font-size="14.00" fill="#000000">binding</text>
</g>
<!-- GO:0097159&#45;&gt;GO:0005488 -->
<g id="edge4" class="edge">
<title>GO:0097159&#45;&gt;GO:0005488</title>
<path fill="none" stroke="#000000" d="M302.4557,-467.1717C305.2805,-468.0103 308.0829,-468.8227 310.8433,-469.6 376.6735,-488.1372 453.5924,-505.0288 504.1059,-515.4844"/>
<polygon fill="#000000" stroke="#000000" points="503.6577,-518.9654 514.1579,-517.5522 505.0682,-512.109 503.6577,-518.9654"/>
</g>
<!-- GO:1901363&#45;&gt;GO:0005488 -->
<g id="edge5" class="edge">
<title>GO:1901363&#45;&gt;GO:0005488</title>
<path fill="none" stroke="#000000" d="M450.1655,-469.7558C469.6612,-479.9172 491.3328,-491.2127 510.1621,-501.0267"/>
<polygon fill="#000000" stroke="#000000" points="508.6697,-504.1958 519.1552,-505.7141 511.9052,-497.9883 508.6697,-504.1958"/>
</g>
<!-- GO:0003674 -->
<g id="node6" class="node">
<title>GO:0003674</title>
<polygon fill="#ffffff" stroke="#000000" points="679.4764,-624.6019 554.2102,-624.6019 554.2102,-583.3981 679.4764,-583.3981 679.4764,-624.6019"/>
<text text-anchor="middle" x="616.8433" y="-608.2" font-family="Times,serif" font-size="14.00" fill="#000000">GO:0003674</text>
<text text-anchor="middle" x="616.8433" y="-591.4" font-family="Times,serif" font-size="14.00" fill="#000000">molecular_function</text>
</g>
<!-- GO:0005488&#45;&gt;GO:0003674 -->
<g id="edge6" class="edge">
<title>GO:0005488&#45;&gt;GO:0003674</title>
<path fill="none" stroke="#000000" d="M574.3862,-547.1954C580.7575,-555.7197 588.2424,-565.7339 595.1385,-574.9605"/>
<polygon fill="#000000" stroke="#000000" points="592.4672,-577.2327 601.2575,-583.1472 598.0741,-573.0419 592.4672,-577.2327"/>
</g>
<!-- GO:0004672 -->
<g id="node7" class="node">
<title>GO:0004672</title>
<polygon fill="#ff0000" stroke="#000000" points="955.2563,-144.2019 814.4303,-144.2019 814.4303,-102.9981 955.2563,-102.9981 955.2563,-144.2019"/>
<text text-anchor="middle" x="884.8433" y="-127.8" font-family="Times,serif" font-size="14.00" fill="#000000">GO:0004672</text>
<text text-anchor="middle" x="884.8433" y="-111" font-family="Times,serif" font-size="14.00" fill="#000000">protein kinase activity</text>
</g>
<!-- GO:0016773 -->
<g id="node8" class="node">
<title>GO:0016773</title>
<polygon fill="#ffffff" stroke="#000000" points="922.2064,-264.1003 779.4802,-264.1003 779.4802,-188.6997 922.2064,-188.6997 922.2064,-264.1003"/>
<text text-anchor="middle" x="850.8433" y="-247.4" font-family="Times,serif" font-size="14.00" fill="#000000">GO:0016773</text>
<text text-anchor="middle" x="850.8433" y="-230.6" font-family="Times,serif" font-size="14.00" fill="#000000">phosphotransferase</text>
<text text-anchor="middle" x="850.8433" y="-213.8" font-family="Times,serif" font-size="14.00" fill="#000000">activity, alcohol group</text>
<text text-anchor="middle" x="850.8433" y="-197" font-family="Times,serif" font-size="14.00" fill="#000000">as acceptor</text>
</g>
<!-- GO:0004672&#45;&gt;GO:0016773 -->
<g id="edge7" class="edge">
<title>GO:0004672&#45;&gt;GO:0016773</title>
<path fill="none" stroke="#000000" d="M877.9629,-144.4031C874.6557,-154.4025 870.5451,-166.8309 866.5326,-178.9631"/>
<polygon fill="#000000" stroke="#000000" points="863.17,-177.984 863.3528,-188.5773 869.8159,-180.1821 863.17,-177.984"/>
</g>
<!-- GO:0016301 -->
<g id="node9" class="node">
<title>GO:0016301</title>
<polygon fill="#ffffff" stroke="#000000" points="1037.5996,-247.0019 940.087,-247.0019 940.087,-205.7981 1037.5996,-205.7981 1037.5996,-247.0019"/>
<text text-anchor="middle" x="988.8433" y="-230.6" font-family="Times,serif" font-size="14.00" fill="#000000">GO:0016301</text>
<text text-anchor="middle" x="988.8433" y="-213.8" font-family="Times,serif" font-size="14.00" fill="#000000">kinase activity</text>
</g>
<!-- GO:0004672&#45;&gt;GO:0016301 -->
<g id="edge8" class="edge">
<title>GO:0004672&#45;&gt;GO:0016301</title>
<path fill="none" stroke="#000000" d="M905.8893,-144.4031C921.5364,-159.8697 943.0626,-181.1476 960.2655,-198.1519"/>
<polygon fill="#000000" stroke="#000000" points="958.2562,-201.0871 967.8286,-205.6278 963.1771,-196.1087 958.2562,-201.0871"/>
</g>
<!-- GO:0016772 -->
<g id="node10" class="node">
<title>GO:0016772</title>
<polygon fill="#ffffff" stroke="#000000" points="954.8511,-375.3003 800.8355,-375.3003 800.8355,-299.8997 954.8511,-299.8997 954.8511,-375.3003"/>
<text text-anchor="middle" x="877.8433" y="-358.6" font-family="Times,serif" font-size="14.00" fill="#000000">GO:0016772</text>
<text text-anchor="middle" x="877.8433" y="-341.8" font-family="Times,serif" font-size="14.00" fill="#000000">transferase activity,</text>
<text text-anchor="middle" x="877.8433" y="-325" font-family="Times,serif" font-size="14.00" fill="#000000">transferring phosphorus&#45;</text>
<text text-anchor="middle" x="877.8433" y="-308.2" font-family="Times,serif" font-size="14.00" fill="#000000">containing groups</text>
</g>
<!-- GO:0016773&#45;&gt;GO:0016772 -->
<g id="edge9" class="edge">
<title>GO:0016773&#45;&gt;GO:0016772</title>
<path fill="none" stroke="#000000" d="M859.9843,-264.0472C862.0295,-272.4706 864.2243,-281.5098 866.351,-290.2689"/>
<polygon fill="#000000" stroke="#000000" points="862.951,-291.0997 868.7117,-299.9915 869.7533,-289.448 862.951,-291.0997"/>
</g>
<!-- GO:0016301&#45;&gt;GO:0016772 -->
<g id="edge10" class="edge">
<title>GO:0016301&#45;&gt;GO:0016772</title>
<path fill="none" stroke="#000000" d="M968.2252,-247.0553C955.3941,-259.9095 938.3798,-276.9544 922.5767,-292.786"/>
<polygon fill="#000000" stroke="#000000" points="920.008,-290.4051 915.4204,-299.9552 924.9623,-295.3504 920.008,-290.4051"/>
</g>
<!-- GO:0016740 -->
<g id="node11" class="node">
<title>GO:0016740</title>
<polygon fill="#ffffff" stroke="#000000" points="938.955,-461.0019 816.7316,-461.0019 816.7316,-419.7981 938.955,-419.7981 938.955,-461.0019"/>
<text text-anchor="middle" x="877.8433" y="-444.6" font-family="Times,serif" font-size="14.00" fill="#000000">GO:0016740</text>
<text text-anchor="middle" x="877.8433" y="-427.8" font-family="Times,serif" font-size="14.00" fill="#000000">transferase activity</text>
</g>
<!-- GO:0016772&#45;&gt;GO:0016740 -->
<g id="edge11" class="edge">
<title>GO:0016772&#45;&gt;GO:0016740</title>
<path fill="none" stroke="#000000" d="M877.8433,-375.2952C877.8433,-386.5552 877.8433,-398.7618 877.8433,-409.5299"/>
<polygon fill="#000000" stroke="#000000" points="874.3434,-409.7302 877.8433,-419.7302 881.3434,-409.7302 874.3434,-409.7302"/>
</g>
<!-- GO:0003824 -->
<g id="node12" class="node">
<title>GO:0003824</title>
<polygon fill="#ff0000" stroke="#000000" points="831.2557,-547.0019 722.4309,-547.0019 722.4309,-505.7981 831.2557,-505.7981 831.2557,-547.0019"/>
<text text-anchor="middle" x="776.8433" y="-530.6" font-family="Times,serif" font-size="14.00" fill="#000000">GO:0003824</text>
<text text-anchor="middle" x="776.8433" y="-513.8" font-family="Times,serif" font-size="14.00" fill="#000000">catalytic activity</text>
</g>
<!-- GO:0016740&#45;&gt;GO:0003824 -->
<g id="edge12" class="edge">
<title>GO:0016740&#45;&gt;GO:0003824</title>
<path fill="none" stroke="#000000" d="M853.394,-461.2182C839.9955,-472.6268 823.2279,-486.9042 808.8036,-499.1863"/>
<polygon fill="#000000" stroke="#000000" points="806.4122,-496.6256 801.0674,-505.7735 810.9503,-501.9553 806.4122,-496.6256"/>
</g>
<!-- GO:0003824&#45;&gt;GO:0003674 -->
<g id="edge13" class="edge">
<title>GO:0003824&#45;&gt;GO:0003674</title>
<path fill="none" stroke="#000000" d="M733.9662,-547.1954C713.8884,-556.9331 689.8021,-568.615 668.707,-578.8461"/>
<polygon fill="#000000" stroke="#000000" points="667.0313,-575.7688 659.5611,-583.2819 670.086,-582.0672 667.0313,-575.7688"/>
</g>
<!-- GO:0004674 -->
<g id="node13" class="node">
<title>GO:0004674</title>
<polygon fill="#ffa500" stroke="#000000" points="959.6867,-58.6014 809.9999,-58.6014 809.9999,.2014 959.6867,.2014 959.6867,-58.6014"/>
<text text-anchor="middle" x="884.8433" y="-41.8" font-family="Times,serif" font-size="14.00" fill="#000000">GO:0004674</text>
<text text-anchor="middle" x="884.8433" y="-25" font-family="Times,serif" font-size="14.00" fill="#000000">protein serine/threonine</text>
<text text-anchor="middle" x="884.8433" y="-8.2" font-family="Times,serif" font-size="14.00" fill="#000000">kinase activity</text>
</g>
<!-- GO:0004674&#45;&gt;GO:0004672 -->
<g id="edge14" class="edge">
<title>GO:0004674&#45;&gt;GO:0004672</title>
<path fill="none" stroke="#000000" d="M884.8433,-58.5513C884.8433,-69.4614 884.8433,-81.8637 884.8433,-92.892"/>
<polygon fill="#000000" stroke="#000000" points="881.3434,-92.9509 884.8433,-102.951 888.3434,-92.951 881.3434,-92.9509"/>
</g>
<!-- GO:0032555 -->
<g id="node14" class="node">
<title>GO:0032555</title>
<polygon fill="#00ffff" stroke="#000000" points="707.976,-58.6014 571.7106,-58.6014 571.7106,.2014 707.976,.2014 707.976,-58.6014"/>
<text text-anchor="middle" x="639.8433" y="-41.8" font-family="Times,serif" font-size="14.00" fill="#000000">GO:0032555</text>
<text text-anchor="middle" x="639.8433" y="-25" font-family="Times,serif" font-size="14.00" fill="#000000">purine ribonucleotide</text>
<text text-anchor="middle" x="639.8433" y="-8.2" font-family="Times,serif" font-size="14.00" fill="#000000">binding</text>
</g>
<!-- GO:0017076 -->
<g id="node15" class="node">
<title>GO:0017076</title>
<polygon fill="#ffffff" stroke="#000000" points="634.706,-144.2019 474.9806,-144.2019 474.9806,-102.9981 634.706,-102.9981 634.706,-144.2019"/>
<text text-anchor="middle" x="554.8433" y="-127.8" font-family="Times,serif" font-size="14.00" fill="#000000">GO:0017076</text>
<text text-anchor="middle" x="554.8433" y="-111" font-family="Times,serif" font-size="14.00" fill="#000000">purine nucleotide binding</text>
</g>
<!-- GO:0032555&#45;&gt;GO:0017076 -->
<g id="edge15" class="edge">
<title>GO:0032555&#45;&gt;GO:0017076</title>
<path fill="none" stroke="#000000" d="M613.4147,-58.5513C602.882,-70.2488 590.8049,-83.6615 580.364,-95.257"/>
<polygon fill="#000000" stroke="#000000" points="577.5266,-93.1776 573.4362,-102.951 582.7286,-97.8616 577.5266,-93.1776"/>
</g>
<!-- GO:0032553 -->
<g id="node16" class="node">
<title>GO:0032553</title>
<polygon fill="#00ffff" stroke="#000000" points="796.4914,-144.2019 653.1952,-144.2019 653.1952,-102.9981 796.4914,-102.9981 796.4914,-144.2019"/>
<text text-anchor="middle" x="724.8433" y="-127.8" font-family="Times,serif" font-size="14.00" fill="#000000">GO:0032553</text>
<text text-anchor="middle" x="724.8433" y="-111" font-family="Times,serif" font-size="14.00" fill="#000000">ribonucleotide binding</text>
</g>
<!-- GO:0032555&#45;&gt;GO:0032553 -->
<g id="edge16" class="edge">
<title>GO:0032555&#45;&gt;GO:0032553</title>
<path fill="none" stroke="#000000" d="M666.2719,-58.5513C676.8046,-70.2488 688.8817,-83.6615 699.3226,-95.257"/>
<polygon fill="#000000" stroke="#000000" points="696.958,-97.8616 706.2504,-102.951 702.16,-93.1776 696.958,-97.8616"/>
</g>
<!-- GO:0000166 -->
<g id="node17" class="node">
<title>GO:0000166</title>
<polygon fill="#ffffff" stroke="#000000" points="618.9408,-247.0019 498.7458,-247.0019 498.7458,-205.7981 618.9408,-205.7981 618.9408,-247.0019"/>
<text text-anchor="middle" x="558.8433" y="-230.6" font-family="Times,serif" font-size="14.00" fill="#000000">GO:0000166</text>
<text text-anchor="middle" x="558.8433" y="-213.8" font-family="Times,serif" font-size="14.00" fill="#000000">nucleotide binding</text>
</g>
<!-- GO:0017076&#45;&gt;GO:0000166 -->
<g id="edge17" class="edge">
<title>GO:0017076&#45;&gt;GO:0000166</title>
<path fill="none" stroke="#000000" d="M555.6528,-144.4031C556.222,-159.0337 556.9937,-178.8642 557.6355,-195.3586"/>
<polygon fill="#000000" stroke="#000000" points="554.1488,-195.7715 558.035,-205.6278 561.1435,-195.4993 554.1488,-195.7715"/>
</g>
<!-- GO:0032553&#45;&gt;GO:0000166 -->
<g id="edge19" class="edge">
<title>GO:0032553&#45;&gt;GO:0000166</title>
<path fill="none" stroke="#000000" d="M691.2507,-144.4031C665.263,-160.4967 629.115,-182.8824 601.1534,-200.1983"/>
<polygon fill="#000000" stroke="#000000" points="599.045,-197.3872 592.3859,-205.6278 602.7305,-203.3384 599.045,-197.3872"/>
</g>
<!-- GO:0097367 -->
<g id="node18" class="node">
<title>GO:0097367</title>
<polygon fill="#ffffff" stroke="#000000" points="798.8904,-469.8014 650.7962,-469.8014 650.7962,-410.9986 798.8904,-410.9986 798.8904,-469.8014"/>
<text text-anchor="middle" x="724.8433" y="-453" font-family="Times,serif" font-size="14.00" fill="#000000">GO:0097367</text>
<text text-anchor="middle" x="724.8433" y="-436.2" font-family="Times,serif" font-size="14.00" fill="#000000">carbohydrate derivative</text>
<text text-anchor="middle" x="724.8433" y="-419.4" font-family="Times,serif" font-size="14.00" fill="#000000">binding</text>
</g>
<!-- GO:0032553&#45;&gt;GO:0097367 -->
<g id="edge18" class="edge">
<title>GO:0032553&#45;&gt;GO:0097367</title>
<path fill="none" stroke="#000000" d="M724.8433,-144.3861C724.8433,-196.3908 724.8433,-332.8152 724.8433,-400.7639"/>
<polygon fill="#000000" stroke="#000000" points="721.3434,-401.0579 724.8433,-411.0579 728.3434,-401.058 721.3434,-401.0579"/>
</g>
<!-- GO:0000166&#45;&gt;GO:1901265 -->
<g id="edge21" class="edge">
<title>GO:0000166&#45;&gt;GO:1901265</title>
<path fill="none" stroke="#000000" d="M524.814,-247.0489C513.6497,-253.1726 500.9863,-259.4505 488.8433,-264 421.3995,-289.2684 399.6769,-278.8081 330.8433,-300 324.8933,-301.8318 318.7879,-303.86 312.6794,-305.9973"/>
<polygon fill="#000000" stroke="#000000" points="311.3307,-302.7626 303.0994,-309.4332 313.6939,-309.3517 311.3307,-302.7626"/>
</g>
<!-- GO:0036094 -->
<g id="node19" class="node">
<title>GO:0036094</title>
<polygon fill="#ffffff" stroke="#000000" points="632.7717,-461.0019 484.9149,-461.0019 484.9149,-419.7981 632.7717,-419.7981 632.7717,-461.0019"/>
<text text-anchor="middle" x="558.8433" y="-444.6" font-family="Times,serif" font-size="14.00" fill="#000000">GO:0036094</text>
<text text-anchor="middle" x="558.8433" y="-427.8" font-family="Times,serif" font-size="14.00" fill="#000000">small molecule binding</text>
</g>
<!-- GO:0000166&#45;&gt;GO:0036094 -->
<g id="edge20" class="edge">
<title>GO:0000166&#45;&gt;GO:0036094</title>
<path fill="none" stroke="#000000" d="M558.8433,-247.3089C558.8433,-285.2015 558.8433,-365.381 558.8433,-409.569"/>
<polygon fill="#000000" stroke="#000000" points="555.3434,-409.7213 558.8433,-419.7213 562.3434,-409.7214 555.3434,-409.7213"/>
</g>
<!-- GO:0097367&#45;&gt;GO:0005488 -->
<g id="edge22" class="edge">
<title>GO:0097367&#45;&gt;GO:0005488</title>
<path fill="none" stroke="#000000" d="M668.1798,-469.7558C648.5659,-479.9172 626.763,-491.2127 607.8196,-501.0267"/>
<polygon fill="#000000" stroke="#000000" points="606.0411,-498.0063 598.7719,-505.7141 609.2611,-504.2217 606.0411,-498.0063"/>
</g>
<!-- GO:0036094&#45;&gt;GO:0005488 -->
<g id="edge23" class="edge">
<title>GO:0036094&#45;&gt;GO:0005488</title>
<path fill="none" stroke="#000000" d="M558.8433,-461.2182C558.8433,-471.5705 558.8433,-484.2848 558.8433,-495.7271"/>
<polygon fill="#000000" stroke="#000000" points="555.3434,-495.7735 558.8433,-505.7735 562.3434,-495.7735 555.3434,-495.7735"/>
</g>
<!-- GO:0032550 -->
<g id="node20" class="node">
<title>GO:0032550</title>
<polygon fill="#00ffff" stroke="#000000" points="381.5303,-153.0014 244.1563,-153.0014 244.1563,-94.1986 381.5303,-94.1986 381.5303,-153.0014"/>
<text text-anchor="middle" x="312.8433" y="-136.2" font-family="Times,serif" font-size="14.00" fill="#000000">GO:0032550</text>
<text text-anchor="middle" x="312.8433" y="-119.4" font-family="Times,serif" font-size="14.00" fill="#000000">purine ribonucleoside</text>
<text text-anchor="middle" x="312.8433" y="-102.6" font-family="Times,serif" font-size="14.00" fill="#000000">binding</text>
</g>
<!-- GO:0001883 -->
<g id="node21" class="node">
<title>GO:0001883</title>
<polygon fill="#ffffff" stroke="#000000" points="317.7604,-247.0019 155.9262,-247.0019 155.9262,-205.7981 317.7604,-205.7981 317.7604,-247.0019"/>
<text text-anchor="middle" x="236.8433" y="-230.6" font-family="Times,serif" font-size="14.00" fill="#000000">GO:0001883</text>
<text text-anchor="middle" x="236.8433" y="-213.8" font-family="Times,serif" font-size="14.00" fill="#000000">purine nucleoside binding</text>
</g>
<!-- GO:0032550&#45;&gt;GO:0001883 -->
<g id="edge24" class="edge">
<title>GO:0032550&#45;&gt;GO:0001883</title>
<path fill="none" stroke="#000000" d="M291.0648,-153.0584C280.7487,-167.0121 268.4692,-183.6219 258.2067,-197.5032"/>
<polygon fill="#000000" stroke="#000000" points="255.2435,-195.6238 252.1131,-205.7456 260.8723,-199.7852 255.2435,-195.6238"/>
</g>
<!-- GO:0032549 -->
<g id="node22" class="node">
<title>GO:0032549</title>
<polygon fill="#ffffff" stroke="#000000" points="480.0456,-247.0019 335.641,-247.0019 335.641,-205.7981 480.0456,-205.7981 480.0456,-247.0019"/>
<text text-anchor="middle" x="407.8433" y="-230.6" font-family="Times,serif" font-size="14.00" fill="#000000">GO:0032549</text>
<text text-anchor="middle" x="407.8433" y="-213.8" font-family="Times,serif" font-size="14.00" fill="#000000">ribonucleoside binding</text>
</g>
<!-- GO:0032550&#45;&gt;GO:0032549 -->
<g id="edge25" class="edge">
<title>GO:0032550&#45;&gt;GO:0032549</title>
<path fill="none" stroke="#000000" d="M340.0665,-153.0584C353.2048,-167.2754 368.8911,-184.2496 381.8625,-198.286"/>
<polygon fill="#000000" stroke="#000000" points="379.3986,-200.7769 388.7561,-205.7456 384.5396,-196.026 379.3986,-200.7769"/>
</g>
<!-- GO:0001882 -->
<g id="node23" class="node">
<title>GO:0001882</title>
<polygon fill="#ffffff" stroke="#000000" points="461.9942,-358.2019 339.6924,-358.2019 339.6924,-316.9981 461.9942,-316.9981 461.9942,-358.2019"/>
<text text-anchor="middle" x="400.8433" y="-341.8" font-family="Times,serif" font-size="14.00" fill="#000000">GO:0001882</text>
<text text-anchor="middle" x="400.8433" y="-325" font-family="Times,serif" font-size="14.00" fill="#000000">nucleoside binding</text>
</g>
<!-- GO:0001883&#45;&gt;GO:0001882 -->
<g id="edge26" class="edge">
<title>GO:0001883&#45;&gt;GO:0001882</title>
<path fill="none" stroke="#000000" d="M267.3061,-247.0553C293.9175,-265.0991 332.7072,-291.4004 361.6307,-311.012"/>
<polygon fill="#000000" stroke="#000000" points="360.0248,-314.1518 370.2658,-316.867 363.9533,-308.358 360.0248,-314.1518"/>
</g>
<!-- GO:0032549&#45;&gt;GO:0001882 -->
<g id="edge27" class="edge">
<title>GO:0032549&#45;&gt;GO:0001882</title>
<path fill="none" stroke="#000000" d="M406.5431,-247.0553C405.4889,-263.8017 403.987,-287.6608 402.7895,-306.6834"/>
<polygon fill="#000000" stroke="#000000" points="399.2956,-306.4778 402.1603,-316.678 406.2818,-306.9177 399.2956,-306.4778"/>
</g>
<!-- GO:0001882&#45;&gt;GO:0097159 -->
<g id="edge31" class="edge">
<title>GO:0001882&#45;&gt;GO:0097159</title>
<path fill="none" stroke="#000000" d="M365.0247,-358.4031C341.5078,-372.0615 310.1879,-390.2518 283.0231,-406.0289"/>
<polygon fill="#000000" stroke="#000000" points="281.254,-403.0088 274.3645,-411.0577 284.7697,-409.062 281.254,-403.0088"/>
</g>
<!-- GO:0001882&#45;&gt;GO:1901363 -->
<g id="edge30" class="edge">
<title>GO:0001882&#45;&gt;GO:1901363</title>
<path fill="none" stroke="#000000" d="M399.4267,-358.4031C398.5974,-370.5833 397.5225,-386.3676 396.5377,-400.8305"/>
<polygon fill="#000000" stroke="#000000" points="393.0289,-400.843 395.8413,-411.0577 400.0127,-401.3186 393.0289,-400.843"/>
</g>
<!-- GO:0001882&#45;&gt;GO:0097367 -->
<g id="edge29" class="edge">
<title>GO:0001882&#45;&gt;GO:0097367</title>
<path fill="none" stroke="#000000" d="M461.9802,-355.5006C508.539,-369.3093 574.4254,-389.2271 640.8778,-410.9238"/>
<polygon fill="#000000" stroke="#000000" points="640.0914,-414.3492 650.6841,-414.1374 642.2713,-407.6973 640.0914,-414.3492"/>
</g>
<!-- GO:0001882&#45;&gt;GO:0036094 -->
<g id="edge28" class="edge">
<title>GO:0001882&#45;&gt;GO:0036094</title>
<path fill="none" stroke="#000000" d="M432.817,-358.4031C457.4452,-374.4271 491.6605,-396.6887 518.2261,-413.9731"/>
<polygon fill="#000000" stroke="#000000" points="516.6264,-417.1079 526.9172,-419.6278 520.4439,-411.2405 516.6264,-417.1079"/>
</g>
</g>
</svg>
