<?xml version="1.0" encoding="UTF-8" standalone="no"?>
<!DOCTYPE svg PUBLIC "-//W3C//DTD SVG 1.1//EN"
 "http://www.w3.org/Graphics/SVG/1.1/DTD/svg11.dtd">
<!-- Generated by graphviz version 2.40.1 (20161225.0304)
 -->
<!-- Title: G Pages: 1 -->
<svg width="774pt" height="710pt"
 viewBox="0.00 0.00 773.75 710.40" xmlns="http://www.w3.org/2000/svg" xmlns:xlink="http://www.w3.org/1999/xlink">
<g id="graph0" class="graph" transform="scale(1 1) rotate(0) translate(4 706.4)">
<title>G</title>
<polygon fill="#ffffff" stroke="transparent" points="-4,4 -4,-706.4 769.7546,-706.4 769.7546,4 -4,4"/>
<!-- GO:0007165 -->
<g id="node1" class="node">
<title>GO:0007165</title>
<polygon fill="#00ff00" stroke="#000000" points="130.2733,-427.4019 7.9799,-427.4019 7.9799,-386.1981 130.2733,-386.1981 130.2733,-427.4019"/>
<text text-anchor="middle" x="69.1266" y="-411" font-family="Times,serif" font-size="14.00" fill="#000000">GO:0007165</text>
<text text-anchor="middle" x="69.1266" y="-394.2" font-family="Times,serif" font-size="14.00" fill="#000000">signal transduction</text>
</g>
<!-- GO:0050794 -->
<g id="node2" class="node">
<title>GO:0050794</title>
<polygon fill="#ffa500" stroke="#000000" points="136.0256,-530.6014 2.2276,-530.6014 2.2276,-471.7986 136.0256,-471.7986 136.0256,-530.6014"/>
<text text-anchor="middle" x="69.1266" y="-513.8" font-family="Times,serif" font-size="14.00" fill="#000000">GO:0050794</text>
<text text-anchor="middle" x="69.1266" y="-497" font-family="Times,serif" font-size="14.00" fill="#000000">regulation of cellular</text>
<text text-anchor="middle" x="69.1266" y="-480.2" font-family="Times,serif" font-size="14.00" fill="#000000">process</text>
</g>
<!-- GO:0007165&#45;&gt;GO:0050794 -->
<g id="edge1" class="edge">
<title>GO:0007165&#45;&gt;GO:0050794</title>
<path fill="none" stroke="#000000" d="M69.1266,-427.7504C69.1266,-437.7492 69.1266,-450.0525 69.1266,-461.7106"/>
<polygon fill="#000000" stroke="#000000" points="65.6267,-461.7155 69.1266,-471.7155 72.6267,-461.7156 65.6267,-461.7155"/>
</g>
<!-- GO:0065007 -->
<g id="node3" class="node">
<title>GO:0065007</title>
<polygon fill="#ffa500" stroke="#000000" points="132.38,-616.2019 -.1268,-616.2019 -.1268,-574.9981 132.38,-574.9981 132.38,-616.2019"/>
<text text-anchor="middle" x="66.1266" y="-599.8" font-family="Times,serif" font-size="14.00" fill="#000000">GO:0065007</text>
<text text-anchor="middle" x="66.1266" y="-583" font-family="Times,serif" font-size="14.00" fill="#000000">biological regulation</text>
</g>
<!-- GO:0050794&#45;&gt;GO:0065007 -->
<g id="edge2" class="edge">
<title>GO:0050794&#45;&gt;GO:0065007</title>
<path fill="none" stroke="#000000" d="M68.1938,-530.5513C67.8471,-541.4614 67.453,-553.8637 67.1025,-564.892"/>
<polygon fill="#000000" stroke="#000000" points="63.6023,-564.8448 66.7828,-574.951 70.5988,-565.0672 63.6023,-564.8448"/>
</g>
<!-- GO:0050789 -->
<g id="node4" class="node">
<title>GO:0050789</title>
<polygon fill="#ffa500" stroke="#000000" points="298.041,-625.0014 150.2122,-625.0014 150.2122,-566.1986 298.041,-566.1986 298.041,-625.0014"/>
<text text-anchor="middle" x="224.1266" y="-608.2" font-family="Times,serif" font-size="14.00" fill="#000000">GO:0050789</text>
<text text-anchor="middle" x="224.1266" y="-591.4" font-family="Times,serif" font-size="14.00" fill="#000000">regulation of biological</text>
<text text-anchor="middle" x="224.1266" y="-574.6" font-family="Times,serif" font-size="14.00" fill="#000000">process</text>
</g>
<!-- GO:0050794&#45;&gt;GO:0050789 -->
<g id="edge3" class="edge">
<title>GO:0050794&#45;&gt;GO:0050789</title>
<path fill="none" stroke="#000000" d="M117.3199,-530.5513C133.0663,-540.1413 150.7056,-550.8842 167.0418,-560.8335"/>
<polygon fill="#000000" stroke="#000000" points="165.6018,-564.0545 175.9631,-566.2669 169.2429,-558.076 165.6018,-564.0545"/>
</g>
<!-- GO:0008150 -->
<g id="node5" class="node">
<title>GO:0008150</title>
<polygon fill="#ffffff" stroke="#000000" points="359.5972,-702.2019 238.656,-702.2019 238.656,-660.9981 359.5972,-660.9981 359.5972,-702.2019"/>
<text text-anchor="middle" x="299.1266" y="-685.8" font-family="Times,serif" font-size="14.00" fill="#000000">GO:0008150</text>
<text text-anchor="middle" x="299.1266" y="-669" font-family="Times,serif" font-size="14.00" fill="#000000">biological_process</text>
</g>
<!-- GO:0065007&#45;&gt;GO:0008150 -->
<g id="edge4" class="edge">
<title>GO:0065007&#45;&gt;GO:0008150</title>
<path fill="none" stroke="#000000" d="M118.9178,-616.3529C126.3627,-619.2214 133.9293,-622.1057 141.1266,-624.8 170.4306,-635.7697 202.9394,-647.5266 230.8132,-657.4819"/>
<polygon fill="#000000" stroke="#000000" points="229.8717,-660.862 240.4664,-660.9238 232.2227,-654.2686 229.8717,-660.862"/>
</g>
<!-- GO:0050789&#45;&gt;GO:0008150 -->
<g id="edge5" class="edge">
<title>GO:0050789&#45;&gt;GO:0008150</title>
<path fill="none" stroke="#000000" d="M249.9373,-625.1963C257.8683,-634.2905 266.5744,-644.2734 274.4289,-653.28"/>
<polygon fill="#000000" stroke="#000000" points="271.8608,-655.6603 281.0713,-660.8966 277.1364,-651.0595 271.8608,-655.6603"/>
</g>
<!-- GO:0035556 -->
<g id="node6" class="node">
<title>GO:0035556</title>
<polygon fill="#ff00ff" stroke="#000000" points="129.2004,-341.8014 9.0528,-341.8014 9.0528,-282.9986 129.2004,-282.9986 129.2004,-341.8014"/>
<text text-anchor="middle" x="69.1266" y="-325" font-family="Times,serif" font-size="14.00" fill="#000000">GO:0035556</text>
<text text-anchor="middle" x="69.1266" y="-308.2" font-family="Times,serif" font-size="14.00" fill="#000000">intracellular signal</text>
<text text-anchor="middle" x="69.1266" y="-291.4" font-family="Times,serif" font-size="14.00" fill="#000000">transduction</text>
</g>
<!-- GO:0035556&#45;&gt;GO:0007165 -->
<g id="edge6" class="edge">
<title>GO:0035556&#45;&gt;GO:0007165</title>
<path fill="none" stroke="#000000" d="M69.1266,-341.7513C69.1266,-352.6614 69.1266,-365.0637 69.1266,-376.092"/>
<polygon fill="#000000" stroke="#000000" points="65.6267,-376.1509 69.1266,-386.151 72.6267,-376.151 65.6267,-376.1509"/>
</g>
<!-- GO:0044260 -->
<g id="node7" class="node">
<title>GO:0044260</title>
<polygon fill="#ffff00" stroke="#000000" points="607.899,-341.8014 460.3542,-341.8014 460.3542,-282.9986 607.899,-282.9986 607.899,-341.8014"/>
<text text-anchor="middle" x="534.1266" y="-325" font-family="Times,serif" font-size="14.00" fill="#000000">GO:0044260</text>
<text text-anchor="middle" x="534.1266" y="-308.2" font-family="Times,serif" font-size="14.00" fill="#000000">cellular macromolecule</text>
<text text-anchor="middle" x="534.1266" y="-291.4" font-family="Times,serif" font-size="14.00" fill="#000000">metabolic process</text>
</g>
<!-- GO:0044237 -->
<g id="node8" class="node">
<title>GO:0044237</title>
<polygon fill="#ffff00" stroke="#000000" points="606.3094,-436.2014 489.9438,-436.2014 489.9438,-377.3986 606.3094,-377.3986 606.3094,-436.2014"/>
<text text-anchor="middle" x="548.1266" y="-419.4" font-family="Times,serif" font-size="14.00" fill="#000000">GO:0044237</text>
<text text-anchor="middle" x="548.1266" y="-402.6" font-family="Times,serif" font-size="14.00" fill="#000000">cellular metabolic</text>
<text text-anchor="middle" x="548.1266" y="-385.8" font-family="Times,serif" font-size="14.00" fill="#000000">process</text>
</g>
<!-- GO:0044260&#45;&gt;GO:0044237 -->
<g id="edge7" class="edge">
<title>GO:0044260&#45;&gt;GO:0044237</title>
<path fill="none" stroke="#000000" d="M538.4795,-341.7513C539.6911,-349.9206 541.0267,-358.9264 542.308,-367.5657"/>
<polygon fill="#000000" stroke="#000000" points="538.8471,-368.0885 543.7763,-377.4669 545.7714,-367.0616 538.8471,-368.0885"/>
</g>
<!-- GO:0043170 -->
<g id="node9" class="node">
<title>GO:0043170</title>
<polygon fill="#ffffff" stroke="#000000" points="326.6288,-436.2014 165.6244,-436.2014 165.6244,-377.3986 326.6288,-377.3986 326.6288,-436.2014"/>
<text text-anchor="middle" x="246.1266" y="-419.4" font-family="Times,serif" font-size="14.00" fill="#000000">GO:0043170</text>
<text text-anchor="middle" x="246.1266" y="-402.6" font-family="Times,serif" font-size="14.00" fill="#000000">macromolecule metabolic</text>
<text text-anchor="middle" x="246.1266" y="-385.8" font-family="Times,serif" font-size="14.00" fill="#000000">process</text>
</g>
<!-- GO:0044260&#45;&gt;GO:0043170 -->
<g id="edge8" class="edge">
<title>GO:0044260&#45;&gt;GO:0043170</title>
<path fill="none" stroke="#000000" d="M459.9533,-338.62C456.9745,-339.6333 454.0236,-340.63 451.1266,-341.6 413.7381,-354.1192 372.3226,-367.4014 336.5603,-378.688"/>
<polygon fill="#000000" stroke="#000000" points="335.1175,-375.4729 326.6315,-381.8162 337.2211,-382.1494 335.1175,-375.4729"/>
</g>
<!-- GO:0009987 -->
<g id="node10" class="node">
<title>GO:0009987</title>
<polygon fill="#ff0000" stroke="#000000" points="615.0828,-521.8019 511.1704,-521.8019 511.1704,-480.5981 615.0828,-480.5981 615.0828,-521.8019"/>
<text text-anchor="middle" x="563.1266" y="-505.4" font-family="Times,serif" font-size="14.00" fill="#000000">GO:0009987</text>
<text text-anchor="middle" x="563.1266" y="-488.6" font-family="Times,serif" font-size="14.00" fill="#000000">cellular process</text>
</g>
<!-- GO:0044237&#45;&gt;GO:0009987 -->
<g id="edge9" class="edge">
<title>GO:0044237&#45;&gt;GO:0009987</title>
<path fill="none" stroke="#000000" d="M552.7905,-436.1513C554.5241,-447.0614 556.4948,-459.4637 558.2471,-470.492"/>
<polygon fill="#000000" stroke="#000000" points="554.8195,-471.2242 559.8455,-480.551 561.7328,-470.1256 554.8195,-471.2242"/>
</g>
<!-- GO:0008152 -->
<g id="node11" class="node">
<title>GO:0008152</title>
<polygon fill="#ffffff" stroke="#000000" points="432.3122,-616.2019 315.941,-616.2019 315.941,-574.9981 432.3122,-574.9981 432.3122,-616.2019"/>
<text text-anchor="middle" x="374.1266" y="-599.8" font-family="Times,serif" font-size="14.00" fill="#000000">GO:0008152</text>
<text text-anchor="middle" x="374.1266" y="-583" font-family="Times,serif" font-size="14.00" fill="#000000">metabolic process</text>
</g>
<!-- GO:0044237&#45;&gt;GO:0008152 -->
<g id="edge10" class="edge">
<title>GO:0044237&#45;&gt;GO:0008152</title>
<path fill="none" stroke="#000000" d="M527.0523,-436.1724C519.1419,-447.327 510.1319,-460.1885 502.1266,-472 484.7532,-497.6338 485.4681,-507.9619 464.1266,-530.4 450.4388,-544.7912 433.2071,-558.1508 417.4947,-568.9816"/>
<polygon fill="#000000" stroke="#000000" points="415.2963,-566.2422 408.954,-574.729 419.2045,-572.0497 415.2963,-566.2422"/>
</g>
<!-- GO:0071704 -->
<g id="node12" class="node">
<title>GO:0071704</title>
<polygon fill="#ffff00" stroke="#000000" points="272.3122,-530.6014 155.941,-530.6014 155.941,-471.7986 272.3122,-471.7986 272.3122,-530.6014"/>
<text text-anchor="middle" x="214.1266" y="-513.8" font-family="Times,serif" font-size="14.00" fill="#000000">GO:0071704</text>
<text text-anchor="middle" x="214.1266" y="-497" font-family="Times,serif" font-size="14.00" fill="#000000">organic substance</text>
<text text-anchor="middle" x="214.1266" y="-480.2" font-family="Times,serif" font-size="14.00" fill="#000000">metabolic process</text>
</g>
<!-- GO:0043170&#45;&gt;GO:0071704 -->
<g id="edge11" class="edge">
<title>GO:0043170&#45;&gt;GO:0071704</title>
<path fill="none" stroke="#000000" d="M236.177,-436.1513C233.3777,-444.4094 230.2885,-453.5223 227.3309,-462.2473"/>
<polygon fill="#000000" stroke="#000000" points="223.9658,-461.2725 224.07,-471.8669 230.5952,-463.5199 223.9658,-461.2725"/>
</g>
<!-- GO:0009987&#45;&gt;GO:0008150 -->
<g id="edge12" class="edge">
<title>GO:0009987&#45;&gt;GO:0008150</title>
<path fill="none" stroke="#000000" d="M547.0458,-522.1869C525.4852,-549.1072 484.8302,-595.7773 441.1266,-624.8 419.3534,-639.2592 393.329,-650.9969 369.5422,-659.9682"/>
<polygon fill="#000000" stroke="#000000" points="368.0395,-656.7912 359.8547,-663.5186 370.4484,-663.3637 368.0395,-656.7912"/>
</g>
<!-- GO:0008152&#45;&gt;GO:0008150 -->
<g id="edge13" class="edge">
<title>GO:0008152&#45;&gt;GO:0008150</title>
<path fill="none" stroke="#000000" d="M355.9712,-616.4182C346.2982,-627.5099 334.2604,-641.3132 323.756,-653.3583"/>
<polygon fill="#000000" stroke="#000000" points="321.0497,-651.1364 317.1148,-660.9735 326.3253,-655.7373 321.0497,-651.1364"/>
</g>
<!-- GO:0071704&#45;&gt;GO:0008152 -->
<g id="edge14" class="edge">
<title>GO:0071704&#45;&gt;GO:0008152</title>
<path fill="none" stroke="#000000" d="M263.8745,-530.5513C285.1306,-543.0923 309.7281,-557.6049 330.2893,-569.736"/>
<polygon fill="#000000" stroke="#000000" points="328.737,-572.8839 339.1283,-574.951 332.2941,-566.855 328.737,-572.8839"/>
</g>
<!-- GO:0006468 -->
<g id="node13" class="node">
<title>GO:0006468</title>
<polygon fill="#ffff00" stroke="#000000" points="663.2747,-41.4019 512.9785,-41.4019 512.9785,-.1981 663.2747,-.1981 663.2747,-41.4019"/>
<text text-anchor="middle" x="588.1266" y="-25" font-family="Times,serif" font-size="14.00" fill="#000000">GO:0006468</text>
<text text-anchor="middle" x="588.1266" y="-8.2" font-family="Times,serif" font-size="14.00" fill="#000000">protein phosphorylation</text>
</g>
<!-- GO:0016310 -->
<g id="node14" class="node">
<title>GO:0016310</title>
<polygon fill="#ffffff" stroke="#000000" points="721.6182,-127.4019 614.635,-127.4019 614.635,-86.1981 721.6182,-86.1981 721.6182,-127.4019"/>
<text text-anchor="middle" x="668.1266" y="-111" font-family="Times,serif" font-size="14.00" fill="#000000">GO:0016310</text>
<text text-anchor="middle" x="668.1266" y="-94.2" font-family="Times,serif" font-size="14.00" fill="#000000">phosphorylation</text>
</g>
<!-- GO:0006468&#45;&gt;GO:0016310 -->
<g id="edge15" class="edge">
<title>GO:0006468&#45;&gt;GO:0016310</title>
<path fill="none" stroke="#000000" d="M607.4924,-41.6182C617.8103,-52.7099 630.6505,-66.5132 641.8552,-78.5583"/>
<polygon fill="#000000" stroke="#000000" points="639.5654,-81.2355 648.9392,-86.1735 644.6908,-76.4677 639.5654,-81.2355"/>
</g>
<!-- GO:0006464 -->
<g id="node15" class="node">
<title>GO:0006464</title>
<polygon fill="#ffff00" stroke="#000000" points="585.6484,-136.2014 452.6048,-136.2014 452.6048,-77.3986 585.6484,-77.3986 585.6484,-136.2014"/>
<text text-anchor="middle" x="519.1266" y="-119.4" font-family="Times,serif" font-size="14.00" fill="#000000">GO:0006464</text>
<text text-anchor="middle" x="519.1266" y="-102.6" font-family="Times,serif" font-size="14.00" fill="#000000">cellular protein</text>
<text text-anchor="middle" x="519.1266" y="-85.8" font-family="Times,serif" font-size="14.00" fill="#000000">modification process</text>
</g>
<!-- GO:0006468&#45;&gt;GO:0006464 -->
<g id="edge16" class="edge">
<title>GO:0006468&#45;&gt;GO:0006464</title>
<path fill="none" stroke="#000000" d="M571.4236,-41.6182C564.6932,-50.0069 556.7183,-59.9466 549.0504,-69.5037"/>
<polygon fill="#000000" stroke="#000000" points="546.2438,-67.409 542.7157,-77.3991 551.7036,-71.7896 546.2438,-67.409"/>
</g>
<!-- GO:0006796 -->
<g id="node16" class="node">
<title>GO:0006796</title>
<polygon fill="#ffff00" stroke="#000000" points="748.1534,-247.3003 612.0998,-247.3003 612.0998,-171.8997 748.1534,-171.8997 748.1534,-247.3003"/>
<text text-anchor="middle" x="680.1266" y="-230.6" font-family="Times,serif" font-size="14.00" fill="#000000">GO:0006796</text>
<text text-anchor="middle" x="680.1266" y="-213.8" font-family="Times,serif" font-size="14.00" fill="#000000">phosphate&#45;containing</text>
<text text-anchor="middle" x="680.1266" y="-197" font-family="Times,serif" font-size="14.00" fill="#000000">compound metabolic</text>
<text text-anchor="middle" x="680.1266" y="-180.2" font-family="Times,serif" font-size="14.00" fill="#000000">process</text>
</g>
<!-- GO:0016310&#45;&gt;GO:0006796 -->
<g id="edge17" class="edge">
<title>GO:0016310&#45;&gt;GO:0006796</title>
<path fill="none" stroke="#000000" d="M670.555,-127.6031C671.7107,-137.5035 673.1443,-149.785 674.5471,-161.8026"/>
<polygon fill="#000000" stroke="#000000" points="671.0756,-162.2505 675.7115,-171.7773 678.0284,-161.4389 671.0756,-162.2505"/>
</g>
<!-- GO:0044267 -->
<g id="node17" class="node">
<title>GO:0044267</title>
<polygon fill="#ffffff" stroke="#000000" points="577.3122,-239.0014 460.941,-239.0014 460.941,-180.1986 577.3122,-180.1986 577.3122,-239.0014"/>
<text text-anchor="middle" x="519.1266" y="-222.2" font-family="Times,serif" font-size="14.00" fill="#000000">GO:0044267</text>
<text text-anchor="middle" x="519.1266" y="-205.4" font-family="Times,serif" font-size="14.00" fill="#000000">cellular protein</text>
<text text-anchor="middle" x="519.1266" y="-188.6" font-family="Times,serif" font-size="14.00" fill="#000000">metabolic process</text>
</g>
<!-- GO:0006464&#45;&gt;GO:0044267 -->
<g id="edge18" class="edge">
<title>GO:0006464&#45;&gt;GO:0044267</title>
<path fill="none" stroke="#000000" d="M519.1266,-136.2584C519.1266,-146.7969 519.1266,-158.8505 519.1266,-170.0994"/>
<polygon fill="#000000" stroke="#000000" points="515.6267,-170.1373 519.1266,-180.1373 522.6267,-170.1374 515.6267,-170.1373"/>
</g>
<!-- GO:0036211 -->
<g id="node18" class="node">
<title>GO:0036211</title>
<polygon fill="#ffffff" stroke="#000000" points="427.3261,-239.0014 296.9271,-239.0014 296.9271,-180.1986 427.3261,-180.1986 427.3261,-239.0014"/>
<text text-anchor="middle" x="362.1266" y="-222.2" font-family="Times,serif" font-size="14.00" fill="#000000">GO:0036211</text>
<text text-anchor="middle" x="362.1266" y="-205.4" font-family="Times,serif" font-size="14.00" fill="#000000">protein modification</text>
<text text-anchor="middle" x="362.1266" y="-188.6" font-family="Times,serif" font-size="14.00" fill="#000000">process</text>
</g>
<!-- GO:0006464&#45;&gt;GO:0036211 -->
<g id="edge19" class="edge">
<title>GO:0006464&#45;&gt;GO:0036211</title>
<path fill="none" stroke="#000000" d="M474.1367,-136.2584C455.8282,-148.2464 434.5258,-162.1947 415.4438,-174.6891"/>
<polygon fill="#000000" stroke="#000000" points="413.3003,-171.9091 406.8514,-180.3152 417.1349,-177.7654 413.3003,-171.9091"/>
</g>
<!-- GO:0006793 -->
<g id="node19" class="node">
<title>GO:0006793</title>
<polygon fill="#ffffff" stroke="#000000" points="765.8828,-341.8014 626.3704,-341.8014 626.3704,-282.9986 765.8828,-282.9986 765.8828,-341.8014"/>
<text text-anchor="middle" x="696.1266" y="-325" font-family="Times,serif" font-size="14.00" fill="#000000">GO:0006793</text>
<text text-anchor="middle" x="696.1266" y="-308.2" font-family="Times,serif" font-size="14.00" fill="#000000">phosphorus metabolic</text>
<text text-anchor="middle" x="696.1266" y="-291.4" font-family="Times,serif" font-size="14.00" fill="#000000">process</text>
</g>
<!-- GO:0006796&#45;&gt;GO:0006793 -->
<g id="edge20" class="edge">
<title>GO:0006796&#45;&gt;GO:0006793</title>
<path fill="none" stroke="#000000" d="M685.9936,-247.2952C687.2997,-255.6874 688.6878,-264.6054 690.0039,-273.0618"/>
<polygon fill="#000000" stroke="#000000" points="686.567,-273.7386 691.5634,-283.0814 693.4838,-272.662 686.567,-273.7386"/>
</g>
<!-- GO:0044267&#45;&gt;GO:0044260 -->
<g id="edge22" class="edge">
<title>GO:0044267&#45;&gt;GO:0044260</title>
<path fill="none" stroke="#000000" d="M523.425,-239.0584C524.9627,-249.5969 526.7215,-261.6505 528.3629,-272.8994"/>
<polygon fill="#000000" stroke="#000000" points="524.9203,-273.5475 529.8276,-282.9373 531.847,-272.5367 524.9203,-273.5475"/>
</g>
<!-- GO:0019538 -->
<g id="node20" class="node">
<title>GO:0019538</title>
<polygon fill="#ffff00" stroke="#000000" points="441.9683,-333.0019 282.2849,-333.0019 282.2849,-291.7981 441.9683,-291.7981 441.9683,-333.0019"/>
<text text-anchor="middle" x="362.1266" y="-316.6" font-family="Times,serif" font-size="14.00" fill="#000000">GO:0019538</text>
<text text-anchor="middle" x="362.1266" y="-299.8" font-family="Times,serif" font-size="14.00" fill="#000000">protein metabolic process</text>
</g>
<!-- GO:0044267&#45;&gt;GO:0019538 -->
<g id="edge21" class="edge">
<title>GO:0044267&#45;&gt;GO:0019538</title>
<path fill="none" stroke="#000000" d="M474.1367,-239.0584C451.4186,-253.9336 424.0909,-271.8272 402.1157,-286.2161"/>
<polygon fill="#000000" stroke="#000000" points="400.1196,-283.3395 393.6707,-291.7456 403.9542,-289.1958 400.1196,-283.3395"/>
</g>
<!-- GO:0036211&#45;&gt;GO:0019538 -->
<g id="edge23" class="edge">
<title>GO:0036211&#45;&gt;GO:0019538</title>
<path fill="none" stroke="#000000" d="M362.1266,-239.0584C362.1266,-252.3539 362.1266,-268.0608 362.1266,-281.5212"/>
<polygon fill="#000000" stroke="#000000" points="358.6267,-281.7456 362.1266,-291.7456 365.6267,-281.7457 358.6267,-281.7456"/>
</g>
<!-- GO:0043412 -->
<g id="node21" class="node">
<title>GO:0043412</title>
<polygon fill="#ffffff" stroke="#000000" points="264.423,-341.8014 161.8302,-341.8014 161.8302,-282.9986 264.423,-282.9986 264.423,-341.8014"/>
<text text-anchor="middle" x="213.1266" y="-325" font-family="Times,serif" font-size="14.00" fill="#000000">GO:0043412</text>
<text text-anchor="middle" x="213.1266" y="-308.2" font-family="Times,serif" font-size="14.00" fill="#000000">macromolecule</text>
<text text-anchor="middle" x="213.1266" y="-291.4" font-family="Times,serif" font-size="14.00" fill="#000000">modification</text>
</g>
<!-- GO:0036211&#45;&gt;GO:0043412 -->
<g id="edge24" class="edge">
<title>GO:0036211&#45;&gt;GO:0043412</title>
<path fill="none" stroke="#000000" d="M319.4292,-239.0584C302.2101,-250.9384 282.2007,-264.7435 264.217,-277.1511"/>
<polygon fill="#000000" stroke="#000000" points="261.8159,-274.5554 255.5725,-283.1152 265.7912,-280.3172 261.8159,-274.5554"/>
</g>
<!-- GO:0006793&#45;&gt;GO:0044237 -->
<g id="edge25" class="edge">
<title>GO:0006793&#45;&gt;GO:0044237</title>
<path fill="none" stroke="#000000" d="M650.1098,-341.7513C635.0745,-351.3413 618.2318,-362.0842 602.6334,-372.0335"/>
<polygon fill="#000000" stroke="#000000" points="600.6638,-369.1384 594.115,-377.4669 604.4282,-375.0401 600.6638,-369.1384"/>
</g>
<!-- GO:0019538&#45;&gt;GO:0043170 -->
<g id="edge27" class="edge">
<title>GO:0019538&#45;&gt;GO:0043170</title>
<path fill="none" stroke="#000000" d="M336.6699,-333.1165C323.0397,-344.2087 305.8641,-358.186 290.1454,-370.9778"/>
<polygon fill="#000000" stroke="#000000" points="287.6319,-368.5107 282.0848,-377.5374 292.0503,-373.9401 287.6319,-368.5107"/>
</g>
<!-- GO:0044238 -->
<g id="node22" class="node">
<title>GO:0044238</title>
<polygon fill="#ffff00" stroke="#000000" points="455.1296,-521.8019 291.1236,-521.8019 291.1236,-480.5981 455.1296,-480.5981 455.1296,-521.8019"/>
<text text-anchor="middle" x="373.1266" y="-505.4" font-family="Times,serif" font-size="14.00" fill="#000000">GO:0044238</text>
<text text-anchor="middle" x="373.1266" y="-488.6" font-family="Times,serif" font-size="14.00" fill="#000000">primary metabolic process</text>
</g>
<!-- GO:0019538&#45;&gt;GO:0044238 -->
<g id="edge26" class="edge">
<title>GO:0019538&#45;&gt;GO:0044238</title>
<path fill="none" stroke="#000000" d="M363.3458,-333.3263C365.2837,-366.5865 369.0769,-431.6928 371.3276,-470.3227"/>
<polygon fill="#000000" stroke="#000000" points="367.8429,-470.6883 371.9187,-480.4677 374.831,-470.2811 367.8429,-470.6883"/>
</g>
<!-- GO:0043412&#45;&gt;GO:0043170 -->
<g id="edge28" class="edge">
<title>GO:0043412&#45;&gt;GO:0043170</title>
<path fill="none" stroke="#000000" d="M223.3871,-341.7513C226.2739,-350.0094 229.4596,-359.1223 232.5096,-367.8473"/>
<polygon fill="#000000" stroke="#000000" points="229.2685,-369.182 235.8724,-377.4669 235.8764,-366.872 229.2685,-369.182"/>
</g>
<!-- GO:0044238&#45;&gt;GO:0008152 -->
<g id="edge29" class="edge">
<title>GO:0044238&#45;&gt;GO:0008152</title>
<path fill="none" stroke="#000000" d="M373.3485,-522.1504C373.4806,-534.6165 373.6506,-550.6645 373.798,-564.5786"/>
<polygon fill="#000000" stroke="#000000" points="370.2995,-564.7458 373.9053,-574.7081 377.2991,-564.6716 370.2995,-564.7458"/>
</g>
</g>
</svg>
