<?xml version="1.0" encoding="UTF-8" standalone="no"?>
<!DOCTYPE svg PUBLIC "-//W3C//DTD SVG 1.1//EN"
 "http://www.w3.org/Graphics/SVG/1.1/DTD/svg11.dtd">
<!-- Generated by graphviz version 2.40.1 (20161225.0304)
 -->
<!-- Title: G Pages: 1 -->
<svg width="254pt" height="282pt"
 viewBox="0.00 0.00 254.16 282.40" xmlns="http://www.w3.org/2000/svg" xmlns:xlink="http://www.w3.org/1999/xlink">
<g id="graph0" class="graph" transform="scale(1 1) rotate(0) translate(4 278.4)">
<title>G</title>
<polygon fill="#ffffff" stroke="transparent" points="-4,4 -4,-278.4 250.161,-278.4 250.161,4 -4,4"/>
<!-- GO:0005737 -->
<g id="node1" class="node">
<title>GO:0005737</title>
<polygon fill="#00ffff" stroke="#000000" points="89.1558,-41.4019 -.052,-41.4019 -.052,-.1981 89.1558,-.1981 89.1558,-41.4019"/>
<text text-anchor="middle" x="44.5519" y="-25" font-family="Times,serif" font-size="14.00" fill="#000000">GO:0005737</text>
<text text-anchor="middle" x="44.5519" y="-8.2" font-family="Times,serif" font-size="14.00" fill="#000000">cytoplasm</text>
</g>
<!-- GO:0044424 -->
<g id="node2" class="node">
<title>GO:0044424</title>
<polygon fill="#ff0000" stroke="#000000" points="123.9503,-119.0019 15.1535,-119.0019 15.1535,-77.7981 123.9503,-77.7981 123.9503,-119.0019"/>
<text text-anchor="middle" x="69.5519" y="-102.6" font-family="Times,serif" font-size="14.00" fill="#000000">GO:0044424</text>
<text text-anchor="middle" x="69.5519" y="-85.8" font-family="Times,serif" font-size="14.00" fill="#000000">intracellular part</text>
</g>
<!-- GO:0005737&#45;&gt;GO:0044424 -->
<g id="edge1" class="edge">
<title>GO:0005737&#45;&gt;GO:0044424</title>
<path fill="none" stroke="#000000" d="M51.2514,-41.5954C53.8576,-49.6848 56.8959,-59.1159 59.7395,-67.9424"/>
<polygon fill="#000000" stroke="#000000" points="56.436,-69.1023 62.8339,-77.5472 63.0987,-66.9557 56.436,-69.1023"/>
</g>
<!-- GO:0044464 -->
<g id="node3" class="node">
<title>GO:0044464</title>
<polygon fill="#ff0000" stroke="#000000" points="114.1558,-196.6019 24.948,-196.6019 24.948,-155.3981 114.1558,-155.3981 114.1558,-196.6019"/>
<text text-anchor="middle" x="69.5519" y="-180.2" font-family="Times,serif" font-size="14.00" fill="#000000">GO:0044464</text>
<text text-anchor="middle" x="69.5519" y="-163.4" font-family="Times,serif" font-size="14.00" fill="#000000">cell part</text>
</g>
<!-- GO:0044424&#45;&gt;GO:0044464 -->
<g id="edge2" class="edge">
<title>GO:0044424&#45;&gt;GO:0044464</title>
<path fill="none" stroke="#000000" d="M69.5519,-119.1954C69.5519,-127.1109 69.5519,-136.3109 69.5519,-144.9722"/>
<polygon fill="#000000" stroke="#000000" points="66.052,-145.1472 69.5519,-155.1472 73.052,-145.1473 66.052,-145.1472"/>
</g>
<!-- GO:0005575 -->
<g id="node4" class="node">
<title>GO:0005575</title>
<polygon fill="#ffffff" stroke="#000000" points="186.2386,-274.2019 58.8652,-274.2019 58.8652,-232.9981 186.2386,-232.9981 186.2386,-274.2019"/>
<text text-anchor="middle" x="122.5519" y="-257.8" font-family="Times,serif" font-size="14.00" fill="#000000">GO:0005575</text>
<text text-anchor="middle" x="122.5519" y="-241" font-family="Times,serif" font-size="14.00" fill="#000000">cellular_component</text>
</g>
<!-- GO:0044464&#45;&gt;GO:0005575 -->
<g id="edge3" class="edge">
<title>GO:0044464&#45;&gt;GO:0005575</title>
<path fill="none" stroke="#000000" d="M83.7549,-196.7954C89.5176,-205.2328 96.2771,-215.1297 102.5252,-224.2778"/>
<polygon fill="#000000" stroke="#000000" points="99.7794,-226.4634 108.3097,-232.7472 105.5599,-222.5154 99.7794,-226.4634"/>
</g>
<!-- GO:0043229 -->
<g id="node5" class="node">
<title>GO:0043229</title>
<polygon fill="#00ffff" stroke="#000000" points="246.2703,-41.4019 106.8335,-41.4019 106.8335,-.1981 246.2703,-.1981 246.2703,-41.4019"/>
<text text-anchor="middle" x="176.5519" y="-25" font-family="Times,serif" font-size="14.00" fill="#000000">GO:0043229</text>
<text text-anchor="middle" x="176.5519" y="-8.2" font-family="Times,serif" font-size="14.00" fill="#000000">intracellular organelle</text>
</g>
<!-- GO:0043229&#45;&gt;GO:0044424 -->
<g id="edge4" class="edge">
<title>GO:0043229&#45;&gt;GO:0044424</title>
<path fill="none" stroke="#000000" d="M147.8779,-41.5954C135.1644,-50.8156 120.0476,-61.7788 106.5012,-71.6031"/>
<polygon fill="#000000" stroke="#000000" points="104.3455,-68.8429 98.3051,-77.5472 108.4551,-74.5096 104.3455,-68.8429"/>
</g>
<!-- GO:0043226 -->
<g id="node6" class="node">
<title>GO:0043226</title>
<polygon fill="#00ffff" stroke="#000000" points="221.1558,-196.6019 131.948,-196.6019 131.948,-155.3981 221.1558,-155.3981 221.1558,-196.6019"/>
<text text-anchor="middle" x="176.5519" y="-180.2" font-family="Times,serif" font-size="14.00" fill="#000000">GO:0043226</text>
<text text-anchor="middle" x="176.5519" y="-163.4" font-family="Times,serif" font-size="14.00" fill="#000000">organelle</text>
</g>
<!-- GO:0043229&#45;&gt;GO:0043226 -->
<g id="edge5" class="edge">
<title>GO:0043229&#45;&gt;GO:0043226</title>
<path fill="none" stroke="#000000" d="M176.5519,-41.4094C176.5519,-67.9627 176.5519,-114.3577 176.5519,-145.1304"/>
<polygon fill="#000000" stroke="#000000" points="173.052,-145.3054 176.5519,-155.3054 180.052,-145.3054 173.052,-145.3054"/>
</g>
<!-- GO:0043226&#45;&gt;GO:0005575 -->
<g id="edge6" class="edge">
<title>GO:0043226&#45;&gt;GO:0005575</title>
<path fill="none" stroke="#000000" d="M162.0809,-196.7954C156.2095,-205.2328 149.3225,-215.1297 142.9565,-224.2778"/>
<polygon fill="#000000" stroke="#000000" points="139.9019,-222.5398 137.0629,-232.7472 145.6477,-226.5382 139.9019,-222.5398"/>
</g>
</g>
</svg>
