<?xml version="1.0" encoding="UTF-8" standalone="no"?>
<!DOCTYPE svg PUBLIC "-//W3C//DTD SVG 1.1//EN"
 "http://www.w3.org/Graphics/SVG/1.1/DTD/svg11.dtd">
<!-- Generated by graphviz version 2.40.1 (20161225.0304)
 -->
<!-- Title: G Pages: 1 -->
<svg width="632pt" height="394pt"
 viewBox="0.00 0.00 631.66 393.60" xmlns="http://www.w3.org/2000/svg" xmlns:xlink="http://www.w3.org/1999/xlink">
<g id="graph0" class="graph" transform="scale(1 1) rotate(0) translate(4 389.6)">
<title>G</title>
<polygon fill="#ffffff" stroke="transparent" points="-4,4 -4,-389.6 627.6561,-389.6 627.6561,4 -4,4"/>
<!-- GO:0043229 -->
<g id="node1" class="node">
<title>GO:0043229</title>
<polygon fill="#ffff00" stroke="#000000" points="285.6988,-144.2019 146.262,-144.2019 146.262,-102.9981 285.6988,-102.9981 285.6988,-144.2019"/>
<text text-anchor="middle" x="215.9804" y="-127.8" font-family="Times,serif" font-size="14.00" fill="#000000">GO:0043229</text>
<text text-anchor="middle" x="215.9804" y="-111" font-family="Times,serif" font-size="14.00" fill="#000000">intracellular organelle</text>
</g>
<!-- GO:0044424 -->
<g id="node2" class="node">
<title>GO:0044424</title>
<polygon fill="#ff0000" stroke="#000000" points="375.3788,-230.2019 266.582,-230.2019 266.582,-188.9981 375.3788,-188.9981 375.3788,-230.2019"/>
<text text-anchor="middle" x="320.9804" y="-213.8" font-family="Times,serif" font-size="14.00" fill="#000000">GO:0044424</text>
<text text-anchor="middle" x="320.9804" y="-197" font-family="Times,serif" font-size="14.00" fill="#000000">intracellular part</text>
</g>
<!-- GO:0043229&#45;&gt;GO:0044424 -->
<g id="edge1" class="edge">
<title>GO:0043229&#45;&gt;GO:0044424</title>
<path fill="none" stroke="#000000" d="M241.398,-144.4182C255.3271,-155.8268 272.7588,-170.1042 287.7544,-182.3863"/>
<polygon fill="#000000" stroke="#000000" points="285.8428,-185.3448 295.7969,-188.9735 290.2783,-179.9294 285.8428,-185.3448"/>
</g>
<!-- GO:0043226 -->
<g id="node3" class="node">
<title>GO:0043226</title>
<polygon fill="#ffff00" stroke="#000000" points="248.5843,-230.2019 159.3765,-230.2019 159.3765,-188.9981 248.5843,-188.9981 248.5843,-230.2019"/>
<text text-anchor="middle" x="203.9804" y="-213.8" font-family="Times,serif" font-size="14.00" fill="#000000">GO:0043226</text>
<text text-anchor="middle" x="203.9804" y="-197" font-family="Times,serif" font-size="14.00" fill="#000000">organelle</text>
</g>
<!-- GO:0043229&#45;&gt;GO:0043226 -->
<g id="edge2" class="edge">
<title>GO:0043229&#45;&gt;GO:0043226</title>
<path fill="none" stroke="#000000" d="M213.0755,-144.4182C211.631,-154.7705 209.8569,-167.4848 208.2603,-178.9271"/>
<polygon fill="#000000" stroke="#000000" points="204.7741,-178.5857 206.8585,-188.9735 211.707,-179.5532 204.7741,-178.5857"/>
</g>
<!-- GO:0044464 -->
<g id="node4" class="node">
<title>GO:0044464</title>
<polygon fill="#ff0000" stroke="#000000" points="335.5843,-307.8019 246.3765,-307.8019 246.3765,-266.5981 335.5843,-266.5981 335.5843,-307.8019"/>
<text text-anchor="middle" x="290.9804" y="-291.4" font-family="Times,serif" font-size="14.00" fill="#000000">GO:0044464</text>
<text text-anchor="middle" x="290.9804" y="-274.6" font-family="Times,serif" font-size="14.00" fill="#000000">cell part</text>
</g>
<!-- GO:0044424&#45;&gt;GO:0044464 -->
<g id="edge3" class="edge">
<title>GO:0044424&#45;&gt;GO:0044464</title>
<path fill="none" stroke="#000000" d="M312.941,-230.3954C309.8136,-238.4848 306.1675,-247.9159 302.7552,-256.7424"/>
<polygon fill="#000000" stroke="#000000" points="299.3835,-255.7579 299.042,-266.3472 305.9125,-258.2821 299.3835,-255.7579"/>
</g>
<!-- GO:0005575 -->
<g id="node5" class="node">
<title>GO:0005575</title>
<polygon fill="#ffffff" stroke="#000000" points="425.6671,-385.4019 298.2937,-385.4019 298.2937,-344.1981 425.6671,-344.1981 425.6671,-385.4019"/>
<text text-anchor="middle" x="361.9804" y="-369" font-family="Times,serif" font-size="14.00" fill="#000000">GO:0005575</text>
<text text-anchor="middle" x="361.9804" y="-352.2" font-family="Times,serif" font-size="14.00" fill="#000000">cellular_component</text>
</g>
<!-- GO:0043226&#45;&gt;GO:0005575 -->
<g id="edge4" class="edge">
<title>GO:0043226&#45;&gt;GO:0005575</title>
<path fill="none" stroke="#000000" d="M206.093,-230.4888C209.309,-252.2623 217.3085,-286.1914 236.9804,-308 250.9754,-323.5151 270.0418,-335.0646 289.0657,-343.5452"/>
<polygon fill="#000000" stroke="#000000" points="287.8043,-346.8116 298.379,-347.4658 290.5203,-340.3599 287.8043,-346.8116"/>
</g>
<!-- GO:0044464&#45;&gt;GO:0005575 -->
<g id="edge10" class="edge">
<title>GO:0044464&#45;&gt;GO:0005575</title>
<path fill="none" stroke="#000000" d="M310.0071,-307.9954C317.9656,-316.6937 327.3434,-326.9433 335.9267,-336.3244"/>
<polygon fill="#000000" stroke="#000000" points="333.5685,-338.932 342.9012,-343.9472 338.7331,-334.2067 333.5685,-338.932"/>
</g>
<!-- GO:0043227 -->
<g id="node6" class="node">
<title>GO:0043227</title>
<polygon fill="#00ffff" stroke="#000000" points="127.9412,-153.0014 .0196,-153.0014 .0196,-94.1986 127.9412,-94.1986 127.9412,-153.0014"/>
<text text-anchor="middle" x="63.9804" y="-136.2" font-family="Times,serif" font-size="14.00" fill="#000000">GO:0043227</text>
<text text-anchor="middle" x="63.9804" y="-119.4" font-family="Times,serif" font-size="14.00" fill="#000000">membrane&#45;bounded</text>
<text text-anchor="middle" x="63.9804" y="-102.6" font-family="Times,serif" font-size="14.00" fill="#000000">organelle</text>
</g>
<!-- GO:0043227&#45;&gt;GO:0043226 -->
<g id="edge5" class="edge">
<title>GO:0043227&#45;&gt;GO:0043226</title>
<path fill="none" stroke="#000000" d="M111.7689,-152.9558C127.7934,-162.7994 145.5504,-173.7073 161.1691,-183.3017"/>
<polygon fill="#000000" stroke="#000000" points="159.7362,-186.529 170.0889,-188.7809 163.4001,-180.5644 159.7362,-186.529"/>
</g>
<!-- GO:0043234 -->
<g id="node7" class="node">
<title>GO:0043234</title>
<polygon fill="#00ffff" stroke="#000000" points="500.8478,-230.2019 393.113,-230.2019 393.113,-188.9981 500.8478,-188.9981 500.8478,-230.2019"/>
<text text-anchor="middle" x="446.9804" y="-213.8" font-family="Times,serif" font-size="14.00" fill="#000000">GO:0043234</text>
<text text-anchor="middle" x="446.9804" y="-197" font-family="Times,serif" font-size="14.00" fill="#000000">protein complex</text>
</g>
<!-- GO:0032991 -->
<g id="node8" class="node">
<title>GO:0032991</title>
<polygon fill="#00ffff" stroke="#000000" points="512.1477,-307.8019 353.8131,-307.8019 353.8131,-266.5981 512.1477,-266.5981 512.1477,-307.8019"/>
<text text-anchor="middle" x="432.9804" y="-291.4" font-family="Times,serif" font-size="14.00" fill="#000000">GO:0032991</text>
<text text-anchor="middle" x="432.9804" y="-274.6" font-family="Times,serif" font-size="14.00" fill="#000000">macromolecular complex</text>
</g>
<!-- GO:0043234&#45;&gt;GO:0032991 -->
<g id="edge6" class="edge">
<title>GO:0043234&#45;&gt;GO:0032991</title>
<path fill="none" stroke="#000000" d="M443.2287,-230.3954C441.7849,-238.3978 440.1043,-247.7133 438.5267,-256.4575"/>
<polygon fill="#000000" stroke="#000000" points="435.0736,-255.8847 436.7425,-266.3472 441.9624,-257.1275 435.0736,-255.8847"/>
</g>
<!-- GO:0032991&#45;&gt;GO:0005575 -->
<g id="edge7" class="edge">
<title>GO:0032991&#45;&gt;GO:0005575</title>
<path fill="none" stroke="#000000" d="M413.9537,-307.9954C405.9952,-316.6937 396.6174,-326.9433 388.0341,-336.3244"/>
<polygon fill="#000000" stroke="#000000" points="385.2277,-334.2067 381.0596,-343.9472 390.3923,-338.932 385.2277,-334.2067"/>
</g>
<!-- GO:0043231 -->
<g id="node9" class="node">
<title>GO:0043231</title>
<polygon fill="#00ffff" stroke="#000000" points="215.3592,-58.6014 64.6016,-58.6014 64.6016,.2014 215.3592,.2014 215.3592,-58.6014"/>
<text text-anchor="middle" x="139.9804" y="-41.8" font-family="Times,serif" font-size="14.00" fill="#000000">GO:0043231</text>
<text text-anchor="middle" x="139.9804" y="-25" font-family="Times,serif" font-size="14.00" fill="#000000">intracellular membrane&#45;</text>
<text text-anchor="middle" x="139.9804" y="-8.2" font-family="Times,serif" font-size="14.00" fill="#000000">bounded organelle</text>
</g>
<!-- GO:0043231&#45;&gt;GO:0043229 -->
<g id="edge8" class="edge">
<title>GO:0043231&#45;&gt;GO:0043229</title>
<path fill="none" stroke="#000000" d="M163.6107,-58.5513C172.9376,-70.1363 183.619,-83.4037 192.8922,-94.922"/>
<polygon fill="#000000" stroke="#000000" points="190.3588,-97.3565 199.3562,-102.951 195.8114,-92.9667 190.3588,-97.3565"/>
</g>
<!-- GO:0043231&#45;&gt;GO:0043227 -->
<g id="edge9" class="edge">
<title>GO:0043231&#45;&gt;GO:0043227</title>
<path fill="none" stroke="#000000" d="M116.3501,-58.5513C109.2727,-67.3422 101.4154,-77.1018 93.9853,-86.3308"/>
<polygon fill="#000000" stroke="#000000" points="91.1409,-84.2826 87.5961,-94.2669 96.5934,-88.6724 91.1409,-84.2826"/>
</g>
<!-- GO:0044446 -->
<g id="node10" class="node">
<title>GO:0044446</title>
<polygon fill="#00ffff" stroke="#000000" points="613.6988,-153.0014 474.262,-153.0014 474.262,-94.1986 613.6988,-94.1986 613.6988,-153.0014"/>
<text text-anchor="middle" x="543.9804" y="-136.2" font-family="Times,serif" font-size="14.00" fill="#000000">GO:0044446</text>
<text text-anchor="middle" x="543.9804" y="-119.4" font-family="Times,serif" font-size="14.00" fill="#000000">intracellular organelle</text>
<text text-anchor="middle" x="543.9804" y="-102.6" font-family="Times,serif" font-size="14.00" fill="#000000">part</text>
</g>
<!-- GO:0044446&#45;&gt;GO:0044424 -->
<g id="edge11" class="edge">
<title>GO:0044446&#45;&gt;GO:0044424</title>
<path fill="none" stroke="#000000" d="M474.3391,-150.4572C445.4056,-161.6154 412.0731,-174.4701 383.8896,-185.339"/>
<polygon fill="#000000" stroke="#000000" points="382.6138,-182.0798 374.5429,-188.9436 385.1326,-188.6109 382.6138,-182.0798"/>
</g>
<!-- GO:0044422 -->
<g id="node11" class="node">
<title>GO:0044422</title>
<polygon fill="#00ffff" stroke="#000000" points="623.8325,-307.8019 530.1283,-307.8019 530.1283,-266.5981 623.8325,-266.5981 623.8325,-307.8019"/>
<text text-anchor="middle" x="576.9804" y="-291.4" font-family="Times,serif" font-size="14.00" fill="#000000">GO:0044422</text>
<text text-anchor="middle" x="576.9804" y="-274.6" font-family="Times,serif" font-size="14.00" fill="#000000">organelle part</text>
</g>
<!-- GO:0044446&#45;&gt;GO:0044422 -->
<g id="edge12" class="edge">
<title>GO:0044446&#45;&gt;GO:0044422</title>
<path fill="none" stroke="#000000" d="M549.8801,-152.8484C555.7839,-182.117 564.8276,-226.9516 570.8213,-256.666"/>
<polygon fill="#000000" stroke="#000000" points="567.3958,-257.385 572.8041,-266.4955 574.2576,-256.0009 567.3958,-257.385"/>
</g>
<!-- GO:0044422&#45;&gt;GO:0005575 -->
<g id="edge13" class="edge">
<title>GO:0044422&#45;&gt;GO:0005575</title>
<path fill="none" stroke="#000000" d="M530.2456,-304.6084C527.1116,-305.7605 524.0012,-306.8995 520.9804,-308 491.2928,-318.8156 458.4164,-330.5933 430.3,-340.6054"/>
<polygon fill="#000000" stroke="#000000" points="428.8145,-337.4189 420.5664,-344.0687 431.1611,-344.0139 428.8145,-337.4189"/>
</g>
<!-- GO:0044444 -->
<g id="node12" class="node">
<title>GO:0044444</title>
<polygon fill="#00ff00" stroke="#000000" points="412.397,-144.2019 303.5638,-144.2019 303.5638,-102.9981 412.397,-102.9981 412.397,-144.2019"/>
<text text-anchor="middle" x="357.9804" y="-127.8" font-family="Times,serif" font-size="14.00" fill="#000000">GO:0044444</text>
<text text-anchor="middle" x="357.9804" y="-111" font-family="Times,serif" font-size="14.00" fill="#000000">cytoplasmic part</text>
</g>
<!-- GO:0044444&#45;&gt;GO:0044424 -->
<g id="edge14" class="edge">
<title>GO:0044444&#45;&gt;GO:0044424</title>
<path fill="none" stroke="#000000" d="M349.0237,-144.4182C344.4789,-154.9818 338.876,-168.0048 333.8762,-179.6261"/>
<polygon fill="#000000" stroke="#000000" points="330.5917,-178.4043 329.8546,-188.9735 337.0218,-181.1708 330.5917,-178.4043"/>
</g>
</g>
</svg>
