<?xml version="1.0" encoding="UTF-8" standalone="no"?>
<!DOCTYPE svg PUBLIC "-//W3C//DTD SVG 1.1//EN"
 "http://www.w3.org/Graphics/SVG/1.1/DTD/svg11.dtd">
<!-- Generated by graphviz version 2.40.1 (20161225.0304)
 -->
<!-- Title: G Pages: 1 -->
<svg width="732pt" height="238pt"
 viewBox="0.00 0.00 732.05 238.40" xmlns="http://www.w3.org/2000/svg" xmlns:xlink="http://www.w3.org/1999/xlink">
<g id="graph0" class="graph" transform="scale(1 1) rotate(0) translate(4 234.4)">
<title>G</title>
<polygon fill="#ffffff" stroke="transparent" points="-4,4 -4,-234.4 728.0495,-234.4 728.0495,4 -4,4"/>
<!-- GO:0050789 -->
<g id="node1" class="node">
<title>GO:0050789</title>
<polygon fill="#00ffff" stroke="#000000" points="147.6213,-153.0014 -.2075,-153.0014 -.2075,-94.1986 147.6213,-94.1986 147.6213,-153.0014"/>
<text text-anchor="middle" x="73.7069" y="-136.2" font-family="Times,serif" font-size="14.00" fill="#000000">GO:0050789</text>
<text text-anchor="middle" x="73.7069" y="-119.4" font-family="Times,serif" font-size="14.00" fill="#000000">regulation of biological</text>
<text text-anchor="middle" x="73.7069" y="-102.6" font-family="Times,serif" font-size="14.00" fill="#000000">process</text>
</g>
<!-- GO:0008150 -->
<g id="node2" class="node">
<title>GO:0008150</title>
<polygon fill="#ffffff" stroke="#000000" points="452.1775,-230.2019 331.2363,-230.2019 331.2363,-188.9981 452.1775,-188.9981 452.1775,-230.2019"/>
<text text-anchor="middle" x="391.7069" y="-213.8" font-family="Times,serif" font-size="14.00" fill="#000000">GO:0008150</text>
<text text-anchor="middle" x="391.7069" y="-197" font-family="Times,serif" font-size="14.00" fill="#000000">biological_process</text>
</g>
<!-- GO:0050789&#45;&gt;GO:0008150 -->
<g id="edge1" class="edge">
<title>GO:0050789&#45;&gt;GO:0008150</title>
<path fill="none" stroke="#000000" d="M147.7973,-150.0829C150.799,-151.0234 153.7774,-151.9331 156.7069,-152.8 211.379,-168.9791 274.1965,-183.9807 321.122,-194.4991"/>
<polygon fill="#000000" stroke="#000000" points="320.3637,-197.9159 330.8855,-196.6743 321.886,-191.0834 320.3637,-197.9159"/>
</g>
<!-- GO:0065007 -->
<g id="node3" class="node">
<title>GO:0065007</title>
<polygon fill="#ffff00" stroke="#000000" points="297.9603,-144.2019 165.4535,-144.2019 165.4535,-102.9981 297.9603,-102.9981 297.9603,-144.2019"/>
<text text-anchor="middle" x="231.7069" y="-127.8" font-family="Times,serif" font-size="14.00" fill="#000000">GO:0065007</text>
<text text-anchor="middle" x="231.7069" y="-111" font-family="Times,serif" font-size="14.00" fill="#000000">biological regulation</text>
</g>
<!-- GO:0065007&#45;&gt;GO:0008150 -->
<g id="edge2" class="edge">
<title>GO:0065007&#45;&gt;GO:0008150</title>
<path fill="none" stroke="#000000" d="M270.4384,-144.4182C292.6465,-156.355 320.6973,-171.4323 344.2257,-184.0788"/>
<polygon fill="#000000" stroke="#000000" points="342.8667,-187.3219 353.332,-188.9735 346.1809,-181.1561 342.8667,-187.3219"/>
</g>
<!-- GO:0050794 -->
<g id="node4" class="node">
<title>GO:0050794</title>
<polygon fill="#00ffff" stroke="#000000" points="258.6059,-58.6014 124.8079,-58.6014 124.8079,.2014 258.6059,.2014 258.6059,-58.6014"/>
<text text-anchor="middle" x="191.7069" y="-41.8" font-family="Times,serif" font-size="14.00" fill="#000000">GO:0050794</text>
<text text-anchor="middle" x="191.7069" y="-25" font-family="Times,serif" font-size="14.00" fill="#000000">regulation of cellular</text>
<text text-anchor="middle" x="191.7069" y="-8.2" font-family="Times,serif" font-size="14.00" fill="#000000">process</text>
</g>
<!-- GO:0050794&#45;&gt;GO:0050789 -->
<g id="edge4" class="edge">
<title>GO:0050794&#45;&gt;GO:0050789</title>
<path fill="none" stroke="#000000" d="M155.0178,-58.5513C143.3632,-67.8749 130.3465,-78.2883 118.2037,-88.0026"/>
<polygon fill="#000000" stroke="#000000" points="115.9956,-85.2868 110.3733,-94.2669 120.3685,-90.7529 115.9956,-85.2868"/>
</g>
<!-- GO:0050794&#45;&gt;GO:0065007 -->
<g id="edge3" class="edge">
<title>GO:0050794&#45;&gt;GO:0065007</title>
<path fill="none" stroke="#000000" d="M204.1439,-58.5513C208.8622,-69.6864 214.239,-82.3758 218.9833,-93.5724"/>
<polygon fill="#000000" stroke="#000000" points="215.8331,-95.109 222.9573,-102.951 222.2784,-92.3779 215.8331,-95.109"/>
</g>
<!-- GO:0044699 -->
<g id="node5" class="node">
<title>GO:0044699</title>
<polygon fill="#ffff00" stroke="#000000" points="467.3882,-144.2019 316.0256,-144.2019 316.0256,-102.9981 467.3882,-102.9981 467.3882,-144.2019"/>
<text text-anchor="middle" x="391.7069" y="-127.8" font-family="Times,serif" font-size="14.00" fill="#000000">GO:0044699</text>
<text text-anchor="middle" x="391.7069" y="-111" font-family="Times,serif" font-size="14.00" fill="#000000">single&#45;organism process</text>
</g>
<!-- GO:0044699&#45;&gt;GO:0008150 -->
<g id="edge5" class="edge">
<title>GO:0044699&#45;&gt;GO:0008150</title>
<path fill="none" stroke="#000000" d="M391.7069,-144.4182C391.7069,-154.7705 391.7069,-167.4848 391.7069,-178.9271"/>
<polygon fill="#000000" stroke="#000000" points="388.207,-178.9735 391.7069,-188.9735 395.207,-178.9735 388.207,-178.9735"/>
</g>
<!-- GO:0009987 -->
<g id="node6" class="node">
<title>GO:0009987</title>
<polygon fill="#ffa500" stroke="#000000" points="589.6631,-144.2019 485.7507,-144.2019 485.7507,-102.9981 589.6631,-102.9981 589.6631,-144.2019"/>
<text text-anchor="middle" x="537.7069" y="-127.8" font-family="Times,serif" font-size="14.00" fill="#000000">GO:0009987</text>
<text text-anchor="middle" x="537.7069" y="-111" font-family="Times,serif" font-size="14.00" fill="#000000">cellular process</text>
</g>
<!-- GO:0009987&#45;&gt;GO:0008150 -->
<g id="edge6" class="edge">
<title>GO:0009987&#45;&gt;GO:0008150</title>
<path fill="none" stroke="#000000" d="M502.3644,-144.4182C482.2789,-156.2494 456.9558,-171.1657 435.6045,-183.7425"/>
<polygon fill="#000000" stroke="#000000" points="433.5639,-180.8824 426.724,-188.9735 437.1167,-186.9138 433.5639,-180.8824"/>
</g>
<!-- GO:0071704 -->
<g id="node7" class="node">
<title>GO:0071704</title>
<polygon fill="#ff00ff" stroke="#000000" points="723.8925,-58.6014 607.5213,-58.6014 607.5213,.2014 723.8925,.2014 723.8925,-58.6014"/>
<text text-anchor="middle" x="665.7069" y="-41.8" font-family="Times,serif" font-size="14.00" fill="#000000">GO:0071704</text>
<text text-anchor="middle" x="665.7069" y="-25" font-family="Times,serif" font-size="14.00" fill="#000000">organic substance</text>
<text text-anchor="middle" x="665.7069" y="-8.2" font-family="Times,serif" font-size="14.00" fill="#000000">metabolic process</text>
</g>
<!-- GO:0008152 -->
<g id="node8" class="node">
<title>GO:0008152</title>
<polygon fill="#ffffff" stroke="#000000" points="723.8925,-144.2019 607.5213,-144.2019 607.5213,-102.9981 723.8925,-102.9981 723.8925,-144.2019"/>
<text text-anchor="middle" x="665.7069" y="-127.8" font-family="Times,serif" font-size="14.00" fill="#000000">GO:0008152</text>
<text text-anchor="middle" x="665.7069" y="-111" font-family="Times,serif" font-size="14.00" fill="#000000">metabolic process</text>
</g>
<!-- GO:0071704&#45;&gt;GO:0008152 -->
<g id="edge7" class="edge">
<title>GO:0071704&#45;&gt;GO:0008152</title>
<path fill="none" stroke="#000000" d="M665.7069,-58.5513C665.7069,-69.4614 665.7069,-81.8637 665.7069,-92.892"/>
<polygon fill="#000000" stroke="#000000" points="662.207,-92.9509 665.7069,-102.951 669.207,-92.951 662.207,-92.9509"/>
</g>
<!-- GO:0008152&#45;&gt;GO:0008150 -->
<g id="edge8" class="edge">
<title>GO:0008152&#45;&gt;GO:0008150</title>
<path fill="none" stroke="#000000" d="M620.6473,-144.2826C613.38,-147.3149 605.8858,-150.2654 598.7069,-152.8 553.9075,-168.6171 502.3914,-182.767 461.9588,-192.9875"/>
<polygon fill="#000000" stroke="#000000" points="461.0431,-189.6087 452.1936,-195.4343 462.7444,-196.3988 461.0431,-189.6087"/>
</g>
<!-- GO:0044763 -->
<g id="node9" class="node">
<title>GO:0044763</title>
<polygon fill="#00ff00" stroke="#000000" points="506.3854,-58.6014 355.0284,-58.6014 355.0284,.2014 506.3854,.2014 506.3854,-58.6014"/>
<text text-anchor="middle" x="430.7069" y="-41.8" font-family="Times,serif" font-size="14.00" fill="#000000">GO:0044763</text>
<text text-anchor="middle" x="430.7069" y="-25" font-family="Times,serif" font-size="14.00" fill="#000000">single&#45;organism cellular</text>
<text text-anchor="middle" x="430.7069" y="-8.2" font-family="Times,serif" font-size="14.00" fill="#000000">process</text>
</g>
<!-- GO:0044763&#45;&gt;GO:0044699 -->
<g id="edge10" class="edge">
<title>GO:0044763&#45;&gt;GO:0044699</title>
<path fill="none" stroke="#000000" d="M418.5808,-58.5513C413.9805,-69.6864 408.7381,-82.3758 404.1124,-93.5724"/>
<polygon fill="#000000" stroke="#000000" points="400.8213,-92.3722 400.2377,-102.951 407.2909,-95.0451 400.8213,-92.3722"/>
</g>
<!-- GO:0044763&#45;&gt;GO:0009987 -->
<g id="edge9" class="edge">
<title>GO:0044763&#45;&gt;GO:0009987</title>
<path fill="none" stroke="#000000" d="M463.9758,-58.5513C477.6171,-70.5862 493.3163,-84.4367 506.713,-96.2559"/>
<polygon fill="#000000" stroke="#000000" points="504.4874,-98.9598 514.3018,-102.951 509.1185,-93.7106 504.4874,-98.9598"/>
</g>
</g>
</svg>
