<?xml version="1.0" encoding="UTF-8" standalone="no"?>
<!DOCTYPE svg PUBLIC "-//W3C//DTD SVG 1.1//EN"
 "http://www.w3.org/Graphics/SVG/1.1/DTD/svg11.dtd">
<!-- Generated by graphviz version 2.40.1 (20161225.0304)
 -->
<!-- Title: G Pages: 1 -->
<svg width="1201pt" height="650pt"
 viewBox="0.00 0.00 1201.34 649.60" xmlns="http://www.w3.org/2000/svg" xmlns:xlink="http://www.w3.org/1999/xlink">
<g id="graph0" class="graph" transform="scale(1 1) rotate(0) translate(4 645.6)">
<title>G</title>
<polygon fill="#ffffff" stroke="transparent" points="-4,4 -4,-645.6 1197.3402,-645.6 1197.3402,4 -4,4"/>
<!-- GO:0008152 -->
<g id="node1" class="node">
<title>GO:0008152</title>
<polygon fill="#00ffff" stroke="#000000" points="387.6867,-555.4019 271.3155,-555.4019 271.3155,-514.1981 387.6867,-514.1981 387.6867,-555.4019"/>
<text text-anchor="middle" x="329.5011" y="-539" font-family="Times,serif" font-size="14.00" fill="#000000">GO:0008152</text>
<text text-anchor="middle" x="329.5011" y="-522.2" font-family="Times,serif" font-size="14.00" fill="#000000">metabolic process</text>
</g>
<!-- GO:0008150 -->
<g id="node2" class="node">
<title>GO:0008150</title>
<polygon fill="#ffffff" stroke="#000000" points="697.9717,-641.4019 577.0305,-641.4019 577.0305,-600.1981 697.9717,-600.1981 697.9717,-641.4019"/>
<text text-anchor="middle" x="637.5011" y="-625" font-family="Times,serif" font-size="14.00" fill="#000000">GO:0008150</text>
<text text-anchor="middle" x="637.5011" y="-608.2" font-family="Times,serif" font-size="14.00" fill="#000000">biological_process</text>
</g>
<!-- GO:0008152&#45;&gt;GO:0008150 -->
<g id="edge1" class="edge">
<title>GO:0008152&#45;&gt;GO:0008150</title>
<path fill="none" stroke="#000000" d="M373.7548,-555.4121C381.2578,-558.5227 389.0366,-561.5161 396.5011,-564 452.7631,-582.7215 518.3641,-597.7586 566.9054,-607.6463"/>
<polygon fill="#000000" stroke="#000000" points="566.501,-611.1351 576.9951,-609.6776 567.8826,-604.2728 566.501,-611.1351"/>
</g>
<!-- GO:0048583 -->
<g id="node3" class="node">
<title>GO:0048583</title>
<polygon fill="#00ffff" stroke="#000000" points="1023.793,-461.4014 869.2092,-461.4014 869.2092,-402.5986 1023.793,-402.5986 1023.793,-461.4014"/>
<text text-anchor="middle" x="946.5011" y="-444.6" font-family="Times,serif" font-size="14.00" fill="#000000">GO:0048583</text>
<text text-anchor="middle" x="946.5011" y="-427.8" font-family="Times,serif" font-size="14.00" fill="#000000">regulation of response to</text>
<text text-anchor="middle" x="946.5011" y="-411" font-family="Times,serif" font-size="14.00" fill="#000000">stimulus</text>
</g>
<!-- GO:0065007 -->
<g id="node4" class="node">
<title>GO:0065007</title>
<polygon fill="#ffff00" stroke="#000000" points="703.7545,-555.4019 571.2477,-555.4019 571.2477,-514.1981 703.7545,-514.1981 703.7545,-555.4019"/>
<text text-anchor="middle" x="637.5011" y="-539" font-family="Times,serif" font-size="14.00" fill="#000000">GO:0065007</text>
<text text-anchor="middle" x="637.5011" y="-522.2" font-family="Times,serif" font-size="14.00" fill="#000000">biological regulation</text>
</g>
<!-- GO:0048583&#45;&gt;GO:0065007 -->
<g id="edge2" class="edge">
<title>GO:0048583&#45;&gt;GO:0065007</title>
<path fill="none" stroke="#000000" d="M882.0568,-461.2296C874.8372,-464.1887 867.5468,-467.0416 860.5011,-469.6 812.4884,-487.034 757.4087,-503.1742 714.0024,-515.0345"/>
<polygon fill="#000000" stroke="#000000" points="712.8148,-511.7301 704.0804,-517.7268 714.648,-518.4858 712.8148,-511.7301"/>
</g>
<!-- GO:0050789 -->
<g id="node5" class="node">
<title>GO:0050789</title>
<polygon fill="#ffff00" stroke="#000000" points="553.4155,-564.2014 405.5867,-564.2014 405.5867,-505.3986 553.4155,-505.3986 553.4155,-564.2014"/>
<text text-anchor="middle" x="479.5011" y="-547.4" font-family="Times,serif" font-size="14.00" fill="#000000">GO:0050789</text>
<text text-anchor="middle" x="479.5011" y="-530.6" font-family="Times,serif" font-size="14.00" fill="#000000">regulation of biological</text>
<text text-anchor="middle" x="479.5011" y="-513.8" font-family="Times,serif" font-size="14.00" fill="#000000">process</text>
</g>
<!-- GO:0048583&#45;&gt;GO:0050789 -->
<g id="edge3" class="edge">
<title>GO:0048583&#45;&gt;GO:0050789</title>
<path fill="none" stroke="#000000" d="M885.2783,-461.3297C877.0784,-464.4961 868.6762,-467.3709 860.5011,-469.6 734.9348,-503.8376 694.3939,-476.6808 563.4763,-505.5987"/>
<polygon fill="#000000" stroke="#000000" points="562.448,-502.2432 553.4751,-507.8769 564.0028,-509.0684 562.448,-502.2432"/>
</g>
<!-- GO:0065007&#45;&gt;GO:0008150 -->
<g id="edge4" class="edge">
<title>GO:0065007&#45;&gt;GO:0008150</title>
<path fill="none" stroke="#000000" d="M637.5011,-555.6182C637.5011,-565.9705 637.5011,-578.6848 637.5011,-590.1271"/>
<polygon fill="#000000" stroke="#000000" points="634.0012,-590.1735 637.5011,-600.1735 641.0012,-590.1735 634.0012,-590.1735"/>
</g>
<!-- GO:0050789&#45;&gt;GO:0008150 -->
<g id="edge5" class="edge">
<title>GO:0050789&#45;&gt;GO:0008150</title>
<path fill="none" stroke="#000000" d="M533.4338,-564.1558C551.8566,-574.1834 572.3085,-585.3154 590.1714,-595.0383"/>
<polygon fill="#000000" stroke="#000000" points="588.7956,-598.2743 599.2521,-599.9809 592.1422,-592.126 588.7956,-598.2743"/>
</g>
<!-- GO:0044699 -->
<g id="node6" class="node">
<title>GO:0044699</title>
<polygon fill="#00ff00" stroke="#000000" points="1164.1824,-555.4019 1012.8198,-555.4019 1012.8198,-514.1981 1164.1824,-514.1981 1164.1824,-555.4019"/>
<text text-anchor="middle" x="1088.5011" y="-539" font-family="Times,serif" font-size="14.00" fill="#000000">GO:0044699</text>
<text text-anchor="middle" x="1088.5011" y="-522.2" font-family="Times,serif" font-size="14.00" fill="#000000">single&#45;organism process</text>
</g>
<!-- GO:0044699&#45;&gt;GO:0008150 -->
<g id="edge6" class="edge">
<title>GO:0044699&#45;&gt;GO:0008150</title>
<path fill="none" stroke="#000000" d="M1012.4622,-550.8809C991.438,-555.2362 968.6019,-559.8826 947.5011,-564 865.5995,-579.9816 771.2608,-597.0802 708.3712,-608.2929"/>
<polygon fill="#000000" stroke="#000000" points="707.3995,-604.9107 698.1679,-610.1096 708.6266,-611.8024 707.3995,-604.9107"/>
</g>
<!-- GO:0065008 -->
<g id="node7" class="node">
<title>GO:0065008</title>
<polygon fill="#00ffff" stroke="#000000" points="851.4155,-461.4014 703.5867,-461.4014 703.5867,-402.5986 851.4155,-402.5986 851.4155,-461.4014"/>
<text text-anchor="middle" x="777.5011" y="-444.6" font-family="Times,serif" font-size="14.00" fill="#000000">GO:0065008</text>
<text text-anchor="middle" x="777.5011" y="-427.8" font-family="Times,serif" font-size="14.00" fill="#000000">regulation of biological</text>
<text text-anchor="middle" x="777.5011" y="-411" font-family="Times,serif" font-size="14.00" fill="#000000">quality</text>
</g>
<!-- GO:0065008&#45;&gt;GO:0065007 -->
<g id="edge7" class="edge">
<title>GO:0065008&#45;&gt;GO:0065007</title>
<path fill="none" stroke="#000000" d="M737.3827,-461.4584C717.3935,-476.1362 693.4021,-493.7527 673.943,-508.0412"/>
<polygon fill="#000000" stroke="#000000" points="671.6185,-505.4058 665.6296,-514.1456 675.7616,-511.0481 671.6185,-505.4058"/>
</g>
<!-- GO:0010468 -->
<g id="node8" class="node">
<title>GO:0010468</title>
<polygon fill="#00ffff" stroke="#000000" points="139.3526,-247.4014 21.6496,-247.4014 21.6496,-188.5986 139.3526,-188.5986 139.3526,-247.4014"/>
<text text-anchor="middle" x="80.5011" y="-230.6" font-family="Times,serif" font-size="14.00" fill="#000000">GO:0010468</text>
<text text-anchor="middle" x="80.5011" y="-213.8" font-family="Times,serif" font-size="14.00" fill="#000000">regulation of gene</text>
<text text-anchor="middle" x="80.5011" y="-197" font-family="Times,serif" font-size="14.00" fill="#000000">expression</text>
</g>
<!-- GO:0060255 -->
<g id="node9" class="node">
<title>GO:0060255</title>
<polygon fill="#00ffff" stroke="#000000" points="161.0033,-358.5003 -.0011,-358.5003 -.0011,-283.0997 161.0033,-283.0997 161.0033,-358.5003"/>
<text text-anchor="middle" x="80.5011" y="-341.8" font-family="Times,serif" font-size="14.00" fill="#000000">GO:0060255</text>
<text text-anchor="middle" x="80.5011" y="-325" font-family="Times,serif" font-size="14.00" fill="#000000">regulation of</text>
<text text-anchor="middle" x="80.5011" y="-308.2" font-family="Times,serif" font-size="14.00" fill="#000000">macromolecule metabolic</text>
<text text-anchor="middle" x="80.5011" y="-291.4" font-family="Times,serif" font-size="14.00" fill="#000000">process</text>
</g>
<!-- GO:0010468&#45;&gt;GO:0060255 -->
<g id="edge8" class="edge">
<title>GO:0010468&#45;&gt;GO:0060255</title>
<path fill="none" stroke="#000000" d="M80.5011,-247.4584C80.5011,-255.3901 80.5011,-264.18 80.5011,-272.8392"/>
<polygon fill="#000000" stroke="#000000" points="77.0012,-272.8849 80.5011,-282.885 84.0012,-272.885 77.0012,-272.8849"/>
</g>
<!-- GO:0019222 -->
<g id="node10" class="node">
<title>GO:0019222</title>
<polygon fill="#ffffff" stroke="#000000" points="363.63,-461.4014 217.3722,-461.4014 217.3722,-402.5986 363.63,-402.5986 363.63,-461.4014"/>
<text text-anchor="middle" x="290.5011" y="-444.6" font-family="Times,serif" font-size="14.00" fill="#000000">GO:0019222</text>
<text text-anchor="middle" x="290.5011" y="-427.8" font-family="Times,serif" font-size="14.00" fill="#000000">regulation of metabolic</text>
<text text-anchor="middle" x="290.5011" y="-411" font-family="Times,serif" font-size="14.00" fill="#000000">process</text>
</g>
<!-- GO:0060255&#45;&gt;GO:0019222 -->
<g id="edge9" class="edge">
<title>GO:0060255&#45;&gt;GO:0019222</title>
<path fill="none" stroke="#000000" d="M151.5975,-358.4472C175.7594,-371.2415 202.6043,-385.4566 226.2037,-397.953"/>
<polygon fill="#000000" stroke="#000000" points="224.6018,-401.0651 235.0771,-402.6517 227.8776,-394.8789 224.6018,-401.0651"/>
</g>
<!-- GO:0019222&#45;&gt;GO:0065007 -->
<g id="edge10" class="edge">
<title>GO:0019222&#45;&gt;GO:0065007</title>
<path fill="none" stroke="#000000" d="M349.8458,-461.2373C357.3658,-464.3381 365.0403,-467.2217 372.5011,-469.6 454.388,-495.7036 479.884,-481.9088 562.5011,-505.6 567.7898,-507.1166 573.2258,-508.8574 578.6388,-510.7176"/>
<polygon fill="#000000" stroke="#000000" points="577.7259,-514.108 588.3205,-514.1724 580.0785,-507.5151 577.7259,-514.108"/>
</g>
<!-- GO:0019222&#45;&gt;GO:0050789 -->
<g id="edge11" class="edge">
<title>GO:0019222&#45;&gt;GO:0050789</title>
<path fill="none" stroke="#000000" d="M344.408,-461.3208C366.9503,-473.5819 393.2974,-487.9125 416.7081,-500.6459"/>
<polygon fill="#000000" stroke="#000000" points="415.0656,-503.7368 425.5226,-505.4403 418.4103,-497.5875 415.0656,-503.7368"/>
</g>
<!-- GO:0009987 -->
<g id="node11" class="node">
<title>GO:0009987</title>
<polygon fill="#00ff00" stroke="#000000" points="938.4573,-555.4019 834.5449,-555.4019 834.5449,-514.1981 938.4573,-514.1981 938.4573,-555.4019"/>
<text text-anchor="middle" x="886.5011" y="-539" font-family="Times,serif" font-size="14.00" fill="#000000">GO:0009987</text>
<text text-anchor="middle" x="886.5011" y="-522.2" font-family="Times,serif" font-size="14.00" fill="#000000">cellular process</text>
</g>
<!-- GO:0009987&#45;&gt;GO:0008150 -->
<g id="edge12" class="edge">
<title>GO:0009987&#45;&gt;GO:0008150</title>
<path fill="none" stroke="#000000" d="M834.6056,-552.7237C797.5275,-565.5298 747.2433,-582.8971 706.7449,-596.8845"/>
<polygon fill="#000000" stroke="#000000" points="705.5148,-593.6064 697.2053,-600.1793 707.8,-600.2229 705.5148,-593.6064"/>
</g>
<!-- GO:0050794 -->
<g id="node12" class="node">
<title>GO:0050794</title>
<polygon fill="#00ffff" stroke="#000000" points="515.4001,-461.4014 381.6021,-461.4014 381.6021,-402.5986 515.4001,-402.5986 515.4001,-461.4014"/>
<text text-anchor="middle" x="448.5011" y="-444.6" font-family="Times,serif" font-size="14.00" fill="#000000">GO:0050794</text>
<text text-anchor="middle" x="448.5011" y="-427.8" font-family="Times,serif" font-size="14.00" fill="#000000">regulation of cellular</text>
<text text-anchor="middle" x="448.5011" y="-411" font-family="Times,serif" font-size="14.00" fill="#000000">process</text>
</g>
<!-- GO:0050794&#45;&gt;GO:0065007 -->
<g id="edge13" class="edge">
<title>GO:0050794&#45;&gt;GO:0065007</title>
<path fill="none" stroke="#000000" d="M502.408,-461.3208C530.2475,-476.4631 563.8903,-494.762 590.6381,-509.3105"/>
<polygon fill="#000000" stroke="#000000" points="588.9695,-512.3871 599.4265,-514.0906 592.3142,-506.2378 588.9695,-512.3871"/>
</g>
<!-- GO:0050794&#45;&gt;GO:0050789 -->
<g id="edge14" class="edge">
<title>GO:0050794&#45;&gt;GO:0050789</title>
<path fill="none" stroke="#000000" d="M457.3845,-461.4584C460.5949,-472.1045 464.2715,-484.2966 467.6932,-495.6435"/>
<polygon fill="#000000" stroke="#000000" points="464.3783,-496.7737 470.6164,-505.3373 471.0802,-494.7527 464.3783,-496.7737"/>
</g>
<!-- GO:0044763 -->
<g id="node13" class="node">
<title>GO:0044763</title>
<polygon fill="#ff00ff" stroke="#000000" points="1193.1796,-461.4014 1041.8226,-461.4014 1041.8226,-402.5986 1193.1796,-402.5986 1193.1796,-461.4014"/>
<text text-anchor="middle" x="1117.5011" y="-444.6" font-family="Times,serif" font-size="14.00" fill="#000000">GO:0044763</text>
<text text-anchor="middle" x="1117.5011" y="-427.8" font-family="Times,serif" font-size="14.00" fill="#000000">single&#45;organism cellular</text>
<text text-anchor="middle" x="1117.5011" y="-411" font-family="Times,serif" font-size="14.00" fill="#000000">process</text>
</g>
<!-- GO:0044763&#45;&gt;GO:0044699 -->
<g id="edge16" class="edge">
<title>GO:0044763&#45;&gt;GO:0044699</title>
<path fill="none" stroke="#000000" d="M1109.1909,-461.4584C1105.403,-474.8856 1100.9214,-490.7721 1097.0994,-504.3204"/>
<polygon fill="#000000" stroke="#000000" points="1093.6743,-503.571 1094.3277,-514.1456 1100.4114,-505.4716 1093.6743,-503.571"/>
</g>
<!-- GO:0044763&#45;&gt;GO:0009987 -->
<g id="edge15" class="edge">
<title>GO:0044763&#45;&gt;GO:0009987</title>
<path fill="none" stroke="#000000" d="M1051.6149,-461.3208C1017.145,-476.6607 975.396,-495.2399 942.5031,-509.8779"/>
<polygon fill="#000000" stroke="#000000" points="940.7499,-506.8271 933.0368,-514.0906 943.596,-513.2224 940.7499,-506.8271"/>
</g>
<!-- GO:0080134 -->
<g id="node14" class="node">
<title>GO:0080134</title>
<polygon fill="#00ffff" stroke="#000000" points="1031.793,-350.2014 877.2092,-350.2014 877.2092,-291.3986 1031.793,-291.3986 1031.793,-350.2014"/>
<text text-anchor="middle" x="954.5011" y="-333.4" font-family="Times,serif" font-size="14.00" fill="#000000">GO:0080134</text>
<text text-anchor="middle" x="954.5011" y="-316.6" font-family="Times,serif" font-size="14.00" fill="#000000">regulation of response to</text>
<text text-anchor="middle" x="954.5011" y="-299.8" font-family="Times,serif" font-size="14.00" fill="#000000">stress</text>
</g>
<!-- GO:0080134&#45;&gt;GO:0048583 -->
<g id="edge17" class="edge">
<title>GO:0080134&#45;&gt;GO:0048583</title>
<path fill="none" stroke="#000000" d="M952.3992,-350.0165C951.4695,-362.9386 950.3618,-378.3358 949.3587,-392.2788"/>
<polygon fill="#000000" stroke="#000000" points="945.8434,-392.3672 948.6167,-402.5926 952.8254,-392.8695 945.8434,-392.3672"/>
</g>
<!-- GO:0030193 -->
<g id="node15" class="node">
<title>GO:0030193</title>
<polygon fill="#00ffff" stroke="#000000" points="829.3143,-58.6014 705.6879,-58.6014 705.6879,.2014 829.3143,.2014 829.3143,-58.6014"/>
<text text-anchor="middle" x="767.5011" y="-41.8" font-family="Times,serif" font-size="14.00" fill="#000000">GO:0030193</text>
<text text-anchor="middle" x="767.5011" y="-25" font-family="Times,serif" font-size="14.00" fill="#000000">regulation of blood</text>
<text text-anchor="middle" x="767.5011" y="-8.2" font-family="Times,serif" font-size="14.00" fill="#000000">coagulation</text>
</g>
<!-- GO:1900046 -->
<g id="node16" class="node">
<title>GO:1900046</title>
<polygon fill="#ffffff" stroke="#000000" points="791.8582,-238.6019 639.144,-238.6019 639.144,-197.3981 791.8582,-197.3981 791.8582,-238.6019"/>
<text text-anchor="middle" x="715.5011" y="-222.2" font-family="Times,serif" font-size="14.00" fill="#000000">GO:1900046</text>
<text text-anchor="middle" x="715.5011" y="-205.4" font-family="Times,serif" font-size="14.00" fill="#000000">regulation of hemostasis</text>
</g>
<!-- GO:0030193&#45;&gt;GO:1900046 -->
<g id="edge18" class="edge">
<title>GO:0030193&#45;&gt;GO:1900046</title>
<path fill="none" stroke="#000000" d="M750.1639,-58.5438C744.3791,-69.477 738.4165,-82.1993 734.5011,-94.4 724.6911,-124.9687 719.8747,-161.4631 717.5562,-186.8377"/>
<polygon fill="#000000" stroke="#000000" points="714.0535,-186.7252 716.7082,-196.982 721.0291,-187.3084 714.0535,-186.7252"/>
</g>
<!-- GO:0050818 -->
<g id="node17" class="node">
<title>GO:0050818</title>
<polygon fill="#ffffff" stroke="#000000" points="687.7391,-144.2019 531.2631,-144.2019 531.2631,-102.9981 687.7391,-102.9981 687.7391,-144.2019"/>
<text text-anchor="middle" x="609.5011" y="-127.8" font-family="Times,serif" font-size="14.00" fill="#000000">GO:0050818</text>
<text text-anchor="middle" x="609.5011" y="-111" font-family="Times,serif" font-size="14.00" fill="#000000">regulation of coagulation</text>
</g>
<!-- GO:0030193&#45;&gt;GO:0050818 -->
<g id="edge19" class="edge">
<title>GO:0030193&#45;&gt;GO:0050818</title>
<path fill="none" stroke="#000000" d="M718.375,-58.5513C697.3847,-71.0923 673.0946,-85.6049 652.7904,-97.736"/>
<polygon fill="#000000" stroke="#000000" points="650.8513,-94.8174 644.062,-102.951 654.4416,-100.8265 650.8513,-94.8174"/>
</g>
<!-- GO:0061041 -->
<g id="node18" class="node">
<title>GO:0061041</title>
<polygon fill="#ffffff" stroke="#000000" points="1045.0308,-153.0014 915.9714,-153.0014 915.9714,-94.1986 1045.0308,-94.1986 1045.0308,-153.0014"/>
<text text-anchor="middle" x="980.5011" y="-136.2" font-family="Times,serif" font-size="14.00" fill="#000000">GO:0061041</text>
<text text-anchor="middle" x="980.5011" y="-119.4" font-family="Times,serif" font-size="14.00" fill="#000000">regulation of wound</text>
<text text-anchor="middle" x="980.5011" y="-102.6" font-family="Times,serif" font-size="14.00" fill="#000000">healing</text>
</g>
<!-- GO:0030193&#45;&gt;GO:0061041 -->
<g id="edge20" class="edge">
<title>GO:0030193&#45;&gt;GO:0061041</title>
<path fill="none" stroke="#000000" d="M829.3956,-56.6312C853.572,-67.346 881.4914,-79.7197 906.7031,-90.8933"/>
<polygon fill="#000000" stroke="#000000" points="905.2967,-94.0983 915.8572,-94.9503 908.133,-87.6986 905.2967,-94.0983"/>
</g>
<!-- GO:0032101 -->
<g id="node19" class="node">
<title>GO:0032101</title>
<polygon fill="#ffffff" stroke="#000000" points="897.793,-153.0014 743.2092,-153.0014 743.2092,-94.1986 897.793,-94.1986 897.793,-153.0014"/>
<text text-anchor="middle" x="820.5011" y="-136.2" font-family="Times,serif" font-size="14.00" fill="#000000">GO:0032101</text>
<text text-anchor="middle" x="820.5011" y="-119.4" font-family="Times,serif" font-size="14.00" fill="#000000">regulation of response to</text>
<text text-anchor="middle" x="820.5011" y="-102.6" font-family="Times,serif" font-size="14.00" fill="#000000">external stimulus</text>
</g>
<!-- GO:0030193&#45;&gt;GO:0032101 -->
<g id="edge21" class="edge">
<title>GO:0030193&#45;&gt;GO:0032101</title>
<path fill="none" stroke="#000000" d="M783.9801,-58.5513C788.7661,-67.0758 794.0635,-76.5111 799.1048,-85.4904"/>
<polygon fill="#000000" stroke="#000000" points="796.0847,-87.2606 804.0323,-94.2669 802.1885,-83.8337 796.0847,-87.2606"/>
</g>
<!-- GO:1900046&#45;&gt;GO:0050789 -->
<g id="edge22" class="edge">
<title>GO:1900046&#45;&gt;GO:0050789</title>
<path fill="none" stroke="#000000" d="M638.9593,-233.3924C510.2237,-261.0061 259.3936,-322.8082 208.5011,-394.4 189.1365,-421.6407 187.206,-443.8402 208.5011,-469.6 260.7475,-532.8003 310.6324,-487.0082 395.7397,-505.7486"/>
<polygon fill="#000000" stroke="#000000" points="394.9152,-509.1501 405.4615,-508.1374 396.5856,-502.3523 394.9152,-509.1501"/>
</g>
<!-- GO:0050878 -->
<g id="node20" class="node">
<title>GO:0050878</title>
<polygon fill="#ffffff" stroke="#000000" points="801.3655,-350.2014 651.6367,-350.2014 651.6367,-291.3986 801.3655,-291.3986 801.3655,-350.2014"/>
<text text-anchor="middle" x="726.5011" y="-333.4" font-family="Times,serif" font-size="14.00" fill="#000000">GO:0050878</text>
<text text-anchor="middle" x="726.5011" y="-316.6" font-family="Times,serif" font-size="14.00" fill="#000000">regulation of body fluid</text>
<text text-anchor="middle" x="726.5011" y="-299.8" font-family="Times,serif" font-size="14.00" fill="#000000">levels</text>
</g>
<!-- GO:1900046&#45;&gt;GO:0050878 -->
<g id="edge23" class="edge">
<title>GO:1900046&#45;&gt;GO:0050878</title>
<path fill="none" stroke="#000000" d="M717.7271,-238.8031C719.0304,-250.9833 720.7194,-266.7676 722.267,-281.2305"/>
<polygon fill="#000000" stroke="#000000" points="718.8172,-281.8869 723.3614,-291.4577 725.7774,-281.1421 718.8172,-281.8869"/>
</g>
<!-- GO:0051239 -->
<g id="node21" class="node">
<title>GO:0051239</title>
<polygon fill="#ffffff" stroke="#000000" points="686.2461,-469.7003 532.7561,-469.7003 532.7561,-394.2997 686.2461,-394.2997 686.2461,-469.7003"/>
<text text-anchor="middle" x="609.5011" y="-453" font-family="Times,serif" font-size="14.00" fill="#000000">GO:0051239</text>
<text text-anchor="middle" x="609.5011" y="-436.2" font-family="Times,serif" font-size="14.00" fill="#000000">regulation of</text>
<text text-anchor="middle" x="609.5011" y="-419.4" font-family="Times,serif" font-size="14.00" fill="#000000">multicellular organismal</text>
<text text-anchor="middle" x="609.5011" y="-402.6" font-family="Times,serif" font-size="14.00" fill="#000000">process</text>
</g>
<!-- GO:0050818&#45;&gt;GO:0051239 -->
<g id="edge24" class="edge">
<title>GO:0050818&#45;&gt;GO:0051239</title>
<path fill="none" stroke="#000000" d="M609.5011,-144.3139C609.5011,-192.9997 609.5011,-315.7454 609.5011,-384.1258"/>
<polygon fill="#000000" stroke="#000000" points="606.0012,-384.2094 609.5011,-394.2094 613.0012,-384.2095 606.0012,-384.2094"/>
</g>
<!-- GO:1903034 -->
<g id="node22" class="node">
<title>GO:1903034</title>
<polygon fill="#ffffff" stroke="#000000" points="1048.793,-247.4014 894.2092,-247.4014 894.2092,-188.5986 1048.793,-188.5986 1048.793,-247.4014"/>
<text text-anchor="middle" x="971.5011" y="-230.6" font-family="Times,serif" font-size="14.00" fill="#000000">GO:1903034</text>
<text text-anchor="middle" x="971.5011" y="-213.8" font-family="Times,serif" font-size="14.00" fill="#000000">regulation of response to</text>
<text text-anchor="middle" x="971.5011" y="-197" font-family="Times,serif" font-size="14.00" fill="#000000">wounding</text>
</g>
<!-- GO:0061041&#45;&gt;GO:1903034 -->
<g id="edge25" class="edge">
<title>GO:0061041&#45;&gt;GO:1903034</title>
<path fill="none" stroke="#000000" d="M977.7028,-152.9513C976.9324,-161.0318 976.084,-169.9308 975.2685,-178.4838"/>
<polygon fill="#000000" stroke="#000000" points="971.7627,-178.3798 974.2977,-188.6669 978.7311,-179.0442 971.7627,-178.3798"/>
</g>
<!-- GO:0032101&#45;&gt;GO:0048583 -->
<g id="edge26" class="edge">
<title>GO:0032101&#45;&gt;GO:0048583</title>
<path fill="none" stroke="#000000" d="M820.9183,-152.999C822.7557,-199.4775 831.2594,-291.5121 868.5011,-358.4 876.1537,-372.1444 887.2515,-384.8335 898.6867,-395.6668"/>
<polygon fill="#000000" stroke="#000000" points="896.4627,-398.375 906.2172,-402.5102 901.1705,-393.1946 896.4627,-398.375"/>
</g>
<!-- GO:0050878&#45;&gt;GO:0065008 -->
<g id="edge27" class="edge">
<title>GO:0050878&#45;&gt;GO:0065008</title>
<path fill="none" stroke="#000000" d="M739.9007,-350.0165C745.9434,-363.1919 753.1663,-378.9405 759.659,-393.0973"/>
<polygon fill="#000000" stroke="#000000" points="756.6636,-394.962 764.0139,-402.5926 763.0264,-392.0438 756.6636,-394.962"/>
</g>
<!-- GO:0051239&#45;&gt;GO:0065007 -->
<g id="edge28" class="edge">
<title>GO:0051239&#45;&gt;GO:0065007</title>
<path fill="none" stroke="#000000" d="M619.7683,-469.6952C622.8672,-481.0725 626.2293,-493.4162 629.1844,-504.266"/>
<polygon fill="#000000" stroke="#000000" points="625.8661,-505.4015 631.8712,-514.1302 632.6201,-503.5619 625.8661,-505.4015"/>
</g>
<!-- GO:0051239&#45;&gt;GO:0050789 -->
<g id="edge29" class="edge">
<title>GO:0051239&#45;&gt;GO:0050789</title>
<path fill="none" stroke="#000000" d="M561.8321,-469.6952C549.7033,-479.2863 536.706,-489.5641 524.7042,-499.0548"/>
<polygon fill="#000000" stroke="#000000" points="522.2501,-496.5333 516.5772,-505.4814 526.5921,-502.024 522.2501,-496.5333"/>
</g>
<!-- GO:1903034&#45;&gt;GO:0080134 -->
<g id="edge30" class="edge">
<title>GO:1903034&#45;&gt;GO:0080134</title>
<path fill="none" stroke="#000000" d="M966.6296,-247.4584C964.8868,-257.9969 962.8935,-270.0505 961.0333,-281.2994"/>
<polygon fill="#000000" stroke="#000000" points="957.5518,-280.9003 959.3733,-291.3373 964.4581,-282.0424 957.5518,-280.9003"/>
</g>
</g>
</svg>
