<?xml version="1.0" encoding="UTF-8" standalone="no"?>
<!DOCTYPE svg PUBLIC "-//W3C//DTD SVG 1.1//EN"
 "http://www.w3.org/Graphics/SVG/1.1/DTD/svg11.dtd">
<!-- Generated by graphviz version 2.40.1 (20161225.0304)
 -->
<!-- Title: G Pages: 1 -->
<svg width="452pt" height="377pt"
 viewBox="0.00 0.00 452.41 376.80" xmlns="http://www.w3.org/2000/svg" xmlns:xlink="http://www.w3.org/1999/xlink">
<g id="graph0" class="graph" transform="scale(1 1) rotate(0) translate(4 372.8)">
<title>G</title>
<polygon fill="#ffffff" stroke="transparent" points="-4,4 -4,-372.8 448.4131,-372.8 448.4131,4 -4,4"/>
<!-- GO:0032190 -->
<g id="node1" class="node">
<title>GO:0032190</title>
<polygon fill="#ff0000" stroke="#000000" points="104.1144,-41.4019 1.7012,-41.4019 1.7012,-.1981 104.1144,-.1981 104.1144,-41.4019"/>
<text text-anchor="middle" x="52.9078" y="-25" font-family="Times,serif" font-size="14.00" fill="#000000">GO:0032190</text>
<text text-anchor="middle" x="52.9078" y="-8.2" font-family="Times,serif" font-size="14.00" fill="#000000">acrosin binding</text>
</g>
<!-- GO:0019899 -->
<g id="node2" class="node">
<title>GO:0019899</title>
<polygon fill="#ffffff" stroke="#000000" points="105.7236,-119.0019 .092,-119.0019 .092,-77.7981 105.7236,-77.7981 105.7236,-119.0019"/>
<text text-anchor="middle" x="52.9078" y="-102.6" font-family="Times,serif" font-size="14.00" fill="#000000">GO:0019899</text>
<text text-anchor="middle" x="52.9078" y="-85.8" font-family="Times,serif" font-size="14.00" fill="#000000">enzyme binding</text>
</g>
<!-- GO:0032190&#45;&gt;GO:0019899 -->
<g id="edge1" class="edge">
<title>GO:0032190&#45;&gt;GO:0019899</title>
<path fill="none" stroke="#000000" d="M52.9078,-41.5954C52.9078,-49.5109 52.9078,-58.7109 52.9078,-67.3722"/>
<polygon fill="#000000" stroke="#000000" points="49.4079,-67.5472 52.9078,-77.5472 56.4079,-67.5473 49.4079,-67.5472"/>
</g>
<!-- GO:0005515 -->
<g id="node3" class="node">
<title>GO:0005515</title>
<polygon fill="#ffffff" stroke="#000000" points="103.8454,-205.0019 1.9702,-205.0019 1.9702,-163.7981 103.8454,-163.7981 103.8454,-205.0019"/>
<text text-anchor="middle" x="52.9078" y="-188.6" font-family="Times,serif" font-size="14.00" fill="#000000">GO:0005515</text>
<text text-anchor="middle" x="52.9078" y="-171.8" font-family="Times,serif" font-size="14.00" fill="#000000">protein binding</text>
</g>
<!-- GO:0019899&#45;&gt;GO:0005515 -->
<g id="edge2" class="edge">
<title>GO:0019899&#45;&gt;GO:0005515</title>
<path fill="none" stroke="#000000" d="M52.9078,-119.2182C52.9078,-129.5705 52.9078,-142.2848 52.9078,-153.7271"/>
<polygon fill="#000000" stroke="#000000" points="49.4079,-153.7735 52.9078,-163.7735 56.4079,-153.7735 49.4079,-153.7735"/>
</g>
<!-- GO:0005488 -->
<g id="node4" class="node">
<title>GO:0005488</title>
<polygon fill="#ffffff" stroke="#000000" points="245.5117,-291.0019 156.3039,-291.0019 156.3039,-249.7981 245.5117,-249.7981 245.5117,-291.0019"/>
<text text-anchor="middle" x="200.9078" y="-274.6" font-family="Times,serif" font-size="14.00" fill="#000000">GO:0005488</text>
<text text-anchor="middle" x="200.9078" y="-257.8" font-family="Times,serif" font-size="14.00" fill="#000000">binding</text>
</g>
<!-- GO:0005515&#45;&gt;GO:0005488 -->
<g id="edge3" class="edge">
<title>GO:0005515&#45;&gt;GO:0005488</title>
<path fill="none" stroke="#000000" d="M88.7345,-205.2182C109.186,-217.1022 134.9944,-232.099 156.6985,-244.7108"/>
<polygon fill="#000000" stroke="#000000" points="155.0063,-247.7755 165.4111,-249.7735 158.5233,-241.7231 155.0063,-247.7755"/>
</g>
<!-- GO:0003674 -->
<g id="node5" class="node">
<title>GO:0003674</title>
<polygon fill="#ffffff" stroke="#000000" points="263.5409,-368.6019 138.2747,-368.6019 138.2747,-327.3981 263.5409,-327.3981 263.5409,-368.6019"/>
<text text-anchor="middle" x="200.9078" y="-352.2" font-family="Times,serif" font-size="14.00" fill="#000000">GO:0003674</text>
<text text-anchor="middle" x="200.9078" y="-335.4" font-family="Times,serif" font-size="14.00" fill="#000000">molecular_function</text>
</g>
<!-- GO:0005488&#45;&gt;GO:0003674 -->
<g id="edge4" class="edge">
<title>GO:0005488&#45;&gt;GO:0003674</title>
<path fill="none" stroke="#000000" d="M200.9078,-291.1954C200.9078,-299.1109 200.9078,-308.3109 200.9078,-316.9722"/>
<polygon fill="#000000" stroke="#000000" points="197.4079,-317.1472 200.9078,-327.1472 204.4079,-317.1473 197.4079,-317.1472"/>
</g>
<!-- GO:0003677 -->
<g id="node6" class="node">
<title>GO:0003677</title>
<polygon fill="#ff0000" stroke="#000000" points="332.0097,-41.4019 239.8059,-41.4019 239.8059,-.1981 332.0097,-.1981 332.0097,-41.4019"/>
<text text-anchor="middle" x="285.9078" y="-25" font-family="Times,serif" font-size="14.00" fill="#000000">GO:0003677</text>
<text text-anchor="middle" x="285.9078" y="-8.2" font-family="Times,serif" font-size="14.00" fill="#000000">DNA binding</text>
</g>
<!-- GO:0003676 -->
<g id="node7" class="node">
<title>GO:0003676</title>
<polygon fill="#ffffff" stroke="#000000" points="350.4347,-119.0019 221.3809,-119.0019 221.3809,-77.7981 350.4347,-77.7981 350.4347,-119.0019"/>
<text text-anchor="middle" x="285.9078" y="-102.6" font-family="Times,serif" font-size="14.00" fill="#000000">GO:0003676</text>
<text text-anchor="middle" x="285.9078" y="-85.8" font-family="Times,serif" font-size="14.00" fill="#000000">nucleic acid binding</text>
</g>
<!-- GO:0003677&#45;&gt;GO:0003676 -->
<g id="edge5" class="edge">
<title>GO:0003677&#45;&gt;GO:0003676</title>
<path fill="none" stroke="#000000" d="M285.9078,-41.5954C285.9078,-49.5109 285.9078,-58.7109 285.9078,-67.3722"/>
<polygon fill="#000000" stroke="#000000" points="282.4079,-67.5472 285.9078,-77.5472 289.4079,-67.5473 282.4079,-67.5472"/>
</g>
<!-- GO:0097159 -->
<g id="node8" class="node">
<title>GO:0097159</title>
<polygon fill="#ffffff" stroke="#000000" points="279.4192,-213.8014 122.3964,-213.8014 122.3964,-154.9986 279.4192,-154.9986 279.4192,-213.8014"/>
<text text-anchor="middle" x="200.9078" y="-197" font-family="Times,serif" font-size="14.00" fill="#000000">GO:0097159</text>
<text text-anchor="middle" x="200.9078" y="-180.2" font-family="Times,serif" font-size="14.00" fill="#000000">organic cyclic compound</text>
<text text-anchor="middle" x="200.9078" y="-163.4" font-family="Times,serif" font-size="14.00" fill="#000000">binding</text>
</g>
<!-- GO:0003676&#45;&gt;GO:0097159 -->
<g id="edge6" class="edge">
<title>GO:0003676&#45;&gt;GO:0097159</title>
<path fill="none" stroke="#000000" d="M265.3317,-119.2182C256.8747,-127.7747 246.8228,-137.9448 237.2042,-147.6766"/>
<polygon fill="#000000" stroke="#000000" points="234.5071,-145.4264 229.9668,-154.9991 239.4857,-150.3472 234.5071,-145.4264"/>
</g>
<!-- GO:1901363 -->
<g id="node9" class="node">
<title>GO:1901363</title>
<polygon fill="#ffffff" stroke="#000000" points="444.4184,-213.8014 297.3972,-213.8014 297.3972,-154.9986 444.4184,-154.9986 444.4184,-213.8014"/>
<text text-anchor="middle" x="370.9078" y="-197" font-family="Times,serif" font-size="14.00" fill="#000000">GO:1901363</text>
<text text-anchor="middle" x="370.9078" y="-180.2" font-family="Times,serif" font-size="14.00" fill="#000000">heterocyclic compound</text>
<text text-anchor="middle" x="370.9078" y="-163.4" font-family="Times,serif" font-size="14.00" fill="#000000">binding</text>
</g>
<!-- GO:0003676&#45;&gt;GO:1901363 -->
<g id="edge7" class="edge">
<title>GO:0003676&#45;&gt;GO:1901363</title>
<path fill="none" stroke="#000000" d="M306.4839,-119.2182C314.9409,-127.7747 324.9928,-137.9448 334.6114,-147.6766"/>
<polygon fill="#000000" stroke="#000000" points="332.3299,-150.3472 341.8488,-154.9991 337.3085,-145.4264 332.3299,-150.3472"/>
</g>
<!-- GO:0097159&#45;&gt;GO:0005488 -->
<g id="edge8" class="edge">
<title>GO:0097159&#45;&gt;GO:0005488</title>
<path fill="none" stroke="#000000" d="M200.9078,-213.9963C200.9078,-222.2638 200.9078,-231.2657 200.9078,-239.6008"/>
<polygon fill="#000000" stroke="#000000" points="197.4079,-239.6965 200.9078,-249.6966 204.4079,-239.6966 197.4079,-239.6965"/>
</g>
<!-- GO:1901363&#45;&gt;GO:0005488 -->
<g id="edge9" class="edge">
<title>GO:1901363&#45;&gt;GO:0005488</title>
<path fill="none" stroke="#000000" d="M312.8789,-213.7558C292.7011,-223.9634 270.2611,-235.3154 250.7999,-245.1605"/>
<polygon fill="#000000" stroke="#000000" points="249.1418,-242.0768 241.7986,-249.7141 252.3017,-248.3231 249.1418,-242.0768"/>
</g>
</g>
</svg>
