<?xml version="1.0" encoding="UTF-8" standalone="no"?>
<!DOCTYPE svg PUBLIC "-//W3C//DTD SVG 1.1//EN"
 "http://www.w3.org/Graphics/SVG/1.1/DTD/svg11.dtd">
<!-- Generated by graphviz version 2.40.1 (20161225.0304)
 -->
<!-- Title: G Pages: 1 -->
<svg width="956pt" height="488pt"
 viewBox="0.00 0.00 955.65 488.00" xmlns="http://www.w3.org/2000/svg" xmlns:xlink="http://www.w3.org/1999/xlink">
<g id="graph0" class="graph" transform="scale(1 1) rotate(0) translate(4 484)">
<title>G</title>
<polygon fill="#ffffff" stroke="transparent" points="-4,4 -4,-484 951.6491,-484 951.6491,4 -4,4"/>
<!-- GO:0031012 -->
<g id="node1" class="node">
<title>GO:0031012</title>
<polygon fill="#00ff00" stroke="#000000" points="247.3802,-402.2019 121.373,-402.2019 121.373,-360.9981 247.3802,-360.9981 247.3802,-402.2019"/>
<text text-anchor="middle" x="184.3766" y="-385.8" font-family="Times,serif" font-size="14.00" fill="#000000">GO:0031012</text>
<text text-anchor="middle" x="184.3766" y="-369" font-family="Times,serif" font-size="14.00" fill="#000000">extracellular matrix</text>
</g>
<!-- GO:0005575 -->
<g id="node2" class="node">
<title>GO:0005575</title>
<polygon fill="#ffffff" stroke="#000000" points="633.0633,-479.8019 505.6899,-479.8019 505.6899,-438.5981 633.0633,-438.5981 633.0633,-479.8019"/>
<text text-anchor="middle" x="569.3766" y="-463.4" font-family="Times,serif" font-size="14.00" fill="#000000">GO:0005575</text>
<text text-anchor="middle" x="569.3766" y="-446.6" font-family="Times,serif" font-size="14.00" fill="#000000">cellular_component</text>
</g>
<!-- GO:0031012&#45;&gt;GO:0005575 -->
<g id="edge1" class="edge">
<title>GO:0031012&#45;&gt;GO:0005575</title>
<path fill="none" stroke="#000000" d="M247.497,-400.2283C250.4919,-400.9882 253.4631,-401.7167 256.3766,-402.4 337.655,-421.4629 432.0797,-437.8176 495.7863,-448.0157"/>
<polygon fill="#000000" stroke="#000000" points="495.3146,-451.4846 505.7403,-449.599 496.4143,-444.5715 495.3146,-451.4846"/>
</g>
<!-- GO:0043229 -->
<g id="node3" class="node">
<title>GO:0043229</title>
<polygon fill="#ff0000" stroke="#000000" points="682.095,-221.8019 542.6582,-221.8019 542.6582,-180.5981 682.095,-180.5981 682.095,-221.8019"/>
<text text-anchor="middle" x="612.3766" y="-205.4" font-family="Times,serif" font-size="14.00" fill="#000000">GO:0043229</text>
<text text-anchor="middle" x="612.3766" y="-188.6" font-family="Times,serif" font-size="14.00" fill="#000000">intracellular organelle</text>
</g>
<!-- GO:0044424 -->
<g id="node4" class="node">
<title>GO:0044424</title>
<polygon fill="#ffffff" stroke="#000000" points="564.775,-316.2019 455.9782,-316.2019 455.9782,-274.9981 564.775,-274.9981 564.775,-316.2019"/>
<text text-anchor="middle" x="510.3766" y="-299.8" font-family="Times,serif" font-size="14.00" fill="#000000">GO:0044424</text>
<text text-anchor="middle" x="510.3766" y="-283" font-family="Times,serif" font-size="14.00" fill="#000000">intracellular part</text>
</g>
<!-- GO:0043229&#45;&gt;GO:0044424 -->
<g id="edge2" class="edge">
<title>GO:0043229&#45;&gt;GO:0044424</title>
<path fill="none" stroke="#000000" d="M589.9923,-221.9165C575.3773,-235.4425 556.1267,-253.2587 540.2161,-267.9838"/>
<polygon fill="#000000" stroke="#000000" points="537.6706,-265.5707 532.7087,-274.9318 542.4253,-270.7082 537.6706,-265.5707"/>
</g>
<!-- GO:0043226 -->
<g id="node5" class="node">
<title>GO:0043226</title>
<polygon fill="#ffffff" stroke="#000000" points="808.9805,-316.2019 719.7727,-316.2019 719.7727,-274.9981 808.9805,-274.9981 808.9805,-316.2019"/>
<text text-anchor="middle" x="764.3766" y="-299.8" font-family="Times,serif" font-size="14.00" fill="#000000">GO:0043226</text>
<text text-anchor="middle" x="764.3766" y="-283" font-family="Times,serif" font-size="14.00" fill="#000000">organelle</text>
</g>
<!-- GO:0043229&#45;&gt;GO:0043226 -->
<g id="edge3" class="edge">
<title>GO:0043229&#45;&gt;GO:0043226</title>
<path fill="none" stroke="#000000" d="M645.7336,-221.9165C668.3049,-235.9344 698.2954,-254.5601 722.4761,-269.5776"/>
<polygon fill="#000000" stroke="#000000" points="720.7558,-272.6292 731.0974,-274.9318 724.4489,-266.6827 720.7558,-272.6292"/>
</g>
<!-- GO:0044464 -->
<g id="node6" class="node">
<title>GO:0044464</title>
<polygon fill="#ffffff" stroke="#000000" points="554.9805,-402.2019 465.7727,-402.2019 465.7727,-360.9981 554.9805,-360.9981 554.9805,-402.2019"/>
<text text-anchor="middle" x="510.3766" y="-385.8" font-family="Times,serif" font-size="14.00" fill="#000000">GO:0044464</text>
<text text-anchor="middle" x="510.3766" y="-369" font-family="Times,serif" font-size="14.00" fill="#000000">cell part</text>
</g>
<!-- GO:0044424&#45;&gt;GO:0044464 -->
<g id="edge4" class="edge">
<title>GO:0044424&#45;&gt;GO:0044464</title>
<path fill="none" stroke="#000000" d="M510.3766,-316.4182C510.3766,-326.7705 510.3766,-339.4848 510.3766,-350.9271"/>
<polygon fill="#000000" stroke="#000000" points="506.8767,-350.9735 510.3766,-360.9735 513.8767,-350.9735 506.8767,-350.9735"/>
</g>
<!-- GO:0043226&#45;&gt;GO:0005575 -->
<g id="edge5" class="edge">
<title>GO:0043226&#45;&gt;GO:0005575</title>
<path fill="none" stroke="#000000" d="M752.6629,-316.3574C738.6509,-339.7072 713.2978,-377.6 683.3766,-402.4 668.2267,-414.9569 649.8343,-425.6473 632.2844,-434.2516"/>
<polygon fill="#000000" stroke="#000000" points="630.7393,-431.1106 623.2053,-438.5597 633.7403,-437.4348 630.7393,-431.1106"/>
</g>
<!-- GO:0044464&#45;&gt;GO:0005575 -->
<g id="edge7" class="edge">
<title>GO:0044464&#45;&gt;GO:0005575</title>
<path fill="none" stroke="#000000" d="M526.1875,-402.3954C532.6687,-410.9197 540.2825,-420.9339 547.2976,-430.1605"/>
<polygon fill="#000000" stroke="#000000" points="544.6834,-432.5051 553.522,-438.3472 550.2558,-428.2684 544.6834,-432.5051"/>
</g>
<!-- GO:0042597 -->
<g id="node7" class="node">
<title>GO:0042597</title>
<polygon fill="#00ffff" stroke="#000000" points="438.2764,-316.2019 322.4768,-316.2019 322.4768,-274.9981 438.2764,-274.9981 438.2764,-316.2019"/>
<text text-anchor="middle" x="380.3766" y="-299.8" font-family="Times,serif" font-size="14.00" fill="#000000">GO:0042597</text>
<text text-anchor="middle" x="380.3766" y="-283" font-family="Times,serif" font-size="14.00" fill="#000000">periplasmic space</text>
</g>
<!-- GO:0042597&#45;&gt;GO:0044464 -->
<g id="edge6" class="edge">
<title>GO:0042597&#45;&gt;GO:0044464</title>
<path fill="none" stroke="#000000" d="M411.846,-316.4182C429.5706,-328.1437 451.876,-342.8996 470.7796,-355.4051"/>
<polygon fill="#000000" stroke="#000000" points="468.9257,-358.3752 479.197,-360.9735 472.7879,-352.537 468.9257,-358.3752"/>
</g>
<!-- GO:0043227 -->
<g id="node8" class="node">
<title>GO:0043227</title>
<polygon fill="#ffa500" stroke="#000000" points="828.3374,-230.6014 700.4158,-230.6014 700.4158,-171.7986 828.3374,-171.7986 828.3374,-230.6014"/>
<text text-anchor="middle" x="764.3766" y="-213.8" font-family="Times,serif" font-size="14.00" fill="#000000">GO:0043227</text>
<text text-anchor="middle" x="764.3766" y="-197" font-family="Times,serif" font-size="14.00" fill="#000000">membrane&#45;bounded</text>
<text text-anchor="middle" x="764.3766" y="-180.2" font-family="Times,serif" font-size="14.00" fill="#000000">organelle</text>
</g>
<!-- GO:0043227&#45;&gt;GO:0043226 -->
<g id="edge8" class="edge">
<title>GO:0043227&#45;&gt;GO:0043226</title>
<path fill="none" stroke="#000000" d="M764.3766,-230.5513C764.3766,-241.4614 764.3766,-253.8637 764.3766,-264.892"/>
<polygon fill="#000000" stroke="#000000" points="760.8767,-264.9509 764.3766,-274.951 767.8767,-264.951 760.8767,-264.9509"/>
</g>
<!-- GO:0031224 -->
<g id="node9" class="node">
<title>GO:0031224</title>
<polygon fill="#00ffff" stroke="#000000" points="142.63,-325.0014 .1232,-325.0014 .1232,-266.1986 142.63,-266.1986 142.63,-325.0014"/>
<text text-anchor="middle" x="71.3766" y="-308.2" font-family="Times,serif" font-size="14.00" fill="#000000">GO:0031224</text>
<text text-anchor="middle" x="71.3766" y="-291.4" font-family="Times,serif" font-size="14.00" fill="#000000">intrinsic component of</text>
<text text-anchor="middle" x="71.3766" y="-274.6" font-family="Times,serif" font-size="14.00" fill="#000000">membrane</text>
</g>
<!-- GO:0044425 -->
<g id="node10" class="node">
<title>GO:0044425</title>
<polygon fill="#00ff00" stroke="#000000" points="365.7286,-402.2019 265.0246,-402.2019 265.0246,-360.9981 365.7286,-360.9981 365.7286,-402.2019"/>
<text text-anchor="middle" x="315.3766" y="-385.8" font-family="Times,serif" font-size="14.00" fill="#000000">GO:0044425</text>
<text text-anchor="middle" x="315.3766" y="-369" font-family="Times,serif" font-size="14.00" fill="#000000">membrane part</text>
</g>
<!-- GO:0031224&#45;&gt;GO:0044425 -->
<g id="edge9" class="edge">
<title>GO:0031224&#45;&gt;GO:0044425</title>
<path fill="none" stroke="#000000" d="M142.8808,-321.778C145.7486,-322.8029 148.589,-323.8135 151.3766,-324.8 195.0677,-340.2619 208.2121,-344.146 255.5739,-360.5371"/>
<polygon fill="#000000" stroke="#000000" points="254.5801,-363.897 265.1749,-363.8686 256.8749,-357.2838 254.5801,-363.897"/>
</g>
<!-- GO:0044425&#45;&gt;GO:0005575 -->
<g id="edge10" class="edge">
<title>GO:0044425&#45;&gt;GO:0005575</title>
<path fill="none" stroke="#000000" d="M365.5588,-396.9313C402.8467,-408.3231 454.2861,-424.0385 496.1584,-436.831"/>
<polygon fill="#000000" stroke="#000000" points="495.1716,-440.1891 505.7579,-439.7637 497.2169,-433.4946 495.1716,-440.1891"/>
</g>
<!-- GO:0005615 -->
<g id="node11" class="node">
<title>GO:0005615</title>
<polygon fill="#00ffff" stroke="#000000" points="947.4225,-316.2019 827.3307,-316.2019 827.3307,-274.9981 947.4225,-274.9981 947.4225,-316.2019"/>
<text text-anchor="middle" x="887.3766" y="-299.8" font-family="Times,serif" font-size="14.00" fill="#000000">GO:0005615</text>
<text text-anchor="middle" x="887.3766" y="-283" font-family="Times,serif" font-size="14.00" fill="#000000">extracellular space</text>
</g>
<!-- GO:0044421 -->
<g id="node12" class="node">
<title>GO:0044421</title>
<polygon fill="#ffa500" stroke="#000000" points="936.8656,-402.2019 785.8876,-402.2019 785.8876,-360.9981 936.8656,-360.9981 936.8656,-402.2019"/>
<text text-anchor="middle" x="861.3766" y="-385.8" font-family="Times,serif" font-size="14.00" fill="#000000">GO:0044421</text>
<text text-anchor="middle" x="861.3766" y="-369" font-family="Times,serif" font-size="14.00" fill="#000000">extracellular region part</text>
</g>
<!-- GO:0005615&#45;&gt;GO:0044421 -->
<g id="edge11" class="edge">
<title>GO:0005615&#45;&gt;GO:0044421</title>
<path fill="none" stroke="#000000" d="M881.0827,-316.4182C877.921,-326.8761 874.0306,-339.7446 870.544,-351.277"/>
<polygon fill="#000000" stroke="#000000" points="867.1562,-350.3885 867.6125,-360.9735 873.8567,-352.4143 867.1562,-350.3885"/>
</g>
<!-- GO:0044421&#45;&gt;GO:0005575 -->
<g id="edge12" class="edge">
<title>GO:0044421&#45;&gt;GO:0005575</title>
<path fill="none" stroke="#000000" d="M785.7996,-401.6848C741.8116,-413.3748 686.6086,-428.0452 642.9652,-439.6436"/>
<polygon fill="#000000" stroke="#000000" points="642.0367,-436.2688 633.2711,-442.2198 643.8346,-443.0339 642.0367,-436.2688"/>
</g>
<!-- GO:0016020 -->
<g id="node13" class="node">
<title>GO:0016020</title>
<polygon fill="#ffff00" stroke="#000000" points="673.9805,-402.2019 584.7727,-402.2019 584.7727,-360.9981 673.9805,-360.9981 673.9805,-402.2019"/>
<text text-anchor="middle" x="629.3766" y="-385.8" font-family="Times,serif" font-size="14.00" fill="#000000">GO:0016020</text>
<text text-anchor="middle" x="629.3766" y="-369" font-family="Times,serif" font-size="14.00" fill="#000000">membrane</text>
</g>
<!-- GO:0016020&#45;&gt;GO:0005575 -->
<g id="edge13" class="edge">
<title>GO:0016020&#45;&gt;GO:0005575</title>
<path fill="none" stroke="#000000" d="M613.2977,-402.3954C606.7067,-410.9197 598.9638,-420.9339 591.8298,-430.1605"/>
<polygon fill="#000000" stroke="#000000" points="588.8478,-428.2953 585.4999,-438.3472 594.3856,-432.577 588.8478,-428.2953"/>
</g>
<!-- GO:0044459 -->
<g id="node14" class="node">
<title>GO:0044459</title>
<polygon fill="#00ffff" stroke="#000000" points="303.8838,-316.2019 160.8694,-316.2019 160.8694,-274.9981 303.8838,-274.9981 303.8838,-316.2019"/>
<text text-anchor="middle" x="232.3766" y="-299.8" font-family="Times,serif" font-size="14.00" fill="#000000">GO:0044459</text>
<text text-anchor="middle" x="232.3766" y="-283" font-family="Times,serif" font-size="14.00" fill="#000000">plasma membrane part</text>
</g>
<!-- GO:0044459&#45;&gt;GO:0044464 -->
<g id="edge15" class="edge">
<title>GO:0044459&#45;&gt;GO:0044464</title>
<path fill="none" stroke="#000000" d="M288.424,-316.3406C296.7592,-319.2691 305.2709,-322.1735 313.3766,-324.8 361.137,-340.2757 416.0705,-355.9406 455.7746,-366.8884"/>
<polygon fill="#000000" stroke="#000000" points="454.9572,-370.2934 465.5271,-369.5671 456.8113,-363.5434 454.9572,-370.2934"/>
</g>
<!-- GO:0044459&#45;&gt;GO:0044425 -->
<g id="edge14" class="edge">
<title>GO:0044459&#45;&gt;GO:0044425</title>
<path fill="none" stroke="#000000" d="M252.4686,-316.4182C263.2753,-327.6156 276.7492,-341.5764 288.4517,-353.7019"/>
<polygon fill="#000000" stroke="#000000" points="286.0067,-356.2086 295.4696,-360.9735 291.0436,-351.3475 286.0067,-356.2086"/>
</g>
<!-- GO:0005886 -->
<g id="node15" class="node">
<title>GO:0005886</title>
<polygon fill="#00ffff" stroke="#000000" points="701.6174,-316.2019 583.1358,-316.2019 583.1358,-274.9981 701.6174,-274.9981 701.6174,-316.2019"/>
<text text-anchor="middle" x="642.3766" y="-299.8" font-family="Times,serif" font-size="14.00" fill="#000000">GO:0005886</text>
<text text-anchor="middle" x="642.3766" y="-283" font-family="Times,serif" font-size="14.00" fill="#000000">plasma membrane</text>
</g>
<!-- GO:0005886&#45;&gt;GO:0044464 -->
<g id="edge17" class="edge">
<title>GO:0005886&#45;&gt;GO:0044464</title>
<path fill="none" stroke="#000000" d="M610.4231,-316.4182C592.4257,-328.1437 569.7772,-342.8996 550.5828,-355.4051"/>
<polygon fill="#000000" stroke="#000000" points="548.5039,-352.5821 542.0359,-360.9735 552.3251,-358.4472 548.5039,-352.5821"/>
</g>
<!-- GO:0005886&#45;&gt;GO:0016020 -->
<g id="edge16" class="edge">
<title>GO:0005886&#45;&gt;GO:0016020</title>
<path fill="none" stroke="#000000" d="M639.2297,-316.4182C637.6648,-326.7705 635.7428,-339.4848 634.0132,-350.9271"/>
<polygon fill="#000000" stroke="#000000" points="630.5286,-350.5627 632.4946,-360.9735 637.45,-351.609 630.5286,-350.5627"/>
</g>
<!-- GO:0043231 -->
<g id="node16" class="node">
<title>GO:0043231</title>
<polygon fill="#ffa500" stroke="#000000" points="763.7554,-136.2014 612.9978,-136.2014 612.9978,-77.3986 763.7554,-77.3986 763.7554,-136.2014"/>
<text text-anchor="middle" x="688.3766" y="-119.4" font-family="Times,serif" font-size="14.00" fill="#000000">GO:0043231</text>
<text text-anchor="middle" x="688.3766" y="-102.6" font-family="Times,serif" font-size="14.00" fill="#000000">intracellular membrane&#45;</text>
<text text-anchor="middle" x="688.3766" y="-85.8" font-family="Times,serif" font-size="14.00" fill="#000000">bounded organelle</text>
</g>
<!-- GO:0043231&#45;&gt;GO:0043229 -->
<g id="edge18" class="edge">
<title>GO:0043231&#45;&gt;GO:0043229</title>
<path fill="none" stroke="#000000" d="M664.7463,-136.1513C655.4194,-147.7363 644.738,-161.0037 635.4648,-172.522"/>
<polygon fill="#000000" stroke="#000000" points="632.5456,-170.5667 629.0008,-180.551 637.9982,-174.9565 632.5456,-170.5667"/>
</g>
<!-- GO:0043231&#45;&gt;GO:0043227 -->
<g id="edge19" class="edge">
<title>GO:0043231&#45;&gt;GO:0043227</title>
<path fill="none" stroke="#000000" d="M712.0069,-136.1513C719.0843,-144.9422 726.9416,-154.7018 734.3717,-163.9308"/>
<polygon fill="#000000" stroke="#000000" points="731.7636,-166.2724 740.7609,-171.8669 737.2161,-161.8826 731.7636,-166.2724"/>
</g>
<!-- GO:0005634 -->
<g id="node17" class="node">
<title>GO:0005634</title>
<polygon fill="#ffff00" stroke="#000000" points="732.9805,-41.4019 643.7727,-41.4019 643.7727,-.1981 732.9805,-.1981 732.9805,-41.4019"/>
<text text-anchor="middle" x="688.3766" y="-25" font-family="Times,serif" font-size="14.00" fill="#000000">GO:0005634</text>
<text text-anchor="middle" x="688.3766" y="-8.2" font-family="Times,serif" font-size="14.00" fill="#000000">nucleus</text>
</g>
<!-- GO:0005634&#45;&gt;GO:0043231 -->
<g id="edge20" class="edge">
<title>GO:0005634&#45;&gt;GO:0043231</title>
<path fill="none" stroke="#000000" d="M688.3766,-41.6182C688.3766,-49.3358 688.3766,-58.3662 688.3766,-67.2036"/>
<polygon fill="#000000" stroke="#000000" points="684.8767,-67.3991 688.3766,-77.3991 691.8767,-67.3992 684.8767,-67.3991"/>
</g>
</g>
</svg>
