<?xml version="1.0" encoding="UTF-8" standalone="no"?>
<!DOCTYPE svg PUBLIC "-//W3C//DTD SVG 1.1//EN"
 "http://www.w3.org/Graphics/SVG/1.1/DTD/svg11.dtd">
<!-- Generated by graphviz version 2.40.1 (20161225.0304)
 -->
<!-- Title: G Pages: 1 -->
<svg width="974pt" height="616pt"
 viewBox="0.00 0.00 973.60 616.00" xmlns="http://www.w3.org/2000/svg" xmlns:xlink="http://www.w3.org/1999/xlink">
<g id="graph0" class="graph" transform="scale(1 1) rotate(0) translate(4 612)">
<title>G</title>
<polygon fill="#ffffff" stroke="transparent" points="-4,4 -4,-612 969.6042,-612 969.6042,4 -4,4"/>
<!-- GO:2000241 -->
<g id="node1" class="node">
<title>GO:2000241</title>
<polygon fill="#00ff00" stroke="#000000" points="144.102,-436.2014 11.6512,-436.2014 11.6512,-377.3986 144.102,-377.3986 144.102,-436.2014"/>
<text text-anchor="middle" x="77.8766" y="-419.4" font-family="Times,serif" font-size="14.00" fill="#000000">GO:2000241</text>
<text text-anchor="middle" x="77.8766" y="-402.6" font-family="Times,serif" font-size="14.00" fill="#000000">regulation of</text>
<text text-anchor="middle" x="77.8766" y="-385.8" font-family="Times,serif" font-size="14.00" fill="#000000">reproductive process</text>
</g>
<!-- GO:0065007 -->
<g id="node2" class="node">
<title>GO:0065007</title>
<polygon fill="#00ff00" stroke="#000000" points="210.13,-521.8019 77.6232,-521.8019 77.6232,-480.5981 210.13,-480.5981 210.13,-521.8019"/>
<text text-anchor="middle" x="143.8766" y="-505.4" font-family="Times,serif" font-size="14.00" fill="#000000">GO:0065007</text>
<text text-anchor="middle" x="143.8766" y="-488.6" font-family="Times,serif" font-size="14.00" fill="#000000">biological regulation</text>
</g>
<!-- GO:2000241&#45;&gt;GO:0065007 -->
<g id="edge1" class="edge">
<title>GO:2000241&#45;&gt;GO:0065007</title>
<path fill="none" stroke="#000000" d="M98.3976,-436.1513C106.4187,-447.6238 115.5932,-460.7462 123.5914,-472.1861"/>
<polygon fill="#000000" stroke="#000000" points="120.8413,-474.3609 129.4398,-480.551 126.5782,-470.3499 120.8413,-474.3609"/>
</g>
<!-- GO:0050789 -->
<g id="node3" class="node">
<title>GO:0050789</title>
<polygon fill="#00ff00" stroke="#000000" points="375.791,-530.6014 227.9622,-530.6014 227.9622,-471.7986 375.791,-471.7986 375.791,-530.6014"/>
<text text-anchor="middle" x="301.8766" y="-513.8" font-family="Times,serif" font-size="14.00" fill="#000000">GO:0050789</text>
<text text-anchor="middle" x="301.8766" y="-497" font-family="Times,serif" font-size="14.00" fill="#000000">regulation of biological</text>
<text text-anchor="middle" x="301.8766" y="-480.2" font-family="Times,serif" font-size="14.00" fill="#000000">process</text>
</g>
<!-- GO:2000241&#45;&gt;GO:0050789 -->
<g id="edge2" class="edge">
<title>GO:2000241&#45;&gt;GO:0050789</title>
<path fill="none" stroke="#000000" d="M144.1748,-434.74C168.8778,-445.1505 197.1612,-457.0699 222.8917,-467.9135"/>
<polygon fill="#000000" stroke="#000000" points="221.6701,-471.1967 232.2444,-471.855 224.3886,-464.7462 221.6701,-471.1967"/>
</g>
<!-- GO:0008150 -->
<g id="node4" class="node">
<title>GO:0008150</title>
<polygon fill="#ffffff" stroke="#000000" points="600.3472,-607.8019 479.406,-607.8019 479.406,-566.5981 600.3472,-566.5981 600.3472,-607.8019"/>
<text text-anchor="middle" x="539.8766" y="-591.4" font-family="Times,serif" font-size="14.00" fill="#000000">GO:0008150</text>
<text text-anchor="middle" x="539.8766" y="-574.6" font-family="Times,serif" font-size="14.00" fill="#000000">biological_process</text>
</g>
<!-- GO:0065007&#45;&gt;GO:0008150 -->
<g id="edge3" class="edge">
<title>GO:0065007&#45;&gt;GO:0008150</title>
<path fill="none" stroke="#000000" d="M193.0324,-521.9151C201.5536,-525.0502 210.4002,-528.0248 218.8766,-530.4 303.4526,-554.0993 403.4579,-569.9392 469.1009,-578.7389"/>
<polygon fill="#000000" stroke="#000000" points="468.9612,-582.2508 479.3335,-580.0909 469.8782,-575.3111 468.9612,-582.2508"/>
</g>
<!-- GO:0050789&#45;&gt;GO:0008150 -->
<g id="edge4" class="edge">
<title>GO:0050789&#45;&gt;GO:0008150</title>
<path fill="none" stroke="#000000" d="M375.8767,-527.9395C406.9055,-539.1516 442.7212,-552.0934 472.9517,-563.017"/>
<polygon fill="#000000" stroke="#000000" points="471.963,-566.3812 482.5573,-566.488 474.3419,-559.7978 471.963,-566.3812"/>
</g>
<!-- GO:0048518 -->
<g id="node5" class="node">
<title>GO:0048518</title>
<polygon fill="#00ff00" stroke="#000000" points="297.63,-436.2014 162.1232,-436.2014 162.1232,-377.3986 297.63,-377.3986 297.63,-436.2014"/>
<text text-anchor="middle" x="229.8766" y="-419.4" font-family="Times,serif" font-size="14.00" fill="#000000">GO:0048518</text>
<text text-anchor="middle" x="229.8766" y="-402.6" font-family="Times,serif" font-size="14.00" fill="#000000">positive regulation of</text>
<text text-anchor="middle" x="229.8766" y="-385.8" font-family="Times,serif" font-size="14.00" fill="#000000">biological process</text>
</g>
<!-- GO:0048518&#45;&gt;GO:0065007 -->
<g id="edge5" class="edge">
<title>GO:0048518&#45;&gt;GO:0065007</title>
<path fill="none" stroke="#000000" d="M203.1371,-436.1513C192.4805,-447.8488 180.2613,-461.2615 169.6975,-472.857"/>
<polygon fill="#000000" stroke="#000000" points="166.8354,-470.8016 162.6882,-480.551 172.0101,-475.5157 166.8354,-470.8016"/>
</g>
<!-- GO:0048518&#45;&gt;GO:0050789 -->
<g id="edge6" class="edge">
<title>GO:0048518&#45;&gt;GO:0050789</title>
<path fill="none" stroke="#000000" d="M252.2632,-436.1513C258.9004,-444.8534 266.2615,-454.5047 273.2375,-463.6509"/>
<polygon fill="#000000" stroke="#000000" points="270.6564,-466.0382 279.5039,-471.8669 276.2223,-461.793 270.6564,-466.0382"/>
</g>
<!-- GO:0044702 -->
<g id="node6" class="node">
<title>GO:0044702</title>
<polygon fill="#ff0000" stroke="#000000" points="630.102,-436.2014 497.6512,-436.2014 497.6512,-377.3986 630.102,-377.3986 630.102,-436.2014"/>
<text text-anchor="middle" x="563.8766" y="-419.4" font-family="Times,serif" font-size="14.00" fill="#000000">GO:0044702</text>
<text text-anchor="middle" x="563.8766" y="-402.6" font-family="Times,serif" font-size="14.00" fill="#000000">single organism</text>
<text text-anchor="middle" x="563.8766" y="-385.8" font-family="Times,serif" font-size="14.00" fill="#000000">reproductive process</text>
</g>
<!-- GO:0022414 -->
<g id="node7" class="node">
<title>GO:0022414</title>
<polygon fill="#ff0000" stroke="#000000" points="526.102,-521.8019 393.6512,-521.8019 393.6512,-480.5981 526.102,-480.5981 526.102,-521.8019"/>
<text text-anchor="middle" x="459.8766" y="-505.4" font-family="Times,serif" font-size="14.00" fill="#000000">GO:0022414</text>
<text text-anchor="middle" x="459.8766" y="-488.6" font-family="Times,serif" font-size="14.00" fill="#000000">reproductive process</text>
</g>
<!-- GO:0044702&#45;&gt;GO:0022414 -->
<g id="edge7" class="edge">
<title>GO:0044702&#45;&gt;GO:0022414</title>
<path fill="none" stroke="#000000" d="M531.5404,-436.1513C518.4055,-448.0737 503.3076,-461.778 490.3672,-473.524"/>
<polygon fill="#000000" stroke="#000000" points="487.6777,-471.2383 482.6255,-480.551 492.3825,-476.4215 487.6777,-471.2383"/>
</g>
<!-- GO:0044699 -->
<g id="node8" class="node">
<title>GO:0044699</title>
<polygon fill="#ff0000" stroke="#000000" points="695.5579,-521.8019 544.1953,-521.8019 544.1953,-480.5981 695.5579,-480.5981 695.5579,-521.8019"/>
<text text-anchor="middle" x="619.8766" y="-505.4" font-family="Times,serif" font-size="14.00" fill="#000000">GO:0044699</text>
<text text-anchor="middle" x="619.8766" y="-488.6" font-family="Times,serif" font-size="14.00" fill="#000000">single&#45;organism process</text>
</g>
<!-- GO:0044702&#45;&gt;GO:0044699 -->
<g id="edge8" class="edge">
<title>GO:0044702&#45;&gt;GO:0044699</title>
<path fill="none" stroke="#000000" d="M581.2884,-436.1513C588.0274,-447.5113 595.7261,-460.4891 602.4651,-471.8491"/>
<polygon fill="#000000" stroke="#000000" points="599.5149,-473.7361 607.6272,-480.551 605.5353,-470.1647 599.5149,-473.7361"/>
</g>
<!-- GO:0022414&#45;&gt;GO:0008150 -->
<g id="edge9" class="edge">
<title>GO:0022414&#45;&gt;GO:0008150</title>
<path fill="none" stroke="#000000" d="M479.2424,-522.0182C489.5603,-533.1099 502.4005,-546.9132 513.6052,-558.9583"/>
<polygon fill="#000000" stroke="#000000" points="511.3154,-561.6355 520.6892,-566.5735 516.4408,-556.8677 511.3154,-561.6355"/>
</g>
<!-- GO:0044699&#45;&gt;GO:0008150 -->
<g id="edge10" class="edge">
<title>GO:0044699&#45;&gt;GO:0008150</title>
<path fill="none" stroke="#000000" d="M600.5108,-522.0182C590.1929,-533.1099 577.3527,-546.9132 566.148,-558.9583"/>
<polygon fill="#000000" stroke="#000000" points="563.3124,-556.8677 559.064,-566.5735 568.4378,-561.6355 563.3124,-556.8677"/>
</g>
<!-- GO:0043900 -->
<g id="node9" class="node">
<title>GO:0043900</title>
<polygon fill="#00ff00" stroke="#000000" points="441.5223,-436.2014 316.2309,-436.2014 316.2309,-377.3986 441.5223,-377.3986 441.5223,-436.2014"/>
<text text-anchor="middle" x="378.8766" y="-419.4" font-family="Times,serif" font-size="14.00" fill="#000000">GO:0043900</text>
<text text-anchor="middle" x="378.8766" y="-402.6" font-family="Times,serif" font-size="14.00" fill="#000000">regulation of multi&#45;</text>
<text text-anchor="middle" x="378.8766" y="-385.8" font-family="Times,serif" font-size="14.00" fill="#000000">organism process</text>
</g>
<!-- GO:0043900&#45;&gt;GO:0065007 -->
<g id="edge11" class="edge">
<title>GO:0043900&#45;&gt;GO:0065007</title>
<path fill="none" stroke="#000000" d="M316.0551,-432.2982C312.9522,-433.5512 309.8795,-434.7905 306.8766,-436 273.3302,-449.5117 235.8629,-464.5054 205.3166,-476.7044"/>
<polygon fill="#000000" stroke="#000000" points="203.6453,-473.603 195.6559,-480.5615 206.2409,-480.104 203.6453,-473.603"/>
</g>
<!-- GO:0043900&#45;&gt;GO:0050789 -->
<g id="edge12" class="edge">
<title>GO:0043900&#45;&gt;GO:0050789</title>
<path fill="none" stroke="#000000" d="M354.9354,-436.1513C347.7649,-444.9422 339.8042,-454.7018 332.2763,-463.9308"/>
<polygon fill="#000000" stroke="#000000" points="329.4116,-461.9055 325.803,-471.8669 334.836,-466.33 329.4116,-461.9055"/>
</g>
<!-- GO:0050896 -->
<g id="node10" class="node">
<title>GO:0050896</title>
<polygon fill="#00ffff" stroke="#000000" points="844.1982,-521.8019 713.555,-521.8019 713.555,-480.5981 844.1982,-480.5981 844.1982,-521.8019"/>
<text text-anchor="middle" x="778.8766" y="-505.4" font-family="Times,serif" font-size="14.00" fill="#000000">GO:0050896</text>
<text text-anchor="middle" x="778.8766" y="-488.6" font-family="Times,serif" font-size="14.00" fill="#000000">response to stimulus</text>
</g>
<!-- GO:0050896&#45;&gt;GO:0008150 -->
<g id="edge13" class="edge">
<title>GO:0050896&#45;&gt;GO:0008150</title>
<path fill="none" stroke="#000000" d="M727.2358,-521.9144C719.7544,-524.817 712.1322,-527.7212 704.8766,-530.4 673.9805,-541.8072 639.5703,-553.769 610.2019,-563.7572"/>
<polygon fill="#000000" stroke="#000000" points="608.7939,-560.5388 600.4478,-567.0652 611.0422,-567.168 608.7939,-560.5388"/>
</g>
<!-- GO:0035803 -->
<g id="node11" class="node">
<title>GO:0035803</title>
<polygon fill="#00ff00" stroke="#000000" points="675.6189,-221.8019 554.1343,-221.8019 554.1343,-180.5981 675.6189,-180.5981 675.6189,-221.8019"/>
<text text-anchor="middle" x="614.8766" y="-205.4" font-family="Times,serif" font-size="14.00" fill="#000000">GO:0035803</text>
<text text-anchor="middle" x="614.8766" y="-188.6" font-family="Times,serif" font-size="14.00" fill="#000000">egg coat formation</text>
</g>
<!-- GO:0022412 -->
<g id="node12" class="node">
<title>GO:0022412</title>
<polygon fill="#ffffff" stroke="#000000" points="692.8276,-341.7003 536.9256,-341.7003 536.9256,-266.2997 692.8276,-266.2997 692.8276,-341.7003"/>
<text text-anchor="middle" x="614.8766" y="-325" font-family="Times,serif" font-size="14.00" fill="#000000">GO:0022412</text>
<text text-anchor="middle" x="614.8766" y="-308.2" font-family="Times,serif" font-size="14.00" fill="#000000">cellular process involved</text>
<text text-anchor="middle" x="614.8766" y="-291.4" font-family="Times,serif" font-size="14.00" fill="#000000">in reproduction in</text>
<text text-anchor="middle" x="614.8766" y="-274.6" font-family="Times,serif" font-size="14.00" fill="#000000">multicellular organism</text>
</g>
<!-- GO:0035803&#45;&gt;GO:0022412 -->
<g id="edge14" class="edge">
<title>GO:0035803&#45;&gt;GO:0022412</title>
<path fill="none" stroke="#000000" d="M614.8766,-222.0031C614.8766,-231.8045 614.8766,-243.9396 614.8766,-255.842"/>
<polygon fill="#000000" stroke="#000000" points="611.3767,-256.1772 614.8766,-266.1773 618.3767,-256.1773 611.3767,-256.1772"/>
</g>
<!-- GO:0022412&#45;&gt;GO:0044702 -->
<g id="edge15" class="edge">
<title>GO:0022412&#45;&gt;GO:0044702</title>
<path fill="none" stroke="#000000" d="M596.1757,-341.6952C591.875,-350.364 587.2959,-359.594 582.9785,-368.2966"/>
<polygon fill="#000000" stroke="#000000" points="579.7308,-366.9677 578.4218,-377.4814 586.0015,-370.0787 579.7308,-366.9677"/>
</g>
<!-- GO:0044763 -->
<g id="node13" class="node">
<title>GO:0044763</title>
<polygon fill="#00ff00" stroke="#000000" points="818.5551,-436.2014 667.1981,-436.2014 667.1981,-377.3986 818.5551,-377.3986 818.5551,-436.2014"/>
<text text-anchor="middle" x="742.8766" y="-419.4" font-family="Times,serif" font-size="14.00" fill="#000000">GO:0044763</text>
<text text-anchor="middle" x="742.8766" y="-402.6" font-family="Times,serif" font-size="14.00" fill="#000000">single&#45;organism cellular</text>
<text text-anchor="middle" x="742.8766" y="-385.8" font-family="Times,serif" font-size="14.00" fill="#000000">process</text>
</g>
<!-- GO:0022412&#45;&gt;GO:0044763 -->
<g id="edge16" class="edge">
<title>GO:0022412&#45;&gt;GO:0044763</title>
<path fill="none" stroke="#000000" d="M661.8123,-341.6952C673.7544,-351.2863 686.5518,-361.5641 698.3689,-371.0548"/>
<polygon fill="#000000" stroke="#000000" points="696.3825,-373.9484 706.3709,-377.4814 700.7657,-368.4907 696.3825,-373.9484"/>
</g>
<!-- GO:0044763&#45;&gt;GO:0044699 -->
<g id="edge18" class="edge">
<title>GO:0044763&#45;&gt;GO:0044699</title>
<path fill="none" stroke="#000000" d="M704.6329,-436.1513C688.8052,-448.2987 670.5675,-462.2958 655.074,-474.1867"/>
<polygon fill="#000000" stroke="#000000" points="652.5836,-471.686 646.7816,-480.551 656.8455,-477.2391 652.5836,-471.686"/>
</g>
<!-- GO:0009987 -->
<g id="node14" class="node">
<title>GO:0009987</title>
<polygon fill="#ffffff" stroke="#000000" points="965.8328,-521.8019 861.9204,-521.8019 861.9204,-480.5981 965.8328,-480.5981 965.8328,-521.8019"/>
<text text-anchor="middle" x="913.8766" y="-505.4" font-family="Times,serif" font-size="14.00" fill="#000000">GO:0009987</text>
<text text-anchor="middle" x="913.8766" y="-488.6" font-family="Times,serif" font-size="14.00" fill="#000000">cellular process</text>
</g>
<!-- GO:0044763&#45;&gt;GO:0009987 -->
<g id="edge17" class="edge">
<title>GO:0044763&#45;&gt;GO:0009987</title>
<path fill="none" stroke="#000000" d="M796.0447,-436.1513C818.9658,-448.8048 845.5226,-463.4654 867.6157,-475.6618"/>
<polygon fill="#000000" stroke="#000000" points="866.026,-478.7821 876.4721,-480.551 869.4091,-472.6539 866.026,-478.7821"/>
</g>
<!-- GO:0009987&#45;&gt;GO:0008150 -->
<g id="edge19" class="edge">
<title>GO:0009987&#45;&gt;GO:0008150</title>
<path fill="none" stroke="#000000" d="M874.4722,-521.9332C867.413,-525.1045 860.0258,-528.0863 852.8766,-530.4 771.8274,-556.6293 674.8147,-571.8715 610.5001,-579.8444"/>
<polygon fill="#000000" stroke="#000000" points="609.9716,-576.3828 600.4662,-581.0622 610.815,-583.3318 609.9716,-576.3828"/>
</g>
<!-- GO:2000344 -->
<g id="node15" class="node">
<title>GO:2000344</title>
<polygon fill="#00ff00" stroke="#000000" points="293.63,-230.6014 158.1232,-230.6014 158.1232,-171.7986 293.63,-171.7986 293.63,-230.6014"/>
<text text-anchor="middle" x="225.8766" y="-213.8" font-family="Times,serif" font-size="14.00" fill="#000000">GO:2000344</text>
<text text-anchor="middle" x="225.8766" y="-197" font-family="Times,serif" font-size="14.00" fill="#000000">positive regulation of</text>
<text text-anchor="middle" x="225.8766" y="-180.2" font-family="Times,serif" font-size="14.00" fill="#000000">acrosome reaction</text>
</g>
<!-- GO:0043902 -->
<g id="node16" class="node">
<title>GO:0043902</title>
<polygon fill="#ffffff" stroke="#000000" points="463.6797,-333.4014 316.0735,-333.4014 316.0735,-274.5986 463.6797,-274.5986 463.6797,-333.4014"/>
<text text-anchor="middle" x="389.8766" y="-316.6" font-family="Times,serif" font-size="14.00" fill="#000000">GO:0043902</text>
<text text-anchor="middle" x="389.8766" y="-299.8" font-family="Times,serif" font-size="14.00" fill="#000000">positive regulation of</text>
<text text-anchor="middle" x="389.8766" y="-283" font-family="Times,serif" font-size="14.00" fill="#000000">multi&#45;organism process</text>
</g>
<!-- GO:2000344&#45;&gt;GO:0043902 -->
<g id="edge20" class="edge">
<title>GO:2000344&#45;&gt;GO:0043902</title>
<path fill="none" stroke="#000000" d="M272.8724,-230.6584C292.0834,-242.7004 314.45,-256.7204 334.4514,-269.2578"/>
<polygon fill="#000000" stroke="#000000" points="332.8257,-272.3696 343.1577,-274.7152 336.5435,-266.4385 332.8257,-272.3696"/>
</g>
<!-- GO:2000243 -->
<g id="node17" class="node">
<title>GO:2000243</title>
<polygon fill="#ffffff" stroke="#000000" points="135.63,-333.4014 .1232,-333.4014 .1232,-274.5986 135.63,-274.5986 135.63,-333.4014"/>
<text text-anchor="middle" x="67.8766" y="-316.6" font-family="Times,serif" font-size="14.00" fill="#000000">GO:2000243</text>
<text text-anchor="middle" x="67.8766" y="-299.8" font-family="Times,serif" font-size="14.00" fill="#000000">positive regulation of</text>
<text text-anchor="middle" x="67.8766" y="-283" font-family="Times,serif" font-size="14.00" fill="#000000">reproductive process</text>
</g>
<!-- GO:2000344&#45;&gt;GO:2000243 -->
<g id="edge21" class="edge">
<title>GO:2000344&#45;&gt;GO:2000243</title>
<path fill="none" stroke="#000000" d="M180.6001,-230.6584C162.092,-242.7004 140.5437,-256.7204 121.2741,-269.2578"/>
<polygon fill="#000000" stroke="#000000" points="119.3596,-266.3278 112.8863,-274.7152 123.1771,-272.1952 119.3596,-266.3278"/>
</g>
<!-- GO:0060046 -->
<g id="node18" class="node">
<title>GO:0060046</title>
<polygon fill="#ffffff" stroke="#000000" points="298.4384,-333.4014 153.3148,-333.4014 153.3148,-274.5986 298.4384,-274.5986 298.4384,-333.4014"/>
<text text-anchor="middle" x="225.8766" y="-316.6" font-family="Times,serif" font-size="14.00" fill="#000000">GO:0060046</text>
<text text-anchor="middle" x="225.8766" y="-299.8" font-family="Times,serif" font-size="14.00" fill="#000000">regulation of acrosome</text>
<text text-anchor="middle" x="225.8766" y="-283" font-family="Times,serif" font-size="14.00" fill="#000000">reaction</text>
</g>
<!-- GO:2000344&#45;&gt;GO:0060046 -->
<g id="edge22" class="edge">
<title>GO:2000344&#45;&gt;GO:0060046</title>
<path fill="none" stroke="#000000" d="M225.8766,-230.6584C225.8766,-241.1969 225.8766,-253.2505 225.8766,-264.4994"/>
<polygon fill="#000000" stroke="#000000" points="222.3767,-264.5373 225.8766,-274.5373 229.3767,-264.5374 222.3767,-264.5373"/>
</g>
<!-- GO:0043902&#45;&gt;GO:0048518 -->
<g id="edge23" class="edge">
<title>GO:0043902&#45;&gt;GO:0048518</title>
<path fill="none" stroke="#000000" d="M344.027,-333.4584C325.2846,-345.5004 303.4636,-359.5204 283.95,-372.0578"/>
<polygon fill="#000000" stroke="#000000" points="281.9773,-369.1651 275.4561,-377.5152 285.7611,-375.0543 281.9773,-369.1651"/>
</g>
<!-- GO:0043902&#45;&gt;GO:0043900 -->
<g id="edge24" class="edge">
<title>GO:0043902&#45;&gt;GO:0043900</title>
<path fill="none" stroke="#000000" d="M386.7244,-333.4584C385.5968,-343.9969 384.307,-356.0505 383.1033,-367.2994"/>
<polygon fill="#000000" stroke="#000000" points="379.6131,-367.0217 382.0292,-377.3373 386.5734,-367.7665 379.6131,-367.0217"/>
</g>
<!-- GO:2000243&#45;&gt;GO:2000241 -->
<g id="edge26" class="edge">
<title>GO:2000243&#45;&gt;GO:2000241</title>
<path fill="none" stroke="#000000" d="M70.7422,-333.4584C71.7674,-343.9969 72.9399,-356.0505 74.0341,-367.2994"/>
<polygon fill="#000000" stroke="#000000" points="70.5587,-367.7232 75.0106,-377.3373 77.5259,-367.0454 70.5587,-367.7232"/>
</g>
<!-- GO:2000243&#45;&gt;GO:0048518 -->
<g id="edge25" class="edge">
<title>GO:2000243&#45;&gt;GO:0048518</title>
<path fill="none" stroke="#000000" d="M114.2993,-333.4584C133.276,-345.5004 155.3698,-359.5204 175.1273,-372.0578"/>
<polygon fill="#000000" stroke="#000000" points="173.4086,-375.1124 183.7274,-377.5152 177.1592,-369.202 173.4086,-375.1124"/>
</g>
<!-- GO:0060046&#45;&gt;GO:2000241 -->
<g id="edge28" class="edge">
<title>GO:0060046&#45;&gt;GO:2000241</title>
<path fill="none" stroke="#000000" d="M183.4657,-333.4584C166.3622,-345.3384 146.4871,-359.1435 128.6241,-371.5511"/>
<polygon fill="#000000" stroke="#000000" points="126.254,-368.9358 120.0376,-377.5152 130.2474,-374.685 126.254,-368.9358"/>
</g>
<!-- GO:0060046&#45;&gt;GO:0043900 -->
<g id="edge27" class="edge">
<title>GO:0060046&#45;&gt;GO:0043900</title>
<path fill="none" stroke="#000000" d="M269.7203,-333.4584C287.5623,-345.4464 308.322,-359.3947 326.9178,-371.8891"/>
<polygon fill="#000000" stroke="#000000" points="325.0388,-374.8433 335.2912,-377.5152 328.9428,-369.033 325.0388,-374.8433"/>
</g>
<!-- GO:0007339 -->
<g id="node19" class="node">
<title>GO:0007339</title>
<polygon fill="#00ff00" stroke="#000000" points="711.8486,-58.6014 555.9046,-58.6014 555.9046,.2014 711.8486,.2014 711.8486,-58.6014"/>
<text text-anchor="middle" x="633.8766" y="-41.8" font-family="Times,serif" font-size="14.00" fill="#000000">GO:0007339</text>
<text text-anchor="middle" x="633.8766" y="-25" font-family="Times,serif" font-size="14.00" fill="#000000">binding of sperm to zona</text>
<text text-anchor="middle" x="633.8766" y="-8.2" font-family="Times,serif" font-size="14.00" fill="#000000">pellucida</text>
</g>
<!-- GO:0035036 -->
<g id="node20" class="node">
<title>GO:0035036</title>
<polygon fill="#ffffff" stroke="#000000" points="705.2242,-135.8019 562.529,-135.8019 562.529,-94.5981 705.2242,-94.5981 705.2242,-135.8019"/>
<text text-anchor="middle" x="633.8766" y="-119.4" font-family="Times,serif" font-size="14.00" fill="#000000">GO:0035036</text>
<text text-anchor="middle" x="633.8766" y="-102.6" font-family="Times,serif" font-size="14.00" fill="#000000">sperm&#45;egg recognition</text>
</g>
<!-- GO:0007339&#45;&gt;GO:0035036 -->
<g id="edge29" class="edge">
<title>GO:0007339&#45;&gt;GO:0035036</title>
<path fill="none" stroke="#000000" d="M633.8766,-58.7963C633.8766,-67.0638 633.8766,-76.0657 633.8766,-84.4008"/>
<polygon fill="#000000" stroke="#000000" points="630.3767,-84.4965 633.8766,-94.4966 637.3767,-84.4966 630.3767,-84.4965"/>
</g>
<!-- GO:0035036&#45;&gt;GO:0044702 -->
<g id="edge30" class="edge">
<title>GO:0035036&#45;&gt;GO:0044702</title>
<path fill="none" stroke="#000000" d="M586.3767,-135.8078C570.8945,-144.7759 555.0818,-156.7737 544.8766,-172 502.6998,-234.9286 508.9696,-268.2418 527.8766,-341.6 530.2228,-350.7032 534.1399,-359.8945 538.5465,-368.3897"/>
<polygon fill="#000000" stroke="#000000" points="535.5689,-370.2378 543.469,-377.2975 541.6956,-366.8521 535.5689,-370.2378"/>
</g>
<!-- GO:0009988 -->
<g id="node21" class="node">
<title>GO:0009988</title>
<polygon fill="#ffffff" stroke="#000000" points="824.2201,-221.8019 695.5331,-221.8019 695.5331,-180.5981 824.2201,-180.5981 824.2201,-221.8019"/>
<text text-anchor="middle" x="759.8766" y="-205.4" font-family="Times,serif" font-size="14.00" fill="#000000">GO:0009988</text>
<text text-anchor="middle" x="759.8766" y="-188.6" font-family="Times,serif" font-size="14.00" fill="#000000">cell&#45;cell recognition</text>
</g>
<!-- GO:0035036&#45;&gt;GO:0009988 -->
<g id="edge31" class="edge">
<title>GO:0035036&#45;&gt;GO:0009988</title>
<path fill="none" stroke="#000000" d="M664.3777,-136.0182C681.4022,-147.6381 702.7868,-162.234 721.002,-174.6665"/>
<polygon fill="#000000" stroke="#000000" points="719.4238,-177.8269 729.6564,-180.5735 723.37,-172.0452 719.4238,-177.8269"/>
</g>
<!-- GO:0008037 -->
<g id="node22" class="node">
<title>GO:0008037</title>
<polygon fill="#ffffff" stroke="#000000" points="814.8497,-324.6019 710.9035,-324.6019 710.9035,-283.3981 814.8497,-283.3981 814.8497,-324.6019"/>
<text text-anchor="middle" x="762.8766" y="-308.2" font-family="Times,serif" font-size="14.00" fill="#000000">GO:0008037</text>
<text text-anchor="middle" x="762.8766" y="-291.4" font-family="Times,serif" font-size="14.00" fill="#000000">cell recognition</text>
</g>
<!-- GO:0009988&#45;&gt;GO:0008037 -->
<g id="edge32" class="edge">
<title>GO:0009988&#45;&gt;GO:0008037</title>
<path fill="none" stroke="#000000" d="M760.4837,-222.0031C760.9107,-236.6337 761.4894,-256.4642 761.9707,-272.9586"/>
<polygon fill="#000000" stroke="#000000" points="758.4801,-273.3342 762.2704,-283.2278 765.4771,-273.13 758.4801,-273.3342"/>
</g>
<!-- GO:0008037&#45;&gt;GO:0044763 -->
<g id="edge33" class="edge">
<title>GO:0008037&#45;&gt;GO:0044763</title>
<path fill="none" stroke="#000000" d="M758.8293,-324.8031C756.4596,-336.9833 753.3887,-352.7676 750.5749,-367.2305"/>
<polygon fill="#000000" stroke="#000000" points="747.0594,-366.9734 748.5852,-377.4577 753.9306,-368.3102 747.0594,-366.9734"/>
</g>
</g>
</svg>
