<?xml version="1.0" encoding="UTF-8" standalone="no"?>
<!DOCTYPE svg PUBLIC "-//W3C//DTD SVG 1.1//EN"
 "http://www.w3.org/Graphics/SVG/1.1/DTD/svg11.dtd">
<!-- Generated by graphviz version 2.40.1 (20161225.0304)
 -->
<!-- Title: G Pages: 1 -->
<svg width="463pt" height="738pt"
 viewBox="0.00 0.00 462.79 737.60" xmlns="http://www.w3.org/2000/svg" xmlns:xlink="http://www.w3.org/1999/xlink">
<g id="graph0" class="graph" transform="scale(1 1) rotate(0) translate(4 733.6)">
<title>G</title>
<polygon fill="#ffffff" stroke="transparent" points="-4,4 -4,-733.6 458.7876,-733.6 458.7876,4 -4,4"/>
<!-- GO:0048741 -->
<g id="node1" class="node">
<title>GO:0048741</title>
<polygon fill="#ff0000" stroke="#000000" points="285.7902,-58.6014 154.1068,-58.6014 154.1068,.2014 285.7902,.2014 285.7902,-58.6014"/>
<text text-anchor="middle" x="219.9485" y="-41.8" font-family="Times,serif" font-size="14.00" fill="#000000">GO:0048741</text>
<text text-anchor="middle" x="219.9485" y="-25" font-family="Times,serif" font-size="14.00" fill="#000000">skeletal muscle fiber</text>
<text text-anchor="middle" x="219.9485" y="-8.2" font-family="Times,serif" font-size="14.00" fill="#000000">development</text>
</g>
<!-- GO:0014904 -->
<g id="node2" class="node">
<title>GO:0014904</title>
<polygon fill="#ffffff" stroke="#000000" points="211.971,-135.8019 47.926,-135.8019 47.926,-94.5981 211.971,-94.5981 211.971,-135.8019"/>
<text text-anchor="middle" x="129.9485" y="-119.4" font-family="Times,serif" font-size="14.00" fill="#000000">GO:0014904</text>
<text text-anchor="middle" x="129.9485" y="-102.6" font-family="Times,serif" font-size="14.00" fill="#000000">myotube cell development</text>
</g>
<!-- GO:0048741&#45;&gt;GO:0014904 -->
<g id="edge1" class="edge">
<title>GO:0048741&#45;&gt;GO:0014904</title>
<path fill="none" stroke="#000000" d="M189.2273,-58.5558C179.5035,-67.8474 168.7874,-78.0873 159.1716,-87.2757"/>
<polygon fill="#000000" stroke="#000000" points="156.5478,-84.9419 151.7359,-94.3809 161.3838,-90.0028 156.5478,-84.9419"/>
</g>
<!-- GO:0048747 -->
<g id="node3" class="node">
<title>GO:0048747</title>
<polygon fill="#ffffff" stroke="#000000" points="391.846,-135.8019 230.051,-135.8019 230.051,-94.5981 391.846,-94.5981 391.846,-135.8019"/>
<text text-anchor="middle" x="310.9485" y="-119.4" font-family="Times,serif" font-size="14.00" fill="#000000">GO:0048747</text>
<text text-anchor="middle" x="310.9485" y="-102.6" font-family="Times,serif" font-size="14.00" fill="#000000">muscle fiber development</text>
</g>
<!-- GO:0048741&#45;&gt;GO:0048747 -->
<g id="edge2" class="edge">
<title>GO:0048741&#45;&gt;GO:0048747</title>
<path fill="none" stroke="#000000" d="M251.011,-58.5558C260.8429,-67.8474 271.6781,-78.0873 281.4007,-87.2757"/>
<polygon fill="#000000" stroke="#000000" points="279.2471,-90.0561 288.919,-94.3809 284.0551,-84.9686 279.2471,-90.0561"/>
</g>
<!-- GO:0055002 -->
<g id="node4" class="node">
<title>GO:0055002</title>
<polygon fill="#ffffff" stroke="#000000" points="282.0201,-230.6014 157.8769,-230.6014 157.8769,-171.7986 282.0201,-171.7986 282.0201,-230.6014"/>
<text text-anchor="middle" x="219.9485" y="-213.8" font-family="Times,serif" font-size="14.00" fill="#000000">GO:0055002</text>
<text text-anchor="middle" x="219.9485" y="-197" font-family="Times,serif" font-size="14.00" fill="#000000">striated muscle cell</text>
<text text-anchor="middle" x="219.9485" y="-180.2" font-family="Times,serif" font-size="14.00" fill="#000000">development</text>
</g>
<!-- GO:0014904&#45;&gt;GO:0055002 -->
<g id="edge3" class="edge">
<title>GO:0014904&#45;&gt;GO:0055002</title>
<path fill="none" stroke="#000000" d="M151.735,-136.0182C160.7772,-144.6586 171.5415,-154.9444 181.8165,-164.7627"/>
<polygon fill="#000000" stroke="#000000" points="179.5322,-167.421 189.1802,-171.7991 184.3682,-162.3601 179.5322,-167.421"/>
</g>
<!-- GO:0048747&#45;&gt;GO:0055002 -->
<g id="edge4" class="edge">
<title>GO:0048747&#45;&gt;GO:0055002</title>
<path fill="none" stroke="#000000" d="M288.9199,-136.0182C279.7772,-144.6586 268.8934,-154.9444 258.5042,-164.7627"/>
<polygon fill="#000000" stroke="#000000" points="255.9226,-162.3868 251.0587,-171.7991 260.7307,-167.4743 255.9226,-162.3868"/>
</g>
<!-- GO:0055001 -->
<g id="node5" class="node">
<title>GO:0055001</title>
<polygon fill="#ffffff" stroke="#000000" points="297.6296,-307.8019 142.2674,-307.8019 142.2674,-266.5981 297.6296,-266.5981 297.6296,-307.8019"/>
<text text-anchor="middle" x="219.9485" y="-291.4" font-family="Times,serif" font-size="14.00" fill="#000000">GO:0055001</text>
<text text-anchor="middle" x="219.9485" y="-274.6" font-family="Times,serif" font-size="14.00" fill="#000000">muscle cell development</text>
</g>
<!-- GO:0055002&#45;&gt;GO:0055001 -->
<g id="edge5" class="edge">
<title>GO:0055002&#45;&gt;GO:0055001</title>
<path fill="none" stroke="#000000" d="M219.9485,-230.7963C219.9485,-239.0638 219.9485,-248.0657 219.9485,-256.4008"/>
<polygon fill="#000000" stroke="#000000" points="216.4486,-256.4965 219.9485,-266.4966 223.4486,-256.4966 216.4486,-256.4965"/>
</g>
<!-- GO:0048468 -->
<g id="node6" class="node">
<title>GO:0048468</title>
<polygon fill="#ffffff" stroke="#000000" points="275.9745,-385.4019 163.9225,-385.4019 163.9225,-344.1981 275.9745,-344.1981 275.9745,-385.4019"/>
<text text-anchor="middle" x="219.9485" y="-369" font-family="Times,serif" font-size="14.00" fill="#000000">GO:0048468</text>
<text text-anchor="middle" x="219.9485" y="-352.2" font-family="Times,serif" font-size="14.00" fill="#000000">cell development</text>
</g>
<!-- GO:0055001&#45;&gt;GO:0048468 -->
<g id="edge6" class="edge">
<title>GO:0055001&#45;&gt;GO:0048468</title>
<path fill="none" stroke="#000000" d="M219.9485,-307.9954C219.9485,-315.9109 219.9485,-325.1109 219.9485,-333.7722"/>
<polygon fill="#000000" stroke="#000000" points="216.4486,-333.9472 219.9485,-343.9472 223.4486,-333.9473 216.4486,-333.9472"/>
</g>
<!-- GO:0044767 -->
<g id="node7" class="node">
<title>GO:0044767</title>
<polygon fill="#ffffff" stroke="#000000" points="291.8483,-480.2014 148.0487,-480.2014 148.0487,-421.3986 291.8483,-421.3986 291.8483,-480.2014"/>
<text text-anchor="middle" x="219.9485" y="-463.4" font-family="Times,serif" font-size="14.00" fill="#000000">GO:0044767</text>
<text text-anchor="middle" x="219.9485" y="-446.6" font-family="Times,serif" font-size="14.00" fill="#000000">single&#45;organism</text>
<text text-anchor="middle" x="219.9485" y="-429.8" font-family="Times,serif" font-size="14.00" fill="#000000">developmental process</text>
</g>
<!-- GO:0048468&#45;&gt;GO:0044767 -->
<g id="edge7" class="edge">
<title>GO:0048468&#45;&gt;GO:0044767</title>
<path fill="none" stroke="#000000" d="M219.9485,-385.6182C219.9485,-393.3358 219.9485,-402.3662 219.9485,-411.2036"/>
<polygon fill="#000000" stroke="#000000" points="216.4486,-411.3991 219.9485,-421.3991 223.4486,-411.3992 216.4486,-411.3991"/>
</g>
<!-- GO:0048869 -->
<g id="node8" class="node">
<title>GO:0048869</title>
<polygon fill="#ffffff" stroke="#000000" points="453.8455,-480.2014 310.0515,-480.2014 310.0515,-421.3986 453.8455,-421.3986 453.8455,-480.2014"/>
<text text-anchor="middle" x="381.9485" y="-463.4" font-family="Times,serif" font-size="14.00" fill="#000000">GO:0048869</text>
<text text-anchor="middle" x="381.9485" y="-446.6" font-family="Times,serif" font-size="14.00" fill="#000000">cellular developmental</text>
<text text-anchor="middle" x="381.9485" y="-429.8" font-family="Times,serif" font-size="14.00" fill="#000000">process</text>
</g>
<!-- GO:0048468&#45;&gt;GO:0048869 -->
<g id="edge8" class="edge">
<title>GO:0048468&#45;&gt;GO:0048869</title>
<path fill="none" stroke="#000000" d="M259.1642,-385.6182C276.7856,-394.9728 298.0401,-406.2561 317.8769,-416.7867"/>
<polygon fill="#000000" stroke="#000000" points="316.3994,-419.9649 326.8731,-421.5624 319.6817,-413.7821 316.3994,-419.9649"/>
</g>
<!-- GO:0048856 -->
<g id="node9" class="node">
<title>GO:0048856</title>
<polygon fill="#ffffff" stroke="#000000" points="129.8455,-480.2014 .0515,-480.2014 .0515,-421.3986 129.8455,-421.3986 129.8455,-480.2014"/>
<text text-anchor="middle" x="64.9485" y="-463.4" font-family="Times,serif" font-size="14.00" fill="#000000">GO:0048856</text>
<text text-anchor="middle" x="64.9485" y="-446.6" font-family="Times,serif" font-size="14.00" fill="#000000">anatomical structure</text>
<text text-anchor="middle" x="64.9485" y="-429.8" font-family="Times,serif" font-size="14.00" fill="#000000">development</text>
</g>
<!-- GO:0048468&#45;&gt;GO:0048856 -->
<g id="edge9" class="edge">
<title>GO:0048468&#45;&gt;GO:0048856</title>
<path fill="none" stroke="#000000" d="M182.4273,-385.6182C165.6433,-394.9306 145.4143,-406.1544 126.5082,-416.6443"/>
<polygon fill="#000000" stroke="#000000" points="124.6902,-413.6503 117.6441,-421.5624 128.0864,-419.7712 124.6902,-413.6503"/>
</g>
<!-- GO:0032502 -->
<g id="node10" class="node">
<title>GO:0032502</title>
<polygon fill="#ffffff" stroke="#000000" points="192.8483,-565.8019 49.0487,-565.8019 49.0487,-524.5981 192.8483,-524.5981 192.8483,-565.8019"/>
<text text-anchor="middle" x="120.9485" y="-549.4" font-family="Times,serif" font-size="14.00" fill="#000000">GO:0032502</text>
<text text-anchor="middle" x="120.9485" y="-532.6" font-family="Times,serif" font-size="14.00" fill="#000000">developmental process</text>
</g>
<!-- GO:0044767&#45;&gt;GO:0032502 -->
<g id="edge10" class="edge">
<title>GO:0044767&#45;&gt;GO:0032502</title>
<path fill="none" stroke="#000000" d="M189.167,-480.1513C176.6636,-492.0737 162.2915,-505.778 149.9732,-517.524"/>
<polygon fill="#000000" stroke="#000000" points="147.4256,-515.117 142.6037,-524.551 152.2563,-520.1831 147.4256,-515.117"/>
</g>
<!-- GO:0044699 -->
<g id="node11" class="node">
<title>GO:0044699</title>
<polygon fill="#ffffff" stroke="#000000" points="300.6298,-651.8019 149.2672,-651.8019 149.2672,-610.5981 300.6298,-610.5981 300.6298,-651.8019"/>
<text text-anchor="middle" x="224.9485" y="-635.4" font-family="Times,serif" font-size="14.00" fill="#000000">GO:0044699</text>
<text text-anchor="middle" x="224.9485" y="-618.6" font-family="Times,serif" font-size="14.00" fill="#000000">single&#45;organism process</text>
</g>
<!-- GO:0044767&#45;&gt;GO:0044699 -->
<g id="edge11" class="edge">
<title>GO:0044767&#45;&gt;GO:0044699</title>
<path fill="none" stroke="#000000" d="M220.763,-480.1859C221.6794,-513.2492 223.1613,-566.7182 224.0939,-600.3643"/>
<polygon fill="#000000" stroke="#000000" points="220.6001,-600.6417 224.3759,-610.5409 227.5974,-600.4477 220.6001,-600.6417"/>
</g>
<!-- GO:0044763 -->
<g id="node12" class="node">
<title>GO:0044763</title>
<polygon fill="#ffffff" stroke="#000000" points="454.627,-574.6014 303.27,-574.6014 303.27,-515.7986 454.627,-515.7986 454.627,-574.6014"/>
<text text-anchor="middle" x="378.9485" y="-557.8" font-family="Times,serif" font-size="14.00" fill="#000000">GO:0044763</text>
<text text-anchor="middle" x="378.9485" y="-541" font-family="Times,serif" font-size="14.00" fill="#000000">single&#45;organism cellular</text>
<text text-anchor="middle" x="378.9485" y="-524.2" font-family="Times,serif" font-size="14.00" fill="#000000">process</text>
</g>
<!-- GO:0048869&#45;&gt;GO:0044763 -->
<g id="edge12" class="edge">
<title>GO:0048869&#45;&gt;GO:0044763</title>
<path fill="none" stroke="#000000" d="M381.0157,-480.1513C380.7589,-488.2318 380.4761,-497.1308 380.2043,-505.6838"/>
<polygon fill="#000000" stroke="#000000" points="376.7002,-505.7607 379.8807,-515.8669 383.6967,-505.9831 376.7002,-505.7607"/>
</g>
<!-- GO:0048856&#45;&gt;GO:0032502 -->
<g id="edge13" class="edge">
<title>GO:0048856&#45;&gt;GO:0032502</title>
<path fill="none" stroke="#000000" d="M82.3603,-480.1513C89.0993,-491.5113 96.798,-504.4891 103.537,-515.8491"/>
<polygon fill="#000000" stroke="#000000" points="100.5868,-517.7361 108.6991,-524.551 106.6072,-514.1647 100.5868,-517.7361"/>
</g>
<!-- GO:0008150 -->
<g id="node13" class="node">
<title>GO:0008150</title>
<polygon fill="#ffffff" stroke="#000000" points="233.4191,-729.4019 112.4779,-729.4019 112.4779,-688.1981 233.4191,-688.1981 233.4191,-729.4019"/>
<text text-anchor="middle" x="172.9485" y="-713" font-family="Times,serif" font-size="14.00" fill="#000000">GO:0008150</text>
<text text-anchor="middle" x="172.9485" y="-696.2" font-family="Times,serif" font-size="14.00" fill="#000000">biological_process</text>
</g>
<!-- GO:0032502&#45;&gt;GO:0008150 -->
<g id="edge14" class="edge">
<title>GO:0032502&#45;&gt;GO:0008150</title>
<path fill="none" stroke="#000000" d="M122.468,-565.8316C124.5729,-587.7598 129.3881,-623.1762 139.9485,-652 143.3483,-661.2796 148.2277,-670.7852 153.1954,-679.3005"/>
<polygon fill="#000000" stroke="#000000" points="150.3619,-681.3766 158.5547,-688.0943 156.3393,-677.7337 150.3619,-681.3766"/>
</g>
<!-- GO:0044699&#45;&gt;GO:0008150 -->
<g id="edge15" class="edge">
<title>GO:0044699&#45;&gt;GO:0008150</title>
<path fill="none" stroke="#000000" d="M211.0135,-651.9954C205.3595,-660.4328 198.7276,-670.3297 192.5974,-679.4778"/>
<polygon fill="#000000" stroke="#000000" points="189.5812,-677.6915 186.922,-687.9472 195.3964,-681.5883 189.5812,-677.6915"/>
</g>
<!-- GO:0044763&#45;&gt;GO:0044699 -->
<g id="edge17" class="edge">
<title>GO:0044763&#45;&gt;GO:0044699</title>
<path fill="none" stroke="#000000" d="M326.3812,-574.5558C308.4247,-584.5834 288.4907,-595.7154 271.08,-605.4383"/>
<polygon fill="#000000" stroke="#000000" points="269.2535,-602.4494 262.2291,-610.3809 272.6665,-608.561 269.2535,-602.4494"/>
</g>
<!-- GO:0009987 -->
<g id="node14" class="node">
<title>GO:0009987</title>
<polygon fill="#ffffff" stroke="#000000" points="430.9047,-651.8019 326.9923,-651.8019 326.9923,-610.5981 430.9047,-610.5981 430.9047,-651.8019"/>
<text text-anchor="middle" x="378.9485" y="-635.4" font-family="Times,serif" font-size="14.00" fill="#000000">GO:0009987</text>
<text text-anchor="middle" x="378.9485" y="-618.6" font-family="Times,serif" font-size="14.00" fill="#000000">cellular process</text>
</g>
<!-- GO:0044763&#45;&gt;GO:0009987 -->
<g id="edge16" class="edge">
<title>GO:0044763&#45;&gt;GO:0009987</title>
<path fill="none" stroke="#000000" d="M378.9485,-574.7963C378.9485,-583.0638 378.9485,-592.0657 378.9485,-600.4008"/>
<polygon fill="#000000" stroke="#000000" points="375.4486,-600.4965 378.9485,-610.4966 382.4486,-600.4966 375.4486,-600.4965"/>
</g>
</g>
</svg>
