<?xml version="1.0" encoding="UTF-8" standalone="no"?>
<!DOCTYPE svg PUBLIC "-//W3C//DTD SVG 1.1//EN"
 "http://www.w3.org/Graphics/SVG/1.1/DTD/svg11.dtd">
<!-- Generated by graphviz version 2.40.1 (20161225.0304)
 -->
<!-- Title: G Pages: 1 -->
<svg width="535pt" height="377pt"
 viewBox="0.00 0.00 535.26 376.80" xmlns="http://www.w3.org/2000/svg" xmlns:xlink="http://www.w3.org/1999/xlink">
<g id="graph0" class="graph" transform="scale(1 1) rotate(0) translate(4 372.8)">
<title>G</title>
<polygon fill="#ffffff" stroke="transparent" points="-4,4 -4,-372.8 531.2606,-372.8 531.2606,4 -4,4"/>
<!-- GO:1901363 -->
<g id="node1" class="node">
<title>GO:1901363</title>
<polygon fill="#00ff00" stroke="#000000" points="147.0159,-213.8014 -.0053,-213.8014 -.0053,-154.9986 147.0159,-154.9986 147.0159,-213.8014"/>
<text text-anchor="middle" x="73.5053" y="-197" font-family="Times,serif" font-size="14.00" fill="#000000">GO:1901363</text>
<text text-anchor="middle" x="73.5053" y="-180.2" font-family="Times,serif" font-size="14.00" fill="#000000">heterocyclic compound</text>
<text text-anchor="middle" x="73.5053" y="-163.4" font-family="Times,serif" font-size="14.00" fill="#000000">binding</text>
</g>
<!-- GO:0005488 -->
<g id="node2" class="node">
<title>GO:0005488</title>
<polygon fill="#ffffff" stroke="#000000" points="271.1092,-291.0019 181.9014,-291.0019 181.9014,-249.7981 271.1092,-249.7981 271.1092,-291.0019"/>
<text text-anchor="middle" x="226.5053" y="-274.6" font-family="Times,serif" font-size="14.00" fill="#000000">GO:0005488</text>
<text text-anchor="middle" x="226.5053" y="-257.8" font-family="Times,serif" font-size="14.00" fill="#000000">binding</text>
</g>
<!-- GO:1901363&#45;&gt;GO:0005488 -->
<g id="edge1" class="edge">
<title>GO:1901363&#45;&gt;GO:0005488</title>
<path fill="none" stroke="#000000" d="M125.7313,-213.7558C143.5711,-223.7834 163.3757,-234.9154 180.6734,-244.6383"/>
<polygon fill="#000000" stroke="#000000" points="179.0345,-247.732 189.4667,-249.5809 182.4644,-241.6299 179.0345,-247.732"/>
</g>
<!-- GO:0003674 -->
<g id="node3" class="node">
<title>GO:0003674</title>
<polygon fill="#ffffff" stroke="#000000" points="289.1384,-368.6019 163.8722,-368.6019 163.8722,-327.3981 289.1384,-327.3981 289.1384,-368.6019"/>
<text text-anchor="middle" x="226.5053" y="-352.2" font-family="Times,serif" font-size="14.00" fill="#000000">GO:0003674</text>
<text text-anchor="middle" x="226.5053" y="-335.4" font-family="Times,serif" font-size="14.00" fill="#000000">molecular_function</text>
</g>
<!-- GO:0005488&#45;&gt;GO:0003674 -->
<g id="edge2" class="edge">
<title>GO:0005488&#45;&gt;GO:0003674</title>
<path fill="none" stroke="#000000" d="M226.5053,-291.1954C226.5053,-299.1109 226.5053,-308.3109 226.5053,-316.9722"/>
<polygon fill="#000000" stroke="#000000" points="223.0054,-317.1472 226.5053,-327.1472 230.0054,-317.1473 223.0054,-317.1472"/>
</g>
<!-- GO:0008201 -->
<g id="node4" class="node">
<title>GO:0008201</title>
<polygon fill="#ffa500" stroke="#000000" points="278.7672,-41.4019 174.2434,-41.4019 174.2434,-.1981 278.7672,-.1981 278.7672,-41.4019"/>
<text text-anchor="middle" x="226.5053" y="-25" font-family="Times,serif" font-size="14.00" fill="#000000">GO:0008201</text>
<text text-anchor="middle" x="226.5053" y="-8.2" font-family="Times,serif" font-size="14.00" fill="#000000">heparin binding</text>
</g>
<!-- GO:1901681 -->
<g id="node5" class="node">
<title>GO:1901681</title>
<polygon fill="#ffffff" stroke="#000000" points="214.0488,-119.0019 56.9618,-119.0019 56.9618,-77.7981 214.0488,-77.7981 214.0488,-119.0019"/>
<text text-anchor="middle" x="135.5053" y="-102.6" font-family="Times,serif" font-size="14.00" fill="#000000">GO:1901681</text>
<text text-anchor="middle" x="135.5053" y="-85.8" font-family="Times,serif" font-size="14.00" fill="#000000">sulfur compound binding</text>
</g>
<!-- GO:0008201&#45;&gt;GO:1901681 -->
<g id="edge3" class="edge">
<title>GO:0008201&#45;&gt;GO:1901681</title>
<path fill="none" stroke="#000000" d="M202.119,-41.5954C191.5106,-50.6416 178.9347,-61.3657 167.583,-71.0458"/>
<polygon fill="#000000" stroke="#000000" points="165.297,-68.3954 159.9589,-77.5472 169.8391,-73.7218 165.297,-68.3954"/>
</g>
<!-- GO:0005539 -->
<g id="node6" class="node">
<title>GO:0005539</title>
<polygon fill="#ffffff" stroke="#000000" points="403.152,-119.0019 231.8586,-119.0019 231.8586,-77.7981 403.152,-77.7981 403.152,-119.0019"/>
<text text-anchor="middle" x="317.5053" y="-102.6" font-family="Times,serif" font-size="14.00" fill="#000000">GO:0005539</text>
<text text-anchor="middle" x="317.5053" y="-85.8" font-family="Times,serif" font-size="14.00" fill="#000000">glycosaminoglycan binding</text>
</g>
<!-- GO:0008201&#45;&gt;GO:0005539 -->
<g id="edge4" class="edge">
<title>GO:0008201&#45;&gt;GO:0005539</title>
<path fill="none" stroke="#000000" d="M250.8916,-41.5954C261.5,-50.6416 274.0759,-61.3657 285.4276,-71.0458"/>
<polygon fill="#000000" stroke="#000000" points="283.1715,-73.7218 293.0517,-77.5472 287.7136,-68.3954 283.1715,-73.7218"/>
</g>
<!-- GO:1901681&#45;&gt;GO:0005488 -->
<g id="edge5" class="edge">
<title>GO:1901681&#45;&gt;GO:0005488</title>
<path fill="none" stroke="#000000" d="M145.9165,-119.3409C157.5162,-142.526 176.952,-180.9423 194.5053,-213.6 199.3175,-222.5531 204.6914,-232.2146 209.6408,-240.9856"/>
<polygon fill="#000000" stroke="#000000" points="206.6259,-242.7645 214.6034,-249.7366 212.7149,-239.3114 206.6259,-242.7645"/>
</g>
<!-- GO:0097367 -->
<g id="node7" class="node">
<title>GO:0097367</title>
<polygon fill="#ffa500" stroke="#000000" points="351.5524,-213.8014 203.4582,-213.8014 203.4582,-154.9986 351.5524,-154.9986 351.5524,-213.8014"/>
<text text-anchor="middle" x="277.5053" y="-197" font-family="Times,serif" font-size="14.00" fill="#000000">GO:0097367</text>
<text text-anchor="middle" x="277.5053" y="-180.2" font-family="Times,serif" font-size="14.00" fill="#000000">carbohydrate derivative</text>
<text text-anchor="middle" x="277.5053" y="-163.4" font-family="Times,serif" font-size="14.00" fill="#000000">binding</text>
</g>
<!-- GO:0005539&#45;&gt;GO:0097367 -->
<g id="edge6" class="edge">
<title>GO:0005539&#45;&gt;GO:0097367</title>
<path fill="none" stroke="#000000" d="M307.8224,-119.2182C304.1158,-127.1875 299.7581,-136.5565 295.5204,-145.6675"/>
<polygon fill="#000000" stroke="#000000" points="292.224,-144.4558 291.1801,-154.9991 298.571,-147.408 292.224,-144.4558"/>
</g>
<!-- GO:0097367&#45;&gt;GO:0005488 -->
<g id="edge7" class="edge">
<title>GO:0097367&#45;&gt;GO:0005488</title>
<path fill="none" stroke="#000000" d="M259.954,-213.9963C254.7788,-222.7231 249.1183,-232.2682 243.9499,-240.9836"/>
<polygon fill="#000000" stroke="#000000" points="240.8733,-239.31 238.7829,-249.6966 246.8942,-242.8805 240.8733,-239.31"/>
</g>
<!-- GO:0097159 -->
<g id="node8" class="node">
<title>GO:0097159</title>
<polygon fill="#00ff00" stroke="#000000" points="527.0167,-213.8014 369.9939,-213.8014 369.9939,-154.9986 527.0167,-154.9986 527.0167,-213.8014"/>
<text text-anchor="middle" x="448.5053" y="-197" font-family="Times,serif" font-size="14.00" fill="#000000">GO:0097159</text>
<text text-anchor="middle" x="448.5053" y="-180.2" font-family="Times,serif" font-size="14.00" fill="#000000">organic cyclic compound</text>
<text text-anchor="middle" x="448.5053" y="-163.4" font-family="Times,serif" font-size="14.00" fill="#000000">binding</text>
</g>
<!-- GO:0097159&#45;&gt;GO:0005488 -->
<g id="edge8" class="edge">
<title>GO:0097159&#45;&gt;GO:0005488</title>
<path fill="none" stroke="#000000" d="M373.0365,-213.6357C342.7895,-225.353 308.6076,-238.5946 280.8704,-249.3396"/>
<polygon fill="#000000" stroke="#000000" points="279.4057,-246.1535 271.3452,-253.0296 281.9343,-252.6809 279.4057,-246.1535"/>
</g>
</g>
</svg>
