<?xml version="1.0" encoding="UTF-8" standalone="no"?>
<!DOCTYPE svg PUBLIC "-//W3C//DTD SVG 1.1//EN"
 "http://www.w3.org/Graphics/SVG/1.1/DTD/svg11.dtd">
<!-- Generated by graphviz version 2.40.1 (20161225.0304)
 -->
<!-- Title: G Pages: 1 -->
<svg width="645pt" height="471pt"
 viewBox="0.00 0.00 644.73 471.20" xmlns="http://www.w3.org/2000/svg" xmlns:xlink="http://www.w3.org/1999/xlink">
<g id="graph0" class="graph" transform="scale(1 1) rotate(0) translate(4 467.2)">
<title>G</title>
<polygon fill="#ffffff" stroke="transparent" points="-4,4 -4,-467.2 640.7276,-467.2 640.7276,4 -4,4"/>
<!-- GO:0044464 -->
<g id="node1" class="node">
<title>GO:0044464</title>
<polygon fill="#ff0000" stroke="#000000" points="184.1558,-385.4019 94.948,-385.4019 94.948,-344.1981 184.1558,-344.1981 184.1558,-385.4019"/>
<text text-anchor="middle" x="139.5519" y="-369" font-family="Times,serif" font-size="14.00" fill="#000000">GO:0044464</text>
<text text-anchor="middle" x="139.5519" y="-352.2" font-family="Times,serif" font-size="14.00" fill="#000000">cell part</text>
</g>
<!-- GO:0005575 -->
<g id="node2" class="node">
<title>GO:0005575</title>
<polygon fill="#ffffff" stroke="#000000" points="360.2386,-463.0019 232.8652,-463.0019 232.8652,-421.7981 360.2386,-421.7981 360.2386,-463.0019"/>
<text text-anchor="middle" x="296.5519" y="-446.6" font-family="Times,serif" font-size="14.00" fill="#000000">GO:0005575</text>
<text text-anchor="middle" x="296.5519" y="-429.8" font-family="Times,serif" font-size="14.00" fill="#000000">cellular_component</text>
</g>
<!-- GO:0044464&#45;&gt;GO:0005575 -->
<g id="edge1" class="edge">
<title>GO:0044464&#45;&gt;GO:0005575</title>
<path fill="none" stroke="#000000" d="M181.625,-385.5954C201.3264,-395.3331 224.9611,-407.015 245.6607,-417.2461"/>
<polygon fill="#000000" stroke="#000000" points="244.1195,-420.3885 254.6351,-421.6819 247.2212,-414.1132 244.1195,-420.3885"/>
</g>
<!-- GO:0043229 -->
<g id="node3" class="node">
<title>GO:0043229</title>
<polygon fill="#00ff00" stroke="#000000" points="246.2703,-221.8019 106.8335,-221.8019 106.8335,-180.5981 246.2703,-180.5981 246.2703,-221.8019"/>
<text text-anchor="middle" x="176.5519" y="-205.4" font-family="Times,serif" font-size="14.00" fill="#000000">GO:0043229</text>
<text text-anchor="middle" x="176.5519" y="-188.6" font-family="Times,serif" font-size="14.00" fill="#000000">intracellular organelle</text>
</g>
<!-- GO:0044424 -->
<g id="node4" class="node">
<title>GO:0044424</title>
<polygon fill="#ff0000" stroke="#000000" points="171.9503,-307.8019 63.1535,-307.8019 63.1535,-266.5981 171.9503,-266.5981 171.9503,-307.8019"/>
<text text-anchor="middle" x="117.5519" y="-291.4" font-family="Times,serif" font-size="14.00" fill="#000000">GO:0044424</text>
<text text-anchor="middle" x="117.5519" y="-274.6" font-family="Times,serif" font-size="14.00" fill="#000000">intracellular part</text>
</g>
<!-- GO:0043229&#45;&gt;GO:0044424 -->
<g id="edge2" class="edge">
<title>GO:0043229&#45;&gt;GO:0044424</title>
<path fill="none" stroke="#000000" d="M162.2696,-222.0182C154.8051,-232.8987 145.5506,-246.3884 137.4005,-258.2681"/>
<polygon fill="#000000" stroke="#000000" points="134.4737,-256.3475 131.7026,-266.5735 140.2459,-260.3075 134.4737,-256.3475"/>
</g>
<!-- GO:0043226 -->
<g id="node5" class="node">
<title>GO:0043226</title>
<polygon fill="#ffffff" stroke="#000000" points="279.1558,-307.8019 189.948,-307.8019 189.948,-266.5981 279.1558,-266.5981 279.1558,-307.8019"/>
<text text-anchor="middle" x="234.5519" y="-291.4" font-family="Times,serif" font-size="14.00" fill="#000000">GO:0043226</text>
<text text-anchor="middle" x="234.5519" y="-274.6" font-family="Times,serif" font-size="14.00" fill="#000000">organelle</text>
</g>
<!-- GO:0043229&#45;&gt;GO:0043226 -->
<g id="edge3" class="edge">
<title>GO:0043229&#45;&gt;GO:0043226</title>
<path fill="none" stroke="#000000" d="M190.5921,-222.0182C197.9301,-232.8987 207.0278,-246.3884 215.0397,-258.2681"/>
<polygon fill="#000000" stroke="#000000" points="212.1478,-260.2398 220.641,-266.5735 217.9513,-256.3258 212.1478,-260.2398"/>
</g>
<!-- GO:0044424&#45;&gt;GO:0044464 -->
<g id="edge4" class="edge">
<title>GO:0044424&#45;&gt;GO:0044464</title>
<path fill="none" stroke="#000000" d="M123.4475,-307.9954C125.7162,-315.9978 128.3572,-325.3133 130.8362,-334.0575"/>
<polygon fill="#000000" stroke="#000000" points="127.5451,-335.2811 133.64,-343.9472 134.2797,-333.3717 127.5451,-335.2811"/>
</g>
<!-- GO:0043226&#45;&gt;GO:0005575 -->
<g id="edge5" class="edge">
<title>GO:0043226&#45;&gt;GO:0005575</title>
<path fill="none" stroke="#000000" d="M232.3343,-308.1614C231.0329,-328.7896 231.4239,-360.7234 242.5519,-385.6 247.3217,-396.263 254.9655,-406.1622 263.0191,-414.6106"/>
<polygon fill="#000000" stroke="#000000" points="260.5659,-417.1071 270.1401,-421.6443 265.4851,-412.1268 260.5659,-417.1071"/>
</g>
<!-- GO:0043227 -->
<g id="node6" class="node">
<title>GO:0043227</title>
<polygon fill="#00ff00" stroke="#000000" points="392.5127,-230.6014 264.5911,-230.6014 264.5911,-171.7986 392.5127,-171.7986 392.5127,-230.6014"/>
<text text-anchor="middle" x="328.5519" y="-213.8" font-family="Times,serif" font-size="14.00" fill="#000000">GO:0043227</text>
<text text-anchor="middle" x="328.5519" y="-197" font-family="Times,serif" font-size="14.00" fill="#000000">membrane&#45;bounded</text>
<text text-anchor="middle" x="328.5519" y="-180.2" font-family="Times,serif" font-size="14.00" fill="#000000">organelle</text>
</g>
<!-- GO:0043227&#45;&gt;GO:0043226 -->
<g id="edge6" class="edge">
<title>GO:0043227&#45;&gt;GO:0043226</title>
<path fill="none" stroke="#000000" d="M296.4653,-230.5558C286.2088,-239.9394 274.8952,-250.2902 264.7759,-259.5483"/>
<polygon fill="#000000" stroke="#000000" points="262.3231,-257.0484 257.3076,-266.3809 267.0483,-262.2131 262.3231,-257.0484"/>
</g>
<!-- GO:0005737 -->
<g id="node7" class="node">
<title>GO:0005737</title>
<polygon fill="#00ff00" stroke="#000000" points="89.1558,-221.8019 -.052,-221.8019 -.052,-180.5981 89.1558,-180.5981 89.1558,-221.8019"/>
<text text-anchor="middle" x="44.5519" y="-205.4" font-family="Times,serif" font-size="14.00" fill="#000000">GO:0005737</text>
<text text-anchor="middle" x="44.5519" y="-188.6" font-family="Times,serif" font-size="14.00" fill="#000000">cytoplasm</text>
</g>
<!-- GO:0005737&#45;&gt;GO:0044424 -->
<g id="edge7" class="edge">
<title>GO:0005737&#45;&gt;GO:0044424</title>
<path fill="none" stroke="#000000" d="M62.2232,-222.0182C71.5486,-233.0043 83.132,-246.6506 93.2867,-258.6137"/>
<polygon fill="#000000" stroke="#000000" points="90.9037,-261.2147 100.0434,-266.5735 96.2403,-256.6847 90.9037,-261.2147"/>
</g>
<!-- GO:0016020 -->
<g id="node8" class="node">
<title>GO:0016020</title>
<polygon fill="#ffa500" stroke="#000000" points="341.1558,-385.4019 251.948,-385.4019 251.948,-344.1981 341.1558,-344.1981 341.1558,-385.4019"/>
<text text-anchor="middle" x="296.5519" y="-369" font-family="Times,serif" font-size="14.00" fill="#000000">GO:0016020</text>
<text text-anchor="middle" x="296.5519" y="-352.2" font-family="Times,serif" font-size="14.00" fill="#000000">membrane</text>
</g>
<!-- GO:0016020&#45;&gt;GO:0005575 -->
<g id="edge8" class="edge">
<title>GO:0016020&#45;&gt;GO:0005575</title>
<path fill="none" stroke="#000000" d="M296.5519,-385.5954C296.5519,-393.5109 296.5519,-402.7109 296.5519,-411.3722"/>
<polygon fill="#000000" stroke="#000000" points="293.052,-411.5472 296.5519,-421.5472 300.052,-411.5473 293.052,-411.5472"/>
</g>
<!-- GO:0043234 -->
<g id="node9" class="node">
<title>GO:0043234</title>
<polygon fill="#00ffff" stroke="#000000" points="492.4193,-307.8019 384.6845,-307.8019 384.6845,-266.5981 492.4193,-266.5981 492.4193,-307.8019"/>
<text text-anchor="middle" x="438.5519" y="-291.4" font-family="Times,serif" font-size="14.00" fill="#000000">GO:0043234</text>
<text text-anchor="middle" x="438.5519" y="-274.6" font-family="Times,serif" font-size="14.00" fill="#000000">protein complex</text>
</g>
<!-- GO:0032991 -->
<g id="node10" class="node">
<title>GO:0032991</title>
<polygon fill="#00ff00" stroke="#000000" points="517.7192,-385.4019 359.3846,-385.4019 359.3846,-344.1981 517.7192,-344.1981 517.7192,-385.4019"/>
<text text-anchor="middle" x="438.5519" y="-369" font-family="Times,serif" font-size="14.00" fill="#000000">GO:0032991</text>
<text text-anchor="middle" x="438.5519" y="-352.2" font-family="Times,serif" font-size="14.00" fill="#000000">macromolecular complex</text>
</g>
<!-- GO:0043234&#45;&gt;GO:0032991 -->
<g id="edge9" class="edge">
<title>GO:0043234&#45;&gt;GO:0032991</title>
<path fill="none" stroke="#000000" d="M438.5519,-307.9954C438.5519,-315.9109 438.5519,-325.1109 438.5519,-333.7722"/>
<polygon fill="#000000" stroke="#000000" points="435.052,-333.9472 438.5519,-343.9472 442.052,-333.9473 435.052,-333.9472"/>
</g>
<!-- GO:0032991&#45;&gt;GO:0005575 -->
<g id="edge10" class="edge">
<title>GO:0032991&#45;&gt;GO:0005575</title>
<path fill="none" stroke="#000000" d="M400.4985,-385.5954C382.9897,-395.1635 362.0463,-406.6087 343.5614,-416.7103"/>
<polygon fill="#000000" stroke="#000000" points="341.8071,-413.6804 334.7103,-421.5472 345.1639,-419.823 341.8071,-413.6804"/>
</g>
<!-- GO:0043231 -->
<g id="node11" class="node">
<title>GO:0043231</title>
<polygon fill="#00ff00" stroke="#000000" points="327.9307,-136.2014 177.1731,-136.2014 177.1731,-77.3986 327.9307,-77.3986 327.9307,-136.2014"/>
<text text-anchor="middle" x="252.5519" y="-119.4" font-family="Times,serif" font-size="14.00" fill="#000000">GO:0043231</text>
<text text-anchor="middle" x="252.5519" y="-102.6" font-family="Times,serif" font-size="14.00" fill="#000000">intracellular membrane&#45;</text>
<text text-anchor="middle" x="252.5519" y="-85.8" font-family="Times,serif" font-size="14.00" fill="#000000">bounded organelle</text>
</g>
<!-- GO:0043231&#45;&gt;GO:0043229 -->
<g id="edge11" class="edge">
<title>GO:0043231&#45;&gt;GO:0043229</title>
<path fill="none" stroke="#000000" d="M228.9216,-136.1513C219.5947,-147.7363 208.9133,-161.0037 199.6401,-172.522"/>
<polygon fill="#000000" stroke="#000000" points="196.7209,-170.5667 193.1761,-180.551 202.1735,-174.9565 196.7209,-170.5667"/>
</g>
<!-- GO:0043231&#45;&gt;GO:0043227 -->
<g id="edge12" class="edge">
<title>GO:0043231&#45;&gt;GO:0043227</title>
<path fill="none" stroke="#000000" d="M276.1822,-136.1513C283.2596,-144.9422 291.1169,-154.7018 298.547,-163.9308"/>
<polygon fill="#000000" stroke="#000000" points="295.9389,-166.2724 304.9362,-171.8669 301.3914,-161.8826 295.9389,-166.2724"/>
</g>
<!-- GO:0044425 -->
<g id="node12" class="node">
<title>GO:0044425</title>
<polygon fill="#00ffff" stroke="#000000" points="636.9039,-385.4019 536.1999,-385.4019 536.1999,-344.1981 636.9039,-344.1981 636.9039,-385.4019"/>
<text text-anchor="middle" x="586.5519" y="-369" font-family="Times,serif" font-size="14.00" fill="#000000">GO:0044425</text>
<text text-anchor="middle" x="586.5519" y="-352.2" font-family="Times,serif" font-size="14.00" fill="#000000">membrane part</text>
</g>
<!-- GO:0044425&#45;&gt;GO:0005575 -->
<g id="edge13" class="edge">
<title>GO:0044425&#45;&gt;GO:0005575</title>
<path fill="none" stroke="#000000" d="M536.2455,-382.6142C532.9752,-383.6562 529.7232,-384.6609 526.5519,-385.6 474.7466,-400.9414 415.5474,-415.4941 370.1829,-426.0281"/>
<polygon fill="#000000" stroke="#000000" points="369.3848,-422.6202 360.4288,-428.2807 370.96,-429.4407 369.3848,-422.6202"/>
</g>
<!-- GO:0005634 -->
<g id="node13" class="node">
<title>GO:0005634</title>
<polygon fill="#00ffff" stroke="#000000" points="297.1558,-41.4019 207.948,-41.4019 207.948,-.1981 297.1558,-.1981 297.1558,-41.4019"/>
<text text-anchor="middle" x="252.5519" y="-25" font-family="Times,serif" font-size="14.00" fill="#000000">GO:0005634</text>
<text text-anchor="middle" x="252.5519" y="-8.2" font-family="Times,serif" font-size="14.00" fill="#000000">nucleus</text>
</g>
<!-- GO:0005634&#45;&gt;GO:0043231 -->
<g id="edge14" class="edge">
<title>GO:0005634&#45;&gt;GO:0043231</title>
<path fill="none" stroke="#000000" d="M252.5519,-41.6182C252.5519,-49.3358 252.5519,-58.3662 252.5519,-67.2036"/>
<polygon fill="#000000" stroke="#000000" points="249.052,-67.3991 252.5519,-77.3991 256.052,-67.3992 249.052,-67.3991"/>
</g>
</g>
</svg>
