<?xml version="1.0" encoding="UTF-8" standalone="no"?>
<!DOCTYPE svg PUBLIC "-//W3C//DTD SVG 1.1//EN"
 "http://www.w3.org/Graphics/SVG/1.1/DTD/svg11.dtd">
<!-- Generated by graphviz version 2.40.1 (20161225.0304)
 -->
<!-- Title: G Pages: 1 -->
<svg width="432pt" height="299pt"
 viewBox="0.00 0.00 432.22 299.20" xmlns="http://www.w3.org/2000/svg" xmlns:xlink="http://www.w3.org/1999/xlink">
<g id="graph0" class="graph" transform="scale(1 1) rotate(0) translate(4 295.2)">
<title>G</title>
<polygon fill="#ffffff" stroke="transparent" points="-4,4 -4,-295.2 428.2182,-295.2 428.2182,4 -4,4"/>
<!-- GO:0043229 -->
<g id="node1" class="node">
<title>GO:0043229</title>
<polygon fill="#00ff00" stroke="#000000" points="139.3275,-49.8019 -.1093,-49.8019 -.1093,-8.5981 139.3275,-8.5981 139.3275,-49.8019"/>
<text text-anchor="middle" x="69.6091" y="-33.4" font-family="Times,serif" font-size="14.00" fill="#000000">GO:0043229</text>
<text text-anchor="middle" x="69.6091" y="-16.6" font-family="Times,serif" font-size="14.00" fill="#000000">intracellular organelle</text>
</g>
<!-- GO:0044424 -->
<g id="node2" class="node">
<title>GO:0044424</title>
<polygon fill="#ff0000" stroke="#000000" points="248.0075,-135.8019 139.2107,-135.8019 139.2107,-94.5981 248.0075,-94.5981 248.0075,-135.8019"/>
<text text-anchor="middle" x="193.6091" y="-119.4" font-family="Times,serif" font-size="14.00" fill="#000000">GO:0044424</text>
<text text-anchor="middle" x="193.6091" y="-102.6" font-family="Times,serif" font-size="14.00" fill="#000000">intracellular part</text>
</g>
<!-- GO:0043229&#45;&gt;GO:0044424 -->
<g id="edge1" class="edge">
<title>GO:0043229&#45;&gt;GO:0044424</title>
<path fill="none" stroke="#000000" d="M99.626,-50.0182C116.3803,-61.6381 137.4255,-76.234 155.3516,-88.6665"/>
<polygon fill="#000000" stroke="#000000" points="153.6568,-91.7505 163.8686,-94.5735 157.6461,-85.9985 153.6568,-91.7505"/>
</g>
<!-- GO:0043226 -->
<g id="node3" class="node">
<title>GO:0043226</title>
<polygon fill="#00ff00" stroke="#000000" points="114.213,-213.4019 25.0052,-213.4019 25.0052,-172.1981 114.213,-172.1981 114.213,-213.4019"/>
<text text-anchor="middle" x="69.6091" y="-197" font-family="Times,serif" font-size="14.00" fill="#000000">GO:0043226</text>
<text text-anchor="middle" x="69.6091" y="-180.2" font-family="Times,serif" font-size="14.00" fill="#000000">organelle</text>
</g>
<!-- GO:0043229&#45;&gt;GO:0043226 -->
<g id="edge2" class="edge">
<title>GO:0043229&#45;&gt;GO:0043226</title>
<path fill="none" stroke="#000000" d="M69.6091,-49.9201C69.6091,-78.1159 69.6091,-128.8064 69.6091,-161.6099"/>
<polygon fill="#000000" stroke="#000000" points="66.1092,-161.9904 69.6091,-171.9904 73.1092,-161.9905 66.1092,-161.9904"/>
</g>
<!-- GO:0044464 -->
<g id="node4" class="node">
<title>GO:0044464</title>
<polygon fill="#ff0000" stroke="#000000" points="221.213,-213.4019 132.0052,-213.4019 132.0052,-172.1981 221.213,-172.1981 221.213,-213.4019"/>
<text text-anchor="middle" x="176.6091" y="-197" font-family="Times,serif" font-size="14.00" fill="#000000">GO:0044464</text>
<text text-anchor="middle" x="176.6091" y="-180.2" font-family="Times,serif" font-size="14.00" fill="#000000">cell part</text>
</g>
<!-- GO:0044424&#45;&gt;GO:0044464 -->
<g id="edge3" class="edge">
<title>GO:0044424&#45;&gt;GO:0044464</title>
<path fill="none" stroke="#000000" d="M189.0534,-135.9954C187.3003,-143.9978 185.2595,-153.3133 183.3439,-162.0575"/>
<polygon fill="#000000" stroke="#000000" points="179.8985,-161.4299 181.1774,-171.9472 186.7363,-162.9279 179.8985,-161.4299"/>
</g>
<!-- GO:0005575 -->
<g id="node5" class="node">
<title>GO:0005575</title>
<polygon fill="#ffffff" stroke="#000000" points="293.2958,-291.0019 165.9224,-291.0019 165.9224,-249.7981 293.2958,-249.7981 293.2958,-291.0019"/>
<text text-anchor="middle" x="229.6091" y="-274.6" font-family="Times,serif" font-size="14.00" fill="#000000">GO:0005575</text>
<text text-anchor="middle" x="229.6091" y="-257.8" font-family="Times,serif" font-size="14.00" fill="#000000">cellular_component</text>
</g>
<!-- GO:0043226&#45;&gt;GO:0005575 -->
<g id="edge4" class="edge">
<title>GO:0043226&#45;&gt;GO:0005575</title>
<path fill="none" stroke="#000000" d="M112.4862,-213.5954C132.564,-223.3331 156.6503,-235.015 177.7454,-245.2461"/>
<polygon fill="#000000" stroke="#000000" points="176.3664,-248.4672 186.8913,-249.6819 179.4211,-242.1688 176.3664,-248.4672"/>
</g>
<!-- GO:0044464&#45;&gt;GO:0005575 -->
<g id="edge6" class="edge">
<title>GO:0044464&#45;&gt;GO:0005575</title>
<path fill="none" stroke="#000000" d="M190.8121,-213.5954C196.5748,-222.0328 203.3343,-231.9297 209.5824,-241.0778"/>
<polygon fill="#000000" stroke="#000000" points="206.8366,-243.2634 215.3669,-249.5472 212.6171,-239.3154 206.8366,-243.2634"/>
</g>
<!-- GO:0016020 -->
<g id="node6" class="node">
<title>GO:0016020</title>
<polygon fill="#ff00ff" stroke="#000000" points="328.213,-213.4019 239.0052,-213.4019 239.0052,-172.1981 328.213,-172.1981 328.213,-213.4019"/>
<text text-anchor="middle" x="283.6091" y="-197" font-family="Times,serif" font-size="14.00" fill="#000000">GO:0016020</text>
<text text-anchor="middle" x="283.6091" y="-180.2" font-family="Times,serif" font-size="14.00" fill="#000000">membrane</text>
</g>
<!-- GO:0016020&#45;&gt;GO:0005575 -->
<g id="edge5" class="edge">
<title>GO:0016020&#45;&gt;GO:0005575</title>
<path fill="none" stroke="#000000" d="M269.1381,-213.5954C263.2667,-222.0328 256.3797,-231.9297 250.0137,-241.0778"/>
<polygon fill="#000000" stroke="#000000" points="246.9591,-239.3398 244.1201,-249.5472 252.7049,-243.3382 246.9591,-239.3398"/>
</g>
<!-- GO:0044446 -->
<g id="node7" class="node">
<title>GO:0044446</title>
<polygon fill="#00ff00" stroke="#000000" points="424.3275,-58.6014 284.8907,-58.6014 284.8907,.2014 424.3275,.2014 424.3275,-58.6014"/>
<text text-anchor="middle" x="354.6091" y="-41.8" font-family="Times,serif" font-size="14.00" fill="#000000">GO:0044446</text>
<text text-anchor="middle" x="354.6091" y="-25" font-family="Times,serif" font-size="14.00" fill="#000000">intracellular organelle</text>
<text text-anchor="middle" x="354.6091" y="-8.2" font-family="Times,serif" font-size="14.00" fill="#000000">part</text>
</g>
<!-- GO:0044446&#45;&gt;GO:0044424 -->
<g id="edge7" class="edge">
<title>GO:0044446&#45;&gt;GO:0044424</title>
<path fill="none" stroke="#000000" d="M299.6523,-58.5558C280.7936,-68.6294 259.8483,-79.8176 241.5871,-89.572"/>
<polygon fill="#000000" stroke="#000000" points="239.7558,-86.5821 232.5843,-94.3809 243.0539,-92.7565 239.7558,-86.5821"/>
</g>
<!-- GO:0044422 -->
<g id="node8" class="node">
<title>GO:0044422</title>
<polygon fill="#00ff00" stroke="#000000" points="402.4612,-135.8019 308.757,-135.8019 308.757,-94.5981 402.4612,-94.5981 402.4612,-135.8019"/>
<text text-anchor="middle" x="355.6091" y="-119.4" font-family="Times,serif" font-size="14.00" fill="#000000">GO:0044422</text>
<text text-anchor="middle" x="355.6091" y="-102.6" font-family="Times,serif" font-size="14.00" fill="#000000">organelle part</text>
</g>
<!-- GO:0044446&#45;&gt;GO:0044422 -->
<g id="edge8" class="edge">
<title>GO:0044446&#45;&gt;GO:0044422</title>
<path fill="none" stroke="#000000" d="M354.9532,-58.7963C355.0494,-67.0638 355.1541,-76.0657 355.251,-84.4008"/>
<polygon fill="#000000" stroke="#000000" points="351.7522,-84.538 355.3684,-94.4966 358.7518,-84.4565 351.7522,-84.538"/>
</g>
<!-- GO:0044422&#45;&gt;GO:0005575 -->
<g id="edge9" class="edge">
<title>GO:0044422&#45;&gt;GO:0005575</title>
<path fill="none" stroke="#000000" d="M356.8497,-136.0882C357.0525,-157.5469 354.2699,-190.9295 337.6091,-213.6 328.0509,-226.6058 314.6164,-236.9012 300.4592,-244.9474"/>
<polygon fill="#000000" stroke="#000000" points="298.7643,-241.8846 291.5793,-249.6709 302.0516,-248.0647 298.7643,-241.8846"/>
</g>
<!-- GO:0044444 -->
<g id="node9" class="node">
<title>GO:0044444</title>
<polygon fill="#00ff00" stroke="#000000" points="266.0257,-49.8019 157.1925,-49.8019 157.1925,-8.5981 266.0257,-8.5981 266.0257,-49.8019"/>
<text text-anchor="middle" x="211.6091" y="-33.4" font-family="Times,serif" font-size="14.00" fill="#000000">GO:0044444</text>
<text text-anchor="middle" x="211.6091" y="-16.6" font-family="Times,serif" font-size="14.00" fill="#000000">cytoplasmic part</text>
</g>
<!-- GO:0044444&#45;&gt;GO:0044424 -->
<g id="edge10" class="edge">
<title>GO:0044444&#45;&gt;GO:0044424</title>
<path fill="none" stroke="#000000" d="M207.2518,-50.0182C205.085,-60.3705 202.4239,-73.0848 200.029,-84.5271"/>
<polygon fill="#000000" stroke="#000000" points="196.5492,-84.0686 197.9263,-94.5735 203.4007,-85.5027 196.5492,-84.0686"/>
</g>
</g>
</svg>
