<?xml version="1.0" encoding="UTF-8" standalone="no"?>
<!DOCTYPE svg PUBLIC "-//W3C//DTD SVG 1.1//EN"
 "http://www.w3.org/Graphics/SVG/1.1/DTD/svg11.dtd">
<!-- Generated by graphviz version 2.40.1 (20161225.0304)
 -->
<!-- Title: G Pages: 1 -->
<svg width="755pt" height="222pt"
 viewBox="0.00 0.00 755.47 221.60" xmlns="http://www.w3.org/2000/svg" xmlns:xlink="http://www.w3.org/1999/xlink">
<g id="graph0" class="graph" transform="scale(1 1) rotate(0) translate(4 217.6)">
<title>G</title>
<polygon fill="#ffffff" stroke="transparent" points="-4,4 -4,-217.6 751.4699,-217.6 751.4699,4 -4,4"/>
<!-- GO:0006807 -->
<g id="node1" class="node">
<title>GO:0006807</title>
<polygon fill="#ff00ff" stroke="#000000" points="125.3927,-58.6014 -.1311,-58.6014 -.1311,.2014 125.3927,.2014 125.3927,-58.6014"/>
<text text-anchor="middle" x="62.6308" y="-41.8" font-family="Times,serif" font-size="14.00" fill="#000000">GO:0006807</text>
<text text-anchor="middle" x="62.6308" y="-25" font-family="Times,serif" font-size="14.00" fill="#000000">nitrogen compound</text>
<text text-anchor="middle" x="62.6308" y="-8.2" font-family="Times,serif" font-size="14.00" fill="#000000">metabolic process</text>
</g>
<!-- GO:0008152 -->
<g id="node2" class="node">
<title>GO:0008152</title>
<polygon fill="#00ff00" stroke="#000000" points="418.8164,-135.8019 302.4452,-135.8019 302.4452,-94.5981 418.8164,-94.5981 418.8164,-135.8019"/>
<text text-anchor="middle" x="360.6308" y="-119.4" font-family="Times,serif" font-size="14.00" fill="#000000">GO:0008152</text>
<text text-anchor="middle" x="360.6308" y="-102.6" font-family="Times,serif" font-size="14.00" fill="#000000">metabolic process</text>
</g>
<!-- GO:0006807&#45;&gt;GO:0008152 -->
<g id="edge1" class="edge">
<title>GO:0006807&#45;&gt;GO:0008152</title>
<path fill="none" stroke="#000000" d="M125.269,-55.2013C128.4204,-56.3212 131.5535,-57.3947 134.6308,-58.4 186.8291,-75.4525 247.2093,-90.39 292.4209,-100.6615"/>
<polygon fill="#000000" stroke="#000000" points="291.8839,-104.1281 302.4086,-102.9108 293.4219,-97.2992 291.8839,-104.1281"/>
</g>
<!-- GO:0008150 -->
<g id="node3" class="node">
<title>GO:0008150</title>
<polygon fill="#ffffff" stroke="#000000" points="581.1014,-213.4019 460.1602,-213.4019 460.1602,-172.1981 581.1014,-172.1981 581.1014,-213.4019"/>
<text text-anchor="middle" x="520.6308" y="-197" font-family="Times,serif" font-size="14.00" fill="#000000">GO:0008150</text>
<text text-anchor="middle" x="520.6308" y="-180.2" font-family="Times,serif" font-size="14.00" fill="#000000">biological_process</text>
</g>
<!-- GO:0008152&#45;&gt;GO:0008150 -->
<g id="edge2" class="edge">
<title>GO:0008152&#45;&gt;GO:0008150</title>
<path fill="none" stroke="#000000" d="M403.5079,-135.9954C423.5857,-145.7331 447.672,-157.415 468.7671,-167.6461"/>
<polygon fill="#000000" stroke="#000000" points="467.3881,-170.8672 477.913,-172.0819 470.4428,-164.5688 467.3881,-170.8672"/>
</g>
<!-- GO:0044763 -->
<g id="node4" class="node">
<title>GO:0044763</title>
<polygon fill="#00ff00" stroke="#000000" points="747.3093,-58.6014 595.9523,-58.6014 595.9523,.2014 747.3093,.2014 747.3093,-58.6014"/>
<text text-anchor="middle" x="671.6308" y="-41.8" font-family="Times,serif" font-size="14.00" fill="#000000">GO:0044763</text>
<text text-anchor="middle" x="671.6308" y="-25" font-family="Times,serif" font-size="14.00" fill="#000000">single&#45;organism cellular</text>
<text text-anchor="middle" x="671.6308" y="-8.2" font-family="Times,serif" font-size="14.00" fill="#000000">process</text>
</g>
<!-- GO:0009987 -->
<g id="node5" class="node">
<title>GO:0009987</title>
<polygon fill="#ff0000" stroke="#000000" points="572.587,-135.8019 468.6746,-135.8019 468.6746,-94.5981 572.587,-94.5981 572.587,-135.8019"/>
<text text-anchor="middle" x="520.6308" y="-119.4" font-family="Times,serif" font-size="14.00" fill="#000000">GO:0009987</text>
<text text-anchor="middle" x="520.6308" y="-102.6" font-family="Times,serif" font-size="14.00" fill="#000000">cellular process</text>
</g>
<!-- GO:0044763&#45;&gt;GO:0009987 -->
<g id="edge3" class="edge">
<title>GO:0044763&#45;&gt;GO:0009987</title>
<path fill="none" stroke="#000000" d="M620.0875,-58.5558C602.6424,-68.4914 583.2936,-79.5112 566.3341,-89.1703"/>
<polygon fill="#000000" stroke="#000000" points="564.1425,-86.3906 557.1852,-94.3809 567.6069,-92.4732 564.1425,-86.3906"/>
</g>
<!-- GO:0044699 -->
<g id="node6" class="node">
<title>GO:0044699</title>
<polygon fill="#ffa500" stroke="#000000" points="745.3121,-135.8019 593.9495,-135.8019 593.9495,-94.5981 745.3121,-94.5981 745.3121,-135.8019"/>
<text text-anchor="middle" x="669.6308" y="-119.4" font-family="Times,serif" font-size="14.00" fill="#000000">GO:0044699</text>
<text text-anchor="middle" x="669.6308" y="-102.6" font-family="Times,serif" font-size="14.00" fill="#000000">single&#45;organism process</text>
</g>
<!-- GO:0044763&#45;&gt;GO:0044699 -->
<g id="edge4" class="edge">
<title>GO:0044763&#45;&gt;GO:0044699</title>
<path fill="none" stroke="#000000" d="M670.9425,-58.7963C670.7502,-67.0638 670.5409,-76.0657 670.3471,-84.4008"/>
<polygon fill="#000000" stroke="#000000" points="666.8458,-84.4178 670.1123,-94.4966 673.8439,-84.5807 666.8458,-84.4178"/>
</g>
<!-- GO:0009987&#45;&gt;GO:0008150 -->
<g id="edge5" class="edge">
<title>GO:0009987&#45;&gt;GO:0008150</title>
<path fill="none" stroke="#000000" d="M520.6308,-135.9954C520.6308,-143.9109 520.6308,-153.1109 520.6308,-161.7722"/>
<polygon fill="#000000" stroke="#000000" points="517.1309,-161.9472 520.6308,-171.9472 524.1309,-161.9473 517.1309,-161.9472"/>
</g>
<!-- GO:0044699&#45;&gt;GO:0008150 -->
<g id="edge6" class="edge">
<title>GO:0044699&#45;&gt;GO:0008150</title>
<path fill="none" stroke="#000000" d="M629.7015,-135.9954C611.1717,-145.6458 588.9757,-157.2056 569.4581,-167.3705"/>
<polygon fill="#000000" stroke="#000000" points="567.6642,-164.3584 560.4117,-172.0819 570.8977,-170.5669 567.6642,-164.3584"/>
</g>
<!-- GO:0071704 -->
<g id="node7" class="node">
<title>GO:0071704</title>
<polygon fill="#00ff00" stroke="#000000" points="259.8164,-58.6014 143.4452,-58.6014 143.4452,.2014 259.8164,.2014 259.8164,-58.6014"/>
<text text-anchor="middle" x="201.6308" y="-41.8" font-family="Times,serif" font-size="14.00" fill="#000000">GO:0071704</text>
<text text-anchor="middle" x="201.6308" y="-25" font-family="Times,serif" font-size="14.00" fill="#000000">organic substance</text>
<text text-anchor="middle" x="201.6308" y="-8.2" font-family="Times,serif" font-size="14.00" fill="#000000">metabolic process</text>
</g>
<!-- GO:0071704&#45;&gt;GO:0008152 -->
<g id="edge7" class="edge">
<title>GO:0071704&#45;&gt;GO:0008152</title>
<path fill="none" stroke="#000000" d="M255.9049,-58.5558C274.4443,-68.5834 295.0256,-79.7154 313.0016,-89.4383"/>
<polygon fill="#000000" stroke="#000000" points="311.6788,-92.7019 322.1398,-94.3809 315.0091,-86.5449 311.6788,-92.7019"/>
</g>
<!-- GO:0044238 -->
<g id="node8" class="node">
<title>GO:0044238</title>
<polygon fill="#00ff00" stroke="#000000" points="442.6338,-49.8019 278.6278,-49.8019 278.6278,-8.5981 442.6338,-8.5981 442.6338,-49.8019"/>
<text text-anchor="middle" x="360.6308" y="-33.4" font-family="Times,serif" font-size="14.00" fill="#000000">GO:0044238</text>
<text text-anchor="middle" x="360.6308" y="-16.6" font-family="Times,serif" font-size="14.00" fill="#000000">primary metabolic process</text>
</g>
<!-- GO:0044238&#45;&gt;GO:0008152 -->
<g id="edge8" class="edge">
<title>GO:0044238&#45;&gt;GO:0008152</title>
<path fill="none" stroke="#000000" d="M360.6308,-50.0182C360.6308,-60.3705 360.6308,-73.0848 360.6308,-84.5271"/>
<polygon fill="#000000" stroke="#000000" points="357.1309,-84.5735 360.6308,-94.5735 364.1309,-84.5735 357.1309,-84.5735"/>
</g>
<!-- GO:0044237 -->
<g id="node9" class="node">
<title>GO:0044237</title>
<polygon fill="#00ff00" stroke="#000000" points="577.8136,-58.6014 461.448,-58.6014 461.448,.2014 577.8136,.2014 577.8136,-58.6014"/>
<text text-anchor="middle" x="519.6308" y="-41.8" font-family="Times,serif" font-size="14.00" fill="#000000">GO:0044237</text>
<text text-anchor="middle" x="519.6308" y="-25" font-family="Times,serif" font-size="14.00" fill="#000000">cellular metabolic</text>
<text text-anchor="middle" x="519.6308" y="-8.2" font-family="Times,serif" font-size="14.00" fill="#000000">process</text>
</g>
<!-- GO:0044237&#45;&gt;GO:0008152 -->
<g id="edge10" class="edge">
<title>GO:0044237&#45;&gt;GO:0008152</title>
<path fill="none" stroke="#000000" d="M465.3567,-58.5558C446.8173,-68.5834 426.236,-79.7154 408.26,-89.4383"/>
<polygon fill="#000000" stroke="#000000" points="406.2525,-86.5449 399.1218,-94.3809 409.5828,-92.7019 406.2525,-86.5449"/>
</g>
<!-- GO:0044237&#45;&gt;GO:0009987 -->
<g id="edge9" class="edge">
<title>GO:0044237&#45;&gt;GO:0009987</title>
<path fill="none" stroke="#000000" d="M519.9749,-58.7963C520.0711,-67.0638 520.1758,-76.0657 520.2727,-84.4008"/>
<polygon fill="#000000" stroke="#000000" points="516.7739,-84.538 520.3901,-94.4966 523.7735,-84.4565 516.7739,-84.538"/>
</g>
</g>
</svg>
