<?xml version="1.0" encoding="UTF-8" standalone="no"?>
<!DOCTYPE svg PUBLIC "-//W3C//DTD SVG 1.1//EN"
 "http://www.w3.org/Graphics/SVG/1.1/DTD/svg11.dtd">
<!-- Generated by graphviz version 2.40.1 (20161225.0304)
 -->
<!-- Title: G Pages: 1 -->
<svg width="957pt" height="582pt"
 viewBox="0.00 0.00 956.81 582.40" xmlns="http://www.w3.org/2000/svg" xmlns:xlink="http://www.w3.org/1999/xlink">
<g id="graph0" class="graph" transform="scale(1 1) rotate(0) translate(4 578.4)">
<title>G</title>
<polygon fill="#ffffff" stroke="transparent" points="-4,4 -4,-578.4 952.8118,-578.4 952.8118,4 -4,4"/>
<!-- GO:0000785 -->
<g id="node1" class="node">
<title>GO:0000785</title>
<polygon fill="#00ff00" stroke="#000000" points="543.4353,-144.2019 454.2275,-144.2019 454.2275,-102.9981 543.4353,-102.9981 543.4353,-144.2019"/>
<text text-anchor="middle" x="498.8314" y="-127.8" font-family="Times,serif" font-size="14.00" fill="#000000">GO:0000785</text>
<text text-anchor="middle" x="498.8314" y="-111" font-family="Times,serif" font-size="14.00" fill="#000000">chromatin</text>
</g>
<!-- GO:0044427 -->
<g id="node2" class="node">
<title>GO:0044427</title>
<polygon fill="#ffffff" stroke="#000000" points="562.8044,-238.6019 444.8584,-238.6019 444.8584,-197.3981 562.8044,-197.3981 562.8044,-238.6019"/>
<text text-anchor="middle" x="503.8314" y="-222.2" font-family="Times,serif" font-size="14.00" fill="#000000">GO:0044427</text>
<text text-anchor="middle" x="503.8314" y="-205.4" font-family="Times,serif" font-size="14.00" fill="#000000">chromosomal part</text>
</g>
<!-- GO:0000785&#45;&gt;GO:0044427 -->
<g id="edge1" class="edge">
<title>GO:0000785&#45;&gt;GO:0044427</title>
<path fill="none" stroke="#000000" d="M499.9411,-144.5504C500.6013,-157.0165 501.4513,-173.0645 502.1883,-186.9786"/>
<polygon fill="#000000" stroke="#000000" points="498.7007,-187.3073 502.7248,-197.1081 505.6909,-186.937 498.7007,-187.3073"/>
</g>
<!-- GO:0032991 -->
<g id="node3" class="node">
<title>GO:0032991</title>
<polygon fill="#ffff00" stroke="#000000" points="360.9987,-333.0019 202.6641,-333.0019 202.6641,-291.7981 360.9987,-291.7981 360.9987,-333.0019"/>
<text text-anchor="middle" x="281.8314" y="-316.6" font-family="Times,serif" font-size="14.00" fill="#000000">GO:0032991</text>
<text text-anchor="middle" x="281.8314" y="-299.8" font-family="Times,serif" font-size="14.00" fill="#000000">macromolecular complex</text>
</g>
<!-- GO:0000785&#45;&gt;GO:0032991 -->
<g id="edge2" class="edge">
<title>GO:0000785&#45;&gt;GO:0032991</title>
<path fill="none" stroke="#000000" d="M476.7451,-144.3798C464.133,-156.7398 448.383,-173.0398 435.8314,-188.8 416.5398,-213.0232 420.4258,-226.0241 397.8314,-247.2 380.8751,-263.0917 359.3336,-276.5615 339.4284,-287.059"/>
<polygon fill="#000000" stroke="#000000" points="337.7264,-283.9983 330.4203,-291.6711 340.9166,-290.2291 337.7264,-283.9983"/>
</g>
<!-- GO:0044446 -->
<g id="node4" class="node">
<title>GO:0044446</title>
<polygon fill="#ffff00" stroke="#000000" points="518.5498,-341.8014 379.113,-341.8014 379.113,-282.9986 518.5498,-282.9986 518.5498,-341.8014"/>
<text text-anchor="middle" x="448.8314" y="-325" font-family="Times,serif" font-size="14.00" fill="#000000">GO:0044446</text>
<text text-anchor="middle" x="448.8314" y="-308.2" font-family="Times,serif" font-size="14.00" fill="#000000">intracellular organelle</text>
<text text-anchor="middle" x="448.8314" y="-291.4" font-family="Times,serif" font-size="14.00" fill="#000000">part</text>
</g>
<!-- GO:0044427&#45;&gt;GO:0044446 -->
<g id="edge3" class="edge">
<title>GO:0044427&#45;&gt;GO:0044446</title>
<path fill="none" stroke="#000000" d="M491.6251,-238.9504C485.623,-249.2522 478.1957,-262.0002 471.2226,-273.9686"/>
<polygon fill="#000000" stroke="#000000" points="468.0199,-272.5131 466.0099,-282.9155 474.0682,-276.037 468.0199,-272.5131"/>
</g>
<!-- GO:0005575 -->
<g id="node5" class="node">
<title>GO:0005575</title>
<polygon fill="#ffffff" stroke="#000000" points="621.5181,-574.2019 494.1447,-574.2019 494.1447,-532.9981 621.5181,-532.9981 621.5181,-574.2019"/>
<text text-anchor="middle" x="557.8314" y="-557.8" font-family="Times,serif" font-size="14.00" fill="#000000">GO:0005575</text>
<text text-anchor="middle" x="557.8314" y="-541" font-family="Times,serif" font-size="14.00" fill="#000000">cellular_component</text>
</g>
<!-- GO:0032991&#45;&gt;GO:0005575 -->
<g id="edge4" class="edge">
<title>GO:0032991&#45;&gt;GO:0005575</title>
<path fill="none" stroke="#000000" d="M288.8255,-333.0474C302.6864,-370.9348 337.2015,-451.7922 392.8314,-496.8 418.9719,-517.9492 453.4601,-531.4363 484.1443,-539.9299"/>
<polygon fill="#000000" stroke="#000000" points="483.3959,-543.3521 493.9576,-542.5155 485.1794,-536.5831 483.3959,-543.3521"/>
</g>
<!-- GO:0044424 -->
<g id="node6" class="node">
<title>GO:0044424</title>
<polygon fill="#ff0000" stroke="#000000" points="628.2298,-419.0019 519.433,-419.0019 519.433,-377.7981 628.2298,-377.7981 628.2298,-419.0019"/>
<text text-anchor="middle" x="573.8314" y="-402.6" font-family="Times,serif" font-size="14.00" fill="#000000">GO:0044424</text>
<text text-anchor="middle" x="573.8314" y="-385.8" font-family="Times,serif" font-size="14.00" fill="#000000">intracellular part</text>
</g>
<!-- GO:0044446&#45;&gt;GO:0044424 -->
<g id="edge5" class="edge">
<title>GO:0044446&#45;&gt;GO:0044424</title>
<path fill="none" stroke="#000000" d="M491.4997,-341.7558C505.6736,-351.5074 521.3655,-362.3035 535.2156,-371.8323"/>
<polygon fill="#000000" stroke="#000000" points="533.3488,-374.7963 543.5711,-377.5809 537.3165,-369.0293 533.3488,-374.7963"/>
</g>
<!-- GO:0044422 -->
<g id="node7" class="node">
<title>GO:0044422</title>
<polygon fill="#ffffff" stroke="#000000" points="495.6835,-496.6019 401.9793,-496.6019 401.9793,-455.3981 495.6835,-455.3981 495.6835,-496.6019"/>
<text text-anchor="middle" x="448.8314" y="-480.2" font-family="Times,serif" font-size="14.00" fill="#000000">GO:0044422</text>
<text text-anchor="middle" x="448.8314" y="-463.4" font-family="Times,serif" font-size="14.00" fill="#000000">organelle part</text>
</g>
<!-- GO:0044446&#45;&gt;GO:0044422 -->
<g id="edge6" class="edge">
<title>GO:0044446&#45;&gt;GO:0044422</title>
<path fill="none" stroke="#000000" d="M448.8314,-341.6484C448.8314,-370.7891 448.8314,-415.3603 448.8314,-445.0759"/>
<polygon fill="#000000" stroke="#000000" points="445.3315,-445.2955 448.8314,-455.2955 452.3315,-445.2955 445.3315,-445.2955"/>
</g>
<!-- GO:0044464 -->
<g id="node8" class="node">
<title>GO:0044464</title>
<polygon fill="#ff0000" stroke="#000000" points="602.4353,-496.6019 513.2275,-496.6019 513.2275,-455.3981 602.4353,-455.3981 602.4353,-496.6019"/>
<text text-anchor="middle" x="557.8314" y="-480.2" font-family="Times,serif" font-size="14.00" fill="#000000">GO:0044464</text>
<text text-anchor="middle" x="557.8314" y="-463.4" font-family="Times,serif" font-size="14.00" fill="#000000">cell part</text>
</g>
<!-- GO:0044424&#45;&gt;GO:0044464 -->
<g id="edge7" class="edge">
<title>GO:0044424&#45;&gt;GO:0044464</title>
<path fill="none" stroke="#000000" d="M569.5437,-419.1954C567.8937,-427.1978 565.973,-436.5133 564.1701,-445.2575"/>
<polygon fill="#000000" stroke="#000000" points="560.7225,-444.6464 562.1309,-455.1472 567.5783,-446.06 560.7225,-444.6464"/>
</g>
<!-- GO:0044422&#45;&gt;GO:0005575 -->
<g id="edge8" class="edge">
<title>GO:0044422&#45;&gt;GO:0005575</title>
<path fill="none" stroke="#000000" d="M478.0414,-496.7954C490.9925,-506.0156 506.3918,-516.9788 520.1915,-526.8031"/>
<polygon fill="#000000" stroke="#000000" points="518.3644,-529.7988 528.5408,-532.7472 522.4242,-524.0963 518.3644,-529.7988"/>
</g>
<!-- GO:0044464&#45;&gt;GO:0005575 -->
<g id="edge24" class="edge">
<title>GO:0044464&#45;&gt;GO:0005575</title>
<path fill="none" stroke="#000000" d="M557.8314,-496.7954C557.8314,-504.7109 557.8314,-513.9109 557.8314,-522.5722"/>
<polygon fill="#000000" stroke="#000000" points="554.3315,-522.7472 557.8314,-532.7472 561.3315,-522.7473 554.3315,-522.7472"/>
</g>
<!-- GO:0016020 -->
<g id="node9" class="node">
<title>GO:0016020</title>
<polygon fill="#00ffff" stroke="#000000" points="709.4353,-496.6019 620.2275,-496.6019 620.2275,-455.3981 709.4353,-455.3981 709.4353,-496.6019"/>
<text text-anchor="middle" x="664.8314" y="-480.2" font-family="Times,serif" font-size="14.00" fill="#000000">GO:0016020</text>
<text text-anchor="middle" x="664.8314" y="-463.4" font-family="Times,serif" font-size="14.00" fill="#000000">membrane</text>
</g>
<!-- GO:0016020&#45;&gt;GO:0005575 -->
<g id="edge9" class="edge">
<title>GO:0016020&#45;&gt;GO:0005575</title>
<path fill="none" stroke="#000000" d="M636.1574,-496.7954C623.4439,-506.0156 608.3271,-516.9788 594.7807,-526.8031"/>
<polygon fill="#000000" stroke="#000000" points="592.625,-524.0429 586.5846,-532.7472 596.7346,-529.7096 592.625,-524.0429"/>
</g>
<!-- GO:0005677 -->
<g id="node10" class="node">
<title>GO:0005677</title>
<polygon fill="#00ff00" stroke="#000000" points="296.1387,-153.0014 169.5241,-153.0014 169.5241,-94.1986 296.1387,-94.1986 296.1387,-153.0014"/>
<text text-anchor="middle" x="232.8314" y="-136.2" font-family="Times,serif" font-size="14.00" fill="#000000">GO:0005677</text>
<text text-anchor="middle" x="232.8314" y="-119.4" font-family="Times,serif" font-size="14.00" fill="#000000">chromatin silencing</text>
<text text-anchor="middle" x="232.8314" y="-102.6" font-family="Times,serif" font-size="14.00" fill="#000000">complex</text>
</g>
<!-- GO:0043234 -->
<g id="node11" class="node">
<title>GO:0043234</title>
<polygon fill="#00ff00" stroke="#000000" points="281.6988,-238.6019 173.964,-238.6019 173.964,-197.3981 281.6988,-197.3981 281.6988,-238.6019"/>
<text text-anchor="middle" x="227.8314" y="-222.2" font-family="Times,serif" font-size="14.00" fill="#000000">GO:0043234</text>
<text text-anchor="middle" x="227.8314" y="-205.4" font-family="Times,serif" font-size="14.00" fill="#000000">protein complex</text>
</g>
<!-- GO:0005677&#45;&gt;GO:0043234 -->
<g id="edge10" class="edge">
<title>GO:0005677&#45;&gt;GO:0043234</title>
<path fill="none" stroke="#000000" d="M231.2768,-152.9513C230.6989,-163.8614 230.042,-176.2637 229.4579,-187.292"/>
<polygon fill="#000000" stroke="#000000" points="225.959,-187.1798 228.9251,-197.351 232.9492,-187.5501 225.959,-187.1798"/>
</g>
<!-- GO:0044428 -->
<g id="node12" class="node">
<title>GO:0044428</title>
<polygon fill="#00ff00" stroke="#000000" points="388.4353,-238.6019 299.2275,-238.6019 299.2275,-197.3981 388.4353,-197.3981 388.4353,-238.6019"/>
<text text-anchor="middle" x="343.8314" y="-222.2" font-family="Times,serif" font-size="14.00" fill="#000000">GO:0044428</text>
<text text-anchor="middle" x="343.8314" y="-205.4" font-family="Times,serif" font-size="14.00" fill="#000000">nuclear part</text>
</g>
<!-- GO:0005677&#45;&gt;GO:0044428 -->
<g id="edge11" class="edge">
<title>GO:0005677&#45;&gt;GO:0044428</title>
<path fill="none" stroke="#000000" d="M267.344,-152.9513C281.4953,-164.9862 297.7813,-178.8367 311.6789,-190.6559"/>
<polygon fill="#000000" stroke="#000000" points="309.6661,-193.5387 319.5513,-197.351 314.2011,-188.2063 309.6661,-193.5387"/>
</g>
<!-- GO:0043234&#45;&gt;GO:0032991 -->
<g id="edge12" class="edge">
<title>GO:0043234&#45;&gt;GO:0032991</title>
<path fill="none" stroke="#000000" d="M239.8158,-238.9504C247.1565,-251.7831 256.6685,-268.4116 264.7851,-282.6006"/>
<polygon fill="#000000" stroke="#000000" points="261.8771,-284.5659 269.8806,-291.5081 267.9532,-281.0901 261.8771,-284.5659"/>
</g>
<!-- GO:0044428&#45;&gt;GO:0044446 -->
<g id="edge13" class="edge">
<title>GO:0044428&#45;&gt;GO:0044446</title>
<path fill="none" stroke="#000000" d="M366.8741,-238.7165C379.0986,-249.7069 394.4737,-263.5298 408.5949,-276.2254"/>
<polygon fill="#000000" stroke="#000000" points="406.5065,-279.0544 416.283,-283.1374 411.1865,-273.8489 406.5065,-279.0544"/>
</g>
<!-- GO:0090568 -->
<g id="node13" class="node">
<title>GO:0090568</title>
<polygon fill="#00ff00" stroke="#000000" points="293.3897,-58.6014 152.2731,-58.6014 152.2731,.2014 293.3897,.2014 293.3897,-58.6014"/>
<text text-anchor="middle" x="222.8314" y="-41.8" font-family="Times,serif" font-size="14.00" fill="#000000">GO:0090568</text>
<text text-anchor="middle" x="222.8314" y="-25" font-family="Times,serif" font-size="14.00" fill="#000000">nuclear transcriptional</text>
<text text-anchor="middle" x="222.8314" y="-8.2" font-family="Times,serif" font-size="14.00" fill="#000000">repressor complex</text>
</g>
<!-- GO:0044451 -->
<g id="node14" class="node">
<title>GO:0044451</title>
<polygon fill="#ffffff" stroke="#000000" points="425.8574,-144.2019 313.8054,-144.2019 313.8054,-102.9981 425.8574,-102.9981 425.8574,-144.2019"/>
<text text-anchor="middle" x="369.8314" y="-127.8" font-family="Times,serif" font-size="14.00" fill="#000000">GO:0044451</text>
<text text-anchor="middle" x="369.8314" y="-111" font-family="Times,serif" font-size="14.00" fill="#000000">nucleoplasm part</text>
</g>
<!-- GO:0090568&#45;&gt;GO:0044451 -->
<g id="edge14" class="edge">
<title>GO:0090568&#45;&gt;GO:0044451</title>
<path fill="none" stroke="#000000" d="M268.5373,-58.5513C287.8911,-70.9799 310.2602,-85.3448 329.0467,-97.409"/>
<polygon fill="#000000" stroke="#000000" points="327.371,-100.4925 337.6767,-102.951 331.1535,-94.6024 327.371,-100.4925"/>
</g>
<!-- GO:0017053 -->
<g id="node15" class="node">
<title>GO:0017053</title>
<polygon fill="#ffffff" stroke="#000000" points="151.4946,-153.0014 .1682,-153.0014 .1682,-94.1986 151.4946,-94.1986 151.4946,-153.0014"/>
<text text-anchor="middle" x="75.8314" y="-136.2" font-family="Times,serif" font-size="14.00" fill="#000000">GO:0017053</text>
<text text-anchor="middle" x="75.8314" y="-119.4" font-family="Times,serif" font-size="14.00" fill="#000000">transcriptional repressor</text>
<text text-anchor="middle" x="75.8314" y="-102.6" font-family="Times,serif" font-size="14.00" fill="#000000">complex</text>
</g>
<!-- GO:0090568&#45;&gt;GO:0017053 -->
<g id="edge15" class="edge">
<title>GO:0090568&#45;&gt;GO:0017053</title>
<path fill="none" stroke="#000000" d="M177.1255,-58.5513C162.1918,-68.1413 145.463,-78.8842 129.9699,-88.8335"/>
<polygon fill="#000000" stroke="#000000" points="128.0322,-85.9183 121.5091,-94.2669 131.8147,-91.8083 128.0322,-85.9183"/>
</g>
<!-- GO:0044451&#45;&gt;GO:0044428 -->
<g id="edge16" class="edge">
<title>GO:0044451&#45;&gt;GO:0044428</title>
<path fill="none" stroke="#000000" d="M364.0612,-144.5504C360.594,-157.1387 356.1209,-173.3795 352.2629,-187.3872"/>
<polygon fill="#000000" stroke="#000000" points="348.8666,-186.5377 349.5855,-197.1081 355.6153,-188.3965 348.8666,-186.5377"/>
</g>
<!-- GO:0017053&#45;&gt;GO:0043234 -->
<g id="edge17" class="edge">
<title>GO:0017053&#45;&gt;GO:0043234</title>
<path fill="none" stroke="#000000" d="M123.0919,-152.9513C143.1946,-165.4361 166.4434,-179.8748 185.923,-191.9727"/>
<polygon fill="#000000" stroke="#000000" points="184.2414,-195.0483 194.583,-197.351 187.9345,-189.1018 184.2414,-195.0483"/>
</g>
<!-- GO:0043231 -->
<g id="node16" class="node">
<title>GO:0043231</title>
<polygon fill="#00ffff" stroke="#000000" points="884.2102,-247.4014 733.4526,-247.4014 733.4526,-188.5986 884.2102,-188.5986 884.2102,-247.4014"/>
<text text-anchor="middle" x="808.8314" y="-230.6" font-family="Times,serif" font-size="14.00" fill="#000000">GO:0043231</text>
<text text-anchor="middle" x="808.8314" y="-213.8" font-family="Times,serif" font-size="14.00" fill="#000000">intracellular membrane&#45;</text>
<text text-anchor="middle" x="808.8314" y="-197" font-family="Times,serif" font-size="14.00" fill="#000000">bounded organelle</text>
</g>
<!-- GO:0043229 -->
<g id="node17" class="node">
<title>GO:0043229</title>
<polygon fill="#ffffff" stroke="#000000" points="802.5498,-333.0019 663.113,-333.0019 663.113,-291.7981 802.5498,-291.7981 802.5498,-333.0019"/>
<text text-anchor="middle" x="732.8314" y="-316.6" font-family="Times,serif" font-size="14.00" fill="#000000">GO:0043229</text>
<text text-anchor="middle" x="732.8314" y="-299.8" font-family="Times,serif" font-size="14.00" fill="#000000">intracellular organelle</text>
</g>
<!-- GO:0043231&#45;&gt;GO:0043229 -->
<g id="edge18" class="edge">
<title>GO:0043231&#45;&gt;GO:0043229</title>
<path fill="none" stroke="#000000" d="M785.2011,-247.3513C775.8742,-258.9363 765.1928,-272.2037 755.9196,-283.722"/>
<polygon fill="#000000" stroke="#000000" points="753.0004,-281.7667 749.4556,-291.751 758.453,-286.1565 753.0004,-281.7667"/>
</g>
<!-- GO:0043227 -->
<g id="node18" class="node">
<title>GO:0043227</title>
<polygon fill="#ffffff" stroke="#000000" points="948.7922,-341.8014 820.8706,-341.8014 820.8706,-282.9986 948.7922,-282.9986 948.7922,-341.8014"/>
<text text-anchor="middle" x="884.8314" y="-325" font-family="Times,serif" font-size="14.00" fill="#000000">GO:0043227</text>
<text text-anchor="middle" x="884.8314" y="-308.2" font-family="Times,serif" font-size="14.00" fill="#000000">membrane&#45;bounded</text>
<text text-anchor="middle" x="884.8314" y="-291.4" font-family="Times,serif" font-size="14.00" fill="#000000">organelle</text>
</g>
<!-- GO:0043231&#45;&gt;GO:0043227 -->
<g id="edge19" class="edge">
<title>GO:0043231&#45;&gt;GO:0043227</title>
<path fill="none" stroke="#000000" d="M832.4617,-247.3513C839.5391,-256.1422 847.3964,-265.9018 854.8265,-275.1308"/>
<polygon fill="#000000" stroke="#000000" points="852.2184,-277.4724 861.2157,-283.0669 857.6709,-273.0826 852.2184,-277.4724"/>
</g>
<!-- GO:0043229&#45;&gt;GO:0044424 -->
<g id="edge20" class="edge">
<title>GO:0043229&#45;&gt;GO:0044424</title>
<path fill="none" stroke="#000000" d="M694.3419,-333.2182C672.2727,-345.155 644.3972,-360.2323 621.0159,-372.8788"/>
<polygon fill="#000000" stroke="#000000" points="619.0971,-369.9374 611.9664,-377.7735 622.4274,-376.0945 619.0971,-369.9374"/>
</g>
<!-- GO:0043226 -->
<g id="node19" class="node">
<title>GO:0043226</title>
<polygon fill="#ffffff" stroke="#000000" points="782.4353,-419.0019 693.2275,-419.0019 693.2275,-377.7981 782.4353,-377.7981 782.4353,-419.0019"/>
<text text-anchor="middle" x="737.8314" y="-402.6" font-family="Times,serif" font-size="14.00" fill="#000000">GO:0043226</text>
<text text-anchor="middle" x="737.8314" y="-385.8" font-family="Times,serif" font-size="14.00" fill="#000000">organelle</text>
</g>
<!-- GO:0043229&#45;&gt;GO:0043226 -->
<g id="edge21" class="edge">
<title>GO:0043229&#45;&gt;GO:0043226</title>
<path fill="none" stroke="#000000" d="M734.0418,-333.2182C734.6436,-343.5705 735.3828,-356.2848 736.0481,-367.7271"/>
<polygon fill="#000000" stroke="#000000" points="732.5576,-367.9936 736.6322,-377.7735 739.5458,-367.5872 732.5576,-367.9936"/>
</g>
<!-- GO:0043227&#45;&gt;GO:0043226 -->
<g id="edge22" class="edge">
<title>GO:0043227&#45;&gt;GO:0043226</title>
<path fill="none" stroke="#000000" d="M834.6535,-341.7558C817.6705,-351.6914 798.8343,-362.7112 782.324,-372.3703"/>
<polygon fill="#000000" stroke="#000000" points="780.2815,-369.5102 773.4175,-377.5809 783.8163,-375.5522 780.2815,-369.5102"/>
</g>
<!-- GO:0043226&#45;&gt;GO:0005575 -->
<g id="edge23" class="edge">
<title>GO:0043226&#45;&gt;GO:0005575</title>
<path fill="none" stroke="#000000" d="M739.4499,-419.0155C740.0159,-440.8793 737.4566,-475.1829 718.8314,-496.8 706.7103,-510.8682 667.8833,-524.7725 631.3975,-535.303"/>
<polygon fill="#000000" stroke="#000000" points="630.3658,-531.9574 621.693,-538.0429 632.2678,-538.694 630.3658,-531.9574"/>
</g>
<!-- GO:0044444 -->
<g id="node20" class="node">
<title>GO:0044444</title>
<polygon fill="#00ff00" stroke="#000000" points="645.248,-333.0019 536.4148,-333.0019 536.4148,-291.7981 645.248,-291.7981 645.248,-333.0019"/>
<text text-anchor="middle" x="590.8314" y="-316.6" font-family="Times,serif" font-size="14.00" fill="#000000">GO:0044444</text>
<text text-anchor="middle" x="590.8314" y="-299.8" font-family="Times,serif" font-size="14.00" fill="#000000">cytoplasmic part</text>
</g>
<!-- GO:0044444&#45;&gt;GO:0044424 -->
<g id="edge25" class="edge">
<title>GO:0044444&#45;&gt;GO:0044424</title>
<path fill="none" stroke="#000000" d="M586.7162,-333.2182C584.6698,-343.5705 582.1565,-356.2848 579.8946,-367.7271"/>
<polygon fill="#000000" stroke="#000000" points="576.4145,-367.2846 577.9087,-377.7735 583.2816,-368.6421 576.4145,-367.2846"/>
</g>
</g>
</svg>
