<?xml version="1.0" encoding="UTF-8" standalone="no"?>
<!DOCTYPE svg PUBLIC "-//W3C//DTD SVG 1.1//EN"
 "http://www.w3.org/Graphics/SVG/1.1/DTD/svg11.dtd">
<!-- Generated by graphviz version 2.40.1 (20161225.0304)
 -->
<!-- Title: G Pages: 1 -->
<svg width="664pt" height="694pt"
 viewBox="0.00 0.00 663.99 693.60" xmlns="http://www.w3.org/2000/svg" xmlns:xlink="http://www.w3.org/1999/xlink">
<g id="graph0" class="graph" transform="scale(1 1) rotate(0) translate(4 689.6)">
<title>G</title>
<polygon fill="#ffffff" stroke="transparent" points="-4,4 -4,-689.6 659.9903,-689.6 659.9903,4 -4,4"/>
<!-- GO:0003677 -->
<g id="node1" class="node">
<title>GO:0003677</title>
<polygon fill="#ffff00" stroke="#000000" points="459.4354,-349.8019 367.2316,-349.8019 367.2316,-308.5981 459.4354,-308.5981 459.4354,-349.8019"/>
<text text-anchor="middle" x="413.3335" y="-333.4" font-family="Times,serif" font-size="14.00" fill="#000000">GO:0003677</text>
<text text-anchor="middle" x="413.3335" y="-316.6" font-family="Times,serif" font-size="14.00" fill="#000000">DNA binding</text>
</g>
<!-- GO:0003676 -->
<g id="node2" class="node">
<title>GO:0003676</title>
<polygon fill="#ffffff" stroke="#000000" points="404.8604,-435.8019 275.8066,-435.8019 275.8066,-394.5981 404.8604,-394.5981 404.8604,-435.8019"/>
<text text-anchor="middle" x="340.3335" y="-419.4" font-family="Times,serif" font-size="14.00" fill="#000000">GO:0003676</text>
<text text-anchor="middle" x="340.3335" y="-402.6" font-family="Times,serif" font-size="14.00" fill="#000000">nucleic acid binding</text>
</g>
<!-- GO:0003677&#45;&gt;GO:0003676 -->
<g id="edge1" class="edge">
<title>GO:0003677&#45;&gt;GO:0003676</title>
<path fill="none" stroke="#000000" d="M395.6622,-350.0182C386.3368,-361.0043 374.7534,-374.6506 364.5987,-386.6137"/>
<polygon fill="#000000" stroke="#000000" points="361.6451,-384.6847 357.842,-394.5735 366.9817,-389.2147 361.6451,-384.6847"/>
</g>
<!-- GO:0097159 -->
<g id="node3" class="node">
<title>GO:0097159</title>
<polygon fill="#ffa500" stroke="#000000" points="333.8449,-530.6014 176.8221,-530.6014 176.8221,-471.7986 333.8449,-471.7986 333.8449,-530.6014"/>
<text text-anchor="middle" x="255.3335" y="-513.8" font-family="Times,serif" font-size="14.00" fill="#000000">GO:0097159</text>
<text text-anchor="middle" x="255.3335" y="-497" font-family="Times,serif" font-size="14.00" fill="#000000">organic cyclic compound</text>
<text text-anchor="middle" x="255.3335" y="-480.2" font-family="Times,serif" font-size="14.00" fill="#000000">binding</text>
</g>
<!-- GO:0003676&#45;&gt;GO:0097159 -->
<g id="edge2" class="edge">
<title>GO:0003676&#45;&gt;GO:0097159</title>
<path fill="none" stroke="#000000" d="M319.7574,-436.0182C311.3004,-444.5747 301.2485,-454.7448 291.6299,-464.4766"/>
<polygon fill="#000000" stroke="#000000" points="288.9328,-462.2264 284.3925,-471.7991 293.9114,-467.1472 288.9328,-462.2264"/>
</g>
<!-- GO:1901363 -->
<g id="node4" class="node">
<title>GO:1901363</title>
<polygon fill="#ffa500" stroke="#000000" points="498.8441,-530.6014 351.8229,-530.6014 351.8229,-471.7986 498.8441,-471.7986 498.8441,-530.6014"/>
<text text-anchor="middle" x="425.3335" y="-513.8" font-family="Times,serif" font-size="14.00" fill="#000000">GO:1901363</text>
<text text-anchor="middle" x="425.3335" y="-497" font-family="Times,serif" font-size="14.00" fill="#000000">heterocyclic compound</text>
<text text-anchor="middle" x="425.3335" y="-480.2" font-family="Times,serif" font-size="14.00" fill="#000000">binding</text>
</g>
<!-- GO:0003676&#45;&gt;GO:1901363 -->
<g id="edge3" class="edge">
<title>GO:0003676&#45;&gt;GO:1901363</title>
<path fill="none" stroke="#000000" d="M360.9096,-436.0182C369.3666,-444.5747 379.4185,-454.7448 389.0371,-464.4766"/>
<polygon fill="#000000" stroke="#000000" points="386.7556,-467.1472 396.2745,-471.7991 391.7342,-462.2264 386.7556,-467.1472"/>
</g>
<!-- GO:0005488 -->
<g id="node5" class="node">
<title>GO:0005488</title>
<polygon fill="#ffffff" stroke="#000000" points="299.9374,-607.8019 210.7296,-607.8019 210.7296,-566.5981 299.9374,-566.5981 299.9374,-607.8019"/>
<text text-anchor="middle" x="255.3335" y="-591.4" font-family="Times,serif" font-size="14.00" fill="#000000">GO:0005488</text>
<text text-anchor="middle" x="255.3335" y="-574.6" font-family="Times,serif" font-size="14.00" fill="#000000">binding</text>
</g>
<!-- GO:0097159&#45;&gt;GO:0005488 -->
<g id="edge4" class="edge">
<title>GO:0097159&#45;&gt;GO:0005488</title>
<path fill="none" stroke="#000000" d="M255.3335,-530.7963C255.3335,-539.0638 255.3335,-548.0657 255.3335,-556.4008"/>
<polygon fill="#000000" stroke="#000000" points="251.8336,-556.4965 255.3335,-566.4966 258.8336,-556.4966 251.8336,-556.4965"/>
</g>
<!-- GO:1901363&#45;&gt;GO:0005488 -->
<g id="edge5" class="edge">
<title>GO:1901363&#45;&gt;GO:0005488</title>
<path fill="none" stroke="#000000" d="M367.3046,-530.5558C347.1268,-540.7634 324.6868,-552.1154 305.2256,-561.9605"/>
<polygon fill="#000000" stroke="#000000" points="303.5675,-558.8768 296.2243,-566.5141 306.7274,-565.1231 303.5675,-558.8768"/>
</g>
<!-- GO:0003674 -->
<g id="node6" class="node">
<title>GO:0003674</title>
<polygon fill="#ffffff" stroke="#000000" points="317.9666,-685.4019 192.7004,-685.4019 192.7004,-644.1981 317.9666,-644.1981 317.9666,-685.4019"/>
<text text-anchor="middle" x="255.3335" y="-669" font-family="Times,serif" font-size="14.00" fill="#000000">GO:0003674</text>
<text text-anchor="middle" x="255.3335" y="-652.2" font-family="Times,serif" font-size="14.00" fill="#000000">molecular_function</text>
</g>
<!-- GO:0005488&#45;&gt;GO:0003674 -->
<g id="edge6" class="edge">
<title>GO:0005488&#45;&gt;GO:0003674</title>
<path fill="none" stroke="#000000" d="M255.3335,-607.9954C255.3335,-615.9109 255.3335,-625.1109 255.3335,-633.7722"/>
<polygon fill="#000000" stroke="#000000" points="251.8336,-633.9472 255.3335,-643.9472 258.8336,-633.9473 251.8336,-633.9472"/>
</g>
<!-- GO:0003690 -->
<g id="node7" class="node">
<title>GO:0003690</title>
<polygon fill="#ffff00" stroke="#000000" points="488.3441,-264.2014 348.3229,-264.2014 348.3229,-205.3986 488.3441,-205.3986 488.3441,-264.2014"/>
<text text-anchor="middle" x="418.3335" y="-247.4" font-family="Times,serif" font-size="14.00" fill="#000000">GO:0003690</text>
<text text-anchor="middle" x="418.3335" y="-230.6" font-family="Times,serif" font-size="14.00" fill="#000000">double&#45;stranded DNA</text>
<text text-anchor="middle" x="418.3335" y="-213.8" font-family="Times,serif" font-size="14.00" fill="#000000">binding</text>
</g>
<!-- GO:0003690&#45;&gt;GO:0003677 -->
<g id="edge7" class="edge">
<title>GO:0003690&#45;&gt;GO:0003677</title>
<path fill="none" stroke="#000000" d="M416.7789,-264.1513C416.201,-275.0614 415.5441,-287.4637 414.96,-298.492"/>
<polygon fill="#000000" stroke="#000000" points="411.4611,-298.3798 414.4272,-308.551 418.4513,-298.7501 411.4611,-298.3798"/>
</g>
<!-- GO:0000976 -->
<g id="node8" class="node">
<title>GO:0000976</title>
<polygon fill="#ffff00" stroke="#000000" points="420.5933,-75.3003 266.0737,-75.3003 266.0737,.1003 420.5933,.1003 420.5933,-75.3003"/>
<text text-anchor="middle" x="343.3335" y="-58.6" font-family="Times,serif" font-size="14.00" fill="#000000">GO:0000976</text>
<text text-anchor="middle" x="343.3335" y="-41.8" font-family="Times,serif" font-size="14.00" fill="#000000">transcription regulatory</text>
<text text-anchor="middle" x="343.3335" y="-25" font-family="Times,serif" font-size="14.00" fill="#000000">region sequence&#45;specific</text>
<text text-anchor="middle" x="343.3335" y="-8.2" font-family="Times,serif" font-size="14.00" fill="#000000">DNA binding</text>
</g>
<!-- GO:0044212 -->
<g id="node9" class="node">
<title>GO:0044212</title>
<polygon fill="#ffffff" stroke="#000000" points="331.1227,-169.8014 183.5443,-169.8014 183.5443,-110.9986 331.1227,-110.9986 331.1227,-169.8014"/>
<text text-anchor="middle" x="257.3335" y="-153" font-family="Times,serif" font-size="14.00" fill="#000000">GO:0044212</text>
<text text-anchor="middle" x="257.3335" y="-136.2" font-family="Times,serif" font-size="14.00" fill="#000000">transcription regulatory</text>
<text text-anchor="middle" x="257.3335" y="-119.4" font-family="Times,serif" font-size="14.00" fill="#000000">region DNA binding</text>
</g>
<!-- GO:0000976&#45;&gt;GO:0044212 -->
<g id="edge8" class="edge">
<title>GO:0000976&#45;&gt;GO:0044212</title>
<path fill="none" stroke="#000000" d="M311.7986,-75.2952C304.1607,-84.4252 296.0022,-94.1775 288.3867,-103.2807"/>
<polygon fill="#000000" stroke="#000000" points="285.5928,-101.1656 281.8608,-111.0814 290.9618,-105.6572 285.5928,-101.1656"/>
</g>
<!-- GO:1990837 -->
<g id="node10" class="node">
<title>GO:1990837</title>
<polygon fill="#ffffff" stroke="#000000" points="511.0933,-169.8014 349.5737,-169.8014 349.5737,-110.9986 511.0933,-110.9986 511.0933,-169.8014"/>
<text text-anchor="middle" x="430.3335" y="-153" font-family="Times,serif" font-size="14.00" fill="#000000">GO:1990837</text>
<text text-anchor="middle" x="430.3335" y="-136.2" font-family="Times,serif" font-size="14.00" fill="#000000">sequence&#45;specific double&#45;</text>
<text text-anchor="middle" x="430.3335" y="-119.4" font-family="Times,serif" font-size="14.00" fill="#000000">stranded DNA binding</text>
</g>
<!-- GO:0000976&#45;&gt;GO:1990837 -->
<g id="edge9" class="edge">
<title>GO:0000976&#45;&gt;GO:1990837</title>
<path fill="none" stroke="#000000" d="M375.2351,-75.2952C382.9618,-84.4252 391.2152,-94.1775 398.9193,-103.2807"/>
<polygon fill="#000000" stroke="#000000" points="396.3893,-105.7091 405.521,-111.0814 401.7326,-101.187 396.3893,-105.7091"/>
</g>
<!-- GO:0000975 -->
<g id="node11" class="node">
<title>GO:0000975</title>
<polygon fill="#ffff00" stroke="#000000" points="330.4512,-264.2014 184.2158,-264.2014 184.2158,-205.3986 330.4512,-205.3986 330.4512,-264.2014"/>
<text text-anchor="middle" x="257.3335" y="-247.4" font-family="Times,serif" font-size="14.00" fill="#000000">GO:0000975</text>
<text text-anchor="middle" x="257.3335" y="-230.6" font-family="Times,serif" font-size="14.00" fill="#000000">regulatory region DNA</text>
<text text-anchor="middle" x="257.3335" y="-213.8" font-family="Times,serif" font-size="14.00" fill="#000000">binding</text>
</g>
<!-- GO:0044212&#45;&gt;GO:0000975 -->
<g id="edge10" class="edge">
<title>GO:0044212&#45;&gt;GO:0000975</title>
<path fill="none" stroke="#000000" d="M257.3335,-169.7513C257.3335,-177.8318 257.3335,-186.7308 257.3335,-195.2838"/>
<polygon fill="#000000" stroke="#000000" points="253.8336,-195.4668 257.3335,-205.4669 260.8336,-195.4669 253.8336,-195.4668"/>
</g>
<!-- GO:1990837&#45;&gt;GO:0003690 -->
<g id="edge12" class="edge">
<title>GO:1990837&#45;&gt;GO:0003690</title>
<path fill="none" stroke="#000000" d="M426.6024,-169.7513C425.5752,-177.8318 424.444,-186.7308 423.3567,-195.2838"/>
<polygon fill="#000000" stroke="#000000" points="419.8514,-195.1053 422.0623,-205.4669 426.7955,-195.9881 419.8514,-195.1053"/>
</g>
<!-- GO:0043565 -->
<g id="node12" class="node">
<title>GO:0043565</title>
<polygon fill="#ffffff" stroke="#000000" points="656.1474,-264.2014 506.5196,-264.2014 506.5196,-205.3986 656.1474,-205.3986 656.1474,-264.2014"/>
<text text-anchor="middle" x="581.3335" y="-247.4" font-family="Times,serif" font-size="14.00" fill="#000000">GO:0043565</text>
<text text-anchor="middle" x="581.3335" y="-230.6" font-family="Times,serif" font-size="14.00" fill="#000000">sequence&#45;specific DNA</text>
<text text-anchor="middle" x="581.3335" y="-213.8" font-family="Times,serif" font-size="14.00" fill="#000000">binding</text>
</g>
<!-- GO:1990837&#45;&gt;GO:0043565 -->
<g id="edge11" class="edge">
<title>GO:1990837&#45;&gt;GO:0043565</title>
<path fill="none" stroke="#000000" d="M477.2831,-169.7513C492.6231,-179.3413 509.8072,-190.0842 525.7218,-200.0335"/>
<polygon fill="#000000" stroke="#000000" points="524.0782,-203.1336 534.4129,-205.4669 527.7889,-197.198 524.0782,-203.1336"/>
</g>
<!-- GO:0000975&#45;&gt;GO:0003677 -->
<g id="edge14" class="edge">
<title>GO:0000975&#45;&gt;GO:0003677</title>
<path fill="none" stroke="#000000" d="M305.8377,-264.1513C326.5624,-276.6923 350.545,-291.2049 370.5921,-303.336"/>
<polygon fill="#000000" stroke="#000000" points="368.8426,-306.3682 379.2101,-308.551 372.4666,-300.3793 368.8426,-306.3682"/>
</g>
<!-- GO:0001067 -->
<g id="node13" class="node">
<title>GO:0001067</title>
<polygon fill="#ffffff" stroke="#000000" points="344.5561,-358.6014 188.1109,-358.6014 188.1109,-299.7986 344.5561,-299.7986 344.5561,-358.6014"/>
<text text-anchor="middle" x="266.3335" y="-341.8" font-family="Times,serif" font-size="14.00" fill="#000000">GO:0001067</text>
<text text-anchor="middle" x="266.3335" y="-325" font-family="Times,serif" font-size="14.00" fill="#000000">regulatory region nucleic</text>
<text text-anchor="middle" x="266.3335" y="-308.2" font-family="Times,serif" font-size="14.00" fill="#000000">acid binding</text>
</g>
<!-- GO:0000975&#45;&gt;GO:0001067 -->
<g id="edge13" class="edge">
<title>GO:0000975&#45;&gt;GO:0001067</title>
<path fill="none" stroke="#000000" d="M260.1318,-264.1513C260.9022,-272.2318 261.7506,-281.1308 262.5661,-289.6838"/>
<polygon fill="#000000" stroke="#000000" points="259.1035,-290.2442 263.5369,-299.8669 266.0719,-289.5798 259.1035,-290.2442"/>
</g>
<!-- GO:0043565&#45;&gt;GO:0003677 -->
<g id="edge15" class="edge">
<title>GO:0043565&#45;&gt;GO:0003677</title>
<path fill="none" stroke="#000000" d="M529.0982,-264.1513C506.6793,-276.7486 480.7202,-291.3351 459.0725,-303.4991"/>
<polygon fill="#000000" stroke="#000000" points="457.0852,-300.601 450.0817,-308.551 460.5143,-306.7036 457.0852,-300.601"/>
</g>
<!-- GO:0001067&#45;&gt;GO:0003676 -->
<g id="edge16" class="edge">
<title>GO:0001067&#45;&gt;GO:0003676</title>
<path fill="none" stroke="#000000" d="M291.8001,-358.7963C299.6253,-367.8905 308.2153,-377.8734 315.9651,-386.88"/>
<polygon fill="#000000" stroke="#000000" points="313.3434,-389.1993 322.5189,-394.4966 318.6495,-384.6336 313.3434,-389.1993"/>
</g>
<!-- GO:0003682 -->
<g id="node14" class="node">
<title>GO:0003682</title>
<polygon fill="#00ff00" stroke="#000000" points="138.8763,-435.8019 19.7907,-435.8019 19.7907,-394.5981 138.8763,-394.5981 138.8763,-435.8019"/>
<text text-anchor="middle" x="79.3335" y="-419.4" font-family="Times,serif" font-size="14.00" fill="#000000">GO:0003682</text>
<text text-anchor="middle" x="79.3335" y="-402.6" font-family="Times,serif" font-size="14.00" fill="#000000">chromatin binding</text>
</g>
<!-- GO:0044877 -->
<g id="node15" class="node">
<title>GO:0044877</title>
<polygon fill="#ffffff" stroke="#000000" points="158.5008,-530.6014 .1662,-530.6014 .1662,-471.7986 158.5008,-471.7986 158.5008,-530.6014"/>
<text text-anchor="middle" x="79.3335" y="-513.8" font-family="Times,serif" font-size="14.00" fill="#000000">GO:0044877</text>
<text text-anchor="middle" x="79.3335" y="-497" font-family="Times,serif" font-size="14.00" fill="#000000">macromolecular complex</text>
<text text-anchor="middle" x="79.3335" y="-480.2" font-family="Times,serif" font-size="14.00" fill="#000000">binding</text>
</g>
<!-- GO:0003682&#45;&gt;GO:0044877 -->
<g id="edge17" class="edge">
<title>GO:0003682&#45;&gt;GO:0044877</title>
<path fill="none" stroke="#000000" d="M79.3335,-436.0182C79.3335,-443.7358 79.3335,-452.7662 79.3335,-461.6036"/>
<polygon fill="#000000" stroke="#000000" points="75.8336,-461.7991 79.3335,-471.7991 82.8336,-461.7992 75.8336,-461.7991"/>
</g>
<!-- GO:0044877&#45;&gt;GO:0005488 -->
<g id="edge18" class="edge">
<title>GO:0044877&#45;&gt;GO:0005488</title>
<path fill="none" stroke="#000000" d="M139.4105,-530.5558C160.395,-540.8096 183.7428,-552.2182 203.9539,-562.094"/>
<polygon fill="#000000" stroke="#000000" points="202.4782,-565.2684 212.9995,-566.5141 205.5514,-558.9791 202.4782,-565.2684"/>
</g>
</g>
</svg>
