<?xml version="1.0" encoding="UTF-8" standalone="no"?>
<!DOCTYPE svg PUBLIC "-//W3C//DTD SVG 1.1//EN"
 "http://www.w3.org/Graphics/SVG/1.1/DTD/svg11.dtd">
<!-- Generated by graphviz version 2.40.1 (20161225.0304)
 -->
<!-- Title: G Pages: 1 -->
<svg width="677pt" height="855pt"
 viewBox="0.00 0.00 676.99 855.20" xmlns="http://www.w3.org/2000/svg" xmlns:xlink="http://www.w3.org/1999/xlink">
<g id="graph0" class="graph" transform="scale(1 1) rotate(0) translate(4 851.2)">
<title>G</title>
<polygon fill="#ffffff" stroke="transparent" points="-4,4 -4,-851.2 672.9871,-851.2 672.9871,4 -4,4"/>
<!-- GO:0003676 -->
<g id="node1" class="node">
<title>GO:0003676</title>
<polygon fill="#ff0000" stroke="#000000" points="660.0087,-572.2019 530.9549,-572.2019 530.9549,-530.9981 660.0087,-530.9981 660.0087,-572.2019"/>
<text text-anchor="middle" x="595.4818" y="-555.8" font-family="Times,serif" font-size="14.00" fill="#000000">GO:0003676</text>
<text text-anchor="middle" x="595.4818" y="-539" font-family="Times,serif" font-size="14.00" fill="#000000">nucleic acid binding</text>
</g>
<!-- GO:0097159 -->
<g id="node2" class="node">
<title>GO:0097159</title>
<polygon fill="#ff0000" stroke="#000000" points="503.9932,-675.4014 346.9704,-675.4014 346.9704,-616.5986 503.9932,-616.5986 503.9932,-675.4014"/>
<text text-anchor="middle" x="425.4818" y="-658.6" font-family="Times,serif" font-size="14.00" fill="#000000">GO:0097159</text>
<text text-anchor="middle" x="425.4818" y="-641.8" font-family="Times,serif" font-size="14.00" fill="#000000">organic cyclic compound</text>
<text text-anchor="middle" x="425.4818" y="-625" font-family="Times,serif" font-size="14.00" fill="#000000">binding</text>
</g>
<!-- GO:0003676&#45;&gt;GO:0097159 -->
<g id="edge1" class="edge">
<title>GO:0003676&#45;&gt;GO:0097159</title>
<path fill="none" stroke="#000000" d="M558.1746,-572.3165C537.3745,-583.8666 510.9409,-598.545 487.1505,-611.7557"/>
<polygon fill="#000000" stroke="#000000" points="485.2226,-608.8228 478.1792,-616.7374 488.6209,-614.9426 485.2226,-608.8228"/>
</g>
<!-- GO:1901363 -->
<g id="node3" class="node">
<title>GO:1901363</title>
<polygon fill="#ff0000" stroke="#000000" points="668.9924,-675.4014 521.9712,-675.4014 521.9712,-616.5986 668.9924,-616.5986 668.9924,-675.4014"/>
<text text-anchor="middle" x="595.4818" y="-658.6" font-family="Times,serif" font-size="14.00" fill="#000000">GO:1901363</text>
<text text-anchor="middle" x="595.4818" y="-641.8" font-family="Times,serif" font-size="14.00" fill="#000000">heterocyclic compound</text>
<text text-anchor="middle" x="595.4818" y="-625" font-family="Times,serif" font-size="14.00" fill="#000000">binding</text>
</g>
<!-- GO:0003676&#45;&gt;GO:1901363 -->
<g id="edge2" class="edge">
<title>GO:0003676&#45;&gt;GO:1901363</title>
<path fill="none" stroke="#000000" d="M595.4818,-572.5504C595.4818,-582.5492 595.4818,-594.8525 595.4818,-606.5106"/>
<polygon fill="#000000" stroke="#000000" points="591.9819,-606.5155 595.4818,-616.5155 598.9819,-606.5156 591.9819,-606.5155"/>
</g>
<!-- GO:0005488 -->
<g id="node4" class="node">
<title>GO:0005488</title>
<polygon fill="#ffffff" stroke="#000000" points="470.0857,-761.0019 380.8779,-761.0019 380.8779,-719.7981 470.0857,-719.7981 470.0857,-761.0019"/>
<text text-anchor="middle" x="425.4818" y="-744.6" font-family="Times,serif" font-size="14.00" fill="#000000">GO:0005488</text>
<text text-anchor="middle" x="425.4818" y="-727.8" font-family="Times,serif" font-size="14.00" fill="#000000">binding</text>
</g>
<!-- GO:0097159&#45;&gt;GO:0005488 -->
<g id="edge3" class="edge">
<title>GO:0097159&#45;&gt;GO:0005488</title>
<path fill="none" stroke="#000000" d="M425.4818,-675.3513C425.4818,-686.2614 425.4818,-698.6637 425.4818,-709.692"/>
<polygon fill="#000000" stroke="#000000" points="421.9819,-709.7509 425.4818,-719.751 428.9819,-709.751 421.9819,-709.7509"/>
</g>
<!-- GO:1901363&#45;&gt;GO:0005488 -->
<g id="edge4" class="edge">
<title>GO:1901363&#45;&gt;GO:0005488</title>
<path fill="none" stroke="#000000" d="M542.6246,-675.3513C519.8375,-688.0048 493.4361,-702.6654 471.4722,-714.8618"/>
<polygon fill="#000000" stroke="#000000" points="469.7109,-711.8364 462.6675,-719.751 473.1092,-717.9561 469.7109,-711.8364"/>
</g>
<!-- GO:0003674 -->
<g id="node5" class="node">
<title>GO:0003674</title>
<polygon fill="#ffffff" stroke="#000000" points="302.1149,-847.0019 176.8487,-847.0019 176.8487,-805.7981 302.1149,-805.7981 302.1149,-847.0019"/>
<text text-anchor="middle" x="239.4818" y="-830.6" font-family="Times,serif" font-size="14.00" fill="#000000">GO:0003674</text>
<text text-anchor="middle" x="239.4818" y="-813.8" font-family="Times,serif" font-size="14.00" fill="#000000">molecular_function</text>
</g>
<!-- GO:0005488&#45;&gt;GO:0003674 -->
<g id="edge5" class="edge">
<title>GO:0005488&#45;&gt;GO:0003674</title>
<path fill="none" stroke="#000000" d="M380.4564,-761.2182C354.1826,-773.3663 320.8741,-788.767 293.2315,-801.548"/>
<polygon fill="#000000" stroke="#000000" points="291.7004,-798.3998 284.0926,-805.7735 294.6382,-804.7535 291.7004,-798.3998"/>
</g>
<!-- GO:0003735 -->
<g id="node6" class="node">
<title>GO:0003735</title>
<polygon fill="#ff0000" stroke="#000000" points="148.9454,-675.4014 .0182,-675.4014 .0182,-616.5986 148.9454,-616.5986 148.9454,-675.4014"/>
<text text-anchor="middle" x="74.4818" y="-658.6" font-family="Times,serif" font-size="14.00" fill="#000000">GO:0003735</text>
<text text-anchor="middle" x="74.4818" y="-641.8" font-family="Times,serif" font-size="14.00" fill="#000000">structural constituent of</text>
<text text-anchor="middle" x="74.4818" y="-625" font-family="Times,serif" font-size="14.00" fill="#000000">ribosome</text>
</g>
<!-- GO:0005198 -->
<g id="node7" class="node">
<title>GO:0005198</title>
<polygon fill="#ffffff" stroke="#000000" points="152.1646,-769.8014 28.799,-769.8014 28.799,-710.9986 152.1646,-710.9986 152.1646,-769.8014"/>
<text text-anchor="middle" x="90.4818" y="-753" font-family="Times,serif" font-size="14.00" fill="#000000">GO:0005198</text>
<text text-anchor="middle" x="90.4818" y="-736.2" font-family="Times,serif" font-size="14.00" fill="#000000">structural molecule</text>
<text text-anchor="middle" x="90.4818" y="-719.4" font-family="Times,serif" font-size="14.00" fill="#000000">activity</text>
</g>
<!-- GO:0003735&#45;&gt;GO:0005198 -->
<g id="edge6" class="edge">
<title>GO:0003735&#45;&gt;GO:0005198</title>
<path fill="none" stroke="#000000" d="M79.4566,-675.3513C80.8412,-683.5206 82.3676,-692.5264 83.8319,-701.1657"/>
<polygon fill="#000000" stroke="#000000" points="80.3881,-701.7924 85.5101,-711.0669 87.2897,-700.6226 80.3881,-701.7924"/>
</g>
<!-- GO:0005198&#45;&gt;GO:0003674 -->
<g id="edge7" class="edge">
<title>GO:0005198&#45;&gt;GO:0003674</title>
<path fill="none" stroke="#000000" d="M141.3424,-769.7558C158.5564,-779.6914 177.6489,-790.7112 194.3839,-800.3703"/>
<polygon fill="#000000" stroke="#000000" points="193.001,-803.6133 203.4116,-805.5809 196.5003,-797.5507 193.001,-803.6133"/>
</g>
<!-- GO:0016787 -->
<g id="node8" class="node">
<title>GO:0016787</title>
<polygon fill="#ff0000" stroke="#000000" points="328.3984,-666.6019 212.5652,-666.6019 212.5652,-625.3981 328.3984,-625.3981 328.3984,-666.6019"/>
<text text-anchor="middle" x="270.4818" y="-650.2" font-family="Times,serif" font-size="14.00" fill="#000000">GO:0016787</text>
<text text-anchor="middle" x="270.4818" y="-633.4" font-family="Times,serif" font-size="14.00" fill="#000000">hydrolase activity</text>
</g>
<!-- GO:0003824 -->
<g id="node9" class="node">
<title>GO:0003824</title>
<polygon fill="#ffffff" stroke="#000000" points="293.8942,-761.0019 185.0694,-761.0019 185.0694,-719.7981 293.8942,-719.7981 293.8942,-761.0019"/>
<text text-anchor="middle" x="239.4818" y="-744.6" font-family="Times,serif" font-size="14.00" fill="#000000">GO:0003824</text>
<text text-anchor="middle" x="239.4818" y="-727.8" font-family="Times,serif" font-size="14.00" fill="#000000">catalytic activity</text>
</g>
<!-- GO:0016787&#45;&gt;GO:0003824 -->
<g id="edge8" class="edge">
<title>GO:0016787&#45;&gt;GO:0003824</title>
<path fill="none" stroke="#000000" d="M263.6019,-666.9504C259.468,-679.5387 254.1347,-695.7795 249.5347,-709.7872"/>
<polygon fill="#000000" stroke="#000000" points="246.1372,-708.9153 246.3425,-719.5081 252.7878,-711.0993 246.1372,-708.9153"/>
</g>
<!-- GO:0003824&#45;&gt;GO:0003674 -->
<g id="edge9" class="edge">
<title>GO:0003824&#45;&gt;GO:0003674</title>
<path fill="none" stroke="#000000" d="M239.4818,-761.2182C239.4818,-771.5705 239.4818,-784.2848 239.4818,-795.7271"/>
<polygon fill="#000000" stroke="#000000" points="235.9819,-795.7735 239.4818,-805.7735 242.9819,-795.7735 235.9819,-795.7735"/>
</g>
<!-- GO:0019104 -->
<g id="node10" class="node">
<title>GO:0019104</title>
<polygon fill="#ff0000" stroke="#000000" points="528.383,-281.0014 398.5806,-281.0014 398.5806,-222.1986 528.383,-222.1986 528.383,-281.0014"/>
<text text-anchor="middle" x="463.4818" y="-264.2" font-family="Times,serif" font-size="14.00" fill="#000000">GO:0019104</text>
<text text-anchor="middle" x="463.4818" y="-247.4" font-family="Times,serif" font-size="14.00" fill="#000000">DNA N&#45;glycosylase</text>
<text text-anchor="middle" x="463.4818" y="-230.6" font-family="Times,serif" font-size="14.00" fill="#000000">activity</text>
</g>
<!-- GO:0016799 -->
<g id="node11" class="node">
<title>GO:0016799</title>
<polygon fill="#ffffff" stroke="#000000" points="520.3462,-486.5003 370.6174,-486.5003 370.6174,-411.0997 520.3462,-411.0997 520.3462,-486.5003"/>
<text text-anchor="middle" x="445.4818" y="-469.8" font-family="Times,serif" font-size="14.00" fill="#000000">GO:0016799</text>
<text text-anchor="middle" x="445.4818" y="-453" font-family="Times,serif" font-size="14.00" fill="#000000">hydrolase activity,</text>
<text text-anchor="middle" x="445.4818" y="-436.2" font-family="Times,serif" font-size="14.00" fill="#000000">hydrolyzing N&#45;glycosyl</text>
<text text-anchor="middle" x="445.4818" y="-419.4" font-family="Times,serif" font-size="14.00" fill="#000000">compounds</text>
</g>
<!-- GO:0019104&#45;&gt;GO:0016799 -->
<g id="edge10" class="edge">
<title>GO:0019104&#45;&gt;GO:0016799</title>
<path fill="none" stroke="#000000" d="M460.787,-281.1228C457.9004,-312.7471 453.2748,-363.4236 449.8634,-400.7968"/>
<polygon fill="#000000" stroke="#000000" points="446.3595,-400.6816 448.9359,-410.9584 453.3305,-401.3179 446.3595,-400.6816"/>
</g>
<!-- GO:0016798 -->
<g id="node12" class="node">
<title>GO:0016798</title>
<polygon fill="#ffffff" stroke="#000000" points="512.0777,-581.0014 356.8859,-581.0014 356.8859,-522.1986 512.0777,-522.1986 512.0777,-581.0014"/>
<text text-anchor="middle" x="434.4818" y="-564.2" font-family="Times,serif" font-size="14.00" fill="#000000">GO:0016798</text>
<text text-anchor="middle" x="434.4818" y="-547.4" font-family="Times,serif" font-size="14.00" fill="#000000">hydrolase activity,</text>
<text text-anchor="middle" x="434.4818" y="-530.6" font-family="Times,serif" font-size="14.00" fill="#000000">acting on glycosyl bonds</text>
</g>
<!-- GO:0016799&#45;&gt;GO:0016798 -->
<g id="edge11" class="edge">
<title>GO:0016799&#45;&gt;GO:0016798</title>
<path fill="none" stroke="#000000" d="M441.4483,-486.4952C440.5503,-494.8874 439.596,-503.8054 438.6911,-512.2618"/>
<polygon fill="#000000" stroke="#000000" points="435.2029,-511.9657 437.619,-522.2814 442.1632,-512.7105 435.2029,-511.9657"/>
</g>
<!-- GO:0016798&#45;&gt;GO:0016787 -->
<g id="edge12" class="edge">
<title>GO:0016798&#45;&gt;GO:0016787</title>
<path fill="none" stroke="#000000" d="M383.4902,-580.9513C361.605,-593.5486 336.264,-608.1351 315.1318,-620.2991"/>
<polygon fill="#000000" stroke="#000000" points="313.2758,-617.3289 306.3551,-625.351 316.7679,-623.3956 313.2758,-617.3289"/>
</g>
<!-- GO:0003906 -->
<g id="node13" class="node">
<title>GO:0003906</title>
<polygon fill="#ff0000" stroke="#000000" points="364.3906,-186.5003 216.573,-186.5003 216.573,-111.0997 364.3906,-111.0997 364.3906,-186.5003"/>
<text text-anchor="middle" x="290.4818" y="-169.8" font-family="Times,serif" font-size="14.00" fill="#000000">GO:0003906</text>
<text text-anchor="middle" x="290.4818" y="-153" font-family="Times,serif" font-size="14.00" fill="#000000">DNA&#45;(apurinic or</text>
<text text-anchor="middle" x="290.4818" y="-136.2" font-family="Times,serif" font-size="14.00" fill="#000000">apyrimidinic site) lyase</text>
<text text-anchor="middle" x="290.4818" y="-119.4" font-family="Times,serif" font-size="14.00" fill="#000000">activity</text>
</g>
<!-- GO:0016835 -->
<g id="node14" class="node">
<title>GO:0016835</title>
<polygon fill="#ffffff" stroke="#000000" points="198.7114,-281.0014 66.2522,-281.0014 66.2522,-222.1986 198.7114,-222.1986 198.7114,-281.0014"/>
<text text-anchor="middle" x="132.4818" y="-264.2" font-family="Times,serif" font-size="14.00" fill="#000000">GO:0016835</text>
<text text-anchor="middle" x="132.4818" y="-247.4" font-family="Times,serif" font-size="14.00" fill="#000000">carbon&#45;oxygen lyase</text>
<text text-anchor="middle" x="132.4818" y="-230.6" font-family="Times,serif" font-size="14.00" fill="#000000">activity</text>
</g>
<!-- GO:0003906&#45;&gt;GO:0016835 -->
<g id="edge13" class="edge">
<title>GO:0003906&#45;&gt;GO:0016835</title>
<path fill="none" stroke="#000000" d="M232.5456,-186.4952C217.3792,-196.3629 201.0955,-206.9577 186.1617,-216.6741"/>
<polygon fill="#000000" stroke="#000000" points="184.0168,-213.894 177.5435,-222.2814 187.8343,-219.7614 184.0168,-213.894"/>
</g>
<!-- GO:0004520 -->
<g id="node15" class="node">
<title>GO:0004520</title>
<polygon fill="#ffffff" stroke="#000000" points="364.6559,-281.0014 216.3077,-281.0014 216.3077,-222.1986 364.6559,-222.1986 364.6559,-281.0014"/>
<text text-anchor="middle" x="290.4818" y="-264.2" font-family="Times,serif" font-size="14.00" fill="#000000">GO:0004520</text>
<text text-anchor="middle" x="290.4818" y="-247.4" font-family="Times,serif" font-size="14.00" fill="#000000">endodeoxyribonuclease</text>
<text text-anchor="middle" x="290.4818" y="-230.6" font-family="Times,serif" font-size="14.00" fill="#000000">activity</text>
</g>
<!-- GO:0003906&#45;&gt;GO:0004520 -->
<g id="edge14" class="edge">
<title>GO:0003906&#45;&gt;GO:0004520</title>
<path fill="none" stroke="#000000" d="M290.4818,-186.4952C290.4818,-194.8874 290.4818,-203.8054 290.4818,-212.2618"/>
<polygon fill="#000000" stroke="#000000" points="286.9819,-212.2813 290.4818,-222.2814 293.9819,-212.2814 286.9819,-212.2813"/>
</g>
<!-- GO:0016829 -->
<g id="node16" class="node">
<title>GO:0016829</title>
<polygon fill="#ffffff" stroke="#000000" points="191.7382,-469.4019 101.2254,-469.4019 101.2254,-428.1981 191.7382,-428.1981 191.7382,-469.4019"/>
<text text-anchor="middle" x="146.4818" y="-453" font-family="Times,serif" font-size="14.00" fill="#000000">GO:0016829</text>
<text text-anchor="middle" x="146.4818" y="-436.2" font-family="Times,serif" font-size="14.00" fill="#000000">lyase activity</text>
</g>
<!-- GO:0016835&#45;&gt;GO:0016829 -->
<g id="edge15" class="edge">
<title>GO:0016835&#45;&gt;GO:0016829</title>
<path fill="none" stroke="#000000" d="M134.5777,-281.1228C137.1882,-317.8928 141.6272,-380.4193 144.2841,-417.8441"/>
<polygon fill="#000000" stroke="#000000" points="140.8159,-418.4172 145.0154,-428.1442 147.7983,-417.9215 140.8159,-418.4172"/>
</g>
<!-- GO:0004536 -->
<g id="node17" class="node">
<title>GO:0004536</title>
<polygon fill="#ffffff" stroke="#000000" points="280.9412,-375.4014 160.0224,-375.4014 160.0224,-316.5986 280.9412,-316.5986 280.9412,-375.4014"/>
<text text-anchor="middle" x="220.4818" y="-358.6" font-family="Times,serif" font-size="14.00" fill="#000000">GO:0004536</text>
<text text-anchor="middle" x="220.4818" y="-341.8" font-family="Times,serif" font-size="14.00" fill="#000000">deoxyribonuclease</text>
<text text-anchor="middle" x="220.4818" y="-325" font-family="Times,serif" font-size="14.00" fill="#000000">activity</text>
</g>
<!-- GO:0004520&#45;&gt;GO:0004536 -->
<g id="edge16" class="edge">
<title>GO:0004520&#45;&gt;GO:0004536</title>
<path fill="none" stroke="#000000" d="M268.7171,-280.9513C262.2643,-289.6534 255.1076,-299.3047 248.3254,-308.4509"/>
<polygon fill="#000000" stroke="#000000" points="245.378,-306.5496 242.2331,-316.6669 251.0009,-310.719 245.378,-306.5496"/>
</g>
<!-- GO:0004519 -->
<g id="node18" class="node">
<title>GO:0004519</title>
<polygon fill="#ffffff" stroke="#000000" points="435.8816,-366.6019 299.082,-366.6019 299.082,-325.3981 435.8816,-325.3981 435.8816,-366.6019"/>
<text text-anchor="middle" x="367.4818" y="-350.2" font-family="Times,serif" font-size="14.00" fill="#000000">GO:0004519</text>
<text text-anchor="middle" x="367.4818" y="-333.4" font-family="Times,serif" font-size="14.00" fill="#000000">endonuclease activity</text>
</g>
<!-- GO:0004520&#45;&gt;GO:0004519 -->
<g id="edge17" class="edge">
<title>GO:0004520&#45;&gt;GO:0004519</title>
<path fill="none" stroke="#000000" d="M314.423,-280.9513C323.8726,-292.5363 334.6946,-305.8037 344.0898,-317.322"/>
<polygon fill="#000000" stroke="#000000" points="341.6059,-319.8142 350.6389,-325.351 347.0303,-315.3896 341.6059,-319.8142"/>
</g>
<!-- GO:0016829&#45;&gt;GO:0003824 -->
<g id="edge18" class="edge">
<title>GO:0016829&#45;&gt;GO:0003824</title>
<path fill="none" stroke="#000000" d="M149.8712,-469.6475C156.8695,-510.2258 174.7139,-602.2368 203.4818,-675.2 208.2617,-687.323 214.8574,-700.0057 221.0985,-710.9286"/>
<polygon fill="#000000" stroke="#000000" points="218.1301,-712.7857 226.21,-719.639 224.1674,-709.2429 218.1301,-712.7857"/>
</g>
<!-- GO:0004518 -->
<g id="node19" class="node">
<title>GO:0004518</title>
<polygon fill="#ffffff" stroke="#000000" points="326.1675,-469.4019 216.7961,-469.4019 216.7961,-428.1981 326.1675,-428.1981 326.1675,-469.4019"/>
<text text-anchor="middle" x="271.4818" y="-453" font-family="Times,serif" font-size="14.00" fill="#000000">GO:0004518</text>
<text text-anchor="middle" x="271.4818" y="-436.2" font-family="Times,serif" font-size="14.00" fill="#000000">nuclease activity</text>
</g>
<!-- GO:0004536&#45;&gt;GO:0004518 -->
<g id="edge19" class="edge">
<title>GO:0004536&#45;&gt;GO:0004518</title>
<path fill="none" stroke="#000000" d="M235.0964,-375.4584C241.8883,-389.1489 249.9487,-405.396 256.7546,-419.1146"/>
<polygon fill="#000000" stroke="#000000" points="253.6553,-420.743 261.235,-428.1456 259.9261,-417.632 253.6553,-420.743"/>
</g>
<!-- GO:0004519&#45;&gt;GO:0004518 -->
<g id="edge20" class="edge">
<title>GO:0004519&#45;&gt;GO:0004518</title>
<path fill="none" stroke="#000000" d="M348.0548,-366.8031C333.6113,-382.2697 313.7409,-403.5476 297.8613,-420.5519"/>
<polygon fill="#000000" stroke="#000000" points="295.1471,-418.3303 290.8799,-428.0278 300.2632,-423.108 295.1471,-418.3303"/>
</g>
<!-- GO:0016788 -->
<g id="node20" class="node">
<title>GO:0016788</title>
<polygon fill="#ffffff" stroke="#000000" points="338.5625,-581.0014 204.4011,-581.0014 204.4011,-522.1986 338.5625,-522.1986 338.5625,-581.0014"/>
<text text-anchor="middle" x="271.4818" y="-564.2" font-family="Times,serif" font-size="14.00" fill="#000000">GO:0016788</text>
<text text-anchor="middle" x="271.4818" y="-547.4" font-family="Times,serif" font-size="14.00" fill="#000000">hydrolase activity,</text>
<text text-anchor="middle" x="271.4818" y="-530.6" font-family="Times,serif" font-size="14.00" fill="#000000">acting on ester bonds</text>
</g>
<!-- GO:0004518&#45;&gt;GO:0016788 -->
<g id="edge21" class="edge">
<title>GO:0004518&#45;&gt;GO:0016788</title>
<path fill="none" stroke="#000000" d="M271.4818,-469.6031C271.4818,-481.7833 271.4818,-497.5676 271.4818,-512.0305"/>
<polygon fill="#000000" stroke="#000000" points="267.9819,-512.2577 271.4818,-522.2577 274.9819,-512.2578 267.9819,-512.2577"/>
</g>
<!-- GO:0016788&#45;&gt;GO:0016787 -->
<g id="edge22" class="edge">
<title>GO:0016788&#45;&gt;GO:0016787</title>
<path fill="none" stroke="#000000" d="M271.1709,-580.9513C271.0553,-591.8614 270.9239,-604.2637 270.8071,-615.292"/>
<polygon fill="#000000" stroke="#000000" points="267.3068,-615.3144 270.7005,-625.351 274.3064,-615.3887 267.3068,-615.3144"/>
</g>
<!-- GO:0008534 -->
<g id="node21" class="node">
<title>GO:0008534</title>
<polygon fill="#ff0000" stroke="#000000" points="450.9356,-75.3003 302.028,-75.3003 302.028,.1003 450.9356,.1003 450.9356,-75.3003"/>
<text text-anchor="middle" x="376.4818" y="-58.6" font-family="Times,serif" font-size="14.00" fill="#000000">GO:0008534</text>
<text text-anchor="middle" x="376.4818" y="-41.8" font-family="Times,serif" font-size="14.00" fill="#000000">oxidized purine</text>
<text text-anchor="middle" x="376.4818" y="-25" font-family="Times,serif" font-size="14.00" fill="#000000">nucleobase lesion DNA</text>
<text text-anchor="middle" x="376.4818" y="-8.2" font-family="Times,serif" font-size="14.00" fill="#000000">N&#45;glycosylase activity</text>
</g>
<!-- GO:0008534&#45;&gt;GO:0003906 -->
<g id="edge23" class="edge">
<title>GO:0008534&#45;&gt;GO:0003906</title>
<path fill="none" stroke="#000000" d="M347.3661,-75.2472C340.4314,-84.214 332.9569,-93.8787 325.7785,-103.1605"/>
<polygon fill="#000000" stroke="#000000" points="322.9166,-101.1399 319.5675,-111.1915 328.4539,-105.4224 322.9166,-101.1399"/>
</g>
<!-- GO:0000702 -->
<g id="node22" class="node">
<title>GO:0000702</title>
<polygon fill="#ffffff" stroke="#000000" points="545.3266,-178.2014 381.637,-178.2014 381.637,-119.3986 545.3266,-119.3986 545.3266,-178.2014"/>
<text text-anchor="middle" x="463.4818" y="-161.4" font-family="Times,serif" font-size="14.00" fill="#000000">GO:0000702</text>
<text text-anchor="middle" x="463.4818" y="-144.6" font-family="Times,serif" font-size="14.00" fill="#000000">oxidized base lesion DNA</text>
<text text-anchor="middle" x="463.4818" y="-127.8" font-family="Times,serif" font-size="14.00" fill="#000000">N&#45;glycosylase activity</text>
</g>
<!-- GO:0008534&#45;&gt;GO:0000702 -->
<g id="edge24" class="edge">
<title>GO:0008534&#45;&gt;GO:0000702</title>
<path fill="none" stroke="#000000" d="M405.936,-75.2472C414.9802,-86.8072 424.9319,-99.527 433.9793,-111.0911"/>
<polygon fill="#000000" stroke="#000000" points="431.463,-113.5549 440.3816,-119.2742 436.9762,-109.2415 431.463,-113.5549"/>
</g>
<!-- GO:0000702&#45;&gt;GO:0019104 -->
<g id="edge25" class="edge">
<title>GO:0000702&#45;&gt;GO:0019104</title>
<path fill="none" stroke="#000000" d="M463.4818,-178.2584C463.4818,-188.7969 463.4818,-200.8505 463.4818,-212.0994"/>
<polygon fill="#000000" stroke="#000000" points="459.9819,-212.1373 463.4818,-222.1373 466.9819,-212.1374 459.9819,-212.1373"/>
</g>
<!-- GO:0003684 -->
<g id="node23" class="node">
<title>GO:0003684</title>
<polygon fill="#ff0000" stroke="#000000" points="668.6177,-366.6019 522.3459,-366.6019 522.3459,-325.3981 668.6177,-325.3981 668.6177,-366.6019"/>
<text text-anchor="middle" x="595.4818" y="-350.2" font-family="Times,serif" font-size="14.00" fill="#000000">GO:0003684</text>
<text text-anchor="middle" x="595.4818" y="-333.4" font-family="Times,serif" font-size="14.00" fill="#000000">damaged DNA binding</text>
</g>
<!-- GO:0003677 -->
<g id="node24" class="node">
<title>GO:0003677</title>
<polygon fill="#ffffff" stroke="#000000" points="641.5837,-469.4019 549.3799,-469.4019 549.3799,-428.1981 641.5837,-428.1981 641.5837,-469.4019"/>
<text text-anchor="middle" x="595.4818" y="-453" font-family="Times,serif" font-size="14.00" fill="#000000">GO:0003677</text>
<text text-anchor="middle" x="595.4818" y="-436.2" font-family="Times,serif" font-size="14.00" fill="#000000">DNA binding</text>
</g>
<!-- GO:0003684&#45;&gt;GO:0003677 -->
<g id="edge26" class="edge">
<title>GO:0003684&#45;&gt;GO:0003677</title>
<path fill="none" stroke="#000000" d="M595.4818,-366.8031C595.4818,-381.4337 595.4818,-401.2642 595.4818,-417.7586"/>
<polygon fill="#000000" stroke="#000000" points="591.9819,-418.0278 595.4818,-428.0278 598.9819,-418.0279 591.9819,-418.0278"/>
</g>
<!-- GO:0003677&#45;&gt;GO:0003676 -->
<g id="edge27" class="edge">
<title>GO:0003677&#45;&gt;GO:0003676</title>
<path fill="none" stroke="#000000" d="M595.4818,-469.6031C595.4818,-484.2337 595.4818,-504.0642 595.4818,-520.5586"/>
<polygon fill="#000000" stroke="#000000" points="591.9819,-520.8278 595.4818,-530.8278 598.9819,-520.8279 591.9819,-520.8278"/>
</g>
</g>
</svg>
