<?xml version="1.0" encoding="UTF-8" standalone="no"?>
<!DOCTYPE svg PUBLIC "-//W3C//DTD SVG 1.1//EN"
 "http://www.w3.org/Graphics/SVG/1.1/DTD/svg11.dtd">
<!-- Generated by graphviz version 2.40.1 (20161225.0304)
 -->
<!-- Title: G Pages: 1 -->
<svg width="877pt" height="710pt"
 viewBox="0.00 0.00 876.77 710.40" xmlns="http://www.w3.org/2000/svg" xmlns:xlink="http://www.w3.org/1999/xlink">
<g id="graph0" class="graph" transform="scale(1 1) rotate(0) translate(4 706.4)">
<title>G</title>
<polygon fill="#ffffff" stroke="transparent" points="-4,4 -4,-706.4 872.7655,-706.4 872.7655,4 -4,4"/>
<!-- GO:0090304 -->
<g id="node1" class="node">
<title>GO:0090304</title>
<polygon fill="#ff0000" stroke="#000000" points="408.2936,-230.6014 266.3916,-230.6014 266.3916,-171.7986 408.2936,-171.7986 408.2936,-230.6014"/>
<text text-anchor="middle" x="337.3426" y="-213.8" font-family="Times,serif" font-size="14.00" fill="#000000">GO:0090304</text>
<text text-anchor="middle" x="337.3426" y="-197" font-family="Times,serif" font-size="14.00" fill="#000000">nucleic acid metabolic</text>
<text text-anchor="middle" x="337.3426" y="-180.2" font-family="Times,serif" font-size="14.00" fill="#000000">process</text>
</g>
<!-- GO:0006139 -->
<g id="node2" class="node">
<title>GO:0006139</title>
<polygon fill="#ffffff" stroke="#000000" points="408.2978,-341.7003 266.3874,-341.7003 266.3874,-266.2997 408.2978,-266.2997 408.2978,-341.7003"/>
<text text-anchor="middle" x="337.3426" y="-325" font-family="Times,serif" font-size="14.00" fill="#000000">GO:0006139</text>
<text text-anchor="middle" x="337.3426" y="-308.2" font-family="Times,serif" font-size="14.00" fill="#000000">nucleobase&#45;containing</text>
<text text-anchor="middle" x="337.3426" y="-291.4" font-family="Times,serif" font-size="14.00" fill="#000000">compound metabolic</text>
<text text-anchor="middle" x="337.3426" y="-274.6" font-family="Times,serif" font-size="14.00" fill="#000000">process</text>
</g>
<!-- GO:0090304&#45;&gt;GO:0006139 -->
<g id="edge1" class="edge">
<title>GO:0090304&#45;&gt;GO:0006139</title>
<path fill="none" stroke="#000000" d="M337.3426,-230.6584C337.3426,-238.5901 337.3426,-247.38 337.3426,-256.0392"/>
<polygon fill="#000000" stroke="#000000" points="333.8427,-256.0849 337.3426,-266.085 340.8427,-256.085 333.8427,-256.0849"/>
</g>
<!-- GO:0043170 -->
<g id="node3" class="node">
<title>GO:0043170</title>
<polygon fill="#ffffff" stroke="#000000" points="248.8448,-333.4014 87.8404,-333.4014 87.8404,-274.5986 248.8448,-274.5986 248.8448,-333.4014"/>
<text text-anchor="middle" x="168.3426" y="-316.6" font-family="Times,serif" font-size="14.00" fill="#000000">GO:0043170</text>
<text text-anchor="middle" x="168.3426" y="-299.8" font-family="Times,serif" font-size="14.00" fill="#000000">macromolecule metabolic</text>
<text text-anchor="middle" x="168.3426" y="-283" font-family="Times,serif" font-size="14.00" fill="#000000">process</text>
</g>
<!-- GO:0090304&#45;&gt;GO:0043170 -->
<g id="edge2" class="edge">
<title>GO:0090304&#45;&gt;GO:0043170</title>
<path fill="none" stroke="#000000" d="M288.914,-230.6584C269.0285,-242.7544 245.862,-256.8462 225.1805,-269.4264"/>
<polygon fill="#000000" stroke="#000000" points="223.2105,-266.528 216.4859,-274.7152 226.8484,-272.5085 223.2105,-266.528"/>
</g>
<!-- GO:0044238 -->
<g id="node4" class="node">
<title>GO:0044238</title>
<polygon fill="#ff0000" stroke="#000000" points="299.3456,-538.6019 135.3396,-538.6019 135.3396,-497.3981 299.3456,-497.3981 299.3456,-538.6019"/>
<text text-anchor="middle" x="217.3426" y="-522.2" font-family="Times,serif" font-size="14.00" fill="#000000">GO:0044238</text>
<text text-anchor="middle" x="217.3426" y="-505.4" font-family="Times,serif" font-size="14.00" fill="#000000">primary metabolic process</text>
</g>
<!-- GO:0006139&#45;&gt;GO:0044238 -->
<g id="edge3" class="edge">
<title>GO:0006139&#45;&gt;GO:0044238</title>
<path fill="none" stroke="#000000" d="M268.5104,-341.6476C255.612,-351.7032 243.6039,-363.712 235.3426,-377.6 215.4256,-411.0823 213.2736,-456.9374 214.522,-487.0012"/>
<polygon fill="#000000" stroke="#000000" points="211.0462,-487.526 215.1092,-497.3108 218.0348,-487.1279 211.0462,-487.526"/>
</g>
<!-- GO:0034641 -->
<g id="node5" class="node">
<title>GO:0034641</title>
<polygon fill="#ff0000" stroke="#000000" points="378.1541,-452.9003 244.5311,-452.9003 244.5311,-377.4997 378.1541,-377.4997 378.1541,-452.9003"/>
<text text-anchor="middle" x="311.3426" y="-436.2" font-family="Times,serif" font-size="14.00" fill="#000000">GO:0034641</text>
<text text-anchor="middle" x="311.3426" y="-419.4" font-family="Times,serif" font-size="14.00" fill="#000000">cellular nitrogen</text>
<text text-anchor="middle" x="311.3426" y="-402.6" font-family="Times,serif" font-size="14.00" fill="#000000">compound metabolic</text>
<text text-anchor="middle" x="311.3426" y="-385.8" font-family="Times,serif" font-size="14.00" fill="#000000">process</text>
</g>
<!-- GO:0006139&#45;&gt;GO:0034641 -->
<g id="edge4" class="edge">
<title>GO:0006139&#45;&gt;GO:0034641</title>
<path fill="none" stroke="#000000" d="M328.5402,-341.6472C326.5919,-349.98 324.5027,-358.9155 322.4753,-367.5863"/>
<polygon fill="#000000" stroke="#000000" points="319.0047,-367.0573 320.1359,-377.5915 325.8208,-368.651 319.0047,-367.0573"/>
</g>
<!-- GO:0006725 -->
<g id="node6" class="node">
<title>GO:0006725</title>
<polygon fill="#ffffff" stroke="#000000" points="688.1541,-452.9003 554.5311,-452.9003 554.5311,-377.4997 688.1541,-377.4997 688.1541,-452.9003"/>
<text text-anchor="middle" x="621.3426" y="-436.2" font-family="Times,serif" font-size="14.00" fill="#000000">GO:0006725</text>
<text text-anchor="middle" x="621.3426" y="-419.4" font-family="Times,serif" font-size="14.00" fill="#000000">cellular aromatic</text>
<text text-anchor="middle" x="621.3426" y="-402.6" font-family="Times,serif" font-size="14.00" fill="#000000">compound metabolic</text>
<text text-anchor="middle" x="621.3426" y="-385.8" font-family="Times,serif" font-size="14.00" fill="#000000">process</text>
</g>
<!-- GO:0006139&#45;&gt;GO:0006725 -->
<g id="edge5" class="edge">
<title>GO:0006139&#45;&gt;GO:0006725</title>
<path fill="none" stroke="#000000" d="M408.4253,-326.8083C446.6132,-339.6082 494.5285,-356.5424 544.9628,-377.5707"/>
<polygon fill="#000000" stroke="#000000" points="543.8328,-380.8924 554.4076,-381.5447 546.5477,-374.4403 543.8328,-380.8924"/>
</g>
<!-- GO:1901360 -->
<g id="node7" class="node">
<title>GO:1901360</title>
<polygon fill="#ffffff" stroke="#000000" points="187.854,-444.6014 30.8312,-444.6014 30.8312,-385.7986 187.854,-385.7986 187.854,-444.6014"/>
<text text-anchor="middle" x="109.3426" y="-427.8" font-family="Times,serif" font-size="14.00" fill="#000000">GO:1901360</text>
<text text-anchor="middle" x="109.3426" y="-411" font-family="Times,serif" font-size="14.00" fill="#000000">organic cyclic compound</text>
<text text-anchor="middle" x="109.3426" y="-394.2" font-family="Times,serif" font-size="14.00" fill="#000000">metabolic process</text>
</g>
<!-- GO:0006139&#45;&gt;GO:1901360 -->
<g id="edge6" class="edge">
<title>GO:0006139&#45;&gt;GO:1901360</title>
<path fill="none" stroke="#000000" d="M266.1398,-338.727C238.2011,-352.3532 206.2505,-367.9362 178.512,-381.4648"/>
<polygon fill="#000000" stroke="#000000" points="176.7321,-378.4387 169.2784,-385.9682 179.8006,-384.7303 176.7321,-378.4387"/>
</g>
<!-- GO:0046483 -->
<g id="node8" class="node">
<title>GO:0046483</title>
<polygon fill="#ffffff" stroke="#000000" points="536.0638,-444.6014 396.6214,-444.6014 396.6214,-385.7986 536.0638,-385.7986 536.0638,-444.6014"/>
<text text-anchor="middle" x="466.3426" y="-427.8" font-family="Times,serif" font-size="14.00" fill="#000000">GO:0046483</text>
<text text-anchor="middle" x="466.3426" y="-411" font-family="Times,serif" font-size="14.00" fill="#000000">heterocycle metabolic</text>
<text text-anchor="middle" x="466.3426" y="-394.2" font-family="Times,serif" font-size="14.00" fill="#000000">process</text>
</g>
<!-- GO:0006139&#45;&gt;GO:0046483 -->
<g id="edge7" class="edge">
<title>GO:0006139&#45;&gt;GO:0046483</title>
<path fill="none" stroke="#000000" d="M381.0161,-341.6472C394.9473,-353.6561 410.3305,-366.9167 424.1543,-378.833"/>
<polygon fill="#000000" stroke="#000000" points="422.231,-381.796 432.0905,-385.6742 426.8014,-376.494 422.231,-381.796"/>
</g>
<!-- GO:0071704 -->
<g id="node9" class="node">
<title>GO:0071704</title>
<polygon fill="#ff0000" stroke="#000000" points="116.5282,-547.4014 .157,-547.4014 .157,-488.5986 116.5282,-488.5986 116.5282,-547.4014"/>
<text text-anchor="middle" x="58.3426" y="-530.6" font-family="Times,serif" font-size="14.00" fill="#000000">GO:0071704</text>
<text text-anchor="middle" x="58.3426" y="-513.8" font-family="Times,serif" font-size="14.00" fill="#000000">organic substance</text>
<text text-anchor="middle" x="58.3426" y="-497" font-family="Times,serif" font-size="14.00" fill="#000000">metabolic process</text>
</g>
<!-- GO:0043170&#45;&gt;GO:0071704 -->
<g id="edge8" class="edge">
<title>GO:0043170&#45;&gt;GO:0071704</title>
<path fill="none" stroke="#000000" d="M87.8183,-325.6314C62.0521,-336.7753 36.3408,-353.3176 21.3426,-377.6 2.0153,-408.8913 16.7381,-450.1212 32.9758,-479.7962"/>
<polygon fill="#000000" stroke="#000000" points="30.0185,-481.6752 38.0277,-488.6109 36.0918,-478.1944 30.0185,-481.6752"/>
</g>
<!-- GO:0008152 -->
<g id="node10" class="node">
<title>GO:0008152</title>
<polygon fill="#ffffff" stroke="#000000" points="438.5282,-624.6019 322.157,-624.6019 322.157,-583.3981 438.5282,-583.3981 438.5282,-624.6019"/>
<text text-anchor="middle" x="380.3426" y="-608.2" font-family="Times,serif" font-size="14.00" fill="#000000">GO:0008152</text>
<text text-anchor="middle" x="380.3426" y="-591.4" font-family="Times,serif" font-size="14.00" fill="#000000">metabolic process</text>
</g>
<!-- GO:0044238&#45;&gt;GO:0008152 -->
<g id="edge9" class="edge">
<title>GO:0044238&#45;&gt;GO:0008152</title>
<path fill="none" stroke="#000000" d="M256.8004,-538.8182C279.5249,-550.8078 308.2546,-565.9658 332.289,-578.6466"/>
<polygon fill="#000000" stroke="#000000" points="330.7705,-581.8026 341.2482,-583.3735 334.037,-575.6115 330.7705,-581.8026"/>
</g>
<!-- GO:0006807 -->
<g id="node11" class="node">
<title>GO:0006807</title>
<polygon fill="#ffffff" stroke="#000000" points="443.1045,-547.4014 317.5807,-547.4014 317.5807,-488.5986 443.1045,-488.5986 443.1045,-547.4014"/>
<text text-anchor="middle" x="380.3426" y="-530.6" font-family="Times,serif" font-size="14.00" fill="#000000">GO:0006807</text>
<text text-anchor="middle" x="380.3426" y="-513.8" font-family="Times,serif" font-size="14.00" fill="#000000">nitrogen compound</text>
<text text-anchor="middle" x="380.3426" y="-497" font-family="Times,serif" font-size="14.00" fill="#000000">metabolic process</text>
</g>
<!-- GO:0034641&#45;&gt;GO:0006807 -->
<g id="edge10" class="edge">
<title>GO:0034641&#45;&gt;GO:0006807</title>
<path fill="none" stroke="#000000" d="M336.6439,-452.8952C342.6481,-461.8407 349.0534,-471.3837 355.057,-480.3282"/>
<polygon fill="#000000" stroke="#000000" points="352.1846,-482.3289 360.6638,-488.6814 357.9967,-478.4277 352.1846,-482.3289"/>
</g>
<!-- GO:0044237 -->
<g id="node12" class="node">
<title>GO:0044237</title>
<polygon fill="#ff0000" stroke="#000000" points="583.5254,-547.4014 467.1598,-547.4014 467.1598,-488.5986 583.5254,-488.5986 583.5254,-547.4014"/>
<text text-anchor="middle" x="525.3426" y="-530.6" font-family="Times,serif" font-size="14.00" fill="#000000">GO:0044237</text>
<text text-anchor="middle" x="525.3426" y="-513.8" font-family="Times,serif" font-size="14.00" fill="#000000">cellular metabolic</text>
<text text-anchor="middle" x="525.3426" y="-497" font-family="Times,serif" font-size="14.00" fill="#000000">process</text>
</g>
<!-- GO:0034641&#45;&gt;GO:0044237 -->
<g id="edge11" class="edge">
<title>GO:0034641&#45;&gt;GO:0044237</title>
<path fill="none" stroke="#000000" d="M378.4471,-448.4808C381.4512,-449.9449 384.427,-451.3901 387.3426,-452.8 410.3009,-463.9015 435.5009,-475.8708 458.0124,-486.4863"/>
<polygon fill="#000000" stroke="#000000" points="456.6131,-489.696 467.1511,-490.7912 459.5961,-483.3634 456.6131,-489.696"/>
</g>
<!-- GO:0006725&#45;&gt;GO:0044237 -->
<g id="edge12" class="edge">
<title>GO:0006725&#45;&gt;GO:0044237</title>
<path fill="none" stroke="#000000" d="M586.1409,-452.8952C577.5287,-462.1174 568.3236,-471.9745 559.7492,-481.1563"/>
<polygon fill="#000000" stroke="#000000" points="556.9891,-478.9838 552.7219,-488.6814 562.1051,-483.7615 556.9891,-478.9838"/>
</g>
<!-- GO:1901360&#45;&gt;GO:0071704 -->
<g id="edge13" class="edge">
<title>GO:1901360&#45;&gt;GO:0071704</title>
<path fill="none" stroke="#000000" d="M94.728,-444.6584C89.3397,-455.5195 83.1531,-467.9898 77.4278,-479.5301"/>
<polygon fill="#000000" stroke="#000000" points="74.2682,-478.0237 72.9593,-488.5373 80.5389,-481.1347 74.2682,-478.0237"/>
</g>
<!-- GO:0046483&#45;&gt;GO:0044237 -->
<g id="edge14" class="edge">
<title>GO:0046483&#45;&gt;GO:0044237</title>
<path fill="none" stroke="#000000" d="M483.2496,-444.6584C489.4832,-455.5195 496.6403,-467.9898 503.2636,-479.5301"/>
<polygon fill="#000000" stroke="#000000" points="500.4197,-481.6065 508.4331,-488.5373 506.4909,-478.122 500.4197,-481.6065"/>
</g>
<!-- GO:0071704&#45;&gt;GO:0008152 -->
<g id="edge15" class="edge">
<title>GO:0071704&#45;&gt;GO:0008152</title>
<path fill="none" stroke="#000000" d="M116.6842,-543.8683C119.93,-545.0517 123.1642,-546.1721 126.3426,-547.2 188.0117,-567.145 260.3146,-582.5713 311.9747,-592.281"/>
<polygon fill="#000000" stroke="#000000" points="311.5513,-595.7621 322.0222,-594.1464 312.8291,-588.8797 311.5513,-595.7621"/>
</g>
<!-- GO:0008150 -->
<g id="node13" class="node">
<title>GO:0008150</title>
<polygon fill="#ffffff" stroke="#000000" points="588.8132,-702.2019 467.872,-702.2019 467.872,-660.9981 588.8132,-660.9981 588.8132,-702.2019"/>
<text text-anchor="middle" x="528.3426" y="-685.8" font-family="Times,serif" font-size="14.00" fill="#000000">GO:0008150</text>
<text text-anchor="middle" x="528.3426" y="-669" font-family="Times,serif" font-size="14.00" fill="#000000">biological_process</text>
</g>
<!-- GO:0008152&#45;&gt;GO:0008150 -->
<g id="edge16" class="edge">
<title>GO:0008152&#45;&gt;GO:0008150</title>
<path fill="none" stroke="#000000" d="M420.0039,-624.7954C438.4093,-634.4458 460.4564,-646.0056 479.843,-656.1705"/>
<polygon fill="#000000" stroke="#000000" points="478.3469,-659.3379 488.8287,-660.8819 481.5975,-653.1384 478.3469,-659.3379"/>
</g>
<!-- GO:0006807&#45;&gt;GO:0008152 -->
<g id="edge17" class="edge">
<title>GO:0006807&#45;&gt;GO:0008152</title>
<path fill="none" stroke="#000000" d="M380.3426,-547.5963C380.3426,-555.8638 380.3426,-564.8657 380.3426,-573.2008"/>
<polygon fill="#000000" stroke="#000000" points="376.8427,-573.2965 380.3426,-583.2966 383.8427,-573.2966 376.8427,-573.2965"/>
</g>
<!-- GO:0044237&#45;&gt;GO:0008152 -->
<g id="edge19" class="edge">
<title>GO:0044237&#45;&gt;GO:0008152</title>
<path fill="none" stroke="#000000" d="M475.8474,-547.3558C459.0955,-557.2914 440.5155,-568.3112 424.2299,-577.9703"/>
<polygon fill="#000000" stroke="#000000" points="422.26,-575.0693 415.4445,-583.1809 425.831,-581.09 422.26,-575.0693"/>
</g>
<!-- GO:0009987 -->
<g id="node14" class="node">
<title>GO:0009987</title>
<polygon fill="#ff0000" stroke="#000000" points="580.2988,-624.6019 476.3864,-624.6019 476.3864,-583.3981 580.2988,-583.3981 580.2988,-624.6019"/>
<text text-anchor="middle" x="528.3426" y="-608.2" font-family="Times,serif" font-size="14.00" fill="#000000">GO:0009987</text>
<text text-anchor="middle" x="528.3426" y="-591.4" font-family="Times,serif" font-size="14.00" fill="#000000">cellular process</text>
</g>
<!-- GO:0044237&#45;&gt;GO:0009987 -->
<g id="edge18" class="edge">
<title>GO:0044237&#45;&gt;GO:0009987</title>
<path fill="none" stroke="#000000" d="M526.375,-547.5963C526.6634,-555.8638 526.9775,-564.8657 527.2682,-573.2008"/>
<polygon fill="#000000" stroke="#000000" points="523.7738,-573.4247 527.6204,-583.2966 530.7695,-573.1806 523.7738,-573.4247"/>
</g>
<!-- GO:0009987&#45;&gt;GO:0008150 -->
<g id="edge20" class="edge">
<title>GO:0009987&#45;&gt;GO:0008150</title>
<path fill="none" stroke="#000000" d="M528.3426,-624.7954C528.3426,-632.7109 528.3426,-641.9109 528.3426,-650.5722"/>
<polygon fill="#000000" stroke="#000000" points="524.8427,-650.7472 528.3426,-660.7472 531.8427,-650.7473 524.8427,-650.7472"/>
</g>
<!-- GO:0044260 -->
<g id="node15" class="node">
<title>GO:0044260</title>
<polygon fill="#ff0000" stroke="#000000" points="601.115,-230.6014 453.5702,-230.6014 453.5702,-171.7986 601.115,-171.7986 601.115,-230.6014"/>
<text text-anchor="middle" x="527.3426" y="-213.8" font-family="Times,serif" font-size="14.00" fill="#000000">GO:0044260</text>
<text text-anchor="middle" x="527.3426" y="-197" font-family="Times,serif" font-size="14.00" fill="#000000">cellular macromolecule</text>
<text text-anchor="middle" x="527.3426" y="-180.2" font-family="Times,serif" font-size="14.00" fill="#000000">metabolic process</text>
</g>
<!-- GO:0044260&#45;&gt;GO:0043170 -->
<g id="edge22" class="edge">
<title>GO:0044260&#45;&gt;GO:0043170</title>
<path fill="none" stroke="#000000" d="M453.4792,-221.2215C441.4218,-224.3705 429.0488,-227.5304 417.3426,-230.4 346.5497,-247.7537 326.7455,-244.1285 257.3426,-266.4 252.7907,-267.8607 248.1493,-269.4622 243.4947,-271.155"/>
<polygon fill="#000000" stroke="#000000" points="242.0766,-267.9488 233.9463,-274.7421 244.5384,-274.5017 242.0766,-267.9488"/>
</g>
<!-- GO:0044260&#45;&gt;GO:0044237 -->
<g id="edge21" class="edge">
<title>GO:0044260&#45;&gt;GO:0044237</title>
<path fill="none" stroke="#000000" d="M572.8359,-230.5149C640.3532,-277.7151 753.3954,-373.3137 697.3426,-452.8 669.8787,-491.7454 640.8364,-471.7322 596.3426,-488.8 595.316,-489.1938 594.2818,-489.5926 593.2416,-489.9955"/>
<polygon fill="#000000" stroke="#000000" points="591.7897,-486.8054 583.7593,-493.7165 594.3467,-493.3216 591.7897,-486.8054"/>
</g>
<!-- GO:0006281 -->
<g id="node16" class="node">
<title>GO:0006281</title>
<polygon fill="#ff0000" stroke="#000000" points="657.9465,-41.4019 568.7387,-41.4019 568.7387,-.1981 657.9465,-.1981 657.9465,-41.4019"/>
<text text-anchor="middle" x="613.3426" y="-25" font-family="Times,serif" font-size="14.00" fill="#000000">GO:0006281</text>
<text text-anchor="middle" x="613.3426" y="-8.2" font-family="Times,serif" font-size="14.00" fill="#000000">DNA repair</text>
</g>
<!-- GO:0006259 -->
<g id="node17" class="node">
<title>GO:0006259</title>
<polygon fill="#ffffff" stroke="#000000" points="602.3484,-127.4019 452.3368,-127.4019 452.3368,-86.1981 602.3484,-86.1981 602.3484,-127.4019"/>
<text text-anchor="middle" x="527.3426" y="-111" font-family="Times,serif" font-size="14.00" fill="#000000">GO:0006259</text>
<text text-anchor="middle" x="527.3426" y="-94.2" font-family="Times,serif" font-size="14.00" fill="#000000">DNA metabolic process</text>
</g>
<!-- GO:0006281&#45;&gt;GO:0006259 -->
<g id="edge23" class="edge">
<title>GO:0006281&#45;&gt;GO:0006259</title>
<path fill="none" stroke="#000000" d="M592.5244,-41.6182C581.327,-52.8156 567.3662,-66.7764 555.2407,-78.9019"/>
<polygon fill="#000000" stroke="#000000" points="552.5653,-76.6275 547.9691,-86.1735 557.5151,-81.5773 552.5653,-76.6275"/>
</g>
<!-- GO:0006974 -->
<g id="node18" class="node">
<title>GO:0006974</title>
<polygon fill="#ff0000" stroke="#000000" points="832.5086,-136.2014 674.1766,-136.2014 674.1766,-77.3986 832.5086,-77.3986 832.5086,-136.2014"/>
<text text-anchor="middle" x="753.3426" y="-119.4" font-family="Times,serif" font-size="14.00" fill="#000000">GO:0006974</text>
<text text-anchor="middle" x="753.3426" y="-102.6" font-family="Times,serif" font-size="14.00" fill="#000000">cellular response to DNA</text>
<text text-anchor="middle" x="753.3426" y="-85.8" font-family="Times,serif" font-size="14.00" fill="#000000">damage stimulus</text>
</g>
<!-- GO:0006281&#45;&gt;GO:0006974 -->
<g id="edge24" class="edge">
<title>GO:0006281&#45;&gt;GO:0006974</title>
<path fill="none" stroke="#000000" d="M647.2327,-41.6182C662.1867,-50.8042 680.1683,-61.8501 697.0442,-72.2167"/>
<polygon fill="#000000" stroke="#000000" points="695.3938,-75.3105 705.7466,-77.5624 699.0578,-69.3459 695.3938,-75.3105"/>
</g>
<!-- GO:0006259&#45;&gt;GO:0090304 -->
<g id="edge25" class="edge">
<title>GO:0006259&#45;&gt;GO:0090304</title>
<path fill="none" stroke="#000000" d="M485.6463,-127.5165C462.092,-139.2193 432.0738,-154.1336 405.2138,-167.4787"/>
<polygon fill="#000000" stroke="#000000" points="403.6379,-164.3534 396.2397,-171.9374 406.7526,-170.6223 403.6379,-164.3534"/>
</g>
<!-- GO:0006259&#45;&gt;GO:0044260 -->
<g id="edge26" class="edge">
<title>GO:0006259&#45;&gt;GO:0044260</title>
<path fill="none" stroke="#000000" d="M527.3426,-127.7504C527.3426,-137.7492 527.3426,-150.0525 527.3426,-161.7106"/>
<polygon fill="#000000" stroke="#000000" points="523.8427,-161.7155 527.3426,-171.7155 530.8427,-161.7156 523.8427,-161.7155"/>
</g>
<!-- GO:0033554 -->
<g id="node19" class="node">
<title>GO:0033554</title>
<polygon fill="#ffffff" stroke="#000000" points="868.6885,-444.6014 743.9967,-444.6014 743.9967,-385.7986 868.6885,-385.7986 868.6885,-444.6014"/>
<text text-anchor="middle" x="806.3426" y="-427.8" font-family="Times,serif" font-size="14.00" fill="#000000">GO:0033554</text>
<text text-anchor="middle" x="806.3426" y="-411" font-family="Times,serif" font-size="14.00" fill="#000000">cellular response to</text>
<text text-anchor="middle" x="806.3426" y="-394.2" font-family="Times,serif" font-size="14.00" fill="#000000">stress</text>
</g>
<!-- GO:0006974&#45;&gt;GO:0033554 -->
<g id="edge27" class="edge">
<title>GO:0006974&#45;&gt;GO:0033554</title>
<path fill="none" stroke="#000000" d="M758.3765,-136.0916C767.9469,-191.7802 788.7718,-312.9581 799.56,-375.7331"/>
<polygon fill="#000000" stroke="#000000" points="796.1215,-376.3901 801.2648,-385.6528 803.0204,-375.2044 796.1215,-376.3901"/>
</g>
<!-- GO:0006950 -->
<g id="node20" class="node">
<title>GO:0006950</title>
<polygon fill="#ffffff" stroke="#000000" points="862.3118,-538.6019 748.3734,-538.6019 748.3734,-497.3981 862.3118,-497.3981 862.3118,-538.6019"/>
<text text-anchor="middle" x="805.3426" y="-522.2" font-family="Times,serif" font-size="14.00" fill="#000000">GO:0006950</text>
<text text-anchor="middle" x="805.3426" y="-505.4" font-family="Times,serif" font-size="14.00" fill="#000000">response to stress</text>
</g>
<!-- GO:0033554&#45;&gt;GO:0006950 -->
<g id="edge28" class="edge">
<title>GO:0033554&#45;&gt;GO:0006950</title>
<path fill="none" stroke="#000000" d="M806.056,-444.6584C805.9267,-457.9539 805.7739,-473.6608 805.643,-487.1212"/>
<polygon fill="#000000" stroke="#000000" points="802.1411,-487.312 805.5435,-497.3456 809.1407,-487.3802 802.1411,-487.312"/>
</g>
<!-- GO:0051716 -->
<g id="node21" class="node">
<title>GO:0051716</title>
<polygon fill="#ffffff" stroke="#000000" points="729.6885,-547.4014 604.9967,-547.4014 604.9967,-488.5986 729.6885,-488.5986 729.6885,-547.4014"/>
<text text-anchor="middle" x="667.3426" y="-530.6" font-family="Times,serif" font-size="14.00" fill="#000000">GO:0051716</text>
<text text-anchor="middle" x="667.3426" y="-513.8" font-family="Times,serif" font-size="14.00" fill="#000000">cellular response to</text>
<text text-anchor="middle" x="667.3426" y="-497" font-family="Times,serif" font-size="14.00" fill="#000000">stimulus</text>
</g>
<!-- GO:0033554&#45;&gt;GO:0051716 -->
<g id="edge29" class="edge">
<title>GO:0033554&#45;&gt;GO:0051716</title>
<path fill="none" stroke="#000000" d="M766.5108,-444.6584C750.6617,-456.3798 732.2785,-469.9754 715.6767,-482.2536"/>
<polygon fill="#000000" stroke="#000000" points="713.1392,-479.7771 707.1802,-488.5373 717.3015,-485.4052 713.1392,-479.7771"/>
</g>
<!-- GO:0050896 -->
<g id="node22" class="node">
<title>GO:0050896</title>
<polygon fill="#ffffff" stroke="#000000" points="732.6642,-624.6019 602.021,-624.6019 602.021,-583.3981 732.6642,-583.3981 732.6642,-624.6019"/>
<text text-anchor="middle" x="667.3426" y="-608.2" font-family="Times,serif" font-size="14.00" fill="#000000">GO:0050896</text>
<text text-anchor="middle" x="667.3426" y="-591.4" font-family="Times,serif" font-size="14.00" fill="#000000">response to stimulus</text>
</g>
<!-- GO:0006950&#45;&gt;GO:0050896 -->
<g id="edge30" class="edge">
<title>GO:0006950&#45;&gt;GO:0050896</title>
<path fill="none" stroke="#000000" d="M771.9366,-538.8182C753.0365,-550.5966 729.2298,-565.4326 709.1054,-577.9739"/>
<polygon fill="#000000" stroke="#000000" points="707.0767,-575.1141 700.4409,-583.3735 710.779,-581.055 707.0767,-575.1141"/>
</g>
<!-- GO:0051716&#45;&gt;GO:0009987 -->
<g id="edge32" class="edge">
<title>GO:0051716&#45;&gt;GO:0009987</title>
<path fill="none" stroke="#000000" d="M619.8955,-547.3558C603.9854,-557.1994 586.3553,-568.1073 570.8481,-577.7017"/>
<polygon fill="#000000" stroke="#000000" points="568.6545,-574.9431 561.992,-583.1809 572.3375,-580.8958 568.6545,-574.9431"/>
</g>
<!-- GO:0051716&#45;&gt;GO:0050896 -->
<g id="edge31" class="edge">
<title>GO:0051716&#45;&gt;GO:0050896</title>
<path fill="none" stroke="#000000" d="M667.3426,-547.5963C667.3426,-555.8638 667.3426,-564.8657 667.3426,-573.2008"/>
<polygon fill="#000000" stroke="#000000" points="663.8427,-573.2965 667.3426,-583.2966 670.8427,-573.2966 663.8427,-573.2965"/>
</g>
<!-- GO:0050896&#45;&gt;GO:0008150 -->
<g id="edge33" class="edge">
<title>GO:0050896&#45;&gt;GO:0008150</title>
<path fill="none" stroke="#000000" d="M630.0932,-624.7954C613.1101,-634.2766 592.8258,-645.6008 574.853,-655.6345"/>
<polygon fill="#000000" stroke="#000000" points="572.7203,-652.8166 565.6949,-660.7472 576.1325,-658.9286 572.7203,-652.8166"/>
</g>
</g>
</svg>
