<?xml version="1.0" encoding="UTF-8" standalone="no"?>
<!DOCTYPE svg PUBLIC "-//W3C//DTD SVG 1.1//EN"
 "http://www.w3.org/Graphics/SVG/1.1/DTD/svg11.dtd">
<!-- Generated by graphviz version 2.40.1 (20161225.0304)
 -->
<!-- Title: G Pages: 1 -->
<svg width="763pt" height="566pt"
 viewBox="0.00 0.00 762.60 565.60" xmlns="http://www.w3.org/2000/svg" xmlns:xlink="http://www.w3.org/1999/xlink">
<g id="graph0" class="graph" transform="scale(1 1) rotate(0) translate(4 561.6)">
<title>G</title>
<polygon fill="#ffffff" stroke="transparent" points="-4,4 -4,-561.6 758.5993,-561.6 758.5993,4 -4,4"/>
<!-- GO:0043229 -->
<g id="node1" class="node">
<title>GO:0043229</title>
<polygon fill="#ff0000" stroke="#000000" points="285.6988,-316.2019 146.262,-316.2019 146.262,-274.9981 285.6988,-274.9981 285.6988,-316.2019"/>
<text text-anchor="middle" x="215.9804" y="-299.8" font-family="Times,serif" font-size="14.00" fill="#000000">GO:0043229</text>
<text text-anchor="middle" x="215.9804" y="-283" font-family="Times,serif" font-size="14.00" fill="#000000">intracellular organelle</text>
</g>
<!-- GO:0044424 -->
<g id="node2" class="node">
<title>GO:0044424</title>
<polygon fill="#ff0000" stroke="#000000" points="445.3788,-402.2019 336.582,-402.2019 336.582,-360.9981 445.3788,-360.9981 445.3788,-402.2019"/>
<text text-anchor="middle" x="390.9804" y="-385.8" font-family="Times,serif" font-size="14.00" fill="#000000">GO:0044424</text>
<text text-anchor="middle" x="390.9804" y="-369" font-family="Times,serif" font-size="14.00" fill="#000000">intracellular part</text>
</g>
<!-- GO:0043229&#45;&gt;GO:0044424 -->
<g id="edge1" class="edge">
<title>GO:0043229&#45;&gt;GO:0044424</title>
<path fill="none" stroke="#000000" d="M258.343,-316.4182C282.848,-328.4606 313.8571,-343.6994 339.7298,-356.414"/>
<polygon fill="#000000" stroke="#000000" points="338.4894,-359.7042 349.0079,-360.9735 341.5767,-353.4218 338.4894,-359.7042"/>
</g>
<!-- GO:0043226 -->
<g id="node3" class="node">
<title>GO:0043226</title>
<polygon fill="#ffffff" stroke="#000000" points="260.5843,-402.2019 171.3765,-402.2019 171.3765,-360.9981 260.5843,-360.9981 260.5843,-402.2019"/>
<text text-anchor="middle" x="215.9804" y="-385.8" font-family="Times,serif" font-size="14.00" fill="#000000">GO:0043226</text>
<text text-anchor="middle" x="215.9804" y="-369" font-family="Times,serif" font-size="14.00" fill="#000000">organelle</text>
</g>
<!-- GO:0043229&#45;&gt;GO:0043226 -->
<g id="edge2" class="edge">
<title>GO:0043229&#45;&gt;GO:0043226</title>
<path fill="none" stroke="#000000" d="M215.9804,-316.4182C215.9804,-326.7705 215.9804,-339.4848 215.9804,-350.9271"/>
<polygon fill="#000000" stroke="#000000" points="212.4805,-350.9735 215.9804,-360.9735 219.4805,-350.9735 212.4805,-350.9735"/>
</g>
<!-- GO:0044464 -->
<g id="node4" class="node">
<title>GO:0044464</title>
<polygon fill="#ffffff" stroke="#000000" points="435.5843,-479.8019 346.3765,-479.8019 346.3765,-438.5981 435.5843,-438.5981 435.5843,-479.8019"/>
<text text-anchor="middle" x="390.9804" y="-463.4" font-family="Times,serif" font-size="14.00" fill="#000000">GO:0044464</text>
<text text-anchor="middle" x="390.9804" y="-446.6" font-family="Times,serif" font-size="14.00" fill="#000000">cell part</text>
</g>
<!-- GO:0044424&#45;&gt;GO:0044464 -->
<g id="edge3" class="edge">
<title>GO:0044424&#45;&gt;GO:0044464</title>
<path fill="none" stroke="#000000" d="M390.9804,-402.3954C390.9804,-410.3109 390.9804,-419.5109 390.9804,-428.1722"/>
<polygon fill="#000000" stroke="#000000" points="387.4805,-428.3472 390.9804,-438.3472 394.4805,-428.3473 387.4805,-428.3472"/>
</g>
<!-- GO:0005575 -->
<g id="node5" class="node">
<title>GO:0005575</title>
<polygon fill="#ffffff" stroke="#000000" points="508.6671,-557.4019 381.2937,-557.4019 381.2937,-516.1981 508.6671,-516.1981 508.6671,-557.4019"/>
<text text-anchor="middle" x="444.9804" y="-541" font-family="Times,serif" font-size="14.00" fill="#000000">GO:0005575</text>
<text text-anchor="middle" x="444.9804" y="-524.2" font-family="Times,serif" font-size="14.00" fill="#000000">cellular_component</text>
</g>
<!-- GO:0043226&#45;&gt;GO:0005575 -->
<g id="edge4" class="edge">
<title>GO:0043226&#45;&gt;GO:0005575</title>
<path fill="none" stroke="#000000" d="M238.5721,-402.2732C262.1206,-423.2561 300.5994,-455.9839 336.9804,-480 354.2192,-491.3798 373.9935,-502.3308 391.871,-511.5288"/>
<polygon fill="#000000" stroke="#000000" points="390.5219,-514.769 401.0235,-516.1719 393.6889,-508.5263 390.5219,-514.769"/>
</g>
<!-- GO:0044464&#45;&gt;GO:0005575 -->
<g id="edge17" class="edge">
<title>GO:0044464&#45;&gt;GO:0005575</title>
<path fill="none" stroke="#000000" d="M405.4514,-479.9954C411.3228,-488.4328 418.2098,-498.3297 424.5758,-507.4778"/>
<polygon fill="#000000" stroke="#000000" points="421.8846,-509.7382 430.4694,-515.9472 427.6304,-505.7398 421.8846,-509.7382"/>
</g>
<!-- GO:0022627 -->
<g id="node6" class="node">
<title>GO:0022627</title>
<polygon fill="#ff0000" stroke="#000000" points="508.8487,-58.6014 349.1121,-58.6014 349.1121,.2014 508.8487,.2014 508.8487,-58.6014"/>
<text text-anchor="middle" x="428.9804" y="-41.8" font-family="Times,serif" font-size="14.00" fill="#000000">GO:0022627</text>
<text text-anchor="middle" x="428.9804" y="-25" font-family="Times,serif" font-size="14.00" fill="#000000">cytosolic small ribosomal</text>
<text text-anchor="middle" x="428.9804" y="-8.2" font-family="Times,serif" font-size="14.00" fill="#000000">subunit</text>
</g>
<!-- GO:0044445 -->
<g id="node7" class="node">
<title>GO:0044445</title>
<polygon fill="#ffffff" stroke="#000000" points="408.792,-221.8019 317.1688,-221.8019 317.1688,-180.5981 408.792,-180.5981 408.792,-221.8019"/>
<text text-anchor="middle" x="362.9804" y="-205.4" font-family="Times,serif" font-size="14.00" fill="#000000">GO:0044445</text>
<text text-anchor="middle" x="362.9804" y="-188.6" font-family="Times,serif" font-size="14.00" fill="#000000">cytosolic part</text>
</g>
<!-- GO:0022627&#45;&gt;GO:0044445 -->
<g id="edge5" class="edge">
<title>GO:0022627&#45;&gt;GO:0044445</title>
<path fill="none" stroke="#000000" d="M415.8952,-58.571C411.0504,-69.7254 405.613,-82.5872 400.9804,-94.4 390.9318,-120.0234 380.5215,-149.5241 373.1437,-171.0189"/>
<polygon fill="#000000" stroke="#000000" points="369.7976,-169.9872 369.88,-180.5817 376.4224,-172.2482 369.7976,-169.9872"/>
</g>
<!-- GO:0015935 -->
<g id="node8" class="node">
<title>GO:0015935</title>
<polygon fill="#ffffff" stroke="#000000" points="560.0295,-135.8019 409.9313,-135.8019 409.9313,-94.5981 560.0295,-94.5981 560.0295,-135.8019"/>
<text text-anchor="middle" x="484.9804" y="-119.4" font-family="Times,serif" font-size="14.00" fill="#000000">GO:0015935</text>
<text text-anchor="middle" x="484.9804" y="-102.6" font-family="Times,serif" font-size="14.00" fill="#000000">small ribosomal subunit</text>
</g>
<!-- GO:0022627&#45;&gt;GO:0015935 -->
<g id="edge6" class="edge">
<title>GO:0022627&#45;&gt;GO:0015935</title>
<path fill="none" stroke="#000000" d="M448.2524,-58.7963C453.9948,-67.6149 460.2813,-77.2692 466.0046,-86.0586"/>
<polygon fill="#000000" stroke="#000000" points="463.1093,-88.0264 471.4991,-94.4966 468.9753,-84.2067 463.1093,-88.0264"/>
</g>
<!-- GO:0044444 -->
<g id="node9" class="node">
<title>GO:0044444</title>
<polygon fill="#ff0000" stroke="#000000" points="412.397,-316.2019 303.5638,-316.2019 303.5638,-274.9981 412.397,-274.9981 412.397,-316.2019"/>
<text text-anchor="middle" x="357.9804" y="-299.8" font-family="Times,serif" font-size="14.00" fill="#000000">GO:0044444</text>
<text text-anchor="middle" x="357.9804" y="-283" font-family="Times,serif" font-size="14.00" fill="#000000">cytoplasmic part</text>
</g>
<!-- GO:0044445&#45;&gt;GO:0044444 -->
<g id="edge7" class="edge">
<title>GO:0044445&#45;&gt;GO:0044444</title>
<path fill="none" stroke="#000000" d="M361.8707,-222.1504C361.2105,-234.6165 360.3605,-250.6645 359.6235,-264.5786"/>
<polygon fill="#000000" stroke="#000000" points="356.1209,-264.537 359.087,-274.7081 363.1111,-264.9073 356.1209,-264.537"/>
</g>
<!-- GO:0044391 -->
<g id="node10" class="node">
<title>GO:0044391</title>
<polygon fill="#ffffff" stroke="#000000" points="553.1981,-221.8019 436.7627,-221.8019 436.7627,-180.5981 553.1981,-180.5981 553.1981,-221.8019"/>
<text text-anchor="middle" x="494.9804" y="-205.4" font-family="Times,serif" font-size="14.00" fill="#000000">GO:0044391</text>
<text text-anchor="middle" x="494.9804" y="-188.6" font-family="Times,serif" font-size="14.00" fill="#000000">ribosomal subunit</text>
</g>
<!-- GO:0015935&#45;&gt;GO:0044391 -->
<g id="edge8" class="edge">
<title>GO:0015935&#45;&gt;GO:0044391</title>
<path fill="none" stroke="#000000" d="M487.4011,-136.0182C488.6049,-146.3705 490.0833,-159.0848 491.4138,-170.5271"/>
<polygon fill="#000000" stroke="#000000" points="487.9503,-171.0447 492.582,-180.5735 494.9035,-170.2362 487.9503,-171.0447"/>
</g>
<!-- GO:0044444&#45;&gt;GO:0044424 -->
<g id="edge9" class="edge">
<title>GO:0044444&#45;&gt;GO:0044424</title>
<path fill="none" stroke="#000000" d="M365.9688,-316.4182C370.0222,-326.9818 375.0194,-340.0048 379.4788,-351.6261"/>
<polygon fill="#000000" stroke="#000000" points="376.2153,-352.8912 383.0656,-360.9735 382.7507,-350.3834 376.2153,-352.8912"/>
</g>
<!-- GO:0044391&#45;&gt;GO:0044444 -->
<g id="edge11" class="edge">
<title>GO:0044391&#45;&gt;GO:0044444</title>
<path fill="none" stroke="#000000" d="M464.9152,-221.9165C444.7498,-235.8114 418.0141,-254.2337 396.3207,-269.1815"/>
<polygon fill="#000000" stroke="#000000" points="394.2241,-266.3758 387.9755,-274.9318 398.1959,-272.1399 394.2241,-266.3758"/>
</g>
<!-- GO:0044446 -->
<g id="node11" class="node">
<title>GO:0044446</title>
<polygon fill="#ff0000" stroke="#000000" points="569.6988,-325.0014 430.262,-325.0014 430.262,-266.1986 569.6988,-266.1986 569.6988,-325.0014"/>
<text text-anchor="middle" x="499.9804" y="-308.2" font-family="Times,serif" font-size="14.00" fill="#000000">GO:0044446</text>
<text text-anchor="middle" x="499.9804" y="-291.4" font-family="Times,serif" font-size="14.00" fill="#000000">intracellular organelle</text>
<text text-anchor="middle" x="499.9804" y="-274.6" font-family="Times,serif" font-size="14.00" fill="#000000">part</text>
</g>
<!-- GO:0044391&#45;&gt;GO:0044446 -->
<g id="edge10" class="edge">
<title>GO:0044391&#45;&gt;GO:0044446</title>
<path fill="none" stroke="#000000" d="M496.0901,-222.1504C496.6197,-232.1492 497.2713,-244.4525 497.8888,-256.1106"/>
<polygon fill="#000000" stroke="#000000" points="494.3946,-256.3147 498.4187,-266.1155 501.3848,-255.9444 494.3946,-256.3147"/>
</g>
<!-- GO:0030529 -->
<g id="node12" class="node">
<title>GO:0030529</title>
<polygon fill="#ff0000" stroke="#000000" points="754.7184,-325.0014 587.2424,-325.0014 587.2424,-266.1986 754.7184,-266.1986 754.7184,-325.0014"/>
<text text-anchor="middle" x="670.9804" y="-308.2" font-family="Times,serif" font-size="14.00" fill="#000000">GO:0030529</text>
<text text-anchor="middle" x="670.9804" y="-291.4" font-family="Times,serif" font-size="14.00" fill="#000000">intracellular</text>
<text text-anchor="middle" x="670.9804" y="-274.6" font-family="Times,serif" font-size="14.00" fill="#000000">ribonucleoprotein complex</text>
</g>
<!-- GO:0044391&#45;&gt;GO:0030529 -->
<g id="edge12" class="edge">
<title>GO:0044391&#45;&gt;GO:0030529</title>
<path fill="none" stroke="#000000" d="M533.6043,-221.9165C555.2334,-233.5175 582.7463,-248.2744 607.4605,-261.5302"/>
<polygon fill="#000000" stroke="#000000" points="605.9563,-264.6951 616.4231,-266.3374 609.265,-258.5264 605.9563,-264.6951"/>
</g>
<!-- GO:0044446&#45;&gt;GO:0044424 -->
<g id="edge13" class="edge">
<title>GO:0044446&#45;&gt;GO:0044424</title>
<path fill="none" stroke="#000000" d="M462.7736,-324.9558C450.6472,-334.5234 437.2465,-345.0964 425.3387,-354.4916"/>
<polygon fill="#000000" stroke="#000000" points="423.0501,-351.8391 417.3673,-360.7809 427.386,-357.3345 423.0501,-351.8391"/>
</g>
<!-- GO:0044422 -->
<g id="node13" class="node">
<title>GO:0044422</title>
<polygon fill="#ffffff" stroke="#000000" points="546.8325,-479.8019 453.1283,-479.8019 453.1283,-438.5981 546.8325,-438.5981 546.8325,-479.8019"/>
<text text-anchor="middle" x="499.9804" y="-463.4" font-family="Times,serif" font-size="14.00" fill="#000000">GO:0044422</text>
<text text-anchor="middle" x="499.9804" y="-446.6" font-family="Times,serif" font-size="14.00" fill="#000000">organelle part</text>
</g>
<!-- GO:0044446&#45;&gt;GO:0044422 -->
<g id="edge14" class="edge">
<title>GO:0044446&#45;&gt;GO:0044422</title>
<path fill="none" stroke="#000000" d="M499.9804,-324.8484C499.9804,-353.9891 499.9804,-398.5603 499.9804,-428.2759"/>
<polygon fill="#000000" stroke="#000000" points="496.4805,-428.4955 499.9804,-438.4955 503.4805,-428.4955 496.4805,-428.4955"/>
</g>
<!-- GO:0030529&#45;&gt;GO:0044424 -->
<g id="edge15" class="edge">
<title>GO:0030529&#45;&gt;GO:0044424</title>
<path fill="none" stroke="#000000" d="M587.259,-322.2269C584.4671,-323.0974 581.7016,-323.9571 578.9804,-324.8 538.046,-337.4792 491.9909,-351.3993 455.7097,-362.2858"/>
<polygon fill="#000000" stroke="#000000" points="454.3218,-359.0479 445.7481,-365.2724 456.3321,-365.7531 454.3218,-359.0479"/>
</g>
<!-- GO:1990904 -->
<g id="node14" class="node">
<title>GO:1990904</title>
<polygon fill="#ffffff" stroke="#000000" points="747.7184,-402.2019 580.2424,-402.2019 580.2424,-360.9981 747.7184,-360.9981 747.7184,-402.2019"/>
<text text-anchor="middle" x="663.9804" y="-385.8" font-family="Times,serif" font-size="14.00" fill="#000000">GO:1990904</text>
<text text-anchor="middle" x="663.9804" y="-369" font-family="Times,serif" font-size="14.00" fill="#000000">ribonucleoprotein complex</text>
</g>
<!-- GO:0030529&#45;&gt;GO:1990904 -->
<g id="edge16" class="edge">
<title>GO:0030529&#45;&gt;GO:1990904</title>
<path fill="none" stroke="#000000" d="M668.5714,-325.1963C667.8985,-333.4638 667.1657,-342.4657 666.4873,-350.8008"/>
<polygon fill="#000000" stroke="#000000" points="662.9885,-350.6455 665.6656,-360.8966 669.9654,-351.2135 662.9885,-350.6455"/>
</g>
<!-- GO:0044422&#45;&gt;GO:0005575 -->
<g id="edge18" class="edge">
<title>GO:0044422&#45;&gt;GO:0005575</title>
<path fill="none" stroke="#000000" d="M485.2414,-479.9954C479.1997,-488.5197 472.102,-498.5339 465.5625,-507.7605"/>
<polygon fill="#000000" stroke="#000000" points="462.6871,-505.7647 459.7601,-515.9472 468.3981,-509.8125 462.6871,-505.7647"/>
</g>
<!-- GO:0032991 -->
<g id="node15" class="node">
<title>GO:0032991</title>
<polygon fill="#ffffff" stroke="#000000" points="736.1477,-479.8019 577.8131,-479.8019 577.8131,-438.5981 736.1477,-438.5981 736.1477,-479.8019"/>
<text text-anchor="middle" x="656.9804" y="-463.4" font-family="Times,serif" font-size="14.00" fill="#000000">GO:0032991</text>
<text text-anchor="middle" x="656.9804" y="-446.6" font-family="Times,serif" font-size="14.00" fill="#000000">macromolecular complex</text>
</g>
<!-- GO:1990904&#45;&gt;GO:0032991 -->
<g id="edge19" class="edge">
<title>GO:1990904&#45;&gt;GO:0032991</title>
<path fill="none" stroke="#000000" d="M662.1045,-402.3954C661.3905,-410.3109 660.5606,-419.5109 659.7793,-428.1722"/>
<polygon fill="#000000" stroke="#000000" points="656.2741,-428.0732 658.8614,-438.3472 663.2458,-428.7021 656.2741,-428.0732"/>
</g>
<!-- GO:0032991&#45;&gt;GO:0005575 -->
<g id="edge24" class="edge">
<title>GO:0032991&#45;&gt;GO:0005575</title>
<path fill="none" stroke="#000000" d="M600.4468,-479.8934C572.8962,-489.978 539.5986,-502.1662 510.8984,-512.6715"/>
<polygon fill="#000000" stroke="#000000" points="509.544,-509.4401 501.3565,-516.1642 511.9502,-516.0136 509.544,-509.4401"/>
</g>
<!-- GO:0005634 -->
<g id="node16" class="node">
<title>GO:0005634</title>
<polygon fill="#ff0000" stroke="#000000" points="184.5843,-135.8019 95.3765,-135.8019 95.3765,-94.5981 184.5843,-94.5981 184.5843,-135.8019"/>
<text text-anchor="middle" x="139.9804" y="-119.4" font-family="Times,serif" font-size="14.00" fill="#000000">GO:0005634</text>
<text text-anchor="middle" x="139.9804" y="-102.6" font-family="Times,serif" font-size="14.00" fill="#000000">nucleus</text>
</g>
<!-- GO:0043231 -->
<g id="node17" class="node">
<title>GO:0043231</title>
<polygon fill="#ff0000" stroke="#000000" points="215.3592,-230.6014 64.6016,-230.6014 64.6016,-171.7986 215.3592,-171.7986 215.3592,-230.6014"/>
<text text-anchor="middle" x="139.9804" y="-213.8" font-family="Times,serif" font-size="14.00" fill="#000000">GO:0043231</text>
<text text-anchor="middle" x="139.9804" y="-197" font-family="Times,serif" font-size="14.00" fill="#000000">intracellular membrane&#45;</text>
<text text-anchor="middle" x="139.9804" y="-180.2" font-family="Times,serif" font-size="14.00" fill="#000000">bounded organelle</text>
</g>
<!-- GO:0005634&#45;&gt;GO:0043231 -->
<g id="edge20" class="edge">
<title>GO:0005634&#45;&gt;GO:0043231</title>
<path fill="none" stroke="#000000" d="M139.9804,-136.0182C139.9804,-143.7358 139.9804,-152.7662 139.9804,-161.6036"/>
<polygon fill="#000000" stroke="#000000" points="136.4805,-161.7991 139.9804,-171.7991 143.4805,-161.7992 136.4805,-161.7991"/>
</g>
<!-- GO:0043231&#45;&gt;GO:0043229 -->
<g id="edge21" class="edge">
<title>GO:0043231&#45;&gt;GO:0043229</title>
<path fill="none" stroke="#000000" d="M163.6107,-230.5513C172.9376,-242.1363 183.619,-255.4037 192.8922,-266.922"/>
<polygon fill="#000000" stroke="#000000" points="190.3588,-269.3565 199.3562,-274.951 195.8114,-264.9667 190.3588,-269.3565"/>
</g>
<!-- GO:0043227 -->
<g id="node18" class="node">
<title>GO:0043227</title>
<polygon fill="#ffffff" stroke="#000000" points="127.9412,-325.0014 .0196,-325.0014 .0196,-266.1986 127.9412,-266.1986 127.9412,-325.0014"/>
<text text-anchor="middle" x="63.9804" y="-308.2" font-family="Times,serif" font-size="14.00" fill="#000000">GO:0043227</text>
<text text-anchor="middle" x="63.9804" y="-291.4" font-family="Times,serif" font-size="14.00" fill="#000000">membrane&#45;bounded</text>
<text text-anchor="middle" x="63.9804" y="-274.6" font-family="Times,serif" font-size="14.00" fill="#000000">organelle</text>
</g>
<!-- GO:0043231&#45;&gt;GO:0043227 -->
<g id="edge22" class="edge">
<title>GO:0043231&#45;&gt;GO:0043227</title>
<path fill="none" stroke="#000000" d="M116.3501,-230.5513C109.2727,-239.3422 101.4154,-249.1018 93.9853,-258.3308"/>
<polygon fill="#000000" stroke="#000000" points="91.1409,-256.2826 87.5961,-266.2669 96.5934,-260.6724 91.1409,-256.2826"/>
</g>
<!-- GO:0043227&#45;&gt;GO:0043226 -->
<g id="edge23" class="edge">
<title>GO:0043227&#45;&gt;GO:0043226</title>
<path fill="none" stroke="#000000" d="M115.865,-324.9558C133.5883,-334.9834 153.2634,-346.1154 170.448,-355.8383"/>
<polygon fill="#000000" stroke="#000000" points="168.7569,-358.9028 179.1839,-360.7809 172.204,-352.8103 168.7569,-358.9028"/>
</g>
</g>
</svg>
