<?xml version="1.0" encoding="UTF-8" standalone="no"?>
<!DOCTYPE svg PUBLIC "-//W3C//DTD SVG 1.1//EN"
 "http://www.w3.org/Graphics/SVG/1.1/DTD/svg11.dtd">
<!-- Generated by graphviz version 2.40.1 (20161225.0304)
 -->
<!-- Title: G Pages: 1 -->
<svg width="715pt" height="471pt"
 viewBox="0.00 0.00 714.59 471.20" xmlns="http://www.w3.org/2000/svg" xmlns:xlink="http://www.w3.org/1999/xlink">
<g id="graph0" class="graph" transform="scale(1 1) rotate(0) translate(4 467.2)">
<title>G</title>
<polygon fill="#ffffff" stroke="transparent" points="-4,4 -4,-467.2 710.5895,-467.2 710.5895,4 -4,4"/>
<!-- GO:0005739 -->
<g id="node1" class="node">
<title>GO:0005739</title>
<polygon fill="#ffffff" stroke="#000000" points="286.419,-41.4019 187.5418,-41.4019 187.5418,-.1981 286.419,-.1981 286.419,-41.4019"/>
<text text-anchor="middle" x="236.9804" y="-25" font-family="Times,serif" font-size="14.00" fill="#000000">GO:0005739</text>
<text text-anchor="middle" x="236.9804" y="-8.2" font-family="Times,serif" font-size="14.00" fill="#000000">mitochondrion</text>
</g>
<!-- GO:0044444 -->
<g id="node2" class="node">
<title>GO:0044444</title>
<polygon fill="#ffa500" stroke="#000000" points="412.397,-221.8019 303.5638,-221.8019 303.5638,-180.5981 412.397,-180.5981 412.397,-221.8019"/>
<text text-anchor="middle" x="357.9804" y="-205.4" font-family="Times,serif" font-size="14.00" fill="#000000">GO:0044444</text>
<text text-anchor="middle" x="357.9804" y="-188.6" font-family="Times,serif" font-size="14.00" fill="#000000">cytoplasmic part</text>
</g>
<!-- GO:0005739&#45;&gt;GO:0044444 -->
<g id="edge1" class="edge">
<title>GO:0005739&#45;&gt;GO:0044444</title>
<path fill="none" stroke="#000000" d="M248.6606,-41.655C262.0135,-65.0933 284.8877,-104.0449 306.9804,-136 315.4467,-148.2458 325.4124,-161.2574 334.2775,-172.4097"/>
<polygon fill="#000000" stroke="#000000" points="331.8092,-174.9258 340.7992,-180.5321 337.2675,-170.5432 331.8092,-174.9258"/>
</g>
<!-- GO:0043231 -->
<g id="node3" class="node">
<title>GO:0043231</title>
<polygon fill="#ffffff" stroke="#000000" points="260.3592,-136.2014 109.6016,-136.2014 109.6016,-77.3986 260.3592,-77.3986 260.3592,-136.2014"/>
<text text-anchor="middle" x="184.9804" y="-119.4" font-family="Times,serif" font-size="14.00" fill="#000000">GO:0043231</text>
<text text-anchor="middle" x="184.9804" y="-102.6" font-family="Times,serif" font-size="14.00" fill="#000000">intracellular membrane&#45;</text>
<text text-anchor="middle" x="184.9804" y="-85.8" font-family="Times,serif" font-size="14.00" fill="#000000">bounded organelle</text>
</g>
<!-- GO:0005739&#45;&gt;GO:0043231 -->
<g id="edge2" class="edge">
<title>GO:0005739&#45;&gt;GO:0043231</title>
<path fill="none" stroke="#000000" d="M224.3927,-41.6182C219.4726,-49.7552 213.6701,-59.3516 208.0523,-68.6425"/>
<polygon fill="#000000" stroke="#000000" points="204.9368,-67.0308 202.7577,-77.3991 210.927,-70.6528 204.9368,-67.0308"/>
</g>
<!-- GO:0044424 -->
<g id="node4" class="node">
<title>GO:0044424</title>
<polygon fill="#ffffff" stroke="#000000" points="420.3788,-307.8019 311.582,-307.8019 311.582,-266.5981 420.3788,-266.5981 420.3788,-307.8019"/>
<text text-anchor="middle" x="365.9804" y="-291.4" font-family="Times,serif" font-size="14.00" fill="#000000">GO:0044424</text>
<text text-anchor="middle" x="365.9804" y="-274.6" font-family="Times,serif" font-size="14.00" fill="#000000">intracellular part</text>
</g>
<!-- GO:0044444&#45;&gt;GO:0044424 -->
<g id="edge3" class="edge">
<title>GO:0044444&#45;&gt;GO:0044424</title>
<path fill="none" stroke="#000000" d="M359.917,-222.0182C360.88,-232.3705 362.0627,-245.0848 363.1271,-256.5271"/>
<polygon fill="#000000" stroke="#000000" points="359.6504,-256.9407 364.0617,-266.5735 366.6203,-256.2923 359.6504,-256.9407"/>
</g>
<!-- GO:0043229 -->
<g id="node5" class="node">
<title>GO:0043229</title>
<polygon fill="#ffffff" stroke="#000000" points="285.6988,-221.8019 146.262,-221.8019 146.262,-180.5981 285.6988,-180.5981 285.6988,-221.8019"/>
<text text-anchor="middle" x="215.9804" y="-205.4" font-family="Times,serif" font-size="14.00" fill="#000000">GO:0043229</text>
<text text-anchor="middle" x="215.9804" y="-188.6" font-family="Times,serif" font-size="14.00" fill="#000000">intracellular organelle</text>
</g>
<!-- GO:0043231&#45;&gt;GO:0043229 -->
<g id="edge4" class="edge">
<title>GO:0043231&#45;&gt;GO:0043229</title>
<path fill="none" stroke="#000000" d="M194.6191,-136.1513C198.2388,-147.1739 202.3586,-159.7196 206.0081,-170.8326"/>
<polygon fill="#000000" stroke="#000000" points="202.7541,-172.1422 209.1995,-180.551 209.4047,-169.9581 202.7541,-172.1422"/>
</g>
<!-- GO:0043227 -->
<g id="node6" class="node">
<title>GO:0043227</title>
<polygon fill="#ffffff" stroke="#000000" points="127.9412,-230.6014 .0196,-230.6014 .0196,-171.7986 127.9412,-171.7986 127.9412,-230.6014"/>
<text text-anchor="middle" x="63.9804" y="-213.8" font-family="Times,serif" font-size="14.00" fill="#000000">GO:0043227</text>
<text text-anchor="middle" x="63.9804" y="-197" font-family="Times,serif" font-size="14.00" fill="#000000">membrane&#45;bounded</text>
<text text-anchor="middle" x="63.9804" y="-180.2" font-family="Times,serif" font-size="14.00" fill="#000000">organelle</text>
</g>
<!-- GO:0043231&#45;&gt;GO:0043227 -->
<g id="edge5" class="edge">
<title>GO:0043231&#45;&gt;GO:0043227</title>
<path fill="none" stroke="#000000" d="M147.3585,-136.1513C135.4076,-145.4749 122.06,-155.8883 109.6084,-165.6026"/>
<polygon fill="#000000" stroke="#000000" points="107.3105,-162.9562 101.579,-171.8669 111.6163,-168.4752 107.3105,-162.9562"/>
</g>
<!-- GO:0044464 -->
<g id="node7" class="node">
<title>GO:0044464</title>
<polygon fill="#ff0000" stroke="#000000" points="414.5843,-385.4019 325.3765,-385.4019 325.3765,-344.1981 414.5843,-344.1981 414.5843,-385.4019"/>
<text text-anchor="middle" x="369.9804" y="-369" font-family="Times,serif" font-size="14.00" fill="#000000">GO:0044464</text>
<text text-anchor="middle" x="369.9804" y="-352.2" font-family="Times,serif" font-size="14.00" fill="#000000">cell part</text>
</g>
<!-- GO:0044424&#45;&gt;GO:0044464 -->
<g id="edge6" class="edge">
<title>GO:0044424&#45;&gt;GO:0044464</title>
<path fill="none" stroke="#000000" d="M367.0523,-307.9954C367.4603,-315.9109 367.9346,-325.1109 368.381,-333.7722"/>
<polygon fill="#000000" stroke="#000000" points="364.8953,-334.1407 368.9055,-343.9472 371.886,-333.7803 364.8953,-334.1407"/>
</g>
<!-- GO:0043229&#45;&gt;GO:0044424 -->
<g id="edge7" class="edge">
<title>GO:0043229&#45;&gt;GO:0044424</title>
<path fill="none" stroke="#000000" d="M252.2912,-222.0182C273.0191,-233.9022 299.1763,-248.899 321.1737,-261.5108"/>
<polygon fill="#000000" stroke="#000000" points="319.5878,-264.636 330.004,-266.5735 323.0695,-258.5633 319.5878,-264.636"/>
</g>
<!-- GO:0043226 -->
<g id="node8" class="node">
<title>GO:0043226</title>
<polygon fill="#ffffff" stroke="#000000" points="260.5843,-307.8019 171.3765,-307.8019 171.3765,-266.5981 260.5843,-266.5981 260.5843,-307.8019"/>
<text text-anchor="middle" x="215.9804" y="-291.4" font-family="Times,serif" font-size="14.00" fill="#000000">GO:0043226</text>
<text text-anchor="middle" x="215.9804" y="-274.6" font-family="Times,serif" font-size="14.00" fill="#000000">organelle</text>
</g>
<!-- GO:0043229&#45;&gt;GO:0043226 -->
<g id="edge8" class="edge">
<title>GO:0043229&#45;&gt;GO:0043226</title>
<path fill="none" stroke="#000000" d="M215.9804,-222.0182C215.9804,-232.3705 215.9804,-245.0848 215.9804,-256.5271"/>
<polygon fill="#000000" stroke="#000000" points="212.4805,-256.5735 215.9804,-266.5735 219.4805,-256.5735 212.4805,-256.5735"/>
</g>
<!-- GO:0043227&#45;&gt;GO:0043226 -->
<g id="edge9" class="edge">
<title>GO:0043227&#45;&gt;GO:0043226</title>
<path fill="none" stroke="#000000" d="M115.865,-230.5558C133.5883,-240.5834 153.2634,-251.7154 170.448,-261.4383"/>
<polygon fill="#000000" stroke="#000000" points="168.7569,-264.5028 179.1839,-266.3809 172.204,-258.4103 168.7569,-264.5028"/>
</g>
<!-- GO:0005575 -->
<g id="node9" class="node">
<title>GO:0005575</title>
<polygon fill="#ffffff" stroke="#000000" points="469.6671,-463.0019 342.2937,-463.0019 342.2937,-421.7981 469.6671,-421.7981 469.6671,-463.0019"/>
<text text-anchor="middle" x="405.9804" y="-446.6" font-family="Times,serif" font-size="14.00" fill="#000000">GO:0005575</text>
<text text-anchor="middle" x="405.9804" y="-429.8" font-family="Times,serif" font-size="14.00" fill="#000000">cellular_component</text>
</g>
<!-- GO:0044464&#45;&gt;GO:0005575 -->
<g id="edge10" class="edge">
<title>GO:0044464&#45;&gt;GO:0005575</title>
<path fill="none" stroke="#000000" d="M379.6277,-385.5954C383.4209,-393.7718 387.85,-403.3189 391.9826,-412.227"/>
<polygon fill="#000000" stroke="#000000" points="388.923,-413.9488 396.3064,-421.5472 395.273,-411.0029 388.923,-413.9488"/>
</g>
<!-- GO:0043226&#45;&gt;GO:0005575 -->
<g id="edge11" class="edge">
<title>GO:0043226&#45;&gt;GO:0005575</title>
<path fill="none" stroke="#000000" d="M234.736,-308.1229C254.0112,-329.0087 285.4381,-361.3949 315.9804,-385.6 329.7708,-396.5291 345.7561,-407.1873 360.3947,-416.2637"/>
<polygon fill="#000000" stroke="#000000" points="358.9441,-419.4786 369.3037,-421.699 362.5898,-413.5029 358.9441,-419.4786"/>
</g>
<!-- GO:0005829 -->
<g id="node10" class="node">
<title>GO:0005829</title>
<polygon fill="#ff00ff" stroke="#000000" points="405.5843,-127.4019 316.3765,-127.4019 316.3765,-86.1981 405.5843,-86.1981 405.5843,-127.4019"/>
<text text-anchor="middle" x="360.9804" y="-111" font-family="Times,serif" font-size="14.00" fill="#000000">GO:0005829</text>
<text text-anchor="middle" x="360.9804" y="-94.2" font-family="Times,serif" font-size="14.00" fill="#000000">cytosol</text>
</g>
<!-- GO:0005829&#45;&gt;GO:0044444 -->
<g id="edge12" class="edge">
<title>GO:0005829&#45;&gt;GO:0044444</title>
<path fill="none" stroke="#000000" d="M360.3146,-127.7504C359.9184,-140.2165 359.4084,-156.2645 358.9663,-170.1786"/>
<polygon fill="#000000" stroke="#000000" points="355.4638,-170.202 358.6443,-180.3081 362.4603,-170.4244 355.4638,-170.202"/>
</g>
<!-- GO:0005759 -->
<g id="node11" class="node">
<title>GO:0005759</title>
<polygon fill="#ffffff" stroke="#000000" points="630.0708,-41.4019 495.89,-41.4019 495.89,-.1981 630.0708,-.1981 630.0708,-41.4019"/>
<text text-anchor="middle" x="562.9804" y="-25" font-family="Times,serif" font-size="14.00" fill="#000000">GO:0005759</text>
<text text-anchor="middle" x="562.9804" y="-8.2" font-family="Times,serif" font-size="14.00" fill="#000000">mitochondrial matrix</text>
</g>
<!-- GO:0070013 -->
<g id="node12" class="node">
<title>GO:0070013</title>
<polygon fill="#ffffff" stroke="#000000" points="706.6988,-136.2014 567.262,-136.2014 567.262,-77.3986 706.6988,-77.3986 706.6988,-136.2014"/>
<text text-anchor="middle" x="636.9804" y="-119.4" font-family="Times,serif" font-size="14.00" fill="#000000">GO:0070013</text>
<text text-anchor="middle" x="636.9804" y="-102.6" font-family="Times,serif" font-size="14.00" fill="#000000">intracellular organelle</text>
<text text-anchor="middle" x="636.9804" y="-85.8" font-family="Times,serif" font-size="14.00" fill="#000000">lumen</text>
</g>
<!-- GO:0005759&#45;&gt;GO:0070013 -->
<g id="edge13" class="edge">
<title>GO:0005759&#45;&gt;GO:0070013</title>
<path fill="none" stroke="#000000" d="M580.8937,-41.6182C588.1841,-50.0908 596.8359,-60.1456 605.1348,-69.7903"/>
<polygon fill="#000000" stroke="#000000" points="602.5065,-72.1019 611.682,-77.3991 607.8126,-67.5362 602.5065,-72.1019"/>
</g>
<!-- GO:0044429 -->
<g id="node13" class="node">
<title>GO:0044429</title>
<polygon fill="#ffffff" stroke="#000000" points="548.7892,-127.4019 429.1716,-127.4019 429.1716,-86.1981 548.7892,-86.1981 548.7892,-127.4019"/>
<text text-anchor="middle" x="488.9804" y="-111" font-family="Times,serif" font-size="14.00" fill="#000000">GO:0044429</text>
<text text-anchor="middle" x="488.9804" y="-94.2" font-family="Times,serif" font-size="14.00" fill="#000000">mitochondrial part</text>
</g>
<!-- GO:0005759&#45;&gt;GO:0044429 -->
<g id="edge14" class="edge">
<title>GO:0005759&#45;&gt;GO:0044429</title>
<path fill="none" stroke="#000000" d="M545.0671,-41.6182C535.523,-52.7099 523.6458,-66.5132 513.2814,-78.5583"/>
<polygon fill="#000000" stroke="#000000" points="510.5982,-76.3105 506.7288,-86.1735 515.9043,-80.8762 510.5982,-76.3105"/>
</g>
<!-- GO:0044446 -->
<g id="node14" class="node">
<title>GO:0044446</title>
<polygon fill="#ffffff" stroke="#000000" points="569.6988,-230.6014 430.262,-230.6014 430.262,-171.7986 569.6988,-171.7986 569.6988,-230.6014"/>
<text text-anchor="middle" x="499.9804" y="-213.8" font-family="Times,serif" font-size="14.00" fill="#000000">GO:0044446</text>
<text text-anchor="middle" x="499.9804" y="-197" font-family="Times,serif" font-size="14.00" fill="#000000">intracellular organelle</text>
<text text-anchor="middle" x="499.9804" y="-180.2" font-family="Times,serif" font-size="14.00" fill="#000000">part</text>
</g>
<!-- GO:0070013&#45;&gt;GO:0044446 -->
<g id="edge15" class="edge">
<title>GO:0070013&#45;&gt;GO:0044446</title>
<path fill="none" stroke="#000000" d="M594.3837,-136.1513C580.5948,-145.6525 565.1637,-156.2854 550.8374,-166.1569"/>
<polygon fill="#000000" stroke="#000000" points="548.7993,-163.3108 542.5507,-171.8669 552.7711,-169.0749 548.7993,-163.3108"/>
</g>
<!-- GO:0043233 -->
<g id="node15" class="node">
<title>GO:0043233</title>
<polygon fill="#ffffff" stroke="#000000" points="694.0626,-221.8019 587.8982,-221.8019 587.8982,-180.5981 694.0626,-180.5981 694.0626,-221.8019"/>
<text text-anchor="middle" x="640.9804" y="-205.4" font-family="Times,serif" font-size="14.00" fill="#000000">GO:0043233</text>
<text text-anchor="middle" x="640.9804" y="-188.6" font-family="Times,serif" font-size="14.00" fill="#000000">organelle lumen</text>
</g>
<!-- GO:0070013&#45;&gt;GO:0043233 -->
<g id="edge16" class="edge">
<title>GO:0070013&#45;&gt;GO:0043233</title>
<path fill="none" stroke="#000000" d="M638.2241,-136.1513C638.6864,-147.0614 639.2119,-159.4637 639.6792,-170.492"/>
<polygon fill="#000000" stroke="#000000" points="636.1851,-170.7082 640.1054,-180.551 643.1789,-170.4117 636.1851,-170.7082"/>
</g>
<!-- GO:0044429&#45;&gt;GO:0044444 -->
<g id="edge18" class="edge">
<title>GO:0044429&#45;&gt;GO:0044444</title>
<path fill="none" stroke="#000000" d="M460.2319,-127.5165C441.035,-141.3499 415.611,-159.6708 394.9172,-174.5829"/>
<polygon fill="#000000" stroke="#000000" points="392.7286,-171.8459 386.6618,-180.5318 396.8211,-177.525 392.7286,-171.8459"/>
</g>
<!-- GO:0044429&#45;&gt;GO:0044446 -->
<g id="edge17" class="edge">
<title>GO:0044429&#45;&gt;GO:0044446</title>
<path fill="none" stroke="#000000" d="M491.4217,-127.7504C492.5868,-137.7492 494.0204,-150.0525 495.3789,-161.7106"/>
<polygon fill="#000000" stroke="#000000" points="491.9107,-162.1879 496.5447,-171.7155 498.8637,-161.3776 491.9107,-162.1879"/>
</g>
<!-- GO:0044446&#45;&gt;GO:0044424 -->
<g id="edge19" class="edge">
<title>GO:0044446&#45;&gt;GO:0044424</title>
<path fill="none" stroke="#000000" d="M454.24,-230.5558C438.9023,-240.3994 421.9063,-251.3073 406.9569,-260.9017"/>
<polygon fill="#000000" stroke="#000000" points="404.9448,-258.0341 398.4194,-266.3809 408.7257,-263.9252 404.9448,-258.0341"/>
</g>
<!-- GO:0044422 -->
<g id="node16" class="node">
<title>GO:0044422</title>
<polygon fill="#ffffff" stroke="#000000" points="546.8325,-307.8019 453.1283,-307.8019 453.1283,-266.5981 546.8325,-266.5981 546.8325,-307.8019"/>
<text text-anchor="middle" x="499.9804" y="-291.4" font-family="Times,serif" font-size="14.00" fill="#000000">GO:0044422</text>
<text text-anchor="middle" x="499.9804" y="-274.6" font-family="Times,serif" font-size="14.00" fill="#000000">organelle part</text>
</g>
<!-- GO:0044446&#45;&gt;GO:0044422 -->
<g id="edge20" class="edge">
<title>GO:0044446&#45;&gt;GO:0044422</title>
<path fill="none" stroke="#000000" d="M499.9804,-230.7963C499.9804,-239.0638 499.9804,-248.0657 499.9804,-256.4008"/>
<polygon fill="#000000" stroke="#000000" points="496.4805,-256.4965 499.9804,-266.4966 503.4805,-256.4966 496.4805,-256.4965"/>
</g>
<!-- GO:0043233&#45;&gt;GO:0044422 -->
<g id="edge21" class="edge">
<title>GO:0043233&#45;&gt;GO:0044422</title>
<path fill="none" stroke="#000000" d="M606.8482,-222.0182C587.4506,-233.8494 562.9947,-248.7657 542.3747,-261.3425"/>
<polygon fill="#000000" stroke="#000000" points="540.513,-258.3783 533.7982,-266.5735 544.1581,-264.3544 540.513,-258.3783"/>
</g>
<!-- GO:0031974 -->
<g id="node17" class="node">
<title>GO:0031974</title>
<polygon fill="#ffffff" stroke="#000000" points="686.7015,-385.4019 519.2593,-385.4019 519.2593,-344.1981 686.7015,-344.1981 686.7015,-385.4019"/>
<text text-anchor="middle" x="602.9804" y="-369" font-family="Times,serif" font-size="14.00" fill="#000000">GO:0031974</text>
<text text-anchor="middle" x="602.9804" y="-352.2" font-family="Times,serif" font-size="14.00" fill="#000000">membrane&#45;enclosed lumen</text>
</g>
<!-- GO:0043233&#45;&gt;GO:0031974 -->
<g id="edge22" class="edge">
<title>GO:0043233&#45;&gt;GO:0031974</title>
<path fill="none" stroke="#000000" d="M636.1677,-221.9201C629.59,-250.2385 617.742,-301.2476 610.1259,-334.0367"/>
<polygon fill="#000000" stroke="#000000" points="606.6673,-333.4578 607.8139,-343.9904 613.4857,-335.0416 606.6673,-333.4578"/>
</g>
<!-- GO:0044422&#45;&gt;GO:0005575 -->
<g id="edge23" class="edge">
<title>GO:0044422&#45;&gt;GO:0005575</title>
<path fill="none" stroke="#000000" d="M487.4979,-307.8094C471.1344,-334.8266 442.3299,-382.3846 423.7093,-413.1284"/>
<polygon fill="#000000" stroke="#000000" points="420.7014,-411.3387 418.5145,-421.7054 426.6888,-414.9651 420.7014,-411.3387"/>
</g>
<!-- GO:0031974&#45;&gt;GO:0005575 -->
<g id="edge24" class="edge">
<title>GO:0031974&#45;&gt;GO:0005575</title>
<path fill="none" stroke="#000000" d="M550.4468,-385.4934C525.0682,-395.4903 494.4416,-407.5544 467.9311,-417.9971"/>
<polygon fill="#000000" stroke="#000000" points="466.389,-414.8427 458.3676,-421.7642 468.9545,-421.3556 466.389,-414.8427"/>
</g>
</g>
</svg>
