<?xml version="1.0" encoding="UTF-8" standalone="no"?>
<!DOCTYPE svg PUBLIC "-//W3C//DTD SVG 1.1//EN"
 "http://www.w3.org/Graphics/SVG/1.1/DTD/svg11.dtd">
<!-- Generated by graphviz version 2.40.1 (20161225.0304)
 -->
<!-- Title: G Pages: 1 -->
<svg width="294pt" height="222pt"
 viewBox="0.00 0.00 294.18 221.60" xmlns="http://www.w3.org/2000/svg" xmlns:xlink="http://www.w3.org/1999/xlink">
<g id="graph0" class="graph" transform="scale(1 1) rotate(0) translate(4 217.6)">
<title>G</title>
<polygon fill="#ffffff" stroke="transparent" points="-4,4 -4,-217.6 290.1831,-217.6 290.1831,4 -4,4"/>
<!-- GO:0044710 -->
<g id="node1" class="node">
<title>GO:0044710</title>
<polygon fill="#00ffff" stroke="#000000" points="216.7508,-58.6014 51.9344,-58.6014 51.9344,.2014 216.7508,.2014 216.7508,-58.6014"/>
<text text-anchor="middle" x="134.3426" y="-41.8" font-family="Times,serif" font-size="14.00" fill="#000000">GO:0044710</text>
<text text-anchor="middle" x="134.3426" y="-25" font-family="Times,serif" font-size="14.00" fill="#000000">single&#45;organism metabolic</text>
<text text-anchor="middle" x="134.3426" y="-8.2" font-family="Times,serif" font-size="14.00" fill="#000000">process</text>
</g>
<!-- GO:0008152 -->
<g id="node2" class="node">
<title>GO:0008152</title>
<polygon fill="#ffffff" stroke="#000000" points="116.5282,-135.8019 .157,-135.8019 .157,-94.5981 116.5282,-94.5981 116.5282,-135.8019"/>
<text text-anchor="middle" x="58.3426" y="-119.4" font-family="Times,serif" font-size="14.00" fill="#000000">GO:0008152</text>
<text text-anchor="middle" x="58.3426" y="-102.6" font-family="Times,serif" font-size="14.00" fill="#000000">metabolic process</text>
</g>
<!-- GO:0044710&#45;&gt;GO:0008152 -->
<g id="edge1" class="edge">
<title>GO:0044710&#45;&gt;GO:0008152</title>
<path fill="none" stroke="#000000" d="M108.1877,-58.7963C100.151,-67.8905 91.3289,-77.8734 83.3696,-86.88"/>
<polygon fill="#000000" stroke="#000000" points="80.638,-84.6855 76.6387,-94.4966 85.8833,-89.3209 80.638,-84.6855"/>
</g>
<!-- GO:0044699 -->
<g id="node3" class="node">
<title>GO:0044699</title>
<polygon fill="#ffffff" stroke="#000000" points="286.0239,-135.8019 134.6613,-135.8019 134.6613,-94.5981 286.0239,-94.5981 286.0239,-135.8019"/>
<text text-anchor="middle" x="210.3426" y="-119.4" font-family="Times,serif" font-size="14.00" fill="#000000">GO:0044699</text>
<text text-anchor="middle" x="210.3426" y="-102.6" font-family="Times,serif" font-size="14.00" fill="#000000">single&#45;organism process</text>
</g>
<!-- GO:0044710&#45;&gt;GO:0044699 -->
<g id="edge2" class="edge">
<title>GO:0044710&#45;&gt;GO:0044699</title>
<path fill="none" stroke="#000000" d="M160.4975,-58.7963C168.5342,-67.8905 177.3563,-77.8734 185.3156,-86.88"/>
<polygon fill="#000000" stroke="#000000" points="182.8019,-89.3209 192.0465,-94.4966 188.0472,-84.6855 182.8019,-89.3209"/>
</g>
<!-- GO:0008150 -->
<g id="node4" class="node">
<title>GO:0008150</title>
<polygon fill="#ffffff" stroke="#000000" points="194.8132,-213.4019 73.872,-213.4019 73.872,-172.1981 194.8132,-172.1981 194.8132,-213.4019"/>
<text text-anchor="middle" x="134.3426" y="-197" font-family="Times,serif" font-size="14.00" fill="#000000">GO:0008150</text>
<text text-anchor="middle" x="134.3426" y="-180.2" font-family="Times,serif" font-size="14.00" fill="#000000">biological_process</text>
</g>
<!-- GO:0008152&#45;&gt;GO:0008150 -->
<g id="edge3" class="edge">
<title>GO:0008152&#45;&gt;GO:0008150</title>
<path fill="none" stroke="#000000" d="M78.7092,-135.9954C87.3134,-144.7807 97.4673,-155.1484 106.7295,-164.6056"/>
<polygon fill="#000000" stroke="#000000" points="104.4222,-167.2518 113.9198,-171.9472 109.4232,-162.3539 104.4222,-167.2518"/>
</g>
<!-- GO:0044699&#45;&gt;GO:0008150 -->
<g id="edge4" class="edge">
<title>GO:0044699&#45;&gt;GO:0008150</title>
<path fill="none" stroke="#000000" d="M189.976,-135.9954C181.3718,-144.7807 171.2179,-155.1484 161.9557,-164.6056"/>
<polygon fill="#000000" stroke="#000000" points="159.262,-162.3539 154.7654,-171.9472 164.263,-167.2518 159.262,-162.3539"/>
</g>
</g>
</svg>
