<?xml version="1.0" encoding="UTF-8" standalone="no"?>
<!DOCTYPE svg PUBLIC "-//W3C//DTD SVG 1.1//EN"
 "http://www.w3.org/Graphics/SVG/1.1/DTD/svg11.dtd">
<!-- Generated by graphviz version 2.40.1 (20161225.0304)
 -->
<!-- Title: G Pages: 1 -->
<svg width="166pt" height="316pt"
 viewBox="0.00 0.00 165.51 316.00" xmlns="http://www.w3.org/2000/svg" xmlns:xlink="http://www.w3.org/1999/xlink">
<g id="graph0" class="graph" transform="scale(1 1) rotate(0) translate(4 312)">
<title>G</title>
<polygon fill="#ffffff" stroke="transparent" points="-4,4 -4,-312 161.5106,-312 161.5106,4 -4,4"/>
<!-- GO:0016903 -->
<g id="node1" class="node">
<title>GO:0016903</title>
<polygon fill="#00ffff" stroke="#000000" points="157.2667,-75.3003 .2439,-75.3003 .2439,.1003 157.2667,.1003 157.2667,-75.3003"/>
<text text-anchor="middle" x="78.7553" y="-58.6" font-family="Times,serif" font-size="14.00" fill="#000000">GO:0016903</text>
<text text-anchor="middle" x="78.7553" y="-41.8" font-family="Times,serif" font-size="14.00" fill="#000000">oxidoreductase activity,</text>
<text text-anchor="middle" x="78.7553" y="-25" font-family="Times,serif" font-size="14.00" fill="#000000">acting on the aldehyde or</text>
<text text-anchor="middle" x="78.7553" y="-8.2" font-family="Times,serif" font-size="14.00" fill="#000000">oxo group of donors</text>
</g>
<!-- GO:0016491 -->
<g id="node2" class="node">
<title>GO:0016491</title>
<polygon fill="#ffffff" stroke="#000000" points="151.9919,-152.6019 5.5187,-152.6019 5.5187,-111.3981 151.9919,-111.3981 151.9919,-152.6019"/>
<text text-anchor="middle" x="78.7553" y="-136.2" font-family="Times,serif" font-size="14.00" fill="#000000">GO:0016491</text>
<text text-anchor="middle" x="78.7553" y="-119.4" font-family="Times,serif" font-size="14.00" fill="#000000">oxidoreductase activity</text>
</g>
<!-- GO:0016903&#45;&gt;GO:0016491 -->
<g id="edge1" class="edge">
<title>GO:0016903&#45;&gt;GO:0016491</title>
<path fill="none" stroke="#000000" d="M78.7553,-75.4522C78.7553,-83.9406 78.7553,-92.8492 78.7553,-101.0197"/>
<polygon fill="#000000" stroke="#000000" points="75.2554,-101.2379 78.7553,-111.2379 82.2554,-101.2379 75.2554,-101.2379"/>
</g>
<!-- GO:0003824 -->
<g id="node3" class="node">
<title>GO:0003824</title>
<polygon fill="#ffffff" stroke="#000000" points="133.1677,-230.2019 24.3429,-230.2019 24.3429,-188.9981 133.1677,-188.9981 133.1677,-230.2019"/>
<text text-anchor="middle" x="78.7553" y="-213.8" font-family="Times,serif" font-size="14.00" fill="#000000">GO:0003824</text>
<text text-anchor="middle" x="78.7553" y="-197" font-family="Times,serif" font-size="14.00" fill="#000000">catalytic activity</text>
</g>
<!-- GO:0016491&#45;&gt;GO:0003824 -->
<g id="edge2" class="edge">
<title>GO:0016491&#45;&gt;GO:0003824</title>
<path fill="none" stroke="#000000" d="M78.7553,-152.7954C78.7553,-160.7109 78.7553,-169.9109 78.7553,-178.5722"/>
<polygon fill="#000000" stroke="#000000" points="75.2554,-178.7472 78.7553,-188.7472 82.2554,-178.7473 75.2554,-178.7472"/>
</g>
<!-- GO:0003674 -->
<g id="node4" class="node">
<title>GO:0003674</title>
<polygon fill="#ffffff" stroke="#000000" points="141.3884,-307.8019 16.1222,-307.8019 16.1222,-266.5981 141.3884,-266.5981 141.3884,-307.8019"/>
<text text-anchor="middle" x="78.7553" y="-291.4" font-family="Times,serif" font-size="14.00" fill="#000000">GO:0003674</text>
<text text-anchor="middle" x="78.7553" y="-274.6" font-family="Times,serif" font-size="14.00" fill="#000000">molecular_function</text>
</g>
<!-- GO:0003824&#45;&gt;GO:0003674 -->
<g id="edge3" class="edge">
<title>GO:0003824&#45;&gt;GO:0003674</title>
<path fill="none" stroke="#000000" d="M78.7553,-230.3954C78.7553,-238.3109 78.7553,-247.5109 78.7553,-256.1722"/>
<polygon fill="#000000" stroke="#000000" points="75.2554,-256.3472 78.7553,-266.3472 82.2554,-256.3473 75.2554,-256.3472"/>
</g>
</g>
</svg>
