<?xml version="1.0" encoding="UTF-8" standalone="no"?>
<!DOCTYPE svg PUBLIC "-//W3C//DTD SVG 1.1//EN"
 "http://www.w3.org/Graphics/SVG/1.1/DTD/svg11.dtd">
<!-- Generated by graphviz version 2.40.1 (20161225.0304)
 -->
<!-- Title: G Pages: 1 -->
<svg width="376pt" height="471pt"
 viewBox="0.00 0.00 376.44 471.20" xmlns="http://www.w3.org/2000/svg" xmlns:xlink="http://www.w3.org/1999/xlink">
<g id="graph0" class="graph" transform="scale(1 1) rotate(0) translate(4 467.2)">
<title>G</title>
<polygon fill="#ffffff" stroke="transparent" points="-4,4 -4,-467.2 372.4387,-467.2 372.4387,4 -4,4"/>
<!-- GO:0043229 -->
<g id="node1" class="node">
<title>GO:0043229</title>
<polygon fill="#ffa500" stroke="#000000" points="222.1767,-221.8019 82.7399,-221.8019 82.7399,-180.5981 222.1767,-180.5981 222.1767,-221.8019"/>
<text text-anchor="middle" x="152.4583" y="-205.4" font-family="Times,serif" font-size="14.00" fill="#000000">GO:0043229</text>
<text text-anchor="middle" x="152.4583" y="-188.6" font-family="Times,serif" font-size="14.00" fill="#000000">intracellular organelle</text>
</g>
<!-- GO:0044424 -->
<g id="node2" class="node">
<title>GO:0044424</title>
<polygon fill="#ffffff" stroke="#000000" points="157.8567,-307.8019 49.0599,-307.8019 49.0599,-266.5981 157.8567,-266.5981 157.8567,-307.8019"/>
<text text-anchor="middle" x="103.4583" y="-291.4" font-family="Times,serif" font-size="14.00" fill="#000000">GO:0044424</text>
<text text-anchor="middle" x="103.4583" y="-274.6" font-family="Times,serif" font-size="14.00" fill="#000000">intracellular part</text>
</g>
<!-- GO:0043229&#45;&gt;GO:0044424 -->
<g id="edge1" class="edge">
<title>GO:0043229&#45;&gt;GO:0044424</title>
<path fill="none" stroke="#000000" d="M140.5968,-222.0182C134.5178,-232.6874 127.0094,-245.8655 120.3381,-257.5743"/>
<polygon fill="#000000" stroke="#000000" points="117.1201,-256.1522 115.2106,-266.5735 123.2022,-259.6176 117.1201,-256.1522"/>
</g>
<!-- GO:0043226 -->
<g id="node3" class="node">
<title>GO:0043226</title>
<polygon fill="#ffa500" stroke="#000000" points="265.0622,-307.8019 175.8544,-307.8019 175.8544,-266.5981 265.0622,-266.5981 265.0622,-307.8019"/>
<text text-anchor="middle" x="220.4583" y="-291.4" font-family="Times,serif" font-size="14.00" fill="#000000">GO:0043226</text>
<text text-anchor="middle" x="220.4583" y="-274.6" font-family="Times,serif" font-size="14.00" fill="#000000">organelle</text>
</g>
<!-- GO:0043229&#45;&gt;GO:0043226 -->
<g id="edge2" class="edge">
<title>GO:0043229&#45;&gt;GO:0043226</title>
<path fill="none" stroke="#000000" d="M168.9192,-222.0182C177.6059,-233.0043 188.3959,-246.6506 197.8551,-258.6137"/>
<polygon fill="#000000" stroke="#000000" points="195.2011,-260.9002 204.149,-266.5735 200.6921,-256.5585 195.2011,-260.9002"/>
</g>
<!-- GO:0044464 -->
<g id="node4" class="node">
<title>GO:0044464</title>
<polygon fill="#ffffff" stroke="#000000" points="170.0622,-385.4019 80.8544,-385.4019 80.8544,-344.1981 170.0622,-344.1981 170.0622,-385.4019"/>
<text text-anchor="middle" x="125.4583" y="-369" font-family="Times,serif" font-size="14.00" fill="#000000">GO:0044464</text>
<text text-anchor="middle" x="125.4583" y="-352.2" font-family="Times,serif" font-size="14.00" fill="#000000">cell part</text>
</g>
<!-- GO:0044424&#45;&gt;GO:0044464 -->
<g id="edge3" class="edge">
<title>GO:0044424&#45;&gt;GO:0044464</title>
<path fill="none" stroke="#000000" d="M109.3539,-307.9954C111.6226,-315.9978 114.2636,-325.3133 116.7426,-334.0575"/>
<polygon fill="#000000" stroke="#000000" points="113.4515,-335.2811 119.5464,-343.9472 120.1861,-333.3717 113.4515,-335.2811"/>
</g>
<!-- GO:0005575 -->
<g id="node5" class="node">
<title>GO:0005575</title>
<polygon fill="#ffffff" stroke="#000000" points="225.145,-463.0019 97.7716,-463.0019 97.7716,-421.7981 225.145,-421.7981 225.145,-463.0019"/>
<text text-anchor="middle" x="161.4583" y="-446.6" font-family="Times,serif" font-size="14.00" fill="#000000">GO:0005575</text>
<text text-anchor="middle" x="161.4583" y="-429.8" font-family="Times,serif" font-size="14.00" fill="#000000">cellular_component</text>
</g>
<!-- GO:0043226&#45;&gt;GO:0005575 -->
<g id="edge4" class="edge">
<title>GO:0043226&#45;&gt;GO:0005575</title>
<path fill="none" stroke="#000000" d="M212.6236,-307.8094C202.441,-334.5947 184.5832,-381.5697 172.8884,-412.3331"/>
<polygon fill="#000000" stroke="#000000" points="169.6074,-411.1143 169.3254,-421.7054 176.1505,-413.6018 169.6074,-411.1143"/>
</g>
<!-- GO:0044464&#45;&gt;GO:0005575 -->
<g id="edge11" class="edge">
<title>GO:0044464&#45;&gt;GO:0005575</title>
<path fill="none" stroke="#000000" d="M135.1056,-385.5954C138.8988,-393.7718 143.3279,-403.3189 147.4605,-412.227"/>
<polygon fill="#000000" stroke="#000000" points="144.4009,-413.9488 151.7843,-421.5472 150.7509,-411.0029 144.4009,-413.9488"/>
</g>
<!-- GO:0043227 -->
<g id="node6" class="node">
<title>GO:0043227</title>
<polygon fill="#ffa500" stroke="#000000" points="368.4191,-230.6014 240.4975,-230.6014 240.4975,-171.7986 368.4191,-171.7986 368.4191,-230.6014"/>
<text text-anchor="middle" x="304.4583" y="-213.8" font-family="Times,serif" font-size="14.00" fill="#000000">GO:0043227</text>
<text text-anchor="middle" x="304.4583" y="-197" font-family="Times,serif" font-size="14.00" fill="#000000">membrane&#45;bounded</text>
<text text-anchor="middle" x="304.4583" y="-180.2" font-family="Times,serif" font-size="14.00" fill="#000000">organelle</text>
</g>
<!-- GO:0043227&#45;&gt;GO:0043226 -->
<g id="edge5" class="edge">
<title>GO:0043227&#45;&gt;GO:0043226</title>
<path fill="none" stroke="#000000" d="M275.5503,-230.7963C266.5778,-239.9824 256.7197,-250.0752 247.8534,-259.1526"/>
<polygon fill="#000000" stroke="#000000" points="245.1639,-256.8972 240.6803,-266.4966 250.1715,-261.7884 245.1639,-256.8972"/>
</g>
<!-- GO:0005739 -->
<g id="node7" class="node">
<title>GO:0005739</title>
<polygon fill="#ffff00" stroke="#000000" points="177.8969,-41.4019 79.0197,-41.4019 79.0197,-.1981 177.8969,-.1981 177.8969,-41.4019"/>
<text text-anchor="middle" x="128.4583" y="-25" font-family="Times,serif" font-size="14.00" fill="#000000">GO:0005739</text>
<text text-anchor="middle" x="128.4583" y="-8.2" font-family="Times,serif" font-size="14.00" fill="#000000">mitochondrion</text>
</g>
<!-- GO:0044444 -->
<g id="node8" class="node">
<title>GO:0044444</title>
<polygon fill="#ff0000" stroke="#000000" points="108.8749,-127.4019 .0417,-127.4019 .0417,-86.1981 108.8749,-86.1981 108.8749,-127.4019"/>
<text text-anchor="middle" x="54.4583" y="-111" font-family="Times,serif" font-size="14.00" fill="#000000">GO:0044444</text>
<text text-anchor="middle" x="54.4583" y="-94.2" font-family="Times,serif" font-size="14.00" fill="#000000">cytoplasmic part</text>
</g>
<!-- GO:0005739&#45;&gt;GO:0044444 -->
<g id="edge6" class="edge">
<title>GO:0005739&#45;&gt;GO:0044444</title>
<path fill="none" stroke="#000000" d="M110.545,-41.6182C101.0009,-52.7099 89.1237,-66.5132 78.7593,-78.5583"/>
<polygon fill="#000000" stroke="#000000" points="76.0761,-76.3105 72.2067,-86.1735 81.3822,-80.8762 76.0761,-76.3105"/>
</g>
<!-- GO:0043231 -->
<g id="node9" class="node">
<title>GO:0043231</title>
<polygon fill="#ffa500" stroke="#000000" points="277.8371,-136.2014 127.0795,-136.2014 127.0795,-77.3986 277.8371,-77.3986 277.8371,-136.2014"/>
<text text-anchor="middle" x="202.4583" y="-119.4" font-family="Times,serif" font-size="14.00" fill="#000000">GO:0043231</text>
<text text-anchor="middle" x="202.4583" y="-102.6" font-family="Times,serif" font-size="14.00" fill="#000000">intracellular membrane&#45;</text>
<text text-anchor="middle" x="202.4583" y="-85.8" font-family="Times,serif" font-size="14.00" fill="#000000">bounded organelle</text>
</g>
<!-- GO:0005739&#45;&gt;GO:0043231 -->
<g id="edge7" class="edge">
<title>GO:0005739&#45;&gt;GO:0043231</title>
<path fill="none" stroke="#000000" d="M146.3716,-41.6182C153.662,-50.0908 162.3138,-60.1456 170.6127,-69.7903"/>
<polygon fill="#000000" stroke="#000000" points="167.9844,-72.1019 177.1599,-77.3991 173.2905,-67.5362 167.9844,-72.1019"/>
</g>
<!-- GO:0044444&#45;&gt;GO:0044424 -->
<g id="edge8" class="edge">
<title>GO:0044444&#45;&gt;GO:0044424</title>
<path fill="none" stroke="#000000" d="M55.5288,-127.4102C57.2975,-152.3505 61.8754,-195.357 73.4583,-230.4 76.4912,-239.5757 80.9083,-249.0478 85.425,-257.5641"/>
<polygon fill="#000000" stroke="#000000" points="82.3964,-259.32 90.3043,-266.371 88.5195,-255.9276 82.3964,-259.32"/>
</g>
<!-- GO:0043231&#45;&gt;GO:0043229 -->
<g id="edge9" class="edge">
<title>GO:0043231&#45;&gt;GO:0043229</title>
<path fill="none" stroke="#000000" d="M186.9121,-136.1513C180.9547,-147.3989 174.1573,-160.2323 168.1833,-171.5112"/>
<polygon fill="#000000" stroke="#000000" points="164.983,-170.0758 163.3953,-180.551 171.1689,-173.3522 164.983,-170.0758"/>
</g>
<!-- GO:0043231&#45;&gt;GO:0043227 -->
<g id="edge10" class="edge">
<title>GO:0043231&#45;&gt;GO:0043227</title>
<path fill="none" stroke="#000000" d="M234.1726,-136.1513C244.055,-145.2973 255.0704,-155.492 265.3944,-165.0467"/>
<polygon fill="#000000" stroke="#000000" points="263.047,-167.6432 272.7636,-171.8669 267.8017,-162.5057 263.047,-167.6432"/>
</g>
</g>
</svg>
