<?xml version="1.0" encoding="UTF-8" standalone="no"?>
<!DOCTYPE svg PUBLIC "-//W3C//DTD SVG 1.1//EN"
 "http://www.w3.org/Graphics/SVG/1.1/DTD/svg11.dtd">
<!-- Generated by graphviz version 2.40.1 (20161225.0304)
 -->
<!-- Title: G Pages: 1 -->
<svg width="857pt" height="1054pt"
 viewBox="0.00 0.00 857.47 1054.40" xmlns="http://www.w3.org/2000/svg" xmlns:xlink="http://www.w3.org/1999/xlink">
<g id="graph0" class="graph" transform="scale(1 1) rotate(0) translate(4 1050.4)">
<title>G</title>
<polygon fill="#ffffff" stroke="transparent" points="-4,4 -4,-1050.4 853.4657,-1050.4 853.4657,4 -4,4"/>
<!-- GO:0070509 -->
<g id="node1" class="node">
<title>GO:0070509</title>
<polygon fill="#00ff00" stroke="#000000" points="667.6307,-161.0019 545.5517,-161.0019 545.5517,-119.7981 667.6307,-119.7981 667.6307,-161.0019"/>
<text text-anchor="middle" x="606.5912" y="-144.6" font-family="Times,serif" font-size="14.00" fill="#000000">GO:0070509</text>
<text text-anchor="middle" x="606.5912" y="-127.8" font-family="Times,serif" font-size="14.00" fill="#000000">calcium ion import</text>
</g>
<!-- GO:0006816 -->
<g id="node2" class="node">
<title>GO:0006816</title>
<polygon fill="#ffffff" stroke="#000000" points="675.059,-255.4019 540.1234,-255.4019 540.1234,-214.1981 675.059,-214.1981 675.059,-255.4019"/>
<text text-anchor="middle" x="607.5912" y="-239" font-family="Times,serif" font-size="14.00" fill="#000000">GO:0006816</text>
<text text-anchor="middle" x="607.5912" y="-222.2" font-family="Times,serif" font-size="14.00" fill="#000000">calcium ion transport</text>
</g>
<!-- GO:0070509&#45;&gt;GO:0006816 -->
<g id="edge1" class="edge">
<title>GO:0070509&#45;&gt;GO:0006816</title>
<path fill="none" stroke="#000000" d="M606.8131,-161.3504C606.9452,-173.8165 607.1152,-189.8645 607.2626,-203.7786"/>
<polygon fill="#000000" stroke="#000000" points="603.7641,-203.9458 607.3699,-213.9081 610.7637,-203.8716 603.7641,-203.9458"/>
</g>
<!-- GO:0070838 -->
<g id="node3" class="node">
<title>GO:0070838</title>
<polygon fill="#ffffff" stroke="#000000" points="666.1838,-367.0014 548.9986,-367.0014 548.9986,-308.1986 666.1838,-308.1986 666.1838,-367.0014"/>
<text text-anchor="middle" x="607.5912" y="-350.2" font-family="Times,serif" font-size="14.00" fill="#000000">GO:0070838</text>
<text text-anchor="middle" x="607.5912" y="-333.4" font-family="Times,serif" font-size="14.00" fill="#000000">divalent metal ion</text>
<text text-anchor="middle" x="607.5912" y="-316.6" font-family="Times,serif" font-size="14.00" fill="#000000">transport</text>
</g>
<!-- GO:0006816&#45;&gt;GO:0070838 -->
<g id="edge2" class="edge">
<title>GO:0006816&#45;&gt;GO:0070838</title>
<path fill="none" stroke="#000000" d="M607.5912,-255.6031C607.5912,-267.7833 607.5912,-283.5676 607.5912,-298.0305"/>
<polygon fill="#000000" stroke="#000000" points="604.0913,-298.2577 607.5912,-308.2577 611.0913,-298.2578 604.0913,-298.2577"/>
</g>
<!-- GO:0072511 -->
<g id="node4" class="node">
<title>GO:0072511</title>
<polygon fill="#ffffff" stroke="#000000" points="600.2737,-469.8014 444.9087,-469.8014 444.9087,-410.9986 600.2737,-410.9986 600.2737,-469.8014"/>
<text text-anchor="middle" x="522.5912" y="-453" font-family="Times,serif" font-size="14.00" fill="#000000">GO:0072511</text>
<text text-anchor="middle" x="522.5912" y="-436.2" font-family="Times,serif" font-size="14.00" fill="#000000">divalent inorganic cation</text>
<text text-anchor="middle" x="522.5912" y="-419.4" font-family="Times,serif" font-size="14.00" fill="#000000">transport</text>
</g>
<!-- GO:0070838&#45;&gt;GO:0072511 -->
<g id="edge3" class="edge">
<title>GO:0070838&#45;&gt;GO:0072511</title>
<path fill="none" stroke="#000000" d="M583.2336,-367.0584C573.9863,-378.2421 563.3283,-391.1321 553.5517,-402.956"/>
<polygon fill="#000000" stroke="#000000" points="550.6273,-401.0003 546.9523,-410.9373 556.022,-405.4609 550.6273,-401.0003"/>
</g>
<!-- GO:0030001 -->
<g id="node5" class="node">
<title>GO:0030001</title>
<polygon fill="#00ff00" stroke="#000000" points="739.3446,-461.0019 617.8378,-461.0019 617.8378,-419.7981 739.3446,-419.7981 739.3446,-461.0019"/>
<text text-anchor="middle" x="678.5912" y="-444.6" font-family="Times,serif" font-size="14.00" fill="#000000">GO:0030001</text>
<text text-anchor="middle" x="678.5912" y="-427.8" font-family="Times,serif" font-size="14.00" fill="#000000">metal ion transport</text>
</g>
<!-- GO:0070838&#45;&gt;GO:0030001 -->
<g id="edge4" class="edge">
<title>GO:0070838&#45;&gt;GO:0030001</title>
<path fill="none" stroke="#000000" d="M627.937,-367.0584C637.5743,-381.0121 649.046,-397.6219 658.6333,-411.5032"/>
<polygon fill="#000000" stroke="#000000" points="655.7631,-413.5064 664.326,-419.7456 661.5229,-409.5283 655.7631,-413.5064"/>
</g>
<!-- GO:0006812 -->
<g id="node6" class="node">
<title>GO:0006812</title>
<polygon fill="#ffffff" stroke="#000000" points="690.5643,-547.0019 586.6181,-547.0019 586.6181,-505.7981 690.5643,-505.7981 690.5643,-547.0019"/>
<text text-anchor="middle" x="638.5912" y="-530.6" font-family="Times,serif" font-size="14.00" fill="#000000">GO:0006812</text>
<text text-anchor="middle" x="638.5912" y="-513.8" font-family="Times,serif" font-size="14.00" fill="#000000">cation transport</text>
</g>
<!-- GO:0072511&#45;&gt;GO:0006812 -->
<g id="edge5" class="edge">
<title>GO:0072511&#45;&gt;GO:0006812</title>
<path fill="none" stroke="#000000" d="M562.1874,-469.7558C575.2166,-479.4154 589.6282,-490.0999 602.3915,-499.5623"/>
<polygon fill="#000000" stroke="#000000" points="600.3921,-502.4369 610.5097,-505.5809 604.561,-496.8137 600.3921,-502.4369"/>
</g>
<!-- GO:0030001&#45;&gt;GO:0006812 -->
<g id="edge6" class="edge">
<title>GO:0030001&#45;&gt;GO:0006812</title>
<path fill="none" stroke="#000000" d="M668.9083,-461.2182C663.995,-471.7818 657.9378,-484.8048 652.5326,-496.4261"/>
<polygon fill="#000000" stroke="#000000" points="649.2288,-495.2302 648.1849,-505.7735 655.5758,-498.1824 649.2288,-495.2302"/>
</g>
<!-- GO:0006811 -->
<g id="node7" class="node">
<title>GO:0006811</title>
<polygon fill="#ffffff" stroke="#000000" points="683.1951,-633.0019 593.9873,-633.0019 593.9873,-591.7981 683.1951,-591.7981 683.1951,-633.0019"/>
<text text-anchor="middle" x="638.5912" y="-616.6" font-family="Times,serif" font-size="14.00" fill="#000000">GO:0006811</text>
<text text-anchor="middle" x="638.5912" y="-599.8" font-family="Times,serif" font-size="14.00" fill="#000000">ion transport</text>
</g>
<!-- GO:0006812&#45;&gt;GO:0006811 -->
<g id="edge7" class="edge">
<title>GO:0006812&#45;&gt;GO:0006811</title>
<path fill="none" stroke="#000000" d="M638.5912,-547.2182C638.5912,-557.5705 638.5912,-570.2848 638.5912,-581.7271"/>
<polygon fill="#000000" stroke="#000000" points="635.0913,-581.7735 638.5912,-591.7735 642.0913,-581.7735 635.0913,-581.7735"/>
</g>
<!-- GO:0044765 -->
<g id="node8" class="node">
<title>GO:0044765</title>
<polygon fill="#ffffff" stroke="#000000" points="718.5555,-719.0019 558.6269,-719.0019 558.6269,-677.7981 718.5555,-677.7981 718.5555,-719.0019"/>
<text text-anchor="middle" x="638.5912" y="-702.6" font-family="Times,serif" font-size="14.00" fill="#000000">GO:0044765</text>
<text text-anchor="middle" x="638.5912" y="-685.8" font-family="Times,serif" font-size="14.00" fill="#000000">single&#45;organism transport</text>
</g>
<!-- GO:0006811&#45;&gt;GO:0044765 -->
<g id="edge8" class="edge">
<title>GO:0006811&#45;&gt;GO:0044765</title>
<path fill="none" stroke="#000000" d="M638.5912,-633.2182C638.5912,-643.5705 638.5912,-656.2848 638.5912,-667.7271"/>
<polygon fill="#000000" stroke="#000000" points="635.0913,-667.7735 638.5912,-677.7735 642.0913,-667.7735 635.0913,-667.7735"/>
</g>
<!-- GO:0006810 -->
<g id="node9" class="node">
<title>GO:0006810</title>
<polygon fill="#ffff00" stroke="#000000" points="797.1951,-796.6019 707.9873,-796.6019 707.9873,-755.3981 797.1951,-755.3981 797.1951,-796.6019"/>
<text text-anchor="middle" x="752.5912" y="-780.2" font-family="Times,serif" font-size="14.00" fill="#000000">GO:0006810</text>
<text text-anchor="middle" x="752.5912" y="-763.4" font-family="Times,serif" font-size="14.00" fill="#000000">transport</text>
</g>
<!-- GO:0044765&#45;&gt;GO:0006810 -->
<g id="edge9" class="edge">
<title>GO:0044765&#45;&gt;GO:0006810</title>
<path fill="none" stroke="#000000" d="M669.1411,-719.1954C682.8141,-728.5026 699.0961,-739.5858 713.6327,-749.4809"/>
<polygon fill="#000000" stroke="#000000" points="711.7209,-752.4134 721.957,-755.1472 715.6599,-746.6268 711.7209,-752.4134"/>
</g>
<!-- GO:1902578 -->
<g id="node10" class="node">
<title>GO:1902578</title>
<polygon fill="#ffffff" stroke="#000000" points="680.7934,-891.4014 574.389,-891.4014 574.389,-832.5986 680.7934,-832.5986 680.7934,-891.4014"/>
<text text-anchor="middle" x="627.5912" y="-874.6" font-family="Times,serif" font-size="14.00" fill="#000000">GO:1902578</text>
<text text-anchor="middle" x="627.5912" y="-857.8" font-family="Times,serif" font-size="14.00" fill="#000000">single&#45;organism</text>
<text text-anchor="middle" x="627.5912" y="-841" font-family="Times,serif" font-size="14.00" fill="#000000">localization</text>
</g>
<!-- GO:0044765&#45;&gt;GO:1902578 -->
<g id="edge10" class="edge">
<title>GO:0044765&#45;&gt;GO:1902578</title>
<path fill="none" stroke="#000000" d="M637.198,-719.1201C635.4557,-745.0334 632.4359,-789.9467 630.2462,-822.513"/>
<polygon fill="#000000" stroke="#000000" points="626.7459,-822.4006 629.5671,-832.6129 633.7302,-822.8702 626.7459,-822.4006"/>
</g>
<!-- GO:0051234 -->
<g id="node11" class="node">
<title>GO:0051234</title>
<polygon fill="#ffff00" stroke="#000000" points="806.7379,-891.4014 698.4445,-891.4014 698.4445,-832.5986 806.7379,-832.5986 806.7379,-891.4014"/>
<text text-anchor="middle" x="752.5912" y="-874.6" font-family="Times,serif" font-size="14.00" fill="#000000">GO:0051234</text>
<text text-anchor="middle" x="752.5912" y="-857.8" font-family="Times,serif" font-size="14.00" fill="#000000">establishment of</text>
<text text-anchor="middle" x="752.5912" y="-841" font-family="Times,serif" font-size="14.00" fill="#000000">localization</text>
</g>
<!-- GO:0006810&#45;&gt;GO:0051234 -->
<g id="edge11" class="edge">
<title>GO:0006810&#45;&gt;GO:0051234</title>
<path fill="none" stroke="#000000" d="M752.5912,-796.8182C752.5912,-804.5358 752.5912,-813.5662 752.5912,-822.4036"/>
<polygon fill="#000000" stroke="#000000" points="749.0913,-822.5991 752.5912,-832.5991 756.0913,-822.5992 749.0913,-822.5991"/>
</g>
<!-- GO:0051179 -->
<g id="node12" class="node">
<title>GO:0051179</title>
<polygon fill="#ffffff" stroke="#000000" points="766.1951,-968.6019 676.9873,-968.6019 676.9873,-927.3981 766.1951,-927.3981 766.1951,-968.6019"/>
<text text-anchor="middle" x="721.5912" y="-952.2" font-family="Times,serif" font-size="14.00" fill="#000000">GO:0051179</text>
<text text-anchor="middle" x="721.5912" y="-935.4" font-family="Times,serif" font-size="14.00" fill="#000000">localization</text>
</g>
<!-- GO:1902578&#45;&gt;GO:0051179 -->
<g id="edge12" class="edge">
<title>GO:1902578&#45;&gt;GO:0051179</title>
<path fill="none" stroke="#000000" d="M659.6778,-891.3558C669.9343,-900.7394 681.2479,-911.0902 691.3672,-920.3483"/>
<polygon fill="#000000" stroke="#000000" points="689.0948,-923.0131 698.8355,-927.1809 693.82,-917.8484 689.0948,-923.0131"/>
</g>
<!-- GO:0044699 -->
<g id="node13" class="node">
<title>GO:0044699</title>
<polygon fill="#ffa500" stroke="#000000" points="659.2725,-968.6019 507.9099,-968.6019 507.9099,-927.3981 659.2725,-927.3981 659.2725,-968.6019"/>
<text text-anchor="middle" x="583.5912" y="-952.2" font-family="Times,serif" font-size="14.00" fill="#000000">GO:0044699</text>
<text text-anchor="middle" x="583.5912" y="-935.4" font-family="Times,serif" font-size="14.00" fill="#000000">single&#45;organism process</text>
</g>
<!-- GO:1902578&#45;&gt;GO:0044699 -->
<g id="edge13" class="edge">
<title>GO:1902578&#45;&gt;GO:0044699</title>
<path fill="none" stroke="#000000" d="M612.4489,-891.5963C608.031,-900.2312 603.2033,-909.6673 598.7824,-918.3081"/>
<polygon fill="#000000" stroke="#000000" points="595.6226,-916.7999 594.1837,-927.2966 601.8543,-919.9882 595.6226,-916.7999"/>
</g>
<!-- GO:0051234&#45;&gt;GO:0051179 -->
<g id="edge14" class="edge">
<title>GO:0051234&#45;&gt;GO:0051179</title>
<path fill="none" stroke="#000000" d="M741.9228,-891.5963C738.8764,-900.0475 735.5534,-909.2662 732.4933,-917.7555"/>
<polygon fill="#000000" stroke="#000000" points="729.1526,-916.7022 729.0541,-927.2966 735.7378,-919.076 729.1526,-916.7022"/>
</g>
<!-- GO:0008150 -->
<g id="node14" class="node">
<title>GO:0008150</title>
<polygon fill="#ffffff" stroke="#000000" points="571.0618,-1046.2019 450.1206,-1046.2019 450.1206,-1004.9981 571.0618,-1004.9981 571.0618,-1046.2019"/>
<text text-anchor="middle" x="510.5912" y="-1029.8" font-family="Times,serif" font-size="14.00" fill="#000000">GO:0008150</text>
<text text-anchor="middle" x="510.5912" y="-1013" font-family="Times,serif" font-size="14.00" fill="#000000">biological_process</text>
</g>
<!-- GO:0051179&#45;&gt;GO:0008150 -->
<g id="edge15" class="edge">
<title>GO:0051179&#45;&gt;GO:0008150</title>
<path fill="none" stroke="#000000" d="M676.8068,-965.6806C674.0299,-966.7444 671.2744,-967.7914 668.5912,-968.8 639.3021,-979.8093 606.7956,-991.5726 578.9196,-1001.522"/>
<polygon fill="#000000" stroke="#000000" points="577.5109,-998.3083 569.2655,-1004.9613 579.8602,-1004.9023 577.5109,-998.3083"/>
</g>
<!-- GO:0044699&#45;&gt;GO:0008150 -->
<g id="edge16" class="edge">
<title>GO:0044699&#45;&gt;GO:0008150</title>
<path fill="none" stroke="#000000" d="M564.0285,-968.7954C555.764,-977.5807 546.0109,-987.9484 537.1143,-997.4056"/>
<polygon fill="#000000" stroke="#000000" points="534.5105,-995.0654 530.2079,-1004.7472 539.6091,-999.8617 534.5105,-995.0654"/>
</g>
<!-- GO:0065007 -->
<g id="node15" class="node">
<title>GO:0065007</title>
<polygon fill="#ffff00" stroke="#000000" points="362.8446,-968.6019 230.3378,-968.6019 230.3378,-927.3981 362.8446,-927.3981 362.8446,-968.6019"/>
<text text-anchor="middle" x="296.5912" y="-952.2" font-family="Times,serif" font-size="14.00" fill="#000000">GO:0065007</text>
<text text-anchor="middle" x="296.5912" y="-935.4" font-family="Times,serif" font-size="14.00" fill="#000000">biological regulation</text>
</g>
<!-- GO:0065007&#45;&gt;GO:0008150 -->
<g id="edge17" class="edge">
<title>GO:0065007&#45;&gt;GO:0008150</title>
<path fill="none" stroke="#000000" d="M353.6582,-968.6934C381.4686,-978.778 415.0804,-990.9662 444.0514,-1001.4715"/>
<polygon fill="#000000" stroke="#000000" points="443.0891,-1004.8456 453.6833,-1004.9642 445.4754,-998.2649 443.0891,-1004.8456"/>
</g>
<!-- GO:0065008 -->
<g id="node16" class="node">
<title>GO:0065008</title>
<polygon fill="#00ff00" stroke="#000000" points="360.5056,-891.4014 212.6768,-891.4014 212.6768,-832.5986 360.5056,-832.5986 360.5056,-891.4014"/>
<text text-anchor="middle" x="286.5912" y="-874.6" font-family="Times,serif" font-size="14.00" fill="#000000">GO:0065008</text>
<text text-anchor="middle" x="286.5912" y="-857.8" font-family="Times,serif" font-size="14.00" fill="#000000">regulation of biological</text>
<text text-anchor="middle" x="286.5912" y="-841" font-family="Times,serif" font-size="14.00" fill="#000000">quality</text>
</g>
<!-- GO:0065008&#45;&gt;GO:0065007 -->
<g id="edge18" class="edge">
<title>GO:0065008&#45;&gt;GO:0065007</title>
<path fill="none" stroke="#000000" d="M290.0326,-891.5963C290.994,-899.8638 292.0407,-908.8657 293.0099,-917.2008"/>
<polygon fill="#000000" stroke="#000000" points="289.5522,-917.7678 294.1838,-927.2966 296.5053,-916.9592 289.5522,-917.7678"/>
</g>
<!-- GO:0051561 -->
<g id="node17" class="node">
<title>GO:0051561</title>
<polygon fill="#00ff00" stroke="#000000" points="320.3404,-75.3003 156.842,-75.3003 156.842,.1003 320.3404,.1003 320.3404,-75.3003"/>
<text text-anchor="middle" x="238.5912" y="-58.6" font-family="Times,serif" font-size="14.00" fill="#000000">GO:0051561</text>
<text text-anchor="middle" x="238.5912" y="-41.8" font-family="Times,serif" font-size="14.00" fill="#000000">positive regulation of</text>
<text text-anchor="middle" x="238.5912" y="-25" font-family="Times,serif" font-size="14.00" fill="#000000">mitochondrial calcium ion</text>
<text text-anchor="middle" x="238.5912" y="-8.2" font-family="Times,serif" font-size="14.00" fill="#000000">concentration</text>
</g>
<!-- GO:0051560 -->
<g id="node18" class="node">
<title>GO:0051560</title>
<polygon fill="#ffffff" stroke="#000000" points="320.3404,-169.8014 156.842,-169.8014 156.842,-110.9986 320.3404,-110.9986 320.3404,-169.8014"/>
<text text-anchor="middle" x="238.5912" y="-153" font-family="Times,serif" font-size="14.00" fill="#000000">GO:0051560</text>
<text text-anchor="middle" x="238.5912" y="-136.2" font-family="Times,serif" font-size="14.00" fill="#000000">mitochondrial calcium ion</text>
<text text-anchor="middle" x="238.5912" y="-119.4" font-family="Times,serif" font-size="14.00" fill="#000000">homeostasis</text>
</g>
<!-- GO:0051561&#45;&gt;GO:0051560 -->
<g id="edge19" class="edge">
<title>GO:0051561&#45;&gt;GO:0051560</title>
<path fill="none" stroke="#000000" d="M238.5912,-75.2952C238.5912,-83.6874 238.5912,-92.6054 238.5912,-101.0618"/>
<polygon fill="#000000" stroke="#000000" points="235.0913,-101.0813 238.5912,-111.0814 242.0913,-101.0814 235.0913,-101.0813"/>
</g>
<!-- GO:0006874 -->
<g id="node19" class="node">
<title>GO:0006874</title>
<polygon fill="#ffffff" stroke="#000000" points="302.2737,-264.2014 174.9087,-264.2014 174.9087,-205.3986 302.2737,-205.3986 302.2737,-264.2014"/>
<text text-anchor="middle" x="238.5912" y="-247.4" font-family="Times,serif" font-size="14.00" fill="#000000">GO:0006874</text>
<text text-anchor="middle" x="238.5912" y="-230.6" font-family="Times,serif" font-size="14.00" fill="#000000">cellular calcium ion</text>
<text text-anchor="middle" x="238.5912" y="-213.8" font-family="Times,serif" font-size="14.00" fill="#000000">homeostasis</text>
</g>
<!-- GO:0051560&#45;&gt;GO:0006874 -->
<g id="edge20" class="edge">
<title>GO:0051560&#45;&gt;GO:0006874</title>
<path fill="none" stroke="#000000" d="M238.5912,-169.7513C238.5912,-177.8318 238.5912,-186.7308 238.5912,-195.2838"/>
<polygon fill="#000000" stroke="#000000" points="235.0913,-195.4668 238.5912,-205.4669 242.0913,-195.4669 235.0913,-195.4668"/>
</g>
<!-- GO:0006875 -->
<g id="node20" class="node">
<title>GO:0006875</title>
<polygon fill="#ffffff" stroke="#000000" points="423.559,-367.0014 309.6234,-367.0014 309.6234,-308.1986 423.559,-308.1986 423.559,-367.0014"/>
<text text-anchor="middle" x="366.5912" y="-350.2" font-family="Times,serif" font-size="14.00" fill="#000000">GO:0006875</text>
<text text-anchor="middle" x="366.5912" y="-333.4" font-family="Times,serif" font-size="14.00" fill="#000000">cellular metal ion</text>
<text text-anchor="middle" x="366.5912" y="-316.6" font-family="Times,serif" font-size="14.00" fill="#000000">homeostasis</text>
</g>
<!-- GO:0006874&#45;&gt;GO:0006875 -->
<g id="edge21" class="edge">
<title>GO:0006874&#45;&gt;GO:0006875</title>
<path fill="none" stroke="#000000" d="M275.2709,-264.2584C289.8657,-275.9798 306.7941,-289.5754 322.0821,-301.8536"/>
<polygon fill="#000000" stroke="#000000" points="319.9177,-304.6044 329.9062,-308.1373 324.301,-299.1466 319.9177,-304.6044"/>
</g>
<!-- GO:0055074 -->
<g id="node21" class="node">
<title>GO:0055074</title>
<polygon fill="#ffffff" stroke="#000000" points="167.2326,-358.2019 13.9498,-358.2019 13.9498,-316.9981 167.2326,-316.9981 167.2326,-358.2019"/>
<text text-anchor="middle" x="90.5912" y="-341.8" font-family="Times,serif" font-size="14.00" fill="#000000">GO:0055074</text>
<text text-anchor="middle" x="90.5912" y="-325" font-family="Times,serif" font-size="14.00" fill="#000000">calcium ion homeostasis</text>
</g>
<!-- GO:0006874&#45;&gt;GO:0055074 -->
<g id="edge22" class="edge">
<title>GO:0006874&#45;&gt;GO:0055074</title>
<path fill="none" stroke="#000000" d="M196.1803,-264.2584C174.8594,-279.0678 149.2313,-296.8689 128.5632,-311.2249"/>
<polygon fill="#000000" stroke="#000000" points="126.5435,-308.3662 120.3271,-316.9456 130.5369,-314.1154 126.5435,-308.3662"/>
</g>
<!-- GO:0072503 -->
<g id="node22" class="node">
<title>GO:0072503</title>
<polygon fill="#ffffff" stroke="#000000" points="291.6734,-375.3003 185.509,-375.3003 185.509,-299.8997 291.6734,-299.8997 291.6734,-375.3003"/>
<text text-anchor="middle" x="238.5912" y="-358.6" font-family="Times,serif" font-size="14.00" fill="#000000">GO:0072503</text>
<text text-anchor="middle" x="238.5912" y="-341.8" font-family="Times,serif" font-size="14.00" fill="#000000">cellular divalent</text>
<text text-anchor="middle" x="238.5912" y="-325" font-family="Times,serif" font-size="14.00" fill="#000000">inorganic cation</text>
<text text-anchor="middle" x="238.5912" y="-308.2" font-family="Times,serif" font-size="14.00" fill="#000000">homeostasis</text>
</g>
<!-- GO:0006874&#45;&gt;GO:0072503 -->
<g id="edge23" class="edge">
<title>GO:0006874&#45;&gt;GO:0072503</title>
<path fill="none" stroke="#000000" d="M238.5912,-264.2584C238.5912,-272.1901 238.5912,-280.98 238.5912,-289.6392"/>
<polygon fill="#000000" stroke="#000000" points="235.0913,-289.6849 238.5912,-299.685 242.0913,-289.685 235.0913,-289.6849"/>
</g>
<!-- GO:0030003 -->
<g id="node23" class="node">
<title>GO:0030003</title>
<polygon fill="#ffffff" stroke="#000000" points="427.2783,-469.8014 331.9041,-469.8014 331.9041,-410.9986 427.2783,-410.9986 427.2783,-469.8014"/>
<text text-anchor="middle" x="379.5912" y="-453" font-family="Times,serif" font-size="14.00" fill="#000000">GO:0030003</text>
<text text-anchor="middle" x="379.5912" y="-436.2" font-family="Times,serif" font-size="14.00" fill="#000000">cellular cation</text>
<text text-anchor="middle" x="379.5912" y="-419.4" font-family="Times,serif" font-size="14.00" fill="#000000">homeostasis</text>
</g>
<!-- GO:0006875&#45;&gt;GO:0030003 -->
<g id="edge24" class="edge">
<title>GO:0006875&#45;&gt;GO:0030003</title>
<path fill="none" stroke="#000000" d="M370.3165,-367.0584C371.6492,-377.5969 373.1735,-389.6505 374.596,-400.8994"/>
<polygon fill="#000000" stroke="#000000" points="371.1383,-401.4555 375.8654,-410.9373 378.083,-400.5772 371.1383,-401.4555"/>
</g>
<!-- GO:0055065 -->
<g id="node24" class="node">
<title>GO:0055065</title>
<polygon fill="#ffffff" stroke="#000000" points="314.0182,-461.0019 173.1642,-461.0019 173.1642,-419.7981 314.0182,-419.7981 314.0182,-461.0019"/>
<text text-anchor="middle" x="243.5912" y="-444.6" font-family="Times,serif" font-size="14.00" fill="#000000">GO:0055065</text>
<text text-anchor="middle" x="243.5912" y="-427.8" font-family="Times,serif" font-size="14.00" fill="#000000">metal ion homeostasis</text>
</g>
<!-- GO:0006875&#45;&gt;GO:0055065 -->
<g id="edge25" class="edge">
<title>GO:0006875&#45;&gt;GO:0055065</title>
<path fill="none" stroke="#000000" d="M331.3443,-367.0584C314.0186,-381.5387 293.2707,-398.8792 276.3001,-413.0628"/>
<polygon fill="#000000" stroke="#000000" points="273.7326,-410.6472 268.3041,-419.7456 278.2217,-416.0183 273.7326,-410.6472"/>
</g>
<!-- GO:0055074&#45;&gt;GO:0055065 -->
<g id="edge27" class="edge">
<title>GO:0055074&#45;&gt;GO:0055065</title>
<path fill="none" stroke="#000000" d="M121.553,-358.4031C145.4019,-374.4271 178.5344,-396.6887 204.2594,-413.9731"/>
<polygon fill="#000000" stroke="#000000" points="202.423,-416.9559 212.6754,-419.6278 206.3269,-411.1456 202.423,-416.9559"/>
</g>
<!-- GO:0072507 -->
<g id="node25" class="node">
<title>GO:0072507</title>
<polygon fill="#ffffff" stroke="#000000" points="155.2737,-469.8014 -.0913,-469.8014 -.0913,-410.9986 155.2737,-410.9986 155.2737,-469.8014"/>
<text text-anchor="middle" x="77.5912" y="-453" font-family="Times,serif" font-size="14.00" fill="#000000">GO:0072507</text>
<text text-anchor="middle" x="77.5912" y="-436.2" font-family="Times,serif" font-size="14.00" fill="#000000">divalent inorganic cation</text>
<text text-anchor="middle" x="77.5912" y="-419.4" font-family="Times,serif" font-size="14.00" fill="#000000">homeostasis</text>
</g>
<!-- GO:0055074&#45;&gt;GO:0072507 -->
<g id="edge26" class="edge">
<title>GO:0055074&#45;&gt;GO:0072507</title>
<path fill="none" stroke="#000000" d="M87.9605,-358.4031C86.4202,-370.5833 84.4241,-386.3676 82.5951,-400.8305"/>
<polygon fill="#000000" stroke="#000000" points="79.0841,-400.6976 81.3018,-411.0577 86.0288,-401.5759 79.0841,-400.6976"/>
</g>
<!-- GO:0072503&#45;&gt;GO:0030003 -->
<g id="edge29" class="edge">
<title>GO:0072503&#45;&gt;GO:0030003</title>
<path fill="none" stroke="#000000" d="M290.2938,-375.2952C303.5753,-384.9785 317.8171,-395.3618 330.9384,-404.9283"/>
<polygon fill="#000000" stroke="#000000" points="329.2355,-408.0182 339.3779,-411.0814 333.3594,-402.3619 329.2355,-408.0182"/>
</g>
<!-- GO:0072503&#45;&gt;GO:0072507 -->
<g id="edge28" class="edge">
<title>GO:0072503&#45;&gt;GO:0072507</title>
<path fill="none" stroke="#000000" d="M185.4276,-371.5455C168.3462,-382.4521 149.4014,-394.5485 132.2169,-405.521"/>
<polygon fill="#000000" stroke="#000000" points="129.955,-402.8126 123.4101,-411.1442 133.7221,-408.7125 129.955,-402.8126"/>
</g>
<!-- GO:0055080 -->
<g id="node26" class="node">
<title>GO:0055080</title>
<polygon fill="#ffffff" stroke="#000000" points="304.7365,-547.0019 182.4459,-547.0019 182.4459,-505.7981 304.7365,-505.7981 304.7365,-547.0019"/>
<text text-anchor="middle" x="243.5912" y="-530.6" font-family="Times,serif" font-size="14.00" fill="#000000">GO:0055080</text>
<text text-anchor="middle" x="243.5912" y="-513.8" font-family="Times,serif" font-size="14.00" fill="#000000">cation homeostasis</text>
</g>
<!-- GO:0030003&#45;&gt;GO:0055080 -->
<g id="edge30" class="edge">
<title>GO:0030003&#45;&gt;GO:0055080</title>
<path fill="none" stroke="#000000" d="M333.1681,-469.7558C317.6014,-479.5994 300.3518,-490.5073 285.1793,-500.1017"/>
<polygon fill="#000000" stroke="#000000" points="283.0957,-497.2781 276.5144,-505.5809 286.8369,-503.1945 283.0957,-497.2781"/>
</g>
<!-- GO:0006873 -->
<g id="node27" class="node">
<title>GO:0006873</title>
<polygon fill="#ffffff" stroke="#000000" points="474.3931,-547.0019 322.7893,-547.0019 322.7893,-505.7981 474.3931,-505.7981 474.3931,-547.0019"/>
<text text-anchor="middle" x="398.5912" y="-530.6" font-family="Times,serif" font-size="14.00" fill="#000000">GO:0006873</text>
<text text-anchor="middle" x="398.5912" y="-513.8" font-family="Times,serif" font-size="14.00" fill="#000000">cellular ion homeostasis</text>
</g>
<!-- GO:0030003&#45;&gt;GO:0006873 -->
<g id="edge31" class="edge">
<title>GO:0030003&#45;&gt;GO:0006873</title>
<path fill="none" stroke="#000000" d="M386.1299,-469.9963C387.9767,-478.3556 389.9895,-487.4658 391.8481,-495.8784"/>
<polygon fill="#000000" stroke="#000000" points="388.4422,-496.6871 394.0172,-505.6966 395.2774,-495.1769 388.4422,-496.6871"/>
</g>
<!-- GO:0055065&#45;&gt;GO:0055080 -->
<g id="edge33" class="edge">
<title>GO:0055065&#45;&gt;GO:0055080</title>
<path fill="none" stroke="#000000" d="M243.5912,-461.2182C243.5912,-471.5705 243.5912,-484.2848 243.5912,-495.7271"/>
<polygon fill="#000000" stroke="#000000" points="240.0913,-495.7735 243.5912,-505.7735 247.0913,-495.7735 240.0913,-495.7735"/>
</g>
<!-- GO:0098771 -->
<g id="node28" class="node">
<title>GO:0098771</title>
<polygon fill="#ffffff" stroke="#000000" points="164.7877,-547.0019 2.3947,-547.0019 2.3947,-505.7981 164.7877,-505.7981 164.7877,-547.0019"/>
<text text-anchor="middle" x="83.5912" y="-530.6" font-family="Times,serif" font-size="14.00" fill="#000000">GO:0098771</text>
<text text-anchor="middle" x="83.5912" y="-513.8" font-family="Times,serif" font-size="14.00" fill="#000000">inorganic ion homeostasis</text>
</g>
<!-- GO:0055065&#45;&gt;GO:0098771 -->
<g id="edge32" class="edge">
<title>GO:0055065&#45;&gt;GO:0098771</title>
<path fill="none" stroke="#000000" d="M204.8597,-461.2182C182.6516,-473.155 154.6008,-488.2323 131.0724,-500.8788"/>
<polygon fill="#000000" stroke="#000000" points="129.1172,-497.9561 121.9661,-505.7735 132.4314,-504.1219 129.1172,-497.9561"/>
</g>
<!-- GO:0072507&#45;&gt;GO:0055080 -->
<g id="edge35" class="edge">
<title>GO:0072507&#45;&gt;GO:0055080</title>
<path fill="none" stroke="#000000" d="M134.2547,-469.7558C153.8686,-479.9172 175.6715,-491.2127 194.6149,-501.0267"/>
<polygon fill="#000000" stroke="#000000" points="193.1734,-504.2217 203.6626,-505.7141 196.3934,-498.0063 193.1734,-504.2217"/>
</g>
<!-- GO:0072507&#45;&gt;GO:0098771 -->
<g id="edge34" class="edge">
<title>GO:0072507&#45;&gt;GO:0098771</title>
<path fill="none" stroke="#000000" d="M79.6561,-469.9963C80.2329,-478.2638 80.8609,-487.2657 81.4424,-495.6008"/>
<polygon fill="#000000" stroke="#000000" points="77.9592,-495.9644 82.1468,-505.6966 84.9422,-495.4772 77.9592,-495.9644"/>
</g>
<!-- GO:0050801 -->
<g id="node29" class="node">
<title>GO:0050801</title>
<polygon fill="#ffffff" stroke="#000000" points="297.4167,-633.0019 191.7657,-633.0019 191.7657,-591.7981 297.4167,-591.7981 297.4167,-633.0019"/>
<text text-anchor="middle" x="244.5912" y="-616.6" font-family="Times,serif" font-size="14.00" fill="#000000">GO:0050801</text>
<text text-anchor="middle" x="244.5912" y="-599.8" font-family="Times,serif" font-size="14.00" fill="#000000">ion homeostasis</text>
</g>
<!-- GO:0055080&#45;&gt;GO:0050801 -->
<g id="edge36" class="edge">
<title>GO:0055080&#45;&gt;GO:0050801</title>
<path fill="none" stroke="#000000" d="M243.8333,-547.2182C243.9536,-557.5705 244.1015,-570.2848 244.2345,-581.7271"/>
<polygon fill="#000000" stroke="#000000" points="240.7352,-581.8149 244.3514,-591.7735 247.7348,-581.7335 240.7352,-581.8149"/>
</g>
<!-- GO:0006873&#45;&gt;GO:0050801 -->
<g id="edge38" class="edge">
<title>GO:0006873&#45;&gt;GO:0050801</title>
<path fill="none" stroke="#000000" d="M361.3121,-547.2182C339.9369,-559.155 312.938,-574.2323 290.2919,-586.8788"/>
<polygon fill="#000000" stroke="#000000" points="288.5514,-583.842 281.527,-591.7735 291.9644,-589.9536 288.5514,-583.842"/>
</g>
<!-- GO:0055082 -->
<g id="node30" class="node">
<title>GO:0055082</title>
<polygon fill="#ffffff" stroke="#000000" points="454.5976,-641.8014 342.5848,-641.8014 342.5848,-582.9986 454.5976,-582.9986 454.5976,-641.8014"/>
<text text-anchor="middle" x="398.5912" y="-625" font-family="Times,serif" font-size="14.00" fill="#000000">GO:0055082</text>
<text text-anchor="middle" x="398.5912" y="-608.2" font-family="Times,serif" font-size="14.00" fill="#000000">cellular chemical</text>
<text text-anchor="middle" x="398.5912" y="-591.4" font-family="Times,serif" font-size="14.00" fill="#000000">homeostasis</text>
</g>
<!-- GO:0006873&#45;&gt;GO:0055082 -->
<g id="edge37" class="edge">
<title>GO:0006873&#45;&gt;GO:0055082</title>
<path fill="none" stroke="#000000" d="M398.5912,-547.2182C398.5912,-554.9358 398.5912,-563.9662 398.5912,-572.8036"/>
<polygon fill="#000000" stroke="#000000" points="395.0913,-572.9991 398.5912,-582.9991 402.0913,-572.9992 395.0913,-572.9991"/>
</g>
<!-- GO:0098771&#45;&gt;GO:0050801 -->
<g id="edge39" class="edge">
<title>GO:0098771&#45;&gt;GO:0050801</title>
<path fill="none" stroke="#000000" d="M122.5648,-547.2182C145.0105,-559.2078 173.3877,-574.3658 197.1272,-587.0466"/>
<polygon fill="#000000" stroke="#000000" points="195.5069,-590.1491 205.9765,-591.7735 198.8051,-583.9747 195.5069,-590.1491"/>
</g>
<!-- GO:0048878 -->
<g id="node31" class="node">
<title>GO:0048878</title>
<polygon fill="#ffffff" stroke="#000000" points="327.057,-719.0019 188.1254,-719.0019 188.1254,-677.7981 327.057,-677.7981 327.057,-719.0019"/>
<text text-anchor="middle" x="257.5912" y="-702.6" font-family="Times,serif" font-size="14.00" fill="#000000">GO:0048878</text>
<text text-anchor="middle" x="257.5912" y="-685.8" font-family="Times,serif" font-size="14.00" fill="#000000">chemical homeostasis</text>
</g>
<!-- GO:0050801&#45;&gt;GO:0048878 -->
<g id="edge40" class="edge">
<title>GO:0050801&#45;&gt;GO:0048878</title>
<path fill="none" stroke="#000000" d="M247.7381,-633.2182C249.303,-643.5705 251.225,-656.2848 252.9546,-667.7271"/>
<polygon fill="#000000" stroke="#000000" points="249.5178,-668.409 254.4732,-677.7735 256.4392,-667.3627 249.5178,-668.409"/>
</g>
<!-- GO:0055082&#45;&gt;GO:0048878 -->
<g id="edge42" class="edge">
<title>GO:0055082&#45;&gt;GO:0048878</title>
<path fill="none" stroke="#000000" d="M350.4614,-641.7558C334.1716,-651.6914 316.1042,-662.7112 300.2678,-672.3703"/>
<polygon fill="#000000" stroke="#000000" points="298.4396,-669.3857 291.7248,-677.5809 302.0846,-675.3618 298.4396,-669.3857"/>
</g>
<!-- GO:0019725 -->
<g id="node32" class="node">
<title>GO:0019725</title>
<polygon fill="#ffffff" stroke="#000000" points="474.5022,-719.0019 344.6802,-719.0019 344.6802,-677.7981 474.5022,-677.7981 474.5022,-719.0019"/>
<text text-anchor="middle" x="409.5912" y="-702.6" font-family="Times,serif" font-size="14.00" fill="#000000">GO:0019725</text>
<text text-anchor="middle" x="409.5912" y="-685.8" font-family="Times,serif" font-size="14.00" fill="#000000">cellular homeostasis</text>
</g>
<!-- GO:0055082&#45;&gt;GO:0019725 -->
<g id="edge41" class="edge">
<title>GO:0055082&#45;&gt;GO:0019725</title>
<path fill="none" stroke="#000000" d="M402.3768,-641.9963C403.4342,-650.2638 404.5857,-659.2657 405.6518,-667.6008"/>
<polygon fill="#000000" stroke="#000000" points="402.2025,-668.2214 406.9431,-677.6966 409.146,-667.3333 402.2025,-668.2214"/>
</g>
<!-- GO:0042592 -->
<g id="node33" class="node">
<title>GO:0042592</title>
<polygon fill="#ffffff" stroke="#000000" points="351.2211,-796.6019 221.9613,-796.6019 221.9613,-755.3981 351.2211,-755.3981 351.2211,-796.6019"/>
<text text-anchor="middle" x="286.5912" y="-780.2" font-family="Times,serif" font-size="14.00" fill="#000000">GO:0042592</text>
<text text-anchor="middle" x="286.5912" y="-763.4" font-family="Times,serif" font-size="14.00" fill="#000000">homeostatic process</text>
</g>
<!-- GO:0048878&#45;&gt;GO:0042592 -->
<g id="edge43" class="edge">
<title>GO:0048878&#45;&gt;GO:0042592</title>
<path fill="none" stroke="#000000" d="M265.3627,-719.1954C268.3858,-727.2848 271.9103,-736.7159 275.2089,-745.5424"/>
<polygon fill="#000000" stroke="#000000" points="272.019,-747.0052 278.7983,-755.1472 278.5761,-744.5547 272.019,-747.0052"/>
</g>
<!-- GO:0019725&#45;&gt;GO:0042592 -->
<g id="edge44" class="edge">
<title>GO:0019725&#45;&gt;GO:0042592</title>
<path fill="none" stroke="#000000" d="M376.6295,-719.1954C361.7392,-728.5896 343.981,-739.7931 328.1862,-749.758"/>
<polygon fill="#000000" stroke="#000000" points="326.2339,-746.8513 319.6439,-755.1472 329.969,-752.7715 326.2339,-746.8513"/>
</g>
<!-- GO:0044763 -->
<g id="node34" class="node">
<title>GO:0044763</title>
<polygon fill="#ffa500" stroke="#000000" points="530.2697,-891.4014 378.9127,-891.4014 378.9127,-832.5986 530.2697,-832.5986 530.2697,-891.4014"/>
<text text-anchor="middle" x="454.5912" y="-874.6" font-family="Times,serif" font-size="14.00" fill="#000000">GO:0044763</text>
<text text-anchor="middle" x="454.5912" y="-857.8" font-family="Times,serif" font-size="14.00" fill="#000000">single&#45;organism cellular</text>
<text text-anchor="middle" x="454.5912" y="-841" font-family="Times,serif" font-size="14.00" fill="#000000">process</text>
</g>
<!-- GO:0019725&#45;&gt;GO:0044763 -->
<g id="edge45" class="edge">
<title>GO:0019725&#45;&gt;GO:0044763</title>
<path fill="none" stroke="#000000" d="M415.2905,-719.1201C422.4491,-745.1455 434.8792,-790.336 443.846,-822.9352"/>
<polygon fill="#000000" stroke="#000000" points="440.4811,-823.8992 446.5079,-832.6129 447.2304,-822.0427 440.4811,-823.8992"/>
</g>
<!-- GO:0042592&#45;&gt;GO:0065008 -->
<g id="edge46" class="edge">
<title>GO:0042592&#45;&gt;GO:0065008</title>
<path fill="none" stroke="#000000" d="M286.5912,-796.8182C286.5912,-804.5358 286.5912,-813.5662 286.5912,-822.4036"/>
<polygon fill="#000000" stroke="#000000" points="283.0913,-822.5991 286.5912,-832.5991 290.0913,-822.5992 283.0913,-822.5991"/>
</g>
<!-- GO:0044763&#45;&gt;GO:0044699 -->
<g id="edge48" class="edge">
<title>GO:0044763&#45;&gt;GO:0044699</title>
<path fill="none" stroke="#000000" d="M498.6249,-891.3558C513.2523,-901.1074 529.4464,-911.9035 543.7397,-921.4323"/>
<polygon fill="#000000" stroke="#000000" points="542.1006,-924.5461 552.3626,-927.1809 545.9836,-918.7217 542.1006,-924.5461"/>
</g>
<!-- GO:0009987 -->
<g id="node35" class="node">
<title>GO:0009987</title>
<polygon fill="#ff0000" stroke="#000000" points="489.5474,-968.6019 385.635,-968.6019 385.635,-927.3981 489.5474,-927.3981 489.5474,-968.6019"/>
<text text-anchor="middle" x="437.5912" y="-952.2" font-family="Times,serif" font-size="14.00" fill="#000000">GO:0009987</text>
<text text-anchor="middle" x="437.5912" y="-935.4" font-family="Times,serif" font-size="14.00" fill="#000000">cellular process</text>
</g>
<!-- GO:0044763&#45;&gt;GO:0009987 -->
<g id="edge47" class="edge">
<title>GO:0044763&#45;&gt;GO:0009987</title>
<path fill="none" stroke="#000000" d="M448.7408,-891.5963C447.0883,-899.9556 445.2875,-909.0658 443.6245,-917.4784"/>
<polygon fill="#000000" stroke="#000000" points="440.1895,-916.8076 441.6837,-927.2966 447.0566,-918.1651 440.1895,-916.8076"/>
</g>
<!-- GO:0009987&#45;&gt;GO:0008150 -->
<g id="edge49" class="edge">
<title>GO:0009987&#45;&gt;GO:0008150</title>
<path fill="none" stroke="#000000" d="M457.1539,-968.7954C465.4184,-977.5807 475.1715,-987.9484 484.0681,-997.4056"/>
<polygon fill="#000000" stroke="#000000" points="481.5733,-999.8617 490.9745,-1004.7472 486.6719,-995.0654 481.5733,-999.8617"/>
</g>
<!-- GO:0006851 -->
<g id="node36" class="node">
<title>GO:0006851</title>
<polygon fill="#00ff00" stroke="#000000" points="849.3404,-169.8014 685.842,-169.8014 685.842,-110.9986 849.3404,-110.9986 849.3404,-169.8014"/>
<text text-anchor="middle" x="767.5912" y="-153" font-family="Times,serif" font-size="14.00" fill="#000000">GO:0006851</text>
<text text-anchor="middle" x="767.5912" y="-136.2" font-family="Times,serif" font-size="14.00" fill="#000000">mitochondrial calcium ion</text>
<text text-anchor="middle" x="767.5912" y="-119.4" font-family="Times,serif" font-size="14.00" fill="#000000">transport</text>
</g>
<!-- GO:0006851&#45;&gt;GO:0006816 -->
<g id="edge51" class="edge">
<title>GO:0006851&#45;&gt;GO:0006816</title>
<path fill="none" stroke="#000000" d="M717.8433,-169.7513C696.5872,-182.2923 671.9897,-196.8049 651.4285,-208.936"/>
<polygon fill="#000000" stroke="#000000" points="649.4237,-206.055 642.5895,-214.151 652.9808,-212.0839 649.4237,-206.055"/>
</g>
<!-- GO:0006839 -->
<g id="node37" class="node">
<title>GO:0006839</title>
<polygon fill="#ffffff" stroke="#000000" points="841.3957,-255.4019 693.7867,-255.4019 693.7867,-214.1981 841.3957,-214.1981 841.3957,-255.4019"/>
<text text-anchor="middle" x="767.5912" y="-239" font-family="Times,serif" font-size="14.00" fill="#000000">GO:0006839</text>
<text text-anchor="middle" x="767.5912" y="-222.2" font-family="Times,serif" font-size="14.00" fill="#000000">mitochondrial transport</text>
</g>
<!-- GO:0006851&#45;&gt;GO:0006839 -->
<g id="edge50" class="edge">
<title>GO:0006851&#45;&gt;GO:0006839</title>
<path fill="none" stroke="#000000" d="M767.5912,-169.7513C767.5912,-180.6614 767.5912,-193.0637 767.5912,-204.092"/>
<polygon fill="#000000" stroke="#000000" points="764.0913,-204.1509 767.5912,-214.151 771.0913,-204.151 764.0913,-204.1509"/>
</g>
<!-- GO:0006839&#45;&gt;GO:0006810 -->
<g id="edge52" class="edge">
<title>GO:0006839&#45;&gt;GO:0006810</title>
<path fill="none" stroke="#000000" d="M767.5912,-255.5199C767.5912,-292.6005 767.5912,-372.759 767.5912,-440.4 767.5912,-440.4 767.5912,-440.4 767.5912,-612.4 767.5912,-658.7815 761.5386,-712.2518 757.1229,-745.0896"/>
<polygon fill="#000000" stroke="#000000" points="753.6007,-745.01 755.6992,-755.3949 760.5348,-745.968 753.6007,-745.01"/>
</g>
</g>
</svg>
