<?xml version="1.0" encoding="UTF-8" standalone="no"?>
<!DOCTYPE svg PUBLIC "-//W3C//DTD SVG 1.1//EN"
 "http://www.w3.org/Graphics/SVG/1.1/DTD/svg11.dtd">
<!-- Generated by graphviz version 2.40.1 (20161225.0304)
 -->
<!-- Title: G Pages: 1 -->
<svg width="1296pt" height="710pt"
 viewBox="0.00 0.00 1295.56 710.40" xmlns="http://www.w3.org/2000/svg" xmlns:xlink="http://www.w3.org/1999/xlink">
<g id="graph0" class="graph" transform="scale(1 1) rotate(0) translate(4 706.4)">
<title>G</title>
<polygon fill="#ffffff" stroke="transparent" points="-4,4 -4,-706.4 1291.5593,-706.4 1291.5593,4 -4,4"/>
<!-- GO:0016794 -->
<g id="node1" class="node">
<title>GO:0016794</title>
<polygon fill="#ffffff" stroke="#000000" points="150.8749,-247.4014 .0417,-247.4014 .0417,-188.5986 150.8749,-188.5986 150.8749,-247.4014"/>
<text text-anchor="middle" x="75.4583" y="-230.6" font-family="Times,serif" font-size="14.00" fill="#000000">GO:0016794</text>
<text text-anchor="middle" x="75.4583" y="-213.8" font-family="Times,serif" font-size="14.00" fill="#000000">diphosphoric monoester</text>
<text text-anchor="middle" x="75.4583" y="-197" font-family="Times,serif" font-size="14.00" fill="#000000">hydrolase activity</text>
</g>
<!-- GO:0042578 -->
<g id="node2" class="node">
<title>GO:0042578</title>
<polygon fill="#ffffff" stroke="#000000" points="133.3749,-341.8014 17.5417,-341.8014 17.5417,-282.9986 133.3749,-282.9986 133.3749,-341.8014"/>
<text text-anchor="middle" x="75.4583" y="-325" font-family="Times,serif" font-size="14.00" fill="#000000">GO:0042578</text>
<text text-anchor="middle" x="75.4583" y="-308.2" font-family="Times,serif" font-size="14.00" fill="#000000">phosphoric ester</text>
<text text-anchor="middle" x="75.4583" y="-291.4" font-family="Times,serif" font-size="14.00" fill="#000000">hydrolase activity</text>
</g>
<!-- GO:0016794&#45;&gt;GO:0042578 -->
<g id="edge1" class="edge">
<title>GO:0016794&#45;&gt;GO:0042578</title>
<path fill="none" stroke="#000000" d="M75.4583,-247.3513C75.4583,-255.4318 75.4583,-264.3308 75.4583,-272.8838"/>
<polygon fill="#000000" stroke="#000000" points="71.9584,-273.0668 75.4583,-283.0669 78.9584,-273.0669 71.9584,-273.0668"/>
</g>
<!-- GO:0016788 -->
<g id="node3" class="node">
<title>GO:0016788</title>
<polygon fill="#ffffff" stroke="#000000" points="142.539,-444.6014 8.3776,-444.6014 8.3776,-385.7986 142.539,-385.7986 142.539,-444.6014"/>
<text text-anchor="middle" x="75.4583" y="-427.8" font-family="Times,serif" font-size="14.00" fill="#000000">GO:0016788</text>
<text text-anchor="middle" x="75.4583" y="-411" font-family="Times,serif" font-size="14.00" fill="#000000">hydrolase activity,</text>
<text text-anchor="middle" x="75.4583" y="-394.2" font-family="Times,serif" font-size="14.00" fill="#000000">acting on ester bonds</text>
</g>
<!-- GO:0042578&#45;&gt;GO:0016788 -->
<g id="edge2" class="edge">
<title>GO:0042578&#45;&gt;GO:0016788</title>
<path fill="none" stroke="#000000" d="M75.4583,-341.8584C75.4583,-352.3969 75.4583,-364.4505 75.4583,-375.6994"/>
<polygon fill="#000000" stroke="#000000" points="71.9584,-375.7373 75.4583,-385.7373 78.9584,-375.7374 71.9584,-375.7373"/>
</g>
<!-- GO:0016787 -->
<g id="node4" class="node">
<title>GO:0016787</title>
<polygon fill="#ff00ff" stroke="#000000" points="146.3749,-538.6019 30.5417,-538.6019 30.5417,-497.3981 146.3749,-497.3981 146.3749,-538.6019"/>
<text text-anchor="middle" x="88.4583" y="-522.2" font-family="Times,serif" font-size="14.00" fill="#000000">GO:0016787</text>
<text text-anchor="middle" x="88.4583" y="-505.4" font-family="Times,serif" font-size="14.00" fill="#000000">hydrolase activity</text>
</g>
<!-- GO:0016788&#45;&gt;GO:0016787 -->
<g id="edge3" class="edge">
<title>GO:0016788&#45;&gt;GO:0016787</title>
<path fill="none" stroke="#000000" d="M79.1836,-444.6584C80.8649,-457.9539 82.8512,-473.6608 84.5534,-487.1212"/>
<polygon fill="#000000" stroke="#000000" points="81.1193,-487.8638 85.8464,-497.3456 88.064,-486.9855 81.1193,-487.8638"/>
</g>
<!-- GO:0003824 -->
<g id="node5" class="node">
<title>GO:0003824</title>
<polygon fill="#ff00ff" stroke="#000000" points="291.8707,-624.6019 183.0459,-624.6019 183.0459,-583.3981 291.8707,-583.3981 291.8707,-624.6019"/>
<text text-anchor="middle" x="237.4583" y="-608.2" font-family="Times,serif" font-size="14.00" fill="#000000">GO:0003824</text>
<text text-anchor="middle" x="237.4583" y="-591.4" font-family="Times,serif" font-size="14.00" fill="#000000">catalytic activity</text>
</g>
<!-- GO:0016787&#45;&gt;GO:0003824 -->
<g id="edge4" class="edge">
<title>GO:0016787&#45;&gt;GO:0003824</title>
<path fill="none" stroke="#000000" d="M124.527,-538.8182C145.1168,-550.7022 171.0995,-565.699 192.9503,-578.3108"/>
<polygon fill="#000000" stroke="#000000" points="191.3112,-581.4059 201.7217,-583.3735 194.8104,-575.3432 191.3112,-581.4059"/>
</g>
<!-- GO:0003674 -->
<g id="node6" class="node">
<title>GO:0003674</title>
<polygon fill="#ffffff" stroke="#000000" points="450.0914,-702.2019 324.8252,-702.2019 324.8252,-660.9981 450.0914,-660.9981 450.0914,-702.2019"/>
<text text-anchor="middle" x="387.4583" y="-685.8" font-family="Times,serif" font-size="14.00" fill="#000000">GO:0003674</text>
<text text-anchor="middle" x="387.4583" y="-669" font-family="Times,serif" font-size="14.00" fill="#000000">molecular_function</text>
</g>
<!-- GO:0003824&#45;&gt;GO:0003674 -->
<g id="edge5" class="edge">
<title>GO:0003824&#45;&gt;GO:0003674</title>
<path fill="none" stroke="#000000" d="M277.6555,-624.7954C296.3097,-634.4458 318.6547,-646.0056 338.3033,-656.1705"/>
<polygon fill="#000000" stroke="#000000" points="336.9203,-659.3956 347.4104,-660.8819 340.1368,-653.1783 336.9203,-659.3956"/>
</g>
<!-- GO:0035639 -->
<g id="node7" class="node">
<title>GO:0035639</title>
<polygon fill="#ff00ff" stroke="#000000" points="617.1453,-341.8014 479.7713,-341.8014 479.7713,-282.9986 617.1453,-282.9986 617.1453,-341.8014"/>
<text text-anchor="middle" x="548.4583" y="-325" font-family="Times,serif" font-size="14.00" fill="#000000">GO:0035639</text>
<text text-anchor="middle" x="548.4583" y="-308.2" font-family="Times,serif" font-size="14.00" fill="#000000">purine ribonucleoside</text>
<text text-anchor="middle" x="548.4583" y="-291.4" font-family="Times,serif" font-size="14.00" fill="#000000">triphosphate binding</text>
</g>
<!-- GO:1901265 -->
<g id="node8" class="node">
<title>GO:1901265</title>
<polygon fill="#ffffff" stroke="#000000" points="629.5924,-444.6014 493.3242,-444.6014 493.3242,-385.7986 629.5924,-385.7986 629.5924,-444.6014"/>
<text text-anchor="middle" x="561.4583" y="-427.8" font-family="Times,serif" font-size="14.00" fill="#000000">GO:1901265</text>
<text text-anchor="middle" x="561.4583" y="-411" font-family="Times,serif" font-size="14.00" fill="#000000">nucleoside phosphate</text>
<text text-anchor="middle" x="561.4583" y="-394.2" font-family="Times,serif" font-size="14.00" fill="#000000">binding</text>
</g>
<!-- GO:0035639&#45;&gt;GO:1901265 -->
<g id="edge6" class="edge">
<title>GO:0035639&#45;&gt;GO:1901265</title>
<path fill="none" stroke="#000000" d="M552.1836,-341.8584C553.5163,-352.3969 555.0406,-364.4505 556.4631,-375.6994"/>
<polygon fill="#000000" stroke="#000000" points="553.0054,-376.2555 557.7325,-385.7373 559.9501,-375.3772 553.0054,-376.2555"/>
</g>
<!-- GO:0097159 -->
<g id="node9" class="node">
<title>GO:0097159</title>
<polygon fill="#ff00ff" stroke="#000000" points="620.9697,-547.4014 463.9469,-547.4014 463.9469,-488.5986 620.9697,-488.5986 620.9697,-547.4014"/>
<text text-anchor="middle" x="542.4583" y="-530.6" font-family="Times,serif" font-size="14.00" fill="#000000">GO:0097159</text>
<text text-anchor="middle" x="542.4583" y="-513.8" font-family="Times,serif" font-size="14.00" fill="#000000">organic cyclic compound</text>
<text text-anchor="middle" x="542.4583" y="-497" font-family="Times,serif" font-size="14.00" fill="#000000">binding</text>
</g>
<!-- GO:1901265&#45;&gt;GO:0097159 -->
<g id="edge7" class="edge">
<title>GO:1901265&#45;&gt;GO:0097159</title>
<path fill="none" stroke="#000000" d="M556.0137,-444.6584C554.0659,-455.1969 551.8381,-467.2505 549.759,-478.4994"/>
<polygon fill="#000000" stroke="#000000" points="546.2796,-478.0677 547.9037,-488.5373 553.163,-479.34 546.2796,-478.0677"/>
</g>
<!-- GO:1901363 -->
<g id="node10" class="node">
<title>GO:1901363</title>
<polygon fill="#ff00ff" stroke="#000000" points="785.9689,-547.4014 638.9477,-547.4014 638.9477,-488.5986 785.9689,-488.5986 785.9689,-547.4014"/>
<text text-anchor="middle" x="712.4583" y="-530.6" font-family="Times,serif" font-size="14.00" fill="#000000">GO:1901363</text>
<text text-anchor="middle" x="712.4583" y="-513.8" font-family="Times,serif" font-size="14.00" fill="#000000">heterocyclic compound</text>
<text text-anchor="middle" x="712.4583" y="-497" font-family="Times,serif" font-size="14.00" fill="#000000">binding</text>
</g>
<!-- GO:1901265&#45;&gt;GO:1901363 -->
<g id="edge8" class="edge">
<title>GO:1901265&#45;&gt;GO:1901363</title>
<path fill="none" stroke="#000000" d="M604.7288,-444.6584C622.179,-456.5384 642.4571,-470.3435 660.6821,-482.7511"/>
<polygon fill="#000000" stroke="#000000" points="659.2068,-485.9807 669.4427,-488.7152 663.1461,-480.1944 659.2068,-485.9807"/>
</g>
<!-- GO:0005488 -->
<g id="node11" class="node">
<title>GO:0005488</title>
<polygon fill="#ffffff" stroke="#000000" points="672.0622,-624.6019 582.8544,-624.6019 582.8544,-583.3981 672.0622,-583.3981 672.0622,-624.6019"/>
<text text-anchor="middle" x="627.4583" y="-608.2" font-family="Times,serif" font-size="14.00" fill="#000000">GO:0005488</text>
<text text-anchor="middle" x="627.4583" y="-591.4" font-family="Times,serif" font-size="14.00" fill="#000000">binding</text>
</g>
<!-- GO:0097159&#45;&gt;GO:0005488 -->
<g id="edge9" class="edge">
<title>GO:0097159&#45;&gt;GO:0005488</title>
<path fill="none" stroke="#000000" d="M571.7105,-547.5963C580.7897,-556.7824 590.7652,-566.8752 599.737,-575.9526"/>
<polygon fill="#000000" stroke="#000000" points="597.4766,-578.6446 606.9956,-583.2966 602.4553,-573.7239 597.4766,-578.6446"/>
</g>
<!-- GO:1901363&#45;&gt;GO:0005488 -->
<g id="edge10" class="edge">
<title>GO:1901363&#45;&gt;GO:0005488</title>
<path fill="none" stroke="#000000" d="M683.2061,-547.5963C674.1269,-556.7824 664.1514,-566.8752 655.1796,-575.9526"/>
<polygon fill="#000000" stroke="#000000" points="652.4613,-573.7239 647.921,-583.2966 657.44,-578.6446 652.4613,-573.7239"/>
</g>
<!-- GO:0005488&#45;&gt;GO:0003674 -->
<g id="edge11" class="edge">
<title>GO:0005488&#45;&gt;GO:0003674</title>
<path fill="none" stroke="#000000" d="M582.8786,-618.4141C548.4395,-629.5494 500.0628,-645.1912 460.0595,-658.1256"/>
<polygon fill="#000000" stroke="#000000" points="458.7858,-654.8589 450.3477,-661.2658 460.9395,-661.5194 458.7858,-654.8589"/>
</g>
<!-- GO:0043167 -->
<g id="node12" class="node">
<title>GO:0043167</title>
<polygon fill="#ff00ff" stroke="#000000" points="442.0622,-538.6019 352.8544,-538.6019 352.8544,-497.3981 442.0622,-497.3981 442.0622,-538.6019"/>
<text text-anchor="middle" x="397.4583" y="-522.2" font-family="Times,serif" font-size="14.00" fill="#000000">GO:0043167</text>
<text text-anchor="middle" x="397.4583" y="-505.4" font-family="Times,serif" font-size="14.00" fill="#000000">ion binding</text>
</g>
<!-- GO:0043167&#45;&gt;GO:0005488 -->
<g id="edge12" class="edge">
<title>GO:0043167&#45;&gt;GO:0005488</title>
<path fill="none" stroke="#000000" d="M435.7059,-538.6218C441.8998,-541.6619 448.3016,-544.6308 454.4583,-547.2 493.2254,-563.3774 538.3592,-578.0644 572.8048,-588.4493"/>
<polygon fill="#000000" stroke="#000000" points="572.0932,-591.8895 582.6766,-591.3962 574.0956,-585.182 572.0932,-591.8895"/>
</g>
<!-- GO:0032561 -->
<g id="node13" class="node">
<title>GO:0032561</title>
<polygon fill="#ffffff" stroke="#000000" points="1188.9311,-58.6014 1049.9855,-58.6014 1049.9855,.2014 1188.9311,.2014 1188.9311,-58.6014"/>
<text text-anchor="middle" x="1119.4583" y="-41.8" font-family="Times,serif" font-size="14.00" fill="#000000">GO:0032561</text>
<text text-anchor="middle" x="1119.4583" y="-25" font-family="Times,serif" font-size="14.00" fill="#000000">guanyl ribonucleotide</text>
<text text-anchor="middle" x="1119.4583" y="-8.2" font-family="Times,serif" font-size="14.00" fill="#000000">binding</text>
</g>
<!-- GO:0032555 -->
<g id="node14" class="node">
<title>GO:0032555</title>
<polygon fill="#ff00ff" stroke="#000000" points="1107.591,-153.0014 971.3256,-153.0014 971.3256,-94.1986 1107.591,-94.1986 1107.591,-153.0014"/>
<text text-anchor="middle" x="1039.4583" y="-136.2" font-family="Times,serif" font-size="14.00" fill="#000000">GO:0032555</text>
<text text-anchor="middle" x="1039.4583" y="-119.4" font-family="Times,serif" font-size="14.00" fill="#000000">purine ribonucleotide</text>
<text text-anchor="middle" x="1039.4583" y="-102.6" font-family="Times,serif" font-size="14.00" fill="#000000">binding</text>
</g>
<!-- GO:0032561&#45;&gt;GO:0032555 -->
<g id="edge13" class="edge">
<title>GO:0032561&#45;&gt;GO:0032555</title>
<path fill="none" stroke="#000000" d="M1094.5843,-58.5513C1087.0592,-67.431 1078.6964,-77.299 1070.8055,-86.6103"/>
<polygon fill="#000000" stroke="#000000" points="1068.112,-84.375 1064.3169,-94.2669 1073.4523,-88.9007 1068.112,-84.375"/>
</g>
<!-- GO:0019001 -->
<g id="node15" class="node">
<title>GO:0019001</title>
<polygon fill="#ffffff" stroke="#000000" points="1287.6604,-144.2019 1125.2562,-144.2019 1125.2562,-102.9981 1287.6604,-102.9981 1287.6604,-144.2019"/>
<text text-anchor="middle" x="1206.4583" y="-127.8" font-family="Times,serif" font-size="14.00" fill="#000000">GO:0019001</text>
<text text-anchor="middle" x="1206.4583" y="-111" font-family="Times,serif" font-size="14.00" fill="#000000">guanyl nucleotide binding</text>
</g>
<!-- GO:0032561&#45;&gt;GO:0019001 -->
<g id="edge14" class="edge">
<title>GO:0032561&#45;&gt;GO:0019001</title>
<path fill="none" stroke="#000000" d="M1146.5087,-58.5513C1157.3929,-70.3612 1169.8884,-83.9196 1180.6449,-95.591"/>
<polygon fill="#000000" stroke="#000000" points="1178.0772,-97.9695 1187.428,-102.951 1183.2247,-93.2256 1178.0772,-97.9695"/>
</g>
<!-- GO:0017076 -->
<g id="node16" class="node">
<title>GO:0017076</title>
<polygon fill="#ffffff" stroke="#000000" points="1036.321,-238.6019 876.5956,-238.6019 876.5956,-197.3981 1036.321,-197.3981 1036.321,-238.6019"/>
<text text-anchor="middle" x="956.4583" y="-222.2" font-family="Times,serif" font-size="14.00" fill="#000000">GO:0017076</text>
<text text-anchor="middle" x="956.4583" y="-205.4" font-family="Times,serif" font-size="14.00" fill="#000000">purine nucleotide binding</text>
</g>
<!-- GO:0032555&#45;&gt;GO:0017076 -->
<g id="edge15" class="edge">
<title>GO:0032555&#45;&gt;GO:0017076</title>
<path fill="none" stroke="#000000" d="M1013.6516,-152.9513C1003.3667,-164.6488 991.5737,-178.0615 981.3785,-189.657"/>
<polygon fill="#000000" stroke="#000000" points="978.5883,-187.5299 974.6137,-197.351 983.8453,-192.1521 978.5883,-187.5299"/>
</g>
<!-- GO:0032553 -->
<g id="node17" class="node">
<title>GO:0032553</title>
<polygon fill="#ffffff" stroke="#000000" points="1198.1064,-238.6019 1054.8102,-238.6019 1054.8102,-197.3981 1198.1064,-197.3981 1198.1064,-238.6019"/>
<text text-anchor="middle" x="1126.4583" y="-222.2" font-family="Times,serif" font-size="14.00" fill="#000000">GO:0032553</text>
<text text-anchor="middle" x="1126.4583" y="-205.4" font-family="Times,serif" font-size="14.00" fill="#000000">ribonucleotide binding</text>
</g>
<!-- GO:0032555&#45;&gt;GO:0032553 -->
<g id="edge16" class="edge">
<title>GO:0032555&#45;&gt;GO:0032553</title>
<path fill="none" stroke="#000000" d="M1066.5087,-152.9513C1077.3929,-164.7612 1089.8884,-178.3196 1100.6449,-189.991"/>
<polygon fill="#000000" stroke="#000000" points="1098.0772,-192.3695 1107.428,-197.351 1103.2247,-187.6256 1098.0772,-192.3695"/>
</g>
<!-- GO:0019001&#45;&gt;GO:0017076 -->
<g id="edge17" class="edge">
<title>GO:0019001&#45;&gt;GO:0017076</title>
<path fill="none" stroke="#000000" d="M1151.5947,-144.3165C1113.0056,-158.8877 1061.2312,-178.4377 1020.7099,-193.7386"/>
<polygon fill="#000000" stroke="#000000" points="1019.3127,-190.5249 1011.1939,-197.3318 1021.7856,-197.0736 1019.3127,-190.5249"/>
</g>
<!-- GO:0000166 -->
<g id="node18" class="node">
<title>GO:0000166</title>
<polygon fill="#ffffff" stroke="#000000" points="1098.5558,-333.0019 978.3608,-333.0019 978.3608,-291.7981 1098.5558,-291.7981 1098.5558,-333.0019"/>
<text text-anchor="middle" x="1038.4583" y="-316.6" font-family="Times,serif" font-size="14.00" fill="#000000">GO:0000166</text>
<text text-anchor="middle" x="1038.4583" y="-299.8" font-family="Times,serif" font-size="14.00" fill="#000000">nucleotide binding</text>
</g>
<!-- GO:0017076&#45;&gt;GO:0000166 -->
<g id="edge18" class="edge">
<title>GO:0017076&#45;&gt;GO:0000166</title>
<path fill="none" stroke="#000000" d="M974.6568,-238.9504C986.1223,-252.1498 1001.0761,-269.3649 1013.6244,-283.8107"/>
<polygon fill="#000000" stroke="#000000" points="1011.1105,-286.2539 1020.3107,-291.5081 1016.3952,-281.6634 1011.1105,-286.2539"/>
</g>
<!-- GO:0032553&#45;&gt;GO:0000166 -->
<g id="edge20" class="edge">
<title>GO:0032553&#45;&gt;GO:0000166</title>
<path fill="none" stroke="#000000" d="M1106.9282,-238.9504C1094.6238,-252.1498 1078.5758,-269.3649 1065.1094,-283.8107"/>
<polygon fill="#000000" stroke="#000000" points="1062.1924,-281.8069 1057.9338,-291.5081 1067.3127,-286.58 1062.1924,-281.8069"/>
</g>
<!-- GO:0097367 -->
<g id="node19" class="node">
<title>GO:0097367</title>
<polygon fill="#ff00ff" stroke="#000000" points="1117.5054,-547.4014 969.4112,-547.4014 969.4112,-488.5986 1117.5054,-488.5986 1117.5054,-547.4014"/>
<text text-anchor="middle" x="1043.4583" y="-530.6" font-family="Times,serif" font-size="14.00" fill="#000000">GO:0097367</text>
<text text-anchor="middle" x="1043.4583" y="-513.8" font-family="Times,serif" font-size="14.00" fill="#000000">carbohydrate derivative</text>
<text text-anchor="middle" x="1043.4583" y="-497" font-family="Times,serif" font-size="14.00" fill="#000000">binding</text>
</g>
<!-- GO:0032553&#45;&gt;GO:0097367 -->
<g id="edge19" class="edge">
<title>GO:0032553&#45;&gt;GO:0097367</title>
<path fill="none" stroke="#000000" d="M1124.5153,-238.806C1121.9153,-263.5733 1116.5458,-306.0527 1107.4583,-341.6 1095.0673,-390.0693 1074.5131,-443.8626 1060.0478,-479.1523"/>
<polygon fill="#000000" stroke="#000000" points="1056.7299,-478.0168 1056.1411,-488.5953 1063.1982,-480.6929 1056.7299,-478.0168"/>
</g>
<!-- GO:0000166&#45;&gt;GO:1901265 -->
<g id="edge22" class="edge">
<title>GO:0000166&#45;&gt;GO:1901265</title>
<path fill="none" stroke="#000000" d="M994.2956,-333.0197C985.8615,-336.3248 976.9973,-339.3819 968.4583,-341.6 831.2182,-377.2488 788.6887,-341.9141 651.4583,-377.6 646.132,-378.9851 640.7075,-380.6245 635.2956,-382.4313"/>
<polygon fill="#000000" stroke="#000000" points="633.8632,-379.2249 625.5918,-385.8456 636.1866,-385.8281 633.8632,-379.2249"/>
</g>
<!-- GO:0036094 -->
<g id="node20" class="node">
<title>GO:0036094</title>
<polygon fill="#ff00ff" stroke="#000000" points="951.3867,-538.6019 803.5299,-538.6019 803.5299,-497.3981 951.3867,-497.3981 951.3867,-538.6019"/>
<text text-anchor="middle" x="877.4583" y="-522.2" font-family="Times,serif" font-size="14.00" fill="#000000">GO:0036094</text>
<text text-anchor="middle" x="877.4583" y="-505.4" font-family="Times,serif" font-size="14.00" fill="#000000">small molecule binding</text>
</g>
<!-- GO:0000166&#45;&gt;GO:0036094 -->
<g id="edge21" class="edge">
<title>GO:0000166&#45;&gt;GO:0036094</title>
<path fill="none" stroke="#000000" d="M1022.1348,-333.2455C993.2053,-370.1889 932.897,-447.2038 900.0177,-489.1912"/>
<polygon fill="#000000" stroke="#000000" points="897.2348,-487.0682 893.8251,-497.0994 902.7461,-491.3839 897.2348,-487.0682"/>
</g>
<!-- GO:0097367&#45;&gt;GO:0005488 -->
<g id="edge23" class="edge">
<title>GO:0097367&#45;&gt;GO:0005488</title>
<path fill="none" stroke="#000000" d="M968.9858,-544.869C966.1175,-545.6908 963.2678,-546.4718 960.4583,-547.2 863.9978,-572.2021 748.8904,-589.037 682.3805,-597.5322"/>
<polygon fill="#000000" stroke="#000000" points="681.6173,-594.1007 672.1336,-598.824 682.4929,-601.0457 681.6173,-594.1007"/>
</g>
<!-- GO:0036094&#45;&gt;GO:0005488 -->
<g id="edge24" class="edge">
<title>GO:0036094&#45;&gt;GO:0005488</title>
<path fill="none" stroke="#000000" d="M819.7084,-538.6957C811.5733,-541.5728 803.3103,-544.4748 795.4583,-547.2 757.6322,-560.3284 714.8831,-574.7762 681.9741,-585.815"/>
<polygon fill="#000000" stroke="#000000" points="680.4629,-582.6301 672.0932,-589.1262 682.6871,-589.2673 680.4629,-582.6301"/>
</g>
<!-- GO:0016740 -->
<g id="node21" class="node">
<title>GO:0016740</title>
<polygon fill="#ff00ff" stroke="#000000" points="298.57,-538.6019 176.3466,-538.6019 176.3466,-497.3981 298.57,-497.3981 298.57,-538.6019"/>
<text text-anchor="middle" x="237.4583" y="-522.2" font-family="Times,serif" font-size="14.00" fill="#000000">GO:0016740</text>
<text text-anchor="middle" x="237.4583" y="-505.4" font-family="Times,serif" font-size="14.00" fill="#000000">transferase activity</text>
</g>
<!-- GO:0016740&#45;&gt;GO:0003824 -->
<g id="edge25" class="edge">
<title>GO:0016740&#45;&gt;GO:0003824</title>
<path fill="none" stroke="#000000" d="M237.4583,-538.8182C237.4583,-549.1705 237.4583,-561.8848 237.4583,-573.3271"/>
<polygon fill="#000000" stroke="#000000" points="233.9584,-573.3735 237.4583,-583.3735 240.9584,-573.3735 233.9584,-573.3735"/>
</g>
<!-- GO:0016778 -->
<g id="node22" class="node">
<title>GO:0016778</title>
<polygon fill="#ffffff" stroke="#000000" points="294.9135,-341.8014 160.0031,-341.8014 160.0031,-282.9986 294.9135,-282.9986 294.9135,-341.8014"/>
<text text-anchor="middle" x="227.4583" y="-325" font-family="Times,serif" font-size="14.00" fill="#000000">GO:0016778</text>
<text text-anchor="middle" x="227.4583" y="-308.2" font-family="Times,serif" font-size="14.00" fill="#000000">diphosphotransferase</text>
<text text-anchor="middle" x="227.4583" y="-291.4" font-family="Times,serif" font-size="14.00" fill="#000000">activity</text>
</g>
<!-- GO:0016772 -->
<g id="node23" class="node">
<title>GO:0016772</title>
<polygon fill="#ffffff" stroke="#000000" points="314.4661,-452.9003 160.4505,-452.9003 160.4505,-377.4997 314.4661,-377.4997 314.4661,-452.9003"/>
<text text-anchor="middle" x="237.4583" y="-436.2" font-family="Times,serif" font-size="14.00" fill="#000000">GO:0016772</text>
<text text-anchor="middle" x="237.4583" y="-419.4" font-family="Times,serif" font-size="14.00" fill="#000000">transferase activity,</text>
<text text-anchor="middle" x="237.4583" y="-402.6" font-family="Times,serif" font-size="14.00" fill="#000000">transferring phosphorus&#45;</text>
<text text-anchor="middle" x="237.4583" y="-385.8" font-family="Times,serif" font-size="14.00" fill="#000000">containing groups</text>
</g>
<!-- GO:0016778&#45;&gt;GO:0016772 -->
<g id="edge26" class="edge">
<title>GO:0016778&#45;&gt;GO:0016772</title>
<path fill="none" stroke="#000000" d="M230.3239,-341.8584C231.0955,-349.7901 231.9505,-358.58 232.7928,-367.2392"/>
<polygon fill="#000000" stroke="#000000" points="229.3182,-367.6708 233.7701,-377.285 236.2853,-366.993 229.3182,-367.6708"/>
</g>
<!-- GO:0016772&#45;&gt;GO:0016740 -->
<g id="edge27" class="edge">
<title>GO:0016772&#45;&gt;GO:0016740</title>
<path fill="none" stroke="#000000" d="M237.4583,-452.8952C237.4583,-464.1552 237.4583,-476.3618 237.4583,-487.1299"/>
<polygon fill="#000000" stroke="#000000" points="233.9584,-487.3302 237.4583,-497.3302 240.9584,-487.3302 233.9584,-487.3302"/>
</g>
<!-- GO:0031406 -->
<g id="node24" class="node">
<title>GO:0031406</title>
<polygon fill="#ffffff" stroke="#000000" points="461.645,-333.0019 313.2716,-333.0019 313.2716,-291.7981 461.645,-291.7981 461.645,-333.0019"/>
<text text-anchor="middle" x="387.4583" y="-316.6" font-family="Times,serif" font-size="14.00" fill="#000000">GO:0031406</text>
<text text-anchor="middle" x="387.4583" y="-299.8" font-family="Times,serif" font-size="14.00" fill="#000000">carboxylic acid binding</text>
</g>
<!-- GO:0043168 -->
<g id="node25" class="node">
<title>GO:0043168</title>
<polygon fill="#ffffff" stroke="#000000" points="439.3455,-435.8019 345.5711,-435.8019 345.5711,-394.5981 439.3455,-394.5981 439.3455,-435.8019"/>
<text text-anchor="middle" x="392.4583" y="-419.4" font-family="Times,serif" font-size="14.00" fill="#000000">GO:0043168</text>
<text text-anchor="middle" x="392.4583" y="-402.6" font-family="Times,serif" font-size="14.00" fill="#000000">anion binding</text>
</g>
<!-- GO:0031406&#45;&gt;GO:0043168 -->
<g id="edge28" class="edge">
<title>GO:0031406&#45;&gt;GO:0043168</title>
<path fill="none" stroke="#000000" d="M388.4701,-333.2031C389.1817,-347.8337 390.1462,-367.6642 390.9485,-384.1586"/>
<polygon fill="#000000" stroke="#000000" points="387.4662,-384.6097 391.448,-394.4278 394.4579,-384.2696 387.4662,-384.6097"/>
</g>
<!-- GO:0043168&#45;&gt;GO:0043167 -->
<g id="edge29" class="edge">
<title>GO:0043168&#45;&gt;GO:0043167</title>
<path fill="none" stroke="#000000" d="M393.4701,-436.0031C394.1817,-450.6337 395.1462,-470.4642 395.9485,-486.9586"/>
<polygon fill="#000000" stroke="#000000" points="392.4662,-487.4097 396.448,-497.2278 399.4579,-487.0696 392.4662,-487.4097"/>
</g>
<!-- GO:0032559 -->
<g id="node26" class="node">
<title>GO:0032559</title>
<polygon fill="#ff00ff" stroke="#000000" points="1027.1453,-58.6014 889.7713,-58.6014 889.7713,.2014 1027.1453,.2014 1027.1453,-58.6014"/>
<text text-anchor="middle" x="958.4583" y="-41.8" font-family="Times,serif" font-size="14.00" fill="#000000">GO:0032559</text>
<text text-anchor="middle" x="958.4583" y="-25" font-family="Times,serif" font-size="14.00" fill="#000000">adenyl ribonucleotide</text>
<text text-anchor="middle" x="958.4583" y="-8.2" font-family="Times,serif" font-size="14.00" fill="#000000">binding</text>
</g>
<!-- GO:0032559&#45;&gt;GO:0032555 -->
<g id="edge30" class="edge">
<title>GO:0032559&#45;&gt;GO:0032555</title>
<path fill="none" stroke="#000000" d="M983.6432,-58.5513C991.2624,-67.431 999.7297,-77.299 1007.7192,-86.6103"/>
<polygon fill="#000000" stroke="#000000" points="1005.1208,-88.9569 1014.289,-94.2669 1010.4333,-84.3985 1005.1208,-88.9569"/>
</g>
<!-- GO:0030554 -->
<g id="node27" class="node">
<title>GO:0030554</title>
<polygon fill="#ffffff" stroke="#000000" points="953.3754,-144.2019 791.5412,-144.2019 791.5412,-102.9981 953.3754,-102.9981 953.3754,-144.2019"/>
<text text-anchor="middle" x="872.4583" y="-127.8" font-family="Times,serif" font-size="14.00" fill="#000000">GO:0030554</text>
<text text-anchor="middle" x="872.4583" y="-111" font-family="Times,serif" font-size="14.00" fill="#000000">adenyl nucleotide binding</text>
</g>
<!-- GO:0032559&#45;&gt;GO:0030554 -->
<g id="edge31" class="edge">
<title>GO:0032559&#45;&gt;GO:0030554</title>
<path fill="none" stroke="#000000" d="M931.7188,-58.5513C921.0622,-70.2488 908.843,-83.6615 898.2792,-95.257"/>
<polygon fill="#000000" stroke="#000000" points="895.4171,-93.2016 891.2699,-102.951 900.5918,-97.9157 895.4171,-93.2016"/>
</g>
<!-- GO:0030554&#45;&gt;GO:0017076 -->
<g id="edge32" class="edge">
<title>GO:0030554&#45;&gt;GO:0017076</title>
<path fill="none" stroke="#000000" d="M891.1006,-144.5504C902.8458,-157.7498 918.1643,-174.9649 931.0187,-189.4107"/>
<polygon fill="#000000" stroke="#000000" points="928.6058,-191.9642 937.8681,-197.1081 933.8352,-187.3109 928.6058,-191.9642"/>
</g>
<!-- GO:0032550 -->
<g id="node28" class="node">
<title>GO:0032550</title>
<polygon fill="#ff00ff" stroke="#000000" points="821.1453,-247.4014 683.7713,-247.4014 683.7713,-188.5986 821.1453,-188.5986 821.1453,-247.4014"/>
<text text-anchor="middle" x="752.4583" y="-230.6" font-family="Times,serif" font-size="14.00" fill="#000000">GO:0032550</text>
<text text-anchor="middle" x="752.4583" y="-213.8" font-family="Times,serif" font-size="14.00" fill="#000000">purine ribonucleoside</text>
<text text-anchor="middle" x="752.4583" y="-197" font-family="Times,serif" font-size="14.00" fill="#000000">binding</text>
</g>
<!-- GO:0001883 -->
<g id="node29" class="node">
<title>GO:0001883</title>
<polygon fill="#ffffff" stroke="#000000" points="797.3754,-333.0019 635.5412,-333.0019 635.5412,-291.7981 797.3754,-291.7981 797.3754,-333.0019"/>
<text text-anchor="middle" x="716.4583" y="-316.6" font-family="Times,serif" font-size="14.00" fill="#000000">GO:0001883</text>
<text text-anchor="middle" x="716.4583" y="-299.8" font-family="Times,serif" font-size="14.00" fill="#000000">purine nucleoside binding</text>
</g>
<!-- GO:0032550&#45;&gt;GO:0001883 -->
<g id="edge33" class="edge">
<title>GO:0032550&#45;&gt;GO:0001883</title>
<path fill="none" stroke="#000000" d="M741.265,-247.3513C737.0186,-258.4864 732.1794,-271.1758 727.9095,-282.3724"/>
<polygon fill="#000000" stroke="#000000" points="724.626,-281.1602 724.3329,-291.751 731.1665,-283.6545 724.626,-281.1602"/>
</g>
<!-- GO:0032549 -->
<g id="node30" class="node">
<title>GO:0032549</title>
<polygon fill="#ffffff" stroke="#000000" points="959.6606,-333.0019 815.256,-333.0019 815.256,-291.7981 959.6606,-291.7981 959.6606,-333.0019"/>
<text text-anchor="middle" x="887.4583" y="-316.6" font-family="Times,serif" font-size="14.00" fill="#000000">GO:0032549</text>
<text text-anchor="middle" x="887.4583" y="-299.8" font-family="Times,serif" font-size="14.00" fill="#000000">ribonucleoside binding</text>
</g>
<!-- GO:0032550&#45;&gt;GO:0032549 -->
<g id="edge34" class="edge">
<title>GO:0032550&#45;&gt;GO:0032549</title>
<path fill="none" stroke="#000000" d="M794.4331,-247.3513C811.9658,-259.6112 832.1928,-273.7551 849.2986,-285.7165"/>
<polygon fill="#000000" stroke="#000000" points="847.7276,-288.8887 857.9285,-291.751 851.739,-283.1521 847.7276,-288.8887"/>
</g>
<!-- GO:0001882 -->
<g id="node31" class="node">
<title>GO:0001882</title>
<polygon fill="#ffffff" stroke="#000000" points="782.6092,-435.8019 660.3074,-435.8019 660.3074,-394.5981 782.6092,-394.5981 782.6092,-435.8019"/>
<text text-anchor="middle" x="721.4583" y="-419.4" font-family="Times,serif" font-size="14.00" fill="#000000">GO:0001882</text>
<text text-anchor="middle" x="721.4583" y="-402.6" font-family="Times,serif" font-size="14.00" fill="#000000">nucleoside binding</text>
</g>
<!-- GO:0001883&#45;&gt;GO:0001882 -->
<g id="edge35" class="edge">
<title>GO:0001883&#45;&gt;GO:0001882</title>
<path fill="none" stroke="#000000" d="M717.4701,-333.2031C718.1817,-347.8337 719.1462,-367.6642 719.9485,-384.1586"/>
<polygon fill="#000000" stroke="#000000" points="716.4662,-384.6097 720.448,-394.4278 723.4579,-384.2696 716.4662,-384.6097"/>
</g>
<!-- GO:0032549&#45;&gt;GO:0001882 -->
<g id="edge36" class="edge">
<title>GO:0032549&#45;&gt;GO:0001882</title>
<path fill="none" stroke="#000000" d="M853.8657,-333.2031C827.878,-349.2967 791.73,-371.6824 763.7684,-388.9983"/>
<polygon fill="#000000" stroke="#000000" points="761.66,-386.1872 755.0009,-394.4278 765.3455,-392.1384 761.66,-386.1872"/>
</g>
<!-- GO:0001882&#45;&gt;GO:0097159 -->
<g id="edge40" class="edge">
<title>GO:0001882&#45;&gt;GO:0097159</title>
<path fill="none" stroke="#000000" d="M685.235,-436.0031C661.4524,-449.6615 629.7786,-467.8518 602.3068,-483.6289"/>
<polygon fill="#000000" stroke="#000000" points="600.479,-480.6424 593.5504,-488.6577 603.9651,-486.7126 600.479,-480.6424"/>
</g>
<!-- GO:0001882&#45;&gt;GO:1901363 -->
<g id="edge39" class="edge">
<title>GO:0001882&#45;&gt;GO:1901363</title>
<path fill="none" stroke="#000000" d="M719.637,-436.0031C718.5707,-448.1833 717.1888,-463.9676 715.9226,-478.4305"/>
<polygon fill="#000000" stroke="#000000" points="712.4128,-478.3906 715.0272,-488.6577 719.3861,-479.0011 712.4128,-478.3906"/>
</g>
<!-- GO:0001882&#45;&gt;GO:0097367 -->
<g id="edge38" class="edge">
<title>GO:0001882&#45;&gt;GO:0097367</title>
<path fill="none" stroke="#000000" d="M782.5735,-433.294C828.719,-447.1226 893.8109,-466.9822 959.5886,-488.5517"/>
<polygon fill="#000000" stroke="#000000" points="958.7033,-491.945 969.2963,-491.746 960.8913,-485.2957 958.7033,-491.945"/>
</g>
<!-- GO:0001882&#45;&gt;GO:0036094 -->
<g id="edge37" class="edge">
<title>GO:0001882&#45;&gt;GO:0036094</title>
<path fill="none" stroke="#000000" d="M753.0272,-436.0031C777.3437,-452.0271 811.1259,-474.2887 837.3553,-491.5731"/>
<polygon fill="#000000" stroke="#000000" points="835.6604,-494.6478 845.9363,-497.2278 839.5122,-488.8028 835.6604,-494.6478"/>
</g>
</g>
</svg>
