<?xml version="1.0" encoding="UTF-8" standalone="no"?>
<!DOCTYPE svg PUBLIC "-//W3C//DTD SVG 1.1//EN"
 "http://www.w3.org/Graphics/SVG/1.1/DTD/svg11.dtd">
<!-- Generated by graphviz version 2.40.1 (20161225.0304)
 -->
<!-- Title: G Pages: 1 -->
<svg width="690pt" height="410pt"
 viewBox="0.00 0.00 690.10 410.40" xmlns="http://www.w3.org/2000/svg" xmlns:xlink="http://www.w3.org/1999/xlink">
<g id="graph0" class="graph" transform="scale(1 1) rotate(0) translate(4 406.4)">
<title>G</title>
<polygon fill="#ffffff" stroke="transparent" points="-4,4 -4,-406.4 686.1007,-406.4 686.1007,4 -4,4"/>
<!-- GO:0043229 -->
<g id="node1" class="node">
<title>GO:0043229</title>
<polygon fill="#00ffff" stroke="#000000" points="285.6988,-144.2019 146.262,-144.2019 146.262,-102.9981 285.6988,-102.9981 285.6988,-144.2019"/>
<text text-anchor="middle" x="215.9804" y="-127.8" font-family="Times,serif" font-size="14.00" fill="#000000">GO:0043229</text>
<text text-anchor="middle" x="215.9804" y="-111" font-family="Times,serif" font-size="14.00" fill="#000000">intracellular organelle</text>
</g>
<!-- GO:0044424 -->
<g id="node2" class="node">
<title>GO:0044424</title>
<polygon fill="#00ff00" stroke="#000000" points="386.3788,-238.6019 277.582,-238.6019 277.582,-197.3981 386.3788,-197.3981 386.3788,-238.6019"/>
<text text-anchor="middle" x="331.9804" y="-222.2" font-family="Times,serif" font-size="14.00" fill="#000000">GO:0044424</text>
<text text-anchor="middle" x="331.9804" y="-205.4" font-family="Times,serif" font-size="14.00" fill="#000000">intracellular part</text>
</g>
<!-- GO:0043229&#45;&gt;GO:0044424 -->
<g id="edge1" class="edge">
<title>GO:0043229&#45;&gt;GO:0044424</title>
<path fill="none" stroke="#000000" d="M241.4371,-144.3165C258.2092,-157.9655 280.3493,-175.983 298.5378,-190.7846"/>
<polygon fill="#000000" stroke="#000000" points="296.6176,-193.7345 306.5831,-197.3318 301.036,-188.3052 296.6176,-193.7345"/>
</g>
<!-- GO:0043226 -->
<g id="node3" class="node">
<title>GO:0043226</title>
<polygon fill="#ffffff" stroke="#000000" points="259.5843,-238.6019 170.3765,-238.6019 170.3765,-197.3981 259.5843,-197.3981 259.5843,-238.6019"/>
<text text-anchor="middle" x="214.9804" y="-222.2" font-family="Times,serif" font-size="14.00" fill="#000000">GO:0043226</text>
<text text-anchor="middle" x="214.9804" y="-205.4" font-family="Times,serif" font-size="14.00" fill="#000000">organelle</text>
</g>
<!-- GO:0043229&#45;&gt;GO:0043226 -->
<g id="edge2" class="edge">
<title>GO:0043229&#45;&gt;GO:0043226</title>
<path fill="none" stroke="#000000" d="M215.7585,-144.5504C215.6264,-157.0165 215.4564,-173.0645 215.309,-186.9786"/>
<polygon fill="#000000" stroke="#000000" points="211.8079,-187.0716 215.2017,-197.1081 218.8075,-187.1458 211.8079,-187.0716"/>
</g>
<!-- GO:0044464 -->
<g id="node4" class="node">
<title>GO:0044464</title>
<polygon fill="#ff0000" stroke="#000000" points="519.5843,-324.6019 430.3765,-324.6019 430.3765,-283.3981 519.5843,-283.3981 519.5843,-324.6019"/>
<text text-anchor="middle" x="474.9804" y="-308.2" font-family="Times,serif" font-size="14.00" fill="#000000">GO:0044464</text>
<text text-anchor="middle" x="474.9804" y="-291.4" font-family="Times,serif" font-size="14.00" fill="#000000">cell part</text>
</g>
<!-- GO:0044424&#45;&gt;GO:0044464 -->
<g id="edge3" class="edge">
<title>GO:0044424&#45;&gt;GO:0044464</title>
<path fill="none" stroke="#000000" d="M366.5967,-238.8182C386.2695,-250.6494 411.0722,-265.5657 431.9848,-278.1425"/>
<polygon fill="#000000" stroke="#000000" points="430.3094,-281.2191 440.6829,-283.3735 433.9171,-275.2203 430.3094,-281.2191"/>
</g>
<!-- GO:0005575 -->
<g id="node5" class="node">
<title>GO:0005575</title>
<polygon fill="#ffffff" stroke="#000000" points="538.6671,-402.2019 411.2937,-402.2019 411.2937,-360.9981 538.6671,-360.9981 538.6671,-402.2019"/>
<text text-anchor="middle" x="474.9804" y="-385.8" font-family="Times,serif" font-size="14.00" fill="#000000">GO:0005575</text>
<text text-anchor="middle" x="474.9804" y="-369" font-family="Times,serif" font-size="14.00" fill="#000000">cellular_component</text>
</g>
<!-- GO:0043226&#45;&gt;GO:0005575 -->
<g id="edge4" class="edge">
<title>GO:0043226&#45;&gt;GO:0005575</title>
<path fill="none" stroke="#000000" d="M247.9096,-238.7201C295.0575,-268.387 381.7826,-322.9571 433.3303,-355.3925"/>
<polygon fill="#000000" stroke="#000000" points="431.5811,-358.427 441.909,-360.7904 435.3091,-352.5023 431.5811,-358.427"/>
</g>
<!-- GO:0044464&#45;&gt;GO:0005575 -->
<g id="edge7" class="edge">
<title>GO:0044464&#45;&gt;GO:0005575</title>
<path fill="none" stroke="#000000" d="M474.9804,-324.7954C474.9804,-332.7109 474.9804,-341.9109 474.9804,-350.5722"/>
<polygon fill="#000000" stroke="#000000" points="471.4805,-350.7472 474.9804,-360.7472 478.4805,-350.7473 471.4805,-350.7472"/>
</g>
<!-- GO:0005618 -->
<g id="node6" class="node">
<title>GO:0005618</title>
<polygon fill="#00ff00" stroke="#000000" points="519.5843,-144.2019 430.3765,-144.2019 430.3765,-102.9981 519.5843,-102.9981 519.5843,-144.2019"/>
<text text-anchor="middle" x="474.9804" y="-127.8" font-family="Times,serif" font-size="14.00" fill="#000000">GO:0005618</text>
<text text-anchor="middle" x="474.9804" y="-111" font-family="Times,serif" font-size="14.00" fill="#000000">cell wall</text>
</g>
<!-- GO:0030312 -->
<g id="node7" class="node">
<title>GO:0030312</title>
<polygon fill="#ffffff" stroke="#000000" points="545.5415,-247.4014 404.4193,-247.4014 404.4193,-188.5986 545.5415,-188.5986 545.5415,-247.4014"/>
<text text-anchor="middle" x="474.9804" y="-230.6" font-family="Times,serif" font-size="14.00" fill="#000000">GO:0030312</text>
<text text-anchor="middle" x="474.9804" y="-213.8" font-family="Times,serif" font-size="14.00" fill="#000000">external encapsulating</text>
<text text-anchor="middle" x="474.9804" y="-197" font-family="Times,serif" font-size="14.00" fill="#000000">structure</text>
</g>
<!-- GO:0005618&#45;&gt;GO:0030312 -->
<g id="edge5" class="edge">
<title>GO:0005618&#45;&gt;GO:0030312</title>
<path fill="none" stroke="#000000" d="M474.9804,-144.5504C474.9804,-154.5492 474.9804,-166.8525 474.9804,-178.5106"/>
<polygon fill="#000000" stroke="#000000" points="471.4805,-178.5155 474.9804,-188.5155 478.4805,-178.5156 471.4805,-178.5155"/>
</g>
<!-- GO:0030312&#45;&gt;GO:0044464 -->
<g id="edge6" class="edge">
<title>GO:0030312&#45;&gt;GO:0044464</title>
<path fill="none" stroke="#000000" d="M474.9804,-247.5963C474.9804,-255.8638 474.9804,-264.8657 474.9804,-273.2008"/>
<polygon fill="#000000" stroke="#000000" points="471.4805,-273.2965 474.9804,-283.2966 478.4805,-273.2966 471.4805,-273.2965"/>
</g>
<!-- GO:0016020 -->
<g id="node8" class="node">
<title>GO:0016020</title>
<polygon fill="#ff0000" stroke="#000000" points="646.5843,-324.6019 557.3765,-324.6019 557.3765,-283.3981 646.5843,-283.3981 646.5843,-324.6019"/>
<text text-anchor="middle" x="601.9804" y="-308.2" font-family="Times,serif" font-size="14.00" fill="#000000">GO:0016020</text>
<text text-anchor="middle" x="601.9804" y="-291.4" font-family="Times,serif" font-size="14.00" fill="#000000">membrane</text>
</g>
<!-- GO:0016020&#45;&gt;GO:0005575 -->
<g id="edge8" class="edge">
<title>GO:0016020&#45;&gt;GO:0005575</title>
<path fill="none" stroke="#000000" d="M567.9467,-324.7954C552.5722,-334.1896 534.2365,-345.3931 517.928,-355.358"/>
<polygon fill="#000000" stroke="#000000" points="515.8163,-352.5466 509.108,-360.7472 519.4661,-358.5198 515.8163,-352.5466"/>
</g>
<!-- GO:0005886 -->
<g id="node9" class="node">
<title>GO:0005886</title>
<polygon fill="#00ff00" stroke="#000000" points="682.2212,-238.6019 563.7396,-238.6019 563.7396,-197.3981 682.2212,-197.3981 682.2212,-238.6019"/>
<text text-anchor="middle" x="622.9804" y="-222.2" font-family="Times,serif" font-size="14.00" fill="#000000">GO:0005886</text>
<text text-anchor="middle" x="622.9804" y="-205.4" font-family="Times,serif" font-size="14.00" fill="#000000">plasma membrane</text>
</g>
<!-- GO:0005886&#45;&gt;GO:0044464 -->
<g id="edge10" class="edge">
<title>GO:0005886&#45;&gt;GO:0044464</title>
<path fill="none" stroke="#000000" d="M587.1537,-238.8182C566.7022,-250.7022 540.8938,-265.699 519.1897,-278.3108"/>
<polygon fill="#000000" stroke="#000000" points="517.3649,-275.3231 510.4771,-283.3735 520.8819,-281.3755 517.3649,-275.3231"/>
</g>
<!-- GO:0005886&#45;&gt;GO:0016020 -->
<g id="edge9" class="edge">
<title>GO:0005886&#45;&gt;GO:0016020</title>
<path fill="none" stroke="#000000" d="M617.8969,-238.8182C615.369,-249.1705 612.2643,-261.8848 609.4703,-273.3271"/>
<polygon fill="#000000" stroke="#000000" points="605.9892,-272.8287 607.0171,-283.3735 612.7894,-274.4892 605.9892,-272.8287"/>
</g>
<!-- GO:0043231 -->
<g id="node10" class="node">
<title>GO:0043231</title>
<polygon fill="#ff00ff" stroke="#000000" points="215.3592,-58.6014 64.6016,-58.6014 64.6016,.2014 215.3592,.2014 215.3592,-58.6014"/>
<text text-anchor="middle" x="139.9804" y="-41.8" font-family="Times,serif" font-size="14.00" fill="#000000">GO:0043231</text>
<text text-anchor="middle" x="139.9804" y="-25" font-family="Times,serif" font-size="14.00" fill="#000000">intracellular membrane&#45;</text>
<text text-anchor="middle" x="139.9804" y="-8.2" font-family="Times,serif" font-size="14.00" fill="#000000">bounded organelle</text>
</g>
<!-- GO:0043231&#45;&gt;GO:0043229 -->
<g id="edge11" class="edge">
<title>GO:0043231&#45;&gt;GO:0043229</title>
<path fill="none" stroke="#000000" d="M163.6107,-58.5513C172.9376,-70.1363 183.619,-83.4037 192.8922,-94.922"/>
<polygon fill="#000000" stroke="#000000" points="190.3588,-97.3565 199.3562,-102.951 195.8114,-92.9667 190.3588,-97.3565"/>
</g>
<!-- GO:0043227 -->
<g id="node11" class="node">
<title>GO:0043227</title>
<polygon fill="#ffffff" stroke="#000000" points="127.9412,-153.0014 .0196,-153.0014 .0196,-94.1986 127.9412,-94.1986 127.9412,-153.0014"/>
<text text-anchor="middle" x="63.9804" y="-136.2" font-family="Times,serif" font-size="14.00" fill="#000000">GO:0043227</text>
<text text-anchor="middle" x="63.9804" y="-119.4" font-family="Times,serif" font-size="14.00" fill="#000000">membrane&#45;bounded</text>
<text text-anchor="middle" x="63.9804" y="-102.6" font-family="Times,serif" font-size="14.00" fill="#000000">organelle</text>
</g>
<!-- GO:0043231&#45;&gt;GO:0043227 -->
<g id="edge12" class="edge">
<title>GO:0043231&#45;&gt;GO:0043227</title>
<path fill="none" stroke="#000000" d="M116.3501,-58.5513C109.2727,-67.3422 101.4154,-77.1018 93.9853,-86.3308"/>
<polygon fill="#000000" stroke="#000000" points="91.1409,-84.2826 87.5961,-94.2669 96.5934,-88.6724 91.1409,-84.2826"/>
</g>
<!-- GO:0043227&#45;&gt;GO:0043226 -->
<g id="edge13" class="edge">
<title>GO:0043227&#45;&gt;GO:0043226</title>
<path fill="none" stroke="#000000" d="M110.93,-152.9513C130.9004,-165.4361 153.9962,-179.8748 173.3477,-191.9727"/>
<polygon fill="#000000" stroke="#000000" points="171.616,-195.0177 181.9507,-197.351 175.3267,-189.0822 171.616,-195.0177"/>
</g>
<!-- GO:0044444 -->
<g id="node12" class="node">
<title>GO:0044444</title>
<polygon fill="#00ffff" stroke="#000000" points="412.397,-144.2019 303.5638,-144.2019 303.5638,-102.9981 412.397,-102.9981 412.397,-144.2019"/>
<text text-anchor="middle" x="357.9804" y="-127.8" font-family="Times,serif" font-size="14.00" fill="#000000">GO:0044444</text>
<text text-anchor="middle" x="357.9804" y="-111" font-family="Times,serif" font-size="14.00" fill="#000000">cytoplasmic part</text>
</g>
<!-- GO:0044444&#45;&gt;GO:0044424 -->
<g id="edge14" class="edge">
<title>GO:0044444&#45;&gt;GO:0044424</title>
<path fill="none" stroke="#000000" d="M352.2102,-144.5504C348.743,-157.1387 344.2699,-173.3795 340.4119,-187.3872"/>
<polygon fill="#000000" stroke="#000000" points="337.0156,-186.5377 337.7345,-197.1081 343.7643,-188.3965 337.0156,-186.5377"/>
</g>
</g>
</svg>
