<?xml version="1.0" encoding="UTF-8" standalone="no"?>
<!DOCTYPE svg PUBLIC "-//W3C//DTD SVG 1.1//EN"
 "http://www.w3.org/Graphics/SVG/1.1/DTD/svg11.dtd">
<!-- Generated by graphviz version 2.40.1 (20161225.0304)
 -->
<!-- Title: G Pages: 1 -->
<svg width="540pt" height="222pt"
 viewBox="0.00 0.00 540.07 221.60" xmlns="http://www.w3.org/2000/svg" xmlns:xlink="http://www.w3.org/1999/xlink">
<g id="graph0" class="graph" transform="scale(1 1) rotate(0) translate(4 217.6)">
<title>G</title>
<polygon fill="#ffffff" stroke="transparent" points="-4,4 -4,-217.6 536.0702,-217.6 536.0702,4 -4,4"/>
<!-- GO:0071704 -->
<g id="node1" class="node">
<title>GO:0071704</title>
<polygon fill="#00ffff" stroke="#000000" points="116.5282,-58.6014 .157,-58.6014 .157,.2014 116.5282,.2014 116.5282,-58.6014"/>
<text text-anchor="middle" x="58.3426" y="-41.8" font-family="Times,serif" font-size="14.00" fill="#000000">GO:0071704</text>
<text text-anchor="middle" x="58.3426" y="-25" font-family="Times,serif" font-size="14.00" fill="#000000">organic substance</text>
<text text-anchor="middle" x="58.3426" y="-8.2" font-family="Times,serif" font-size="14.00" fill="#000000">metabolic process</text>
</g>
<!-- GO:0008152 -->
<g id="node2" class="node">
<title>GO:0008152</title>
<polygon fill="#00ffff" stroke="#000000" points="240.5282,-135.8019 124.157,-135.8019 124.157,-94.5981 240.5282,-94.5981 240.5282,-135.8019"/>
<text text-anchor="middle" x="182.3426" y="-119.4" font-family="Times,serif" font-size="14.00" fill="#000000">GO:0008152</text>
<text text-anchor="middle" x="182.3426" y="-102.6" font-family="Times,serif" font-size="14.00" fill="#000000">metabolic process</text>
</g>
<!-- GO:0071704&#45;&gt;GO:0008152 -->
<g id="edge1" class="edge">
<title>GO:0071704&#45;&gt;GO:0008152</title>
<path fill="none" stroke="#000000" d="M100.6695,-58.5558C114.73,-68.3074 130.2964,-79.1035 144.0357,-88.6323"/>
<polygon fill="#000000" stroke="#000000" points="142.1126,-91.5579 152.3244,-94.3809 146.1019,-85.8059 142.1126,-91.5579"/>
</g>
<!-- GO:0008150 -->
<g id="node3" class="node">
<title>GO:0008150</title>
<polygon fill="#ffffff" stroke="#000000" points="394.8132,-213.4019 273.872,-213.4019 273.872,-172.1981 394.8132,-172.1981 394.8132,-213.4019"/>
<text text-anchor="middle" x="334.3426" y="-197" font-family="Times,serif" font-size="14.00" fill="#000000">GO:0008150</text>
<text text-anchor="middle" x="334.3426" y="-180.2" font-family="Times,serif" font-size="14.00" fill="#000000">biological_process</text>
</g>
<!-- GO:0008152&#45;&gt;GO:0008150 -->
<g id="edge2" class="edge">
<title>GO:0008152&#45;&gt;GO:0008150</title>
<path fill="none" stroke="#000000" d="M223.0758,-135.9954C242.0642,-145.6895 264.8266,-157.3102 284.8023,-167.5084"/>
<polygon fill="#000000" stroke="#000000" points="283.2628,-170.6521 293.7607,-172.0819 286.4457,-164.4176 283.2628,-170.6521"/>
</g>
<!-- GO:0044699 -->
<g id="node4" class="node">
<title>GO:0044699</title>
<polygon fill="#00ffff" stroke="#000000" points="410.0239,-135.8019 258.6613,-135.8019 258.6613,-94.5981 410.0239,-94.5981 410.0239,-135.8019"/>
<text text-anchor="middle" x="334.3426" y="-119.4" font-family="Times,serif" font-size="14.00" fill="#000000">GO:0044699</text>
<text text-anchor="middle" x="334.3426" y="-102.6" font-family="Times,serif" font-size="14.00" fill="#000000">single&#45;organism process</text>
</g>
<!-- GO:0044699&#45;&gt;GO:0008150 -->
<g id="edge3" class="edge">
<title>GO:0044699&#45;&gt;GO:0008150</title>
<path fill="none" stroke="#000000" d="M334.3426,-135.9954C334.3426,-143.9109 334.3426,-153.1109 334.3426,-161.7722"/>
<polygon fill="#000000" stroke="#000000" points="330.8427,-161.9472 334.3426,-171.9472 337.8427,-161.9473 330.8427,-161.9472"/>
</g>
<!-- GO:0009987 -->
<g id="node5" class="node">
<title>GO:0009987</title>
<polygon fill="#00ffff" stroke="#000000" points="532.2988,-135.8019 428.3864,-135.8019 428.3864,-94.5981 532.2988,-94.5981 532.2988,-135.8019"/>
<text text-anchor="middle" x="480.3426" y="-119.4" font-family="Times,serif" font-size="14.00" fill="#000000">GO:0009987</text>
<text text-anchor="middle" x="480.3426" y="-102.6" font-family="Times,serif" font-size="14.00" fill="#000000">cellular process</text>
</g>
<!-- GO:0009987&#45;&gt;GO:0008150 -->
<g id="edge4" class="edge">
<title>GO:0009987&#45;&gt;GO:0008150</title>
<path fill="none" stroke="#000000" d="M441.2173,-135.9954C423.0606,-145.6458 401.3115,-157.2056 382.1868,-167.3705"/>
<polygon fill="#000000" stroke="#000000" points="380.5101,-164.2979 373.3226,-172.0819 383.7955,-170.4791 380.5101,-164.2979"/>
</g>
<!-- GO:0044238 -->
<g id="node6" class="node">
<title>GO:0044238</title>
<polygon fill="#00ffff" stroke="#000000" points="299.3456,-49.8019 135.3396,-49.8019 135.3396,-8.5981 299.3456,-8.5981 299.3456,-49.8019"/>
<text text-anchor="middle" x="217.3426" y="-33.4" font-family="Times,serif" font-size="14.00" fill="#000000">GO:0044238</text>
<text text-anchor="middle" x="217.3426" y="-16.6" font-family="Times,serif" font-size="14.00" fill="#000000">primary metabolic process</text>
</g>
<!-- GO:0044238&#45;&gt;GO:0008152 -->
<g id="edge5" class="edge">
<title>GO:0044238&#45;&gt;GO:0008152</title>
<path fill="none" stroke="#000000" d="M208.8701,-50.0182C204.571,-60.5818 199.2709,-73.6048 194.5413,-85.2261"/>
<polygon fill="#000000" stroke="#000000" points="191.2649,-83.9918 190.7371,-94.5735 197.7485,-86.6306 191.2649,-83.9918"/>
</g>
<!-- GO:0044237 -->
<g id="node7" class="node">
<title>GO:0044237</title>
<polygon fill="#00ffff" stroke="#000000" points="503.5254,-58.6014 387.1598,-58.6014 387.1598,.2014 503.5254,.2014 503.5254,-58.6014"/>
<text text-anchor="middle" x="445.3426" y="-41.8" font-family="Times,serif" font-size="14.00" fill="#000000">GO:0044237</text>
<text text-anchor="middle" x="445.3426" y="-25" font-family="Times,serif" font-size="14.00" fill="#000000">cellular metabolic</text>
<text text-anchor="middle" x="445.3426" y="-8.2" font-family="Times,serif" font-size="14.00" fill="#000000">process</text>
</g>
<!-- GO:0044237&#45;&gt;GO:0008152 -->
<g id="edge7" class="edge">
<title>GO:0044237&#45;&gt;GO:0008152</title>
<path fill="none" stroke="#000000" d="M386.9744,-48.2862C346.5404,-61.5079 292.5804,-79.1526 250.2229,-93.0034"/>
<polygon fill="#000000" stroke="#000000" points="248.9646,-89.7324 240.5477,-96.1672 251.1402,-96.3857 248.9646,-89.7324"/>
</g>
<!-- GO:0044237&#45;&gt;GO:0009987 -->
<g id="edge6" class="edge">
<title>GO:0044237&#45;&gt;GO:0009987</title>
<path fill="none" stroke="#000000" d="M457.3876,-58.7963C460.8644,-67.3393 464.6604,-76.6667 468.1463,-85.2321"/>
<polygon fill="#000000" stroke="#000000" points="464.9054,-86.5536 471.9168,-94.4966 471.389,-83.9149 464.9054,-86.5536"/>
</g>
</g>
</svg>
