<?xml version="1.0" encoding="UTF-8" standalone="no"?>
<!DOCTYPE svg PUBLIC "-//W3C//DTD SVG 1.1//EN"
 "http://www.w3.org/Graphics/SVG/1.1/DTD/svg11.dtd">
<!-- Generated by graphviz version 2.40.1 (20161225.0304)
 -->
<!-- Title: G Pages: 1 -->
<svg width="689pt" height="545pt"
 viewBox="0.00 0.00 689.32 544.80" xmlns="http://www.w3.org/2000/svg" xmlns:xlink="http://www.w3.org/1999/xlink">
<g id="graph0" class="graph" transform="scale(1 1) rotate(0) translate(4 540.8)">
<title>G</title>
<polygon fill="#ffffff" stroke="transparent" points="-4,4 -4,-540.8 685.3209,-540.8 685.3209,4 -4,4"/>
<!-- GO:0003676 -->
<g id="node1" class="node">
<title>GO:0003676</title>
<polygon fill="#00ffff" stroke="#000000" points="587.3425,-211.4019 458.2887,-211.4019 458.2887,-170.1981 587.3425,-170.1981 587.3425,-211.4019"/>
<text text-anchor="middle" x="522.8156" y="-195" font-family="Times,serif" font-size="14.00" fill="#000000">GO:0003676</text>
<text text-anchor="middle" x="522.8156" y="-178.2" font-family="Times,serif" font-size="14.00" fill="#000000">nucleic acid binding</text>
</g>
<!-- GO:0097159 -->
<g id="node2" class="node">
<title>GO:0097159</title>
<polygon fill="#ffff00" stroke="#000000" points="516.327,-339.8014 359.3042,-339.8014 359.3042,-280.9986 516.327,-280.9986 516.327,-339.8014"/>
<text text-anchor="middle" x="437.8156" y="-323" font-family="Times,serif" font-size="14.00" fill="#000000">GO:0097159</text>
<text text-anchor="middle" x="437.8156" y="-306.2" font-family="Times,serif" font-size="14.00" fill="#000000">organic cyclic compound</text>
<text text-anchor="middle" x="437.8156" y="-289.4" font-family="Times,serif" font-size="14.00" fill="#000000">binding</text>
</g>
<!-- GO:0003676&#45;&gt;GO:0097159 -->
<g id="edge1" class="edge">
<title>GO:0003676&#45;&gt;GO:0097159</title>
<path fill="none" stroke="#000000" d="M508.0097,-211.6327C496.1067,-228.381 479.0703,-252.3523 464.7621,-272.4847"/>
<polygon fill="#000000" stroke="#000000" points="461.7602,-270.6668 458.82,-280.8455 467.466,-274.722 461.7602,-270.6668"/>
</g>
<!-- GO:1901363 -->
<g id="node3" class="node">
<title>GO:1901363</title>
<polygon fill="#00ff00" stroke="#000000" points="681.3262,-339.8014 534.305,-339.8014 534.305,-280.9986 681.3262,-280.9986 681.3262,-339.8014"/>
<text text-anchor="middle" x="607.8156" y="-323" font-family="Times,serif" font-size="14.00" fill="#000000">GO:1901363</text>
<text text-anchor="middle" x="607.8156" y="-306.2" font-family="Times,serif" font-size="14.00" fill="#000000">heterocyclic compound</text>
<text text-anchor="middle" x="607.8156" y="-289.4" font-family="Times,serif" font-size="14.00" fill="#000000">binding</text>
</g>
<!-- GO:0003676&#45;&gt;GO:1901363 -->
<g id="edge2" class="edge">
<title>GO:0003676&#45;&gt;GO:1901363</title>
<path fill="none" stroke="#000000" d="M537.6215,-211.6327C549.5245,-228.381 566.5609,-252.3523 580.8691,-272.4847"/>
<polygon fill="#000000" stroke="#000000" points="578.1652,-274.722 586.8112,-280.8455 583.871,-270.6668 578.1652,-274.722"/>
</g>
<!-- GO:0005488 -->
<g id="node4" class="node">
<title>GO:0005488</title>
<polygon fill="#ffffff" stroke="#000000" points="488.4195,-442.2019 399.2117,-442.2019 399.2117,-400.9981 488.4195,-400.9981 488.4195,-442.2019"/>
<text text-anchor="middle" x="443.8156" y="-425.8" font-family="Times,serif" font-size="14.00" fill="#000000">GO:0005488</text>
<text text-anchor="middle" x="443.8156" y="-409" font-family="Times,serif" font-size="14.00" fill="#000000">binding</text>
</g>
<!-- GO:0097159&#45;&gt;GO:0005488 -->
<g id="edge3" class="edge">
<title>GO:0097159&#45;&gt;GO:0005488</title>
<path fill="none" stroke="#000000" d="M439.392,-339.6165C440.2327,-355.197 441.2675,-374.3758 442.1249,-390.2653"/>
<polygon fill="#000000" stroke="#000000" points="438.6517,-390.8587 442.6855,-400.6556 445.6415,-390.4815 438.6517,-390.8587"/>
</g>
<!-- GO:1901363&#45;&gt;GO:0005488 -->
<g id="edge4" class="edge">
<title>GO:1901363&#45;&gt;GO:0005488</title>
<path fill="none" stroke="#000000" d="M564.7265,-339.6165C539.3433,-356.8276 507.4842,-378.4296 482.8421,-395.1381"/>
<polygon fill="#000000" stroke="#000000" points="480.7619,-392.3199 474.4493,-400.8288 484.6904,-398.1136 480.7619,-392.3199"/>
</g>
<!-- GO:0003674 -->
<g id="node5" class="node">
<title>GO:0003674</title>
<polygon fill="#ffffff" stroke="#000000" points="388.4487,-536.6019 263.1825,-536.6019 263.1825,-495.3981 388.4487,-495.3981 388.4487,-536.6019"/>
<text text-anchor="middle" x="325.8156" y="-520.2" font-family="Times,serif" font-size="14.00" fill="#000000">GO:0003674</text>
<text text-anchor="middle" x="325.8156" y="-503.4" font-family="Times,serif" font-size="14.00" fill="#000000">molecular_function</text>
</g>
<!-- GO:0005488&#45;&gt;GO:0003674 -->
<g id="edge5" class="edge">
<title>GO:0005488&#45;&gt;GO:0003674</title>
<path fill="none" stroke="#000000" d="M417.92,-442.3165C400.7819,-456.027 378.1338,-474.1454 359.585,-488.9845"/>
<polygon fill="#000000" stroke="#000000" points="357.2731,-486.3518 351.6508,-495.3318 361.6459,-491.8179 357.2731,-486.3518"/>
</g>
<!-- GO:0098531 -->
<g id="node6" class="node">
<title>GO:0098531</title>
<polygon fill="#00ffff" stroke="#000000" points="139.4473,-236.8 .1839,-236.8 .1839,-144.8 139.4473,-144.8 139.4473,-236.8"/>
<text text-anchor="middle" x="69.8156" y="-220.2" font-family="Times,serif" font-size="14.00" fill="#000000">GO:0098531</text>
<text text-anchor="middle" x="69.8156" y="-203.4" font-family="Times,serif" font-size="14.00" fill="#000000">transcription factor</text>
<text text-anchor="middle" x="69.8156" y="-186.6" font-family="Times,serif" font-size="14.00" fill="#000000">activity, direct ligand</text>
<text text-anchor="middle" x="69.8156" y="-169.8" font-family="Times,serif" font-size="14.00" fill="#000000">regulated sequence&#45;</text>
<text text-anchor="middle" x="69.8156" y="-153" font-family="Times,serif" font-size="14.00" fill="#000000">specific DNA binding</text>
</g>
<!-- GO:0003700 -->
<g id="node7" class="node">
<title>GO:0003700</title>
<polygon fill="#ffff00" stroke="#000000" points="257.4473,-348.1003 118.1839,-348.1003 118.1839,-272.6997 257.4473,-272.6997 257.4473,-348.1003"/>
<text text-anchor="middle" x="187.8156" y="-331.4" font-family="Times,serif" font-size="14.00" fill="#000000">GO:0003700</text>
<text text-anchor="middle" x="187.8156" y="-314.6" font-family="Times,serif" font-size="14.00" fill="#000000">transcription factor</text>
<text text-anchor="middle" x="187.8156" y="-297.8" font-family="Times,serif" font-size="14.00" fill="#000000">activity, sequence&#45;</text>
<text text-anchor="middle" x="187.8156" y="-281" font-family="Times,serif" font-size="14.00" fill="#000000">specific DNA binding</text>
</g>
<!-- GO:0098531&#45;&gt;GO:0003700 -->
<g id="edge6" class="edge">
<title>GO:0098531&#45;&gt;GO:0003700</title>
<path fill="none" stroke="#000000" d="M115.4375,-237.0405C124.6488,-246.3767 134.3193,-256.1783 143.4854,-265.4687"/>
<polygon fill="#000000" stroke="#000000" points="141.1951,-268.1308 150.7099,-272.7912 146.1781,-263.2145 141.1951,-268.1308"/>
</g>
<!-- GO:0001071 -->
<g id="node8" class="node">
<title>GO:0001071</title>
<polygon fill="#ffffff" stroke="#000000" points="252.3425,-459.3003 123.2887,-459.3003 123.2887,-383.8997 252.3425,-383.8997 252.3425,-459.3003"/>
<text text-anchor="middle" x="187.8156" y="-442.6" font-family="Times,serif" font-size="14.00" fill="#000000">GO:0001071</text>
<text text-anchor="middle" x="187.8156" y="-425.8" font-family="Times,serif" font-size="14.00" fill="#000000">nucleic acid binding</text>
<text text-anchor="middle" x="187.8156" y="-409" font-family="Times,serif" font-size="14.00" fill="#000000">transcription factor</text>
<text text-anchor="middle" x="187.8156" y="-392.2" font-family="Times,serif" font-size="14.00" fill="#000000">activity</text>
</g>
<!-- GO:0003700&#45;&gt;GO:0001071 -->
<g id="edge7" class="edge">
<title>GO:0003700&#45;&gt;GO:0001071</title>
<path fill="none" stroke="#000000" d="M187.8156,-348.0472C187.8156,-356.38 187.8156,-365.3155 187.8156,-373.9863"/>
<polygon fill="#000000" stroke="#000000" points="184.3157,-373.9915 187.8156,-383.9915 191.3157,-373.9916 184.3157,-373.9915"/>
</g>
<!-- GO:0001071&#45;&gt;GO:0003674 -->
<g id="edge8" class="edge">
<title>GO:0001071&#45;&gt;GO:0003674</title>
<path fill="none" stroke="#000000" d="M243.1503,-459.4522C257.7901,-469.4666 273.2848,-480.0659 286.8539,-489.3479"/>
<polygon fill="#000000" stroke="#000000" points="285.2344,-492.4807 295.4642,-495.2379 289.1866,-486.7031 285.2344,-492.4807"/>
</g>
<!-- GO:0004871 -->
<g id="node9" class="node">
<title>GO:0004871</title>
<polygon fill="#00ff00" stroke="#000000" points="381.5565,-451.0014 270.0747,-451.0014 270.0747,-392.1986 381.5565,-392.1986 381.5565,-451.0014"/>
<text text-anchor="middle" x="325.8156" y="-434.2" font-family="Times,serif" font-size="14.00" fill="#000000">GO:0004871</text>
<text text-anchor="middle" x="325.8156" y="-417.4" font-family="Times,serif" font-size="14.00" fill="#000000">signal transducer</text>
<text text-anchor="middle" x="325.8156" y="-400.6" font-family="Times,serif" font-size="14.00" fill="#000000">activity</text>
</g>
<!-- GO:0004871&#45;&gt;GO:0003674 -->
<g id="edge9" class="edge">
<title>GO:0004871&#45;&gt;GO:0003674</title>
<path fill="none" stroke="#000000" d="M325.8156,-450.9513C325.8156,-461.8614 325.8156,-474.2637 325.8156,-485.292"/>
<polygon fill="#000000" stroke="#000000" points="322.3157,-485.3509 325.8156,-495.351 329.3157,-485.351 322.3157,-485.3509"/>
</g>
<!-- GO:0003677 -->
<g id="node10" class="node">
<title>GO:0003677</title>
<polygon fill="#00ffff" stroke="#000000" points="568.9175,-75.0019 476.7137,-75.0019 476.7137,-33.7981 568.9175,-33.7981 568.9175,-75.0019"/>
<text text-anchor="middle" x="522.8156" y="-58.6" font-family="Times,serif" font-size="14.00" fill="#000000">GO:0003677</text>
<text text-anchor="middle" x="522.8156" y="-41.8" font-family="Times,serif" font-size="14.00" fill="#000000">DNA binding</text>
</g>
<!-- GO:0003677&#45;&gt;GO:0003676 -->
<g id="edge10" class="edge">
<title>GO:0003677&#45;&gt;GO:0003676</title>
<path fill="none" stroke="#000000" d="M522.8156,-75.1162C522.8156,-97.6488 522.8156,-133.9096 522.8156,-159.8279"/>
<polygon fill="#000000" stroke="#000000" points="519.3157,-159.8888 522.8156,-169.8888 526.3157,-159.8889 519.3157,-159.8888"/>
</g>
<!-- GO:0004879 -->
<g id="node11" class="node">
<title>GO:0004879</title>
<polygon fill="#00ffff" stroke="#000000" points="297.4473,-108.7002 158.1839,-108.7002 158.1839,-.0998 297.4473,-.0998 297.4473,-108.7002"/>
<text text-anchor="middle" x="227.8156" y="-92.2" font-family="Times,serif" font-size="14.00" fill="#000000">GO:0004879</text>
<text text-anchor="middle" x="227.8156" y="-75.4" font-family="Times,serif" font-size="14.00" fill="#000000">RNA polymerase II</text>
<text text-anchor="middle" x="227.8156" y="-58.6" font-family="Times,serif" font-size="14.00" fill="#000000">transcription factor</text>
<text text-anchor="middle" x="227.8156" y="-41.8" font-family="Times,serif" font-size="14.00" fill="#000000">activity, ligand&#45;</text>
<text text-anchor="middle" x="227.8156" y="-25" font-family="Times,serif" font-size="14.00" fill="#000000">activated sequence&#45;</text>
<text text-anchor="middle" x="227.8156" y="-8.2" font-family="Times,serif" font-size="14.00" fill="#000000">specific DNA binding</text>
</g>
<!-- GO:0004879&#45;&gt;GO:0098531 -->
<g id="edge11" class="edge">
<title>GO:0004879&#45;&gt;GO:0098531</title>
<path fill="none" stroke="#000000" d="M164.9158,-108.7008C153.7284,-118.3588 142.0912,-128.4051 130.9537,-138.02"/>
<polygon fill="#000000" stroke="#000000" points="128.6171,-135.4133 123.3347,-144.5974 133.1914,-140.712 128.6171,-135.4133"/>
</g>
<!-- GO:0004879&#45;&gt;GO:0004871 -->
<g id="edge13" class="edge">
<title>GO:0004879&#45;&gt;GO:0004871</title>
<path fill="none" stroke="#000000" d="M285.0569,-108.8759C293.7379,-119.9315 301.5428,-132.0944 306.8156,-144.8 339.6848,-224.0033 336.027,-326.9094 330.7494,-382.2488"/>
<polygon fill="#000000" stroke="#000000" points="327.2533,-382.0326 329.7181,-392.3367 334.217,-382.7445 327.2533,-382.0326"/>
</g>
<!-- GO:0000981 -->
<g id="node12" class="node">
<title>GO:0000981</title>
<polygon fill="#00ffff" stroke="#000000" points="297.4473,-236.8 158.1839,-236.8 158.1839,-144.8 297.4473,-144.8 297.4473,-236.8"/>
<text text-anchor="middle" x="227.8156" y="-220.2" font-family="Times,serif" font-size="14.00" fill="#000000">GO:0000981</text>
<text text-anchor="middle" x="227.8156" y="-203.4" font-family="Times,serif" font-size="14.00" fill="#000000">RNA polymerase II</text>
<text text-anchor="middle" x="227.8156" y="-186.6" font-family="Times,serif" font-size="14.00" fill="#000000">transcription factor</text>
<text text-anchor="middle" x="227.8156" y="-169.8" font-family="Times,serif" font-size="14.00" fill="#000000">activity, sequence&#45;</text>
<text text-anchor="middle" x="227.8156" y="-153" font-family="Times,serif" font-size="14.00" fill="#000000">specific DNA binding</text>
</g>
<!-- GO:0004879&#45;&gt;GO:0000981 -->
<g id="edge12" class="edge">
<title>GO:0004879&#45;&gt;GO:0000981</title>
<path fill="none" stroke="#000000" d="M227.8156,-108.7008C227.8156,-117.1515 227.8156,-125.8996 227.8156,-134.3958"/>
<polygon fill="#000000" stroke="#000000" points="224.3157,-134.5974 227.8156,-144.5974 231.3157,-134.5974 224.3157,-134.5974"/>
</g>
<!-- GO:0000981&#45;&gt;GO:0003700 -->
<g id="edge14" class="edge">
<title>GO:0000981&#45;&gt;GO:0003700</title>
<path fill="none" stroke="#000000" d="M212.3506,-237.0405C209.4754,-245.6372 206.4683,-254.6285 203.5842,-263.252"/>
<polygon fill="#000000" stroke="#000000" points="200.2464,-262.1974 200.3938,-272.7912 206.8849,-264.4177 200.2464,-262.1974"/>
</g>
</g>
</svg>
