<?xml version="1.0" encoding="UTF-8" standalone="no"?>
<!DOCTYPE svg PUBLIC "-//W3C//DTD SVG 1.1//EN"
 "http://www.w3.org/Graphics/SVG/1.1/DTD/svg11.dtd">
<!-- Generated by graphviz version 2.40.1 (20161225.0304)
 -->
<!-- Title: G Pages: 1 -->
<svg width="451pt" height="471pt"
 viewBox="0.00 0.00 450.59 471.20" xmlns="http://www.w3.org/2000/svg" xmlns:xlink="http://www.w3.org/1999/xlink">
<g id="graph0" class="graph" transform="scale(1 1) rotate(0) translate(4 467.2)">
<title>G</title>
<polygon fill="#ffffff" stroke="transparent" points="-4,4 -4,-467.2 446.5895,-467.2 446.5895,4 -4,4"/>
<!-- GO:0005634 -->
<g id="node1" class="node">
<title>GO:0005634</title>
<polygon fill="#ffa500" stroke="#000000" points="184.5843,-41.4019 95.3765,-41.4019 95.3765,-.1981 184.5843,-.1981 184.5843,-41.4019"/>
<text text-anchor="middle" x="139.9804" y="-25" font-family="Times,serif" font-size="14.00" fill="#000000">GO:0005634</text>
<text text-anchor="middle" x="139.9804" y="-8.2" font-family="Times,serif" font-size="14.00" fill="#000000">nucleus</text>
</g>
<!-- GO:0043231 -->
<g id="node2" class="node">
<title>GO:0043231</title>
<polygon fill="#ffa500" stroke="#000000" points="215.3592,-136.2014 64.6016,-136.2014 64.6016,-77.3986 215.3592,-77.3986 215.3592,-136.2014"/>
<text text-anchor="middle" x="139.9804" y="-119.4" font-family="Times,serif" font-size="14.00" fill="#000000">GO:0043231</text>
<text text-anchor="middle" x="139.9804" y="-102.6" font-family="Times,serif" font-size="14.00" fill="#000000">intracellular membrane&#45;</text>
<text text-anchor="middle" x="139.9804" y="-85.8" font-family="Times,serif" font-size="14.00" fill="#000000">bounded organelle</text>
</g>
<!-- GO:0005634&#45;&gt;GO:0043231 -->
<g id="edge1" class="edge">
<title>GO:0005634&#45;&gt;GO:0043231</title>
<path fill="none" stroke="#000000" d="M139.9804,-41.6182C139.9804,-49.3358 139.9804,-58.3662 139.9804,-67.2036"/>
<polygon fill="#000000" stroke="#000000" points="136.4805,-67.3991 139.9804,-77.3991 143.4805,-67.3992 136.4805,-67.3991"/>
</g>
<!-- GO:0043229 -->
<g id="node3" class="node">
<title>GO:0043229</title>
<polygon fill="#ffffff" stroke="#000000" points="285.6988,-221.8019 146.262,-221.8019 146.262,-180.5981 285.6988,-180.5981 285.6988,-221.8019"/>
<text text-anchor="middle" x="215.9804" y="-205.4" font-family="Times,serif" font-size="14.00" fill="#000000">GO:0043229</text>
<text text-anchor="middle" x="215.9804" y="-188.6" font-family="Times,serif" font-size="14.00" fill="#000000">intracellular organelle</text>
</g>
<!-- GO:0043231&#45;&gt;GO:0043229 -->
<g id="edge2" class="edge">
<title>GO:0043231&#45;&gt;GO:0043229</title>
<path fill="none" stroke="#000000" d="M163.6107,-136.1513C172.9376,-147.7363 183.619,-161.0037 192.8922,-172.522"/>
<polygon fill="#000000" stroke="#000000" points="190.3588,-174.9565 199.3562,-180.551 195.8114,-170.5667 190.3588,-174.9565"/>
</g>
<!-- GO:0043227 -->
<g id="node4" class="node">
<title>GO:0043227</title>
<polygon fill="#ffffff" stroke="#000000" points="127.9412,-230.6014 .0196,-230.6014 .0196,-171.7986 127.9412,-171.7986 127.9412,-230.6014"/>
<text text-anchor="middle" x="63.9804" y="-213.8" font-family="Times,serif" font-size="14.00" fill="#000000">GO:0043227</text>
<text text-anchor="middle" x="63.9804" y="-197" font-family="Times,serif" font-size="14.00" fill="#000000">membrane&#45;bounded</text>
<text text-anchor="middle" x="63.9804" y="-180.2" font-family="Times,serif" font-size="14.00" fill="#000000">organelle</text>
</g>
<!-- GO:0043231&#45;&gt;GO:0043227 -->
<g id="edge3" class="edge">
<title>GO:0043231&#45;&gt;GO:0043227</title>
<path fill="none" stroke="#000000" d="M116.3501,-136.1513C109.2727,-144.9422 101.4154,-154.7018 93.9853,-163.9308"/>
<polygon fill="#000000" stroke="#000000" points="91.1409,-161.8826 87.5961,-171.8669 96.5934,-166.2724 91.1409,-161.8826"/>
</g>
<!-- GO:0044424 -->
<g id="node5" class="node">
<title>GO:0044424</title>
<polygon fill="#ff0000" stroke="#000000" points="331.3788,-307.8019 222.582,-307.8019 222.582,-266.5981 331.3788,-266.5981 331.3788,-307.8019"/>
<text text-anchor="middle" x="276.9804" y="-291.4" font-family="Times,serif" font-size="14.00" fill="#000000">GO:0044424</text>
<text text-anchor="middle" x="276.9804" y="-274.6" font-family="Times,serif" font-size="14.00" fill="#000000">intracellular part</text>
</g>
<!-- GO:0043229&#45;&gt;GO:0044424 -->
<g id="edge4" class="edge">
<title>GO:0043229&#45;&gt;GO:0044424</title>
<path fill="none" stroke="#000000" d="M230.7468,-222.0182C238.4643,-232.8987 248.0326,-246.3884 256.4589,-258.2681"/>
<polygon fill="#000000" stroke="#000000" points="253.7097,-260.4419 262.35,-266.5735 259.4193,-256.3921 253.7097,-260.4419"/>
</g>
<!-- GO:0043226 -->
<g id="node6" class="node">
<title>GO:0043226</title>
<polygon fill="#ffffff" stroke="#000000" points="204.5843,-307.8019 115.3765,-307.8019 115.3765,-266.5981 204.5843,-266.5981 204.5843,-307.8019"/>
<text text-anchor="middle" x="159.9804" y="-291.4" font-family="Times,serif" font-size="14.00" fill="#000000">GO:0043226</text>
<text text-anchor="middle" x="159.9804" y="-274.6" font-family="Times,serif" font-size="14.00" fill="#000000">organelle</text>
</g>
<!-- GO:0043229&#45;&gt;GO:0043226 -->
<g id="edge5" class="edge">
<title>GO:0043229&#45;&gt;GO:0043226</title>
<path fill="none" stroke="#000000" d="M202.4244,-222.0182C195.4082,-232.793 186.7258,-246.1267 179.0454,-257.9216"/>
<polygon fill="#000000" stroke="#000000" points="175.9354,-256.2836 173.4116,-266.5735 181.8014,-260.1034 175.9354,-256.2836"/>
</g>
<!-- GO:0043227&#45;&gt;GO:0043226 -->
<g id="edge6" class="edge">
<title>GO:0043227&#45;&gt;GO:0043226</title>
<path fill="none" stroke="#000000" d="M96.7497,-230.5558C107.2244,-239.9394 118.7787,-250.2902 129.1134,-259.5483"/>
<polygon fill="#000000" stroke="#000000" points="126.9568,-262.3154 136.7405,-266.3809 131.6275,-257.1015 126.9568,-262.3154"/>
</g>
<!-- GO:0044464 -->
<g id="node7" class="node">
<title>GO:0044464</title>
<polygon fill="#ff0000" stroke="#000000" points="308.5843,-385.4019 219.3765,-385.4019 219.3765,-344.1981 308.5843,-344.1981 308.5843,-385.4019"/>
<text text-anchor="middle" x="263.9804" y="-369" font-family="Times,serif" font-size="14.00" fill="#000000">GO:0044464</text>
<text text-anchor="middle" x="263.9804" y="-352.2" font-family="Times,serif" font-size="14.00" fill="#000000">cell part</text>
</g>
<!-- GO:0044424&#45;&gt;GO:0044464 -->
<g id="edge7" class="edge">
<title>GO:0044424&#45;&gt;GO:0044464</title>
<path fill="none" stroke="#000000" d="M273.4966,-307.9954C272.156,-315.9978 270.5954,-325.3133 269.1306,-334.0575"/>
<polygon fill="#000000" stroke="#000000" points="265.6742,-333.5063 267.4738,-343.9472 272.578,-334.663 265.6742,-333.5063"/>
</g>
<!-- GO:0005575 -->
<g id="node8" class="node">
<title>GO:0005575</title>
<polygon fill="#ffffff" stroke="#000000" points="327.6671,-463.0019 200.2937,-463.0019 200.2937,-421.7981 327.6671,-421.7981 327.6671,-463.0019"/>
<text text-anchor="middle" x="263.9804" y="-446.6" font-family="Times,serif" font-size="14.00" fill="#000000">GO:0005575</text>
<text text-anchor="middle" x="263.9804" y="-429.8" font-family="Times,serif" font-size="14.00" fill="#000000">cellular_component</text>
</g>
<!-- GO:0043226&#45;&gt;GO:0005575 -->
<g id="edge8" class="edge">
<title>GO:0043226&#45;&gt;GO:0005575</title>
<path fill="none" stroke="#000000" d="M168.5032,-308.1586C177.3686,-328.7847 192.3984,-360.7169 209.9804,-385.6 217.0249,-395.5698 225.7642,-405.5279 234.1453,-414.258"/>
<polygon fill="#000000" stroke="#000000" points="231.8536,-416.919 241.3665,-421.5833 236.8387,-412.0047 231.8536,-416.919"/>
</g>
<!-- GO:0044464&#45;&gt;GO:0005575 -->
<g id="edge9" class="edge">
<title>GO:0044464&#45;&gt;GO:0005575</title>
<path fill="none" stroke="#000000" d="M263.9804,-385.5954C263.9804,-393.5109 263.9804,-402.7109 263.9804,-411.3722"/>
<polygon fill="#000000" stroke="#000000" points="260.4805,-411.5472 263.9804,-421.5472 267.4805,-411.5473 260.4805,-411.5472"/>
</g>
<!-- GO:0044446 -->
<g id="node9" class="node">
<title>GO:0044446</title>
<polygon fill="#00ffff" stroke="#000000" points="442.6988,-230.6014 303.262,-230.6014 303.262,-171.7986 442.6988,-171.7986 442.6988,-230.6014"/>
<text text-anchor="middle" x="372.9804" y="-213.8" font-family="Times,serif" font-size="14.00" fill="#000000">GO:0044446</text>
<text text-anchor="middle" x="372.9804" y="-197" font-family="Times,serif" font-size="14.00" fill="#000000">intracellular organelle</text>
<text text-anchor="middle" x="372.9804" y="-180.2" font-family="Times,serif" font-size="14.00" fill="#000000">part</text>
</g>
<!-- GO:0044446&#45;&gt;GO:0044424 -->
<g id="edge10" class="edge">
<title>GO:0044446&#45;&gt;GO:0044424</title>
<path fill="none" stroke="#000000" d="M340.2111,-230.5558C329.7364,-239.9394 318.1821,-250.2902 307.8474,-259.5483"/>
<polygon fill="#000000" stroke="#000000" points="305.3333,-257.1015 300.2203,-266.3809 310.004,-262.3154 305.3333,-257.1015"/>
</g>
<!-- GO:0044422 -->
<g id="node10" class="node">
<title>GO:0044422</title>
<polygon fill="#ffffff" stroke="#000000" points="419.8325,-385.4019 326.1283,-385.4019 326.1283,-344.1981 419.8325,-344.1981 419.8325,-385.4019"/>
<text text-anchor="middle" x="372.9804" y="-369" font-family="Times,serif" font-size="14.00" fill="#000000">GO:0044422</text>
<text text-anchor="middle" x="372.9804" y="-352.2" font-family="Times,serif" font-size="14.00" fill="#000000">organelle part</text>
</g>
<!-- GO:0044446&#45;&gt;GO:0044422 -->
<g id="edge11" class="edge">
<title>GO:0044446&#45;&gt;GO:0044422</title>
<path fill="none" stroke="#000000" d="M372.9804,-230.4484C372.9804,-259.5891 372.9804,-304.1603 372.9804,-333.8759"/>
<polygon fill="#000000" stroke="#000000" points="369.4805,-334.0955 372.9804,-344.0955 376.4805,-334.0955 369.4805,-334.0955"/>
</g>
<!-- GO:0044422&#45;&gt;GO:0005575 -->
<g id="edge12" class="edge">
<title>GO:0044422&#45;&gt;GO:0005575</title>
<path fill="none" stroke="#000000" d="M343.7704,-385.5954C330.8193,-394.8156 315.42,-405.7788 301.6203,-415.6031"/>
<polygon fill="#000000" stroke="#000000" points="299.3876,-412.8963 293.271,-421.5472 303.4474,-418.5988 299.3876,-412.8963"/>
</g>
</g>
</svg>
