<?xml version="1.0" encoding="UTF-8" standalone="no"?>
<!DOCTYPE svg PUBLIC "-//W3C//DTD SVG 1.1//EN"
 "http://www.w3.org/Graphics/SVG/1.1/DTD/svg11.dtd">
<!-- Generated by graphviz version 2.40.1 (20161225.0304)
 -->
<!-- Title: G Pages: 1 -->
<svg width="274pt" height="282pt"
 viewBox="0.00 0.00 274.07 282.40" xmlns="http://www.w3.org/2000/svg" xmlns:xlink="http://www.w3.org/1999/xlink">
<g id="graph0" class="graph" transform="scale(1 1) rotate(0) translate(4 278.4)">
<title>G</title>
<polygon fill="#ffffff" stroke="transparent" points="-4,4 -4,-278.4 270.0674,-278.4 270.0674,4 -4,4"/>
<!-- GO:0043229 -->
<g id="node1" class="node">
<title>GO:0043229</title>
<polygon fill="#00ff00" stroke="#000000" points="266.1767,-41.4019 126.7399,-41.4019 126.7399,-.1981 266.1767,-.1981 266.1767,-41.4019"/>
<text text-anchor="middle" x="196.4583" y="-25" font-family="Times,serif" font-size="14.00" fill="#000000">GO:0043229</text>
<text text-anchor="middle" x="196.4583" y="-8.2" font-family="Times,serif" font-size="14.00" fill="#000000">intracellular organelle</text>
</g>
<!-- GO:0044424 -->
<g id="node2" class="node">
<title>GO:0044424</title>
<polygon fill="#ffff00" stroke="#000000" points="143.8567,-119.0019 35.0599,-119.0019 35.0599,-77.7981 143.8567,-77.7981 143.8567,-119.0019"/>
<text text-anchor="middle" x="89.4583" y="-102.6" font-family="Times,serif" font-size="14.00" fill="#000000">GO:0044424</text>
<text text-anchor="middle" x="89.4583" y="-85.8" font-family="Times,serif" font-size="14.00" fill="#000000">intracellular part</text>
</g>
<!-- GO:0043229&#45;&gt;GO:0044424 -->
<g id="edge1" class="edge">
<title>GO:0043229&#45;&gt;GO:0044424</title>
<path fill="none" stroke="#000000" d="M167.7843,-41.5954C155.0708,-50.8156 139.954,-61.7788 126.4076,-71.6031"/>
<polygon fill="#000000" stroke="#000000" points="124.2519,-68.8429 118.2115,-77.5472 128.3615,-74.5096 124.2519,-68.8429"/>
</g>
<!-- GO:0043226 -->
<g id="node3" class="node">
<title>GO:0043226</title>
<polygon fill="#ffffff" stroke="#000000" points="241.0622,-196.6019 151.8544,-196.6019 151.8544,-155.3981 241.0622,-155.3981 241.0622,-196.6019"/>
<text text-anchor="middle" x="196.4583" y="-180.2" font-family="Times,serif" font-size="14.00" fill="#000000">GO:0043226</text>
<text text-anchor="middle" x="196.4583" y="-163.4" font-family="Times,serif" font-size="14.00" fill="#000000">organelle</text>
</g>
<!-- GO:0043229&#45;&gt;GO:0043226 -->
<g id="edge2" class="edge">
<title>GO:0043229&#45;&gt;GO:0043226</title>
<path fill="none" stroke="#000000" d="M196.4583,-41.4094C196.4583,-67.9627 196.4583,-114.3577 196.4583,-145.1304"/>
<polygon fill="#000000" stroke="#000000" points="192.9584,-145.3054 196.4583,-155.3054 199.9584,-145.3054 192.9584,-145.3054"/>
</g>
<!-- GO:0044464 -->
<g id="node4" class="node">
<title>GO:0044464</title>
<polygon fill="#ffffff" stroke="#000000" points="134.0622,-196.6019 44.8544,-196.6019 44.8544,-155.3981 134.0622,-155.3981 134.0622,-196.6019"/>
<text text-anchor="middle" x="89.4583" y="-180.2" font-family="Times,serif" font-size="14.00" fill="#000000">GO:0044464</text>
<text text-anchor="middle" x="89.4583" y="-163.4" font-family="Times,serif" font-size="14.00" fill="#000000">cell part</text>
</g>
<!-- GO:0044424&#45;&gt;GO:0044464 -->
<g id="edge3" class="edge">
<title>GO:0044424&#45;&gt;GO:0044464</title>
<path fill="none" stroke="#000000" d="M89.4583,-119.1954C89.4583,-127.1109 89.4583,-136.3109 89.4583,-144.9722"/>
<polygon fill="#000000" stroke="#000000" points="85.9584,-145.1472 89.4583,-155.1472 92.9584,-145.1473 85.9584,-145.1472"/>
</g>
<!-- GO:0005575 -->
<g id="node5" class="node">
<title>GO:0005575</title>
<polygon fill="#ffffff" stroke="#000000" points="206.145,-274.2019 78.7716,-274.2019 78.7716,-232.9981 206.145,-232.9981 206.145,-274.2019"/>
<text text-anchor="middle" x="142.4583" y="-257.8" font-family="Times,serif" font-size="14.00" fill="#000000">GO:0005575</text>
<text text-anchor="middle" x="142.4583" y="-241" font-family="Times,serif" font-size="14.00" fill="#000000">cellular_component</text>
</g>
<!-- GO:0043226&#45;&gt;GO:0005575 -->
<g id="edge4" class="edge">
<title>GO:0043226&#45;&gt;GO:0005575</title>
<path fill="none" stroke="#000000" d="M181.9873,-196.7954C176.1159,-205.2328 169.2289,-215.1297 162.8629,-224.2778"/>
<polygon fill="#000000" stroke="#000000" points="159.8083,-222.5398 156.9693,-232.7472 165.5541,-226.5382 159.8083,-222.5398"/>
</g>
<!-- GO:0044464&#45;&gt;GO:0005575 -->
<g id="edge6" class="edge">
<title>GO:0044464&#45;&gt;GO:0005575</title>
<path fill="none" stroke="#000000" d="M103.6613,-196.7954C109.424,-205.2328 116.1835,-215.1297 122.4316,-224.2778"/>
<polygon fill="#000000" stroke="#000000" points="119.6858,-226.4634 128.2161,-232.7472 125.4663,-222.5154 119.6858,-226.4634"/>
</g>
<!-- GO:0044444 -->
<g id="node6" class="node">
<title>GO:0044444</title>
<polygon fill="#00ffff" stroke="#000000" points="108.8749,-41.4019 .0417,-41.4019 .0417,-.1981 108.8749,-.1981 108.8749,-41.4019"/>
<text text-anchor="middle" x="54.4583" y="-25" font-family="Times,serif" font-size="14.00" fill="#000000">GO:0044444</text>
<text text-anchor="middle" x="54.4583" y="-8.2" font-family="Times,serif" font-size="14.00" fill="#000000">cytoplasmic part</text>
</g>
<!-- GO:0044444&#45;&gt;GO:0044424 -->
<g id="edge5" class="edge">
<title>GO:0044444&#45;&gt;GO:0044424</title>
<path fill="none" stroke="#000000" d="M63.8377,-41.5954C67.5255,-49.7718 71.8315,-59.3189 75.8493,-68.227"/>
<polygon fill="#000000" stroke="#000000" points="72.751,-69.8705 80.0531,-77.5472 79.132,-66.9925 72.751,-69.8705"/>
</g>
</g>
</svg>
