<?xml version="1.0" encoding="UTF-8" standalone="no"?>
<!DOCTYPE svg PUBLIC "-//W3C//DTD SVG 1.1//EN"
 "http://www.w3.org/Graphics/SVG/1.1/DTD/svg11.dtd">
<!-- Generated by graphviz version 2.40.1 (20161225.0304)
 -->
<!-- Title: G Pages: 1 -->
<svg width="1045pt" height="727pt"
 viewBox="0.00 0.00 1045.47 727.20" xmlns="http://www.w3.org/2000/svg" xmlns:xlink="http://www.w3.org/1999/xlink">
<g id="graph0" class="graph" transform="scale(1 1) rotate(0) translate(4 723.2)">
<title>G</title>
<polygon fill="#ffffff" stroke="transparent" points="-4,4 -4,-723.2 1041.4713,-723.2 1041.4713,4 -4,4"/>
<!-- GO:0035639 -->
<g id="node1" class="node">
<title>GO:0035639</title>
<polygon fill="#ffffff" stroke="#000000" points="137.5303,-350.2014 .1563,-350.2014 .1563,-291.3986 137.5303,-291.3986 137.5303,-350.2014"/>
<text text-anchor="middle" x="68.8433" y="-333.4" font-family="Times,serif" font-size="14.00" fill="#000000">GO:0035639</text>
<text text-anchor="middle" x="68.8433" y="-316.6" font-family="Times,serif" font-size="14.00" fill="#000000">purine ribonucleoside</text>
<text text-anchor="middle" x="68.8433" y="-299.8" font-family="Times,serif" font-size="14.00" fill="#000000">triphosphate binding</text>
</g>
<!-- GO:1901265 -->
<g id="node2" class="node">
<title>GO:1901265</title>
<polygon fill="#ffffff" stroke="#000000" points="302.9774,-461.4014 166.7092,-461.4014 166.7092,-402.5986 302.9774,-402.5986 302.9774,-461.4014"/>
<text text-anchor="middle" x="234.8433" y="-444.6" font-family="Times,serif" font-size="14.00" fill="#000000">GO:1901265</text>
<text text-anchor="middle" x="234.8433" y="-427.8" font-family="Times,serif" font-size="14.00" fill="#000000">nucleoside phosphate</text>
<text text-anchor="middle" x="234.8433" y="-411" font-family="Times,serif" font-size="14.00" fill="#000000">binding</text>
</g>
<!-- GO:0035639&#45;&gt;GO:1901265 -->
<g id="edge1" class="edge">
<title>GO:0035639&#45;&gt;GO:1901265</title>
<path fill="none" stroke="#000000" d="M112.4578,-350.0165C134.008,-364.4525 160.1697,-381.9777 182.7643,-397.1133"/>
<polygon fill="#000000" stroke="#000000" points="180.976,-400.1281 191.2321,-402.7858 184.8719,-394.3124 180.976,-400.1281"/>
</g>
<!-- GO:0097159 -->
<g id="node3" class="node">
<title>GO:0097159</title>
<polygon fill="#ffffff" stroke="#000000" points="302.3547,-564.2014 145.3319,-564.2014 145.3319,-505.3986 302.3547,-505.3986 302.3547,-564.2014"/>
<text text-anchor="middle" x="223.8433" y="-547.4" font-family="Times,serif" font-size="14.00" fill="#000000">GO:0097159</text>
<text text-anchor="middle" x="223.8433" y="-530.6" font-family="Times,serif" font-size="14.00" fill="#000000">organic cyclic compound</text>
<text text-anchor="middle" x="223.8433" y="-513.8" font-family="Times,serif" font-size="14.00" fill="#000000">binding</text>
</g>
<!-- GO:1901265&#45;&gt;GO:0097159 -->
<g id="edge2" class="edge">
<title>GO:1901265&#45;&gt;GO:0097159</title>
<path fill="none" stroke="#000000" d="M231.6911,-461.4584C230.5635,-471.9969 229.2737,-484.0505 228.07,-495.2994"/>
<polygon fill="#000000" stroke="#000000" points="224.5798,-495.0217 226.9959,-505.3373 231.5401,-495.7665 224.5798,-495.0217"/>
</g>
<!-- GO:1901363 -->
<g id="node4" class="node">
<title>GO:1901363</title>
<polygon fill="#ffffff" stroke="#000000" points="467.3539,-564.2014 320.3327,-564.2014 320.3327,-505.3986 467.3539,-505.3986 467.3539,-564.2014"/>
<text text-anchor="middle" x="393.8433" y="-547.4" font-family="Times,serif" font-size="14.00" fill="#000000">GO:1901363</text>
<text text-anchor="middle" x="393.8433" y="-530.6" font-family="Times,serif" font-size="14.00" fill="#000000">heterocyclic compound</text>
<text text-anchor="middle" x="393.8433" y="-513.8" font-family="Times,serif" font-size="14.00" fill="#000000">binding</text>
</g>
<!-- GO:1901265&#45;&gt;GO:1901363 -->
<g id="edge3" class="edge">
<title>GO:1901265&#45;&gt;GO:1901363</title>
<path fill="none" stroke="#000000" d="M280.4063,-461.4584C299.0316,-473.5004 320.7163,-487.5204 340.1079,-500.0578"/>
<polygon fill="#000000" stroke="#000000" points="338.2507,-503.0249 348.5487,-505.5152 342.0513,-497.1465 338.2507,-503.0249"/>
</g>
<!-- GO:0005488 -->
<g id="node5" class="node">
<title>GO:0005488</title>
<polygon fill="#ffffff" stroke="#000000" points="603.4472,-641.4019 514.2394,-641.4019 514.2394,-600.1981 603.4472,-600.1981 603.4472,-641.4019"/>
<text text-anchor="middle" x="558.8433" y="-625" font-family="Times,serif" font-size="14.00" fill="#000000">GO:0005488</text>
<text text-anchor="middle" x="558.8433" y="-608.2" font-family="Times,serif" font-size="14.00" fill="#000000">binding</text>
</g>
<!-- GO:0097159&#45;&gt;GO:0005488 -->
<g id="edge4" class="edge">
<title>GO:0097159&#45;&gt;GO:0005488</title>
<path fill="none" stroke="#000000" d="M302.4557,-561.5717C305.2805,-562.4103 308.0829,-563.2227 310.8433,-564 376.6735,-582.5372 453.5924,-599.4288 504.1059,-609.8844"/>
<polygon fill="#000000" stroke="#000000" points="503.6577,-613.3654 514.1579,-611.9522 505.0682,-606.509 503.6577,-613.3654"/>
</g>
<!-- GO:1901363&#45;&gt;GO:0005488 -->
<g id="edge5" class="edge">
<title>GO:1901363&#45;&gt;GO:0005488</title>
<path fill="none" stroke="#000000" d="M450.1655,-564.1558C469.6612,-574.3172 491.3328,-585.6127 510.1621,-595.4267"/>
<polygon fill="#000000" stroke="#000000" points="508.6697,-598.5958 519.1552,-600.1141 511.9052,-592.3883 508.6697,-598.5958"/>
</g>
<!-- GO:0003674 -->
<g id="node6" class="node">
<title>GO:0003674</title>
<polygon fill="#ffffff" stroke="#000000" points="679.4764,-719.0019 554.2102,-719.0019 554.2102,-677.7981 679.4764,-677.7981 679.4764,-719.0019"/>
<text text-anchor="middle" x="616.8433" y="-702.6" font-family="Times,serif" font-size="14.00" fill="#000000">GO:0003674</text>
<text text-anchor="middle" x="616.8433" y="-685.8" font-family="Times,serif" font-size="14.00" fill="#000000">molecular_function</text>
</g>
<!-- GO:0005488&#45;&gt;GO:0003674 -->
<g id="edge6" class="edge">
<title>GO:0005488&#45;&gt;GO:0003674</title>
<path fill="none" stroke="#000000" d="M574.3862,-641.5954C580.7575,-650.1197 588.2424,-660.1339 595.1385,-669.3605"/>
<polygon fill="#000000" stroke="#000000" points="592.4672,-671.6327 601.2575,-677.5472 598.0741,-667.4419 592.4672,-671.6327"/>
</g>
<!-- GO:0004672 -->
<g id="node7" class="node">
<title>GO:0004672</title>
<polygon fill="#ffffff" stroke="#000000" points="1020.2563,-238.6019 879.4303,-238.6019 879.4303,-197.3981 1020.2563,-197.3981 1020.2563,-238.6019"/>
<text text-anchor="middle" x="949.8433" y="-222.2" font-family="Times,serif" font-size="14.00" fill="#000000">GO:0004672</text>
<text text-anchor="middle" x="949.8433" y="-205.4" font-family="Times,serif" font-size="14.00" fill="#000000">protein kinase activity</text>
</g>
<!-- GO:0016773 -->
<g id="node8" class="node">
<title>GO:0016773</title>
<polygon fill="#ffffff" stroke="#000000" points="922.2064,-358.5003 779.4802,-358.5003 779.4802,-283.0997 922.2064,-283.0997 922.2064,-358.5003"/>
<text text-anchor="middle" x="850.8433" y="-341.8" font-family="Times,serif" font-size="14.00" fill="#000000">GO:0016773</text>
<text text-anchor="middle" x="850.8433" y="-325" font-family="Times,serif" font-size="14.00" fill="#000000">phosphotransferase</text>
<text text-anchor="middle" x="850.8433" y="-308.2" font-family="Times,serif" font-size="14.00" fill="#000000">activity, alcohol group</text>
<text text-anchor="middle" x="850.8433" y="-291.4" font-family="Times,serif" font-size="14.00" fill="#000000">as acceptor</text>
</g>
<!-- GO:0004672&#45;&gt;GO:0016773 -->
<g id="edge7" class="edge">
<title>GO:0004672&#45;&gt;GO:0016773</title>
<path fill="none" stroke="#000000" d="M929.8092,-238.8031C919.6074,-249.3965 906.7801,-262.7161 894.4481,-275.5215"/>
<polygon fill="#000000" stroke="#000000" points="891.6836,-273.3464 887.2679,-282.9773 896.7257,-278.2021 891.6836,-273.3464"/>
</g>
<!-- GO:0016301 -->
<g id="node9" class="node">
<title>GO:0016301</title>
<polygon fill="#ffffff" stroke="#000000" points="1037.5996,-341.4019 940.087,-341.4019 940.087,-300.1981 1037.5996,-300.1981 1037.5996,-341.4019"/>
<text text-anchor="middle" x="988.8433" y="-325" font-family="Times,serif" font-size="14.00" fill="#000000">GO:0016301</text>
<text text-anchor="middle" x="988.8433" y="-308.2" font-family="Times,serif" font-size="14.00" fill="#000000">kinase activity</text>
</g>
<!-- GO:0004672&#45;&gt;GO:0016301 -->
<g id="edge8" class="edge">
<title>GO:0004672&#45;&gt;GO:0016301</title>
<path fill="none" stroke="#000000" d="M957.7355,-238.8031C963.3389,-253.573 970.9528,-273.6424 977.2453,-290.229"/>
<polygon fill="#000000" stroke="#000000" points="974.1432,-291.9196 980.9628,-300.0278 980.6881,-289.4365 974.1432,-291.9196"/>
</g>
<!-- GO:0016772 -->
<g id="node10" class="node">
<title>GO:0016772</title>
<polygon fill="#ffffff" stroke="#000000" points="954.8511,-469.7003 800.8355,-469.7003 800.8355,-394.2997 954.8511,-394.2997 954.8511,-469.7003"/>
<text text-anchor="middle" x="877.8433" y="-453" font-family="Times,serif" font-size="14.00" fill="#000000">GO:0016772</text>
<text text-anchor="middle" x="877.8433" y="-436.2" font-family="Times,serif" font-size="14.00" fill="#000000">transferase activity,</text>
<text text-anchor="middle" x="877.8433" y="-419.4" font-family="Times,serif" font-size="14.00" fill="#000000">transferring phosphorus&#45;</text>
<text text-anchor="middle" x="877.8433" y="-402.6" font-family="Times,serif" font-size="14.00" fill="#000000">containing groups</text>
</g>
<!-- GO:0016773&#45;&gt;GO:0016772 -->
<g id="edge9" class="edge">
<title>GO:0016773&#45;&gt;GO:0016772</title>
<path fill="none" stroke="#000000" d="M859.9843,-358.4472C862.0295,-366.8706 864.2243,-375.9098 866.351,-384.6689"/>
<polygon fill="#000000" stroke="#000000" points="862.951,-385.4997 868.7117,-394.3915 869.7533,-383.848 862.951,-385.4997"/>
</g>
<!-- GO:0016301&#45;&gt;GO:0016772 -->
<g id="edge10" class="edge">
<title>GO:0016301&#45;&gt;GO:0016772</title>
<path fill="none" stroke="#000000" d="M968.2252,-341.4553C955.3941,-354.3095 938.3798,-371.3544 922.5767,-387.186"/>
<polygon fill="#000000" stroke="#000000" points="920.008,-384.8051 915.4204,-394.3552 924.9623,-389.7504 920.008,-384.8051"/>
</g>
<!-- GO:0016740 -->
<g id="node11" class="node">
<title>GO:0016740</title>
<polygon fill="#ffffff" stroke="#000000" points="938.955,-555.4019 816.7316,-555.4019 816.7316,-514.1981 938.955,-514.1981 938.955,-555.4019"/>
<text text-anchor="middle" x="877.8433" y="-539" font-family="Times,serif" font-size="14.00" fill="#000000">GO:0016740</text>
<text text-anchor="middle" x="877.8433" y="-522.2" font-family="Times,serif" font-size="14.00" fill="#000000">transferase activity</text>
</g>
<!-- GO:0016772&#45;&gt;GO:0016740 -->
<g id="edge11" class="edge">
<title>GO:0016772&#45;&gt;GO:0016740</title>
<path fill="none" stroke="#000000" d="M877.8433,-469.6952C877.8433,-480.9552 877.8433,-493.1618 877.8433,-503.9299"/>
<polygon fill="#000000" stroke="#000000" points="874.3434,-504.1302 877.8433,-514.1302 881.3434,-504.1302 874.3434,-504.1302"/>
</g>
<!-- GO:0003824 -->
<g id="node12" class="node">
<title>GO:0003824</title>
<polygon fill="#ffffff" stroke="#000000" points="831.2557,-641.4019 722.4309,-641.4019 722.4309,-600.1981 831.2557,-600.1981 831.2557,-641.4019"/>
<text text-anchor="middle" x="776.8433" y="-625" font-family="Times,serif" font-size="14.00" fill="#000000">GO:0003824</text>
<text text-anchor="middle" x="776.8433" y="-608.2" font-family="Times,serif" font-size="14.00" fill="#000000">catalytic activity</text>
</g>
<!-- GO:0016740&#45;&gt;GO:0003824 -->
<g id="edge12" class="edge">
<title>GO:0016740&#45;&gt;GO:0003824</title>
<path fill="none" stroke="#000000" d="M853.394,-555.6182C839.9955,-567.0268 823.2279,-581.3042 808.8036,-593.5863"/>
<polygon fill="#000000" stroke="#000000" points="806.4122,-591.0256 801.0674,-600.1735 810.9503,-596.3553 806.4122,-591.0256"/>
</g>
<!-- GO:0003824&#45;&gt;GO:0003674 -->
<g id="edge13" class="edge">
<title>GO:0003824&#45;&gt;GO:0003674</title>
<path fill="none" stroke="#000000" d="M733.9662,-641.5954C713.8884,-651.3331 689.8021,-663.015 668.707,-673.2461"/>
<polygon fill="#000000" stroke="#000000" points="667.0313,-670.1688 659.5611,-677.6819 670.086,-676.4672 667.0313,-670.1688"/>
</g>
<!-- GO:0032559 -->
<g id="node13" class="node">
<title>GO:0032559</title>
<polygon fill="#ffffff" stroke="#000000" points="706.5303,-58.6014 569.1563,-58.6014 569.1563,.2014 706.5303,.2014 706.5303,-58.6014"/>
<text text-anchor="middle" x="637.8433" y="-41.8" font-family="Times,serif" font-size="14.00" fill="#000000">GO:0032559</text>
<text text-anchor="middle" x="637.8433" y="-25" font-family="Times,serif" font-size="14.00" fill="#000000">adenyl ribonucleotide</text>
<text text-anchor="middle" x="637.8433" y="-8.2" font-family="Times,serif" font-size="14.00" fill="#000000">binding</text>
</g>
<!-- GO:0032555 -->
<g id="node14" class="node">
<title>GO:0032555</title>
<polygon fill="#ffffff" stroke="#000000" points="789.976,-153.0014 653.7106,-153.0014 653.7106,-94.1986 789.976,-94.1986 789.976,-153.0014"/>
<text text-anchor="middle" x="721.8433" y="-136.2" font-family="Times,serif" font-size="14.00" fill="#000000">GO:0032555</text>
<text text-anchor="middle" x="721.8433" y="-119.4" font-family="Times,serif" font-size="14.00" fill="#000000">purine ribonucleotide</text>
<text text-anchor="middle" x="721.8433" y="-102.6" font-family="Times,serif" font-size="14.00" fill="#000000">binding</text>
</g>
<!-- GO:0032559&#45;&gt;GO:0032555 -->
<g id="edge14" class="edge">
<title>GO:0032559&#45;&gt;GO:0032555</title>
<path fill="none" stroke="#000000" d="M663.961,-58.5513C671.8624,-67.431 680.6433,-77.299 688.9287,-86.6103"/>
<polygon fill="#000000" stroke="#000000" points="686.4795,-89.1229 695.7418,-94.2669 691.7089,-84.4696 686.4795,-89.1229"/>
</g>
<!-- GO:0030554 -->
<g id="node15" class="node">
<title>GO:0030554</title>
<polygon fill="#ffffff" stroke="#000000" points="635.7604,-144.2019 473.9262,-144.2019 473.9262,-102.9981 635.7604,-102.9981 635.7604,-144.2019"/>
<text text-anchor="middle" x="554.8433" y="-127.8" font-family="Times,serif" font-size="14.00" fill="#000000">GO:0030554</text>
<text text-anchor="middle" x="554.8433" y="-111" font-family="Times,serif" font-size="14.00" fill="#000000">adenyl nucleotide binding</text>
</g>
<!-- GO:0032559&#45;&gt;GO:0030554 -->
<g id="edge15" class="edge">
<title>GO:0032559&#45;&gt;GO:0030554</title>
<path fill="none" stroke="#000000" d="M612.0366,-58.5513C601.7517,-70.2488 589.9587,-83.6615 579.7635,-95.257"/>
<polygon fill="#000000" stroke="#000000" points="576.9733,-93.1299 572.9987,-102.951 582.2303,-97.7521 576.9733,-93.1299"/>
</g>
<!-- GO:0017076 -->
<g id="node16" class="node">
<title>GO:0017076</title>
<polygon fill="#ffffff" stroke="#000000" points="634.706,-238.6019 474.9806,-238.6019 474.9806,-197.3981 634.706,-197.3981 634.706,-238.6019"/>
<text text-anchor="middle" x="554.8433" y="-222.2" font-family="Times,serif" font-size="14.00" fill="#000000">GO:0017076</text>
<text text-anchor="middle" x="554.8433" y="-205.4" font-family="Times,serif" font-size="14.00" fill="#000000">purine nucleotide binding</text>
</g>
<!-- GO:0032555&#45;&gt;GO:0017076 -->
<g id="edge16" class="edge">
<title>GO:0032555&#45;&gt;GO:0017076</title>
<path fill="none" stroke="#000000" d="M669.9189,-152.9513C647.6334,-165.5486 621.8289,-180.1351 600.31,-192.2991"/>
<polygon fill="#000000" stroke="#000000" points="598.3559,-189.3831 591.3728,-197.351 601.8006,-195.4769 598.3559,-189.3831"/>
</g>
<!-- GO:0032553 -->
<g id="node17" class="node">
<title>GO:0032553</title>
<polygon fill="#ffffff" stroke="#000000" points="796.4914,-238.6019 653.1952,-238.6019 653.1952,-197.3981 796.4914,-197.3981 796.4914,-238.6019"/>
<text text-anchor="middle" x="724.8433" y="-222.2" font-family="Times,serif" font-size="14.00" fill="#000000">GO:0032553</text>
<text text-anchor="middle" x="724.8433" y="-205.4" font-family="Times,serif" font-size="14.00" fill="#000000">ribonucleotide binding</text>
</g>
<!-- GO:0032555&#45;&gt;GO:0032553 -->
<g id="edge17" class="edge">
<title>GO:0032555&#45;&gt;GO:0032553</title>
<path fill="none" stroke="#000000" d="M722.7761,-152.9513C723.1228,-163.8614 723.5169,-176.2637 723.8674,-187.292"/>
<polygon fill="#000000" stroke="#000000" points="720.3711,-187.4672 724.1871,-197.351 727.3676,-187.2448 720.3711,-187.4672"/>
</g>
<!-- GO:0030554&#45;&gt;GO:0017076 -->
<g id="edge18" class="edge">
<title>GO:0030554&#45;&gt;GO:0017076</title>
<path fill="none" stroke="#000000" d="M554.8433,-144.5504C554.8433,-157.0165 554.8433,-173.0645 554.8433,-186.9786"/>
<polygon fill="#000000" stroke="#000000" points="551.3434,-187.1081 554.8433,-197.1081 558.3434,-187.1082 551.3434,-187.1081"/>
</g>
<!-- GO:0000166 -->
<g id="node18" class="node">
<title>GO:0000166</title>
<polygon fill="#ffffff" stroke="#000000" points="618.9408,-341.4019 498.7458,-341.4019 498.7458,-300.1981 618.9408,-300.1981 618.9408,-341.4019"/>
<text text-anchor="middle" x="558.8433" y="-325" font-family="Times,serif" font-size="14.00" fill="#000000">GO:0000166</text>
<text text-anchor="middle" x="558.8433" y="-308.2" font-family="Times,serif" font-size="14.00" fill="#000000">nucleotide binding</text>
</g>
<!-- GO:0017076&#45;&gt;GO:0000166 -->
<g id="edge19" class="edge">
<title>GO:0017076&#45;&gt;GO:0000166</title>
<path fill="none" stroke="#000000" d="M555.6528,-238.8031C556.222,-253.4337 556.9937,-273.2642 557.6355,-289.7586"/>
<polygon fill="#000000" stroke="#000000" points="554.1488,-290.1715 558.035,-300.0278 561.1435,-289.8993 554.1488,-290.1715"/>
</g>
<!-- GO:0032553&#45;&gt;GO:0000166 -->
<g id="edge21" class="edge">
<title>GO:0032553&#45;&gt;GO:0000166</title>
<path fill="none" stroke="#000000" d="M691.2507,-238.8031C665.263,-254.8967 629.115,-277.2824 601.1534,-294.5983"/>
<polygon fill="#000000" stroke="#000000" points="599.045,-291.7872 592.3859,-300.0278 602.7305,-297.7384 599.045,-291.7872"/>
</g>
<!-- GO:0097367 -->
<g id="node19" class="node">
<title>GO:0097367</title>
<polygon fill="#ffffff" stroke="#000000" points="798.8904,-564.2014 650.7962,-564.2014 650.7962,-505.3986 798.8904,-505.3986 798.8904,-564.2014"/>
<text text-anchor="middle" x="724.8433" y="-547.4" font-family="Times,serif" font-size="14.00" fill="#000000">GO:0097367</text>
<text text-anchor="middle" x="724.8433" y="-530.6" font-family="Times,serif" font-size="14.00" fill="#000000">carbohydrate derivative</text>
<text text-anchor="middle" x="724.8433" y="-513.8" font-family="Times,serif" font-size="14.00" fill="#000000">binding</text>
</g>
<!-- GO:0032553&#45;&gt;GO:0097367 -->
<g id="edge20" class="edge">
<title>GO:0032553&#45;&gt;GO:0097367</title>
<path fill="none" stroke="#000000" d="M724.8433,-238.7861C724.8433,-290.7908 724.8433,-427.2152 724.8433,-495.1639"/>
<polygon fill="#000000" stroke="#000000" points="721.3434,-495.4579 724.8433,-505.4579 728.3434,-495.458 721.3434,-495.4579"/>
</g>
<!-- GO:0000166&#45;&gt;GO:1901265 -->
<g id="edge23" class="edge">
<title>GO:0000166&#45;&gt;GO:1901265</title>
<path fill="none" stroke="#000000" d="M524.814,-341.4489C513.6497,-347.5726 500.9863,-353.8505 488.8433,-358.4 421.3995,-383.6684 399.6769,-373.2081 330.8433,-394.4 324.8933,-396.2318 318.7879,-398.26 312.6794,-400.3973"/>
<polygon fill="#000000" stroke="#000000" points="311.3307,-397.1626 303.0994,-403.8332 313.6939,-403.7517 311.3307,-397.1626"/>
</g>
<!-- GO:0036094 -->
<g id="node20" class="node">
<title>GO:0036094</title>
<polygon fill="#ffffff" stroke="#000000" points="632.7717,-555.4019 484.9149,-555.4019 484.9149,-514.1981 632.7717,-514.1981 632.7717,-555.4019"/>
<text text-anchor="middle" x="558.8433" y="-539" font-family="Times,serif" font-size="14.00" fill="#000000">GO:0036094</text>
<text text-anchor="middle" x="558.8433" y="-522.2" font-family="Times,serif" font-size="14.00" fill="#000000">small molecule binding</text>
</g>
<!-- GO:0000166&#45;&gt;GO:0036094 -->
<g id="edge22" class="edge">
<title>GO:0000166&#45;&gt;GO:0036094</title>
<path fill="none" stroke="#000000" d="M558.8433,-341.7089C558.8433,-379.6015 558.8433,-459.781 558.8433,-503.969"/>
<polygon fill="#000000" stroke="#000000" points="555.3434,-504.1213 558.8433,-514.1213 562.3434,-504.1214 555.3434,-504.1213"/>
</g>
<!-- GO:0097367&#45;&gt;GO:0005488 -->
<g id="edge24" class="edge">
<title>GO:0097367&#45;&gt;GO:0005488</title>
<path fill="none" stroke="#000000" d="M668.1798,-564.1558C648.5659,-574.3172 626.763,-585.6127 607.8196,-595.4267"/>
<polygon fill="#000000" stroke="#000000" points="606.0411,-592.4063 598.7719,-600.1141 609.2611,-598.6217 606.0411,-592.4063"/>
</g>
<!-- GO:0036094&#45;&gt;GO:0005488 -->
<g id="edge25" class="edge">
<title>GO:0036094&#45;&gt;GO:0005488</title>
<path fill="none" stroke="#000000" d="M558.8433,-555.6182C558.8433,-565.9705 558.8433,-578.6848 558.8433,-590.1271"/>
<polygon fill="#000000" stroke="#000000" points="555.3434,-590.1735 558.8433,-600.1735 562.3434,-590.1735 555.3434,-590.1735"/>
</g>
<!-- GO:0032550 -->
<g id="node21" class="node">
<title>GO:0032550</title>
<polygon fill="#ffffff" stroke="#000000" points="381.5303,-247.4014 244.1563,-247.4014 244.1563,-188.5986 381.5303,-188.5986 381.5303,-247.4014"/>
<text text-anchor="middle" x="312.8433" y="-230.6" font-family="Times,serif" font-size="14.00" fill="#000000">GO:0032550</text>
<text text-anchor="middle" x="312.8433" y="-213.8" font-family="Times,serif" font-size="14.00" fill="#000000">purine ribonucleoside</text>
<text text-anchor="middle" x="312.8433" y="-197" font-family="Times,serif" font-size="14.00" fill="#000000">binding</text>
</g>
<!-- GO:0001883 -->
<g id="node22" class="node">
<title>GO:0001883</title>
<polygon fill="#ffffff" stroke="#000000" points="317.7604,-341.4019 155.9262,-341.4019 155.9262,-300.1981 317.7604,-300.1981 317.7604,-341.4019"/>
<text text-anchor="middle" x="236.8433" y="-325" font-family="Times,serif" font-size="14.00" fill="#000000">GO:0001883</text>
<text text-anchor="middle" x="236.8433" y="-308.2" font-family="Times,serif" font-size="14.00" fill="#000000">purine nucleoside binding</text>
</g>
<!-- GO:0032550&#45;&gt;GO:0001883 -->
<g id="edge26" class="edge">
<title>GO:0032550&#45;&gt;GO:0001883</title>
<path fill="none" stroke="#000000" d="M291.0648,-247.4584C280.7487,-261.4121 268.4692,-278.0219 258.2067,-291.9032"/>
<polygon fill="#000000" stroke="#000000" points="255.2435,-290.0238 252.1131,-300.1456 260.8723,-294.1852 255.2435,-290.0238"/>
</g>
<!-- GO:0032549 -->
<g id="node23" class="node">
<title>GO:0032549</title>
<polygon fill="#ffffff" stroke="#000000" points="480.0456,-341.4019 335.641,-341.4019 335.641,-300.1981 480.0456,-300.1981 480.0456,-341.4019"/>
<text text-anchor="middle" x="407.8433" y="-325" font-family="Times,serif" font-size="14.00" fill="#000000">GO:0032549</text>
<text text-anchor="middle" x="407.8433" y="-308.2" font-family="Times,serif" font-size="14.00" fill="#000000">ribonucleoside binding</text>
</g>
<!-- GO:0032550&#45;&gt;GO:0032549 -->
<g id="edge27" class="edge">
<title>GO:0032550&#45;&gt;GO:0032549</title>
<path fill="none" stroke="#000000" d="M340.0665,-247.4584C353.2048,-261.6754 368.8911,-278.6496 381.8625,-292.686"/>
<polygon fill="#000000" stroke="#000000" points="379.3986,-295.1769 388.7561,-300.1456 384.5396,-290.426 379.3986,-295.1769"/>
</g>
<!-- GO:0001882 -->
<g id="node24" class="node">
<title>GO:0001882</title>
<polygon fill="#ffffff" stroke="#000000" points="461.9942,-452.6019 339.6924,-452.6019 339.6924,-411.3981 461.9942,-411.3981 461.9942,-452.6019"/>
<text text-anchor="middle" x="400.8433" y="-436.2" font-family="Times,serif" font-size="14.00" fill="#000000">GO:0001882</text>
<text text-anchor="middle" x="400.8433" y="-419.4" font-family="Times,serif" font-size="14.00" fill="#000000">nucleoside binding</text>
</g>
<!-- GO:0001883&#45;&gt;GO:0001882 -->
<g id="edge28" class="edge">
<title>GO:0001883&#45;&gt;GO:0001882</title>
<path fill="none" stroke="#000000" d="M267.3061,-341.4553C293.9175,-359.4991 332.7072,-385.8004 361.6307,-405.412"/>
<polygon fill="#000000" stroke="#000000" points="360.0248,-408.5518 370.2658,-411.267 363.9533,-402.758 360.0248,-408.5518"/>
</g>
<!-- GO:0032549&#45;&gt;GO:0001882 -->
<g id="edge29" class="edge">
<title>GO:0032549&#45;&gt;GO:0001882</title>
<path fill="none" stroke="#000000" d="M406.5431,-341.4553C405.4889,-358.2017 403.987,-382.0608 402.7895,-401.0834"/>
<polygon fill="#000000" stroke="#000000" points="399.2956,-400.8778 402.1603,-411.078 406.2818,-401.3177 399.2956,-400.8778"/>
</g>
<!-- GO:0001882&#45;&gt;GO:0097159 -->
<g id="edge33" class="edge">
<title>GO:0001882&#45;&gt;GO:0097159</title>
<path fill="none" stroke="#000000" d="M365.0247,-452.8031C341.5078,-466.4615 310.1879,-484.6518 283.0231,-500.4289"/>
<polygon fill="#000000" stroke="#000000" points="281.254,-497.4088 274.3645,-505.4577 284.7697,-503.462 281.254,-497.4088"/>
</g>
<!-- GO:0001882&#45;&gt;GO:1901363 -->
<g id="edge32" class="edge">
<title>GO:0001882&#45;&gt;GO:1901363</title>
<path fill="none" stroke="#000000" d="M399.4267,-452.8031C398.5974,-464.9833 397.5225,-480.7676 396.5377,-495.2305"/>
<polygon fill="#000000" stroke="#000000" points="393.0289,-495.243 395.8413,-505.4577 400.0127,-495.7186 393.0289,-495.243"/>
</g>
<!-- GO:0001882&#45;&gt;GO:0097367 -->
<g id="edge31" class="edge">
<title>GO:0001882&#45;&gt;GO:0097367</title>
<path fill="none" stroke="#000000" d="M461.9802,-449.9006C508.539,-463.7093 574.4254,-483.6271 640.8778,-505.3238"/>
<polygon fill="#000000" stroke="#000000" points="640.0914,-508.7492 650.6841,-508.5374 642.2713,-502.0973 640.0914,-508.7492"/>
</g>
<!-- GO:0001882&#45;&gt;GO:0036094 -->
<g id="edge30" class="edge">
<title>GO:0001882&#45;&gt;GO:0036094</title>
<path fill="none" stroke="#000000" d="M432.817,-452.8031C457.4452,-468.8271 491.6605,-491.0887 518.2261,-508.3731"/>
<polygon fill="#000000" stroke="#000000" points="516.6264,-511.5079 526.9172,-514.0278 520.4439,-505.6405 516.6264,-511.5079"/>
</g>
</g>
</svg>
