<?xml version="1.0" encoding="UTF-8" standalone="no"?>
<!DOCTYPE svg PUBLIC "-//W3C//DTD SVG 1.1//EN"
 "http://www.w3.org/Graphics/SVG/1.1/DTD/svg11.dtd">
<!-- Generated by graphviz version 2.40.1 (20161225.0304)
 -->
<!-- Title: G Pages: 1 -->
<svg width="752pt" height="427pt"
 viewBox="0.00 0.00 752.01 427.20" xmlns="http://www.w3.org/2000/svg" xmlns:xlink="http://www.w3.org/1999/xlink">
<g id="graph0" class="graph" transform="scale(1 1) rotate(0) translate(4 423.2)">
<title>G</title>
<polygon fill="#ffffff" stroke="transparent" points="-4,4 -4,-423.2 748.0134,-423.2 748.0134,4 -4,4"/>
<!-- GO:0016321 -->
<g id="node1" class="node">
<title>GO:0016321</title>
<polygon fill="#ff0000" stroke="#000000" points="461.0174,-58.6014 284.6636,-58.6014 284.6636,.2014 461.0174,.2014 461.0174,-58.6014"/>
<text text-anchor="middle" x="372.8405" y="-41.8" font-family="Times,serif" font-size="14.00" fill="#000000">GO:0016321</text>
<text text-anchor="middle" x="372.8405" y="-25" font-family="Times,serif" font-size="14.00" fill="#000000">female meiosis chromosome</text>
<text text-anchor="middle" x="372.8405" y="-8.2" font-family="Times,serif" font-size="14.00" fill="#000000">segregation</text>
</g>
<!-- GO:0045132 -->
<g id="node2" class="node">
<title>GO:0045132</title>
<polygon fill="#ffffff" stroke="#000000" points="439.6478,-153.0014 306.0332,-153.0014 306.0332,-94.1986 439.6478,-94.1986 439.6478,-153.0014"/>
<text text-anchor="middle" x="372.8405" y="-136.2" font-family="Times,serif" font-size="14.00" fill="#000000">GO:0045132</text>
<text text-anchor="middle" x="372.8405" y="-119.4" font-family="Times,serif" font-size="14.00" fill="#000000">meiotic chromosome</text>
<text text-anchor="middle" x="372.8405" y="-102.6" font-family="Times,serif" font-size="14.00" fill="#000000">segregation</text>
</g>
<!-- GO:0016321&#45;&gt;GO:0045132 -->
<g id="edge1" class="edge">
<title>GO:0016321&#45;&gt;GO:0045132</title>
<path fill="none" stroke="#000000" d="M372.8405,-58.5513C372.8405,-66.6318 372.8405,-75.5308 372.8405,-84.0838"/>
<polygon fill="#000000" stroke="#000000" points="369.3406,-84.2668 372.8405,-94.2669 376.3406,-84.2669 369.3406,-84.2668"/>
</g>
<!-- GO:0044702 -->
<g id="node3" class="node">
<title>GO:0044702</title>
<polygon fill="#ffffff" stroke="#000000" points="298.0659,-247.4014 165.6151,-247.4014 165.6151,-188.5986 298.0659,-188.5986 298.0659,-247.4014"/>
<text text-anchor="middle" x="231.8405" y="-230.6" font-family="Times,serif" font-size="14.00" fill="#000000">GO:0044702</text>
<text text-anchor="middle" x="231.8405" y="-213.8" font-family="Times,serif" font-size="14.00" fill="#000000">single organism</text>
<text text-anchor="middle" x="231.8405" y="-197" font-family="Times,serif" font-size="14.00" fill="#000000">reproductive process</text>
</g>
<!-- GO:0045132&#45;&gt;GO:0044702 -->
<g id="edge2" class="edge">
<title>GO:0045132&#45;&gt;GO:0044702</title>
<path fill="none" stroke="#000000" d="M329.0001,-152.9513C314.8086,-162.4525 298.927,-173.0854 284.1824,-182.9569"/>
<polygon fill="#000000" stroke="#000000" points="282.0162,-180.1951 275.6538,-188.6669 285.9106,-186.0119 282.0162,-180.1951"/>
</g>
<!-- GO:0098813 -->
<g id="node4" class="node">
<title>GO:0098813</title>
<polygon fill="#ffffff" stroke="#000000" points="581.3511,-247.4014 448.3299,-247.4014 448.3299,-188.5986 581.3511,-188.5986 581.3511,-247.4014"/>
<text text-anchor="middle" x="514.8405" y="-230.6" font-family="Times,serif" font-size="14.00" fill="#000000">GO:0098813</text>
<text text-anchor="middle" x="514.8405" y="-213.8" font-family="Times,serif" font-size="14.00" fill="#000000">nuclear chromosome</text>
<text text-anchor="middle" x="514.8405" y="-197" font-family="Times,serif" font-size="14.00" fill="#000000">segregation</text>
</g>
<!-- GO:0045132&#45;&gt;GO:0098813 -->
<g id="edge3" class="edge">
<title>GO:0045132&#45;&gt;GO:0098813</title>
<path fill="none" stroke="#000000" d="M416.9918,-152.9513C431.2839,-162.4525 447.2783,-173.0854 462.1274,-182.9569"/>
<polygon fill="#000000" stroke="#000000" points="460.4511,-186.0454 470.7165,-188.6669 464.3264,-180.2159 460.4511,-186.0454"/>
</g>
<!-- GO:1903046 -->
<g id="node5" class="node">
<title>GO:1903046</title>
<polygon fill="#ffffff" stroke="#000000" points="430.0772,-247.4014 315.6038,-247.4014 315.6038,-188.5986 430.0772,-188.5986 430.0772,-247.4014"/>
<text text-anchor="middle" x="372.8405" y="-230.6" font-family="Times,serif" font-size="14.00" fill="#000000">GO:1903046</text>
<text text-anchor="middle" x="372.8405" y="-213.8" font-family="Times,serif" font-size="14.00" fill="#000000">meiotic cell cycle</text>
<text text-anchor="middle" x="372.8405" y="-197" font-family="Times,serif" font-size="14.00" fill="#000000">process</text>
</g>
<!-- GO:0045132&#45;&gt;GO:1903046 -->
<g id="edge4" class="edge">
<title>GO:0045132&#45;&gt;GO:1903046</title>
<path fill="none" stroke="#000000" d="M372.8405,-152.9513C372.8405,-161.0318 372.8405,-169.9308 372.8405,-178.4838"/>
<polygon fill="#000000" stroke="#000000" points="369.3406,-178.6668 372.8405,-188.6669 376.3406,-178.6669 369.3406,-178.6668"/>
</g>
<!-- GO:0022414 -->
<g id="node6" class="node">
<title>GO:0022414</title>
<polygon fill="#ffffff" stroke="#000000" points="302.0659,-324.6019 169.6151,-324.6019 169.6151,-283.3981 302.0659,-283.3981 302.0659,-324.6019"/>
<text text-anchor="middle" x="235.8405" y="-308.2" font-family="Times,serif" font-size="14.00" fill="#000000">GO:0022414</text>
<text text-anchor="middle" x="235.8405" y="-291.4" font-family="Times,serif" font-size="14.00" fill="#000000">reproductive process</text>
</g>
<!-- GO:0044702&#45;&gt;GO:0022414 -->
<g id="edge5" class="edge">
<title>GO:0044702&#45;&gt;GO:0022414</title>
<path fill="none" stroke="#000000" d="M233.2171,-247.5963C233.6016,-255.8638 234.0203,-264.8657 234.408,-273.2008"/>
<polygon fill="#000000" stroke="#000000" points="230.9166,-273.47 234.8775,-283.2966 237.9091,-273.1447 230.9166,-273.47"/>
</g>
<!-- GO:0044699 -->
<g id="node7" class="node">
<title>GO:0044699</title>
<polygon fill="#ffffff" stroke="#000000" points="151.5218,-324.6019 .1592,-324.6019 .1592,-283.3981 151.5218,-283.3981 151.5218,-324.6019"/>
<text text-anchor="middle" x="75.8405" y="-308.2" font-family="Times,serif" font-size="14.00" fill="#000000">GO:0044699</text>
<text text-anchor="middle" x="75.8405" y="-291.4" font-family="Times,serif" font-size="14.00" fill="#000000">single&#45;organism process</text>
</g>
<!-- GO:0044702&#45;&gt;GO:0044699 -->
<g id="edge6" class="edge">
<title>GO:0044702&#45;&gt;GO:0044699</title>
<path fill="none" stroke="#000000" d="M178.5905,-247.3558C160.4009,-257.3834 140.2079,-268.5154 122.5711,-278.2383"/>
<polygon fill="#000000" stroke="#000000" points="120.673,-275.288 113.6053,-283.1809 124.0525,-281.4182 120.673,-275.288"/>
</g>
<!-- GO:0007059 -->
<g id="node8" class="node">
<title>GO:0007059</title>
<polygon fill="#ffffff" stroke="#000000" points="744.1867,-324.6019 587.4943,-324.6019 587.4943,-283.3981 744.1867,-283.3981 744.1867,-324.6019"/>
<text text-anchor="middle" x="665.8405" y="-308.2" font-family="Times,serif" font-size="14.00" fill="#000000">GO:0007059</text>
<text text-anchor="middle" x="665.8405" y="-291.4" font-family="Times,serif" font-size="14.00" fill="#000000">chromosome segregation</text>
</g>
<!-- GO:0098813&#45;&gt;GO:0007059 -->
<g id="edge7" class="edge">
<title>GO:0098813&#45;&gt;GO:0007059</title>
<path fill="none" stroke="#000000" d="M566.3838,-247.3558C583.8289,-257.2914 603.1777,-268.3112 620.1372,-277.9703"/>
<polygon fill="#000000" stroke="#000000" points="618.8644,-281.2732 629.2861,-283.1809 622.3288,-275.1906 618.8644,-281.2732"/>
</g>
<!-- GO:0022402 -->
<g id="node9" class="node">
<title>GO:0022402</title>
<polygon fill="#ffffff" stroke="#000000" points="569.0646,-324.6019 454.6164,-324.6019 454.6164,-283.3981 569.0646,-283.3981 569.0646,-324.6019"/>
<text text-anchor="middle" x="511.8405" y="-308.2" font-family="Times,serif" font-size="14.00" fill="#000000">GO:0022402</text>
<text text-anchor="middle" x="511.8405" y="-291.4" font-family="Times,serif" font-size="14.00" fill="#000000">cell cycle process</text>
</g>
<!-- GO:0098813&#45;&gt;GO:0022402 -->
<g id="edge8" class="edge">
<title>GO:0098813&#45;&gt;GO:0022402</title>
<path fill="none" stroke="#000000" d="M513.8081,-247.5963C513.5197,-255.8638 513.2056,-264.8657 512.9149,-273.2008"/>
<polygon fill="#000000" stroke="#000000" points="509.4136,-273.1806 512.5627,-283.2966 516.4093,-273.4247 509.4136,-273.1806"/>
</g>
<!-- GO:1903046&#45;&gt;GO:0022414 -->
<g id="edge9" class="edge">
<title>GO:1903046&#45;&gt;GO:0022414</title>
<path fill="none" stroke="#000000" d="M326.076,-247.3558C310.3949,-257.1994 293.0185,-268.1073 277.7344,-277.7017"/>
<polygon fill="#000000" stroke="#000000" points="275.6145,-274.8999 269.0057,-283.1809 279.3361,-280.8286 275.6145,-274.8999"/>
</g>
<!-- GO:1903046&#45;&gt;GO:0022402 -->
<g id="edge10" class="edge">
<title>GO:1903046&#45;&gt;GO:0022402</title>
<path fill="none" stroke="#000000" d="M420.2876,-247.3558C436.1977,-257.1994 453.8278,-268.1073 469.335,-277.7017"/>
<polygon fill="#000000" stroke="#000000" points="467.8456,-280.8958 478.1911,-283.1809 471.5286,-274.9431 467.8456,-280.8958"/>
</g>
<!-- GO:0008150 -->
<g id="node10" class="node">
<title>GO:0008150</title>
<polygon fill="#ffffff" stroke="#000000" points="296.3111,-410.6019 175.3699,-410.6019 175.3699,-369.3981 296.3111,-369.3981 296.3111,-410.6019"/>
<text text-anchor="middle" x="235.8405" y="-394.2" font-family="Times,serif" font-size="14.00" fill="#000000">GO:0008150</text>
<text text-anchor="middle" x="235.8405" y="-377.4" font-family="Times,serif" font-size="14.00" fill="#000000">biological_process</text>
</g>
<!-- GO:0022414&#45;&gt;GO:0008150 -->
<g id="edge11" class="edge">
<title>GO:0022414&#45;&gt;GO:0008150</title>
<path fill="none" stroke="#000000" d="M235.8405,-324.8182C235.8405,-335.1705 235.8405,-347.8848 235.8405,-359.3271"/>
<polygon fill="#000000" stroke="#000000" points="232.3406,-359.3735 235.8405,-369.3735 239.3406,-359.3735 232.3406,-359.3735"/>
</g>
<!-- GO:0044699&#45;&gt;GO:0008150 -->
<g id="edge12" class="edge">
<title>GO:0044699&#45;&gt;GO:0008150</title>
<path fill="none" stroke="#000000" d="M114.572,-324.8182C136.7801,-336.755 164.8309,-351.8323 188.3593,-364.4788"/>
<polygon fill="#000000" stroke="#000000" points="187.0003,-367.7219 197.4656,-369.3735 190.3145,-361.5561 187.0003,-367.7219"/>
</g>
<!-- GO:0044763 -->
<g id="node11" class="node">
<title>GO:0044763</title>
<polygon fill="#ffffff" stroke="#000000" points="741.519,-419.4014 590.162,-419.4014 590.162,-360.5986 741.519,-360.5986 741.519,-419.4014"/>
<text text-anchor="middle" x="665.8405" y="-402.6" font-family="Times,serif" font-size="14.00" fill="#000000">GO:0044763</text>
<text text-anchor="middle" x="665.8405" y="-385.8" font-family="Times,serif" font-size="14.00" fill="#000000">single&#45;organism cellular</text>
<text text-anchor="middle" x="665.8405" y="-369" font-family="Times,serif" font-size="14.00" fill="#000000">process</text>
</g>
<!-- GO:0007059&#45;&gt;GO:0044763 -->
<g id="edge13" class="edge">
<title>GO:0007059&#45;&gt;GO:0044763</title>
<path fill="none" stroke="#000000" d="M665.8405,-324.8182C665.8405,-332.5358 665.8405,-341.5662 665.8405,-350.4036"/>
<polygon fill="#000000" stroke="#000000" points="662.3406,-350.5991 665.8405,-360.5991 669.3406,-350.5992 662.3406,-350.5991"/>
</g>
<!-- GO:0009987 -->
<g id="node12" class="node">
<title>GO:0009987</title>
<polygon fill="#ffffff" stroke="#000000" points="563.7967,-410.6019 459.8843,-410.6019 459.8843,-369.3981 563.7967,-369.3981 563.7967,-410.6019"/>
<text text-anchor="middle" x="511.8405" y="-394.2" font-family="Times,serif" font-size="14.00" fill="#000000">GO:0009987</text>
<text text-anchor="middle" x="511.8405" y="-377.4" font-family="Times,serif" font-size="14.00" fill="#000000">cellular process</text>
</g>
<!-- GO:0022402&#45;&gt;GO:0009987 -->
<g id="edge14" class="edge">
<title>GO:0022402&#45;&gt;GO:0009987</title>
<path fill="none" stroke="#000000" d="M511.8405,-324.8182C511.8405,-335.1705 511.8405,-347.8848 511.8405,-359.3271"/>
<polygon fill="#000000" stroke="#000000" points="508.3406,-359.3735 511.8405,-369.3735 515.3406,-359.3735 508.3406,-359.3735"/>
</g>
<!-- GO:0008152 -->
<g id="node13" class="node">
<title>GO:0008152</title>
<polygon fill="#00ffff" stroke="#000000" points="436.0261,-324.6019 319.6549,-324.6019 319.6549,-283.3981 436.0261,-283.3981 436.0261,-324.6019"/>
<text text-anchor="middle" x="377.8405" y="-308.2" font-family="Times,serif" font-size="14.00" fill="#000000">GO:0008152</text>
<text text-anchor="middle" x="377.8405" y="-291.4" font-family="Times,serif" font-size="14.00" fill="#000000">metabolic process</text>
</g>
<!-- GO:0008152&#45;&gt;GO:0008150 -->
<g id="edge15" class="edge">
<title>GO:0008152&#45;&gt;GO:0008150</title>
<path fill="none" stroke="#000000" d="M343.4663,-324.8182C323.9311,-336.6494 299.3018,-351.5657 278.5354,-364.1425"/>
<polygon fill="#000000" stroke="#000000" points="276.6387,-361.1994 269.8982,-369.3735 280.2649,-367.1869 276.6387,-361.1994"/>
</g>
</g>
</svg>
