<?xml version="1.0" encoding="UTF-8" standalone="no"?>
<!DOCTYPE svg PUBLIC "-//W3C//DTD SVG 1.1//EN"
 "http://www.w3.org/Graphics/SVG/1.1/DTD/svg11.dtd">
<!-- Generated by graphviz version 2.40.1 (20161225.0304)
 -->
<!-- Title: G Pages: 1 -->
<svg width="164pt" height="299pt"
 viewBox="0.00 0.00 163.60 299.20" xmlns="http://www.w3.org/2000/svg" xmlns:xlink="http://www.w3.org/1999/xlink">
<g id="graph0" class="graph" transform="scale(1 1) rotate(0) translate(4 295.2)">
<title>G</title>
<polygon fill="#ffffff" stroke="transparent" points="-4,4 -4,-295.2 159.5954,-295.2 159.5954,4 -4,4"/>
<!-- GO:0016787 -->
<g id="node1" class="node">
<title>GO:0016787</title>
<polygon fill="#00ffff" stroke="#000000" points="135.7143,-135.8019 19.8811,-135.8019 19.8811,-94.5981 135.7143,-94.5981 135.7143,-135.8019"/>
<text text-anchor="middle" x="77.7977" y="-119.4" font-family="Times,serif" font-size="14.00" fill="#000000">GO:0016787</text>
<text text-anchor="middle" x="77.7977" y="-102.6" font-family="Times,serif" font-size="14.00" fill="#000000">hydrolase activity</text>
</g>
<!-- GO:0003824 -->
<g id="node2" class="node">
<title>GO:0003824</title>
<polygon fill="#00ff00" stroke="#000000" points="132.2101,-213.4019 23.3853,-213.4019 23.3853,-172.1981 132.2101,-172.1981 132.2101,-213.4019"/>
<text text-anchor="middle" x="77.7977" y="-197" font-family="Times,serif" font-size="14.00" fill="#000000">GO:0003824</text>
<text text-anchor="middle" x="77.7977" y="-180.2" font-family="Times,serif" font-size="14.00" fill="#000000">catalytic activity</text>
</g>
<!-- GO:0016787&#45;&gt;GO:0003824 -->
<g id="edge1" class="edge">
<title>GO:0016787&#45;&gt;GO:0003824</title>
<path fill="none" stroke="#000000" d="M77.7977,-135.9954C77.7977,-143.9109 77.7977,-153.1109 77.7977,-161.7722"/>
<polygon fill="#000000" stroke="#000000" points="74.2978,-161.9472 77.7977,-171.9472 81.2978,-161.9473 74.2978,-161.9472"/>
</g>
<!-- GO:0003674 -->
<g id="node3" class="node">
<title>GO:0003674</title>
<polygon fill="#ffffff" stroke="#000000" points="140.4308,-291.0019 15.1646,-291.0019 15.1646,-249.7981 140.4308,-249.7981 140.4308,-291.0019"/>
<text text-anchor="middle" x="77.7977" y="-274.6" font-family="Times,serif" font-size="14.00" fill="#000000">GO:0003674</text>
<text text-anchor="middle" x="77.7977" y="-257.8" font-family="Times,serif" font-size="14.00" fill="#000000">molecular_function</text>
</g>
<!-- GO:0003824&#45;&gt;GO:0003674 -->
<g id="edge2" class="edge">
<title>GO:0003824&#45;&gt;GO:0003674</title>
<path fill="none" stroke="#000000" d="M77.7977,-213.5954C77.7977,-221.5109 77.7977,-230.7109 77.7977,-239.3722"/>
<polygon fill="#000000" stroke="#000000" points="74.2978,-239.5472 77.7977,-249.5472 81.2978,-239.5473 74.2978,-239.5472"/>
</g>
<!-- GO:0016798 -->
<g id="node4" class="node">
<title>GO:0016798</title>
<polygon fill="#00ffff" stroke="#000000" points="155.3936,-58.6014 .2018,-58.6014 .2018,.2014 155.3936,.2014 155.3936,-58.6014"/>
<text text-anchor="middle" x="77.7977" y="-41.8" font-family="Times,serif" font-size="14.00" fill="#000000">GO:0016798</text>
<text text-anchor="middle" x="77.7977" y="-25" font-family="Times,serif" font-size="14.00" fill="#000000">hydrolase activity,</text>
<text text-anchor="middle" x="77.7977" y="-8.2" font-family="Times,serif" font-size="14.00" fill="#000000">acting on glycosyl bonds</text>
</g>
<!-- GO:0016798&#45;&gt;GO:0016787 -->
<g id="edge3" class="edge">
<title>GO:0016798&#45;&gt;GO:0016787</title>
<path fill="none" stroke="#000000" d="M77.7977,-58.7963C77.7977,-67.0638 77.7977,-76.0657 77.7977,-84.4008"/>
<polygon fill="#000000" stroke="#000000" points="74.2978,-84.4965 77.7977,-94.4966 81.2978,-84.4966 74.2978,-84.4965"/>
</g>
</g>
</svg>
