<?xml version="1.0" encoding="UTF-8" standalone="no"?>
<!DOCTYPE svg PUBLIC "-//W3C//DTD SVG 1.1//EN"
 "http://www.w3.org/Graphics/SVG/1.1/DTD/svg11.dtd">
<!-- Generated by graphviz version 2.40.1 (20161225.0304)
 -->
<!-- Title: G Pages: 1 -->
<svg width="134pt" height="205pt"
 viewBox="0.00 0.00 133.63 204.80" xmlns="http://www.w3.org/2000/svg" xmlns:xlink="http://www.w3.org/1999/xlink">
<g id="graph0" class="graph" transform="scale(1 1) rotate(0) translate(4 200.8)">
<title>G</title>
<polygon fill="#ffffff" stroke="transparent" points="-4,4 -4,-200.8 129.6326,-200.8 129.6326,4 -4,4"/>
<!-- GO:0016787 -->
<g id="node1" class="node">
<title>GO:0016787</title>
<polygon fill="#00ffff" stroke="#000000" points="120.7329,-41.4019 4.8997,-41.4019 4.8997,-.1981 120.7329,-.1981 120.7329,-41.4019"/>
<text text-anchor="middle" x="62.8163" y="-25" font-family="Times,serif" font-size="14.00" fill="#000000">GO:0016787</text>
<text text-anchor="middle" x="62.8163" y="-8.2" font-family="Times,serif" font-size="14.00" fill="#000000">hydrolase activity</text>
</g>
<!-- GO:0003824 -->
<g id="node2" class="node">
<title>GO:0003824</title>
<polygon fill="#ffff00" stroke="#000000" points="117.2287,-119.0019 8.4039,-119.0019 8.4039,-77.7981 117.2287,-77.7981 117.2287,-119.0019"/>
<text text-anchor="middle" x="62.8163" y="-102.6" font-family="Times,serif" font-size="14.00" fill="#000000">GO:0003824</text>
<text text-anchor="middle" x="62.8163" y="-85.8" font-family="Times,serif" font-size="14.00" fill="#000000">catalytic activity</text>
</g>
<!-- GO:0016787&#45;&gt;GO:0003824 -->
<g id="edge1" class="edge">
<title>GO:0016787&#45;&gt;GO:0003824</title>
<path fill="none" stroke="#000000" d="M62.8163,-41.5954C62.8163,-49.5109 62.8163,-58.7109 62.8163,-67.3722"/>
<polygon fill="#000000" stroke="#000000" points="59.3164,-67.5472 62.8163,-77.5472 66.3164,-67.5473 59.3164,-67.5472"/>
</g>
<!-- GO:0003674 -->
<g id="node3" class="node">
<title>GO:0003674</title>
<polygon fill="#ffffff" stroke="#000000" points="125.4494,-196.6019 .1832,-196.6019 .1832,-155.3981 125.4494,-155.3981 125.4494,-196.6019"/>
<text text-anchor="middle" x="62.8163" y="-180.2" font-family="Times,serif" font-size="14.00" fill="#000000">GO:0003674</text>
<text text-anchor="middle" x="62.8163" y="-163.4" font-family="Times,serif" font-size="14.00" fill="#000000">molecular_function</text>
</g>
<!-- GO:0003824&#45;&gt;GO:0003674 -->
<g id="edge2" class="edge">
<title>GO:0003824&#45;&gt;GO:0003674</title>
<path fill="none" stroke="#000000" d="M62.8163,-119.1954C62.8163,-127.1109 62.8163,-136.3109 62.8163,-144.9722"/>
<polygon fill="#000000" stroke="#000000" points="59.3164,-145.1472 62.8163,-155.1472 66.3164,-145.1473 59.3164,-145.1472"/>
</g>
</g>
</svg>
