<?xml version="1.0" encoding="UTF-8" standalone="no"?>
<!DOCTYPE svg PUBLIC "-//W3C//DTD SVG 1.1//EN"
 "http://www.w3.org/Graphics/SVG/1.1/DTD/svg11.dtd">
<!-- Generated by graphviz version 2.40.1 (20161225.0304)
 -->
<!-- Title: G Pages: 1 -->
<svg width="473pt" height="394pt"
 viewBox="0.00 0.00 473.10 393.60" xmlns="http://www.w3.org/2000/svg" xmlns:xlink="http://www.w3.org/1999/xlink">
<g id="graph0" class="graph" transform="scale(1 1) rotate(0) translate(4 389.6)">
<title>G</title>
<polygon fill="#ffffff" stroke="transparent" points="-4,4 -4,-389.6 469.1007,-389.6 469.1007,4 -4,4"/>
<!-- GO:0043229 -->
<g id="node1" class="node">
<title>GO:0043229</title>
<polygon fill="#00ffff" stroke="#000000" points="285.6988,-144.2019 146.262,-144.2019 146.262,-102.9981 285.6988,-102.9981 285.6988,-144.2019"/>
<text text-anchor="middle" x="215.9804" y="-127.8" font-family="Times,serif" font-size="14.00" fill="#000000">GO:0043229</text>
<text text-anchor="middle" x="215.9804" y="-111" font-family="Times,serif" font-size="14.00" fill="#000000">intracellular organelle</text>
</g>
<!-- GO:0044424 -->
<g id="node2" class="node">
<title>GO:0044424</title>
<polygon fill="#ffa500" stroke="#000000" points="328.3788,-230.2019 219.582,-230.2019 219.582,-188.9981 328.3788,-188.9981 328.3788,-230.2019"/>
<text text-anchor="middle" x="273.9804" y="-213.8" font-family="Times,serif" font-size="14.00" fill="#000000">GO:0044424</text>
<text text-anchor="middle" x="273.9804" y="-197" font-family="Times,serif" font-size="14.00" fill="#000000">intracellular part</text>
</g>
<!-- GO:0043229&#45;&gt;GO:0044424 -->
<g id="edge1" class="edge">
<title>GO:0043229&#45;&gt;GO:0044424</title>
<path fill="none" stroke="#000000" d="M230.0206,-144.4182C237.3586,-155.2987 246.4563,-168.7884 254.4682,-180.6681"/>
<polygon fill="#000000" stroke="#000000" points="251.5763,-182.6398 260.0695,-188.9735 257.3798,-178.7258 251.5763,-182.6398"/>
</g>
<!-- GO:0043226 -->
<g id="node3" class="node">
<title>GO:0043226</title>
<polygon fill="#00ff00" stroke="#000000" points="201.5843,-230.2019 112.3765,-230.2019 112.3765,-188.9981 201.5843,-188.9981 201.5843,-230.2019"/>
<text text-anchor="middle" x="156.9804" y="-213.8" font-family="Times,serif" font-size="14.00" fill="#000000">GO:0043226</text>
<text text-anchor="middle" x="156.9804" y="-197" font-family="Times,serif" font-size="14.00" fill="#000000">organelle</text>
</g>
<!-- GO:0043229&#45;&gt;GO:0043226 -->
<g id="edge2" class="edge">
<title>GO:0043229&#45;&gt;GO:0043226</title>
<path fill="none" stroke="#000000" d="M201.6981,-144.4182C194.2336,-155.2987 184.9791,-168.7884 176.829,-180.6681"/>
<polygon fill="#000000" stroke="#000000" points="173.9022,-178.7475 171.1311,-188.9735 179.6744,-182.7075 173.9022,-178.7475"/>
</g>
<!-- GO:0044464 -->
<g id="node4" class="node">
<title>GO:0044464</title>
<polygon fill="#ff0000" stroke="#000000" points="324.5843,-307.8019 235.3765,-307.8019 235.3765,-266.5981 324.5843,-266.5981 324.5843,-307.8019"/>
<text text-anchor="middle" x="279.9804" y="-291.4" font-family="Times,serif" font-size="14.00" fill="#000000">GO:0044464</text>
<text text-anchor="middle" x="279.9804" y="-274.6" font-family="Times,serif" font-size="14.00" fill="#000000">cell part</text>
</g>
<!-- GO:0044424&#45;&gt;GO:0044464 -->
<g id="edge3" class="edge">
<title>GO:0044424&#45;&gt;GO:0044464</title>
<path fill="none" stroke="#000000" d="M275.5883,-230.3954C276.2003,-238.3109 276.9117,-247.5109 277.5813,-256.1722"/>
<polygon fill="#000000" stroke="#000000" points="274.1075,-256.6468 278.3681,-266.3472 281.0867,-256.1071 274.1075,-256.6468"/>
</g>
<!-- GO:0005575 -->
<g id="node5" class="node">
<title>GO:0005575</title>
<polygon fill="#ffffff" stroke="#000000" points="343.6671,-385.4019 216.2937,-385.4019 216.2937,-344.1981 343.6671,-344.1981 343.6671,-385.4019"/>
<text text-anchor="middle" x="279.9804" y="-369" font-family="Times,serif" font-size="14.00" fill="#000000">GO:0005575</text>
<text text-anchor="middle" x="279.9804" y="-352.2" font-family="Times,serif" font-size="14.00" fill="#000000">cellular_component</text>
</g>
<!-- GO:0043226&#45;&gt;GO:0005575 -->
<g id="edge4" class="edge">
<title>GO:0043226&#45;&gt;GO:0005575</title>
<path fill="none" stroke="#000000" d="M170.1428,-230.2181C183.4411,-250.5855 204.9699,-282.3262 225.9804,-308 233.9917,-317.7894 243.306,-327.9596 251.9204,-336.943"/>
<polygon fill="#000000" stroke="#000000" points="249.4689,-339.4425 258.9478,-344.1755 254.4893,-334.5644 249.4689,-339.4425"/>
</g>
<!-- GO:0044464&#45;&gt;GO:0005575 -->
<g id="edge9" class="edge">
<title>GO:0044464&#45;&gt;GO:0005575</title>
<path fill="none" stroke="#000000" d="M279.9804,-307.9954C279.9804,-315.9109 279.9804,-325.1109 279.9804,-333.7722"/>
<polygon fill="#000000" stroke="#000000" points="276.4805,-333.9472 279.9804,-343.9472 283.4805,-333.9473 276.4805,-333.9472"/>
</g>
<!-- GO:0043227 -->
<g id="node6" class="node">
<title>GO:0043227</title>
<polygon fill="#00ff00" stroke="#000000" points="127.9412,-153.0014 .0196,-153.0014 .0196,-94.1986 127.9412,-94.1986 127.9412,-153.0014"/>
<text text-anchor="middle" x="63.9804" y="-136.2" font-family="Times,serif" font-size="14.00" fill="#000000">GO:0043227</text>
<text text-anchor="middle" x="63.9804" y="-119.4" font-family="Times,serif" font-size="14.00" fill="#000000">membrane&#45;bounded</text>
<text text-anchor="middle" x="63.9804" y="-102.6" font-family="Times,serif" font-size="14.00" fill="#000000">organelle</text>
</g>
<!-- GO:0043227&#45;&gt;GO:0043226 -->
<g id="edge5" class="edge">
<title>GO:0043227&#45;&gt;GO:0043226</title>
<path fill="none" stroke="#000000" d="M95.7256,-152.9558C105.873,-162.3394 117.0663,-172.6902 127.078,-181.9483"/>
<polygon fill="#000000" stroke="#000000" points="124.7485,-184.5613 134.4668,-188.7809 129.501,-179.4219 124.7485,-184.5613"/>
</g>
<!-- GO:0016020 -->
<g id="node7" class="node">
<title>GO:0016020</title>
<polygon fill="#ffa500" stroke="#000000" points="443.5843,-307.8019 354.3765,-307.8019 354.3765,-266.5981 443.5843,-266.5981 443.5843,-307.8019"/>
<text text-anchor="middle" x="398.9804" y="-291.4" font-family="Times,serif" font-size="14.00" fill="#000000">GO:0016020</text>
<text text-anchor="middle" x="398.9804" y="-274.6" font-family="Times,serif" font-size="14.00" fill="#000000">membrane</text>
</g>
<!-- GO:0016020&#45;&gt;GO:0005575 -->
<g id="edge6" class="edge">
<title>GO:0016020&#45;&gt;GO:0005575</title>
<path fill="none" stroke="#000000" d="M367.0906,-307.9954C352.8179,-317.3026 335.8218,-328.3858 320.6476,-338.2809"/>
<polygon fill="#000000" stroke="#000000" points="318.4228,-335.5532 311.9582,-343.9472 322.2464,-341.4167 318.4228,-335.5532"/>
</g>
<!-- GO:0005886 -->
<g id="node8" class="node">
<title>GO:0005886</title>
<polygon fill="#ffff00" stroke="#000000" points="465.2212,-230.2019 346.7396,-230.2019 346.7396,-188.9981 465.2212,-188.9981 465.2212,-230.2019"/>
<text text-anchor="middle" x="405.9804" y="-213.8" font-family="Times,serif" font-size="14.00" fill="#000000">GO:0005886</text>
<text text-anchor="middle" x="405.9804" y="-197" font-family="Times,serif" font-size="14.00" fill="#000000">plasma membrane</text>
</g>
<!-- GO:0005886&#45;&gt;GO:0044464 -->
<g id="edge8" class="edge">
<title>GO:0005886&#45;&gt;GO:0044464</title>
<path fill="none" stroke="#000000" d="M372.2147,-230.3954C356.9612,-239.7896 338.7699,-250.9931 322.5899,-260.958"/>
<polygon fill="#000000" stroke="#000000" points="320.5186,-258.123 313.8393,-266.3472 324.1894,-264.0833 320.5186,-258.123"/>
</g>
<!-- GO:0005886&#45;&gt;GO:0016020 -->
<g id="edge7" class="edge">
<title>GO:0005886&#45;&gt;GO:0016020</title>
<path fill="none" stroke="#000000" d="M404.1045,-230.3954C403.3905,-238.3109 402.5606,-247.5109 401.7793,-256.1722"/>
<polygon fill="#000000" stroke="#000000" points="398.2741,-256.0732 400.8614,-266.3472 405.2458,-256.7021 398.2741,-256.0732"/>
</g>
<!-- GO:0043231 -->
<g id="node9" class="node">
<title>GO:0043231</title>
<polygon fill="#00ffff" stroke="#000000" points="215.3592,-58.6014 64.6016,-58.6014 64.6016,.2014 215.3592,.2014 215.3592,-58.6014"/>
<text text-anchor="middle" x="139.9804" y="-41.8" font-family="Times,serif" font-size="14.00" fill="#000000">GO:0043231</text>
<text text-anchor="middle" x="139.9804" y="-25" font-family="Times,serif" font-size="14.00" fill="#000000">intracellular membrane&#45;</text>
<text text-anchor="middle" x="139.9804" y="-8.2" font-family="Times,serif" font-size="14.00" fill="#000000">bounded organelle</text>
</g>
<!-- GO:0043231&#45;&gt;GO:0043229 -->
<g id="edge10" class="edge">
<title>GO:0043231&#45;&gt;GO:0043229</title>
<path fill="none" stroke="#000000" d="M163.6107,-58.5513C172.9376,-70.1363 183.619,-83.4037 192.8922,-94.922"/>
<polygon fill="#000000" stroke="#000000" points="190.3588,-97.3565 199.3562,-102.951 195.8114,-92.9667 190.3588,-97.3565"/>
</g>
<!-- GO:0043231&#45;&gt;GO:0043227 -->
<g id="edge11" class="edge">
<title>GO:0043231&#45;&gt;GO:0043227</title>
<path fill="none" stroke="#000000" d="M116.3501,-58.5513C109.2727,-67.3422 101.4154,-77.1018 93.9853,-86.3308"/>
<polygon fill="#000000" stroke="#000000" points="91.1409,-84.2826 87.5961,-94.2669 96.5934,-88.6724 91.1409,-84.2826"/>
</g>
<!-- GO:0044444 -->
<g id="node10" class="node">
<title>GO:0044444</title>
<polygon fill="#00ff00" stroke="#000000" points="412.397,-144.2019 303.5638,-144.2019 303.5638,-102.9981 412.397,-102.9981 412.397,-144.2019"/>
<text text-anchor="middle" x="357.9804" y="-127.8" font-family="Times,serif" font-size="14.00" fill="#000000">GO:0044444</text>
<text text-anchor="middle" x="357.9804" y="-111" font-family="Times,serif" font-size="14.00" fill="#000000">cytoplasmic part</text>
</g>
<!-- GO:0044444&#45;&gt;GO:0044424 -->
<g id="edge12" class="edge">
<title>GO:0044444&#45;&gt;GO:0044424</title>
<path fill="none" stroke="#000000" d="M337.6463,-144.4182C326.7094,-155.6156 313.0732,-169.5764 301.2297,-181.7019"/>
<polygon fill="#000000" stroke="#000000" points="298.6108,-179.3741 294.1272,-188.9735 303.6185,-184.2653 298.6108,-179.3741"/>
</g>
</g>
</svg>
