<?xml version="1.0" encoding="UTF-8" standalone="no"?>
<!DOCTYPE svg PUBLIC "-//W3C//DTD SVG 1.1//EN"
 "http://www.w3.org/Graphics/SVG/1.1/DTD/svg11.dtd">
<!-- Generated by graphviz version 2.40.1 (20161225.0304)
 -->
<!-- Title: G Pages: 1 -->
<svg width="439pt" height="410pt"
 viewBox="0.00 0.00 438.83 410.40" xmlns="http://www.w3.org/2000/svg" xmlns:xlink="http://www.w3.org/1999/xlink">
<g id="graph0" class="graph" transform="scale(1 1) rotate(0) translate(4 406.4)">
<title>G</title>
<polygon fill="#ffffff" stroke="transparent" points="-4,4 -4,-406.4 434.8258,-406.4 434.8258,4 -4,4"/>
<!-- GO:0016021 -->
<g id="node1" class="node">
<title>GO:0016021</title>
<polygon fill="#ff0000" stroke="#000000" points="141.0097,-153.0014 1.7435,-153.0014 1.7435,-94.1986 141.0097,-94.1986 141.0097,-153.0014"/>
<text text-anchor="middle" x="71.3766" y="-136.2" font-family="Times,serif" font-size="14.00" fill="#000000">GO:0016021</text>
<text text-anchor="middle" x="71.3766" y="-119.4" font-family="Times,serif" font-size="14.00" fill="#000000">integral component of</text>
<text text-anchor="middle" x="71.3766" y="-102.6" font-family="Times,serif" font-size="14.00" fill="#000000">membrane</text>
</g>
<!-- GO:0031224 -->
<g id="node2" class="node">
<title>GO:0031224</title>
<polygon fill="#ffffff" stroke="#000000" points="142.63,-247.4014 .1232,-247.4014 .1232,-188.5986 142.63,-188.5986 142.63,-247.4014"/>
<text text-anchor="middle" x="71.3766" y="-230.6" font-family="Times,serif" font-size="14.00" fill="#000000">GO:0031224</text>
<text text-anchor="middle" x="71.3766" y="-213.8" font-family="Times,serif" font-size="14.00" fill="#000000">intrinsic component of</text>
<text text-anchor="middle" x="71.3766" y="-197" font-family="Times,serif" font-size="14.00" fill="#000000">membrane</text>
</g>
<!-- GO:0016021&#45;&gt;GO:0031224 -->
<g id="edge1" class="edge">
<title>GO:0016021&#45;&gt;GO:0031224</title>
<path fill="none" stroke="#000000" d="M71.3766,-152.9513C71.3766,-161.0318 71.3766,-169.9308 71.3766,-178.4838"/>
<polygon fill="#000000" stroke="#000000" points="67.8767,-178.6668 71.3766,-188.6669 74.8767,-178.6669 67.8767,-178.6668"/>
</g>
<!-- GO:0044425 -->
<g id="node3" class="node">
<title>GO:0044425</title>
<polygon fill="#ff0000" stroke="#000000" points="226.7286,-324.6019 126.0246,-324.6019 126.0246,-283.3981 226.7286,-283.3981 226.7286,-324.6019"/>
<text text-anchor="middle" x="176.3766" y="-308.2" font-family="Times,serif" font-size="14.00" fill="#000000">GO:0044425</text>
<text text-anchor="middle" x="176.3766" y="-291.4" font-family="Times,serif" font-size="14.00" fill="#000000">membrane part</text>
</g>
<!-- GO:0031224&#45;&gt;GO:0044425 -->
<g id="edge2" class="edge">
<title>GO:0031224&#45;&gt;GO:0044425</title>
<path fill="none" stroke="#000000" d="M107.218,-247.3558C118.7871,-256.8314 131.5602,-267.2932 142.9479,-276.6203"/>
<polygon fill="#000000" stroke="#000000" points="141.0039,-279.5522 150.958,-283.1809 145.4394,-274.1368 141.0039,-279.5522"/>
</g>
<!-- GO:0005575 -->
<g id="node4" class="node">
<title>GO:0005575</title>
<polygon fill="#ffffff" stroke="#000000" points="240.0633,-402.2019 112.6899,-402.2019 112.6899,-360.9981 240.0633,-360.9981 240.0633,-402.2019"/>
<text text-anchor="middle" x="176.3766" y="-385.8" font-family="Times,serif" font-size="14.00" fill="#000000">GO:0005575</text>
<text text-anchor="middle" x="176.3766" y="-369" font-family="Times,serif" font-size="14.00" fill="#000000">cellular_component</text>
</g>
<!-- GO:0044425&#45;&gt;GO:0005575 -->
<g id="edge3" class="edge">
<title>GO:0044425&#45;&gt;GO:0005575</title>
<path fill="none" stroke="#000000" d="M176.3766,-324.7954C176.3766,-332.7109 176.3766,-341.9109 176.3766,-350.5722"/>
<polygon fill="#000000" stroke="#000000" points="172.8767,-350.7472 176.3766,-360.7472 179.8767,-350.7473 172.8767,-350.7472"/>
</g>
<!-- GO:0016020 -->
<g id="node5" class="node">
<title>GO:0016020</title>
<polygon fill="#ffa500" stroke="#000000" points="107.9805,-324.6019 18.7727,-324.6019 18.7727,-283.3981 107.9805,-283.3981 107.9805,-324.6019"/>
<text text-anchor="middle" x="63.3766" y="-308.2" font-family="Times,serif" font-size="14.00" fill="#000000">GO:0016020</text>
<text text-anchor="middle" x="63.3766" y="-291.4" font-family="Times,serif" font-size="14.00" fill="#000000">membrane</text>
</g>
<!-- GO:0016020&#45;&gt;GO:0005575 -->
<g id="edge4" class="edge">
<title>GO:0016020&#45;&gt;GO:0005575</title>
<path fill="none" stroke="#000000" d="M93.6585,-324.7954C107.2116,-334.1026 123.3508,-345.1858 137.7598,-355.0809"/>
<polygon fill="#000000" stroke="#000000" points="135.7863,-357.9714 146.0111,-360.7472 139.749,-352.201 135.7863,-357.9714"/>
</g>
<!-- GO:0005887 -->
<g id="node6" class="node">
<title>GO:0005887</title>
<polygon fill="#ffff00" stroke="#000000" points="220.0097,-58.6014 80.7435,-58.6014 80.7435,.2014 220.0097,.2014 220.0097,-58.6014"/>
<text text-anchor="middle" x="150.3766" y="-41.8" font-family="Times,serif" font-size="14.00" fill="#000000">GO:0005887</text>
<text text-anchor="middle" x="150.3766" y="-25" font-family="Times,serif" font-size="14.00" fill="#000000">integral component of</text>
<text text-anchor="middle" x="150.3766" y="-8.2" font-family="Times,serif" font-size="14.00" fill="#000000">plasma membrane</text>
</g>
<!-- GO:0005887&#45;&gt;GO:0016021 -->
<g id="edge5" class="edge">
<title>GO:0005887&#45;&gt;GO:0016021</title>
<path fill="none" stroke="#000000" d="M125.8136,-58.5513C118.4568,-67.3422 110.2893,-77.1018 102.5659,-86.3308"/>
<polygon fill="#000000" stroke="#000000" points="99.6582,-84.3517 95.9245,-94.2669 105.0264,-88.8442 99.6582,-84.3517"/>
</g>
<!-- GO:0031226 -->
<g id="node7" class="node">
<title>GO:0031226</title>
<polygon fill="#ffffff" stroke="#000000" points="301.63,-153.0014 159.1232,-153.0014 159.1232,-94.1986 301.63,-94.1986 301.63,-153.0014"/>
<text text-anchor="middle" x="230.3766" y="-136.2" font-family="Times,serif" font-size="14.00" fill="#000000">GO:0031226</text>
<text text-anchor="middle" x="230.3766" y="-119.4" font-family="Times,serif" font-size="14.00" fill="#000000">intrinsic component of</text>
<text text-anchor="middle" x="230.3766" y="-102.6" font-family="Times,serif" font-size="14.00" fill="#000000">plasma membrane</text>
</g>
<!-- GO:0005887&#45;&gt;GO:0031226 -->
<g id="edge6" class="edge">
<title>GO:0005887&#45;&gt;GO:0031226</title>
<path fill="none" stroke="#000000" d="M175.2506,-58.5513C182.7757,-67.431 191.1385,-77.299 199.0294,-86.6103"/>
<polygon fill="#000000" stroke="#000000" points="196.3826,-88.9007 205.518,-94.2669 201.7229,-84.375 196.3826,-88.9007"/>
</g>
<!-- GO:0031226&#45;&gt;GO:0031224 -->
<g id="edge8" class="edge">
<title>GO:0031226&#45;&gt;GO:0031224</title>
<path fill="none" stroke="#000000" d="M180.9396,-152.9513C164.6373,-162.6301 146.3571,-173.4833 129.4694,-183.5097"/>
<polygon fill="#000000" stroke="#000000" points="127.5949,-180.5521 120.783,-188.6669 131.1686,-186.5712 127.5949,-180.5521"/>
</g>
<!-- GO:0044459 -->
<g id="node8" class="node">
<title>GO:0044459</title>
<polygon fill="#ffffff" stroke="#000000" points="303.8838,-238.6019 160.8694,-238.6019 160.8694,-197.3981 303.8838,-197.3981 303.8838,-238.6019"/>
<text text-anchor="middle" x="232.3766" y="-222.2" font-family="Times,serif" font-size="14.00" fill="#000000">GO:0044459</text>
<text text-anchor="middle" x="232.3766" y="-205.4" font-family="Times,serif" font-size="14.00" fill="#000000">plasma membrane part</text>
</g>
<!-- GO:0031226&#45;&gt;GO:0044459 -->
<g id="edge7" class="edge">
<title>GO:0031226&#45;&gt;GO:0044459</title>
<path fill="none" stroke="#000000" d="M230.9984,-152.9513C231.2296,-163.8614 231.4924,-176.2637 231.726,-187.292"/>
<polygon fill="#000000" stroke="#000000" points="228.228,-187.4274 231.9391,-197.351 235.2264,-187.2791 228.228,-187.4274"/>
</g>
<!-- GO:0044459&#45;&gt;GO:0044425 -->
<g id="edge9" class="edge">
<title>GO:0044459&#45;&gt;GO:0044425</title>
<path fill="none" stroke="#000000" d="M218.8206,-238.8182C211.8044,-249.593 203.122,-262.9267 195.4416,-274.7216"/>
<polygon fill="#000000" stroke="#000000" points="192.3316,-273.0836 189.8078,-283.3735 198.1976,-276.9034 192.3316,-273.0836"/>
</g>
<!-- GO:0044464 -->
<g id="node9" class="node">
<title>GO:0044464</title>
<polygon fill="#ff0000" stroke="#000000" points="333.9805,-324.6019 244.7727,-324.6019 244.7727,-283.3981 333.9805,-283.3981 333.9805,-324.6019"/>
<text text-anchor="middle" x="289.3766" y="-308.2" font-family="Times,serif" font-size="14.00" fill="#000000">GO:0044464</text>
<text text-anchor="middle" x="289.3766" y="-291.4" font-family="Times,serif" font-size="14.00" fill="#000000">cell part</text>
</g>
<!-- GO:0044459&#45;&gt;GO:0044464 -->
<g id="edge10" class="edge">
<title>GO:0044459&#45;&gt;GO:0044464</title>
<path fill="none" stroke="#000000" d="M246.1747,-238.8182C253.3162,-249.593 262.1536,-262.9267 269.9712,-274.7216"/>
<polygon fill="#000000" stroke="#000000" points="267.2635,-276.9717 275.7056,-283.3735 273.0983,-273.1045 267.2635,-276.9717"/>
</g>
<!-- GO:0044464&#45;&gt;GO:0005575 -->
<g id="edge11" class="edge">
<title>GO:0044464&#45;&gt;GO:0005575</title>
<path fill="none" stroke="#000000" d="M259.0947,-324.7954C245.5416,-334.1026 229.4024,-345.1858 214.9934,-355.0809"/>
<polygon fill="#000000" stroke="#000000" points="213.0042,-352.201 206.7421,-360.7472 216.9669,-357.9714 213.0042,-352.201"/>
</g>
<!-- GO:0044424 -->
<g id="node10" class="node">
<title>GO:0044424</title>
<polygon fill="#00ffff" stroke="#000000" points="430.775,-238.6019 321.9782,-238.6019 321.9782,-197.3981 430.775,-197.3981 430.775,-238.6019"/>
<text text-anchor="middle" x="376.3766" y="-222.2" font-family="Times,serif" font-size="14.00" fill="#000000">GO:0044424</text>
<text text-anchor="middle" x="376.3766" y="-205.4" font-family="Times,serif" font-size="14.00" fill="#000000">intracellular part</text>
</g>
<!-- GO:0044424&#45;&gt;GO:0044464 -->
<g id="edge12" class="edge">
<title>GO:0044424&#45;&gt;GO:0044464</title>
<path fill="none" stroke="#000000" d="M355.3163,-238.8182C343.9888,-250.0156 329.8656,-263.9764 317.5991,-276.1019"/>
<polygon fill="#000000" stroke="#000000" points="314.8942,-273.8543 310.2429,-283.3735 319.8153,-278.8326 314.8942,-273.8543"/>
</g>
</g>
</svg>
