<?xml version="1.0" encoding="UTF-8" standalone="no"?>
<!DOCTYPE svg PUBLIC "-//W3C//DTD SVG 1.1//EN"
 "http://www.w3.org/Graphics/SVG/1.1/DTD/svg11.dtd">
<!-- Generated by graphviz version 2.40.1 (20161225.0304)
 -->
<!-- Title: G Pages: 1 -->
<svg width="552pt" height="394pt"
 viewBox="0.00 0.00 552.10 393.60" xmlns="http://www.w3.org/2000/svg" xmlns:xlink="http://www.w3.org/1999/xlink">
<g id="graph0" class="graph" transform="scale(1 1) rotate(0) translate(4 389.6)">
<title>G</title>
<polygon fill="#ffffff" stroke="transparent" points="-4,4 -4,-389.6 548.1003,-389.6 548.1003,4 -4,4"/>
<!-- GO:0000166 -->
<g id="node1" class="node">
<title>GO:0000166</title>
<polygon fill="#ffffff" stroke="#000000" points="213.8114,-41.4019 93.6164,-41.4019 93.6164,-.1981 213.8114,-.1981 213.8114,-41.4019"/>
<text text-anchor="middle" x="153.7139" y="-25" font-family="Times,serif" font-size="14.00" fill="#000000">GO:0000166</text>
<text text-anchor="middle" x="153.7139" y="-8.2" font-family="Times,serif" font-size="14.00" fill="#000000">nucleotide binding</text>
</g>
<!-- GO:0036094 -->
<g id="node2" class="node">
<title>GO:0036094</title>
<polygon fill="#ffffff" stroke="#000000" points="147.6423,-127.4019 -.2145,-127.4019 -.2145,-86.1981 147.6423,-86.1981 147.6423,-127.4019"/>
<text text-anchor="middle" x="73.7139" y="-111" font-family="Times,serif" font-size="14.00" fill="#000000">GO:0036094</text>
<text text-anchor="middle" x="73.7139" y="-94.2" font-family="Times,serif" font-size="14.00" fill="#000000">small molecule binding</text>
</g>
<!-- GO:0000166&#45;&gt;GO:0036094 -->
<g id="edge1" class="edge">
<title>GO:0000166&#45;&gt;GO:0036094</title>
<path fill="none" stroke="#000000" d="M134.3481,-41.6182C124.0302,-52.7099 111.19,-66.5132 99.9853,-78.5583"/>
<polygon fill="#000000" stroke="#000000" points="97.1497,-76.4677 92.9013,-86.1735 102.2751,-81.2355 97.1497,-76.4677"/>
</g>
<!-- GO:1901265 -->
<g id="node3" class="node">
<title>GO:1901265</title>
<polygon fill="#ffffff" stroke="#000000" points="301.848,-136.2014 165.5798,-136.2014 165.5798,-77.3986 301.848,-77.3986 301.848,-136.2014"/>
<text text-anchor="middle" x="233.7139" y="-119.4" font-family="Times,serif" font-size="14.00" fill="#000000">GO:1901265</text>
<text text-anchor="middle" x="233.7139" y="-102.6" font-family="Times,serif" font-size="14.00" fill="#000000">nucleoside phosphate</text>
<text text-anchor="middle" x="233.7139" y="-85.8" font-family="Times,serif" font-size="14.00" fill="#000000">binding</text>
</g>
<!-- GO:0000166&#45;&gt;GO:1901265 -->
<g id="edge2" class="edge">
<title>GO:0000166&#45;&gt;GO:1901265</title>
<path fill="none" stroke="#000000" d="M173.0797,-41.6182C181.0392,-50.1747 190.4998,-60.3448 199.5526,-70.0766"/>
<polygon fill="#000000" stroke="#000000" points="196.9905,-72.4611 206.3643,-77.3991 202.1159,-67.6934 196.9905,-72.4611"/>
</g>
<!-- GO:0005488 -->
<g id="node4" class="node">
<title>GO:0005488</title>
<polygon fill="#ffffff" stroke="#000000" points="310.3178,-307.8019 221.11,-307.8019 221.11,-266.5981 310.3178,-266.5981 310.3178,-307.8019"/>
<text text-anchor="middle" x="265.7139" y="-291.4" font-family="Times,serif" font-size="14.00" fill="#000000">GO:0005488</text>
<text text-anchor="middle" x="265.7139" y="-274.6" font-family="Times,serif" font-size="14.00" fill="#000000">binding</text>
</g>
<!-- GO:0036094&#45;&gt;GO:0005488 -->
<g id="edge3" class="edge">
<title>GO:0036094&#45;&gt;GO:0005488</title>
<path fill="none" stroke="#000000" d="M70.7956,-127.8498C68.2898,-154.838 68.29,-201.5815 92.7139,-230.4 108.2476,-248.7288 166.327,-265.3168 210.9512,-275.7694"/>
<polygon fill="#000000" stroke="#000000" points="210.2914,-279.2089 220.8209,-278.0338 211.8568,-272.3861 210.2914,-279.2089"/>
</g>
<!-- GO:0097159 -->
<g id="node5" class="node">
<title>GO:0097159</title>
<polygon fill="#ffffff" stroke="#000000" points="259.2253,-230.6014 102.2025,-230.6014 102.2025,-171.7986 259.2253,-171.7986 259.2253,-230.6014"/>
<text text-anchor="middle" x="180.7139" y="-213.8" font-family="Times,serif" font-size="14.00" fill="#000000">GO:0097159</text>
<text text-anchor="middle" x="180.7139" y="-197" font-family="Times,serif" font-size="14.00" fill="#000000">organic cyclic compound</text>
<text text-anchor="middle" x="180.7139" y="-180.2" font-family="Times,serif" font-size="14.00" fill="#000000">binding</text>
</g>
<!-- GO:1901265&#45;&gt;GO:0097159 -->
<g id="edge4" class="edge">
<title>GO:1901265&#45;&gt;GO:0097159</title>
<path fill="none" stroke="#000000" d="M217.2349,-136.1513C212.4489,-144.6758 207.1515,-154.1111 202.1102,-163.0904"/>
<polygon fill="#000000" stroke="#000000" points="199.0265,-161.4337 197.1827,-171.8669 205.1303,-164.8606 199.0265,-161.4337"/>
</g>
<!-- GO:1901363 -->
<g id="node6" class="node">
<title>GO:1901363</title>
<polygon fill="#ffffff" stroke="#000000" points="424.2245,-230.6014 277.2033,-230.6014 277.2033,-171.7986 424.2245,-171.7986 424.2245,-230.6014"/>
<text text-anchor="middle" x="350.7139" y="-213.8" font-family="Times,serif" font-size="14.00" fill="#000000">GO:1901363</text>
<text text-anchor="middle" x="350.7139" y="-197" font-family="Times,serif" font-size="14.00" fill="#000000">heterocyclic compound</text>
<text text-anchor="middle" x="350.7139" y="-180.2" font-family="Times,serif" font-size="14.00" fill="#000000">binding</text>
</g>
<!-- GO:1901265&#45;&gt;GO:1901363 -->
<g id="edge5" class="edge">
<title>GO:1901265&#45;&gt;GO:1901363</title>
<path fill="none" stroke="#000000" d="M270.0921,-136.1513C281.5378,-145.3861 294.3085,-155.69 306.25,-165.3249"/>
<polygon fill="#000000" stroke="#000000" points="304.3777,-168.3114 314.3582,-171.8669 308.7733,-162.8635 304.3777,-168.3114"/>
</g>
<!-- GO:0003674 -->
<g id="node7" class="node">
<title>GO:0003674</title>
<polygon fill="#ffffff" stroke="#000000" points="386.347,-385.4019 261.0808,-385.4019 261.0808,-344.1981 386.347,-344.1981 386.347,-385.4019"/>
<text text-anchor="middle" x="323.7139" y="-369" font-family="Times,serif" font-size="14.00" fill="#000000">GO:0003674</text>
<text text-anchor="middle" x="323.7139" y="-352.2" font-family="Times,serif" font-size="14.00" fill="#000000">molecular_function</text>
</g>
<!-- GO:0005488&#45;&gt;GO:0003674 -->
<g id="edge6" class="edge">
<title>GO:0005488&#45;&gt;GO:0003674</title>
<path fill="none" stroke="#000000" d="M281.2568,-307.9954C287.6281,-316.5197 295.113,-326.5339 302.0091,-335.7605"/>
<polygon fill="#000000" stroke="#000000" points="299.3378,-338.0327 308.1281,-343.9472 304.9447,-333.8419 299.3378,-338.0327"/>
</g>
<!-- GO:0097159&#45;&gt;GO:0005488 -->
<g id="edge7" class="edge">
<title>GO:0097159&#45;&gt;GO:0005488</title>
<path fill="none" stroke="#000000" d="M209.9661,-230.7963C219.0453,-239.9824 229.0208,-250.0752 237.9926,-259.1526"/>
<polygon fill="#000000" stroke="#000000" points="235.7322,-261.8446 245.2512,-266.4966 240.7109,-256.9239 235.7322,-261.8446"/>
</g>
<!-- GO:1901363&#45;&gt;GO:0005488 -->
<g id="edge8" class="edge">
<title>GO:1901363&#45;&gt;GO:0005488</title>
<path fill="none" stroke="#000000" d="M321.4617,-230.7963C312.3825,-239.9824 302.407,-250.0752 293.4352,-259.1526"/>
<polygon fill="#000000" stroke="#000000" points="290.7169,-256.9239 286.1766,-266.4966 295.6956,-261.8446 290.7169,-256.9239"/>
</g>
<!-- GO:0003824 -->
<g id="node8" class="node">
<title>GO:0003824</title>
<polygon fill="#ffffff" stroke="#000000" points="437.1263,-307.8019 328.3015,-307.8019 328.3015,-266.5981 437.1263,-266.5981 437.1263,-307.8019"/>
<text text-anchor="middle" x="382.7139" y="-291.4" font-family="Times,serif" font-size="14.00" fill="#000000">GO:0003824</text>
<text text-anchor="middle" x="382.7139" y="-274.6" font-family="Times,serif" font-size="14.00" fill="#000000">catalytic activity</text>
</g>
<!-- GO:0003824&#45;&gt;GO:0003674 -->
<g id="edge9" class="edge">
<title>GO:0003824&#45;&gt;GO:0003674</title>
<path fill="none" stroke="#000000" d="M366.903,-307.9954C360.4218,-316.5197 352.808,-326.5339 345.7929,-335.7605"/>
<polygon fill="#000000" stroke="#000000" points="342.8347,-333.8684 339.5685,-343.9472 348.4071,-338.1051 342.8347,-333.8684"/>
</g>
<!-- GO:0046872 -->
<g id="node9" class="node">
<title>GO:0046872</title>
<polygon fill="#ffffff" stroke="#000000" points="543.9869,-41.4019 429.4409,-41.4019 429.4409,-.1981 543.9869,-.1981 543.9869,-41.4019"/>
<text text-anchor="middle" x="486.7139" y="-25" font-family="Times,serif" font-size="14.00" fill="#000000">GO:0046872</text>
<text text-anchor="middle" x="486.7139" y="-8.2" font-family="Times,serif" font-size="14.00" fill="#000000">metal ion binding</text>
</g>
<!-- GO:0043169 -->
<g id="node10" class="node">
<title>GO:0043169</title>
<polygon fill="#ffffff" stroke="#000000" points="535.2068,-127.4019 438.221,-127.4019 438.221,-86.1981 535.2068,-86.1981 535.2068,-127.4019"/>
<text text-anchor="middle" x="486.7139" y="-111" font-family="Times,serif" font-size="14.00" fill="#000000">GO:0043169</text>
<text text-anchor="middle" x="486.7139" y="-94.2" font-family="Times,serif" font-size="14.00" fill="#000000">cation binding</text>
</g>
<!-- GO:0046872&#45;&gt;GO:0043169 -->
<g id="edge10" class="edge">
<title>GO:0046872&#45;&gt;GO:0043169</title>
<path fill="none" stroke="#000000" d="M486.7139,-41.6182C486.7139,-51.9705 486.7139,-64.6848 486.7139,-76.1271"/>
<polygon fill="#000000" stroke="#000000" points="483.214,-76.1735 486.7139,-86.1735 490.214,-76.1735 483.214,-76.1735"/>
</g>
<!-- GO:0043167 -->
<g id="node11" class="node">
<title>GO:0043167</title>
<polygon fill="#ffffff" stroke="#000000" points="531.3178,-221.8019 442.11,-221.8019 442.11,-180.5981 531.3178,-180.5981 531.3178,-221.8019"/>
<text text-anchor="middle" x="486.7139" y="-205.4" font-family="Times,serif" font-size="14.00" fill="#000000">GO:0043167</text>
<text text-anchor="middle" x="486.7139" y="-188.6" font-family="Times,serif" font-size="14.00" fill="#000000">ion binding</text>
</g>
<!-- GO:0043169&#45;&gt;GO:0043167 -->
<g id="edge11" class="edge">
<title>GO:0043169&#45;&gt;GO:0043167</title>
<path fill="none" stroke="#000000" d="M486.7139,-127.7504C486.7139,-140.2165 486.7139,-156.2645 486.7139,-170.1786"/>
<polygon fill="#000000" stroke="#000000" points="483.214,-170.3081 486.7139,-180.3081 490.214,-170.3082 483.214,-170.3081"/>
</g>
<!-- GO:0043167&#45;&gt;GO:0005488 -->
<g id="edge12" class="edge">
<title>GO:0043167&#45;&gt;GO:0005488</title>
<path fill="none" stroke="#000000" d="M451.561,-221.8241C445.6971,-224.8979 439.6045,-227.8766 433.7139,-230.4 387.6398,-250.1368 371.6712,-249.0483 320.1107,-266.4003"/>
<polygon fill="#000000" stroke="#000000" points="318.7411,-263.1702 310.4243,-269.7338 321.019,-269.7892 318.7411,-263.1702"/>
</g>
</g>
</svg>
