<?xml version="1.0" encoding="UTF-8" standalone="no"?>
<!DOCTYPE svg PUBLIC "-//W3C//DTD SVG 1.1//EN"
 "http://www.w3.org/Graphics/SVG/1.1/DTD/svg11.dtd">
<!-- Generated by graphviz version 2.40.1 (20161225.0304)
 -->
<!-- Title: G Pages: 1 -->
<svg width="868pt" height="677pt"
 viewBox="0.00 0.00 867.63 676.80" xmlns="http://www.w3.org/2000/svg" xmlns:xlink="http://www.w3.org/1999/xlink">
<g id="graph0" class="graph" transform="scale(1 1) rotate(0) translate(4 672.8)">
<title>G</title>
<polygon fill="#ffffff" stroke="transparent" points="-4,4 -4,-672.8 863.6256,-672.8 863.6256,4 -4,4"/>
<!-- GO:0043229 -->
<g id="node1" class="node">
<title>GO:0043229</title>
<polygon fill="#ffff00" stroke="#000000" points="285.6988,-238.6019 146.262,-238.6019 146.262,-197.3981 285.6988,-197.3981 285.6988,-238.6019"/>
<text text-anchor="middle" x="215.9804" y="-222.2" font-family="Times,serif" font-size="14.00" fill="#000000">GO:0043229</text>
<text text-anchor="middle" x="215.9804" y="-205.4" font-family="Times,serif" font-size="14.00" fill="#000000">intracellular organelle</text>
</g>
<!-- GO:0044424 -->
<g id="node2" class="node">
<title>GO:0044424</title>
<polygon fill="#ffffff" stroke="#000000" points="519.3788,-341.4019 410.582,-341.4019 410.582,-300.1981 519.3788,-300.1981 519.3788,-341.4019"/>
<text text-anchor="middle" x="464.9804" y="-325" font-family="Times,serif" font-size="14.00" fill="#000000">GO:0044424</text>
<text text-anchor="middle" x="464.9804" y="-308.2" font-family="Times,serif" font-size="14.00" fill="#000000">intracellular part</text>
</g>
<!-- GO:0043229&#45;&gt;GO:0044424 -->
<g id="edge1" class="edge">
<title>GO:0043229&#45;&gt;GO:0044424</title>
<path fill="none" stroke="#000000" d="M266.0697,-238.6795C306.339,-255.3047 363.0133,-278.7027 405.5707,-296.2726"/>
<polygon fill="#000000" stroke="#000000" points="404.3922,-299.5726 414.9711,-300.1536 407.0635,-293.1023 404.3922,-299.5726"/>
</g>
<!-- GO:0043226 -->
<g id="node3" class="node">
<title>GO:0043226</title>
<polygon fill="#ffff00" stroke="#000000" points="260.5843,-341.4019 171.3765,-341.4019 171.3765,-300.1981 260.5843,-300.1981 260.5843,-341.4019"/>
<text text-anchor="middle" x="215.9804" y="-325" font-family="Times,serif" font-size="14.00" fill="#000000">GO:0043226</text>
<text text-anchor="middle" x="215.9804" y="-308.2" font-family="Times,serif" font-size="14.00" fill="#000000">organelle</text>
</g>
<!-- GO:0043229&#45;&gt;GO:0043226 -->
<g id="edge2" class="edge">
<title>GO:0043229&#45;&gt;GO:0043226</title>
<path fill="none" stroke="#000000" d="M215.9804,-238.8031C215.9804,-253.4337 215.9804,-273.2642 215.9804,-289.7586"/>
<polygon fill="#000000" stroke="#000000" points="212.4805,-290.0278 215.9804,-300.0278 219.4805,-290.0279 212.4805,-290.0278"/>
</g>
<!-- GO:0044464 -->
<g id="node4" class="node">
<title>GO:0044464</title>
<polygon fill="#ffffff" stroke="#000000" points="509.5843,-435.8019 420.3765,-435.8019 420.3765,-394.5981 509.5843,-394.5981 509.5843,-435.8019"/>
<text text-anchor="middle" x="464.9804" y="-419.4" font-family="Times,serif" font-size="14.00" fill="#000000">GO:0044464</text>
<text text-anchor="middle" x="464.9804" y="-402.6" font-family="Times,serif" font-size="14.00" fill="#000000">cell part</text>
</g>
<!-- GO:0044424&#45;&gt;GO:0044464 -->
<g id="edge3" class="edge">
<title>GO:0044424&#45;&gt;GO:0044464</title>
<path fill="none" stroke="#000000" d="M464.9804,-341.7504C464.9804,-354.2165 464.9804,-370.2645 464.9804,-384.1786"/>
<polygon fill="#000000" stroke="#000000" points="461.4805,-384.3081 464.9804,-394.3081 468.4805,-384.3082 461.4805,-384.3081"/>
</g>
<!-- GO:0005575 -->
<g id="node5" class="node">
<title>GO:0005575</title>
<polygon fill="#ffffff" stroke="#000000" points="528.6671,-513.4019 401.2937,-513.4019 401.2937,-472.1981 528.6671,-472.1981 528.6671,-513.4019"/>
<text text-anchor="middle" x="464.9804" y="-497" font-family="Times,serif" font-size="14.00" fill="#000000">GO:0005575</text>
<text text-anchor="middle" x="464.9804" y="-480.2" font-family="Times,serif" font-size="14.00" fill="#000000">cellular_component</text>
</g>
<!-- GO:0043226&#45;&gt;GO:0005575 -->
<g id="edge4" class="edge">
<title>GO:0043226&#45;&gt;GO:0005575</title>
<path fill="none" stroke="#000000" d="M246.0156,-341.5472C291.2573,-372.7985 376.8719,-431.9379 426.5858,-466.2785"/>
<polygon fill="#000000" stroke="#000000" points="424.6215,-469.1754 434.8387,-471.9792 428.6,-463.4159 424.6215,-469.1754"/>
</g>
<!-- GO:0044464&#45;&gt;GO:0005575 -->
<g id="edge7" class="edge">
<title>GO:0044464&#45;&gt;GO:0005575</title>
<path fill="none" stroke="#000000" d="M464.9804,-435.9954C464.9804,-443.9109 464.9804,-453.1109 464.9804,-461.7722"/>
<polygon fill="#000000" stroke="#000000" points="461.4805,-461.9472 464.9804,-471.9472 468.4805,-461.9473 461.4805,-461.9472"/>
</g>
<!-- GO:0043227 -->
<g id="node6" class="node">
<title>GO:0043227</title>
<polygon fill="#ffff00" stroke="#000000" points="127.9412,-247.4014 .0196,-247.4014 .0196,-188.5986 127.9412,-188.5986 127.9412,-247.4014"/>
<text text-anchor="middle" x="63.9804" y="-230.6" font-family="Times,serif" font-size="14.00" fill="#000000">GO:0043227</text>
<text text-anchor="middle" x="63.9804" y="-213.8" font-family="Times,serif" font-size="14.00" fill="#000000">membrane&#45;bounded</text>
<text text-anchor="middle" x="63.9804" y="-197" font-family="Times,serif" font-size="14.00" fill="#000000">organelle</text>
</g>
<!-- GO:0043227&#45;&gt;GO:0043226 -->
<g id="edge5" class="edge">
<title>GO:0043227&#45;&gt;GO:0043226</title>
<path fill="none" stroke="#000000" d="M107.5375,-247.4584C129.4347,-262.2678 155.7554,-280.0689 176.9821,-294.4249"/>
<polygon fill="#000000" stroke="#000000" points="175.1966,-297.4426 185.4409,-300.1456 179.1182,-291.6442 175.1966,-297.4426"/>
</g>
<!-- GO:0005737 -->
<g id="node7" class="node">
<title>GO:0005737</title>
<polygon fill="#ff0000" stroke="#000000" points="392.5843,-238.6019 303.3765,-238.6019 303.3765,-197.3981 392.5843,-197.3981 392.5843,-238.6019"/>
<text text-anchor="middle" x="347.9804" y="-222.2" font-family="Times,serif" font-size="14.00" fill="#000000">GO:0005737</text>
<text text-anchor="middle" x="347.9804" y="-205.4" font-family="Times,serif" font-size="14.00" fill="#000000">cytoplasm</text>
</g>
<!-- GO:0005737&#45;&gt;GO:0044424 -->
<g id="edge6" class="edge">
<title>GO:0005737&#45;&gt;GO:0044424</title>
<path fill="none" stroke="#000000" d="M371.6571,-238.8031C389.498,-254.4787 414.1329,-276.1237 433.6123,-293.2389"/>
<polygon fill="#000000" stroke="#000000" points="431.5165,-296.0566 441.3389,-300.0278 436.1368,-290.798 431.5165,-296.0566"/>
</g>
<!-- GO:0005634 -->
<g id="node8" class="node">
<title>GO:0005634</title>
<polygon fill="#00ff00" stroke="#000000" points="184.5843,-49.8019 95.3765,-49.8019 95.3765,-8.5981 184.5843,-8.5981 184.5843,-49.8019"/>
<text text-anchor="middle" x="139.9804" y="-33.4" font-family="Times,serif" font-size="14.00" fill="#000000">GO:0005634</text>
<text text-anchor="middle" x="139.9804" y="-16.6" font-family="Times,serif" font-size="14.00" fill="#000000">nucleus</text>
</g>
<!-- GO:0043231 -->
<g id="node9" class="node">
<title>GO:0043231</title>
<polygon fill="#ffff00" stroke="#000000" points="215.3592,-153.0014 64.6016,-153.0014 64.6016,-94.1986 215.3592,-94.1986 215.3592,-153.0014"/>
<text text-anchor="middle" x="139.9804" y="-136.2" font-family="Times,serif" font-size="14.00" fill="#000000">GO:0043231</text>
<text text-anchor="middle" x="139.9804" y="-119.4" font-family="Times,serif" font-size="14.00" fill="#000000">intracellular membrane&#45;</text>
<text text-anchor="middle" x="139.9804" y="-102.6" font-family="Times,serif" font-size="14.00" fill="#000000">bounded organelle</text>
</g>
<!-- GO:0005634&#45;&gt;GO:0043231 -->
<g id="edge8" class="edge">
<title>GO:0005634&#45;&gt;GO:0043231</title>
<path fill="none" stroke="#000000" d="M139.9804,-50.1504C139.9804,-60.1492 139.9804,-72.4525 139.9804,-84.1106"/>
<polygon fill="#000000" stroke="#000000" points="136.4805,-84.1155 139.9804,-94.1155 143.4805,-84.1156 136.4805,-84.1155"/>
</g>
<!-- GO:0043231&#45;&gt;GO:0043229 -->
<g id="edge9" class="edge">
<title>GO:0043231&#45;&gt;GO:0043229</title>
<path fill="none" stroke="#000000" d="M163.6107,-152.9513C172.9376,-164.5363 183.619,-177.8037 192.8922,-189.322"/>
<polygon fill="#000000" stroke="#000000" points="190.3588,-191.7565 199.3562,-197.351 195.8114,-187.3667 190.3588,-191.7565"/>
</g>
<!-- GO:0043231&#45;&gt;GO:0043227 -->
<g id="edge10" class="edge">
<title>GO:0043231&#45;&gt;GO:0043227</title>
<path fill="none" stroke="#000000" d="M116.3501,-152.9513C109.2727,-161.7422 101.4154,-171.5018 93.9853,-180.7308"/>
<polygon fill="#000000" stroke="#000000" points="91.1409,-178.6826 87.5961,-188.6669 96.5934,-183.0724 91.1409,-178.6826"/>
</g>
<!-- GO:0055029 -->
<g id="node10" class="node">
<title>GO:0055029</title>
<polygon fill="#00ff00" stroke="#000000" points="767.7913,-58.6014 594.1695,-58.6014 594.1695,.2014 767.7913,.2014 767.7913,-58.6014"/>
<text text-anchor="middle" x="680.9804" y="-41.8" font-family="Times,serif" font-size="14.00" fill="#000000">GO:0055029</text>
<text text-anchor="middle" x="680.9804" y="-25" font-family="Times,serif" font-size="14.00" fill="#000000">nuclear DNA&#45;directed RNA</text>
<text text-anchor="middle" x="680.9804" y="-8.2" font-family="Times,serif" font-size="14.00" fill="#000000">polymerase complex</text>
</g>
<!-- GO:0044428 -->
<g id="node11" class="node">
<title>GO:0044428</title>
<polygon fill="#00ff00" stroke="#000000" points="661.5843,-144.2019 572.3765,-144.2019 572.3765,-102.9981 661.5843,-102.9981 661.5843,-144.2019"/>
<text text-anchor="middle" x="616.9804" y="-127.8" font-family="Times,serif" font-size="14.00" fill="#000000">GO:0044428</text>
<text text-anchor="middle" x="616.9804" y="-111" font-family="Times,serif" font-size="14.00" fill="#000000">nuclear part</text>
</g>
<!-- GO:0055029&#45;&gt;GO:0044428 -->
<g id="edge11" class="edge">
<title>GO:0055029&#45;&gt;GO:0044428</title>
<path fill="none" stroke="#000000" d="M661.0812,-58.5513C653.3032,-70.0238 644.4067,-83.1462 636.6509,-94.5861"/>
<polygon fill="#000000" stroke="#000000" points="633.6944,-92.7098 630.9797,-102.951 639.4883,-96.638 633.6944,-92.7098"/>
</g>
<!-- GO:0000428 -->
<g id="node12" class="node">
<title>GO:0000428</title>
<polygon fill="#ff0000" stroke="#000000" points="832.2212,-153.0014 699.7396,-153.0014 699.7396,-94.1986 832.2212,-94.1986 832.2212,-153.0014"/>
<text text-anchor="middle" x="765.9804" y="-136.2" font-family="Times,serif" font-size="14.00" fill="#000000">GO:0000428</text>
<text text-anchor="middle" x="765.9804" y="-119.4" font-family="Times,serif" font-size="14.00" fill="#000000">DNA&#45;directed RNA</text>
<text text-anchor="middle" x="765.9804" y="-102.6" font-family="Times,serif" font-size="14.00" fill="#000000">polymerase complex</text>
</g>
<!-- GO:0055029&#45;&gt;GO:0000428 -->
<g id="edge12" class="edge">
<title>GO:0055029&#45;&gt;GO:0000428</title>
<path fill="none" stroke="#000000" d="M707.409,-58.5513C715.4045,-67.431 724.2899,-77.299 732.674,-86.6103"/>
<polygon fill="#000000" stroke="#000000" points="730.2757,-89.1775 739.5681,-94.2669 735.4777,-84.4935 730.2757,-89.1775"/>
</g>
<!-- GO:0044446 -->
<g id="node13" class="node">
<title>GO:0044446</title>
<polygon fill="#00ff00" stroke="#000000" points="676.6988,-247.4014 537.262,-247.4014 537.262,-188.5986 676.6988,-188.5986 676.6988,-247.4014"/>
<text text-anchor="middle" x="606.9804" y="-230.6" font-family="Times,serif" font-size="14.00" fill="#000000">GO:0044446</text>
<text text-anchor="middle" x="606.9804" y="-213.8" font-family="Times,serif" font-size="14.00" fill="#000000">intracellular organelle</text>
<text text-anchor="middle" x="606.9804" y="-197" font-family="Times,serif" font-size="14.00" fill="#000000">part</text>
</g>
<!-- GO:0044428&#45;&gt;GO:0044446 -->
<g id="edge13" class="edge">
<title>GO:0044428&#45;&gt;GO:0044446</title>
<path fill="none" stroke="#000000" d="M614.7611,-144.5504C613.7019,-154.5492 612.3986,-166.8525 611.1636,-178.5106"/>
<polygon fill="#000000" stroke="#000000" points="607.6767,-178.2024 610.1038,-188.5155 614.6378,-178.9399 607.6767,-178.2024"/>
</g>
<!-- GO:0030880 -->
<g id="node14" class="node">
<title>GO:0030880</title>
<polygon fill="#ffffff" stroke="#000000" points="859.7711,-238.6019 694.1897,-238.6019 694.1897,-197.3981 859.7711,-197.3981 859.7711,-238.6019"/>
<text text-anchor="middle" x="776.9804" y="-222.2" font-family="Times,serif" font-size="14.00" fill="#000000">GO:0030880</text>
<text text-anchor="middle" x="776.9804" y="-205.4" font-family="Times,serif" font-size="14.00" fill="#000000">RNA polymerase complex</text>
</g>
<!-- GO:0000428&#45;&gt;GO:0030880 -->
<g id="edge14" class="edge">
<title>GO:0000428&#45;&gt;GO:0030880</title>
<path fill="none" stroke="#000000" d="M769.4006,-152.9513C770.6719,-163.8614 772.1171,-176.2637 773.4021,-187.292"/>
<polygon fill="#000000" stroke="#000000" points="769.9403,-187.8233 774.5743,-197.351 776.8932,-187.0131 769.9403,-187.8233"/>
</g>
<!-- GO:0044446&#45;&gt;GO:0044424 -->
<g id="edge15" class="edge">
<title>GO:0044446&#45;&gt;GO:0044424</title>
<path fill="none" stroke="#000000" d="M566.2889,-247.4584C545.9232,-262.202 521.4617,-279.9107 501.6777,-294.2332"/>
<polygon fill="#000000" stroke="#000000" points="499.5585,-291.4465 493.5107,-300.1456 503.6634,-297.1166 499.5585,-291.4465"/>
</g>
<!-- GO:0044422 -->
<g id="node15" class="node">
<title>GO:0044422</title>
<polygon fill="#ffffff" stroke="#000000" points="629.8325,-435.8019 536.1283,-435.8019 536.1283,-394.5981 629.8325,-394.5981 629.8325,-435.8019"/>
<text text-anchor="middle" x="582.9804" y="-419.4" font-family="Times,serif" font-size="14.00" fill="#000000">GO:0044422</text>
<text text-anchor="middle" x="582.9804" y="-402.6" font-family="Times,serif" font-size="14.00" fill="#000000">organelle part</text>
</g>
<!-- GO:0044446&#45;&gt;GO:0044422 -->
<g id="edge16" class="edge">
<title>GO:0044446&#45;&gt;GO:0044422</title>
<path fill="none" stroke="#000000" d="M603.3874,-247.5228C598.9123,-284.2928 591.3026,-346.8193 586.7479,-384.2441"/>
<polygon fill="#000000" stroke="#000000" points="583.2281,-384.1946 585.4943,-394.5442 590.1769,-385.0404 583.2281,-384.1946"/>
</g>
<!-- GO:0030880&#45;&gt;GO:0044424 -->
<g id="edge17" class="edge">
<title>GO:0030880&#45;&gt;GO:0044424</title>
<path fill="none" stroke="#000000" d="M714.2179,-238.6795C660.416,-256.4065 583.2436,-281.8338 529.0637,-299.6854"/>
<polygon fill="#000000" stroke="#000000" points="527.9657,-296.362 519.5633,-302.8156 530.1563,-303.0104 527.9657,-296.362"/>
</g>
<!-- GO:0061695 -->
<g id="node16" class="node">
<title>GO:0061695</title>
<polygon fill="#ffffff" stroke="#000000" points="853.9882,-358.5003 699.9726,-358.5003 699.9726,-283.0997 853.9882,-283.0997 853.9882,-358.5003"/>
<text text-anchor="middle" x="776.9804" y="-341.8" font-family="Times,serif" font-size="14.00" fill="#000000">GO:0061695</text>
<text text-anchor="middle" x="776.9804" y="-325" font-family="Times,serif" font-size="14.00" fill="#000000">transferase complex,</text>
<text text-anchor="middle" x="776.9804" y="-308.2" font-family="Times,serif" font-size="14.00" fill="#000000">transferring phosphorus&#45;</text>
<text text-anchor="middle" x="776.9804" y="-291.4" font-family="Times,serif" font-size="14.00" fill="#000000">containing groups</text>
</g>
<!-- GO:0030880&#45;&gt;GO:0061695 -->
<g id="edge18" class="edge">
<title>GO:0030880&#45;&gt;GO:0061695</title>
<path fill="none" stroke="#000000" d="M776.9804,-238.8031C776.9804,-248.6045 776.9804,-260.7396 776.9804,-272.642"/>
<polygon fill="#000000" stroke="#000000" points="773.4805,-272.9772 776.9804,-282.9773 780.4805,-272.9773 773.4805,-272.9772"/>
</g>
<!-- GO:0044422&#45;&gt;GO:0005575 -->
<g id="edge19" class="edge">
<title>GO:0044422&#45;&gt;GO:0005575</title>
<path fill="none" stroke="#000000" d="M551.3586,-435.9954C537.2058,-445.3026 520.3525,-456.3858 505.3059,-466.2809"/>
<polygon fill="#000000" stroke="#000000" points="503.1216,-463.5282 496.6895,-471.9472 506.9679,-469.3769 503.1216,-463.5282"/>
</g>
<!-- GO:1990234 -->
<g id="node17" class="node">
<title>GO:1990234</title>
<polygon fill="#ffffff" stroke="#000000" points="841.3112,-435.8019 712.6496,-435.8019 712.6496,-394.5981 841.3112,-394.5981 841.3112,-435.8019"/>
<text text-anchor="middle" x="776.9804" y="-419.4" font-family="Times,serif" font-size="14.00" fill="#000000">GO:1990234</text>
<text text-anchor="middle" x="776.9804" y="-402.6" font-family="Times,serif" font-size="14.00" fill="#000000">transferase complex</text>
</g>
<!-- GO:0061695&#45;&gt;GO:1990234 -->
<g id="edge20" class="edge">
<title>GO:0061695&#45;&gt;GO:1990234</title>
<path fill="none" stroke="#000000" d="M776.9804,-358.6522C776.9804,-367.1406 776.9804,-376.0492 776.9804,-384.2197"/>
<polygon fill="#000000" stroke="#000000" points="773.4805,-384.4379 776.9804,-394.4379 780.4805,-384.4379 773.4805,-384.4379"/>
</g>
<!-- GO:1902494 -->
<g id="node18" class="node">
<title>GO:1902494</title>
<polygon fill="#ffffff" stroke="#000000" points="834.6117,-513.4019 719.3491,-513.4019 719.3491,-472.1981 834.6117,-472.1981 834.6117,-513.4019"/>
<text text-anchor="middle" x="776.9804" y="-497" font-family="Times,serif" font-size="14.00" fill="#000000">GO:1902494</text>
<text text-anchor="middle" x="776.9804" y="-480.2" font-family="Times,serif" font-size="14.00" fill="#000000">catalytic complex</text>
</g>
<!-- GO:1990234&#45;&gt;GO:1902494 -->
<g id="edge21" class="edge">
<title>GO:1990234&#45;&gt;GO:1902494</title>
<path fill="none" stroke="#000000" d="M776.9804,-435.9954C776.9804,-443.9109 776.9804,-453.1109 776.9804,-461.7722"/>
<polygon fill="#000000" stroke="#000000" points="773.4805,-461.9472 776.9804,-471.9472 780.4805,-461.9473 773.4805,-461.9472"/>
</g>
<!-- GO:0043234 -->
<g id="node19" class="node">
<title>GO:0043234</title>
<polygon fill="#ffffff" stroke="#000000" points="830.8478,-591.0019 723.113,-591.0019 723.113,-549.7981 830.8478,-549.7981 830.8478,-591.0019"/>
<text text-anchor="middle" x="776.9804" y="-574.6" font-family="Times,serif" font-size="14.00" fill="#000000">GO:0043234</text>
<text text-anchor="middle" x="776.9804" y="-557.8" font-family="Times,serif" font-size="14.00" fill="#000000">protein complex</text>
</g>
<!-- GO:1902494&#45;&gt;GO:0043234 -->
<g id="edge22" class="edge">
<title>GO:1902494&#45;&gt;GO:0043234</title>
<path fill="none" stroke="#000000" d="M776.9804,-513.5954C776.9804,-521.5109 776.9804,-530.7109 776.9804,-539.3722"/>
<polygon fill="#000000" stroke="#000000" points="773.4805,-539.5472 776.9804,-549.5472 780.4805,-539.5473 773.4805,-539.5472"/>
</g>
<!-- GO:0032991 -->
<g id="node20" class="node">
<title>GO:0032991</title>
<polygon fill="#ffffff" stroke="#000000" points="856.1477,-668.6019 697.8131,-668.6019 697.8131,-627.3981 856.1477,-627.3981 856.1477,-668.6019"/>
<text text-anchor="middle" x="776.9804" y="-652.2" font-family="Times,serif" font-size="14.00" fill="#000000">GO:0032991</text>
<text text-anchor="middle" x="776.9804" y="-635.4" font-family="Times,serif" font-size="14.00" fill="#000000">macromolecular complex</text>
</g>
<!-- GO:0043234&#45;&gt;GO:0032991 -->
<g id="edge23" class="edge">
<title>GO:0043234&#45;&gt;GO:0032991</title>
<path fill="none" stroke="#000000" d="M776.9804,-591.1954C776.9804,-599.1109 776.9804,-608.3109 776.9804,-616.9722"/>
<polygon fill="#000000" stroke="#000000" points="773.4805,-617.1472 776.9804,-627.1472 780.4805,-617.1473 773.4805,-617.1472"/>
</g>
<!-- GO:0044444 -->
<g id="node21" class="node">
<title>GO:0044444</title>
<polygon fill="#00ffff" stroke="#000000" points="519.397,-238.6019 410.5638,-238.6019 410.5638,-197.3981 519.397,-197.3981 519.397,-238.6019"/>
<text text-anchor="middle" x="464.9804" y="-222.2" font-family="Times,serif" font-size="14.00" fill="#000000">GO:0044444</text>
<text text-anchor="middle" x="464.9804" y="-205.4" font-family="Times,serif" font-size="14.00" fill="#000000">cytoplasmic part</text>
</g>
<!-- GO:0044444&#45;&gt;GO:0044424 -->
<g id="edge24" class="edge">
<title>GO:0044444&#45;&gt;GO:0044424</title>
<path fill="none" stroke="#000000" d="M464.9804,-238.8031C464.9804,-253.4337 464.9804,-273.2642 464.9804,-289.7586"/>
<polygon fill="#000000" stroke="#000000" points="461.4805,-290.0278 464.9804,-300.0278 468.4805,-290.0279 461.4805,-290.0278"/>
</g>
</g>
</svg>
