<?xml version="1.0" encoding="UTF-8" standalone="no"?>
<!DOCTYPE svg PUBLIC "-//W3C//DTD SVG 1.1//EN"
 "http://www.w3.org/Graphics/SVG/1.1/DTD/svg11.dtd">
<!-- Generated by graphviz version 2.40.1 (20161225.0304)
 -->
<!-- Title: G Pages: 1 -->
<svg width="609pt" height="505pt"
 viewBox="0.00 0.00 608.92 504.80" xmlns="http://www.w3.org/2000/svg" xmlns:xlink="http://www.w3.org/1999/xlink">
<g id="graph0" class="graph" transform="scale(1 1) rotate(0) translate(4 500.8)">
<title>G</title>
<polygon fill="#ffffff" stroke="transparent" points="-4,4 -4,-500.8 604.9222,-500.8 604.9222,4 -4,4"/>
<!-- GO:0034062 -->
<g id="node1" class="node">
<title>GO:0034062</title>
<polygon fill="#00ffff" stroke="#000000" points="159.1074,-41.4019 -.0358,-41.4019 -.0358,-.1981 159.1074,-.1981 159.1074,-41.4019"/>
<text text-anchor="middle" x="79.5358" y="-25" font-family="Times,serif" font-size="14.00" fill="#000000">GO:0034062</text>
<text text-anchor="middle" x="79.5358" y="-8.2" font-family="Times,serif" font-size="14.00" fill="#000000">RNA polymerase activity</text>
</g>
<!-- GO:0016779 -->
<g id="node2" class="node">
<title>GO:0016779</title>
<polygon fill="#ffffff" stroke="#000000" points="149.1479,-136.2014 9.9237,-136.2014 9.9237,-77.3986 149.1479,-77.3986 149.1479,-136.2014"/>
<text text-anchor="middle" x="79.5358" y="-119.4" font-family="Times,serif" font-size="14.00" fill="#000000">GO:0016779</text>
<text text-anchor="middle" x="79.5358" y="-102.6" font-family="Times,serif" font-size="14.00" fill="#000000">nucleotidyltransferase</text>
<text text-anchor="middle" x="79.5358" y="-85.8" font-family="Times,serif" font-size="14.00" fill="#000000">activity</text>
</g>
<!-- GO:0034062&#45;&gt;GO:0016779 -->
<g id="edge1" class="edge">
<title>GO:0034062&#45;&gt;GO:0016779</title>
<path fill="none" stroke="#000000" d="M79.5358,-41.6182C79.5358,-49.3358 79.5358,-58.3662 79.5358,-67.2036"/>
<polygon fill="#000000" stroke="#000000" points="76.0359,-67.3991 79.5358,-77.3991 83.0359,-67.3992 76.0359,-67.3991"/>
</g>
<!-- GO:0016772 -->
<g id="node3" class="node">
<title>GO:0016772</title>
<polygon fill="#00ffff" stroke="#000000" points="156.5436,-247.3003 2.528,-247.3003 2.528,-171.8997 156.5436,-171.8997 156.5436,-247.3003"/>
<text text-anchor="middle" x="79.5358" y="-230.6" font-family="Times,serif" font-size="14.00" fill="#000000">GO:0016772</text>
<text text-anchor="middle" x="79.5358" y="-213.8" font-family="Times,serif" font-size="14.00" fill="#000000">transferase activity,</text>
<text text-anchor="middle" x="79.5358" y="-197" font-family="Times,serif" font-size="14.00" fill="#000000">transferring phosphorus&#45;</text>
<text text-anchor="middle" x="79.5358" y="-180.2" font-family="Times,serif" font-size="14.00" fill="#000000">containing groups</text>
</g>
<!-- GO:0016779&#45;&gt;GO:0016772 -->
<g id="edge2" class="edge">
<title>GO:0016779&#45;&gt;GO:0016772</title>
<path fill="none" stroke="#000000" d="M79.5358,-136.2584C79.5358,-144.1901 79.5358,-152.98 79.5358,-161.6392"/>
<polygon fill="#000000" stroke="#000000" points="76.0359,-161.6849 79.5358,-171.685 83.0359,-161.685 76.0359,-161.6849"/>
</g>
<!-- GO:0016740 -->
<g id="node4" class="node">
<title>GO:0016740</title>
<polygon fill="#ffffff" stroke="#000000" points="140.6475,-333.0019 18.4241,-333.0019 18.4241,-291.7981 140.6475,-291.7981 140.6475,-333.0019"/>
<text text-anchor="middle" x="79.5358" y="-316.6" font-family="Times,serif" font-size="14.00" fill="#000000">GO:0016740</text>
<text text-anchor="middle" x="79.5358" y="-299.8" font-family="Times,serif" font-size="14.00" fill="#000000">transferase activity</text>
</g>
<!-- GO:0016772&#45;&gt;GO:0016740 -->
<g id="edge3" class="edge">
<title>GO:0016772&#45;&gt;GO:0016740</title>
<path fill="none" stroke="#000000" d="M79.5358,-247.2952C79.5358,-258.5552 79.5358,-270.7618 79.5358,-281.5299"/>
<polygon fill="#000000" stroke="#000000" points="76.0359,-281.7302 79.5358,-291.7302 83.0359,-281.7302 76.0359,-281.7302"/>
</g>
<!-- GO:0003824 -->
<g id="node5" class="node">
<title>GO:0003824</title>
<polygon fill="#00ff00" stroke="#000000" points="239.9482,-419.0019 131.1234,-419.0019 131.1234,-377.7981 239.9482,-377.7981 239.9482,-419.0019"/>
<text text-anchor="middle" x="185.5358" y="-402.6" font-family="Times,serif" font-size="14.00" fill="#000000">GO:0003824</text>
<text text-anchor="middle" x="185.5358" y="-385.8" font-family="Times,serif" font-size="14.00" fill="#000000">catalytic activity</text>
</g>
<!-- GO:0016740&#45;&gt;GO:0003824 -->
<g id="edge4" class="edge">
<title>GO:0016740&#45;&gt;GO:0003824</title>
<path fill="none" stroke="#000000" d="M105.1954,-333.2182C119.2572,-344.6268 136.8549,-358.9042 151.9933,-371.1863"/>
<polygon fill="#000000" stroke="#000000" points="150.1417,-374.191 160.1125,-377.7735 154.552,-368.7551 150.1417,-374.191"/>
</g>
<!-- GO:0003674 -->
<g id="node6" class="node">
<title>GO:0003674</title>
<polygon fill="#ffffff" stroke="#000000" points="306.1689,-496.6019 180.9027,-496.6019 180.9027,-455.3981 306.1689,-455.3981 306.1689,-496.6019"/>
<text text-anchor="middle" x="243.5358" y="-480.2" font-family="Times,serif" font-size="14.00" fill="#000000">GO:0003674</text>
<text text-anchor="middle" x="243.5358" y="-463.4" font-family="Times,serif" font-size="14.00" fill="#000000">molecular_function</text>
</g>
<!-- GO:0003824&#45;&gt;GO:0003674 -->
<g id="edge5" class="edge">
<title>GO:0003824&#45;&gt;GO:0003674</title>
<path fill="none" stroke="#000000" d="M201.0787,-419.1954C207.45,-427.7197 214.9349,-437.7339 221.831,-446.9605"/>
<polygon fill="#000000" stroke="#000000" points="219.1597,-449.2327 227.95,-455.1472 224.7666,-445.0419 219.1597,-449.2327"/>
</g>
<!-- GO:0003676 -->
<g id="node7" class="node">
<title>GO:0003676</title>
<polygon fill="#00ff00" stroke="#000000" points="388.0627,-230.2019 259.0089,-230.2019 259.0089,-188.9981 388.0627,-188.9981 388.0627,-230.2019"/>
<text text-anchor="middle" x="323.5358" y="-213.8" font-family="Times,serif" font-size="14.00" fill="#000000">GO:0003676</text>
<text text-anchor="middle" x="323.5358" y="-197" font-family="Times,serif" font-size="14.00" fill="#000000">nucleic acid binding</text>
</g>
<!-- GO:0097159 -->
<g id="node8" class="node">
<title>GO:0097159</title>
<polygon fill="#00ff00" stroke="#000000" points="316.0472,-341.8014 159.0244,-341.8014 159.0244,-282.9986 316.0472,-282.9986 316.0472,-341.8014"/>
<text text-anchor="middle" x="237.5358" y="-325" font-family="Times,serif" font-size="14.00" fill="#000000">GO:0097159</text>
<text text-anchor="middle" x="237.5358" y="-308.2" font-family="Times,serif" font-size="14.00" fill="#000000">organic cyclic compound</text>
<text text-anchor="middle" x="237.5358" y="-291.4" font-family="Times,serif" font-size="14.00" fill="#000000">binding</text>
</g>
<!-- GO:0003676&#45;&gt;GO:0097159 -->
<g id="edge6" class="edge">
<title>GO:0003676&#45;&gt;GO:0097159</title>
<path fill="none" stroke="#000000" d="M306.1324,-230.4031C295.3492,-243.2928 281.1893,-260.2188 268.5363,-275.3436"/>
<polygon fill="#000000" stroke="#000000" points="265.8149,-273.142 262.0828,-283.0577 271.1839,-277.6335 265.8149,-273.142"/>
</g>
<!-- GO:1901363 -->
<g id="node9" class="node">
<title>GO:1901363</title>
<polygon fill="#00ff00" stroke="#000000" points="481.0464,-341.8014 334.0252,-341.8014 334.0252,-282.9986 481.0464,-282.9986 481.0464,-341.8014"/>
<text text-anchor="middle" x="407.5358" y="-325" font-family="Times,serif" font-size="14.00" fill="#000000">GO:1901363</text>
<text text-anchor="middle" x="407.5358" y="-308.2" font-family="Times,serif" font-size="14.00" fill="#000000">heterocyclic compound</text>
<text text-anchor="middle" x="407.5358" y="-291.4" font-family="Times,serif" font-size="14.00" fill="#000000">binding</text>
</g>
<!-- GO:0003676&#45;&gt;GO:1901363 -->
<g id="edge7" class="edge">
<title>GO:0003676&#45;&gt;GO:1901363</title>
<path fill="none" stroke="#000000" d="M340.5345,-230.4031C350.9703,-243.1746 364.644,-259.9086 376.9157,-274.9268"/>
<polygon fill="#000000" stroke="#000000" points="374.5219,-277.5287 383.5596,-283.0577 379.9424,-273.0995 374.5219,-277.5287"/>
</g>
<!-- GO:0005488 -->
<g id="node10" class="node">
<title>GO:0005488</title>
<polygon fill="#ffffff" stroke="#000000" points="367.1397,-419.0019 277.9319,-419.0019 277.9319,-377.7981 367.1397,-377.7981 367.1397,-419.0019"/>
<text text-anchor="middle" x="322.5358" y="-402.6" font-family="Times,serif" font-size="14.00" fill="#000000">GO:0005488</text>
<text text-anchor="middle" x="322.5358" y="-385.8" font-family="Times,serif" font-size="14.00" fill="#000000">binding</text>
</g>
<!-- GO:0097159&#45;&gt;GO:0005488 -->
<g id="edge8" class="edge">
<title>GO:0097159&#45;&gt;GO:0005488</title>
<path fill="none" stroke="#000000" d="M266.788,-341.9963C275.8672,-351.1824 285.8427,-361.2752 294.8145,-370.3526"/>
<polygon fill="#000000" stroke="#000000" points="292.5541,-373.0446 302.0731,-377.6966 297.5328,-368.1239 292.5541,-373.0446"/>
</g>
<!-- GO:1901363&#45;&gt;GO:0005488 -->
<g id="edge9" class="edge">
<title>GO:1901363&#45;&gt;GO:0005488</title>
<path fill="none" stroke="#000000" d="M378.2836,-341.9963C369.2044,-351.1824 359.2289,-361.2752 350.2571,-370.3526"/>
<polygon fill="#000000" stroke="#000000" points="347.5388,-368.1239 342.9985,-377.6966 352.5175,-373.0446 347.5388,-368.1239"/>
</g>
<!-- GO:0005488&#45;&gt;GO:0003674 -->
<g id="edge10" class="edge">
<title>GO:0005488&#45;&gt;GO:0003674</title>
<path fill="none" stroke="#000000" d="M301.3652,-419.1954C292.3329,-428.0677 281.6575,-438.5539 271.9532,-448.0862"/>
<polygon fill="#000000" stroke="#000000" points="269.4462,-445.6427 264.7648,-455.1472 274.3515,-450.6365 269.4462,-445.6427"/>
</g>
<!-- GO:0046872 -->
<g id="node11" class="node">
<title>GO:0046872</title>
<polygon fill="#00ffff" stroke="#000000" points="600.8088,-127.4019 486.2628,-127.4019 486.2628,-86.1981 600.8088,-86.1981 600.8088,-127.4019"/>
<text text-anchor="middle" x="543.5358" y="-111" font-family="Times,serif" font-size="14.00" fill="#000000">GO:0046872</text>
<text text-anchor="middle" x="543.5358" y="-94.2" font-family="Times,serif" font-size="14.00" fill="#000000">metal ion binding</text>
</g>
<!-- GO:0043169 -->
<g id="node12" class="node">
<title>GO:0043169</title>
<polygon fill="#ffffff" stroke="#000000" points="592.0287,-230.2019 495.0429,-230.2019 495.0429,-188.9981 592.0287,-188.9981 592.0287,-230.2019"/>
<text text-anchor="middle" x="543.5358" y="-213.8" font-family="Times,serif" font-size="14.00" fill="#000000">GO:0043169</text>
<text text-anchor="middle" x="543.5358" y="-197" font-family="Times,serif" font-size="14.00" fill="#000000">cation binding</text>
</g>
<!-- GO:0046872&#45;&gt;GO:0043169 -->
<g id="edge11" class="edge">
<title>GO:0046872&#45;&gt;GO:0043169</title>
<path fill="none" stroke="#000000" d="M543.5358,-127.6031C543.5358,-142.2337 543.5358,-162.0642 543.5358,-178.5586"/>
<polygon fill="#000000" stroke="#000000" points="540.0359,-178.8278 543.5358,-188.8278 547.0359,-178.8279 540.0359,-178.8278"/>
</g>
<!-- GO:0043167 -->
<g id="node13" class="node">
<title>GO:0043167</title>
<polygon fill="#ffffff" stroke="#000000" points="588.1397,-333.0019 498.9319,-333.0019 498.9319,-291.7981 588.1397,-291.7981 588.1397,-333.0019"/>
<text text-anchor="middle" x="543.5358" y="-316.6" font-family="Times,serif" font-size="14.00" fill="#000000">GO:0043167</text>
<text text-anchor="middle" x="543.5358" y="-299.8" font-family="Times,serif" font-size="14.00" fill="#000000">ion binding</text>
</g>
<!-- GO:0043169&#45;&gt;GO:0043167 -->
<g id="edge12" class="edge">
<title>GO:0043169&#45;&gt;GO:0043167</title>
<path fill="none" stroke="#000000" d="M543.5358,-230.4031C543.5358,-245.0337 543.5358,-264.8642 543.5358,-281.3586"/>
<polygon fill="#000000" stroke="#000000" points="540.0359,-281.6278 543.5358,-291.6278 547.0359,-281.6279 540.0359,-281.6278"/>
</g>
<!-- GO:0043167&#45;&gt;GO:0005488 -->
<g id="edge13" class="edge">
<title>GO:0043167&#45;&gt;GO:0005488</title>
<path fill="none" stroke="#000000" d="M508.0498,-333.0727C502.2806,-336.1062 496.3045,-339.0597 490.5358,-341.6 453.4773,-357.9187 410.1556,-372.4614 376.7868,-382.746"/>
<polygon fill="#000000" stroke="#000000" points="375.7565,-379.4009 367.2116,-385.6647 377.7976,-386.0968 375.7565,-379.4009"/>
</g>
</g>
</svg>
