<?xml version="1.0" encoding="UTF-8" standalone="no"?>
<!DOCTYPE svg PUBLIC "-//W3C//DTD SVG 1.1//EN"
 "http://www.w3.org/Graphics/SVG/1.1/DTD/svg11.dtd">
<!-- Generated by graphviz version 2.40.1 (20161225.0304)
 -->
<!-- Title: G Pages: 1 -->
<svg width="1322pt" height="805pt"
 viewBox="0.00 0.00 1322.12 804.80" xmlns="http://www.w3.org/2000/svg" xmlns:xlink="http://www.w3.org/1999/xlink">
<g id="graph0" class="graph" transform="scale(1 1) rotate(0) translate(4 800.8)">
<title>G</title>
<polygon fill="#ffffff" stroke="transparent" points="-4,4 -4,-800.8 1318.1249,-800.8 1318.1249,4 -4,4"/>
<!-- GO:0034641 -->
<g id="node1" class="node">
<title>GO:0034641</title>
<polygon fill="#00ff00" stroke="#000000" points="641.037,-547.3003 507.414,-547.3003 507.414,-471.8997 641.037,-471.8997 641.037,-547.3003"/>
<text text-anchor="middle" x="574.2255" y="-530.6" font-family="Times,serif" font-size="14.00" fill="#000000">GO:0034641</text>
<text text-anchor="middle" x="574.2255" y="-513.8" font-family="Times,serif" font-size="14.00" fill="#000000">cellular nitrogen</text>
<text text-anchor="middle" x="574.2255" y="-497" font-family="Times,serif" font-size="14.00" fill="#000000">compound metabolic</text>
<text text-anchor="middle" x="574.2255" y="-480.2" font-family="Times,serif" font-size="14.00" fill="#000000">process</text>
</g>
<!-- GO:0006807 -->
<g id="node2" class="node">
<title>GO:0006807</title>
<polygon fill="#ffffff" stroke="#000000" points="656.9874,-641.8014 531.4636,-641.8014 531.4636,-582.9986 656.9874,-582.9986 656.9874,-641.8014"/>
<text text-anchor="middle" x="594.2255" y="-625" font-family="Times,serif" font-size="14.00" fill="#000000">GO:0006807</text>
<text text-anchor="middle" x="594.2255" y="-608.2" font-family="Times,serif" font-size="14.00" fill="#000000">nitrogen compound</text>
<text text-anchor="middle" x="594.2255" y="-591.4" font-family="Times,serif" font-size="14.00" fill="#000000">metabolic process</text>
</g>
<!-- GO:0034641&#45;&gt;GO:0006807 -->
<g id="edge1" class="edge">
<title>GO:0034641&#45;&gt;GO:0006807</title>
<path fill="none" stroke="#000000" d="M581.5592,-547.2952C583.1919,-555.6874 584.9269,-564.6054 586.5721,-573.0618"/>
<polygon fill="#000000" stroke="#000000" points="583.1761,-573.9338 588.5215,-583.0814 590.0473,-572.597 583.1761,-573.9338"/>
</g>
<!-- GO:0044237 -->
<g id="node3" class="node">
<title>GO:0044237</title>
<polygon fill="#00ff00" stroke="#000000" points="365.4083,-641.8014 249.0427,-641.8014 249.0427,-582.9986 365.4083,-582.9986 365.4083,-641.8014"/>
<text text-anchor="middle" x="307.2255" y="-625" font-family="Times,serif" font-size="14.00" fill="#000000">GO:0044237</text>
<text text-anchor="middle" x="307.2255" y="-608.2" font-family="Times,serif" font-size="14.00" fill="#000000">cellular metabolic</text>
<text text-anchor="middle" x="307.2255" y="-591.4" font-family="Times,serif" font-size="14.00" fill="#000000">process</text>
</g>
<!-- GO:0034641&#45;&gt;GO:0044237 -->
<g id="edge2" class="edge">
<title>GO:0034641&#45;&gt;GO:0044237</title>
<path fill="none" stroke="#000000" d="M507.3783,-543.4717C504.3046,-544.7759 501.2438,-546.0259 498.2255,-547.2 447.5633,-566.9078 430.044,-564.0807 375.0568,-583.087"/>
<polygon fill="#000000" stroke="#000000" points="373.7677,-579.8305 365.5128,-586.4719 376.1076,-586.4279 373.7677,-579.8305"/>
</g>
<!-- GO:0008152 -->
<g id="node4" class="node">
<title>GO:0008152</title>
<polygon fill="#00ff00" stroke="#000000" points="579.4111,-719.0019 463.0399,-719.0019 463.0399,-677.7981 579.4111,-677.7981 579.4111,-719.0019"/>
<text text-anchor="middle" x="521.2255" y="-702.6" font-family="Times,serif" font-size="14.00" fill="#000000">GO:0008152</text>
<text text-anchor="middle" x="521.2255" y="-685.8" font-family="Times,serif" font-size="14.00" fill="#000000">metabolic process</text>
</g>
<!-- GO:0006807&#45;&gt;GO:0008152 -->
<g id="edge3" class="edge">
<title>GO:0006807&#45;&gt;GO:0008152</title>
<path fill="none" stroke="#000000" d="M569.103,-641.9963C561.4615,-650.9986 553.0808,-660.8719 545.4965,-669.8067"/>
<polygon fill="#000000" stroke="#000000" points="542.6024,-667.8078 538.7994,-677.6966 547.9391,-672.3377 542.6024,-667.8078"/>
</g>
<!-- GO:0044237&#45;&gt;GO:0008152 -->
<g id="edge5" class="edge">
<title>GO:0044237&#45;&gt;GO:0008152</title>
<path fill="none" stroke="#000000" d="M365.6292,-638.0266C368.5313,-639.2456 371.4087,-640.4426 374.2255,-641.6 401.0412,-652.6184 430.8431,-664.2468 456.5649,-674.0924"/>
<polygon fill="#000000" stroke="#000000" points="455.6178,-677.4772 466.2085,-677.7736 458.1142,-670.9375 455.6178,-677.4772"/>
</g>
<!-- GO:0009987 -->
<g id="node5" class="node">
<title>GO:0009987</title>
<polygon fill="#ffff00" stroke="#000000" points="439.1817,-719.0019 335.2693,-719.0019 335.2693,-677.7981 439.1817,-677.7981 439.1817,-719.0019"/>
<text text-anchor="middle" x="387.2255" y="-702.6" font-family="Times,serif" font-size="14.00" fill="#000000">GO:0009987</text>
<text text-anchor="middle" x="387.2255" y="-685.8" font-family="Times,serif" font-size="14.00" fill="#000000">cellular process</text>
</g>
<!-- GO:0044237&#45;&gt;GO:0009987 -->
<g id="edge4" class="edge">
<title>GO:0044237&#45;&gt;GO:0009987</title>
<path fill="none" stroke="#000000" d="M334.757,-641.9963C343.3021,-651.1824 352.6908,-661.2752 361.1349,-670.3526"/>
<polygon fill="#000000" stroke="#000000" points="358.5927,-672.7585 367.9665,-677.6966 363.7181,-667.9908 358.5927,-672.7585"/>
</g>
<!-- GO:0008150 -->
<g id="node6" class="node">
<title>GO:0008150</title>
<polygon fill="#ffffff" stroke="#000000" points="511.6961,-796.6019 390.7549,-796.6019 390.7549,-755.3981 511.6961,-755.3981 511.6961,-796.6019"/>
<text text-anchor="middle" x="451.2255" y="-780.2" font-family="Times,serif" font-size="14.00" fill="#000000">GO:0008150</text>
<text text-anchor="middle" x="451.2255" y="-763.4" font-family="Times,serif" font-size="14.00" fill="#000000">biological_process</text>
</g>
<!-- GO:0008152&#45;&gt;GO:0008150 -->
<g id="edge6" class="edge">
<title>GO:0008152&#45;&gt;GO:0008150</title>
<path fill="none" stroke="#000000" d="M502.4668,-719.1954C494.6203,-727.8937 485.3746,-738.1433 476.9122,-747.5244"/>
<polygon fill="#000000" stroke="#000000" points="474.1353,-745.3775 470.036,-755.1472 479.333,-750.0662 474.1353,-745.3775"/>
</g>
<!-- GO:0009987&#45;&gt;GO:0008150 -->
<g id="edge7" class="edge">
<title>GO:0009987&#45;&gt;GO:0008150</title>
<path fill="none" stroke="#000000" d="M404.3763,-719.1954C411.4785,-727.8067 419.8345,-737.9384 427.5082,-747.2427"/>
<polygon fill="#000000" stroke="#000000" points="424.9645,-749.6594 434.0273,-755.1472 430.3648,-745.2056 424.9645,-749.6594"/>
</g>
<!-- GO:0034645 -->
<g id="node7" class="node">
<title>GO:0034645</title>
<polygon fill="#00ffff" stroke="#000000" points="771.9979,-316.6014 624.4531,-316.6014 624.4531,-257.7986 771.9979,-257.7986 771.9979,-316.6014"/>
<text text-anchor="middle" x="698.2255" y="-299.8" font-family="Times,serif" font-size="14.00" fill="#000000">GO:0034645</text>
<text text-anchor="middle" x="698.2255" y="-283" font-family="Times,serif" font-size="14.00" fill="#000000">cellular macromolecule</text>
<text text-anchor="middle" x="698.2255" y="-266.2" font-family="Times,serif" font-size="14.00" fill="#000000">biosynthetic process</text>
</g>
<!-- GO:0044249 -->
<g id="node8" class="node">
<title>GO:0044249</title>
<polygon fill="#ffffff" stroke="#000000" points="179.1379,-539.0014 49.3131,-539.0014 49.3131,-480.1986 179.1379,-480.1986 179.1379,-539.0014"/>
<text text-anchor="middle" x="114.2255" y="-522.2" font-family="Times,serif" font-size="14.00" fill="#000000">GO:0044249</text>
<text text-anchor="middle" x="114.2255" y="-505.4" font-family="Times,serif" font-size="14.00" fill="#000000">cellular biosynthetic</text>
<text text-anchor="middle" x="114.2255" y="-488.6" font-family="Times,serif" font-size="14.00" fill="#000000">process</text>
</g>
<!-- GO:0034645&#45;&gt;GO:0044249 -->
<g id="edge8" class="edge">
<title>GO:0034645&#45;&gt;GO:0044249</title>
<path fill="none" stroke="#000000" d="M624.2721,-313.2219C609.4981,-317.6646 593.9828,-321.8047 579.2255,-324.8 496.0979,-341.6722 269.2958,-312.9981 199.2255,-360.8 168.2912,-381.9033 179.7705,-403.4675 161.2255,-436 154.4646,-447.8602 146.6449,-460.4831 139.3477,-471.8646"/>
<polygon fill="#000000" stroke="#000000" points="136.3883,-469.9955 133.8955,-480.293 142.2658,-473.7976 136.3883,-469.9955"/>
</g>
<!-- GO:0009059 -->
<g id="node9" class="node">
<title>GO:0009059</title>
<polygon fill="#ffffff" stroke="#000000" points="1152.1407,-427.8014 1022.3103,-427.8014 1022.3103,-368.9986 1152.1407,-368.9986 1152.1407,-427.8014"/>
<text text-anchor="middle" x="1087.2255" y="-411" font-family="Times,serif" font-size="14.00" fill="#000000">GO:0009059</text>
<text text-anchor="middle" x="1087.2255" y="-394.2" font-family="Times,serif" font-size="14.00" fill="#000000">macromolecule</text>
<text text-anchor="middle" x="1087.2255" y="-377.4" font-family="Times,serif" font-size="14.00" fill="#000000">biosynthetic process</text>
</g>
<!-- GO:0034645&#45;&gt;GO:0009059 -->
<g id="edge9" class="edge">
<title>GO:0034645&#45;&gt;GO:0009059</title>
<path fill="none" stroke="#000000" d="M757.7816,-316.4848C765.5484,-319.6172 773.4937,-322.4957 781.2255,-324.8 881.224,-354.6027 913.9189,-328.7671 1013.2255,-360.8 1017.1599,-362.0691 1021.1418,-363.5259 1025.1111,-365.1125"/>
<polygon fill="#000000" stroke="#000000" points="1023.7491,-368.3366 1034.3217,-369.0226 1026.4845,-361.8931 1023.7491,-368.3366"/>
</g>
<!-- GO:0044260 -->
<g id="node10" class="node">
<title>GO:0044260</title>
<polygon fill="#00ffff" stroke="#000000" points="1003.9979,-427.8014 856.4531,-427.8014 856.4531,-368.9986 1003.9979,-368.9986 1003.9979,-427.8014"/>
<text text-anchor="middle" x="930.2255" y="-411" font-family="Times,serif" font-size="14.00" fill="#000000">GO:0044260</text>
<text text-anchor="middle" x="930.2255" y="-394.2" font-family="Times,serif" font-size="14.00" fill="#000000">cellular macromolecule</text>
<text text-anchor="middle" x="930.2255" y="-377.4" font-family="Times,serif" font-size="14.00" fill="#000000">metabolic process</text>
</g>
<!-- GO:0034645&#45;&gt;GO:0044260 -->
<g id="edge10" class="edge">
<title>GO:0034645&#45;&gt;GO:0044260</title>
<path fill="none" stroke="#000000" d="M759.1808,-316.4165C790.0952,-331.2341 827.7997,-349.3063 859.9336,-364.7084"/>
<polygon fill="#000000" stroke="#000000" points="858.7445,-368.0197 869.275,-369.1858 861.7701,-361.7073 858.7445,-368.0197"/>
</g>
<!-- GO:0044249&#45;&gt;GO:0044237 -->
<g id="edge12" class="edge">
<title>GO:0044249&#45;&gt;GO:0044237</title>
<path fill="none" stroke="#000000" d="M169.2733,-538.9208C192.2926,-551.1819 219.1974,-565.5125 243.1035,-578.2459"/>
<polygon fill="#000000" stroke="#000000" points="241.6331,-581.4282 252.1046,-583.0403 244.924,-575.25 241.6331,-581.4282"/>
</g>
<!-- GO:0009058 -->
<g id="node11" class="node">
<title>GO:0009058</title>
<polygon fill="#ffffff" stroke="#000000" points="513.1407,-633.0019 383.3103,-633.0019 383.3103,-591.7981 513.1407,-591.7981 513.1407,-633.0019"/>
<text text-anchor="middle" x="448.2255" y="-616.6" font-family="Times,serif" font-size="14.00" fill="#000000">GO:0009058</text>
<text text-anchor="middle" x="448.2255" y="-599.8" font-family="Times,serif" font-size="14.00" fill="#000000">biosynthetic process</text>
</g>
<!-- GO:0044249&#45;&gt;GO:0009058 -->
<g id="edge11" class="edge">
<title>GO:0044249&#45;&gt;GO:0009058</title>
<path fill="none" stroke="#000000" d="M167.621,-538.9132C174.4348,-542.001 181.4105,-544.8608 188.2255,-547.2 267.8653,-574.5364 293.386,-559.6466 374.2255,-583.2 379.4466,-584.7212 384.8122,-586.4653 390.1544,-588.3276"/>
<polygon fill="#000000" stroke="#000000" points="389.1144,-591.6733 399.7086,-591.785 391.4964,-585.0911 389.1144,-591.6733"/>
</g>
<!-- GO:1901576 -->
<g id="node12" class="node">
<title>GO:1901576</title>
<polygon fill="#00ffff" stroke="#000000" points="1041.1407,-539.0014 911.3103,-539.0014 911.3103,-480.1986 1041.1407,-480.1986 1041.1407,-539.0014"/>
<text text-anchor="middle" x="976.2255" y="-522.2" font-family="Times,serif" font-size="14.00" fill="#000000">GO:1901576</text>
<text text-anchor="middle" x="976.2255" y="-505.4" font-family="Times,serif" font-size="14.00" fill="#000000">organic substance</text>
<text text-anchor="middle" x="976.2255" y="-488.6" font-family="Times,serif" font-size="14.00" fill="#000000">biosynthetic process</text>
</g>
<!-- GO:0009059&#45;&gt;GO:1901576 -->
<g id="edge13" class="edge">
<title>GO:0009059&#45;&gt;GO:1901576</title>
<path fill="none" stroke="#000000" d="M1058.0616,-427.6165C1044.2775,-441.4254 1027.672,-458.0608 1013.0316,-472.7276"/>
<polygon fill="#000000" stroke="#000000" points="1010.1677,-470.6424 1005.5801,-480.1926 1015.1219,-475.5878 1010.1677,-470.6424"/>
</g>
<!-- GO:0043170 -->
<g id="node13" class="node">
<title>GO:0043170</title>
<polygon fill="#00ff00" stroke="#000000" points="1219.7277,-539.0014 1058.7233,-539.0014 1058.7233,-480.1986 1219.7277,-480.1986 1219.7277,-539.0014"/>
<text text-anchor="middle" x="1139.2255" y="-522.2" font-family="Times,serif" font-size="14.00" fill="#000000">GO:0043170</text>
<text text-anchor="middle" x="1139.2255" y="-505.4" font-family="Times,serif" font-size="14.00" fill="#000000">macromolecule metabolic</text>
<text text-anchor="middle" x="1139.2255" y="-488.6" font-family="Times,serif" font-size="14.00" fill="#000000">process</text>
</g>
<!-- GO:0009059&#45;&gt;GO:0043170 -->
<g id="edge14" class="edge">
<title>GO:0009059&#45;&gt;GO:0043170</title>
<path fill="none" stroke="#000000" d="M1100.8879,-427.6165C1107.1083,-440.9186 1114.5553,-456.8436 1121.2243,-471.1052"/>
<polygon fill="#000000" stroke="#000000" points="1118.0673,-472.6167 1125.4738,-480.1926 1124.4082,-469.6514 1118.0673,-472.6167"/>
</g>
<!-- GO:0044260&#45;&gt;GO:0044237 -->
<g id="edge15" class="edge">
<title>GO:0044260&#45;&gt;GO:0044237</title>
<path fill="none" stroke="#000000" d="M919.1108,-427.678C903.1874,-468.8967 874.6537,-539.8597 864.2255,-547.2 777.3844,-608.3262 496.1859,-559.8304 375.4532,-583.438"/>
<polygon fill="#000000" stroke="#000000" points="374.6675,-580.0271 365.6592,-585.604 376.1791,-586.862 374.6675,-580.0271"/>
</g>
<!-- GO:0044260&#45;&gt;GO:0043170 -->
<g id="edge16" class="edge">
<title>GO:0044260&#45;&gt;GO:0043170</title>
<path fill="none" stroke="#000000" d="M985.1378,-427.6165C1012.7484,-442.3069 1046.3713,-460.1962 1075.1557,-475.5112"/>
<polygon fill="#000000" stroke="#000000" points="1073.8453,-478.7785 1084.3175,-480.3858 1077.1333,-472.5987 1073.8453,-478.7785"/>
</g>
<!-- GO:0009058&#45;&gt;GO:0008152 -->
<g id="edge17" class="edge">
<title>GO:0009058&#45;&gt;GO:0008152</title>
<path fill="none" stroke="#000000" d="M465.8968,-633.2182C475.2222,-644.2043 486.8056,-657.8506 496.9603,-669.8137"/>
<polygon fill="#000000" stroke="#000000" points="494.5773,-672.4147 503.717,-677.7735 499.9139,-667.8847 494.5773,-672.4147"/>
</g>
<!-- GO:1901576&#45;&gt;GO:0009058 -->
<g id="edge19" class="edge">
<title>GO:1901576&#45;&gt;GO:0009058</title>
<path fill="none" stroke="#000000" d="M921.0537,-538.8008C913.216,-542.0748 905.1307,-545.0125 897.2255,-547.2 735.857,-591.8539 685.0262,-544.0887 522.2255,-583.2 516.4615,-584.5848 510.55,-586.326 504.7027,-588.2653"/>
<polygon fill="#000000" stroke="#000000" points="503.2346,-585.0713 494.9599,-591.6879 505.5547,-591.6756 503.2346,-585.0713"/>
</g>
<!-- GO:0071704 -->
<g id="node14" class="node">
<title>GO:0071704</title>
<polygon fill="#00ff00" stroke="#000000" points="1014.4111,-641.8014 898.0399,-641.8014 898.0399,-582.9986 1014.4111,-582.9986 1014.4111,-641.8014"/>
<text text-anchor="middle" x="956.2255" y="-625" font-family="Times,serif" font-size="14.00" fill="#000000">GO:0071704</text>
<text text-anchor="middle" x="956.2255" y="-608.2" font-family="Times,serif" font-size="14.00" fill="#000000">organic substance</text>
<text text-anchor="middle" x="956.2255" y="-591.4" font-family="Times,serif" font-size="14.00" fill="#000000">metabolic process</text>
</g>
<!-- GO:1901576&#45;&gt;GO:0071704 -->
<g id="edge18" class="edge">
<title>GO:1901576&#45;&gt;GO:0071704</title>
<path fill="none" stroke="#000000" d="M970.4943,-539.0584C968.444,-549.5969 966.099,-561.6505 963.9104,-572.8994"/>
<polygon fill="#000000" stroke="#000000" points="960.4317,-572.453 961.9575,-582.9373 967.3029,-573.7898 960.4317,-572.453"/>
</g>
<!-- GO:0043170&#45;&gt;GO:0071704 -->
<g id="edge20" class="edge">
<title>GO:0043170&#45;&gt;GO:0071704</title>
<path fill="none" stroke="#000000" d="M1086.785,-539.0584C1065.06,-551.2624 1039.7184,-565.498 1017.1726,-578.163"/>
<polygon fill="#000000" stroke="#000000" points="1015.3614,-575.166 1008.357,-583.1152 1018.7898,-581.269 1015.3614,-575.166"/>
</g>
<!-- GO:0071704&#45;&gt;GO:0008152 -->
<g id="edge21" class="edge">
<title>GO:0071704&#45;&gt;GO:0008152</title>
<path fill="none" stroke="#000000" d="M897.8954,-629.2243C881.8696,-633.5582 864.4392,-638.008 848.2255,-641.6 759.399,-661.2788 655.7498,-678.2902 589.3531,-688.4385"/>
<polygon fill="#000000" stroke="#000000" points="588.7899,-684.9838 579.4293,-689.9466 589.8416,-691.9044 588.7899,-684.9838"/>
</g>
<!-- GO:0097659 -->
<g id="node15" class="node">
<title>GO:0097659</title>
<polygon fill="#00ffff" stroke="#000000" points="978.8371,-58.6014 835.6139,-58.6014 835.6139,.2014 978.8371,.2014 978.8371,-58.6014"/>
<text text-anchor="middle" x="907.2255" y="-41.8" font-family="Times,serif" font-size="14.00" fill="#000000">GO:0097659</text>
<text text-anchor="middle" x="907.2255" y="-25" font-family="Times,serif" font-size="14.00" fill="#000000">nucleic acid&#45;templated</text>
<text text-anchor="middle" x="907.2255" y="-8.2" font-family="Times,serif" font-size="14.00" fill="#000000">transcription</text>
</g>
<!-- GO:0032774 -->
<g id="node16" class="node">
<title>GO:0032774</title>
<polygon fill="#ffffff" stroke="#000000" points="988.6905,-135.8019 825.7605,-135.8019 825.7605,-94.5981 988.6905,-94.5981 988.6905,-135.8019"/>
<text text-anchor="middle" x="907.2255" y="-119.4" font-family="Times,serif" font-size="14.00" fill="#000000">GO:0032774</text>
<text text-anchor="middle" x="907.2255" y="-102.6" font-family="Times,serif" font-size="14.00" fill="#000000">RNA biosynthetic process</text>
</g>
<!-- GO:0097659&#45;&gt;GO:0032774 -->
<g id="edge22" class="edge">
<title>GO:0097659&#45;&gt;GO:0032774</title>
<path fill="none" stroke="#000000" d="M907.2255,-58.7963C907.2255,-67.0638 907.2255,-76.0657 907.2255,-84.4008"/>
<polygon fill="#000000" stroke="#000000" points="903.7256,-84.4965 907.2255,-94.4966 910.7256,-84.4966 903.7256,-84.4965"/>
</g>
<!-- GO:0032774&#45;&gt;GO:0009059 -->
<g id="edge25" class="edge">
<title>GO:0032774&#45;&gt;GO:0009059</title>
<path fill="none" stroke="#000000" d="M947.733,-136.0099C962.9271,-145.3772 979.3669,-157.5919 991.2255,-172 1037.8313,-228.6258 1065.116,-311.1982 1078.0242,-359.3991"/>
<polygon fill="#000000" stroke="#000000" points="1074.6541,-360.3466 1080.5622,-369.1412 1081.428,-358.5818 1074.6541,-360.3466"/>
</g>
<!-- GO:0034654 -->
<g id="node17" class="node">
<title>GO:0034654</title>
<polygon fill="#ffffff" stroke="#000000" points="569.7669,-324.9003 422.6841,-324.9003 422.6841,-249.4997 569.7669,-249.4997 569.7669,-324.9003"/>
<text text-anchor="middle" x="496.2255" y="-308.2" font-family="Times,serif" font-size="14.00" fill="#000000">GO:0034654</text>
<text text-anchor="middle" x="496.2255" y="-291.4" font-family="Times,serif" font-size="14.00" fill="#000000">nucleobase&#45;containing</text>
<text text-anchor="middle" x="496.2255" y="-274.6" font-family="Times,serif" font-size="14.00" fill="#000000">compound biosynthetic</text>
<text text-anchor="middle" x="496.2255" y="-257.8" font-family="Times,serif" font-size="14.00" fill="#000000">process</text>
</g>
<!-- GO:0032774&#45;&gt;GO:0034654 -->
<g id="edge23" class="edge">
<title>GO:0032774&#45;&gt;GO:0034654</title>
<path fill="none" stroke="#000000" d="M857.6493,-135.9472C788.6772,-164.8114 662.8569,-217.4662 579.384,-252.3989"/>
<polygon fill="#000000" stroke="#000000" points="577.801,-249.2672 569.9274,-256.3564 580.5033,-255.7245 577.801,-249.2672"/>
</g>
<!-- GO:0016070 -->
<g id="node18" class="node">
<title>GO:0016070</title>
<polygon fill="#ffffff" stroke="#000000" points="981.9607,-213.4019 832.4903,-213.4019 832.4903,-172.1981 981.9607,-172.1981 981.9607,-213.4019"/>
<text text-anchor="middle" x="907.2255" y="-197" font-family="Times,serif" font-size="14.00" fill="#000000">GO:0016070</text>
<text text-anchor="middle" x="907.2255" y="-180.2" font-family="Times,serif" font-size="14.00" fill="#000000">RNA metabolic process</text>
</g>
<!-- GO:0032774&#45;&gt;GO:0016070 -->
<g id="edge24" class="edge">
<title>GO:0032774&#45;&gt;GO:0016070</title>
<path fill="none" stroke="#000000" d="M907.2255,-135.9954C907.2255,-143.9109 907.2255,-153.1109 907.2255,-161.7722"/>
<polygon fill="#000000" stroke="#000000" points="903.7256,-161.9472 907.2255,-171.9472 910.7256,-161.9473 903.7256,-161.9472"/>
</g>
<!-- GO:0006139 -->
<g id="node19" class="node">
<title>GO:0006139</title>
<polygon fill="#00ffff" stroke="#000000" points="662.1807,-436.1003 520.2703,-436.1003 520.2703,-360.6997 662.1807,-360.6997 662.1807,-436.1003"/>
<text text-anchor="middle" x="591.2255" y="-419.4" font-family="Times,serif" font-size="14.00" fill="#000000">GO:0006139</text>
<text text-anchor="middle" x="591.2255" y="-402.6" font-family="Times,serif" font-size="14.00" fill="#000000">nucleobase&#45;containing</text>
<text text-anchor="middle" x="591.2255" y="-385.8" font-family="Times,serif" font-size="14.00" fill="#000000">compound metabolic</text>
<text text-anchor="middle" x="591.2255" y="-369" font-family="Times,serif" font-size="14.00" fill="#000000">process</text>
</g>
<!-- GO:0034654&#45;&gt;GO:0006139 -->
<g id="edge26" class="edge">
<title>GO:0034654&#45;&gt;GO:0006139</title>
<path fill="none" stroke="#000000" d="M528.3882,-324.8472C536.126,-333.9046 544.4722,-343.674 552.4751,-353.0416"/>
<polygon fill="#000000" stroke="#000000" points="549.9393,-355.4618 559.096,-360.7915 555.2615,-350.9149 549.9393,-355.4618"/>
</g>
<!-- GO:0018130 -->
<g id="node20" class="node">
<title>GO:0018130</title>
<polygon fill="#ffffff" stroke="#000000" points="152.6772,-427.8014 -.2262,-427.8014 -.2262,-368.9986 152.6772,-368.9986 152.6772,-427.8014"/>
<text text-anchor="middle" x="76.2255" y="-411" font-family="Times,serif" font-size="14.00" fill="#000000">GO:0018130</text>
<text text-anchor="middle" x="76.2255" y="-394.2" font-family="Times,serif" font-size="14.00" fill="#000000">heterocycle biosynthetic</text>
<text text-anchor="middle" x="76.2255" y="-377.4" font-family="Times,serif" font-size="14.00" fill="#000000">process</text>
</g>
<!-- GO:0034654&#45;&gt;GO:0018130 -->
<g id="edge27" class="edge">
<title>GO:0034654&#45;&gt;GO:0018130</title>
<path fill="none" stroke="#000000" d="M422.4959,-299.7862C354.9612,-312.2196 252.6595,-333.3425 166.2255,-360.8 161.6259,-362.2612 156.9349,-363.863 152.23,-365.5561"/>
<polygon fill="#000000" stroke="#000000" points="150.7318,-362.3789 142.5777,-369.1437 153.1706,-368.9404 150.7318,-362.3789"/>
</g>
<!-- GO:0044271 -->
<g id="node21" class="node">
<title>GO:0044271</title>
<polygon fill="#00ffff" stroke="#000000" points="502.7669,-436.1003 355.6841,-436.1003 355.6841,-360.6997 502.7669,-360.6997 502.7669,-436.1003"/>
<text text-anchor="middle" x="429.2255" y="-419.4" font-family="Times,serif" font-size="14.00" fill="#000000">GO:0044271</text>
<text text-anchor="middle" x="429.2255" y="-402.6" font-family="Times,serif" font-size="14.00" fill="#000000">cellular nitrogen</text>
<text text-anchor="middle" x="429.2255" y="-385.8" font-family="Times,serif" font-size="14.00" fill="#000000">compound biosynthetic</text>
<text text-anchor="middle" x="429.2255" y="-369" font-family="Times,serif" font-size="14.00" fill="#000000">process</text>
</g>
<!-- GO:0034654&#45;&gt;GO:0044271 -->
<g id="edge28" class="edge">
<title>GO:0034654&#45;&gt;GO:0044271</title>
<path fill="none" stroke="#000000" d="M473.5424,-324.8472C468.2488,-333.6329 462.5517,-343.0885 457.0633,-352.1975"/>
<polygon fill="#000000" stroke="#000000" points="454.0482,-350.4198 451.8853,-360.7915 460.044,-354.0324 454.0482,-350.4198"/>
</g>
<!-- GO:1901362 -->
<g id="node22" class="node">
<title>GO:1901362</title>
<polygon fill="#ffffff" stroke="#000000" points="837.7369,-427.8014 680.7141,-427.8014 680.7141,-368.9986 837.7369,-368.9986 837.7369,-427.8014"/>
<text text-anchor="middle" x="759.2255" y="-411" font-family="Times,serif" font-size="14.00" fill="#000000">GO:1901362</text>
<text text-anchor="middle" x="759.2255" y="-394.2" font-family="Times,serif" font-size="14.00" fill="#000000">organic cyclic compound</text>
<text text-anchor="middle" x="759.2255" y="-377.4" font-family="Times,serif" font-size="14.00" fill="#000000">biosynthetic process</text>
</g>
<!-- GO:0034654&#45;&gt;GO:1901362 -->
<g id="edge29" class="edge">
<title>GO:0034654&#45;&gt;GO:1901362</title>
<path fill="none" stroke="#000000" d="M569.9175,-318.0835C601.1772,-331.2124 637.9971,-346.7139 671.2255,-360.8 674.4592,-362.1708 677.759,-363.5717 681.0918,-364.9882"/>
<polygon fill="#000000" stroke="#000000" points="679.9725,-368.3156 690.5446,-369.01 682.7131,-361.8743 679.9725,-368.3156"/>
</g>
<!-- GO:0019438 -->
<g id="node23" class="node">
<title>GO:0019438</title>
<polygon fill="#ffffff" stroke="#000000" points="338.1407,-427.8014 208.3103,-427.8014 208.3103,-368.9986 338.1407,-368.9986 338.1407,-427.8014"/>
<text text-anchor="middle" x="273.2255" y="-411" font-family="Times,serif" font-size="14.00" fill="#000000">GO:0019438</text>
<text text-anchor="middle" x="273.2255" y="-394.2" font-family="Times,serif" font-size="14.00" fill="#000000">aromatic compound</text>
<text text-anchor="middle" x="273.2255" y="-377.4" font-family="Times,serif" font-size="14.00" fill="#000000">biosynthetic process</text>
</g>
<!-- GO:0034654&#45;&gt;GO:0019438 -->
<g id="edge30" class="edge">
<title>GO:0034654&#45;&gt;GO:0019438</title>
<path fill="none" stroke="#000000" d="M422.4601,-323.0399C398.134,-334.9534 370.9753,-348.3556 346.2255,-360.8 343.8016,-362.0188 341.3346,-363.2641 338.8444,-364.5254"/>
<polygon fill="#000000" stroke="#000000" points="337.0895,-361.4911 329.7613,-369.1427 340.2616,-367.7312 337.0895,-361.4911"/>
</g>
<!-- GO:0016070&#45;&gt;GO:0044260 -->
<g id="edge32" class="edge">
<title>GO:0016070&#45;&gt;GO:0044260</title>
<path fill="none" stroke="#000000" d="M923.4222,-213.653C930.3595,-223.8833 937.6735,-236.7503 941.2255,-249.6 951.2397,-285.8272 946.3683,-328.7899 940.2682,-359.215"/>
<polygon fill="#000000" stroke="#000000" points="936.8391,-358.5139 938.1721,-369.0245 943.6845,-359.9767 936.8391,-358.5139"/>
</g>
<!-- GO:0090304 -->
<g id="node24" class="node">
<title>GO:0090304</title>
<polygon fill="#ffffff" stroke="#000000" points="932.1765,-316.6014 790.2745,-316.6014 790.2745,-257.7986 932.1765,-257.7986 932.1765,-316.6014"/>
<text text-anchor="middle" x="861.2255" y="-299.8" font-family="Times,serif" font-size="14.00" fill="#000000">GO:0090304</text>
<text text-anchor="middle" x="861.2255" y="-283" font-family="Times,serif" font-size="14.00" fill="#000000">nucleic acid metabolic</text>
<text text-anchor="middle" x="861.2255" y="-266.2" font-family="Times,serif" font-size="14.00" fill="#000000">process</text>
</g>
<!-- GO:0016070&#45;&gt;GO:0090304 -->
<g id="edge31" class="edge">
<title>GO:0016070&#45;&gt;GO:0090304</title>
<path fill="none" stroke="#000000" d="M897.0166,-213.7504C892.0459,-223.9512 885.9064,-236.5505 880.1243,-248.4164"/>
<polygon fill="#000000" stroke="#000000" points="876.8271,-247.1928 875.5929,-257.7155 883.1198,-250.2592 876.8271,-247.1928"/>
</g>
<!-- GO:0006139&#45;&gt;GO:0034641 -->
<g id="edge34" class="edge">
<title>GO:0006139&#45;&gt;GO:0034641</title>
<path fill="none" stroke="#000000" d="M585.4701,-436.0472C584.1962,-444.38 582.8302,-453.3155 581.5046,-461.9863"/>
<polygon fill="#000000" stroke="#000000" points="578.0265,-461.5774 579.975,-471.9915 584.9461,-462.6353 578.0265,-461.5774"/>
</g>
<!-- GO:0044238 -->
<g id="node25" class="node">
<title>GO:0044238</title>
<polygon fill="#00ff00" stroke="#000000" points="839.2285,-633.0019 675.2225,-633.0019 675.2225,-591.7981 839.2285,-591.7981 839.2285,-633.0019"/>
<text text-anchor="middle" x="757.2255" y="-616.6" font-family="Times,serif" font-size="14.00" fill="#000000">GO:0044238</text>
<text text-anchor="middle" x="757.2255" y="-599.8" font-family="Times,serif" font-size="14.00" fill="#000000">primary metabolic process</text>
</g>
<!-- GO:0006139&#45;&gt;GO:0044238 -->
<g id="edge33" class="edge">
<title>GO:0006139&#45;&gt;GO:0044238</title>
<path fill="none" stroke="#000000" d="M624.0275,-436.2311C633.0178,-447.3972 642.4267,-459.8812 650.2255,-472 670.4903,-503.49 665.8383,-517.1818 688.2255,-547.2 698.3288,-560.7471 711.4084,-573.9021 723.4593,-584.8058"/>
<polygon fill="#000000" stroke="#000000" points="721.3747,-587.6342 731.1882,-591.6274 726.0068,-582.386 721.3747,-587.6342"/>
</g>
<!-- GO:0006725 -->
<g id="node26" class="node">
<title>GO:0006725</title>
<polygon fill="#ffffff" stroke="#000000" points="489.037,-547.3003 355.414,-547.3003 355.414,-471.8997 489.037,-471.8997 489.037,-547.3003"/>
<text text-anchor="middle" x="422.2255" y="-530.6" font-family="Times,serif" font-size="14.00" fill="#000000">GO:0006725</text>
<text text-anchor="middle" x="422.2255" y="-513.8" font-family="Times,serif" font-size="14.00" fill="#000000">cellular aromatic</text>
<text text-anchor="middle" x="422.2255" y="-497" font-family="Times,serif" font-size="14.00" fill="#000000">compound metabolic</text>
<text text-anchor="middle" x="422.2255" y="-480.2" font-family="Times,serif" font-size="14.00" fill="#000000">process</text>
</g>
<!-- GO:0006139&#45;&gt;GO:0006725 -->
<g id="edge35" class="edge">
<title>GO:0006139&#45;&gt;GO:0006725</title>
<path fill="none" stroke="#000000" d="M534.0098,-436.0472C519.1433,-445.8292 503.0147,-456.4417 487.7562,-466.4816"/>
<polygon fill="#000000" stroke="#000000" points="485.8122,-463.5709 479.3823,-471.9915 489.66,-469.4186 485.8122,-463.5709"/>
</g>
<!-- GO:1901360 -->
<g id="node27" class="node">
<title>GO:1901360</title>
<polygon fill="#00ff00" stroke="#000000" points="854.7369,-539.0014 697.7141,-539.0014 697.7141,-480.1986 854.7369,-480.1986 854.7369,-539.0014"/>
<text text-anchor="middle" x="776.2255" y="-522.2" font-family="Times,serif" font-size="14.00" fill="#000000">GO:1901360</text>
<text text-anchor="middle" x="776.2255" y="-505.4" font-family="Times,serif" font-size="14.00" fill="#000000">organic cyclic compound</text>
<text text-anchor="middle" x="776.2255" y="-488.6" font-family="Times,serif" font-size="14.00" fill="#000000">metabolic process</text>
</g>
<!-- GO:0006139&#45;&gt;GO:1901360 -->
<g id="edge36" class="edge">
<title>GO:0006139&#45;&gt;GO:1901360</title>
<path fill="none" stroke="#000000" d="M653.8581,-436.0472C674.8622,-448.6724 698.1679,-462.6811 718.7568,-475.0567"/>
<polygon fill="#000000" stroke="#000000" points="717.0256,-478.0997 727.3996,-480.2517 720.6319,-472.1001 717.0256,-478.0997"/>
</g>
<!-- GO:0046483 -->
<g id="node28" class="node">
<title>GO:0046483</title>
<polygon fill="#ffffff" stroke="#000000" points="336.9467,-539.0014 197.5043,-539.0014 197.5043,-480.1986 336.9467,-480.1986 336.9467,-539.0014"/>
<text text-anchor="middle" x="267.2255" y="-522.2" font-family="Times,serif" font-size="14.00" fill="#000000">GO:0046483</text>
<text text-anchor="middle" x="267.2255" y="-505.4" font-family="Times,serif" font-size="14.00" fill="#000000">heterocycle metabolic</text>
<text text-anchor="middle" x="267.2255" y="-488.6" font-family="Times,serif" font-size="14.00" fill="#000000">process</text>
</g>
<!-- GO:0006139&#45;&gt;GO:0046483 -->
<g id="edge37" class="edge">
<title>GO:0006139&#45;&gt;GO:0046483</title>
<path fill="none" stroke="#000000" d="M520.0517,-433.1786C517.4273,-434.1721 514.8131,-435.1169 512.2255,-436 440.7791,-460.3837 417.6719,-447.6163 346.2255,-472 342.2633,-473.3522 338.2385,-474.8492 334.2106,-476.4439"/>
<polygon fill="#000000" stroke="#000000" points="332.7382,-473.2653 324.8342,-480.3206 335.4128,-479.7342 332.7382,-473.2653"/>
</g>
<!-- GO:0018130&#45;&gt;GO:0044249 -->
<g id="edge38" class="edge">
<title>GO:0018130&#45;&gt;GO:0044249</title>
<path fill="none" stroke="#000000" d="M86.2096,-427.6165C90.712,-440.7919 96.0937,-456.5405 100.9314,-470.6973"/>
<polygon fill="#000000" stroke="#000000" points="97.6305,-471.8616 104.1762,-480.1926 104.2544,-469.598 97.6305,-471.8616"/>
</g>
<!-- GO:0018130&#45;&gt;GO:0046483 -->
<g id="edge39" class="edge">
<title>GO:0018130&#45;&gt;GO:0046483</title>
<path fill="none" stroke="#000000" d="M126.4085,-427.6165C151.5319,-442.2433 182.1024,-460.0414 208.3318,-475.3121"/>
<polygon fill="#000000" stroke="#000000" points="206.6433,-478.3791 217.0464,-480.3858 210.1653,-472.3296 206.6433,-478.3791"/>
</g>
<!-- GO:0044271&#45;&gt;GO:0034641 -->
<g id="edge41" class="edge">
<title>GO:0044271&#45;&gt;GO:0034641</title>
<path fill="none" stroke="#000000" d="M478.3159,-436.0472C490.7168,-445.5575 504.1414,-455.8527 516.9083,-465.6436"/>
<polygon fill="#000000" stroke="#000000" points="515.1205,-468.6833 525.1857,-471.9915 519.3804,-463.1287 515.1205,-468.6833"/>
</g>
<!-- GO:0044271&#45;&gt;GO:0044249 -->
<g id="edge40" class="edge">
<title>GO:0044271&#45;&gt;GO:0044249</title>
<path fill="none" stroke="#000000" d="M355.3087,-433.1255C352.596,-434.134 349.8958,-435.0964 347.2255,-436 278.5932,-459.2246 256.3774,-447.4013 188.2255,-472 184.6971,-473.2736 181.1211,-474.6769 177.5437,-476.1704"/>
<polygon fill="#000000" stroke="#000000" points="175.857,-473.0882 168.1024,-480.3074 178.6665,-479.4996 175.857,-473.0882"/>
</g>
<!-- GO:1901362&#45;&gt;GO:1901576 -->
<g id="edge42" class="edge">
<title>GO:1901362&#45;&gt;GO:1901576</title>
<path fill="none" stroke="#000000" d="M816.2397,-427.6165C845.0312,-442.3705 880.1195,-460.3512 910.0911,-475.7099"/>
<polygon fill="#000000" stroke="#000000" points="908.72,-478.9401 919.2157,-480.3858 911.9124,-472.7104 908.72,-478.9401"/>
</g>
<!-- GO:1901362&#45;&gt;GO:1901360 -->
<g id="edge43" class="edge">
<title>GO:1901362&#45;&gt;GO:1901360</title>
<path fill="none" stroke="#000000" d="M763.692,-427.6165C765.6869,-440.6652 768.0676,-456.2379 770.2156,-470.2885"/>
<polygon fill="#000000" stroke="#000000" points="766.7587,-470.8364 771.7298,-480.1926 773.6783,-469.7784 766.7587,-470.8364"/>
</g>
<!-- GO:0019438&#45;&gt;GO:0044249 -->
<g id="edge44" class="edge">
<title>GO:0019438&#45;&gt;GO:0044249</title>
<path fill="none" stroke="#000000" d="M231.4501,-427.6165C210.8996,-441.9889 185.9709,-459.4233 164.3947,-474.5131"/>
<polygon fill="#000000" stroke="#000000" points="162.1865,-471.7864 155.9976,-480.3858 166.1983,-477.5227 162.1865,-471.7864"/>
</g>
<!-- GO:0019438&#45;&gt;GO:0006725 -->
<g id="edge45" class="edge">
<title>GO:0019438&#45;&gt;GO:0006725</title>
<path fill="none" stroke="#000000" d="M312.3735,-427.6165C328.0081,-439.2848 346.3469,-452.9712 363.5135,-465.7827"/>
<polygon fill="#000000" stroke="#000000" points="361.722,-468.813 371.8296,-471.9891 365.9088,-463.203 361.722,-468.813"/>
</g>
<!-- GO:0090304&#45;&gt;GO:0043170 -->
<g id="edge47" class="edge">
<title>GO:0090304&#45;&gt;GO:0043170</title>
<path fill="none" stroke="#000000" d="M932.2835,-294.6132C1011.8355,-304.5505 1133.3007,-325.1962 1161.2255,-360.8 1185.6481,-391.9386 1173.4474,-438.3532 1159.4242,-471.047"/>
<polygon fill="#000000" stroke="#000000" points="1156.1719,-469.7451 1155.2516,-480.2999 1162.5531,-472.6227 1156.1719,-469.7451"/>
</g>
<!-- GO:0090304&#45;&gt;GO:0006139 -->
<g id="edge46" class="edge">
<title>GO:0090304&#45;&gt;GO:0006139</title>
<path fill="none" stroke="#000000" d="M800.8539,-316.5311C794.2785,-319.4387 787.6443,-322.2524 781.2255,-324.8 736.2146,-342.6644 720.8373,-341.9807 672.0723,-360.6244"/>
<polygon fill="#000000" stroke="#000000" points="670.6042,-357.4403 662.5635,-364.3394 673.1516,-363.9603 670.6042,-357.4403"/>
</g>
<!-- GO:0044238&#45;&gt;GO:0008152 -->
<g id="edge48" class="edge">
<title>GO:0044238&#45;&gt;GO:0008152</title>
<path fill="none" stroke="#000000" d="M700.3973,-633.1086C666.4871,-645.4657 623.2609,-661.2176 587.7625,-674.1535"/>
<polygon fill="#000000" stroke="#000000" points="586.1664,-671.0099 577.9692,-677.7222 588.5632,-677.5868 586.1664,-671.0099"/>
</g>
<!-- GO:0006725&#45;&gt;GO:0044237 -->
<g id="edge49" class="edge">
<title>GO:0006725&#45;&gt;GO:0044237</title>
<path fill="none" stroke="#000000" d="M380.0567,-547.2952C369.4306,-556.794 358.0509,-566.9665 347.5193,-576.3808"/>
<polygon fill="#000000" stroke="#000000" points="345.1465,-573.8074 340.0236,-583.0814 349.8117,-579.0262 345.1465,-573.8074"/>
</g>
<!-- GO:1901360&#45;&gt;GO:0071704 -->
<g id="edge50" class="edge">
<title>GO:1901360&#45;&gt;GO:0071704</title>
<path fill="none" stroke="#000000" d="M827.8063,-539.0584C849.0806,-551.2084 873.8808,-565.372 895.983,-577.9948"/>
<polygon fill="#000000" stroke="#000000" points="894.5292,-581.1951 904.9486,-583.1152 898.0008,-575.1166 894.5292,-581.1951"/>
</g>
<!-- GO:0046483&#45;&gt;GO:0044237 -->
<g id="edge51" class="edge">
<title>GO:0046483&#45;&gt;GO:0044237</title>
<path fill="none" stroke="#000000" d="M278.6879,-539.0584C282.8722,-549.812 287.6703,-562.1431 292.1232,-573.5871"/>
<polygon fill="#000000" stroke="#000000" points="288.8734,-574.8872 295.7614,-582.9373 295.3969,-572.3488 288.8734,-574.8872"/>
</g>
<!-- GO:0010467 -->
<g id="node29" class="node">
<title>GO:0010467</title>
<polygon fill="#00ffff" stroke="#000000" points="1314.0245,-419.0019 1208.4265,-419.0019 1208.4265,-377.7981 1314.0245,-377.7981 1314.0245,-419.0019"/>
<text text-anchor="middle" x="1261.2255" y="-402.6" font-family="Times,serif" font-size="14.00" fill="#000000">GO:0010467</text>
<text text-anchor="middle" x="1261.2255" y="-385.8" font-family="Times,serif" font-size="14.00" fill="#000000">gene expression</text>
</g>
<!-- GO:0010467&#45;&gt;GO:0043170 -->
<g id="edge52" class="edge">
<title>GO:0010467&#45;&gt;GO:0043170</title>
<path fill="none" stroke="#000000" d="M1238.5642,-419.0553C1221.8219,-434.3154 1198.5999,-455.4817 1178.818,-473.5125"/>
<polygon fill="#000000" stroke="#000000" points="1176.4583,-470.9274 1171.4254,-480.2506 1181.1738,-476.1009 1176.4583,-470.9274"/>
</g>
</g>
</svg>
