<?xml version="1.0" encoding="UTF-8" standalone="no"?>
<!DOCTYPE svg PUBLIC "-//W3C//DTD SVG 1.1//EN"
 "http://www.w3.org/Graphics/SVG/1.1/DTD/svg11.dtd">
<!-- Generated by graphviz version 2.40.1 (20161225.0304)
 -->
<!-- Title: G Pages: 1 -->
<svg width="495pt" height="471pt"
 viewBox="0.00 0.00 495.31 471.20" xmlns="http://www.w3.org/2000/svg" xmlns:xlink="http://www.w3.org/1999/xlink">
<g id="graph0" class="graph" transform="scale(1 1) rotate(0) translate(4 467.2)">
<title>G</title>
<polygon fill="#ffffff" stroke="transparent" points="-4,4 -4,-467.2 491.3139,-467.2 491.3139,4 -4,4"/>
<!-- GO:0043229 -->
<g id="node1" class="node">
<title>GO:0043229</title>
<polygon fill="#ff0000" stroke="#000000" points="285.6988,-221.8019 146.262,-221.8019 146.262,-180.5981 285.6988,-180.5981 285.6988,-221.8019"/>
<text text-anchor="middle" x="215.9804" y="-205.4" font-family="Times,serif" font-size="14.00" fill="#000000">GO:0043229</text>
<text text-anchor="middle" x="215.9804" y="-188.6" font-family="Times,serif" font-size="14.00" fill="#000000">intracellular organelle</text>
</g>
<!-- GO:0044424 -->
<g id="node2" class="node">
<title>GO:0044424</title>
<polygon fill="#ffffff" stroke="#000000" points="328.3788,-307.8019 219.582,-307.8019 219.582,-266.5981 328.3788,-266.5981 328.3788,-307.8019"/>
<text text-anchor="middle" x="273.9804" y="-291.4" font-family="Times,serif" font-size="14.00" fill="#000000">GO:0044424</text>
<text text-anchor="middle" x="273.9804" y="-274.6" font-family="Times,serif" font-size="14.00" fill="#000000">intracellular part</text>
</g>
<!-- GO:0043229&#45;&gt;GO:0044424 -->
<g id="edge1" class="edge">
<title>GO:0043229&#45;&gt;GO:0044424</title>
<path fill="none" stroke="#000000" d="M230.0206,-222.0182C237.3586,-232.8987 246.4563,-246.3884 254.4682,-258.2681"/>
<polygon fill="#000000" stroke="#000000" points="251.5763,-260.2398 260.0695,-266.5735 257.3798,-256.3258 251.5763,-260.2398"/>
</g>
<!-- GO:0043226 -->
<g id="node3" class="node">
<title>GO:0043226</title>
<polygon fill="#ffffff" stroke="#000000" points="201.5843,-307.8019 112.3765,-307.8019 112.3765,-266.5981 201.5843,-266.5981 201.5843,-307.8019"/>
<text text-anchor="middle" x="156.9804" y="-291.4" font-family="Times,serif" font-size="14.00" fill="#000000">GO:0043226</text>
<text text-anchor="middle" x="156.9804" y="-274.6" font-family="Times,serif" font-size="14.00" fill="#000000">organelle</text>
</g>
<!-- GO:0043229&#45;&gt;GO:0043226 -->
<g id="edge2" class="edge">
<title>GO:0043229&#45;&gt;GO:0043226</title>
<path fill="none" stroke="#000000" d="M201.6981,-222.0182C194.2336,-232.8987 184.9791,-246.3884 176.829,-258.2681"/>
<polygon fill="#000000" stroke="#000000" points="173.9022,-256.3475 171.1311,-266.5735 179.6744,-260.3075 173.9022,-256.3475"/>
</g>
<!-- GO:0044464 -->
<g id="node4" class="node">
<title>GO:0044464</title>
<polygon fill="#ffffff" stroke="#000000" points="310.5843,-385.4019 221.3765,-385.4019 221.3765,-344.1981 310.5843,-344.1981 310.5843,-385.4019"/>
<text text-anchor="middle" x="265.9804" y="-369" font-family="Times,serif" font-size="14.00" fill="#000000">GO:0044464</text>
<text text-anchor="middle" x="265.9804" y="-352.2" font-family="Times,serif" font-size="14.00" fill="#000000">cell part</text>
</g>
<!-- GO:0044424&#45;&gt;GO:0044464 -->
<g id="edge3" class="edge">
<title>GO:0044424&#45;&gt;GO:0044464</title>
<path fill="none" stroke="#000000" d="M271.8365,-307.9954C271.0205,-315.9109 270.0721,-325.1109 269.1791,-333.7722"/>
<polygon fill="#000000" stroke="#000000" points="265.6742,-333.641 268.1302,-343.9472 272.6373,-334.3589 265.6742,-333.641"/>
</g>
<!-- GO:0005575 -->
<g id="node5" class="node">
<title>GO:0005575</title>
<polygon fill="#ffffff" stroke="#000000" points="329.6671,-463.0019 202.2937,-463.0019 202.2937,-421.7981 329.6671,-421.7981 329.6671,-463.0019"/>
<text text-anchor="middle" x="265.9804" y="-446.6" font-family="Times,serif" font-size="14.00" fill="#000000">GO:0005575</text>
<text text-anchor="middle" x="265.9804" y="-429.8" font-family="Times,serif" font-size="14.00" fill="#000000">cellular_component</text>
</g>
<!-- GO:0043226&#45;&gt;GO:0005575 -->
<g id="edge4" class="edge">
<title>GO:0043226&#45;&gt;GO:0005575</title>
<path fill="none" stroke="#000000" d="M166.7363,-308.0852C176.7776,-328.6556 193.5245,-360.5464 211.9804,-385.6 219.2831,-395.5132 228.1704,-405.5154 236.6095,-414.3049"/>
<polygon fill="#000000" stroke="#000000" points="234.3544,-417.0036 243.8593,-421.6841 239.3477,-412.0978 234.3544,-417.0036"/>
</g>
<!-- GO:0044464&#45;&gt;GO:0005575 -->
<g id="edge13" class="edge">
<title>GO:0044464&#45;&gt;GO:0005575</title>
<path fill="none" stroke="#000000" d="M265.9804,-385.5954C265.9804,-393.5109 265.9804,-402.7109 265.9804,-411.3722"/>
<polygon fill="#000000" stroke="#000000" points="262.4805,-411.5472 265.9804,-421.5472 269.4805,-411.5473 262.4805,-411.5472"/>
</g>
<!-- GO:0005634 -->
<g id="node6" class="node">
<title>GO:0005634</title>
<polygon fill="#ffa500" stroke="#000000" points="184.5843,-41.4019 95.3765,-41.4019 95.3765,-.1981 184.5843,-.1981 184.5843,-41.4019"/>
<text text-anchor="middle" x="139.9804" y="-25" font-family="Times,serif" font-size="14.00" fill="#000000">GO:0005634</text>
<text text-anchor="middle" x="139.9804" y="-8.2" font-family="Times,serif" font-size="14.00" fill="#000000">nucleus</text>
</g>
<!-- GO:0043231 -->
<g id="node7" class="node">
<title>GO:0043231</title>
<polygon fill="#ffa500" stroke="#000000" points="215.3592,-136.2014 64.6016,-136.2014 64.6016,-77.3986 215.3592,-77.3986 215.3592,-136.2014"/>
<text text-anchor="middle" x="139.9804" y="-119.4" font-family="Times,serif" font-size="14.00" fill="#000000">GO:0043231</text>
<text text-anchor="middle" x="139.9804" y="-102.6" font-family="Times,serif" font-size="14.00" fill="#000000">intracellular membrane&#45;</text>
<text text-anchor="middle" x="139.9804" y="-85.8" font-family="Times,serif" font-size="14.00" fill="#000000">bounded organelle</text>
</g>
<!-- GO:0005634&#45;&gt;GO:0043231 -->
<g id="edge5" class="edge">
<title>GO:0005634&#45;&gt;GO:0043231</title>
<path fill="none" stroke="#000000" d="M139.9804,-41.6182C139.9804,-49.3358 139.9804,-58.3662 139.9804,-67.2036"/>
<polygon fill="#000000" stroke="#000000" points="136.4805,-67.3991 139.9804,-77.3991 143.4805,-67.3992 136.4805,-67.3991"/>
</g>
<!-- GO:0043231&#45;&gt;GO:0043229 -->
<g id="edge6" class="edge">
<title>GO:0043231&#45;&gt;GO:0043229</title>
<path fill="none" stroke="#000000" d="M163.6107,-136.1513C172.9376,-147.7363 183.619,-161.0037 192.8922,-172.522"/>
<polygon fill="#000000" stroke="#000000" points="190.3588,-174.9565 199.3562,-180.551 195.8114,-170.5667 190.3588,-174.9565"/>
</g>
<!-- GO:0043227 -->
<g id="node8" class="node">
<title>GO:0043227</title>
<polygon fill="#ffffff" stroke="#000000" points="127.9412,-230.6014 .0196,-230.6014 .0196,-171.7986 127.9412,-171.7986 127.9412,-230.6014"/>
<text text-anchor="middle" x="63.9804" y="-213.8" font-family="Times,serif" font-size="14.00" fill="#000000">GO:0043227</text>
<text text-anchor="middle" x="63.9804" y="-197" font-family="Times,serif" font-size="14.00" fill="#000000">membrane&#45;bounded</text>
<text text-anchor="middle" x="63.9804" y="-180.2" font-family="Times,serif" font-size="14.00" fill="#000000">organelle</text>
</g>
<!-- GO:0043231&#45;&gt;GO:0043227 -->
<g id="edge7" class="edge">
<title>GO:0043231&#45;&gt;GO:0043227</title>
<path fill="none" stroke="#000000" d="M116.3501,-136.1513C109.2727,-144.9422 101.4154,-154.7018 93.9853,-163.9308"/>
<polygon fill="#000000" stroke="#000000" points="91.1409,-161.8826 87.5961,-171.8669 96.5934,-166.2724 91.1409,-161.8826"/>
</g>
<!-- GO:0043227&#45;&gt;GO:0043226 -->
<g id="edge8" class="edge">
<title>GO:0043227&#45;&gt;GO:0043226</title>
<path fill="none" stroke="#000000" d="M95.7256,-230.5558C105.873,-239.9394 117.0663,-250.2902 127.078,-259.5483"/>
<polygon fill="#000000" stroke="#000000" points="124.7485,-262.1613 134.4668,-266.3809 129.501,-257.0219 124.7485,-262.1613"/>
</g>
<!-- GO:0043234 -->
<g id="node9" class="node">
<title>GO:0043234</title>
<polygon fill="#ffff00" stroke="#000000" points="461.8478,-307.8019 354.113,-307.8019 354.113,-266.5981 461.8478,-266.5981 461.8478,-307.8019"/>
<text text-anchor="middle" x="407.9804" y="-291.4" font-family="Times,serif" font-size="14.00" fill="#000000">GO:0043234</text>
<text text-anchor="middle" x="407.9804" y="-274.6" font-family="Times,serif" font-size="14.00" fill="#000000">protein complex</text>
</g>
<!-- GO:0032991 -->
<g id="node10" class="node">
<title>GO:0032991</title>
<polygon fill="#ffff00" stroke="#000000" points="487.1477,-385.4019 328.8131,-385.4019 328.8131,-344.1981 487.1477,-344.1981 487.1477,-385.4019"/>
<text text-anchor="middle" x="407.9804" y="-369" font-family="Times,serif" font-size="14.00" fill="#000000">GO:0032991</text>
<text text-anchor="middle" x="407.9804" y="-352.2" font-family="Times,serif" font-size="14.00" fill="#000000">macromolecular complex</text>
</g>
<!-- GO:0043234&#45;&gt;GO:0032991 -->
<g id="edge9" class="edge">
<title>GO:0043234&#45;&gt;GO:0032991</title>
<path fill="none" stroke="#000000" d="M407.9804,-307.9954C407.9804,-315.9109 407.9804,-325.1109 407.9804,-333.7722"/>
<polygon fill="#000000" stroke="#000000" points="404.4805,-333.9472 407.9804,-343.9472 411.4805,-333.9473 404.4805,-333.9472"/>
</g>
<!-- GO:0032991&#45;&gt;GO:0005575 -->
<g id="edge10" class="edge">
<title>GO:0032991&#45;&gt;GO:0005575</title>
<path fill="none" stroke="#000000" d="M369.927,-385.5954C352.4182,-395.1635 331.4748,-406.6087 312.9899,-416.7103"/>
<polygon fill="#000000" stroke="#000000" points="311.2356,-413.6804 304.1388,-421.5472 314.5924,-419.823 311.2356,-413.6804"/>
</g>
<!-- GO:0005829 -->
<g id="node11" class="node">
<title>GO:0005829</title>
<polygon fill="#00ff00" stroke="#000000" points="402.5843,-127.4019 313.3765,-127.4019 313.3765,-86.1981 402.5843,-86.1981 402.5843,-127.4019"/>
<text text-anchor="middle" x="357.9804" y="-111" font-family="Times,serif" font-size="14.00" fill="#000000">GO:0005829</text>
<text text-anchor="middle" x="357.9804" y="-94.2" font-family="Times,serif" font-size="14.00" fill="#000000">cytosol</text>
</g>
<!-- GO:0044444 -->
<g id="node12" class="node">
<title>GO:0044444</title>
<polygon fill="#ff0000" stroke="#000000" points="412.397,-221.8019 303.5638,-221.8019 303.5638,-180.5981 412.397,-180.5981 412.397,-221.8019"/>
<text text-anchor="middle" x="357.9804" y="-205.4" font-family="Times,serif" font-size="14.00" fill="#000000">GO:0044444</text>
<text text-anchor="middle" x="357.9804" y="-188.6" font-family="Times,serif" font-size="14.00" fill="#000000">cytoplasmic part</text>
</g>
<!-- GO:0005829&#45;&gt;GO:0044444 -->
<g id="edge11" class="edge">
<title>GO:0005829&#45;&gt;GO:0044444</title>
<path fill="none" stroke="#000000" d="M357.9804,-127.7504C357.9804,-140.2165 357.9804,-156.2645 357.9804,-170.1786"/>
<polygon fill="#000000" stroke="#000000" points="354.4805,-170.3081 357.9804,-180.3081 361.4805,-170.3082 354.4805,-170.3081"/>
</g>
<!-- GO:0044444&#45;&gt;GO:0044424 -->
<g id="edge12" class="edge">
<title>GO:0044444&#45;&gt;GO:0044424</title>
<path fill="none" stroke="#000000" d="M337.6463,-222.0182C326.7094,-233.2156 313.0732,-247.1764 301.2297,-259.3019"/>
<polygon fill="#000000" stroke="#000000" points="298.6108,-256.9741 294.1272,-266.5735 303.6185,-261.8653 298.6108,-256.9741"/>
</g>
</g>
</svg>
