<?xml version="1.0" encoding="UTF-8" standalone="no"?>
<!DOCTYPE svg PUBLIC "-//W3C//DTD SVG 1.1//EN"
 "http://www.w3.org/Graphics/SVG/1.1/DTD/svg11.dtd">
<!-- Generated by graphviz version 2.40.1 (20161225.0304)
 -->
<!-- Title: G Pages: 1 -->
<svg width="488pt" height="350pt"
 viewBox="0.00 0.00 487.57 349.60" xmlns="http://www.w3.org/2000/svg" xmlns:xlink="http://www.w3.org/1999/xlink">
<g id="graph0" class="graph" transform="scale(1 1) rotate(0) translate(4 345.6)">
<title>G</title>
<polygon fill="#ffffff" stroke="transparent" points="-4,4 -4,-345.6 483.5709,-345.6 483.5709,4 -4,4"/>
<!-- GO:0003676 -->
<g id="node1" class="node">
<title>GO:0003676</title>
<polygon fill="#00ffff" stroke="#000000" points="228.2822,-41.4019 99.2284,-41.4019 99.2284,-.1981 228.2822,-.1981 228.2822,-41.4019"/>
<text text-anchor="middle" x="163.7553" y="-25" font-family="Times,serif" font-size="14.00" fill="#000000">GO:0003676</text>
<text text-anchor="middle" x="163.7553" y="-8.2" font-family="Times,serif" font-size="14.00" fill="#000000">nucleic acid binding</text>
</g>
<!-- GO:0097159 -->
<g id="node2" class="node">
<title>GO:0097159</title>
<polygon fill="#00ff00" stroke="#000000" points="157.2667,-144.6014 .2439,-144.6014 .2439,-85.7986 157.2667,-85.7986 157.2667,-144.6014"/>
<text text-anchor="middle" x="78.7553" y="-127.8" font-family="Times,serif" font-size="14.00" fill="#000000">GO:0097159</text>
<text text-anchor="middle" x="78.7553" y="-111" font-family="Times,serif" font-size="14.00" fill="#000000">organic cyclic compound</text>
<text text-anchor="middle" x="78.7553" y="-94.2" font-family="Times,serif" font-size="14.00" fill="#000000">binding</text>
</g>
<!-- GO:0003676&#45;&gt;GO:0097159 -->
<g id="edge1" class="edge">
<title>GO:0003676&#45;&gt;GO:0097159</title>
<path fill="none" stroke="#000000" d="M144.891,-41.7504C135.2513,-52.4562 123.2328,-65.8038 112.0954,-78.1729"/>
<polygon fill="#000000" stroke="#000000" points="109.3943,-75.9421 105.3038,-85.7155 114.5962,-80.6261 109.3943,-75.9421"/>
</g>
<!-- GO:1901363 -->
<g id="node3" class="node">
<title>GO:1901363</title>
<polygon fill="#00ff00" stroke="#000000" points="322.2659,-144.6014 175.2447,-144.6014 175.2447,-85.7986 322.2659,-85.7986 322.2659,-144.6014"/>
<text text-anchor="middle" x="248.7553" y="-127.8" font-family="Times,serif" font-size="14.00" fill="#000000">GO:1901363</text>
<text text-anchor="middle" x="248.7553" y="-111" font-family="Times,serif" font-size="14.00" fill="#000000">heterocyclic compound</text>
<text text-anchor="middle" x="248.7553" y="-94.2" font-family="Times,serif" font-size="14.00" fill="#000000">binding</text>
</g>
<!-- GO:0003676&#45;&gt;GO:1901363 -->
<g id="edge2" class="edge">
<title>GO:0003676&#45;&gt;GO:1901363</title>
<path fill="none" stroke="#000000" d="M182.6196,-41.7504C192.2593,-52.4562 204.2778,-65.8038 215.4152,-78.1729"/>
<polygon fill="#000000" stroke="#000000" points="212.9144,-80.6261 222.2068,-85.7155 218.1163,-75.9421 212.9144,-80.6261"/>
</g>
<!-- GO:0005488 -->
<g id="node4" class="node">
<title>GO:0005488</title>
<polygon fill="#ffffff" stroke="#000000" points="293.3592,-247.0019 204.1514,-247.0019 204.1514,-205.7981 293.3592,-205.7981 293.3592,-247.0019"/>
<text text-anchor="middle" x="248.7553" y="-230.6" font-family="Times,serif" font-size="14.00" fill="#000000">GO:0005488</text>
<text text-anchor="middle" x="248.7553" y="-213.8" font-family="Times,serif" font-size="14.00" fill="#000000">binding</text>
</g>
<!-- GO:0097159&#45;&gt;GO:0005488 -->
<g id="edge3" class="edge">
<title>GO:0097159&#45;&gt;GO:0005488</title>
<path fill="none" stroke="#000000" d="M123.4208,-144.4165C149.7327,-161.6276 182.7573,-183.2296 208.301,-199.9381"/>
<polygon fill="#000000" stroke="#000000" points="206.7162,-203.0837 217.0008,-205.6288 210.5481,-197.2257 206.7162,-203.0837"/>
</g>
<!-- GO:1901363&#45;&gt;GO:0005488 -->
<g id="edge4" class="edge">
<title>GO:1901363&#45;&gt;GO:0005488</title>
<path fill="none" stroke="#000000" d="M248.7553,-144.4165C248.7553,-159.997 248.7553,-179.1758 248.7553,-195.0653"/>
<polygon fill="#000000" stroke="#000000" points="245.2554,-195.4555 248.7553,-205.4556 252.2554,-195.4556 245.2554,-195.4555"/>
</g>
<!-- GO:0003674 -->
<g id="node5" class="node">
<title>GO:0003674</title>
<polygon fill="#ffffff" stroke="#000000" points="374.3884,-341.4019 249.1222,-341.4019 249.1222,-300.1981 374.3884,-300.1981 374.3884,-341.4019"/>
<text text-anchor="middle" x="311.7553" y="-325" font-family="Times,serif" font-size="14.00" fill="#000000">GO:0003674</text>
<text text-anchor="middle" x="311.7553" y="-308.2" font-family="Times,serif" font-size="14.00" fill="#000000">molecular_function</text>
</g>
<!-- GO:0005488&#45;&gt;GO:0003674 -->
<g id="edge5" class="edge">
<title>GO:0005488&#45;&gt;GO:0003674</title>
<path fill="none" stroke="#000000" d="M262.737,-247.3504C271.3828,-260.3054 282.6102,-277.1287 292.1381,-291.4053"/>
<polygon fill="#000000" stroke="#000000" points="289.3503,-293.5332 297.8126,-299.9081 295.1728,-289.6474 289.3503,-293.5332"/>
</g>
<!-- GO:0003700 -->
<g id="node6" class="node">
<title>GO:0003700</title>
<polygon fill="#ffa500" stroke="#000000" points="479.387,-152.9003 340.1236,-152.9003 340.1236,-77.4997 479.387,-77.4997 479.387,-152.9003"/>
<text text-anchor="middle" x="409.7553" y="-136.2" font-family="Times,serif" font-size="14.00" fill="#000000">GO:0003700</text>
<text text-anchor="middle" x="409.7553" y="-119.4" font-family="Times,serif" font-size="14.00" fill="#000000">transcription factor</text>
<text text-anchor="middle" x="409.7553" y="-102.6" font-family="Times,serif" font-size="14.00" fill="#000000">activity, sequence&#45;</text>
<text text-anchor="middle" x="409.7553" y="-85.8" font-family="Times,serif" font-size="14.00" fill="#000000">specific DNA binding</text>
</g>
<!-- GO:0001071 -->
<g id="node7" class="node">
<title>GO:0001071</title>
<polygon fill="#ffffff" stroke="#000000" points="457.2822,-264.1003 328.2284,-264.1003 328.2284,-188.6997 457.2822,-188.6997 457.2822,-264.1003"/>
<text text-anchor="middle" x="392.7553" y="-247.4" font-family="Times,serif" font-size="14.00" fill="#000000">GO:0001071</text>
<text text-anchor="middle" x="392.7553" y="-230.6" font-family="Times,serif" font-size="14.00" fill="#000000">nucleic acid binding</text>
<text text-anchor="middle" x="392.7553" y="-213.8" font-family="Times,serif" font-size="14.00" fill="#000000">transcription factor</text>
<text text-anchor="middle" x="392.7553" y="-197" font-family="Times,serif" font-size="14.00" fill="#000000">activity</text>
</g>
<!-- GO:0003700&#45;&gt;GO:0001071 -->
<g id="edge6" class="edge">
<title>GO:0003700&#45;&gt;GO:0001071</title>
<path fill="none" stroke="#000000" d="M403.9999,-152.8472C402.726,-161.18 401.36,-170.1155 400.0344,-178.7863"/>
<polygon fill="#000000" stroke="#000000" points="396.5563,-178.3774 398.5048,-188.7915 403.4759,-179.4353 396.5563,-178.3774"/>
</g>
<!-- GO:0001071&#45;&gt;GO:0003674 -->
<g id="edge7" class="edge">
<title>GO:0001071&#45;&gt;GO:0003674</title>
<path fill="none" stroke="#000000" d="M360.2762,-264.2522C352.2562,-273.599 343.799,-283.4553 336.2316,-292.2745"/>
<polygon fill="#000000" stroke="#000000" points="333.4259,-290.1695 329.5702,-300.0379 338.7384,-294.7279 333.4259,-290.1695"/>
</g>
</g>
</svg>
