<?xml version="1.0" encoding="UTF-8" standalone="no"?>
<!DOCTYPE svg PUBLIC "-//W3C//DTD SVG 1.1//EN"
 "http://www.w3.org/Graphics/SVG/1.1/DTD/svg11.dtd">
<!-- Generated by graphviz version 2.40.1 (20161225.0304)
 -->
<!-- Title: G Pages: 1 -->
<svg width="1043pt" height="906pt"
 viewBox="0.00 0.00 1042.84 905.60" xmlns="http://www.w3.org/2000/svg" xmlns:xlink="http://www.w3.org/1999/xlink">
<g id="graph0" class="graph" transform="scale(1 1) rotate(0) translate(4 901.6)">
<title>G</title>
<polygon fill="#ffffff" stroke="transparent" points="-4,4 -4,-901.6 1038.8423,-901.6 1038.8423,4 -4,4"/>
<!-- GO:0080090 -->
<g id="node1" class="node">
<title>GO:0080090</title>
<polygon fill="#ffff00" stroke="#000000" points="392.2406,-623.0014 256.7616,-623.0014 256.7616,-564.1986 392.2406,-564.1986 392.2406,-623.0014"/>
<text text-anchor="middle" x="324.5011" y="-606.2" font-family="Times,serif" font-size="14.00" fill="#000000">GO:0080090</text>
<text text-anchor="middle" x="324.5011" y="-589.4" font-family="Times,serif" font-size="14.00" fill="#000000">regulation of primary</text>
<text text-anchor="middle" x="324.5011" y="-572.6" font-family="Times,serif" font-size="14.00" fill="#000000">metabolic process</text>
</g>
<!-- GO:0019222 -->
<g id="node2" class="node">
<title>GO:0019222</title>
<polygon fill="#ffffff" stroke="#000000" points="430.63,-725.8014 284.3722,-725.8014 284.3722,-666.9986 430.63,-666.9986 430.63,-725.8014"/>
<text text-anchor="middle" x="357.5011" y="-709" font-family="Times,serif" font-size="14.00" fill="#000000">GO:0019222</text>
<text text-anchor="middle" x="357.5011" y="-692.2" font-family="Times,serif" font-size="14.00" fill="#000000">regulation of metabolic</text>
<text text-anchor="middle" x="357.5011" y="-675.4" font-family="Times,serif" font-size="14.00" fill="#000000">process</text>
</g>
<!-- GO:0080090&#45;&gt;GO:0019222 -->
<g id="edge1" class="edge">
<title>GO:0080090&#45;&gt;GO:0019222</title>
<path fill="none" stroke="#000000" d="M333.9576,-623.0584C337.3751,-633.7045 341.2889,-645.8966 344.9314,-657.2435"/>
<polygon fill="#000000" stroke="#000000" points="341.6542,-658.4857 348.0432,-666.9373 348.3192,-656.3461 341.6542,-658.4857"/>
</g>
<!-- GO:0065007 -->
<g id="node3" class="node">
<title>GO:0065007</title>
<polygon fill="#ff0000" stroke="#000000" points="499.7545,-811.4019 367.2477,-811.4019 367.2477,-770.1981 499.7545,-770.1981 499.7545,-811.4019"/>
<text text-anchor="middle" x="433.5011" y="-795" font-family="Times,serif" font-size="14.00" fill="#000000">GO:0065007</text>
<text text-anchor="middle" x="433.5011" y="-778.2" font-family="Times,serif" font-size="14.00" fill="#000000">biological regulation</text>
</g>
<!-- GO:0019222&#45;&gt;GO:0065007 -->
<g id="edge2" class="edge">
<title>GO:0019222&#45;&gt;GO:0065007</title>
<path fill="none" stroke="#000000" d="M381.1314,-725.7513C390.4583,-737.3363 401.1397,-750.6037 410.4129,-762.122"/>
<polygon fill="#000000" stroke="#000000" points="407.8795,-764.5565 416.8769,-770.151 413.3321,-760.1667 407.8795,-764.5565"/>
</g>
<!-- GO:0050789 -->
<g id="node4" class="node">
<title>GO:0050789</title>
<polygon fill="#ffa500" stroke="#000000" points="665.4155,-820.2014 517.5867,-820.2014 517.5867,-761.3986 665.4155,-761.3986 665.4155,-820.2014"/>
<text text-anchor="middle" x="591.5011" y="-803.4" font-family="Times,serif" font-size="14.00" fill="#000000">GO:0050789</text>
<text text-anchor="middle" x="591.5011" y="-786.6" font-family="Times,serif" font-size="14.00" fill="#000000">regulation of biological</text>
<text text-anchor="middle" x="591.5011" y="-769.8" font-family="Times,serif" font-size="14.00" fill="#000000">process</text>
</g>
<!-- GO:0019222&#45;&gt;GO:0050789 -->
<g id="edge3" class="edge">
<title>GO:0019222&#45;&gt;GO:0050789</title>
<path fill="none" stroke="#000000" d="M429.9377,-725.6223C455.1615,-735.7981 483.6343,-747.2845 509.573,-757.7487"/>
<polygon fill="#000000" stroke="#000000" points="508.4207,-761.0578 519.004,-761.5533 511.0396,-754.5662 508.4207,-761.0578"/>
</g>
<!-- GO:0008150 -->
<g id="node5" class="node">
<title>GO:0008150</title>
<polygon fill="#ffffff" stroke="#000000" points="745.9717,-897.4019 625.0305,-897.4019 625.0305,-856.1981 745.9717,-856.1981 745.9717,-897.4019"/>
<text text-anchor="middle" x="685.5011" y="-881" font-family="Times,serif" font-size="14.00" fill="#000000">GO:0008150</text>
<text text-anchor="middle" x="685.5011" y="-864.2" font-family="Times,serif" font-size="14.00" fill="#000000">biological_process</text>
</g>
<!-- GO:0065007&#45;&gt;GO:0008150 -->
<g id="edge4" class="edge">
<title>GO:0065007&#45;&gt;GO:0008150</title>
<path fill="none" stroke="#000000" d="M485.3951,-811.4747C493.1131,-814.4125 500.9949,-817.3372 508.5011,-820 543.3696,-832.3696 582.5041,-845.0512 615.0914,-855.2848"/>
<polygon fill="#000000" stroke="#000000" points="614.3936,-858.7337 624.9825,-858.379 616.4836,-852.053 614.3936,-858.7337"/>
</g>
<!-- GO:0050789&#45;&gt;GO:0008150 -->
<g id="edge5" class="edge">
<title>GO:0050789&#45;&gt;GO:0008150</title>
<path fill="none" stroke="#000000" d="M623.5877,-820.1558C633.8442,-829.5394 645.1578,-839.8902 655.2771,-849.1483"/>
<polygon fill="#000000" stroke="#000000" points="653.0047,-851.8131 662.7454,-855.9809 657.7299,-846.6484 653.0047,-851.8131"/>
</g>
<!-- GO:0031326 -->
<g id="node6" class="node">
<title>GO:0031326</title>
<polygon fill="#00ff00" stroke="#000000" points="528.4001,-400.6014 394.6021,-400.6014 394.6021,-341.7986 528.4001,-341.7986 528.4001,-400.6014"/>
<text text-anchor="middle" x="461.5011" y="-383.8" font-family="Times,serif" font-size="14.00" fill="#000000">GO:0031326</text>
<text text-anchor="middle" x="461.5011" y="-367" font-family="Times,serif" font-size="14.00" fill="#000000">regulation of cellular</text>
<text text-anchor="middle" x="461.5011" y="-350.2" font-family="Times,serif" font-size="14.00" fill="#000000">biosynthetic process</text>
</g>
<!-- GO:0009889 -->
<g id="node7" class="node">
<title>GO:0009889</title>
<polygon fill="#ffffff" stroke="#000000" points="485.4163,-511.8014 355.5859,-511.8014 355.5859,-452.9986 485.4163,-452.9986 485.4163,-511.8014"/>
<text text-anchor="middle" x="420.5011" y="-495" font-family="Times,serif" font-size="14.00" fill="#000000">GO:0009889</text>
<text text-anchor="middle" x="420.5011" y="-478.2" font-family="Times,serif" font-size="14.00" fill="#000000">regulation of</text>
<text text-anchor="middle" x="420.5011" y="-461.4" font-family="Times,serif" font-size="14.00" fill="#000000">biosynthetic process</text>
</g>
<!-- GO:0031326&#45;&gt;GO:0009889 -->
<g id="edge6" class="edge">
<title>GO:0031326&#45;&gt;GO:0009889</title>
<path fill="none" stroke="#000000" d="M450.7288,-400.4165C445.871,-413.5919 440.0644,-429.3405 434.8447,-443.4973"/>
<polygon fill="#000000" stroke="#000000" points="431.5193,-442.3992 431.3438,-452.9926 438.0871,-444.8208 431.5193,-442.3992"/>
</g>
<!-- GO:0031323 -->
<g id="node8" class="node">
<title>GO:0031323</title>
<polygon fill="#ffff00" stroke="#000000" points="582.4001,-623.0014 448.6021,-623.0014 448.6021,-564.1986 582.4001,-564.1986 582.4001,-623.0014"/>
<text text-anchor="middle" x="515.5011" y="-606.2" font-family="Times,serif" font-size="14.00" fill="#000000">GO:0031323</text>
<text text-anchor="middle" x="515.5011" y="-589.4" font-family="Times,serif" font-size="14.00" fill="#000000">regulation of cellular</text>
<text text-anchor="middle" x="515.5011" y="-572.6" font-family="Times,serif" font-size="14.00" fill="#000000">metabolic process</text>
</g>
<!-- GO:0031326&#45;&gt;GO:0031323 -->
<g id="edge7" class="edge">
<title>GO:0031326&#45;&gt;GO:0031323</title>
<path fill="none" stroke="#000000" d="M476.9524,-400.56C483.2942,-413.7595 490.154,-429.7307 494.5011,-444.8 504.9479,-481.0137 510.2916,-523.7419 512.9649,-554.0994"/>
<polygon fill="#000000" stroke="#000000" points="509.4951,-554.6109 513.8031,-564.2903 516.4715,-554.0371 509.4951,-554.6109"/>
</g>
<!-- GO:0009889&#45;&gt;GO:0019222 -->
<g id="edge8" class="edge">
<title>GO:0009889&#45;&gt;GO:0019222</title>
<path fill="none" stroke="#000000" d="M420.7201,-511.6003C420.0561,-542.3161 416.4221,-591.5977 401.5011,-631.2 397.9262,-640.6883 392.7236,-650.1575 387.1382,-658.8204"/>
<polygon fill="#000000" stroke="#000000" points="384.1824,-656.9433 381.4714,-667.1855 389.9778,-660.8694 384.1824,-656.9433"/>
</g>
<!-- GO:0031323&#45;&gt;GO:0019222 -->
<g id="edge9" class="edge">
<title>GO:0031323&#45;&gt;GO:0019222</title>
<path fill="none" stroke="#000000" d="M470.2246,-623.0584C451.7165,-635.1004 430.1682,-649.1204 410.8986,-661.6578"/>
<polygon fill="#000000" stroke="#000000" points="408.9841,-658.7278 402.5108,-667.1152 412.8016,-664.5952 408.9841,-658.7278"/>
</g>
<!-- GO:0050794 -->
<g id="node9" class="node">
<title>GO:0050794</title>
<polygon fill="#ffff00" stroke="#000000" points="582.4001,-725.8014 448.6021,-725.8014 448.6021,-666.9986 582.4001,-666.9986 582.4001,-725.8014"/>
<text text-anchor="middle" x="515.5011" y="-709" font-family="Times,serif" font-size="14.00" fill="#000000">GO:0050794</text>
<text text-anchor="middle" x="515.5011" y="-692.2" font-family="Times,serif" font-size="14.00" fill="#000000">regulation of cellular</text>
<text text-anchor="middle" x="515.5011" y="-675.4" font-family="Times,serif" font-size="14.00" fill="#000000">process</text>
</g>
<!-- GO:0031323&#45;&gt;GO:0050794 -->
<g id="edge10" class="edge">
<title>GO:0031323&#45;&gt;GO:0050794</title>
<path fill="none" stroke="#000000" d="M515.5011,-623.0584C515.5011,-633.5969 515.5011,-645.6505 515.5011,-656.8994"/>
<polygon fill="#000000" stroke="#000000" points="512.0012,-656.9373 515.5011,-666.9373 519.0012,-656.9374 512.0012,-656.9373"/>
</g>
<!-- GO:0050794&#45;&gt;GO:0065007 -->
<g id="edge11" class="edge">
<title>GO:0050794&#45;&gt;GO:0065007</title>
<path fill="none" stroke="#000000" d="M490.0053,-725.7513C479.8443,-737.4488 468.1935,-750.8615 458.1211,-762.457"/>
<polygon fill="#000000" stroke="#000000" points="455.3533,-760.3062 451.4377,-770.151 460.6379,-764.8967 455.3533,-760.3062"/>
</g>
<!-- GO:0050794&#45;&gt;GO:0050789 -->
<g id="edge12" class="edge">
<title>GO:0050794&#45;&gt;GO:0050789</title>
<path fill="none" stroke="#000000" d="M539.1314,-725.7513C546.2088,-734.5422 554.0661,-744.3018 561.4962,-753.5308"/>
<polygon fill="#000000" stroke="#000000" points="558.8881,-755.8724 567.8854,-761.4669 564.3406,-751.4826 558.8881,-755.8724"/>
</g>
<!-- GO:0071704 -->
<g id="node10" class="node">
<title>GO:0071704</title>
<polygon fill="#ff00ff" stroke="#000000" points="716.6867,-725.8014 600.3155,-725.8014 600.3155,-666.9986 716.6867,-666.9986 716.6867,-725.8014"/>
<text text-anchor="middle" x="658.5011" y="-709" font-family="Times,serif" font-size="14.00" fill="#000000">GO:0071704</text>
<text text-anchor="middle" x="658.5011" y="-692.2" font-family="Times,serif" font-size="14.00" fill="#000000">organic substance</text>
<text text-anchor="middle" x="658.5011" y="-675.4" font-family="Times,serif" font-size="14.00" fill="#000000">metabolic process</text>
</g>
<!-- GO:0008152 -->
<g id="node11" class="node">
<title>GO:0008152</title>
<polygon fill="#ffffff" stroke="#000000" points="837.6867,-811.4019 721.3155,-811.4019 721.3155,-770.1981 837.6867,-770.1981 837.6867,-811.4019"/>
<text text-anchor="middle" x="779.5011" y="-795" font-family="Times,serif" font-size="14.00" fill="#000000">GO:0008152</text>
<text text-anchor="middle" x="779.5011" y="-778.2" font-family="Times,serif" font-size="14.00" fill="#000000">metabolic process</text>
</g>
<!-- GO:0071704&#45;&gt;GO:0008152 -->
<g id="edge13" class="edge">
<title>GO:0071704&#45;&gt;GO:0008152</title>
<path fill="none" stroke="#000000" d="M696.123,-725.7513C711.6933,-737.8987 729.6344,-751.8958 744.876,-763.7867"/>
<polygon fill="#000000" stroke="#000000" points="742.9963,-766.7594 753.0336,-770.151 747.3021,-761.2403 742.9963,-766.7594"/>
</g>
<!-- GO:0008152&#45;&gt;GO:0008150 -->
<g id="edge14" class="edge">
<title>GO:0008152&#45;&gt;GO:0008150</title>
<path fill="none" stroke="#000000" d="M756.7463,-811.6182C744.3919,-822.9212 728.9596,-837.0401 715.6198,-849.2446"/>
<polygon fill="#000000" stroke="#000000" points="713.0619,-846.841 708.0463,-856.1735 717.787,-852.0057 713.0619,-846.841"/>
</g>
<!-- GO:0010468 -->
<g id="node12" class="node">
<title>GO:0010468</title>
<polygon fill="#ffa500" stroke="#000000" points="183.3526,-178.2014 65.6496,-178.2014 65.6496,-119.3986 183.3526,-119.3986 183.3526,-178.2014"/>
<text text-anchor="middle" x="124.5011" y="-161.4" font-family="Times,serif" font-size="14.00" fill="#000000">GO:0010468</text>
<text text-anchor="middle" x="124.5011" y="-144.6" font-family="Times,serif" font-size="14.00" fill="#000000">regulation of gene</text>
<text text-anchor="middle" x="124.5011" y="-127.8" font-family="Times,serif" font-size="14.00" fill="#000000">expression</text>
</g>
<!-- GO:0060255 -->
<g id="node13" class="node">
<title>GO:0060255</title>
<polygon fill="#ffa500" stroke="#000000" points="161.0033,-520.1003 -.0011,-520.1003 -.0011,-444.6997 161.0033,-444.6997 161.0033,-520.1003"/>
<text text-anchor="middle" x="80.5011" y="-503.4" font-family="Times,serif" font-size="14.00" fill="#000000">GO:0060255</text>
<text text-anchor="middle" x="80.5011" y="-486.6" font-family="Times,serif" font-size="14.00" fill="#000000">regulation of</text>
<text text-anchor="middle" x="80.5011" y="-469.8" font-family="Times,serif" font-size="14.00" fill="#000000">macromolecule metabolic</text>
<text text-anchor="middle" x="80.5011" y="-453" font-family="Times,serif" font-size="14.00" fill="#000000">process</text>
</g>
<!-- GO:0010468&#45;&gt;GO:0060255 -->
<g id="edge15" class="edge">
<title>GO:0010468&#45;&gt;GO:0060255</title>
<path fill="none" stroke="#000000" d="M120.4499,-178.2366C115.4482,-214.6953 106.7182,-278.7102 99.5011,-333.6 95.052,-367.4379 90.179,-405.6252 86.482,-434.8416"/>
<polygon fill="#000000" stroke="#000000" points="83.0075,-434.4198 85.226,-444.7798 89.9523,-435.2976 83.0075,-434.4198"/>
</g>
<!-- GO:0060255&#45;&gt;GO:0019222 -->
<g id="edge16" class="edge">
<title>GO:0060255&#45;&gt;GO:0019222</title>
<path fill="none" stroke="#000000" d="M72.029,-520.261C66.9825,-553.3917 65.8215,-600.8421 91.5011,-631.2 114.9888,-658.9666 205.3899,-676.8304 274.3471,-686.7115"/>
<polygon fill="#000000" stroke="#000000" points="273.9665,-690.1922 284.355,-688.1117 274.9365,-683.2598 273.9665,-690.1922"/>
</g>
<!-- GO:0009987 -->
<g id="node14" class="node">
<title>GO:0009987</title>
<polygon fill="#ffff00" stroke="#000000" points="993.4573,-811.4019 889.5449,-811.4019 889.5449,-770.1981 993.4573,-770.1981 993.4573,-811.4019"/>
<text text-anchor="middle" x="941.5011" y="-795" font-family="Times,serif" font-size="14.00" fill="#000000">GO:0009987</text>
<text text-anchor="middle" x="941.5011" y="-778.2" font-family="Times,serif" font-size="14.00" fill="#000000">cellular process</text>
</g>
<!-- GO:0009987&#45;&gt;GO:0008150 -->
<g id="edge17" class="edge">
<title>GO:0009987&#45;&gt;GO:0008150</title>
<path fill="none" stroke="#000000" d="M889.6957,-808.2034C851.2014,-821.1351 798.2516,-838.9229 755.918,-853.1443"/>
<polygon fill="#000000" stroke="#000000" points="754.5952,-849.8964 746.2304,-856.3988 756.8244,-856.532 754.5952,-849.8964"/>
</g>
<!-- GO:0044238 -->
<g id="node15" class="node">
<title>GO:0044238</title>
<polygon fill="#ff00ff" stroke="#000000" points="899.5041,-717.0019 735.4981,-717.0019 735.4981,-675.7981 899.5041,-675.7981 899.5041,-717.0019"/>
<text text-anchor="middle" x="817.5011" y="-700.6" font-family="Times,serif" font-size="14.00" fill="#000000">GO:0044238</text>
<text text-anchor="middle" x="817.5011" y="-683.8" font-family="Times,serif" font-size="14.00" fill="#000000">primary metabolic process</text>
</g>
<!-- GO:0044238&#45;&gt;GO:0008152 -->
<g id="edge18" class="edge">
<title>GO:0044238&#45;&gt;GO:0008152</title>
<path fill="none" stroke="#000000" d="M809.0677,-717.3504C803.9512,-730.0609 797.3357,-746.4952 791.6601,-760.5945"/>
<polygon fill="#000000" stroke="#000000" points="788.3984,-759.3245 787.911,-769.9081 794.8921,-761.9385 788.3984,-759.3245"/>
</g>
<!-- GO:0044237 -->
<g id="node16" class="node">
<title>GO:0044237</title>
<polygon fill="#00ffff" stroke="#000000" points="1034.6839,-725.8014 918.3183,-725.8014 918.3183,-666.9986 1034.6839,-666.9986 1034.6839,-725.8014"/>
<text text-anchor="middle" x="976.5011" y="-709" font-family="Times,serif" font-size="14.00" fill="#000000">GO:0044237</text>
<text text-anchor="middle" x="976.5011" y="-692.2" font-family="Times,serif" font-size="14.00" fill="#000000">cellular metabolic</text>
<text text-anchor="middle" x="976.5011" y="-675.4" font-family="Times,serif" font-size="14.00" fill="#000000">process</text>
</g>
<!-- GO:0044237&#45;&gt;GO:0008152 -->
<g id="edge20" class="edge">
<title>GO:0044237&#45;&gt;GO:0008152</title>
<path fill="none" stroke="#000000" d="M918.1942,-724.34C890.7914,-737.471 858.3791,-753.0026 831.7814,-765.7479"/>
<polygon fill="#000000" stroke="#000000" points="830.1393,-762.6536 822.6337,-770.1314 833.1643,-768.9663 830.1393,-762.6536"/>
</g>
<!-- GO:0044237&#45;&gt;GO:0009987 -->
<g id="edge19" class="edge">
<title>GO:0044237&#45;&gt;GO:0009987</title>
<path fill="none" stroke="#000000" d="M965.6187,-725.7513C961.4903,-736.8864 956.7855,-749.5758 952.6342,-760.7724"/>
<polygon fill="#000000" stroke="#000000" points="949.3517,-759.5579 949.157,-770.151 955.9151,-761.9914 949.3517,-759.5579"/>
</g>
<!-- GO:0006355 -->
<g id="node17" class="node">
<title>GO:0006355</title>
<polygon fill="#00ff00" stroke="#000000" points="353.7392,-75.3003 225.263,-75.3003 225.263,.1003 353.7392,.1003 353.7392,-75.3003"/>
<text text-anchor="middle" x="289.5011" y="-58.6" font-family="Times,serif" font-size="14.00" fill="#000000">GO:0006355</text>
<text text-anchor="middle" x="289.5011" y="-41.8" font-family="Times,serif" font-size="14.00" fill="#000000">regulation of</text>
<text text-anchor="middle" x="289.5011" y="-25" font-family="Times,serif" font-size="14.00" fill="#000000">transcription, DNA&#45;</text>
<text text-anchor="middle" x="289.5011" y="-8.2" font-family="Times,serif" font-size="14.00" fill="#000000">templated</text>
</g>
<!-- GO:0006355&#45;&gt;GO:0010468 -->
<g id="edge22" class="edge">
<title>GO:0006355&#45;&gt;GO:0010468</title>
<path fill="none" stroke="#000000" d="M233.6396,-75.2472C215.2407,-87.647 194.8617,-101.3812 176.743,-113.5921"/>
<polygon fill="#000000" stroke="#000000" points="174.385,-110.9606 168.0485,-119.4517 178.2971,-116.7654 174.385,-110.9606"/>
</g>
<!-- GO:2000112 -->
<g id="node18" class="node">
<title>GO:2000112</title>
<polygon fill="#ffffff" stroke="#000000" points="506.4001,-297.7003 372.6021,-297.7003 372.6021,-222.2997 506.4001,-222.2997 506.4001,-297.7003"/>
<text text-anchor="middle" x="439.5011" y="-281" font-family="Times,serif" font-size="14.00" fill="#000000">GO:2000112</text>
<text text-anchor="middle" x="439.5011" y="-264.2" font-family="Times,serif" font-size="14.00" fill="#000000">regulation of cellular</text>
<text text-anchor="middle" x="439.5011" y="-247.4" font-family="Times,serif" font-size="14.00" fill="#000000">macromolecule</text>
<text text-anchor="middle" x="439.5011" y="-230.6" font-family="Times,serif" font-size="14.00" fill="#000000">biosynthetic process</text>
</g>
<!-- GO:0006355&#45;&gt;GO:2000112 -->
<g id="edge21" class="edge">
<title>GO:0006355&#45;&gt;GO:2000112</title>
<path fill="none" stroke="#000000" d="M332.944,-75.4847C344.0139,-86.3572 355.3548,-98.6779 364.5011,-111.2 387.5195,-142.7144 407.1047,-182.3345 420.4832,-212.7666"/>
<polygon fill="#000000" stroke="#000000" points="417.4246,-214.512 424.6052,-222.3024 423.85,-211.7345 417.4246,-214.512"/>
</g>
<!-- GO:1903506 -->
<g id="node19" class="node">
<title>GO:1903506</title>
<polygon fill="#ffffff" stroke="#000000" points="355.3484,-186.5003 223.6538,-186.5003 223.6538,-111.0997 355.3484,-111.0997 355.3484,-186.5003"/>
<text text-anchor="middle" x="289.5011" y="-169.8" font-family="Times,serif" font-size="14.00" fill="#000000">GO:1903506</text>
<text text-anchor="middle" x="289.5011" y="-153" font-family="Times,serif" font-size="14.00" fill="#000000">regulation of nucleic</text>
<text text-anchor="middle" x="289.5011" y="-136.2" font-family="Times,serif" font-size="14.00" fill="#000000">acid&#45;templated</text>
<text text-anchor="middle" x="289.5011" y="-119.4" font-family="Times,serif" font-size="14.00" fill="#000000">transcription</text>
</g>
<!-- GO:0006355&#45;&gt;GO:1903506 -->
<g id="edge23" class="edge">
<title>GO:0006355&#45;&gt;GO:1903506</title>
<path fill="none" stroke="#000000" d="M289.5011,-75.2472C289.5011,-83.58 289.5011,-92.5155 289.5011,-101.1863"/>
<polygon fill="#000000" stroke="#000000" points="286.0012,-101.1915 289.5011,-111.1915 293.0012,-101.1916 286.0012,-101.1915"/>
</g>
<!-- GO:2000112&#45;&gt;GO:0031326 -->
<g id="edge24" class="edge">
<title>GO:2000112&#45;&gt;GO:0031326</title>
<path fill="none" stroke="#000000" d="M446.9493,-297.6472C449.1253,-308.646 451.5091,-320.6948 453.706,-331.7991"/>
<polygon fill="#000000" stroke="#000000" points="450.2853,-332.5436 455.6597,-341.6742 457.1522,-331.185 450.2853,-332.5436"/>
</g>
<!-- GO:0010556 -->
<g id="node20" class="node">
<title>GO:0010556</title>
<polygon fill="#00ff00" stroke="#000000" points="376.4163,-408.9003 246.5859,-408.9003 246.5859,-333.4997 376.4163,-333.4997 376.4163,-408.9003"/>
<text text-anchor="middle" x="311.5011" y="-392.2" font-family="Times,serif" font-size="14.00" fill="#000000">GO:0010556</text>
<text text-anchor="middle" x="311.5011" y="-375.4" font-family="Times,serif" font-size="14.00" fill="#000000">regulation of</text>
<text text-anchor="middle" x="311.5011" y="-358.6" font-family="Times,serif" font-size="14.00" fill="#000000">macromolecule</text>
<text text-anchor="middle" x="311.5011" y="-341.8" font-family="Times,serif" font-size="14.00" fill="#000000">biosynthetic process</text>
</g>
<!-- GO:2000112&#45;&gt;GO:0010556 -->
<g id="edge25" class="edge">
<title>GO:2000112&#45;&gt;GO:0010556</title>
<path fill="none" stroke="#000000" d="M396.1661,-297.6472C385.3234,-307.0669 373.5941,-317.2567 362.4205,-326.9638"/>
<polygon fill="#000000" stroke="#000000" points="360.0451,-324.391 354.7914,-333.5915 364.636,-329.6754 360.0451,-324.391"/>
</g>
<!-- GO:2001141 -->
<g id="node21" class="node">
<title>GO:2001141</title>
<polygon fill="#ffffff" stroke="#000000" points="354.4163,-289.4014 224.5859,-289.4014 224.5859,-230.5986 354.4163,-230.5986 354.4163,-289.4014"/>
<text text-anchor="middle" x="289.5011" y="-272.6" font-family="Times,serif" font-size="14.00" fill="#000000">GO:2001141</text>
<text text-anchor="middle" x="289.5011" y="-255.8" font-family="Times,serif" font-size="14.00" fill="#000000">regulation of RNA</text>
<text text-anchor="middle" x="289.5011" y="-239" font-family="Times,serif" font-size="14.00" fill="#000000">biosynthetic process</text>
</g>
<!-- GO:1903506&#45;&gt;GO:2001141 -->
<g id="edge26" class="edge">
<title>GO:1903506&#45;&gt;GO:2001141</title>
<path fill="none" stroke="#000000" d="M289.5011,-186.4472C289.5011,-197.3338 289.5011,-209.249 289.5011,-220.2589"/>
<polygon fill="#000000" stroke="#000000" points="286.0012,-220.4741 289.5011,-230.4742 293.0012,-220.4742 286.0012,-220.4741"/>
</g>
<!-- GO:0010556&#45;&gt;GO:0009889 -->
<g id="edge28" class="edge">
<title>GO:0010556&#45;&gt;GO:0009889</title>
<path fill="none" stroke="#000000" d="M348.4035,-408.8472C360.0648,-420.7439 372.9302,-433.869 384.5258,-445.6986"/>
<polygon fill="#000000" stroke="#000000" points="382.0598,-448.1828 391.5594,-452.8742 387.0588,-443.2827 382.0598,-448.1828"/>
</g>
<!-- GO:0010556&#45;&gt;GO:0060255 -->
<g id="edge27" class="edge">
<title>GO:0010556&#45;&gt;GO:0060255</title>
<path fill="none" stroke="#000000" d="M246.1874,-404.5279C243.2556,-405.9793 240.3499,-407.4089 237.5011,-408.8 215.8436,-419.3753 192.3766,-430.5346 170.3503,-440.8782"/>
<polygon fill="#000000" stroke="#000000" points="168.5773,-437.8438 161.0081,-445.2572 171.5482,-444.1821 168.5773,-437.8438"/>
</g>
<!-- GO:2001141&#45;&gt;GO:0031326 -->
<g id="edge29" class="edge">
<title>GO:2001141&#45;&gt;GO:0031326</title>
<path fill="none" stroke="#000000" d="M334.6921,-289.2165C357.1195,-303.7161 384.3673,-321.3321 407.8489,-336.5132"/>
<polygon fill="#000000" stroke="#000000" points="406.0156,-339.4957 416.3136,-341.9858 409.8161,-333.6172 406.0156,-339.4957"/>
</g>
<!-- GO:2001141&#45;&gt;GO:0010556 -->
<g id="edge31" class="edge">
<title>GO:2001141&#45;&gt;GO:0010556</title>
<path fill="none" stroke="#000000" d="M295.2813,-289.2165C297.3491,-299.6682 299.7372,-311.7391 302.0344,-323.3501"/>
<polygon fill="#000000" stroke="#000000" points="298.645,-324.2525 304.0193,-333.383 305.5119,-322.8939 298.645,-324.2525"/>
</g>
<!-- GO:0051252 -->
<g id="node22" class="node">
<title>GO:0051252</title>
<polygon fill="#ffffff" stroke="#000000" points="228.9731,-400.6014 108.0291,-400.6014 108.0291,-341.7986 228.9731,-341.7986 228.9731,-400.6014"/>
<text text-anchor="middle" x="168.5011" y="-383.8" font-family="Times,serif" font-size="14.00" fill="#000000">GO:0051252</text>
<text text-anchor="middle" x="168.5011" y="-367" font-family="Times,serif" font-size="14.00" fill="#000000">regulation of RNA</text>
<text text-anchor="middle" x="168.5011" y="-350.2" font-family="Times,serif" font-size="14.00" fill="#000000">metabolic process</text>
</g>
<!-- GO:2001141&#45;&gt;GO:0051252 -->
<g id="edge30" class="edge">
<title>GO:2001141&#45;&gt;GO:0051252</title>
<path fill="none" stroke="#000000" d="M257.7098,-289.2165C242.5461,-303.1521 224.25,-319.9663 208.1843,-334.7308"/>
<polygon fill="#000000" stroke="#000000" points="205.4949,-332.4489 200.5002,-341.7926 210.2315,-337.603 205.4949,-332.4489"/>
</g>
<!-- GO:0051252&#45;&gt;GO:0060255 -->
<g id="edge33" class="edge">
<title>GO:0051252&#45;&gt;GO:0060255</title>
<path fill="none" stroke="#000000" d="M145.3801,-400.4165C136.6078,-411.5016 126.3939,-424.4082 116.7017,-436.6556"/>
<polygon fill="#000000" stroke="#000000" points="113.8892,-434.5694 110.4282,-444.583 119.3784,-438.9134 113.8892,-434.5694"/>
</g>
<!-- GO:0019219 -->
<g id="node23" class="node">
<title>GO:0019219</title>
<polygon fill="#ffffff" stroke="#000000" points="337.7777,-520.1003 179.2245,-520.1003 179.2245,-444.6997 337.7777,-444.6997 337.7777,-520.1003"/>
<text text-anchor="middle" x="258.5011" y="-503.4" font-family="Times,serif" font-size="14.00" fill="#000000">GO:0019219</text>
<text text-anchor="middle" x="258.5011" y="-486.6" font-family="Times,serif" font-size="14.00" fill="#000000">regulation of nucleobase&#45;</text>
<text text-anchor="middle" x="258.5011" y="-469.8" font-family="Times,serif" font-size="14.00" fill="#000000">containing compound</text>
<text text-anchor="middle" x="258.5011" y="-453" font-family="Times,serif" font-size="14.00" fill="#000000">metabolic process</text>
</g>
<!-- GO:0051252&#45;&gt;GO:0019219 -->
<g id="edge32" class="edge">
<title>GO:0051252&#45;&gt;GO:0019219</title>
<path fill="none" stroke="#000000" d="M192.1475,-400.4165C201.1193,-411.5016 211.5653,-424.4082 221.4778,-436.6556"/>
<polygon fill="#000000" stroke="#000000" points="218.882,-439.0118 227.8938,-444.583 224.3232,-434.608 218.882,-439.0118"/>
</g>
<!-- GO:0019219&#45;&gt;GO:0080090 -->
<g id="edge35" class="edge">
<title>GO:0019219&#45;&gt;GO:0080090</title>
<path fill="none" stroke="#000000" d="M280.8457,-520.0472C287.5736,-531.3827 294.9634,-543.8335 301.7193,-555.2162"/>
<polygon fill="#000000" stroke="#000000" points="298.863,-557.2612 306.9768,-564.0742 304.8826,-553.6884 298.863,-557.2612"/>
</g>
<!-- GO:0019219&#45;&gt;GO:0031323 -->
<g id="edge34" class="edge">
<title>GO:0019219&#45;&gt;GO:0031323</title>
<path fill="none" stroke="#000000" d="M337.7066,-516.671C370.0573,-530.6687 407.3211,-546.7921 439.3507,-560.6509"/>
<polygon fill="#000000" stroke="#000000" points="438.1055,-563.9256 448.6731,-564.6846 440.8853,-557.5012 438.1055,-563.9256"/>
</g>
<!-- GO:0051171 -->
<g id="node24" class="node">
<title>GO:0051171</title>
<polygon fill="#ffffff" stroke="#000000" points="238.5797,-631.3003 100.4225,-631.3003 100.4225,-555.8997 238.5797,-555.8997 238.5797,-631.3003"/>
<text text-anchor="middle" x="169.5011" y="-614.6" font-family="Times,serif" font-size="14.00" fill="#000000">GO:0051171</text>
<text text-anchor="middle" x="169.5011" y="-597.8" font-family="Times,serif" font-size="14.00" fill="#000000">regulation of nitrogen</text>
<text text-anchor="middle" x="169.5011" y="-581" font-family="Times,serif" font-size="14.00" fill="#000000">compound metabolic</text>
<text text-anchor="middle" x="169.5011" y="-564.2" font-family="Times,serif" font-size="14.00" fill="#000000">process</text>
</g>
<!-- GO:0019219&#45;&gt;GO:0051171 -->
<g id="edge36" class="edge">
<title>GO:0019219&#45;&gt;GO:0051171</title>
<path fill="none" stroke="#000000" d="M228.3698,-520.0472C221.1931,-529.014 213.4579,-538.6787 206.0291,-547.9605"/>
<polygon fill="#000000" stroke="#000000" points="203.1175,-545.9971 199.6014,-555.9915 208.5827,-550.3712 203.1175,-545.9971"/>
</g>
</g>
</svg>
