<?xml version="1.0" encoding="UTF-8" standalone="no"?>
<!DOCTYPE svg PUBLIC "-//W3C//DTD SVG 1.1//EN"
 "http://www.w3.org/Graphics/SVG/1.1/DTD/svg11.dtd">
<!-- Generated by graphviz version 2.40.1 (20161225.0304)
 -->
<!-- Title: G Pages: 1 -->
<svg width="902pt" height="677pt"
 viewBox="0.00 0.00 902.33 676.80" xmlns="http://www.w3.org/2000/svg" xmlns:xlink="http://www.w3.org/1999/xlink">
<g id="graph0" class="graph" transform="scale(1 1) rotate(0) translate(4 672.8)">
<title>G</title>
<polygon fill="#ffffff" stroke="transparent" points="-4,4 -4,-672.8 898.3293,-672.8 898.3293,4 -4,4"/>
<!-- GO:0007165 -->
<g id="node1" class="node">
<title>GO:0007165</title>
<polygon fill="#00ff00" stroke="#000000" points="802.7691,-402.2019 680.4757,-402.2019 680.4757,-360.9981 802.7691,-360.9981 802.7691,-402.2019"/>
<text text-anchor="middle" x="741.6224" y="-385.8" font-family="Times,serif" font-size="14.00" fill="#000000">GO:0007165</text>
<text text-anchor="middle" x="741.6224" y="-369" font-family="Times,serif" font-size="14.00" fill="#000000">signal transduction</text>
</g>
<!-- GO:0050794 -->
<g id="node2" class="node">
<title>GO:0050794</title>
<polygon fill="#ffff00" stroke="#000000" points="808.5214,-497.0014 674.7234,-497.0014 674.7234,-438.1986 808.5214,-438.1986 808.5214,-497.0014"/>
<text text-anchor="middle" x="741.6224" y="-480.2" font-family="Times,serif" font-size="14.00" fill="#000000">GO:0050794</text>
<text text-anchor="middle" x="741.6224" y="-463.4" font-family="Times,serif" font-size="14.00" fill="#000000">regulation of cellular</text>
<text text-anchor="middle" x="741.6224" y="-446.6" font-family="Times,serif" font-size="14.00" fill="#000000">process</text>
</g>
<!-- GO:0007165&#45;&gt;GO:0050794 -->
<g id="edge1" class="edge">
<title>GO:0007165&#45;&gt;GO:0050794</title>
<path fill="none" stroke="#000000" d="M741.6224,-402.4182C741.6224,-410.1358 741.6224,-419.1662 741.6224,-428.0036"/>
<polygon fill="#000000" stroke="#000000" points="738.1225,-428.1991 741.6224,-438.1991 745.1225,-428.1992 738.1225,-428.1991"/>
</g>
<!-- GO:0065007 -->
<g id="node3" class="node">
<title>GO:0065007</title>
<polygon fill="#ffffff" stroke="#000000" points="728.8758,-582.6019 596.369,-582.6019 596.369,-541.3981 728.8758,-541.3981 728.8758,-582.6019"/>
<text text-anchor="middle" x="662.6224" y="-566.2" font-family="Times,serif" font-size="14.00" fill="#000000">GO:0065007</text>
<text text-anchor="middle" x="662.6224" y="-549.4" font-family="Times,serif" font-size="14.00" fill="#000000">biological regulation</text>
</g>
<!-- GO:0050794&#45;&gt;GO:0065007 -->
<g id="edge2" class="edge">
<title>GO:0050794&#45;&gt;GO:0065007</title>
<path fill="none" stroke="#000000" d="M717.0594,-496.9513C707.2701,-508.6488 696.0455,-522.0615 686.3416,-533.657"/>
<polygon fill="#000000" stroke="#000000" points="683.6366,-531.4358 679.9028,-541.351 689.0048,-535.9283 683.6366,-531.4358"/>
</g>
<!-- GO:0050789 -->
<g id="node4" class="node">
<title>GO:0050789</title>
<polygon fill="#ffffff" stroke="#000000" points="894.5368,-591.4014 746.708,-591.4014 746.708,-532.5986 894.5368,-532.5986 894.5368,-591.4014"/>
<text text-anchor="middle" x="820.6224" y="-574.6" font-family="Times,serif" font-size="14.00" fill="#000000">GO:0050789</text>
<text text-anchor="middle" x="820.6224" y="-557.8" font-family="Times,serif" font-size="14.00" fill="#000000">regulation of biological</text>
<text text-anchor="middle" x="820.6224" y="-541" font-family="Times,serif" font-size="14.00" fill="#000000">process</text>
</g>
<!-- GO:0050794&#45;&gt;GO:0050789 -->
<g id="edge3" class="edge">
<title>GO:0050794&#45;&gt;GO:0050789</title>
<path fill="none" stroke="#000000" d="M766.1854,-496.9513C773.5422,-505.7422 781.7097,-515.5018 789.4331,-524.7308"/>
<polygon fill="#000000" stroke="#000000" points="786.9726,-527.2442 796.0745,-532.6669 792.3408,-522.7517 786.9726,-527.2442"/>
</g>
<!-- GO:0008150 -->
<g id="node5" class="node">
<title>GO:0008150</title>
<polygon fill="#ffffff" stroke="#000000" points="523.093,-668.6019 402.1518,-668.6019 402.1518,-627.3981 523.093,-627.3981 523.093,-668.6019"/>
<text text-anchor="middle" x="462.6224" y="-652.2" font-family="Times,serif" font-size="14.00" fill="#000000">GO:0008150</text>
<text text-anchor="middle" x="462.6224" y="-635.4" font-family="Times,serif" font-size="14.00" fill="#000000">biological_process</text>
</g>
<!-- GO:0065007&#45;&gt;GO:0008150 -->
<g id="edge4" class="edge">
<title>GO:0065007&#45;&gt;GO:0008150</title>
<path fill="none" stroke="#000000" d="M614.4629,-582.7086C586.0939,-594.9073 550.0311,-610.4143 520.1699,-623.2546"/>
<polygon fill="#000000" stroke="#000000" points="518.5144,-620.1565 510.7103,-627.3222 521.2796,-626.5872 518.5144,-620.1565"/>
</g>
<!-- GO:0050789&#45;&gt;GO:0008150 -->
<g id="edge5" class="edge">
<title>GO:0050789&#45;&gt;GO:0008150</title>
<path fill="none" stroke="#000000" d="M746.5679,-588.6082C743.5563,-589.514 740.566,-590.3822 737.6224,-591.2 669.0821,-610.2416 589.3316,-626.0299 533.4185,-636.0871"/>
<polygon fill="#000000" stroke="#000000" points="532.4941,-632.6967 523.2638,-637.8979 533.723,-639.588 532.4941,-632.6967"/>
</g>
<!-- GO:0044707 -->
<g id="node6" class="node">
<title>GO:0044707</title>
<polygon fill="#00ff00" stroke="#000000" points="224.2625,-497.0014 98.9823,-497.0014 98.9823,-438.1986 224.2625,-438.1986 224.2625,-497.0014"/>
<text text-anchor="middle" x="161.6224" y="-480.2" font-family="Times,serif" font-size="14.00" fill="#000000">GO:0044707</text>
<text text-anchor="middle" x="161.6224" y="-463.4" font-family="Times,serif" font-size="14.00" fill="#000000">single&#45;multicellular</text>
<text text-anchor="middle" x="161.6224" y="-446.6" font-family="Times,serif" font-size="14.00" fill="#000000">organism process</text>
</g>
<!-- GO:0032501 -->
<g id="node7" class="node">
<title>GO:0032501</title>
<polygon fill="#ffffff" stroke="#000000" points="153.3674,-591.4014 -.1226,-591.4014 -.1226,-532.5986 153.3674,-532.5986 153.3674,-591.4014"/>
<text text-anchor="middle" x="76.6224" y="-574.6" font-family="Times,serif" font-size="14.00" fill="#000000">GO:0032501</text>
<text text-anchor="middle" x="76.6224" y="-557.8" font-family="Times,serif" font-size="14.00" fill="#000000">multicellular organismal</text>
<text text-anchor="middle" x="76.6224" y="-541" font-family="Times,serif" font-size="14.00" fill="#000000">process</text>
</g>
<!-- GO:0044707&#45;&gt;GO:0032501 -->
<g id="edge6" class="edge">
<title>GO:0044707&#45;&gt;GO:0032501</title>
<path fill="none" stroke="#000000" d="M135.1938,-496.9513C127.1983,-505.831 118.3129,-515.699 109.9288,-525.0103"/>
<polygon fill="#000000" stroke="#000000" points="107.1251,-522.8935 103.0347,-532.6669 112.3271,-527.5775 107.1251,-522.8935"/>
</g>
<!-- GO:0044699 -->
<g id="node8" class="node">
<title>GO:0044699</title>
<polygon fill="#00ff00" stroke="#000000" points="322.3037,-582.6019 170.9411,-582.6019 170.9411,-541.3981 322.3037,-541.3981 322.3037,-582.6019"/>
<text text-anchor="middle" x="246.6224" y="-566.2" font-family="Times,serif" font-size="14.00" fill="#000000">GO:0044699</text>
<text text-anchor="middle" x="246.6224" y="-549.4" font-family="Times,serif" font-size="14.00" fill="#000000">single&#45;organism process</text>
</g>
<!-- GO:0044707&#45;&gt;GO:0044699 -->
<g id="edge7" class="edge">
<title>GO:0044707&#45;&gt;GO:0044699</title>
<path fill="none" stroke="#000000" d="M188.051,-496.9513C198.5837,-508.6488 210.6608,-522.0615 221.1017,-533.657"/>
<polygon fill="#000000" stroke="#000000" points="218.7371,-536.2616 228.0295,-541.351 223.9391,-531.5776 218.7371,-536.2616"/>
</g>
<!-- GO:0032501&#45;&gt;GO:0008150 -->
<g id="edge8" class="edge">
<title>GO:0032501&#45;&gt;GO:0008150</title>
<path fill="none" stroke="#000000" d="M153.3805,-588.9241C156.1537,-589.7196 158.9072,-590.4815 161.6224,-591.2 239.54,-611.8197 330.701,-627.9331 392.1131,-637.6486"/>
<polygon fill="#000000" stroke="#000000" points="391.6642,-641.1209 402.0856,-639.2113 392.748,-634.2053 391.6642,-641.1209"/>
</g>
<!-- GO:0044699&#45;&gt;GO:0008150 -->
<g id="edge9" class="edge">
<title>GO:0044699&#45;&gt;GO:0008150</title>
<path fill="none" stroke="#000000" d="M298.6347,-582.7086C329.5385,-595.0129 368.8961,-610.683 401.3072,-623.5875"/>
<polygon fill="#000000" stroke="#000000" points="400.1021,-626.8748 410.6875,-627.3222 402.6915,-620.3713 400.1021,-626.8748"/>
</g>
<!-- GO:0019933 -->
<g id="node9" class="node">
<title>GO:0019933</title>
<polygon fill="#00ffff" stroke="#000000" points="823.4784,-41.4019 659.7664,-41.4019 659.7664,-.1981 823.4784,-.1981 823.4784,-41.4019"/>
<text text-anchor="middle" x="741.6224" y="-25" font-family="Times,serif" font-size="14.00" fill="#000000">GO:0019933</text>
<text text-anchor="middle" x="741.6224" y="-8.2" font-family="Times,serif" font-size="14.00" fill="#000000">cAMP&#45;mediated signaling</text>
</g>
<!-- GO:0019935 -->
<g id="node10" class="node">
<title>GO:0019935</title>
<polygon fill="#ffffff" stroke="#000000" points="802.7691,-136.2014 680.4757,-136.2014 680.4757,-77.3986 802.7691,-77.3986 802.7691,-136.2014"/>
<text text-anchor="middle" x="741.6224" y="-119.4" font-family="Times,serif" font-size="14.00" fill="#000000">GO:0019935</text>
<text text-anchor="middle" x="741.6224" y="-102.6" font-family="Times,serif" font-size="14.00" fill="#000000">cyclic&#45;nucleotide&#45;</text>
<text text-anchor="middle" x="741.6224" y="-85.8" font-family="Times,serif" font-size="14.00" fill="#000000">mediated signaling</text>
</g>
<!-- GO:0019933&#45;&gt;GO:0019935 -->
<g id="edge10" class="edge">
<title>GO:0019933&#45;&gt;GO:0019935</title>
<path fill="none" stroke="#000000" d="M741.6224,-41.6182C741.6224,-49.3358 741.6224,-58.3662 741.6224,-67.2036"/>
<polygon fill="#000000" stroke="#000000" points="738.1225,-67.3991 741.6224,-77.3991 745.1225,-67.3992 738.1225,-67.3991"/>
</g>
<!-- GO:0019932 -->
<g id="node11" class="node">
<title>GO:0019932</title>
<polygon fill="#ffffff" stroke="#000000" points="828.7177,-230.6014 654.5271,-230.6014 654.5271,-171.7986 828.7177,-171.7986 828.7177,-230.6014"/>
<text text-anchor="middle" x="741.6224" y="-213.8" font-family="Times,serif" font-size="14.00" fill="#000000">GO:0019932</text>
<text text-anchor="middle" x="741.6224" y="-197" font-family="Times,serif" font-size="14.00" fill="#000000">second&#45;messenger&#45;mediated</text>
<text text-anchor="middle" x="741.6224" y="-180.2" font-family="Times,serif" font-size="14.00" fill="#000000">signaling</text>
</g>
<!-- GO:0019935&#45;&gt;GO:0019932 -->
<g id="edge11" class="edge">
<title>GO:0019935&#45;&gt;GO:0019932</title>
<path fill="none" stroke="#000000" d="M741.6224,-136.1513C741.6224,-144.2318 741.6224,-153.1308 741.6224,-161.6838"/>
<polygon fill="#000000" stroke="#000000" points="738.1225,-161.8668 741.6224,-171.8669 745.1225,-161.8669 738.1225,-161.8668"/>
</g>
<!-- GO:0035556 -->
<g id="node12" class="node">
<title>GO:0035556</title>
<polygon fill="#00ffff" stroke="#000000" points="801.6962,-325.0014 681.5486,-325.0014 681.5486,-266.1986 801.6962,-266.1986 801.6962,-325.0014"/>
<text text-anchor="middle" x="741.6224" y="-308.2" font-family="Times,serif" font-size="14.00" fill="#000000">GO:0035556</text>
<text text-anchor="middle" x="741.6224" y="-291.4" font-family="Times,serif" font-size="14.00" fill="#000000">intracellular signal</text>
<text text-anchor="middle" x="741.6224" y="-274.6" font-family="Times,serif" font-size="14.00" fill="#000000">transduction</text>
</g>
<!-- GO:0019932&#45;&gt;GO:0035556 -->
<g id="edge12" class="edge">
<title>GO:0019932&#45;&gt;GO:0035556</title>
<path fill="none" stroke="#000000" d="M741.6224,-230.5513C741.6224,-238.6318 741.6224,-247.5308 741.6224,-256.0838"/>
<polygon fill="#000000" stroke="#000000" points="738.1225,-256.2668 741.6224,-266.2669 745.1225,-256.2669 738.1225,-256.2668"/>
</g>
<!-- GO:0035556&#45;&gt;GO:0007165 -->
<g id="edge13" class="edge">
<title>GO:0035556&#45;&gt;GO:0007165</title>
<path fill="none" stroke="#000000" d="M741.6224,-325.1963C741.6224,-333.4638 741.6224,-342.4657 741.6224,-350.8008"/>
<polygon fill="#000000" stroke="#000000" points="738.1225,-350.8965 741.6224,-360.8966 745.1225,-350.8966 738.1225,-350.8965"/>
</g>
<!-- GO:0008152 -->
<g id="node13" class="node">
<title>GO:0008152</title>
<polygon fill="#00ffff" stroke="#000000" points="456.808,-582.6019 340.4368,-582.6019 340.4368,-541.3981 456.808,-541.3981 456.808,-582.6019"/>
<text text-anchor="middle" x="398.6224" y="-566.2" font-family="Times,serif" font-size="14.00" fill="#000000">GO:0008152</text>
<text text-anchor="middle" x="398.6224" y="-549.4" font-family="Times,serif" font-size="14.00" fill="#000000">metabolic process</text>
</g>
<!-- GO:0008152&#45;&gt;GO:0008150 -->
<g id="edge14" class="edge">
<title>GO:0008152&#45;&gt;GO:0008150</title>
<path fill="none" stroke="#000000" d="M414.115,-582.8182C422.2121,-593.6987 432.251,-607.1884 441.0917,-619.0681"/>
<polygon fill="#000000" stroke="#000000" points="438.4945,-621.4407 447.2725,-627.3735 444.1101,-617.2616 438.4945,-621.4407"/>
</g>
<!-- GO:0009987 -->
<g id="node14" class="node">
<title>GO:0009987</title>
<polygon fill="#00ffff" stroke="#000000" points="578.5786,-582.6019 474.6662,-582.6019 474.6662,-541.3981 578.5786,-541.3981 578.5786,-582.6019"/>
<text text-anchor="middle" x="526.6224" y="-566.2" font-family="Times,serif" font-size="14.00" fill="#000000">GO:0009987</text>
<text text-anchor="middle" x="526.6224" y="-549.4" font-family="Times,serif" font-size="14.00" fill="#000000">cellular process</text>
</g>
<!-- GO:0009987&#45;&gt;GO:0008150 -->
<g id="edge15" class="edge">
<title>GO:0009987&#45;&gt;GO:0008150</title>
<path fill="none" stroke="#000000" d="M511.1298,-582.8182C503.0327,-593.6987 492.9938,-607.1884 484.1531,-619.0681"/>
<polygon fill="#000000" stroke="#000000" points="481.1347,-617.2616 477.9723,-627.3735 486.7503,-621.4407 481.1347,-617.2616"/>
</g>
</g>
</svg>
