<?xml version="1.0" encoding="UTF-8" standalone="no"?>
<!DOCTYPE svg PUBLIC "-//W3C//DTD SVG 1.1//EN"
 "http://www.w3.org/Graphics/SVG/1.1/DTD/svg11.dtd">
<!-- Generated by graphviz version 2.40.1 (20161225.0304)
 -->
<!-- Title: G Pages: 1 -->
<svg width="303pt" height="549pt"
 viewBox="0.00 0.00 302.66 548.80" xmlns="http://www.w3.org/2000/svg" xmlns:xlink="http://www.w3.org/1999/xlink">
<g id="graph0" class="graph" transform="scale(1 1) rotate(0) translate(4 544.8)">
<title>G</title>
<polygon fill="#ffffff" stroke="transparent" points="-4,4 -4,-544.8 298.6631,-544.8 298.6631,4 -4,4"/>
<!-- GO:0044446 -->
<g id="node1" class="node">
<title>GO:0044446</title>
<polygon fill="#ffa500" stroke="#000000" points="144.2703,-308.2014 4.8335,-308.2014 4.8335,-249.3986 144.2703,-249.3986 144.2703,-308.2014"/>
<text text-anchor="middle" x="74.5519" y="-291.4" font-family="Times,serif" font-size="14.00" fill="#000000">GO:0044446</text>
<text text-anchor="middle" x="74.5519" y="-274.6" font-family="Times,serif" font-size="14.00" fill="#000000">intracellular organelle</text>
<text text-anchor="middle" x="74.5519" y="-257.8" font-family="Times,serif" font-size="14.00" fill="#000000">part</text>
</g>
<!-- GO:0044424 -->
<g id="node2" class="node">
<title>GO:0044424</title>
<polygon fill="#ff0000" stroke="#000000" points="111.9503,-385.4019 3.1535,-385.4019 3.1535,-344.1981 111.9503,-344.1981 111.9503,-385.4019"/>
<text text-anchor="middle" x="57.5519" y="-369" font-family="Times,serif" font-size="14.00" fill="#000000">GO:0044424</text>
<text text-anchor="middle" x="57.5519" y="-352.2" font-family="Times,serif" font-size="14.00" fill="#000000">intracellular part</text>
</g>
<!-- GO:0044446&#45;&gt;GO:0044424 -->
<g id="edge1" class="edge">
<title>GO:0044446&#45;&gt;GO:0044424</title>
<path fill="none" stroke="#000000" d="M68.7015,-308.3963C67.049,-316.7556 65.2482,-325.8658 63.5852,-334.2784"/>
<polygon fill="#000000" stroke="#000000" points="60.1502,-333.6076 61.6444,-344.0966 67.0173,-334.9651 60.1502,-333.6076"/>
</g>
<!-- GO:0044422 -->
<g id="node3" class="node">
<title>GO:0044422</title>
<polygon fill="#ffa500" stroke="#000000" points="200.404,-463.0019 106.6998,-463.0019 106.6998,-421.7981 200.404,-421.7981 200.404,-463.0019"/>
<text text-anchor="middle" x="153.5519" y="-446.6" font-family="Times,serif" font-size="14.00" fill="#000000">GO:0044422</text>
<text text-anchor="middle" x="153.5519" y="-429.8" font-family="Times,serif" font-size="14.00" fill="#000000">organelle part</text>
</g>
<!-- GO:0044446&#45;&gt;GO:0044422 -->
<g id="edge2" class="edge">
<title>GO:0044446&#45;&gt;GO:0044422</title>
<path fill="none" stroke="#000000" d="M98.003,-308.1601C105.9016,-318.9909 114.2904,-331.6428 120.5519,-344 131.5791,-365.7623 140.173,-392.0304 145.8228,-411.9504"/>
<polygon fill="#000000" stroke="#000000" points="142.4851,-413.0135 148.5063,-421.7311 149.2356,-411.1614 142.4851,-413.0135"/>
</g>
<!-- GO:0044464 -->
<g id="node4" class="node">
<title>GO:0044464</title>
<polygon fill="#ffffff" stroke="#000000" points="89.1558,-463.0019 -.052,-463.0019 -.052,-421.7981 89.1558,-421.7981 89.1558,-463.0019"/>
<text text-anchor="middle" x="44.5519" y="-446.6" font-family="Times,serif" font-size="14.00" fill="#000000">GO:0044464</text>
<text text-anchor="middle" x="44.5519" y="-429.8" font-family="Times,serif" font-size="14.00" fill="#000000">cell part</text>
</g>
<!-- GO:0044424&#45;&gt;GO:0044464 -->
<g id="edge3" class="edge">
<title>GO:0044424&#45;&gt;GO:0044464</title>
<path fill="none" stroke="#000000" d="M54.0681,-385.5954C52.7275,-393.5978 51.1669,-402.9133 49.7021,-411.6575"/>
<polygon fill="#000000" stroke="#000000" points="46.2457,-411.1063 48.0453,-421.5472 53.1495,-412.263 46.2457,-411.1063"/>
</g>
<!-- GO:0005575 -->
<g id="node5" class="node">
<title>GO:0005575</title>
<polygon fill="#ffffff" stroke="#000000" points="217.2386,-540.6019 89.8652,-540.6019 89.8652,-499.3981 217.2386,-499.3981 217.2386,-540.6019"/>
<text text-anchor="middle" x="153.5519" y="-524.2" font-family="Times,serif" font-size="14.00" fill="#000000">GO:0005575</text>
<text text-anchor="middle" x="153.5519" y="-507.4" font-family="Times,serif" font-size="14.00" fill="#000000">cellular_component</text>
</g>
<!-- GO:0044422&#45;&gt;GO:0005575 -->
<g id="edge4" class="edge">
<title>GO:0044422&#45;&gt;GO:0005575</title>
<path fill="none" stroke="#000000" d="M153.5519,-463.1954C153.5519,-471.1109 153.5519,-480.3109 153.5519,-488.9722"/>
<polygon fill="#000000" stroke="#000000" points="150.052,-489.1472 153.5519,-499.1472 157.052,-489.1473 150.052,-489.1472"/>
</g>
<!-- GO:0044464&#45;&gt;GO:0005575 -->
<g id="edge5" class="edge">
<title>GO:0044464&#45;&gt;GO:0005575</title>
<path fill="none" stroke="#000000" d="M73.7619,-463.1954C86.713,-472.4156 102.1123,-483.3788 115.912,-493.2031"/>
<polygon fill="#000000" stroke="#000000" points="114.0849,-496.1988 124.2613,-499.1472 118.1447,-490.4963 114.0849,-496.1988"/>
</g>
<!-- GO:0005874 -->
<g id="node6" class="node">
<title>GO:0005874</title>
<polygon fill="#ffff00" stroke="#000000" points="196.1558,-41.4019 106.948,-41.4019 106.948,-.1981 196.1558,-.1981 196.1558,-41.4019"/>
<text text-anchor="middle" x="151.5519" y="-25" font-family="Times,serif" font-size="14.00" fill="#000000">GO:0005874</text>
<text text-anchor="middle" x="151.5519" y="-8.2" font-family="Times,serif" font-size="14.00" fill="#000000">microtubule</text>
</g>
<!-- GO:0099513 -->
<g id="node7" class="node">
<title>GO:0099513</title>
<polygon fill="#ffffff" stroke="#000000" points="223.179,-136.2014 79.9248,-136.2014 79.9248,-77.3986 223.179,-77.3986 223.179,-136.2014"/>
<text text-anchor="middle" x="151.5519" y="-119.4" font-family="Times,serif" font-size="14.00" fill="#000000">GO:0099513</text>
<text text-anchor="middle" x="151.5519" y="-102.6" font-family="Times,serif" font-size="14.00" fill="#000000">polymeric cytoskeletal</text>
<text text-anchor="middle" x="151.5519" y="-85.8" font-family="Times,serif" font-size="14.00" fill="#000000">fiber</text>
</g>
<!-- GO:0005874&#45;&gt;GO:0099513 -->
<g id="edge6" class="edge">
<title>GO:0005874&#45;&gt;GO:0099513</title>
<path fill="none" stroke="#000000" d="M151.5519,-41.6182C151.5519,-49.3358 151.5519,-58.3662 151.5519,-67.2036"/>
<polygon fill="#000000" stroke="#000000" points="148.052,-67.3991 151.5519,-77.3991 155.052,-67.3992 148.052,-67.3991"/>
</g>
<!-- GO:0044430 -->
<g id="node8" class="node">
<title>GO:0044430</title>
<polygon fill="#ffffff" stroke="#000000" points="164.6832,-213.4019 56.4206,-213.4019 56.4206,-172.1981 164.6832,-172.1981 164.6832,-213.4019"/>
<text text-anchor="middle" x="110.5519" y="-197" font-family="Times,serif" font-size="14.00" fill="#000000">GO:0044430</text>
<text text-anchor="middle" x="110.5519" y="-180.2" font-family="Times,serif" font-size="14.00" fill="#000000">cytoskeletal part</text>
</g>
<!-- GO:0099513&#45;&gt;GO:0044430 -->
<g id="edge7" class="edge">
<title>GO:0099513&#45;&gt;GO:0044430</title>
<path fill="none" stroke="#000000" d="M137.442,-136.3963C133.3692,-144.9393 128.9224,-154.2667 124.8389,-162.8321"/>
<polygon fill="#000000" stroke="#000000" points="121.5663,-161.5637 120.4221,-172.0966 127.8849,-164.5761 121.5663,-161.5637"/>
</g>
<!-- GO:0099512 -->
<g id="node9" class="node">
<title>GO:0099512</title>
<polygon fill="#ffffff" stroke="#000000" points="294.7745,-299.4019 162.3293,-299.4019 162.3293,-258.1981 294.7745,-258.1981 294.7745,-299.4019"/>
<text text-anchor="middle" x="228.5519" y="-283" font-family="Times,serif" font-size="14.00" fill="#000000">GO:0099512</text>
<text text-anchor="middle" x="228.5519" y="-266.2" font-family="Times,serif" font-size="14.00" fill="#000000">supramolecular fiber</text>
</g>
<!-- GO:0099513&#45;&gt;GO:0099512 -->
<g id="edge8" class="edge">
<title>GO:0099513&#45;&gt;GO:0099512</title>
<path fill="none" stroke="#000000" d="M164.7887,-136.3679C178.8171,-167.704 200.8574,-216.937 215.0032,-248.5354"/>
<polygon fill="#000000" stroke="#000000" points="211.8417,-250.0393 219.1222,-257.7363 218.2307,-247.1791 211.8417,-250.0393"/>
</g>
<!-- GO:0044430&#45;&gt;GO:0044446 -->
<g id="edge9" class="edge">
<title>GO:0044430&#45;&gt;GO:0044446</title>
<path fill="none" stroke="#000000" d="M101.8373,-213.6182C98.5013,-221.5875 94.5794,-230.9565 90.7655,-240.0675"/>
<polygon fill="#000000" stroke="#000000" points="87.4921,-238.8232 86.8592,-249.3991 93.9492,-241.5262 87.4921,-238.8232"/>
</g>
<!-- GO:0099512&#45;&gt;GO:0005575 -->
<g id="edge10" class="edge">
<title>GO:0099512&#45;&gt;GO:0005575</title>
<path fill="none" stroke="#000000" d="M230.7254,-299.6183C233.5136,-335.0694 235.2815,-408.6164 209.5519,-463.2 204.4828,-473.9537 196.5156,-483.8828 188.1642,-492.3309"/>
<polygon fill="#000000" stroke="#000000" points="185.6152,-489.9252 180.7894,-499.3572 190.4437,-494.9933 185.6152,-489.9252"/>
</g>
</g>
</svg>
