<?xml version="1.0" encoding="UTF-8" standalone="no"?>
<!DOCTYPE svg PUBLIC "-//W3C//DTD SVG 1.1//EN"
 "http://www.w3.org/Graphics/SVG/1.1/DTD/svg11.dtd">
<!-- Generated by graphviz version 2.40.1 (20161225.0304)
 -->
<!-- Title: G Pages: 1 -->
<svg width="976pt" height="744pt"
 viewBox="0.00 0.00 975.54 744.00" xmlns="http://www.w3.org/2000/svg" xmlns:xlink="http://www.w3.org/1999/xlink">
<g id="graph0" class="graph" transform="scale(1 1) rotate(0) translate(4 740)">
<title>G</title>
<polygon fill="#ffffff" stroke="transparent" points="-4,4 -4,-740 971.5411,-740 971.5411,4 -4,4"/>
<!-- GO:0035639 -->
<g id="node1" class="node">
<title>GO:0035639</title>
<polygon fill="#00ffff" stroke="#000000" points="137.5303,-367.0014 .1563,-367.0014 .1563,-308.1986 137.5303,-308.1986 137.5303,-367.0014"/>
<text text-anchor="middle" x="68.8433" y="-350.2" font-family="Times,serif" font-size="14.00" fill="#000000">GO:0035639</text>
<text text-anchor="middle" x="68.8433" y="-333.4" font-family="Times,serif" font-size="14.00" fill="#000000">purine ribonucleoside</text>
<text text-anchor="middle" x="68.8433" y="-316.6" font-family="Times,serif" font-size="14.00" fill="#000000">triphosphate binding</text>
</g>
<!-- GO:1901265 -->
<g id="node2" class="node">
<title>GO:1901265</title>
<polygon fill="#ffffff" stroke="#000000" points="302.9774,-486.6014 166.7092,-486.6014 166.7092,-427.7986 302.9774,-427.7986 302.9774,-486.6014"/>
<text text-anchor="middle" x="234.8433" y="-469.8" font-family="Times,serif" font-size="14.00" fill="#000000">GO:1901265</text>
<text text-anchor="middle" x="234.8433" y="-453" font-family="Times,serif" font-size="14.00" fill="#000000">nucleoside phosphate</text>
<text text-anchor="middle" x="234.8433" y="-436.2" font-family="Times,serif" font-size="14.00" fill="#000000">binding</text>
</g>
<!-- GO:0035639&#45;&gt;GO:1901265 -->
<g id="edge1" class="edge">
<title>GO:0035639&#45;&gt;GO:1901265</title>
<path fill="none" stroke="#000000" d="M109.4515,-366.8575C132.4623,-383.4363 161.4153,-404.2964 185.7009,-421.7938"/>
<polygon fill="#000000" stroke="#000000" points="183.9195,-424.8241 194.079,-427.8301 188.0115,-419.1447 183.9195,-424.8241"/>
</g>
<!-- GO:0097159 -->
<g id="node3" class="node">
<title>GO:0097159</title>
<polygon fill="#00ff00" stroke="#000000" points="302.3547,-581.0014 145.3319,-581.0014 145.3319,-522.1986 302.3547,-522.1986 302.3547,-581.0014"/>
<text text-anchor="middle" x="223.8433" y="-564.2" font-family="Times,serif" font-size="14.00" fill="#000000">GO:0097159</text>
<text text-anchor="middle" x="223.8433" y="-547.4" font-family="Times,serif" font-size="14.00" fill="#000000">organic cyclic compound</text>
<text text-anchor="middle" x="223.8433" y="-530.6" font-family="Times,serif" font-size="14.00" fill="#000000">binding</text>
</g>
<!-- GO:1901265&#45;&gt;GO:0097159 -->
<g id="edge2" class="edge">
<title>GO:1901265&#45;&gt;GO:0097159</title>
<path fill="none" stroke="#000000" d="M231.4231,-486.5513C230.4815,-494.6318 229.4446,-503.5308 228.4479,-512.0838"/>
<polygon fill="#000000" stroke="#000000" points="224.9424,-511.9289 227.2614,-522.2669 231.8953,-512.7392 224.9424,-511.9289"/>
</g>
<!-- GO:1901363 -->
<g id="node4" class="node">
<title>GO:1901363</title>
<polygon fill="#00ff00" stroke="#000000" points="467.3539,-581.0014 320.3327,-581.0014 320.3327,-522.1986 467.3539,-522.1986 467.3539,-581.0014"/>
<text text-anchor="middle" x="393.8433" y="-564.2" font-family="Times,serif" font-size="14.00" fill="#000000">GO:1901363</text>
<text text-anchor="middle" x="393.8433" y="-547.4" font-family="Times,serif" font-size="14.00" fill="#000000">heterocyclic compound</text>
<text text-anchor="middle" x="393.8433" y="-530.6" font-family="Times,serif" font-size="14.00" fill="#000000">binding</text>
</g>
<!-- GO:1901265&#45;&gt;GO:1901363 -->
<g id="edge3" class="edge">
<title>GO:1901265&#45;&gt;GO:1901363</title>
<path fill="none" stroke="#000000" d="M284.2803,-486.5513C300.5826,-496.2301 318.8628,-507.0833 335.7505,-517.1097"/>
<polygon fill="#000000" stroke="#000000" points="334.0513,-520.1712 344.4369,-522.2669 337.625,-514.1521 334.0513,-520.1712"/>
</g>
<!-- GO:0005488 -->
<g id="node5" class="node">
<title>GO:0005488</title>
<polygon fill="#ffffff" stroke="#000000" points="603.4472,-658.2019 514.2394,-658.2019 514.2394,-616.9981 603.4472,-616.9981 603.4472,-658.2019"/>
<text text-anchor="middle" x="558.8433" y="-641.8" font-family="Times,serif" font-size="14.00" fill="#000000">GO:0005488</text>
<text text-anchor="middle" x="558.8433" y="-625" font-family="Times,serif" font-size="14.00" fill="#000000">binding</text>
</g>
<!-- GO:0097159&#45;&gt;GO:0005488 -->
<g id="edge4" class="edge">
<title>GO:0097159&#45;&gt;GO:0005488</title>
<path fill="none" stroke="#000000" d="M302.4557,-578.3717C305.2805,-579.2103 308.0829,-580.0227 310.8433,-580.8 376.6735,-599.3372 453.5924,-616.2288 504.1059,-626.6844"/>
<polygon fill="#000000" stroke="#000000" points="503.6577,-630.1654 514.1579,-628.7522 505.0682,-623.309 503.6577,-630.1654"/>
</g>
<!-- GO:1901363&#45;&gt;GO:0005488 -->
<g id="edge5" class="edge">
<title>GO:1901363&#45;&gt;GO:0005488</title>
<path fill="none" stroke="#000000" d="M450.1655,-580.9558C469.6612,-591.1172 491.3328,-602.4127 510.1621,-612.2267"/>
<polygon fill="#000000" stroke="#000000" points="508.6697,-615.3958 519.1552,-616.9141 511.9052,-609.1883 508.6697,-615.3958"/>
</g>
<!-- GO:0003674 -->
<g id="node6" class="node">
<title>GO:0003674</title>
<polygon fill="#ffffff" stroke="#000000" points="679.4764,-735.8019 554.2102,-735.8019 554.2102,-694.5981 679.4764,-694.5981 679.4764,-735.8019"/>
<text text-anchor="middle" x="616.8433" y="-719.4" font-family="Times,serif" font-size="14.00" fill="#000000">GO:0003674</text>
<text text-anchor="middle" x="616.8433" y="-702.6" font-family="Times,serif" font-size="14.00" fill="#000000">molecular_function</text>
</g>
<!-- GO:0005488&#45;&gt;GO:0003674 -->
<g id="edge6" class="edge">
<title>GO:0005488&#45;&gt;GO:0003674</title>
<path fill="none" stroke="#000000" d="M574.3862,-658.3954C580.7575,-666.9197 588.2424,-676.9339 595.1385,-686.1605"/>
<polygon fill="#000000" stroke="#000000" points="592.4672,-688.4327 601.2575,-694.3472 598.0741,-684.2419 592.4672,-688.4327"/>
</g>
<!-- GO:0032561 -->
<g id="node7" class="node">
<title>GO:0032561</title>
<polygon fill="#00ffff" stroke="#000000" points="702.3161,-58.6014 563.3705,-58.6014 563.3705,.2014 702.3161,.2014 702.3161,-58.6014"/>
<text text-anchor="middle" x="632.8433" y="-41.8" font-family="Times,serif" font-size="14.00" fill="#000000">GO:0032561</text>
<text text-anchor="middle" x="632.8433" y="-25" font-family="Times,serif" font-size="14.00" fill="#000000">guanyl ribonucleotide</text>
<text text-anchor="middle" x="632.8433" y="-8.2" font-family="Times,serif" font-size="14.00" fill="#000000">binding</text>
</g>
<!-- GO:0032555 -->
<g id="node8" class="node">
<title>GO:0032555</title>
<polygon fill="#00ffff" stroke="#000000" points="784.976,-153.0014 648.7106,-153.0014 648.7106,-94.1986 784.976,-94.1986 784.976,-153.0014"/>
<text text-anchor="middle" x="716.8433" y="-136.2" font-family="Times,serif" font-size="14.00" fill="#000000">GO:0032555</text>
<text text-anchor="middle" x="716.8433" y="-119.4" font-family="Times,serif" font-size="14.00" fill="#000000">purine ribonucleotide</text>
<text text-anchor="middle" x="716.8433" y="-102.6" font-family="Times,serif" font-size="14.00" fill="#000000">binding</text>
</g>
<!-- GO:0032561&#45;&gt;GO:0032555 -->
<g id="edge7" class="edge">
<title>GO:0032561&#45;&gt;GO:0032555</title>
<path fill="none" stroke="#000000" d="M658.961,-58.5513C666.8624,-67.431 675.6433,-77.299 683.9287,-86.6103"/>
<polygon fill="#000000" stroke="#000000" points="681.4795,-89.1229 690.7418,-94.2669 686.7089,-84.4696 681.4795,-89.1229"/>
</g>
<!-- GO:0019001 -->
<g id="node9" class="node">
<title>GO:0019001</title>
<polygon fill="#ffffff" stroke="#000000" points="631.0454,-144.2019 468.6412,-144.2019 468.6412,-102.9981 631.0454,-102.9981 631.0454,-144.2019"/>
<text text-anchor="middle" x="549.8433" y="-127.8" font-family="Times,serif" font-size="14.00" fill="#000000">GO:0019001</text>
<text text-anchor="middle" x="549.8433" y="-111" font-family="Times,serif" font-size="14.00" fill="#000000">guanyl nucleotide binding</text>
</g>
<!-- GO:0032561&#45;&gt;GO:0019001 -->
<g id="edge8" class="edge">
<title>GO:0032561&#45;&gt;GO:0019001</title>
<path fill="none" stroke="#000000" d="M607.0366,-58.5513C596.7517,-70.2488 584.9587,-83.6615 574.7635,-95.257"/>
<polygon fill="#000000" stroke="#000000" points="571.9733,-93.1299 567.9987,-102.951 577.2303,-97.7521 571.9733,-93.1299"/>
</g>
<!-- GO:0017076 -->
<g id="node10" class="node">
<title>GO:0017076</title>
<polygon fill="#ffffff" stroke="#000000" points="629.706,-238.6019 469.9806,-238.6019 469.9806,-197.3981 629.706,-197.3981 629.706,-238.6019"/>
<text text-anchor="middle" x="549.8433" y="-222.2" font-family="Times,serif" font-size="14.00" fill="#000000">GO:0017076</text>
<text text-anchor="middle" x="549.8433" y="-205.4" font-family="Times,serif" font-size="14.00" fill="#000000">purine nucleotide binding</text>
</g>
<!-- GO:0032555&#45;&gt;GO:0017076 -->
<g id="edge9" class="edge">
<title>GO:0032555&#45;&gt;GO:0017076</title>
<path fill="none" stroke="#000000" d="M664.9189,-152.9513C642.6334,-165.5486 616.8289,-180.1351 595.31,-192.2991"/>
<polygon fill="#000000" stroke="#000000" points="593.3559,-189.3831 586.3728,-197.351 596.8006,-195.4769 593.3559,-189.3831"/>
</g>
<!-- GO:0032553 -->
<g id="node11" class="node">
<title>GO:0032553</title>
<polygon fill="#ffffff" stroke="#000000" points="791.4914,-238.6019 648.1952,-238.6019 648.1952,-197.3981 791.4914,-197.3981 791.4914,-238.6019"/>
<text text-anchor="middle" x="719.8433" y="-222.2" font-family="Times,serif" font-size="14.00" fill="#000000">GO:0032553</text>
<text text-anchor="middle" x="719.8433" y="-205.4" font-family="Times,serif" font-size="14.00" fill="#000000">ribonucleotide binding</text>
</g>
<!-- GO:0032555&#45;&gt;GO:0032553 -->
<g id="edge10" class="edge">
<title>GO:0032555&#45;&gt;GO:0032553</title>
<path fill="none" stroke="#000000" d="M717.7761,-152.9513C718.1228,-163.8614 718.5169,-176.2637 718.8674,-187.292"/>
<polygon fill="#000000" stroke="#000000" points="715.3711,-187.4672 719.1871,-197.351 722.3676,-187.2448 715.3711,-187.4672"/>
</g>
<!-- GO:0019001&#45;&gt;GO:0017076 -->
<g id="edge11" class="edge">
<title>GO:0019001&#45;&gt;GO:0017076</title>
<path fill="none" stroke="#000000" d="M549.8433,-144.5504C549.8433,-157.0165 549.8433,-173.0645 549.8433,-186.9786"/>
<polygon fill="#000000" stroke="#000000" points="546.3434,-187.1081 549.8433,-197.1081 553.3434,-187.1082 546.3434,-187.1081"/>
</g>
<!-- GO:0000166 -->
<g id="node12" class="node">
<title>GO:0000166</title>
<polygon fill="#ffffff" stroke="#000000" points="618.9408,-358.2019 498.7458,-358.2019 498.7458,-316.9981 618.9408,-316.9981 618.9408,-358.2019"/>
<text text-anchor="middle" x="558.8433" y="-341.8" font-family="Times,serif" font-size="14.00" fill="#000000">GO:0000166</text>
<text text-anchor="middle" x="558.8433" y="-325" font-family="Times,serif" font-size="14.00" fill="#000000">nucleotide binding</text>
</g>
<!-- GO:0017076&#45;&gt;GO:0000166 -->
<g id="edge12" class="edge">
<title>GO:0017076&#45;&gt;GO:0000166</title>
<path fill="none" stroke="#000000" d="M551.411,-238.8327C552.8155,-257.4973 554.8951,-285.1322 556.4976,-306.4278"/>
<polygon fill="#000000" stroke="#000000" points="553.0228,-306.8956 557.2634,-316.6047 560.003,-306.3702 553.0228,-306.8956"/>
</g>
<!-- GO:0032553&#45;&gt;GO:0000166 -->
<g id="edge14" class="edge">
<title>GO:0032553&#45;&gt;GO:0000166</title>
<path fill="none" stroke="#000000" d="M691.7992,-238.8327C664.9857,-258.7514 624.4194,-288.8864 595.1493,-310.6298"/>
<polygon fill="#000000" stroke="#000000" points="592.7759,-308.0328 586.8356,-316.8057 596.9502,-313.652 592.7759,-308.0328"/>
</g>
<!-- GO:0097367 -->
<g id="node13" class="node">
<title>GO:0097367</title>
<polygon fill="#ffffff" stroke="#000000" points="798.8904,-581.0014 650.7962,-581.0014 650.7962,-522.1986 798.8904,-522.1986 798.8904,-581.0014"/>
<text text-anchor="middle" x="724.8433" y="-564.2" font-family="Times,serif" font-size="14.00" fill="#000000">GO:0097367</text>
<text text-anchor="middle" x="724.8433" y="-547.4" font-family="Times,serif" font-size="14.00" fill="#000000">carbohydrate derivative</text>
<text text-anchor="middle" x="724.8433" y="-530.6" font-family="Times,serif" font-size="14.00" fill="#000000">binding</text>
</g>
<!-- GO:0032553&#45;&gt;GO:0097367 -->
<g id="edge13" class="edge">
<title>GO:0032553&#45;&gt;GO:0097367</title>
<path fill="none" stroke="#000000" d="M720.1523,-238.6164C720.9664,-292.9343 723.1809,-440.6838 724.25,-512.0168"/>
<polygon fill="#000000" stroke="#000000" points="720.7557,-512.4289 724.4053,-522.3753 727.7549,-512.3239 720.7557,-512.4289"/>
</g>
<!-- GO:0000166&#45;&gt;GO:1901265 -->
<g id="edge16" class="edge">
<title>GO:0000166&#45;&gt;GO:1901265</title>
<path fill="none" stroke="#000000" d="M537.5017,-358.2064C524.4213,-369.7543 506.787,-383.5012 488.8433,-392 423.7532,-422.8291 400.4511,-409.509 330.8433,-428 324.9321,-429.5703 318.8366,-431.2591 312.7185,-433.0044"/>
<polygon fill="#000000" stroke="#000000" points="311.7425,-429.6431 303.1092,-435.7845 313.6879,-436.3674 311.7425,-429.6431"/>
</g>
<!-- GO:0036094 -->
<g id="node14" class="node">
<title>GO:0036094</title>
<polygon fill="#ffffff" stroke="#000000" points="632.7717,-572.2019 484.9149,-572.2019 484.9149,-530.9981 632.7717,-530.9981 632.7717,-572.2019"/>
<text text-anchor="middle" x="558.8433" y="-555.8" font-family="Times,serif" font-size="14.00" fill="#000000">GO:0036094</text>
<text text-anchor="middle" x="558.8433" y="-539" font-family="Times,serif" font-size="14.00" fill="#000000">small molecule binding</text>
</g>
<!-- GO:0000166&#45;&gt;GO:0036094 -->
<g id="edge15" class="edge">
<title>GO:0000166&#45;&gt;GO:0036094</title>
<path fill="none" stroke="#000000" d="M558.8433,-358.5089C558.8433,-396.4015 558.8433,-476.581 558.8433,-520.769"/>
<polygon fill="#000000" stroke="#000000" points="555.3434,-520.9213 558.8433,-530.9213 562.3434,-520.9214 555.3434,-520.9213"/>
</g>
<!-- GO:0097367&#45;&gt;GO:0005488 -->
<g id="edge17" class="edge">
<title>GO:0097367&#45;&gt;GO:0005488</title>
<path fill="none" stroke="#000000" d="M668.1798,-580.9558C648.5659,-591.1172 626.763,-602.4127 607.8196,-612.2267"/>
<polygon fill="#000000" stroke="#000000" points="606.0411,-609.2063 598.7719,-616.9141 609.2611,-615.4217 606.0411,-609.2063"/>
</g>
<!-- GO:0036094&#45;&gt;GO:0005488 -->
<g id="edge18" class="edge">
<title>GO:0036094&#45;&gt;GO:0005488</title>
<path fill="none" stroke="#000000" d="M558.8433,-572.4182C558.8433,-582.7705 558.8433,-595.4848 558.8433,-606.9271"/>
<polygon fill="#000000" stroke="#000000" points="555.3434,-606.9735 558.8433,-616.9735 562.3434,-606.9735 555.3434,-606.9735"/>
</g>
<!-- GO:0016787 -->
<g id="node15" class="node">
<title>GO:0016787</title>
<polygon fill="#00ff00" stroke="#000000" points="934.7599,-572.2019 818.9267,-572.2019 818.9267,-530.9981 934.7599,-530.9981 934.7599,-572.2019"/>
<text text-anchor="middle" x="876.8433" y="-555.8" font-family="Times,serif" font-size="14.00" fill="#000000">GO:0016787</text>
<text text-anchor="middle" x="876.8433" y="-539" font-family="Times,serif" font-size="14.00" fill="#000000">hydrolase activity</text>
</g>
<!-- GO:0003824 -->
<g id="node16" class="node">
<title>GO:0003824</title>
<polygon fill="#00ff00" stroke="#000000" points="830.2557,-658.2019 721.4309,-658.2019 721.4309,-616.9981 830.2557,-616.9981 830.2557,-658.2019"/>
<text text-anchor="middle" x="775.8433" y="-641.8" font-family="Times,serif" font-size="14.00" fill="#000000">GO:0003824</text>
<text text-anchor="middle" x="775.8433" y="-625" font-family="Times,serif" font-size="14.00" fill="#000000">catalytic activity</text>
</g>
<!-- GO:0016787&#45;&gt;GO:0003824 -->
<g id="edge19" class="edge">
<title>GO:0016787&#45;&gt;GO:0003824</title>
<path fill="none" stroke="#000000" d="M852.394,-572.4182C838.9955,-583.8268 822.2279,-598.1042 807.8036,-610.3863"/>
<polygon fill="#000000" stroke="#000000" points="805.4122,-607.8256 800.0674,-616.9735 809.9503,-613.1553 805.4122,-607.8256"/>
</g>
<!-- GO:0003824&#45;&gt;GO:0003674 -->
<g id="edge20" class="edge">
<title>GO:0003824&#45;&gt;GO:0003674</title>
<path fill="none" stroke="#000000" d="M733.2342,-658.3954C713.2819,-668.1331 689.3461,-679.815 668.3828,-690.0461"/>
<polygon fill="#000000" stroke="#000000" points="666.7458,-686.9504 659.2941,-694.4819 669.816,-693.2412 666.7458,-686.9504"/>
</g>
<!-- GO:0017111 -->
<g id="node17" class="node">
<title>GO:0017111</title>
<polygon fill="#00ffff" stroke="#000000" points="967.7394,-153.0014 805.9472,-153.0014 805.9472,-94.1986 967.7394,-94.1986 967.7394,-153.0014"/>
<text text-anchor="middle" x="886.8433" y="-136.2" font-family="Times,serif" font-size="14.00" fill="#000000">GO:0017111</text>
<text text-anchor="middle" x="886.8433" y="-119.4" font-family="Times,serif" font-size="14.00" fill="#000000">nucleoside&#45;triphosphatase</text>
<text text-anchor="middle" x="886.8433" y="-102.6" font-family="Times,serif" font-size="14.00" fill="#000000">activity</text>
</g>
<!-- GO:0016462 -->
<g id="node18" class="node">
<title>GO:0016462</title>
<polygon fill="#ffffff" stroke="#000000" points="964.4197,-238.6019 809.2669,-238.6019 809.2669,-197.3981 964.4197,-197.3981 964.4197,-238.6019"/>
<text text-anchor="middle" x="886.8433" y="-222.2" font-family="Times,serif" font-size="14.00" fill="#000000">GO:0016462</text>
<text text-anchor="middle" x="886.8433" y="-205.4" font-family="Times,serif" font-size="14.00" fill="#000000">pyrophosphatase activity</text>
</g>
<!-- GO:0017111&#45;&gt;GO:0016462 -->
<g id="edge21" class="edge">
<title>GO:0017111&#45;&gt;GO:0016462</title>
<path fill="none" stroke="#000000" d="M886.8433,-152.9513C886.8433,-163.8614 886.8433,-176.2637 886.8433,-187.292"/>
<polygon fill="#000000" stroke="#000000" points="883.3434,-187.3509 886.8433,-197.351 890.3434,-187.351 883.3434,-187.3509"/>
</g>
<!-- GO:0016818 -->
<g id="node19" class="node">
<title>GO:0016818</title>
<polygon fill="#ffffff" stroke="#000000" points="958.155,-391.9002 813.5316,-391.9002 813.5316,-283.2998 958.155,-283.2998 958.155,-391.9002"/>
<text text-anchor="middle" x="885.8433" y="-375.4" font-family="Times,serif" font-size="14.00" fill="#000000">GO:0016818</text>
<text text-anchor="middle" x="885.8433" y="-358.6" font-family="Times,serif" font-size="14.00" fill="#000000">hydrolase activity,</text>
<text text-anchor="middle" x="885.8433" y="-341.8" font-family="Times,serif" font-size="14.00" fill="#000000">acting on acid</text>
<text text-anchor="middle" x="885.8433" y="-325" font-family="Times,serif" font-size="14.00" fill="#000000">anhydrides, in</text>
<text text-anchor="middle" x="885.8433" y="-308.2" font-family="Times,serif" font-size="14.00" fill="#000000">phosphorus&#45;containing</text>
<text text-anchor="middle" x="885.8433" y="-291.4" font-family="Times,serif" font-size="14.00" fill="#000000">anhydrides</text>
</g>
<!-- GO:0016462&#45;&gt;GO:0016818 -->
<g id="edge22" class="edge">
<title>GO:0016462&#45;&gt;GO:0016818</title>
<path fill="none" stroke="#000000" d="M886.6691,-238.8327C886.5887,-248.4534 886.4883,-260.4573 886.3855,-272.748"/>
<polygon fill="#000000" stroke="#000000" points="882.8829,-273.0645 886.299,-283.0935 889.8826,-273.1231 882.8829,-273.0645"/>
</g>
<!-- GO:0016817 -->
<g id="node20" class="node">
<title>GO:0016817</title>
<polygon fill="#ffffff" stroke="#000000" points="957.7992,-486.6014 797.8874,-486.6014 797.8874,-427.7986 957.7992,-427.7986 957.7992,-486.6014"/>
<text text-anchor="middle" x="877.8433" y="-469.8" font-family="Times,serif" font-size="14.00" fill="#000000">GO:0016817</text>
<text text-anchor="middle" x="877.8433" y="-453" font-family="Times,serif" font-size="14.00" fill="#000000">hydrolase activity,</text>
<text text-anchor="middle" x="877.8433" y="-436.2" font-family="Times,serif" font-size="14.00" fill="#000000">acting on acid anhydrides</text>
</g>
<!-- GO:0016818&#45;&gt;GO:0016817 -->
<g id="edge23" class="edge">
<title>GO:0016818&#45;&gt;GO:0016817</title>
<path fill="none" stroke="#000000" d="M882.1945,-392.1502C881.615,-400.8138 881.0255,-409.6255 880.4754,-417.8504"/>
<polygon fill="#000000" stroke="#000000" points="876.9785,-417.6882 879.8032,-427.8995 883.9629,-418.1554 876.9785,-417.6882"/>
</g>
<!-- GO:0016817&#45;&gt;GO:0016787 -->
<g id="edge24" class="edge">
<title>GO:0016817&#45;&gt;GO:0016787</title>
<path fill="none" stroke="#000000" d="M877.5324,-486.5513C877.4168,-497.4614 877.2854,-509.8637 877.1686,-520.892"/>
<polygon fill="#000000" stroke="#000000" points="873.6683,-520.9144 877.062,-530.951 880.6679,-520.9887 873.6683,-520.9144"/>
</g>
<!-- GO:0032550 -->
<g id="node21" class="node">
<title>GO:0032550</title>
<polygon fill="#00ffff" stroke="#000000" points="384.5303,-247.4014 247.1563,-247.4014 247.1563,-188.5986 384.5303,-188.5986 384.5303,-247.4014"/>
<text text-anchor="middle" x="315.8433" y="-230.6" font-family="Times,serif" font-size="14.00" fill="#000000">GO:0032550</text>
<text text-anchor="middle" x="315.8433" y="-213.8" font-family="Times,serif" font-size="14.00" fill="#000000">purine ribonucleoside</text>
<text text-anchor="middle" x="315.8433" y="-197" font-family="Times,serif" font-size="14.00" fill="#000000">binding</text>
</g>
<!-- GO:0001883 -->
<g id="node22" class="node">
<title>GO:0001883</title>
<polygon fill="#ffffff" stroke="#000000" points="317.7604,-358.2019 155.9262,-358.2019 155.9262,-316.9981 317.7604,-316.9981 317.7604,-358.2019"/>
<text text-anchor="middle" x="236.8433" y="-341.8" font-family="Times,serif" font-size="14.00" fill="#000000">GO:0001883</text>
<text text-anchor="middle" x="236.8433" y="-325" font-family="Times,serif" font-size="14.00" fill="#000000">purine nucleoside binding</text>
</g>
<!-- GO:0032550&#45;&gt;GO:0001883 -->
<g id="edge25" class="edge">
<title>GO:0032550&#45;&gt;GO:0001883</title>
<path fill="none" stroke="#000000" d="M296.5177,-247.2575C284.2143,-265.8839 268.3412,-289.9146 256.0591,-308.5088"/>
<polygon fill="#000000" stroke="#000000" points="253.1135,-306.6179 250.5223,-316.891 258.9543,-310.476 253.1135,-306.6179"/>
</g>
<!-- GO:0032549 -->
<g id="node23" class="node">
<title>GO:0032549</title>
<polygon fill="#ffffff" stroke="#000000" points="480.0456,-358.2019 335.641,-358.2019 335.641,-316.9981 480.0456,-316.9981 480.0456,-358.2019"/>
<text text-anchor="middle" x="407.8433" y="-341.8" font-family="Times,serif" font-size="14.00" fill="#000000">GO:0032549</text>
<text text-anchor="middle" x="407.8433" y="-325" font-family="Times,serif" font-size="14.00" fill="#000000">ribonucleoside binding</text>
</g>
<!-- GO:0032550&#45;&gt;GO:0032549 -->
<g id="edge26" class="edge">
<title>GO:0032550&#45;&gt;GO:0032549</title>
<path fill="none" stroke="#000000" d="M338.349,-247.2575C352.7419,-265.9682 371.3296,-290.1321 385.6593,-308.7609"/>
<polygon fill="#000000" stroke="#000000" points="383.042,-311.0988 391.9133,-316.891 388.5904,-306.8308 383.042,-311.0988"/>
</g>
<!-- GO:0001882 -->
<g id="node24" class="node">
<title>GO:0001882</title>
<polygon fill="#ffffff" stroke="#000000" points="461.9942,-477.8019 339.6924,-477.8019 339.6924,-436.5981 461.9942,-436.5981 461.9942,-477.8019"/>
<text text-anchor="middle" x="400.8433" y="-461.4" font-family="Times,serif" font-size="14.00" fill="#000000">GO:0001882</text>
<text text-anchor="middle" x="400.8433" y="-444.6" font-family="Times,serif" font-size="14.00" fill="#000000">nucleoside binding</text>
</g>
<!-- GO:0001883&#45;&gt;GO:0001882 -->
<g id="edge27" class="edge">
<title>GO:0001883&#45;&gt;GO:0001882</title>
<path fill="none" stroke="#000000" d="M265.4099,-358.4327C292.8403,-378.4369 334.4003,-408.7452 364.2441,-430.5093"/>
<polygon fill="#000000" stroke="#000000" points="362.1874,-433.3413 372.3294,-436.4057 366.312,-427.6855 362.1874,-433.3413"/>
</g>
<!-- GO:0032549&#45;&gt;GO:0001882 -->
<g id="edge28" class="edge">
<title>GO:0032549&#45;&gt;GO:0001882</title>
<path fill="none" stroke="#000000" d="M406.624,-358.4327C405.5316,-377.0973 403.9142,-404.7322 402.6678,-426.0278"/>
<polygon fill="#000000" stroke="#000000" points="399.1625,-426.0173 402.0721,-436.2047 406.1505,-426.4263 399.1625,-426.0173"/>
</g>
<!-- GO:0001882&#45;&gt;GO:0097159 -->
<g id="edge32" class="edge">
<title>GO:0001882&#45;&gt;GO:0097159</title>
<path fill="none" stroke="#000000" d="M361.9999,-477.9165C340.248,-489.5175 312.5788,-504.2744 287.7241,-517.5302"/>
<polygon fill="#000000" stroke="#000000" points="285.8871,-514.5433 278.7106,-522.3374 289.1812,-520.7197 285.8871,-514.5433"/>
</g>
<!-- GO:0001882&#45;&gt;GO:1901363 -->
<g id="edge31" class="edge">
<title>GO:0001882&#45;&gt;GO:1901363</title>
<path fill="none" stroke="#000000" d="M399.2898,-478.1504C398.5483,-488.1492 397.636,-500.4525 396.7715,-512.1106"/>
<polygon fill="#000000" stroke="#000000" points="393.2788,-511.884 396.0296,-522.1155 400.2597,-512.4018 393.2788,-511.884"/>
</g>
<!-- GO:0001882&#45;&gt;GO:0097367 -->
<g id="edge30" class="edge">
<title>GO:0001882&#45;&gt;GO:0097367</title>
<path fill="none" stroke="#000000" d="M462.1177,-472.4403C508.7497,-484.3443 574.6725,-501.8258 640.9442,-522.1924"/>
<polygon fill="#000000" stroke="#000000" points="640.1345,-525.6056 650.7223,-525.218 642.2037,-518.9184 640.1345,-525.6056"/>
</g>
<!-- GO:0001882&#45;&gt;GO:0036094 -->
<g id="edge29" class="edge">
<title>GO:0001882&#45;&gt;GO:0036094</title>
<path fill="none" stroke="#000000" d="M435.5171,-477.9165C459.0821,-491.9959 490.4273,-510.7236 515.6192,-525.775"/>
<polygon fill="#000000" stroke="#000000" points="513.8707,-528.8074 524.2504,-530.9318 517.4611,-522.7982 513.8707,-528.8074"/>
</g>
</g>
</svg>
