<?xml version="1.0" encoding="UTF-8" standalone="no"?>
<!DOCTYPE svg PUBLIC "-//W3C//DTD SVG 1.1//EN"
 "http://www.w3.org/Graphics/SVG/1.1/DTD/svg11.dtd">
<!-- Generated by graphviz version 2.40.1 (20161225.0304)
 -->
<!-- Title: G Pages: 1 -->
<svg width="1143pt" height="822pt"
 viewBox="0.00 0.00 1142.63 821.60" xmlns="http://www.w3.org/2000/svg" xmlns:xlink="http://www.w3.org/1999/xlink">
<g id="graph0" class="graph" transform="scale(1 1) rotate(0) translate(4 817.6)">
<title>G</title>
<polygon fill="#ffffff" stroke="transparent" points="-4,4 -4,-817.6 1138.6277,-817.6 1138.6277,4 -4,4"/>
<!-- GO:0019538 -->
<g id="node1" class="node">
<title>GO:0019538</title>
<polygon fill="#00ffff" stroke="#000000" points="159.7625,-444.2019 .0791,-444.2019 .0791,-402.9981 159.7625,-402.9981 159.7625,-444.2019"/>
<text text-anchor="middle" x="79.9208" y="-427.8" font-family="Times,serif" font-size="14.00" fill="#000000">GO:0019538</text>
<text text-anchor="middle" x="79.9208" y="-411" font-family="Times,serif" font-size="14.00" fill="#000000">protein metabolic process</text>
</g>
<!-- GO:0044238 -->
<g id="node2" class="node">
<title>GO:0044238</title>
<polygon fill="#00ff00" stroke="#000000" points="191.9238,-538.6019 27.9178,-538.6019 27.9178,-497.3981 191.9238,-497.3981 191.9238,-538.6019"/>
<text text-anchor="middle" x="109.9208" y="-522.2" font-family="Times,serif" font-size="14.00" fill="#000000">GO:0044238</text>
<text text-anchor="middle" x="109.9208" y="-505.4" font-family="Times,serif" font-size="14.00" fill="#000000">primary metabolic process</text>
</g>
<!-- GO:0019538&#45;&gt;GO:0044238 -->
<g id="edge1" class="edge">
<title>GO:0019538&#45;&gt;GO:0044238</title>
<path fill="none" stroke="#000000" d="M86.5788,-444.5504C90.5793,-457.1387 95.7406,-473.3795 100.1922,-487.3872"/>
<polygon fill="#000000" stroke="#000000" points="96.9171,-488.6379 103.2814,-497.1081 103.5883,-486.5178 96.9171,-488.6379"/>
</g>
<!-- GO:0043170 -->
<g id="node3" class="node">
<title>GO:0043170</title>
<polygon fill="#ffffff" stroke="#000000" points="386.423,-547.4014 225.4186,-547.4014 225.4186,-488.5986 386.423,-488.5986 386.423,-547.4014"/>
<text text-anchor="middle" x="305.9208" y="-530.6" font-family="Times,serif" font-size="14.00" fill="#000000">GO:0043170</text>
<text text-anchor="middle" x="305.9208" y="-513.8" font-family="Times,serif" font-size="14.00" fill="#000000">macromolecule metabolic</text>
<text text-anchor="middle" x="305.9208" y="-497" font-family="Times,serif" font-size="14.00" fill="#000000">process</text>
</g>
<!-- GO:0019538&#45;&gt;GO:0043170 -->
<g id="edge2" class="edge">
<title>GO:0019538&#45;&gt;GO:0043170</title>
<path fill="none" stroke="#000000" d="M129.5175,-444.3165C157.9002,-456.1719 194.1733,-471.3232 226.4381,-484.8001"/>
<polygon fill="#000000" stroke="#000000" points="225.2878,-488.1127 235.8642,-488.7374 227.9858,-481.6535 225.2878,-488.1127"/>
</g>
<!-- GO:0008152 -->
<g id="node4" class="node">
<title>GO:0008152</title>
<polygon fill="#ffffff" stroke="#000000" points="520.1064,-727.4019 403.7352,-727.4019 403.7352,-686.1981 520.1064,-686.1981 520.1064,-727.4019"/>
<text text-anchor="middle" x="461.9208" y="-711" font-family="Times,serif" font-size="14.00" fill="#000000">GO:0008152</text>
<text text-anchor="middle" x="461.9208" y="-694.2" font-family="Times,serif" font-size="14.00" fill="#000000">metabolic process</text>
</g>
<!-- GO:0044238&#45;&gt;GO:0008152 -->
<g id="edge3" class="edge">
<title>GO:0044238&#45;&gt;GO:0008152</title>
<path fill="none" stroke="#000000" d="M130.4126,-538.7176C158.2027,-565.7765 210.4232,-613.0525 262.9208,-641.6 303.9947,-663.9354 354.0204,-680.284 393.6388,-691.0243"/>
<polygon fill="#000000" stroke="#000000" points="392.912,-694.4525 403.4752,-693.6343 394.7073,-687.6866 392.912,-694.4525"/>
</g>
<!-- GO:0071704 -->
<g id="node5" class="node">
<title>GO:0071704</title>
<polygon fill="#00ff00" stroke="#000000" points="388.1064,-641.8014 271.7352,-641.8014 271.7352,-582.9986 388.1064,-582.9986 388.1064,-641.8014"/>
<text text-anchor="middle" x="329.9208" y="-625" font-family="Times,serif" font-size="14.00" fill="#000000">GO:0071704</text>
<text text-anchor="middle" x="329.9208" y="-608.2" font-family="Times,serif" font-size="14.00" fill="#000000">organic substance</text>
<text text-anchor="middle" x="329.9208" y="-591.4" font-family="Times,serif" font-size="14.00" fill="#000000">metabolic process</text>
</g>
<!-- GO:0043170&#45;&gt;GO:0071704 -->
<g id="edge4" class="edge">
<title>GO:0043170&#45;&gt;GO:0071704</title>
<path fill="none" stroke="#000000" d="M313.383,-547.3513C315.4599,-555.5206 317.7496,-564.5264 319.946,-573.1657"/>
<polygon fill="#000000" stroke="#000000" points="316.6071,-574.2376 322.4632,-583.0669 323.3913,-572.5128 316.6071,-574.2376"/>
</g>
<!-- GO:0008150 -->
<g id="node6" class="node">
<title>GO:0008150</title>
<polygon fill="#ffffff" stroke="#000000" points="803.3914,-813.4019 682.4502,-813.4019 682.4502,-772.1981 803.3914,-772.1981 803.3914,-813.4019"/>
<text text-anchor="middle" x="742.9208" y="-797" font-family="Times,serif" font-size="14.00" fill="#000000">GO:0008150</text>
<text text-anchor="middle" x="742.9208" y="-780.2" font-family="Times,serif" font-size="14.00" fill="#000000">biological_process</text>
</g>
<!-- GO:0008152&#45;&gt;GO:0008150 -->
<g id="edge5" class="edge">
<title>GO:0008152&#45;&gt;GO:0008150</title>
<path fill="none" stroke="#000000" d="M512.2077,-727.4832C520.0928,-730.4823 528.1905,-733.4226 535.9208,-736 580.828,-750.9726 632.1353,-765.0713 672.4347,-775.4769"/>
<polygon fill="#000000" stroke="#000000" points="671.6126,-778.8793 682.1687,-777.9739 673.352,-772.0988 671.6126,-778.8793"/>
</g>
<!-- GO:0071704&#45;&gt;GO:0008152 -->
<g id="edge6" class="edge">
<title>GO:0071704&#45;&gt;GO:0008152</title>
<path fill="none" stroke="#000000" d="M370.9629,-641.7513C388.1059,-654.0112 407.8835,-668.1551 424.6091,-680.1165"/>
<polygon fill="#000000" stroke="#000000" points="422.8772,-683.1808 433.0472,-686.151 426.9491,-677.487 422.8772,-683.1808"/>
</g>
<!-- GO:0050789 -->
<g id="node7" class="node">
<title>GO:0050789</title>
<polygon fill="#ffff00" stroke="#000000" points="1134.8352,-736.2014 987.0064,-736.2014 987.0064,-677.3986 1134.8352,-677.3986 1134.8352,-736.2014"/>
<text text-anchor="middle" x="1060.9208" y="-719.4" font-family="Times,serif" font-size="14.00" fill="#000000">GO:0050789</text>
<text text-anchor="middle" x="1060.9208" y="-702.6" font-family="Times,serif" font-size="14.00" fill="#000000">regulation of biological</text>
<text text-anchor="middle" x="1060.9208" y="-685.8" font-family="Times,serif" font-size="14.00" fill="#000000">process</text>
</g>
<!-- GO:0050789&#45;&gt;GO:0008150 -->
<g id="edge7" class="edge">
<title>GO:0050789&#45;&gt;GO:0008150</title>
<path fill="none" stroke="#000000" d="M986.8304,-733.2829C983.8287,-734.2234 980.8503,-735.1331 977.9208,-736 923.2487,-752.1791 860.4312,-767.1807 813.5057,-777.6991"/>
<polygon fill="#000000" stroke="#000000" points="812.7417,-774.2834 803.7422,-779.8743 814.264,-781.1159 812.7417,-774.2834"/>
</g>
<!-- GO:0044267 -->
<g id="node8" class="node">
<title>GO:0044267</title>
<polygon fill="#00ffff" stroke="#000000" points="423.1064,-358.6014 306.7352,-358.6014 306.7352,-299.7986 423.1064,-299.7986 423.1064,-358.6014"/>
<text text-anchor="middle" x="364.9208" y="-341.8" font-family="Times,serif" font-size="14.00" fill="#000000">GO:0044267</text>
<text text-anchor="middle" x="364.9208" y="-325" font-family="Times,serif" font-size="14.00" fill="#000000">cellular protein</text>
<text text-anchor="middle" x="364.9208" y="-308.2" font-family="Times,serif" font-size="14.00" fill="#000000">metabolic process</text>
</g>
<!-- GO:0044267&#45;&gt;GO:0019538 -->
<g id="edge8" class="edge">
<title>GO:0044267&#45;&gt;GO:0019538</title>
<path fill="none" stroke="#000000" d="M306.509,-354.8608C303.2812,-356.0977 300.0702,-357.2864 296.9208,-358.4 241.2054,-378.1013 225.4538,-377.1847 168.9208,-394.4 163.2403,-396.1298 157.3695,-397.9603 151.4783,-399.8274"/>
<polygon fill="#000000" stroke="#000000" points="150.0341,-396.6145 141.5745,-402.9931 152.1654,-403.2822 150.0341,-396.6145"/>
</g>
<!-- GO:0044260 -->
<g id="node9" class="node">
<title>GO:0044260</title>
<polygon fill="#00ff00" stroke="#000000" points="445.6932,-453.0014 298.1484,-453.0014 298.1484,-394.1986 445.6932,-394.1986 445.6932,-453.0014"/>
<text text-anchor="middle" x="371.9208" y="-436.2" font-family="Times,serif" font-size="14.00" fill="#000000">GO:0044260</text>
<text text-anchor="middle" x="371.9208" y="-419.4" font-family="Times,serif" font-size="14.00" fill="#000000">cellular macromolecule</text>
<text text-anchor="middle" x="371.9208" y="-402.6" font-family="Times,serif" font-size="14.00" fill="#000000">metabolic process</text>
</g>
<!-- GO:0044267&#45;&gt;GO:0044260 -->
<g id="edge9" class="edge">
<title>GO:0044267&#45;&gt;GO:0044260</title>
<path fill="none" stroke="#000000" d="M367.0973,-358.5513C367.6965,-366.6318 368.3563,-375.5308 368.9906,-384.0838"/>
<polygon fill="#000000" stroke="#000000" points="365.5157,-384.5531 369.7457,-394.2669 372.4965,-384.0354 365.5157,-384.5531"/>
</g>
<!-- GO:0044260&#45;&gt;GO:0043170 -->
<g id="edge11" class="edge">
<title>GO:0044260&#45;&gt;GO:0043170</title>
<path fill="none" stroke="#000000" d="M351.3998,-452.9513C345.3157,-461.6534 338.5679,-471.3047 332.1733,-480.4509"/>
<polygon fill="#000000" stroke="#000000" points="329.2907,-478.4658 326.4291,-488.6669 335.0276,-482.4768 329.2907,-478.4658"/>
</g>
<!-- GO:0044237 -->
<g id="node10" class="node">
<title>GO:0044237</title>
<polygon fill="#00ff00" stroke="#000000" points="652.1036,-641.8014 535.738,-641.8014 535.738,-582.9986 652.1036,-582.9986 652.1036,-641.8014"/>
<text text-anchor="middle" x="593.9208" y="-625" font-family="Times,serif" font-size="14.00" fill="#000000">GO:0044237</text>
<text text-anchor="middle" x="593.9208" y="-608.2" font-family="Times,serif" font-size="14.00" fill="#000000">cellular metabolic</text>
<text text-anchor="middle" x="593.9208" y="-591.4" font-family="Times,serif" font-size="14.00" fill="#000000">process</text>
</g>
<!-- GO:0044260&#45;&gt;GO:0044237 -->
<g id="edge10" class="edge">
<title>GO:0044260&#45;&gt;GO:0044237</title>
<path fill="none" stroke="#000000" d="M446.07,-451.7681C483.3085,-466.3849 522.0017,-482.4806 528.9208,-488.8 542.4674,-501.1726 562.7145,-542.1145 577.005,-573.522"/>
<polygon fill="#000000" stroke="#000000" points="573.9391,-575.2381 581.2347,-582.9208 580.3225,-572.3653 573.9391,-575.2381"/>
</g>
<!-- GO:0044237&#45;&gt;GO:0008152 -->
<g id="edge13" class="edge">
<title>GO:0044237&#45;&gt;GO:0008152</title>
<path fill="none" stroke="#000000" d="M552.8787,-641.7513C535.7357,-654.0112 515.9581,-668.1551 499.2325,-680.1165"/>
<polygon fill="#000000" stroke="#000000" points="496.8925,-677.487 490.7944,-686.151 500.9644,-683.1808 496.8925,-677.487"/>
</g>
<!-- GO:0009987 -->
<g id="node11" class="node">
<title>GO:0009987</title>
<polygon fill="#ffa500" stroke="#000000" points="648.877,-727.4019 544.9646,-727.4019 544.9646,-686.1981 648.877,-686.1981 648.877,-727.4019"/>
<text text-anchor="middle" x="596.9208" y="-711" font-family="Times,serif" font-size="14.00" fill="#000000">GO:0009987</text>
<text text-anchor="middle" x="596.9208" y="-694.2" font-family="Times,serif" font-size="14.00" fill="#000000">cellular process</text>
</g>
<!-- GO:0044237&#45;&gt;GO:0009987 -->
<g id="edge12" class="edge">
<title>GO:0044237&#45;&gt;GO:0009987</title>
<path fill="none" stroke="#000000" d="M594.8536,-641.7513C595.2003,-652.6614 595.5944,-665.0637 595.9449,-676.092"/>
<polygon fill="#000000" stroke="#000000" points="592.4486,-676.2672 596.2646,-686.151 599.4451,-676.0448 592.4486,-676.2672"/>
</g>
<!-- GO:0009987&#45;&gt;GO:0008150 -->
<g id="edge14" class="edge">
<title>GO:0009987&#45;&gt;GO:0008150</title>
<path fill="none" stroke="#000000" d="M632.2633,-727.6182C652.3488,-739.4494 677.6719,-754.3657 699.0232,-766.9425"/>
<polygon fill="#000000" stroke="#000000" points="697.511,-770.1138 707.9037,-772.1735 701.0638,-764.0824 697.511,-770.1138"/>
</g>
<!-- GO:0065007 -->
<g id="node12" class="node">
<title>GO:0065007</title>
<polygon fill="#ffff00" stroke="#000000" points="969.1742,-727.4019 836.6674,-727.4019 836.6674,-686.1981 969.1742,-686.1981 969.1742,-727.4019"/>
<text text-anchor="middle" x="902.9208" y="-711" font-family="Times,serif" font-size="14.00" fill="#000000">GO:0065007</text>
<text text-anchor="middle" x="902.9208" y="-694.2" font-family="Times,serif" font-size="14.00" fill="#000000">biological regulation</text>
</g>
<!-- GO:0065007&#45;&gt;GO:0008150 -->
<g id="edge15" class="edge">
<title>GO:0065007&#45;&gt;GO:0008150</title>
<path fill="none" stroke="#000000" d="M864.1893,-727.6182C841.9812,-739.555 813.9304,-754.6323 790.402,-767.2788"/>
<polygon fill="#000000" stroke="#000000" points="788.4468,-764.3561 781.2957,-772.1735 791.761,-770.5219 788.4468,-764.3561"/>
</g>
<!-- GO:0050794 -->
<g id="node13" class="node">
<title>GO:0050794</title>
<polygon fill="#ffff00" stroke="#000000" points="1052.8198,-641.8014 919.0218,-641.8014 919.0218,-582.9986 1052.8198,-582.9986 1052.8198,-641.8014"/>
<text text-anchor="middle" x="985.9208" y="-625" font-family="Times,serif" font-size="14.00" fill="#000000">GO:0050794</text>
<text text-anchor="middle" x="985.9208" y="-608.2" font-family="Times,serif" font-size="14.00" fill="#000000">regulation of cellular</text>
<text text-anchor="middle" x="985.9208" y="-591.4" font-family="Times,serif" font-size="14.00" fill="#000000">process</text>
</g>
<!-- GO:0050794&#45;&gt;GO:0050789 -->
<g id="edge17" class="edge">
<title>GO:0050794&#45;&gt;GO:0050789</title>
<path fill="none" stroke="#000000" d="M1009.2401,-641.7513C1016.2244,-650.5422 1023.9783,-660.3018 1031.3107,-669.5308"/>
<polygon fill="#000000" stroke="#000000" points="1028.6548,-671.8144 1037.6159,-677.4669 1034.1356,-667.4599 1028.6548,-671.8144"/>
</g>
<!-- GO:0050794&#45;&gt;GO:0065007 -->
<g id="edge16" class="edge">
<title>GO:0050794&#45;&gt;GO:0065007</title>
<path fill="none" stroke="#000000" d="M960.1141,-641.7513C949.8292,-653.4488 938.0362,-666.8615 927.841,-678.457"/>
<polygon fill="#000000" stroke="#000000" points="925.0508,-676.3299 921.0762,-686.151 930.3078,-680.9521 925.0508,-676.3299"/>
</g>
<!-- GO:0006511 -->
<g id="node14" class="node">
<title>GO:0006511</title>
<polygon fill="#ff00ff" stroke="#000000" points="377.5865,-58.6014 222.2551,-58.6014 222.2551,.2014 377.5865,.2014 377.5865,-58.6014"/>
<text text-anchor="middle" x="299.9208" y="-41.8" font-family="Times,serif" font-size="14.00" fill="#000000">GO:0006511</text>
<text text-anchor="middle" x="299.9208" y="-25" font-family="Times,serif" font-size="14.00" fill="#000000">ubiquitin&#45;dependent</text>
<text text-anchor="middle" x="299.9208" y="-8.2" font-family="Times,serif" font-size="14.00" fill="#000000">protein catabolic process</text>
</g>
<!-- GO:0019941 -->
<g id="node15" class="node">
<title>GO:0019941</title>
<polygon fill="#ffffff" stroke="#000000" points="377.5865,-153.0014 222.2551,-153.0014 222.2551,-94.1986 377.5865,-94.1986 377.5865,-153.0014"/>
<text text-anchor="middle" x="299.9208" y="-136.2" font-family="Times,serif" font-size="14.00" fill="#000000">GO:0019941</text>
<text text-anchor="middle" x="299.9208" y="-119.4" font-family="Times,serif" font-size="14.00" fill="#000000">modification&#45;dependent</text>
<text text-anchor="middle" x="299.9208" y="-102.6" font-family="Times,serif" font-size="14.00" fill="#000000">protein catabolic process</text>
</g>
<!-- GO:0006511&#45;&gt;GO:0019941 -->
<g id="edge18" class="edge">
<title>GO:0006511&#45;&gt;GO:0019941</title>
<path fill="none" stroke="#000000" d="M299.9208,-58.5513C299.9208,-66.6318 299.9208,-75.5308 299.9208,-84.0838"/>
<polygon fill="#000000" stroke="#000000" points="296.4209,-84.2668 299.9208,-94.2669 303.4209,-84.2669 296.4209,-84.2668"/>
</g>
<!-- GO:0051603 -->
<g id="node16" class="node">
<title>GO:0051603</title>
<polygon fill="#ffffff" stroke="#000000" points="212.2438,-264.1003 67.5978,-264.1003 67.5978,-188.6997 212.2438,-188.6997 212.2438,-264.1003"/>
<text text-anchor="middle" x="139.9208" y="-247.4" font-family="Times,serif" font-size="14.00" fill="#000000">GO:0051603</text>
<text text-anchor="middle" x="139.9208" y="-230.6" font-family="Times,serif" font-size="14.00" fill="#000000">proteolysis involved in</text>
<text text-anchor="middle" x="139.9208" y="-213.8" font-family="Times,serif" font-size="14.00" fill="#000000">cellular protein</text>
<text text-anchor="middle" x="139.9208" y="-197" font-family="Times,serif" font-size="14.00" fill="#000000">catabolic process</text>
</g>
<!-- GO:0019941&#45;&gt;GO:0051603 -->
<g id="edge19" class="edge">
<title>GO:0019941&#45;&gt;GO:0051603</title>
<path fill="none" stroke="#000000" d="M254.0712,-153.0584C239.5012,-162.4196 223.0707,-172.9762 207.31,-183.1024"/>
<polygon fill="#000000" stroke="#000000" points="205.1603,-180.3234 198.6391,-188.6735 208.9442,-186.2126 205.1603,-180.3234"/>
</g>
<!-- GO:0043632 -->
<g id="node17" class="node">
<title>GO:0043632</title>
<polygon fill="#ffffff" stroke="#000000" points="575.2473,-264.1003 418.5943,-264.1003 418.5943,-188.6997 575.2473,-188.6997 575.2473,-264.1003"/>
<text text-anchor="middle" x="496.9208" y="-247.4" font-family="Times,serif" font-size="14.00" fill="#000000">GO:0043632</text>
<text text-anchor="middle" x="496.9208" y="-230.6" font-family="Times,serif" font-size="14.00" fill="#000000">modification&#45;dependent</text>
<text text-anchor="middle" x="496.9208" y="-213.8" font-family="Times,serif" font-size="14.00" fill="#000000">macromolecule catabolic</text>
<text text-anchor="middle" x="496.9208" y="-197" font-family="Times,serif" font-size="14.00" fill="#000000">process</text>
</g>
<!-- GO:0019941&#45;&gt;GO:0043632 -->
<g id="edge20" class="edge">
<title>GO:0019941&#45;&gt;GO:0043632</title>
<path fill="none" stroke="#000000" d="M356.1095,-152.9208C374.6504,-162.5959 395.6608,-173.5597 415.6881,-184.0105"/>
<polygon fill="#000000" stroke="#000000" points="414.3235,-187.2463 424.8082,-188.7697 417.5619,-181.0404 414.3235,-187.2463"/>
</g>
<!-- GO:0006508 -->
<g id="node18" class="node">
<title>GO:0006508</title>
<polygon fill="#00ffff" stroke="#000000" points="134.5247,-349.8019 45.3169,-349.8019 45.3169,-308.5981 134.5247,-308.5981 134.5247,-349.8019"/>
<text text-anchor="middle" x="89.9208" y="-333.4" font-family="Times,serif" font-size="14.00" fill="#000000">GO:0006508</text>
<text text-anchor="middle" x="89.9208" y="-316.6" font-family="Times,serif" font-size="14.00" fill="#000000">proteolysis</text>
</g>
<!-- GO:0051603&#45;&gt;GO:0006508 -->
<g id="edge21" class="edge">
<title>GO:0051603&#45;&gt;GO:0006508</title>
<path fill="none" stroke="#000000" d="M121.5866,-264.0952C115.9388,-275.7071 109.8013,-288.3257 104.4465,-299.3352"/>
<polygon fill="#000000" stroke="#000000" points="101.2007,-298.0066 99.9742,-308.5302 107.4956,-301.0683 101.2007,-298.0066"/>
</g>
<!-- GO:0044265 -->
<g id="node19" class="node">
<title>GO:0044265</title>
<polygon fill="#ffffff" stroke="#000000" points="601.6932,-358.6014 454.1484,-358.6014 454.1484,-299.7986 601.6932,-299.7986 601.6932,-358.6014"/>
<text text-anchor="middle" x="527.9208" y="-341.8" font-family="Times,serif" font-size="14.00" fill="#000000">GO:0044265</text>
<text text-anchor="middle" x="527.9208" y="-325" font-family="Times,serif" font-size="14.00" fill="#000000">cellular macromolecule</text>
<text text-anchor="middle" x="527.9208" y="-308.2" font-family="Times,serif" font-size="14.00" fill="#000000">catabolic process</text>
</g>
<!-- GO:0043632&#45;&gt;GO:0044265 -->
<g id="edge22" class="edge">
<title>GO:0043632&#45;&gt;GO:0044265</title>
<path fill="none" stroke="#000000" d="M508.288,-264.0952C510.8466,-272.5796 513.5672,-281.6015 516.1421,-290.1404"/>
<polygon fill="#000000" stroke="#000000" points="512.8414,-291.3177 519.0796,-299.8814 519.5433,-289.2967 512.8414,-291.3177"/>
</g>
<!-- GO:0006508&#45;&gt;GO:0019538 -->
<g id="edge23" class="edge">
<title>GO:0006508&#45;&gt;GO:0019538</title>
<path fill="none" stroke="#000000" d="M87.7015,-350.1504C86.3809,-362.6165 84.6809,-378.6645 83.207,-392.5786"/>
<polygon fill="#000000" stroke="#000000" points="79.7069,-392.3951 82.1339,-402.7081 86.668,-393.1325 79.7069,-392.3951"/>
</g>
<!-- GO:0044265&#45;&gt;GO:0044260 -->
<g id="edge26" class="edge">
<title>GO:0044265&#45;&gt;GO:0044260</title>
<path fill="none" stroke="#000000" d="M479.4166,-358.5513C463.5686,-368.1413 445.8155,-378.8842 429.3739,-388.8335"/>
<polygon fill="#000000" stroke="#000000" points="427.1385,-386.0952 420.395,-394.2669 430.7626,-392.0841 427.1385,-386.0952"/>
</g>
<!-- GO:0044248 -->
<g id="node20" class="node">
<title>GO:0044248</title>
<polygon fill="#ffffff" stroke="#000000" points="687.9272,-547.4014 575.9144,-547.4014 575.9144,-488.5986 687.9272,-488.5986 687.9272,-547.4014"/>
<text text-anchor="middle" x="631.9208" y="-530.6" font-family="Times,serif" font-size="14.00" fill="#000000">GO:0044248</text>
<text text-anchor="middle" x="631.9208" y="-513.8" font-family="Times,serif" font-size="14.00" fill="#000000">cellular catabolic</text>
<text text-anchor="middle" x="631.9208" y="-497" font-family="Times,serif" font-size="14.00" fill="#000000">process</text>
</g>
<!-- GO:0044265&#45;&gt;GO:0044248 -->
<g id="edge24" class="edge">
<title>GO:0044265&#45;&gt;GO:0044248</title>
<path fill="none" stroke="#000000" d="M593.6578,-358.4503C607.6699,-367.8588 620.7055,-379.7444 628.9208,-394.4 643.173,-419.8249 643.1496,-453.0535 639.9851,-478.6535"/>
<polygon fill="#000000" stroke="#000000" points="636.4909,-478.3627 638.5273,-488.76 643.4192,-479.3621 636.4909,-478.3627"/>
</g>
<!-- GO:0009057 -->
<g id="node21" class="node">
<title>GO:0009057</title>
<polygon fill="#ffffff" stroke="#000000" points="620.2473,-453.0014 463.5943,-453.0014 463.5943,-394.1986 620.2473,-394.1986 620.2473,-453.0014"/>
<text text-anchor="middle" x="541.9208" y="-436.2" font-family="Times,serif" font-size="14.00" fill="#000000">GO:0009057</text>
<text text-anchor="middle" x="541.9208" y="-419.4" font-family="Times,serif" font-size="14.00" fill="#000000">macromolecule catabolic</text>
<text text-anchor="middle" x="541.9208" y="-402.6" font-family="Times,serif" font-size="14.00" fill="#000000">process</text>
</g>
<!-- GO:0044265&#45;&gt;GO:0009057 -->
<g id="edge25" class="edge">
<title>GO:0044265&#45;&gt;GO:0009057</title>
<path fill="none" stroke="#000000" d="M532.2737,-358.5513C533.4853,-366.7206 534.8209,-375.7264 536.1022,-384.3657"/>
<polygon fill="#000000" stroke="#000000" points="532.6413,-384.8885 537.5705,-394.2669 539.5656,-383.8616 532.6413,-384.8885"/>
</g>
<!-- GO:0044248&#45;&gt;GO:0044237 -->
<g id="edge28" class="edge">
<title>GO:0044248&#45;&gt;GO:0044237</title>
<path fill="none" stroke="#000000" d="M620.1057,-547.3513C616.7457,-555.6982 613.0342,-564.9184 609.4877,-573.7286"/>
<polygon fill="#000000" stroke="#000000" points="606.2161,-572.4832 605.7286,-583.0669 612.7097,-575.0972 606.2161,-572.4832"/>
</g>
<!-- GO:0009056 -->
<g id="node22" class="node">
<title>GO:0009056</title>
<polygon fill="#ffffff" stroke="#000000" points="517.93,-633.0019 405.9116,-633.0019 405.9116,-591.7981 517.93,-591.7981 517.93,-633.0019"/>
<text text-anchor="middle" x="461.9208" y="-616.6" font-family="Times,serif" font-size="14.00" fill="#000000">GO:0009056</text>
<text text-anchor="middle" x="461.9208" y="-599.8" font-family="Times,serif" font-size="14.00" fill="#000000">catabolic process</text>
</g>
<!-- GO:0044248&#45;&gt;GO:0009056 -->
<g id="edge27" class="edge">
<title>GO:0044248&#45;&gt;GO:0009056</title>
<path fill="none" stroke="#000000" d="M579.0636,-547.3513C556.2765,-560.0048 529.8751,-574.6654 507.9112,-586.8618"/>
<polygon fill="#000000" stroke="#000000" points="506.1499,-583.8364 499.1065,-591.751 509.5482,-589.9561 506.1499,-583.8364"/>
</g>
<!-- GO:0009057&#45;&gt;GO:0043170 -->
<g id="edge30" class="edge">
<title>GO:0009057&#45;&gt;GO:0043170</title>
<path fill="none" stroke="#000000" d="M468.8651,-452.8223C443.4257,-462.9981 414.7095,-474.4845 388.5492,-484.9487"/>
<polygon fill="#000000" stroke="#000000" points="387.0224,-481.7897 379.0375,-488.7533 389.6222,-488.289 387.0224,-481.7897"/>
</g>
<!-- GO:1901575 -->
<g id="node23" class="node">
<title>GO:1901575</title>
<polygon fill="#ffffff" stroke="#000000" points="519.8248,-547.4014 404.0168,-547.4014 404.0168,-488.5986 519.8248,-488.5986 519.8248,-547.4014"/>
<text text-anchor="middle" x="461.9208" y="-530.6" font-family="Times,serif" font-size="14.00" fill="#000000">GO:1901575</text>
<text text-anchor="middle" x="461.9208" y="-513.8" font-family="Times,serif" font-size="14.00" fill="#000000">organic substance</text>
<text text-anchor="middle" x="461.9208" y="-497" font-family="Times,serif" font-size="14.00" fill="#000000">catabolic process</text>
</g>
<!-- GO:0009057&#45;&gt;GO:1901575 -->
<g id="edge29" class="edge">
<title>GO:0009057&#45;&gt;GO:1901575</title>
<path fill="none" stroke="#000000" d="M517.0468,-452.9513C509.5217,-461.831 501.1589,-471.699 493.268,-481.0103"/>
<polygon fill="#000000" stroke="#000000" points="490.5745,-478.775 486.7794,-488.6669 495.9148,-483.3007 490.5745,-478.775"/>
</g>
<!-- GO:0009056&#45;&gt;GO:0008152 -->
<g id="edge31" class="edge">
<title>GO:0009056&#45;&gt;GO:0008152</title>
<path fill="none" stroke="#000000" d="M461.9208,-633.3504C461.9208,-645.8165 461.9208,-661.8645 461.9208,-675.7786"/>
<polygon fill="#000000" stroke="#000000" points="458.4209,-675.9081 461.9208,-685.9081 465.4209,-675.9082 458.4209,-675.9081"/>
</g>
<!-- GO:1901575&#45;&gt;GO:0071704 -->
<g id="edge32" class="edge">
<title>GO:1901575&#45;&gt;GO:0071704</title>
<path fill="none" stroke="#000000" d="M420.8787,-547.3513C407.7173,-556.7637 393.0029,-567.2867 379.309,-577.08"/>
<polygon fill="#000000" stroke="#000000" points="377.0355,-574.4029 370.9375,-583.0669 381.1075,-580.0967 377.0355,-574.4029"/>
</g>
<!-- GO:1901575&#45;&gt;GO:0009056 -->
<g id="edge33" class="edge">
<title>GO:1901575&#45;&gt;GO:0009056</title>
<path fill="none" stroke="#000000" d="M461.9208,-547.3513C461.9208,-558.2614 461.9208,-570.6637 461.9208,-581.692"/>
<polygon fill="#000000" stroke="#000000" points="458.4209,-581.7509 461.9208,-591.751 465.4209,-581.751 458.4209,-581.7509"/>
</g>
<!-- GO:0044699 -->
<g id="node24" class="node">
<title>GO:0044699</title>
<polygon fill="#ffff00" stroke="#000000" points="818.6021,-727.4019 667.2395,-727.4019 667.2395,-686.1981 818.6021,-686.1981 818.6021,-727.4019"/>
<text text-anchor="middle" x="742.9208" y="-711" font-family="Times,serif" font-size="14.00" fill="#000000">GO:0044699</text>
<text text-anchor="middle" x="742.9208" y="-694.2" font-family="Times,serif" font-size="14.00" fill="#000000">single&#45;organism process</text>
</g>
<!-- GO:0044699&#45;&gt;GO:0008150 -->
<g id="edge34" class="edge">
<title>GO:0044699&#45;&gt;GO:0008150</title>
<path fill="none" stroke="#000000" d="M742.9208,-727.6182C742.9208,-737.9705 742.9208,-750.6848 742.9208,-762.1271"/>
<polygon fill="#000000" stroke="#000000" points="739.4209,-762.1735 742.9208,-772.1735 746.4209,-762.1735 739.4209,-762.1735"/>
</g>
<!-- GO:0006464 -->
<g id="node25" class="node">
<title>GO:0006464</title>
<polygon fill="#00ffff" stroke="#000000" points="388.4426,-255.8014 255.399,-255.8014 255.399,-196.9986 388.4426,-196.9986 388.4426,-255.8014"/>
<text text-anchor="middle" x="321.9208" y="-239" font-family="Times,serif" font-size="14.00" fill="#000000">GO:0006464</text>
<text text-anchor="middle" x="321.9208" y="-222.2" font-family="Times,serif" font-size="14.00" fill="#000000">cellular protein</text>
<text text-anchor="middle" x="321.9208" y="-205.4" font-family="Times,serif" font-size="14.00" fill="#000000">modification process</text>
</g>
<!-- GO:0006464&#45;&gt;GO:0044267 -->
<g id="edge35" class="edge">
<title>GO:0006464&#45;&gt;GO:0044267</title>
<path fill="none" stroke="#000000" d="M334.2429,-255.8584C338.741,-266.612 343.8989,-278.9431 348.6858,-290.3871"/>
<polygon fill="#000000" stroke="#000000" points="345.5091,-291.8625 352.5969,-299.7373 351.9669,-289.1613 345.5091,-291.8625"/>
</g>
<!-- GO:0036211 -->
<g id="node26" class="node">
<title>GO:0036211</title>
<polygon fill="#ffffff" stroke="#000000" points="288.1203,-358.6014 157.7213,-358.6014 157.7213,-299.7986 288.1203,-299.7986 288.1203,-358.6014"/>
<text text-anchor="middle" x="222.9208" y="-341.8" font-family="Times,serif" font-size="14.00" fill="#000000">GO:0036211</text>
<text text-anchor="middle" x="222.9208" y="-325" font-family="Times,serif" font-size="14.00" fill="#000000">protein modification</text>
<text text-anchor="middle" x="222.9208" y="-308.2" font-family="Times,serif" font-size="14.00" fill="#000000">process</text>
</g>
<!-- GO:0006464&#45;&gt;GO:0036211 -->
<g id="edge36" class="edge">
<title>GO:0006464&#45;&gt;GO:0036211</title>
<path fill="none" stroke="#000000" d="M293.5514,-255.8584C282.5739,-267.2572 269.8895,-280.4285 258.3249,-292.4369"/>
<polygon fill="#000000" stroke="#000000" points="255.71,-290.1065 251.2944,-299.7373 260.7521,-294.9622 255.71,-290.1065"/>
</g>
<!-- GO:0036211&#45;&gt;GO:0019538 -->
<g id="edge37" class="edge">
<title>GO:0036211&#45;&gt;GO:0019538</title>
<path fill="none" stroke="#000000" d="M178.4586,-358.5513C159.7166,-370.9236 138.0679,-385.2148 119.844,-397.2451"/>
<polygon fill="#000000" stroke="#000000" points="117.6179,-394.5208 111.2006,-402.951 121.4744,-400.3627 117.6179,-394.5208"/>
</g>
<!-- GO:0043412 -->
<g id="node27" class="node">
<title>GO:0043412</title>
<polygon fill="#ffffff" stroke="#000000" points="280.2172,-453.0014 177.6244,-453.0014 177.6244,-394.1986 280.2172,-394.1986 280.2172,-453.0014"/>
<text text-anchor="middle" x="228.9208" y="-436.2" font-family="Times,serif" font-size="14.00" fill="#000000">GO:0043412</text>
<text text-anchor="middle" x="228.9208" y="-419.4" font-family="Times,serif" font-size="14.00" fill="#000000">macromolecule</text>
<text text-anchor="middle" x="228.9208" y="-402.6" font-family="Times,serif" font-size="14.00" fill="#000000">modification</text>
</g>
<!-- GO:0036211&#45;&gt;GO:0043412 -->
<g id="edge38" class="edge">
<title>GO:0036211&#45;&gt;GO:0043412</title>
<path fill="none" stroke="#000000" d="M224.7863,-358.5513C225.2999,-366.6318 225.8656,-375.5308 226.4092,-384.0838"/>
<polygon fill="#000000" stroke="#000000" points="222.929,-384.509 227.0564,-394.2669 229.915,-384.065 222.929,-384.509"/>
</g>
<!-- GO:0043412&#45;&gt;GO:0043170 -->
<g id="edge39" class="edge">
<title>GO:0043412&#45;&gt;GO:0043170</title>
<path fill="none" stroke="#000000" d="M252.862,-452.9513C260.0325,-461.7422 267.9932,-471.5018 275.5211,-480.7308"/>
<polygon fill="#000000" stroke="#000000" points="272.9614,-483.13 281.9944,-488.6669 278.3858,-478.7055 272.9614,-483.13"/>
</g>
<!-- GO:0044763 -->
<g id="node28" class="node">
<title>GO:0044763</title>
<polygon fill="#00ffff" stroke="#000000" points="821.5993,-641.8014 670.2423,-641.8014 670.2423,-582.9986 821.5993,-582.9986 821.5993,-641.8014"/>
<text text-anchor="middle" x="745.9208" y="-625" font-family="Times,serif" font-size="14.00" fill="#000000">GO:0044763</text>
<text text-anchor="middle" x="745.9208" y="-608.2" font-family="Times,serif" font-size="14.00" fill="#000000">single&#45;organism cellular</text>
<text text-anchor="middle" x="745.9208" y="-591.4" font-family="Times,serif" font-size="14.00" fill="#000000">process</text>
</g>
<!-- GO:0044763&#45;&gt;GO:0009987 -->
<g id="edge40" class="edge">
<title>GO:0044763&#45;&gt;GO:0009987</title>
<path fill="none" stroke="#000000" d="M699.593,-641.7513C679.8871,-654.2361 657.0972,-668.6748 638.0021,-680.7727"/>
<polygon fill="#000000" stroke="#000000" points="636.0872,-677.8425 629.513,-686.151 639.8335,-683.7556 636.0872,-677.8425"/>
</g>
<!-- GO:0044763&#45;&gt;GO:0044699 -->
<g id="edge41" class="edge">
<title>GO:0044763&#45;&gt;GO:0044699</title>
<path fill="none" stroke="#000000" d="M744.988,-641.7513C744.6413,-652.6614 744.2472,-665.0637 743.8967,-676.092"/>
<polygon fill="#000000" stroke="#000000" points="740.3965,-676.0448 743.577,-686.151 747.393,-676.2672 740.3965,-676.0448"/>
</g>
</g>
</svg>
