<?xml version="1.0" encoding="UTF-8" standalone="no"?>
<!DOCTYPE svg PUBLIC "-//W3C//DTD SVG 1.1//EN"
 "http://www.w3.org/Graphics/SVG/1.1/DTD/svg11.dtd">
<!-- Generated by graphviz version 2.40.1 (20161225.0304)
 -->
<!-- Title: G Pages: 1 -->
<svg width="665pt" height="1155pt"
 viewBox="0.00 0.00 664.76 1155.20" xmlns="http://www.w3.org/2000/svg" xmlns:xlink="http://www.w3.org/1999/xlink">
<g id="graph0" class="graph" transform="scale(1 1) rotate(0) translate(4 1151.2)">
<title>G</title>
<polygon fill="#ffffff" stroke="transparent" points="-4,4 -4,-1151.2 660.7564,-1151.2 660.7564,4 -4,4"/>
<!-- GO:0005267 -->
<g id="node1" class="node">
<title>GO:0005267</title>
<polygon fill="#00ffff" stroke="#000000" points="440.954,-264.2014 321.3336,-264.2014 321.3336,-205.3986 440.954,-205.3986 440.954,-264.2014"/>
<text text-anchor="middle" x="381.1438" y="-247.4" font-family="Times,serif" font-size="14.00" fill="#000000">GO:0005267</text>
<text text-anchor="middle" x="381.1438" y="-230.6" font-family="Times,serif" font-size="14.00" fill="#000000">potassium channel</text>
<text text-anchor="middle" x="381.1438" y="-213.8" font-family="Times,serif" font-size="14.00" fill="#000000">activity</text>
</g>
<!-- GO:0005261 -->
<g id="node2" class="node">
<title>GO:0005261</title>
<polygon fill="#ffffff" stroke="#000000" points="476.3804,-469.4019 333.9072,-469.4019 333.9072,-428.1981 476.3804,-428.1981 476.3804,-469.4019"/>
<text text-anchor="middle" x="405.1438" y="-453" font-family="Times,serif" font-size="14.00" fill="#000000">GO:0005261</text>
<text text-anchor="middle" x="405.1438" y="-436.2" font-family="Times,serif" font-size="14.00" fill="#000000">cation channel activity</text>
</g>
<!-- GO:0005267&#45;&gt;GO:0005261 -->
<g id="edge1" class="edge">
<title>GO:0005267&#45;&gt;GO:0005261</title>
<path fill="none" stroke="#000000" d="M384.4306,-264.1071C388.9656,-304.544 397.1027,-377.1001 401.7127,-418.2059"/>
<polygon fill="#000000" stroke="#000000" points="398.2389,-418.6361 402.8317,-428.1837 405.1953,-417.8558 398.2389,-418.6361"/>
</g>
<!-- GO:0015079 -->
<g id="node3" class="node">
<title>GO:0015079</title>
<polygon fill="#ffffff" stroke="#000000" points="329.5772,-375.3003 162.7104,-375.3003 162.7104,-299.8997 329.5772,-299.8997 329.5772,-375.3003"/>
<text text-anchor="middle" x="246.1438" y="-358.6" font-family="Times,serif" font-size="14.00" fill="#000000">GO:0015079</text>
<text text-anchor="middle" x="246.1438" y="-341.8" font-family="Times,serif" font-size="14.00" fill="#000000">potassium ion</text>
<text text-anchor="middle" x="246.1438" y="-325" font-family="Times,serif" font-size="14.00" fill="#000000">transmembrane transporter</text>
<text text-anchor="middle" x="246.1438" y="-308.2" font-family="Times,serif" font-size="14.00" fill="#000000">activity</text>
</g>
<!-- GO:0005267&#45;&gt;GO:0015079 -->
<g id="edge2" class="edge">
<title>GO:0005267&#45;&gt;GO:0015079</title>
<path fill="none" stroke="#000000" d="M342.4582,-264.2584C330.4569,-273.3971 316.9596,-283.6751 303.9526,-293.5797"/>
<polygon fill="#000000" stroke="#000000" points="301.7705,-290.842 295.935,-299.685 306.0113,-296.4112 301.7705,-290.842"/>
</g>
<!-- GO:0005216 -->
<g id="node4" class="node">
<title>GO:0005216</title>
<polygon fill="#00ffff" stroke="#000000" points="499.5611,-580.6019 372.7265,-580.6019 372.7265,-539.3981 499.5611,-539.3981 499.5611,-580.6019"/>
<text text-anchor="middle" x="436.1438" y="-564.2" font-family="Times,serif" font-size="14.00" fill="#000000">GO:0005216</text>
<text text-anchor="middle" x="436.1438" y="-547.4" font-family="Times,serif" font-size="14.00" fill="#000000">ion channel activity</text>
</g>
<!-- GO:0005261&#45;&gt;GO:0005216 -->
<g id="edge3" class="edge">
<title>GO:0005261&#45;&gt;GO:0005216</title>
<path fill="none" stroke="#000000" d="M410.902,-469.4553C415.5921,-486.2792 422.2835,-510.2819 427.5985,-529.3473"/>
<polygon fill="#000000" stroke="#000000" points="424.2543,-530.3852 430.3112,-539.078 430.9972,-528.5054 424.2543,-530.3852"/>
</g>
<!-- GO:0008324 -->
<g id="node5" class="node">
<title>GO:0008324</title>
<polygon fill="#ffffff" stroke="#000000" points="330.1502,-692.2014 190.1374,-692.2014 190.1374,-633.3986 330.1502,-633.3986 330.1502,-692.2014"/>
<text text-anchor="middle" x="260.1438" y="-675.4" font-family="Times,serif" font-size="14.00" fill="#000000">GO:0008324</text>
<text text-anchor="middle" x="260.1438" y="-658.6" font-family="Times,serif" font-size="14.00" fill="#000000">cation transmembrane</text>
<text text-anchor="middle" x="260.1438" y="-641.8" font-family="Times,serif" font-size="14.00" fill="#000000">transporter activity</text>
</g>
<!-- GO:0005261&#45;&gt;GO:0008324 -->
<g id="edge4" class="edge">
<title>GO:0005261&#45;&gt;GO:0008324</title>
<path fill="none" stroke="#000000" d="M393.254,-469.6154C384.9456,-484.2877 373.6775,-504.4429 364.1438,-522.4 346.584,-555.4746 348.1963,-567.335 326.1438,-597.6 318.8817,-607.5665 310.0601,-617.4034 301.2613,-626.2967"/>
<polygon fill="#000000" stroke="#000000" points="298.5852,-624.0195 293.9104,-633.5273 303.494,-629.01 298.5852,-624.0195"/>
</g>
<!-- GO:0015077 -->
<g id="node6" class="node">
<title>GO:0015077</title>
<polygon fill="#ffffff" stroke="#000000" points="316.1502,-486.5003 176.1374,-486.5003 176.1374,-411.0997 316.1502,-411.0997 316.1502,-486.5003"/>
<text text-anchor="middle" x="246.1438" y="-469.8" font-family="Times,serif" font-size="14.00" fill="#000000">GO:0015077</text>
<text text-anchor="middle" x="246.1438" y="-453" font-family="Times,serif" font-size="14.00" fill="#000000">monovalent inorganic</text>
<text text-anchor="middle" x="246.1438" y="-436.2" font-family="Times,serif" font-size="14.00" fill="#000000">cation transmembrane</text>
<text text-anchor="middle" x="246.1438" y="-419.4" font-family="Times,serif" font-size="14.00" fill="#000000">transporter activity</text>
</g>
<!-- GO:0015079&#45;&gt;GO:0015077 -->
<g id="edge5" class="edge">
<title>GO:0015079&#45;&gt;GO:0015077</title>
<path fill="none" stroke="#000000" d="M246.1438,-375.2472C246.1438,-383.58 246.1438,-392.5155 246.1438,-401.1863"/>
<polygon fill="#000000" stroke="#000000" points="242.6439,-401.1915 246.1438,-411.1915 249.6439,-401.1916 242.6439,-401.1915"/>
</g>
<!-- GO:0046873 -->
<g id="node7" class="node">
<title>GO:0046873</title>
<polygon fill="#ffffff" stroke="#000000" points="158.4317,-478.2014 -.1441,-478.2014 -.1441,-419.3986 158.4317,-419.3986 158.4317,-478.2014"/>
<text text-anchor="middle" x="79.1438" y="-461.4" font-family="Times,serif" font-size="14.00" fill="#000000">GO:0046873</text>
<text text-anchor="middle" x="79.1438" y="-444.6" font-family="Times,serif" font-size="14.00" fill="#000000">metal ion transmembrane</text>
<text text-anchor="middle" x="79.1438" y="-427.8" font-family="Times,serif" font-size="14.00" fill="#000000">transporter activity</text>
</g>
<!-- GO:0015079&#45;&gt;GO:0046873 -->
<g id="edge6" class="edge">
<title>GO:0015079&#45;&gt;GO:0046873</title>
<path fill="none" stroke="#000000" d="M189.6052,-375.2472C170.9833,-387.647 150.3573,-401.3812 132.0189,-413.5921"/>
<polygon fill="#000000" stroke="#000000" points="129.6028,-410.996 123.219,-419.4517 133.4825,-416.8225 129.6028,-410.996"/>
</g>
<!-- GO:0015075 -->
<g id="node8" class="node">
<title>GO:0015075</title>
<polygon fill="#ffffff" stroke="#000000" points="414.8308,-786.6014 291.4568,-786.6014 291.4568,-727.7986 414.8308,-727.7986 414.8308,-786.6014"/>
<text text-anchor="middle" x="353.1438" y="-769.8" font-family="Times,serif" font-size="14.00" fill="#000000">GO:0015075</text>
<text text-anchor="middle" x="353.1438" y="-753" font-family="Times,serif" font-size="14.00" fill="#000000">ion transmembrane</text>
<text text-anchor="middle" x="353.1438" y="-736.2" font-family="Times,serif" font-size="14.00" fill="#000000">transporter activity</text>
</g>
<!-- GO:0005216&#45;&gt;GO:0015075 -->
<g id="edge7" class="edge">
<title>GO:0005216&#45;&gt;GO:0015075</title>
<path fill="none" stroke="#000000" d="M415.0005,-580.6474C402.0997,-594.4556 386.3668,-613.6877 377.1438,-633.6 364.8848,-660.067 358.8849,-692.5238 355.9499,-717.5352"/>
<polygon fill="#000000" stroke="#000000" points="352.4398,-717.4471 354.8703,-727.7593 359.4011,-718.1822 352.4398,-717.4471"/>
</g>
<!-- GO:0022838 -->
<g id="node9" class="node">
<title>GO:0022838</title>
<polygon fill="#ffffff" stroke="#000000" points="500.0948,-692.2014 386.1928,-692.2014 386.1928,-633.3986 500.0948,-633.3986 500.0948,-692.2014"/>
<text text-anchor="middle" x="443.1438" y="-675.4" font-family="Times,serif" font-size="14.00" fill="#000000">GO:0022838</text>
<text text-anchor="middle" x="443.1438" y="-658.6" font-family="Times,serif" font-size="14.00" fill="#000000">substrate&#45;specific</text>
<text text-anchor="middle" x="443.1438" y="-641.8" font-family="Times,serif" font-size="14.00" fill="#000000">channel activity</text>
</g>
<!-- GO:0005216&#45;&gt;GO:0022838 -->
<g id="edge8" class="edge">
<title>GO:0005216&#45;&gt;GO:0022838</title>
<path fill="none" stroke="#000000" d="M437.5604,-580.8031C438.3897,-592.9833 439.4646,-608.7676 440.4494,-623.2305"/>
<polygon fill="#000000" stroke="#000000" points="436.9744,-623.7186 441.1458,-633.4577 443.9582,-623.243 436.9744,-623.7186"/>
</g>
<!-- GO:0008324&#45;&gt;GO:0015075 -->
<g id="edge9" class="edge">
<title>GO:0008324&#45;&gt;GO:0015075</title>
<path fill="none" stroke="#000000" d="M289.0598,-692.1513C297.8953,-701.1198 307.724,-711.0965 316.9777,-720.4894"/>
<polygon fill="#000000" stroke="#000000" points="314.7343,-723.1995 324.2457,-727.8669 319.7209,-718.2868 314.7343,-723.1995"/>
</g>
<!-- GO:0022890 -->
<g id="node10" class="node">
<title>GO:0022890</title>
<polygon fill="#ffffff" stroke="#000000" points="317.5772,-597.7003 150.7104,-597.7003 150.7104,-522.2997 317.5772,-522.2997 317.5772,-597.7003"/>
<text text-anchor="middle" x="234.1438" y="-581" font-family="Times,serif" font-size="14.00" fill="#000000">GO:0022890</text>
<text text-anchor="middle" x="234.1438" y="-564.2" font-family="Times,serif" font-size="14.00" fill="#000000">inorganic cation</text>
<text text-anchor="middle" x="234.1438" y="-547.4" font-family="Times,serif" font-size="14.00" fill="#000000">transmembrane transporter</text>
<text text-anchor="middle" x="234.1438" y="-530.6" font-family="Times,serif" font-size="14.00" fill="#000000">activity</text>
</g>
<!-- GO:0015077&#45;&gt;GO:0022890 -->
<g id="edge10" class="edge">
<title>GO:0015077&#45;&gt;GO:0022890</title>
<path fill="none" stroke="#000000" d="M242.0811,-486.4472C241.1819,-494.78 240.2177,-503.7155 239.282,-512.3863"/>
<polygon fill="#000000" stroke="#000000" points="235.7955,-512.0737 238.2023,-522.3915 242.7551,-512.8248 235.7955,-512.0737"/>
</g>
<!-- GO:0046873&#45;&gt;GO:0022890 -->
<g id="edge11" class="edge">
<title>GO:0046873&#45;&gt;GO:0022890</title>
<path fill="none" stroke="#000000" d="M119.8682,-478.0165C136.2803,-489.7908 155.5568,-503.6202 173.5543,-516.5319"/>
<polygon fill="#000000" stroke="#000000" points="171.553,-519.4037 181.7185,-522.3891 175.6335,-513.716 171.553,-519.4037"/>
</g>
<!-- GO:0022891 -->
<g id="node11" class="node">
<title>GO:0022891</title>
<polygon fill="#ffffff" stroke="#000000" points="465.5772,-897.7003 298.7104,-897.7003 298.7104,-822.2997 465.5772,-822.2997 465.5772,-897.7003"/>
<text text-anchor="middle" x="382.1438" y="-881" font-family="Times,serif" font-size="14.00" fill="#000000">GO:0022891</text>
<text text-anchor="middle" x="382.1438" y="-864.2" font-family="Times,serif" font-size="14.00" fill="#000000">substrate&#45;specific</text>
<text text-anchor="middle" x="382.1438" y="-847.4" font-family="Times,serif" font-size="14.00" fill="#000000">transmembrane transporter</text>
<text text-anchor="middle" x="382.1438" y="-830.6" font-family="Times,serif" font-size="14.00" fill="#000000">activity</text>
</g>
<!-- GO:0015075&#45;&gt;GO:0022891 -->
<g id="edge12" class="edge">
<title>GO:0015075&#45;&gt;GO:0022891</title>
<path fill="none" stroke="#000000" d="M361.454,-786.6584C363.7159,-794.6763 366.2252,-803.5712 368.6936,-812.3215"/>
<polygon fill="#000000" stroke="#000000" points="365.3643,-813.4109 371.4479,-822.085 372.1013,-811.5103 365.3643,-813.4109"/>
</g>
<!-- GO:0022838&#45;&gt;GO:0022891 -->
<g id="edge13" class="edge">
<title>GO:0022838&#45;&gt;GO:0022891</title>
<path fill="none" stroke="#000000" d="M441.6447,-692.247C439.6402,-717.7573 434.9743,-755.3431 424.1438,-786.4 420.9798,-795.4728 416.6965,-804.7068 412.0709,-813.4292"/>
<polygon fill="#000000" stroke="#000000" points="408.9386,-811.8611 407.1593,-822.3054 415.0634,-815.2503 408.9386,-811.8611"/>
</g>
<!-- GO:0015267 -->
<g id="node12" class="node">
<title>GO:0015267</title>
<polygon fill="#ffffff" stroke="#000000" points="609.6698,-777.8019 504.6178,-777.8019 504.6178,-736.5981 609.6698,-736.5981 609.6698,-777.8019"/>
<text text-anchor="middle" x="557.1438" y="-761.4" font-family="Times,serif" font-size="14.00" fill="#000000">GO:0015267</text>
<text text-anchor="middle" x="557.1438" y="-744.6" font-family="Times,serif" font-size="14.00" fill="#000000">channel activity</text>
</g>
<!-- GO:0022838&#45;&gt;GO:0015267 -->
<g id="edge14" class="edge">
<title>GO:0022838&#45;&gt;GO:0015267</title>
<path fill="none" stroke="#000000" d="M478.5892,-692.1513C493.1229,-704.1862 509.8491,-718.0367 524.1223,-729.8559"/>
<polygon fill="#000000" stroke="#000000" points="522.2731,-732.8688 532.2075,-736.551 526.7376,-727.4773 522.2731,-732.8688"/>
</g>
<!-- GO:0022890&#45;&gt;GO:0008324 -->
<g id="edge15" class="edge">
<title>GO:0022890&#45;&gt;GO:0008324</title>
<path fill="none" stroke="#000000" d="M243.6776,-597.6952C245.8235,-606.1796 248.1053,-615.2015 250.2649,-623.7404"/>
<polygon fill="#000000" stroke="#000000" points="246.8834,-624.6449 252.7286,-633.4814 253.6697,-622.9284 246.8834,-624.6449"/>
</g>
<!-- GO:0022857 -->
<g id="node13" class="node">
<title>GO:0022857</title>
<polygon fill="#00ffff" stroke="#000000" points="627.5772,-992.2014 460.7104,-992.2014 460.7104,-933.3986 627.5772,-933.3986 627.5772,-992.2014"/>
<text text-anchor="middle" x="544.1438" y="-975.4" font-family="Times,serif" font-size="14.00" fill="#000000">GO:0022857</text>
<text text-anchor="middle" x="544.1438" y="-958.6" font-family="Times,serif" font-size="14.00" fill="#000000">transmembrane transporter</text>
<text text-anchor="middle" x="544.1438" y="-941.8" font-family="Times,serif" font-size="14.00" fill="#000000">activity</text>
</g>
<!-- GO:0022891&#45;&gt;GO:0022857 -->
<g id="edge16" class="edge">
<title>GO:0022891&#45;&gt;GO:0022857</title>
<path fill="none" stroke="#000000" d="M441.5467,-897.6952C457.0971,-907.5629 473.793,-918.1577 489.1049,-927.8741"/>
<polygon fill="#000000" stroke="#000000" points="487.6225,-931.0786 497.9413,-933.4814 491.3731,-925.1681 487.6225,-931.0786"/>
</g>
<!-- GO:0022892 -->
<g id="node14" class="node">
<title>GO:0022892</title>
<polygon fill="#ffffff" stroke="#000000" points="443.2723,-992.2014 321.0153,-992.2014 321.0153,-933.3986 443.2723,-933.3986 443.2723,-992.2014"/>
<text text-anchor="middle" x="382.1438" y="-975.4" font-family="Times,serif" font-size="14.00" fill="#000000">GO:0022892</text>
<text text-anchor="middle" x="382.1438" y="-958.6" font-family="Times,serif" font-size="14.00" fill="#000000">substrate&#45;specific</text>
<text text-anchor="middle" x="382.1438" y="-941.8" font-family="Times,serif" font-size="14.00" fill="#000000">transporter activity</text>
</g>
<!-- GO:0022891&#45;&gt;GO:0022892 -->
<g id="edge17" class="edge">
<title>GO:0022891&#45;&gt;GO:0022892</title>
<path fill="none" stroke="#000000" d="M382.1438,-897.6952C382.1438,-906.0874 382.1438,-915.0054 382.1438,-923.4618"/>
<polygon fill="#000000" stroke="#000000" points="378.6439,-923.4813 382.1438,-933.4814 385.6439,-923.4814 378.6439,-923.4813"/>
</g>
<!-- GO:0022803 -->
<g id="node15" class="node">
<title>GO:0022803</title>
<polygon fill="#ffffff" stroke="#000000" points="630.6488,-889.4014 483.6388,-889.4014 483.6388,-830.5986 630.6488,-830.5986 630.6488,-889.4014"/>
<text text-anchor="middle" x="557.1438" y="-872.6" font-family="Times,serif" font-size="14.00" fill="#000000">GO:0022803</text>
<text text-anchor="middle" x="557.1438" y="-855.8" font-family="Times,serif" font-size="14.00" fill="#000000">passive transmembrane</text>
<text text-anchor="middle" x="557.1438" y="-839" font-family="Times,serif" font-size="14.00" fill="#000000">transporter activity</text>
</g>
<!-- GO:0015267&#45;&gt;GO:0022803 -->
<g id="edge18" class="edge">
<title>GO:0015267&#45;&gt;GO:0022803</title>
<path fill="none" stroke="#000000" d="M557.1438,-778.0031C557.1438,-790.1833 557.1438,-805.9676 557.1438,-820.4305"/>
<polygon fill="#000000" stroke="#000000" points="553.6439,-820.6577 557.1438,-830.6577 560.6439,-820.6578 553.6439,-820.6577"/>
</g>
<!-- GO:0005215 -->
<g id="node16" class="node">
<title>GO:0005215</title>
<polygon fill="#00ffff" stroke="#000000" points="524.2723,-1069.4019 402.0153,-1069.4019 402.0153,-1028.1981 524.2723,-1028.1981 524.2723,-1069.4019"/>
<text text-anchor="middle" x="463.1438" y="-1053" font-family="Times,serif" font-size="14.00" fill="#000000">GO:0005215</text>
<text text-anchor="middle" x="463.1438" y="-1036.2" font-family="Times,serif" font-size="14.00" fill="#000000">transporter activity</text>
</g>
<!-- GO:0022857&#45;&gt;GO:0005215 -->
<g id="edge19" class="edge">
<title>GO:0022857&#45;&gt;GO:0005215</title>
<path fill="none" stroke="#000000" d="M516.2682,-992.3963C507.6162,-1001.5824 498.1102,-1011.6752 489.5605,-1020.7526"/>
<polygon fill="#000000" stroke="#000000" points="486.952,-1018.4173 482.6436,-1028.0966 492.0477,-1023.2167 486.952,-1018.4173"/>
</g>
<!-- GO:0022892&#45;&gt;GO:0005215 -->
<g id="edge20" class="edge">
<title>GO:0022892&#45;&gt;GO:0005215</title>
<path fill="none" stroke="#000000" d="M410.0194,-992.3963C418.6714,-1001.5824 428.1774,-1011.6752 436.7271,-1020.7526"/>
<polygon fill="#000000" stroke="#000000" points="434.2399,-1023.2167 443.644,-1028.0966 439.3356,-1018.4173 434.2399,-1023.2167"/>
</g>
<!-- GO:0022803&#45;&gt;GO:0022857 -->
<g id="edge21" class="edge">
<title>GO:0022803&#45;&gt;GO:0022857</title>
<path fill="none" stroke="#000000" d="M553.4185,-889.4584C552.0858,-899.9969 550.5615,-912.0505 549.139,-923.2994"/>
<polygon fill="#000000" stroke="#000000" points="545.652,-922.9772 547.8696,-933.3373 552.5967,-923.8555 545.652,-922.9772"/>
</g>
<!-- GO:0003674 -->
<g id="node17" class="node">
<title>GO:0003674</title>
<polygon fill="#ffffff" stroke="#000000" points="525.7769,-1147.0019 400.5107,-1147.0019 400.5107,-1105.7981 525.7769,-1105.7981 525.7769,-1147.0019"/>
<text text-anchor="middle" x="463.1438" y="-1130.6" font-family="Times,serif" font-size="14.00" fill="#000000">GO:0003674</text>
<text text-anchor="middle" x="463.1438" y="-1113.8" font-family="Times,serif" font-size="14.00" fill="#000000">molecular_function</text>
</g>
<!-- GO:0005215&#45;&gt;GO:0003674 -->
<g id="edge22" class="edge">
<title>GO:0005215&#45;&gt;GO:0003674</title>
<path fill="none" stroke="#000000" d="M463.1438,-1069.5954C463.1438,-1077.5109 463.1438,-1086.7109 463.1438,-1095.3722"/>
<polygon fill="#000000" stroke="#000000" points="459.6439,-1095.5472 463.1438,-1105.5472 466.6439,-1095.5473 459.6439,-1095.5472"/>
</g>
<!-- GO:0005251 -->
<g id="node18" class="node">
<title>GO:0005251</title>
<polygon fill="#ff00ff" stroke="#000000" points="484.954,-75.3003 365.3336,-75.3003 365.3336,.1003 484.954,.1003 484.954,-75.3003"/>
<text text-anchor="middle" x="425.1438" y="-58.6" font-family="Times,serif" font-size="14.00" fill="#000000">GO:0005251</text>
<text text-anchor="middle" x="425.1438" y="-41.8" font-family="Times,serif" font-size="14.00" fill="#000000">delayed rectifier</text>
<text text-anchor="middle" x="425.1438" y="-25" font-family="Times,serif" font-size="14.00" fill="#000000">potassium channel</text>
<text text-anchor="middle" x="425.1438" y="-8.2" font-family="Times,serif" font-size="14.00" fill="#000000">activity</text>
</g>
<!-- GO:0005249 -->
<g id="node19" class="node">
<title>GO:0005249</title>
<polygon fill="#00ffff" stroke="#000000" points="501.6109,-169.8014 348.6767,-169.8014 348.6767,-110.9986 501.6109,-110.9986 501.6109,-169.8014"/>
<text text-anchor="middle" x="425.1438" y="-153" font-family="Times,serif" font-size="14.00" fill="#000000">GO:0005249</text>
<text text-anchor="middle" x="425.1438" y="-136.2" font-family="Times,serif" font-size="14.00" fill="#000000">voltage&#45;gated potassium</text>
<text text-anchor="middle" x="425.1438" y="-119.4" font-family="Times,serif" font-size="14.00" fill="#000000">channel activity</text>
</g>
<!-- GO:0005251&#45;&gt;GO:0005249 -->
<g id="edge23" class="edge">
<title>GO:0005251&#45;&gt;GO:0005249</title>
<path fill="none" stroke="#000000" d="M425.1438,-75.2952C425.1438,-83.6874 425.1438,-92.6054 425.1438,-101.0618"/>
<polygon fill="#000000" stroke="#000000" points="421.6439,-101.0813 425.1438,-111.0814 428.6439,-101.0814 421.6439,-101.0813"/>
</g>
<!-- GO:0005249&#45;&gt;GO:0005267 -->
<g id="edge24" class="edge">
<title>GO:0005249&#45;&gt;GO:0005267</title>
<path fill="none" stroke="#000000" d="M411.4631,-169.7513C407.5726,-178.0982 403.2751,-187.3184 399.1686,-196.1286"/>
<polygon fill="#000000" stroke="#000000" points="395.8684,-194.9244 394.816,-205.4669 402.2131,-197.8817 395.8684,-194.9244"/>
</g>
<!-- GO:0022843 -->
<g id="node20" class="node">
<title>GO:0022843</title>
<polygon fill="#ffffff" stroke="#000000" points="539.045,-367.0014 409.2426,-367.0014 409.2426,-308.1986 539.045,-308.1986 539.045,-367.0014"/>
<text text-anchor="middle" x="474.1438" y="-350.2" font-family="Times,serif" font-size="14.00" fill="#000000">GO:0022843</text>
<text text-anchor="middle" x="474.1438" y="-333.4" font-family="Times,serif" font-size="14.00" fill="#000000">voltage&#45;gated cation</text>
<text text-anchor="middle" x="474.1438" y="-316.6" font-family="Times,serif" font-size="14.00" fill="#000000">channel activity</text>
</g>
<!-- GO:0005249&#45;&gt;GO:0022843 -->
<g id="edge25" class="edge">
<title>GO:0005249&#45;&gt;GO:0022843</title>
<path fill="none" stroke="#000000" d="M437.7805,-169.869C442.1638,-180.9231 446.8098,-193.6924 450.1438,-205.6 458.7095,-236.193 464.9606,-271.657 468.9319,-298.1172"/>
<polygon fill="#000000" stroke="#000000" points="465.4878,-298.7551 470.3929,-308.1461 472.4147,-297.7459 465.4878,-298.7551"/>
</g>
<!-- GO:0022843&#45;&gt;GO:0005261 -->
<g id="edge27" class="edge">
<title>GO:0022843&#45;&gt;GO:0005261</title>
<path fill="none" stroke="#000000" d="M456.0149,-366.8165C445.9753,-382.9962 433.5279,-403.0564 423.4588,-419.2837"/>
<polygon fill="#000000" stroke="#000000" points="420.4384,-417.513 418.1399,-427.8556 426.3864,-421.2038 420.4384,-417.513"/>
</g>
<!-- GO:0005244 -->
<g id="node21" class="node">
<title>GO:0005244</title>
<polygon fill="#ffffff" stroke="#000000" points="655.2601,-478.2014 495.0275,-478.2014 495.0275,-419.3986 655.2601,-419.3986 655.2601,-478.2014"/>
<text text-anchor="middle" x="575.1438" y="-461.4" font-family="Times,serif" font-size="14.00" fill="#000000">GO:0005244</text>
<text text-anchor="middle" x="575.1438" y="-444.6" font-family="Times,serif" font-size="14.00" fill="#000000">voltage&#45;gated ion channel</text>
<text text-anchor="middle" x="575.1438" y="-427.8" font-family="Times,serif" font-size="14.00" fill="#000000">activity</text>
</g>
<!-- GO:0022843&#45;&gt;GO:0005244 -->
<g id="edge26" class="edge">
<title>GO:0022843&#45;&gt;GO:0005244</title>
<path fill="none" stroke="#000000" d="M500.6804,-366.8165C513.2226,-380.6254 528.3321,-397.2608 541.6536,-411.9276"/>
<polygon fill="#000000" stroke="#000000" points="539.1195,-414.3433 548.4338,-419.3926 544.3012,-409.6369 539.1195,-414.3433"/>
</g>
<!-- GO:0005244&#45;&gt;GO:0005216 -->
<g id="edge29" class="edge">
<title>GO:0005244&#45;&gt;GO:0005216</title>
<path fill="none" stroke="#000000" d="M538.6232,-478.0165C517.4622,-494.9453 490.9911,-516.1221 470.2537,-532.7121"/>
<polygon fill="#000000" stroke="#000000" points="467.9466,-530.0755 462.3244,-539.0556 472.3195,-535.5416 467.9466,-530.0755"/>
</g>
<!-- GO:0022832 -->
<g id="node22" class="node">
<title>GO:0022832</title>
<polygon fill="#ffffff" stroke="#000000" points="656.8692,-589.4014 517.4184,-589.4014 517.4184,-530.5986 656.8692,-530.5986 656.8692,-589.4014"/>
<text text-anchor="middle" x="587.1438" y="-572.6" font-family="Times,serif" font-size="14.00" fill="#000000">GO:0022832</text>
<text text-anchor="middle" x="587.1438" y="-555.8" font-family="Times,serif" font-size="14.00" fill="#000000">voltage&#45;gated channel</text>
<text text-anchor="middle" x="587.1438" y="-539" font-family="Times,serif" font-size="14.00" fill="#000000">activity</text>
</g>
<!-- GO:0005244&#45;&gt;GO:0022832 -->
<g id="edge28" class="edge">
<title>GO:0005244&#45;&gt;GO:0022832</title>
<path fill="none" stroke="#000000" d="M578.2967,-478.0165C579.6911,-490.9386 581.3527,-506.3358 582.8573,-520.2788"/>
<polygon fill="#000000" stroke="#000000" points="579.4175,-521.0258 583.9703,-530.5926 586.3771,-520.2747 579.4175,-521.0258"/>
</g>
<!-- GO:0022836 -->
<g id="node23" class="node">
<title>GO:0022836</title>
<polygon fill="#00ffff" stroke="#000000" points="656.4897,-683.4019 517.7979,-683.4019 517.7979,-642.1981 656.4897,-642.1981 656.4897,-683.4019"/>
<text text-anchor="middle" x="587.1438" y="-667" font-family="Times,serif" font-size="14.00" fill="#000000">GO:0022836</text>
<text text-anchor="middle" x="587.1438" y="-650.2" font-family="Times,serif" font-size="14.00" fill="#000000">gated channel activity</text>
</g>
<!-- GO:0022832&#45;&gt;GO:0022836 -->
<g id="edge30" class="edge">
<title>GO:0022832&#45;&gt;GO:0022836</title>
<path fill="none" stroke="#000000" d="M587.1438,-589.4584C587.1438,-602.7539 587.1438,-618.4608 587.1438,-631.9212"/>
<polygon fill="#000000" stroke="#000000" points="583.6439,-632.1456 587.1438,-642.1456 590.6439,-632.1457 583.6439,-632.1456"/>
</g>
<!-- GO:0022836&#45;&gt;GO:0015267 -->
<g id="edge31" class="edge">
<title>GO:0022836&#45;&gt;GO:0015267</title>
<path fill="none" stroke="#000000" d="M580.4858,-683.7504C576.4853,-696.3387 571.324,-712.5795 566.8724,-726.5872"/>
<polygon fill="#000000" stroke="#000000" points="563.4763,-725.7178 563.7832,-736.3081 570.1475,-727.8379 563.4763,-725.7178"/>
</g>
</g>
</svg>
