<?xml version="1.0" encoding="UTF-8" standalone="no"?>
<!DOCTYPE svg PUBLIC "-//W3C//DTD SVG 1.1//EN"
 "http://www.w3.org/Graphics/SVG/1.1/DTD/svg11.dtd">
<!-- Generated by graphviz version 2.40.1 (20161225.0304)
 -->
<!-- Title: G Pages: 1 -->
<svg width="890pt" height="582pt"
 viewBox="0.00 0.00 890.36 582.40" xmlns="http://www.w3.org/2000/svg" xmlns:xlink="http://www.w3.org/1999/xlink">
<g id="graph0" class="graph" transform="scale(1 1) rotate(0) translate(4 578.4)">
<title>G</title>
<polygon fill="#ffffff" stroke="transparent" points="-4,4 -4,-578.4 886.357,-578.4 886.357,4 -4,4"/>
<!-- GO:0043229 -->
<g id="node1" class="node">
<title>GO:0043229</title>
<polygon fill="#ff0000" stroke="#000000" points="285.6988,-316.2019 146.262,-316.2019 146.262,-274.9981 285.6988,-274.9981 285.6988,-316.2019"/>
<text text-anchor="middle" x="215.9804" y="-299.8" font-family="Times,serif" font-size="14.00" fill="#000000">GO:0043229</text>
<text text-anchor="middle" x="215.9804" y="-283" font-family="Times,serif" font-size="14.00" fill="#000000">intracellular organelle</text>
</g>
<!-- GO:0044424 -->
<g id="node2" class="node">
<title>GO:0044424</title>
<polygon fill="#ffffff" stroke="#000000" points="464.3788,-410.6019 355.582,-410.6019 355.582,-369.3981 464.3788,-369.3981 464.3788,-410.6019"/>
<text text-anchor="middle" x="409.9804" y="-394.2" font-family="Times,serif" font-size="14.00" fill="#000000">GO:0044424</text>
<text text-anchor="middle" x="409.9804" y="-377.4" font-family="Times,serif" font-size="14.00" fill="#000000">intracellular part</text>
</g>
<!-- GO:0043229&#45;&gt;GO:0044424 -->
<g id="edge1" class="edge">
<title>GO:0043229&#45;&gt;GO:0044424</title>
<path fill="none" stroke="#000000" d="M258.5545,-316.3165C287.8679,-330.5803 326.9859,-349.6151 358.1195,-364.7646"/>
<polygon fill="#000000" stroke="#000000" points="356.9822,-368.1035 367.5056,-369.3318 360.0451,-361.8091 356.9822,-368.1035"/>
</g>
<!-- GO:0043226 -->
<g id="node3" class="node">
<title>GO:0043226</title>
<polygon fill="#ffffff" stroke="#000000" points="260.5843,-410.6019 171.3765,-410.6019 171.3765,-369.3981 260.5843,-369.3981 260.5843,-410.6019"/>
<text text-anchor="middle" x="215.9804" y="-394.2" font-family="Times,serif" font-size="14.00" fill="#000000">GO:0043226</text>
<text text-anchor="middle" x="215.9804" y="-377.4" font-family="Times,serif" font-size="14.00" fill="#000000">organelle</text>
</g>
<!-- GO:0043229&#45;&gt;GO:0043226 -->
<g id="edge2" class="edge">
<title>GO:0043229&#45;&gt;GO:0043226</title>
<path fill="none" stroke="#000000" d="M215.9804,-316.5504C215.9804,-329.0165 215.9804,-345.0645 215.9804,-358.9786"/>
<polygon fill="#000000" stroke="#000000" points="212.4805,-359.1081 215.9804,-369.1081 219.4805,-359.1082 212.4805,-359.1081"/>
</g>
<!-- GO:0044464 -->
<g id="node4" class="node">
<title>GO:0044464</title>
<polygon fill="#ffffff" stroke="#000000" points="454.5843,-496.6019 365.3765,-496.6019 365.3765,-455.3981 454.5843,-455.3981 454.5843,-496.6019"/>
<text text-anchor="middle" x="409.9804" y="-480.2" font-family="Times,serif" font-size="14.00" fill="#000000">GO:0044464</text>
<text text-anchor="middle" x="409.9804" y="-463.4" font-family="Times,serif" font-size="14.00" fill="#000000">cell part</text>
</g>
<!-- GO:0044424&#45;&gt;GO:0044464 -->
<g id="edge3" class="edge">
<title>GO:0044424&#45;&gt;GO:0044464</title>
<path fill="none" stroke="#000000" d="M409.9804,-410.8182C409.9804,-421.1705 409.9804,-433.8848 409.9804,-445.3271"/>
<polygon fill="#000000" stroke="#000000" points="406.4805,-445.3735 409.9804,-455.3735 413.4805,-445.3735 406.4805,-445.3735"/>
</g>
<!-- GO:0005575 -->
<g id="node5" class="node">
<title>GO:0005575</title>
<polygon fill="#ffffff" stroke="#000000" points="582.6671,-574.2019 455.2937,-574.2019 455.2937,-532.9981 582.6671,-532.9981 582.6671,-574.2019"/>
<text text-anchor="middle" x="518.9804" y="-557.8" font-family="Times,serif" font-size="14.00" fill="#000000">GO:0005575</text>
<text text-anchor="middle" x="518.9804" y="-541" font-family="Times,serif" font-size="14.00" fill="#000000">cellular_component</text>
</g>
<!-- GO:0043226&#45;&gt;GO:0005575 -->
<g id="edge4" class="edge">
<title>GO:0043226&#45;&gt;GO:0005575</title>
<path fill="none" stroke="#000000" d="M238.6755,-410.9808C265.141,-434.5356 311.0192,-472.6161 355.9804,-496.8 383.9599,-511.8497 416.7197,-524.1757 445.5021,-533.4528"/>
<polygon fill="#000000" stroke="#000000" points="444.5082,-536.8092 455.098,-536.4816 446.6152,-530.1339 444.5082,-536.8092"/>
</g>
<!-- GO:0044464&#45;&gt;GO:0005575 -->
<g id="edge8" class="edge">
<title>GO:0044464&#45;&gt;GO:0005575</title>
<path fill="none" stroke="#000000" d="M439.1904,-496.7954C452.1415,-506.0156 467.5408,-516.9788 481.3405,-526.8031"/>
<polygon fill="#000000" stroke="#000000" points="479.5134,-529.7988 489.6898,-532.7472 483.5732,-524.0963 479.5134,-529.7988"/>
</g>
<!-- GO:0031224 -->
<g id="node6" class="node">
<title>GO:0031224</title>
<polygon fill="#ffff00" stroke="#000000" points="882.2338,-419.4014 739.727,-419.4014 739.727,-360.5986 882.2338,-360.5986 882.2338,-419.4014"/>
<text text-anchor="middle" x="810.9804" y="-402.6" font-family="Times,serif" font-size="14.00" fill="#000000">GO:0031224</text>
<text text-anchor="middle" x="810.9804" y="-385.8" font-family="Times,serif" font-size="14.00" fill="#000000">intrinsic component of</text>
<text text-anchor="middle" x="810.9804" y="-369" font-family="Times,serif" font-size="14.00" fill="#000000">membrane</text>
</g>
<!-- GO:0044425 -->
<g id="node7" class="node">
<title>GO:0044425</title>
<polygon fill="#ffa500" stroke="#000000" points="861.3324,-496.6019 760.6284,-496.6019 760.6284,-455.3981 861.3324,-455.3981 861.3324,-496.6019"/>
<text text-anchor="middle" x="810.9804" y="-480.2" font-family="Times,serif" font-size="14.00" fill="#000000">GO:0044425</text>
<text text-anchor="middle" x="810.9804" y="-463.4" font-family="Times,serif" font-size="14.00" fill="#000000">membrane part</text>
</g>
<!-- GO:0031224&#45;&gt;GO:0044425 -->
<g id="edge5" class="edge">
<title>GO:0031224&#45;&gt;GO:0044425</title>
<path fill="none" stroke="#000000" d="M810.9804,-419.5963C810.9804,-427.8638 810.9804,-436.8657 810.9804,-445.2008"/>
<polygon fill="#000000" stroke="#000000" points="807.4805,-445.2965 810.9804,-455.2966 814.4805,-445.2966 807.4805,-445.2965"/>
</g>
<!-- GO:0044425&#45;&gt;GO:0005575 -->
<g id="edge6" class="edge">
<title>GO:0044425&#45;&gt;GO:0005575</title>
<path fill="none" stroke="#000000" d="M760.6762,-493.8217C757.4054,-494.8618 754.1527,-495.864 750.9804,-496.8 698.5496,-512.2694 638.5971,-526.8687 592.7727,-537.3919"/>
<polygon fill="#000000" stroke="#000000" points="591.8922,-534.0028 582.9223,-539.6413 593.4505,-540.8272 591.8922,-534.0028"/>
</g>
<!-- GO:0005737 -->
<g id="node8" class="node">
<title>GO:0005737</title>
<polygon fill="#ffff00" stroke="#000000" points="392.5843,-316.2019 303.3765,-316.2019 303.3765,-274.9981 392.5843,-274.9981 392.5843,-316.2019"/>
<text text-anchor="middle" x="347.9804" y="-299.8" font-family="Times,serif" font-size="14.00" fill="#000000">GO:0005737</text>
<text text-anchor="middle" x="347.9804" y="-283" font-family="Times,serif" font-size="14.00" fill="#000000">cytoplasm</text>
</g>
<!-- GO:0005737&#45;&gt;GO:0044424 -->
<g id="edge7" class="edge">
<title>GO:0005737&#45;&gt;GO:0044424</title>
<path fill="none" stroke="#000000" d="M361.7402,-316.5504C370.2487,-329.5054 381.298,-346.3287 390.6746,-360.6053"/>
<polygon fill="#000000" stroke="#000000" points="387.8439,-362.6711 396.2591,-369.1081 393.6948,-358.8283 387.8439,-362.6711"/>
</g>
<!-- GO:0016021 -->
<g id="node9" class="node">
<title>GO:0016021</title>
<polygon fill="#ffff00" stroke="#000000" points="880.6135,-325.0014 741.3473,-325.0014 741.3473,-266.1986 880.6135,-266.1986 880.6135,-325.0014"/>
<text text-anchor="middle" x="810.9804" y="-308.2" font-family="Times,serif" font-size="14.00" fill="#000000">GO:0016021</text>
<text text-anchor="middle" x="810.9804" y="-291.4" font-family="Times,serif" font-size="14.00" fill="#000000">integral component of</text>
<text text-anchor="middle" x="810.9804" y="-274.6" font-family="Times,serif" font-size="14.00" fill="#000000">membrane</text>
</g>
<!-- GO:0016021&#45;&gt;GO:0031224 -->
<g id="edge9" class="edge">
<title>GO:0016021&#45;&gt;GO:0031224</title>
<path fill="none" stroke="#000000" d="M810.9804,-324.9513C810.9804,-333.0318 810.9804,-341.9308 810.9804,-350.4838"/>
<polygon fill="#000000" stroke="#000000" points="807.4805,-350.6668 810.9804,-360.6669 814.4805,-350.6669 807.4805,-350.6668"/>
</g>
<!-- GO:0031461 -->
<g id="node10" class="node">
<title>GO:0031461</title>
<polygon fill="#00ffff" stroke="#000000" points="537.3003,-58.6014 396.6605,-58.6014 396.6605,.2014 537.3003,.2014 537.3003,-58.6014"/>
<text text-anchor="middle" x="466.9804" y="-41.8" font-family="Times,serif" font-size="14.00" fill="#000000">GO:0031461</text>
<text text-anchor="middle" x="466.9804" y="-25" font-family="Times,serif" font-size="14.00" fill="#000000">cullin&#45;RING ubiquitin</text>
<text text-anchor="middle" x="466.9804" y="-8.2" font-family="Times,serif" font-size="14.00" fill="#000000">ligase complex</text>
</g>
<!-- GO:0000151 -->
<g id="node11" class="node">
<title>GO:0000151</title>
<polygon fill="#ffffff" stroke="#000000" points="544.4088,-135.8019 389.552,-135.8019 389.552,-94.5981 544.4088,-94.5981 544.4088,-135.8019"/>
<text text-anchor="middle" x="466.9804" y="-119.4" font-family="Times,serif" font-size="14.00" fill="#000000">GO:0000151</text>
<text text-anchor="middle" x="466.9804" y="-102.6" font-family="Times,serif" font-size="14.00" fill="#000000">ubiquitin ligase complex</text>
</g>
<!-- GO:0031461&#45;&gt;GO:0000151 -->
<g id="edge10" class="edge">
<title>GO:0031461&#45;&gt;GO:0000151</title>
<path fill="none" stroke="#000000" d="M466.9804,-58.7963C466.9804,-67.0638 466.9804,-76.0657 466.9804,-84.4008"/>
<polygon fill="#000000" stroke="#000000" points="463.4805,-84.4965 466.9804,-94.4966 470.4805,-84.4966 463.4805,-84.4965"/>
</g>
<!-- GO:0000151&#45;&gt;GO:0044424 -->
<g id="edge11" class="edge">
<title>GO:0000151&#45;&gt;GO:0044424</title>
<path fill="none" stroke="#000000" d="M462.6961,-135.8547C452.7723,-183.6978 428.1629,-302.3414 416.4176,-358.9658"/>
<polygon fill="#000000" stroke="#000000" points="412.9184,-358.6032 414.3144,-369.1057 419.7725,-360.025 412.9184,-358.6032"/>
</g>
<!-- GO:1990234 -->
<g id="node12" class="node">
<title>GO:1990234</title>
<polygon fill="#ffffff" stroke="#000000" points="652.3112,-221.8019 523.6496,-221.8019 523.6496,-180.5981 652.3112,-180.5981 652.3112,-221.8019"/>
<text text-anchor="middle" x="587.9804" y="-205.4" font-family="Times,serif" font-size="14.00" fill="#000000">GO:1990234</text>
<text text-anchor="middle" x="587.9804" y="-188.6" font-family="Times,serif" font-size="14.00" fill="#000000">transferase complex</text>
</g>
<!-- GO:0000151&#45;&gt;GO:1990234 -->
<g id="edge12" class="edge">
<title>GO:0000151&#45;&gt;GO:1990234</title>
<path fill="none" stroke="#000000" d="M496.2711,-136.0182C512.6201,-147.6381 533.1561,-162.234 550.6485,-174.6665"/>
<polygon fill="#000000" stroke="#000000" points="548.7808,-177.6331 558.9594,-180.5735 552.8361,-171.9274 548.7808,-177.6331"/>
</g>
<!-- GO:1902494 -->
<g id="node13" class="node">
<title>GO:1902494</title>
<polygon fill="#ffffff" stroke="#000000" points="721.6117,-316.2019 606.3491,-316.2019 606.3491,-274.9981 721.6117,-274.9981 721.6117,-316.2019"/>
<text text-anchor="middle" x="663.9804" y="-299.8" font-family="Times,serif" font-size="14.00" fill="#000000">GO:1902494</text>
<text text-anchor="middle" x="663.9804" y="-283" font-family="Times,serif" font-size="14.00" fill="#000000">catalytic complex</text>
</g>
<!-- GO:1990234&#45;&gt;GO:1902494 -->
<g id="edge13" class="edge">
<title>GO:1990234&#45;&gt;GO:1902494</title>
<path fill="none" stroke="#000000" d="M604.8473,-222.1504C615.3755,-235.2276 629.0771,-252.2464 640.64,-266.6087"/>
<polygon fill="#000000" stroke="#000000" points="638.1633,-269.1137 647.1607,-274.7081 643.6159,-264.7239 638.1633,-269.1137"/>
</g>
<!-- GO:0043234 -->
<g id="node14" class="node">
<title>GO:0043234</title>
<polygon fill="#00ff00" stroke="#000000" points="716.8478,-410.6019 609.113,-410.6019 609.113,-369.3981 716.8478,-369.3981 716.8478,-410.6019"/>
<text text-anchor="middle" x="662.9804" y="-394.2" font-family="Times,serif" font-size="14.00" fill="#000000">GO:0043234</text>
<text text-anchor="middle" x="662.9804" y="-377.4" font-family="Times,serif" font-size="14.00" fill="#000000">protein complex</text>
</g>
<!-- GO:1902494&#45;&gt;GO:0043234 -->
<g id="edge14" class="edge">
<title>GO:1902494&#45;&gt;GO:0043234</title>
<path fill="none" stroke="#000000" d="M663.7585,-316.5504C663.6264,-329.0165 663.4564,-345.0645 663.309,-358.9786"/>
<polygon fill="#000000" stroke="#000000" points="659.8079,-359.0716 663.2017,-369.1081 666.8075,-359.1458 659.8079,-359.0716"/>
</g>
<!-- GO:0032991 -->
<g id="node15" class="node">
<title>GO:0032991</title>
<polygon fill="#ffff00" stroke="#000000" points="742.1477,-496.6019 583.8131,-496.6019 583.8131,-455.3981 742.1477,-455.3981 742.1477,-496.6019"/>
<text text-anchor="middle" x="662.9804" y="-480.2" font-family="Times,serif" font-size="14.00" fill="#000000">GO:0032991</text>
<text text-anchor="middle" x="662.9804" y="-463.4" font-family="Times,serif" font-size="14.00" fill="#000000">macromolecular complex</text>
</g>
<!-- GO:0043234&#45;&gt;GO:0032991 -->
<g id="edge15" class="edge">
<title>GO:0043234&#45;&gt;GO:0032991</title>
<path fill="none" stroke="#000000" d="M662.9804,-410.8182C662.9804,-421.1705 662.9804,-433.8848 662.9804,-445.3271"/>
<polygon fill="#000000" stroke="#000000" points="659.4805,-445.3735 662.9804,-455.3735 666.4805,-445.3735 659.4805,-445.3735"/>
</g>
<!-- GO:0032991&#45;&gt;GO:0005575 -->
<g id="edge16" class="edge">
<title>GO:0032991&#45;&gt;GO:0005575</title>
<path fill="none" stroke="#000000" d="M624.391,-496.7954C606.6357,-506.3635 585.3973,-517.8087 566.652,-527.9103"/>
<polygon fill="#000000" stroke="#000000" points="564.819,-524.9222 557.6763,-532.7472 568.1398,-531.0844 564.819,-524.9222"/>
</g>
<!-- GO:0043231 -->
<g id="node16" class="node">
<title>GO:0043231</title>
<polygon fill="#ffff00" stroke="#000000" points="215.3592,-230.6014 64.6016,-230.6014 64.6016,-171.7986 215.3592,-171.7986 215.3592,-230.6014"/>
<text text-anchor="middle" x="139.9804" y="-213.8" font-family="Times,serif" font-size="14.00" fill="#000000">GO:0043231</text>
<text text-anchor="middle" x="139.9804" y="-197" font-family="Times,serif" font-size="14.00" fill="#000000">intracellular membrane&#45;</text>
<text text-anchor="middle" x="139.9804" y="-180.2" font-family="Times,serif" font-size="14.00" fill="#000000">bounded organelle</text>
</g>
<!-- GO:0043231&#45;&gt;GO:0043229 -->
<g id="edge17" class="edge">
<title>GO:0043231&#45;&gt;GO:0043229</title>
<path fill="none" stroke="#000000" d="M163.6107,-230.5513C172.9376,-242.1363 183.619,-255.4037 192.8922,-266.922"/>
<polygon fill="#000000" stroke="#000000" points="190.3588,-269.3565 199.3562,-274.951 195.8114,-264.9667 190.3588,-269.3565"/>
</g>
<!-- GO:0043227 -->
<g id="node17" class="node">
<title>GO:0043227</title>
<polygon fill="#ffffff" stroke="#000000" points="127.9412,-325.0014 .0196,-325.0014 .0196,-266.1986 127.9412,-266.1986 127.9412,-325.0014"/>
<text text-anchor="middle" x="63.9804" y="-308.2" font-family="Times,serif" font-size="14.00" fill="#000000">GO:0043227</text>
<text text-anchor="middle" x="63.9804" y="-291.4" font-family="Times,serif" font-size="14.00" fill="#000000">membrane&#45;bounded</text>
<text text-anchor="middle" x="63.9804" y="-274.6" font-family="Times,serif" font-size="14.00" fill="#000000">organelle</text>
</g>
<!-- GO:0043231&#45;&gt;GO:0043227 -->
<g id="edge18" class="edge">
<title>GO:0043231&#45;&gt;GO:0043227</title>
<path fill="none" stroke="#000000" d="M116.3501,-230.5513C109.2727,-239.3422 101.4154,-249.1018 93.9853,-258.3308"/>
<polygon fill="#000000" stroke="#000000" points="91.1409,-256.2826 87.5961,-266.2669 96.5934,-260.6724 91.1409,-256.2826"/>
</g>
<!-- GO:0043227&#45;&gt;GO:0043226 -->
<g id="edge19" class="edge">
<title>GO:0043227&#45;&gt;GO:0043226</title>
<path fill="none" stroke="#000000" d="M111.2409,-324.9513C131.3436,-337.4361 154.5924,-351.8748 174.072,-363.9727"/>
<polygon fill="#000000" stroke="#000000" points="172.3904,-367.0483 182.732,-369.351 176.0835,-361.1018 172.3904,-367.0483"/>
</g>
<!-- GO:0044446 -->
<g id="node18" class="node">
<title>GO:0044446</title>
<polygon fill="#00ffff" stroke="#000000" points="588.6988,-325.0014 449.262,-325.0014 449.262,-266.1986 588.6988,-266.1986 588.6988,-325.0014"/>
<text text-anchor="middle" x="518.9804" y="-308.2" font-family="Times,serif" font-size="14.00" fill="#000000">GO:0044446</text>
<text text-anchor="middle" x="518.9804" y="-291.4" font-family="Times,serif" font-size="14.00" fill="#000000">intracellular organelle</text>
<text text-anchor="middle" x="518.9804" y="-274.6" font-family="Times,serif" font-size="14.00" fill="#000000">part</text>
</g>
<!-- GO:0044446&#45;&gt;GO:0044424 -->
<g id="edge20" class="edge">
<title>GO:0044446&#45;&gt;GO:0044424</title>
<path fill="none" stroke="#000000" d="M485.0896,-324.9513C471.1934,-336.9862 455.2007,-350.8367 441.5536,-362.6559"/>
<polygon fill="#000000" stroke="#000000" points="439.0909,-360.1586 433.823,-369.351 443.6736,-365.45 439.0909,-360.1586"/>
</g>
<!-- GO:0044422 -->
<g id="node19" class="node">
<title>GO:0044422</title>
<polygon fill="#ffffff" stroke="#000000" points="565.8325,-496.6019 472.1283,-496.6019 472.1283,-455.3981 565.8325,-455.3981 565.8325,-496.6019"/>
<text text-anchor="middle" x="518.9804" y="-480.2" font-family="Times,serif" font-size="14.00" fill="#000000">GO:0044422</text>
<text text-anchor="middle" x="518.9804" y="-463.4" font-family="Times,serif" font-size="14.00" fill="#000000">organelle part</text>
</g>
<!-- GO:0044446&#45;&gt;GO:0044422 -->
<g id="edge21" class="edge">
<title>GO:0044446&#45;&gt;GO:0044422</title>
<path fill="none" stroke="#000000" d="M518.9804,-324.9859C518.9804,-358.0492 518.9804,-411.5182 518.9804,-445.1643"/>
<polygon fill="#000000" stroke="#000000" points="515.4805,-445.3408 518.9804,-455.3409 522.4805,-445.3409 515.4805,-445.3408"/>
</g>
<!-- GO:0044422&#45;&gt;GO:0005575 -->
<g id="edge22" class="edge">
<title>GO:0044422&#45;&gt;GO:0005575</title>
<path fill="none" stroke="#000000" d="M518.9804,-496.7954C518.9804,-504.7109 518.9804,-513.9109 518.9804,-522.5722"/>
<polygon fill="#000000" stroke="#000000" points="515.4805,-522.7472 518.9804,-532.7472 522.4805,-522.7473 515.4805,-522.7472"/>
</g>
<!-- GO:0005634 -->
<g id="node20" class="node">
<title>GO:0005634</title>
<polygon fill="#00ff00" stroke="#000000" points="184.5843,-135.8019 95.3765,-135.8019 95.3765,-94.5981 184.5843,-94.5981 184.5843,-135.8019"/>
<text text-anchor="middle" x="139.9804" y="-119.4" font-family="Times,serif" font-size="14.00" fill="#000000">GO:0005634</text>
<text text-anchor="middle" x="139.9804" y="-102.6" font-family="Times,serif" font-size="14.00" fill="#000000">nucleus</text>
</g>
<!-- GO:0005634&#45;&gt;GO:0043231 -->
<g id="edge23" class="edge">
<title>GO:0005634&#45;&gt;GO:0043231</title>
<path fill="none" stroke="#000000" d="M139.9804,-136.0182C139.9804,-143.7358 139.9804,-152.7662 139.9804,-161.6036"/>
<polygon fill="#000000" stroke="#000000" points="136.4805,-161.7991 139.9804,-171.7991 143.4805,-161.7992 136.4805,-161.7991"/>
</g>
</g>
</svg>
