<?xml version="1.0" encoding="UTF-8" standalone="no"?>
<!DOCTYPE svg PUBLIC "-//W3C//DTD SVG 1.1//EN"
 "http://www.w3.org/Graphics/SVG/1.1/DTD/svg11.dtd">
<!-- Generated by graphviz version 2.40.1 (20161225.0304)
 -->
<!-- Title: G Pages: 1 -->
<svg width="759pt" height="899pt"
 viewBox="0.00 0.00 758.73 899.20" xmlns="http://www.w3.org/2000/svg" xmlns:xlink="http://www.w3.org/1999/xlink">
<g id="graph0" class="graph" transform="scale(1 1) rotate(0) translate(4 895.2)">
<title>G</title>
<polygon fill="#ffffff" stroke="transparent" points="-4,4 -4,-895.2 754.7266,-895.2 754.7266,4 -4,4"/>
<!-- GO:0032446 -->
<g id="node1" class="node">
<title>GO:0032446</title>
<polygon fill="#ffff00" stroke="#000000" points="325.4745,-136.2014 166.2977,-136.2014 166.2977,-77.3986 325.4745,-77.3986 325.4745,-136.2014"/>
<text text-anchor="middle" x="245.8861" y="-119.4" font-family="Times,serif" font-size="14.00" fill="#000000">GO:0032446</text>
<text text-anchor="middle" x="245.8861" y="-102.6" font-family="Times,serif" font-size="14.00" fill="#000000">protein modification by</text>
<text text-anchor="middle" x="245.8861" y="-85.8" font-family="Times,serif" font-size="14.00" fill="#000000">small protein conjugation</text>
</g>
<!-- GO:0070647 -->
<g id="node2" class="node">
<title>GO:0070647</title>
<polygon fill="#ffffff" stroke="#000000" points="325.4745,-247.3003 166.2977,-247.3003 166.2977,-171.8997 325.4745,-171.8997 325.4745,-247.3003"/>
<text text-anchor="middle" x="245.8861" y="-230.6" font-family="Times,serif" font-size="14.00" fill="#000000">GO:0070647</text>
<text text-anchor="middle" x="245.8861" y="-213.8" font-family="Times,serif" font-size="14.00" fill="#000000">protein modification by</text>
<text text-anchor="middle" x="245.8861" y="-197" font-family="Times,serif" font-size="14.00" fill="#000000">small protein conjugation</text>
<text text-anchor="middle" x="245.8861" y="-180.2" font-family="Times,serif" font-size="14.00" fill="#000000">or removal</text>
</g>
<!-- GO:0032446&#45;&gt;GO:0070647 -->
<g id="edge1" class="edge">
<title>GO:0032446&#45;&gt;GO:0070647</title>
<path fill="none" stroke="#000000" d="M245.8861,-136.2584C245.8861,-144.1901 245.8861,-152.98 245.8861,-161.6392"/>
<polygon fill="#000000" stroke="#000000" points="242.3862,-161.6849 245.8861,-171.685 249.3862,-161.685 242.3862,-161.6849"/>
</g>
<!-- GO:0006464 -->
<g id="node3" class="node">
<title>GO:0006464</title>
<polygon fill="#ffff00" stroke="#000000" points="312.4079,-341.8014 179.3643,-341.8014 179.3643,-282.9986 312.4079,-282.9986 312.4079,-341.8014"/>
<text text-anchor="middle" x="245.8861" y="-325" font-family="Times,serif" font-size="14.00" fill="#000000">GO:0006464</text>
<text text-anchor="middle" x="245.8861" y="-308.2" font-family="Times,serif" font-size="14.00" fill="#000000">cellular protein</text>
<text text-anchor="middle" x="245.8861" y="-291.4" font-family="Times,serif" font-size="14.00" fill="#000000">modification process</text>
</g>
<!-- GO:0070647&#45;&gt;GO:0006464 -->
<g id="edge2" class="edge">
<title>GO:0070647&#45;&gt;GO:0006464</title>
<path fill="none" stroke="#000000" d="M245.8861,-247.2952C245.8861,-255.6874 245.8861,-264.6054 245.8861,-273.0618"/>
<polygon fill="#000000" stroke="#000000" points="242.3862,-273.0813 245.8861,-283.0814 249.3862,-273.0814 242.3862,-273.0813"/>
</g>
<!-- GO:0044267 -->
<g id="node4" class="node">
<title>GO:0044267</title>
<polygon fill="#ffffff" stroke="#000000" points="233.0717,-436.2014 116.7005,-436.2014 116.7005,-377.3986 233.0717,-377.3986 233.0717,-436.2014"/>
<text text-anchor="middle" x="174.8861" y="-419.4" font-family="Times,serif" font-size="14.00" fill="#000000">GO:0044267</text>
<text text-anchor="middle" x="174.8861" y="-402.6" font-family="Times,serif" font-size="14.00" fill="#000000">cellular protein</text>
<text text-anchor="middle" x="174.8861" y="-385.8" font-family="Times,serif" font-size="14.00" fill="#000000">metabolic process</text>
</g>
<!-- GO:0006464&#45;&gt;GO:0044267 -->
<g id="edge3" class="edge">
<title>GO:0006464&#45;&gt;GO:0044267</title>
<path fill="none" stroke="#000000" d="M223.8104,-341.7513C217.2655,-350.4534 210.0065,-360.1047 203.1274,-369.2509"/>
<polygon fill="#000000" stroke="#000000" points="200.1618,-367.3712 196.9481,-377.4669 205.7561,-371.5788 200.1618,-367.3712"/>
</g>
<!-- GO:0036211 -->
<g id="node5" class="node">
<title>GO:0036211</title>
<polygon fill="#ffffff" stroke="#000000" points="382.0856,-436.2014 251.6866,-436.2014 251.6866,-377.3986 382.0856,-377.3986 382.0856,-436.2014"/>
<text text-anchor="middle" x="316.8861" y="-419.4" font-family="Times,serif" font-size="14.00" fill="#000000">GO:0036211</text>
<text text-anchor="middle" x="316.8861" y="-402.6" font-family="Times,serif" font-size="14.00" fill="#000000">protein modification</text>
<text text-anchor="middle" x="316.8861" y="-385.8" font-family="Times,serif" font-size="14.00" fill="#000000">process</text>
</g>
<!-- GO:0006464&#45;&gt;GO:0036211 -->
<g id="edge4" class="edge">
<title>GO:0006464&#45;&gt;GO:0036211</title>
<path fill="none" stroke="#000000" d="M267.9618,-341.7513C274.5067,-350.4534 281.7657,-360.1047 288.6448,-369.2509"/>
<polygon fill="#000000" stroke="#000000" points="286.0161,-371.5788 294.8241,-377.4669 291.6104,-367.3712 286.0161,-371.5788"/>
</g>
<!-- GO:0019538 -->
<g id="node6" class="node">
<title>GO:0019538</title>
<polygon fill="#ffffff" stroke="#000000" points="325.7278,-521.8019 166.0444,-521.8019 166.0444,-480.5981 325.7278,-480.5981 325.7278,-521.8019"/>
<text text-anchor="middle" x="245.8861" y="-505.4" font-family="Times,serif" font-size="14.00" fill="#000000">GO:0019538</text>
<text text-anchor="middle" x="245.8861" y="-488.6" font-family="Times,serif" font-size="14.00" fill="#000000">protein metabolic process</text>
</g>
<!-- GO:0044267&#45;&gt;GO:0019538 -->
<g id="edge5" class="edge">
<title>GO:0044267&#45;&gt;GO:0019538</title>
<path fill="none" stroke="#000000" d="M196.9618,-436.1513C205.6751,-447.7363 215.6537,-461.0037 224.3169,-472.522"/>
<polygon fill="#000000" stroke="#000000" points="221.5476,-474.6629 230.3556,-480.551 227.1419,-470.4553 221.5476,-474.6629"/>
</g>
<!-- GO:0044260 -->
<g id="node7" class="node">
<title>GO:0044260</title>
<polygon fill="#ffa500" stroke="#000000" points="147.6585,-530.6014 .1137,-530.6014 .1137,-471.7986 147.6585,-471.7986 147.6585,-530.6014"/>
<text text-anchor="middle" x="73.8861" y="-513.8" font-family="Times,serif" font-size="14.00" fill="#000000">GO:0044260</text>
<text text-anchor="middle" x="73.8861" y="-497" font-family="Times,serif" font-size="14.00" fill="#000000">cellular macromolecule</text>
<text text-anchor="middle" x="73.8861" y="-480.2" font-family="Times,serif" font-size="14.00" fill="#000000">metabolic process</text>
</g>
<!-- GO:0044267&#45;&gt;GO:0044260 -->
<g id="edge6" class="edge">
<title>GO:0044267&#45;&gt;GO:0044260</title>
<path fill="none" stroke="#000000" d="M143.4827,-436.1513C133.7922,-445.2086 123.0015,-455.2941 112.865,-464.7683"/>
<polygon fill="#000000" stroke="#000000" points="110.1859,-462.4815 105.2701,-471.8669 114.9658,-467.5955 110.1859,-462.4815"/>
</g>
<!-- GO:0036211&#45;&gt;GO:0019538 -->
<g id="edge7" class="edge">
<title>GO:0036211&#45;&gt;GO:0019538</title>
<path fill="none" stroke="#000000" d="M294.8104,-436.1513C286.0971,-447.7363 276.1185,-461.0037 267.4553,-472.522"/>
<polygon fill="#000000" stroke="#000000" points="264.6303,-470.4553 261.4166,-480.551 270.2246,-474.6629 264.6303,-470.4553"/>
</g>
<!-- GO:0043412 -->
<g id="node8" class="node">
<title>GO:0043412</title>
<polygon fill="#ffffff" stroke="#000000" points="446.1825,-530.6014 343.5897,-530.6014 343.5897,-471.7986 446.1825,-471.7986 446.1825,-530.6014"/>
<text text-anchor="middle" x="394.8861" y="-513.8" font-family="Times,serif" font-size="14.00" fill="#000000">GO:0043412</text>
<text text-anchor="middle" x="394.8861" y="-497" font-family="Times,serif" font-size="14.00" fill="#000000">macromolecule</text>
<text text-anchor="middle" x="394.8861" y="-480.2" font-family="Times,serif" font-size="14.00" fill="#000000">modification</text>
</g>
<!-- GO:0036211&#45;&gt;GO:0043412 -->
<g id="edge8" class="edge">
<title>GO:0036211&#45;&gt;GO:0043412</title>
<path fill="none" stroke="#000000" d="M341.1382,-436.1513C348.4019,-444.9422 356.4659,-454.7018 364.0916,-463.9308"/>
<polygon fill="#000000" stroke="#000000" points="361.5812,-466.3873 370.649,-471.8669 366.9774,-461.9285 361.5812,-466.3873"/>
</g>
<!-- GO:0044238 -->
<g id="node9" class="node">
<title>GO:0044238</title>
<polygon fill="#ffa500" stroke="#000000" points="458.8891,-616.2019 294.8831,-616.2019 294.8831,-574.9981 458.8891,-574.9981 458.8891,-616.2019"/>
<text text-anchor="middle" x="376.8861" y="-599.8" font-family="Times,serif" font-size="14.00" fill="#000000">GO:0044238</text>
<text text-anchor="middle" x="376.8861" y="-583" font-family="Times,serif" font-size="14.00" fill="#000000">primary metabolic process</text>
</g>
<!-- GO:0019538&#45;&gt;GO:0044238 -->
<g id="edge9" class="edge">
<title>GO:0019538&#45;&gt;GO:0044238</title>
<path fill="none" stroke="#000000" d="M274.6346,-521.9165C293.8315,-535.7499 319.2555,-554.0708 339.9493,-568.9829"/>
<polygon fill="#000000" stroke="#000000" points="338.0454,-571.925 348.2047,-574.9318 342.1379,-566.2459 338.0454,-571.925"/>
</g>
<!-- GO:0043170 -->
<g id="node10" class="node">
<title>GO:0043170</title>
<polygon fill="#ffffff" stroke="#000000" points="276.3883,-625.0014 115.3839,-625.0014 115.3839,-566.1986 276.3883,-566.1986 276.3883,-625.0014"/>
<text text-anchor="middle" x="195.8861" y="-608.2" font-family="Times,serif" font-size="14.00" fill="#000000">GO:0043170</text>
<text text-anchor="middle" x="195.8861" y="-591.4" font-family="Times,serif" font-size="14.00" fill="#000000">macromolecule metabolic</text>
<text text-anchor="middle" x="195.8861" y="-574.6" font-family="Times,serif" font-size="14.00" fill="#000000">process</text>
</g>
<!-- GO:0019538&#45;&gt;GO:0043170 -->
<g id="edge10" class="edge">
<title>GO:0019538&#45;&gt;GO:0043170</title>
<path fill="none" stroke="#000000" d="M234.7895,-522.1504C229.333,-532.4522 222.5809,-545.2002 216.2417,-557.1686"/>
<polygon fill="#000000" stroke="#000000" points="213.0906,-555.6403 211.5029,-566.1155 219.2765,-558.9168 213.0906,-555.6403"/>
</g>
<!-- GO:0044260&#45;&gt;GO:0043170 -->
<g id="edge12" class="edge">
<title>GO:0044260&#45;&gt;GO:0043170</title>
<path fill="none" stroke="#000000" d="M111.8189,-530.5513C123.8685,-539.8749 137.3265,-550.2883 149.881,-560.0026"/>
<polygon fill="#000000" stroke="#000000" points="147.926,-562.9153 157.9768,-566.2669 152.2098,-557.3791 147.926,-562.9153"/>
</g>
<!-- GO:0044237 -->
<g id="node11" class="node">
<title>GO:0044237</title>
<polygon fill="#ffffff" stroke="#000000" points="132.0689,-719.4014 15.7033,-719.4014 15.7033,-660.5986 132.0689,-660.5986 132.0689,-719.4014"/>
<text text-anchor="middle" x="73.8861" y="-702.6" font-family="Times,serif" font-size="14.00" fill="#000000">GO:0044237</text>
<text text-anchor="middle" x="73.8861" y="-685.8" font-family="Times,serif" font-size="14.00" fill="#000000">cellular metabolic</text>
<text text-anchor="middle" x="73.8861" y="-669" font-family="Times,serif" font-size="14.00" fill="#000000">process</text>
</g>
<!-- GO:0044260&#45;&gt;GO:0044237 -->
<g id="edge11" class="edge">
<title>GO:0044260&#45;&gt;GO:0044237</title>
<path fill="none" stroke="#000000" d="M73.8861,-530.7C73.8861,-562.9825 73.8861,-614.8912 73.8861,-650.6305"/>
<polygon fill="#000000" stroke="#000000" points="70.3862,-650.7071 73.8861,-660.7072 77.3862,-650.7072 70.3862,-650.7071"/>
</g>
<!-- GO:0043412&#45;&gt;GO:0043170 -->
<g id="edge13" class="edge">
<title>GO:0043412&#45;&gt;GO:0043170</title>
<path fill="none" stroke="#000000" d="M343.5225,-526.2568C340.6027,-527.6625 337.7083,-529.0514 334.8861,-530.4 313.2108,-540.7572 289.5695,-551.9028 268.0329,-561.9979"/>
<polygon fill="#000000" stroke="#000000" points="266.5152,-558.8438 258.9437,-566.2547 269.4842,-565.183 266.5152,-558.8438"/>
</g>
<!-- GO:0008152 -->
<g id="node12" class="node">
<title>GO:0008152</title>
<polygon fill="#ffa500" stroke="#000000" points="265.0717,-805.0019 148.7005,-805.0019 148.7005,-763.7981 265.0717,-763.7981 265.0717,-805.0019"/>
<text text-anchor="middle" x="206.8861" y="-788.6" font-family="Times,serif" font-size="14.00" fill="#000000">GO:0008152</text>
<text text-anchor="middle" x="206.8861" y="-771.8" font-family="Times,serif" font-size="14.00" fill="#000000">metabolic process</text>
</g>
<!-- GO:0044238&#45;&gt;GO:0008152 -->
<g id="edge14" class="edge">
<title>GO:0044238&#45;&gt;GO:0008152</title>
<path fill="none" stroke="#000000" d="M361.2144,-616.398C341.9863,-641.5231 307.9774,-684.7115 275.8861,-719.2 264.0055,-731.968 250.1571,-745.321 237.9976,-756.5936"/>
<polygon fill="#000000" stroke="#000000" points="235.2861,-754.3318 230.2886,-763.6739 240.0212,-759.4873 235.2861,-754.3318"/>
</g>
<!-- GO:0071704 -->
<g id="node13" class="node">
<title>GO:0071704</title>
<polygon fill="#ffa500" stroke="#000000" points="267.0717,-719.4014 150.7005,-719.4014 150.7005,-660.5986 267.0717,-660.5986 267.0717,-719.4014"/>
<text text-anchor="middle" x="208.8861" y="-702.6" font-family="Times,serif" font-size="14.00" fill="#000000">GO:0071704</text>
<text text-anchor="middle" x="208.8861" y="-685.8" font-family="Times,serif" font-size="14.00" fill="#000000">organic substance</text>
<text text-anchor="middle" x="208.8861" y="-669" font-family="Times,serif" font-size="14.00" fill="#000000">metabolic process</text>
</g>
<!-- GO:0043170&#45;&gt;GO:0071704 -->
<g id="edge15" class="edge">
<title>GO:0043170&#45;&gt;GO:0071704</title>
<path fill="none" stroke="#000000" d="M199.9281,-624.9513C201.0409,-633.0318 202.2664,-641.9308 203.4443,-650.4838"/>
<polygon fill="#000000" stroke="#000000" points="200.015,-651.2379 204.8466,-660.6669 206.9495,-650.2828 200.015,-651.2379"/>
</g>
<!-- GO:0044237&#45;&gt;GO:0008152 -->
<g id="edge17" class="edge">
<title>GO:0044237&#45;&gt;GO:0008152</title>
<path fill="none" stroke="#000000" d="M115.2391,-719.3513C132.512,-731.6112 152.4394,-745.7551 169.2917,-757.7165"/>
<polygon fill="#000000" stroke="#000000" points="167.6132,-760.8171 177.7937,-763.751 171.6648,-755.1088 167.6132,-760.8171"/>
</g>
<!-- GO:0009987 -->
<g id="node14" class="node">
<title>GO:0009987</title>
<polygon fill="#ff0000" stroke="#000000" points="128.8423,-805.0019 24.9299,-805.0019 24.9299,-763.7981 128.8423,-763.7981 128.8423,-805.0019"/>
<text text-anchor="middle" x="76.8861" y="-788.6" font-family="Times,serif" font-size="14.00" fill="#000000">GO:0009987</text>
<text text-anchor="middle" x="76.8861" y="-771.8" font-family="Times,serif" font-size="14.00" fill="#000000">cellular process</text>
</g>
<!-- GO:0044237&#45;&gt;GO:0009987 -->
<g id="edge16" class="edge">
<title>GO:0044237&#45;&gt;GO:0009987</title>
<path fill="none" stroke="#000000" d="M74.8189,-719.3513C75.1656,-730.2614 75.5597,-742.6637 75.9102,-753.692"/>
<polygon fill="#000000" stroke="#000000" points="72.4139,-753.8672 76.2299,-763.751 79.4104,-753.6448 72.4139,-753.8672"/>
</g>
<!-- GO:0008150 -->
<g id="node15" class="node">
<title>GO:0008150</title>
<polygon fill="#ffffff" stroke="#000000" points="409.3567,-891.0019 288.4155,-891.0019 288.4155,-849.7981 409.3567,-849.7981 409.3567,-891.0019"/>
<text text-anchor="middle" x="348.8861" y="-874.6" font-family="Times,serif" font-size="14.00" fill="#000000">GO:0008150</text>
<text text-anchor="middle" x="348.8861" y="-857.8" font-family="Times,serif" font-size="14.00" fill="#000000">biological_process</text>
</g>
<!-- GO:0008152&#45;&gt;GO:0008150 -->
<g id="edge18" class="edge">
<title>GO:0008152&#45;&gt;GO:0008150</title>
<path fill="none" stroke="#000000" d="M241.2603,-805.2182C260.7955,-817.0494 285.4248,-831.9657 306.1912,-844.5425"/>
<polygon fill="#000000" stroke="#000000" points="304.4617,-847.5869 314.8284,-849.7735 308.0879,-841.5994 304.4617,-847.5869"/>
</g>
<!-- GO:0071704&#45;&gt;GO:0008152 -->
<g id="edge19" class="edge">
<title>GO:0071704&#45;&gt;GO:0008152</title>
<path fill="none" stroke="#000000" d="M208.2643,-719.3513C208.0331,-730.2614 207.7703,-742.6637 207.5367,-753.692"/>
<polygon fill="#000000" stroke="#000000" points="204.0363,-753.6791 207.3236,-763.751 211.0347,-753.8274 204.0363,-753.6791"/>
</g>
<!-- GO:0009987&#45;&gt;GO:0008150 -->
<g id="edge20" class="edge">
<title>GO:0009987&#45;&gt;GO:0008150</title>
<path fill="none" stroke="#000000" d="M118.8343,-805.0309C125.7842,-808.1039 132.9775,-811.0806 139.8861,-813.6 185.0848,-830.0829 237.3117,-844.2782 278.2505,-854.3552"/>
<polygon fill="#000000" stroke="#000000" points="277.5923,-857.7971 288.1365,-856.7628 279.2487,-850.9959 277.5923,-857.7971"/>
</g>
<!-- GO:0016567 -->
<g id="node16" class="node">
<title>GO:0016567</title>
<polygon fill="#00ffff" stroke="#000000" points="314.601,-41.4019 177.1712,-41.4019 177.1712,-.1981 314.601,-.1981 314.601,-41.4019"/>
<text text-anchor="middle" x="245.8861" y="-25" font-family="Times,serif" font-size="14.00" fill="#000000">GO:0016567</text>
<text text-anchor="middle" x="245.8861" y="-8.2" font-family="Times,serif" font-size="14.00" fill="#000000">protein ubiquitination</text>
</g>
<!-- GO:0016567&#45;&gt;GO:0032446 -->
<g id="edge21" class="edge">
<title>GO:0016567&#45;&gt;GO:0032446</title>
<path fill="none" stroke="#000000" d="M245.8861,-41.6182C245.8861,-49.3358 245.8861,-58.3662 245.8861,-67.2036"/>
<polygon fill="#000000" stroke="#000000" points="242.3862,-67.3991 245.8861,-77.3991 249.3862,-67.3992 242.3862,-67.3991"/>
</g>
<!-- GO:0050789 -->
<g id="node17" class="node">
<title>GO:0050789</title>
<polygon fill="#00ffff" stroke="#000000" points="580.8005,-813.8014 432.9717,-813.8014 432.9717,-754.9986 580.8005,-754.9986 580.8005,-813.8014"/>
<text text-anchor="middle" x="506.8861" y="-797" font-family="Times,serif" font-size="14.00" fill="#000000">GO:0050789</text>
<text text-anchor="middle" x="506.8861" y="-780.2" font-family="Times,serif" font-size="14.00" fill="#000000">regulation of biological</text>
<text text-anchor="middle" x="506.8861" y="-763.4" font-family="Times,serif" font-size="14.00" fill="#000000">process</text>
</g>
<!-- GO:0050789&#45;&gt;GO:0008150 -->
<g id="edge22" class="edge">
<title>GO:0050789&#45;&gt;GO:0008150</title>
<path fill="none" stroke="#000000" d="M452.9534,-813.7558C434.5306,-823.7834 414.0787,-834.9154 396.2158,-844.6383"/>
<polygon fill="#000000" stroke="#000000" points="394.245,-841.726 387.1351,-849.5809 397.5916,-847.8743 394.245,-841.726"/>
</g>
<!-- GO:0065007 -->
<g id="node18" class="node">
<title>GO:0065007</title>
<polygon fill="#00ffff" stroke="#000000" points="415.1395,-805.0019 282.6327,-805.0019 282.6327,-763.7981 415.1395,-763.7981 415.1395,-805.0019"/>
<text text-anchor="middle" x="348.8861" y="-788.6" font-family="Times,serif" font-size="14.00" fill="#000000">GO:0065007</text>
<text text-anchor="middle" x="348.8861" y="-771.8" font-family="Times,serif" font-size="14.00" fill="#000000">biological regulation</text>
</g>
<!-- GO:0065007&#45;&gt;GO:0008150 -->
<g id="edge23" class="edge">
<title>GO:0065007&#45;&gt;GO:0008150</title>
<path fill="none" stroke="#000000" d="M348.8861,-805.2182C348.8861,-815.5705 348.8861,-828.2848 348.8861,-839.7271"/>
<polygon fill="#000000" stroke="#000000" points="345.3862,-839.7735 348.8861,-849.7735 352.3862,-839.7735 345.3862,-839.7735"/>
</g>
<!-- GO:0050794 -->
<g id="node19" class="node">
<title>GO:0050794</title>
<polygon fill="#ff00ff" stroke="#000000" points="531.7851,-719.4014 397.9871,-719.4014 397.9871,-660.5986 531.7851,-660.5986 531.7851,-719.4014"/>
<text text-anchor="middle" x="464.8861" y="-702.6" font-family="Times,serif" font-size="14.00" fill="#000000">GO:0050794</text>
<text text-anchor="middle" x="464.8861" y="-685.8" font-family="Times,serif" font-size="14.00" fill="#000000">regulation of cellular</text>
<text text-anchor="middle" x="464.8861" y="-669" font-family="Times,serif" font-size="14.00" fill="#000000">process</text>
</g>
<!-- GO:0050794&#45;&gt;GO:0050789 -->
<g id="edge25" class="edge">
<title>GO:0050794&#45;&gt;GO:0050789</title>
<path fill="none" stroke="#000000" d="M477.9449,-719.3513C481.6586,-727.6982 485.7608,-736.9184 489.6806,-745.7286"/>
<polygon fill="#000000" stroke="#000000" points="486.5725,-747.3531 493.8353,-755.0669 492.9681,-744.5076 486.5725,-747.3531"/>
</g>
<!-- GO:0050794&#45;&gt;GO:0065007 -->
<g id="edge24" class="edge">
<title>GO:0050794&#45;&gt;GO:0065007</title>
<path fill="none" stroke="#000000" d="M428.8188,-719.3513C413.892,-731.4987 396.6922,-745.4958 382.0804,-757.3867"/>
<polygon fill="#000000" stroke="#000000" points="379.8069,-754.7243 374.2599,-763.751 384.2253,-760.1537 379.8069,-754.7243"/>
</g>
<!-- GO:0044699 -->
<g id="node20" class="node">
<title>GO:0044699</title>
<polygon fill="#ff00ff" stroke="#000000" points="750.5674,-805.0019 599.2048,-805.0019 599.2048,-763.7981 750.5674,-763.7981 750.5674,-805.0019"/>
<text text-anchor="middle" x="674.8861" y="-788.6" font-family="Times,serif" font-size="14.00" fill="#000000">GO:0044699</text>
<text text-anchor="middle" x="674.8861" y="-771.8" font-family="Times,serif" font-size="14.00" fill="#000000">single&#45;organism process</text>
</g>
<!-- GO:0044699&#45;&gt;GO:0008150 -->
<g id="edge26" class="edge">
<title>GO:0044699&#45;&gt;GO:0008150</title>
<path fill="none" stroke="#000000" d="M617.0621,-805.1237C608.0132,-808.1174 598.7306,-811.0454 589.8861,-813.6 533.2088,-829.9702 468.0386,-845.1124 419.7698,-855.6386"/>
<polygon fill="#000000" stroke="#000000" points="418.7671,-852.2746 409.7355,-857.8135 420.2499,-859.1158 418.7671,-852.2746"/>
</g>
</g>
</svg>
