<?xml version="1.0" encoding="UTF-8" standalone="no"?>
<!DOCTYPE svg PUBLIC "-//W3C//DTD SVG 1.1//EN"
 "http://www.w3.org/Graphics/SVG/1.1/DTD/svg11.dtd">
<!-- Generated by graphviz version 2.40.1 (20161225.0304)
 -->
<!-- Title: G Pages: 1 -->
<svg width="857pt" height="660pt"
 viewBox="0.00 0.00 856.55 660.00" xmlns="http://www.w3.org/2000/svg" xmlns:xlink="http://www.w3.org/1999/xlink">
<g id="graph0" class="graph" transform="scale(1 1) rotate(0) translate(4 656)">
<title>G</title>
<polygon fill="#ffffff" stroke="transparent" points="-4,4 -4,-656 852.546,-656 852.546,4 -4,4"/>
<!-- GO:0043229 -->
<g id="node1" class="node">
<title>GO:0043229</title>
<polygon fill="#ffa500" stroke="#000000" points="285.6988,-410.6019 146.262,-410.6019 146.262,-369.3981 285.6988,-369.3981 285.6988,-410.6019"/>
<text text-anchor="middle" x="215.9804" y="-394.2" font-family="Times,serif" font-size="14.00" fill="#000000">GO:0043229</text>
<text text-anchor="middle" x="215.9804" y="-377.4" font-family="Times,serif" font-size="14.00" fill="#000000">intracellular organelle</text>
</g>
<!-- GO:0044424 -->
<g id="node2" class="node">
<title>GO:0044424</title>
<polygon fill="#ff0000" stroke="#000000" points="530.3788,-496.6019 421.582,-496.6019 421.582,-455.3981 530.3788,-455.3981 530.3788,-496.6019"/>
<text text-anchor="middle" x="475.9804" y="-480.2" font-family="Times,serif" font-size="14.00" fill="#000000">GO:0044424</text>
<text text-anchor="middle" x="475.9804" y="-463.4" font-family="Times,serif" font-size="14.00" fill="#000000">intracellular part</text>
</g>
<!-- GO:0043229&#45;&gt;GO:0044424 -->
<g id="edge1" class="edge">
<title>GO:0043229&#45;&gt;GO:0044424</title>
<path fill="none" stroke="#000000" d="M270.6767,-410.6192C278.8014,-413.565 287.0929,-416.5066 294.9804,-419.2 333.418,-432.3256 376.8274,-445.9868 411.4977,-456.6214"/>
<polygon fill="#000000" stroke="#000000" points="410.9099,-460.1016 421.4963,-459.6788 412.9569,-453.4076 410.9099,-460.1016"/>
</g>
<!-- GO:0043226 -->
<g id="node3" class="node">
<title>GO:0043226</title>
<polygon fill="#ffa500" stroke="#000000" points="260.5843,-496.6019 171.3765,-496.6019 171.3765,-455.3981 260.5843,-455.3981 260.5843,-496.6019"/>
<text text-anchor="middle" x="215.9804" y="-480.2" font-family="Times,serif" font-size="14.00" fill="#000000">GO:0043226</text>
<text text-anchor="middle" x="215.9804" y="-463.4" font-family="Times,serif" font-size="14.00" fill="#000000">organelle</text>
</g>
<!-- GO:0043229&#45;&gt;GO:0043226 -->
<g id="edge2" class="edge">
<title>GO:0043229&#45;&gt;GO:0043226</title>
<path fill="none" stroke="#000000" d="M215.9804,-410.8182C215.9804,-421.1705 215.9804,-433.8848 215.9804,-445.3271"/>
<polygon fill="#000000" stroke="#000000" points="212.4805,-445.3735 215.9804,-455.3735 219.4805,-445.3735 212.4805,-445.3735"/>
</g>
<!-- GO:0044464 -->
<g id="node4" class="node">
<title>GO:0044464</title>
<polygon fill="#ffffff" stroke="#000000" points="524.5843,-574.2019 435.3765,-574.2019 435.3765,-532.9981 524.5843,-532.9981 524.5843,-574.2019"/>
<text text-anchor="middle" x="479.9804" y="-557.8" font-family="Times,serif" font-size="14.00" fill="#000000">GO:0044464</text>
<text text-anchor="middle" x="479.9804" y="-541" font-family="Times,serif" font-size="14.00" fill="#000000">cell part</text>
</g>
<!-- GO:0044424&#45;&gt;GO:0044464 -->
<g id="edge3" class="edge">
<title>GO:0044424&#45;&gt;GO:0044464</title>
<path fill="none" stroke="#000000" d="M477.0523,-496.7954C477.4603,-504.7109 477.9346,-513.9109 478.381,-522.5722"/>
<polygon fill="#000000" stroke="#000000" points="474.8953,-522.9407 478.9055,-532.7472 481.886,-522.5803 474.8953,-522.9407"/>
</g>
<!-- GO:0005575 -->
<g id="node5" class="node">
<title>GO:0005575</title>
<polygon fill="#ffffff" stroke="#000000" points="597.6671,-651.8019 470.2937,-651.8019 470.2937,-610.5981 597.6671,-610.5981 597.6671,-651.8019"/>
<text text-anchor="middle" x="533.9804" y="-635.4" font-family="Times,serif" font-size="14.00" fill="#000000">GO:0005575</text>
<text text-anchor="middle" x="533.9804" y="-618.6" font-family="Times,serif" font-size="14.00" fill="#000000">cellular_component</text>
</g>
<!-- GO:0043226&#45;&gt;GO:0005575 -->
<g id="edge4" class="edge">
<title>GO:0043226&#45;&gt;GO:0005575</title>
<path fill="none" stroke="#000000" d="M258.2083,-496.6094C316.0604,-524.8441 419.8787,-575.5126 482.3032,-605.9789"/>
<polygon fill="#000000" stroke="#000000" points="481.0559,-609.2647 491.5778,-610.5054 484.1261,-602.9739 481.0559,-609.2647"/>
</g>
<!-- GO:0044464&#45;&gt;GO:0005575 -->
<g id="edge6" class="edge">
<title>GO:0044464&#45;&gt;GO:0005575</title>
<path fill="none" stroke="#000000" d="M494.4514,-574.3954C500.3228,-582.8328 507.2098,-592.7297 513.5758,-601.8778"/>
<polygon fill="#000000" stroke="#000000" points="510.8846,-604.1382 519.4694,-610.3472 516.6304,-600.1398 510.8846,-604.1382"/>
</g>
<!-- GO:0005737 -->
<g id="node6" class="node">
<title>GO:0005737</title>
<polygon fill="#00ff00" stroke="#000000" points="519.5843,-410.6019 430.3765,-410.6019 430.3765,-369.3981 519.5843,-369.3981 519.5843,-410.6019"/>
<text text-anchor="middle" x="474.9804" y="-394.2" font-family="Times,serif" font-size="14.00" fill="#000000">GO:0005737</text>
<text text-anchor="middle" x="474.9804" y="-377.4" font-family="Times,serif" font-size="14.00" fill="#000000">cytoplasm</text>
</g>
<!-- GO:0005737&#45;&gt;GO:0044424 -->
<g id="edge5" class="edge">
<title>GO:0005737&#45;&gt;GO:0044424</title>
<path fill="none" stroke="#000000" d="M475.2225,-410.8182C475.3428,-421.1705 475.4907,-433.8848 475.6237,-445.3271"/>
<polygon fill="#000000" stroke="#000000" points="472.1244,-445.4149 475.7406,-455.3735 479.124,-445.3335 472.1244,-445.4149"/>
</g>
<!-- GO:0005634 -->
<g id="node7" class="node">
<title>GO:0005634</title>
<polygon fill="#00ff00" stroke="#000000" points="184.5843,-230.2019 95.3765,-230.2019 95.3765,-188.9981 184.5843,-188.9981 184.5843,-230.2019"/>
<text text-anchor="middle" x="139.9804" y="-213.8" font-family="Times,serif" font-size="14.00" fill="#000000">GO:0005634</text>
<text text-anchor="middle" x="139.9804" y="-197" font-family="Times,serif" font-size="14.00" fill="#000000">nucleus</text>
</g>
<!-- GO:0043231 -->
<g id="node8" class="node">
<title>GO:0043231</title>
<polygon fill="#ffff00" stroke="#000000" points="215.3592,-325.0014 64.6016,-325.0014 64.6016,-266.1986 215.3592,-266.1986 215.3592,-325.0014"/>
<text text-anchor="middle" x="139.9804" y="-308.2" font-family="Times,serif" font-size="14.00" fill="#000000">GO:0043231</text>
<text text-anchor="middle" x="139.9804" y="-291.4" font-family="Times,serif" font-size="14.00" fill="#000000">intracellular membrane&#45;</text>
<text text-anchor="middle" x="139.9804" y="-274.6" font-family="Times,serif" font-size="14.00" fill="#000000">bounded organelle</text>
</g>
<!-- GO:0005634&#45;&gt;GO:0043231 -->
<g id="edge7" class="edge">
<title>GO:0005634&#45;&gt;GO:0043231</title>
<path fill="none" stroke="#000000" d="M139.9804,-230.4182C139.9804,-238.1358 139.9804,-247.1662 139.9804,-256.0036"/>
<polygon fill="#000000" stroke="#000000" points="136.4805,-256.1991 139.9804,-266.1991 143.4805,-256.1992 136.4805,-256.1991"/>
</g>
<!-- GO:0043231&#45;&gt;GO:0043229 -->
<g id="edge8" class="edge">
<title>GO:0043231&#45;&gt;GO:0043229</title>
<path fill="none" stroke="#000000" d="M163.6107,-324.9513C172.9376,-336.5363 183.619,-349.8037 192.8922,-361.322"/>
<polygon fill="#000000" stroke="#000000" points="190.3588,-363.7565 199.3562,-369.351 195.8114,-359.3667 190.3588,-363.7565"/>
</g>
<!-- GO:0043227 -->
<g id="node9" class="node">
<title>GO:0043227</title>
<polygon fill="#ffffff" stroke="#000000" points="127.9412,-419.4014 .0196,-419.4014 .0196,-360.5986 127.9412,-360.5986 127.9412,-419.4014"/>
<text text-anchor="middle" x="63.9804" y="-402.6" font-family="Times,serif" font-size="14.00" fill="#000000">GO:0043227</text>
<text text-anchor="middle" x="63.9804" y="-385.8" font-family="Times,serif" font-size="14.00" fill="#000000">membrane&#45;bounded</text>
<text text-anchor="middle" x="63.9804" y="-369" font-family="Times,serif" font-size="14.00" fill="#000000">organelle</text>
</g>
<!-- GO:0043231&#45;&gt;GO:0043227 -->
<g id="edge9" class="edge">
<title>GO:0043231&#45;&gt;GO:0043227</title>
<path fill="none" stroke="#000000" d="M116.3501,-324.9513C109.2727,-333.7422 101.4154,-343.5018 93.9853,-352.7308"/>
<polygon fill="#000000" stroke="#000000" points="91.1409,-350.6826 87.5961,-360.6669 96.5934,-355.0724 91.1409,-350.6826"/>
</g>
<!-- GO:0043227&#45;&gt;GO:0043226 -->
<g id="edge10" class="edge">
<title>GO:0043227&#45;&gt;GO:0043226</title>
<path fill="none" stroke="#000000" d="M115.865,-419.3558C133.5883,-429.3834 153.2634,-440.5154 170.448,-450.2383"/>
<polygon fill="#000000" stroke="#000000" points="168.7569,-453.3028 179.1839,-455.1809 172.204,-447.2103 168.7569,-453.3028"/>
</g>
<!-- GO:0031463 -->
<g id="node10" class="node">
<title>GO:0031463</title>
<polygon fill="#ff0000" stroke="#000000" points="662.1411,-58.6014 525.8197,-58.6014 525.8197,.2014 662.1411,.2014 662.1411,-58.6014"/>
<text text-anchor="middle" x="593.9804" y="-41.8" font-family="Times,serif" font-size="14.00" fill="#000000">GO:0031463</text>
<text text-anchor="middle" x="593.9804" y="-25" font-family="Times,serif" font-size="14.00" fill="#000000">Cul3&#45;RING ubiquitin</text>
<text text-anchor="middle" x="593.9804" y="-8.2" font-family="Times,serif" font-size="14.00" fill="#000000">ligase complex</text>
</g>
<!-- GO:0031461 -->
<g id="node11" class="node">
<title>GO:0031461</title>
<polygon fill="#ffffff" stroke="#000000" points="664.3003,-153.0014 523.6605,-153.0014 523.6605,-94.1986 664.3003,-94.1986 664.3003,-153.0014"/>
<text text-anchor="middle" x="593.9804" y="-136.2" font-family="Times,serif" font-size="14.00" fill="#000000">GO:0031461</text>
<text text-anchor="middle" x="593.9804" y="-119.4" font-family="Times,serif" font-size="14.00" fill="#000000">cullin&#45;RING ubiquitin</text>
<text text-anchor="middle" x="593.9804" y="-102.6" font-family="Times,serif" font-size="14.00" fill="#000000">ligase complex</text>
</g>
<!-- GO:0031463&#45;&gt;GO:0031461 -->
<g id="edge11" class="edge">
<title>GO:0031463&#45;&gt;GO:0031461</title>
<path fill="none" stroke="#000000" d="M593.9804,-58.5513C593.9804,-66.6318 593.9804,-75.5308 593.9804,-84.0838"/>
<polygon fill="#000000" stroke="#000000" points="590.4805,-84.2668 593.9804,-94.2669 597.4805,-84.2669 590.4805,-84.2668"/>
</g>
<!-- GO:0000151 -->
<g id="node12" class="node">
<title>GO:0000151</title>
<polygon fill="#ffffff" stroke="#000000" points="671.4088,-230.2019 516.552,-230.2019 516.552,-188.9981 671.4088,-188.9981 671.4088,-230.2019"/>
<text text-anchor="middle" x="593.9804" y="-213.8" font-family="Times,serif" font-size="14.00" fill="#000000">GO:0000151</text>
<text text-anchor="middle" x="593.9804" y="-197" font-family="Times,serif" font-size="14.00" fill="#000000">ubiquitin ligase complex</text>
</g>
<!-- GO:0031461&#45;&gt;GO:0000151 -->
<g id="edge12" class="edge">
<title>GO:0031461&#45;&gt;GO:0000151</title>
<path fill="none" stroke="#000000" d="M593.9804,-153.1963C593.9804,-161.4638 593.9804,-170.4657 593.9804,-178.8008"/>
<polygon fill="#000000" stroke="#000000" points="590.4805,-178.8965 593.9804,-188.8966 597.4805,-178.8966 590.4805,-178.8965"/>
</g>
<!-- GO:0000151&#45;&gt;GO:0044424 -->
<g id="edge13" class="edge">
<title>GO:0000151&#45;&gt;GO:0044424</title>
<path fill="none" stroke="#000000" d="M590.7075,-230.4869C583.8985,-269.665 565.6916,-355.9301 528.9804,-419.2 523.0122,-429.4859 514.868,-439.4244 506.7546,-448.0346"/>
<polygon fill="#000000" stroke="#000000" points="504.1948,-445.646 499.6881,-455.2346 509.1907,-450.5493 504.1948,-445.646"/>
</g>
<!-- GO:1990234 -->
<g id="node13" class="node">
<title>GO:1990234</title>
<polygon fill="#ffffff" stroke="#000000" points="779.3112,-316.2019 650.6496,-316.2019 650.6496,-274.9981 779.3112,-274.9981 779.3112,-316.2019"/>
<text text-anchor="middle" x="714.9804" y="-299.8" font-family="Times,serif" font-size="14.00" fill="#000000">GO:1990234</text>
<text text-anchor="middle" x="714.9804" y="-283" font-family="Times,serif" font-size="14.00" fill="#000000">transferase complex</text>
</g>
<!-- GO:0000151&#45;&gt;GO:1990234 -->
<g id="edge14" class="edge">
<title>GO:0000151&#45;&gt;GO:1990234</title>
<path fill="none" stroke="#000000" d="M623.2711,-230.4182C639.6201,-242.0381 660.1561,-256.634 677.6485,-269.0665"/>
<polygon fill="#000000" stroke="#000000" points="675.7808,-272.0331 685.9594,-274.9735 679.8361,-266.3274 675.7808,-272.0331"/>
</g>
<!-- GO:1902494 -->
<g id="node14" class="node">
<title>GO:1902494</title>
<polygon fill="#ffffff" stroke="#000000" points="848.6117,-410.6019 733.3491,-410.6019 733.3491,-369.3981 848.6117,-369.3981 848.6117,-410.6019"/>
<text text-anchor="middle" x="790.9804" y="-394.2" font-family="Times,serif" font-size="14.00" fill="#000000">GO:1902494</text>
<text text-anchor="middle" x="790.9804" y="-377.4" font-family="Times,serif" font-size="14.00" fill="#000000">catalytic complex</text>
</g>
<!-- GO:1990234&#45;&gt;GO:1902494 -->
<g id="edge15" class="edge">
<title>GO:1990234&#45;&gt;GO:1902494</title>
<path fill="none" stroke="#000000" d="M731.8473,-316.5504C742.3755,-329.6276 756.0771,-346.6464 767.64,-361.0087"/>
<polygon fill="#000000" stroke="#000000" points="765.1633,-363.5137 774.1607,-369.1081 770.6159,-359.1239 765.1633,-363.5137"/>
</g>
<!-- GO:0043234 -->
<g id="node15" class="node">
<title>GO:0043234</title>
<polygon fill="#ff0000" stroke="#000000" points="811.8478,-496.6019 704.113,-496.6019 704.113,-455.3981 811.8478,-455.3981 811.8478,-496.6019"/>
<text text-anchor="middle" x="757.9804" y="-480.2" font-family="Times,serif" font-size="14.00" fill="#000000">GO:0043234</text>
<text text-anchor="middle" x="757.9804" y="-463.4" font-family="Times,serif" font-size="14.00" fill="#000000">protein complex</text>
</g>
<!-- GO:1902494&#45;&gt;GO:0043234 -->
<g id="edge16" class="edge">
<title>GO:1902494&#45;&gt;GO:0043234</title>
<path fill="none" stroke="#000000" d="M782.992,-410.8182C778.9386,-421.3818 773.9414,-434.4048 769.482,-446.0261"/>
<polygon fill="#000000" stroke="#000000" points="766.2101,-444.7834 765.8952,-455.3735 772.7455,-447.2912 766.2101,-444.7834"/>
</g>
<!-- GO:0032991 -->
<g id="node16" class="node">
<title>GO:0032991</title>
<polygon fill="#ffffff" stroke="#000000" points="835.1477,-574.2019 676.8131,-574.2019 676.8131,-532.9981 835.1477,-532.9981 835.1477,-574.2019"/>
<text text-anchor="middle" x="755.9804" y="-557.8" font-family="Times,serif" font-size="14.00" fill="#000000">GO:0032991</text>
<text text-anchor="middle" x="755.9804" y="-541" font-family="Times,serif" font-size="14.00" fill="#000000">macromolecular complex</text>
</g>
<!-- GO:0043234&#45;&gt;GO:0032991 -->
<g id="edge17" class="edge">
<title>GO:0043234&#45;&gt;GO:0032991</title>
<path fill="none" stroke="#000000" d="M757.4444,-496.7954C757.2404,-504.7109 757.0033,-513.9109 756.7801,-522.5722"/>
<polygon fill="#000000" stroke="#000000" points="753.2767,-522.6603 756.5178,-532.7472 760.2744,-522.8408 753.2767,-522.6603"/>
</g>
<!-- GO:0032991&#45;&gt;GO:0005575 -->
<g id="edge18" class="edge">
<title>GO:0032991&#45;&gt;GO:0005575</title>
<path fill="none" stroke="#000000" d="M696.7801,-574.2934C667.8045,-584.4218 632.7584,-596.6722 602.616,-607.2085"/>
<polygon fill="#000000" stroke="#000000" points="601.3007,-603.9605 593.0157,-610.5642 603.6105,-610.5684 601.3007,-603.9605"/>
</g>
<!-- GO:0044446 -->
<g id="node17" class="node">
<title>GO:0044446</title>
<polygon fill="#00ff00" stroke="#000000" points="715.6988,-419.4014 576.262,-419.4014 576.262,-360.5986 715.6988,-360.5986 715.6988,-419.4014"/>
<text text-anchor="middle" x="645.9804" y="-402.6" font-family="Times,serif" font-size="14.00" fill="#000000">GO:0044446</text>
<text text-anchor="middle" x="645.9804" y="-385.8" font-family="Times,serif" font-size="14.00" fill="#000000">intracellular organelle</text>
<text text-anchor="middle" x="645.9804" y="-369" font-family="Times,serif" font-size="14.00" fill="#000000">part</text>
</g>
<!-- GO:0044446&#45;&gt;GO:0044424 -->
<g id="edge19" class="edge">
<title>GO:0044446&#45;&gt;GO:0044424</title>
<path fill="none" stroke="#000000" d="M587.9515,-419.3558C567.7737,-429.5634 545.3337,-440.9154 525.8725,-450.7605"/>
<polygon fill="#000000" stroke="#000000" points="524.2144,-447.6768 516.8712,-455.3141 527.3743,-453.9231 524.2144,-447.6768"/>
</g>
<!-- GO:0044422 -->
<g id="node18" class="node">
<title>GO:0044422</title>
<polygon fill="#00ff00" stroke="#000000" points="650.8325,-574.2019 557.1283,-574.2019 557.1283,-532.9981 650.8325,-532.9981 650.8325,-574.2019"/>
<text text-anchor="middle" x="603.9804" y="-557.8" font-family="Times,serif" font-size="14.00" fill="#000000">GO:0044422</text>
<text text-anchor="middle" x="603.9804" y="-541" font-family="Times,serif" font-size="14.00" fill="#000000">organelle part</text>
</g>
<!-- GO:0044446&#45;&gt;GO:0044422 -->
<g id="edge20" class="edge">
<title>GO:0044446&#45;&gt;GO:0044422</title>
<path fill="none" stroke="#000000" d="M638.4716,-419.2484C630.9577,-448.517 619.4476,-493.3516 611.8192,-523.066"/>
<polygon fill="#000000" stroke="#000000" points="608.3923,-522.3393 609.2957,-532.8955 615.1725,-524.0799 608.3923,-522.3393"/>
</g>
<!-- GO:0044422&#45;&gt;GO:0005575 -->
<g id="edge21" class="edge">
<title>GO:0044422&#45;&gt;GO:0005575</title>
<path fill="none" stroke="#000000" d="M585.2217,-574.3954C577.3752,-583.0937 568.1295,-593.3433 559.6671,-602.7244"/>
<polygon fill="#000000" stroke="#000000" points="556.8902,-600.5775 552.7909,-610.3472 562.0879,-605.2662 556.8902,-600.5775"/>
</g>
<!-- GO:0044444 -->
<g id="node19" class="node">
<title>GO:0044444</title>
<polygon fill="#00ff00" stroke="#000000" points="412.397,-410.6019 303.5638,-410.6019 303.5638,-369.3981 412.397,-369.3981 412.397,-410.6019"/>
<text text-anchor="middle" x="357.9804" y="-394.2" font-family="Times,serif" font-size="14.00" fill="#000000">GO:0044444</text>
<text text-anchor="middle" x="357.9804" y="-377.4" font-family="Times,serif" font-size="14.00" fill="#000000">cytoplasmic part</text>
</g>
<!-- GO:0044444&#45;&gt;GO:0044424 -->
<g id="edge22" class="edge">
<title>GO:0044444&#45;&gt;GO:0044424</title>
<path fill="none" stroke="#000000" d="M386.5449,-410.8182C402.4885,-422.4381 422.5154,-437.034 439.574,-449.4665"/>
<polygon fill="#000000" stroke="#000000" points="437.536,-452.3121 447.6789,-455.3735 441.659,-446.6551 437.536,-452.3121"/>
</g>
</g>
</svg>
