<?xml version="1.0" encoding="UTF-8" standalone="no"?>
<!DOCTYPE svg PUBLIC "-//W3C//DTD SVG 1.1//EN"
 "http://www.w3.org/Graphics/SVG/1.1/DTD/svg11.dtd">
<!-- Generated by graphviz version 2.40.1 (20161225.0304)
 -->
<!-- Title: G Pages: 1 -->
<svg width="479pt" height="299pt"
 viewBox="0.00 0.00 478.78 299.20" xmlns="http://www.w3.org/2000/svg" xmlns:xlink="http://www.w3.org/1999/xlink">
<g id="graph0" class="graph" transform="scale(1 1) rotate(0) translate(4 295.2)">
<title>G</title>
<polygon fill="#ffffff" stroke="transparent" points="-4,4 -4,-295.2 474.7827,-295.2 474.7827,4 -4,4"/>
<!-- GO:0044464 -->
<g id="node1" class="node">
<title>GO:0044464</title>
<polygon fill="#ff0000" stroke="#000000" points="149.0531,-213.4019 59.8453,-213.4019 59.8453,-172.1981 149.0531,-172.1981 149.0531,-213.4019"/>
<text text-anchor="middle" x="104.4492" y="-197" font-family="Times,serif" font-size="14.00" fill="#000000">GO:0044464</text>
<text text-anchor="middle" x="104.4492" y="-180.2" font-family="Times,serif" font-size="14.00" fill="#000000">cell part</text>
</g>
<!-- GO:0005575 -->
<g id="node2" class="node">
<title>GO:0005575</title>
<polygon fill="#ffffff" stroke="#000000" points="311.1359,-291.0019 183.7625,-291.0019 183.7625,-249.7981 311.1359,-249.7981 311.1359,-291.0019"/>
<text text-anchor="middle" x="247.4492" y="-274.6" font-family="Times,serif" font-size="14.00" fill="#000000">GO:0005575</text>
<text text-anchor="middle" x="247.4492" y="-257.8" font-family="Times,serif" font-size="14.00" fill="#000000">cellular_component</text>
</g>
<!-- GO:0044464&#45;&gt;GO:0005575 -->
<g id="edge1" class="edge">
<title>GO:0044464&#45;&gt;GO:0005575</title>
<path fill="none" stroke="#000000" d="M142.7706,-213.5954C160.4026,-223.1635 181.4936,-234.6087 200.1086,-244.7103"/>
<polygon fill="#000000" stroke="#000000" points="198.5634,-247.8539 209.022,-249.5472 201.9021,-241.7014 198.5634,-247.8539"/>
</g>
<!-- GO:0005737 -->
<g id="node3" class="node">
<title>GO:0005737</title>
<polygon fill="#00ffff" stroke="#000000" points="99.0531,-49.8019 9.8453,-49.8019 9.8453,-8.5981 99.0531,-8.5981 99.0531,-49.8019"/>
<text text-anchor="middle" x="54.4492" y="-33.4" font-family="Times,serif" font-size="14.00" fill="#000000">GO:0005737</text>
<text text-anchor="middle" x="54.4492" y="-16.6" font-family="Times,serif" font-size="14.00" fill="#000000">cytoplasm</text>
</g>
<!-- GO:0044424 -->
<g id="node4" class="node">
<title>GO:0044424</title>
<polygon fill="#ff0000" stroke="#000000" points="108.8476,-135.8019 .0508,-135.8019 .0508,-94.5981 108.8476,-94.5981 108.8476,-135.8019"/>
<text text-anchor="middle" x="54.4492" y="-119.4" font-family="Times,serif" font-size="14.00" fill="#000000">GO:0044424</text>
<text text-anchor="middle" x="54.4492" y="-102.6" font-family="Times,serif" font-size="14.00" fill="#000000">intracellular part</text>
</g>
<!-- GO:0005737&#45;&gt;GO:0044424 -->
<g id="edge2" class="edge">
<title>GO:0005737&#45;&gt;GO:0044424</title>
<path fill="none" stroke="#000000" d="M54.4492,-50.0182C54.4492,-60.3705 54.4492,-73.0848 54.4492,-84.5271"/>
<polygon fill="#000000" stroke="#000000" points="50.9493,-84.5735 54.4492,-94.5735 57.9493,-84.5735 50.9493,-84.5735"/>
</g>
<!-- GO:0044424&#45;&gt;GO:0044464 -->
<g id="edge3" class="edge">
<title>GO:0044424&#45;&gt;GO:0044464</title>
<path fill="none" stroke="#000000" d="M67.8483,-135.9954C73.2847,-144.4328 79.6616,-154.3297 85.5561,-163.4778"/>
<polygon fill="#000000" stroke="#000000" points="82.6546,-165.4368 91.0131,-171.9472 88.5389,-161.6453 82.6546,-165.4368"/>
</g>
<!-- GO:0044446 -->
<g id="node5" class="node">
<title>GO:0044446</title>
<polygon fill="#00ffff" stroke="#000000" points="318.1676,-58.6014 178.7308,-58.6014 178.7308,.2014 318.1676,.2014 318.1676,-58.6014"/>
<text text-anchor="middle" x="248.4492" y="-41.8" font-family="Times,serif" font-size="14.00" fill="#000000">GO:0044446</text>
<text text-anchor="middle" x="248.4492" y="-25" font-family="Times,serif" font-size="14.00" fill="#000000">intracellular organelle</text>
<text text-anchor="middle" x="248.4492" y="-8.2" font-family="Times,serif" font-size="14.00" fill="#000000">part</text>
</g>
<!-- GO:0044446&#45;&gt;GO:0044424 -->
<g id="edge4" class="edge">
<title>GO:0044446&#45;&gt;GO:0044424</title>
<path fill="none" stroke="#000000" d="M182.4989,-58.4357C159.0469,-68.8319 132.8879,-80.4282 110.3574,-90.416"/>
<polygon fill="#000000" stroke="#000000" points="108.6657,-87.3374 100.9421,-94.5898 111.5025,-93.7368 108.6657,-87.3374"/>
</g>
<!-- GO:0044422 -->
<g id="node6" class="node">
<title>GO:0044422</title>
<polygon fill="#00ffff" stroke="#000000" points="357.3013,-135.8019 263.5971,-135.8019 263.5971,-94.5981 357.3013,-94.5981 357.3013,-135.8019"/>
<text text-anchor="middle" x="310.4492" y="-119.4" font-family="Times,serif" font-size="14.00" fill="#000000">GO:0044422</text>
<text text-anchor="middle" x="310.4492" y="-102.6" font-family="Times,serif" font-size="14.00" fill="#000000">organelle part</text>
</g>
<!-- GO:0044446&#45;&gt;GO:0044422 -->
<g id="edge5" class="edge">
<title>GO:0044446&#45;&gt;GO:0044422</title>
<path fill="none" stroke="#000000" d="M269.7861,-58.7963C276.2099,-67.7068 283.2488,-77.4705 289.6381,-86.3329"/>
<polygon fill="#000000" stroke="#000000" points="286.8363,-88.4316 295.5235,-94.4966 292.5145,-84.3379 286.8363,-88.4316"/>
</g>
<!-- GO:0044422&#45;&gt;GO:0005575 -->
<g id="edge6" class="edge">
<title>GO:0044422&#45;&gt;GO:0005575</title>
<path fill="none" stroke="#000000" d="M302.0833,-135.8094C291.2104,-162.5947 272.1419,-209.5697 259.6542,-240.3331"/>
<polygon fill="#000000" stroke="#000000" points="256.368,-239.1232 255.8497,-249.7054 262.854,-241.7561 256.368,-239.1232"/>
</g>
<!-- GO:0016020 -->
<g id="node7" class="node">
<title>GO:0016020</title>
<polygon fill="#00ffff" stroke="#000000" points="256.0531,-213.4019 166.8453,-213.4019 166.8453,-172.1981 256.0531,-172.1981 256.0531,-213.4019"/>
<text text-anchor="middle" x="211.4492" y="-197" font-family="Times,serif" font-size="14.00" fill="#000000">GO:0016020</text>
<text text-anchor="middle" x="211.4492" y="-180.2" font-family="Times,serif" font-size="14.00" fill="#000000">membrane</text>
</g>
<!-- GO:0016020&#45;&gt;GO:0005575 -->
<g id="edge7" class="edge">
<title>GO:0016020&#45;&gt;GO:0005575</title>
<path fill="none" stroke="#000000" d="M221.0965,-213.5954C224.8897,-221.7718 229.3188,-231.3189 233.4514,-240.227"/>
<polygon fill="#000000" stroke="#000000" points="230.3918,-241.9488 237.7752,-249.5472 236.7418,-239.0029 230.3918,-241.9488"/>
</g>
<!-- GO:0005886 -->
<g id="node8" class="node">
<title>GO:0005886</title>
<polygon fill="#00ffff" stroke="#000000" points="245.69,-135.8019 127.2084,-135.8019 127.2084,-94.5981 245.69,-94.5981 245.69,-135.8019"/>
<text text-anchor="middle" x="186.4492" y="-119.4" font-family="Times,serif" font-size="14.00" fill="#000000">GO:0005886</text>
<text text-anchor="middle" x="186.4492" y="-102.6" font-family="Times,serif" font-size="14.00" fill="#000000">plasma membrane</text>
</g>
<!-- GO:0005886&#45;&gt;GO:0044464 -->
<g id="edge9" class="edge">
<title>GO:0005886&#45;&gt;GO:0044464</title>
<path fill="none" stroke="#000000" d="M164.4747,-135.9954C155.0993,-144.8677 144.0186,-155.3539 133.9457,-164.8862"/>
<polygon fill="#000000" stroke="#000000" points="131.3419,-162.5315 126.4844,-171.9472 136.1534,-167.6158 131.3419,-162.5315"/>
</g>
<!-- GO:0005886&#45;&gt;GO:0016020 -->
<g id="edge8" class="edge">
<title>GO:0005886&#45;&gt;GO:0016020</title>
<path fill="none" stroke="#000000" d="M193.1487,-135.9954C195.7549,-144.0848 198.7932,-153.5159 201.6368,-162.3424"/>
<polygon fill="#000000" stroke="#000000" points="198.3333,-163.5023 204.7312,-171.9472 204.996,-161.3557 198.3333,-163.5023"/>
</g>
<!-- GO:0032991 -->
<g id="node9" class="node">
<title>GO:0032991</title>
<polygon fill="#00ffff" stroke="#000000" points="470.6165,-213.4019 312.2819,-213.4019 312.2819,-172.1981 470.6165,-172.1981 470.6165,-213.4019"/>
<text text-anchor="middle" x="391.4492" y="-197" font-family="Times,serif" font-size="14.00" fill="#000000">GO:0032991</text>
<text text-anchor="middle" x="391.4492" y="-180.2" font-family="Times,serif" font-size="14.00" fill="#000000">macromolecular complex</text>
</g>
<!-- GO:0032991&#45;&gt;GO:0005575 -->
<g id="edge10" class="edge">
<title>GO:0032991&#45;&gt;GO:0005575</title>
<path fill="none" stroke="#000000" d="M352.8598,-213.5954C335.1045,-223.1635 313.8661,-234.6087 295.1208,-244.7103"/>
<polygon fill="#000000" stroke="#000000" points="293.2878,-241.7222 286.1451,-249.5472 296.6086,-247.8844 293.2878,-241.7222"/>
</g>
</g>
</svg>
