<?xml version="1.0" encoding="UTF-8" standalone="no"?>
<!DOCTYPE svg PUBLIC "-//W3C//DTD SVG 1.1//EN"
 "http://www.w3.org/Graphics/SVG/1.1/DTD/svg11.dtd">
<!-- Generated by graphviz version 2.40.1 (20161225.0304)
 -->
<!-- Title: G Pages: 1 -->
<svg width="330pt" height="454pt"
 viewBox="0.00 0.00 330.26 454.40" xmlns="http://www.w3.org/2000/svg" xmlns:xlink="http://www.w3.org/1999/xlink">
<g id="graph0" class="graph" transform="scale(1 1) rotate(0) translate(4 450.4)">
<title>G</title>
<polygon fill="#ffffff" stroke="transparent" points="-4,4 -4,-450.4 326.2606,-450.4 326.2606,4 -4,4"/>
<!-- GO:0097159 -->
<g id="node1" class="node">
<title>GO:0097159</title>
<polygon fill="#ffa500" stroke="#000000" points="157.2667,-291.4014 .2439,-291.4014 .2439,-232.5986 157.2667,-232.5986 157.2667,-291.4014"/>
<text text-anchor="middle" x="78.7553" y="-274.6" font-family="Times,serif" font-size="14.00" fill="#000000">GO:0097159</text>
<text text-anchor="middle" x="78.7553" y="-257.8" font-family="Times,serif" font-size="14.00" fill="#000000">organic cyclic compound</text>
<text text-anchor="middle" x="78.7553" y="-241" font-family="Times,serif" font-size="14.00" fill="#000000">binding</text>
</g>
<!-- GO:0005488 -->
<g id="node2" class="node">
<title>GO:0005488</title>
<polygon fill="#ffffff" stroke="#000000" points="208.3592,-368.6019 119.1514,-368.6019 119.1514,-327.3981 208.3592,-327.3981 208.3592,-368.6019"/>
<text text-anchor="middle" x="163.7553" y="-352.2" font-family="Times,serif" font-size="14.00" fill="#000000">GO:0005488</text>
<text text-anchor="middle" x="163.7553" y="-335.4" font-family="Times,serif" font-size="14.00" fill="#000000">binding</text>
</g>
<!-- GO:0097159&#45;&gt;GO:0005488 -->
<g id="edge1" class="edge">
<title>GO:0097159&#45;&gt;GO:0005488</title>
<path fill="none" stroke="#000000" d="M108.0075,-291.5963C117.0867,-300.7824 127.0622,-310.8752 136.034,-319.9526"/>
<polygon fill="#000000" stroke="#000000" points="133.7736,-322.6446 143.2926,-327.2966 138.7523,-317.7239 133.7736,-322.6446"/>
</g>
<!-- GO:0003674 -->
<g id="node3" class="node">
<title>GO:0003674</title>
<polygon fill="#ffffff" stroke="#000000" points="226.3884,-446.2019 101.1222,-446.2019 101.1222,-404.9981 226.3884,-404.9981 226.3884,-446.2019"/>
<text text-anchor="middle" x="163.7553" y="-429.8" font-family="Times,serif" font-size="14.00" fill="#000000">GO:0003674</text>
<text text-anchor="middle" x="163.7553" y="-413" font-family="Times,serif" font-size="14.00" fill="#000000">molecular_function</text>
</g>
<!-- GO:0005488&#45;&gt;GO:0003674 -->
<g id="edge2" class="edge">
<title>GO:0005488&#45;&gt;GO:0003674</title>
<path fill="none" stroke="#000000" d="M163.7553,-368.7954C163.7553,-376.7109 163.7553,-385.9109 163.7553,-394.5722"/>
<polygon fill="#000000" stroke="#000000" points="160.2554,-394.7472 163.7553,-404.7472 167.2554,-394.7473 160.2554,-394.7472"/>
</g>
<!-- GO:0044822 -->
<g id="node4" class="node">
<title>GO:0044822</title>
<polygon fill="#ffa500" stroke="#000000" points="233.4051,-41.4019 94.1055,-41.4019 94.1055,-.1981 233.4051,-.1981 233.4051,-41.4019"/>
<text text-anchor="middle" x="163.7553" y="-25" font-family="Times,serif" font-size="14.00" fill="#000000">GO:0044822</text>
<text text-anchor="middle" x="163.7553" y="-8.2" font-family="Times,serif" font-size="14.00" fill="#000000">poly(A) RNA binding</text>
</g>
<!-- GO:0003723 -->
<g id="node5" class="node">
<title>GO:0003723</title>
<polygon fill="#ffffff" stroke="#000000" points="209.5865,-119.0019 117.9241,-119.0019 117.9241,-77.7981 209.5865,-77.7981 209.5865,-119.0019"/>
<text text-anchor="middle" x="163.7553" y="-102.6" font-family="Times,serif" font-size="14.00" fill="#000000">GO:0003723</text>
<text text-anchor="middle" x="163.7553" y="-85.8" font-family="Times,serif" font-size="14.00" fill="#000000">RNA binding</text>
</g>
<!-- GO:0044822&#45;&gt;GO:0003723 -->
<g id="edge3" class="edge">
<title>GO:0044822&#45;&gt;GO:0003723</title>
<path fill="none" stroke="#000000" d="M163.7553,-41.5954C163.7553,-49.5109 163.7553,-58.7109 163.7553,-67.3722"/>
<polygon fill="#000000" stroke="#000000" points="160.2554,-67.5472 163.7553,-77.5472 167.2554,-67.5473 160.2554,-67.5472"/>
</g>
<!-- GO:0003676 -->
<g id="node6" class="node">
<title>GO:0003676</title>
<polygon fill="#ffffff" stroke="#000000" points="228.2822,-196.6019 99.2284,-196.6019 99.2284,-155.3981 228.2822,-155.3981 228.2822,-196.6019"/>
<text text-anchor="middle" x="163.7553" y="-180.2" font-family="Times,serif" font-size="14.00" fill="#000000">GO:0003676</text>
<text text-anchor="middle" x="163.7553" y="-163.4" font-family="Times,serif" font-size="14.00" fill="#000000">nucleic acid binding</text>
</g>
<!-- GO:0003723&#45;&gt;GO:0003676 -->
<g id="edge4" class="edge">
<title>GO:0003723&#45;&gt;GO:0003676</title>
<path fill="none" stroke="#000000" d="M163.7553,-119.1954C163.7553,-127.1109 163.7553,-136.3109 163.7553,-144.9722"/>
<polygon fill="#000000" stroke="#000000" points="160.2554,-145.1472 163.7553,-155.1472 167.2554,-145.1473 160.2554,-145.1472"/>
</g>
<!-- GO:0003676&#45;&gt;GO:0097159 -->
<g id="edge5" class="edge">
<title>GO:0003676&#45;&gt;GO:0097159</title>
<path fill="none" stroke="#000000" d="M143.1792,-196.8182C134.7222,-205.3747 124.6703,-215.5448 115.0517,-225.2766"/>
<polygon fill="#000000" stroke="#000000" points="112.3546,-223.0264 107.8143,-232.5991 117.3332,-227.9472 112.3546,-223.0264"/>
</g>
<!-- GO:1901363 -->
<g id="node7" class="node">
<title>GO:1901363</title>
<polygon fill="#ffa500" stroke="#000000" points="322.2659,-291.4014 175.2447,-291.4014 175.2447,-232.5986 322.2659,-232.5986 322.2659,-291.4014"/>
<text text-anchor="middle" x="248.7553" y="-274.6" font-family="Times,serif" font-size="14.00" fill="#000000">GO:1901363</text>
<text text-anchor="middle" x="248.7553" y="-257.8" font-family="Times,serif" font-size="14.00" fill="#000000">heterocyclic compound</text>
<text text-anchor="middle" x="248.7553" y="-241" font-family="Times,serif" font-size="14.00" fill="#000000">binding</text>
</g>
<!-- GO:0003676&#45;&gt;GO:1901363 -->
<g id="edge6" class="edge">
<title>GO:0003676&#45;&gt;GO:1901363</title>
<path fill="none" stroke="#000000" d="M184.3314,-196.8182C192.7884,-205.3747 202.8403,-215.5448 212.4589,-225.2766"/>
<polygon fill="#000000" stroke="#000000" points="210.1774,-227.9472 219.6963,-232.5991 215.156,-223.0264 210.1774,-227.9472"/>
</g>
<!-- GO:1901363&#45;&gt;GO:0005488 -->
<g id="edge7" class="edge">
<title>GO:1901363&#45;&gt;GO:0005488</title>
<path fill="none" stroke="#000000" d="M219.5031,-291.5963C210.4239,-300.7824 200.4484,-310.8752 191.4766,-319.9526"/>
<polygon fill="#000000" stroke="#000000" points="188.7583,-317.7239 184.218,-327.2966 193.737,-322.6446 188.7583,-317.7239"/>
</g>
</g>
</svg>
