<?xml version="1.0" encoding="UTF-8" standalone="no"?>
<!DOCTYPE svg PUBLIC "-//W3C//DTD SVG 1.1//EN"
 "http://www.w3.org/Graphics/SVG/1.1/DTD/svg11.dtd">
<!-- Generated by graphviz version 2.40.1 (20161225.0304)
 -->
<!-- Title: G Pages: 1 -->
<svg width="352pt" height="727pt"
 viewBox="0.00 0.00 351.95 727.20" xmlns="http://www.w3.org/2000/svg" xmlns:xlink="http://www.w3.org/1999/xlink">
<g id="graph0" class="graph" transform="scale(1 1) rotate(0) translate(4 723.2)">
<title>G</title>
<polygon fill="#ffffff" stroke="transparent" points="-4,4 -4,-723.2 347.9524,-723.2 347.9524,4 -4,4"/>
<!-- GO:0065003 -->
<g id="node1" class="node">
<title>GO:0065003</title>
<polygon fill="#ff0000" stroke="#000000" points="343.7862,-341.8014 185.4516,-341.8014 185.4516,-282.9986 343.7862,-282.9986 343.7862,-341.8014"/>
<text text-anchor="middle" x="264.6189" y="-325" font-family="Times,serif" font-size="14.00" fill="#000000">GO:0065003</text>
<text text-anchor="middle" x="264.6189" y="-308.2" font-family="Times,serif" font-size="14.00" fill="#000000">macromolecular complex</text>
<text text-anchor="middle" x="264.6189" y="-291.4" font-family="Times,serif" font-size="14.00" fill="#000000">assembly</text>
</g>
<!-- GO:0043933 -->
<g id="node2" class="node">
<title>GO:0043933</title>
<polygon fill="#ffffff" stroke="#000000" points="184.7862,-436.2014 26.4516,-436.2014 26.4516,-377.3986 184.7862,-377.3986 184.7862,-436.2014"/>
<text text-anchor="middle" x="105.6189" y="-419.4" font-family="Times,serif" font-size="14.00" fill="#000000">GO:0043933</text>
<text text-anchor="middle" x="105.6189" y="-402.6" font-family="Times,serif" font-size="14.00" fill="#000000">macromolecular complex</text>
<text text-anchor="middle" x="105.6189" y="-385.8" font-family="Times,serif" font-size="14.00" fill="#000000">subunit organization</text>
</g>
<!-- GO:0065003&#45;&gt;GO:0043933 -->
<g id="edge1" class="edge">
<title>GO:0065003&#45;&gt;GO:0043933</title>
<path fill="none" stroke="#000000" d="M215.1819,-341.7513C198.8796,-351.4301 180.5994,-362.2833 163.7117,-372.3097"/>
<polygon fill="#000000" stroke="#000000" points="161.8372,-369.3521 155.0253,-377.4669 165.4109,-375.3712 161.8372,-369.3521"/>
</g>
<!-- GO:0022607 -->
<g id="node3" class="node">
<title>GO:0022607</title>
<polygon fill="#ffffff" stroke="#000000" points="326.3059,-436.2014 202.9319,-436.2014 202.9319,-377.3986 326.3059,-377.3986 326.3059,-436.2014"/>
<text text-anchor="middle" x="264.6189" y="-419.4" font-family="Times,serif" font-size="14.00" fill="#000000">GO:0022607</text>
<text text-anchor="middle" x="264.6189" y="-402.6" font-family="Times,serif" font-size="14.00" fill="#000000">cellular component</text>
<text text-anchor="middle" x="264.6189" y="-385.8" font-family="Times,serif" font-size="14.00" fill="#000000">assembly</text>
</g>
<!-- GO:0065003&#45;&gt;GO:0022607 -->
<g id="edge2" class="edge">
<title>GO:0065003&#45;&gt;GO:0022607</title>
<path fill="none" stroke="#000000" d="M264.6189,-341.7513C264.6189,-349.8318 264.6189,-358.7308 264.6189,-367.2838"/>
<polygon fill="#000000" stroke="#000000" points="261.119,-367.4668 264.6189,-377.4669 268.119,-367.4669 261.119,-367.4668"/>
</g>
<!-- GO:0016043 -->
<g id="node4" class="node">
<title>GO:0016043</title>
<polygon fill="#ffffff" stroke="#000000" points="246.3059,-530.6014 122.9319,-530.6014 122.9319,-471.7986 246.3059,-471.7986 246.3059,-530.6014"/>
<text text-anchor="middle" x="184.6189" y="-513.8" font-family="Times,serif" font-size="14.00" fill="#000000">GO:0016043</text>
<text text-anchor="middle" x="184.6189" y="-497" font-family="Times,serif" font-size="14.00" fill="#000000">cellular component</text>
<text text-anchor="middle" x="184.6189" y="-480.2" font-family="Times,serif" font-size="14.00" fill="#000000">organization</text>
</g>
<!-- GO:0043933&#45;&gt;GO:0016043 -->
<g id="edge3" class="edge">
<title>GO:0043933&#45;&gt;GO:0016043</title>
<path fill="none" stroke="#000000" d="M130.1819,-436.1513C137.5387,-444.9422 145.7062,-454.7018 153.4296,-463.9308"/>
<polygon fill="#000000" stroke="#000000" points="150.9691,-466.4442 160.071,-471.8669 156.3373,-461.9517 150.9691,-466.4442"/>
</g>
<!-- GO:0022607&#45;&gt;GO:0016043 -->
<g id="edge4" class="edge">
<title>GO:0022607&#45;&gt;GO:0016043</title>
<path fill="none" stroke="#000000" d="M239.7449,-436.1513C232.2198,-445.031 223.857,-454.899 215.9661,-464.2103"/>
<polygon fill="#000000" stroke="#000000" points="213.2726,-461.975 209.4775,-471.8669 218.6129,-466.5007 213.2726,-461.975"/>
</g>
<!-- GO:0009987 -->
<g id="node5" class="node">
<title>GO:0009987</title>
<polygon fill="#ff0000" stroke="#000000" points="170.5751,-624.6019 66.6627,-624.6019 66.6627,-583.3981 170.5751,-583.3981 170.5751,-624.6019"/>
<text text-anchor="middle" x="118.6189" y="-608.2" font-family="Times,serif" font-size="14.00" fill="#000000">GO:0009987</text>
<text text-anchor="middle" x="118.6189" y="-591.4" font-family="Times,serif" font-size="14.00" fill="#000000">cellular process</text>
</g>
<!-- GO:0016043&#45;&gt;GO:0009987 -->
<g id="edge5" class="edge">
<title>GO:0016043&#45;&gt;GO:0009987</title>
<path fill="none" stroke="#000000" d="M165.7059,-530.6584C156.8318,-544.4805 146.2845,-560.9087 137.424,-574.7096"/>
<polygon fill="#000000" stroke="#000000" points="134.3369,-573.0397 131.8795,-583.3456 140.2274,-576.8216 134.3369,-573.0397"/>
</g>
<!-- GO:0071840 -->
<g id="node6" class="node">
<title>GO:0071840</title>
<polygon fill="#ffffff" stroke="#000000" points="312.3059,-641.7003 188.9319,-641.7003 188.9319,-566.2997 312.3059,-566.2997 312.3059,-641.7003"/>
<text text-anchor="middle" x="250.6189" y="-625" font-family="Times,serif" font-size="14.00" fill="#000000">GO:0071840</text>
<text text-anchor="middle" x="250.6189" y="-608.2" font-family="Times,serif" font-size="14.00" fill="#000000">cellular component</text>
<text text-anchor="middle" x="250.6189" y="-591.4" font-family="Times,serif" font-size="14.00" fill="#000000">organization or</text>
<text text-anchor="middle" x="250.6189" y="-574.6" font-family="Times,serif" font-size="14.00" fill="#000000">biogenesis</text>
</g>
<!-- GO:0016043&#45;&gt;GO:0071840 -->
<g id="edge6" class="edge">
<title>GO:0016043&#45;&gt;GO:0071840</title>
<path fill="none" stroke="#000000" d="M203.5319,-530.6584C208.901,-539.0212 214.8826,-548.338 220.7325,-557.4497"/>
<polygon fill="#000000" stroke="#000000" points="217.9287,-559.5609 226.2766,-566.085 223.8192,-555.779 217.9287,-559.5609"/>
</g>
<!-- GO:0008150 -->
<g id="node7" class="node">
<title>GO:0008150</title>
<polygon fill="#ffffff" stroke="#000000" points="245.0895,-719.0019 124.1483,-719.0019 124.1483,-677.7981 245.0895,-677.7981 245.0895,-719.0019"/>
<text text-anchor="middle" x="184.6189" y="-702.6" font-family="Times,serif" font-size="14.00" fill="#000000">GO:0008150</text>
<text text-anchor="middle" x="184.6189" y="-685.8" font-family="Times,serif" font-size="14.00" fill="#000000">biological_process</text>
</g>
<!-- GO:0009987&#45;&gt;GO:0008150 -->
<g id="edge7" class="edge">
<title>GO:0009987&#45;&gt;GO:0008150</title>
<path fill="none" stroke="#000000" d="M133.2664,-624.9504C142.3239,-637.9054 154.086,-654.7287 164.0675,-669.0053"/>
<polygon fill="#000000" stroke="#000000" points="161.4138,-671.318 170.0123,-677.5081 167.1508,-667.307 161.4138,-671.318"/>
</g>
<!-- GO:0071840&#45;&gt;GO:0008150 -->
<g id="edge8" class="edge">
<title>GO:0071840&#45;&gt;GO:0008150</title>
<path fill="none" stroke="#000000" d="M224.1545,-641.8522C217.753,-651.0082 211.0097,-660.6532 204.941,-669.3333"/>
<polygon fill="#000000" stroke="#000000" points="201.9963,-667.4368 199.1348,-677.6379 207.7332,-671.4478 201.9963,-667.4368"/>
</g>
<!-- GO:0006376 -->
<g id="node8" class="node">
<title>GO:0006376</title>
<polygon fill="#ffa500" stroke="#000000" points="231.1556,-58.6014 116.0822,-58.6014 116.0822,.2014 231.1556,.2014 231.1556,-58.6014"/>
<text text-anchor="middle" x="173.6189" y="-41.8" font-family="Times,serif" font-size="14.00" fill="#000000">GO:0006376</text>
<text text-anchor="middle" x="173.6189" y="-25" font-family="Times,serif" font-size="14.00" fill="#000000">mRNA splice site</text>
<text text-anchor="middle" x="173.6189" y="-8.2" font-family="Times,serif" font-size="14.00" fill="#000000">selection</text>
</g>
<!-- GO:0022618 -->
<g id="node9" class="node">
<title>GO:0022618</title>
<polygon fill="#ffffff" stroke="#000000" points="257.3569,-153.0014 89.8809,-153.0014 89.8809,-94.1986 257.3569,-94.1986 257.3569,-153.0014"/>
<text text-anchor="middle" x="173.6189" y="-136.2" font-family="Times,serif" font-size="14.00" fill="#000000">GO:0022618</text>
<text text-anchor="middle" x="173.6189" y="-119.4" font-family="Times,serif" font-size="14.00" fill="#000000">ribonucleoprotein complex</text>
<text text-anchor="middle" x="173.6189" y="-102.6" font-family="Times,serif" font-size="14.00" fill="#000000">assembly</text>
</g>
<!-- GO:0006376&#45;&gt;GO:0022618 -->
<g id="edge9" class="edge">
<title>GO:0006376&#45;&gt;GO:0022618</title>
<path fill="none" stroke="#000000" d="M173.6189,-58.5513C173.6189,-66.6318 173.6189,-75.5308 173.6189,-84.0838"/>
<polygon fill="#000000" stroke="#000000" points="170.119,-84.2668 173.6189,-94.2669 177.119,-84.2669 170.119,-84.2668"/>
</g>
<!-- GO:0071826 -->
<g id="node10" class="node">
<title>GO:0071826</title>
<polygon fill="#ffffff" stroke="#000000" points="167.3569,-341.8014 -.1191,-341.8014 -.1191,-282.9986 167.3569,-282.9986 167.3569,-341.8014"/>
<text text-anchor="middle" x="83.6189" y="-325" font-family="Times,serif" font-size="14.00" fill="#000000">GO:0071826</text>
<text text-anchor="middle" x="83.6189" y="-308.2" font-family="Times,serif" font-size="14.00" fill="#000000">ribonucleoprotein complex</text>
<text text-anchor="middle" x="83.6189" y="-291.4" font-family="Times,serif" font-size="14.00" fill="#000000">subunit organization</text>
</g>
<!-- GO:0022618&#45;&gt;GO:0071826 -->
<g id="edge10" class="edge">
<title>GO:0022618&#45;&gt;GO:0071826</title>
<path fill="none" stroke="#000000" d="M159.5564,-153.1C144.0354,-185.6596 118.9974,-238.1838 101.9491,-273.9472"/>
<polygon fill="#000000" stroke="#000000" points="98.7264,-272.5742 97.5827,-283.1072 105.0452,-275.5864 98.7264,-272.5742"/>
</g>
<!-- GO:0034622 -->
<g id="node11" class="node">
<title>GO:0034622</title>
<polygon fill="#ffffff" stroke="#000000" points="321.0523,-247.4014 168.1855,-247.4014 168.1855,-188.5986 321.0523,-188.5986 321.0523,-247.4014"/>
<text text-anchor="middle" x="244.6189" y="-230.6" font-family="Times,serif" font-size="14.00" fill="#000000">GO:0034622</text>
<text text-anchor="middle" x="244.6189" y="-213.8" font-family="Times,serif" font-size="14.00" fill="#000000">cellular macromolecular</text>
<text text-anchor="middle" x="244.6189" y="-197" font-family="Times,serif" font-size="14.00" fill="#000000">complex assembly</text>
</g>
<!-- GO:0022618&#45;&gt;GO:0034622 -->
<g id="edge11" class="edge">
<title>GO:0022618&#45;&gt;GO:0034622</title>
<path fill="none" stroke="#000000" d="M195.6946,-152.9513C202.2395,-161.6534 209.4985,-171.3047 216.3776,-180.4509"/>
<polygon fill="#000000" stroke="#000000" points="213.7489,-182.7788 222.5569,-188.6669 219.3432,-178.5712 213.7489,-182.7788"/>
</g>
<!-- GO:0071826&#45;&gt;GO:0043933 -->
<g id="edge12" class="edge">
<title>GO:0071826&#45;&gt;GO:0043933</title>
<path fill="none" stroke="#000000" d="M90.4592,-341.7513C92.3631,-349.9206 94.4619,-358.9264 96.4753,-367.5657"/>
<polygon fill="#000000" stroke="#000000" points="93.1044,-368.5223 98.7828,-377.4669 99.9217,-366.9334 93.1044,-368.5223"/>
</g>
<!-- GO:0034622&#45;&gt;GO:0065003 -->
<g id="edge13" class="edge">
<title>GO:0034622&#45;&gt;GO:0065003</title>
<path fill="none" stroke="#000000" d="M250.8374,-247.3513C252.5682,-255.5206 254.4762,-264.5264 256.3065,-273.1657"/>
<polygon fill="#000000" stroke="#000000" points="252.9075,-274.0095 258.4043,-283.0669 259.7555,-272.5586 252.9075,-274.0095"/>
</g>
</g>
</svg>
