<?xml version="1.0" encoding="UTF-8" standalone="no"?>
<!DOCTYPE svg PUBLIC "-//W3C//DTD SVG 1.1//EN"
 "http://www.w3.org/Graphics/SVG/1.1/DTD/svg11.dtd">
<!-- Generated by graphviz version 2.40.1 (20161225.0304)
 -->
<!-- Title: G Pages: 1 -->
<svg width="862pt" height="488pt"
 viewBox="0.00 0.00 862.42 488.00" xmlns="http://www.w3.org/2000/svg" xmlns:xlink="http://www.w3.org/1999/xlink">
<g id="graph0" class="graph" transform="scale(1 1) rotate(0) translate(4 484)">
<title>G</title>
<polygon fill="#ffffff" stroke="transparent" points="-4,4 -4,-484 858.4159,-484 858.4159,4 -4,4"/>
<!-- GO:0044260 -->
<g id="node1" class="node">
<title>GO:0044260</title>
<polygon fill="#00ffff" stroke="#000000" points="266.115,-136.2014 118.5702,-136.2014 118.5702,-77.3986 266.115,-77.3986 266.115,-136.2014"/>
<text text-anchor="middle" x="192.3426" y="-119.4" font-family="Times,serif" font-size="14.00" fill="#000000">GO:0044260</text>
<text text-anchor="middle" x="192.3426" y="-102.6" font-family="Times,serif" font-size="14.00" fill="#000000">cellular macromolecule</text>
<text text-anchor="middle" x="192.3426" y="-85.8" font-family="Times,serif" font-size="14.00" fill="#000000">metabolic process</text>
</g>
<!-- GO:0044237 -->
<g id="node2" class="node">
<title>GO:0044237</title>
<polygon fill="#00ff00" stroke="#000000" points="434.5254,-325.0014 318.1598,-325.0014 318.1598,-266.1986 434.5254,-266.1986 434.5254,-325.0014"/>
<text text-anchor="middle" x="376.3426" y="-308.2" font-family="Times,serif" font-size="14.00" fill="#000000">GO:0044237</text>
<text text-anchor="middle" x="376.3426" y="-291.4" font-family="Times,serif" font-size="14.00" fill="#000000">cellular metabolic</text>
<text text-anchor="middle" x="376.3426" y="-274.6" font-family="Times,serif" font-size="14.00" fill="#000000">process</text>
</g>
<!-- GO:0044260&#45;&gt;GO:0044237 -->
<g id="edge1" class="edge">
<title>GO:0044260&#45;&gt;GO:0044237</title>
<path fill="none" stroke="#000000" d="M221.0926,-136.3C253.3645,-169.4138 305.7615,-223.1777 340.6329,-258.9587"/>
<polygon fill="#000000" stroke="#000000" points="338.3085,-261.5884 347.7945,-266.3072 343.3216,-256.7028 338.3085,-261.5884"/>
</g>
<!-- GO:0043170 -->
<g id="node3" class="node">
<title>GO:0043170</title>
<polygon fill="#00ffff" stroke="#000000" points="191.8448,-230.6014 30.8404,-230.6014 30.8404,-171.7986 191.8448,-171.7986 191.8448,-230.6014"/>
<text text-anchor="middle" x="111.3426" y="-213.8" font-family="Times,serif" font-size="14.00" fill="#000000">GO:0043170</text>
<text text-anchor="middle" x="111.3426" y="-197" font-family="Times,serif" font-size="14.00" fill="#000000">macromolecule metabolic</text>
<text text-anchor="middle" x="111.3426" y="-180.2" font-family="Times,serif" font-size="14.00" fill="#000000">process</text>
</g>
<!-- GO:0044260&#45;&gt;GO:0043170 -->
<g id="edge2" class="edge">
<title>GO:0044260&#45;&gt;GO:0043170</title>
<path fill="none" stroke="#000000" d="M167.1577,-136.1513C159.5385,-145.031 151.0712,-154.899 143.0817,-164.2103"/>
<polygon fill="#000000" stroke="#000000" points="140.3676,-161.9985 136.5119,-171.8669 145.6801,-166.5569 140.3676,-161.9985"/>
</g>
<!-- GO:0009987 -->
<g id="node4" class="node">
<title>GO:0009987</title>
<polygon fill="#00ff00" stroke="#000000" points="438.2988,-402.2019 334.3864,-402.2019 334.3864,-360.9981 438.2988,-360.9981 438.2988,-402.2019"/>
<text text-anchor="middle" x="386.3426" y="-385.8" font-family="Times,serif" font-size="14.00" fill="#000000">GO:0009987</text>
<text text-anchor="middle" x="386.3426" y="-369" font-family="Times,serif" font-size="14.00" fill="#000000">cellular process</text>
</g>
<!-- GO:0044237&#45;&gt;GO:0009987 -->
<g id="edge3" class="edge">
<title>GO:0044237&#45;&gt;GO:0009987</title>
<path fill="none" stroke="#000000" d="M379.784,-325.1963C380.7454,-333.4638 381.7921,-342.4657 382.7613,-350.8008"/>
<polygon fill="#000000" stroke="#000000" points="379.3036,-351.3678 383.9352,-360.8966 386.2567,-350.5592 379.3036,-351.3678"/>
</g>
<!-- GO:0008152 -->
<g id="node5" class="node">
<title>GO:0008152</title>
<polygon fill="#00ff00" stroke="#000000" points="298.5282,-402.2019 182.157,-402.2019 182.157,-360.9981 298.5282,-360.9981 298.5282,-402.2019"/>
<text text-anchor="middle" x="240.3426" y="-385.8" font-family="Times,serif" font-size="14.00" fill="#000000">GO:0008152</text>
<text text-anchor="middle" x="240.3426" y="-369" font-family="Times,serif" font-size="14.00" fill="#000000">metabolic process</text>
</g>
<!-- GO:0044237&#45;&gt;GO:0008152 -->
<g id="edge4" class="edge">
<title>GO:0044237&#45;&gt;GO:0008152</title>
<path fill="none" stroke="#000000" d="M329.9195,-324.9558C314.3528,-334.7994 297.1032,-345.7073 281.9307,-355.3017"/>
<polygon fill="#000000" stroke="#000000" points="279.8471,-352.4781 273.2658,-360.7809 283.5883,-358.3945 279.8471,-352.4781"/>
</g>
<!-- GO:0071704 -->
<g id="node6" class="node">
<title>GO:0071704</title>
<polygon fill="#00ff00" stroke="#000000" points="116.5282,-325.0014 .157,-325.0014 .157,-266.1986 116.5282,-266.1986 116.5282,-325.0014"/>
<text text-anchor="middle" x="58.3426" y="-308.2" font-family="Times,serif" font-size="14.00" fill="#000000">GO:0071704</text>
<text text-anchor="middle" x="58.3426" y="-291.4" font-family="Times,serif" font-size="14.00" fill="#000000">organic substance</text>
<text text-anchor="middle" x="58.3426" y="-274.6" font-family="Times,serif" font-size="14.00" fill="#000000">metabolic process</text>
</g>
<!-- GO:0043170&#45;&gt;GO:0071704 -->
<g id="edge5" class="edge">
<title>GO:0043170&#45;&gt;GO:0071704</title>
<path fill="none" stroke="#000000" d="M94.8636,-230.5513C90.0776,-239.0758 84.7802,-248.5111 79.7389,-257.4904"/>
<polygon fill="#000000" stroke="#000000" points="76.6552,-255.8337 74.8114,-266.2669 82.759,-259.2606 76.6552,-255.8337"/>
</g>
<!-- GO:0008150 -->
<g id="node7" class="node">
<title>GO:0008150</title>
<polygon fill="#ffffff" stroke="#000000" points="519.8132,-479.8019 398.872,-479.8019 398.872,-438.5981 519.8132,-438.5981 519.8132,-479.8019"/>
<text text-anchor="middle" x="459.3426" y="-463.4" font-family="Times,serif" font-size="14.00" fill="#000000">GO:0008150</text>
<text text-anchor="middle" x="459.3426" y="-446.6" font-family="Times,serif" font-size="14.00" fill="#000000">biological_process</text>
</g>
<!-- GO:0009987&#45;&gt;GO:0008150 -->
<g id="edge6" class="edge">
<title>GO:0009987&#45;&gt;GO:0008150</title>
<path fill="none" stroke="#000000" d="M405.9053,-402.3954C414.1698,-411.1807 423.9229,-421.5484 432.8195,-431.0056"/>
<polygon fill="#000000" stroke="#000000" points="430.3247,-433.4617 439.7259,-438.3472 435.4233,-428.6654 430.3247,-433.4617"/>
</g>
<!-- GO:0008152&#45;&gt;GO:0008150 -->
<g id="edge7" class="edge">
<title>GO:0008152&#45;&gt;GO:0008150</title>
<path fill="none" stroke="#000000" d="M298.7429,-402.2934C327.3269,-412.4218 361.8994,-424.6722 391.6345,-435.2085"/>
<polygon fill="#000000" stroke="#000000" points="390.5103,-438.5233 401.1051,-438.5642 392.8483,-431.9252 390.5103,-438.5233"/>
</g>
<!-- GO:0071704&#45;&gt;GO:0008152 -->
<g id="edge8" class="edge">
<title>GO:0071704&#45;&gt;GO:0008152</title>
<path fill="none" stroke="#000000" d="M116.6795,-323.1658C139.3327,-333.87 165.0995,-346.0455 187.2279,-356.5018"/>
<polygon fill="#000000" stroke="#000000" points="185.9322,-359.7606 196.469,-360.8685 188.9229,-353.4316 185.9322,-359.7606"/>
</g>
<!-- GO:0006810 -->
<g id="node8" class="node">
<title>GO:0006810</title>
<polygon fill="#00ff00" stroke="#000000" points="818.9465,-221.8019 729.7387,-221.8019 729.7387,-180.5981 818.9465,-180.5981 818.9465,-221.8019"/>
<text text-anchor="middle" x="774.3426" y="-205.4" font-family="Times,serif" font-size="14.00" fill="#000000">GO:0006810</text>
<text text-anchor="middle" x="774.3426" y="-188.6" font-family="Times,serif" font-size="14.00" fill="#000000">transport</text>
</g>
<!-- GO:0051234 -->
<g id="node9" class="node">
<title>GO:0051234</title>
<polygon fill="#ffffff" stroke="#000000" points="854.4893,-325.0014 746.1959,-325.0014 746.1959,-266.1986 854.4893,-266.1986 854.4893,-325.0014"/>
<text text-anchor="middle" x="800.3426" y="-308.2" font-family="Times,serif" font-size="14.00" fill="#000000">GO:0051234</text>
<text text-anchor="middle" x="800.3426" y="-291.4" font-family="Times,serif" font-size="14.00" fill="#000000">establishment of</text>
<text text-anchor="middle" x="800.3426" y="-274.6" font-family="Times,serif" font-size="14.00" fill="#000000">localization</text>
</g>
<!-- GO:0006810&#45;&gt;GO:0051234 -->
<g id="edge9" class="edge">
<title>GO:0006810&#45;&gt;GO:0051234</title>
<path fill="none" stroke="#000000" d="M780.1128,-222.1504C782.8946,-232.2502 786.3239,-244.7012 789.5635,-256.4637"/>
<polygon fill="#000000" stroke="#000000" points="786.1921,-257.4039 792.2219,-266.1155 792.9408,-255.5451 786.1921,-257.4039"/>
</g>
<!-- GO:0051179 -->
<g id="node10" class="node">
<title>GO:0051179</title>
<polygon fill="#ff0000" stroke="#000000" points="719.9465,-402.2019 630.7387,-402.2019 630.7387,-360.9981 719.9465,-360.9981 719.9465,-402.2019"/>
<text text-anchor="middle" x="675.3426" y="-385.8" font-family="Times,serif" font-size="14.00" fill="#000000">GO:0051179</text>
<text text-anchor="middle" x="675.3426" y="-369" font-family="Times,serif" font-size="14.00" fill="#000000">localization</text>
</g>
<!-- GO:0051234&#45;&gt;GO:0051179 -->
<g id="edge10" class="edge">
<title>GO:0051234&#45;&gt;GO:0051179</title>
<path fill="none" stroke="#000000" d="M757.6743,-324.9558C743.5004,-334.7074 727.8085,-345.5035 713.9584,-355.0323"/>
<polygon fill="#000000" stroke="#000000" points="711.8575,-352.2293 705.6029,-360.7809 715.8252,-357.9963 711.8575,-352.2293"/>
</g>
<!-- GO:0051179&#45;&gt;GO:0008150 -->
<g id="edge11" class="edge">
<title>GO:0051179&#45;&gt;GO:0008150</title>
<path fill="none" stroke="#000000" d="M630.5873,-397.6788C600.5584,-408.4669 560.4575,-422.8735 526.6105,-435.0334"/>
<polygon fill="#000000" stroke="#000000" points="525.0134,-431.8881 516.7857,-438.563 527.3802,-438.4758 525.0134,-431.8881"/>
</g>
<!-- GO:0044699 -->
<g id="node11" class="node">
<title>GO:0044699</title>
<polygon fill="#00ff00" stroke="#000000" points="608.0239,-402.2019 456.6613,-402.2019 456.6613,-360.9981 608.0239,-360.9981 608.0239,-402.2019"/>
<text text-anchor="middle" x="532.3426" y="-385.8" font-family="Times,serif" font-size="14.00" fill="#000000">GO:0044699</text>
<text text-anchor="middle" x="532.3426" y="-369" font-family="Times,serif" font-size="14.00" fill="#000000">single&#45;organism process</text>
</g>
<!-- GO:0044699&#45;&gt;GO:0008150 -->
<g id="edge12" class="edge">
<title>GO:0044699&#45;&gt;GO:0008150</title>
<path fill="none" stroke="#000000" d="M512.7799,-402.3954C504.5154,-411.1807 494.7623,-421.5484 485.8657,-431.0056"/>
<polygon fill="#000000" stroke="#000000" points="483.2619,-428.6654 478.9593,-438.3472 488.3605,-433.4617 483.2619,-428.6654"/>
</g>
<!-- GO:0044238 -->
<g id="node12" class="node">
<title>GO:0044238</title>
<polygon fill="#00ff00" stroke="#000000" points="299.3456,-316.2019 135.3396,-316.2019 135.3396,-274.9981 299.3456,-274.9981 299.3456,-316.2019"/>
<text text-anchor="middle" x="217.3426" y="-299.8" font-family="Times,serif" font-size="14.00" fill="#000000">GO:0044238</text>
<text text-anchor="middle" x="217.3426" y="-283" font-family="Times,serif" font-size="14.00" fill="#000000">primary metabolic process</text>
</g>
<!-- GO:0044238&#45;&gt;GO:0008152 -->
<g id="edge13" class="edge">
<title>GO:0044238&#45;&gt;GO:0008152</title>
<path fill="none" stroke="#000000" d="M222.9103,-316.4182C225.7071,-326.8761 229.1487,-339.7446 232.233,-351.277"/>
<polygon fill="#000000" stroke="#000000" points="228.8614,-352.2173 234.8262,-360.9735 235.6237,-350.4087 228.8614,-352.2173"/>
</g>
<!-- GO:0055085 -->
<g id="node13" class="node">
<title>GO:0055085</title>
<polygon fill="#00ff00" stroke="#000000" points="697.9008,-41.4019 542.7844,-41.4019 542.7844,-.1981 697.9008,-.1981 697.9008,-41.4019"/>
<text text-anchor="middle" x="620.3426" y="-25" font-family="Times,serif" font-size="14.00" fill="#000000">GO:0055085</text>
<text text-anchor="middle" x="620.3426" y="-8.2" font-family="Times,serif" font-size="14.00" fill="#000000">transmembrane transport</text>
</g>
<!-- GO:0044765 -->
<g id="node14" class="node">
<title>GO:0044765</title>
<polygon fill="#ffffff" stroke="#000000" points="755.3069,-127.4019 595.3783,-127.4019 595.3783,-86.1981 755.3069,-86.1981 755.3069,-127.4019"/>
<text text-anchor="middle" x="675.3426" y="-111" font-family="Times,serif" font-size="14.00" fill="#000000">GO:0044765</text>
<text text-anchor="middle" x="675.3426" y="-94.2" font-family="Times,serif" font-size="14.00" fill="#000000">single&#45;organism transport</text>
</g>
<!-- GO:0055085&#45;&gt;GO:0044765 -->
<g id="edge14" class="edge">
<title>GO:0055085&#45;&gt;GO:0044765</title>
<path fill="none" stroke="#000000" d="M633.6566,-41.6182C640.5474,-52.393 649.0748,-65.7267 656.6181,-77.5216"/>
<polygon fill="#000000" stroke="#000000" points="653.8149,-79.6347 662.1512,-86.1735 659.712,-75.8633 653.8149,-79.6347"/>
</g>
<!-- GO:0044763 -->
<g id="node15" class="node">
<title>GO:0044763</title>
<polygon fill="#ffffff" stroke="#000000" points="604.0211,-325.0014 452.6641,-325.0014 452.6641,-266.1986 604.0211,-266.1986 604.0211,-325.0014"/>
<text text-anchor="middle" x="528.3426" y="-308.2" font-family="Times,serif" font-size="14.00" fill="#000000">GO:0044763</text>
<text text-anchor="middle" x="528.3426" y="-291.4" font-family="Times,serif" font-size="14.00" fill="#000000">single&#45;organism cellular</text>
<text text-anchor="middle" x="528.3426" y="-274.6" font-family="Times,serif" font-size="14.00" fill="#000000">process</text>
</g>
<!-- GO:0055085&#45;&gt;GO:0044763 -->
<g id="edge15" class="edge">
<title>GO:0055085&#45;&gt;GO:0044763</title>
<path fill="none" stroke="#000000" d="M605.9552,-41.6308C599.2561,-52.0636 591.62,-65.1075 586.3426,-77.6 560.9628,-137.678 544.0593,-211.8415 535.344,-256.3431"/>
<polygon fill="#000000" stroke="#000000" points="531.9034,-255.7014 533.4563,-266.1818 538.778,-257.0205 531.9034,-255.7014"/>
</g>
<!-- GO:0044765&#45;&gt;GO:0006810 -->
<g id="edge16" class="edge">
<title>GO:0044765&#45;&gt;GO:0006810</title>
<path fill="none" stroke="#000000" d="M697.3139,-127.7504C711.2846,-141.072 729.5451,-158.484 744.7802,-173.0112"/>
<polygon fill="#000000" stroke="#000000" points="742.7801,-175.9402 752.4327,-180.3081 747.6108,-170.8742 742.7801,-175.9402"/>
</g>
<!-- GO:1902578 -->
<g id="node16" class="node">
<title>GO:1902578</title>
<polygon fill="#ffffff" stroke="#000000" points="728.5448,-325.0014 622.1404,-325.0014 622.1404,-266.1986 728.5448,-266.1986 728.5448,-325.0014"/>
<text text-anchor="middle" x="675.3426" y="-308.2" font-family="Times,serif" font-size="14.00" fill="#000000">GO:1902578</text>
<text text-anchor="middle" x="675.3426" y="-291.4" font-family="Times,serif" font-size="14.00" fill="#000000">single&#45;organism</text>
<text text-anchor="middle" x="675.3426" y="-274.6" font-family="Times,serif" font-size="14.00" fill="#000000">localization</text>
</g>
<!-- GO:0044765&#45;&gt;GO:1902578 -->
<g id="edge17" class="edge">
<title>GO:0044765&#45;&gt;GO:1902578</title>
<path fill="none" stroke="#000000" d="M675.3426,-127.7263C675.3426,-158.5951 675.3426,-216.8952 675.3426,-256.0013"/>
<polygon fill="#000000" stroke="#000000" points="671.8427,-256.2376 675.3426,-266.2376 678.8427,-256.2377 671.8427,-256.2376"/>
</g>
<!-- GO:0044763&#45;&gt;GO:0009987 -->
<g id="edge18" class="edge">
<title>GO:0044763&#45;&gt;GO:0009987</title>
<path fill="none" stroke="#000000" d="M479.8714,-324.9558C463.4661,-334.8914 445.2706,-345.9112 429.3219,-355.5703"/>
<polygon fill="#000000" stroke="#000000" points="427.4587,-352.6068 420.7183,-360.7809 431.085,-358.5943 427.4587,-352.6068"/>
</g>
<!-- GO:0044763&#45;&gt;GO:0044699 -->
<g id="edge19" class="edge">
<title>GO:0044763&#45;&gt;GO:0044699</title>
<path fill="none" stroke="#000000" d="M529.7192,-325.1963C530.1037,-333.4638 530.5224,-342.4657 530.9101,-350.8008"/>
<polygon fill="#000000" stroke="#000000" points="527.4187,-351.07 531.3796,-360.8966 534.4112,-350.7447 527.4187,-351.07"/>
</g>
<!-- GO:1902578&#45;&gt;GO:0051179 -->
<g id="edge20" class="edge">
<title>GO:1902578&#45;&gt;GO:0051179</title>
<path fill="none" stroke="#000000" d="M675.3426,-325.1963C675.3426,-333.4638 675.3426,-342.4657 675.3426,-350.8008"/>
<polygon fill="#000000" stroke="#000000" points="671.8427,-350.8965 675.3426,-360.8966 678.8427,-350.8966 671.8427,-350.8965"/>
</g>
<!-- GO:1902578&#45;&gt;GO:0044699 -->
<g id="edge21" class="edge">
<title>GO:1902578&#45;&gt;GO:0044699</title>
<path fill="none" stroke="#000000" d="M626.5301,-324.9558C610.0092,-334.8914 591.6855,-345.9112 575.6245,-355.5703"/>
<polygon fill="#000000" stroke="#000000" points="573.7262,-352.6277 566.9603,-360.7809 577.3338,-358.6265 573.7262,-352.6277"/>
</g>
</g>
</svg>
