<?xml version="1.0" encoding="UTF-8" standalone="no"?>
<!DOCTYPE svg PUBLIC "-//W3C//DTD SVG 1.1//EN"
 "http://www.w3.org/Graphics/SVG/1.1/DTD/svg11.dtd">
<!-- Generated by graphviz version 2.40.1 (20161225.0304)
 -->
<!-- Title: G Pages: 1 -->
<svg width="211pt" height="454pt"
 viewBox="0.00 0.00 211.12 454.40" xmlns="http://www.w3.org/2000/svg" xmlns:xlink="http://www.w3.org/1999/xlink">
<g id="graph0" class="graph" transform="scale(1 1) rotate(0) translate(4 450.4)">
<title>G</title>
<polygon fill="#ffffff" stroke="transparent" points="-4,4 -4,-450.4 207.1249,-450.4 207.1249,4 -4,4"/>
<!-- GO:0005654 -->
<g id="node1" class="node">
<title>GO:0005654</title>
<polygon fill="#ff0000" stroke="#000000" points="146.0531,-41.4019 56.8453,-41.4019 56.8453,-.1981 146.0531,-.1981 146.0531,-41.4019"/>
<text text-anchor="middle" x="101.4492" y="-25" font-family="Times,serif" font-size="14.00" fill="#000000">GO:0005654</text>
<text text-anchor="middle" x="101.4492" y="-8.2" font-family="Times,serif" font-size="14.00" fill="#000000">nucleoplasm</text>
</g>
<!-- GO:0044428 -->
<g id="node2" class="node">
<title>GO:0044428</title>
<polygon fill="#ffffff" stroke="#000000" points="146.0531,-119.0019 56.8453,-119.0019 56.8453,-77.7981 146.0531,-77.7981 146.0531,-119.0019"/>
<text text-anchor="middle" x="101.4492" y="-102.6" font-family="Times,serif" font-size="14.00" fill="#000000">GO:0044428</text>
<text text-anchor="middle" x="101.4492" y="-85.8" font-family="Times,serif" font-size="14.00" fill="#000000">nuclear part</text>
</g>
<!-- GO:0005654&#45;&gt;GO:0044428 -->
<g id="edge1" class="edge">
<title>GO:0005654&#45;&gt;GO:0044428</title>
<path fill="none" stroke="#000000" d="M101.4492,-41.5954C101.4492,-49.5109 101.4492,-58.7109 101.4492,-67.3722"/>
<polygon fill="#000000" stroke="#000000" points="97.9493,-67.5472 101.4492,-77.5472 104.9493,-67.5473 97.9493,-67.5472"/>
</g>
<!-- GO:0044446 -->
<g id="node3" class="node">
<title>GO:0044446</title>
<polygon fill="#ff0000" stroke="#000000" points="171.1676,-213.8014 31.7308,-213.8014 31.7308,-154.9986 171.1676,-154.9986 171.1676,-213.8014"/>
<text text-anchor="middle" x="101.4492" y="-197" font-family="Times,serif" font-size="14.00" fill="#000000">GO:0044446</text>
<text text-anchor="middle" x="101.4492" y="-180.2" font-family="Times,serif" font-size="14.00" fill="#000000">intracellular organelle</text>
<text text-anchor="middle" x="101.4492" y="-163.4" font-family="Times,serif" font-size="14.00" fill="#000000">part</text>
</g>
<!-- GO:0044428&#45;&gt;GO:0044446 -->
<g id="edge2" class="edge">
<title>GO:0044428&#45;&gt;GO:0044446</title>
<path fill="none" stroke="#000000" d="M101.4492,-119.2182C101.4492,-126.9358 101.4492,-135.9662 101.4492,-144.8036"/>
<polygon fill="#000000" stroke="#000000" points="97.9493,-144.9991 101.4492,-154.9991 104.9493,-144.9992 97.9493,-144.9991"/>
</g>
<!-- GO:0044424 -->
<g id="node4" class="node">
<title>GO:0044424</title>
<polygon fill="#ff0000" stroke="#000000" points="108.8476,-291.0019 .0508,-291.0019 .0508,-249.7981 108.8476,-249.7981 108.8476,-291.0019"/>
<text text-anchor="middle" x="54.4492" y="-274.6" font-family="Times,serif" font-size="14.00" fill="#000000">GO:0044424</text>
<text text-anchor="middle" x="54.4492" y="-257.8" font-family="Times,serif" font-size="14.00" fill="#000000">intracellular part</text>
</g>
<!-- GO:0044446&#45;&gt;GO:0044424 -->
<g id="edge3" class="edge">
<title>GO:0044446&#45;&gt;GO:0044424</title>
<path fill="none" stroke="#000000" d="M85.2745,-213.9963C80.5554,-222.6312 75.3984,-232.0673 70.6762,-240.7081"/>
<polygon fill="#000000" stroke="#000000" points="67.4883,-239.243 65.7639,-249.6966 73.6309,-242.6 67.4883,-239.243"/>
</g>
<!-- GO:0044422 -->
<g id="node5" class="node">
<title>GO:0044422</title>
<polygon fill="#ffffff" stroke="#000000" points="203.3013,-368.6019 109.5971,-368.6019 109.5971,-327.3981 203.3013,-327.3981 203.3013,-368.6019"/>
<text text-anchor="middle" x="156.4492" y="-352.2" font-family="Times,serif" font-size="14.00" fill="#000000">GO:0044422</text>
<text text-anchor="middle" x="156.4492" y="-335.4" font-family="Times,serif" font-size="14.00" fill="#000000">organelle part</text>
</g>
<!-- GO:0044446&#45;&gt;GO:0044422 -->
<g id="edge4" class="edge">
<title>GO:0044446&#45;&gt;GO:0044422</title>
<path fill="none" stroke="#000000" d="M111.2821,-213.6484C121.1218,-242.917 136.1945,-287.7516 146.1841,-317.466"/>
<polygon fill="#000000" stroke="#000000" points="142.9844,-318.9321 149.4886,-327.2955 149.6195,-316.7015 142.9844,-318.9321"/>
</g>
<!-- GO:0044464 -->
<g id="node6" class="node">
<title>GO:0044464</title>
<polygon fill="#ff0000" stroke="#000000" points="92.0531,-368.6019 2.8453,-368.6019 2.8453,-327.3981 92.0531,-327.3981 92.0531,-368.6019"/>
<text text-anchor="middle" x="47.4492" y="-352.2" font-family="Times,serif" font-size="14.00" fill="#000000">GO:0044464</text>
<text text-anchor="middle" x="47.4492" y="-335.4" font-family="Times,serif" font-size="14.00" fill="#000000">cell part</text>
</g>
<!-- GO:0044424&#45;&gt;GO:0044464 -->
<g id="edge5" class="edge">
<title>GO:0044424&#45;&gt;GO:0044464</title>
<path fill="none" stroke="#000000" d="M52.5733,-291.1954C51.8593,-299.1109 51.0294,-308.3109 50.2481,-316.9722"/>
<polygon fill="#000000" stroke="#000000" points="46.7429,-316.8732 49.3302,-327.1472 53.7146,-317.5021 46.7429,-316.8732"/>
</g>
<!-- GO:0005575 -->
<g id="node7" class="node">
<title>GO:0005575</title>
<polygon fill="#ffffff" stroke="#000000" points="165.1359,-446.2019 37.7625,-446.2019 37.7625,-404.9981 165.1359,-404.9981 165.1359,-446.2019"/>
<text text-anchor="middle" x="101.4492" y="-429.8" font-family="Times,serif" font-size="14.00" fill="#000000">GO:0005575</text>
<text text-anchor="middle" x="101.4492" y="-413" font-family="Times,serif" font-size="14.00" fill="#000000">cellular_component</text>
</g>
<!-- GO:0044422&#45;&gt;GO:0005575 -->
<g id="edge6" class="edge">
<title>GO:0044422&#45;&gt;GO:0005575</title>
<path fill="none" stroke="#000000" d="M141.7102,-368.7954C135.6685,-377.3197 128.5708,-387.3339 122.0313,-396.5605"/>
<polygon fill="#000000" stroke="#000000" points="119.1559,-394.5647 116.2289,-404.7472 124.8669,-398.6125 119.1559,-394.5647"/>
</g>
<!-- GO:0044464&#45;&gt;GO:0005575 -->
<g id="edge7" class="edge">
<title>GO:0044464&#45;&gt;GO:0005575</title>
<path fill="none" stroke="#000000" d="M61.9202,-368.7954C67.7916,-377.2328 74.6786,-387.1297 81.0446,-396.2778"/>
<polygon fill="#000000" stroke="#000000" points="78.3534,-398.5382 86.9382,-404.7472 84.0992,-394.5398 78.3534,-398.5382"/>
</g>
</g>
</svg>
