<?xml version="1.0" encoding="UTF-8" standalone="no"?>
<!DOCTYPE svg PUBLIC "-//W3C//DTD SVG 1.1//EN"
 "http://www.w3.org/Graphics/SVG/1.1/DTD/svg11.dtd">
<!-- Generated by graphviz version 2.40.1 (20161225.0304)
 -->
<!-- Title: G Pages: 1 -->
<svg width="917pt" height="694pt"
 viewBox="0.00 0.00 917.09 693.60" xmlns="http://www.w3.org/2000/svg" xmlns:xlink="http://www.w3.org/1999/xlink">
<g id="graph0" class="graph" transform="scale(1 1) rotate(0) translate(4 689.6)">
<title>G</title>
<polygon fill="#ffffff" stroke="transparent" points="-4,4 -4,-689.6 913.0891,-689.6 913.0891,4 -4,4"/>
<!-- GO:0035639 -->
<g id="node1" class="node">
<title>GO:0035639</title>
<polygon fill="#ffffff" stroke="#000000" points="137.5303,-341.8014 .1563,-341.8014 .1563,-282.9986 137.5303,-282.9986 137.5303,-341.8014"/>
<text text-anchor="middle" x="68.8433" y="-325" font-family="Times,serif" font-size="14.00" fill="#000000">GO:0035639</text>
<text text-anchor="middle" x="68.8433" y="-308.2" font-family="Times,serif" font-size="14.00" fill="#000000">purine ribonucleoside</text>
<text text-anchor="middle" x="68.8433" y="-291.4" font-family="Times,serif" font-size="14.00" fill="#000000">triphosphate binding</text>
</g>
<!-- GO:1901265 -->
<g id="node2" class="node">
<title>GO:1901265</title>
<polygon fill="#ffffff" stroke="#000000" points="301.9774,-436.2014 165.7092,-436.2014 165.7092,-377.3986 301.9774,-377.3986 301.9774,-436.2014"/>
<text text-anchor="middle" x="233.8433" y="-419.4" font-family="Times,serif" font-size="14.00" fill="#000000">GO:1901265</text>
<text text-anchor="middle" x="233.8433" y="-402.6" font-family="Times,serif" font-size="14.00" fill="#000000">nucleoside phosphate</text>
<text text-anchor="middle" x="233.8433" y="-385.8" font-family="Times,serif" font-size="14.00" fill="#000000">binding</text>
</g>
<!-- GO:0035639&#45;&gt;GO:1901265 -->
<g id="edge1" class="edge">
<title>GO:0035639&#45;&gt;GO:1901265</title>
<path fill="none" stroke="#000000" d="M120.1459,-341.7513C137.0633,-351.4301 156.0333,-362.2833 173.5583,-372.3097"/>
<polygon fill="#000000" stroke="#000000" points="172.1545,-375.5388 182.5725,-377.4669 175.6307,-369.4629 172.1545,-375.5388"/>
</g>
<!-- GO:0097159 -->
<g id="node3" class="node">
<title>GO:0097159</title>
<polygon fill="#ff00ff" stroke="#000000" points="301.3547,-530.6014 144.3319,-530.6014 144.3319,-471.7986 301.3547,-471.7986 301.3547,-530.6014"/>
<text text-anchor="middle" x="222.8433" y="-513.8" font-family="Times,serif" font-size="14.00" fill="#000000">GO:0097159</text>
<text text-anchor="middle" x="222.8433" y="-497" font-family="Times,serif" font-size="14.00" fill="#000000">organic cyclic compound</text>
<text text-anchor="middle" x="222.8433" y="-480.2" font-family="Times,serif" font-size="14.00" fill="#000000">binding</text>
</g>
<!-- GO:1901265&#45;&gt;GO:0097159 -->
<g id="edge2" class="edge">
<title>GO:1901265&#45;&gt;GO:0097159</title>
<path fill="none" stroke="#000000" d="M230.4231,-436.1513C229.4815,-444.2318 228.4446,-453.1308 227.4479,-461.6838"/>
<polygon fill="#000000" stroke="#000000" points="223.9424,-461.5289 226.2614,-471.8669 230.8953,-462.3392 223.9424,-461.5289"/>
</g>
<!-- GO:1901363 -->
<g id="node4" class="node">
<title>GO:1901363</title>
<polygon fill="#ff00ff" stroke="#000000" points="466.3539,-530.6014 319.3327,-530.6014 319.3327,-471.7986 466.3539,-471.7986 466.3539,-530.6014"/>
<text text-anchor="middle" x="392.8433" y="-513.8" font-family="Times,serif" font-size="14.00" fill="#000000">GO:1901363</text>
<text text-anchor="middle" x="392.8433" y="-497" font-family="Times,serif" font-size="14.00" fill="#000000">heterocyclic compound</text>
<text text-anchor="middle" x="392.8433" y="-480.2" font-family="Times,serif" font-size="14.00" fill="#000000">binding</text>
</g>
<!-- GO:1901265&#45;&gt;GO:1901363 -->
<g id="edge3" class="edge">
<title>GO:1901265&#45;&gt;GO:1901363</title>
<path fill="none" stroke="#000000" d="M283.2803,-436.1513C299.5826,-445.8301 317.8628,-456.6833 334.7505,-466.7097"/>
<polygon fill="#000000" stroke="#000000" points="333.0513,-469.7712 343.4369,-471.8669 336.625,-463.7521 333.0513,-469.7712"/>
</g>
<!-- GO:0005488 -->
<g id="node5" class="node">
<title>GO:0005488</title>
<polygon fill="#ffffff" stroke="#000000" points="602.4472,-607.8019 513.2394,-607.8019 513.2394,-566.5981 602.4472,-566.5981 602.4472,-607.8019"/>
<text text-anchor="middle" x="557.8433" y="-591.4" font-family="Times,serif" font-size="14.00" fill="#000000">GO:0005488</text>
<text text-anchor="middle" x="557.8433" y="-574.6" font-family="Times,serif" font-size="14.00" fill="#000000">binding</text>
</g>
<!-- GO:0097159&#45;&gt;GO:0005488 -->
<g id="edge4" class="edge">
<title>GO:0097159&#45;&gt;GO:0005488</title>
<path fill="none" stroke="#000000" d="M301.4557,-527.9717C304.2805,-528.8103 307.0829,-529.6227 309.8433,-530.4 375.6735,-548.9372 452.5924,-565.8288 503.1059,-576.2844"/>
<polygon fill="#000000" stroke="#000000" points="502.6577,-579.7654 513.1579,-578.3522 504.0682,-572.909 502.6577,-579.7654"/>
</g>
<!-- GO:1901363&#45;&gt;GO:0005488 -->
<g id="edge5" class="edge">
<title>GO:1901363&#45;&gt;GO:0005488</title>
<path fill="none" stroke="#000000" d="M449.1655,-530.5558C468.6612,-540.7172 490.3328,-552.0127 509.1621,-561.8267"/>
<polygon fill="#000000" stroke="#000000" points="507.6697,-564.9958 518.1552,-566.5141 510.9052,-558.7883 507.6697,-564.9958"/>
</g>
<!-- GO:0003674 -->
<g id="node6" class="node">
<title>GO:0003674</title>
<polygon fill="#ffffff" stroke="#000000" points="620.4764,-685.4019 495.2102,-685.4019 495.2102,-644.1981 620.4764,-644.1981 620.4764,-685.4019"/>
<text text-anchor="middle" x="557.8433" y="-669" font-family="Times,serif" font-size="14.00" fill="#000000">GO:0003674</text>
<text text-anchor="middle" x="557.8433" y="-652.2" font-family="Times,serif" font-size="14.00" fill="#000000">molecular_function</text>
</g>
<!-- GO:0005488&#45;&gt;GO:0003674 -->
<g id="edge6" class="edge">
<title>GO:0005488&#45;&gt;GO:0003674</title>
<path fill="none" stroke="#000000" d="M557.8433,-607.9954C557.8433,-615.9109 557.8433,-625.1109 557.8433,-633.7722"/>
<polygon fill="#000000" stroke="#000000" points="554.3434,-633.9472 557.8433,-643.9472 561.3434,-633.9473 554.3434,-633.9472"/>
</g>
<!-- GO:0000166 -->
<g id="node7" class="node">
<title>GO:0000166</title>
<polygon fill="#ff00ff" stroke="#000000" points="617.9408,-333.0019 497.7458,-333.0019 497.7458,-291.7981 617.9408,-291.7981 617.9408,-333.0019"/>
<text text-anchor="middle" x="557.8433" y="-316.6" font-family="Times,serif" font-size="14.00" fill="#000000">GO:0000166</text>
<text text-anchor="middle" x="557.8433" y="-299.8" font-family="Times,serif" font-size="14.00" fill="#000000">nucleotide binding</text>
</g>
<!-- GO:0000166&#45;&gt;GO:1901265 -->
<g id="edge8" class="edge">
<title>GO:0000166&#45;&gt;GO:1901265</title>
<path fill="none" stroke="#000000" d="M512.2613,-333.0681C504.5353,-336.1719 496.5265,-339.1486 488.8433,-341.6 418.1635,-364.1513 397.495,-358.3585 325.8433,-377.6 321.2309,-378.8386 316.5052,-380.1634 311.7486,-381.5397"/>
<polygon fill="#000000" stroke="#000000" points="310.5684,-378.2387 301.9681,-384.4262 312.5499,-384.9524 310.5684,-378.2387"/>
</g>
<!-- GO:0036094 -->
<g id="node8" class="node">
<title>GO:0036094</title>
<polygon fill="#ffffff" stroke="#000000" points="631.7717,-521.8019 483.9149,-521.8019 483.9149,-480.5981 631.7717,-480.5981 631.7717,-521.8019"/>
<text text-anchor="middle" x="557.8433" y="-505.4" font-family="Times,serif" font-size="14.00" fill="#000000">GO:0036094</text>
<text text-anchor="middle" x="557.8433" y="-488.6" font-family="Times,serif" font-size="14.00" fill="#000000">small molecule binding</text>
</g>
<!-- GO:0000166&#45;&gt;GO:0036094 -->
<g id="edge7" class="edge">
<title>GO:0000166&#45;&gt;GO:0036094</title>
<path fill="none" stroke="#000000" d="M557.8433,-333.3263C557.8433,-366.5865 557.8433,-431.6928 557.8433,-470.3227"/>
<polygon fill="#000000" stroke="#000000" points="554.3434,-470.4677 557.8433,-480.4677 561.3434,-470.4678 554.3434,-470.4677"/>
</g>
<!-- GO:0036094&#45;&gt;GO:0005488 -->
<g id="edge9" class="edge">
<title>GO:0036094&#45;&gt;GO:0005488</title>
<path fill="none" stroke="#000000" d="M557.8433,-522.0182C557.8433,-532.3705 557.8433,-545.0848 557.8433,-556.5271"/>
<polygon fill="#000000" stroke="#000000" points="554.3434,-556.5735 557.8433,-566.5735 561.3434,-556.5735 554.3434,-556.5735"/>
</g>
<!-- GO:0043169 -->
<g id="node9" class="node">
<title>GO:0043169</title>
<polygon fill="#ff00ff" stroke="#000000" points="909.3362,-427.4019 812.3504,-427.4019 812.3504,-386.1981 909.3362,-386.1981 909.3362,-427.4019"/>
<text text-anchor="middle" x="860.8433" y="-411" font-family="Times,serif" font-size="14.00" fill="#000000">GO:0043169</text>
<text text-anchor="middle" x="860.8433" y="-394.2" font-family="Times,serif" font-size="14.00" fill="#000000">cation binding</text>
</g>
<!-- GO:0043167 -->
<g id="node10" class="node">
<title>GO:0043167</title>
<polygon fill="#ffffff" stroke="#000000" points="905.4472,-521.8019 816.2394,-521.8019 816.2394,-480.5981 905.4472,-480.5981 905.4472,-521.8019"/>
<text text-anchor="middle" x="860.8433" y="-505.4" font-family="Times,serif" font-size="14.00" fill="#000000">GO:0043167</text>
<text text-anchor="middle" x="860.8433" y="-488.6" font-family="Times,serif" font-size="14.00" fill="#000000">ion binding</text>
</g>
<!-- GO:0043169&#45;&gt;GO:0043167 -->
<g id="edge10" class="edge">
<title>GO:0043169&#45;&gt;GO:0043167</title>
<path fill="none" stroke="#000000" d="M860.8433,-427.7504C860.8433,-440.2165 860.8433,-456.2645 860.8433,-470.1786"/>
<polygon fill="#000000" stroke="#000000" points="857.3434,-470.3081 860.8433,-480.3081 864.3434,-470.3082 857.3434,-470.3081"/>
</g>
<!-- GO:0043167&#45;&gt;GO:0005488 -->
<g id="edge11" class="edge">
<title>GO:0043167&#45;&gt;GO:0005488</title>
<path fill="none" stroke="#000000" d="M825.7598,-521.9321C819.5888,-525.0652 813.1274,-528.0347 806.8433,-530.4 742.0684,-554.7808 663.711,-570.547 612.4171,-579.1395"/>
<polygon fill="#000000" stroke="#000000" points="611.8319,-575.6887 602.5312,-580.7628 612.9662,-582.5962 611.8319,-575.6887"/>
</g>
<!-- GO:0097367 -->
<g id="node11" class="node">
<title>GO:0097367</title>
<polygon fill="#ffffff" stroke="#000000" points="797.8904,-530.6014 649.7962,-530.6014 649.7962,-471.7986 797.8904,-471.7986 797.8904,-530.6014"/>
<text text-anchor="middle" x="723.8433" y="-513.8" font-family="Times,serif" font-size="14.00" fill="#000000">GO:0097367</text>
<text text-anchor="middle" x="723.8433" y="-497" font-family="Times,serif" font-size="14.00" fill="#000000">carbohydrate derivative</text>
<text text-anchor="middle" x="723.8433" y="-480.2" font-family="Times,serif" font-size="14.00" fill="#000000">binding</text>
</g>
<!-- GO:0097367&#45;&gt;GO:0005488 -->
<g id="edge12" class="edge">
<title>GO:0097367&#45;&gt;GO:0005488</title>
<path fill="none" stroke="#000000" d="M667.1798,-530.5558C647.5659,-540.7172 625.763,-552.0127 606.8196,-561.8267"/>
<polygon fill="#000000" stroke="#000000" points="605.0411,-558.8063 597.7719,-566.5141 608.2611,-565.0217 605.0411,-558.8063"/>
</g>
<!-- GO:0032559 -->
<g id="node12" class="node">
<title>GO:0032559</title>
<polygon fill="#ffffff" stroke="#000000" points="705.5303,-58.6014 568.1563,-58.6014 568.1563,.2014 705.5303,.2014 705.5303,-58.6014"/>
<text text-anchor="middle" x="636.8433" y="-41.8" font-family="Times,serif" font-size="14.00" fill="#000000">GO:0032559</text>
<text text-anchor="middle" x="636.8433" y="-25" font-family="Times,serif" font-size="14.00" fill="#000000">adenyl ribonucleotide</text>
<text text-anchor="middle" x="636.8433" y="-8.2" font-family="Times,serif" font-size="14.00" fill="#000000">binding</text>
</g>
<!-- GO:0032555 -->
<g id="node13" class="node">
<title>GO:0032555</title>
<polygon fill="#ffffff" stroke="#000000" points="788.976,-153.0014 652.7106,-153.0014 652.7106,-94.1986 788.976,-94.1986 788.976,-153.0014"/>
<text text-anchor="middle" x="720.8433" y="-136.2" font-family="Times,serif" font-size="14.00" fill="#000000">GO:0032555</text>
<text text-anchor="middle" x="720.8433" y="-119.4" font-family="Times,serif" font-size="14.00" fill="#000000">purine ribonucleotide</text>
<text text-anchor="middle" x="720.8433" y="-102.6" font-family="Times,serif" font-size="14.00" fill="#000000">binding</text>
</g>
<!-- GO:0032559&#45;&gt;GO:0032555 -->
<g id="edge13" class="edge">
<title>GO:0032559&#45;&gt;GO:0032555</title>
<path fill="none" stroke="#000000" d="M662.961,-58.5513C670.8624,-67.431 679.6433,-77.299 687.9287,-86.6103"/>
<polygon fill="#000000" stroke="#000000" points="685.4795,-89.1229 694.7418,-94.2669 690.7089,-84.4696 685.4795,-89.1229"/>
</g>
<!-- GO:0030554 -->
<g id="node14" class="node">
<title>GO:0030554</title>
<polygon fill="#ffffff" stroke="#000000" points="634.7604,-144.2019 472.9262,-144.2019 472.9262,-102.9981 634.7604,-102.9981 634.7604,-144.2019"/>
<text text-anchor="middle" x="553.8433" y="-127.8" font-family="Times,serif" font-size="14.00" fill="#000000">GO:0030554</text>
<text text-anchor="middle" x="553.8433" y="-111" font-family="Times,serif" font-size="14.00" fill="#000000">adenyl nucleotide binding</text>
</g>
<!-- GO:0032559&#45;&gt;GO:0030554 -->
<g id="edge14" class="edge">
<title>GO:0032559&#45;&gt;GO:0030554</title>
<path fill="none" stroke="#000000" d="M611.0366,-58.5513C600.7517,-70.2488 588.9587,-83.6615 578.7635,-95.257"/>
<polygon fill="#000000" stroke="#000000" points="575.9733,-93.1299 571.9987,-102.951 581.2303,-97.7521 575.9733,-93.1299"/>
</g>
<!-- GO:0017076 -->
<g id="node15" class="node">
<title>GO:0017076</title>
<polygon fill="#ffffff" stroke="#000000" points="633.706,-238.6019 473.9806,-238.6019 473.9806,-197.3981 633.706,-197.3981 633.706,-238.6019"/>
<text text-anchor="middle" x="553.8433" y="-222.2" font-family="Times,serif" font-size="14.00" fill="#000000">GO:0017076</text>
<text text-anchor="middle" x="553.8433" y="-205.4" font-family="Times,serif" font-size="14.00" fill="#000000">purine nucleotide binding</text>
</g>
<!-- GO:0032555&#45;&gt;GO:0017076 -->
<g id="edge15" class="edge">
<title>GO:0032555&#45;&gt;GO:0017076</title>
<path fill="none" stroke="#000000" d="M668.9189,-152.9513C646.6334,-165.5486 620.8289,-180.1351 599.31,-192.2991"/>
<polygon fill="#000000" stroke="#000000" points="597.3559,-189.3831 590.3728,-197.351 600.8006,-195.4769 597.3559,-189.3831"/>
</g>
<!-- GO:0032553 -->
<g id="node16" class="node">
<title>GO:0032553</title>
<polygon fill="#ffffff" stroke="#000000" points="795.4914,-238.6019 652.1952,-238.6019 652.1952,-197.3981 795.4914,-197.3981 795.4914,-238.6019"/>
<text text-anchor="middle" x="723.8433" y="-222.2" font-family="Times,serif" font-size="14.00" fill="#000000">GO:0032553</text>
<text text-anchor="middle" x="723.8433" y="-205.4" font-family="Times,serif" font-size="14.00" fill="#000000">ribonucleotide binding</text>
</g>
<!-- GO:0032555&#45;&gt;GO:0032553 -->
<g id="edge16" class="edge">
<title>GO:0032555&#45;&gt;GO:0032553</title>
<path fill="none" stroke="#000000" d="M721.7761,-152.9513C722.1228,-163.8614 722.5169,-176.2637 722.8674,-187.292"/>
<polygon fill="#000000" stroke="#000000" points="719.3711,-187.4672 723.1871,-197.351 726.3676,-187.2448 719.3711,-187.4672"/>
</g>
<!-- GO:0030554&#45;&gt;GO:0017076 -->
<g id="edge17" class="edge">
<title>GO:0030554&#45;&gt;GO:0017076</title>
<path fill="none" stroke="#000000" d="M553.8433,-144.5504C553.8433,-157.0165 553.8433,-173.0645 553.8433,-186.9786"/>
<polygon fill="#000000" stroke="#000000" points="550.3434,-187.1081 553.8433,-197.1081 557.3434,-187.1082 550.3434,-187.1081"/>
</g>
<!-- GO:0017076&#45;&gt;GO:0000166 -->
<g id="edge18" class="edge">
<title>GO:0017076&#45;&gt;GO:0000166</title>
<path fill="none" stroke="#000000" d="M554.731,-238.9504C555.2593,-251.4165 555.9393,-267.4645 556.5288,-281.3786"/>
<polygon fill="#000000" stroke="#000000" points="553.0377,-281.6653 556.9581,-291.5081 560.0315,-281.3689 553.0377,-281.6653"/>
</g>
<!-- GO:0032553&#45;&gt;GO:0000166 -->
<g id="edge20" class="edge">
<title>GO:0032553&#45;&gt;GO:0000166</title>
<path fill="none" stroke="#000000" d="M687.4139,-238.7165C662.5475,-252.8574 629.4357,-271.6872 602.9096,-286.7719"/>
<polygon fill="#000000" stroke="#000000" points="601.1503,-283.746 594.1877,-291.7318 604.6106,-289.8309 601.1503,-283.746"/>
</g>
<!-- GO:0032553&#45;&gt;GO:0097367 -->
<g id="edge19" class="edge">
<title>GO:0032553&#45;&gt;GO:0097367</title>
<path fill="none" stroke="#000000" d="M723.8433,-238.8244C723.8433,-285.7968 723.8433,-400.6388 723.8433,-461.6304"/>
<polygon fill="#000000" stroke="#000000" points="720.3434,-461.6515 723.8433,-471.6515 727.3434,-461.6516 720.3434,-461.6515"/>
</g>
<!-- GO:0032550 -->
<g id="node17" class="node">
<title>GO:0032550</title>
<polygon fill="#ffffff" stroke="#000000" points="376.5303,-247.4014 239.1563,-247.4014 239.1563,-188.5986 376.5303,-188.5986 376.5303,-247.4014"/>
<text text-anchor="middle" x="307.8433" y="-230.6" font-family="Times,serif" font-size="14.00" fill="#000000">GO:0032550</text>
<text text-anchor="middle" x="307.8433" y="-213.8" font-family="Times,serif" font-size="14.00" fill="#000000">purine ribonucleoside</text>
<text text-anchor="middle" x="307.8433" y="-197" font-family="Times,serif" font-size="14.00" fill="#000000">binding</text>
</g>
<!-- GO:0001883 -->
<g id="node18" class="node">
<title>GO:0001883</title>
<polygon fill="#ffffff" stroke="#000000" points="479.7604,-333.0019 317.9262,-333.0019 317.9262,-291.7981 479.7604,-291.7981 479.7604,-333.0019"/>
<text text-anchor="middle" x="398.8433" y="-316.6" font-family="Times,serif" font-size="14.00" fill="#000000">GO:0001883</text>
<text text-anchor="middle" x="398.8433" y="-299.8" font-family="Times,serif" font-size="14.00" fill="#000000">purine nucleoside binding</text>
</g>
<!-- GO:0032550&#45;&gt;GO:0001883 -->
<g id="edge21" class="edge">
<title>GO:0032550&#45;&gt;GO:0001883</title>
<path fill="none" stroke="#000000" d="M336.1374,-247.3513C347.522,-259.1612 360.592,-272.7196 371.8431,-284.391"/>
<polygon fill="#000000" stroke="#000000" points="369.4779,-286.9805 378.938,-291.751 374.5176,-282.1223 369.4779,-286.9805"/>
</g>
<!-- GO:0032549 -->
<g id="node19" class="node">
<title>GO:0032549</title>
<polygon fill="#ffffff" stroke="#000000" points="300.0456,-333.0019 155.641,-333.0019 155.641,-291.7981 300.0456,-291.7981 300.0456,-333.0019"/>
<text text-anchor="middle" x="227.8433" y="-316.6" font-family="Times,serif" font-size="14.00" fill="#000000">GO:0032549</text>
<text text-anchor="middle" x="227.8433" y="-299.8" font-family="Times,serif" font-size="14.00" fill="#000000">ribonucleoside binding</text>
</g>
<!-- GO:0032550&#45;&gt;GO:0032549 -->
<g id="edge22" class="edge">
<title>GO:0032550&#45;&gt;GO:0032549</title>
<path fill="none" stroke="#000000" d="M282.9693,-247.3513C273.0562,-259.0488 261.6895,-272.4615 251.8628,-284.057"/>
<polygon fill="#000000" stroke="#000000" points="249.1376,-281.8592 245.3425,-291.751 254.4779,-286.3848 249.1376,-281.8592"/>
</g>
<!-- GO:0001882 -->
<g id="node20" class="node">
<title>GO:0001882</title>
<polygon fill="#ffffff" stroke="#000000" points="456.9942,-427.4019 334.6924,-427.4019 334.6924,-386.1981 456.9942,-386.1981 456.9942,-427.4019"/>
<text text-anchor="middle" x="395.8433" y="-411" font-family="Times,serif" font-size="14.00" fill="#000000">GO:0001882</text>
<text text-anchor="middle" x="395.8433" y="-394.2" font-family="Times,serif" font-size="14.00" fill="#000000">nucleoside binding</text>
</g>
<!-- GO:0001883&#45;&gt;GO:0001882 -->
<g id="edge23" class="edge">
<title>GO:0001883&#45;&gt;GO:0001882</title>
<path fill="none" stroke="#000000" d="M398.1775,-333.3504C397.7813,-345.8165 397.2713,-361.8645 396.8292,-375.7786"/>
<polygon fill="#000000" stroke="#000000" points="393.3267,-375.802 396.5072,-385.9081 400.3232,-376.0244 393.3267,-375.802"/>
</g>
<!-- GO:0032549&#45;&gt;GO:0001882 -->
<g id="edge24" class="edge">
<title>GO:0032549&#45;&gt;GO:0001882</title>
<path fill="none" stroke="#000000" d="M264.7116,-333.1165C289.8776,-347.2574 323.3884,-366.0872 350.234,-381.1719"/>
<polygon fill="#000000" stroke="#000000" points="348.6285,-384.2844 359.061,-386.1318 352.0576,-378.1818 348.6285,-384.2844"/>
</g>
<!-- GO:0001882&#45;&gt;GO:0097159 -->
<g id="edge28" class="edge">
<title>GO:0001882&#45;&gt;GO:0097159</title>
<path fill="none" stroke="#000000" d="M357.8777,-427.5165C336.6174,-439.1175 309.5734,-453.8744 285.2805,-467.1302"/>
<polygon fill="#000000" stroke="#000000" points="283.5724,-464.0751 276.4707,-471.9374 286.9254,-470.2198 283.5724,-464.0751"/>
</g>
<!-- GO:0001882&#45;&gt;GO:1901363 -->
<g id="edge27" class="edge">
<title>GO:0001882&#45;&gt;GO:1901363</title>
<path fill="none" stroke="#000000" d="M395.1775,-427.7504C394.8597,-437.7492 394.4688,-450.0525 394.0983,-461.7106"/>
<polygon fill="#000000" stroke="#000000" points="390.5998,-461.6094 393.7803,-471.7155 397.5963,-461.8318 390.5998,-461.6094"/>
</g>
<!-- GO:0001882&#45;&gt;GO:0036094 -->
<g id="edge25" class="edge">
<title>GO:0001882&#45;&gt;GO:0036094</title>
<path fill="none" stroke="#000000" d="M431.3949,-427.5165C455.5565,-441.5959 487.6952,-460.3236 513.5249,-475.375"/>
<polygon fill="#000000" stroke="#000000" points="511.9724,-478.5211 522.3746,-480.5318 515.4967,-472.473 511.9724,-478.5211"/>
</g>
<!-- GO:0001882&#45;&gt;GO:0097367 -->
<g id="edge26" class="edge">
<title>GO:0001882&#45;&gt;GO:0097367</title>
<path fill="none" stroke="#000000" d="M457.1349,-421.696C504.686,-433.5761 572.3915,-451.1944 640.1655,-471.8658"/>
<polygon fill="#000000" stroke="#000000" points="639.1401,-475.2122 649.727,-474.8026 641.1954,-468.5207 639.1401,-475.2122"/>
</g>
</g>
</svg>
