<?xml version="1.0" encoding="UTF-8" standalone="no"?>
<!DOCTYPE svg PUBLIC "-//W3C//DTD SVG 1.1//EN"
 "http://www.w3.org/Graphics/SVG/1.1/DTD/svg11.dtd">
<!-- Generated by graphviz version 2.40.1 (20161225.0304)
 -->
<!-- Title: G Pages: 1 -->
<svg width="244pt" height="360pt"
 viewBox="0.00 0.00 244.34 360.00" xmlns="http://www.w3.org/2000/svg" xmlns:xlink="http://www.w3.org/1999/xlink">
<g id="graph0" class="graph" transform="scale(1 1) rotate(0) translate(4 356)">
<title>G</title>
<polygon fill="#ffffff" stroke="transparent" points="-4,4 -4,-356 240.3447,-356 240.3447,4 -4,4"/>
<!-- GO:0016787 -->
<g id="node1" class="node">
<title>GO:0016787</title>
<polygon fill="#ff00ff" stroke="#000000" points="115.8749,-196.6019 .0417,-196.6019 .0417,-155.3981 115.8749,-155.3981 115.8749,-196.6019"/>
<text text-anchor="middle" x="57.9583" y="-180.2" font-family="Times,serif" font-size="14.00" fill="#000000">GO:0016787</text>
<text text-anchor="middle" x="57.9583" y="-163.4" font-family="Times,serif" font-size="14.00" fill="#000000">hydrolase activity</text>
</g>
<!-- GO:0003824 -->
<g id="node2" class="node">
<title>GO:0003824</title>
<polygon fill="#ff00ff" stroke="#000000" points="114.3707,-274.2019 5.5459,-274.2019 5.5459,-232.9981 114.3707,-232.9981 114.3707,-274.2019"/>
<text text-anchor="middle" x="59.9583" y="-257.8" font-family="Times,serif" font-size="14.00" fill="#000000">GO:0003824</text>
<text text-anchor="middle" x="59.9583" y="-241" font-family="Times,serif" font-size="14.00" fill="#000000">catalytic activity</text>
</g>
<!-- GO:0016787&#45;&gt;GO:0003824 -->
<g id="edge1" class="edge">
<title>GO:0016787&#45;&gt;GO:0003824</title>
<path fill="none" stroke="#000000" d="M58.4943,-196.7954C58.6983,-204.7109 58.9354,-213.9109 59.1586,-222.5722"/>
<polygon fill="#000000" stroke="#000000" points="55.6643,-222.8408 59.4209,-232.7472 62.662,-222.6603 55.6643,-222.8408"/>
</g>
<!-- GO:0003674 -->
<g id="node3" class="node">
<title>GO:0003674</title>
<polygon fill="#ffffff" stroke="#000000" points="180.5914,-351.8019 55.3252,-351.8019 55.3252,-310.5981 180.5914,-310.5981 180.5914,-351.8019"/>
<text text-anchor="middle" x="117.9583" y="-335.4" font-family="Times,serif" font-size="14.00" fill="#000000">GO:0003674</text>
<text text-anchor="middle" x="117.9583" y="-318.6" font-family="Times,serif" font-size="14.00" fill="#000000">molecular_function</text>
</g>
<!-- GO:0003824&#45;&gt;GO:0003674 -->
<g id="edge2" class="edge">
<title>GO:0003824&#45;&gt;GO:0003674</title>
<path fill="none" stroke="#000000" d="M75.5012,-274.3954C81.8725,-282.9197 89.3574,-292.9339 96.2535,-302.1605"/>
<polygon fill="#000000" stroke="#000000" points="93.5822,-304.4327 102.3725,-310.3472 99.1891,-300.2419 93.5822,-304.4327"/>
</g>
<!-- GO:0046872 -->
<g id="node4" class="node">
<title>GO:0046872</title>
<polygon fill="#ff00ff" stroke="#000000" points="236.2313,-41.4019 121.6853,-41.4019 121.6853,-.1981 236.2313,-.1981 236.2313,-41.4019"/>
<text text-anchor="middle" x="178.9583" y="-25" font-family="Times,serif" font-size="14.00" fill="#000000">GO:0046872</text>
<text text-anchor="middle" x="178.9583" y="-8.2" font-family="Times,serif" font-size="14.00" fill="#000000">metal ion binding</text>
</g>
<!-- GO:0043169 -->
<g id="node5" class="node">
<title>GO:0043169</title>
<polygon fill="#ffffff" stroke="#000000" points="227.4512,-119.0019 130.4654,-119.0019 130.4654,-77.7981 227.4512,-77.7981 227.4512,-119.0019"/>
<text text-anchor="middle" x="178.9583" y="-102.6" font-family="Times,serif" font-size="14.00" fill="#000000">GO:0043169</text>
<text text-anchor="middle" x="178.9583" y="-85.8" font-family="Times,serif" font-size="14.00" fill="#000000">cation binding</text>
</g>
<!-- GO:0046872&#45;&gt;GO:0043169 -->
<g id="edge3" class="edge">
<title>GO:0046872&#45;&gt;GO:0043169</title>
<path fill="none" stroke="#000000" d="M178.9583,-41.5954C178.9583,-49.5109 178.9583,-58.7109 178.9583,-67.3722"/>
<polygon fill="#000000" stroke="#000000" points="175.4584,-67.5472 178.9583,-77.5472 182.4584,-67.5473 175.4584,-67.5472"/>
</g>
<!-- GO:0043167 -->
<g id="node6" class="node">
<title>GO:0043167</title>
<polygon fill="#ffffff" stroke="#000000" points="223.5622,-196.6019 134.3544,-196.6019 134.3544,-155.3981 223.5622,-155.3981 223.5622,-196.6019"/>
<text text-anchor="middle" x="178.9583" y="-180.2" font-family="Times,serif" font-size="14.00" fill="#000000">GO:0043167</text>
<text text-anchor="middle" x="178.9583" y="-163.4" font-family="Times,serif" font-size="14.00" fill="#000000">ion binding</text>
</g>
<!-- GO:0043169&#45;&gt;GO:0043167 -->
<g id="edge4" class="edge">
<title>GO:0043169&#45;&gt;GO:0043167</title>
<path fill="none" stroke="#000000" d="M178.9583,-119.1954C178.9583,-127.1109 178.9583,-136.3109 178.9583,-144.9722"/>
<polygon fill="#000000" stroke="#000000" points="175.4584,-145.1472 178.9583,-155.1472 182.4584,-145.1473 175.4584,-145.1472"/>
</g>
<!-- GO:0005488 -->
<g id="node7" class="node">
<title>GO:0005488</title>
<polygon fill="#ffffff" stroke="#000000" points="222.5622,-274.2019 133.3544,-274.2019 133.3544,-232.9981 222.5622,-232.9981 222.5622,-274.2019"/>
<text text-anchor="middle" x="177.9583" y="-257.8" font-family="Times,serif" font-size="14.00" fill="#000000">GO:0005488</text>
<text text-anchor="middle" x="177.9583" y="-241" font-family="Times,serif" font-size="14.00" fill="#000000">binding</text>
</g>
<!-- GO:0043167&#45;&gt;GO:0005488 -->
<g id="edge5" class="edge">
<title>GO:0043167&#45;&gt;GO:0005488</title>
<path fill="none" stroke="#000000" d="M178.6903,-196.7954C178.5883,-204.7109 178.4698,-213.9109 178.3581,-222.5722"/>
<polygon fill="#000000" stroke="#000000" points="174.8563,-222.7029 178.227,-232.7472 181.8557,-222.7932 174.8563,-222.7029"/>
</g>
<!-- GO:0005488&#45;&gt;GO:0003674 -->
<g id="edge6" class="edge">
<title>GO:0005488&#45;&gt;GO:0003674</title>
<path fill="none" stroke="#000000" d="M161.8794,-274.3954C155.2884,-282.9197 147.5455,-292.9339 140.4115,-302.1605"/>
<polygon fill="#000000" stroke="#000000" points="137.4295,-300.2953 134.0816,-310.3472 142.9673,-304.577 137.4295,-300.2953"/>
</g>
</g>
</svg>
