<?xml version="1.0" encoding="UTF-8" standalone="no"?>
<!DOCTYPE svg PUBLIC "-//W3C//DTD SVG 1.1//EN"
 "http://www.w3.org/Graphics/SVG/1.1/DTD/svg11.dtd">
<!-- Generated by graphviz version 2.40.1 (20161225.0304)
 -->
<!-- Title: G Pages: 1 -->
<svg width="578pt" height="471pt"
 viewBox="0.00 0.00 577.59 471.20" xmlns="http://www.w3.org/2000/svg" xmlns:xlink="http://www.w3.org/1999/xlink">
<g id="graph0" class="graph" transform="scale(1 1) rotate(0) translate(4 467.2)">
<title>G</title>
<polygon fill="#ffffff" stroke="transparent" points="-4,4 -4,-467.2 573.5895,-467.2 573.5895,4 -4,4"/>
<!-- GO:0044464 -->
<g id="node1" class="node">
<title>GO:0044464</title>
<polygon fill="#ff0000" stroke="#000000" points="256.213,-385.4019 167.0052,-385.4019 167.0052,-344.1981 256.213,-344.1981 256.213,-385.4019"/>
<text text-anchor="middle" x="211.6091" y="-369" font-family="Times,serif" font-size="14.00" fill="#000000">GO:0044464</text>
<text text-anchor="middle" x="211.6091" y="-352.2" font-family="Times,serif" font-size="14.00" fill="#000000">cell part</text>
</g>
<!-- GO:0005575 -->
<g id="node2" class="node">
<title>GO:0005575</title>
<polygon fill="#ffffff" stroke="#000000" points="311.2958,-463.0019 183.9224,-463.0019 183.9224,-421.7981 311.2958,-421.7981 311.2958,-463.0019"/>
<text text-anchor="middle" x="247.6091" y="-446.6" font-family="Times,serif" font-size="14.00" fill="#000000">GO:0005575</text>
<text text-anchor="middle" x="247.6091" y="-429.8" font-family="Times,serif" font-size="14.00" fill="#000000">cellular_component</text>
</g>
<!-- GO:0044464&#45;&gt;GO:0005575 -->
<g id="edge1" class="edge">
<title>GO:0044464&#45;&gt;GO:0005575</title>
<path fill="none" stroke="#000000" d="M221.2564,-385.5954C225.0496,-393.7718 229.4787,-403.3189 233.6113,-412.227"/>
<polygon fill="#000000" stroke="#000000" points="230.5517,-413.9488 237.9351,-421.5472 236.9017,-411.0029 230.5517,-413.9488"/>
</g>
<!-- GO:0043229 -->
<g id="node3" class="node">
<title>GO:0043229</title>
<polygon fill="#00ff00" stroke="#000000" points="423.3275,-221.8019 283.8907,-221.8019 283.8907,-180.5981 423.3275,-180.5981 423.3275,-221.8019"/>
<text text-anchor="middle" x="353.6091" y="-205.4" font-family="Times,serif" font-size="14.00" fill="#000000">GO:0043229</text>
<text text-anchor="middle" x="353.6091" y="-188.6" font-family="Times,serif" font-size="14.00" fill="#000000">intracellular organelle</text>
</g>
<!-- GO:0044424 -->
<g id="node4" class="node">
<title>GO:0044424</title>
<polygon fill="#ff0000" stroke="#000000" points="266.0075,-307.8019 157.2107,-307.8019 157.2107,-266.5981 266.0075,-266.5981 266.0075,-307.8019"/>
<text text-anchor="middle" x="211.6091" y="-291.4" font-family="Times,serif" font-size="14.00" fill="#000000">GO:0044424</text>
<text text-anchor="middle" x="211.6091" y="-274.6" font-family="Times,serif" font-size="14.00" fill="#000000">intracellular part</text>
</g>
<!-- GO:0043229&#45;&gt;GO:0044424 -->
<g id="edge2" class="edge">
<title>GO:0043229&#45;&gt;GO:0044424</title>
<path fill="none" stroke="#000000" d="M319.2349,-222.0182C299.6997,-233.8494 275.0704,-248.7657 254.304,-261.3425"/>
<polygon fill="#000000" stroke="#000000" points="252.4073,-258.3994 245.6668,-266.5735 256.0335,-264.3869 252.4073,-258.3994"/>
</g>
<!-- GO:0043226 -->
<g id="node5" class="node">
<title>GO:0043226</title>
<polygon fill="#00ff00" stroke="#000000" points="398.213,-307.8019 309.0052,-307.8019 309.0052,-266.5981 398.213,-266.5981 398.213,-307.8019"/>
<text text-anchor="middle" x="353.6091" y="-291.4" font-family="Times,serif" font-size="14.00" fill="#000000">GO:0043226</text>
<text text-anchor="middle" x="353.6091" y="-274.6" font-family="Times,serif" font-size="14.00" fill="#000000">organelle</text>
</g>
<!-- GO:0043229&#45;&gt;GO:0043226 -->
<g id="edge3" class="edge">
<title>GO:0043229&#45;&gt;GO:0043226</title>
<path fill="none" stroke="#000000" d="M353.6091,-222.0182C353.6091,-232.3705 353.6091,-245.0848 353.6091,-256.5271"/>
<polygon fill="#000000" stroke="#000000" points="350.1092,-256.5735 353.6091,-266.5735 357.1092,-256.5735 350.1092,-256.5735"/>
</g>
<!-- GO:0044424&#45;&gt;GO:0044464 -->
<g id="edge4" class="edge">
<title>GO:0044424&#45;&gt;GO:0044464</title>
<path fill="none" stroke="#000000" d="M211.6091,-307.9954C211.6091,-315.9109 211.6091,-325.1109 211.6091,-333.7722"/>
<polygon fill="#000000" stroke="#000000" points="208.1092,-333.9472 211.6091,-343.9472 215.1092,-333.9473 208.1092,-333.9472"/>
</g>
<!-- GO:0043226&#45;&gt;GO:0005575 -->
<g id="edge5" class="edge">
<title>GO:0043226&#45;&gt;GO:0005575</title>
<path fill="none" stroke="#000000" d="M333.5333,-307.9192C323.9379,-318.3256 312.6114,-331.3795 303.6091,-344 287.9413,-365.9649 272.9757,-392.6643 262.4636,-412.7066"/>
<polygon fill="#000000" stroke="#000000" points="259.3061,-411.1928 257.8191,-421.6827 265.5232,-414.4096 259.3061,-411.1928"/>
</g>
<!-- GO:0043227 -->
<g id="node6" class="node">
<title>GO:0043227</title>
<polygon fill="#00ff00" stroke="#000000" points="569.5699,-230.6014 441.6483,-230.6014 441.6483,-171.7986 569.5699,-171.7986 569.5699,-230.6014"/>
<text text-anchor="middle" x="505.6091" y="-213.8" font-family="Times,serif" font-size="14.00" fill="#000000">GO:0043227</text>
<text text-anchor="middle" x="505.6091" y="-197" font-family="Times,serif" font-size="14.00" fill="#000000">membrane&#45;bounded</text>
<text text-anchor="middle" x="505.6091" y="-180.2" font-family="Times,serif" font-size="14.00" fill="#000000">organelle</text>
</g>
<!-- GO:0043227&#45;&gt;GO:0043226 -->
<g id="edge6" class="edge">
<title>GO:0043227&#45;&gt;GO:0043226</title>
<path fill="none" stroke="#000000" d="M453.7245,-230.5558C436.0012,-240.5834 416.3261,-251.7154 399.1415,-261.4383"/>
<polygon fill="#000000" stroke="#000000" points="397.3855,-258.4103 390.4056,-266.3809 400.8326,-264.5028 397.3855,-258.4103"/>
</g>
<!-- GO:0005634 -->
<g id="node7" class="node">
<title>GO:0005634</title>
<polygon fill="#00ffff" stroke="#000000" points="474.213,-41.4019 385.0052,-41.4019 385.0052,-.1981 474.213,-.1981 474.213,-41.4019"/>
<text text-anchor="middle" x="429.6091" y="-25" font-family="Times,serif" font-size="14.00" fill="#000000">GO:0005634</text>
<text text-anchor="middle" x="429.6091" y="-8.2" font-family="Times,serif" font-size="14.00" fill="#000000">nucleus</text>
</g>
<!-- GO:0043231 -->
<g id="node8" class="node">
<title>GO:0043231</title>
<polygon fill="#00ff00" stroke="#000000" points="504.9879,-136.2014 354.2303,-136.2014 354.2303,-77.3986 504.9879,-77.3986 504.9879,-136.2014"/>
<text text-anchor="middle" x="429.6091" y="-119.4" font-family="Times,serif" font-size="14.00" fill="#000000">GO:0043231</text>
<text text-anchor="middle" x="429.6091" y="-102.6" font-family="Times,serif" font-size="14.00" fill="#000000">intracellular membrane&#45;</text>
<text text-anchor="middle" x="429.6091" y="-85.8" font-family="Times,serif" font-size="14.00" fill="#000000">bounded organelle</text>
</g>
<!-- GO:0005634&#45;&gt;GO:0043231 -->
<g id="edge7" class="edge">
<title>GO:0005634&#45;&gt;GO:0043231</title>
<path fill="none" stroke="#000000" d="M429.6091,-41.6182C429.6091,-49.3358 429.6091,-58.3662 429.6091,-67.2036"/>
<polygon fill="#000000" stroke="#000000" points="426.1092,-67.3991 429.6091,-77.3991 433.1092,-67.3992 426.1092,-67.3991"/>
</g>
<!-- GO:0043231&#45;&gt;GO:0043229 -->
<g id="edge8" class="edge">
<title>GO:0043231&#45;&gt;GO:0043229</title>
<path fill="none" stroke="#000000" d="M405.9788,-136.1513C396.6519,-147.7363 385.9705,-161.0037 376.6973,-172.522"/>
<polygon fill="#000000" stroke="#000000" points="373.7781,-170.5667 370.2333,-180.551 379.2307,-174.9565 373.7781,-170.5667"/>
</g>
<!-- GO:0043231&#45;&gt;GO:0043227 -->
<g id="edge9" class="edge">
<title>GO:0043231&#45;&gt;GO:0043227</title>
<path fill="none" stroke="#000000" d="M453.2394,-136.1513C460.3168,-144.9422 468.1741,-154.7018 475.6042,-163.9308"/>
<polygon fill="#000000" stroke="#000000" points="472.9961,-166.2724 481.9934,-171.8669 478.4486,-161.8826 472.9961,-166.2724"/>
</g>
<!-- GO:0016020 -->
<g id="node9" class="node">
<title>GO:0016020</title>
<polygon fill="#00ff00" stroke="#000000" points="402.213,-385.4019 313.0052,-385.4019 313.0052,-344.1981 402.213,-344.1981 402.213,-385.4019"/>
<text text-anchor="middle" x="357.6091" y="-369" font-family="Times,serif" font-size="14.00" fill="#000000">GO:0016020</text>
<text text-anchor="middle" x="357.6091" y="-352.2" font-family="Times,serif" font-size="14.00" fill="#000000">membrane</text>
</g>
<!-- GO:0016020&#45;&gt;GO:0005575 -->
<g id="edge10" class="edge">
<title>GO:0016020&#45;&gt;GO:0005575</title>
<path fill="none" stroke="#000000" d="M328.1311,-385.5954C315.0612,-394.8156 299.5206,-405.7788 285.5944,-415.6031"/>
<polygon fill="#000000" stroke="#000000" points="283.3222,-412.9227 277.1685,-421.5472 287.3574,-418.6427 283.3222,-412.9227"/>
</g>
<!-- GO:0044446 -->
<g id="node10" class="node">
<title>GO:0044446</title>
<polygon fill="#00ff00" stroke="#000000" points="139.3275,-230.6014 -.1093,-230.6014 -.1093,-171.7986 139.3275,-171.7986 139.3275,-230.6014"/>
<text text-anchor="middle" x="69.6091" y="-213.8" font-family="Times,serif" font-size="14.00" fill="#000000">GO:0044446</text>
<text text-anchor="middle" x="69.6091" y="-197" font-family="Times,serif" font-size="14.00" fill="#000000">intracellular organelle</text>
<text text-anchor="middle" x="69.6091" y="-180.2" font-family="Times,serif" font-size="14.00" fill="#000000">part</text>
</g>
<!-- GO:0044446&#45;&gt;GO:0044424 -->
<g id="edge11" class="edge">
<title>GO:0044446&#45;&gt;GO:0044424</title>
<path fill="none" stroke="#000000" d="M118.0803,-230.5558C134.4856,-240.4914 152.6811,-251.5112 168.6298,-261.1703"/>
<polygon fill="#000000" stroke="#000000" points="166.8667,-264.1943 177.2334,-266.3809 170.493,-258.2068 166.8667,-264.1943"/>
</g>
<!-- GO:0044422 -->
<g id="node11" class="node">
<title>GO:0044422</title>
<polygon fill="#ffff00" stroke="#000000" points="141.4612,-385.4019 47.757,-385.4019 47.757,-344.1981 141.4612,-344.1981 141.4612,-385.4019"/>
<text text-anchor="middle" x="94.6091" y="-369" font-family="Times,serif" font-size="14.00" fill="#000000">GO:0044422</text>
<text text-anchor="middle" x="94.6091" y="-352.2" font-family="Times,serif" font-size="14.00" fill="#000000">organelle part</text>
</g>
<!-- GO:0044446&#45;&gt;GO:0044422 -->
<g id="edge12" class="edge">
<title>GO:0044446&#45;&gt;GO:0044422</title>
<path fill="none" stroke="#000000" d="M74.0786,-230.4484C78.5316,-259.5891 85.3426,-304.1603 89.8835,-333.8759"/>
<polygon fill="#000000" stroke="#000000" points="86.4747,-334.739 91.4452,-344.0955 93.3944,-333.6815 86.4747,-334.739"/>
</g>
<!-- GO:0044422&#45;&gt;GO:0005575 -->
<g id="edge13" class="edge">
<title>GO:0044422&#45;&gt;GO:0005575</title>
<path fill="none" stroke="#000000" d="M135.6103,-385.5954C154.7236,-395.2895 177.6357,-406.9102 197.7429,-417.1084"/>
<polygon fill="#000000" stroke="#000000" points="196.2586,-420.2799 206.7602,-421.6819 199.4249,-414.037 196.2586,-420.2799"/>
</g>
<!-- GO:0044444 -->
<g id="node12" class="node">
<title>GO:0044444</title>
<polygon fill="#00ff00" stroke="#000000" points="266.0257,-221.8019 157.1925,-221.8019 157.1925,-180.5981 266.0257,-180.5981 266.0257,-221.8019"/>
<text text-anchor="middle" x="211.6091" y="-205.4" font-family="Times,serif" font-size="14.00" fill="#000000">GO:0044444</text>
<text text-anchor="middle" x="211.6091" y="-188.6" font-family="Times,serif" font-size="14.00" fill="#000000">cytoplasmic part</text>
</g>
<!-- GO:0044444&#45;&gt;GO:0044424 -->
<g id="edge14" class="edge">
<title>GO:0044444&#45;&gt;GO:0044424</title>
<path fill="none" stroke="#000000" d="M211.6091,-222.0182C211.6091,-232.3705 211.6091,-245.0848 211.6091,-256.5271"/>
<polygon fill="#000000" stroke="#000000" points="208.1092,-256.5735 211.6091,-266.5735 215.1092,-256.5735 208.1092,-256.5735"/>
</g>
</g>
</svg>
