<?xml version="1.0" encoding="UTF-8" standalone="no"?>
<!DOCTYPE svg PUBLIC "-//W3C//DTD SVG 1.1//EN"
 "http://www.w3.org/Graphics/SVG/1.1/DTD/svg11.dtd">
<!-- Generated by graphviz version 2.40.1 (20161225.0304)
 -->
<!-- Title: G Pages: 1 -->
<svg width="566pt" height="222pt"
 viewBox="0.00 0.00 565.85 221.60" xmlns="http://www.w3.org/2000/svg" xmlns:xlink="http://www.w3.org/1999/xlink">
<g id="graph0" class="graph" transform="scale(1 1) rotate(0) translate(4 217.6)">
<title>G</title>
<polygon fill="#ffffff" stroke="transparent" points="-4,4 -4,-217.6 561.8542,-217.6 561.8542,4 -4,4"/>
<!-- GO:0065007 -->
<g id="node1" class="node">
<title>GO:0065007</title>
<polygon fill="#00ffff" stroke="#000000" points="132.38,-135.8019 -.1268,-135.8019 -.1268,-94.5981 132.38,-94.5981 132.38,-135.8019"/>
<text text-anchor="middle" x="66.1266" y="-119.4" font-family="Times,serif" font-size="14.00" fill="#000000">GO:0065007</text>
<text text-anchor="middle" x="66.1266" y="-102.6" font-family="Times,serif" font-size="14.00" fill="#000000">biological regulation</text>
</g>
<!-- GO:0008150 -->
<g id="node2" class="node">
<title>GO:0008150</title>
<polygon fill="#ffffff" stroke="#000000" points="344.5972,-213.4019 223.656,-213.4019 223.656,-172.1981 344.5972,-172.1981 344.5972,-213.4019"/>
<text text-anchor="middle" x="284.1266" y="-197" font-family="Times,serif" font-size="14.00" fill="#000000">GO:0008150</text>
<text text-anchor="middle" x="284.1266" y="-180.2" font-family="Times,serif" font-size="14.00" fill="#000000">biological_process</text>
</g>
<!-- GO:0065007&#45;&gt;GO:0008150 -->
<g id="edge1" class="edge">
<title>GO:0065007&#45;&gt;GO:0008150</title>
<path fill="none" stroke="#000000" d="M124.2602,-135.8934C152.7137,-146.0218 187.1284,-158.2722 216.7277,-168.8085"/>
<polygon fill="#000000" stroke="#000000" points="215.5603,-172.108 226.155,-172.1642 217.9078,-165.5133 215.5603,-172.108"/>
</g>
<!-- GO:0008152 -->
<g id="node3" class="node">
<title>GO:0008152</title>
<polygon fill="#ffff00" stroke="#000000" points="266.3122,-135.8019 149.941,-135.8019 149.941,-94.5981 266.3122,-94.5981 266.3122,-135.8019"/>
<text text-anchor="middle" x="208.1266" y="-119.4" font-family="Times,serif" font-size="14.00" fill="#000000">GO:0008152</text>
<text text-anchor="middle" x="208.1266" y="-102.6" font-family="Times,serif" font-size="14.00" fill="#000000">metabolic process</text>
</g>
<!-- GO:0008152&#45;&gt;GO:0008150 -->
<g id="edge2" class="edge">
<title>GO:0008152&#45;&gt;GO:0008150</title>
<path fill="none" stroke="#000000" d="M228.4932,-135.9954C237.0974,-144.7807 247.2513,-155.1484 256.5135,-164.6056"/>
<polygon fill="#000000" stroke="#000000" points="254.2062,-167.2518 263.7038,-171.9472 259.2072,-162.3539 254.2062,-167.2518"/>
</g>
<!-- GO:0044699 -->
<g id="node4" class="node">
<title>GO:0044699</title>
<polygon fill="#ffa500" stroke="#000000" points="435.8079,-135.8019 284.4453,-135.8019 284.4453,-94.5981 435.8079,-94.5981 435.8079,-135.8019"/>
<text text-anchor="middle" x="360.1266" y="-119.4" font-family="Times,serif" font-size="14.00" fill="#000000">GO:0044699</text>
<text text-anchor="middle" x="360.1266" y="-102.6" font-family="Times,serif" font-size="14.00" fill="#000000">single&#45;organism process</text>
</g>
<!-- GO:0044699&#45;&gt;GO:0008150 -->
<g id="edge3" class="edge">
<title>GO:0044699&#45;&gt;GO:0008150</title>
<path fill="none" stroke="#000000" d="M339.76,-135.9954C331.1558,-144.7807 321.0019,-155.1484 311.7397,-164.6056"/>
<polygon fill="#000000" stroke="#000000" points="309.046,-162.3539 304.5494,-171.9472 314.047,-167.2518 309.046,-162.3539"/>
</g>
<!-- GO:0009987 -->
<g id="node5" class="node">
<title>GO:0009987</title>
<polygon fill="#00ff00" stroke="#000000" points="558.0828,-135.8019 454.1704,-135.8019 454.1704,-94.5981 558.0828,-94.5981 558.0828,-135.8019"/>
<text text-anchor="middle" x="506.1266" y="-119.4" font-family="Times,serif" font-size="14.00" fill="#000000">GO:0009987</text>
<text text-anchor="middle" x="506.1266" y="-102.6" font-family="Times,serif" font-size="14.00" fill="#000000">cellular process</text>
</g>
<!-- GO:0009987&#45;&gt;GO:0008150 -->
<g id="edge4" class="edge">
<title>GO:0009987&#45;&gt;GO:0008150</title>
<path fill="none" stroke="#000000" d="M454.3576,-133.2958C424.155,-143.8531 385.6784,-157.3026 352.9489,-168.7432"/>
<polygon fill="#000000" stroke="#000000" points="351.7229,-165.464 343.4379,-172.0678 354.0328,-172.0719 351.7229,-165.464"/>
</g>
<!-- GO:0071704 -->
<g id="node6" class="node">
<title>GO:0071704</title>
<polygon fill="#00ff00" stroke="#000000" points="187.3122,-58.6014 70.941,-58.6014 70.941,.2014 187.3122,.2014 187.3122,-58.6014"/>
<text text-anchor="middle" x="129.1266" y="-41.8" font-family="Times,serif" font-size="14.00" fill="#000000">GO:0071704</text>
<text text-anchor="middle" x="129.1266" y="-25" font-family="Times,serif" font-size="14.00" fill="#000000">organic substance</text>
<text text-anchor="middle" x="129.1266" y="-8.2" font-family="Times,serif" font-size="14.00" fill="#000000">metabolic process</text>
</g>
<!-- GO:0071704&#45;&gt;GO:0008152 -->
<g id="edge5" class="edge">
<title>GO:0071704&#45;&gt;GO:0008152</title>
<path fill="none" stroke="#000000" d="M156.3139,-58.7963C164.6679,-67.8905 173.8383,-77.8734 182.1117,-86.88"/>
<polygon fill="#000000" stroke="#000000" points="179.7657,-89.4999 189.1083,-94.4966 184.9208,-84.7643 179.7657,-89.4999"/>
</g>
<!-- GO:0044238 -->
<g id="node7" class="node">
<title>GO:0044238</title>
<polygon fill="#00ff00" stroke="#000000" points="370.1296,-49.8019 206.1236,-49.8019 206.1236,-8.5981 370.1296,-8.5981 370.1296,-49.8019"/>
<text text-anchor="middle" x="288.1266" y="-33.4" font-family="Times,serif" font-size="14.00" fill="#000000">GO:0044238</text>
<text text-anchor="middle" x="288.1266" y="-16.6" font-family="Times,serif" font-size="14.00" fill="#000000">primary metabolic process</text>
</g>
<!-- GO:0044238&#45;&gt;GO:0008152 -->
<g id="edge6" class="edge">
<title>GO:0044238&#45;&gt;GO:0008152</title>
<path fill="none" stroke="#000000" d="M268.7608,-50.0182C258.4429,-61.1099 245.6027,-74.9132 234.398,-86.9583"/>
<polygon fill="#000000" stroke="#000000" points="231.5624,-84.8677 227.314,-94.5735 236.6878,-89.6355 231.5624,-84.8677"/>
</g>
</g>
</svg>
