<?xml version="1.0" encoding="UTF-8" standalone="no"?>
<!DOCTYPE svg PUBLIC "-//W3C//DTD SVG 1.1//EN"
 "http://www.w3.org/Graphics/SVG/1.1/DTD/svg11.dtd">
<!-- Generated by graphviz version 2.40.1 (20161225.0304)
 -->
<!-- Title: G Pages: 1 -->
<svg width="462pt" height="394pt"
 viewBox="0.00 0.00 462.00 393.60" xmlns="http://www.w3.org/2000/svg" xmlns:xlink="http://www.w3.org/1999/xlink">
<g id="graph0" class="graph" transform="scale(1 1) rotate(0) translate(4 389.6)">
<title>G</title>
<polygon fill="#ffffff" stroke="transparent" points="-4,4 -4,-389.6 458.0011,-389.6 458.0011,4 -4,4"/>
<!-- GO:0042627 -->
<g id="node1" class="node">
<title>GO:0042627</title>
<polygon fill="#ff0000" stroke="#000000" points="89.1558,-49.8019 -.052,-49.8019 -.052,-8.5981 89.1558,-8.5981 89.1558,-49.8019"/>
<text text-anchor="middle" x="44.5519" y="-33.4" font-family="Times,serif" font-size="14.00" fill="#000000">GO:0042627</text>
<text text-anchor="middle" x="44.5519" y="-16.6" font-family="Times,serif" font-size="14.00" fill="#000000">chylomicron</text>
</g>
<!-- GO:0034358 -->
<g id="node2" class="node">
<title>GO:0034358</title>
<polygon fill="#ffffff" stroke="#000000" points="173.6452,-153.0014 53.4586,-153.0014 53.4586,-94.1986 173.6452,-94.1986 173.6452,-153.0014"/>
<text text-anchor="middle" x="113.5519" y="-136.2" font-family="Times,serif" font-size="14.00" fill="#000000">GO:0034358</text>
<text text-anchor="middle" x="113.5519" y="-119.4" font-family="Times,serif" font-size="14.00" fill="#000000">plasma lipoprotein</text>
<text text-anchor="middle" x="113.5519" y="-102.6" font-family="Times,serif" font-size="14.00" fill="#000000">particle</text>
</g>
<!-- GO:0042627&#45;&gt;GO:0034358 -->
<g id="edge1" class="edge">
<title>GO:0042627&#45;&gt;GO:0034358</title>
<path fill="none" stroke="#000000" d="M59.8652,-50.1504C67.5428,-60.6542 77.0792,-73.7011 85.9751,-85.8717"/>
<polygon fill="#000000" stroke="#000000" points="83.274,-88.1076 92.0007,-94.1155 88.9253,-83.9768 83.274,-88.1076"/>
</g>
<!-- GO:1990777 -->
<g id="node3" class="node">
<title>GO:1990777</title>
<polygon fill="#ffffff" stroke="#000000" points="167.9657,-230.2019 45.1381,-230.2019 45.1381,-188.9981 167.9657,-188.9981 167.9657,-230.2019"/>
<text text-anchor="middle" x="106.5519" y="-213.8" font-family="Times,serif" font-size="14.00" fill="#000000">GO:1990777</text>
<text text-anchor="middle" x="106.5519" y="-197" font-family="Times,serif" font-size="14.00" fill="#000000">lipoprotein particle</text>
</g>
<!-- GO:0034358&#45;&gt;GO:1990777 -->
<g id="edge2" class="edge">
<title>GO:0034358&#45;&gt;GO:1990777</title>
<path fill="none" stroke="#000000" d="M111.1429,-153.1963C110.47,-161.4638 109.7372,-170.4657 109.0588,-178.8008"/>
<polygon fill="#000000" stroke="#000000" points="105.56,-178.6455 108.2371,-188.8966 112.5369,-179.2135 105.56,-178.6455"/>
</g>
<!-- GO:0044421 -->
<g id="node4" class="node">
<title>GO:0044421</title>
<polygon fill="#ff0000" stroke="#000000" points="337.0409,-230.2019 186.0629,-230.2019 186.0629,-188.9981 337.0409,-188.9981 337.0409,-230.2019"/>
<text text-anchor="middle" x="261.5519" y="-213.8" font-family="Times,serif" font-size="14.00" fill="#000000">GO:0044421</text>
<text text-anchor="middle" x="261.5519" y="-197" font-family="Times,serif" font-size="14.00" fill="#000000">extracellular region part</text>
</g>
<!-- GO:0034358&#45;&gt;GO:0044421 -->
<g id="edge3" class="edge">
<title>GO:0034358&#45;&gt;GO:0044421</title>
<path fill="none" stroke="#000000" d="M164.0712,-152.9558C181.1697,-162.8914 200.134,-173.9112 216.7566,-183.5703"/>
<polygon fill="#000000" stroke="#000000" points="215.319,-186.7829 225.7238,-188.7809 218.836,-180.7305 215.319,-186.7829"/>
</g>
<!-- GO:0032994 -->
<g id="node5" class="node">
<title>GO:0032994</title>
<polygon fill="#ffffff" stroke="#000000" points="175.2514,-307.8019 37.8524,-307.8019 37.8524,-266.5981 175.2514,-266.5981 175.2514,-307.8019"/>
<text text-anchor="middle" x="106.5519" y="-291.4" font-family="Times,serif" font-size="14.00" fill="#000000">GO:0032994</text>
<text text-anchor="middle" x="106.5519" y="-274.6" font-family="Times,serif" font-size="14.00" fill="#000000">protein&#45;lipid complex</text>
</g>
<!-- GO:1990777&#45;&gt;GO:0032994 -->
<g id="edge4" class="edge">
<title>GO:1990777&#45;&gt;GO:0032994</title>
<path fill="none" stroke="#000000" d="M106.5519,-230.3954C106.5519,-238.3109 106.5519,-247.5109 106.5519,-256.1722"/>
<polygon fill="#000000" stroke="#000000" points="103.052,-256.3472 106.5519,-266.3472 110.052,-256.3473 103.052,-256.3472"/>
</g>
<!-- GO:0005575 -->
<g id="node6" class="node">
<title>GO:0005575</title>
<polygon fill="#ffffff" stroke="#000000" points="394.2386,-307.8019 266.8652,-307.8019 266.8652,-266.5981 394.2386,-266.5981 394.2386,-307.8019"/>
<text text-anchor="middle" x="330.5519" y="-291.4" font-family="Times,serif" font-size="14.00" fill="#000000">GO:0005575</text>
<text text-anchor="middle" x="330.5519" y="-274.6" font-family="Times,serif" font-size="14.00" fill="#000000">cellular_component</text>
</g>
<!-- GO:0044421&#45;&gt;GO:0005575 -->
<g id="edge5" class="edge">
<title>GO:0044421&#45;&gt;GO:0005575</title>
<path fill="none" stroke="#000000" d="M280.0426,-230.3954C287.777,-239.0937 296.8906,-249.3433 305.2321,-258.7244"/>
<polygon fill="#000000" stroke="#000000" points="302.7497,-261.1999 312.0101,-266.3472 307.9808,-256.5485 302.7497,-261.1999"/>
</g>
<!-- GO:0032991 -->
<g id="node7" class="node">
<title>GO:0032991</title>
<polygon fill="#ffffff" stroke="#000000" points="185.7192,-385.4019 27.3846,-385.4019 27.3846,-344.1981 185.7192,-344.1981 185.7192,-385.4019"/>
<text text-anchor="middle" x="106.5519" y="-369" font-family="Times,serif" font-size="14.00" fill="#000000">GO:0032991</text>
<text text-anchor="middle" x="106.5519" y="-352.2" font-family="Times,serif" font-size="14.00" fill="#000000">macromolecular complex</text>
</g>
<!-- GO:0032994&#45;&gt;GO:0032991 -->
<g id="edge6" class="edge">
<title>GO:0032994&#45;&gt;GO:0032991</title>
<path fill="none" stroke="#000000" d="M106.5519,-307.9954C106.5519,-315.9109 106.5519,-325.1109 106.5519,-333.7722"/>
<polygon fill="#000000" stroke="#000000" points="103.052,-333.9472 106.5519,-343.9472 110.052,-333.9473 103.052,-333.9472"/>
</g>
<!-- GO:0072562 -->
<g id="node8" class="node">
<title>GO:0072562</title>
<polygon fill="#ff0000" stroke="#000000" points="324.5751,-144.2019 198.5287,-144.2019 198.5287,-102.9981 324.5751,-102.9981 324.5751,-144.2019"/>
<text text-anchor="middle" x="261.5519" y="-127.8" font-family="Times,serif" font-size="14.00" fill="#000000">GO:0072562</text>
<text text-anchor="middle" x="261.5519" y="-111" font-family="Times,serif" font-size="14.00" fill="#000000">blood microparticle</text>
</g>
<!-- GO:0072562&#45;&gt;GO:0044421 -->
<g id="edge7" class="edge">
<title>GO:0072562&#45;&gt;GO:0044421</title>
<path fill="none" stroke="#000000" d="M261.5519,-144.4182C261.5519,-154.7705 261.5519,-167.4848 261.5519,-178.9271"/>
<polygon fill="#000000" stroke="#000000" points="258.052,-178.9735 261.5519,-188.9735 265.052,-178.9735 258.052,-178.9735"/>
</g>
<!-- GO:0034364 -->
<g id="node9" class="node">
<title>GO:0034364</title>
<polygon fill="#ff0000" stroke="#000000" points="257.9811,-58.6014 107.1227,-58.6014 107.1227,.2014 257.9811,.2014 257.9811,-58.6014"/>
<text text-anchor="middle" x="182.5519" y="-41.8" font-family="Times,serif" font-size="14.00" fill="#000000">GO:0034364</text>
<text text-anchor="middle" x="182.5519" y="-25" font-family="Times,serif" font-size="14.00" fill="#000000">high&#45;density lipoprotein</text>
<text text-anchor="middle" x="182.5519" y="-8.2" font-family="Times,serif" font-size="14.00" fill="#000000">particle</text>
</g>
<!-- GO:0034364&#45;&gt;GO:0034358 -->
<g id="edge8" class="edge">
<title>GO:0034364&#45;&gt;GO:0034358</title>
<path fill="none" stroke="#000000" d="M161.0981,-58.5513C154.7375,-67.2534 147.683,-76.9047 140.9977,-86.0509"/>
<polygon fill="#000000" stroke="#000000" points="138.0678,-84.1282 134.9924,-94.2669 143.7192,-88.2589 138.0678,-84.1282"/>
</g>
<!-- GO:0044464 -->
<g id="node10" class="node">
<title>GO:0044464</title>
<polygon fill="#00ff00" stroke="#000000" points="444.1558,-230.2019 354.948,-230.2019 354.948,-188.9981 444.1558,-188.9981 444.1558,-230.2019"/>
<text text-anchor="middle" x="399.5519" y="-213.8" font-family="Times,serif" font-size="14.00" fill="#000000">GO:0044464</text>
<text text-anchor="middle" x="399.5519" y="-197" font-family="Times,serif" font-size="14.00" fill="#000000">cell part</text>
</g>
<!-- GO:0044464&#45;&gt;GO:0005575 -->
<g id="edge9" class="edge">
<title>GO:0044464&#45;&gt;GO:0005575</title>
<path fill="none" stroke="#000000" d="M381.0612,-230.3954C373.3268,-239.0937 364.2132,-249.3433 355.8717,-258.7244"/>
<polygon fill="#000000" stroke="#000000" points="353.123,-256.5485 349.0937,-266.3472 358.3541,-261.1999 353.123,-256.5485"/>
</g>
<!-- GO:0044424 -->
<g id="node11" class="node">
<title>GO:0044424</title>
<polygon fill="#00ffff" stroke="#000000" points="453.9503,-144.2019 345.1535,-144.2019 345.1535,-102.9981 453.9503,-102.9981 453.9503,-144.2019"/>
<text text-anchor="middle" x="399.5519" y="-127.8" font-family="Times,serif" font-size="14.00" fill="#000000">GO:0044424</text>
<text text-anchor="middle" x="399.5519" y="-111" font-family="Times,serif" font-size="14.00" fill="#000000">intracellular part</text>
</g>
<!-- GO:0044424&#45;&gt;GO:0044464 -->
<g id="edge10" class="edge">
<title>GO:0044424&#45;&gt;GO:0044464</title>
<path fill="none" stroke="#000000" d="M399.5519,-144.4182C399.5519,-154.7705 399.5519,-167.4848 399.5519,-178.9271"/>
<polygon fill="#000000" stroke="#000000" points="396.052,-178.9735 399.5519,-188.9735 403.052,-178.9735 396.052,-178.9735"/>
</g>
</g>
</svg>
