<?xml version="1.0" encoding="UTF-8" standalone="no"?>
<!DOCTYPE svg PUBLIC "-//W3C//DTD SVG 1.1//EN"
 "http://www.w3.org/Graphics/SVG/1.1/DTD/svg11.dtd">
<!-- Generated by graphviz version 2.40.1 (20161225.0304)
 -->
<!-- Title: G Pages: 1 -->
<svg width="947pt" height="538pt"
 viewBox="0.00 0.00 947.49 538.40" xmlns="http://www.w3.org/2000/svg" xmlns:xlink="http://www.w3.org/1999/xlink">
<g id="graph0" class="graph" transform="scale(1 1) rotate(0) translate(4 534.4)">
<title>G</title>
<polygon fill="#ffffff" stroke="transparent" points="-4,4 -4,-534.4 943.4927,-534.4 943.4927,4 -4,4"/>
<!-- GO:0017127 -->
<g id="node1" class="node">
<title>GO:0017127</title>
<polygon fill="#ff0000" stroke="#000000" points="141.3371,-58.6014 .2205,-58.6014 .2205,.2014 141.3371,.2014 141.3371,-58.6014"/>
<text text-anchor="middle" x="70.7788" y="-41.8" font-family="Times,serif" font-size="14.00" fill="#000000">GO:0017127</text>
<text text-anchor="middle" x="70.7788" y="-25" font-family="Times,serif" font-size="14.00" fill="#000000">cholesterol transporter</text>
<text text-anchor="middle" x="70.7788" y="-8.2" font-family="Times,serif" font-size="14.00" fill="#000000">activity</text>
</g>
<!-- GO:0015248 -->
<g id="node2" class="node">
<title>GO:0015248</title>
<polygon fill="#ffffff" stroke="#000000" points="126.5169,-161.4014 15.0407,-161.4014 15.0407,-102.5986 126.5169,-102.5986 126.5169,-161.4014"/>
<text text-anchor="middle" x="70.7788" y="-144.6" font-family="Times,serif" font-size="14.00" fill="#000000">GO:0015248</text>
<text text-anchor="middle" x="70.7788" y="-127.8" font-family="Times,serif" font-size="14.00" fill="#000000">sterol transporter</text>
<text text-anchor="middle" x="70.7788" y="-111" font-family="Times,serif" font-size="14.00" fill="#000000">activity</text>
</g>
<!-- GO:0017127&#45;&gt;GO:0015248 -->
<g id="edge1" class="edge">
<title>GO:0017127&#45;&gt;GO:0015248</title>
<path fill="none" stroke="#000000" d="M70.7788,-58.6584C70.7788,-69.1969 70.7788,-81.2505 70.7788,-92.4994"/>
<polygon fill="#000000" stroke="#000000" points="67.2789,-92.5373 70.7788,-102.5373 74.2789,-92.5374 67.2789,-92.5373"/>
</g>
<!-- GO:0005319 -->
<g id="node3" class="node">
<title>GO:0005319</title>
<polygon fill="#ffffff" stroke="#000000" points="123.5876,-264.2014 17.97,-264.2014 17.97,-205.3986 123.5876,-205.3986 123.5876,-264.2014"/>
<text text-anchor="middle" x="70.7788" y="-247.4" font-family="Times,serif" font-size="14.00" fill="#000000">GO:0005319</text>
<text text-anchor="middle" x="70.7788" y="-230.6" font-family="Times,serif" font-size="14.00" fill="#000000">lipid transporter</text>
<text text-anchor="middle" x="70.7788" y="-213.8" font-family="Times,serif" font-size="14.00" fill="#000000">activity</text>
</g>
<!-- GO:0015248&#45;&gt;GO:0005319 -->
<g id="edge2" class="edge">
<title>GO:0015248&#45;&gt;GO:0005319</title>
<path fill="none" stroke="#000000" d="M70.7788,-161.4584C70.7788,-171.9969 70.7788,-184.0505 70.7788,-195.2994"/>
<polygon fill="#000000" stroke="#000000" points="67.2789,-195.3373 70.7788,-205.3373 74.2789,-195.3374 67.2789,-195.3373"/>
</g>
<!-- GO:0022892 -->
<g id="node4" class="node">
<title>GO:0022892</title>
<polygon fill="#ffffff" stroke="#000000" points="131.9073,-358.6014 9.6503,-358.6014 9.6503,-299.7986 131.9073,-299.7986 131.9073,-358.6014"/>
<text text-anchor="middle" x="70.7788" y="-341.8" font-family="Times,serif" font-size="14.00" fill="#000000">GO:0022892</text>
<text text-anchor="middle" x="70.7788" y="-325" font-family="Times,serif" font-size="14.00" fill="#000000">substrate&#45;specific</text>
<text text-anchor="middle" x="70.7788" y="-308.2" font-family="Times,serif" font-size="14.00" fill="#000000">transporter activity</text>
</g>
<!-- GO:0005319&#45;&gt;GO:0022892 -->
<g id="edge3" class="edge">
<title>GO:0005319&#45;&gt;GO:0022892</title>
<path fill="none" stroke="#000000" d="M70.7788,-264.1513C70.7788,-272.2318 70.7788,-281.1308 70.7788,-289.6838"/>
<polygon fill="#000000" stroke="#000000" points="67.2789,-289.8668 70.7788,-299.8669 74.2789,-289.8669 67.2789,-289.8668"/>
</g>
<!-- GO:0005215 -->
<g id="node5" class="node">
<title>GO:0005215</title>
<polygon fill="#ffffff" stroke="#000000" points="141.9073,-444.2019 19.6503,-444.2019 19.6503,-402.9981 141.9073,-402.9981 141.9073,-444.2019"/>
<text text-anchor="middle" x="80.7788" y="-427.8" font-family="Times,serif" font-size="14.00" fill="#000000">GO:0005215</text>
<text text-anchor="middle" x="80.7788" y="-411" font-family="Times,serif" font-size="14.00" fill="#000000">transporter activity</text>
</g>
<!-- GO:0022892&#45;&gt;GO:0005215 -->
<g id="edge4" class="edge">
<title>GO:0022892&#45;&gt;GO:0005215</title>
<path fill="none" stroke="#000000" d="M73.888,-358.5513C75.0438,-369.4614 76.3576,-381.8637 77.5258,-392.892"/>
<polygon fill="#000000" stroke="#000000" points="74.0574,-393.3754 78.5914,-402.951 81.0184,-392.6379 74.0574,-393.3754"/>
</g>
<!-- GO:0003674 -->
<g id="node6" class="node">
<title>GO:0003674</title>
<polygon fill="#ffffff" stroke="#000000" points="292.4119,-530.2019 167.1457,-530.2019 167.1457,-488.9981 292.4119,-488.9981 292.4119,-530.2019"/>
<text text-anchor="middle" x="229.7788" y="-513.8" font-family="Times,serif" font-size="14.00" fill="#000000">GO:0003674</text>
<text text-anchor="middle" x="229.7788" y="-497" font-family="Times,serif" font-size="14.00" fill="#000000">molecular_function</text>
</g>
<!-- GO:0005215&#45;&gt;GO:0003674 -->
<g id="edge5" class="edge">
<title>GO:0005215&#45;&gt;GO:0003674</title>
<path fill="none" stroke="#000000" d="M116.8475,-444.4182C137.4373,-456.3022 163.42,-471.299 185.2708,-483.9108"/>
<polygon fill="#000000" stroke="#000000" points="183.6317,-487.0059 194.0422,-488.9735 187.1309,-480.9432 183.6317,-487.0059"/>
</g>
<!-- GO:0060228 -->
<g id="node7" class="node">
<title>GO:0060228</title>
<polygon fill="#ff0000" stroke="#000000" points="298.5871,-169.7003 148.9705,-169.7003 148.9705,-94.2997 298.5871,-94.2997 298.5871,-169.7003"/>
<text text-anchor="middle" x="223.7788" y="-153" font-family="Times,serif" font-size="14.00" fill="#000000">GO:0060228</text>
<text text-anchor="middle" x="223.7788" y="-136.2" font-family="Times,serif" font-size="14.00" fill="#000000">phosphatidylcholine&#45;</text>
<text text-anchor="middle" x="223.7788" y="-119.4" font-family="Times,serif" font-size="14.00" fill="#000000">sterol O&#45;acyltransferase</text>
<text text-anchor="middle" x="223.7788" y="-102.6" font-family="Times,serif" font-size="14.00" fill="#000000">activator activity</text>
</g>
<!-- GO:0008047 -->
<g id="node8" class="node">
<title>GO:0008047</title>
<polygon fill="#ffffff" stroke="#000000" points="305.2818,-255.4019 148.2758,-255.4019 148.2758,-214.1981 305.2818,-214.1981 305.2818,-255.4019"/>
<text text-anchor="middle" x="226.7788" y="-239" font-family="Times,serif" font-size="14.00" fill="#000000">GO:0008047</text>
<text text-anchor="middle" x="226.7788" y="-222.2" font-family="Times,serif" font-size="14.00" fill="#000000">enzyme activator activity</text>
</g>
<!-- GO:0060228&#45;&gt;GO:0008047 -->
<g id="edge6" class="edge">
<title>GO:0060228&#45;&gt;GO:0008047</title>
<path fill="none" stroke="#000000" d="M224.8789,-169.6952C225.2075,-180.9552 225.5637,-193.1618 225.8779,-203.9299"/>
<polygon fill="#000000" stroke="#000000" points="222.3853,-204.2366 226.1756,-214.1302 229.3823,-204.0323 222.3853,-204.2366"/>
</g>
<!-- GO:0030234 -->
<g id="node9" class="node">
<title>GO:0030234</title>
<polygon fill="#ffffff" stroke="#000000" points="309.3364,-349.8019 150.2212,-349.8019 150.2212,-308.5981 309.3364,-308.5981 309.3364,-349.8019"/>
<text text-anchor="middle" x="229.7788" y="-333.4" font-family="Times,serif" font-size="14.00" fill="#000000">GO:0030234</text>
<text text-anchor="middle" x="229.7788" y="-316.6" font-family="Times,serif" font-size="14.00" fill="#000000">enzyme regulator activity</text>
</g>
<!-- GO:0008047&#45;&gt;GO:0030234 -->
<g id="edge7" class="edge">
<title>GO:0008047&#45;&gt;GO:0030234</title>
<path fill="none" stroke="#000000" d="M227.4446,-255.7504C227.8408,-268.2165 228.3508,-284.2645 228.7929,-298.1786"/>
<polygon fill="#000000" stroke="#000000" points="225.2989,-298.4244 229.1149,-308.3081 232.2954,-298.202 225.2989,-298.4244"/>
</g>
<!-- GO:0098772 -->
<g id="node10" class="node">
<title>GO:0098772</title>
<polygon fill="#ffffff" stroke="#000000" points="290.9115,-453.0014 168.6461,-453.0014 168.6461,-394.1986 290.9115,-394.1986 290.9115,-453.0014"/>
<text text-anchor="middle" x="229.7788" y="-436.2" font-family="Times,serif" font-size="14.00" fill="#000000">GO:0098772</text>
<text text-anchor="middle" x="229.7788" y="-419.4" font-family="Times,serif" font-size="14.00" fill="#000000">molecular function</text>
<text text-anchor="middle" x="229.7788" y="-402.6" font-family="Times,serif" font-size="14.00" fill="#000000">regulator</text>
</g>
<!-- GO:0030234&#45;&gt;GO:0098772 -->
<g id="edge8" class="edge">
<title>GO:0030234&#45;&gt;GO:0098772</title>
<path fill="none" stroke="#000000" d="M229.7788,-350.1504C229.7788,-360.1492 229.7788,-372.4525 229.7788,-384.1106"/>
<polygon fill="#000000" stroke="#000000" points="226.2789,-384.1155 229.7788,-394.1155 233.2789,-384.1156 226.2789,-384.1155"/>
</g>
<!-- GO:0098772&#45;&gt;GO:0003674 -->
<g id="edge9" class="edge">
<title>GO:0098772&#45;&gt;GO:0003674</title>
<path fill="none" stroke="#000000" d="M229.7788,-453.1963C229.7788,-461.4638 229.7788,-470.4657 229.7788,-478.8008"/>
<polygon fill="#000000" stroke="#000000" points="226.2789,-478.8965 229.7788,-488.8966 233.2789,-478.8966 226.2789,-478.8965"/>
</g>
<!-- GO:0043169 -->
<g id="node11" class="node">
<title>GO:0043169</title>
<polygon fill="#ffa500" stroke="#000000" points="438.2717,-255.4019 341.2859,-255.4019 341.2859,-214.1981 438.2717,-214.1981 438.2717,-255.4019"/>
<text text-anchor="middle" x="389.7788" y="-239" font-family="Times,serif" font-size="14.00" fill="#000000">GO:0043169</text>
<text text-anchor="middle" x="389.7788" y="-222.2" font-family="Times,serif" font-size="14.00" fill="#000000">cation binding</text>
</g>
<!-- GO:0043167 -->
<g id="node12" class="node">
<title>GO:0043167</title>
<polygon fill="#ffffff" stroke="#000000" points="434.3827,-349.8019 345.1749,-349.8019 345.1749,-308.5981 434.3827,-308.5981 434.3827,-349.8019"/>
<text text-anchor="middle" x="389.7788" y="-333.4" font-family="Times,serif" font-size="14.00" fill="#000000">GO:0043167</text>
<text text-anchor="middle" x="389.7788" y="-316.6" font-family="Times,serif" font-size="14.00" fill="#000000">ion binding</text>
</g>
<!-- GO:0043169&#45;&gt;GO:0043167 -->
<g id="edge10" class="edge">
<title>GO:0043169&#45;&gt;GO:0043167</title>
<path fill="none" stroke="#000000" d="M389.7788,-255.7504C389.7788,-268.2165 389.7788,-284.2645 389.7788,-298.1786"/>
<polygon fill="#000000" stroke="#000000" points="386.2789,-298.3081 389.7788,-308.3081 393.2789,-298.3082 386.2789,-298.3081"/>
</g>
<!-- GO:0005488 -->
<g id="node13" class="node">
<title>GO:0005488</title>
<polygon fill="#ffffff" stroke="#000000" points="622.3827,-444.2019 533.1749,-444.2019 533.1749,-402.9981 622.3827,-402.9981 622.3827,-444.2019"/>
<text text-anchor="middle" x="577.7788" y="-427.8" font-family="Times,serif" font-size="14.00" fill="#000000">GO:0005488</text>
<text text-anchor="middle" x="577.7788" y="-411" font-family="Times,serif" font-size="14.00" fill="#000000">binding</text>
</g>
<!-- GO:0043167&#45;&gt;GO:0005488 -->
<g id="edge11" class="edge">
<title>GO:0043167&#45;&gt;GO:0005488</title>
<path fill="none" stroke="#000000" d="M427.4351,-349.8285C432.8985,-352.7438 438.4692,-355.6743 443.7788,-358.4 470.3101,-372.02 500.1176,-386.594 524.8714,-398.5013"/>
<polygon fill="#000000" stroke="#000000" points="523.5638,-401.7559 534.0938,-402.9268 526.5923,-395.4449 523.5638,-401.7559"/>
</g>
<!-- GO:0005488&#45;&gt;GO:0003674 -->
<g id="edge12" class="edge">
<title>GO:0005488&#45;&gt;GO:0003674</title>
<path fill="none" stroke="#000000" d="M532.9963,-434.6669C474.732,-449.0656 372.1837,-474.408 302.6448,-491.5929"/>
<polygon fill="#000000" stroke="#000000" points="301.5019,-488.27 292.6336,-494.0669 303.1813,-495.0655 301.5019,-488.27"/>
</g>
<!-- GO:0070325 -->
<g id="node14" class="node">
<title>GO:0070325</title>
<polygon fill="#00ffff" stroke="#000000" points="604.1926,-161.4014 481.365,-161.4014 481.365,-102.5986 604.1926,-102.5986 604.1926,-161.4014"/>
<text text-anchor="middle" x="542.7788" y="-144.6" font-family="Times,serif" font-size="14.00" fill="#000000">GO:0070325</text>
<text text-anchor="middle" x="542.7788" y="-127.8" font-family="Times,serif" font-size="14.00" fill="#000000">lipoprotein particle</text>
<text text-anchor="middle" x="542.7788" y="-111" font-family="Times,serif" font-size="14.00" fill="#000000">receptor binding</text>
</g>
<!-- GO:0005102 -->
<g id="node15" class="node">
<title>GO:0005102</title>
<polygon fill="#00ff00" stroke="#000000" points="580.9157,-255.4019 472.6419,-255.4019 472.6419,-214.1981 580.9157,-214.1981 580.9157,-255.4019"/>
<text text-anchor="middle" x="526.7788" y="-239" font-family="Times,serif" font-size="14.00" fill="#000000">GO:0005102</text>
<text text-anchor="middle" x="526.7788" y="-222.2" font-family="Times,serif" font-size="14.00" fill="#000000">receptor binding</text>
</g>
<!-- GO:0070325&#45;&gt;GO:0005102 -->
<g id="edge13" class="edge">
<title>GO:0070325&#45;&gt;GO:0005102</title>
<path fill="none" stroke="#000000" d="M538.1938,-161.4584C536.1245,-174.7539 533.6798,-190.4608 531.5848,-203.9212"/>
<polygon fill="#000000" stroke="#000000" points="528.0731,-203.7263 529.9935,-214.1456 534.9898,-204.8029 528.0731,-203.7263"/>
</g>
<!-- GO:0005515 -->
<g id="node16" class="node">
<title>GO:0005515</title>
<polygon fill="#ffffff" stroke="#000000" points="554.7164,-349.8019 452.8412,-349.8019 452.8412,-308.5981 554.7164,-308.5981 554.7164,-349.8019"/>
<text text-anchor="middle" x="503.7788" y="-333.4" font-family="Times,serif" font-size="14.00" fill="#000000">GO:0005515</text>
<text text-anchor="middle" x="503.7788" y="-316.6" font-family="Times,serif" font-size="14.00" fill="#000000">protein binding</text>
</g>
<!-- GO:0005102&#45;&gt;GO:0005515 -->
<g id="edge14" class="edge">
<title>GO:0005102&#45;&gt;GO:0005515</title>
<path fill="none" stroke="#000000" d="M521.6744,-255.7504C518.6073,-268.3387 514.6503,-284.5795 511.2374,-298.5872"/>
<polygon fill="#000000" stroke="#000000" points="507.8357,-297.7638 508.869,-308.3081 514.6368,-299.4209 507.8357,-297.7638"/>
</g>
<!-- GO:0005515&#45;&gt;GO:0005488 -->
<g id="edge15" class="edge">
<title>GO:0005515&#45;&gt;GO:0005488</title>
<path fill="none" stroke="#000000" d="M520.2018,-350.1504C530.453,-363.2276 543.794,-380.2464 555.0526,-394.6087"/>
<polygon fill="#000000" stroke="#000000" points="552.4777,-396.9973 561.4017,-402.7081 557.9868,-392.6787 552.4777,-396.9973"/>
</g>
<!-- GO:0036094 -->
<g id="node17" class="node">
<title>GO:0036094</title>
<polygon fill="#ff0000" stroke="#000000" points="939.7072,-255.4019 791.8504,-255.4019 791.8504,-214.1981 939.7072,-214.1981 939.7072,-255.4019"/>
<text text-anchor="middle" x="865.7788" y="-239" font-family="Times,serif" font-size="14.00" fill="#000000">GO:0036094</text>
<text text-anchor="middle" x="865.7788" y="-222.2" font-family="Times,serif" font-size="14.00" fill="#000000">small molecule binding</text>
</g>
<!-- GO:0036094&#45;&gt;GO:0005488 -->
<g id="edge16" class="edge">
<title>GO:0036094&#45;&gt;GO:0005488</title>
<path fill="none" stroke="#000000" d="M868.9935,-255.6862C871.9181,-282.9319 872.4746,-330.4142 846.7788,-358.4 818.2804,-389.4382 702.585,-408.5491 632.5372,-417.5082"/>
<polygon fill="#000000" stroke="#000000" points="632.038,-414.0432 622.5493,-418.7565 632.9062,-420.9892 632.038,-414.0432"/>
</g>
<!-- GO:0031210 -->
<g id="node18" class="node">
<title>GO:0031210</title>
<polygon fill="#ffa500" stroke="#000000" points="454.321,-58.6014 325.2366,-58.6014 325.2366,.2014 454.321,.2014 454.321,-58.6014"/>
<text text-anchor="middle" x="389.7788" y="-41.8" font-family="Times,serif" font-size="14.00" fill="#000000">GO:0031210</text>
<text text-anchor="middle" x="389.7788" y="-25" font-family="Times,serif" font-size="14.00" fill="#000000">phosphatidylcholine</text>
<text text-anchor="middle" x="389.7788" y="-8.2" font-family="Times,serif" font-size="14.00" fill="#000000">binding</text>
</g>
<!-- GO:0070405 -->
<g id="node19" class="node">
<title>GO:0070405</title>
<polygon fill="#ffffff" stroke="#000000" points="463.7283,-152.6019 315.8293,-152.6019 315.8293,-111.3981 463.7283,-111.3981 463.7283,-152.6019"/>
<text text-anchor="middle" x="389.7788" y="-136.2" font-family="Times,serif" font-size="14.00" fill="#000000">GO:0070405</text>
<text text-anchor="middle" x="389.7788" y="-119.4" font-family="Times,serif" font-size="14.00" fill="#000000">ammonium ion binding</text>
</g>
<!-- GO:0031210&#45;&gt;GO:0070405 -->
<g id="edge17" class="edge">
<title>GO:0031210&#45;&gt;GO:0070405</title>
<path fill="none" stroke="#000000" d="M389.7788,-58.6584C389.7788,-71.9539 389.7788,-87.6608 389.7788,-101.1212"/>
<polygon fill="#000000" stroke="#000000" points="386.2789,-101.3456 389.7788,-111.3456 393.2789,-101.3457 386.2789,-101.3456"/>
</g>
<!-- GO:0070405&#45;&gt;GO:0043169 -->
<g id="edge18" class="edge">
<title>GO:0070405&#45;&gt;GO:0043169</title>
<path fill="none" stroke="#000000" d="M389.7788,-152.8031C389.7788,-167.4337 389.7788,-187.2642 389.7788,-203.7586"/>
<polygon fill="#000000" stroke="#000000" points="386.2789,-204.0278 389.7788,-214.0278 393.2789,-204.0279 386.2789,-204.0278"/>
</g>
<!-- GO:0015485 -->
<g id="node20" class="node">
<title>GO:0015485</title>
<polygon fill="#ff0000" stroke="#000000" points="856.4812,-49.8019 733.0764,-49.8019 733.0764,-8.5981 856.4812,-8.5981 856.4812,-49.8019"/>
<text text-anchor="middle" x="794.7788" y="-33.4" font-family="Times,serif" font-size="14.00" fill="#000000">GO:0015485</text>
<text text-anchor="middle" x="794.7788" y="-16.6" font-family="Times,serif" font-size="14.00" fill="#000000">cholesterol binding</text>
</g>
<!-- GO:0032934 -->
<g id="node21" class="node">
<title>GO:0032934</title>
<polygon fill="#ffffff" stroke="#000000" points="777.6618,-152.6019 683.8958,-152.6019 683.8958,-111.3981 777.6618,-111.3981 777.6618,-152.6019"/>
<text text-anchor="middle" x="730.7788" y="-136.2" font-family="Times,serif" font-size="14.00" fill="#000000">GO:0032934</text>
<text text-anchor="middle" x="730.7788" y="-119.4" font-family="Times,serif" font-size="14.00" fill="#000000">sterol binding</text>
</g>
<!-- GO:0015485&#45;&gt;GO:0032934 -->
<g id="edge19" class="edge">
<title>GO:0015485&#45;&gt;GO:0032934</title>
<path fill="none" stroke="#000000" d="M781.8274,-50.0031C772.4587,-65.0517 759.6649,-85.6017 749.2292,-102.364"/>
<polygon fill="#000000" stroke="#000000" points="746.0248,-100.8887 743.7109,-111.2278 751.9673,-104.5884 746.0248,-100.8887"/>
</g>
<!-- GO:0043178 -->
<g id="node22" class="node">
<title>GO:0043178</title>
<polygon fill="#ffffff" stroke="#000000" points="911.7716,-152.6019 807.786,-152.6019 807.786,-111.3981 911.7716,-111.3981 911.7716,-152.6019"/>
<text text-anchor="middle" x="859.7788" y="-136.2" font-family="Times,serif" font-size="14.00" fill="#000000">GO:0043178</text>
<text text-anchor="middle" x="859.7788" y="-119.4" font-family="Times,serif" font-size="14.00" fill="#000000">alcohol binding</text>
</g>
<!-- GO:0015485&#45;&gt;GO:0043178 -->
<g id="edge20" class="edge">
<title>GO:0015485&#45;&gt;GO:0043178</title>
<path fill="none" stroke="#000000" d="M807.9325,-50.0031C817.4477,-65.0517 830.4413,-85.6017 841.0401,-102.364"/>
<polygon fill="#000000" stroke="#000000" points="838.3421,-104.6462 846.6446,-111.2278 844.2586,-100.9052 838.3421,-104.6462"/>
</g>
<!-- GO:0005496 -->
<g id="node23" class="node">
<title>GO:0005496</title>
<polygon fill="#ffffff" stroke="#000000" points="774.1617,-255.4019 673.3959,-255.4019 673.3959,-214.1981 774.1617,-214.1981 774.1617,-255.4019"/>
<text text-anchor="middle" x="723.7788" y="-239" font-family="Times,serif" font-size="14.00" fill="#000000">GO:0005496</text>
<text text-anchor="middle" x="723.7788" y="-222.2" font-family="Times,serif" font-size="14.00" fill="#000000">steroid binding</text>
</g>
<!-- GO:0032934&#45;&gt;GO:0005496 -->
<g id="edge21" class="edge">
<title>GO:0032934&#45;&gt;GO:0005496</title>
<path fill="none" stroke="#000000" d="M729.3622,-152.8031C728.366,-167.4337 727.0157,-187.2642 725.8925,-203.7586"/>
<polygon fill="#000000" stroke="#000000" points="722.3808,-203.8131 725.1932,-214.0278 729.3646,-204.2887 722.3808,-203.8131"/>
</g>
<!-- GO:0043178&#45;&gt;GO:0036094 -->
<g id="edge22" class="edge">
<title>GO:0043178&#45;&gt;GO:0036094</title>
<path fill="none" stroke="#000000" d="M860.993,-152.8031C861.8469,-167.4337 863.0043,-187.2642 863.967,-203.7586"/>
<polygon fill="#000000" stroke="#000000" points="860.4896,-204.2488 864.5664,-214.0278 867.4777,-203.8408 860.4896,-204.2488"/>
</g>
<!-- GO:0097159 -->
<g id="node24" class="node">
<title>GO:0097159</title>
<polygon fill="#ff0000" stroke="#000000" points="730.2902,-358.6014 573.2674,-358.6014 573.2674,-299.7986 730.2902,-299.7986 730.2902,-358.6014"/>
<text text-anchor="middle" x="651.7788" y="-341.8" font-family="Times,serif" font-size="14.00" fill="#000000">GO:0097159</text>
<text text-anchor="middle" x="651.7788" y="-325" font-family="Times,serif" font-size="14.00" fill="#000000">organic cyclic compound</text>
<text text-anchor="middle" x="651.7788" y="-308.2" font-family="Times,serif" font-size="14.00" fill="#000000">binding</text>
</g>
<!-- GO:0005496&#45;&gt;GO:0097159 -->
<g id="edge23" class="edge">
<title>GO:0005496&#45;&gt;GO:0097159</title>
<path fill="none" stroke="#000000" d="M707.7997,-255.7504C699.7883,-266.2542 689.8373,-279.3011 680.5546,-291.4717"/>
<polygon fill="#000000" stroke="#000000" points="677.5486,-289.6417 674.267,-299.7155 683.1144,-293.8869 677.5486,-289.6417"/>
</g>
<!-- GO:0008289 -->
<g id="node25" class="node">
<title>GO:0008289</title>
<polygon fill="#ffffff" stroke="#000000" points="837.3827,-349.8019 748.1749,-349.8019 748.1749,-308.5981 837.3827,-308.5981 837.3827,-349.8019"/>
<text text-anchor="middle" x="792.7788" y="-333.4" font-family="Times,serif" font-size="14.00" fill="#000000">GO:0008289</text>
<text text-anchor="middle" x="792.7788" y="-316.6" font-family="Times,serif" font-size="14.00" fill="#000000">lipid binding</text>
</g>
<!-- GO:0005496&#45;&gt;GO:0008289 -->
<g id="edge24" class="edge">
<title>GO:0005496&#45;&gt;GO:0008289</title>
<path fill="none" stroke="#000000" d="M739.0921,-255.7504C748.6506,-268.8276 761.0903,-285.8464 771.5881,-300.2087"/>
<polygon fill="#000000" stroke="#000000" points="768.7815,-302.3002 777.5083,-308.3081 774.4329,-298.1695 768.7815,-302.3002"/>
</g>
<!-- GO:0097159&#45;&gt;GO:0005488 -->
<g id="edge25" class="edge">
<title>GO:0097159&#45;&gt;GO:0005488</title>
<path fill="none" stroke="#000000" d="M628.7704,-358.5513C619.6889,-370.1363 609.2886,-383.4037 600.2594,-394.922"/>
<polygon fill="#000000" stroke="#000000" points="597.3804,-392.9215 593.9655,-402.951 602.8895,-397.2401 597.3804,-392.9215"/>
</g>
<!-- GO:0008289&#45;&gt;GO:0005488 -->
<g id="edge26" class="edge">
<title>GO:0008289&#45;&gt;GO:0005488</title>
<path fill="none" stroke="#000000" d="M756.5865,-349.8944C751.0145,-352.8601 745.2835,-355.7876 739.7788,-358.4 704.5319,-375.1273 663.7849,-391.513 631.9742,-403.6737"/>
<polygon fill="#000000" stroke="#000000" points="630.5108,-400.4855 622.4048,-407.3078 632.996,-407.0295 630.5108,-400.4855"/>
</g>
</g>
</svg>
