<?xml version="1.0" encoding="UTF-8" standalone="no"?>
<!DOCTYPE svg PUBLIC "-//W3C//DTD SVG 1.1//EN"
 "http://www.w3.org/Graphics/SVG/1.1/DTD/svg11.dtd">
<!-- Generated by graphviz version 2.40.1 (20161225.0304)
 -->
<!-- Title: G Pages: 1 -->
<svg width="270pt" height="471pt"
 viewBox="0.00 0.00 269.52 471.20" xmlns="http://www.w3.org/2000/svg" xmlns:xlink="http://www.w3.org/1999/xlink">
<g id="graph0" class="graph" transform="scale(1 1) rotate(0) translate(4 467.2)">
<title>G</title>
<polygon fill="#ffffff" stroke="transparent" points="-4,4 -4,-467.2 265.5207,-467.2 265.5207,4 -4,4"/>
<!-- GO:0005543 -->
<g id="node1" class="node">
<title>GO:0005543</title>
<polygon fill="#00ffff" stroke="#000000" points="258.4196,-230.2019 122.6232,-230.2019 122.6232,-188.9981 258.4196,-188.9981 258.4196,-230.2019"/>
<text text-anchor="middle" x="190.5214" y="-213.8" font-family="Times,serif" font-size="14.00" fill="#000000">GO:0005543</text>
<text text-anchor="middle" x="190.5214" y="-197" font-family="Times,serif" font-size="14.00" fill="#000000">phospholipid binding</text>
</g>
<!-- GO:0008289 -->
<g id="node2" class="node">
<title>GO:0008289</title>
<polygon fill="#00ff00" stroke="#000000" points="229.1253,-307.8019 139.9175,-307.8019 139.9175,-266.5981 229.1253,-266.5981 229.1253,-307.8019"/>
<text text-anchor="middle" x="184.5214" y="-291.4" font-family="Times,serif" font-size="14.00" fill="#000000">GO:0008289</text>
<text text-anchor="middle" x="184.5214" y="-274.6" font-family="Times,serif" font-size="14.00" fill="#000000">lipid binding</text>
</g>
<!-- GO:0005543&#45;&gt;GO:0008289 -->
<g id="edge1" class="edge">
<title>GO:0005543&#45;&gt;GO:0008289</title>
<path fill="none" stroke="#000000" d="M188.9135,-230.3954C188.3015,-238.3109 187.5901,-247.5109 186.9205,-256.1722"/>
<polygon fill="#000000" stroke="#000000" points="183.4151,-256.1071 186.1337,-266.3472 190.3943,-256.6468 183.4151,-256.1071"/>
</g>
<!-- GO:0005488 -->
<g id="node3" class="node">
<title>GO:0005488</title>
<polygon fill="#ffffff" stroke="#000000" points="166.1253,-385.4019 76.9175,-385.4019 76.9175,-344.1981 166.1253,-344.1981 166.1253,-385.4019"/>
<text text-anchor="middle" x="121.5214" y="-369" font-family="Times,serif" font-size="14.00" fill="#000000">GO:0005488</text>
<text text-anchor="middle" x="121.5214" y="-352.2" font-family="Times,serif" font-size="14.00" fill="#000000">binding</text>
</g>
<!-- GO:0008289&#45;&gt;GO:0005488 -->
<g id="edge2" class="edge">
<title>GO:0008289&#45;&gt;GO:0005488</title>
<path fill="none" stroke="#000000" d="M167.6386,-307.9954C160.6474,-316.6067 152.4219,-326.7384 144.8682,-336.0427"/>
<polygon fill="#000000" stroke="#000000" points="142.0365,-333.9776 138.4508,-343.9472 147.4711,-338.3896 142.0365,-333.9776"/>
</g>
<!-- GO:0003674 -->
<g id="node4" class="node">
<title>GO:0003674</title>
<polygon fill="#ffffff" stroke="#000000" points="184.1545,-463.0019 58.8883,-463.0019 58.8883,-421.7981 184.1545,-421.7981 184.1545,-463.0019"/>
<text text-anchor="middle" x="121.5214" y="-446.6" font-family="Times,serif" font-size="14.00" fill="#000000">GO:0003674</text>
<text text-anchor="middle" x="121.5214" y="-429.8" font-family="Times,serif" font-size="14.00" fill="#000000">molecular_function</text>
</g>
<!-- GO:0005488&#45;&gt;GO:0003674 -->
<g id="edge3" class="edge">
<title>GO:0005488&#45;&gt;GO:0003674</title>
<path fill="none" stroke="#000000" d="M121.5214,-385.5954C121.5214,-393.5109 121.5214,-402.7109 121.5214,-411.3722"/>
<polygon fill="#000000" stroke="#000000" points="118.0215,-411.5472 121.5214,-421.5472 125.0215,-411.5473 118.0215,-411.5472"/>
</g>
<!-- GO:0005545 -->
<g id="node5" class="node">
<title>GO:0005545</title>
<polygon fill="#00ffff" stroke="#000000" points="261.52,-58.6014 119.5228,-58.6014 119.5228,.2014 261.52,.2014 261.52,-58.6014"/>
<text text-anchor="middle" x="190.5214" y="-41.8" font-family="Times,serif" font-size="14.00" fill="#000000">GO:0005545</text>
<text text-anchor="middle" x="190.5214" y="-25" font-family="Times,serif" font-size="14.00" fill="#000000">1&#45;phosphatidylinositol</text>
<text text-anchor="middle" x="190.5214" y="-8.2" font-family="Times,serif" font-size="14.00" fill="#000000">binding</text>
</g>
<!-- GO:0035091 -->
<g id="node6" class="node">
<title>GO:0035091</title>
<polygon fill="#00ffff" stroke="#000000" points="255.8598,-153.0014 125.183,-153.0014 125.183,-94.1986 255.8598,-94.1986 255.8598,-153.0014"/>
<text text-anchor="middle" x="190.5214" y="-136.2" font-family="Times,serif" font-size="14.00" fill="#000000">GO:0035091</text>
<text text-anchor="middle" x="190.5214" y="-119.4" font-family="Times,serif" font-size="14.00" fill="#000000">phosphatidylinositol</text>
<text text-anchor="middle" x="190.5214" y="-102.6" font-family="Times,serif" font-size="14.00" fill="#000000">binding</text>
</g>
<!-- GO:0005545&#45;&gt;GO:0035091 -->
<g id="edge4" class="edge">
<title>GO:0005545&#45;&gt;GO:0035091</title>
<path fill="none" stroke="#000000" d="M190.5214,-58.5513C190.5214,-66.6318 190.5214,-75.5308 190.5214,-84.0838"/>
<polygon fill="#000000" stroke="#000000" points="187.0215,-84.2668 190.5214,-94.2669 194.0215,-84.2669 187.0215,-84.2668"/>
</g>
<!-- GO:0035091&#45;&gt;GO:0005543 -->
<g id="edge5" class="edge">
<title>GO:0035091&#45;&gt;GO:0005543</title>
<path fill="none" stroke="#000000" d="M190.5214,-153.1963C190.5214,-161.4638 190.5214,-170.4657 190.5214,-178.8008"/>
<polygon fill="#000000" stroke="#000000" points="187.0215,-178.8965 190.5214,-188.8966 194.0215,-178.8966 187.0215,-178.8965"/>
</g>
<!-- GO:0030276 -->
<g id="node7" class="node">
<title>GO:0030276</title>
<polygon fill="#ff0000" stroke="#000000" points="105.0642,-230.2019 -.0214,-230.2019 -.0214,-188.9981 105.0642,-188.9981 105.0642,-230.2019"/>
<text text-anchor="middle" x="52.5214" y="-213.8" font-family="Times,serif" font-size="14.00" fill="#000000">GO:0030276</text>
<text text-anchor="middle" x="52.5214" y="-197" font-family="Times,serif" font-size="14.00" fill="#000000">clathrin binding</text>
</g>
<!-- GO:0005515 -->
<g id="node8" class="node">
<title>GO:0005515</title>
<polygon fill="#ffffff" stroke="#000000" points="115.459,-307.8019 13.5838,-307.8019 13.5838,-266.5981 115.459,-266.5981 115.459,-307.8019"/>
<text text-anchor="middle" x="64.5214" y="-291.4" font-family="Times,serif" font-size="14.00" fill="#000000">GO:0005515</text>
<text text-anchor="middle" x="64.5214" y="-274.6" font-family="Times,serif" font-size="14.00" fill="#000000">protein binding</text>
</g>
<!-- GO:0030276&#45;&gt;GO:0005515 -->
<g id="edge6" class="edge">
<title>GO:0030276&#45;&gt;GO:0005515</title>
<path fill="none" stroke="#000000" d="M55.7372,-230.3954C56.9747,-238.3978 58.4152,-247.7133 59.7674,-256.4575"/>
<polygon fill="#000000" stroke="#000000" points="56.3095,-256.9996 61.2967,-266.3472 63.2273,-255.9298 56.3095,-256.9996"/>
</g>
<!-- GO:0005515&#45;&gt;GO:0005488 -->
<g id="edge7" class="edge">
<title>GO:0005515&#45;&gt;GO:0005488</title>
<path fill="none" stroke="#000000" d="M79.7964,-307.9954C86.0578,-316.5197 93.4136,-326.5339 100.1909,-335.7605"/>
<polygon fill="#000000" stroke="#000000" points="97.4635,-337.9598 106.2043,-343.9472 103.1051,-333.8158 97.4635,-337.9598"/>
</g>
</g>
</svg>
