<?xml version="1.0" encoding="UTF-8" standalone="no"?>
<!DOCTYPE svg PUBLIC "-//W3C//DTD SVG 1.1//EN"
 "http://www.w3.org/Graphics/SVG/1.1/DTD/svg11.dtd">
<!-- Generated by graphviz version 2.40.1 (20161225.0304)
 -->
<!-- Title: G Pages: 1 -->
<svg width="820pt" height="394pt"
 viewBox="0.00 0.00 820.16 393.60" xmlns="http://www.w3.org/2000/svg" xmlns:xlink="http://www.w3.org/1999/xlink">
<g id="graph0" class="graph" transform="scale(1 1) rotate(0) translate(4 389.6)">
<title>G</title>
<polygon fill="#ffffff" stroke="transparent" points="-4,4 -4,-389.6 816.1561,-389.6 816.1561,4 -4,4"/>
<!-- GO:0043229 -->
<g id="node1" class="node">
<title>GO:0043229</title>
<polygon fill="#00ff00" stroke="#000000" points="285.6988,-144.2019 146.262,-144.2019 146.262,-102.9981 285.6988,-102.9981 285.6988,-144.2019"/>
<text text-anchor="middle" x="215.9804" y="-127.8" font-family="Times,serif" font-size="14.00" fill="#000000">GO:0043229</text>
<text text-anchor="middle" x="215.9804" y="-111" font-family="Times,serif" font-size="14.00" fill="#000000">intracellular organelle</text>
</g>
<!-- GO:0044424 -->
<g id="node2" class="node">
<title>GO:0044424</title>
<polygon fill="#ffa500" stroke="#000000" points="480.3788,-230.2019 371.582,-230.2019 371.582,-188.9981 480.3788,-188.9981 480.3788,-230.2019"/>
<text text-anchor="middle" x="425.9804" y="-213.8" font-family="Times,serif" font-size="14.00" fill="#000000">GO:0044424</text>
<text text-anchor="middle" x="425.9804" y="-197" font-family="Times,serif" font-size="14.00" fill="#000000">intracellular part</text>
</g>
<!-- GO:0043229&#45;&gt;GO:0044424 -->
<g id="edge1" class="edge">
<title>GO:0043229&#45;&gt;GO:0044424</title>
<path fill="none" stroke="#000000" d="M266.5479,-144.3086C296.4643,-156.5601 334.5293,-172.1486 365.9623,-185.0212"/>
<polygon fill="#000000" stroke="#000000" points="364.9076,-188.3713 375.4881,-188.9222 367.5605,-181.8935 364.9076,-188.3713"/>
</g>
<!-- GO:0043226 -->
<g id="node3" class="node">
<title>GO:0043226</title>
<polygon fill="#00ff00" stroke="#000000" points="207.5843,-230.2019 118.3765,-230.2019 118.3765,-188.9981 207.5843,-188.9981 207.5843,-230.2019"/>
<text text-anchor="middle" x="162.9804" y="-213.8" font-family="Times,serif" font-size="14.00" fill="#000000">GO:0043226</text>
<text text-anchor="middle" x="162.9804" y="-197" font-family="Times,serif" font-size="14.00" fill="#000000">organelle</text>
</g>
<!-- GO:0043229&#45;&gt;GO:0043226 -->
<g id="edge2" class="edge">
<title>GO:0043229&#45;&gt;GO:0043226</title>
<path fill="none" stroke="#000000" d="M203.1506,-144.4182C196.5103,-155.193 188.293,-168.5267 181.024,-180.3216"/>
<polygon fill="#000000" stroke="#000000" points="177.959,-178.624 175.6921,-188.9735 183.9182,-182.2966 177.959,-178.624"/>
</g>
<!-- GO:0044464 -->
<g id="node4" class="node">
<title>GO:0044464</title>
<polygon fill="#ff0000" stroke="#000000" points="504.5843,-307.8019 415.3765,-307.8019 415.3765,-266.5981 504.5843,-266.5981 504.5843,-307.8019"/>
<text text-anchor="middle" x="459.9804" y="-291.4" font-family="Times,serif" font-size="14.00" fill="#000000">GO:0044464</text>
<text text-anchor="middle" x="459.9804" y="-274.6" font-family="Times,serif" font-size="14.00" fill="#000000">cell part</text>
</g>
<!-- GO:0044424&#45;&gt;GO:0044464 -->
<g id="edge3" class="edge">
<title>GO:0044424&#45;&gt;GO:0044464</title>
<path fill="none" stroke="#000000" d="M435.0918,-230.3954C438.6742,-238.5718 442.8572,-248.1189 446.7603,-257.027"/>
<polygon fill="#000000" stroke="#000000" points="443.6249,-258.5924 450.8439,-266.3472 450.0365,-255.7832 443.6249,-258.5924"/>
</g>
<!-- GO:0005575 -->
<g id="node5" class="node">
<title>GO:0005575</title>
<polygon fill="#ffffff" stroke="#000000" points="523.6671,-385.4019 396.2937,-385.4019 396.2937,-344.1981 523.6671,-344.1981 523.6671,-385.4019"/>
<text text-anchor="middle" x="459.9804" y="-369" font-family="Times,serif" font-size="14.00" fill="#000000">GO:0005575</text>
<text text-anchor="middle" x="459.9804" y="-352.2" font-family="Times,serif" font-size="14.00" fill="#000000">cellular_component</text>
</g>
<!-- GO:0043226&#45;&gt;GO:0005575 -->
<g id="edge4" class="edge">
<title>GO:0043226&#45;&gt;GO:0005575</title>
<path fill="none" stroke="#000000" d="M181.6196,-230.5713C202.3792,-252.7393 237.9211,-287.3012 274.9804,-308 309.4336,-327.2432 351.2162,-340.7853 386.3498,-349.8069"/>
<polygon fill="#000000" stroke="#000000" points="385.5214,-353.2075 396.0713,-352.2326 387.2161,-346.4157 385.5214,-353.2075"/>
</g>
<!-- GO:0044464&#45;&gt;GO:0005575 -->
<g id="edge9" class="edge">
<title>GO:0044464&#45;&gt;GO:0005575</title>
<path fill="none" stroke="#000000" d="M459.9804,-307.9954C459.9804,-315.9109 459.9804,-325.1109 459.9804,-333.7722"/>
<polygon fill="#000000" stroke="#000000" points="456.4805,-333.9472 459.9804,-343.9472 463.4805,-333.9473 456.4805,-333.9472"/>
</g>
<!-- GO:0005905 -->
<g id="node6" class="node">
<title>GO:0005905</title>
<polygon fill="#ffff00" stroke="#000000" points="733.2184,-144.2019 614.7424,-144.2019 614.7424,-102.9981 733.2184,-102.9981 733.2184,-144.2019"/>
<text text-anchor="middle" x="673.9804" y="-127.8" font-family="Times,serif" font-size="14.00" fill="#000000">GO:0005905</text>
<text text-anchor="middle" x="673.9804" y="-111" font-family="Times,serif" font-size="14.00" fill="#000000">clathrin&#45;coated pit</text>
</g>
<!-- GO:0005905&#45;&gt;GO:0044464 -->
<g id="edge6" class="edge">
<title>GO:0005905&#45;&gt;GO:0044464</title>
<path fill="none" stroke="#000000" d="M614.6605,-141.348C586.0499,-151.9336 552.4924,-167.5184 526.9804,-188.8 504.4461,-207.5977 486.2977,-235.8139 474.6021,-257.2182"/>
<polygon fill="#000000" stroke="#000000" points="471.4223,-255.7444 469.8406,-266.2205 477.6101,-259.0173 471.4223,-255.7444"/>
</g>
<!-- GO:0098589 -->
<g id="node7" class="node">
<title>GO:0098589</title>
<polygon fill="#ffffff" stroke="#000000" points="812.3323,-230.2019 697.6285,-230.2019 697.6285,-188.9981 812.3323,-188.9981 812.3323,-230.2019"/>
<text text-anchor="middle" x="754.9804" y="-213.8" font-family="Times,serif" font-size="14.00" fill="#000000">GO:0098589</text>
<text text-anchor="middle" x="754.9804" y="-197" font-family="Times,serif" font-size="14.00" fill="#000000">membrane region</text>
</g>
<!-- GO:0005905&#45;&gt;GO:0098589 -->
<g id="edge5" class="edge">
<title>GO:0005905&#45;&gt;GO:0098589</title>
<path fill="none" stroke="#000000" d="M693.5882,-144.4182C704.0351,-155.5099 717.0359,-169.3132 728.3806,-181.3583"/>
<polygon fill="#000000" stroke="#000000" points="726.149,-184.0937 735.5531,-188.9735 731.2447,-179.2943 726.149,-184.0937"/>
</g>
<!-- GO:0044425 -->
<g id="node8" class="node">
<title>GO:0044425</title>
<polygon fill="#ffa500" stroke="#000000" points="658.3324,-307.8019 557.6284,-307.8019 557.6284,-266.5981 658.3324,-266.5981 658.3324,-307.8019"/>
<text text-anchor="middle" x="607.9804" y="-291.4" font-family="Times,serif" font-size="14.00" fill="#000000">GO:0044425</text>
<text text-anchor="middle" x="607.9804" y="-274.6" font-family="Times,serif" font-size="14.00" fill="#000000">membrane part</text>
</g>
<!-- GO:0098589&#45;&gt;GO:0044425 -->
<g id="edge7" class="edge">
<title>GO:0098589&#45;&gt;GO:0044425</title>
<path fill="none" stroke="#000000" d="M715.5871,-230.3954C697.306,-240.0458 675.4079,-251.6056 656.1523,-261.7705"/>
<polygon fill="#000000" stroke="#000000" points="654.4368,-258.7183 647.2273,-266.4819 657.7047,-264.9087 654.4368,-258.7183"/>
</g>
<!-- GO:0016020 -->
<g id="node9" class="node">
<title>GO:0016020</title>
<polygon fill="#ff0000" stroke="#000000" points="782.5843,-307.8019 693.3765,-307.8019 693.3765,-266.5981 782.5843,-266.5981 782.5843,-307.8019"/>
<text text-anchor="middle" x="737.9804" y="-291.4" font-family="Times,serif" font-size="14.00" fill="#000000">GO:0016020</text>
<text text-anchor="middle" x="737.9804" y="-274.6" font-family="Times,serif" font-size="14.00" fill="#000000">membrane</text>
</g>
<!-- GO:0098589&#45;&gt;GO:0016020 -->
<g id="edge8" class="edge">
<title>GO:0098589&#45;&gt;GO:0016020</title>
<path fill="none" stroke="#000000" d="M750.4247,-230.3954C748.6716,-238.3978 746.6308,-247.7133 744.7152,-256.4575"/>
<polygon fill="#000000" stroke="#000000" points="741.2698,-255.8299 742.5487,-266.3472 748.1076,-257.3279 741.2698,-255.8299"/>
</g>
<!-- GO:0044425&#45;&gt;GO:0005575 -->
<g id="edge16" class="edge">
<title>GO:0044425&#45;&gt;GO:0005575</title>
<path fill="none" stroke="#000000" d="M568.3191,-307.9954C549.9137,-317.6458 527.8666,-329.2056 508.48,-339.3705"/>
<polygon fill="#000000" stroke="#000000" points="506.7255,-336.3384 499.4943,-344.0819 509.9761,-342.5379 506.7255,-336.3384"/>
</g>
<!-- GO:0016020&#45;&gt;GO:0005575 -->
<g id="edge12" class="edge">
<title>GO:0016020&#45;&gt;GO:0005575</title>
<path fill="none" stroke="#000000" d="M693.3223,-300.4099C684.5947,-302.9556 675.5067,-305.5815 666.9804,-308 622.8579,-320.5155 573.3179,-334.1248 533.7667,-344.8838"/>
<polygon fill="#000000" stroke="#000000" points="532.6681,-341.5553 523.9359,-347.5553 534.5038,-348.3103 532.6681,-341.5553"/>
</g>
<!-- GO:0043227 -->
<g id="node10" class="node">
<title>GO:0043227</title>
<polygon fill="#00ff00" stroke="#000000" points="127.9412,-153.0014 .0196,-153.0014 .0196,-94.1986 127.9412,-94.1986 127.9412,-153.0014"/>
<text text-anchor="middle" x="63.9804" y="-136.2" font-family="Times,serif" font-size="14.00" fill="#000000">GO:0043227</text>
<text text-anchor="middle" x="63.9804" y="-119.4" font-family="Times,serif" font-size="14.00" fill="#000000">membrane&#45;bounded</text>
<text text-anchor="middle" x="63.9804" y="-102.6" font-family="Times,serif" font-size="14.00" fill="#000000">organelle</text>
</g>
<!-- GO:0043227&#45;&gt;GO:0043226 -->
<g id="edge10" class="edge">
<title>GO:0043227&#45;&gt;GO:0043226</title>
<path fill="none" stroke="#000000" d="M97.7737,-152.9558C108.6817,-162.4314 120.7249,-172.8932 131.4619,-182.2203"/>
<polygon fill="#000000" stroke="#000000" points="129.1696,-184.8652 139.0143,-188.7809 133.7602,-179.5806 129.1696,-184.8652"/>
</g>
<!-- GO:0031982 -->
<g id="node11" class="node">
<title>GO:0031982</title>
<polygon fill="#00ffff" stroke="#000000" points="108.5843,-49.8019 19.3765,-49.8019 19.3765,-8.5981 108.5843,-8.5981 108.5843,-49.8019"/>
<text text-anchor="middle" x="63.9804" y="-33.4" font-family="Times,serif" font-size="14.00" fill="#000000">GO:0031982</text>
<text text-anchor="middle" x="63.9804" y="-16.6" font-family="Times,serif" font-size="14.00" fill="#000000">vesicle</text>
</g>
<!-- GO:0031982&#45;&gt;GO:0043227 -->
<g id="edge11" class="edge">
<title>GO:0031982&#45;&gt;GO:0043227</title>
<path fill="none" stroke="#000000" d="M63.9804,-50.1504C63.9804,-60.1492 63.9804,-72.4525 63.9804,-84.1106"/>
<polygon fill="#000000" stroke="#000000" points="60.4805,-84.1155 63.9804,-94.1155 67.4805,-84.1156 60.4805,-84.1155"/>
</g>
<!-- GO:0097458 -->
<g id="node12" class="node">
<title>GO:0097458</title>
<polygon fill="#00ffff" stroke="#000000" points="353.5843,-230.2019 264.3765,-230.2019 264.3765,-188.9981 353.5843,-188.9981 353.5843,-230.2019"/>
<text text-anchor="middle" x="308.9804" y="-213.8" font-family="Times,serif" font-size="14.00" fill="#000000">GO:0097458</text>
<text text-anchor="middle" x="308.9804" y="-197" font-family="Times,serif" font-size="14.00" fill="#000000">neuron part</text>
</g>
<!-- GO:0097458&#45;&gt;GO:0044464 -->
<g id="edge13" class="edge">
<title>GO:0097458&#45;&gt;GO:0044464</title>
<path fill="none" stroke="#000000" d="M349.4456,-230.3954C368.3091,-240.0895 390.9217,-251.7102 410.7661,-261.9084"/>
<polygon fill="#000000" stroke="#000000" points="409.1715,-265.024 419.6655,-266.4819 412.3711,-258.798 409.1715,-265.024"/>
</g>
<!-- GO:0044459 -->
<g id="node13" class="node">
<title>GO:0044459</title>
<polygon fill="#00ffff" stroke="#000000" points="679.4876,-230.2019 536.4732,-230.2019 536.4732,-188.9981 679.4876,-188.9981 679.4876,-230.2019"/>
<text text-anchor="middle" x="607.9804" y="-213.8" font-family="Times,serif" font-size="14.00" fill="#000000">GO:0044459</text>
<text text-anchor="middle" x="607.9804" y="-197" font-family="Times,serif" font-size="14.00" fill="#000000">plasma membrane part</text>
</g>
<!-- GO:0044459&#45;&gt;GO:0044464 -->
<g id="edge15" class="edge">
<title>GO:0044459&#45;&gt;GO:0044464</title>
<path fill="none" stroke="#000000" d="M568.3191,-230.3954C549.9137,-240.0458 527.8666,-251.6056 508.48,-261.7705"/>
<polygon fill="#000000" stroke="#000000" points="506.7255,-258.7384 499.4943,-266.4819 509.9761,-264.9379 506.7255,-258.7384"/>
</g>
<!-- GO:0044459&#45;&gt;GO:0044425 -->
<g id="edge14" class="edge">
<title>GO:0044459&#45;&gt;GO:0044425</title>
<path fill="none" stroke="#000000" d="M607.9804,-230.3954C607.9804,-238.3109 607.9804,-247.5109 607.9804,-256.1722"/>
<polygon fill="#000000" stroke="#000000" points="604.4805,-256.3472 607.9804,-266.3472 611.4805,-256.3473 604.4805,-256.3472"/>
</g>
<!-- GO:0043231 -->
<g id="node14" class="node">
<title>GO:0043231</title>
<polygon fill="#00ff00" stroke="#000000" points="284.3592,-58.6014 133.6016,-58.6014 133.6016,.2014 284.3592,.2014 284.3592,-58.6014"/>
<text text-anchor="middle" x="208.9804" y="-41.8" font-family="Times,serif" font-size="14.00" fill="#000000">GO:0043231</text>
<text text-anchor="middle" x="208.9804" y="-25" font-family="Times,serif" font-size="14.00" fill="#000000">intracellular membrane&#45;</text>
<text text-anchor="middle" x="208.9804" y="-8.2" font-family="Times,serif" font-size="14.00" fill="#000000">bounded organelle</text>
</g>
<!-- GO:0043231&#45;&gt;GO:0043229 -->
<g id="edge17" class="edge">
<title>GO:0043231&#45;&gt;GO:0043229</title>
<path fill="none" stroke="#000000" d="M211.1569,-58.5513C211.9659,-69.4614 212.8855,-81.8637 213.7033,-92.892"/>
<polygon fill="#000000" stroke="#000000" points="210.2192,-93.2372 214.4492,-102.951 217.2001,-92.7195 210.2192,-93.2372"/>
</g>
<!-- GO:0043231&#45;&gt;GO:0043227 -->
<g id="edge18" class="edge">
<title>GO:0043231&#45;&gt;GO:0043227</title>
<path fill="none" stroke="#000000" d="M163.8963,-58.5513C149.3022,-68.0525 132.97,-78.6854 117.8072,-88.5569"/>
<polygon fill="#000000" stroke="#000000" points="115.5075,-85.8777 109.0366,-94.2669 119.3267,-91.744 115.5075,-85.8777"/>
</g>
<!-- GO:0044446 -->
<g id="node15" class="node">
<title>GO:0044446</title>
<polygon fill="#00ffff" stroke="#000000" points="442.6988,-153.0014 303.262,-153.0014 303.262,-94.1986 442.6988,-94.1986 442.6988,-153.0014"/>
<text text-anchor="middle" x="372.9804" y="-136.2" font-family="Times,serif" font-size="14.00" fill="#000000">GO:0044446</text>
<text text-anchor="middle" x="372.9804" y="-119.4" font-family="Times,serif" font-size="14.00" fill="#000000">intracellular organelle</text>
<text text-anchor="middle" x="372.9804" y="-102.6" font-family="Times,serif" font-size="14.00" fill="#000000">part</text>
</g>
<!-- GO:0044446&#45;&gt;GO:0044424 -->
<g id="edge19" class="edge">
<title>GO:0044446&#45;&gt;GO:0044424</title>
<path fill="none" stroke="#000000" d="M391.22,-153.1963C396.5981,-161.9231 402.4806,-171.4682 407.8517,-180.1836"/>
<polygon fill="#000000" stroke="#000000" points="404.9951,-182.2196 413.2213,-188.8966 410.9544,-178.5471 404.9951,-182.2196"/>
</g>
<!-- GO:0044422 -->
<g id="node16" class="node">
<title>GO:0044422</title>
<polygon fill="#00ffff" stroke="#000000" points="377.8325,-307.8019 284.1283,-307.8019 284.1283,-266.5981 377.8325,-266.5981 377.8325,-307.8019"/>
<text text-anchor="middle" x="330.9804" y="-291.4" font-family="Times,serif" font-size="14.00" fill="#000000">GO:0044422</text>
<text text-anchor="middle" x="330.9804" y="-274.6" font-family="Times,serif" font-size="14.00" fill="#000000">organelle part</text>
</g>
<!-- GO:0044446&#45;&gt;GO:0044422 -->
<g id="edge20" class="edge">
<title>GO:0044446&#45;&gt;GO:0044422</title>
<path fill="none" stroke="#000000" d="M306.7041,-152.8635C283.4074,-164.6092 261.4025,-177.9143 254.9804,-188.8 245.5858,-204.7242 246.698,-213.87 254.9804,-230.4 260.9782,-242.3703 270.8288,-252.4653 281.4811,-260.6691"/>
<polygon fill="#000000" stroke="#000000" points="279.5635,-263.6007 289.7326,-266.5738 283.637,-257.9081 279.5635,-263.6007"/>
</g>
<!-- GO:0044422&#45;&gt;GO:0005575 -->
<g id="edge21" class="edge">
<title>GO:0044422&#45;&gt;GO:0005575</title>
<path fill="none" stroke="#000000" d="M365.55,-307.9954C381.1667,-317.3896 399.7911,-328.5931 416.3564,-338.558"/>
<polygon fill="#000000" stroke="#000000" points="414.9421,-341.7916 425.3153,-343.9472 418.5504,-335.7933 414.9421,-341.7916"/>
</g>
<!-- GO:0044444 -->
<g id="node17" class="node">
<title>GO:0044444</title>
<polygon fill="#ffa500" stroke="#000000" points="569.397,-144.2019 460.5638,-144.2019 460.5638,-102.9981 569.397,-102.9981 569.397,-144.2019"/>
<text text-anchor="middle" x="514.9804" y="-127.8" font-family="Times,serif" font-size="14.00" fill="#000000">GO:0044444</text>
<text text-anchor="middle" x="514.9804" y="-111" font-family="Times,serif" font-size="14.00" fill="#000000">cytoplasmic part</text>
</g>
<!-- GO:0044444&#45;&gt;GO:0044424 -->
<g id="edge22" class="edge">
<title>GO:0044444&#45;&gt;GO:0044424</title>
<path fill="none" stroke="#000000" d="M493.436,-144.4182C481.848,-155.6156 467.4002,-169.5764 454.8517,-181.7019"/>
<polygon fill="#000000" stroke="#000000" points="452.0856,-179.5077 447.3264,-188.9735 456.9498,-184.5416 452.0856,-179.5077"/>
</g>
</g>
</svg>
