<?xml version="1.0" encoding="UTF-8" standalone="no"?>
<!DOCTYPE svg PUBLIC "-//W3C//DTD SVG 1.1//EN"
 "http://www.w3.org/Graphics/SVG/1.1/DTD/svg11.dtd">
<!-- Generated by graphviz version 2.40.1 (20161225.0304)
 -->
<!-- Title: G Pages: 1 -->
<svg width="1163pt" height="710pt"
 viewBox="0.00 0.00 1162.62 710.40" xmlns="http://www.w3.org/2000/svg" xmlns:xlink="http://www.w3.org/1999/xlink">
<g id="graph0" class="graph" transform="scale(1 1) rotate(0) translate(4 706.4)">
<title>G</title>
<polygon fill="#ffffff" stroke="transparent" points="-4,4 -4,-706.4 1158.6228,-706.4 1158.6228,4 -4,4"/>
<!-- GO:0051049 -->
<g id="node1" class="node">
<title>GO:0051049</title>
<polygon fill="#00ffff" stroke="#000000" points="280.3908,-410.6019 139.023,-410.6019 139.023,-369.3981 280.3908,-369.3981 280.3908,-410.6019"/>
<text text-anchor="middle" x="209.7069" y="-394.2" font-family="Times,serif" font-size="14.00" fill="#000000">GO:0051049</text>
<text text-anchor="middle" x="209.7069" y="-377.4" font-family="Times,serif" font-size="14.00" fill="#000000">regulation of transport</text>
</g>
<!-- GO:0032879 -->
<g id="node2" class="node">
<title>GO:0032879</title>
<polygon fill="#00ff00" stroke="#000000" points="254.3108,-513.8014 165.103,-513.8014 165.103,-454.9986 254.3108,-454.9986 254.3108,-513.8014"/>
<text text-anchor="middle" x="209.7069" y="-497" font-family="Times,serif" font-size="14.00" fill="#000000">GO:0032879</text>
<text text-anchor="middle" x="209.7069" y="-480.2" font-family="Times,serif" font-size="14.00" fill="#000000">regulation of</text>
<text text-anchor="middle" x="209.7069" y="-463.4" font-family="Times,serif" font-size="14.00" fill="#000000">localization</text>
</g>
<!-- GO:0051049&#45;&gt;GO:0032879 -->
<g id="edge1" class="edge">
<title>GO:0051049&#45;&gt;GO:0032879</title>
<path fill="none" stroke="#000000" d="M209.7069,-410.9504C209.7069,-420.9492 209.7069,-433.2525 209.7069,-444.9106"/>
<polygon fill="#000000" stroke="#000000" points="206.207,-444.9155 209.7069,-454.9155 213.207,-444.9156 206.207,-444.9155"/>
</g>
<!-- GO:0065007 -->
<g id="node3" class="node">
<title>GO:0065007</title>
<polygon fill="#ffa500" stroke="#000000" points="336.9603,-607.8019 204.4535,-607.8019 204.4535,-566.5981 336.9603,-566.5981 336.9603,-607.8019"/>
<text text-anchor="middle" x="270.7069" y="-591.4" font-family="Times,serif" font-size="14.00" fill="#000000">GO:0065007</text>
<text text-anchor="middle" x="270.7069" y="-574.6" font-family="Times,serif" font-size="14.00" fill="#000000">biological regulation</text>
</g>
<!-- GO:0032879&#45;&gt;GO:0065007 -->
<g id="edge2" class="edge">
<title>GO:0032879&#45;&gt;GO:0065007</title>
<path fill="none" stroke="#000000" d="M227.1871,-513.8584C235.3889,-527.6805 245.1372,-544.1087 253.3264,-557.9096"/>
<polygon fill="#000000" stroke="#000000" points="250.3378,-559.7318 258.4509,-566.5456 256.3578,-556.1596 250.3378,-559.7318"/>
</g>
<!-- GO:0050789 -->
<g id="node4" class="node">
<title>GO:0050789</title>
<polygon fill="#ffff00" stroke="#000000" points="502.6213,-616.6014 354.7925,-616.6014 354.7925,-557.7986 502.6213,-557.7986 502.6213,-616.6014"/>
<text text-anchor="middle" x="428.7069" y="-599.8" font-family="Times,serif" font-size="14.00" fill="#000000">GO:0050789</text>
<text text-anchor="middle" x="428.7069" y="-583" font-family="Times,serif" font-size="14.00" fill="#000000">regulation of biological</text>
<text text-anchor="middle" x="428.7069" y="-566.2" font-family="Times,serif" font-size="14.00" fill="#000000">process</text>
</g>
<!-- GO:0032879&#45;&gt;GO:0050789 -->
<g id="edge3" class="edge">
<title>GO:0032879&#45;&gt;GO:0050789</title>
<path fill="none" stroke="#000000" d="M254.3699,-509.3936C257.1769,-510.8441 259.9722,-512.2573 262.7069,-513.6 298.8005,-531.3213 308.9481,-533.3034 345.7069,-549.6 348.8388,-550.9885 352.0348,-552.4111 355.2616,-553.8522"/>
<polygon fill="#000000" stroke="#000000" points="353.8523,-557.056 364.4094,-557.9493 356.7135,-550.6675 353.8523,-557.056"/>
</g>
<!-- GO:0008150 -->
<g id="node5" class="node">
<title>GO:0008150</title>
<polygon fill="#ffffff" stroke="#000000" points="709.1775,-702.2019 588.2363,-702.2019 588.2363,-660.9981 709.1775,-660.9981 709.1775,-702.2019"/>
<text text-anchor="middle" x="648.7069" y="-685.8" font-family="Times,serif" font-size="14.00" fill="#000000">GO:0008150</text>
<text text-anchor="middle" x="648.7069" y="-669" font-family="Times,serif" font-size="14.00" fill="#000000">biological_process</text>
</g>
<!-- GO:0065007&#45;&gt;GO:0008150 -->
<g id="edge4" class="edge">
<title>GO:0065007&#45;&gt;GO:0008150</title>
<path fill="none" stroke="#000000" d="M306.8283,-607.8664C318.8851,-614.0644 332.5941,-620.3815 345.7069,-624.8 423.0576,-650.8641 515.7833,-666.032 578.1126,-674.036"/>
<polygon fill="#000000" stroke="#000000" points="577.8735,-677.5334 588.2318,-675.3068 578.7458,-670.588 577.8735,-677.5334"/>
</g>
<!-- GO:0050789&#45;&gt;GO:0008150 -->
<g id="edge5" class="edge">
<title>GO:0050789&#45;&gt;GO:0008150</title>
<path fill="none" stroke="#000000" d="M492.9591,-616.5542C499.2817,-619.3684 505.6113,-622.1565 511.7069,-624.8 536.7317,-635.6525 564.5057,-647.2498 588.4682,-657.1171"/>
<polygon fill="#000000" stroke="#000000" points="587.2141,-660.3857 597.7939,-660.9493 589.8747,-653.911 587.2141,-660.3857"/>
</g>
<!-- GO:0048518 -->
<g id="node6" class="node">
<title>GO:0048518</title>
<polygon fill="#00ffff" stroke="#000000" points="559.4603,-513.8014 423.9535,-513.8014 423.9535,-454.9986 559.4603,-454.9986 559.4603,-513.8014"/>
<text text-anchor="middle" x="491.7069" y="-497" font-family="Times,serif" font-size="14.00" fill="#000000">GO:0048518</text>
<text text-anchor="middle" x="491.7069" y="-480.2" font-family="Times,serif" font-size="14.00" fill="#000000">positive regulation of</text>
<text text-anchor="middle" x="491.7069" y="-463.4" font-family="Times,serif" font-size="14.00" fill="#000000">biological process</text>
</g>
<!-- GO:0048518&#45;&gt;GO:0065007 -->
<g id="edge6" class="edge">
<title>GO:0048518&#45;&gt;GO:0065007</title>
<path fill="none" stroke="#000000" d="M424.5515,-513.6374C399.6723,-524.6664 371.2965,-537.4791 345.7069,-549.6 337.3933,-553.5378 328.617,-557.8212 320.1123,-562.0398"/>
<polygon fill="#000000" stroke="#000000" points="318.4112,-558.977 311.0251,-566.5728 321.5359,-565.241 318.4112,-558.977"/>
</g>
<!-- GO:0048518&#45;&gt;GO:0050789 -->
<g id="edge7" class="edge">
<title>GO:0048518&#45;&gt;GO:0050789</title>
<path fill="none" stroke="#000000" d="M473.6536,-513.8584C466.9316,-524.8271 459.2037,-537.4369 452.0729,-549.0727"/>
<polygon fill="#000000" stroke="#000000" points="449.0039,-547.3822 446.7628,-557.7373 454.9723,-551.0399 449.0039,-547.3822"/>
</g>
<!-- GO:0022607 -->
<g id="node7" class="node">
<title>GO:0022607</title>
<polygon fill="#ff00ff" stroke="#000000" points="701.3939,-419.4014 578.0199,-419.4014 578.0199,-360.5986 701.3939,-360.5986 701.3939,-419.4014"/>
<text text-anchor="middle" x="639.7069" y="-402.6" font-family="Times,serif" font-size="14.00" fill="#000000">GO:0022607</text>
<text text-anchor="middle" x="639.7069" y="-385.8" font-family="Times,serif" font-size="14.00" fill="#000000">cellular component</text>
<text text-anchor="middle" x="639.7069" y="-369" font-family="Times,serif" font-size="14.00" fill="#000000">assembly</text>
</g>
<!-- GO:0016043 -->
<g id="node8" class="node">
<title>GO:0016043</title>
<polygon fill="#00ff00" stroke="#000000" points="701.3939,-513.8014 578.0199,-513.8014 578.0199,-454.9986 701.3939,-454.9986 701.3939,-513.8014"/>
<text text-anchor="middle" x="639.7069" y="-497" font-family="Times,serif" font-size="14.00" fill="#000000">GO:0016043</text>
<text text-anchor="middle" x="639.7069" y="-480.2" font-family="Times,serif" font-size="14.00" fill="#000000">cellular component</text>
<text text-anchor="middle" x="639.7069" y="-463.4" font-family="Times,serif" font-size="14.00" fill="#000000">organization</text>
</g>
<!-- GO:0022607&#45;&gt;GO:0016043 -->
<g id="edge8" class="edge">
<title>GO:0022607&#45;&gt;GO:0016043</title>
<path fill="none" stroke="#000000" d="M639.7069,-419.3513C639.7069,-427.4318 639.7069,-436.3308 639.7069,-444.8838"/>
<polygon fill="#000000" stroke="#000000" points="636.207,-445.0668 639.7069,-455.0669 643.207,-445.0669 636.207,-445.0668"/>
</g>
<!-- GO:0009987 -->
<g id="node9" class="node">
<title>GO:0009987</title>
<polygon fill="#ffff00" stroke="#000000" points="766.6631,-607.8019 662.7507,-607.8019 662.7507,-566.5981 766.6631,-566.5981 766.6631,-607.8019"/>
<text text-anchor="middle" x="714.7069" y="-591.4" font-family="Times,serif" font-size="14.00" fill="#000000">GO:0009987</text>
<text text-anchor="middle" x="714.7069" y="-574.6" font-family="Times,serif" font-size="14.00" fill="#000000">cellular process</text>
</g>
<!-- GO:0016043&#45;&gt;GO:0009987 -->
<g id="edge9" class="edge">
<title>GO:0016043&#45;&gt;GO:0009987</title>
<path fill="none" stroke="#000000" d="M661.1989,-513.8584C671.3792,-527.8121 683.4972,-544.4219 693.6246,-558.3032"/>
<polygon fill="#000000" stroke="#000000" points="690.9167,-560.53 699.6381,-566.5456 696.5716,-556.4042 690.9167,-560.53"/>
</g>
<!-- GO:0071840 -->
<g id="node10" class="node">
<title>GO:0071840</title>
<polygon fill="#ffffff" stroke="#000000" points="644.3939,-624.9003 521.0199,-624.9003 521.0199,-549.4997 644.3939,-549.4997 644.3939,-624.9003"/>
<text text-anchor="middle" x="582.7069" y="-608.2" font-family="Times,serif" font-size="14.00" fill="#000000">GO:0071840</text>
<text text-anchor="middle" x="582.7069" y="-591.4" font-family="Times,serif" font-size="14.00" fill="#000000">cellular component</text>
<text text-anchor="middle" x="582.7069" y="-574.6" font-family="Times,serif" font-size="14.00" fill="#000000">organization or</text>
<text text-anchor="middle" x="582.7069" y="-557.8" font-family="Times,serif" font-size="14.00" fill="#000000">biogenesis</text>
</g>
<!-- GO:0016043&#45;&gt;GO:0071840 -->
<g id="edge10" class="edge">
<title>GO:0016043&#45;&gt;GO:0071840</title>
<path fill="none" stroke="#000000" d="M623.373,-513.8584C618.7838,-522.135 613.6765,-531.346 608.6742,-540.3678"/>
<polygon fill="#000000" stroke="#000000" points="605.5181,-538.8421 603.7298,-549.285 611.64,-542.2366 605.5181,-538.8421"/>
</g>
<!-- GO:0009987&#45;&gt;GO:0008150 -->
<g id="edge11" class="edge">
<title>GO:0009987&#45;&gt;GO:0008150</title>
<path fill="none" stroke="#000000" d="M700.0594,-608.1504C691.0019,-621.1054 679.2398,-637.9287 669.2583,-652.2053"/>
<polygon fill="#000000" stroke="#000000" points="666.175,-650.507 663.3135,-660.7081 671.912,-654.518 666.175,-650.507"/>
</g>
<!-- GO:0071840&#45;&gt;GO:0008150 -->
<g id="edge12" class="edge">
<title>GO:0071840&#45;&gt;GO:0008150</title>
<path fill="none" stroke="#000000" d="M609.1713,-625.0522C615.5728,-634.2082 622.3161,-643.8532 628.3848,-652.5333"/>
<polygon fill="#000000" stroke="#000000" points="625.5926,-654.6478 634.191,-660.8379 631.3295,-650.6368 625.5926,-654.6478"/>
</g>
<!-- GO:0065008 -->
<g id="node11" class="node">
<title>GO:0065008</title>
<polygon fill="#00ffff" stroke="#000000" points="147.6213,-513.8014 -.2075,-513.8014 -.2075,-454.9986 147.6213,-454.9986 147.6213,-513.8014"/>
<text text-anchor="middle" x="73.7069" y="-497" font-family="Times,serif" font-size="14.00" fill="#000000">GO:0065008</text>
<text text-anchor="middle" x="73.7069" y="-480.2" font-family="Times,serif" font-size="14.00" fill="#000000">regulation of biological</text>
<text text-anchor="middle" x="73.7069" y="-463.4" font-family="Times,serif" font-size="14.00" fill="#000000">quality</text>
</g>
<!-- GO:0065008&#45;&gt;GO:0065007 -->
<g id="edge13" class="edge">
<title>GO:0065008&#45;&gt;GO:0065007</title>
<path fill="none" stroke="#000000" d="M129.8956,-513.7208C158.9135,-528.8631 193.9803,-547.162 221.8603,-561.7105"/>
<polygon fill="#000000" stroke="#000000" points="220.5359,-564.9672 231.0206,-566.4906 223.7743,-558.7614 220.5359,-564.9672"/>
</g>
<!-- GO:0006810 -->
<g id="node12" class="node">
<title>GO:0006810</title>
<polygon fill="#ff0000" stroke="#000000" points="1112.3108,-410.6019 1023.103,-410.6019 1023.103,-369.3981 1112.3108,-369.3981 1112.3108,-410.6019"/>
<text text-anchor="middle" x="1067.7069" y="-394.2" font-family="Times,serif" font-size="14.00" fill="#000000">GO:0006810</text>
<text text-anchor="middle" x="1067.7069" y="-377.4" font-family="Times,serif" font-size="14.00" fill="#000000">transport</text>
</g>
<!-- GO:0051234 -->
<g id="node13" class="node">
<title>GO:0051234</title>
<polygon fill="#ffffff" stroke="#000000" points="1121.8536,-513.8014 1013.5602,-513.8014 1013.5602,-454.9986 1121.8536,-454.9986 1121.8536,-513.8014"/>
<text text-anchor="middle" x="1067.7069" y="-497" font-family="Times,serif" font-size="14.00" fill="#000000">GO:0051234</text>
<text text-anchor="middle" x="1067.7069" y="-480.2" font-family="Times,serif" font-size="14.00" fill="#000000">establishment of</text>
<text text-anchor="middle" x="1067.7069" y="-463.4" font-family="Times,serif" font-size="14.00" fill="#000000">localization</text>
</g>
<!-- GO:0006810&#45;&gt;GO:0051234 -->
<g id="edge14" class="edge">
<title>GO:0006810&#45;&gt;GO:0051234</title>
<path fill="none" stroke="#000000" d="M1067.7069,-410.9504C1067.7069,-420.9492 1067.7069,-433.2525 1067.7069,-444.9106"/>
<polygon fill="#000000" stroke="#000000" points="1064.207,-444.9155 1067.7069,-454.9155 1071.207,-444.9156 1064.207,-444.9155"/>
</g>
<!-- GO:0051179 -->
<g id="node14" class="node">
<title>GO:0051179</title>
<polygon fill="#ffffff" stroke="#000000" points="1043.3108,-607.8019 954.103,-607.8019 954.103,-566.5981 1043.3108,-566.5981 1043.3108,-607.8019"/>
<text text-anchor="middle" x="998.7069" y="-591.4" font-family="Times,serif" font-size="14.00" fill="#000000">GO:0051179</text>
<text text-anchor="middle" x="998.7069" y="-574.6" font-family="Times,serif" font-size="14.00" fill="#000000">localization</text>
</g>
<!-- GO:0051234&#45;&gt;GO:0051179 -->
<g id="edge15" class="edge">
<title>GO:0051234&#45;&gt;GO:0051179</title>
<path fill="none" stroke="#000000" d="M1047.9343,-513.8584C1038.6568,-527.6805 1027.63,-544.1087 1018.3668,-557.9096"/>
<polygon fill="#000000" stroke="#000000" points="1015.2373,-556.292 1012.5702,-566.5456 1021.0494,-560.1931 1015.2373,-556.292"/>
</g>
<!-- GO:0051179&#45;&gt;GO:0008150 -->
<g id="edge16" class="edge">
<title>GO:0051179&#45;&gt;GO:0008150</title>
<path fill="none" stroke="#000000" d="M974.1516,-607.9256C965.6136,-614.2032 955.6697,-620.5525 945.7069,-624.8 872.1721,-656.1501 781.0362,-670.3013 719.2551,-676.6221"/>
<polygon fill="#000000" stroke="#000000" points="718.8286,-673.1471 709.2181,-677.6066 719.512,-680.1136 718.8286,-673.1471"/>
</g>
<!-- GO:0050794 -->
<g id="node15" class="node">
<title>GO:0050794</title>
<polygon fill="#ffff00" stroke="#000000" points="405.6059,-513.8014 271.8079,-513.8014 271.8079,-454.9986 405.6059,-454.9986 405.6059,-513.8014"/>
<text text-anchor="middle" x="338.7069" y="-497" font-family="Times,serif" font-size="14.00" fill="#000000">GO:0050794</text>
<text text-anchor="middle" x="338.7069" y="-480.2" font-family="Times,serif" font-size="14.00" fill="#000000">regulation of cellular</text>
<text text-anchor="middle" x="338.7069" y="-463.4" font-family="Times,serif" font-size="14.00" fill="#000000">process</text>
</g>
<!-- GO:0050794&#45;&gt;GO:0065007 -->
<g id="edge17" class="edge">
<title>GO:0050794&#45;&gt;GO:0065007</title>
<path fill="none" stroke="#000000" d="M319.2208,-513.8584C310.0778,-527.6805 299.2109,-544.1087 290.0818,-557.9096"/>
<polygon fill="#000000" stroke="#000000" points="286.9672,-556.2742 284.3693,-566.5456 292.8055,-560.1362 286.9672,-556.2742"/>
</g>
<!-- GO:0050794&#45;&gt;GO:0050789 -->
<g id="edge18" class="edge">
<title>GO:0050794&#45;&gt;GO:0050789</title>
<path fill="none" stroke="#000000" d="M364.4973,-513.8584C374.3827,-525.1497 385.7907,-538.1801 396.2235,-550.0967"/>
<polygon fill="#000000" stroke="#000000" points="393.6922,-552.5189 402.9127,-557.7373 398.959,-547.9079 393.6922,-552.5189"/>
</g>
<!-- GO:0006897 -->
<g id="node16" class="node">
<title>GO:0006897</title>
<polygon fill="#ffa500" stroke="#000000" points="1140.3108,-230.2019 1051.103,-230.2019 1051.103,-188.9981 1140.3108,-188.9981 1140.3108,-230.2019"/>
<text text-anchor="middle" x="1095.7069" y="-213.8" font-family="Times,serif" font-size="14.00" fill="#000000">GO:0006897</text>
<text text-anchor="middle" x="1095.7069" y="-197" font-family="Times,serif" font-size="14.00" fill="#000000">endocytosis</text>
</g>
<!-- GO:0016192 -->
<g id="node17" class="node">
<title>GO:0016192</title>
<polygon fill="#ffffff" stroke="#000000" points="1151.0528,-325.0014 1040.361,-325.0014 1040.361,-266.1986 1151.0528,-266.1986 1151.0528,-325.0014"/>
<text text-anchor="middle" x="1095.7069" y="-308.2" font-family="Times,serif" font-size="14.00" fill="#000000">GO:0016192</text>
<text text-anchor="middle" x="1095.7069" y="-291.4" font-family="Times,serif" font-size="14.00" fill="#000000">vesicle&#45;mediated</text>
<text text-anchor="middle" x="1095.7069" y="-274.6" font-family="Times,serif" font-size="14.00" fill="#000000">transport</text>
</g>
<!-- GO:0006897&#45;&gt;GO:0016192 -->
<g id="edge19" class="edge">
<title>GO:0006897&#45;&gt;GO:0016192</title>
<path fill="none" stroke="#000000" d="M1095.7069,-230.4182C1095.7069,-238.1358 1095.7069,-247.1662 1095.7069,-256.0036"/>
<polygon fill="#000000" stroke="#000000" points="1092.207,-256.1991 1095.7069,-266.1991 1099.207,-256.1992 1092.207,-256.1991"/>
</g>
<!-- GO:0016192&#45;&gt;GO:0006810 -->
<g id="edge20" class="edge">
<title>GO:0016192&#45;&gt;GO:0006810</title>
<path fill="none" stroke="#000000" d="M1087.001,-324.9513C1083.7316,-335.9739 1080.0104,-348.5196 1076.7142,-359.6326"/>
<polygon fill="#000000" stroke="#000000" points="1073.3198,-358.7685 1073.8316,-369.351 1080.0308,-360.7591 1073.3198,-358.7685"/>
</g>
<!-- GO:0006898 -->
<g id="node18" class="node">
<title>GO:0006898</title>
<polygon fill="#ffff00" stroke="#000000" points="1154.5388,-153.0014 1036.875,-153.0014 1036.875,-94.1986 1154.5388,-94.1986 1154.5388,-153.0014"/>
<text text-anchor="middle" x="1095.7069" y="-136.2" font-family="Times,serif" font-size="14.00" fill="#000000">GO:0006898</text>
<text text-anchor="middle" x="1095.7069" y="-119.4" font-family="Times,serif" font-size="14.00" fill="#000000">receptor&#45;mediated</text>
<text text-anchor="middle" x="1095.7069" y="-102.6" font-family="Times,serif" font-size="14.00" fill="#000000">endocytosis</text>
</g>
<!-- GO:0006898&#45;&gt;GO:0006897 -->
<g id="edge21" class="edge">
<title>GO:0006898&#45;&gt;GO:0006897</title>
<path fill="none" stroke="#000000" d="M1095.7069,-153.1963C1095.7069,-161.4638 1095.7069,-170.4657 1095.7069,-178.8008"/>
<polygon fill="#000000" stroke="#000000" points="1092.207,-178.8965 1095.7069,-188.8966 1099.207,-178.8966 1092.207,-178.8965"/>
</g>
<!-- GO:0072583 -->
<g id="node19" class="node">
<title>GO:0072583</title>
<polygon fill="#00ffff" stroke="#000000" points="1152.945,-58.6014 1038.4688,-58.6014 1038.4688,.2014 1152.945,.2014 1152.945,-58.6014"/>
<text text-anchor="middle" x="1095.7069" y="-41.8" font-family="Times,serif" font-size="14.00" fill="#000000">GO:0072583</text>
<text text-anchor="middle" x="1095.7069" y="-25" font-family="Times,serif" font-size="14.00" fill="#000000">clathrin&#45;mediated</text>
<text text-anchor="middle" x="1095.7069" y="-8.2" font-family="Times,serif" font-size="14.00" fill="#000000">endocytosis</text>
</g>
<!-- GO:0072583&#45;&gt;GO:0006898 -->
<g id="edge22" class="edge">
<title>GO:0072583&#45;&gt;GO:0006898</title>
<path fill="none" stroke="#000000" d="M1095.7069,-58.5513C1095.7069,-66.6318 1095.7069,-75.5308 1095.7069,-84.0838"/>
<polygon fill="#000000" stroke="#000000" points="1092.207,-84.2668 1095.7069,-94.2669 1099.207,-84.2669 1092.207,-84.2668"/>
</g>
<!-- GO:0051128 -->
<g id="node20" class="node">
<title>GO:0051128</title>
<polygon fill="#00ffff" stroke="#000000" points="446.3938,-325.0014 295.02,-325.0014 295.02,-266.1986 446.3938,-266.1986 446.3938,-325.0014"/>
<text text-anchor="middle" x="370.7069" y="-308.2" font-family="Times,serif" font-size="14.00" fill="#000000">GO:0051128</text>
<text text-anchor="middle" x="370.7069" y="-291.4" font-family="Times,serif" font-size="14.00" fill="#000000">regulation of cellular</text>
<text text-anchor="middle" x="370.7069" y="-274.6" font-family="Times,serif" font-size="14.00" fill="#000000">component organization</text>
</g>
<!-- GO:0051128&#45;&gt;GO:0050794 -->
<g id="edge23" class="edge">
<title>GO:0051128&#45;&gt;GO:0050794</title>
<path fill="none" stroke="#000000" d="M365.7069,-325.1C360.2353,-357.3825 351.4372,-409.2912 345.3797,-445.0305"/>
<polygon fill="#000000" stroke="#000000" points="341.8922,-444.6629 343.6718,-455.1072 348.7937,-445.8327 341.8922,-444.6629"/>
</g>
<!-- GO:0044699 -->
<g id="node21" class="node">
<title>GO:0044699</title>
<polygon fill="#ffff00" stroke="#000000" points="936.3882,-607.8019 785.0256,-607.8019 785.0256,-566.5981 936.3882,-566.5981 936.3882,-607.8019"/>
<text text-anchor="middle" x="860.7069" y="-591.4" font-family="Times,serif" font-size="14.00" fill="#000000">GO:0044699</text>
<text text-anchor="middle" x="860.7069" y="-574.6" font-family="Times,serif" font-size="14.00" fill="#000000">single&#45;organism process</text>
</g>
<!-- GO:0044699&#45;&gt;GO:0008150 -->
<g id="edge24" class="edge">
<title>GO:0044699&#45;&gt;GO:0008150</title>
<path fill="none" stroke="#000000" d="M814.1826,-607.9165C781.8733,-622.3033 738.6641,-641.5436 704.5017,-656.7555"/>
<polygon fill="#000000" stroke="#000000" points="702.8342,-653.6667 695.1227,-660.9318 705.6817,-660.0614 702.8342,-653.6667"/>
</g>
<!-- GO:0030100 -->
<g id="node22" class="node">
<title>GO:0030100</title>
<polygon fill="#00ffff" stroke="#000000" points="369.2294,-230.2019 212.1844,-230.2019 212.1844,-188.9981 369.2294,-188.9981 369.2294,-230.2019"/>
<text text-anchor="middle" x="290.7069" y="-213.8" font-family="Times,serif" font-size="14.00" fill="#000000">GO:0030100</text>
<text text-anchor="middle" x="290.7069" y="-197" font-family="Times,serif" font-size="14.00" fill="#000000">regulation of endocytosis</text>
</g>
<!-- GO:0030100&#45;&gt;GO:0051128 -->
<g id="edge26" class="edge">
<title>GO:0030100&#45;&gt;GO:0051128</title>
<path fill="none" stroke="#000000" d="M310.0727,-230.4182C318.0322,-238.9747 327.4928,-249.1448 336.5456,-258.8766"/>
<polygon fill="#000000" stroke="#000000" points="333.9835,-261.2611 343.3573,-266.1991 339.1089,-256.4934 333.9835,-261.2611"/>
</g>
<!-- GO:0060627 -->
<g id="node23" class="node">
<title>GO:0060627</title>
<polygon fill="#ffffff" stroke="#000000" points="277.1593,-325.0014 142.2545,-325.0014 142.2545,-266.1986 277.1593,-266.1986 277.1593,-325.0014"/>
<text text-anchor="middle" x="209.7069" y="-308.2" font-family="Times,serif" font-size="14.00" fill="#000000">GO:0060627</text>
<text text-anchor="middle" x="209.7069" y="-291.4" font-family="Times,serif" font-size="14.00" fill="#000000">regulation of vesicle&#45;</text>
<text text-anchor="middle" x="209.7069" y="-274.6" font-family="Times,serif" font-size="14.00" fill="#000000">mediated transport</text>
</g>
<!-- GO:0030100&#45;&gt;GO:0060627 -->
<g id="edge25" class="edge">
<title>GO:0030100&#45;&gt;GO:0060627</title>
<path fill="none" stroke="#000000" d="M271.0991,-230.4182C263.0401,-238.9747 253.4612,-249.1448 244.2952,-258.8766"/>
<polygon fill="#000000" stroke="#000000" points="241.7069,-256.5199 237.3984,-266.1991 246.8026,-261.3193 241.7069,-256.5199"/>
</g>
<!-- GO:0060627&#45;&gt;GO:0051049 -->
<g id="edge27" class="edge">
<title>GO:0060627&#45;&gt;GO:0051049</title>
<path fill="none" stroke="#000000" d="M209.7069,-324.9513C209.7069,-335.8614 209.7069,-348.2637 209.7069,-359.292"/>
<polygon fill="#000000" stroke="#000000" points="206.207,-359.3509 209.7069,-369.351 213.207,-359.351 206.207,-359.3509"/>
</g>
<!-- GO:0060627&#45;&gt;GO:0050794 -->
<g id="edge28" class="edge">
<title>GO:0060627&#45;&gt;GO:0050794</title>
<path fill="none" stroke="#000000" d="M253.7284,-324.8885C266.6099,-335.077 279.8602,-347.3574 289.7069,-360.8 308.3116,-386.199 321.0009,-419.6192 328.7969,-445.3034"/>
<polygon fill="#000000" stroke="#000000" points="325.4891,-446.463 331.6453,-455.0858 332.21,-444.506 325.4891,-446.463"/>
</g>
<!-- GO:0044765 -->
<g id="node24" class="node">
<title>GO:0044765</title>
<polygon fill="#00ffff" stroke="#000000" points="1022.6712,-316.2019 862.7426,-316.2019 862.7426,-274.9981 1022.6712,-274.9981 1022.6712,-316.2019"/>
<text text-anchor="middle" x="942.7069" y="-299.8" font-family="Times,serif" font-size="14.00" fill="#000000">GO:0044765</text>
<text text-anchor="middle" x="942.7069" y="-283" font-family="Times,serif" font-size="14.00" fill="#000000">single&#45;organism transport</text>
</g>
<!-- GO:0044765&#45;&gt;GO:0006810 -->
<g id="edge29" class="edge">
<title>GO:0044765&#45;&gt;GO:0006810</title>
<path fill="none" stroke="#000000" d="M970.1387,-316.3165C988.3749,-330.0885 1012.5003,-348.308 1032.1983,-363.1839"/>
<polygon fill="#000000" stroke="#000000" points="1030.2498,-366.0983 1040.3391,-369.3318 1034.4684,-360.5123 1030.2498,-366.0983"/>
</g>
<!-- GO:1902578 -->
<g id="node25" class="node">
<title>GO:1902578</title>
<polygon fill="#00ffff" stroke="#000000" points="995.9091,-513.8014 889.5047,-513.8014 889.5047,-454.9986 995.9091,-454.9986 995.9091,-513.8014"/>
<text text-anchor="middle" x="942.7069" y="-497" font-family="Times,serif" font-size="14.00" fill="#000000">GO:1902578</text>
<text text-anchor="middle" x="942.7069" y="-480.2" font-family="Times,serif" font-size="14.00" fill="#000000">single&#45;organism</text>
<text text-anchor="middle" x="942.7069" y="-463.4" font-family="Times,serif" font-size="14.00" fill="#000000">localization</text>
</g>
<!-- GO:0044765&#45;&gt;GO:1902578 -->
<g id="edge30" class="edge">
<title>GO:0044765&#45;&gt;GO:1902578</title>
<path fill="none" stroke="#000000" d="M942.7069,-316.5263C942.7069,-347.3951 942.7069,-405.6952 942.7069,-444.8013"/>
<polygon fill="#000000" stroke="#000000" points="939.207,-445.0376 942.7069,-455.0376 946.207,-445.0377 939.207,-445.0376"/>
</g>
<!-- GO:1902578&#45;&gt;GO:0051179 -->
<g id="edge31" class="edge">
<title>GO:1902578&#45;&gt;GO:0051179</title>
<path fill="none" stroke="#000000" d="M958.7543,-513.8584C966.2121,-527.5489 975.0627,-543.796 982.5359,-557.5146"/>
<polygon fill="#000000" stroke="#000000" points="979.5982,-559.4384 987.4555,-566.5456 985.7453,-556.0897 979.5982,-559.4384"/>
</g>
<!-- GO:1902578&#45;&gt;GO:0044699 -->
<g id="edge32" class="edge">
<title>GO:1902578&#45;&gt;GO:0044699</title>
<path fill="none" stroke="#000000" d="M919.209,-513.8584C907.9735,-527.9438 894.5794,-544.7355 883.4441,-558.6954"/>
<polygon fill="#000000" stroke="#000000" points="880.6819,-556.5455 877.1822,-566.5456 886.1542,-560.9106 880.6819,-556.5455"/>
</g>
<!-- GO:0044763 -->
<g id="node26" class="node">
<title>GO:0044763</title>
<polygon fill="#ffff00" stroke="#000000" points="871.3854,-513.8014 720.0284,-513.8014 720.0284,-454.9986 871.3854,-454.9986 871.3854,-513.8014"/>
<text text-anchor="middle" x="795.7069" y="-497" font-family="Times,serif" font-size="14.00" fill="#000000">GO:0044763</text>
<text text-anchor="middle" x="795.7069" y="-480.2" font-family="Times,serif" font-size="14.00" fill="#000000">single&#45;organism cellular</text>
<text text-anchor="middle" x="795.7069" y="-463.4" font-family="Times,serif" font-size="14.00" fill="#000000">process</text>
</g>
<!-- GO:0044763&#45;&gt;GO:0009987 -->
<g id="edge33" class="edge">
<title>GO:0044763&#45;&gt;GO:0009987</title>
<path fill="none" stroke="#000000" d="M772.4956,-513.8584C761.5008,-527.8121 748.4134,-544.4219 737.4758,-558.3032"/>
<polygon fill="#000000" stroke="#000000" points="734.4211,-556.5248 730.9813,-566.5456 739.9194,-560.8571 734.4211,-556.5248"/>
</g>
<!-- GO:0044763&#45;&gt;GO:0044699 -->
<g id="edge34" class="edge">
<title>GO:0044763&#45;&gt;GO:0044699</title>
<path fill="none" stroke="#000000" d="M814.3333,-513.8584C823.073,-527.6805 833.4605,-544.1087 842.1867,-557.9096"/>
<polygon fill="#000000" stroke="#000000" points="839.3447,-559.964 847.6472,-566.5456 845.2612,-556.223 839.3447,-559.964"/>
</g>
<!-- GO:0048522 -->
<g id="node27" class="node">
<title>GO:0048522</title>
<polygon fill="#00ffff" stroke="#000000" points="547.4603,-419.4014 411.9535,-419.4014 411.9535,-360.5986 547.4603,-360.5986 547.4603,-419.4014"/>
<text text-anchor="middle" x="479.7069" y="-402.6" font-family="Times,serif" font-size="14.00" fill="#000000">GO:0048522</text>
<text text-anchor="middle" x="479.7069" y="-385.8" font-family="Times,serif" font-size="14.00" fill="#000000">positive regulation of</text>
<text text-anchor="middle" x="479.7069" y="-369" font-family="Times,serif" font-size="14.00" fill="#000000">cellular process</text>
</g>
<!-- GO:0048522&#45;&gt;GO:0048518 -->
<g id="edge35" class="edge">
<title>GO:0048522&#45;&gt;GO:0048518</title>
<path fill="none" stroke="#000000" d="M483.438,-419.3513C484.4652,-427.4318 485.5964,-436.3308 486.6837,-444.8838"/>
<polygon fill="#000000" stroke="#000000" points="483.2449,-445.5881 487.9781,-455.0669 490.189,-444.7053 483.2449,-445.5881"/>
</g>
<!-- GO:0048522&#45;&gt;GO:0050794 -->
<g id="edge36" class="edge">
<title>GO:0048522&#45;&gt;GO:0050794</title>
<path fill="none" stroke="#000000" d="M435.8665,-419.3513C421.675,-428.8525 405.7934,-439.4854 391.0488,-449.3569"/>
<polygon fill="#000000" stroke="#000000" points="388.8826,-446.5951 382.5202,-455.0669 392.777,-452.4119 388.8826,-446.5951"/>
</g>
</g>
</svg>
