<?xml version="1.0" encoding="UTF-8" standalone="no"?>
<!DOCTYPE svg PUBLIC "-//W3C//DTD SVG 1.1//EN"
 "http://www.w3.org/Graphics/SVG/1.1/DTD/svg11.dtd">
<!-- Generated by graphviz version 2.40.1 (20161225.0304)
 -->
<!-- Title: G Pages: 1 -->
<svg width="770pt" height="238pt"
 viewBox="0.00 0.00 769.55 238.40" xmlns="http://www.w3.org/2000/svg" xmlns:xlink="http://www.w3.org/1999/xlink">
<g id="graph0" class="graph" transform="scale(1 1) rotate(0) translate(4 234.4)">
<title>G</title>
<polygon fill="#ffffff" stroke="transparent" points="-4,4 -4,-234.4 765.546,-234.4 765.546,4 -4,4"/>
<!-- GO:0050789 -->
<g id="node1" class="node">
<title>GO:0050789</title>
<polygon fill="#ffff00" stroke="#000000" points="147.6213,-153.0014 -.2075,-153.0014 -.2075,-94.1986 147.6213,-94.1986 147.6213,-153.0014"/>
<text text-anchor="middle" x="73.7069" y="-136.2" font-family="Times,serif" font-size="14.00" fill="#000000">GO:0050789</text>
<text text-anchor="middle" x="73.7069" y="-119.4" font-family="Times,serif" font-size="14.00" fill="#000000">regulation of biological</text>
<text text-anchor="middle" x="73.7069" y="-102.6" font-family="Times,serif" font-size="14.00" fill="#000000">process</text>
</g>
<!-- GO:0008150 -->
<g id="node2" class="node">
<title>GO:0008150</title>
<polygon fill="#ffffff" stroke="#000000" points="435.1775,-230.2019 314.2363,-230.2019 314.2363,-188.9981 435.1775,-188.9981 435.1775,-230.2019"/>
<text text-anchor="middle" x="374.7069" y="-213.8" font-family="Times,serif" font-size="14.00" fill="#000000">GO:0008150</text>
<text text-anchor="middle" x="374.7069" y="-197" font-family="Times,serif" font-size="14.00" fill="#000000">biological_process</text>
</g>
<!-- GO:0050789&#45;&gt;GO:0008150 -->
<g id="edge1" class="edge">
<title>GO:0050789&#45;&gt;GO:0008150</title>
<path fill="none" stroke="#000000" d="M147.8071,-149.7125C151.1458,-150.7773 154.4573,-151.8115 157.7069,-152.8 206.2707,-167.5717 261.6377,-182.0264 304.2899,-192.6572"/>
<polygon fill="#000000" stroke="#000000" points="303.4678,-196.0593 314.0164,-195.0702 305.1534,-189.2653 303.4678,-196.0593"/>
</g>
<!-- GO:0065007 -->
<g id="node3" class="node">
<title>GO:0065007</title>
<polygon fill="#ffff00" stroke="#000000" points="298.9603,-144.2019 166.4535,-144.2019 166.4535,-102.9981 298.9603,-102.9981 298.9603,-144.2019"/>
<text text-anchor="middle" x="232.7069" y="-127.8" font-family="Times,serif" font-size="14.00" fill="#000000">GO:0065007</text>
<text text-anchor="middle" x="232.7069" y="-111" font-family="Times,serif" font-size="14.00" fill="#000000">biological regulation</text>
</g>
<!-- GO:0065007&#45;&gt;GO:0008150 -->
<g id="edge2" class="edge">
<title>GO:0065007&#45;&gt;GO:0008150</title>
<path fill="none" stroke="#000000" d="M267.0811,-144.4182C286.6163,-156.2494 311.2456,-171.1657 332.012,-183.7425"/>
<polygon fill="#000000" stroke="#000000" points="330.2825,-186.7869 340.6492,-188.9735 333.9087,-180.7994 330.2825,-186.7869"/>
</g>
<!-- GO:0050794 -->
<g id="node4" class="node">
<title>GO:0050794</title>
<polygon fill="#ffff00" stroke="#000000" points="139.6059,-58.6014 5.8079,-58.6014 5.8079,.2014 139.6059,.2014 139.6059,-58.6014"/>
<text text-anchor="middle" x="72.7069" y="-41.8" font-family="Times,serif" font-size="14.00" fill="#000000">GO:0050794</text>
<text text-anchor="middle" x="72.7069" y="-25" font-family="Times,serif" font-size="14.00" fill="#000000">regulation of cellular</text>
<text text-anchor="middle" x="72.7069" y="-8.2" font-family="Times,serif" font-size="14.00" fill="#000000">process</text>
</g>
<!-- GO:0050794&#45;&gt;GO:0050789 -->
<g id="edge4" class="edge">
<title>GO:0050794&#45;&gt;GO:0050789</title>
<path fill="none" stroke="#000000" d="M73.0178,-58.5513C73.1034,-66.6318 73.1977,-75.5308 73.2883,-84.0838"/>
<polygon fill="#000000" stroke="#000000" points="69.7903,-84.3045 73.3962,-94.2669 76.7899,-84.2303 69.7903,-84.3045"/>
</g>
<!-- GO:0050794&#45;&gt;GO:0065007 -->
<g id="edge3" class="edge">
<title>GO:0050794&#45;&gt;GO:0065007</title>
<path fill="none" stroke="#000000" d="M122.4548,-58.5513C143.7109,-71.0923 168.3084,-85.6049 188.8696,-97.736"/>
<polygon fill="#000000" stroke="#000000" points="187.3173,-100.8839 197.7086,-102.951 190.8744,-94.855 187.3173,-100.8839"/>
</g>
<!-- GO:0008152 -->
<g id="node5" class="node">
<title>GO:0008152</title>
<polygon fill="#00ffff" stroke="#000000" points="432.8925,-144.2019 316.5213,-144.2019 316.5213,-102.9981 432.8925,-102.9981 432.8925,-144.2019"/>
<text text-anchor="middle" x="374.7069" y="-127.8" font-family="Times,serif" font-size="14.00" fill="#000000">GO:0008152</text>
<text text-anchor="middle" x="374.7069" y="-111" font-family="Times,serif" font-size="14.00" fill="#000000">metabolic process</text>
</g>
<!-- GO:0008152&#45;&gt;GO:0008150 -->
<g id="edge5" class="edge">
<title>GO:0008152&#45;&gt;GO:0008150</title>
<path fill="none" stroke="#000000" d="M374.7069,-144.4182C374.7069,-154.7705 374.7069,-167.4848 374.7069,-178.9271"/>
<polygon fill="#000000" stroke="#000000" points="371.207,-178.9735 374.7069,-188.9735 378.207,-178.9735 371.207,-178.9735"/>
</g>
<!-- GO:0044699 -->
<g id="node6" class="node">
<title>GO:0044699</title>
<polygon fill="#00ff00" stroke="#000000" points="758.3882,-144.2019 607.0256,-144.2019 607.0256,-102.9981 758.3882,-102.9981 758.3882,-144.2019"/>
<text text-anchor="middle" x="682.7069" y="-127.8" font-family="Times,serif" font-size="14.00" fill="#000000">GO:0044699</text>
<text text-anchor="middle" x="682.7069" y="-111" font-family="Times,serif" font-size="14.00" fill="#000000">single&#45;organism process</text>
</g>
<!-- GO:0044699&#45;&gt;GO:0008150 -->
<g id="edge6" class="edge">
<title>GO:0044699&#45;&gt;GO:0008150</title>
<path fill="none" stroke="#000000" d="M622.2832,-144.2473C613.0771,-147.2196 603.6625,-150.1614 594.7069,-152.8 545.0344,-167.4351 488.4551,-181.9966 445.1141,-192.7115"/>
<polygon fill="#000000" stroke="#000000" points="444.1097,-189.3542 435.2365,-195.1436 445.7834,-196.1512 444.1097,-189.3542"/>
</g>
<!-- GO:0009987 -->
<g id="node7" class="node">
<title>GO:0009987</title>
<polygon fill="#ffa500" stroke="#000000" points="585.6631,-144.2019 481.7507,-144.2019 481.7507,-102.9981 585.6631,-102.9981 585.6631,-144.2019"/>
<text text-anchor="middle" x="533.7069" y="-127.8" font-family="Times,serif" font-size="14.00" fill="#000000">GO:0009987</text>
<text text-anchor="middle" x="533.7069" y="-111" font-family="Times,serif" font-size="14.00" fill="#000000">cellular process</text>
</g>
<!-- GO:0009987&#45;&gt;GO:0008150 -->
<g id="edge7" class="edge">
<title>GO:0009987&#45;&gt;GO:0008150</title>
<path fill="none" stroke="#000000" d="M495.2174,-144.4182C473.1482,-156.355 445.2727,-171.4323 421.8914,-184.0788"/>
<polygon fill="#000000" stroke="#000000" points="419.9726,-181.1374 412.8419,-188.9735 423.3029,-187.2945 419.9726,-181.1374"/>
</g>
<!-- GO:0071704 -->
<g id="node8" class="node">
<title>GO:0071704</title>
<polygon fill="#00ffff" stroke="#000000" points="273.8925,-58.6014 157.5213,-58.6014 157.5213,.2014 273.8925,.2014 273.8925,-58.6014"/>
<text text-anchor="middle" x="215.7069" y="-41.8" font-family="Times,serif" font-size="14.00" fill="#000000">GO:0071704</text>
<text text-anchor="middle" x="215.7069" y="-25" font-family="Times,serif" font-size="14.00" fill="#000000">organic substance</text>
<text text-anchor="middle" x="215.7069" y="-8.2" font-family="Times,serif" font-size="14.00" fill="#000000">metabolic process</text>
</g>
<!-- GO:0071704&#45;&gt;GO:0008152 -->
<g id="edge8" class="edge">
<title>GO:0071704&#45;&gt;GO:0008152</title>
<path fill="none" stroke="#000000" d="M265.1439,-58.5513C286.2671,-71.0923 310.7109,-85.6049 331.1436,-97.736"/>
<polygon fill="#000000" stroke="#000000" points="329.5418,-100.8553 339.9273,-102.951 333.1154,-94.8363 329.5418,-100.8553"/>
</g>
<!-- GO:0044763 -->
<g id="node9" class="node">
<title>GO:0044763</title>
<polygon fill="#00ffff" stroke="#000000" points="761.3854,-58.6014 610.0284,-58.6014 610.0284,.2014 761.3854,.2014 761.3854,-58.6014"/>
<text text-anchor="middle" x="685.7069" y="-41.8" font-family="Times,serif" font-size="14.00" fill="#000000">GO:0044763</text>
<text text-anchor="middle" x="685.7069" y="-25" font-family="Times,serif" font-size="14.00" fill="#000000">single&#45;organism cellular</text>
<text text-anchor="middle" x="685.7069" y="-8.2" font-family="Times,serif" font-size="14.00" fill="#000000">process</text>
</g>
<!-- GO:0044763&#45;&gt;GO:0044699 -->
<g id="edge10" class="edge">
<title>GO:0044763&#45;&gt;GO:0044699</title>
<path fill="none" stroke="#000000" d="M684.7741,-58.5513C684.4274,-69.4614 684.0333,-81.8637 683.6828,-92.892"/>
<polygon fill="#000000" stroke="#000000" points="680.1826,-92.8448 683.3631,-102.951 687.1791,-93.0672 680.1826,-92.8448"/>
</g>
<!-- GO:0044763&#45;&gt;GO:0009987 -->
<g id="edge9" class="edge">
<title>GO:0044763&#45;&gt;GO:0009987</title>
<path fill="none" stroke="#000000" d="M638.4464,-58.5513C618.3437,-71.0361 595.0949,-85.4748 575.6153,-97.5727"/>
<polygon fill="#000000" stroke="#000000" points="573.6038,-94.7018 566.9553,-102.951 577.2969,-100.6483 573.6038,-94.7018"/>
</g>
<!-- GO:0044238 -->
<g id="node10" class="node">
<title>GO:0044238</title>
<polygon fill="#00ffff" stroke="#000000" points="456.7099,-49.8019 292.7039,-49.8019 292.7039,-8.5981 456.7099,-8.5981 456.7099,-49.8019"/>
<text text-anchor="middle" x="374.7069" y="-33.4" font-family="Times,serif" font-size="14.00" fill="#000000">GO:0044238</text>
<text text-anchor="middle" x="374.7069" y="-16.6" font-family="Times,serif" font-size="14.00" fill="#000000">primary metabolic process</text>
</g>
<!-- GO:0044238&#45;&gt;GO:0008152 -->
<g id="edge11" class="edge">
<title>GO:0044238&#45;&gt;GO:0008152</title>
<path fill="none" stroke="#000000" d="M374.7069,-50.1504C374.7069,-62.6165 374.7069,-78.6645 374.7069,-92.5786"/>
<polygon fill="#000000" stroke="#000000" points="371.207,-92.7081 374.7069,-102.7081 378.207,-92.7082 371.207,-92.7081"/>
</g>
<!-- GO:0044237 -->
<g id="node11" class="node">
<title>GO:0044237</title>
<polygon fill="#00ffff" stroke="#000000" points="591.8897,-58.6014 475.5241,-58.6014 475.5241,.2014 591.8897,.2014 591.8897,-58.6014"/>
<text text-anchor="middle" x="533.7069" y="-41.8" font-family="Times,serif" font-size="14.00" fill="#000000">GO:0044237</text>
<text text-anchor="middle" x="533.7069" y="-25" font-family="Times,serif" font-size="14.00" fill="#000000">cellular metabolic</text>
<text text-anchor="middle" x="533.7069" y="-8.2" font-family="Times,serif" font-size="14.00" fill="#000000">process</text>
</g>
<!-- GO:0044237&#45;&gt;GO:0008152 -->
<g id="edge13" class="edge">
<title>GO:0044237&#45;&gt;GO:0008152</title>
<path fill="none" stroke="#000000" d="M484.2699,-58.5513C463.1467,-71.0923 438.7029,-85.6049 418.2702,-97.736"/>
<polygon fill="#000000" stroke="#000000" points="416.2984,-94.8363 409.4865,-102.951 419.872,-100.8553 416.2984,-94.8363"/>
</g>
<!-- GO:0044237&#45;&gt;GO:0009987 -->
<g id="edge12" class="edge">
<title>GO:0044237&#45;&gt;GO:0009987</title>
<path fill="none" stroke="#000000" d="M533.7069,-58.5513C533.7069,-69.4614 533.7069,-81.8637 533.7069,-92.892"/>
<polygon fill="#000000" stroke="#000000" points="530.207,-92.9509 533.7069,-102.951 537.207,-92.951 530.207,-92.9509"/>
</g>
</g>
</svg>
