<?xml version="1.0" encoding="UTF-8" standalone="no"?>
<!DOCTYPE svg PUBLIC "-//W3C//DTD SVG 1.1//EN"
 "http://www.w3.org/Graphics/SVG/1.1/DTD/svg11.dtd">
<!-- Generated by graphviz version 2.40.1 (20161225.0304)
 -->
<!-- Title: G Pages: 1 -->
<svg width="889pt" height="410pt"
 viewBox="0.00 0.00 888.60 410.40" xmlns="http://www.w3.org/2000/svg" xmlns:xlink="http://www.w3.org/1999/xlink">
<g id="graph0" class="graph" transform="scale(1 1) rotate(0) translate(4 406.4)">
<title>G</title>
<polygon fill="#ffffff" stroke="transparent" points="-4,4 -4,-406.4 884.5954,-406.4 884.5954,4 -4,4"/>
<!-- GO:0019899 -->
<g id="node1" class="node">
<title>GO:0019899</title>
<polygon fill="#ff00ff" stroke="#000000" points="880.5034,-144.2019 774.8718,-144.2019 774.8718,-102.9981 880.5034,-102.9981 880.5034,-144.2019"/>
<text text-anchor="middle" x="827.6876" y="-127.8" font-family="Times,serif" font-size="14.00" fill="#000000">GO:0019899</text>
<text text-anchor="middle" x="827.6876" y="-111" font-family="Times,serif" font-size="14.00" fill="#000000">enzyme binding</text>
</g>
<!-- GO:0005515 -->
<g id="node2" class="node">
<title>GO:0005515</title>
<polygon fill="#ffffff" stroke="#000000" points="736.6252,-238.6019 634.75,-238.6019 634.75,-197.3981 736.6252,-197.3981 736.6252,-238.6019"/>
<text text-anchor="middle" x="685.6876" y="-222.2" font-family="Times,serif" font-size="14.00" fill="#000000">GO:0005515</text>
<text text-anchor="middle" x="685.6876" y="-205.4" font-family="Times,serif" font-size="14.00" fill="#000000">protein binding</text>
</g>
<!-- GO:0019899&#45;&gt;GO:0005515 -->
<g id="edge1" class="edge">
<title>GO:0019899&#45;&gt;GO:0005515</title>
<path fill="none" stroke="#000000" d="M796.5251,-144.3165C775.5313,-158.2729 747.667,-176.7968 725.1291,-191.7798"/>
<polygon fill="#000000" stroke="#000000" points="723.1675,-188.8809 716.7774,-197.3318 727.0428,-194.7103 723.1675,-188.8809"/>
</g>
<!-- GO:0005488 -->
<g id="node3" class="node">
<title>GO:0005488</title>
<polygon fill="#ffffff" stroke="#000000" points="435.2915,-324.6019 346.0837,-324.6019 346.0837,-283.3981 435.2915,-283.3981 435.2915,-324.6019"/>
<text text-anchor="middle" x="390.6876" y="-308.2" font-family="Times,serif" font-size="14.00" fill="#000000">GO:0005488</text>
<text text-anchor="middle" x="390.6876" y="-291.4" font-family="Times,serif" font-size="14.00" fill="#000000">binding</text>
</g>
<!-- GO:0005515&#45;&gt;GO:0005488 -->
<g id="edge2" class="edge">
<title>GO:0005515&#45;&gt;GO:0005488</title>
<path fill="none" stroke="#000000" d="M634.4568,-238.586C626.2286,-241.6307 617.7635,-244.6105 609.6876,-247.2 554.3984,-264.9287 489.9413,-281.1215 445.3382,-291.6412"/>
<polygon fill="#000000" stroke="#000000" points="444.5097,-288.2405 435.5714,-293.9289 446.1061,-295.056 444.5097,-288.2405"/>
</g>
<!-- GO:0003674 -->
<g id="node4" class="node">
<title>GO:0003674</title>
<polygon fill="#ffffff" stroke="#000000" points="291.3207,-402.2019 166.0545,-402.2019 166.0545,-360.9981 291.3207,-360.9981 291.3207,-402.2019"/>
<text text-anchor="middle" x="228.6876" y="-385.8" font-family="Times,serif" font-size="14.00" fill="#000000">GO:0003674</text>
<text text-anchor="middle" x="228.6876" y="-369" font-family="Times,serif" font-size="14.00" fill="#000000">molecular_function</text>
</g>
<!-- GO:0005488&#45;&gt;GO:0003674 -->
<g id="edge3" class="edge">
<title>GO:0005488&#45;&gt;GO:0003674</title>
<path fill="none" stroke="#000000" d="M347.2746,-324.7954C326.9458,-334.5331 302.5584,-346.215 281.1996,-356.4461"/>
<polygon fill="#000000" stroke="#000000" points="279.446,-353.4052 271.9393,-360.8819 282.4701,-359.7183 279.446,-353.4052"/>
</g>
<!-- GO:0003676 -->
<g id="node5" class="node">
<title>GO:0003676</title>
<polygon fill="#ffffff" stroke="#000000" points="357.2145,-144.2019 228.1607,-144.2019 228.1607,-102.9981 357.2145,-102.9981 357.2145,-144.2019"/>
<text text-anchor="middle" x="292.6876" y="-127.8" font-family="Times,serif" font-size="14.00" fill="#000000">GO:0003676</text>
<text text-anchor="middle" x="292.6876" y="-111" font-family="Times,serif" font-size="14.00" fill="#000000">nucleic acid binding</text>
</g>
<!-- GO:0097159 -->
<g id="node6" class="node">
<title>GO:0097159</title>
<polygon fill="#ff00ff" stroke="#000000" points="469.199,-247.4014 312.1762,-247.4014 312.1762,-188.5986 469.199,-188.5986 469.199,-247.4014"/>
<text text-anchor="middle" x="390.6876" y="-230.6" font-family="Times,serif" font-size="14.00" fill="#000000">GO:0097159</text>
<text text-anchor="middle" x="390.6876" y="-213.8" font-family="Times,serif" font-size="14.00" fill="#000000">organic cyclic compound</text>
<text text-anchor="middle" x="390.6876" y="-197" font-family="Times,serif" font-size="14.00" fill="#000000">binding</text>
</g>
<!-- GO:0003676&#45;&gt;GO:0097159 -->
<g id="edge4" class="edge">
<title>GO:0003676&#45;&gt;GO:0097159</title>
<path fill="none" stroke="#000000" d="M314.437,-144.5504C325.6559,-155.3572 339.6694,-168.8559 352.6116,-181.3227"/>
<polygon fill="#000000" stroke="#000000" points="350.4484,-184.0987 360.0787,-188.5155 355.3047,-179.0572 350.4484,-184.0987"/>
</g>
<!-- GO:1901363 -->
<g id="node7" class="node">
<title>GO:1901363</title>
<polygon fill="#ff00ff" stroke="#000000" points="294.1982,-247.4014 147.177,-247.4014 147.177,-188.5986 294.1982,-188.5986 294.1982,-247.4014"/>
<text text-anchor="middle" x="220.6876" y="-230.6" font-family="Times,serif" font-size="14.00" fill="#000000">GO:1901363</text>
<text text-anchor="middle" x="220.6876" y="-213.8" font-family="Times,serif" font-size="14.00" fill="#000000">heterocyclic compound</text>
<text text-anchor="middle" x="220.6876" y="-197" font-family="Times,serif" font-size="14.00" fill="#000000">binding</text>
</g>
<!-- GO:0003676&#45;&gt;GO:1901363 -->
<g id="edge5" class="edge">
<title>GO:0003676&#45;&gt;GO:1901363</title>
<path fill="none" stroke="#000000" d="M276.7085,-144.5504C268.6971,-155.0542 258.7461,-168.1011 249.4634,-180.2717"/>
<polygon fill="#000000" stroke="#000000" points="246.4574,-178.4417 243.1758,-188.5155 252.0232,-182.6869 246.4574,-178.4417"/>
</g>
<!-- GO:0097159&#45;&gt;GO:0005488 -->
<g id="edge6" class="edge">
<title>GO:0097159&#45;&gt;GO:0005488</title>
<path fill="none" stroke="#000000" d="M390.6876,-247.5963C390.6876,-255.8638 390.6876,-264.8657 390.6876,-273.2008"/>
<polygon fill="#000000" stroke="#000000" points="387.1877,-273.2965 390.6876,-283.2966 394.1877,-273.2966 387.1877,-273.2965"/>
</g>
<!-- GO:1901363&#45;&gt;GO:0005488 -->
<g id="edge7" class="edge">
<title>GO:1901363&#45;&gt;GO:0005488</title>
<path fill="none" stroke="#000000" d="M278.7165,-247.3558C298.8943,-257.5634 321.3343,-268.9154 340.7955,-278.7605"/>
<polygon fill="#000000" stroke="#000000" points="339.2937,-281.9231 349.7968,-283.3141 342.4536,-275.6768 339.2937,-281.9231"/>
</g>
<!-- GO:0030507 -->
<g id="node8" class="node">
<title>GO:0030507</title>
<polygon fill="#ffffff" stroke="#000000" points="746.7852,-49.8019 640.59,-49.8019 640.59,-8.5981 746.7852,-8.5981 746.7852,-49.8019"/>
<text text-anchor="middle" x="693.6876" y="-33.4" font-family="Times,serif" font-size="14.00" fill="#000000">GO:0030507</text>
<text text-anchor="middle" x="693.6876" y="-16.6" font-family="Times,serif" font-size="14.00" fill="#000000">spectrin binding</text>
</g>
<!-- GO:0008092 -->
<g id="node9" class="node">
<title>GO:0008092</title>
<polygon fill="#ffffff" stroke="#000000" points="756.7094,-153.0014 630.6658,-153.0014 630.6658,-94.1986 756.7094,-94.1986 756.7094,-153.0014"/>
<text text-anchor="middle" x="693.6876" y="-136.2" font-family="Times,serif" font-size="14.00" fill="#000000">GO:0008092</text>
<text text-anchor="middle" x="693.6876" y="-119.4" font-family="Times,serif" font-size="14.00" fill="#000000">cytoskeletal protein</text>
<text text-anchor="middle" x="693.6876" y="-102.6" font-family="Times,serif" font-size="14.00" fill="#000000">binding</text>
</g>
<!-- GO:0030507&#45;&gt;GO:0008092 -->
<g id="edge8" class="edge">
<title>GO:0030507&#45;&gt;GO:0008092</title>
<path fill="none" stroke="#000000" d="M693.6876,-50.1504C693.6876,-60.1492 693.6876,-72.4525 693.6876,-84.1106"/>
<polygon fill="#000000" stroke="#000000" points="690.1877,-84.1155 693.6876,-94.1155 697.1877,-84.1156 690.1877,-84.1155"/>
</g>
<!-- GO:0008092&#45;&gt;GO:0005515 -->
<g id="edge9" class="edge">
<title>GO:0008092&#45;&gt;GO:0005515</title>
<path fill="none" stroke="#000000" d="M691.2002,-152.9513C690.2756,-163.8614 689.2246,-176.2637 688.29,-187.292"/>
<polygon fill="#000000" stroke="#000000" points="684.7945,-187.0911 687.4375,-197.351 691.7695,-187.6823 684.7945,-187.0911"/>
</g>
<!-- GO:0016740 -->
<g id="node10" class="node">
<title>GO:0016740</title>
<polygon fill="#ff00ff" stroke="#000000" points="128.7993,-238.6019 6.5759,-238.6019 6.5759,-197.3981 128.7993,-197.3981 128.7993,-238.6019"/>
<text text-anchor="middle" x="67.6876" y="-222.2" font-family="Times,serif" font-size="14.00" fill="#000000">GO:0016740</text>
<text text-anchor="middle" x="67.6876" y="-205.4" font-family="Times,serif" font-size="14.00" fill="#000000">transferase activity</text>
</g>
<!-- GO:0003824 -->
<g id="node11" class="node">
<title>GO:0003824</title>
<polygon fill="#ff00ff" stroke="#000000" points="225.1,-324.6019 116.2752,-324.6019 116.2752,-283.3981 225.1,-283.3981 225.1,-324.6019"/>
<text text-anchor="middle" x="170.6876" y="-308.2" font-family="Times,serif" font-size="14.00" fill="#000000">GO:0003824</text>
<text text-anchor="middle" x="170.6876" y="-291.4" font-family="Times,serif" font-size="14.00" fill="#000000">catalytic activity</text>
</g>
<!-- GO:0016740&#45;&gt;GO:0003824 -->
<g id="edge10" class="edge">
<title>GO:0016740&#45;&gt;GO:0003824</title>
<path fill="none" stroke="#000000" d="M92.621,-238.8182C106.2849,-250.2268 123.3845,-264.5042 138.0944,-276.7863"/>
<polygon fill="#000000" stroke="#000000" points="136.0644,-279.651 145.9838,-283.3735 140.5509,-274.2777 136.0644,-279.651"/>
</g>
<!-- GO:0003824&#45;&gt;GO:0003674 -->
<g id="edge11" class="edge">
<title>GO:0003824&#45;&gt;GO:0003674</title>
<path fill="none" stroke="#000000" d="M186.2305,-324.7954C192.6018,-333.3197 200.0867,-343.3339 206.9828,-352.5605"/>
<polygon fill="#000000" stroke="#000000" points="204.3115,-354.8327 213.1018,-360.7472 209.9184,-350.6419 204.3115,-354.8327"/>
</g>
<!-- GO:0004842 -->
<g id="node12" class="node">
<title>GO:0004842</title>
<polygon fill="#ffffff" stroke="#000000" points="128.7993,-58.6014 6.5759,-58.6014 6.5759,.2014 128.7993,.2014 128.7993,-58.6014"/>
<text text-anchor="middle" x="67.6876" y="-41.8" font-family="Times,serif" font-size="14.00" fill="#000000">GO:0004842</text>
<text text-anchor="middle" x="67.6876" y="-25" font-family="Times,serif" font-size="14.00" fill="#000000">ubiquitin&#45;protein</text>
<text text-anchor="middle" x="67.6876" y="-8.2" font-family="Times,serif" font-size="14.00" fill="#000000">transferase activity</text>
</g>
<!-- GO:0019787 -->
<g id="node13" class="node">
<title>GO:0019787</title>
<polygon fill="#ffffff" stroke="#000000" points="135.5633,-153.0014 -.1881,-153.0014 -.1881,-94.1986 135.5633,-94.1986 135.5633,-153.0014"/>
<text text-anchor="middle" x="67.6876" y="-136.2" font-family="Times,serif" font-size="14.00" fill="#000000">GO:0019787</text>
<text text-anchor="middle" x="67.6876" y="-119.4" font-family="Times,serif" font-size="14.00" fill="#000000">ubiquitin&#45;like protein</text>
<text text-anchor="middle" x="67.6876" y="-102.6" font-family="Times,serif" font-size="14.00" fill="#000000">transferase activity</text>
</g>
<!-- GO:0004842&#45;&gt;GO:0019787 -->
<g id="edge12" class="edge">
<title>GO:0004842&#45;&gt;GO:0019787</title>
<path fill="none" stroke="#000000" d="M67.6876,-58.5513C67.6876,-66.6318 67.6876,-75.5308 67.6876,-84.0838"/>
<polygon fill="#000000" stroke="#000000" points="64.1877,-84.2668 67.6876,-94.2669 71.1877,-84.2669 64.1877,-84.2668"/>
</g>
<!-- GO:0019787&#45;&gt;GO:0016740 -->
<g id="edge13" class="edge">
<title>GO:0019787&#45;&gt;GO:0016740</title>
<path fill="none" stroke="#000000" d="M67.6876,-152.9513C67.6876,-163.8614 67.6876,-176.2637 67.6876,-187.292"/>
<polygon fill="#000000" stroke="#000000" points="64.1877,-187.3509 67.6876,-197.351 71.1877,-187.351 64.1877,-187.3509"/>
</g>
<!-- GO:0008093 -->
<g id="node14" class="node">
<title>GO:0008093</title>
<polygon fill="#ffffff" stroke="#000000" points="611.0339,-58.6014 482.3413,-58.6014 482.3413,.2014 611.0339,.2014 611.0339,-58.6014"/>
<text text-anchor="middle" x="546.6876" y="-41.8" font-family="Times,serif" font-size="14.00" fill="#000000">GO:0008093</text>
<text text-anchor="middle" x="546.6876" y="-25" font-family="Times,serif" font-size="14.00" fill="#000000">cytoskeletal adaptor</text>
<text text-anchor="middle" x="546.6876" y="-8.2" font-family="Times,serif" font-size="14.00" fill="#000000">activity</text>
</g>
<!-- GO:0008093&#45;&gt;GO:0008092 -->
<g id="edge15" class="edge">
<title>GO:0008093&#45;&gt;GO:0008092</title>
<path fill="none" stroke="#000000" d="M592.3935,-58.5513C607.3272,-68.1413 624.056,-78.8842 639.5491,-88.8335"/>
<polygon fill="#000000" stroke="#000000" points="637.7043,-91.8083 648.0099,-94.2669 641.4868,-85.9183 637.7043,-91.8083"/>
</g>
<!-- GO:0030674 -->
<g id="node15" class="node">
<title>GO:0030674</title>
<polygon fill="#ffffff" stroke="#000000" points="613.0675,-144.2019 456.3077,-144.2019 456.3077,-102.9981 613.0675,-102.9981 613.0675,-144.2019"/>
<text text-anchor="middle" x="534.6876" y="-127.8" font-family="Times,serif" font-size="14.00" fill="#000000">GO:0030674</text>
<text text-anchor="middle" x="534.6876" y="-111" font-family="Times,serif" font-size="14.00" fill="#000000">protein binding, bridging</text>
</g>
<!-- GO:0008093&#45;&gt;GO:0030674 -->
<g id="edge14" class="edge">
<title>GO:0008093&#45;&gt;GO:0030674</title>
<path fill="none" stroke="#000000" d="M542.9565,-58.5513C541.5696,-69.4614 539.9931,-81.8637 538.5912,-92.892"/>
<polygon fill="#000000" stroke="#000000" points="535.1015,-92.5894 537.3125,-102.951 542.0457,-93.4722 535.1015,-92.5894"/>
</g>
<!-- GO:0030674&#45;&gt;GO:0005515 -->
<g id="edge16" class="edge">
<title>GO:0030674&#45;&gt;GO:0005515</title>
<path fill="none" stroke="#000000" d="M567.8252,-144.3165C590.2479,-158.3344 620.0412,-176.9601 644.0627,-191.9776"/>
<polygon fill="#000000" stroke="#000000" points="642.2926,-194.9986 652.6273,-197.3318 646.0033,-189.063 642.2926,-194.9986"/>
</g>
<!-- GO:0060090 -->
<g id="node16" class="node">
<title>GO:0060090</title>
<polygon fill="#ffffff" stroke="#000000" points="600.4108,-238.6019 486.9644,-238.6019 486.9644,-197.3981 600.4108,-197.3981 600.4108,-238.6019"/>
<text text-anchor="middle" x="543.6876" y="-222.2" font-family="Times,serif" font-size="14.00" fill="#000000">GO:0060090</text>
<text text-anchor="middle" x="543.6876" y="-205.4" font-family="Times,serif" font-size="14.00" fill="#000000">binding, bridging</text>
</g>
<!-- GO:0030674&#45;&gt;GO:0060090 -->
<g id="edge17" class="edge">
<title>GO:0030674&#45;&gt;GO:0060090</title>
<path fill="none" stroke="#000000" d="M536.685,-144.5504C537.8735,-157.0165 539.4035,-173.0645 540.73,-186.9786"/>
<polygon fill="#000000" stroke="#000000" points="537.2624,-187.4855 541.6958,-197.1081 544.2308,-186.8211 537.2624,-187.4855"/>
</g>
<!-- GO:0060090&#45;&gt;GO:0005488 -->
<g id="edge18" class="edge">
<title>GO:0060090&#45;&gt;GO:0005488</title>
<path fill="none" stroke="#000000" d="M506.6506,-238.8182C485.5081,-250.7022 458.8278,-265.699 436.3905,-278.3108"/>
<polygon fill="#000000" stroke="#000000" points="434.3859,-275.4225 427.3836,-283.3735 437.8158,-281.5246 434.3859,-275.4225"/>
</g>
</g>
</svg>
