<?xml version="1.0" encoding="UTF-8" standalone="no"?>
<!DOCTYPE svg PUBLIC "-//W3C//DTD SVG 1.1//EN"
 "http://www.w3.org/Graphics/SVG/1.1/DTD/svg11.dtd">
<!-- Generated by graphviz version 2.40.1 (20161225.0304)
 -->
<!-- Title: G Pages: 1 -->
<svg width="1137pt" height="566pt"
 viewBox="0.00 0.00 1137.10 565.60" xmlns="http://www.w3.org/2000/svg" xmlns:xlink="http://www.w3.org/1999/xlink">
<g id="graph0" class="graph" transform="scale(1 1) rotate(0) translate(4 561.6)">
<title>G</title>
<polygon fill="#ffffff" stroke="transparent" points="-4,4 -4,-561.6 1133.1046,-561.6 1133.1046,4 -4,4"/>
<!-- GO:0016020 -->
<g id="node1" class="node">
<title>GO:0016020</title>
<polygon fill="#00ff00" stroke="#000000" points="841.375,-479.8019 752.1672,-479.8019 752.1672,-438.5981 841.375,-438.5981 841.375,-479.8019"/>
<text text-anchor="middle" x="796.7711" y="-463.4" font-family="Times,serif" font-size="14.00" fill="#000000">GO:0016020</text>
<text text-anchor="middle" x="796.7711" y="-446.6" font-family="Times,serif" font-size="14.00" fill="#000000">membrane</text>
</g>
<!-- GO:0005575 -->
<g id="node2" class="node">
<title>GO:0005575</title>
<polygon fill="#ffffff" stroke="#000000" points="806.4578,-557.4019 679.0844,-557.4019 679.0844,-516.1981 806.4578,-516.1981 806.4578,-557.4019"/>
<text text-anchor="middle" x="742.7711" y="-541" font-family="Times,serif" font-size="14.00" fill="#000000">GO:0005575</text>
<text text-anchor="middle" x="742.7711" y="-524.2" font-family="Times,serif" font-size="14.00" fill="#000000">cellular_component</text>
</g>
<!-- GO:0016020&#45;&gt;GO:0005575 -->
<g id="edge1" class="edge">
<title>GO:0016020&#45;&gt;GO:0005575</title>
<path fill="none" stroke="#000000" d="M782.3001,-479.9954C776.4287,-488.4328 769.5417,-498.3297 763.1757,-507.4778"/>
<polygon fill="#000000" stroke="#000000" points="760.1211,-505.7398 757.2821,-515.9472 765.8669,-509.7382 760.1211,-505.7398"/>
</g>
<!-- GO:0031988 -->
<g id="node3" class="node">
<title>GO:0031988</title>
<polygon fill="#00ffff" stroke="#000000" points="323.1018,-119.0019 152.4404,-119.0019 152.4404,-77.7981 323.1018,-77.7981 323.1018,-119.0019"/>
<text text-anchor="middle" x="237.7711" y="-102.6" font-family="Times,serif" font-size="14.00" fill="#000000">GO:0031988</text>
<text text-anchor="middle" x="237.7711" y="-85.8" font-family="Times,serif" font-size="14.00" fill="#000000">membrane&#45;bounded vesicle</text>
</g>
<!-- GO:0031982 -->
<g id="node4" class="node">
<title>GO:0031982</title>
<polygon fill="#ffffff" stroke="#000000" points="268.375,-213.4019 179.1672,-213.4019 179.1672,-172.1981 268.375,-172.1981 268.375,-213.4019"/>
<text text-anchor="middle" x="223.7711" y="-197" font-family="Times,serif" font-size="14.00" fill="#000000">GO:0031982</text>
<text text-anchor="middle" x="223.7711" y="-180.2" font-family="Times,serif" font-size="14.00" fill="#000000">vesicle</text>
</g>
<!-- GO:0031988&#45;&gt;GO:0031982 -->
<g id="edge2" class="edge">
<title>GO:0031988&#45;&gt;GO:0031982</title>
<path fill="none" stroke="#000000" d="M234.664,-119.3504C232.8153,-131.8165 230.4353,-147.8645 228.3717,-161.7786"/>
<polygon fill="#000000" stroke="#000000" points="224.8744,-161.5029 226.8695,-171.9081 231.7987,-162.5298 224.8744,-161.5029"/>
</g>
<!-- GO:0043227 -->
<g id="node5" class="node">
<title>GO:0043227</title>
<polygon fill="#ffff00" stroke="#000000" points="287.7319,-325.0014 159.8103,-325.0014 159.8103,-266.1986 287.7319,-266.1986 287.7319,-325.0014"/>
<text text-anchor="middle" x="223.7711" y="-308.2" font-family="Times,serif" font-size="14.00" fill="#000000">GO:0043227</text>
<text text-anchor="middle" x="223.7711" y="-291.4" font-family="Times,serif" font-size="14.00" fill="#000000">membrane&#45;bounded</text>
<text text-anchor="middle" x="223.7711" y="-274.6" font-family="Times,serif" font-size="14.00" fill="#000000">organelle</text>
</g>
<!-- GO:0031982&#45;&gt;GO:0043227 -->
<g id="edge3" class="edge">
<title>GO:0031982&#45;&gt;GO:0043227</title>
<path fill="none" stroke="#000000" d="M223.7711,-213.6031C223.7711,-225.7833 223.7711,-241.5676 223.7711,-256.0305"/>
<polygon fill="#000000" stroke="#000000" points="220.2712,-256.2577 223.7711,-266.2577 227.2712,-256.2578 220.2712,-256.2577"/>
</g>
<!-- GO:0043226 -->
<g id="node6" class="node">
<title>GO:0043226</title>
<polygon fill="#ffffff" stroke="#000000" points="420.375,-402.2019 331.1672,-402.2019 331.1672,-360.9981 420.375,-360.9981 420.375,-402.2019"/>
<text text-anchor="middle" x="375.7711" y="-385.8" font-family="Times,serif" font-size="14.00" fill="#000000">GO:0043226</text>
<text text-anchor="middle" x="375.7711" y="-369" font-family="Times,serif" font-size="14.00" fill="#000000">organelle</text>
</g>
<!-- GO:0043227&#45;&gt;GO:0043226 -->
<g id="edge4" class="edge">
<title>GO:0043227&#45;&gt;GO:0043226</title>
<path fill="none" stroke="#000000" d="M275.6557,-324.9558C293.379,-334.9834 313.0541,-346.1154 330.2387,-355.8383"/>
<polygon fill="#000000" stroke="#000000" points="328.5476,-358.9028 338.9746,-360.7809 331.9947,-352.8103 328.5476,-358.9028"/>
</g>
<!-- GO:0043226&#45;&gt;GO:0005575 -->
<g id="edge5" class="edge">
<title>GO:0043226&#45;&gt;GO:0005575</title>
<path fill="none" stroke="#000000" d="M420.4056,-400.4754C486.5862,-428.4624 610.8016,-480.9917 684.212,-512.036"/>
<polygon fill="#000000" stroke="#000000" points="683.2093,-515.4121 693.7828,-516.0834 685.9358,-508.9649 683.2093,-515.4121"/>
</g>
<!-- GO:0043234 -->
<g id="node7" class="node">
<title>GO:0043234</title>
<polygon fill="#00ff00" stroke="#000000" points="1103.6385,-402.2019 995.9037,-402.2019 995.9037,-360.9981 1103.6385,-360.9981 1103.6385,-402.2019"/>
<text text-anchor="middle" x="1049.7711" y="-385.8" font-family="Times,serif" font-size="14.00" fill="#000000">GO:0043234</text>
<text text-anchor="middle" x="1049.7711" y="-369" font-family="Times,serif" font-size="14.00" fill="#000000">protein complex</text>
</g>
<!-- GO:0032991 -->
<g id="node8" class="node">
<title>GO:0032991</title>
<polygon fill="#00ff00" stroke="#000000" points="1128.9384,-479.8019 970.6038,-479.8019 970.6038,-438.5981 1128.9384,-438.5981 1128.9384,-479.8019"/>
<text text-anchor="middle" x="1049.7711" y="-463.4" font-family="Times,serif" font-size="14.00" fill="#000000">GO:0032991</text>
<text text-anchor="middle" x="1049.7711" y="-446.6" font-family="Times,serif" font-size="14.00" fill="#000000">macromolecular complex</text>
</g>
<!-- GO:0043234&#45;&gt;GO:0032991 -->
<g id="edge6" class="edge">
<title>GO:0043234&#45;&gt;GO:0032991</title>
<path fill="none" stroke="#000000" d="M1049.7711,-402.3954C1049.7711,-410.3109 1049.7711,-419.5109 1049.7711,-428.1722"/>
<polygon fill="#000000" stroke="#000000" points="1046.2712,-428.3472 1049.7711,-438.3472 1053.2712,-428.3473 1046.2712,-428.3472"/>
</g>
<!-- GO:0032991&#45;&gt;GO:0005575 -->
<g id="edge7" class="edge">
<title>GO:0032991&#45;&gt;GO:0005575</title>
<path fill="none" stroke="#000000" d="M970.3117,-479.2848C922.7087,-491.3174 862.6134,-506.5076 816.1376,-518.2552"/>
<polygon fill="#000000" stroke="#000000" points="815.2736,-514.8635 806.4363,-520.7074 816.9891,-521.65 815.2736,-514.8635"/>
</g>
<!-- GO:0043231 -->
<g id="node9" class="node">
<title>GO:0043231</title>
<polygon fill="#00ff00" stroke="#000000" points="444.1499,-222.2014 293.3923,-222.2014 293.3923,-163.3986 444.1499,-163.3986 444.1499,-222.2014"/>
<text text-anchor="middle" x="368.7711" y="-205.4" font-family="Times,serif" font-size="14.00" fill="#000000">GO:0043231</text>
<text text-anchor="middle" x="368.7711" y="-188.6" font-family="Times,serif" font-size="14.00" fill="#000000">intracellular membrane&#45;</text>
<text text-anchor="middle" x="368.7711" y="-171.8" font-family="Times,serif" font-size="14.00" fill="#000000">bounded organelle</text>
</g>
<!-- GO:0043231&#45;&gt;GO:0043227 -->
<g id="edge9" class="edge">
<title>GO:0043231&#45;&gt;GO:0043227</title>
<path fill="none" stroke="#000000" d="M327.2199,-222.2584C310.535,-234.0874 291.1579,-247.8251 273.7154,-260.1912"/>
<polygon fill="#000000" stroke="#000000" points="271.4619,-257.4985 265.3283,-266.1373 275.5105,-263.2089 271.4619,-257.4985"/>
</g>
<!-- GO:0043229 -->
<g id="node10" class="node">
<title>GO:0043229</title>
<polygon fill="#ff0000" stroke="#000000" points="445.4895,-316.2019 306.0527,-316.2019 306.0527,-274.9981 445.4895,-274.9981 445.4895,-316.2019"/>
<text text-anchor="middle" x="375.7711" y="-299.8" font-family="Times,serif" font-size="14.00" fill="#000000">GO:0043229</text>
<text text-anchor="middle" x="375.7711" y="-283" font-family="Times,serif" font-size="14.00" fill="#000000">intracellular organelle</text>
</g>
<!-- GO:0043231&#45;&gt;GO:0043229 -->
<g id="edge8" class="edge">
<title>GO:0043231&#45;&gt;GO:0043229</title>
<path fill="none" stroke="#000000" d="M370.777,-222.2584C371.6824,-235.5539 372.7519,-251.2608 373.6685,-264.7212"/>
<polygon fill="#000000" stroke="#000000" points="370.1933,-265.2065 374.3647,-274.9456 377.1771,-264.7309 370.1933,-265.2065"/>
</g>
<!-- GO:0043229&#45;&gt;GO:0043226 -->
<g id="edge11" class="edge">
<title>GO:0043229&#45;&gt;GO:0043226</title>
<path fill="none" stroke="#000000" d="M375.7711,-316.4182C375.7711,-326.7705 375.7711,-339.4848 375.7711,-350.9271"/>
<polygon fill="#000000" stroke="#000000" points="372.2712,-350.9735 375.7711,-360.9735 379.2712,-350.9735 372.2712,-350.9735"/>
</g>
<!-- GO:0044424 -->
<g id="node11" class="node">
<title>GO:0044424</title>
<polygon fill="#ffffff" stroke="#000000" points="733.1695,-402.2019 624.3727,-402.2019 624.3727,-360.9981 733.1695,-360.9981 733.1695,-402.2019"/>
<text text-anchor="middle" x="678.7711" y="-385.8" font-family="Times,serif" font-size="14.00" fill="#000000">GO:0044424</text>
<text text-anchor="middle" x="678.7711" y="-369" font-family="Times,serif" font-size="14.00" fill="#000000">intracellular part</text>
</g>
<!-- GO:0043229&#45;&gt;GO:0044424 -->
<g id="edge10" class="edge">
<title>GO:0043229&#45;&gt;GO:0044424</title>
<path fill="none" stroke="#000000" d="M428.7852,-316.3434C437.0953,-319.3345 445.628,-322.2565 453.7711,-324.8 507.2201,-341.4945 568.9539,-356.804 614.2216,-367.3115"/>
<polygon fill="#000000" stroke="#000000" points="613.6685,-370.7757 624.1992,-369.6116 615.241,-363.9546 613.6685,-370.7757"/>
</g>
<!-- GO:0044464 -->
<g id="node12" class="node">
<title>GO:0044464</title>
<polygon fill="#ffffff" stroke="#000000" points="734.375,-479.8019 645.1672,-479.8019 645.1672,-438.5981 734.375,-438.5981 734.375,-479.8019"/>
<text text-anchor="middle" x="689.7711" y="-463.4" font-family="Times,serif" font-size="14.00" fill="#000000">GO:0044464</text>
<text text-anchor="middle" x="689.7711" y="-446.6" font-family="Times,serif" font-size="14.00" fill="#000000">cell part</text>
</g>
<!-- GO:0044424&#45;&gt;GO:0044464 -->
<g id="edge12" class="edge">
<title>GO:0044424&#45;&gt;GO:0044464</title>
<path fill="none" stroke="#000000" d="M681.7189,-402.3954C682.8409,-410.3109 684.1451,-419.5109 685.3728,-428.1722"/>
<polygon fill="#000000" stroke="#000000" points="681.9462,-428.9375 686.8152,-438.3472 688.8769,-427.9549 681.9462,-428.9375"/>
</g>
<!-- GO:0044464&#45;&gt;GO:0005575 -->
<g id="edge23" class="edge">
<title>GO:0044464&#45;&gt;GO:0005575</title>
<path fill="none" stroke="#000000" d="M703.9741,-479.9954C709.7368,-488.4328 716.4963,-498.3297 722.7444,-507.4778"/>
<polygon fill="#000000" stroke="#000000" points="719.9986,-509.6634 728.5289,-515.9472 725.7791,-505.7154 719.9986,-509.6634"/>
</g>
<!-- GO:0043232 -->
<g id="node13" class="node">
<title>GO:0043232</title>
<polygon fill="#ff0000" stroke="#000000" points="596.7319,-230.5003 468.8103,-230.5003 468.8103,-155.0997 596.7319,-155.0997 596.7319,-230.5003"/>
<text text-anchor="middle" x="532.7711" y="-213.8" font-family="Times,serif" font-size="14.00" fill="#000000">GO:0043232</text>
<text text-anchor="middle" x="532.7711" y="-197" font-family="Times,serif" font-size="14.00" fill="#000000">intracellular non&#45;</text>
<text text-anchor="middle" x="532.7711" y="-180.2" font-family="Times,serif" font-size="14.00" fill="#000000">membrane&#45;bounded</text>
<text text-anchor="middle" x="532.7711" y="-163.4" font-family="Times,serif" font-size="14.00" fill="#000000">organelle</text>
</g>
<!-- GO:0043232&#45;&gt;GO:0043229 -->
<g id="edge13" class="edge">
<title>GO:0043232&#45;&gt;GO:0043229</title>
<path fill="none" stroke="#000000" d="M475.2016,-230.4952C455.497,-243.3973 433.8943,-257.5422 415.8736,-269.3418"/>
<polygon fill="#000000" stroke="#000000" points="413.7876,-266.5241 407.3388,-274.9302 417.6222,-272.3804 413.7876,-266.5241"/>
</g>
<!-- GO:0043228 -->
<g id="node14" class="node">
<title>GO:0043228</title>
<polygon fill="#ffffff" stroke="#000000" points="616.393,-325.0014 463.1492,-325.0014 463.1492,-266.1986 616.393,-266.1986 616.393,-325.0014"/>
<text text-anchor="middle" x="539.7711" y="-308.2" font-family="Times,serif" font-size="14.00" fill="#000000">GO:0043228</text>
<text text-anchor="middle" x="539.7711" y="-291.4" font-family="Times,serif" font-size="14.00" fill="#000000">non&#45;membrane&#45;bounded</text>
<text text-anchor="middle" x="539.7711" y="-274.6" font-family="Times,serif" font-size="14.00" fill="#000000">organelle</text>
</g>
<!-- GO:0043232&#45;&gt;GO:0043228 -->
<g id="edge14" class="edge">
<title>GO:0043232&#45;&gt;GO:0043228</title>
<path fill="none" stroke="#000000" d="M535.3379,-230.4952C535.9093,-238.8874 536.5166,-247.8054 537.0924,-256.2618"/>
<polygon fill="#000000" stroke="#000000" points="533.6033,-256.5423 537.7747,-266.2814 540.5872,-256.0667 533.6033,-256.5423"/>
</g>
<!-- GO:0043228&#45;&gt;GO:0043226 -->
<g id="edge15" class="edge">
<title>GO:0043228&#45;&gt;GO:0043226</title>
<path fill="none" stroke="#000000" d="M483.7903,-324.9558C464.4127,-335.1172 442.8725,-346.4127 424.1573,-356.2267"/>
<polygon fill="#000000" stroke="#000000" points="422.4494,-353.1703 415.2187,-360.9141 425.7003,-359.3696 422.4494,-353.1703"/>
</g>
<!-- GO:0044421 -->
<g id="node15" class="node">
<title>GO:0044421</title>
<polygon fill="#00ffff" stroke="#000000" points="352.2601,-479.8019 201.2821,-479.8019 201.2821,-438.5981 352.2601,-438.5981 352.2601,-479.8019"/>
<text text-anchor="middle" x="276.7711" y="-463.4" font-family="Times,serif" font-size="14.00" fill="#000000">GO:0044421</text>
<text text-anchor="middle" x="276.7711" y="-446.6" font-family="Times,serif" font-size="14.00" fill="#000000">extracellular region part</text>
</g>
<!-- GO:0044421&#45;&gt;GO:0005575 -->
<g id="edge16" class="edge">
<title>GO:0044421&#45;&gt;GO:0005575</title>
<path fill="none" stroke="#000000" d="M352.16,-471.754C439.5036,-486.2988 582.4747,-510.1069 669.0867,-524.5298"/>
<polygon fill="#000000" stroke="#000000" points="668.6636,-528.0075 679.1027,-526.1977 669.8134,-521.1025 668.6636,-528.0075"/>
</g>
<!-- GO:0005856 -->
<g id="node16" class="node">
<title>GO:0005856</title>
<polygon fill="#00ff00" stroke="#000000" points="577.375,-119.0019 488.1672,-119.0019 488.1672,-77.7981 577.375,-77.7981 577.375,-119.0019"/>
<text text-anchor="middle" x="532.7711" y="-102.6" font-family="Times,serif" font-size="14.00" fill="#000000">GO:0005856</text>
<text text-anchor="middle" x="532.7711" y="-85.8" font-family="Times,serif" font-size="14.00" fill="#000000">cytoskeleton</text>
</g>
<!-- GO:0005856&#45;&gt;GO:0043232 -->
<g id="edge17" class="edge">
<title>GO:0005856&#45;&gt;GO:0043232</title>
<path fill="none" stroke="#000000" d="M532.7711,-119.3504C532.7711,-127.0068 532.7711,-136.0143 532.7711,-145.0487"/>
<polygon fill="#000000" stroke="#000000" points="529.2712,-145.1897 532.7711,-155.1897 536.2712,-145.1897 529.2712,-145.1897"/>
</g>
<!-- GO:0044430 -->
<g id="node17" class="node">
<title>GO:0044430</title>
<polygon fill="#ffa500" stroke="#000000" points="991.9024,-213.4019 883.6398,-213.4019 883.6398,-172.1981 991.9024,-172.1981 991.9024,-213.4019"/>
<text text-anchor="middle" x="937.7711" y="-197" font-family="Times,serif" font-size="14.00" fill="#000000">GO:0044430</text>
<text text-anchor="middle" x="937.7711" y="-180.2" font-family="Times,serif" font-size="14.00" fill="#000000">cytoskeletal part</text>
</g>
<!-- GO:0044446 -->
<g id="node18" class="node">
<title>GO:0044446</title>
<polygon fill="#ffa500" stroke="#000000" points="1007.4895,-325.0014 868.0527,-325.0014 868.0527,-266.1986 1007.4895,-266.1986 1007.4895,-325.0014"/>
<text text-anchor="middle" x="937.7711" y="-308.2" font-family="Times,serif" font-size="14.00" fill="#000000">GO:0044446</text>
<text text-anchor="middle" x="937.7711" y="-291.4" font-family="Times,serif" font-size="14.00" fill="#000000">intracellular organelle</text>
<text text-anchor="middle" x="937.7711" y="-274.6" font-family="Times,serif" font-size="14.00" fill="#000000">part</text>
</g>
<!-- GO:0044430&#45;&gt;GO:0044446 -->
<g id="edge18" class="edge">
<title>GO:0044430&#45;&gt;GO:0044446</title>
<path fill="none" stroke="#000000" d="M937.7711,-213.6031C937.7711,-225.7833 937.7711,-241.5676 937.7711,-256.0305"/>
<polygon fill="#000000" stroke="#000000" points="934.2712,-256.2577 937.7711,-266.2577 941.2712,-256.2578 934.2712,-256.2577"/>
</g>
<!-- GO:0044446&#45;&gt;GO:0044424 -->
<g id="edge19" class="edge">
<title>GO:0044446&#45;&gt;GO:0044424</title>
<path fill="none" stroke="#000000" d="M868.0558,-321.5965C864.9229,-322.6927 861.817,-323.7653 858.7711,-324.8 807.6587,-342.1637 794.219,-344.4572 742.7711,-360.8 742.6737,-360.8309 742.5762,-360.8619 742.4786,-360.8929"/>
<polygon fill="#000000" stroke="#000000" points="741.6838,-357.4725 733.2225,-363.8488 743.8133,-364.1408 741.6838,-357.4725"/>
</g>
<!-- GO:0044422 -->
<g id="node19" class="node">
<title>GO:0044422</title>
<polygon fill="#ff0000" stroke="#000000" points="952.6232,-479.8019 858.919,-479.8019 858.919,-438.5981 952.6232,-438.5981 952.6232,-479.8019"/>
<text text-anchor="middle" x="905.7711" y="-463.4" font-family="Times,serif" font-size="14.00" fill="#000000">GO:0044422</text>
<text text-anchor="middle" x="905.7711" y="-446.6" font-family="Times,serif" font-size="14.00" fill="#000000">organelle part</text>
</g>
<!-- GO:0044446&#45;&gt;GO:0044422 -->
<g id="edge20" class="edge">
<title>GO:0044446&#45;&gt;GO:0044422</title>
<path fill="none" stroke="#000000" d="M932.0501,-324.8484C926.3252,-354.117 917.5556,-398.9516 911.7435,-428.666"/>
<polygon fill="#000000" stroke="#000000" points="908.3057,-428.0096 909.8209,-438.4955 915.1755,-429.3534 908.3057,-428.0096"/>
</g>
<!-- GO:0044422&#45;&gt;GO:0005575 -->
<g id="edge21" class="edge">
<title>GO:0044422&#45;&gt;GO:0005575</title>
<path fill="none" stroke="#000000" d="M862.0901,-479.9954C841.6358,-489.7331 817.0979,-501.415 795.6072,-511.6461"/>
<polygon fill="#000000" stroke="#000000" points="793.8144,-508.6232 786.2898,-516.0819 796.8233,-514.9435 793.8144,-508.6232"/>
</g>
<!-- GO:0044444 -->
<g id="node20" class="node">
<title>GO:0044444</title>
<polygon fill="#ff0000" stroke="#000000" points="850.1877,-316.2019 741.3545,-316.2019 741.3545,-274.9981 850.1877,-274.9981 850.1877,-316.2019"/>
<text text-anchor="middle" x="795.7711" y="-299.8" font-family="Times,serif" font-size="14.00" fill="#000000">GO:0044444</text>
<text text-anchor="middle" x="795.7711" y="-283" font-family="Times,serif" font-size="14.00" fill="#000000">cytoplasmic part</text>
</g>
<!-- GO:0044444&#45;&gt;GO:0044424 -->
<g id="edge22" class="edge">
<title>GO:0044444&#45;&gt;GO:0044424</title>
<path fill="none" stroke="#000000" d="M767.4487,-316.4182C751.7839,-327.9325 732.1437,-342.3688 715.331,-354.7269"/>
<polygon fill="#000000" stroke="#000000" points="712.8173,-352.2308 706.8327,-360.9735 716.9631,-357.871 712.8173,-352.2308"/>
</g>
<!-- GO:0005737 -->
<g id="node21" class="node">
<title>GO:0005737</title>
<polygon fill="#ff0000" stroke="#000000" points="723.375,-316.2019 634.1672,-316.2019 634.1672,-274.9981 723.375,-274.9981 723.375,-316.2019"/>
<text text-anchor="middle" x="678.7711" y="-299.8" font-family="Times,serif" font-size="14.00" fill="#000000">GO:0005737</text>
<text text-anchor="middle" x="678.7711" y="-283" font-family="Times,serif" font-size="14.00" fill="#000000">cytoplasm</text>
</g>
<!-- GO:0005737&#45;&gt;GO:0044424 -->
<g id="edge24" class="edge">
<title>GO:0005737&#45;&gt;GO:0044424</title>
<path fill="none" stroke="#000000" d="M678.7711,-316.4182C678.7711,-326.7705 678.7711,-339.4848 678.7711,-350.9271"/>
<polygon fill="#000000" stroke="#000000" points="675.2712,-350.9735 678.7711,-360.9735 682.2712,-350.9735 675.2712,-350.9735"/>
</g>
<!-- GO:0070062 -->
<g id="node22" class="node">
<title>GO:0070062</title>
<polygon fill="#ff00ff" stroke="#000000" points="223.4923,-41.4019 84.0499,-41.4019 84.0499,-.1981 223.4923,-.1981 223.4923,-41.4019"/>
<text text-anchor="middle" x="153.7711" y="-25" font-family="Times,serif" font-size="14.00" fill="#000000">GO:0070062</text>
<text text-anchor="middle" x="153.7711" y="-8.2" font-family="Times,serif" font-size="14.00" fill="#000000">extracellular exosome</text>
</g>
<!-- GO:0070062&#45;&gt;GO:0031988 -->
<g id="edge26" class="edge">
<title>GO:0070062&#45;&gt;GO:0031988</title>
<path fill="none" stroke="#000000" d="M176.2816,-41.5954C185.8856,-50.4677 197.2366,-60.9539 207.5552,-70.4862"/>
<polygon fill="#000000" stroke="#000000" points="205.4781,-73.3324 215.1985,-77.5472 210.2281,-68.1906 205.4781,-73.3324"/>
</g>
<!-- GO:1903561 -->
<g id="node23" class="node">
<title>GO:1903561</title>
<polygon fill="#ffffff" stroke="#000000" points="135.0977,-119.0019 6.4445,-119.0019 6.4445,-77.7981 135.0977,-77.7981 135.0977,-119.0019"/>
<text text-anchor="middle" x="70.7711" y="-102.6" font-family="Times,serif" font-size="14.00" fill="#000000">GO:1903561</text>
<text text-anchor="middle" x="70.7711" y="-85.8" font-family="Times,serif" font-size="14.00" fill="#000000">extracellular vesicle</text>
</g>
<!-- GO:0070062&#45;&gt;GO:1903561 -->
<g id="edge25" class="edge">
<title>GO:0070062&#45;&gt;GO:1903561</title>
<path fill="none" stroke="#000000" d="M131.5286,-41.5954C122.0389,-50.4677 110.823,-60.9539 100.6273,-70.4862"/>
<polygon fill="#000000" stroke="#000000" points="97.9894,-68.1611 93.075,-77.5472 102.77,-73.2744 97.9894,-68.1611"/>
</g>
<!-- GO:1903561&#45;&gt;GO:0031982 -->
<g id="edge28" class="edge">
<title>GO:1903561&#45;&gt;GO:0031982</title>
<path fill="none" stroke="#000000" d="M104.3476,-119.1165C127.0673,-133.1344 157.2552,-151.7601 181.5949,-166.7776"/>
<polygon fill="#000000" stroke="#000000" points="179.9246,-169.8596 190.2729,-172.1318 183.6003,-163.9022 179.9246,-169.8596"/>
</g>
<!-- GO:0043230 -->
<g id="node24" class="node">
<title>GO:0043230</title>
<polygon fill="#ffffff" stroke="#000000" points="141.314,-316.2019 .2282,-316.2019 .2282,-274.9981 141.314,-274.9981 141.314,-316.2019"/>
<text text-anchor="middle" x="70.7711" y="-299.8" font-family="Times,serif" font-size="14.00" fill="#000000">GO:0043230</text>
<text text-anchor="middle" x="70.7711" y="-283" font-family="Times,serif" font-size="14.00" fill="#000000">extracellular organelle</text>
</g>
<!-- GO:1903561&#45;&gt;GO:0043230 -->
<g id="edge27" class="edge">
<title>GO:1903561&#45;&gt;GO:0043230</title>
<path fill="none" stroke="#000000" d="M70.7711,-119.1311C70.7711,-153.8982 70.7711,-224.1284 70.7711,-264.724"/>
<polygon fill="#000000" stroke="#000000" points="67.2712,-264.8507 70.7711,-274.8507 74.2712,-264.8508 67.2712,-264.8507"/>
</g>
<!-- GO:0043230&#45;&gt;GO:0043226 -->
<g id="edge29" class="edge">
<title>GO:0043230&#45;&gt;GO:0043226</title>
<path fill="none" stroke="#000000" d="M125.1707,-316.3026C133.6904,-319.2991 142.4339,-322.2336 150.7711,-324.8 208.2261,-342.4865 275.1445,-358.8522 320.9748,-369.4281"/>
<polygon fill="#000000" stroke="#000000" points="320.4689,-372.9029 330.9982,-371.7264 322.0334,-366.0799 320.4689,-372.9029"/>
</g>
<!-- GO:0043230&#45;&gt;GO:0044421 -->
<g id="edge30" class="edge">
<title>GO:0043230&#45;&gt;GO:0044421</title>
<path fill="none" stroke="#000000" d="M96.8611,-316.3201C133.8309,-345.6805 201.5134,-399.4323 242.4968,-431.9802"/>
<polygon fill="#000000" stroke="#000000" points="240.5607,-434.9121 250.5683,-438.3904 244.9141,-429.4305 240.5607,-434.9121"/>
</g>
<!-- GO:0005886 -->
<g id="node25" class="node">
<title>GO:0005886</title>
<polygon fill="#00ffff" stroke="#000000" points="870.0119,-402.2019 751.5303,-402.2019 751.5303,-360.9981 870.0119,-360.9981 870.0119,-402.2019"/>
<text text-anchor="middle" x="810.7711" y="-385.8" font-family="Times,serif" font-size="14.00" fill="#000000">GO:0005886</text>
<text text-anchor="middle" x="810.7711" y="-369" font-family="Times,serif" font-size="14.00" fill="#000000">plasma membrane</text>
</g>
<!-- GO:0005886&#45;&gt;GO:0016020 -->
<g id="edge31" class="edge">
<title>GO:0005886&#45;&gt;GO:0016020</title>
<path fill="none" stroke="#000000" d="M807.0194,-402.3954C805.5756,-410.3978 803.895,-419.7133 802.3174,-428.4575"/>
<polygon fill="#000000" stroke="#000000" points="798.8643,-427.8847 800.5332,-438.3472 805.7531,-429.1275 798.8643,-427.8847"/>
</g>
<!-- GO:0005886&#45;&gt;GO:0044464 -->
<g id="edge32" class="edge">
<title>GO:0005886&#45;&gt;GO:0044464</title>
<path fill="none" stroke="#000000" d="M778.3453,-402.3954C763.8328,-411.7026 746.551,-422.7858 731.1218,-432.6809"/>
<polygon fill="#000000" stroke="#000000" points="728.8146,-430.0026 722.2864,-438.3472 732.5935,-435.8949 728.8146,-430.0026"/>
</g>
</g>
</svg>
