<?xml version="1.0" encoding="UTF-8" standalone="no"?>
<!DOCTYPE svg PUBLIC "-//W3C//DTD SVG 1.1//EN"
 "http://www.w3.org/Graphics/SVG/1.1/DTD/svg11.dtd">
<!-- Generated by graphviz version 2.40.1 (20161225.0304)
 -->
<!-- Title: G Pages: 1 -->
<svg width="306pt" height="410pt"
 viewBox="0.00 0.00 305.83 410.40" xmlns="http://www.w3.org/2000/svg" xmlns:xlink="http://www.w3.org/1999/xlink">
<g id="graph0" class="graph" transform="scale(1 1) rotate(0) translate(4 406.4)">
<title>G</title>
<polygon fill="#ffffff" stroke="transparent" points="-4,4 -4,-406.4 301.8335,-406.4 301.8335,4 -4,4"/>
<!-- GO:0007166 -->
<g id="node1" class="node">
<title>GO:0007166</title>
<polygon fill="#ff0000" stroke="#000000" points="210.1031,-58.6014 80.1501,-58.6014 80.1501,.2014 210.1031,.2014 210.1031,-58.6014"/>
<text text-anchor="middle" x="145.1266" y="-41.8" font-family="Times,serif" font-size="14.00" fill="#000000">GO:0007166</text>
<text text-anchor="middle" x="145.1266" y="-25" font-family="Times,serif" font-size="14.00" fill="#000000">cell surface receptor</text>
<text text-anchor="middle" x="145.1266" y="-8.2" font-family="Times,serif" font-size="14.00" fill="#000000">signaling pathway</text>
</g>
<!-- GO:0007165 -->
<g id="node2" class="node">
<title>GO:0007165</title>
<polygon fill="#ffffff" stroke="#000000" points="206.2733,-135.8019 83.9799,-135.8019 83.9799,-94.5981 206.2733,-94.5981 206.2733,-135.8019"/>
<text text-anchor="middle" x="145.1266" y="-119.4" font-family="Times,serif" font-size="14.00" fill="#000000">GO:0007165</text>
<text text-anchor="middle" x="145.1266" y="-102.6" font-family="Times,serif" font-size="14.00" fill="#000000">signal transduction</text>
</g>
<!-- GO:0007166&#45;&gt;GO:0007165 -->
<g id="edge1" class="edge">
<title>GO:0007166&#45;&gt;GO:0007165</title>
<path fill="none" stroke="#000000" d="M145.1266,-58.7963C145.1266,-67.0638 145.1266,-76.0657 145.1266,-84.4008"/>
<polygon fill="#000000" stroke="#000000" points="141.6267,-84.4965 145.1266,-94.4966 148.6267,-84.4966 141.6267,-84.4965"/>
</g>
<!-- GO:0050794 -->
<g id="node3" class="node">
<title>GO:0050794</title>
<polygon fill="#ff0000" stroke="#000000" points="212.0256,-230.6014 78.2276,-230.6014 78.2276,-171.7986 212.0256,-171.7986 212.0256,-230.6014"/>
<text text-anchor="middle" x="145.1266" y="-213.8" font-family="Times,serif" font-size="14.00" fill="#000000">GO:0050794</text>
<text text-anchor="middle" x="145.1266" y="-197" font-family="Times,serif" font-size="14.00" fill="#000000">regulation of cellular</text>
<text text-anchor="middle" x="145.1266" y="-180.2" font-family="Times,serif" font-size="14.00" fill="#000000">process</text>
</g>
<!-- GO:0007165&#45;&gt;GO:0050794 -->
<g id="edge2" class="edge">
<title>GO:0007165&#45;&gt;GO:0050794</title>
<path fill="none" stroke="#000000" d="M145.1266,-136.0182C145.1266,-143.7358 145.1266,-152.7662 145.1266,-161.6036"/>
<polygon fill="#000000" stroke="#000000" points="141.6267,-161.7991 145.1266,-171.7991 148.6267,-161.7992 141.6267,-161.7991"/>
</g>
<!-- GO:0065007 -->
<g id="node4" class="node">
<title>GO:0065007</title>
<polygon fill="#ffffff" stroke="#000000" points="132.38,-316.2019 -.1268,-316.2019 -.1268,-274.9981 132.38,-274.9981 132.38,-316.2019"/>
<text text-anchor="middle" x="66.1266" y="-299.8" font-family="Times,serif" font-size="14.00" fill="#000000">GO:0065007</text>
<text text-anchor="middle" x="66.1266" y="-283" font-family="Times,serif" font-size="14.00" fill="#000000">biological regulation</text>
</g>
<!-- GO:0050794&#45;&gt;GO:0065007 -->
<g id="edge3" class="edge">
<title>GO:0050794&#45;&gt;GO:0065007</title>
<path fill="none" stroke="#000000" d="M120.5636,-230.5513C110.7743,-242.2488 99.5497,-255.6615 89.8458,-267.257"/>
<polygon fill="#000000" stroke="#000000" points="87.1408,-265.0358 83.407,-274.951 92.509,-269.5283 87.1408,-265.0358"/>
</g>
<!-- GO:0050789 -->
<g id="node5" class="node">
<title>GO:0050789</title>
<polygon fill="#ffffff" stroke="#000000" points="298.041,-325.0014 150.2122,-325.0014 150.2122,-266.1986 298.041,-266.1986 298.041,-325.0014"/>
<text text-anchor="middle" x="224.1266" y="-308.2" font-family="Times,serif" font-size="14.00" fill="#000000">GO:0050789</text>
<text text-anchor="middle" x="224.1266" y="-291.4" font-family="Times,serif" font-size="14.00" fill="#000000">regulation of biological</text>
<text text-anchor="middle" x="224.1266" y="-274.6" font-family="Times,serif" font-size="14.00" fill="#000000">process</text>
</g>
<!-- GO:0050794&#45;&gt;GO:0050789 -->
<g id="edge4" class="edge">
<title>GO:0050794&#45;&gt;GO:0050789</title>
<path fill="none" stroke="#000000" d="M169.6896,-230.5513C177.0464,-239.3422 185.2139,-249.1018 192.9373,-258.3308"/>
<polygon fill="#000000" stroke="#000000" points="190.4768,-260.8442 199.5787,-266.2669 195.845,-256.3517 190.4768,-260.8442"/>
</g>
<!-- GO:0008150 -->
<g id="node6" class="node">
<title>GO:0008150</title>
<polygon fill="#ffffff" stroke="#000000" points="205.5972,-402.2019 84.656,-402.2019 84.656,-360.9981 205.5972,-360.9981 205.5972,-402.2019"/>
<text text-anchor="middle" x="145.1266" y="-385.8" font-family="Times,serif" font-size="14.00" fill="#000000">GO:0008150</text>
<text text-anchor="middle" x="145.1266" y="-369" font-family="Times,serif" font-size="14.00" fill="#000000">biological_process</text>
</g>
<!-- GO:0065007&#45;&gt;GO:0008150 -->
<g id="edge5" class="edge">
<title>GO:0065007&#45;&gt;GO:0008150</title>
<path fill="none" stroke="#000000" d="M85.2503,-316.4182C95.4392,-327.5099 108.119,-341.3132 119.1836,-353.3583"/>
<polygon fill="#000000" stroke="#000000" points="116.8364,-355.9768 126.179,-360.9735 121.9915,-351.2413 116.8364,-355.9768"/>
</g>
<!-- GO:0050789&#45;&gt;GO:0008150 -->
<g id="edge6" class="edge">
<title>GO:0050789&#45;&gt;GO:0008150</title>
<path fill="none" stroke="#000000" d="M196.9393,-325.1963C188.5853,-334.2905 179.4149,-344.2734 171.1415,-353.28"/>
<polygon fill="#000000" stroke="#000000" points="168.3324,-351.1643 164.1449,-360.8966 173.4875,-355.8999 168.3324,-351.1643"/>
</g>
</g>
</svg>
