<?xml version="1.0" encoding="UTF-8" standalone="no"?>
<!DOCTYPE svg PUBLIC "-//W3C//DTD SVG 1.1//EN"
 "http://www.w3.org/Graphics/SVG/1.1/DTD/svg11.dtd">
<!-- Generated by graphviz version 2.40.1 (20161225.0304)
 -->
<!-- Title: G Pages: 1 -->
<svg width="290pt" height="299pt"
 viewBox="0.00 0.00 290.40 299.20" xmlns="http://www.w3.org/2000/svg" xmlns:xlink="http://www.w3.org/1999/xlink">
<g id="graph0" class="graph" transform="scale(1 1) rotate(0) translate(4 295.2)">
<title>G</title>
<polygon fill="#ffffff" stroke="transparent" points="-4,4 -4,-295.2 286.4019,-295.2 286.4019,4 -4,4"/>
<!-- GO:0044877 -->
<g id="node1" class="node">
<title>GO:0044877</title>
<polygon fill="#ffffff" stroke="#000000" points="158.5008,-136.2014 .1662,-136.2014 .1662,-77.3986 158.5008,-77.3986 158.5008,-136.2014"/>
<text text-anchor="middle" x="79.3335" y="-119.4" font-family="Times,serif" font-size="14.00" fill="#000000">GO:0044877</text>
<text text-anchor="middle" x="79.3335" y="-102.6" font-family="Times,serif" font-size="14.00" fill="#000000">macromolecular complex</text>
<text text-anchor="middle" x="79.3335" y="-85.8" font-family="Times,serif" font-size="14.00" fill="#000000">binding</text>
</g>
<!-- GO:0005488 -->
<g id="node2" class="node">
<title>GO:0005488</title>
<polygon fill="#ffffff" stroke="#000000" points="197.9374,-213.4019 108.7296,-213.4019 108.7296,-172.1981 197.9374,-172.1981 197.9374,-213.4019"/>
<text text-anchor="middle" x="153.3335" y="-197" font-family="Times,serif" font-size="14.00" fill="#000000">GO:0005488</text>
<text text-anchor="middle" x="153.3335" y="-180.2" font-family="Times,serif" font-size="14.00" fill="#000000">binding</text>
</g>
<!-- GO:0044877&#45;&gt;GO:0005488 -->
<g id="edge1" class="edge">
<title>GO:0044877&#45;&gt;GO:0005488</title>
<path fill="none" stroke="#000000" d="M104.8001,-136.3963C112.6253,-145.4905 121.2153,-155.4734 128.9651,-164.48"/>
<polygon fill="#000000" stroke="#000000" points="126.3434,-166.7993 135.5189,-172.0966 131.6495,-162.2336 126.3434,-166.7993"/>
</g>
<!-- GO:0003674 -->
<g id="node3" class="node">
<title>GO:0003674</title>
<polygon fill="#ffffff" stroke="#000000" points="215.9666,-291.0019 90.7004,-291.0019 90.7004,-249.7981 215.9666,-249.7981 215.9666,-291.0019"/>
<text text-anchor="middle" x="153.3335" y="-274.6" font-family="Times,serif" font-size="14.00" fill="#000000">GO:0003674</text>
<text text-anchor="middle" x="153.3335" y="-257.8" font-family="Times,serif" font-size="14.00" fill="#000000">molecular_function</text>
</g>
<!-- GO:0005488&#45;&gt;GO:0003674 -->
<g id="edge2" class="edge">
<title>GO:0005488&#45;&gt;GO:0003674</title>
<path fill="none" stroke="#000000" d="M153.3335,-213.5954C153.3335,-221.5109 153.3335,-230.7109 153.3335,-239.3722"/>
<polygon fill="#000000" stroke="#000000" points="149.8336,-239.5472 153.3335,-249.5472 156.8336,-239.5473 149.8336,-239.5472"/>
</g>
<!-- GO:0032403 -->
<g id="node4" class="node">
<title>GO:0032403</title>
<polygon fill="#ffffff" stroke="#000000" points="155.9819,-41.4019 2.6851,-41.4019 2.6851,-.1981 155.9819,-.1981 155.9819,-41.4019"/>
<text text-anchor="middle" x="79.3335" y="-25" font-family="Times,serif" font-size="14.00" fill="#000000">GO:0032403</text>
<text text-anchor="middle" x="79.3335" y="-8.2" font-family="Times,serif" font-size="14.00" fill="#000000">protein complex binding</text>
</g>
<!-- GO:0032403&#45;&gt;GO:0044877 -->
<g id="edge3" class="edge">
<title>GO:0032403&#45;&gt;GO:0044877</title>
<path fill="none" stroke="#000000" d="M79.3335,-41.6182C79.3335,-49.3358 79.3335,-58.3662 79.3335,-67.2036"/>
<polygon fill="#000000" stroke="#000000" points="75.8336,-67.3991 79.3335,-77.3991 82.8336,-67.3992 75.8336,-67.3991"/>
</g>
<!-- GO:0005515 -->
<g id="node5" class="node">
<title>GO:0005515</title>
<polygon fill="#ffffff" stroke="#000000" points="278.2711,-127.4019 176.3959,-127.4019 176.3959,-86.1981 278.2711,-86.1981 278.2711,-127.4019"/>
<text text-anchor="middle" x="227.3335" y="-111" font-family="Times,serif" font-size="14.00" fill="#000000">GO:0005515</text>
<text text-anchor="middle" x="227.3335" y="-94.2" font-family="Times,serif" font-size="14.00" fill="#000000">protein binding</text>
</g>
<!-- GO:0032403&#45;&gt;GO:0005515 -->
<g id="edge4" class="edge">
<title>GO:0032403&#45;&gt;GO:0005515</title>
<path fill="none" stroke="#000000" d="M115.1602,-41.6182C135.6117,-53.5022 161.4201,-68.499 183.1242,-81.1108"/>
<polygon fill="#000000" stroke="#000000" points="181.432,-84.1755 191.8368,-86.1735 184.949,-78.1231 181.432,-84.1755"/>
</g>
<!-- GO:0005515&#45;&gt;GO:0005488 -->
<g id="edge5" class="edge">
<title>GO:0005515&#45;&gt;GO:0005488</title>
<path fill="none" stroke="#000000" d="M209.4202,-127.6182C199.8761,-138.7099 187.9989,-152.5132 177.6345,-164.5583"/>
<polygon fill="#000000" stroke="#000000" points="174.9513,-162.3105 171.0819,-172.1735 180.2574,-166.8762 174.9513,-162.3105"/>
</g>
<!-- GO:0005102 -->
<g id="node6" class="node">
<title>GO:0005102</title>
<polygon fill="#ffffff" stroke="#000000" points="282.4704,-41.4019 174.1966,-41.4019 174.1966,-.1981 282.4704,-.1981 282.4704,-41.4019"/>
<text text-anchor="middle" x="228.3335" y="-25" font-family="Times,serif" font-size="14.00" fill="#000000">GO:0005102</text>
<text text-anchor="middle" x="228.3335" y="-8.2" font-family="Times,serif" font-size="14.00" fill="#000000">receptor binding</text>
</g>
<!-- GO:0005102&#45;&gt;GO:0005515 -->
<g id="edge6" class="edge">
<title>GO:0005102&#45;&gt;GO:0005515</title>
<path fill="none" stroke="#000000" d="M228.0914,-41.6182C227.9711,-51.9705 227.8232,-64.6848 227.6902,-76.1271"/>
<polygon fill="#000000" stroke="#000000" points="224.1899,-76.1335 227.5733,-86.1735 231.1895,-76.2149 224.1899,-76.1335"/>
</g>
</g>
</svg>
