<?xml version="1.0" encoding="UTF-8" standalone="no"?>
<!DOCTYPE svg PUBLIC "-//W3C//DTD SVG 1.1//EN"
 "http://www.w3.org/Graphics/SVG/1.1/DTD/svg11.dtd">
<!-- Generated by graphviz version 2.40.1 (20161225.0304)
 -->
<!-- Title: G Pages: 1 -->
<svg width="312pt" height="410pt"
 viewBox="0.00 0.00 312.13 410.40" xmlns="http://www.w3.org/2000/svg" xmlns:xlink="http://www.w3.org/1999/xlink">
<g id="graph0" class="graph" transform="scale(1 1) rotate(0) translate(4 406.4)">
<title>G</title>
<polygon fill="#ffffff" stroke="transparent" points="-4,4 -4,-406.4 308.1298,-406.4 308.1298,4 -4,4"/>
<!-- GO:0016021 -->
<g id="node1" class="node">
<title>GO:0016021</title>
<polygon fill="#ff0000" stroke="#000000" points="141.0097,-153.0014 1.7435,-153.0014 1.7435,-94.1986 141.0097,-94.1986 141.0097,-153.0014"/>
<text text-anchor="middle" x="71.3766" y="-136.2" font-family="Times,serif" font-size="14.00" fill="#000000">GO:0016021</text>
<text text-anchor="middle" x="71.3766" y="-119.4" font-family="Times,serif" font-size="14.00" fill="#000000">integral component of</text>
<text text-anchor="middle" x="71.3766" y="-102.6" font-family="Times,serif" font-size="14.00" fill="#000000">membrane</text>
</g>
<!-- GO:0031224 -->
<g id="node2" class="node">
<title>GO:0031224</title>
<polygon fill="#ffffff" stroke="#000000" points="142.63,-247.4014 .1232,-247.4014 .1232,-188.5986 142.63,-188.5986 142.63,-247.4014"/>
<text text-anchor="middle" x="71.3766" y="-230.6" font-family="Times,serif" font-size="14.00" fill="#000000">GO:0031224</text>
<text text-anchor="middle" x="71.3766" y="-213.8" font-family="Times,serif" font-size="14.00" fill="#000000">intrinsic component of</text>
<text text-anchor="middle" x="71.3766" y="-197" font-family="Times,serif" font-size="14.00" fill="#000000">membrane</text>
</g>
<!-- GO:0016021&#45;&gt;GO:0031224 -->
<g id="edge1" class="edge">
<title>GO:0016021&#45;&gt;GO:0031224</title>
<path fill="none" stroke="#000000" d="M71.3766,-152.9513C71.3766,-161.0318 71.3766,-169.9308 71.3766,-178.4838"/>
<polygon fill="#000000" stroke="#000000" points="67.8767,-178.6668 71.3766,-188.6669 74.8767,-178.6669 67.8767,-178.6668"/>
</g>
<!-- GO:0044425 -->
<g id="node3" class="node">
<title>GO:0044425</title>
<polygon fill="#ffffff" stroke="#000000" points="169.7286,-324.6019 69.0246,-324.6019 69.0246,-283.3981 169.7286,-283.3981 169.7286,-324.6019"/>
<text text-anchor="middle" x="119.3766" y="-308.2" font-family="Times,serif" font-size="14.00" fill="#000000">GO:0044425</text>
<text text-anchor="middle" x="119.3766" y="-291.4" font-family="Times,serif" font-size="14.00" fill="#000000">membrane part</text>
</g>
<!-- GO:0031224&#45;&gt;GO:0044425 -->
<g id="edge2" class="edge">
<title>GO:0031224&#45;&gt;GO:0044425</title>
<path fill="none" stroke="#000000" d="M87.8955,-247.5963C92.7149,-256.2312 97.9816,-265.6673 102.8044,-274.3081"/>
<polygon fill="#000000" stroke="#000000" points="99.8913,-276.2704 107.8212,-283.2966 106.0037,-272.8588 99.8913,-276.2704"/>
</g>
<!-- GO:0005575 -->
<g id="node4" class="node">
<title>GO:0005575</title>
<polygon fill="#ffffff" stroke="#000000" points="239.0633,-402.2019 111.6899,-402.2019 111.6899,-360.9981 239.0633,-360.9981 239.0633,-402.2019"/>
<text text-anchor="middle" x="175.3766" y="-385.8" font-family="Times,serif" font-size="14.00" fill="#000000">GO:0005575</text>
<text text-anchor="middle" x="175.3766" y="-369" font-family="Times,serif" font-size="14.00" fill="#000000">cellular_component</text>
</g>
<!-- GO:0044425&#45;&gt;GO:0005575 -->
<g id="edge3" class="edge">
<title>GO:0044425&#45;&gt;GO:0005575</title>
<path fill="none" stroke="#000000" d="M134.3836,-324.7954C140.5352,-333.3197 147.7619,-343.3339 154.4203,-352.5605"/>
<polygon fill="#000000" stroke="#000000" points="151.6382,-354.6864 160.3282,-360.7472 157.3145,-350.59 151.6382,-354.6864"/>
</g>
<!-- GO:0044464 -->
<g id="node5" class="node">
<title>GO:0044464</title>
<polygon fill="#ff0000" stroke="#000000" points="276.9805,-324.6019 187.7727,-324.6019 187.7727,-283.3981 276.9805,-283.3981 276.9805,-324.6019"/>
<text text-anchor="middle" x="232.3766" y="-308.2" font-family="Times,serif" font-size="14.00" fill="#000000">GO:0044464</text>
<text text-anchor="middle" x="232.3766" y="-291.4" font-family="Times,serif" font-size="14.00" fill="#000000">cell part</text>
</g>
<!-- GO:0044464&#45;&gt;GO:0005575 -->
<g id="edge4" class="edge">
<title>GO:0044464&#45;&gt;GO:0005575</title>
<path fill="none" stroke="#000000" d="M217.1016,-324.7954C210.8402,-333.3197 203.4844,-343.3339 196.7071,-352.5605"/>
<polygon fill="#000000" stroke="#000000" points="193.7929,-350.6158 190.6937,-360.7472 199.4345,-354.7598 193.7929,-350.6158"/>
</g>
<!-- GO:0005887 -->
<g id="node6" class="node">
<title>GO:0005887</title>
<polygon fill="#ff0000" stroke="#000000" points="220.0097,-58.6014 80.7435,-58.6014 80.7435,.2014 220.0097,.2014 220.0097,-58.6014"/>
<text text-anchor="middle" x="150.3766" y="-41.8" font-family="Times,serif" font-size="14.00" fill="#000000">GO:0005887</text>
<text text-anchor="middle" x="150.3766" y="-25" font-family="Times,serif" font-size="14.00" fill="#000000">integral component of</text>
<text text-anchor="middle" x="150.3766" y="-8.2" font-family="Times,serif" font-size="14.00" fill="#000000">plasma membrane</text>
</g>
<!-- GO:0005887&#45;&gt;GO:0016021 -->
<g id="edge5" class="edge">
<title>GO:0005887&#45;&gt;GO:0016021</title>
<path fill="none" stroke="#000000" d="M125.8136,-58.5513C118.4568,-67.3422 110.2893,-77.1018 102.5659,-86.3308"/>
<polygon fill="#000000" stroke="#000000" points="99.6582,-84.3517 95.9245,-94.2669 105.0264,-88.8442 99.6582,-84.3517"/>
</g>
<!-- GO:0031226 -->
<g id="node7" class="node">
<title>GO:0031226</title>
<polygon fill="#ffffff" stroke="#000000" points="301.63,-153.0014 159.1232,-153.0014 159.1232,-94.1986 301.63,-94.1986 301.63,-153.0014"/>
<text text-anchor="middle" x="230.3766" y="-136.2" font-family="Times,serif" font-size="14.00" fill="#000000">GO:0031226</text>
<text text-anchor="middle" x="230.3766" y="-119.4" font-family="Times,serif" font-size="14.00" fill="#000000">intrinsic component of</text>
<text text-anchor="middle" x="230.3766" y="-102.6" font-family="Times,serif" font-size="14.00" fill="#000000">plasma membrane</text>
</g>
<!-- GO:0005887&#45;&gt;GO:0031226 -->
<g id="edge6" class="edge">
<title>GO:0005887&#45;&gt;GO:0031226</title>
<path fill="none" stroke="#000000" d="M175.2506,-58.5513C182.7757,-67.431 191.1385,-77.299 199.0294,-86.6103"/>
<polygon fill="#000000" stroke="#000000" points="196.3826,-88.9007 205.518,-94.2669 201.7229,-84.375 196.3826,-88.9007"/>
</g>
<!-- GO:0031226&#45;&gt;GO:0031224 -->
<g id="edge8" class="edge">
<title>GO:0031226&#45;&gt;GO:0031224</title>
<path fill="none" stroke="#000000" d="M180.9396,-152.9513C164.6373,-162.6301 146.3571,-173.4833 129.4694,-183.5097"/>
<polygon fill="#000000" stroke="#000000" points="127.5949,-180.5521 120.783,-188.6669 131.1686,-186.5712 127.5949,-180.5521"/>
</g>
<!-- GO:0044459 -->
<g id="node8" class="node">
<title>GO:0044459</title>
<polygon fill="#ffffff" stroke="#000000" points="303.8838,-238.6019 160.8694,-238.6019 160.8694,-197.3981 303.8838,-197.3981 303.8838,-238.6019"/>
<text text-anchor="middle" x="232.3766" y="-222.2" font-family="Times,serif" font-size="14.00" fill="#000000">GO:0044459</text>
<text text-anchor="middle" x="232.3766" y="-205.4" font-family="Times,serif" font-size="14.00" fill="#000000">plasma membrane part</text>
</g>
<!-- GO:0031226&#45;&gt;GO:0044459 -->
<g id="edge7" class="edge">
<title>GO:0031226&#45;&gt;GO:0044459</title>
<path fill="none" stroke="#000000" d="M230.9984,-152.9513C231.2296,-163.8614 231.4924,-176.2637 231.726,-187.292"/>
<polygon fill="#000000" stroke="#000000" points="228.228,-187.4274 231.9391,-197.351 235.2264,-187.2791 228.228,-187.4274"/>
</g>
<!-- GO:0044459&#45;&gt;GO:0044425 -->
<g id="edge9" class="edge">
<title>GO:0044459&#45;&gt;GO:0044425</title>
<path fill="none" stroke="#000000" d="M205.0225,-238.8182C189.8932,-250.3325 170.9245,-264.7688 154.6865,-277.1269"/>
<polygon fill="#000000" stroke="#000000" points="152.3167,-274.5321 146.4788,-283.3735 156.5561,-280.1024 152.3167,-274.5321"/>
</g>
<!-- GO:0044459&#45;&gt;GO:0044464 -->
<g id="edge10" class="edge">
<title>GO:0044459&#45;&gt;GO:0044464</title>
<path fill="none" stroke="#000000" d="M232.3766,-238.8182C232.3766,-249.1705 232.3766,-261.8848 232.3766,-273.3271"/>
<polygon fill="#000000" stroke="#000000" points="228.8767,-273.3735 232.3766,-283.3735 235.8767,-273.3735 228.8767,-273.3735"/>
</g>
</g>
</svg>
