<?xml version="1.0" encoding="UTF-8" standalone="no"?>
<!DOCTYPE svg PUBLIC "-//W3C//DTD SVG 1.1//EN"
 "http://www.w3.org/Graphics/SVG/1.1/DTD/svg11.dtd">
<!-- Generated by graphviz version 2.40.1 (20161225.0304)
 -->
<!-- Title: G Pages: 1 -->
<svg width="266pt" height="205pt"
 viewBox="0.00 0.00 265.80 204.80" xmlns="http://www.w3.org/2000/svg" xmlns:xlink="http://www.w3.org/1999/xlink">
<g id="graph0" class="graph" transform="scale(1 1) rotate(0) translate(4 200.8)">
<title>G</title>
<polygon fill="#ffffff" stroke="transparent" points="-4,4 -4,-200.8 261.796,-200.8 261.796,4 -4,4"/>
<!-- GO:0005615 -->
<g id="node1" class="node">
<title>GO:0005615</title>
<polygon fill="#ff0000" stroke="#000000" points="135.29,-41.4019 15.1982,-41.4019 15.1982,-.1981 135.29,-.1981 135.29,-41.4019"/>
<text text-anchor="middle" x="75.2441" y="-25" font-family="Times,serif" font-size="14.00" fill="#000000">GO:0005615</text>
<text text-anchor="middle" x="75.2441" y="-8.2" font-family="Times,serif" font-size="14.00" fill="#000000">extracellular space</text>
</g>
<!-- GO:0044421 -->
<g id="node2" class="node">
<title>GO:0044421</title>
<polygon fill="#ffffff" stroke="#000000" points="150.7331,-119.0019 -.2449,-119.0019 -.2449,-77.7981 150.7331,-77.7981 150.7331,-119.0019"/>
<text text-anchor="middle" x="75.2441" y="-102.6" font-family="Times,serif" font-size="14.00" fill="#000000">GO:0044421</text>
<text text-anchor="middle" x="75.2441" y="-85.8" font-family="Times,serif" font-size="14.00" fill="#000000">extracellular region part</text>
</g>
<!-- GO:0005615&#45;&gt;GO:0044421 -->
<g id="edge1" class="edge">
<title>GO:0005615&#45;&gt;GO:0044421</title>
<path fill="none" stroke="#000000" d="M75.2441,-41.5954C75.2441,-49.5109 75.2441,-58.7109 75.2441,-67.3722"/>
<polygon fill="#000000" stroke="#000000" points="71.7442,-67.5472 75.2441,-77.5472 78.7442,-67.5473 71.7442,-67.5472"/>
</g>
<!-- GO:0005575 -->
<g id="node3" class="node">
<title>GO:0005575</title>
<polygon fill="#ffffff" stroke="#000000" points="207.9308,-196.6019 80.5574,-196.6019 80.5574,-155.3981 207.9308,-155.3981 207.9308,-196.6019"/>
<text text-anchor="middle" x="144.2441" y="-180.2" font-family="Times,serif" font-size="14.00" fill="#000000">GO:0005575</text>
<text text-anchor="middle" x="144.2441" y="-163.4" font-family="Times,serif" font-size="14.00" fill="#000000">cellular_component</text>
</g>
<!-- GO:0044421&#45;&gt;GO:0005575 -->
<g id="edge2" class="edge">
<title>GO:0044421&#45;&gt;GO:0005575</title>
<path fill="none" stroke="#000000" d="M93.7348,-119.1954C101.4692,-127.8937 110.5828,-138.1433 118.9243,-147.5244"/>
<polygon fill="#000000" stroke="#000000" points="116.4419,-149.9999 125.7023,-155.1472 121.673,-145.3485 116.4419,-149.9999"/>
</g>
<!-- GO:0044464 -->
<g id="node4" class="node">
<title>GO:0044464</title>
<polygon fill="#00ff00" stroke="#000000" points="257.848,-119.0019 168.6402,-119.0019 168.6402,-77.7981 257.848,-77.7981 257.848,-119.0019"/>
<text text-anchor="middle" x="213.2441" y="-102.6" font-family="Times,serif" font-size="14.00" fill="#000000">GO:0044464</text>
<text text-anchor="middle" x="213.2441" y="-85.8" font-family="Times,serif" font-size="14.00" fill="#000000">cell part</text>
</g>
<!-- GO:0044464&#45;&gt;GO:0005575 -->
<g id="edge3" class="edge">
<title>GO:0044464&#45;&gt;GO:0005575</title>
<path fill="none" stroke="#000000" d="M194.7534,-119.1954C187.019,-127.8937 177.9054,-138.1433 169.5639,-147.5244"/>
<polygon fill="#000000" stroke="#000000" points="166.8152,-145.3485 162.7859,-155.1472 172.0463,-149.9999 166.8152,-145.3485"/>
</g>
</g>
</svg>
