<?xml version="1.0" encoding="UTF-8" standalone="no"?>
<!DOCTYPE svg PUBLIC "-//W3C//DTD SVG 1.1//EN"
 "http://www.w3.org/Graphics/SVG/1.1/DTD/svg11.dtd">
<!-- Generated by graphviz version 2.40.1 (20161225.0304)
 -->
<!-- Title: G Pages: 1 -->
<svg width="134pt" height="360pt"
 viewBox="0.00 0.00 133.63 360.00" xmlns="http://www.w3.org/2000/svg" xmlns:xlink="http://www.w3.org/1999/xlink">
<g id="graph0" class="graph" transform="scale(1 1) rotate(0) translate(4 356)">
<title>G</title>
<polygon fill="#ffffff" stroke="transparent" points="-4,4 -4,-356 129.6326,-356 129.6326,4 -4,4"/>
<!-- GO:0005125 -->
<g id="node1" class="node">
<title>GO:0005125</title>
<polygon fill="#ff0000" stroke="#000000" points="117.5187,-41.4019 8.1139,-41.4019 8.1139,-.1981 117.5187,-.1981 117.5187,-41.4019"/>
<text text-anchor="middle" x="62.8163" y="-25" font-family="Times,serif" font-size="14.00" fill="#000000">GO:0005125</text>
<text text-anchor="middle" x="62.8163" y="-8.2" font-family="Times,serif" font-size="14.00" fill="#000000">cytokine activity</text>
</g>
<!-- GO:0005102 -->
<g id="node2" class="node">
<title>GO:0005102</title>
<polygon fill="#ffffff" stroke="#000000" points="116.9532,-119.0019 8.6794,-119.0019 8.6794,-77.7981 116.9532,-77.7981 116.9532,-119.0019"/>
<text text-anchor="middle" x="62.8163" y="-102.6" font-family="Times,serif" font-size="14.00" fill="#000000">GO:0005102</text>
<text text-anchor="middle" x="62.8163" y="-85.8" font-family="Times,serif" font-size="14.00" fill="#000000">receptor binding</text>
</g>
<!-- GO:0005125&#45;&gt;GO:0005102 -->
<g id="edge1" class="edge">
<title>GO:0005125&#45;&gt;GO:0005102</title>
<path fill="none" stroke="#000000" d="M62.8163,-41.5954C62.8163,-49.5109 62.8163,-58.7109 62.8163,-67.3722"/>
<polygon fill="#000000" stroke="#000000" points="59.3164,-67.5472 62.8163,-77.5472 66.3164,-67.5473 59.3164,-67.5472"/>
</g>
<!-- GO:0005515 -->
<g id="node3" class="node">
<title>GO:0005515</title>
<polygon fill="#ffffff" stroke="#000000" points="113.7539,-196.6019 11.8787,-196.6019 11.8787,-155.3981 113.7539,-155.3981 113.7539,-196.6019"/>
<text text-anchor="middle" x="62.8163" y="-180.2" font-family="Times,serif" font-size="14.00" fill="#000000">GO:0005515</text>
<text text-anchor="middle" x="62.8163" y="-163.4" font-family="Times,serif" font-size="14.00" fill="#000000">protein binding</text>
</g>
<!-- GO:0005102&#45;&gt;GO:0005515 -->
<g id="edge2" class="edge">
<title>GO:0005102&#45;&gt;GO:0005515</title>
<path fill="none" stroke="#000000" d="M62.8163,-119.1954C62.8163,-127.1109 62.8163,-136.3109 62.8163,-144.9722"/>
<polygon fill="#000000" stroke="#000000" points="59.3164,-145.1472 62.8163,-155.1472 66.3164,-145.1473 59.3164,-145.1472"/>
</g>
<!-- GO:0005488 -->
<g id="node4" class="node">
<title>GO:0005488</title>
<polygon fill="#ffffff" stroke="#000000" points="107.4202,-274.2019 18.2124,-274.2019 18.2124,-232.9981 107.4202,-232.9981 107.4202,-274.2019"/>
<text text-anchor="middle" x="62.8163" y="-257.8" font-family="Times,serif" font-size="14.00" fill="#000000">GO:0005488</text>
<text text-anchor="middle" x="62.8163" y="-241" font-family="Times,serif" font-size="14.00" fill="#000000">binding</text>
</g>
<!-- GO:0005515&#45;&gt;GO:0005488 -->
<g id="edge3" class="edge">
<title>GO:0005515&#45;&gt;GO:0005488</title>
<path fill="none" stroke="#000000" d="M62.8163,-196.7954C62.8163,-204.7109 62.8163,-213.9109 62.8163,-222.5722"/>
<polygon fill="#000000" stroke="#000000" points="59.3164,-222.7472 62.8163,-232.7472 66.3164,-222.7473 59.3164,-222.7472"/>
</g>
<!-- GO:0003674 -->
<g id="node5" class="node">
<title>GO:0003674</title>
<polygon fill="#ffffff" stroke="#000000" points="125.4494,-351.8019 .1832,-351.8019 .1832,-310.5981 125.4494,-310.5981 125.4494,-351.8019"/>
<text text-anchor="middle" x="62.8163" y="-335.4" font-family="Times,serif" font-size="14.00" fill="#000000">GO:0003674</text>
<text text-anchor="middle" x="62.8163" y="-318.6" font-family="Times,serif" font-size="14.00" fill="#000000">molecular_function</text>
</g>
<!-- GO:0005488&#45;&gt;GO:0003674 -->
<g id="edge4" class="edge">
<title>GO:0005488&#45;&gt;GO:0003674</title>
<path fill="none" stroke="#000000" d="M62.8163,-274.3954C62.8163,-282.3109 62.8163,-291.5109 62.8163,-300.1722"/>
<polygon fill="#000000" stroke="#000000" points="59.3164,-300.3472 62.8163,-310.3472 66.3164,-300.3473 59.3164,-300.3472"/>
</g>
</g>
</svg>
