<?xml version="1.0" encoding="UTF-8" standalone="no"?>
<!DOCTYPE svg PUBLIC "-//W3C//DTD SVG 1.1//EN"
 "http://www.w3.org/Graphics/SVG/1.1/DTD/svg11.dtd">
<!-- Generated by graphviz version 2.40.1 (20161225.0304)
 -->
<!-- Title: G Pages: 1 -->
<svg width="167pt" height="299pt"
 viewBox="0.00 0.00 167.06 299.20" xmlns="http://www.w3.org/2000/svg" xmlns:xlink="http://www.w3.org/1999/xlink">
<g id="graph0" class="graph" transform="scale(1 1) rotate(0) translate(4 295.2)">
<title>G</title>
<polygon fill="#ffffff" stroke="transparent" points="-4,4 -4,-295.2 163.0576,-295.2 163.0576,4 -4,4"/>
<!-- GO:0004857 -->
<g id="node1" class="node">
<title>GO:0004857</title>
<polygon fill="#ff0000" stroke="#000000" points="157.778,-41.4019 1.2796,-41.4019 1.2796,-.1981 157.778,-.1981 157.778,-41.4019"/>
<text text-anchor="middle" x="79.5288" y="-25" font-family="Times,serif" font-size="14.00" fill="#000000">GO:0004857</text>
<text text-anchor="middle" x="79.5288" y="-8.2" font-family="Times,serif" font-size="14.00" fill="#000000">enzyme inhibitor activity</text>
</g>
<!-- GO:0030234 -->
<g id="node2" class="node">
<title>GO:0030234</title>
<polygon fill="#ffffff" stroke="#000000" points="159.0864,-119.0019 -.0288,-119.0019 -.0288,-77.7981 159.0864,-77.7981 159.0864,-119.0019"/>
<text text-anchor="middle" x="79.5288" y="-102.6" font-family="Times,serif" font-size="14.00" fill="#000000">GO:0030234</text>
<text text-anchor="middle" x="79.5288" y="-85.8" font-family="Times,serif" font-size="14.00" fill="#000000">enzyme regulator activity</text>
</g>
<!-- GO:0004857&#45;&gt;GO:0030234 -->
<g id="edge1" class="edge">
<title>GO:0004857&#45;&gt;GO:0030234</title>
<path fill="none" stroke="#000000" d="M79.5288,-41.5954C79.5288,-49.5109 79.5288,-58.7109 79.5288,-67.3722"/>
<polygon fill="#000000" stroke="#000000" points="76.0289,-67.5472 79.5288,-77.5472 83.0289,-67.5473 76.0289,-67.5472"/>
</g>
<!-- GO:0098772 -->
<g id="node3" class="node">
<title>GO:0098772</title>
<polygon fill="#ffffff" stroke="#000000" points="140.6615,-213.8014 18.3961,-213.8014 18.3961,-154.9986 140.6615,-154.9986 140.6615,-213.8014"/>
<text text-anchor="middle" x="79.5288" y="-197" font-family="Times,serif" font-size="14.00" fill="#000000">GO:0098772</text>
<text text-anchor="middle" x="79.5288" y="-180.2" font-family="Times,serif" font-size="14.00" fill="#000000">molecular function</text>
<text text-anchor="middle" x="79.5288" y="-163.4" font-family="Times,serif" font-size="14.00" fill="#000000">regulator</text>
</g>
<!-- GO:0030234&#45;&gt;GO:0098772 -->
<g id="edge2" class="edge">
<title>GO:0030234&#45;&gt;GO:0098772</title>
<path fill="none" stroke="#000000" d="M79.5288,-119.2182C79.5288,-126.9358 79.5288,-135.9662 79.5288,-144.8036"/>
<polygon fill="#000000" stroke="#000000" points="76.0289,-144.9991 79.5288,-154.9991 83.0289,-144.9992 76.0289,-144.9991"/>
</g>
<!-- GO:0003674 -->
<g id="node4" class="node">
<title>GO:0003674</title>
<polygon fill="#ffffff" stroke="#000000" points="142.1619,-291.0019 16.8957,-291.0019 16.8957,-249.7981 142.1619,-249.7981 142.1619,-291.0019"/>
<text text-anchor="middle" x="79.5288" y="-274.6" font-family="Times,serif" font-size="14.00" fill="#000000">GO:0003674</text>
<text text-anchor="middle" x="79.5288" y="-257.8" font-family="Times,serif" font-size="14.00" fill="#000000">molecular_function</text>
</g>
<!-- GO:0098772&#45;&gt;GO:0003674 -->
<g id="edge3" class="edge">
<title>GO:0098772&#45;&gt;GO:0003674</title>
<path fill="none" stroke="#000000" d="M79.5288,-213.9963C79.5288,-222.2638 79.5288,-231.2657 79.5288,-239.6008"/>
<polygon fill="#000000" stroke="#000000" points="76.0289,-239.6965 79.5288,-249.6966 83.0289,-239.6966 76.0289,-239.6965"/>
</g>
</g>
</svg>
