<?xml version="1.0" encoding="UTF-8" standalone="no"?>
<!DOCTYPE svg PUBLIC "-//W3C//DTD SVG 1.1//EN"
 "http://www.w3.org/Graphics/SVG/1.1/DTD/svg11.dtd">
<!-- Generated by graphviz version 2.40.1 (20161225.0304)
 -->
<!-- Title: G Pages: 1 -->
<svg width="610pt" height="505pt"
 viewBox="0.00 0.00 610.49 504.80" xmlns="http://www.w3.org/2000/svg" xmlns:xlink="http://www.w3.org/1999/xlink">
<g id="graph0" class="graph" transform="scale(1 1) rotate(0) translate(4 500.8)">
<title>G</title>
<polygon fill="#ffffff" stroke="transparent" points="-4,4 -4,-500.8 606.492,-500.8 606.492,4 -4,4"/>
<!-- GO:0005813 -->
<g id="node1" class="node">
<title>GO:0005813</title>
<polygon fill="#ff0000" stroke="#000000" points="196.1155,-41.4019 106.9077,-41.4019 106.9077,-.1981 196.1155,-.1981 196.1155,-41.4019"/>
<text text-anchor="middle" x="151.5116" y="-25" font-family="Times,serif" font-size="14.00" fill="#000000">GO:0005813</text>
<text text-anchor="middle" x="151.5116" y="-8.2" font-family="Times,serif" font-size="14.00" fill="#000000">centrosome</text>
</g>
<!-- GO:0043232 -->
<g id="node2" class="node">
<title>GO:0043232</title>
<polygon fill="#ffffff" stroke="#000000" points="292.4724,-152.9003 164.5508,-152.9003 164.5508,-77.4997 292.4724,-77.4997 292.4724,-152.9003"/>
<text text-anchor="middle" x="228.5116" y="-136.2" font-family="Times,serif" font-size="14.00" fill="#000000">GO:0043232</text>
<text text-anchor="middle" x="228.5116" y="-119.4" font-family="Times,serif" font-size="14.00" fill="#000000">intracellular non&#45;</text>
<text text-anchor="middle" x="228.5116" y="-102.6" font-family="Times,serif" font-size="14.00" fill="#000000">membrane&#45;bounded</text>
<text text-anchor="middle" x="228.5116" y="-85.8" font-family="Times,serif" font-size="14.00" fill="#000000">organelle</text>
</g>
<!-- GO:0005813&#45;&gt;GO:0043232 -->
<g id="edge1" class="edge">
<title>GO:0005813&#45;&gt;GO:0043232</title>
<path fill="none" stroke="#000000" d="M168.6004,-41.7504C175.3827,-50.0654 183.4649,-59.9739 191.4634,-69.7799"/>
<polygon fill="#000000" stroke="#000000" points="188.8007,-72.0529 197.8337,-77.5897 194.2251,-67.6283 188.8007,-72.0529"/>
</g>
<!-- GO:0005815 -->
<g id="node3" class="node">
<title>GO:0005815</title>
<polygon fill="#ffffff" stroke="#000000" points="147.0348,-144.6014 -.0116,-144.6014 -.0116,-85.7986 147.0348,-85.7986 147.0348,-144.6014"/>
<text text-anchor="middle" x="73.5116" y="-127.8" font-family="Times,serif" font-size="14.00" fill="#000000">GO:0005815</text>
<text text-anchor="middle" x="73.5116" y="-111" font-family="Times,serif" font-size="14.00" fill="#000000">microtubule organizing</text>
<text text-anchor="middle" x="73.5116" y="-94.2" font-family="Times,serif" font-size="14.00" fill="#000000">center</text>
</g>
<!-- GO:0005813&#45;&gt;GO:0005815 -->
<g id="edge2" class="edge">
<title>GO:0005813&#45;&gt;GO:0005815</title>
<path fill="none" stroke="#000000" d="M134.2009,-41.7504C125.4384,-52.3552 114.5341,-65.5522 104.3955,-77.8225"/>
<polygon fill="#000000" stroke="#000000" points="101.5453,-75.7772 97.8738,-85.7155 106.9416,-80.236 101.5453,-75.7772"/>
</g>
<!-- GO:0043229 -->
<g id="node4" class="node">
<title>GO:0043229</title>
<polygon fill="#ffffff" stroke="#000000" points="456.23,-238.6019 316.7932,-238.6019 316.7932,-197.3981 456.23,-197.3981 456.23,-238.6019"/>
<text text-anchor="middle" x="386.5116" y="-222.2" font-family="Times,serif" font-size="14.00" fill="#000000">GO:0043229</text>
<text text-anchor="middle" x="386.5116" y="-205.4" font-family="Times,serif" font-size="14.00" fill="#000000">intracellular organelle</text>
</g>
<!-- GO:0043232&#45;&gt;GO:0043229 -->
<g id="edge3" class="edge">
<title>GO:0043232&#45;&gt;GO:0043229</title>
<path fill="none" stroke="#000000" d="M286.4478,-152.8952C306.2779,-165.7973 328.0181,-179.9422 346.1537,-191.7418"/>
<polygon fill="#000000" stroke="#000000" points="344.452,-194.8102 354.7428,-197.3302 348.2696,-188.9428 344.452,-194.8102"/>
</g>
<!-- GO:0043228 -->
<g id="node5" class="node">
<title>GO:0043228</title>
<polygon fill="#ffffff" stroke="#000000" points="299.1335,-247.4014 145.8897,-247.4014 145.8897,-188.5986 299.1335,-188.5986 299.1335,-247.4014"/>
<text text-anchor="middle" x="222.5116" y="-230.6" font-family="Times,serif" font-size="14.00" fill="#000000">GO:0043228</text>
<text text-anchor="middle" x="222.5116" y="-213.8" font-family="Times,serif" font-size="14.00" fill="#000000">non&#45;membrane&#45;bounded</text>
<text text-anchor="middle" x="222.5116" y="-197" font-family="Times,serif" font-size="14.00" fill="#000000">organelle</text>
</g>
<!-- GO:0043232&#45;&gt;GO:0043228 -->
<g id="edge4" class="edge">
<title>GO:0043232&#45;&gt;GO:0043228</title>
<path fill="none" stroke="#000000" d="M226.3115,-152.8952C225.8217,-161.2874 225.3012,-170.2054 224.8076,-178.6618"/>
<polygon fill="#000000" stroke="#000000" points="221.3115,-178.4944 224.2228,-188.6814 228.2996,-178.9023 221.3115,-178.4944"/>
</g>
<!-- GO:0044430 -->
<g id="node6" class="node">
<title>GO:0044430</title>
<polygon fill="#ffffff" stroke="#000000" points="127.6429,-238.6019 19.3803,-238.6019 19.3803,-197.3981 127.6429,-197.3981 127.6429,-238.6019"/>
<text text-anchor="middle" x="73.5116" y="-222.2" font-family="Times,serif" font-size="14.00" fill="#000000">GO:0044430</text>
<text text-anchor="middle" x="73.5116" y="-205.4" font-family="Times,serif" font-size="14.00" fill="#000000">cytoskeletal part</text>
</g>
<!-- GO:0005815&#45;&gt;GO:0044430 -->
<g id="edge5" class="edge">
<title>GO:0005815&#45;&gt;GO:0044430</title>
<path fill="none" stroke="#000000" d="M73.5116,-144.6584C73.5116,-157.9539 73.5116,-173.6608 73.5116,-187.1212"/>
<polygon fill="#000000" stroke="#000000" points="70.0117,-187.3456 73.5116,-197.3456 77.0117,-187.3457 70.0117,-187.3456"/>
</g>
<!-- GO:0044424 -->
<g id="node7" class="node">
<title>GO:0044424</title>
<polygon fill="#ffffff" stroke="#000000" points="290.91,-419.0019 182.1132,-419.0019 182.1132,-377.7981 290.91,-377.7981 290.91,-419.0019"/>
<text text-anchor="middle" x="236.5116" y="-402.6" font-family="Times,serif" font-size="14.00" fill="#000000">GO:0044424</text>
<text text-anchor="middle" x="236.5116" y="-385.8" font-family="Times,serif" font-size="14.00" fill="#000000">intracellular part</text>
</g>
<!-- GO:0043229&#45;&gt;GO:0044424 -->
<g id="edge6" class="edge">
<title>GO:0043229&#45;&gt;GO:0044424</title>
<path fill="none" stroke="#000000" d="M369.3047,-238.6942C342.4762,-270.9599 290.6136,-333.3333 260.2487,-369.8522"/>
<polygon fill="#000000" stroke="#000000" points="257.4505,-367.7431 253.7482,-377.6701 262.8329,-372.2186 257.4505,-367.7431"/>
</g>
<!-- GO:0043226 -->
<g id="node8" class="node">
<title>GO:0043226</title>
<polygon fill="#ffffff" stroke="#000000" points="431.1155,-333.0019 341.9077,-333.0019 341.9077,-291.7981 431.1155,-291.7981 431.1155,-333.0019"/>
<text text-anchor="middle" x="386.5116" y="-316.6" font-family="Times,serif" font-size="14.00" fill="#000000">GO:0043226</text>
<text text-anchor="middle" x="386.5116" y="-299.8" font-family="Times,serif" font-size="14.00" fill="#000000">organelle</text>
</g>
<!-- GO:0043229&#45;&gt;GO:0043226 -->
<g id="edge7" class="edge">
<title>GO:0043229&#45;&gt;GO:0043226</title>
<path fill="none" stroke="#000000" d="M386.5116,-238.9504C386.5116,-251.4165 386.5116,-267.4645 386.5116,-281.3786"/>
<polygon fill="#000000" stroke="#000000" points="383.0117,-281.5081 386.5116,-291.5081 390.0117,-281.5082 383.0117,-281.5081"/>
</g>
<!-- GO:0043228&#45;&gt;GO:0043226 -->
<g id="edge8" class="edge">
<title>GO:0043228&#45;&gt;GO:0043226</title>
<path fill="none" stroke="#000000" d="M273.5032,-247.3513C295.3884,-259.9486 320.7294,-274.5351 341.8616,-286.6991"/>
<polygon fill="#000000" stroke="#000000" points="340.2255,-289.7956 350.6383,-291.751 343.7176,-283.7289 340.2255,-289.7956"/>
</g>
<!-- GO:0044446 -->
<g id="node9" class="node">
<title>GO:0044446</title>
<polygon fill="#ffffff" stroke="#000000" points="158.23,-341.8014 18.7932,-341.8014 18.7932,-282.9986 158.23,-282.9986 158.23,-341.8014"/>
<text text-anchor="middle" x="88.5116" y="-325" font-family="Times,serif" font-size="14.00" fill="#000000">GO:0044446</text>
<text text-anchor="middle" x="88.5116" y="-308.2" font-family="Times,serif" font-size="14.00" fill="#000000">intracellular organelle</text>
<text text-anchor="middle" x="88.5116" y="-291.4" font-family="Times,serif" font-size="14.00" fill="#000000">part</text>
</g>
<!-- GO:0044430&#45;&gt;GO:0044446 -->
<g id="edge9" class="edge">
<title>GO:0044430&#45;&gt;GO:0044446</title>
<path fill="none" stroke="#000000" d="M76.8406,-238.9504C78.4294,-248.9492 80.3843,-261.2525 82.2368,-272.9106"/>
<polygon fill="#000000" stroke="#000000" points="78.8006,-273.5887 83.8266,-282.9155 85.7138,-272.4901 78.8006,-273.5887"/>
</g>
<!-- GO:0044464 -->
<g id="node10" class="node">
<title>GO:0044464</title>
<polygon fill="#ffffff" stroke="#000000" points="281.1155,-496.6019 191.9077,-496.6019 191.9077,-455.3981 281.1155,-455.3981 281.1155,-496.6019"/>
<text text-anchor="middle" x="236.5116" y="-480.2" font-family="Times,serif" font-size="14.00" fill="#000000">GO:0044464</text>
<text text-anchor="middle" x="236.5116" y="-463.4" font-family="Times,serif" font-size="14.00" fill="#000000">cell part</text>
</g>
<!-- GO:0044424&#45;&gt;GO:0044464 -->
<g id="edge10" class="edge">
<title>GO:0044424&#45;&gt;GO:0044464</title>
<path fill="none" stroke="#000000" d="M236.5116,-419.1954C236.5116,-427.1109 236.5116,-436.3109 236.5116,-444.9722"/>
<polygon fill="#000000" stroke="#000000" points="233.0117,-445.1472 236.5116,-455.1472 240.0117,-445.1473 233.0117,-445.1472"/>
</g>
<!-- GO:0005575 -->
<g id="node11" class="node">
<title>GO:0005575</title>
<polygon fill="#ffffff" stroke="#000000" points="450.1983,-419.0019 322.8249,-419.0019 322.8249,-377.7981 450.1983,-377.7981 450.1983,-419.0019"/>
<text text-anchor="middle" x="386.5116" y="-402.6" font-family="Times,serif" font-size="14.00" fill="#000000">GO:0005575</text>
<text text-anchor="middle" x="386.5116" y="-385.8" font-family="Times,serif" font-size="14.00" fill="#000000">cellular_component</text>
</g>
<!-- GO:0043226&#45;&gt;GO:0005575 -->
<g id="edge11" class="edge">
<title>GO:0043226&#45;&gt;GO:0005575</title>
<path fill="none" stroke="#000000" d="M386.5116,-333.2182C386.5116,-343.5705 386.5116,-356.2848 386.5116,-367.7271"/>
<polygon fill="#000000" stroke="#000000" points="383.0117,-367.7735 386.5116,-377.7735 390.0117,-367.7735 383.0117,-367.7735"/>
</g>
<!-- GO:0044446&#45;&gt;GO:0044424 -->
<g id="edge12" class="edge">
<title>GO:0044446&#45;&gt;GO:0044424</title>
<path fill="none" stroke="#000000" d="M139.0309,-341.7558C156.1294,-351.6914 175.0937,-362.7112 191.7163,-372.3703"/>
<polygon fill="#000000" stroke="#000000" points="190.2787,-375.5829 200.6835,-377.5809 193.7957,-369.5305 190.2787,-375.5829"/>
</g>
<!-- GO:0044422 -->
<g id="node12" class="node">
<title>GO:0044422</title>
<polygon fill="#ffffff" stroke="#000000" points="135.3637,-419.0019 41.6595,-419.0019 41.6595,-377.7981 135.3637,-377.7981 135.3637,-419.0019"/>
<text text-anchor="middle" x="88.5116" y="-402.6" font-family="Times,serif" font-size="14.00" fill="#000000">GO:0044422</text>
<text text-anchor="middle" x="88.5116" y="-385.8" font-family="Times,serif" font-size="14.00" fill="#000000">organelle part</text>
</g>
<!-- GO:0044446&#45;&gt;GO:0044422 -->
<g id="edge13" class="edge">
<title>GO:0044446&#45;&gt;GO:0044422</title>
<path fill="none" stroke="#000000" d="M88.5116,-341.9963C88.5116,-350.2638 88.5116,-359.2657 88.5116,-367.6008"/>
<polygon fill="#000000" stroke="#000000" points="85.0117,-367.6965 88.5116,-377.6966 92.0117,-367.6966 85.0117,-367.6965"/>
</g>
<!-- GO:0005634 -->
<g id="node13" class="node">
<title>GO:0005634</title>
<polygon fill="#ff0000" stroke="#000000" points="507.1155,-41.4019 417.9077,-41.4019 417.9077,-.1981 507.1155,-.1981 507.1155,-41.4019"/>
<text text-anchor="middle" x="462.5116" y="-25" font-family="Times,serif" font-size="14.00" fill="#000000">GO:0005634</text>
<text text-anchor="middle" x="462.5116" y="-8.2" font-family="Times,serif" font-size="14.00" fill="#000000">nucleus</text>
</g>
<!-- GO:0043231 -->
<g id="node14" class="node">
<title>GO:0043231</title>
<polygon fill="#ffffff" stroke="#000000" points="537.8904,-144.6014 387.1328,-144.6014 387.1328,-85.7986 537.8904,-85.7986 537.8904,-144.6014"/>
<text text-anchor="middle" x="462.5116" y="-127.8" font-family="Times,serif" font-size="14.00" fill="#000000">GO:0043231</text>
<text text-anchor="middle" x="462.5116" y="-111" font-family="Times,serif" font-size="14.00" fill="#000000">intracellular membrane&#45;</text>
<text text-anchor="middle" x="462.5116" y="-94.2" font-family="Times,serif" font-size="14.00" fill="#000000">bounded organelle</text>
</g>
<!-- GO:0005634&#45;&gt;GO:0043231 -->
<g id="edge14" class="edge">
<title>GO:0005634&#45;&gt;GO:0043231</title>
<path fill="none" stroke="#000000" d="M462.5116,-41.7504C462.5116,-51.7492 462.5116,-64.0525 462.5116,-75.7106"/>
<polygon fill="#000000" stroke="#000000" points="459.0117,-75.7155 462.5116,-85.7155 466.0117,-75.7156 459.0117,-75.7155"/>
</g>
<!-- GO:0043231&#45;&gt;GO:0043229 -->
<g id="edge15" class="edge">
<title>GO:0043231&#45;&gt;GO:0043229</title>
<path fill="none" stroke="#000000" d="M440.7331,-144.6584C430.417,-158.6121 418.1375,-175.2219 407.875,-189.1032"/>
<polygon fill="#000000" stroke="#000000" points="404.9118,-187.2238 401.7814,-197.3456 410.5406,-191.3852 404.9118,-187.2238"/>
</g>
<!-- GO:0043227 -->
<g id="node15" class="node">
<title>GO:0043227</title>
<polygon fill="#ffffff" stroke="#000000" points="602.4724,-247.4014 474.5508,-247.4014 474.5508,-188.5986 602.4724,-188.5986 602.4724,-247.4014"/>
<text text-anchor="middle" x="538.5116" y="-230.6" font-family="Times,serif" font-size="14.00" fill="#000000">GO:0043227</text>
<text text-anchor="middle" x="538.5116" y="-213.8" font-family="Times,serif" font-size="14.00" fill="#000000">membrane&#45;bounded</text>
<text text-anchor="middle" x="538.5116" y="-197" font-family="Times,serif" font-size="14.00" fill="#000000">organelle</text>
</g>
<!-- GO:0043231&#45;&gt;GO:0043227 -->
<g id="edge16" class="edge">
<title>GO:0043231&#45;&gt;GO:0043227</title>
<path fill="none" stroke="#000000" d="M484.2901,-144.6584C492.4788,-155.7346 501.9047,-168.4844 510.5769,-180.2146"/>
<polygon fill="#000000" stroke="#000000" points="507.9706,-182.5769 516.7299,-188.5373 513.5994,-178.4155 507.9706,-182.5769"/>
</g>
<!-- GO:0043227&#45;&gt;GO:0043226 -->
<g id="edge17" class="edge">
<title>GO:0043227&#45;&gt;GO:0043226</title>
<path fill="none" stroke="#000000" d="M491.2511,-247.3513C471.1484,-259.8361 447.8996,-274.2748 428.42,-286.3727"/>
<polygon fill="#000000" stroke="#000000" points="426.4085,-283.5018 419.76,-291.751 430.1016,-289.4483 426.4085,-283.5018"/>
</g>
</g>
</svg>
