<?xml version="1.0" encoding="UTF-8" standalone="no"?>
<!DOCTYPE svg PUBLIC "-//W3C//DTD SVG 1.1//EN"
 "http://www.w3.org/Graphics/SVG/1.1/DTD/svg11.dtd">
<!-- Generated by graphviz version 2.40.1 (20161225.0304)
 -->
<!-- Title: G Pages: 1 -->
<svg width="1154pt" height="761pt"
 viewBox="0.00 0.00 1153.66 760.80" xmlns="http://www.w3.org/2000/svg" xmlns:xlink="http://www.w3.org/1999/xlink">
<g id="graph0" class="graph" transform="scale(1 1) rotate(0) translate(4 756.8)">
<title>G</title>
<polygon fill="#ffffff" stroke="transparent" points="-4,4 -4,-756.8 1149.6561,-756.8 1149.6561,4 -4,4"/>
<!-- GO:0045717 -->
<g id="node1" class="node">
<title>GO:0045717</title>
<polygon fill="#ff0000" stroke="#000000" points="534.3415,-75.3003 393.5155,-75.3003 393.5155,.1003 534.3415,.1003 534.3415,-75.3003"/>
<text text-anchor="middle" x="463.9285" y="-58.6" font-family="Times,serif" font-size="14.00" fill="#000000">GO:0045717</text>
<text text-anchor="middle" x="463.9285" y="-41.8" font-family="Times,serif" font-size="14.00" fill="#000000">negative regulation of</text>
<text text-anchor="middle" x="463.9285" y="-25" font-family="Times,serif" font-size="14.00" fill="#000000">fatty acid biosynthetic</text>
<text text-anchor="middle" x="463.9285" y="-8.2" font-family="Times,serif" font-size="14.00" fill="#000000">process</text>
</g>
<!-- GO:0045922 -->
<g id="node2" class="node">
<title>GO:0045922</title>
<polygon fill="#ffffff" stroke="#000000" points="454.2758,-186.5003 315.5812,-186.5003 315.5812,-111.0997 454.2758,-111.0997 454.2758,-186.5003"/>
<text text-anchor="middle" x="384.9285" y="-169.8" font-family="Times,serif" font-size="14.00" fill="#000000">GO:0045922</text>
<text text-anchor="middle" x="384.9285" y="-153" font-family="Times,serif" font-size="14.00" fill="#000000">negative regulation of</text>
<text text-anchor="middle" x="384.9285" y="-136.2" font-family="Times,serif" font-size="14.00" fill="#000000">fatty acid metabolic</text>
<text text-anchor="middle" x="384.9285" y="-119.4" font-family="Times,serif" font-size="14.00" fill="#000000">process</text>
</g>
<!-- GO:0045717&#45;&gt;GO:0045922 -->
<g id="edge1" class="edge">
<title>GO:0045717&#45;&gt;GO:0045922</title>
<path fill="none" stroke="#000000" d="M437.1827,-75.2472C430.8768,-84.1235 424.085,-93.6835 417.5521,-102.8791"/>
<polygon fill="#000000" stroke="#000000" points="414.5851,-101.0123 411.6468,-111.1915 420.2916,-105.0664 414.5851,-101.0123"/>
</g>
<!-- GO:0031327 -->
<g id="node3" class="node">
<title>GO:0031327</title>
<polygon fill="#ffffff" stroke="#000000" points="788.2758,-186.5003 649.5812,-186.5003 649.5812,-111.0997 788.2758,-111.0997 788.2758,-186.5003"/>
<text text-anchor="middle" x="718.9285" y="-169.8" font-family="Times,serif" font-size="14.00" fill="#000000">GO:0031327</text>
<text text-anchor="middle" x="718.9285" y="-153" font-family="Times,serif" font-size="14.00" fill="#000000">negative regulation of</text>
<text text-anchor="middle" x="718.9285" y="-136.2" font-family="Times,serif" font-size="14.00" fill="#000000">cellular biosynthetic</text>
<text text-anchor="middle" x="718.9285" y="-119.4" font-family="Times,serif" font-size="14.00" fill="#000000">process</text>
</g>
<!-- GO:0045717&#45;&gt;GO:0031327 -->
<g id="edge2" class="edge">
<title>GO:0045717&#45;&gt;GO:0031327</title>
<path fill="none" stroke="#000000" d="M534.2834,-68.2803C567.0277,-82.5593 606.1121,-99.6032 639.8732,-114.3257"/>
<polygon fill="#000000" stroke="#000000" points="638.6793,-117.6233 649.2447,-118.4124 641.4774,-111.2069 638.6793,-117.6233"/>
</g>
<!-- GO:0051055 -->
<g id="node4" class="node">
<title>GO:0051055</title>
<polygon fill="#ffffff" stroke="#000000" points="297.2758,-186.5003 158.5812,-186.5003 158.5812,-111.0997 297.2758,-111.0997 297.2758,-186.5003"/>
<text text-anchor="middle" x="227.9285" y="-169.8" font-family="Times,serif" font-size="14.00" fill="#000000">GO:0051055</text>
<text text-anchor="middle" x="227.9285" y="-153" font-family="Times,serif" font-size="14.00" fill="#000000">negative regulation of</text>
<text text-anchor="middle" x="227.9285" y="-136.2" font-family="Times,serif" font-size="14.00" fill="#000000">lipid biosynthetic</text>
<text text-anchor="middle" x="227.9285" y="-119.4" font-family="Times,serif" font-size="14.00" fill="#000000">process</text>
</g>
<!-- GO:0045717&#45;&gt;GO:0051055 -->
<g id="edge3" class="edge">
<title>GO:0045717&#45;&gt;GO:0051055</title>
<path fill="none" stroke="#000000" d="M393.5484,-70.4865C366.4556,-83.1741 335.2367,-97.8282 306.9285,-111.2 306.7311,-111.2933 306.5334,-111.3867 306.3354,-111.4802"/>
<polygon fill="#000000" stroke="#000000" points="304.8225,-108.324 297.2797,-115.7642 307.816,-114.6516 304.8225,-108.324"/>
</g>
<!-- GO:0042304 -->
<g id="node5" class="node">
<title>GO:0042304</title>
<polygon fill="#ffffff" stroke="#000000" points="615.8269,-178.2014 472.0301,-178.2014 472.0301,-119.3986 615.8269,-119.3986 615.8269,-178.2014"/>
<text text-anchor="middle" x="543.9285" y="-161.4" font-family="Times,serif" font-size="14.00" fill="#000000">GO:0042304</text>
<text text-anchor="middle" x="543.9285" y="-144.6" font-family="Times,serif" font-size="14.00" fill="#000000">regulation of fatty acid</text>
<text text-anchor="middle" x="543.9285" y="-127.8" font-family="Times,serif" font-size="14.00" fill="#000000">biosynthetic process</text>
</g>
<!-- GO:0045717&#45;&gt;GO:0042304 -->
<g id="edge4" class="edge">
<title>GO:0045717&#45;&gt;GO:0042304</title>
<path fill="none" stroke="#000000" d="M491.0129,-75.2472C499.3294,-86.8072 508.4803,-99.527 516.7998,-111.0911"/>
<polygon fill="#000000" stroke="#000000" points="514.0057,-113.2006 522.6869,-119.2742 519.688,-109.1126 514.0057,-113.2006"/>
</g>
<!-- GO:0045833 -->
<g id="node6" class="node">
<title>GO:0045833</title>
<polygon fill="#ffffff" stroke="#000000" points="145.7856,-281.0014 .0714,-281.0014 .0714,-222.1986 145.7856,-222.1986 145.7856,-281.0014"/>
<text text-anchor="middle" x="72.9285" y="-264.2" font-family="Times,serif" font-size="14.00" fill="#000000">GO:0045833</text>
<text text-anchor="middle" x="72.9285" y="-247.4" font-family="Times,serif" font-size="14.00" fill="#000000">negative regulation of</text>
<text text-anchor="middle" x="72.9285" y="-230.6" font-family="Times,serif" font-size="14.00" fill="#000000">lipid metabolic process</text>
</g>
<!-- GO:0045922&#45;&gt;GO:0045833 -->
<g id="edge5" class="edge">
<title>GO:0045922&#45;&gt;GO:0045833</title>
<path fill="none" stroke="#000000" d="M315.4775,-182.8282C312.273,-184.09 309.0799,-185.2883 305.9285,-186.4 243.7887,-208.3205 222.9469,-203.3284 155.8943,-222.2605"/>
<polygon fill="#000000" stroke="#000000" points="154.7465,-218.9491 146.1171,-225.096 156.6962,-225.6721 154.7465,-218.9491"/>
</g>
<!-- GO:0031324 -->
<g id="node7" class="node">
<title>GO:0031324</title>
<polygon fill="#ffffff" stroke="#000000" points="785.2758,-392.1003 646.5812,-392.1003 646.5812,-316.6997 785.2758,-316.6997 785.2758,-392.1003"/>
<text text-anchor="middle" x="715.9285" y="-375.4" font-family="Times,serif" font-size="14.00" fill="#000000">GO:0031324</text>
<text text-anchor="middle" x="715.9285" y="-358.6" font-family="Times,serif" font-size="14.00" fill="#000000">negative regulation of</text>
<text text-anchor="middle" x="715.9285" y="-341.8" font-family="Times,serif" font-size="14.00" fill="#000000">cellular metabolic</text>
<text text-anchor="middle" x="715.9285" y="-325" font-family="Times,serif" font-size="14.00" fill="#000000">process</text>
</g>
<!-- GO:0045922&#45;&gt;GO:0031324 -->
<g id="edge6" class="edge">
<title>GO:0045922&#45;&gt;GO:0031324</title>
<path fill="none" stroke="#000000" d="M454.3394,-183.2156C457.2201,-184.3396 460.0906,-185.407 462.9285,-186.4 530.9087,-210.1877 561.8539,-181.2011 620.9285,-222.4 646.3282,-240.1139 640.9885,-255.5595 658.9285,-280.8 665.3802,-289.8771 672.4884,-299.4001 679.4323,-308.4712"/>
<polygon fill="#000000" stroke="#000000" points="676.8608,-310.8681 685.7395,-316.6491 682.4038,-306.5931 676.8608,-310.8681"/>
</g>
<!-- GO:0019217 -->
<g id="node8" class="node">
<title>GO:0019217</title>
<polygon fill="#ffffff" stroke="#000000" points="455.8269,-281.0014 312.0301,-281.0014 312.0301,-222.1986 455.8269,-222.1986 455.8269,-281.0014"/>
<text text-anchor="middle" x="383.9285" y="-264.2" font-family="Times,serif" font-size="14.00" fill="#000000">GO:0019217</text>
<text text-anchor="middle" x="383.9285" y="-247.4" font-family="Times,serif" font-size="14.00" fill="#000000">regulation of fatty acid</text>
<text text-anchor="middle" x="383.9285" y="-230.6" font-family="Times,serif" font-size="14.00" fill="#000000">metabolic process</text>
</g>
<!-- GO:0045922&#45;&gt;GO:0019217 -->
<g id="edge7" class="edge">
<title>GO:0045922&#45;&gt;GO:0019217</title>
<path fill="none" stroke="#000000" d="M384.5618,-186.4952C384.4802,-194.8874 384.3934,-203.8054 384.3112,-212.2618"/>
<polygon fill="#000000" stroke="#000000" points="380.8112,-212.2478 384.2137,-222.2814 387.8109,-212.3159 380.8112,-212.2478"/>
</g>
<!-- GO:0031327&#45;&gt;GO:0031324 -->
<g id="edge9" class="edge">
<title>GO:0031327&#45;&gt;GO:0031324</title>
<path fill="none" stroke="#000000" d="M781.9,-186.4144C793.635,-196.531 804.283,-208.5733 810.9285,-222.4 822.1722,-245.7938 822.3542,-257.4946 810.9285,-280.8 805.6189,-291.6303 797.8624,-301.3225 789.0351,-309.8383"/>
<polygon fill="#000000" stroke="#000000" points="786.4882,-307.4218 781.3985,-316.7141 791.1721,-312.6239 786.4882,-307.4218"/>
</g>
<!-- GO:0031326 -->
<g id="node9" class="node">
<title>GO:0031326</title>
<polygon fill="#ffffff" stroke="#000000" points="801.8275,-281.0014 668.0295,-281.0014 668.0295,-222.1986 801.8275,-222.1986 801.8275,-281.0014"/>
<text text-anchor="middle" x="734.9285" y="-264.2" font-family="Times,serif" font-size="14.00" fill="#000000">GO:0031326</text>
<text text-anchor="middle" x="734.9285" y="-247.4" font-family="Times,serif" font-size="14.00" fill="#000000">regulation of cellular</text>
<text text-anchor="middle" x="734.9285" y="-230.6" font-family="Times,serif" font-size="14.00" fill="#000000">biosynthetic process</text>
</g>
<!-- GO:0031327&#45;&gt;GO:0031326 -->
<g id="edge8" class="edge">
<title>GO:0031327&#45;&gt;GO:0031326</title>
<path fill="none" stroke="#000000" d="M724.7955,-186.4952C726.1016,-194.8874 727.4897,-203.8054 728.8058,-212.2618"/>
<polygon fill="#000000" stroke="#000000" points="725.3689,-212.9386 730.3653,-222.2814 732.2857,-211.862 725.3689,-212.9386"/>
</g>
<!-- GO:0009890 -->
<g id="node10" class="node">
<title>GO:0009890</title>
<polygon fill="#ffffff" stroke="#000000" points="612.2758,-281.0014 473.5812,-281.0014 473.5812,-222.1986 612.2758,-222.1986 612.2758,-281.0014"/>
<text text-anchor="middle" x="542.9285" y="-264.2" font-family="Times,serif" font-size="14.00" fill="#000000">GO:0009890</text>
<text text-anchor="middle" x="542.9285" y="-247.4" font-family="Times,serif" font-size="14.00" fill="#000000">negative regulation of</text>
<text text-anchor="middle" x="542.9285" y="-230.6" font-family="Times,serif" font-size="14.00" fill="#000000">biosynthetic process</text>
</g>
<!-- GO:0031327&#45;&gt;GO:0009890 -->
<g id="edge10" class="edge">
<title>GO:0031327&#45;&gt;GO:0009890</title>
<path fill="none" stroke="#000000" d="M654.392,-186.4952C637.182,-196.5474 618.6805,-207.354 601.7926,-217.218"/>
<polygon fill="#000000" stroke="#000000" points="599.9935,-214.2155 593.1238,-222.2814 603.524,-220.26 599.9935,-214.2155"/>
</g>
<!-- GO:0051055&#45;&gt;GO:0045833 -->
<g id="edge11" class="edge">
<title>GO:0051055&#45;&gt;GO:0045833</title>
<path fill="none" stroke="#000000" d="M171.0924,-186.4952C156.214,-196.3629 140.2394,-206.9577 125.5891,-216.6741"/>
<polygon fill="#000000" stroke="#000000" points="123.5338,-213.8374 117.1346,-222.2814 127.4029,-219.671 123.5338,-213.8374"/>
</g>
<!-- GO:0051055&#45;&gt;GO:0009890 -->
<g id="edge12" class="edge">
<title>GO:0051055&#45;&gt;GO:0009890</title>
<path fill="none" stroke="#000000" d="M297.3656,-182.8678C300.5739,-184.1189 303.7716,-185.3041 306.9285,-186.4 372.044,-209.0041 394.048,-202.3817 463.6712,-222.1901"/>
<polygon fill="#000000" stroke="#000000" points="462.7645,-225.5715 473.3452,-225.023 464.7319,-218.8537 462.7645,-225.5715"/>
</g>
<!-- GO:0046890 -->
<g id="node11" class="node">
<title>GO:0046890</title>
<polygon fill="#ffffff" stroke="#000000" points="293.8437,-281.0014 164.0133,-281.0014 164.0133,-222.1986 293.8437,-222.1986 293.8437,-281.0014"/>
<text text-anchor="middle" x="228.9285" y="-264.2" font-family="Times,serif" font-size="14.00" fill="#000000">GO:0046890</text>
<text text-anchor="middle" x="228.9285" y="-247.4" font-family="Times,serif" font-size="14.00" fill="#000000">regulation of lipid</text>
<text text-anchor="middle" x="228.9285" y="-230.6" font-family="Times,serif" font-size="14.00" fill="#000000">biosynthetic process</text>
</g>
<!-- GO:0051055&#45;&gt;GO:0046890 -->
<g id="edge13" class="edge">
<title>GO:0051055&#45;&gt;GO:0046890</title>
<path fill="none" stroke="#000000" d="M228.2952,-186.4952C228.3768,-194.8874 228.4636,-203.8054 228.5458,-212.2618"/>
<polygon fill="#000000" stroke="#000000" points="225.0461,-212.3159 228.6433,-222.2814 232.0458,-212.2478 225.0461,-212.3159"/>
</g>
<!-- GO:0042304&#45;&gt;GO:0019217 -->
<g id="edge15" class="edge">
<title>GO:0042304&#45;&gt;GO:0019217</title>
<path fill="none" stroke="#000000" d="M498.0789,-178.2584C479.3365,-190.3004 457.5155,-204.3204 438.0019,-216.8578"/>
<polygon fill="#000000" stroke="#000000" points="436.0292,-213.9651 429.508,-222.3152 439.813,-219.8543 436.0292,-213.9651"/>
</g>
<!-- GO:0042304&#45;&gt;GO:0031326 -->
<g id="edge14" class="edge">
<title>GO:0042304&#45;&gt;GO:0031326</title>
<path fill="none" stroke="#000000" d="M598.4058,-178.1208C621.1867,-190.3819 647.8126,-204.7125 671.471,-217.4459"/>
<polygon fill="#000000" stroke="#000000" points="669.9144,-220.5828 680.3788,-222.2403 673.232,-214.4189 669.9144,-220.5828"/>
</g>
<!-- GO:0042304&#45;&gt;GO:0046890 -->
<g id="edge16" class="edge">
<title>GO:0042304&#45;&gt;GO:0046890</title>
<path fill="none" stroke="#000000" d="M484.3563,-178.1828C477.2245,-181.1829 469.9737,-184.0029 462.9285,-186.4 396.8894,-208.8693 374.5137,-201.6657 303.9132,-222.2977"/>
<polygon fill="#000000" stroke="#000000" points="302.6707,-219.0165 294.1038,-225.2502 304.6883,-225.7194 302.6707,-219.0165"/>
</g>
<!-- GO:0009892 -->
<g id="node12" class="node">
<title>GO:0009892</title>
<polygon fill="#ffffff" stroke="#000000" points="631.2758,-486.6014 492.5812,-486.6014 492.5812,-427.7986 631.2758,-427.7986 631.2758,-486.6014"/>
<text text-anchor="middle" x="561.9285" y="-469.8" font-family="Times,serif" font-size="14.00" fill="#000000">GO:0009892</text>
<text text-anchor="middle" x="561.9285" y="-453" font-family="Times,serif" font-size="14.00" fill="#000000">negative regulation of</text>
<text text-anchor="middle" x="561.9285" y="-436.2" font-family="Times,serif" font-size="14.00" fill="#000000">metabolic process</text>
</g>
<!-- GO:0045833&#45;&gt;GO:0009892 -->
<g id="edge17" class="edge">
<title>GO:0045833&#45;&gt;GO:0009892</title>
<path fill="none" stroke="#000000" d="M78.6838,-280.9587C86.7045,-313.5547 104.5615,-365.1089 140.9285,-392 144.3539,-394.5329 361.0893,-427.2175 482.1953,-445.3228"/>
<polygon fill="#000000" stroke="#000000" points="481.768,-448.7977 492.1755,-446.8141 482.8026,-441.8746 481.768,-448.7977"/>
</g>
<!-- GO:0019216 -->
<g id="node13" class="node">
<title>GO:0019216</title>
<polygon fill="#ffffff" stroke="#000000" points="267.5225,-383.8014 150.3345,-383.8014 150.3345,-324.9986 267.5225,-324.9986 267.5225,-383.8014"/>
<text text-anchor="middle" x="208.9285" y="-367" font-family="Times,serif" font-size="14.00" fill="#000000">GO:0019216</text>
<text text-anchor="middle" x="208.9285" y="-350.2" font-family="Times,serif" font-size="14.00" fill="#000000">regulation of lipid</text>
<text text-anchor="middle" x="208.9285" y="-333.4" font-family="Times,serif" font-size="14.00" fill="#000000">metabolic process</text>
</g>
<!-- GO:0045833&#45;&gt;GO:0019216 -->
<g id="edge18" class="edge">
<title>GO:0045833&#45;&gt;GO:0019216</title>
<path fill="none" stroke="#000000" d="M111.9006,-281.0584C127.4077,-292.7798 145.3941,-306.3754 161.6376,-318.6536"/>
<polygon fill="#000000" stroke="#000000" points="159.8627,-321.6994 169.9507,-324.9373 164.0837,-316.1152 159.8627,-321.6994"/>
</g>
<!-- GO:0031324&#45;&gt;GO:0009892 -->
<g id="edge20" class="edge">
<title>GO:0031324&#45;&gt;GO:0009892</title>
<path fill="none" stroke="#000000" d="M659.459,-392.0952C644.6766,-401.9629 628.8052,-412.5577 614.2494,-422.2741"/>
<polygon fill="#000000" stroke="#000000" points="612.2234,-419.4183 605.8494,-427.8814 616.1098,-425.2404 612.2234,-419.4183"/>
</g>
<!-- GO:0031323 -->
<g id="node14" class="node">
<title>GO:0031323</title>
<polygon fill="#ffffff" stroke="#000000" points="782.8275,-486.6014 649.0295,-486.6014 649.0295,-427.7986 782.8275,-427.7986 782.8275,-486.6014"/>
<text text-anchor="middle" x="715.9285" y="-469.8" font-family="Times,serif" font-size="14.00" fill="#000000">GO:0031323</text>
<text text-anchor="middle" x="715.9285" y="-453" font-family="Times,serif" font-size="14.00" fill="#000000">regulation of cellular</text>
<text text-anchor="middle" x="715.9285" y="-436.2" font-family="Times,serif" font-size="14.00" fill="#000000">metabolic process</text>
</g>
<!-- GO:0031324&#45;&gt;GO:0031323 -->
<g id="edge19" class="edge">
<title>GO:0031324&#45;&gt;GO:0031323</title>
<path fill="none" stroke="#000000" d="M715.9285,-392.0952C715.9285,-400.4874 715.9285,-409.4054 715.9285,-417.8618"/>
<polygon fill="#000000" stroke="#000000" points="712.4286,-417.8813 715.9285,-427.8814 719.4286,-417.8814 712.4286,-417.8813"/>
</g>
<!-- GO:0048523 -->
<g id="node15" class="node">
<title>GO:0048523</title>
<polygon fill="#ffffff" stroke="#000000" points="939.2758,-486.6014 800.5812,-486.6014 800.5812,-427.7986 939.2758,-427.7986 939.2758,-486.6014"/>
<text text-anchor="middle" x="869.9285" y="-469.8" font-family="Times,serif" font-size="14.00" fill="#000000">GO:0048523</text>
<text text-anchor="middle" x="869.9285" y="-453" font-family="Times,serif" font-size="14.00" fill="#000000">negative regulation of</text>
<text text-anchor="middle" x="869.9285" y="-436.2" font-family="Times,serif" font-size="14.00" fill="#000000">cellular process</text>
</g>
<!-- GO:0031324&#45;&gt;GO:0048523 -->
<g id="edge21" class="edge">
<title>GO:0031324&#45;&gt;GO:0048523</title>
<path fill="none" stroke="#000000" d="M772.398,-392.0952C787.1804,-401.9629 803.0518,-412.5577 817.6076,-422.2741"/>
<polygon fill="#000000" stroke="#000000" points="815.7472,-425.2404 826.0076,-427.8814 819.6336,-419.4183 815.7472,-425.2404"/>
</g>
<!-- GO:0019217&#45;&gt;GO:0019216 -->
<g id="edge23" class="edge">
<title>GO:0019217&#45;&gt;GO:0019216</title>
<path fill="none" stroke="#000000" d="M333.7805,-281.0584C313.0972,-293.2084 288.9859,-307.372 267.4976,-319.9948"/>
<polygon fill="#000000" stroke="#000000" points="265.6306,-317.0323 258.781,-325.1152 269.1762,-323.068 265.6306,-317.0323"/>
</g>
<!-- GO:0010565 -->
<g id="node16" class="node">
<title>GO:0010565</title>
<polygon fill="#ffffff" stroke="#000000" points="442.4343,-383.8014 285.4227,-383.8014 285.4227,-324.9986 442.4343,-324.9986 442.4343,-383.8014"/>
<text text-anchor="middle" x="363.9285" y="-367" font-family="Times,serif" font-size="14.00" fill="#000000">GO:0010565</text>
<text text-anchor="middle" x="363.9285" y="-350.2" font-family="Times,serif" font-size="14.00" fill="#000000">regulation of cellular</text>
<text text-anchor="middle" x="363.9285" y="-333.4" font-family="Times,serif" font-size="14.00" fill="#000000">ketone metabolic process</text>
</g>
<!-- GO:0019217&#45;&gt;GO:0010565 -->
<g id="edge22" class="edge">
<title>GO:0019217&#45;&gt;GO:0010565</title>
<path fill="none" stroke="#000000" d="M378.1973,-281.0584C376.147,-291.5969 373.802,-303.6505 371.6134,-314.8994"/>
<polygon fill="#000000" stroke="#000000" points="368.1347,-314.453 369.6605,-324.9373 375.0059,-315.7898 368.1347,-314.453"/>
</g>
<!-- GO:0031326&#45;&gt;GO:0031323 -->
<g id="edge25" class="edge">
<title>GO:0031326&#45;&gt;GO:0031323</title>
<path fill="none" stroke="#000000" d="M770.0185,-281.1251C779.642,-291.3248 788.8242,-303.5519 793.9285,-316.8 805.9447,-347.9874 808.0818,-361.7225 793.9285,-392 788.7901,-402.9924 780.7861,-412.783 771.8262,-421.2245"/>
<polygon fill="#000000" stroke="#000000" points="769.3212,-418.7662 764.117,-427.9948 773.9404,-424.0259 769.3212,-418.7662"/>
</g>
<!-- GO:0009889 -->
<g id="node17" class="node">
<title>GO:0009889</title>
<polygon fill="#ffffff" stroke="#000000" points="590.8437,-383.8014 461.0133,-383.8014 461.0133,-324.9986 590.8437,-324.9986 590.8437,-383.8014"/>
<text text-anchor="middle" x="525.9285" y="-367" font-family="Times,serif" font-size="14.00" fill="#000000">GO:0009889</text>
<text text-anchor="middle" x="525.9285" y="-350.2" font-family="Times,serif" font-size="14.00" fill="#000000">regulation of</text>
<text text-anchor="middle" x="525.9285" y="-333.4" font-family="Times,serif" font-size="14.00" fill="#000000">biosynthetic process</text>
</g>
<!-- GO:0031326&#45;&gt;GO:0009889 -->
<g id="edge24" class="edge">
<title>GO:0031326&#45;&gt;GO:0009889</title>
<path fill="none" stroke="#000000" d="M675.3172,-280.9208C650.1698,-293.2899 620.7405,-307.7652 594.6828,-320.5821"/>
<polygon fill="#000000" stroke="#000000" points="593.0475,-317.4859 585.619,-325.0403 596.1371,-323.7672 593.0475,-317.4859"/>
</g>
<!-- GO:0009890&#45;&gt;GO:0009892 -->
<g id="edge27" class="edge">
<title>GO:0009890&#45;&gt;GO:0009892</title>
<path fill="none" stroke="#000000" d="M576.5484,-280.9883C585.9556,-291.2637 594.9604,-303.5689 599.9285,-316.8 611.6772,-348.0892 608.6449,-359.7344 599.9285,-392 597.4179,-401.2935 593.2181,-410.6233 588.5055,-419.203"/>
<polygon fill="#000000" stroke="#000000" points="585.4822,-417.4398 583.4582,-427.8395 591.5258,-420.9718 585.4822,-417.4398"/>
</g>
<!-- GO:0009890&#45;&gt;GO:0009889 -->
<g id="edge26" class="edge">
<title>GO:0009890&#45;&gt;GO:0009889</title>
<path fill="none" stroke="#000000" d="M538.057,-281.0584C536.3142,-291.5969 534.3209,-303.6505 532.4607,-314.8994"/>
<polygon fill="#000000" stroke="#000000" points="528.9792,-314.5003 530.8007,-324.9373 535.8855,-315.6424 528.9792,-314.5003"/>
</g>
<!-- GO:0046890&#45;&gt;GO:0019216 -->
<g id="edge29" class="edge">
<title>GO:0046890&#45;&gt;GO:0019216</title>
<path fill="none" stroke="#000000" d="M223.1973,-281.0584C221.147,-291.5969 218.802,-303.6505 216.6134,-314.8994"/>
<polygon fill="#000000" stroke="#000000" points="213.1347,-314.453 214.6605,-324.9373 220.0059,-315.7898 213.1347,-314.453"/>
</g>
<!-- GO:0046890&#45;&gt;GO:0009889 -->
<g id="edge28" class="edge">
<title>GO:0046890&#45;&gt;GO:0009889</title>
<path fill="none" stroke="#000000" d="M294.1217,-277.8925C297.0861,-278.9086 300.0316,-279.8834 302.9285,-280.8 367.8821,-301.3527 388.0155,-293.2095 451.9285,-316.8 455.3758,-318.0724 458.8707,-319.4644 462.3693,-320.9396"/>
<polygon fill="#000000" stroke="#000000" points="461.047,-324.1816 471.6091,-325.0134 463.871,-317.7765 461.047,-324.1816"/>
</g>
<!-- GO:0048519 -->
<g id="node18" class="node">
<title>GO:0048519</title>
<polygon fill="#ffffff" stroke="#000000" points="740.2758,-581.0014 601.5812,-581.0014 601.5812,-522.1986 740.2758,-522.1986 740.2758,-581.0014"/>
<text text-anchor="middle" x="670.9285" y="-564.2" font-family="Times,serif" font-size="14.00" fill="#000000">GO:0048519</text>
<text text-anchor="middle" x="670.9285" y="-547.4" font-family="Times,serif" font-size="14.00" fill="#000000">negative regulation of</text>
<text text-anchor="middle" x="670.9285" y="-530.6" font-family="Times,serif" font-size="14.00" fill="#000000">biological process</text>
</g>
<!-- GO:0009892&#45;&gt;GO:0048519 -->
<g id="edge30" class="edge">
<title>GO:0009892&#45;&gt;GO:0048519</title>
<path fill="none" stroke="#000000" d="M595.8193,-486.5513C606.3799,-495.6973 618.1512,-505.892 629.1837,-515.4467"/>
<polygon fill="#000000" stroke="#000000" points="627.2081,-518.3659 637.0587,-522.2669 631.7908,-513.0744 627.2081,-518.3659"/>
</g>
<!-- GO:0019222 -->
<g id="node19" class="node">
<title>GO:0019222</title>
<polygon fill="#ffffff" stroke="#000000" points="583.0574,-581.0014 436.7996,-581.0014 436.7996,-522.1986 583.0574,-522.1986 583.0574,-581.0014"/>
<text text-anchor="middle" x="509.9285" y="-564.2" font-family="Times,serif" font-size="14.00" fill="#000000">GO:0019222</text>
<text text-anchor="middle" x="509.9285" y="-547.4" font-family="Times,serif" font-size="14.00" fill="#000000">regulation of metabolic</text>
<text text-anchor="middle" x="509.9285" y="-530.6" font-family="Times,serif" font-size="14.00" fill="#000000">process</text>
</g>
<!-- GO:0009892&#45;&gt;GO:0019222 -->
<g id="edge31" class="edge">
<title>GO:0009892&#45;&gt;GO:0019222</title>
<path fill="none" stroke="#000000" d="M545.7604,-486.5513C541.0647,-495.0758 535.8673,-504.5111 530.9211,-513.4904"/>
<polygon fill="#000000" stroke="#000000" points="527.8459,-511.8191 526.0866,-522.2669 533.9772,-515.1966 527.8459,-511.8191"/>
</g>
<!-- GO:0080090 -->
<g id="node20" class="node">
<title>GO:0080090</title>
<polygon fill="#ffffff" stroke="#000000" points="356.668,-486.6014 221.189,-486.6014 221.189,-427.7986 356.668,-427.7986 356.668,-486.6014"/>
<text text-anchor="middle" x="288.9285" y="-469.8" font-family="Times,serif" font-size="14.00" fill="#000000">GO:0080090</text>
<text text-anchor="middle" x="288.9285" y="-453" font-family="Times,serif" font-size="14.00" fill="#000000">regulation of primary</text>
<text text-anchor="middle" x="288.9285" y="-436.2" font-family="Times,serif" font-size="14.00" fill="#000000">metabolic process</text>
</g>
<!-- GO:0019216&#45;&gt;GO:0080090 -->
<g id="edge32" class="edge">
<title>GO:0019216&#45;&gt;GO:0080090</title>
<path fill="none" stroke="#000000" d="M231.8533,-383.8584C240.5566,-395.0421 250.5877,-407.9321 259.7892,-419.756"/>
<polygon fill="#000000" stroke="#000000" points="257.0966,-421.995 266.0004,-427.7373 262.621,-417.6959 257.0966,-421.995"/>
</g>
<!-- GO:0031323&#45;&gt;GO:0019222 -->
<g id="edge33" class="edge">
<title>GO:0031323&#45;&gt;GO:0019222</title>
<path fill="none" stroke="#000000" d="M652.1596,-486.4223C630.2461,-496.4642 605.5473,-507.7825 582.9558,-518.1351"/>
<polygon fill="#000000" stroke="#000000" points="581.3836,-515.0055 573.7507,-522.3533 584.2998,-521.3691 581.3836,-515.0055"/>
</g>
<!-- GO:0050794 -->
<g id="node21" class="node">
<title>GO:0050794</title>
<polygon fill="#ffffff" stroke="#000000" points="891.8275,-581.0014 758.0295,-581.0014 758.0295,-522.1986 891.8275,-522.1986 891.8275,-581.0014"/>
<text text-anchor="middle" x="824.9285" y="-564.2" font-family="Times,serif" font-size="14.00" fill="#000000">GO:0050794</text>
<text text-anchor="middle" x="824.9285" y="-547.4" font-family="Times,serif" font-size="14.00" fill="#000000">regulation of cellular</text>
<text text-anchor="middle" x="824.9285" y="-530.6" font-family="Times,serif" font-size="14.00" fill="#000000">process</text>
</g>
<!-- GO:0031323&#45;&gt;GO:0050794 -->
<g id="edge34" class="edge">
<title>GO:0031323&#45;&gt;GO:0050794</title>
<path fill="none" stroke="#000000" d="M749.8193,-486.5513C760.3799,-495.6973 772.1512,-505.892 783.1837,-515.4467"/>
<polygon fill="#000000" stroke="#000000" points="781.2081,-518.3659 791.0587,-522.2669 785.7908,-513.0744 781.2081,-518.3659"/>
</g>
<!-- GO:0048523&#45;&gt;GO:0048519 -->
<g id="edge35" class="edge">
<title>GO:0048523&#45;&gt;GO:0048519</title>
<path fill="none" stroke="#000000" d="M808.3265,-486.4223C787.2517,-496.4195 763.5102,-507.6819 741.7654,-517.997"/>
<polygon fill="#000000" stroke="#000000" points="740.1169,-514.9051 732.582,-522.3533 743.1171,-521.2296 740.1169,-514.9051"/>
</g>
<!-- GO:0048523&#45;&gt;GO:0050794 -->
<g id="edge36" class="edge">
<title>GO:0048523&#45;&gt;GO:0050794</title>
<path fill="none" stroke="#000000" d="M855.9369,-486.5513C851.9156,-494.987 847.4692,-504.3147 843.229,-513.2096"/>
<polygon fill="#000000" stroke="#000000" points="840.0552,-511.7339 838.9115,-522.2669 846.374,-514.7461 840.0552,-511.7339"/>
</g>
<!-- GO:0010565&#45;&gt;GO:0031323 -->
<g id="edge37" class="edge">
<title>GO:0010565&#45;&gt;GO:0031323</title>
<path fill="none" stroke="#000000" d="M428.2194,-383.7294C436.1137,-386.776 444.1429,-389.6215 451.9285,-392 530.2708,-415.9337 556.2006,-405.5069 639.1591,-427.9981"/>
<polygon fill="#000000" stroke="#000000" points="638.4381,-431.4306 649.011,-430.749 640.3208,-424.6885 638.4381,-431.4306"/>
</g>
<!-- GO:0009889&#45;&gt;GO:0019222 -->
<g id="edge38" class="edge">
<title>GO:0009889&#45;&gt;GO:0019222</title>
<path fill="none" stroke="#000000" d="M504.5766,-383.6482C496.4156,-396.5693 488.0776,-412.3578 483.9285,-428 477.2739,-453.088 479.0336,-460.9102 483.9285,-486.4 485.615,-495.1822 488.471,-504.2869 491.6875,-512.8077"/>
<polygon fill="#000000" stroke="#000000" points="488.4565,-514.1543 495.429,-522.1314 494.9529,-511.5473 488.4565,-514.1543"/>
</g>
<!-- GO:0065007 -->
<g id="node22" class="node">
<title>GO:0065007</title>
<polygon fill="#ffffff" stroke="#000000" points="854.1819,-666.6019 721.6751,-666.6019 721.6751,-625.3981 854.1819,-625.3981 854.1819,-666.6019"/>
<text text-anchor="middle" x="787.9285" y="-650.2" font-family="Times,serif" font-size="14.00" fill="#000000">GO:0065007</text>
<text text-anchor="middle" x="787.9285" y="-633.4" font-family="Times,serif" font-size="14.00" fill="#000000">biological regulation</text>
</g>
<!-- GO:0048519&#45;&gt;GO:0065007 -->
<g id="edge39" class="edge">
<title>GO:0048519&#45;&gt;GO:0065007</title>
<path fill="none" stroke="#000000" d="M707.3067,-580.9513C722.3622,-593.0987 739.7103,-607.0958 754.448,-618.9867"/>
<polygon fill="#000000" stroke="#000000" points="752.3555,-621.7955 762.336,-625.351 756.7511,-616.3477 752.3555,-621.7955"/>
</g>
<!-- GO:0050789 -->
<g id="node23" class="node">
<title>GO:0050789</title>
<polygon fill="#ffffff" stroke="#000000" points="703.8429,-675.4014 556.0141,-675.4014 556.0141,-616.5986 703.8429,-616.5986 703.8429,-675.4014"/>
<text text-anchor="middle" x="629.9285" y="-658.6" font-family="Times,serif" font-size="14.00" fill="#000000">GO:0050789</text>
<text text-anchor="middle" x="629.9285" y="-641.8" font-family="Times,serif" font-size="14.00" fill="#000000">regulation of biological</text>
<text text-anchor="middle" x="629.9285" y="-625" font-family="Times,serif" font-size="14.00" fill="#000000">process</text>
</g>
<!-- GO:0048519&#45;&gt;GO:0050789 -->
<g id="edge40" class="edge">
<title>GO:0048519&#45;&gt;GO:0050789</title>
<path fill="none" stroke="#000000" d="M658.1806,-580.9513C654.5554,-589.2982 650.5508,-598.5184 646.7244,-607.3286"/>
<polygon fill="#000000" stroke="#000000" points="643.442,-606.1003 642.6685,-616.6669 649.8626,-608.8889 643.442,-606.1003"/>
</g>
<!-- GO:0019222&#45;&gt;GO:0065007 -->
<g id="edge41" class="edge">
<title>GO:0019222&#45;&gt;GO:0065007</title>
<path fill="none" stroke="#000000" d="M583.1856,-577.5814C586.474,-578.6817 589.7331,-579.7592 592.9285,-580.8 645.8726,-598.0442 660.276,-598.6848 712.9285,-616.8 717.4786,-618.3655 722.1618,-620.0382 726.8598,-621.7609"/>
<polygon fill="#000000" stroke="#000000" points="725.8936,-625.136 736.4863,-625.3491 728.3385,-618.5768 725.8936,-625.136"/>
</g>
<!-- GO:0019222&#45;&gt;GO:0050789 -->
<g id="edge42" class="edge">
<title>GO:0019222&#45;&gt;GO:0050789</title>
<path fill="none" stroke="#000000" d="M547.2395,-580.9513C559.0916,-590.2749 572.3289,-600.6883 584.6776,-610.4026"/>
<polygon fill="#000000" stroke="#000000" points="582.617,-613.2348 592.6406,-616.6669 586.9451,-607.7331 582.617,-613.2348"/>
</g>
<!-- GO:0080090&#45;&gt;GO:0019222 -->
<g id="edge43" class="edge">
<title>GO:0080090&#45;&gt;GO:0019222</title>
<path fill="none" stroke="#000000" d="M356.7377,-486.1646C380.5896,-496.353 407.5776,-507.8809 432.1833,-518.3912"/>
<polygon fill="#000000" stroke="#000000" points="430.9145,-521.6551 441.4855,-522.3646 433.6642,-515.2178 430.9145,-521.6551"/>
</g>
<!-- GO:0050794&#45;&gt;GO:0065007 -->
<g id="edge44" class="edge">
<title>GO:0050794&#45;&gt;GO:0065007</title>
<path fill="none" stroke="#000000" d="M813.4243,-580.9513C809.0599,-592.0864 804.0863,-604.7758 799.6978,-615.9724"/>
<polygon fill="#000000" stroke="#000000" points="796.4125,-614.7633 796.0219,-625.351 802.9298,-617.3178 796.4125,-614.7633"/>
</g>
<!-- GO:0050794&#45;&gt;GO:0050789 -->
<g id="edge45" class="edge">
<title>GO:0050794&#45;&gt;GO:0050789</title>
<path fill="none" stroke="#000000" d="M764.5647,-580.8223C744.0058,-590.7749 720.8569,-601.9813 699.627,-612.2588"/>
<polygon fill="#000000" stroke="#000000" points="697.8185,-609.2457 690.3428,-616.7533 700.8686,-615.5462 697.8185,-609.2457"/>
</g>
<!-- GO:0008150 -->
<g id="node24" class="node">
<title>GO:0008150</title>
<polygon fill="#ffffff" stroke="#000000" points="928.3991,-752.6019 807.4579,-752.6019 807.4579,-711.3981 928.3991,-711.3981 928.3991,-752.6019"/>
<text text-anchor="middle" x="867.9285" y="-736.2" font-family="Times,serif" font-size="14.00" fill="#000000">GO:0008150</text>
<text text-anchor="middle" x="867.9285" y="-719.4" font-family="Times,serif" font-size="14.00" fill="#000000">biological_process</text>
</g>
<!-- GO:0065007&#45;&gt;GO:0008150 -->
<g id="edge46" class="edge">
<title>GO:0065007&#45;&gt;GO:0008150</title>
<path fill="none" stroke="#000000" d="M807.2943,-666.8182C817.6122,-677.9099 830.4524,-691.7132 841.6571,-703.7583"/>
<polygon fill="#000000" stroke="#000000" points="839.3673,-706.4355 848.7411,-711.3735 844.4927,-701.6677 839.3673,-706.4355"/>
</g>
<!-- GO:0050789&#45;&gt;GO:0008150 -->
<g id="edge47" class="edge">
<title>GO:0050789&#45;&gt;GO:0008150</title>
<path fill="none" stroke="#000000" d="M703.9286,-672.7395C734.9574,-683.9516 770.7731,-696.8934 801.0036,-707.817"/>
<polygon fill="#000000" stroke="#000000" points="800.0149,-711.1812 810.6092,-711.288 802.3938,-704.5978 800.0149,-711.1812"/>
</g>
<!-- GO:0044699 -->
<g id="node25" class="node">
<title>GO:0044699</title>
<polygon fill="#00ff00" stroke="#000000" points="1023.6098,-666.6019 872.2472,-666.6019 872.2472,-625.3981 1023.6098,-625.3981 1023.6098,-666.6019"/>
<text text-anchor="middle" x="947.9285" y="-650.2" font-family="Times,serif" font-size="14.00" fill="#000000">GO:0044699</text>
<text text-anchor="middle" x="947.9285" y="-633.4" font-family="Times,serif" font-size="14.00" fill="#000000">single&#45;organism process</text>
</g>
<!-- GO:0044699&#45;&gt;GO:0008150 -->
<g id="edge48" class="edge">
<title>GO:0044699&#45;&gt;GO:0008150</title>
<path fill="none" stroke="#000000" d="M928.5627,-666.8182C918.2448,-677.9099 905.4046,-691.7132 894.1999,-703.7583"/>
<polygon fill="#000000" stroke="#000000" points="891.3643,-701.6677 887.1159,-711.3735 896.4897,-706.4355 891.3643,-701.6677"/>
</g>
<!-- GO:0009987 -->
<g id="node26" class="node">
<title>GO:0009987</title>
<polygon fill="#ffff00" stroke="#000000" points="1145.8847,-666.6019 1041.9723,-666.6019 1041.9723,-625.3981 1145.8847,-625.3981 1145.8847,-666.6019"/>
<text text-anchor="middle" x="1093.9285" y="-650.2" font-family="Times,serif" font-size="14.00" fill="#000000">GO:0009987</text>
<text text-anchor="middle" x="1093.9285" y="-633.4" font-family="Times,serif" font-size="14.00" fill="#000000">cellular process</text>
</g>
<!-- GO:0009987&#45;&gt;GO:0008150 -->
<g id="edge49" class="edge">
<title>GO:0009987&#45;&gt;GO:0008150</title>
<path fill="none" stroke="#000000" d="M1052.2112,-666.7477C1045.8066,-669.7061 1039.2296,-672.6173 1032.9285,-675.2 1002.3284,-687.7424 967.8238,-699.916 938.3082,-709.7548"/>
<polygon fill="#000000" stroke="#000000" points="936.8971,-706.535 928.5027,-712.9991 939.0959,-713.1807 936.8971,-706.535"/>
</g>
<!-- GO:0044763 -->
<g id="node27" class="node">
<title>GO:0044763</title>
<polygon fill="#00ffff" stroke="#000000" points="1133.607,-581.0014 982.25,-581.0014 982.25,-522.1986 1133.607,-522.1986 1133.607,-581.0014"/>
<text text-anchor="middle" x="1057.9285" y="-564.2" font-family="Times,serif" font-size="14.00" fill="#000000">GO:0044763</text>
<text text-anchor="middle" x="1057.9285" y="-547.4" font-family="Times,serif" font-size="14.00" fill="#000000">single&#45;organism cellular</text>
<text text-anchor="middle" x="1057.9285" y="-530.6" font-family="Times,serif" font-size="14.00" fill="#000000">process</text>
</g>
<!-- GO:0044763&#45;&gt;GO:0044699 -->
<g id="edge51" class="edge">
<title>GO:0044763&#45;&gt;GO:0044699</title>
<path fill="none" stroke="#000000" d="M1023.7268,-580.9513C1009.7031,-592.9862 993.5637,-606.8367 979.7914,-618.6559"/>
<polygon fill="#000000" stroke="#000000" points="977.2992,-616.1825 971.9899,-625.351 981.8579,-621.4945 977.2992,-616.1825"/>
</g>
<!-- GO:0044763&#45;&gt;GO:0009987 -->
<g id="edge50" class="edge">
<title>GO:0044763&#45;&gt;GO:0009987</title>
<path fill="none" stroke="#000000" d="M1069.1218,-580.9513C1073.3682,-592.0864 1078.2074,-604.7758 1082.4773,-615.9724"/>
<polygon fill="#000000" stroke="#000000" points="1079.2203,-617.2545 1086.0539,-625.351 1085.7608,-614.7602 1079.2203,-617.2545"/>
</g>
</g>
</svg>
