<?xml version="1.0" encoding="UTF-8" standalone="no"?>
<!DOCTYPE svg PUBLIC "-//W3C//DTD SVG 1.1//EN"
 "http://www.w3.org/Graphics/SVG/1.1/DTD/svg11.dtd">
<!-- Generated by graphviz version 2.40.1 (20161225.0304)
 -->
<!-- Title: G Pages: 1 -->
<svg width="1208pt" height="505pt"
 viewBox="0.00 0.00 1207.52 504.80" xmlns="http://www.w3.org/2000/svg" xmlns:xlink="http://www.w3.org/1999/xlink">
<g id="graph0" class="graph" transform="scale(1 1) rotate(0) translate(4 500.8)">
<title>G</title>
<polygon fill="#ffffff" stroke="transparent" points="-4,4 -4,-500.8 1203.5204,-500.8 1203.5204,4 -4,4"/>
<!-- GO:0044877 -->
<g id="node1" class="node">
<title>GO:0044877</title>
<polygon fill="#ffff00" stroke="#000000" points="773.0867,-325.0014 614.7521,-325.0014 614.7521,-266.1986 773.0867,-266.1986 773.0867,-325.0014"/>
<text text-anchor="middle" x="693.9194" y="-308.2" font-family="Times,serif" font-size="14.00" fill="#000000">GO:0044877</text>
<text text-anchor="middle" x="693.9194" y="-291.4" font-family="Times,serif" font-size="14.00" fill="#000000">macromolecular complex</text>
<text text-anchor="middle" x="693.9194" y="-274.6" font-family="Times,serif" font-size="14.00" fill="#000000">binding</text>
</g>
<!-- GO:0005488 -->
<g id="node2" class="node">
<title>GO:0005488</title>
<polygon fill="#ffffff" stroke="#000000" points="566.5233,-410.6019 477.3155,-410.6019 477.3155,-369.3981 566.5233,-369.3981 566.5233,-410.6019"/>
<text text-anchor="middle" x="521.9194" y="-394.2" font-family="Times,serif" font-size="14.00" fill="#000000">GO:0005488</text>
<text text-anchor="middle" x="521.9194" y="-377.4" font-family="Times,serif" font-size="14.00" fill="#000000">binding</text>
</g>
<!-- GO:0044877&#45;&gt;GO:0005488 -->
<g id="edge1" class="edge">
<title>GO:0044877&#45;&gt;GO:0005488</title>
<path fill="none" stroke="#000000" d="M640.4404,-324.9513C617.3852,-337.6048 590.6731,-352.2654 568.4508,-364.4618"/>
<polygon fill="#000000" stroke="#000000" points="566.6251,-361.4713 559.5426,-369.351 569.9931,-367.6078 566.6251,-361.4713"/>
</g>
<!-- GO:0003674 -->
<g id="node3" class="node">
<title>GO:0003674</title>
<polygon fill="#ffffff" stroke="#000000" points="445.5525,-496.6019 320.2863,-496.6019 320.2863,-455.3981 445.5525,-455.3981 445.5525,-496.6019"/>
<text text-anchor="middle" x="382.9194" y="-480.2" font-family="Times,serif" font-size="14.00" fill="#000000">GO:0003674</text>
<text text-anchor="middle" x="382.9194" y="-463.4" font-family="Times,serif" font-size="14.00" fill="#000000">molecular_function</text>
</g>
<!-- GO:0005488&#45;&gt;GO:0003674 -->
<g id="edge2" class="edge">
<title>GO:0005488&#45;&gt;GO:0003674</title>
<path fill="none" stroke="#000000" d="M488.2714,-410.8182C469.2343,-422.5966 445.2551,-437.4326 424.9848,-449.9739"/>
<polygon fill="#000000" stroke="#000000" points="422.92,-447.1356 416.2576,-455.3735 426.603,-453.0884 422.92,-447.1356"/>
</g>
<!-- GO:0034235 -->
<g id="node4" class="node">
<title>GO:0034235</title>
<polygon fill="#ff0000" stroke="#000000" points="536.3409,-41.4019 409.4979,-41.4019 409.4979,-.1981 536.3409,-.1981 536.3409,-41.4019"/>
<text text-anchor="middle" x="472.9194" y="-25" font-family="Times,serif" font-size="14.00" fill="#000000">GO:0034235</text>
<text text-anchor="middle" x="472.9194" y="-8.2" font-family="Times,serif" font-size="14.00" fill="#000000">GPI anchor binding</text>
</g>
<!-- GO:0035091 -->
<g id="node5" class="node">
<title>GO:0035091</title>
<polygon fill="#ffffff" stroke="#000000" points="490.2578,-136.2014 359.581,-136.2014 359.581,-77.3986 490.2578,-77.3986 490.2578,-136.2014"/>
<text text-anchor="middle" x="424.9194" y="-119.4" font-family="Times,serif" font-size="14.00" fill="#000000">GO:0035091</text>
<text text-anchor="middle" x="424.9194" y="-102.6" font-family="Times,serif" font-size="14.00" fill="#000000">phosphatidylinositol</text>
<text text-anchor="middle" x="424.9194" y="-85.8" font-family="Times,serif" font-size="14.00" fill="#000000">binding</text>
</g>
<!-- GO:0034235&#45;&gt;GO:0035091 -->
<g id="edge3" class="edge">
<title>GO:0034235&#45;&gt;GO:0035091</title>
<path fill="none" stroke="#000000" d="M461.2999,-41.6182C456.7583,-49.7552 451.4022,-59.3516 446.2166,-68.6425"/>
<polygon fill="#000000" stroke="#000000" points="443.1467,-66.9614 441.3292,-77.3991 449.2591,-70.373 443.1467,-66.9614"/>
</g>
<!-- GO:0051861 -->
<g id="node6" class="node">
<title>GO:0051861</title>
<polygon fill="#ffffff" stroke="#000000" points="581.4776,-221.8019 462.3612,-221.8019 462.3612,-180.5981 581.4776,-180.5981 581.4776,-221.8019"/>
<text text-anchor="middle" x="521.9194" y="-205.4" font-family="Times,serif" font-size="14.00" fill="#000000">GO:0051861</text>
<text text-anchor="middle" x="521.9194" y="-188.6" font-family="Times,serif" font-size="14.00" fill="#000000">glycolipid binding</text>
</g>
<!-- GO:0034235&#45;&gt;GO:0051861 -->
<g id="edge4" class="edge">
<title>GO:0034235&#45;&gt;GO:0051861</title>
<path fill="none" stroke="#000000" d="M483.9413,-41.6193C489.1319,-52.1578 495.0239,-65.2963 498.9194,-77.6 508.6619,-108.3708 514.8234,-144.8338 518.2902,-170.1458"/>
<polygon fill="#000000" stroke="#000000" points="514.846,-170.8005 519.6136,-180.262 521.7868,-169.8925 514.846,-170.8005"/>
</g>
<!-- GO:0005543 -->
<g id="node7" class="node">
<title>GO:0005543</title>
<polygon fill="#ffffff" stroke="#000000" points="444.8176,-221.8019 309.0212,-221.8019 309.0212,-180.5981 444.8176,-180.5981 444.8176,-221.8019"/>
<text text-anchor="middle" x="376.9194" y="-205.4" font-family="Times,serif" font-size="14.00" fill="#000000">GO:0005543</text>
<text text-anchor="middle" x="376.9194" y="-188.6" font-family="Times,serif" font-size="14.00" fill="#000000">phospholipid binding</text>
</g>
<!-- GO:0035091&#45;&gt;GO:0005543 -->
<g id="edge5" class="edge">
<title>GO:0035091&#45;&gt;GO:0005543</title>
<path fill="none" stroke="#000000" d="M409.995,-136.1513C404.2759,-147.3989 397.7505,-160.2323 392.0154,-171.5112"/>
<polygon fill="#000000" stroke="#000000" points="388.8316,-170.0507 387.4189,-180.551 395.0713,-173.2235 388.8316,-170.0507"/>
</g>
<!-- GO:0097367 -->
<g id="node8" class="node">
<title>GO:0097367</title>
<polygon fill="#ffffff" stroke="#000000" points="595.9665,-325.0014 447.8723,-325.0014 447.8723,-266.1986 595.9665,-266.1986 595.9665,-325.0014"/>
<text text-anchor="middle" x="521.9194" y="-308.2" font-family="Times,serif" font-size="14.00" fill="#000000">GO:0097367</text>
<text text-anchor="middle" x="521.9194" y="-291.4" font-family="Times,serif" font-size="14.00" fill="#000000">carbohydrate derivative</text>
<text text-anchor="middle" x="521.9194" y="-274.6" font-family="Times,serif" font-size="14.00" fill="#000000">binding</text>
</g>
<!-- GO:0051861&#45;&gt;GO:0097367 -->
<g id="edge6" class="edge">
<title>GO:0051861&#45;&gt;GO:0097367</title>
<path fill="none" stroke="#000000" d="M521.9194,-222.1504C521.9194,-232.1492 521.9194,-244.4525 521.9194,-256.1106"/>
<polygon fill="#000000" stroke="#000000" points="518.4195,-256.1155 521.9194,-266.1155 525.4195,-256.1156 518.4195,-256.1155"/>
</g>
<!-- GO:0008289 -->
<g id="node9" class="node">
<title>GO:0008289</title>
<polygon fill="#ffffff" stroke="#000000" points="429.5233,-316.2019 340.3155,-316.2019 340.3155,-274.9981 429.5233,-274.9981 429.5233,-316.2019"/>
<text text-anchor="middle" x="384.9194" y="-299.8" font-family="Times,serif" font-size="14.00" fill="#000000">GO:0008289</text>
<text text-anchor="middle" x="384.9194" y="-283" font-family="Times,serif" font-size="14.00" fill="#000000">lipid binding</text>
</g>
<!-- GO:0051861&#45;&gt;GO:0008289 -->
<g id="edge7" class="edge">
<title>GO:0051861&#45;&gt;GO:0008289</title>
<path fill="none" stroke="#000000" d="M491.8542,-221.9165C471.6888,-235.8114 444.9531,-254.2337 423.2597,-269.1815"/>
<polygon fill="#000000" stroke="#000000" points="421.1631,-266.3758 414.9145,-274.9318 425.1349,-272.1399 421.1631,-266.3758"/>
</g>
<!-- GO:0005543&#45;&gt;GO:0008289 -->
<g id="edge8" class="edge">
<title>GO:0005543&#45;&gt;GO:0008289</title>
<path fill="none" stroke="#000000" d="M378.6949,-222.1504C379.7513,-234.6165 381.1113,-250.6645 382.2905,-264.5786"/>
<polygon fill="#000000" stroke="#000000" points="378.8169,-265.0394 383.1489,-274.7081 385.7919,-264.4483 378.8169,-265.0394"/>
</g>
<!-- GO:0097367&#45;&gt;GO:0005488 -->
<g id="edge9" class="edge">
<title>GO:0097367&#45;&gt;GO:0005488</title>
<path fill="none" stroke="#000000" d="M521.9194,-324.9513C521.9194,-335.8614 521.9194,-348.2637 521.9194,-359.292"/>
<polygon fill="#000000" stroke="#000000" points="518.4195,-359.3509 521.9194,-369.351 525.4195,-359.351 518.4195,-359.3509"/>
</g>
<!-- GO:0008289&#45;&gt;GO:0005488 -->
<g id="edge10" class="edge">
<title>GO:0008289&#45;&gt;GO:0005488</title>
<path fill="none" stroke="#000000" d="M414.9846,-316.3165C435.15,-330.2114 461.8857,-348.6337 483.5791,-363.5815"/>
<polygon fill="#000000" stroke="#000000" points="481.7039,-366.5399 491.9243,-369.3318 485.6757,-360.7758 481.7039,-366.5399"/>
</g>
<!-- GO:0005178 -->
<g id="node10" class="node">
<title>GO:0005178</title>
<polygon fill="#ffff00" stroke="#000000" points="894.7477,-127.4019 789.0911,-127.4019 789.0911,-86.1981 894.7477,-86.1981 894.7477,-127.4019"/>
<text text-anchor="middle" x="841.9194" y="-111" font-family="Times,serif" font-size="14.00" fill="#000000">GO:0005178</text>
<text text-anchor="middle" x="841.9194" y="-94.2" font-family="Times,serif" font-size="14.00" fill="#000000">integrin binding</text>
</g>
<!-- GO:0032403 -->
<g id="node11" class="node">
<title>GO:0032403</title>
<polygon fill="#ffffff" stroke="#000000" points="769.5678,-221.8019 616.271,-221.8019 616.271,-180.5981 769.5678,-180.5981 769.5678,-221.8019"/>
<text text-anchor="middle" x="692.9194" y="-205.4" font-family="Times,serif" font-size="14.00" fill="#000000">GO:0032403</text>
<text text-anchor="middle" x="692.9194" y="-188.6" font-family="Times,serif" font-size="14.00" fill="#000000">protein complex binding</text>
</g>
<!-- GO:0005178&#45;&gt;GO:0032403 -->
<g id="edge11" class="edge">
<title>GO:0005178&#45;&gt;GO:0032403</title>
<path fill="none" stroke="#000000" d="M809.2207,-127.5165C787.095,-141.5344 757.6963,-160.1601 733.9929,-175.1776"/>
<polygon fill="#000000" stroke="#000000" points="732.116,-172.2234 725.5418,-180.5318 735.8623,-178.1365 732.116,-172.2234"/>
</g>
<!-- GO:0005102 -->
<g id="node12" class="node">
<title>GO:0005102</title>
<polygon fill="#ffff00" stroke="#000000" points="896.0563,-221.8019 787.7825,-221.8019 787.7825,-180.5981 896.0563,-180.5981 896.0563,-221.8019"/>
<text text-anchor="middle" x="841.9194" y="-205.4" font-family="Times,serif" font-size="14.00" fill="#000000">GO:0005102</text>
<text text-anchor="middle" x="841.9194" y="-188.6" font-family="Times,serif" font-size="14.00" fill="#000000">receptor binding</text>
</g>
<!-- GO:0005178&#45;&gt;GO:0005102 -->
<g id="edge12" class="edge">
<title>GO:0005178&#45;&gt;GO:0005102</title>
<path fill="none" stroke="#000000" d="M841.9194,-127.7504C841.9194,-140.2165 841.9194,-156.2645 841.9194,-170.1786"/>
<polygon fill="#000000" stroke="#000000" points="838.4195,-170.3081 841.9194,-180.3081 845.4195,-170.3082 838.4195,-170.3081"/>
</g>
<!-- GO:0050839 -->
<g id="node13" class="node">
<title>GO:0050839</title>
<polygon fill="#ffffff" stroke="#000000" points="1058.2101,-230.6014 913.6287,-230.6014 913.6287,-171.7986 1058.2101,-171.7986 1058.2101,-230.6014"/>
<text text-anchor="middle" x="985.9194" y="-213.8" font-family="Times,serif" font-size="14.00" fill="#000000">GO:0050839</text>
<text text-anchor="middle" x="985.9194" y="-197" font-family="Times,serif" font-size="14.00" fill="#000000">cell adhesion molecule</text>
<text text-anchor="middle" x="985.9194" y="-180.2" font-family="Times,serif" font-size="14.00" fill="#000000">binding</text>
</g>
<!-- GO:0005178&#45;&gt;GO:0050839 -->
<g id="edge13" class="edge">
<title>GO:0005178&#45;&gt;GO:0050839</title>
<path fill="none" stroke="#000000" d="M873.5208,-127.5165C890.9068,-138.914 912.9395,-153.3576 932.8823,-166.4312"/>
<polygon fill="#000000" stroke="#000000" points="930.9995,-169.382 941.2816,-171.9374 934.8373,-163.5278 930.9995,-169.382"/>
</g>
<!-- GO:0032403&#45;&gt;GO:0044877 -->
<g id="edge14" class="edge">
<title>GO:0032403&#45;&gt;GO:0044877</title>
<path fill="none" stroke="#000000" d="M693.1413,-222.1504C693.2473,-232.1492 693.3776,-244.4525 693.5011,-256.1106"/>
<polygon fill="#000000" stroke="#000000" points="690.0012,-256.1532 693.6071,-266.1155 697.0008,-256.079 690.0012,-256.1532"/>
</g>
<!-- GO:0005515 -->
<g id="node14" class="node">
<title>GO:0005515</title>
<polygon fill="#ffffff" stroke="#000000" points="892.857,-316.2019 790.9818,-316.2019 790.9818,-274.9981 892.857,-274.9981 892.857,-316.2019"/>
<text text-anchor="middle" x="841.9194" y="-299.8" font-family="Times,serif" font-size="14.00" fill="#000000">GO:0005515</text>
<text text-anchor="middle" x="841.9194" y="-283" font-family="Times,serif" font-size="14.00" fill="#000000">protein binding</text>
</g>
<!-- GO:0032403&#45;&gt;GO:0005515 -->
<g id="edge15" class="edge">
<title>GO:0032403&#45;&gt;GO:0005515</title>
<path fill="none" stroke="#000000" d="M725.6181,-221.9165C747.7438,-235.9344 777.1425,-254.5601 800.8459,-269.5776"/>
<polygon fill="#000000" stroke="#000000" points="798.9765,-272.5365 809.297,-274.9318 802.7228,-266.6234 798.9765,-272.5365"/>
</g>
<!-- GO:0005102&#45;&gt;GO:0005515 -->
<g id="edge16" class="edge">
<title>GO:0005102&#45;&gt;GO:0005515</title>
<path fill="none" stroke="#000000" d="M841.9194,-222.1504C841.9194,-234.6165 841.9194,-250.6645 841.9194,-264.5786"/>
<polygon fill="#000000" stroke="#000000" points="838.4195,-264.7081 841.9194,-274.7081 845.4195,-264.7082 838.4195,-264.7081"/>
</g>
<!-- GO:0050839&#45;&gt;GO:0005515 -->
<g id="edge17" class="edge">
<title>GO:0050839&#45;&gt;GO:0005515</title>
<path fill="none" stroke="#000000" d="M941.1463,-230.5513C922.2732,-242.9236 900.4731,-257.2148 882.1218,-269.2451"/>
<polygon fill="#000000" stroke="#000000" points="879.8622,-266.5413 873.4179,-274.951 883.6999,-272.3955 879.8622,-266.5413"/>
</g>
<!-- GO:0005515&#45;&gt;GO:0005488 -->
<g id="edge18" class="edge">
<title>GO:0005515&#45;&gt;GO:0005488</title>
<path fill="none" stroke="#000000" d="M802.3997,-316.2563C795.6673,-319.3615 788.6682,-322.3418 781.9194,-324.8 712.9073,-349.9377 630.1654,-368.8618 576.8539,-379.6792"/>
<polygon fill="#000000" stroke="#000000" points="576.0418,-376.2723 566.9246,-381.6692 577.4174,-383.1358 576.0418,-376.2723"/>
</g>
<!-- GO:0005096 -->
<g id="node15" class="node">
<title>GO:0005096</title>
<polygon fill="#ff0000" stroke="#000000" points="248.2031,-41.4019 89.6357,-41.4019 89.6357,-.1981 248.2031,-.1981 248.2031,-41.4019"/>
<text text-anchor="middle" x="168.9194" y="-25" font-family="Times,serif" font-size="14.00" fill="#000000">GO:0005096</text>
<text text-anchor="middle" x="168.9194" y="-8.2" font-family="Times,serif" font-size="14.00" fill="#000000">GTPase activator activity</text>
</g>
<!-- GO:0030695 -->
<g id="node16" class="node">
<title>GO:0030695</title>
<polygon fill="#ffffff" stroke="#000000" points="159.7583,-127.4019 .0805,-127.4019 .0805,-86.1981 159.7583,-86.1981 159.7583,-127.4019"/>
<text text-anchor="middle" x="79.9194" y="-111" font-family="Times,serif" font-size="14.00" fill="#000000">GO:0030695</text>
<text text-anchor="middle" x="79.9194" y="-94.2" font-family="Times,serif" font-size="14.00" fill="#000000">GTPase regulator activity</text>
</g>
<!-- GO:0005096&#45;&gt;GO:0030695 -->
<g id="edge19" class="edge">
<title>GO:0005096&#45;&gt;GO:0030695</title>
<path fill="none" stroke="#000000" d="M147.375,-41.6182C135.787,-52.8156 121.3392,-66.7764 108.7907,-78.9019"/>
<polygon fill="#000000" stroke="#000000" points="106.0246,-76.7077 101.2654,-86.1735 110.8888,-81.7416 106.0246,-76.7077"/>
</g>
<!-- GO:0008047 -->
<g id="node17" class="node">
<title>GO:0008047</title>
<polygon fill="#ffffff" stroke="#000000" points="335.4224,-127.4019 178.4164,-127.4019 178.4164,-86.1981 335.4224,-86.1981 335.4224,-127.4019"/>
<text text-anchor="middle" x="256.9194" y="-111" font-family="Times,serif" font-size="14.00" fill="#000000">GO:0008047</text>
<text text-anchor="middle" x="256.9194" y="-94.2" font-family="Times,serif" font-size="14.00" fill="#000000">enzyme activator activity</text>
</g>
<!-- GO:0005096&#45;&gt;GO:0008047 -->
<g id="edge20" class="edge">
<title>GO:0005096&#45;&gt;GO:0008047</title>
<path fill="none" stroke="#000000" d="M190.2217,-41.6182C201.6795,-52.8156 215.965,-66.7764 228.3725,-78.9019"/>
<polygon fill="#000000" stroke="#000000" points="226.2151,-81.6873 235.8132,-86.1735 231.1076,-76.681 226.2151,-81.6873"/>
</g>
<!-- GO:0060589 -->
<g id="node18" class="node">
<title>GO:0060589</title>
<polygon fill="#ffffff" stroke="#000000" points="188.8155,-230.6014 27.0233,-230.6014 27.0233,-171.7986 188.8155,-171.7986 188.8155,-230.6014"/>
<text text-anchor="middle" x="107.9194" y="-213.8" font-family="Times,serif" font-size="14.00" fill="#000000">GO:0060589</text>
<text text-anchor="middle" x="107.9194" y="-197" font-family="Times,serif" font-size="14.00" fill="#000000">nucleoside&#45;triphosphatase</text>
<text text-anchor="middle" x="107.9194" y="-180.2" font-family="Times,serif" font-size="14.00" fill="#000000">regulator activity</text>
</g>
<!-- GO:0030695&#45;&gt;GO:0060589 -->
<g id="edge21" class="edge">
<title>GO:0030695&#45;&gt;GO:0060589</title>
<path fill="none" stroke="#000000" d="M86.1335,-127.7504C89.1292,-137.8502 92.8223,-150.3012 96.3112,-162.0637"/>
<polygon fill="#000000" stroke="#000000" points="92.9748,-163.1237 99.174,-171.7155 99.6858,-161.133 92.9748,-163.1237"/>
</g>
<!-- GO:0030234 -->
<g id="node19" class="node">
<title>GO:0030234</title>
<polygon fill="#ffffff" stroke="#000000" points="322.477,-316.2019 163.3618,-316.2019 163.3618,-274.9981 322.477,-274.9981 322.477,-316.2019"/>
<text text-anchor="middle" x="242.9194" y="-299.8" font-family="Times,serif" font-size="14.00" fill="#000000">GO:0030234</text>
<text text-anchor="middle" x="242.9194" y="-283" font-family="Times,serif" font-size="14.00" fill="#000000">enzyme regulator activity</text>
</g>
<!-- GO:0008047&#45;&gt;GO:0030234 -->
<g id="edge22" class="edge">
<title>GO:0008047&#45;&gt;GO:0030234</title>
<path fill="none" stroke="#000000" d="M255.3677,-127.7263C252.9013,-160.9865 248.0735,-226.0928 245.209,-264.7227"/>
<polygon fill="#000000" stroke="#000000" points="241.7059,-264.6363 244.4567,-274.8677 248.6868,-265.154 241.7059,-264.6363"/>
</g>
<!-- GO:0060589&#45;&gt;GO:0030234 -->
<g id="edge23" class="edge">
<title>GO:0060589&#45;&gt;GO:0030234</title>
<path fill="none" stroke="#000000" d="M149.8942,-230.5513C167.4269,-242.8112 187.6539,-256.9551 204.7597,-268.9165"/>
<polygon fill="#000000" stroke="#000000" points="203.1887,-272.0887 213.3896,-274.951 207.2001,-266.3521 203.1887,-272.0887"/>
</g>
<!-- GO:0098772 -->
<g id="node20" class="node">
<title>GO:0098772</title>
<polygon fill="#ffffff" stroke="#000000" points="382.0521,-419.4014 259.7867,-419.4014 259.7867,-360.5986 382.0521,-360.5986 382.0521,-419.4014"/>
<text text-anchor="middle" x="320.9194" y="-402.6" font-family="Times,serif" font-size="14.00" fill="#000000">GO:0098772</text>
<text text-anchor="middle" x="320.9194" y="-385.8" font-family="Times,serif" font-size="14.00" fill="#000000">molecular function</text>
<text text-anchor="middle" x="320.9194" y="-369" font-family="Times,serif" font-size="14.00" fill="#000000">regulator</text>
</g>
<!-- GO:0030234&#45;&gt;GO:0098772 -->
<g id="edge24" class="edge">
<title>GO:0030234&#45;&gt;GO:0098772</title>
<path fill="none" stroke="#000000" d="M260.2301,-316.5504C268.9926,-327.1552 279.8969,-340.3522 290.0355,-352.6225"/>
<polygon fill="#000000" stroke="#000000" points="287.4894,-355.036 296.5572,-360.5155 292.8857,-350.5772 287.4894,-355.036"/>
</g>
<!-- GO:0098772&#45;&gt;GO:0003674 -->
<g id="edge25" class="edge">
<title>GO:0098772&#45;&gt;GO:0003674</title>
<path fill="none" stroke="#000000" d="M342.2563,-419.5963C348.6801,-428.5068 355.719,-438.2705 362.1083,-447.1329"/>
<polygon fill="#000000" stroke="#000000" points="359.3065,-449.2316 367.9937,-455.2966 364.9847,-445.1379 359.3065,-449.2316"/>
</g>
<!-- GO:0019901 -->
<g id="node21" class="node">
<title>GO:0019901</title>
<polygon fill="#ffff00" stroke="#000000" points="1199.6215,-41.4019 1058.2173,-41.4019 1058.2173,-.1981 1199.6215,-.1981 1199.6215,-41.4019"/>
<text text-anchor="middle" x="1128.9194" y="-25" font-family="Times,serif" font-size="14.00" fill="#000000">GO:0019901</text>
<text text-anchor="middle" x="1128.9194" y="-8.2" font-family="Times,serif" font-size="14.00" fill="#000000">protein kinase binding</text>
</g>
<!-- GO:0019900 -->
<g id="node22" class="node">
<title>GO:0019900</title>
<polygon fill="#ffffff" stroke="#000000" points="1177.965,-127.4019 1079.8738,-127.4019 1079.8738,-86.1981 1177.965,-86.1981 1177.965,-127.4019"/>
<text text-anchor="middle" x="1128.9194" y="-111" font-family="Times,serif" font-size="14.00" fill="#000000">GO:0019900</text>
<text text-anchor="middle" x="1128.9194" y="-94.2" font-family="Times,serif" font-size="14.00" fill="#000000">kinase binding</text>
</g>
<!-- GO:0019901&#45;&gt;GO:0019900 -->
<g id="edge26" class="edge">
<title>GO:0019901&#45;&gt;GO:0019900</title>
<path fill="none" stroke="#000000" d="M1128.9194,-41.6182C1128.9194,-51.9705 1128.9194,-64.6848 1128.9194,-76.1271"/>
<polygon fill="#000000" stroke="#000000" points="1125.4195,-76.1735 1128.9194,-86.1735 1132.4195,-76.1735 1125.4195,-76.1735"/>
</g>
<!-- GO:0019899 -->
<g id="node23" class="node">
<title>GO:0019899</title>
<polygon fill="#ffffff" stroke="#000000" points="1181.7352,-221.8019 1076.1036,-221.8019 1076.1036,-180.5981 1181.7352,-180.5981 1181.7352,-221.8019"/>
<text text-anchor="middle" x="1128.9194" y="-205.4" font-family="Times,serif" font-size="14.00" fill="#000000">GO:0019899</text>
<text text-anchor="middle" x="1128.9194" y="-188.6" font-family="Times,serif" font-size="14.00" fill="#000000">enzyme binding</text>
</g>
<!-- GO:0019900&#45;&gt;GO:0019899 -->
<g id="edge27" class="edge">
<title>GO:0019900&#45;&gt;GO:0019899</title>
<path fill="none" stroke="#000000" d="M1128.9194,-127.7504C1128.9194,-140.2165 1128.9194,-156.2645 1128.9194,-170.1786"/>
<polygon fill="#000000" stroke="#000000" points="1125.4195,-170.3081 1128.9194,-180.3081 1132.4195,-170.3082 1125.4195,-170.3081"/>
</g>
<!-- GO:0019899&#45;&gt;GO:0005515 -->
<g id="edge28" class="edge">
<title>GO:0019899&#45;&gt;GO:0005515</title>
<path fill="none" stroke="#000000" d="M1087.2844,-221.9045C1080.5514,-224.9339 1073.5978,-227.8778 1066.9194,-230.4 1012.5101,-250.9483 948.6763,-268.8853 902.9263,-280.7162"/>
<polygon fill="#000000" stroke="#000000" points="901.9759,-277.3466 893.1584,-283.2205 903.7144,-284.1273 901.9759,-277.3466"/>
</g>
</g>
</svg>
