<?xml version="1.0" encoding="UTF-8" standalone="no"?>
<!DOCTYPE svg PUBLIC "-//W3C//DTD SVG 1.1//EN"
 "http://www.w3.org/Graphics/SVG/1.1/DTD/svg11.dtd">
<!-- Generated by graphviz version 2.40.1 (20161225.0304)
 -->
<!-- Title: G Pages: 1 -->
<svg width="1525pt" height="538pt"
 viewBox="0.00 0.00 1525.32 538.40" xmlns="http://www.w3.org/2000/svg" xmlns:xlink="http://www.w3.org/1999/xlink">
<g id="graph0" class="graph" transform="scale(1 1) rotate(0) translate(4 534.4)">
<title>G</title>
<polygon fill="#ffffff" stroke="transparent" points="-4,4 -4,-534.4 1521.3237,-534.4 1521.3237,4 -4,4"/>
<!-- GO:0009897 -->
<g id="node1" class="node">
<title>GO:0009897</title>
<polygon fill="#00ffff" stroke="#000000" points="472.0394,-281.0014 326.136,-281.0014 326.136,-222.1986 472.0394,-222.1986 472.0394,-281.0014"/>
<text text-anchor="middle" x="399.0877" y="-264.2" font-family="Times,serif" font-size="14.00" fill="#000000">GO:0009897</text>
<text text-anchor="middle" x="399.0877" y="-247.4" font-family="Times,serif" font-size="14.00" fill="#000000">external side of plasma</text>
<text text-anchor="middle" x="399.0877" y="-230.6" font-family="Times,serif" font-size="14.00" fill="#000000">membrane</text>
</g>
<!-- GO:0044459 -->
<g id="node2" class="node">
<title>GO:0044459</title>
<polygon fill="#ff0000" stroke="#000000" points="480.5949,-366.6019 337.5805,-366.6019 337.5805,-325.3981 480.5949,-325.3981 480.5949,-366.6019"/>
<text text-anchor="middle" x="409.0877" y="-350.2" font-family="Times,serif" font-size="14.00" fill="#000000">GO:0044459</text>
<text text-anchor="middle" x="409.0877" y="-333.4" font-family="Times,serif" font-size="14.00" fill="#000000">plasma membrane part</text>
</g>
<!-- GO:0009897&#45;&gt;GO:0044459 -->
<g id="edge1" class="edge">
<title>GO:0009897&#45;&gt;GO:0044459</title>
<path fill="none" stroke="#000000" d="M402.1969,-280.9513C403.3527,-291.8614 404.6665,-304.2637 405.8347,-315.292"/>
<polygon fill="#000000" stroke="#000000" points="402.3663,-315.7754 406.9003,-325.351 409.3273,-315.0379 402.3663,-315.7754"/>
</g>
<!-- GO:0098552 -->
<g id="node3" class="node">
<title>GO:0098552</title>
<polygon fill="#ffffff" stroke="#000000" points="319.3841,-366.6019 202.7913,-366.6019 202.7913,-325.3981 319.3841,-325.3981 319.3841,-366.6019"/>
<text text-anchor="middle" x="261.0877" y="-350.2" font-family="Times,serif" font-size="14.00" fill="#000000">GO:0098552</text>
<text text-anchor="middle" x="261.0877" y="-333.4" font-family="Times,serif" font-size="14.00" fill="#000000">side of membrane</text>
</g>
<!-- GO:0009897&#45;&gt;GO:0098552 -->
<g id="edge2" class="edge">
<title>GO:0009897&#45;&gt;GO:0098552</title>
<path fill="none" stroke="#000000" d="M356.1801,-280.9513C338.0934,-293.3236 317.2017,-307.6148 299.615,-319.6451"/>
<polygon fill="#000000" stroke="#000000" points="297.5513,-316.8162 291.2738,-325.351 301.5035,-322.5937 297.5513,-316.8162"/>
</g>
<!-- GO:0044425 -->
<g id="node4" class="node">
<title>GO:0044425</title>
<polygon fill="#ff0000" stroke="#000000" points="459.4397,-452.6019 358.7357,-452.6019 358.7357,-411.3981 459.4397,-411.3981 459.4397,-452.6019"/>
<text text-anchor="middle" x="409.0877" y="-436.2" font-family="Times,serif" font-size="14.00" fill="#000000">GO:0044425</text>
<text text-anchor="middle" x="409.0877" y="-419.4" font-family="Times,serif" font-size="14.00" fill="#000000">membrane part</text>
</g>
<!-- GO:0044459&#45;&gt;GO:0044425 -->
<g id="edge3" class="edge">
<title>GO:0044459&#45;&gt;GO:0044425</title>
<path fill="none" stroke="#000000" d="M409.0877,-366.8182C409.0877,-377.1705 409.0877,-389.8848 409.0877,-401.3271"/>
<polygon fill="#000000" stroke="#000000" points="405.5878,-401.3735 409.0877,-411.3735 412.5878,-401.3735 405.5878,-401.3735"/>
</g>
<!-- GO:0044464 -->
<g id="node5" class="node">
<title>GO:0044464</title>
<polygon fill="#ff0000" stroke="#000000" points="978.6916,-452.6019 889.4838,-452.6019 889.4838,-411.3981 978.6916,-411.3981 978.6916,-452.6019"/>
<text text-anchor="middle" x="934.0877" y="-436.2" font-family="Times,serif" font-size="14.00" fill="#000000">GO:0044464</text>
<text text-anchor="middle" x="934.0877" y="-419.4" font-family="Times,serif" font-size="14.00" fill="#000000">cell part</text>
</g>
<!-- GO:0044459&#45;&gt;GO:0044464 -->
<g id="edge4" class="edge">
<title>GO:0044459&#45;&gt;GO:0044464</title>
<path fill="none" stroke="#000000" d="M461.2996,-366.7049C470.771,-369.9188 480.642,-372.9223 490.0877,-375.2 627.8785,-408.4257 794.7064,-423.1392 879.2506,-428.8535"/>
<polygon fill="#000000" stroke="#000000" points="879.1832,-432.3566 889.3919,-429.5222 879.6439,-425.3717 879.1832,-432.3566"/>
</g>
<!-- GO:0098552&#45;&gt;GO:0044425 -->
<g id="edge5" class="edge">
<title>GO:0098552&#45;&gt;GO:0044425</title>
<path fill="none" stroke="#000000" d="M296.9144,-366.8182C317.3659,-378.7022 343.1743,-393.699 364.8784,-406.3108"/>
<polygon fill="#000000" stroke="#000000" points="363.1862,-409.3755 373.591,-411.3735 366.7032,-403.3231 363.1862,-409.3755"/>
</g>
<!-- GO:0005575 -->
<g id="node6" class="node">
<title>GO:0005575</title>
<polygon fill="#ffffff" stroke="#000000" points="686.7744,-530.2019 559.401,-530.2019 559.401,-488.9981 686.7744,-488.9981 686.7744,-530.2019"/>
<text text-anchor="middle" x="623.0877" y="-513.8" font-family="Times,serif" font-size="14.00" fill="#000000">GO:0005575</text>
<text text-anchor="middle" x="623.0877" y="-497" font-family="Times,serif" font-size="14.00" fill="#000000">cellular_component</text>
</g>
<!-- GO:0044425&#45;&gt;GO:0005575 -->
<g id="edge6" class="edge">
<title>GO:0044425&#45;&gt;GO:0005575</title>
<path fill="none" stroke="#000000" d="M459.5317,-450.2919C488.5359,-460.8092 525.3204,-474.1479 556.656,-485.5108"/>
<polygon fill="#000000" stroke="#000000" points="555.5971,-488.8497 566.1913,-488.9684 557.9835,-482.269 555.5971,-488.8497"/>
</g>
<!-- GO:0044464&#45;&gt;GO:0005575 -->
<g id="edge7" class="edge">
<title>GO:0044464&#45;&gt;GO:0005575</title>
<path fill="none" stroke="#000000" d="M889.529,-443.1182C839.1737,-455.6827 756.4318,-476.3283 696.4984,-491.2827"/>
<polygon fill="#000000" stroke="#000000" points="695.5657,-487.9081 686.7105,-493.725 697.2604,-494.6998 695.5657,-487.9081"/>
</g>
<!-- GO:0045121 -->
<g id="node7" class="node">
<title>GO:0045121</title>
<polygon fill="#ffff00" stroke="#000000" points="615.0997,-169.4019 517.0757,-169.4019 517.0757,-128.1981 615.0997,-128.1981 615.0997,-169.4019"/>
<text text-anchor="middle" x="566.0877" y="-153" font-family="Times,serif" font-size="14.00" fill="#000000">GO:0045121</text>
<text text-anchor="middle" x="566.0877" y="-136.2" font-family="Times,serif" font-size="14.00" fill="#000000">membrane raft</text>
</g>
<!-- GO:0098857 -->
<g id="node8" class="node">
<title>GO:0098857</title>
<polygon fill="#ffffff" stroke="#000000" points="642.8257,-272.2019 489.3497,-272.2019 489.3497,-230.9981 642.8257,-230.9981 642.8257,-272.2019"/>
<text text-anchor="middle" x="566.0877" y="-255.8" font-family="Times,serif" font-size="14.00" fill="#000000">GO:0098857</text>
<text text-anchor="middle" x="566.0877" y="-239" font-family="Times,serif" font-size="14.00" fill="#000000">membrane microdomain</text>
</g>
<!-- GO:0045121&#45;&gt;GO:0098857 -->
<g id="edge8" class="edge">
<title>GO:0045121&#45;&gt;GO:0098857</title>
<path fill="none" stroke="#000000" d="M566.0877,-169.6031C566.0877,-184.2337 566.0877,-204.0642 566.0877,-220.5586"/>
<polygon fill="#000000" stroke="#000000" points="562.5878,-220.8278 566.0877,-230.8278 569.5878,-220.8279 562.5878,-220.8278"/>
</g>
<!-- GO:0098589 -->
<g id="node9" class="node">
<title>GO:0098589</title>
<polygon fill="#ffffff" stroke="#000000" points="613.4396,-366.6019 498.7358,-366.6019 498.7358,-325.3981 613.4396,-325.3981 613.4396,-366.6019"/>
<text text-anchor="middle" x="556.0877" y="-350.2" font-family="Times,serif" font-size="14.00" fill="#000000">GO:0098589</text>
<text text-anchor="middle" x="556.0877" y="-333.4" font-family="Times,serif" font-size="14.00" fill="#000000">membrane region</text>
</g>
<!-- GO:0098857&#45;&gt;GO:0098589 -->
<g id="edge9" class="edge">
<title>GO:0098857&#45;&gt;GO:0098589</title>
<path fill="none" stroke="#000000" d="M563.8684,-272.5504C562.5478,-285.0165 560.8478,-301.0645 559.3739,-314.9786"/>
<polygon fill="#000000" stroke="#000000" points="555.8738,-314.7951 558.3008,-325.1081 562.8349,-315.5325 555.8738,-314.7951"/>
</g>
<!-- GO:0098589&#45;&gt;GO:0044425 -->
<g id="edge10" class="edge">
<title>GO:0098589&#45;&gt;GO:0044425</title>
<path fill="none" stroke="#000000" d="M520.5031,-366.8182C500.1898,-378.7022 474.5558,-393.699 452.9983,-406.3108"/>
<polygon fill="#000000" stroke="#000000" points="451.2086,-403.3028 444.3446,-411.3735 454.7434,-409.3448 451.2086,-403.3028"/>
</g>
<!-- GO:0016020 -->
<g id="node10" class="node">
<title>GO:0016020</title>
<polygon fill="#ff0000" stroke="#000000" points="667.6916,-452.6019 578.4838,-452.6019 578.4838,-411.3981 667.6916,-411.3981 667.6916,-452.6019"/>
<text text-anchor="middle" x="623.0877" y="-436.2" font-family="Times,serif" font-size="14.00" fill="#000000">GO:0016020</text>
<text text-anchor="middle" x="623.0877" y="-419.4" font-family="Times,serif" font-size="14.00" fill="#000000">membrane</text>
</g>
<!-- GO:0098589&#45;&gt;GO:0016020 -->
<g id="edge11" class="edge">
<title>GO:0098589&#45;&gt;GO:0016020</title>
<path fill="none" stroke="#000000" d="M572.3065,-366.8182C580.8655,-377.8043 591.4969,-391.4506 600.8169,-403.4137"/>
<polygon fill="#000000" stroke="#000000" points="598.1114,-405.6359 607.0182,-411.3735 603.6334,-401.3339 598.1114,-405.6359"/>
</g>
<!-- GO:0016020&#45;&gt;GO:0005575 -->
<g id="edge12" class="edge">
<title>GO:0016020&#45;&gt;GO:0005575</title>
<path fill="none" stroke="#000000" d="M623.0877,-452.7954C623.0877,-460.7109 623.0877,-469.9109 623.0877,-478.5722"/>
<polygon fill="#000000" stroke="#000000" points="619.5878,-478.7472 623.0877,-488.7472 626.5878,-478.7473 619.5878,-478.7472"/>
</g>
<!-- GO:0030426 -->
<g id="node11" class="node">
<title>GO:0030426</title>
<polygon fill="#00ffff" stroke="#000000" points="1279.6916,-272.2019 1190.4838,-272.2019 1190.4838,-230.9981 1279.6916,-230.9981 1279.6916,-272.2019"/>
<text text-anchor="middle" x="1235.0877" y="-255.8" font-family="Times,serif" font-size="14.00" fill="#000000">GO:0030426</text>
<text text-anchor="middle" x="1235.0877" y="-239" font-family="Times,serif" font-size="14.00" fill="#000000">growth cone</text>
</g>
<!-- GO:0097458 -->
<g id="node12" class="node">
<title>GO:0097458</title>
<polygon fill="#ff0000" stroke="#000000" points="1402.6916,-366.6019 1313.4838,-366.6019 1313.4838,-325.3981 1402.6916,-325.3981 1402.6916,-366.6019"/>
<text text-anchor="middle" x="1358.0877" y="-350.2" font-family="Times,serif" font-size="14.00" fill="#000000">GO:0097458</text>
<text text-anchor="middle" x="1358.0877" y="-333.4" font-family="Times,serif" font-size="14.00" fill="#000000">neuron part</text>
</g>
<!-- GO:0030426&#45;&gt;GO:0097458 -->
<g id="edge13" class="edge">
<title>GO:0030426&#45;&gt;GO:0097458</title>
<path fill="none" stroke="#000000" d="M1262.0806,-272.3165C1280.025,-286.0885 1303.7644,-304.308 1323.1472,-319.1839"/>
<polygon fill="#000000" stroke="#000000" points="1321.0939,-322.02 1331.1578,-325.3318 1325.3558,-316.4669 1321.0939,-322.02"/>
</g>
<!-- GO:0044463 -->
<g id="node13" class="node">
<title>GO:0044463</title>
<polygon fill="#ffffff" stroke="#000000" points="1295.8258,-366.6019 1174.3496,-366.6019 1174.3496,-325.3981 1295.8258,-325.3981 1295.8258,-366.6019"/>
<text text-anchor="middle" x="1235.0877" y="-350.2" font-family="Times,serif" font-size="14.00" fill="#000000">GO:0044463</text>
<text text-anchor="middle" x="1235.0877" y="-333.4" font-family="Times,serif" font-size="14.00" fill="#000000">cell projection part</text>
</g>
<!-- GO:0030426&#45;&gt;GO:0044463 -->
<g id="edge14" class="edge">
<title>GO:0030426&#45;&gt;GO:0044463</title>
<path fill="none" stroke="#000000" d="M1235.0877,-272.5504C1235.0877,-285.0165 1235.0877,-301.0645 1235.0877,-314.9786"/>
<polygon fill="#000000" stroke="#000000" points="1231.5878,-315.1081 1235.0877,-325.1081 1238.5878,-315.1082 1231.5878,-315.1081"/>
</g>
<!-- GO:0030427 -->
<g id="node14" class="node">
<title>GO:0030427</title>
<polygon fill="#ffffff" stroke="#000000" points="1155.9325,-366.6019 1006.2429,-366.6019 1006.2429,-325.3981 1155.9325,-325.3981 1155.9325,-366.6019"/>
<text text-anchor="middle" x="1081.0877" y="-350.2" font-family="Times,serif" font-size="14.00" fill="#000000">GO:0030427</text>
<text text-anchor="middle" x="1081.0877" y="-333.4" font-family="Times,serif" font-size="14.00" fill="#000000">site of polarized growth</text>
</g>
<!-- GO:0030426&#45;&gt;GO:0030427 -->
<g id="edge15" class="edge">
<title>GO:0030426&#45;&gt;GO:0030427</title>
<path fill="none" stroke="#000000" d="M1201.2917,-272.3165C1178.4236,-286.3344 1148.0384,-304.9601 1123.5395,-319.9776"/>
<polygon fill="#000000" stroke="#000000" points="1121.5014,-317.1217 1114.8048,-325.3318 1125.1597,-323.0897 1121.5014,-317.1217"/>
</g>
<!-- GO:0097458&#45;&gt;GO:0044464 -->
<g id="edge16" class="edge">
<title>GO:0097458&#45;&gt;GO:0044464</title>
<path fill="none" stroke="#000000" d="M1324.6876,-366.6898C1318.3547,-369.9461 1311.6522,-372.968 1305.0877,-375.2 1196.8957,-411.9859 1062.8272,-425.0273 989.111,-429.5932"/>
<polygon fill="#000000" stroke="#000000" points="988.46,-426.1254 978.6831,-430.2072 988.8715,-433.1133 988.46,-426.1254"/>
</g>
<!-- GO:0044463&#45;&gt;GO:0044464 -->
<g id="edge17" class="edge">
<title>GO:0044463&#45;&gt;GO:0044464</title>
<path fill="none" stroke="#000000" d="M1188.3968,-366.6428C1180.6848,-369.7143 1172.7169,-372.6874 1165.0877,-375.2 1105.8853,-394.6976 1036.1994,-410.9476 988.9683,-421.0025"/>
<polygon fill="#000000" stroke="#000000" points="988.0104,-417.6274 978.9472,-423.1146 989.4541,-424.4769 988.0104,-417.6274"/>
</g>
<!-- GO:0030427&#45;&gt;GO:0044464 -->
<g id="edge18" class="edge">
<title>GO:0030427&#45;&gt;GO:0044464</title>
<path fill="none" stroke="#000000" d="M1045.5031,-366.8182C1025.1898,-378.7022 999.5558,-393.699 977.9983,-406.3108"/>
<polygon fill="#000000" stroke="#000000" points="976.2086,-403.3028 969.3446,-411.3735 979.7434,-409.3448 976.2086,-403.3028"/>
</g>
<!-- GO:0030425 -->
<g id="node15" class="node">
<title>GO:0030425</title>
<polygon fill="#ffff00" stroke="#000000" points="1457.6916,-169.4019 1368.4838,-169.4019 1368.4838,-128.1981 1457.6916,-128.1981 1457.6916,-169.4019"/>
<text text-anchor="middle" x="1413.0877" y="-153" font-family="Times,serif" font-size="14.00" fill="#000000">GO:0030425</text>
<text text-anchor="middle" x="1413.0877" y="-136.2" font-family="Times,serif" font-size="14.00" fill="#000000">dendrite</text>
</g>
<!-- GO:0043005 -->
<g id="node16" class="node">
<title>GO:0043005</title>
<polygon fill="#ffffff" stroke="#000000" points="1470.7246,-272.2019 1355.4508,-272.2019 1355.4508,-230.9981 1470.7246,-230.9981 1470.7246,-272.2019"/>
<text text-anchor="middle" x="1413.0877" y="-255.8" font-family="Times,serif" font-size="14.00" fill="#000000">GO:0043005</text>
<text text-anchor="middle" x="1413.0877" y="-239" font-family="Times,serif" font-size="14.00" fill="#000000">neuron projection</text>
</g>
<!-- GO:0030425&#45;&gt;GO:0043005 -->
<g id="edge19" class="edge">
<title>GO:0030425&#45;&gt;GO:0043005</title>
<path fill="none" stroke="#000000" d="M1413.0877,-169.6031C1413.0877,-184.2337 1413.0877,-204.0642 1413.0877,-220.5586"/>
<polygon fill="#000000" stroke="#000000" points="1409.5878,-220.8278 1413.0877,-230.8278 1416.5878,-220.8279 1409.5878,-220.8278"/>
</g>
<!-- GO:0043005&#45;&gt;GO:0097458 -->
<g id="edge20" class="edge">
<title>GO:0043005&#45;&gt;GO:0097458</title>
<path fill="none" stroke="#000000" d="M1400.8814,-272.5504C1393.4047,-285.3831 1383.7165,-302.0116 1375.4496,-316.2006"/>
<polygon fill="#000000" stroke="#000000" points="1372.2699,-314.7057 1370.2599,-325.1081 1378.3182,-318.2297 1372.2699,-314.7057"/>
</g>
<!-- GO:0042995 -->
<g id="node17" class="node">
<title>GO:0042995</title>
<polygon fill="#ffffff" stroke="#000000" points="1517.5609,-366.6019 1420.6145,-366.6019 1420.6145,-325.3981 1517.5609,-325.3981 1517.5609,-366.6019"/>
<text text-anchor="middle" x="1469.0877" y="-350.2" font-family="Times,serif" font-size="14.00" fill="#000000">GO:0042995</text>
<text text-anchor="middle" x="1469.0877" y="-333.4" font-family="Times,serif" font-size="14.00" fill="#000000">cell projection</text>
</g>
<!-- GO:0043005&#45;&gt;GO:0042995 -->
<g id="edge21" class="edge">
<title>GO:0043005&#45;&gt;GO:0042995</title>
<path fill="none" stroke="#000000" d="M1425.5159,-272.5504C1433.1285,-285.3831 1442.9929,-302.0116 1451.4101,-316.2006"/>
<polygon fill="#000000" stroke="#000000" points="1448.582,-318.2933 1456.6942,-325.1081 1454.6024,-314.7219 1448.582,-318.2933"/>
</g>
<!-- GO:0042995&#45;&gt;GO:0044464 -->
<g id="edge22" class="edge">
<title>GO:0042995&#45;&gt;GO:0044464</title>
<path fill="none" stroke="#000000" d="M1433.4091,-366.6951C1426.5139,-369.9929 1419.2136,-373.0281 1412.0877,-375.2 1334.0657,-398.9806 1097.1081,-419.5201 988.9595,-427.9347"/>
<polygon fill="#000000" stroke="#000000" points="988.6061,-424.4514 978.9052,-428.7108 989.145,-431.4307 988.6061,-424.4514"/>
</g>
<!-- GO:0031226 -->
<g id="node18" class="node">
<title>GO:0031226</title>
<polygon fill="#ffff00" stroke="#000000" points="308.3411,-281.0014 165.8343,-281.0014 165.8343,-222.1986 308.3411,-222.1986 308.3411,-281.0014"/>
<text text-anchor="middle" x="237.0877" y="-264.2" font-family="Times,serif" font-size="14.00" fill="#000000">GO:0031226</text>
<text text-anchor="middle" x="237.0877" y="-247.4" font-family="Times,serif" font-size="14.00" fill="#000000">intrinsic component of</text>
<text text-anchor="middle" x="237.0877" y="-230.6" font-family="Times,serif" font-size="14.00" fill="#000000">plasma membrane</text>
</g>
<!-- GO:0031226&#45;&gt;GO:0044459 -->
<g id="edge23" class="edge">
<title>GO:0031226&#45;&gt;GO:0044459</title>
<path fill="none" stroke="#000000" d="M290.5667,-280.9513C313.6219,-293.6048 340.334,-308.2654 362.5563,-320.4618"/>
<polygon fill="#000000" stroke="#000000" points="361.014,-323.6078 371.4645,-325.351 364.382,-317.4713 361.014,-323.6078"/>
</g>
<!-- GO:0031224 -->
<g id="node19" class="node">
<title>GO:0031224</title>
<polygon fill="#ffff00" stroke="#000000" points="184.3411,-375.4014 41.8343,-375.4014 41.8343,-316.5986 184.3411,-316.5986 184.3411,-375.4014"/>
<text text-anchor="middle" x="113.0877" y="-358.6" font-family="Times,serif" font-size="14.00" fill="#000000">GO:0031224</text>
<text text-anchor="middle" x="113.0877" y="-341.8" font-family="Times,serif" font-size="14.00" fill="#000000">intrinsic component of</text>
<text text-anchor="middle" x="113.0877" y="-325" font-family="Times,serif" font-size="14.00" fill="#000000">membrane</text>
</g>
<!-- GO:0031226&#45;&gt;GO:0031224 -->
<g id="edge24" class="edge">
<title>GO:0031226&#45;&gt;GO:0031224</title>
<path fill="none" stroke="#000000" d="M198.533,-280.9513C186.2859,-290.2749 172.6073,-300.6883 159.847,-310.4026"/>
<polygon fill="#000000" stroke="#000000" points="157.4551,-307.8246 151.6185,-316.6669 161.6953,-313.3943 157.4551,-307.8246"/>
</g>
<!-- GO:0031224&#45;&gt;GO:0044425 -->
<g id="edge25" class="edge">
<title>GO:0031224&#45;&gt;GO:0044425</title>
<path fill="none" stroke="#000000" d="M184.5262,-372.1373C187.7498,-373.1954 190.948,-374.2214 194.0877,-375.2 245.8925,-391.3466 305.6209,-406.8847 348.9565,-417.6154"/>
<polygon fill="#000000" stroke="#000000" points="348.2266,-421.0401 358.7735,-420.0335 349.9008,-414.2433 348.2266,-421.0401"/>
</g>
<!-- GO:0043209 -->
<g id="node20" class="node">
<title>GO:0043209</title>
<polygon fill="#ffff00" stroke="#000000" points="861.2386,-366.6019 766.9368,-366.6019 766.9368,-325.3981 861.2386,-325.3981 861.2386,-366.6019"/>
<text text-anchor="middle" x="814.0877" y="-350.2" font-family="Times,serif" font-size="14.00" fill="#000000">GO:0043209</text>
<text text-anchor="middle" x="814.0877" y="-333.4" font-family="Times,serif" font-size="14.00" fill="#000000">myelin sheath</text>
</g>
<!-- GO:0043209&#45;&gt;GO:0044464 -->
<g id="edge26" class="edge">
<title>GO:0043209&#45;&gt;GO:0044464</title>
<path fill="none" stroke="#000000" d="M843.1364,-366.8182C859.3502,-378.4381 879.7165,-393.034 897.0643,-405.4665"/>
<polygon fill="#000000" stroke="#000000" points="895.1395,-408.3931 905.3066,-411.3735 899.2172,-402.7034 895.1395,-408.3931"/>
</g>
<!-- GO:0005886 -->
<g id="node21" class="node">
<title>GO:0005886</title>
<polygon fill="#00ffff" stroke="#000000" points="749.3285,-366.6019 630.8469,-366.6019 630.8469,-325.3981 749.3285,-325.3981 749.3285,-366.6019"/>
<text text-anchor="middle" x="690.0877" y="-350.2" font-family="Times,serif" font-size="14.00" fill="#000000">GO:0005886</text>
<text text-anchor="middle" x="690.0877" y="-333.4" font-family="Times,serif" font-size="14.00" fill="#000000">plasma membrane</text>
</g>
<!-- GO:0005886&#45;&gt;GO:0044464 -->
<g id="edge28" class="edge">
<title>GO:0005886&#45;&gt;GO:0044464</title>
<path fill="none" stroke="#000000" d="M736.6768,-366.6855C743.8046,-369.6525 751.1106,-372.5827 758.0877,-375.2 798.1714,-390.2368 844.2461,-405.0187 879.1969,-415.7321"/>
<polygon fill="#000000" stroke="#000000" points="878.6195,-419.215 889.2055,-418.7821 880.6601,-412.519 878.6195,-419.215"/>
</g>
<!-- GO:0005886&#45;&gt;GO:0016020 -->
<g id="edge27" class="edge">
<title>GO:0005886&#45;&gt;GO:0016020</title>
<path fill="none" stroke="#000000" d="M673.8689,-366.8182C665.3099,-377.8043 654.6785,-391.4506 645.3585,-403.4137"/>
<polygon fill="#000000" stroke="#000000" points="642.542,-401.3339 639.1572,-411.3735 648.064,-405.6359 642.542,-401.3339"/>
</g>
<!-- GO:0031362 -->
<g id="node22" class="node">
<title>GO:0031362</title>
<polygon fill="#ffff00" stroke="#000000" points="230.2632,-75.3003 81.9122,-75.3003 81.9122,.1003 230.2632,.1003 230.2632,-75.3003"/>
<text text-anchor="middle" x="156.0877" y="-58.6" font-family="Times,serif" font-size="14.00" fill="#000000">GO:0031362</text>
<text text-anchor="middle" x="156.0877" y="-41.8" font-family="Times,serif" font-size="14.00" fill="#000000">anchored component of</text>
<text text-anchor="middle" x="156.0877" y="-25" font-family="Times,serif" font-size="14.00" fill="#000000">external side of plasma</text>
<text text-anchor="middle" x="156.0877" y="-8.2" font-family="Times,serif" font-size="14.00" fill="#000000">membrane</text>
</g>
<!-- GO:0046658 -->
<g id="node23" class="node">
<title>GO:0046658</title>
<polygon fill="#ffffff" stroke="#000000" points="148.2632,-178.2014 -.0878,-178.2014 -.0878,-119.3986 148.2632,-119.3986 148.2632,-178.2014"/>
<text text-anchor="middle" x="74.0877" y="-161.4" font-family="Times,serif" font-size="14.00" fill="#000000">GO:0046658</text>
<text text-anchor="middle" x="74.0877" y="-144.6" font-family="Times,serif" font-size="14.00" fill="#000000">anchored component of</text>
<text text-anchor="middle" x="74.0877" y="-127.8" font-family="Times,serif" font-size="14.00" fill="#000000">plasma membrane</text>
</g>
<!-- GO:0031362&#45;&gt;GO:0046658 -->
<g id="edge29" class="edge">
<title>GO:0031362&#45;&gt;GO:0046658</title>
<path fill="none" stroke="#000000" d="M128.3262,-75.2472C119.8018,-86.8072 110.4221,-99.527 101.8946,-111.0911"/>
<polygon fill="#000000" stroke="#000000" points="98.9784,-109.1485 95.8603,-119.2742 104.6123,-113.303 98.9784,-109.1485"/>
</g>
<!-- GO:0031233 -->
<g id="node24" class="node">
<title>GO:0031233</title>
<polygon fill="#ffffff" stroke="#000000" points="312.0394,-186.5003 166.136,-186.5003 166.136,-111.0997 312.0394,-111.0997 312.0394,-186.5003"/>
<text text-anchor="middle" x="239.0877" y="-169.8" font-family="Times,serif" font-size="14.00" fill="#000000">GO:0031233</text>
<text text-anchor="middle" x="239.0877" y="-153" font-family="Times,serif" font-size="14.00" fill="#000000">intrinsic component of</text>
<text text-anchor="middle" x="239.0877" y="-136.2" font-family="Times,serif" font-size="14.00" fill="#000000">external side of plasma</text>
<text text-anchor="middle" x="239.0877" y="-119.4" font-family="Times,serif" font-size="14.00" fill="#000000">membrane</text>
</g>
<!-- GO:0031362&#45;&gt;GO:0031233 -->
<g id="edge30" class="edge">
<title>GO:0031362&#45;&gt;GO:0031233</title>
<path fill="none" stroke="#000000" d="M184.1877,-75.2472C190.8806,-84.214 198.0943,-93.8787 205.0222,-103.1605"/>
<polygon fill="#000000" stroke="#000000" points="202.2302,-105.2712 211.0166,-111.1915 207.8399,-101.0841 202.2302,-105.2712"/>
</g>
<!-- GO:0046658&#45;&gt;GO:0031226 -->
<g id="edge31" class="edge">
<title>GO:0046658&#45;&gt;GO:0031226</title>
<path fill="none" stroke="#000000" d="M120.797,-178.2584C139.8908,-190.3004 162.121,-204.3204 182.0004,-216.8578"/>
<polygon fill="#000000" stroke="#000000" points="180.3282,-219.9411 190.6536,-222.3152 184.0623,-214.0203 180.3282,-219.9411"/>
</g>
<!-- GO:0031225 -->
<g id="node25" class="node">
<title>GO:0031225</title>
<polygon fill="#ffffff" stroke="#000000" points="148.2632,-281.0014 -.0878,-281.0014 -.0878,-222.1986 148.2632,-222.1986 148.2632,-281.0014"/>
<text text-anchor="middle" x="74.0877" y="-264.2" font-family="Times,serif" font-size="14.00" fill="#000000">GO:0031225</text>
<text text-anchor="middle" x="74.0877" y="-247.4" font-family="Times,serif" font-size="14.00" fill="#000000">anchored component of</text>
<text text-anchor="middle" x="74.0877" y="-230.6" font-family="Times,serif" font-size="14.00" fill="#000000">membrane</text>
</g>
<!-- GO:0046658&#45;&gt;GO:0031225 -->
<g id="edge32" class="edge">
<title>GO:0046658&#45;&gt;GO:0031225</title>
<path fill="none" stroke="#000000" d="M74.0877,-178.2584C74.0877,-188.7969 74.0877,-200.8505 74.0877,-212.0994"/>
<polygon fill="#000000" stroke="#000000" points="70.5878,-212.1373 74.0877,-222.1373 77.5878,-212.1374 70.5878,-212.1373"/>
</g>
<!-- GO:0031233&#45;&gt;GO:0031226 -->
<g id="edge33" class="edge">
<title>GO:0031233&#45;&gt;GO:0031226</title>
<path fill="none" stroke="#000000" d="M238.3543,-186.4952C238.1911,-194.8874 238.0176,-203.8054 237.853,-212.2618"/>
<polygon fill="#000000" stroke="#000000" points="234.3534,-212.2151 237.6581,-222.2814 241.3521,-212.3514 234.3534,-212.2151"/>
</g>
<!-- GO:0031225&#45;&gt;GO:0031224 -->
<g id="edge34" class="edge">
<title>GO:0031225&#45;&gt;GO:0031224</title>
<path fill="none" stroke="#000000" d="M86.2138,-280.9513C89.6622,-289.2982 93.4714,-298.5184 97.1112,-307.3286"/>
<polygon fill="#000000" stroke="#000000" points="93.9159,-308.761 100.9691,-316.6669 100.3856,-306.0881 93.9159,-308.761"/>
</g>
<!-- GO:0044424 -->
<g id="node26" class="node">
<title>GO:0044424</title>
<polygon fill="#00ffff" stroke="#000000" points="988.4861,-366.6019 879.6893,-366.6019 879.6893,-325.3981 988.4861,-325.3981 988.4861,-366.6019"/>
<text text-anchor="middle" x="934.0877" y="-350.2" font-family="Times,serif" font-size="14.00" fill="#000000">GO:0044424</text>
<text text-anchor="middle" x="934.0877" y="-333.4" font-family="Times,serif" font-size="14.00" fill="#000000">intracellular part</text>
</g>
<!-- GO:0044424&#45;&gt;GO:0044464 -->
<g id="edge35" class="edge">
<title>GO:0044424&#45;&gt;GO:0044464</title>
<path fill="none" stroke="#000000" d="M934.0877,-366.8182C934.0877,-377.1705 934.0877,-389.8848 934.0877,-401.3271"/>
<polygon fill="#000000" stroke="#000000" points="930.5878,-401.3735 934.0877,-411.3735 937.5878,-401.3735 930.5878,-401.3735"/>
</g>
</g>
</svg>
