<?xml version="1.0" encoding="UTF-8" standalone="no"?>
<!DOCTYPE svg PUBLIC "-//W3C//DTD SVG 1.1//EN"
 "http://www.w3.org/Graphics/SVG/1.1/DTD/svg11.dtd">
<!-- Generated by graphviz version 2.40.1 (20161225.0304)
 -->
<!-- Title: G Pages: 1 -->
<svg width="745pt" height="238pt"
 viewBox="0.00 0.00 745.43 238.40" xmlns="http://www.w3.org/2000/svg" xmlns:xlink="http://www.w3.org/1999/xlink">
<g id="graph0" class="graph" transform="scale(1 1) rotate(0) translate(4 234.4)">
<title>G</title>
<polygon fill="#ffffff" stroke="transparent" points="-4,4 -4,-234.4 741.4345,-234.4 741.4345,4 -4,4"/>
<!-- GO:0050789 -->
<g id="node1" class="node">
<title>GO:0050789</title>
<polygon fill="#ffff00" stroke="#000000" points="147.6213,-153.0014 -.2075,-153.0014 -.2075,-94.1986 147.6213,-94.1986 147.6213,-153.0014"/>
<text text-anchor="middle" x="73.7069" y="-136.2" font-family="Times,serif" font-size="14.00" fill="#000000">GO:0050789</text>
<text text-anchor="middle" x="73.7069" y="-119.4" font-family="Times,serif" font-size="14.00" fill="#000000">regulation of biological</text>
<text text-anchor="middle" x="73.7069" y="-102.6" font-family="Times,serif" font-size="14.00" fill="#000000">process</text>
</g>
<!-- GO:0008150 -->
<g id="node2" class="node">
<title>GO:0008150</title>
<polygon fill="#ffffff" stroke="#000000" points="441.1775,-230.2019 320.2363,-230.2019 320.2363,-188.9981 441.1775,-188.9981 441.1775,-230.2019"/>
<text text-anchor="middle" x="380.7069" y="-213.8" font-family="Times,serif" font-size="14.00" fill="#000000">GO:0008150</text>
<text text-anchor="middle" x="380.7069" y="-197" font-family="Times,serif" font-size="14.00" fill="#000000">biological_process</text>
</g>
<!-- GO:0050789&#45;&gt;GO:0008150 -->
<g id="edge1" class="edge">
<title>GO:0050789&#45;&gt;GO:0008150</title>
<path fill="none" stroke="#000000" d="M147.8098,-150.0412C150.8081,-150.9932 153.7823,-151.9167 156.7069,-152.8 207.5877,-168.1671 265.7957,-182.8407 310.1209,-193.4231"/>
<polygon fill="#000000" stroke="#000000" points="309.3924,-196.8474 319.9305,-195.7525 311.0097,-190.0368 309.3924,-196.8474"/>
</g>
<!-- GO:0065007 -->
<g id="node3" class="node">
<title>GO:0065007</title>
<polygon fill="#ffff00" stroke="#000000" points="297.9603,-144.2019 165.4535,-144.2019 165.4535,-102.9981 297.9603,-102.9981 297.9603,-144.2019"/>
<text text-anchor="middle" x="231.7069" y="-127.8" font-family="Times,serif" font-size="14.00" fill="#000000">GO:0065007</text>
<text text-anchor="middle" x="231.7069" y="-111" font-family="Times,serif" font-size="14.00" fill="#000000">biological regulation</text>
</g>
<!-- GO:0065007&#45;&gt;GO:0008150 -->
<g id="edge2" class="edge">
<title>GO:0065007&#45;&gt;GO:0008150</title>
<path fill="none" stroke="#000000" d="M267.7756,-144.4182C288.3654,-156.3022 314.3481,-171.299 336.1989,-183.9108"/>
<polygon fill="#000000" stroke="#000000" points="334.5598,-187.0059 344.9703,-188.9735 338.059,-180.9432 334.5598,-187.0059"/>
</g>
<!-- GO:0050794 -->
<g id="node4" class="node">
<title>GO:0050794</title>
<polygon fill="#00ff00" stroke="#000000" points="219.6059,-58.6014 85.8079,-58.6014 85.8079,.2014 219.6059,.2014 219.6059,-58.6014"/>
<text text-anchor="middle" x="152.7069" y="-41.8" font-family="Times,serif" font-size="14.00" fill="#000000">GO:0050794</text>
<text text-anchor="middle" x="152.7069" y="-25" font-family="Times,serif" font-size="14.00" fill="#000000">regulation of cellular</text>
<text text-anchor="middle" x="152.7069" y="-8.2" font-family="Times,serif" font-size="14.00" fill="#000000">process</text>
</g>
<!-- GO:0050794&#45;&gt;GO:0050789 -->
<g id="edge4" class="edge">
<title>GO:0050794&#45;&gt;GO:0050789</title>
<path fill="none" stroke="#000000" d="M128.1439,-58.5513C120.7871,-67.3422 112.6196,-77.1018 104.8962,-86.3308"/>
<polygon fill="#000000" stroke="#000000" points="101.9885,-84.3517 98.2548,-94.2669 107.3567,-88.8442 101.9885,-84.3517"/>
</g>
<!-- GO:0050794&#45;&gt;GO:0065007 -->
<g id="edge3" class="edge">
<title>GO:0050794&#45;&gt;GO:0065007</title>
<path fill="none" stroke="#000000" d="M177.2699,-58.5513C187.0592,-70.2488 198.2838,-83.6615 207.9877,-95.257"/>
<polygon fill="#000000" stroke="#000000" points="205.3245,-97.5283 214.4265,-102.951 210.6927,-93.0358 205.3245,-97.5283"/>
</g>
<!-- GO:0050896 -->
<g id="node5" class="node">
<title>GO:0050896</title>
<polygon fill="#ff00ff" stroke="#000000" points="446.0285,-144.2019 315.3853,-144.2019 315.3853,-102.9981 446.0285,-102.9981 446.0285,-144.2019"/>
<text text-anchor="middle" x="380.7069" y="-127.8" font-family="Times,serif" font-size="14.00" fill="#000000">GO:0050896</text>
<text text-anchor="middle" x="380.7069" y="-111" font-family="Times,serif" font-size="14.00" fill="#000000">response to stimulus</text>
</g>
<!-- GO:0050896&#45;&gt;GO:0008150 -->
<g id="edge5" class="edge">
<title>GO:0050896&#45;&gt;GO:0008150</title>
<path fill="none" stroke="#000000" d="M380.7069,-144.4182C380.7069,-154.7705 380.7069,-167.4848 380.7069,-178.9271"/>
<polygon fill="#000000" stroke="#000000" points="377.207,-178.9735 380.7069,-188.9735 384.207,-178.9735 377.207,-178.9735"/>
</g>
<!-- GO:0044699 -->
<g id="node6" class="node">
<title>GO:0044699</title>
<polygon fill="#ffa500" stroke="#000000" points="615.3882,-144.2019 464.0256,-144.2019 464.0256,-102.9981 615.3882,-102.9981 615.3882,-144.2019"/>
<text text-anchor="middle" x="539.7069" y="-127.8" font-family="Times,serif" font-size="14.00" fill="#000000">GO:0044699</text>
<text text-anchor="middle" x="539.7069" y="-111" font-family="Times,serif" font-size="14.00" fill="#000000">single&#45;organism process</text>
</g>
<!-- GO:0044699&#45;&gt;GO:0008150 -->
<g id="edge6" class="edge">
<title>GO:0044699&#45;&gt;GO:0008150</title>
<path fill="none" stroke="#000000" d="M501.2174,-144.4182C479.1482,-156.355 451.2727,-171.4323 427.8914,-184.0788"/>
<polygon fill="#000000" stroke="#000000" points="425.9726,-181.1374 418.8419,-188.9735 429.3029,-187.2945 425.9726,-181.1374"/>
</g>
<!-- GO:0009987 -->
<g id="node7" class="node">
<title>GO:0009987</title>
<polygon fill="#ffa500" stroke="#000000" points="737.6631,-144.2019 633.7507,-144.2019 633.7507,-102.9981 737.6631,-102.9981 737.6631,-144.2019"/>
<text text-anchor="middle" x="685.7069" y="-127.8" font-family="Times,serif" font-size="14.00" fill="#000000">GO:0009987</text>
<text text-anchor="middle" x="685.7069" y="-111" font-family="Times,serif" font-size="14.00" fill="#000000">cellular process</text>
</g>
<!-- GO:0009987&#45;&gt;GO:0008150 -->
<g id="edge7" class="edge">
<title>GO:0009987&#45;&gt;GO:0008150</title>
<path fill="none" stroke="#000000" d="M645.5412,-144.3376C638.6951,-147.4331 631.5755,-150.389 624.7069,-152.8 567.6921,-172.8133 500.699,-187.8329 451.3494,-197.3847"/>
<polygon fill="#000000" stroke="#000000" points="450.577,-193.9688 441.41,-199.2808 451.8888,-200.8448 450.577,-193.9688"/>
</g>
<!-- GO:0044763 -->
<g id="node8" class="node">
<title>GO:0044763</title>
<polygon fill="#ffff00" stroke="#000000" points="688.3854,-58.6014 537.0284,-58.6014 537.0284,.2014 688.3854,.2014 688.3854,-58.6014"/>
<text text-anchor="middle" x="612.7069" y="-41.8" font-family="Times,serif" font-size="14.00" fill="#000000">GO:0044763</text>
<text text-anchor="middle" x="612.7069" y="-25" font-family="Times,serif" font-size="14.00" fill="#000000">single&#45;organism cellular</text>
<text text-anchor="middle" x="612.7069" y="-8.2" font-family="Times,serif" font-size="14.00" fill="#000000">process</text>
</g>
<!-- GO:0044763&#45;&gt;GO:0044699 -->
<g id="edge9" class="edge">
<title>GO:0044763&#45;&gt;GO:0044699</title>
<path fill="none" stroke="#000000" d="M590.0094,-58.5513C581.0507,-70.1363 570.7909,-83.4037 561.8837,-94.922"/>
<polygon fill="#000000" stroke="#000000" points="559.0235,-92.8992 555.6749,-102.951 564.561,-97.1814 559.0235,-92.8992"/>
</g>
<!-- GO:0044763&#45;&gt;GO:0009987 -->
<g id="edge8" class="edge">
<title>GO:0044763&#45;&gt;GO:0009987</title>
<path fill="none" stroke="#000000" d="M635.4044,-58.5513C644.3631,-70.1363 654.6229,-83.4037 663.5301,-94.922"/>
<polygon fill="#000000" stroke="#000000" points="660.8528,-97.1814 669.7389,-102.951 666.3903,-92.8992 660.8528,-97.1814"/>
</g>
</g>
</svg>
