<?xml version="1.0" encoding="UTF-8" standalone="no"?>
<!DOCTYPE svg PUBLIC "-//W3C//DTD SVG 1.1//EN"
 "http://www.w3.org/Graphics/SVG/1.1/DTD/svg11.dtd">
<!-- Generated by graphviz version 2.40.1 (20161225.0304)
 -->
<!-- Title: G Pages: 1 -->
<svg width="1055pt" height="754pt"
 viewBox="0.00 0.00 1054.61 754.40" xmlns="http://www.w3.org/2000/svg" xmlns:xlink="http://www.w3.org/1999/xlink">
<g id="graph0" class="graph" transform="scale(1 1) rotate(0) translate(4 750.4)">
<title>G</title>
<polygon fill="#ffffff" stroke="transparent" points="-4,4 -4,-750.4 1050.6147,-750.4 1050.6147,4 -4,4"/>
<!-- GO:1901363 -->
<g id="node1" class="node">
<title>GO:1901363</title>
<polygon fill="#ffffff" stroke="#000000" points="359.3539,-591.4014 212.3327,-591.4014 212.3327,-532.5986 359.3539,-532.5986 359.3539,-591.4014"/>
<text text-anchor="middle" x="285.8433" y="-574.6" font-family="Times,serif" font-size="14.00" fill="#000000">GO:1901363</text>
<text text-anchor="middle" x="285.8433" y="-557.8" font-family="Times,serif" font-size="14.00" fill="#000000">heterocyclic compound</text>
<text text-anchor="middle" x="285.8433" y="-541" font-family="Times,serif" font-size="14.00" fill="#000000">binding</text>
</g>
<!-- GO:0005488 -->
<g id="node2" class="node">
<title>GO:0005488</title>
<polygon fill="#ffffff" stroke="#000000" points="563.4472,-668.6019 474.2394,-668.6019 474.2394,-627.3981 563.4472,-627.3981 563.4472,-668.6019"/>
<text text-anchor="middle" x="518.8433" y="-652.2" font-family="Times,serif" font-size="14.00" fill="#000000">GO:0005488</text>
<text text-anchor="middle" x="518.8433" y="-635.4" font-family="Times,serif" font-size="14.00" fill="#000000">binding</text>
</g>
<!-- GO:1901363&#45;&gt;GO:0005488 -->
<g id="edge1" class="edge">
<title>GO:1901363&#45;&gt;GO:0005488</title>
<path fill="none" stroke="#000000" d="M359.566,-589.2109C393.6385,-601.7871 433.3801,-616.4556 464.6423,-627.9945"/>
<polygon fill="#000000" stroke="#000000" points="463.4631,-631.29 474.0565,-631.4692 465.8871,-624.723 463.4631,-631.29"/>
</g>
<!-- GO:0003674 -->
<g id="node3" class="node">
<title>GO:0003674</title>
<polygon fill="#ffffff" stroke="#000000" points="639.4764,-746.2019 514.2102,-746.2019 514.2102,-704.9981 639.4764,-704.9981 639.4764,-746.2019"/>
<text text-anchor="middle" x="576.8433" y="-729.8" font-family="Times,serif" font-size="14.00" fill="#000000">GO:0003674</text>
<text text-anchor="middle" x="576.8433" y="-713" font-family="Times,serif" font-size="14.00" fill="#000000">molecular_function</text>
</g>
<!-- GO:0005488&#45;&gt;GO:0003674 -->
<g id="edge2" class="edge">
<title>GO:0005488&#45;&gt;GO:0003674</title>
<path fill="none" stroke="#000000" d="M534.3862,-668.7954C540.7575,-677.3197 548.2424,-687.3339 555.1385,-696.5605"/>
<polygon fill="#000000" stroke="#000000" points="552.4672,-698.8327 561.2575,-704.7472 558.0741,-694.6419 552.4672,-698.8327"/>
</g>
<!-- GO:0046872 -->
<g id="node4" class="node">
<title>GO:0046872</title>
<polygon fill="#ffffff" stroke="#000000" points="644.1163,-402.2019 529.5703,-402.2019 529.5703,-360.9981 644.1163,-360.9981 644.1163,-402.2019"/>
<text text-anchor="middle" x="586.8433" y="-385.8" font-family="Times,serif" font-size="14.00" fill="#000000">GO:0046872</text>
<text text-anchor="middle" x="586.8433" y="-369" font-family="Times,serif" font-size="14.00" fill="#000000">metal ion binding</text>
</g>
<!-- GO:0043169 -->
<g id="node5" class="node">
<title>GO:0043169</title>
<polygon fill="#ffffff" stroke="#000000" points="635.3362,-488.2019 538.3504,-488.2019 538.3504,-446.9981 635.3362,-446.9981 635.3362,-488.2019"/>
<text text-anchor="middle" x="586.8433" y="-471.8" font-family="Times,serif" font-size="14.00" fill="#000000">GO:0043169</text>
<text text-anchor="middle" x="586.8433" y="-455" font-family="Times,serif" font-size="14.00" fill="#000000">cation binding</text>
</g>
<!-- GO:0046872&#45;&gt;GO:0043169 -->
<g id="edge3" class="edge">
<title>GO:0046872&#45;&gt;GO:0043169</title>
<path fill="none" stroke="#000000" d="M586.8433,-402.4182C586.8433,-412.7705 586.8433,-425.4848 586.8433,-436.9271"/>
<polygon fill="#000000" stroke="#000000" points="583.3434,-436.9735 586.8433,-446.9735 590.3434,-436.9735 583.3434,-436.9735"/>
</g>
<!-- GO:0043167 -->
<g id="node6" class="node">
<title>GO:0043167</title>
<polygon fill="#ffffff" stroke="#000000" points="631.4472,-582.6019 542.2394,-582.6019 542.2394,-541.3981 631.4472,-541.3981 631.4472,-582.6019"/>
<text text-anchor="middle" x="586.8433" y="-566.2" font-family="Times,serif" font-size="14.00" fill="#000000">GO:0043167</text>
<text text-anchor="middle" x="586.8433" y="-549.4" font-family="Times,serif" font-size="14.00" fill="#000000">ion binding</text>
</g>
<!-- GO:0043169&#45;&gt;GO:0043167 -->
<g id="edge4" class="edge">
<title>GO:0043169&#45;&gt;GO:0043167</title>
<path fill="none" stroke="#000000" d="M586.8433,-488.5504C586.8433,-501.0165 586.8433,-517.0645 586.8433,-530.9786"/>
<polygon fill="#000000" stroke="#000000" points="583.3434,-531.1081 586.8433,-541.1081 590.3434,-531.1082 583.3434,-531.1081"/>
</g>
<!-- GO:0043167&#45;&gt;GO:0005488 -->
<g id="edge5" class="edge">
<title>GO:0043167&#45;&gt;GO:0005488</title>
<path fill="none" stroke="#000000" d="M570.3824,-582.8182C561.6957,-593.8043 550.9057,-607.4506 541.4465,-619.4137"/>
<polygon fill="#000000" stroke="#000000" points="538.6095,-617.3585 535.1526,-627.3735 544.1005,-621.7002 538.6095,-617.3585"/>
</g>
<!-- GO:0005524 -->
<g id="node7" class="node">
<title>GO:0005524</title>
<polygon fill="#ffffff" stroke="#000000" points="216.4472,-41.4019 127.2394,-41.4019 127.2394,-.1981 216.4472,-.1981 216.4472,-41.4019"/>
<text text-anchor="middle" x="171.8433" y="-25" font-family="Times,serif" font-size="14.00" fill="#000000">GO:0005524</text>
<text text-anchor="middle" x="171.8433" y="-8.2" font-family="Times,serif" font-size="14.00" fill="#000000">ATP binding</text>
</g>
<!-- GO:0035639 -->
<g id="node8" class="node">
<title>GO:0035639</title>
<polygon fill="#ffffff" stroke="#000000" points="137.5303,-136.2014 .1563,-136.2014 .1563,-77.3986 137.5303,-77.3986 137.5303,-136.2014"/>
<text text-anchor="middle" x="68.8433" y="-119.4" font-family="Times,serif" font-size="14.00" fill="#000000">GO:0035639</text>
<text text-anchor="middle" x="68.8433" y="-102.6" font-family="Times,serif" font-size="14.00" fill="#000000">purine ribonucleoside</text>
<text text-anchor="middle" x="68.8433" y="-85.8" font-family="Times,serif" font-size="14.00" fill="#000000">triphosphate binding</text>
</g>
<!-- GO:0005524&#45;&gt;GO:0035639 -->
<g id="edge6" class="edge">
<title>GO:0005524&#45;&gt;GO:0035639</title>
<path fill="none" stroke="#000000" d="M146.9099,-41.6182C136.3606,-50.4263 123.7633,-60.9445 111.799,-70.9341"/>
<polygon fill="#000000" stroke="#000000" points="109.4889,-68.3033 104.056,-77.3991 113.9753,-73.6766 109.4889,-68.3033"/>
</g>
<!-- GO:0032559 -->
<g id="node9" class="node">
<title>GO:0032559</title>
<polygon fill="#ffffff" stroke="#000000" points="378.5303,-136.2014 241.1563,-136.2014 241.1563,-77.3986 378.5303,-77.3986 378.5303,-136.2014"/>
<text text-anchor="middle" x="309.8433" y="-119.4" font-family="Times,serif" font-size="14.00" fill="#000000">GO:0032559</text>
<text text-anchor="middle" x="309.8433" y="-102.6" font-family="Times,serif" font-size="14.00" fill="#000000">adenyl ribonucleotide</text>
<text text-anchor="middle" x="309.8433" y="-85.8" font-family="Times,serif" font-size="14.00" fill="#000000">binding</text>
</g>
<!-- GO:0005524&#45;&gt;GO:0032559 -->
<g id="edge7" class="edge">
<title>GO:0005524&#45;&gt;GO:0032559</title>
<path fill="none" stroke="#000000" d="M205.2493,-41.6182C219.9896,-50.8042 237.7144,-61.8501 254.3492,-72.2167"/>
<polygon fill="#000000" stroke="#000000" points="252.5892,-75.2439 262.9272,-77.5624 256.2915,-69.3031 252.5892,-75.2439"/>
</g>
<!-- GO:0032550 -->
<g id="node10" class="node">
<title>GO:0032550</title>
<polygon fill="#ffffff" stroke="#000000" points="240.5303,-325.0014 103.1563,-325.0014 103.1563,-266.1986 240.5303,-266.1986 240.5303,-325.0014"/>
<text text-anchor="middle" x="171.8433" y="-308.2" font-family="Times,serif" font-size="14.00" fill="#000000">GO:0032550</text>
<text text-anchor="middle" x="171.8433" y="-291.4" font-family="Times,serif" font-size="14.00" fill="#000000">purine ribonucleoside</text>
<text text-anchor="middle" x="171.8433" y="-274.6" font-family="Times,serif" font-size="14.00" fill="#000000">binding</text>
</g>
<!-- GO:0005524&#45;&gt;GO:0032550 -->
<g id="edge8" class="edge">
<title>GO:0005524&#45;&gt;GO:0032550</title>
<path fill="none" stroke="#000000" d="M171.8433,-41.4547C171.8433,-87.024 171.8433,-196.8238 171.8433,-256.0863"/>
<polygon fill="#000000" stroke="#000000" points="168.3434,-256.1895 171.8433,-266.1896 175.3434,-256.1896 168.3434,-256.1895"/>
</g>
<!-- GO:1901265 -->
<g id="node11" class="node">
<title>GO:1901265</title>
<polygon fill="#ffffff" stroke="#000000" points="194.9774,-497.0014 58.7092,-497.0014 58.7092,-438.1986 194.9774,-438.1986 194.9774,-497.0014"/>
<text text-anchor="middle" x="126.8433" y="-480.2" font-family="Times,serif" font-size="14.00" fill="#000000">GO:1901265</text>
<text text-anchor="middle" x="126.8433" y="-463.4" font-family="Times,serif" font-size="14.00" fill="#000000">nucleoside phosphate</text>
<text text-anchor="middle" x="126.8433" y="-446.6" font-family="Times,serif" font-size="14.00" fill="#000000">binding</text>
</g>
<!-- GO:0035639&#45;&gt;GO:1901265 -->
<g id="edge9" class="edge">
<title>GO:0035639&#45;&gt;GO:1901265</title>
<path fill="none" stroke="#000000" d="M55.8026,-136.4024C33.4431,-191.8981 -5.7071,-313.9462 38.8433,-402.4 44.5124,-413.6558 53.145,-423.4538 62.8265,-431.7943"/>
<polygon fill="#000000" stroke="#000000" points="60.7878,-434.6459 70.7791,-438.1708 65.1667,-429.1846 60.7878,-434.6459"/>
</g>
<!-- GO:0032555 -->
<g id="node12" class="node">
<title>GO:0032555</title>
<polygon fill="#ffffff" stroke="#000000" points="544.976,-230.6014 408.7106,-230.6014 408.7106,-171.7986 544.976,-171.7986 544.976,-230.6014"/>
<text text-anchor="middle" x="476.8433" y="-213.8" font-family="Times,serif" font-size="14.00" fill="#000000">GO:0032555</text>
<text text-anchor="middle" x="476.8433" y="-197" font-family="Times,serif" font-size="14.00" fill="#000000">purine ribonucleotide</text>
<text text-anchor="middle" x="476.8433" y="-180.2" font-family="Times,serif" font-size="14.00" fill="#000000">binding</text>
</g>
<!-- GO:0032559&#45;&gt;GO:0032555 -->
<g id="edge10" class="edge">
<title>GO:0032559&#45;&gt;GO:0032555</title>
<path fill="none" stroke="#000000" d="M361.7677,-136.1513C378.8902,-145.8301 398.0902,-156.6833 415.8276,-166.7097"/>
<polygon fill="#000000" stroke="#000000" points="414.5232,-169.9928 424.951,-171.8669 417.9679,-163.899 414.5232,-169.9928"/>
</g>
<!-- GO:0030554 -->
<g id="node13" class="node">
<title>GO:0030554</title>
<polygon fill="#ffffff" stroke="#000000" points="390.7604,-221.8019 228.9262,-221.8019 228.9262,-180.5981 390.7604,-180.5981 390.7604,-221.8019"/>
<text text-anchor="middle" x="309.8433" y="-205.4" font-family="Times,serif" font-size="14.00" fill="#000000">GO:0030554</text>
<text text-anchor="middle" x="309.8433" y="-188.6" font-family="Times,serif" font-size="14.00" fill="#000000">adenyl nucleotide binding</text>
</g>
<!-- GO:0032559&#45;&gt;GO:0030554 -->
<g id="edge11" class="edge">
<title>GO:0032559&#45;&gt;GO:0030554</title>
<path fill="none" stroke="#000000" d="M309.8433,-136.1513C309.8433,-147.0614 309.8433,-159.4637 309.8433,-170.492"/>
<polygon fill="#000000" stroke="#000000" points="306.3434,-170.5509 309.8433,-180.551 313.3434,-170.551 306.3434,-170.5509"/>
</g>
<!-- GO:0001883 -->
<g id="node14" class="node">
<title>GO:0001883</title>
<polygon fill="#ffffff" stroke="#000000" points="209.7604,-402.2019 47.9262,-402.2019 47.9262,-360.9981 209.7604,-360.9981 209.7604,-402.2019"/>
<text text-anchor="middle" x="128.8433" y="-385.8" font-family="Times,serif" font-size="14.00" fill="#000000">GO:0001883</text>
<text text-anchor="middle" x="128.8433" y="-369" font-family="Times,serif" font-size="14.00" fill="#000000">purine nucleoside binding</text>
</g>
<!-- GO:0032550&#45;&gt;GO:0001883 -->
<g id="edge12" class="edge">
<title>GO:0032550&#45;&gt;GO:0001883</title>
<path fill="none" stroke="#000000" d="M157.0451,-325.1963C152.7277,-333.8312 148.0096,-343.2673 143.6892,-351.9081"/>
<polygon fill="#000000" stroke="#000000" points="140.5367,-350.387 139.195,-360.8966 146.7977,-353.5175 140.5367,-350.387"/>
</g>
<!-- GO:0032549 -->
<g id="node15" class="node">
<title>GO:0032549</title>
<polygon fill="#ffffff" stroke="#000000" points="372.0456,-402.2019 227.641,-402.2019 227.641,-360.9981 372.0456,-360.9981 372.0456,-402.2019"/>
<text text-anchor="middle" x="299.8433" y="-385.8" font-family="Times,serif" font-size="14.00" fill="#000000">GO:0032549</text>
<text text-anchor="middle" x="299.8433" y="-369" font-family="Times,serif" font-size="14.00" fill="#000000">ribonucleoside binding</text>
</g>
<!-- GO:0032550&#45;&gt;GO:0032549 -->
<g id="edge13" class="edge">
<title>GO:0032550&#45;&gt;GO:0032549</title>
<path fill="none" stroke="#000000" d="M215.5356,-324.9558C230.0497,-334.7074 246.1182,-345.5035 260.3007,-355.0323"/>
<polygon fill="#000000" stroke="#000000" points="258.6044,-358.1092 268.8568,-360.7809 262.5082,-352.2988 258.6044,-358.1092"/>
</g>
<!-- GO:1901265&#45;&gt;GO:1901363 -->
<g id="edge15" class="edge">
<title>GO:1901265&#45;&gt;GO:1901363</title>
<path fill="none" stroke="#000000" d="M176.2803,-496.9513C192.5826,-506.6301 210.8628,-517.4833 227.7505,-527.5097"/>
<polygon fill="#000000" stroke="#000000" points="226.0513,-530.5712 236.4369,-532.6669 229.625,-524.5521 226.0513,-530.5712"/>
</g>
<!-- GO:0097159 -->
<g id="node16" class="node">
<title>GO:0097159</title>
<polygon fill="#ffffff" stroke="#000000" points="194.3547,-591.4014 37.3319,-591.4014 37.3319,-532.5986 194.3547,-532.5986 194.3547,-591.4014"/>
<text text-anchor="middle" x="115.8433" y="-574.6" font-family="Times,serif" font-size="14.00" fill="#000000">GO:0097159</text>
<text text-anchor="middle" x="115.8433" y="-557.8" font-family="Times,serif" font-size="14.00" fill="#000000">organic cyclic compound</text>
<text text-anchor="middle" x="115.8433" y="-541" font-family="Times,serif" font-size="14.00" fill="#000000">binding</text>
</g>
<!-- GO:1901265&#45;&gt;GO:0097159 -->
<g id="edge14" class="edge">
<title>GO:1901265&#45;&gt;GO:0097159</title>
<path fill="none" stroke="#000000" d="M123.4231,-496.9513C122.4815,-505.0318 121.4446,-513.9308 120.4479,-522.4838"/>
<polygon fill="#000000" stroke="#000000" points="116.9424,-522.3289 119.2614,-532.6669 123.8953,-523.1392 116.9424,-522.3289"/>
</g>
<!-- GO:0017076 -->
<g id="node17" class="node">
<title>GO:0017076</title>
<polygon fill="#ffffff" stroke="#000000" points="487.706,-316.2019 327.9806,-316.2019 327.9806,-274.9981 487.706,-274.9981 487.706,-316.2019"/>
<text text-anchor="middle" x="407.8433" y="-299.8" font-family="Times,serif" font-size="14.00" fill="#000000">GO:0017076</text>
<text text-anchor="middle" x="407.8433" y="-283" font-family="Times,serif" font-size="14.00" fill="#000000">purine nucleotide binding</text>
</g>
<!-- GO:0032555&#45;&gt;GO:0017076 -->
<g id="edge16" class="edge">
<title>GO:0032555&#45;&gt;GO:0017076</title>
<path fill="none" stroke="#000000" d="M455.3895,-230.5513C447.0039,-242.0238 437.4123,-255.1462 429.0505,-266.5861"/>
<polygon fill="#000000" stroke="#000000" points="426.0117,-264.8123 422.9363,-274.951 431.663,-268.9431 426.0117,-264.8123"/>
</g>
<!-- GO:0032553 -->
<g id="node18" class="node">
<title>GO:0032553</title>
<polygon fill="#ffffff" stroke="#000000" points="649.4914,-316.2019 506.1952,-316.2019 506.1952,-274.9981 649.4914,-274.9981 649.4914,-316.2019"/>
<text text-anchor="middle" x="577.8433" y="-299.8" font-family="Times,serif" font-size="14.00" fill="#000000">GO:0032553</text>
<text text-anchor="middle" x="577.8433" y="-283" font-family="Times,serif" font-size="14.00" fill="#000000">ribonucleotide binding</text>
</g>
<!-- GO:0032555&#45;&gt;GO:0032553 -->
<g id="edge17" class="edge">
<title>GO:0032555&#45;&gt;GO:0032553</title>
<path fill="none" stroke="#000000" d="M508.2467,-230.5513C521.0027,-242.4737 535.6651,-256.178 548.2323,-267.924"/>
<polygon fill="#000000" stroke="#000000" points="546.0549,-270.6796 555.7506,-274.951 550.8348,-265.5656 546.0549,-270.6796"/>
</g>
<!-- GO:0030554&#45;&gt;GO:0017076 -->
<g id="edge18" class="edge">
<title>GO:0030554&#45;&gt;GO:0017076</title>
<path fill="none" stroke="#000000" d="M331.5927,-222.1504C345.4223,-235.472 363.4983,-252.884 378.5795,-267.4112"/>
<polygon fill="#000000" stroke="#000000" points="376.5244,-270.2913 386.1547,-274.7081 381.3807,-265.2498 376.5244,-270.2913"/>
</g>
<!-- GO:0001882 -->
<g id="node19" class="node">
<title>GO:0001882</title>
<polygon fill="#ffffff" stroke="#000000" points="353.9942,-488.2019 231.6924,-488.2019 231.6924,-446.9981 353.9942,-446.9981 353.9942,-488.2019"/>
<text text-anchor="middle" x="292.8433" y="-471.8" font-family="Times,serif" font-size="14.00" fill="#000000">GO:0001882</text>
<text text-anchor="middle" x="292.8433" y="-455" font-family="Times,serif" font-size="14.00" fill="#000000">nucleoside binding</text>
</g>
<!-- GO:0001883&#45;&gt;GO:0001882 -->
<g id="edge19" class="edge">
<title>GO:0001883&#45;&gt;GO:0001882</title>
<path fill="none" stroke="#000000" d="M168.5431,-402.4182C191.4071,-414.4078 220.313,-429.5658 244.4949,-442.2466"/>
<polygon fill="#000000" stroke="#000000" points="243.0274,-445.429 253.5091,-446.9735 246.2783,-439.2297 243.0274,-445.429"/>
</g>
<!-- GO:0032549&#45;&gt;GO:0001882 -->
<g id="edge20" class="edge">
<title>GO:0032549&#45;&gt;GO:0001882</title>
<path fill="none" stroke="#000000" d="M298.1488,-402.4182C297.3062,-412.7705 296.2713,-425.4848 295.3399,-436.9271"/>
<polygon fill="#000000" stroke="#000000" points="291.8451,-436.7225 294.5222,-446.9735 298.822,-437.2905 291.8451,-436.7225"/>
</g>
<!-- GO:0097159&#45;&gt;GO:0005488 -->
<g id="edge21" class="edge">
<title>GO:0097159&#45;&gt;GO:0005488</title>
<path fill="none" stroke="#000000" d="M194.4101,-588.9415C197.2477,-589.7321 200.0652,-590.4882 202.8433,-591.2 293.2483,-614.3644 400.5666,-631.5246 464.0048,-640.6259"/>
<polygon fill="#000000" stroke="#000000" points="463.7884,-644.1303 474.1811,-642.0707 464.7724,-637.1997 463.7884,-644.1303"/>
</g>
<!-- GO:0000166 -->
<g id="node20" class="node">
<title>GO:0000166</title>
<polygon fill="#ffffff" stroke="#000000" points="510.9408,-402.2019 390.7458,-402.2019 390.7458,-360.9981 510.9408,-360.9981 510.9408,-402.2019"/>
<text text-anchor="middle" x="450.8433" y="-385.8" font-family="Times,serif" font-size="14.00" fill="#000000">GO:0000166</text>
<text text-anchor="middle" x="450.8433" y="-369" font-family="Times,serif" font-size="14.00" fill="#000000">nucleotide binding</text>
</g>
<!-- GO:0017076&#45;&gt;GO:0000166 -->
<g id="edge22" class="edge">
<title>GO:0017076&#45;&gt;GO:0000166</title>
<path fill="none" stroke="#000000" d="M418.2524,-316.4182C423.587,-327.0874 430.176,-340.2655 436.0304,-351.9743"/>
<polygon fill="#000000" stroke="#000000" points="432.9274,-353.5945 440.5301,-360.9735 439.1884,-350.464 432.9274,-353.5945"/>
</g>
<!-- GO:0032553&#45;&gt;GO:0000166 -->
<g id="edge24" class="edge">
<title>GO:0032553&#45;&gt;GO:0000166</title>
<path fill="none" stroke="#000000" d="M547.1001,-316.4182C529.9405,-328.0381 508.3861,-342.634 490.0264,-355.0665"/>
<polygon fill="#000000" stroke="#000000" points="487.621,-352.4684 481.3033,-360.9735 491.546,-358.2645 487.621,-352.4684"/>
</g>
<!-- GO:0097367 -->
<g id="node21" class="node">
<title>GO:0097367</title>
<polygon fill="#ffffff" stroke="#000000" points="797.8904,-591.4014 649.7962,-591.4014 649.7962,-532.5986 797.8904,-532.5986 797.8904,-591.4014"/>
<text text-anchor="middle" x="723.8433" y="-574.6" font-family="Times,serif" font-size="14.00" fill="#000000">GO:0097367</text>
<text text-anchor="middle" x="723.8433" y="-557.8" font-family="Times,serif" font-size="14.00" fill="#000000">carbohydrate derivative</text>
<text text-anchor="middle" x="723.8433" y="-541" font-family="Times,serif" font-size="14.00" fill="#000000">binding</text>
</g>
<!-- GO:0032553&#45;&gt;GO:0097367 -->
<g id="edge23" class="edge">
<title>GO:0032553&#45;&gt;GO:0097367</title>
<path fill="none" stroke="#000000" d="M609.4862,-316.436C624.6077,-327.8809 641.7787,-343.3008 652.8433,-360.8 686.3834,-413.8455 668.119,-438.299 690.8433,-496.8 694.2842,-505.6583 698.5369,-514.9149 702.8316,-523.5782"/>
<polygon fill="#000000" stroke="#000000" points="699.8179,-525.3733 707.4719,-532.6991 706.0569,-522.1992 699.8179,-525.3733"/>
</g>
<!-- GO:0001882&#45;&gt;GO:1901363 -->
<g id="edge27" class="edge">
<title>GO:0001882&#45;&gt;GO:1901363</title>
<path fill="none" stroke="#000000" d="M291.2898,-488.5504C290.5483,-498.5492 289.636,-510.8525 288.7715,-522.5106"/>
<polygon fill="#000000" stroke="#000000" points="285.2788,-522.284 288.0296,-532.5155 292.2597,-522.8018 285.2788,-522.284"/>
</g>
<!-- GO:0001882&#45;&gt;GO:0097159 -->
<g id="edge28" class="edge">
<title>GO:0001882&#45;&gt;GO:0097159</title>
<path fill="none" stroke="#000000" d="M253.9999,-488.3165C232.248,-499.9175 204.5788,-514.6744 179.7241,-527.9302"/>
<polygon fill="#000000" stroke="#000000" points="177.8871,-524.9433 170.7106,-532.7374 181.1812,-531.1197 177.8871,-524.9433"/>
</g>
<!-- GO:0001882&#45;&gt;GO:0097367 -->
<g id="edge26" class="edge">
<title>GO:0001882&#45;&gt;GO:0097367</title>
<path fill="none" stroke="#000000" d="M354.1422,-476.1773C422.0405,-486.3265 534.7554,-505.0965 639.5642,-532.5894"/>
<polygon fill="#000000" stroke="#000000" points="638.792,-536.0056 649.3554,-535.1897 640.5888,-529.2401 638.792,-536.0056"/>
</g>
<!-- GO:0036094 -->
<g id="node22" class="node">
<title>GO:0036094</title>
<polygon fill="#ffffff" stroke="#000000" points="524.7717,-582.6019 376.9149,-582.6019 376.9149,-541.3981 524.7717,-541.3981 524.7717,-582.6019"/>
<text text-anchor="middle" x="450.8433" y="-566.2" font-family="Times,serif" font-size="14.00" fill="#000000">GO:0036094</text>
<text text-anchor="middle" x="450.8433" y="-549.4" font-family="Times,serif" font-size="14.00" fill="#000000">small molecule binding</text>
</g>
<!-- GO:0001882&#45;&gt;GO:0036094 -->
<g id="edge25" class="edge">
<title>GO:0001882&#45;&gt;GO:0036094</title>
<path fill="none" stroke="#000000" d="M327.5171,-488.3165C351.0821,-502.3959 382.4273,-521.1236 407.6192,-536.175"/>
<polygon fill="#000000" stroke="#000000" points="405.8707,-539.2074 416.2504,-541.3318 409.4611,-533.1982 405.8707,-539.2074"/>
</g>
<!-- GO:0000166&#45;&gt;GO:1901265 -->
<g id="edge30" class="edge">
<title>GO:0000166&#45;&gt;GO:1901265</title>
<path fill="none" stroke="#000000" d="M390.5839,-399.7754C387.2947,-400.6832 384.0318,-401.564 380.8433,-402.4 311.1763,-420.6667 292.4511,-419.909 222.8433,-438.4 216.9321,-439.9703 210.8366,-441.6591 204.7185,-443.4044"/>
<polygon fill="#000000" stroke="#000000" points="203.7425,-440.0431 195.1092,-446.1845 205.6879,-446.7674 203.7425,-440.0431"/>
</g>
<!-- GO:0000166&#45;&gt;GO:0036094 -->
<g id="edge29" class="edge">
<title>GO:0000166&#45;&gt;GO:0036094</title>
<path fill="none" stroke="#000000" d="M450.8433,-402.2942C450.8433,-433.882 450.8433,-494.3259 450.8433,-531.1168"/>
<polygon fill="#000000" stroke="#000000" points="447.3434,-531.27 450.8433,-541.2701 454.3434,-531.2701 447.3434,-531.27"/>
</g>
<!-- GO:0097367&#45;&gt;GO:0005488 -->
<g id="edge31" class="edge">
<title>GO:0097367&#45;&gt;GO:0005488</title>
<path fill="none" stroke="#000000" d="M654.1536,-591.2357C627.599,-602.3757 597.76,-614.8935 572.8733,-625.3338"/>
<polygon fill="#000000" stroke="#000000" points="571.4623,-622.1301 563.5949,-629.2262 574.1703,-628.5851 571.4623,-622.1301"/>
</g>
<!-- GO:0036094&#45;&gt;GO:0005488 -->
<g id="edge32" class="edge">
<title>GO:0036094&#45;&gt;GO:0005488</title>
<path fill="none" stroke="#000000" d="M467.3042,-582.8182C475.9909,-593.8043 486.7809,-607.4506 496.2401,-619.4137"/>
<polygon fill="#000000" stroke="#000000" points="493.5861,-621.7002 502.534,-627.3735 499.0771,-617.3585 493.5861,-621.7002"/>
</g>
<!-- GO:0003824 -->
<g id="node23" class="node">
<title>GO:0003824</title>
<polygon fill="#ffffff" stroke="#000000" points="690.2557,-668.6019 581.4309,-668.6019 581.4309,-627.3981 690.2557,-627.3981 690.2557,-668.6019"/>
<text text-anchor="middle" x="635.8433" y="-652.2" font-family="Times,serif" font-size="14.00" fill="#000000">GO:0003824</text>
<text text-anchor="middle" x="635.8433" y="-635.4" font-family="Times,serif" font-size="14.00" fill="#000000">catalytic activity</text>
</g>
<!-- GO:0003824&#45;&gt;GO:0003674 -->
<g id="edge33" class="edge">
<title>GO:0003824&#45;&gt;GO:0003674</title>
<path fill="none" stroke="#000000" d="M620.0324,-668.7954C613.5512,-677.3197 605.9374,-687.3339 598.9223,-696.5605"/>
<polygon fill="#000000" stroke="#000000" points="595.9641,-694.6684 592.6979,-704.7472 601.5365,-698.9051 595.9641,-694.6684"/>
</g>
<!-- GO:0008201 -->
<g id="node24" class="node">
<title>GO:0008201</title>
<polygon fill="#ffffff" stroke="#000000" points="929.1052,-402.2019 824.5814,-402.2019 824.5814,-360.9981 929.1052,-360.9981 929.1052,-402.2019"/>
<text text-anchor="middle" x="876.8433" y="-385.8" font-family="Times,serif" font-size="14.00" fill="#000000">GO:0008201</text>
<text text-anchor="middle" x="876.8433" y="-369" font-family="Times,serif" font-size="14.00" fill="#000000">heparin binding</text>
</g>
<!-- GO:1901681 -->
<g id="node25" class="node">
<title>GO:1901681</title>
<polygon fill="#ffffff" stroke="#000000" points="1046.3868,-488.2019 889.2998,-488.2019 889.2998,-446.9981 1046.3868,-446.9981 1046.3868,-488.2019"/>
<text text-anchor="middle" x="967.8433" y="-471.8" font-family="Times,serif" font-size="14.00" fill="#000000">GO:1901681</text>
<text text-anchor="middle" x="967.8433" y="-455" font-family="Times,serif" font-size="14.00" fill="#000000">sulfur compound binding</text>
</g>
<!-- GO:0008201&#45;&gt;GO:1901681 -->
<g id="edge34" class="edge">
<title>GO:0008201&#45;&gt;GO:1901681</title>
<path fill="none" stroke="#000000" d="M898.8719,-402.4182C910.832,-413.7212 925.7717,-427.8401 938.6859,-440.0446"/>
<polygon fill="#000000" stroke="#000000" points="936.3456,-442.6487 946.0176,-446.9735 941.1537,-437.5611 936.3456,-442.6487"/>
</g>
<!-- GO:0005539 -->
<g id="node26" class="node">
<title>GO:0005539</title>
<polygon fill="#ffffff" stroke="#000000" points="871.49,-488.2019 700.1966,-488.2019 700.1966,-446.9981 871.49,-446.9981 871.49,-488.2019"/>
<text text-anchor="middle" x="785.8433" y="-471.8" font-family="Times,serif" font-size="14.00" fill="#000000">GO:0005539</text>
<text text-anchor="middle" x="785.8433" y="-455" font-family="Times,serif" font-size="14.00" fill="#000000">glycosaminoglycan binding</text>
</g>
<!-- GO:0008201&#45;&gt;GO:0005539 -->
<g id="edge35" class="edge">
<title>GO:0008201&#45;&gt;GO:0005539</title>
<path fill="none" stroke="#000000" d="M854.8147,-402.4182C842.8546,-413.7212 827.9149,-427.8401 815.0007,-440.0446"/>
<polygon fill="#000000" stroke="#000000" points="812.5329,-437.5611 807.669,-446.9735 817.341,-442.6487 812.5329,-437.5611"/>
</g>
<!-- GO:1901681&#45;&gt;GO:0005488 -->
<g id="edge36" class="edge">
<title>GO:1901681&#45;&gt;GO:0005488</title>
<path fill="none" stroke="#000000" d="M947.6966,-488.6471C919.2089,-516.9924 864.2015,-566.6993 806.8433,-591.2 713.0073,-631.2822 676.7346,-602.027 573.5484,-627.3616"/>
<polygon fill="#000000" stroke="#000000" points="572.4984,-624.0177 563.685,-629.8977 574.2416,-630.7971 572.4984,-624.0177"/>
</g>
<!-- GO:0005539&#45;&gt;GO:0097367 -->
<g id="edge37" class="edge">
<title>GO:0005539&#45;&gt;GO:0097367</title>
<path fill="none" stroke="#000000" d="M772.0835,-488.5504C765.2511,-498.9532 756.7805,-511.8504 748.8532,-523.9204"/>
<polygon fill="#000000" stroke="#000000" points="745.7724,-522.2357 743.2081,-532.5155 751.6233,-526.0784 745.7724,-522.2357"/>
</g>
</g>
</svg>
