<?xml version="1.0" encoding="UTF-8" standalone="no"?>
<!DOCTYPE svg PUBLIC "-//W3C//DTD SVG 1.1//EN"
 "http://www.w3.org/Graphics/SVG/1.1/DTD/svg11.dtd">
<!-- Generated by graphviz version 2.40.1 (20161225.0304)
 -->
<!-- Title: G Pages: 1 -->
<svg width="580pt" height="394pt"
 viewBox="0.00 0.00 579.59 393.60" xmlns="http://www.w3.org/2000/svg" xmlns:xlink="http://www.w3.org/1999/xlink">
<g id="graph0" class="graph" transform="scale(1 1) rotate(0) translate(4 389.6)">
<title>G</title>
<polygon fill="#ffffff" stroke="transparent" points="-4,4 -4,-389.6 575.5895,-389.6 575.5895,4 -4,4"/>
<!-- GO:0043229 -->
<g id="node1" class="node">
<title>GO:0043229</title>
<polygon fill="#00ffff" stroke="#000000" points="285.6988,-144.2019 146.262,-144.2019 146.262,-102.9981 285.6988,-102.9981 285.6988,-144.2019"/>
<text text-anchor="middle" x="215.9804" y="-127.8" font-family="Times,serif" font-size="14.00" fill="#000000">GO:0043229</text>
<text text-anchor="middle" x="215.9804" y="-111" font-family="Times,serif" font-size="14.00" fill="#000000">intracellular organelle</text>
</g>
<!-- GO:0044424 -->
<g id="node2" class="node">
<title>GO:0044424</title>
<polygon fill="#ff0000" stroke="#000000" points="400.3788,-230.2019 291.582,-230.2019 291.582,-188.9981 400.3788,-188.9981 400.3788,-230.2019"/>
<text text-anchor="middle" x="345.9804" y="-213.8" font-family="Times,serif" font-size="14.00" fill="#000000">GO:0044424</text>
<text text-anchor="middle" x="345.9804" y="-197" font-family="Times,serif" font-size="14.00" fill="#000000">intracellular part</text>
</g>
<!-- GO:0043229&#45;&gt;GO:0044424 -->
<g id="edge1" class="edge">
<title>GO:0043229&#45;&gt;GO:0044424</title>
<path fill="none" stroke="#000000" d="M247.4498,-144.4182C265.1744,-156.1437 287.4798,-170.8996 306.3834,-183.4051"/>
<polygon fill="#000000" stroke="#000000" points="304.5295,-186.3752 314.8008,-188.9735 308.3917,-180.537 304.5295,-186.3752"/>
</g>
<!-- GO:0043226 -->
<g id="node3" class="node">
<title>GO:0043226</title>
<polygon fill="#00ff00" stroke="#000000" points="259.5843,-230.2019 170.3765,-230.2019 170.3765,-188.9981 259.5843,-188.9981 259.5843,-230.2019"/>
<text text-anchor="middle" x="214.9804" y="-213.8" font-family="Times,serif" font-size="14.00" fill="#000000">GO:0043226</text>
<text text-anchor="middle" x="214.9804" y="-197" font-family="Times,serif" font-size="14.00" fill="#000000">organelle</text>
</g>
<!-- GO:0043229&#45;&gt;GO:0043226 -->
<g id="edge2" class="edge">
<title>GO:0043229&#45;&gt;GO:0043226</title>
<path fill="none" stroke="#000000" d="M215.7383,-144.4182C215.618,-154.7705 215.4701,-167.4848 215.3371,-178.9271"/>
<polygon fill="#000000" stroke="#000000" points="211.8368,-178.9335 215.2202,-188.9735 218.8364,-179.0149 211.8368,-178.9335"/>
</g>
<!-- GO:0044464 -->
<g id="node4" class="node">
<title>GO:0044464</title>
<polygon fill="#ff0000" stroke="#000000" points="332.5843,-307.8019 243.3765,-307.8019 243.3765,-266.5981 332.5843,-266.5981 332.5843,-307.8019"/>
<text text-anchor="middle" x="287.9804" y="-291.4" font-family="Times,serif" font-size="14.00" fill="#000000">GO:0044464</text>
<text text-anchor="middle" x="287.9804" y="-274.6" font-family="Times,serif" font-size="14.00" fill="#000000">cell part</text>
</g>
<!-- GO:0044424&#45;&gt;GO:0044464 -->
<g id="edge3" class="edge">
<title>GO:0044424&#45;&gt;GO:0044464</title>
<path fill="none" stroke="#000000" d="M330.4375,-230.3954C324.0662,-238.9197 316.5813,-248.9339 309.6852,-258.1605"/>
<polygon fill="#000000" stroke="#000000" points="306.7496,-256.2419 303.5662,-266.3472 312.3565,-260.4327 306.7496,-256.2419"/>
</g>
<!-- GO:0005575 -->
<g id="node5" class="node">
<title>GO:0005575</title>
<polygon fill="#ffffff" stroke="#000000" points="404.6671,-385.4019 277.2937,-385.4019 277.2937,-344.1981 404.6671,-344.1981 404.6671,-385.4019"/>
<text text-anchor="middle" x="340.9804" y="-369" font-family="Times,serif" font-size="14.00" fill="#000000">GO:0005575</text>
<text text-anchor="middle" x="340.9804" y="-352.2" font-family="Times,serif" font-size="14.00" fill="#000000">cellular_component</text>
</g>
<!-- GO:0043226&#45;&gt;GO:0005575 -->
<g id="edge4" class="edge">
<title>GO:0043226&#45;&gt;GO:0005575</title>
<path fill="none" stroke="#000000" d="M214.0054,-230.4914C214.0642,-251.9528 217.221,-285.3376 233.9804,-308 243.6114,-321.0232 257.1317,-331.3513 271.3295,-339.4272"/>
<polygon fill="#000000" stroke="#000000" points="269.7572,-342.5553 280.2285,-344.1685 273.0488,-336.3774 269.7572,-342.5553"/>
</g>
<!-- GO:0044464&#45;&gt;GO:0005575 -->
<g id="edge9" class="edge">
<title>GO:0044464&#45;&gt;GO:0005575</title>
<path fill="none" stroke="#000000" d="M302.1834,-307.9954C307.9461,-316.4328 314.7056,-326.3297 320.9537,-335.4778"/>
<polygon fill="#000000" stroke="#000000" points="318.2079,-337.6634 326.7382,-343.9472 323.9884,-333.7154 318.2079,-337.6634"/>
</g>
<!-- GO:0043227 -->
<g id="node6" class="node">
<title>GO:0043227</title>
<polygon fill="#00ffff" stroke="#000000" points="127.9412,-153.0014 .0196,-153.0014 .0196,-94.1986 127.9412,-94.1986 127.9412,-153.0014"/>
<text text-anchor="middle" x="63.9804" y="-136.2" font-family="Times,serif" font-size="14.00" fill="#000000">GO:0043227</text>
<text text-anchor="middle" x="63.9804" y="-119.4" font-family="Times,serif" font-size="14.00" fill="#000000">membrane&#45;bounded</text>
<text text-anchor="middle" x="63.9804" y="-102.6" font-family="Times,serif" font-size="14.00" fill="#000000">organelle</text>
</g>
<!-- GO:0043227&#45;&gt;GO:0043226 -->
<g id="edge5" class="edge">
<title>GO:0043227&#45;&gt;GO:0043226</title>
<path fill="none" stroke="#000000" d="M115.5237,-152.9558C132.9688,-162.8914 152.3176,-173.9112 169.2771,-183.5703"/>
<polygon fill="#000000" stroke="#000000" points="168.0043,-186.8732 178.426,-188.7809 171.4687,-180.7906 168.0043,-186.8732"/>
</g>
<!-- GO:0016020 -->
<g id="node7" class="node">
<title>GO:0016020</title>
<polygon fill="#ffa500" stroke="#000000" points="439.5843,-307.8019 350.3765,-307.8019 350.3765,-266.5981 439.5843,-266.5981 439.5843,-307.8019"/>
<text text-anchor="middle" x="394.9804" y="-291.4" font-family="Times,serif" font-size="14.00" fill="#000000">GO:0016020</text>
<text text-anchor="middle" x="394.9804" y="-274.6" font-family="Times,serif" font-size="14.00" fill="#000000">membrane</text>
</g>
<!-- GO:0016020&#45;&gt;GO:0005575 -->
<g id="edge6" class="edge">
<title>GO:0016020&#45;&gt;GO:0005575</title>
<path fill="none" stroke="#000000" d="M380.5094,-307.9954C374.638,-316.4328 367.751,-326.3297 361.385,-335.4778"/>
<polygon fill="#000000" stroke="#000000" points="358.3304,-333.7398 355.4914,-343.9472 364.0762,-337.7382 358.3304,-333.7398"/>
</g>
<!-- GO:0043231 -->
<g id="node8" class="node">
<title>GO:0043231</title>
<polygon fill="#00ffff" stroke="#000000" points="215.3592,-58.6014 64.6016,-58.6014 64.6016,.2014 215.3592,.2014 215.3592,-58.6014"/>
<text text-anchor="middle" x="139.9804" y="-41.8" font-family="Times,serif" font-size="14.00" fill="#000000">GO:0043231</text>
<text text-anchor="middle" x="139.9804" y="-25" font-family="Times,serif" font-size="14.00" fill="#000000">intracellular membrane&#45;</text>
<text text-anchor="middle" x="139.9804" y="-8.2" font-family="Times,serif" font-size="14.00" fill="#000000">bounded organelle</text>
</g>
<!-- GO:0043231&#45;&gt;GO:0043229 -->
<g id="edge7" class="edge">
<title>GO:0043231&#45;&gt;GO:0043229</title>
<path fill="none" stroke="#000000" d="M163.6107,-58.5513C172.9376,-70.1363 183.619,-83.4037 192.8922,-94.922"/>
<polygon fill="#000000" stroke="#000000" points="190.3588,-97.3565 199.3562,-102.951 195.8114,-92.9667 190.3588,-97.3565"/>
</g>
<!-- GO:0043231&#45;&gt;GO:0043227 -->
<g id="edge8" class="edge">
<title>GO:0043231&#45;&gt;GO:0043227</title>
<path fill="none" stroke="#000000" d="M116.3501,-58.5513C109.2727,-67.3422 101.4154,-77.1018 93.9853,-86.3308"/>
<polygon fill="#000000" stroke="#000000" points="91.1409,-84.2826 87.5961,-94.2669 96.5934,-88.6724 91.1409,-84.2826"/>
</g>
<!-- GO:0044446 -->
<g id="node9" class="node">
<title>GO:0044446</title>
<polygon fill="#00ff00" stroke="#000000" points="571.6988,-153.0014 432.262,-153.0014 432.262,-94.1986 571.6988,-94.1986 571.6988,-153.0014"/>
<text text-anchor="middle" x="501.9804" y="-136.2" font-family="Times,serif" font-size="14.00" fill="#000000">GO:0044446</text>
<text text-anchor="middle" x="501.9804" y="-119.4" font-family="Times,serif" font-size="14.00" fill="#000000">intracellular organelle</text>
<text text-anchor="middle" x="501.9804" y="-102.6" font-family="Times,serif" font-size="14.00" fill="#000000">part</text>
</g>
<!-- GO:0044446&#45;&gt;GO:0044424 -->
<g id="edge10" class="edge">
<title>GO:0044446&#45;&gt;GO:0044424</title>
<path fill="none" stroke="#000000" d="M448.7304,-152.9558C430.5408,-162.9834 410.3478,-174.1154 392.711,-183.8383"/>
<polygon fill="#000000" stroke="#000000" points="390.8129,-180.888 383.7452,-188.7809 394.1924,-187.0182 390.8129,-180.888"/>
</g>
<!-- GO:0044422 -->
<g id="node10" class="node">
<title>GO:0044422</title>
<polygon fill="#ffffff" stroke="#000000" points="550.8325,-307.8019 457.1283,-307.8019 457.1283,-266.5981 550.8325,-266.5981 550.8325,-307.8019"/>
<text text-anchor="middle" x="503.9804" y="-291.4" font-family="Times,serif" font-size="14.00" fill="#000000">GO:0044422</text>
<text text-anchor="middle" x="503.9804" y="-274.6" font-family="Times,serif" font-size="14.00" fill="#000000">organelle part</text>
</g>
<!-- GO:0044446&#45;&gt;GO:0044422 -->
<g id="edge11" class="edge">
<title>GO:0044446&#45;&gt;GO:0044422</title>
<path fill="none" stroke="#000000" d="M502.338,-152.8484C502.6942,-181.9891 503.2391,-226.5603 503.6024,-256.2759"/>
<polygon fill="#000000" stroke="#000000" points="500.1052,-256.5391 503.7273,-266.4955 507.1047,-256.4534 500.1052,-256.5391"/>
</g>
<!-- GO:0044422&#45;&gt;GO:0005575 -->
<g id="edge12" class="edge">
<title>GO:0044422&#45;&gt;GO:0005575</title>
<path fill="none" stroke="#000000" d="M460.2994,-307.9954C439.8451,-317.7331 415.3072,-329.415 393.8165,-339.6461"/>
<polygon fill="#000000" stroke="#000000" points="392.0237,-336.6232 384.4991,-344.0819 395.0326,-342.9435 392.0237,-336.6232"/>
</g>
<!-- GO:0044444 -->
<g id="node11" class="node">
<title>GO:0044444</title>
<polygon fill="#00ffff" stroke="#000000" points="412.397,-144.2019 303.5638,-144.2019 303.5638,-102.9981 412.397,-102.9981 412.397,-144.2019"/>
<text text-anchor="middle" x="357.9804" y="-127.8" font-family="Times,serif" font-size="14.00" fill="#000000">GO:0044444</text>
<text text-anchor="middle" x="357.9804" y="-111" font-family="Times,serif" font-size="14.00" fill="#000000">cytoplasmic part</text>
</g>
<!-- GO:0044444&#45;&gt;GO:0044424 -->
<g id="edge13" class="edge">
<title>GO:0044444&#45;&gt;GO:0044424</title>
<path fill="none" stroke="#000000" d="M355.0755,-144.4182C353.631,-154.7705 351.8569,-167.4848 350.2603,-178.9271"/>
<polygon fill="#000000" stroke="#000000" points="346.7741,-178.5857 348.8585,-188.9735 353.707,-179.5532 346.7741,-178.5857"/>
</g>
</g>
</svg>
