<?xml version="1.0" encoding="UTF-8" standalone="no"?>
<!DOCTYPE svg PUBLIC "-//W3C//DTD SVG 1.1//EN"
 "http://www.w3.org/Graphics/SVG/1.1/DTD/svg11.dtd">
<!-- Generated by graphviz version 2.40.1 (20161225.0304)
 -->
<!-- Title: G Pages: 1 -->
<svg width="443pt" height="454pt"
 viewBox="0.00 0.00 442.72 454.40" xmlns="http://www.w3.org/2000/svg" xmlns:xlink="http://www.w3.org/1999/xlink">
<g id="graph0" class="graph" transform="scale(1 1) rotate(0) translate(4 450.4)">
<title>G</title>
<polygon fill="#ffffff" stroke="transparent" points="-4,4 -4,-450.4 438.7171,-450.4 438.7171,4 -4,4"/>
<!-- GO:0044464 -->
<g id="node1" class="node">
<title>GO:0044464</title>
<polygon fill="#00ff00" stroke="#000000" points="89.1558,-368.6019 -.052,-368.6019 -.052,-327.3981 89.1558,-327.3981 89.1558,-368.6019"/>
<text text-anchor="middle" x="44.5519" y="-352.2" font-family="Times,serif" font-size="14.00" fill="#000000">GO:0044464</text>
<text text-anchor="middle" x="44.5519" y="-335.4" font-family="Times,serif" font-size="14.00" fill="#000000">cell part</text>
</g>
<!-- GO:0005575 -->
<g id="node2" class="node">
<title>GO:0005575</title>
<polygon fill="#ffffff" stroke="#000000" points="246.2386,-446.2019 118.8652,-446.2019 118.8652,-404.9981 246.2386,-404.9981 246.2386,-446.2019"/>
<text text-anchor="middle" x="182.5519" y="-429.8" font-family="Times,serif" font-size="14.00" fill="#000000">GO:0005575</text>
<text text-anchor="middle" x="182.5519" y="-413" font-family="Times,serif" font-size="14.00" fill="#000000">cellular_component</text>
</g>
<!-- GO:0044464&#45;&gt;GO:0005575 -->
<g id="edge1" class="edge">
<title>GO:0044464&#45;&gt;GO:0005575</title>
<path fill="none" stroke="#000000" d="M81.5334,-368.7954C98.3942,-378.2766 118.5326,-389.6008 136.3761,-399.6345"/>
<polygon fill="#000000" stroke="#000000" points="135.0364,-402.8965 145.4684,-404.7472 138.4674,-396.795 135.0364,-402.8965"/>
</g>
<!-- GO:0070062 -->
<g id="node3" class="node">
<title>GO:0070062</title>
<polygon fill="#ff0000" stroke="#000000" points="335.2731,-41.4019 195.8307,-41.4019 195.8307,-.1981 335.2731,-.1981 335.2731,-41.4019"/>
<text text-anchor="middle" x="265.5519" y="-25" font-family="Times,serif" font-size="14.00" fill="#000000">GO:0070062</text>
<text text-anchor="middle" x="265.5519" y="-8.2" font-family="Times,serif" font-size="14.00" fill="#000000">extracellular exosome</text>
</g>
<!-- GO:1903561 -->
<g id="node4" class="node">
<title>GO:1903561</title>
<polygon fill="#ffffff" stroke="#000000" points="246.8785,-119.0019 118.2253,-119.0019 118.2253,-77.7981 246.8785,-77.7981 246.8785,-119.0019"/>
<text text-anchor="middle" x="182.5519" y="-102.6" font-family="Times,serif" font-size="14.00" fill="#000000">GO:1903561</text>
<text text-anchor="middle" x="182.5519" y="-85.8" font-family="Times,serif" font-size="14.00" fill="#000000">extracellular vesicle</text>
</g>
<!-- GO:0070062&#45;&gt;GO:1903561 -->
<g id="edge2" class="edge">
<title>GO:0070062&#45;&gt;GO:1903561</title>
<path fill="none" stroke="#000000" d="M243.3094,-41.5954C233.8197,-50.4677 222.6038,-60.9539 212.4081,-70.4862"/>
<polygon fill="#000000" stroke="#000000" points="209.7702,-68.1611 204.8558,-77.5472 214.5508,-73.2744 209.7702,-68.1611"/>
</g>
<!-- GO:0031988 -->
<g id="node5" class="node">
<title>GO:0031988</title>
<polygon fill="#ffffff" stroke="#000000" points="434.8826,-119.0019 264.2212,-119.0019 264.2212,-77.7981 434.8826,-77.7981 434.8826,-119.0019"/>
<text text-anchor="middle" x="349.5519" y="-102.6" font-family="Times,serif" font-size="14.00" fill="#000000">GO:0031988</text>
<text text-anchor="middle" x="349.5519" y="-85.8" font-family="Times,serif" font-size="14.00" fill="#000000">membrane&#45;bounded vesicle</text>
</g>
<!-- GO:0070062&#45;&gt;GO:0031988 -->
<g id="edge3" class="edge">
<title>GO:0070062&#45;&gt;GO:0031988</title>
<path fill="none" stroke="#000000" d="M288.0624,-41.5954C297.6664,-50.4677 309.0174,-60.9539 319.336,-70.4862"/>
<polygon fill="#000000" stroke="#000000" points="317.2589,-73.3324 326.9793,-77.5472 322.0089,-68.1906 317.2589,-73.3324"/>
</g>
<!-- GO:0043230 -->
<g id="node6" class="node">
<title>GO:0043230</title>
<polygon fill="#ffffff" stroke="#000000" points="253.0948,-282.6019 112.009,-282.6019 112.009,-241.3981 253.0948,-241.3981 253.0948,-282.6019"/>
<text text-anchor="middle" x="182.5519" y="-266.2" font-family="Times,serif" font-size="14.00" fill="#000000">GO:0043230</text>
<text text-anchor="middle" x="182.5519" y="-249.4" font-family="Times,serif" font-size="14.00" fill="#000000">extracellular organelle</text>
</g>
<!-- GO:1903561&#45;&gt;GO:0043230 -->
<g id="edge4" class="edge">
<title>GO:1903561&#45;&gt;GO:0043230</title>
<path fill="none" stroke="#000000" d="M182.5519,-119.1201C182.5519,-147.3159 182.5519,-198.0064 182.5519,-230.8099"/>
<polygon fill="#000000" stroke="#000000" points="179.052,-231.1904 182.5519,-241.1904 186.052,-231.1905 179.052,-231.1904"/>
</g>
<!-- GO:0031982 -->
<g id="node7" class="node">
<title>GO:0031982</title>
<polygon fill="#ffffff" stroke="#000000" points="380.1558,-196.6019 290.948,-196.6019 290.948,-155.3981 380.1558,-155.3981 380.1558,-196.6019"/>
<text text-anchor="middle" x="335.5519" y="-180.2" font-family="Times,serif" font-size="14.00" fill="#000000">GO:0031982</text>
<text text-anchor="middle" x="335.5519" y="-163.4" font-family="Times,serif" font-size="14.00" fill="#000000">vesicle</text>
</g>
<!-- GO:1903561&#45;&gt;GO:0031982 -->
<g id="edge5" class="edge">
<title>GO:1903561&#45;&gt;GO:0031982</title>
<path fill="none" stroke="#000000" d="M223.5531,-119.1954C242.6664,-128.8895 265.5785,-140.5102 285.6857,-150.7084"/>
<polygon fill="#000000" stroke="#000000" points="284.2014,-153.8799 294.703,-155.2819 287.3677,-147.637 284.2014,-153.8799"/>
</g>
<!-- GO:0031988&#45;&gt;GO:0031982 -->
<g id="edge6" class="edge">
<title>GO:0031988&#45;&gt;GO:0031982</title>
<path fill="none" stroke="#000000" d="M345.8002,-119.1954C344.3564,-127.1978 342.6758,-136.5133 341.0982,-145.2575"/>
<polygon fill="#000000" stroke="#000000" points="337.6451,-144.6847 339.314,-155.1472 344.5339,-145.9275 337.6451,-144.6847"/>
</g>
<!-- GO:0043226 -->
<g id="node8" class="node">
<title>GO:0043226</title>
<polygon fill="#ffffff" stroke="#000000" points="365.1558,-368.6019 275.948,-368.6019 275.948,-327.3981 365.1558,-327.3981 365.1558,-368.6019"/>
<text text-anchor="middle" x="320.5519" y="-352.2" font-family="Times,serif" font-size="14.00" fill="#000000">GO:0043226</text>
<text text-anchor="middle" x="320.5519" y="-335.4" font-family="Times,serif" font-size="14.00" fill="#000000">organelle</text>
</g>
<!-- GO:0043230&#45;&gt;GO:0043226 -->
<g id="edge7" class="edge">
<title>GO:0043230&#45;&gt;GO:0043226</title>
<path fill="none" stroke="#000000" d="M215.9579,-282.8182C234.858,-294.5966 258.6647,-309.4326 278.7891,-321.9739"/>
<polygon fill="#000000" stroke="#000000" points="277.1155,-325.055 287.4536,-327.3735 280.8178,-319.1141 277.1155,-325.055"/>
</g>
<!-- GO:0044421 -->
<g id="node9" class="node">
<title>GO:0044421</title>
<polygon fill="#ffffff" stroke="#000000" points="258.0409,-368.6019 107.0629,-368.6019 107.0629,-327.3981 258.0409,-327.3981 258.0409,-368.6019"/>
<text text-anchor="middle" x="182.5519" y="-352.2" font-family="Times,serif" font-size="14.00" fill="#000000">GO:0044421</text>
<text text-anchor="middle" x="182.5519" y="-335.4" font-family="Times,serif" font-size="14.00" fill="#000000">extracellular region part</text>
</g>
<!-- GO:0043230&#45;&gt;GO:0044421 -->
<g id="edge8" class="edge">
<title>GO:0043230&#45;&gt;GO:0044421</title>
<path fill="none" stroke="#000000" d="M182.5519,-282.8182C182.5519,-293.1705 182.5519,-305.8848 182.5519,-317.3271"/>
<polygon fill="#000000" stroke="#000000" points="179.052,-317.3735 182.5519,-327.3735 186.052,-317.3735 179.052,-317.3735"/>
</g>
<!-- GO:0043227 -->
<g id="node10" class="node">
<title>GO:0043227</title>
<polygon fill="#ffffff" stroke="#000000" points="399.5127,-291.4014 271.5911,-291.4014 271.5911,-232.5986 399.5127,-232.5986 399.5127,-291.4014"/>
<text text-anchor="middle" x="335.5519" y="-274.6" font-family="Times,serif" font-size="14.00" fill="#000000">GO:0043227</text>
<text text-anchor="middle" x="335.5519" y="-257.8" font-family="Times,serif" font-size="14.00" fill="#000000">membrane&#45;bounded</text>
<text text-anchor="middle" x="335.5519" y="-241" font-family="Times,serif" font-size="14.00" fill="#000000">organelle</text>
</g>
<!-- GO:0031982&#45;&gt;GO:0043227 -->
<g id="edge9" class="edge">
<title>GO:0031982&#45;&gt;GO:0043227</title>
<path fill="none" stroke="#000000" d="M335.5519,-196.8182C335.5519,-204.5358 335.5519,-213.5662 335.5519,-222.4036"/>
<polygon fill="#000000" stroke="#000000" points="332.052,-222.5991 335.5519,-232.5991 339.052,-222.5992 332.052,-222.5991"/>
</g>
<!-- GO:0043226&#45;&gt;GO:0005575 -->
<g id="edge10" class="edge">
<title>GO:0043226&#45;&gt;GO:0005575</title>
<path fill="none" stroke="#000000" d="M283.5704,-368.7954C266.7096,-378.2766 246.5712,-389.6008 228.7277,-399.6345"/>
<polygon fill="#000000" stroke="#000000" points="226.6364,-396.795 219.6354,-404.7472 230.0674,-402.8965 226.6364,-396.795"/>
</g>
<!-- GO:0044421&#45;&gt;GO:0005575 -->
<g id="edge11" class="edge">
<title>GO:0044421&#45;&gt;GO:0005575</title>
<path fill="none" stroke="#000000" d="M182.5519,-368.7954C182.5519,-376.7109 182.5519,-385.9109 182.5519,-394.5722"/>
<polygon fill="#000000" stroke="#000000" points="179.052,-394.7472 182.5519,-404.7472 186.052,-394.7473 179.052,-394.7472"/>
</g>
<!-- GO:0043227&#45;&gt;GO:0043226 -->
<g id="edge12" class="edge">
<title>GO:0043227&#45;&gt;GO:0043226</title>
<path fill="none" stroke="#000000" d="M330.3898,-291.5963C328.9478,-299.8638 327.3776,-308.8657 325.9238,-317.2008"/>
<polygon fill="#000000" stroke="#000000" points="322.4333,-316.8439 324.163,-327.2966 329.3292,-318.0467 322.4333,-316.8439"/>
</g>
</g>
</svg>
