<?xml version="1.0" encoding="UTF-8" standalone="no"?>
<!DOCTYPE svg PUBLIC "-//W3C//DTD SVG 1.1//EN"
 "http://www.w3.org/Graphics/SVG/1.1/DTD/svg11.dtd">
<!-- Generated by graphviz version 2.40.1 (20161225.0304)
 -->
<!-- Title: G Pages: 1 -->
<svg width="147pt" height="454pt"
 viewBox="0.00 0.00 146.84 454.40" xmlns="http://www.w3.org/2000/svg" xmlns:xlink="http://www.w3.org/1999/xlink">
<g id="graph0" class="graph" transform="scale(1 1) rotate(0) translate(4 450.4)">
<title>G</title>
<polygon fill="#ffffff" stroke="transparent" points="-4,4 -4,-450.4 142.843,-450.4 142.843,4 -4,4"/>
<!-- GO:0019172 -->
<g id="node1" class="node">
<title>GO:0019172</title>
<polygon fill="#ff0000" stroke="#000000" points="138.7646,-41.4019 .0784,-41.4019 .0784,-.1981 138.7646,-.1981 138.7646,-41.4019"/>
<text text-anchor="middle" x="69.4215" y="-25" font-family="Times,serif" font-size="14.00" fill="#000000">GO:0019172</text>
<text text-anchor="middle" x="69.4215" y="-8.2" font-family="Times,serif" font-size="14.00" fill="#000000">glyoxalase III activity</text>
</g>
<!-- GO:0016836 -->
<g id="node2" class="node">
<title>GO:0016836</title>
<polygon fill="#ffffff" stroke="#000000" points="132.9994,-119.0019 5.8436,-119.0019 5.8436,-77.7981 132.9994,-77.7981 132.9994,-119.0019"/>
<text text-anchor="middle" x="69.4215" y="-102.6" font-family="Times,serif" font-size="14.00" fill="#000000">GO:0016836</text>
<text text-anchor="middle" x="69.4215" y="-85.8" font-family="Times,serif" font-size="14.00" fill="#000000">hydro&#45;lyase activity</text>
</g>
<!-- GO:0019172&#45;&gt;GO:0016836 -->
<g id="edge1" class="edge">
<title>GO:0019172&#45;&gt;GO:0016836</title>
<path fill="none" stroke="#000000" d="M69.4215,-41.5954C69.4215,-49.5109 69.4215,-58.7109 69.4215,-67.3722"/>
<polygon fill="#000000" stroke="#000000" points="65.9216,-67.5472 69.4215,-77.5472 72.9216,-67.5473 65.9216,-67.5472"/>
</g>
<!-- GO:0016835 -->
<g id="node3" class="node">
<title>GO:0016835</title>
<polygon fill="#ffffff" stroke="#000000" points="135.6511,-213.8014 3.1919,-213.8014 3.1919,-154.9986 135.6511,-154.9986 135.6511,-213.8014"/>
<text text-anchor="middle" x="69.4215" y="-197" font-family="Times,serif" font-size="14.00" fill="#000000">GO:0016835</text>
<text text-anchor="middle" x="69.4215" y="-180.2" font-family="Times,serif" font-size="14.00" fill="#000000">carbon&#45;oxygen lyase</text>
<text text-anchor="middle" x="69.4215" y="-163.4" font-family="Times,serif" font-size="14.00" fill="#000000">activity</text>
</g>
<!-- GO:0016836&#45;&gt;GO:0016835 -->
<g id="edge2" class="edge">
<title>GO:0016836&#45;&gt;GO:0016835</title>
<path fill="none" stroke="#000000" d="M69.4215,-119.2182C69.4215,-126.9358 69.4215,-135.9662 69.4215,-144.8036"/>
<polygon fill="#000000" stroke="#000000" points="65.9216,-144.9991 69.4215,-154.9991 72.9216,-144.9992 65.9216,-144.9991"/>
</g>
<!-- GO:0016829 -->
<g id="node4" class="node">
<title>GO:0016829</title>
<polygon fill="#ffffff" stroke="#000000" points="114.6779,-291.0019 24.1651,-291.0019 24.1651,-249.7981 114.6779,-249.7981 114.6779,-291.0019"/>
<text text-anchor="middle" x="69.4215" y="-274.6" font-family="Times,serif" font-size="14.00" fill="#000000">GO:0016829</text>
<text text-anchor="middle" x="69.4215" y="-257.8" font-family="Times,serif" font-size="14.00" fill="#000000">lyase activity</text>
</g>
<!-- GO:0016835&#45;&gt;GO:0016829 -->
<g id="edge3" class="edge">
<title>GO:0016835&#45;&gt;GO:0016829</title>
<path fill="none" stroke="#000000" d="M69.4215,-213.9963C69.4215,-222.2638 69.4215,-231.2657 69.4215,-239.6008"/>
<polygon fill="#000000" stroke="#000000" points="65.9216,-239.6965 69.4215,-249.6966 72.9216,-239.6966 65.9216,-239.6965"/>
</g>
<!-- GO:0003824 -->
<g id="node5" class="node">
<title>GO:0003824</title>
<polygon fill="#ffffff" stroke="#000000" points="123.8339,-368.6019 15.0091,-368.6019 15.0091,-327.3981 123.8339,-327.3981 123.8339,-368.6019"/>
<text text-anchor="middle" x="69.4215" y="-352.2" font-family="Times,serif" font-size="14.00" fill="#000000">GO:0003824</text>
<text text-anchor="middle" x="69.4215" y="-335.4" font-family="Times,serif" font-size="14.00" fill="#000000">catalytic activity</text>
</g>
<!-- GO:0016829&#45;&gt;GO:0003824 -->
<g id="edge4" class="edge">
<title>GO:0016829&#45;&gt;GO:0003824</title>
<path fill="none" stroke="#000000" d="M69.4215,-291.1954C69.4215,-299.1109 69.4215,-308.3109 69.4215,-316.9722"/>
<polygon fill="#000000" stroke="#000000" points="65.9216,-317.1472 69.4215,-327.1472 72.9216,-317.1473 65.9216,-317.1472"/>
</g>
<!-- GO:0003674 -->
<g id="node6" class="node">
<title>GO:0003674</title>
<polygon fill="#ffffff" stroke="#000000" points="132.0546,-446.2019 6.7884,-446.2019 6.7884,-404.9981 132.0546,-404.9981 132.0546,-446.2019"/>
<text text-anchor="middle" x="69.4215" y="-429.8" font-family="Times,serif" font-size="14.00" fill="#000000">GO:0003674</text>
<text text-anchor="middle" x="69.4215" y="-413" font-family="Times,serif" font-size="14.00" fill="#000000">molecular_function</text>
</g>
<!-- GO:0003824&#45;&gt;GO:0003674 -->
<g id="edge5" class="edge">
<title>GO:0003824&#45;&gt;GO:0003674</title>
<path fill="none" stroke="#000000" d="M69.4215,-368.7954C69.4215,-376.7109 69.4215,-385.9109 69.4215,-394.5722"/>
<polygon fill="#000000" stroke="#000000" points="65.9216,-394.7472 69.4215,-404.7472 72.9216,-394.7473 65.9216,-394.7472"/>
</g>
</g>
</svg>
