<?xml version="1.0" encoding="UTF-8" standalone="no"?>
<!DOCTYPE svg PUBLIC "-//W3C//DTD SVG 1.1//EN"
 "http://www.w3.org/Graphics/SVG/1.1/DTD/svg11.dtd">
<!-- Generated by graphviz version 2.40.1 (20161225.0304)
 -->
<!-- Title: G Pages: 1 -->
<svg width="967pt" height="977pt"
 viewBox="0.00 0.00 967.34 976.80" xmlns="http://www.w3.org/2000/svg" xmlns:xlink="http://www.w3.org/1999/xlink">
<g id="graph0" class="graph" transform="scale(1 1) rotate(0) translate(4 972.8)">
<title>G</title>
<polygon fill="#ffffff" stroke="transparent" points="-4,4 -4,-972.8 963.3368,-972.8 963.3368,4 -4,4"/>
<!-- GO:0019243 -->
<g id="node1" class="node">
<title>GO:0019243</title>
<polygon fill="#ff0000" stroke="#000000" points="610.9101,-75.3003 460.0852,-75.3003 460.0852,.1003 610.9101,.1003 610.9101,-75.3003"/>
<text text-anchor="middle" x="535.4977" y="-58.6" font-family="Times,serif" font-size="14.00" fill="#000000">GO:0019243</text>
<text text-anchor="middle" x="535.4977" y="-41.8" font-family="Times,serif" font-size="14.00" fill="#000000">methylglyoxal catabolic</text>
<text text-anchor="middle" x="535.4977" y="-25" font-family="Times,serif" font-size="14.00" fill="#000000">process to D&#45;lactate via</text>
<text text-anchor="middle" x="535.4977" y="-8.2" font-family="Times,serif" font-size="14.00" fill="#000000">S&#45;lactoyl&#45;glutathione</text>
</g>
<!-- GO:0061727 -->
<g id="node2" class="node">
<title>GO:0061727</title>
<polygon fill="#ffffff" stroke="#000000" points="610.9101,-169.8014 460.0852,-169.8014 460.0852,-110.9986 610.9101,-110.9986 610.9101,-169.8014"/>
<text text-anchor="middle" x="535.4977" y="-153" font-family="Times,serif" font-size="14.00" fill="#000000">GO:0061727</text>
<text text-anchor="middle" x="535.4977" y="-136.2" font-family="Times,serif" font-size="14.00" fill="#000000">methylglyoxal catabolic</text>
<text text-anchor="middle" x="535.4977" y="-119.4" font-family="Times,serif" font-size="14.00" fill="#000000">process to lactate</text>
</g>
<!-- GO:0019243&#45;&gt;GO:0061727 -->
<g id="edge1" class="edge">
<title>GO:0019243&#45;&gt;GO:0061727</title>
<path fill="none" stroke="#000000" d="M535.4977,-75.2952C535.4977,-83.6874 535.4977,-92.6054 535.4977,-101.0618"/>
<polygon fill="#000000" stroke="#000000" points="531.9978,-101.0813 535.4977,-111.0814 538.9978,-101.0814 531.9978,-101.0813"/>
</g>
<!-- GO:0051596 -->
<g id="node3" class="node">
<title>GO:0051596</title>
<polygon fill="#ffffff" stroke="#000000" points="523.9101,-436.2014 373.0852,-436.2014 373.0852,-377.3986 523.9101,-377.3986 523.9101,-436.2014"/>
<text text-anchor="middle" x="448.4977" y="-419.4" font-family="Times,serif" font-size="14.00" fill="#000000">GO:0051596</text>
<text text-anchor="middle" x="448.4977" y="-402.6" font-family="Times,serif" font-size="14.00" fill="#000000">methylglyoxal catabolic</text>
<text text-anchor="middle" x="448.4977" y="-385.8" font-family="Times,serif" font-size="14.00" fill="#000000">process</text>
</g>
<!-- GO:0061727&#45;&gt;GO:0051596 -->
<g id="edge2" class="edge">
<title>GO:0061727&#45;&gt;GO:0051596</title>
<path fill="none" stroke="#000000" d="M525.9383,-169.6715C510.189,-217.8967 478.7835,-314.0627 461.1903,-367.9344"/>
<polygon fill="#000000" stroke="#000000" points="457.8503,-366.8876 458.0728,-377.4801 464.5044,-369.0607 457.8503,-366.8876"/>
</g>
<!-- GO:0006089 -->
<g id="node4" class="node">
<title>GO:0006089</title>
<polygon fill="#ffffff" stroke="#000000" points="683.7133,-247.0019 527.282,-247.0019 527.282,-205.7981 683.7133,-205.7981 683.7133,-247.0019"/>
<text text-anchor="middle" x="605.4977" y="-230.6" font-family="Times,serif" font-size="14.00" fill="#000000">GO:0006089</text>
<text text-anchor="middle" x="605.4977" y="-213.8" font-family="Times,serif" font-size="14.00" fill="#000000">lactate metabolic process</text>
</g>
<!-- GO:0061727&#45;&gt;GO:0006089 -->
<g id="edge3" class="edge">
<title>GO:0061727&#45;&gt;GO:0006089</title>
<path fill="none" stroke="#000000" d="M559.5877,-169.9963C566.9152,-178.9986 574.9515,-188.8719 582.2241,-197.8067"/>
<polygon fill="#000000" stroke="#000000" points="579.6188,-200.1504 588.646,-205.6966 585.0477,-195.7314 579.6188,-200.1504"/>
</g>
<!-- GO:0046185 -->
<g id="node5" class="node">
<title>GO:0046185</title>
<polygon fill="#ffffff" stroke="#000000" points="267.563,-530.6014 147.4323,-530.6014 147.4323,-471.7986 267.563,-471.7986 267.563,-530.6014"/>
<text text-anchor="middle" x="207.4977" y="-513.8" font-family="Times,serif" font-size="14.00" fill="#000000">GO:0046185</text>
<text text-anchor="middle" x="207.4977" y="-497" font-family="Times,serif" font-size="14.00" fill="#000000">aldehyde catabolic</text>
<text text-anchor="middle" x="207.4977" y="-480.2" font-family="Times,serif" font-size="14.00" fill="#000000">process</text>
</g>
<!-- GO:0051596&#45;&gt;GO:0046185 -->
<g id="edge4" class="edge">
<title>GO:0051596&#45;&gt;GO:0046185</title>
<path fill="none" stroke="#000000" d="M372.9649,-435.0245C343.1436,-446.3179 308.6296,-459.5751 277.4977,-472 277.3983,-472.0397 277.2988,-472.0794 277.1993,-472.1191"/>
<polygon fill="#000000" stroke="#000000" points="275.7453,-468.9315 267.7783,-475.9155 278.3617,-475.4241 275.7453,-468.9315"/>
</g>
<!-- GO:0009438 -->
<g id="node6" class="node">
<title>GO:0009438</title>
<polygon fill="#ffffff" stroke="#000000" points="612.0866,-530.6014 456.9087,-530.6014 456.9087,-471.7986 612.0866,-471.7986 612.0866,-530.6014"/>
<text text-anchor="middle" x="534.4977" y="-513.8" font-family="Times,serif" font-size="14.00" fill="#000000">GO:0009438</text>
<text text-anchor="middle" x="534.4977" y="-497" font-family="Times,serif" font-size="14.00" fill="#000000">methylglyoxal metabolic</text>
<text text-anchor="middle" x="534.4977" y="-480.2" font-family="Times,serif" font-size="14.00" fill="#000000">process</text>
</g>
<!-- GO:0051596&#45;&gt;GO:0009438 -->
<g id="edge5" class="edge">
<title>GO:0051596&#45;&gt;GO:0009438</title>
<path fill="none" stroke="#000000" d="M475.2372,-436.1513C483.3267,-445.031 492.3167,-454.899 500.7994,-464.2103"/>
<polygon fill="#000000" stroke="#000000" points="498.4528,-466.8316 507.7747,-471.8669 503.6274,-462.1174 498.4528,-466.8316"/>
</g>
<!-- GO:0042182 -->
<g id="node7" class="node">
<title>GO:0042182</title>
<polygon fill="#ffffff" stroke="#000000" points="438.8267,-521.8019 286.1686,-521.8019 286.1686,-480.5981 438.8267,-480.5981 438.8267,-521.8019"/>
<text text-anchor="middle" x="362.4977" y="-505.4" font-family="Times,serif" font-size="14.00" fill="#000000">GO:0042182</text>
<text text-anchor="middle" x="362.4977" y="-488.6" font-family="Times,serif" font-size="14.00" fill="#000000">ketone catabolic process</text>
</g>
<!-- GO:0051596&#45;&gt;GO:0042182 -->
<g id="edge6" class="edge">
<title>GO:0051596&#45;&gt;GO:0042182</title>
<path fill="none" stroke="#000000" d="M421.7581,-436.1513C411.1015,-447.8488 398.8823,-461.2615 388.3186,-472.857"/>
<polygon fill="#000000" stroke="#000000" points="385.4565,-470.8016 381.3093,-480.551 390.6311,-475.5157 385.4565,-470.8016"/>
</g>
<!-- GO:0032787 -->
<g id="node8" class="node">
<title>GO:0032787</title>
<polygon fill="#ffffff" stroke="#000000" points="703.2938,-341.8014 569.7015,-341.8014 569.7015,-282.9986 703.2938,-282.9986 703.2938,-341.8014"/>
<text text-anchor="middle" x="636.4977" y="-325" font-family="Times,serif" font-size="14.00" fill="#000000">GO:0032787</text>
<text text-anchor="middle" x="636.4977" y="-308.2" font-family="Times,serif" font-size="14.00" fill="#000000">monocarboxylic acid</text>
<text text-anchor="middle" x="636.4977" y="-291.4" font-family="Times,serif" font-size="14.00" fill="#000000">metabolic process</text>
</g>
<!-- GO:0006089&#45;&gt;GO:0032787 -->
<g id="edge7" class="edge">
<title>GO:0006089&#45;&gt;GO:0032787</title>
<path fill="none" stroke="#000000" d="M613.0019,-247.2182C615.8443,-255.1036 619.1807,-264.3594 622.4322,-273.3797"/>
<polygon fill="#000000" stroke="#000000" points="619.2159,-274.7786 625.8997,-282.9991 625.8012,-272.4048 619.2159,-274.7786"/>
</g>
<!-- GO:0044248 -->
<g id="node9" class="node">
<title>GO:0044248</title>
<polygon fill="#ffffff" stroke="#000000" points="266.5041,-625.0014 154.4913,-625.0014 154.4913,-566.1986 266.5041,-566.1986 266.5041,-625.0014"/>
<text text-anchor="middle" x="210.4977" y="-608.2" font-family="Times,serif" font-size="14.00" fill="#000000">GO:0044248</text>
<text text-anchor="middle" x="210.4977" y="-591.4" font-family="Times,serif" font-size="14.00" fill="#000000">cellular catabolic</text>
<text text-anchor="middle" x="210.4977" y="-574.6" font-family="Times,serif" font-size="14.00" fill="#000000">process</text>
</g>
<!-- GO:0046185&#45;&gt;GO:0044248 -->
<g id="edge8" class="edge">
<title>GO:0046185&#45;&gt;GO:0044248</title>
<path fill="none" stroke="#000000" d="M208.4304,-530.5513C208.6872,-538.6318 208.97,-547.5308 209.2418,-556.0838"/>
<polygon fill="#000000" stroke="#000000" points="205.7495,-556.3831 209.5655,-566.2669 212.746,-556.1607 205.7495,-556.3831"/>
</g>
<!-- GO:0044712 -->
<g id="node10" class="node">
<title>GO:0044712</title>
<polygon fill="#ffffff" stroke="#000000" points="304.73,-719.4014 144.2653,-719.4014 144.2653,-660.5986 304.73,-660.5986 304.73,-719.4014"/>
<text text-anchor="middle" x="224.4977" y="-702.6" font-family="Times,serif" font-size="14.00" fill="#000000">GO:0044712</text>
<text text-anchor="middle" x="224.4977" y="-685.8" font-family="Times,serif" font-size="14.00" fill="#000000">single&#45;organism catabolic</text>
<text text-anchor="middle" x="224.4977" y="-669" font-family="Times,serif" font-size="14.00" fill="#000000">process</text>
</g>
<!-- GO:0046185&#45;&gt;GO:0044712 -->
<g id="edge9" class="edge">
<title>GO:0046185&#45;&gt;GO:0044712</title>
<path fill="none" stroke="#000000" d="M147.1387,-513.2246C95.737,-524.8352 27.7026,-543.9314 11.4977,-566.4 -3.6853,-587.4516 -3.9377,-603.9328 11.4977,-624.8 26.7567,-645.4288 83.4271,-662.1901 134.4777,-673.5506"/>
<polygon fill="#000000" stroke="#000000" points="133.7501,-676.9742 144.2656,-675.6795 135.2379,-670.1341 133.7501,-676.9742"/>
</g>
<!-- GO:1901575 -->
<g id="node11" class="node">
<title>GO:1901575</title>
<polygon fill="#ffffff" stroke="#000000" points="136.4017,-625.0014 20.5936,-625.0014 20.5936,-566.1986 136.4017,-566.1986 136.4017,-625.0014"/>
<text text-anchor="middle" x="78.4977" y="-608.2" font-family="Times,serif" font-size="14.00" fill="#000000">GO:1901575</text>
<text text-anchor="middle" x="78.4977" y="-591.4" font-family="Times,serif" font-size="14.00" fill="#000000">organic substance</text>
<text text-anchor="middle" x="78.4977" y="-574.6" font-family="Times,serif" font-size="14.00" fill="#000000">catabolic process</text>
</g>
<!-- GO:0046185&#45;&gt;GO:1901575 -->
<g id="edge10" class="edge">
<title>GO:0046185&#45;&gt;GO:1901575</title>
<path fill="none" stroke="#000000" d="M167.3884,-530.5513C154.526,-539.9637 140.1461,-550.4867 126.7634,-560.28"/>
<polygon fill="#000000" stroke="#000000" points="124.5852,-557.5368 118.5821,-566.2669 128.7191,-563.1858 124.5852,-557.5368"/>
</g>
<!-- GO:0006081 -->
<g id="node12" class="node">
<title>GO:0006081</title>
<polygon fill="#ffffff" stroke="#000000" points="574.6833,-625.0014 458.312,-625.0014 458.312,-566.1986 574.6833,-566.1986 574.6833,-625.0014"/>
<text text-anchor="middle" x="516.4977" y="-608.2" font-family="Times,serif" font-size="14.00" fill="#000000">GO:0006081</text>
<text text-anchor="middle" x="516.4977" y="-591.4" font-family="Times,serif" font-size="14.00" fill="#000000">cellular aldehyde</text>
<text text-anchor="middle" x="516.4977" y="-574.6" font-family="Times,serif" font-size="14.00" fill="#000000">metabolic process</text>
</g>
<!-- GO:0046185&#45;&gt;GO:0006081 -->
<g id="edge11" class="edge">
<title>GO:0046185&#45;&gt;GO:0006081</title>
<path fill="none" stroke="#000000" d="M267.9452,-527.2368C271.1558,-528.3616 274.3535,-529.4248 277.4977,-530.4 349.0332,-552.5881 373.1146,-543.5081 448.3593,-566.2972"/>
<polygon fill="#000000" stroke="#000000" points="447.7137,-569.7622 458.3024,-569.4011 449.7997,-563.0802 447.7137,-569.7622"/>
</g>
<!-- GO:0009438&#45;&gt;GO:0006081 -->
<g id="edge13" class="edge">
<title>GO:0009438&#45;&gt;GO:0006081</title>
<path fill="none" stroke="#000000" d="M528.901,-530.5513C527.3433,-538.7206 525.6261,-547.7264 523.9788,-556.3657"/>
<polygon fill="#000000" stroke="#000000" points="520.5259,-555.7883 522.0908,-566.2669 527.402,-557.0994 520.5259,-555.7883"/>
</g>
<!-- GO:0042180 -->
<g id="node13" class="node">
<title>GO:0042180</title>
<polygon fill="#ffffff" stroke="#000000" points="750.0006,-625.0014 592.9947,-625.0014 592.9947,-566.1986 750.0006,-566.1986 750.0006,-625.0014"/>
<text text-anchor="middle" x="671.4977" y="-608.2" font-family="Times,serif" font-size="14.00" fill="#000000">GO:0042180</text>
<text text-anchor="middle" x="671.4977" y="-591.4" font-family="Times,serif" font-size="14.00" fill="#000000">cellular ketone metabolic</text>
<text text-anchor="middle" x="671.4977" y="-574.6" font-family="Times,serif" font-size="14.00" fill="#000000">process</text>
</g>
<!-- GO:0009438&#45;&gt;GO:0042180 -->
<g id="edge12" class="edge">
<title>GO:0009438&#45;&gt;GO:0042180</title>
<path fill="none" stroke="#000000" d="M577.0943,-530.5513C590.8832,-540.0525 606.3144,-550.6854 620.6407,-560.5569"/>
<polygon fill="#000000" stroke="#000000" points="618.7069,-563.4749 628.9273,-566.2669 622.6787,-557.7108 618.7069,-563.4749"/>
</g>
<!-- GO:0042182&#45;&gt;GO:0044248 -->
<g id="edge14" class="edge">
<title>GO:0042182&#45;&gt;GO:0044248</title>
<path fill="none" stroke="#000000" d="M329.1406,-521.9165C310.7068,-533.3649 287.3243,-547.8866 266.1995,-561.0062"/>
<polygon fill="#000000" stroke="#000000" points="264.2638,-558.0883 257.6154,-566.3374 267.957,-564.0348 264.2638,-558.0883"/>
</g>
<!-- GO:0042182&#45;&gt;GO:1901575 -->
<g id="edge15" class="edge">
<title>GO:0042182&#45;&gt;GO:1901575</title>
<path fill="none" stroke="#000000" d="M302.9653,-521.922C294.1192,-524.8531 285.0898,-527.7633 276.4977,-530.4 221.7052,-547.2146 204.1966,-546.4221 146.4005,-566.2551"/>
<polygon fill="#000000" stroke="#000000" points="145.0527,-563.0185 136.7668,-569.6211 147.3617,-569.6267 145.0527,-563.0185"/>
</g>
<!-- GO:0042182&#45;&gt;GO:0042180 -->
<g id="edge16" class="edge">
<title>GO:0042182&#45;&gt;GO:0042180</title>
<path fill="none" stroke="#000000" d="M420.8449,-521.8632C429.7394,-524.8332 438.8382,-527.7702 447.4977,-530.4 504.4046,-547.6818 521.884,-548.5046 583.1058,-566.3614"/>
<polygon fill="#000000" stroke="#000000" points="582.3095,-569.7756 592.8913,-569.2506 584.2917,-563.0621 582.3095,-569.7756"/>
</g>
<!-- GO:0044282 -->
<g id="node14" class="node">
<title>GO:0044282</title>
<polygon fill="#ffffff" stroke="#000000" points="440.1746,-625.0014 284.8208,-625.0014 284.8208,-566.1986 440.1746,-566.1986 440.1746,-625.0014"/>
<text text-anchor="middle" x="362.4977" y="-608.2" font-family="Times,serif" font-size="14.00" fill="#000000">GO:0044282</text>
<text text-anchor="middle" x="362.4977" y="-591.4" font-family="Times,serif" font-size="14.00" fill="#000000">small molecule catabolic</text>
<text text-anchor="middle" x="362.4977" y="-574.6" font-family="Times,serif" font-size="14.00" fill="#000000">process</text>
</g>
<!-- GO:0042182&#45;&gt;GO:0044282 -->
<g id="edge17" class="edge">
<title>GO:0042182&#45;&gt;GO:0044282</title>
<path fill="none" stroke="#000000" d="M362.4977,-522.1504C362.4977,-532.1492 362.4977,-544.4525 362.4977,-556.1106"/>
<polygon fill="#000000" stroke="#000000" points="358.9978,-556.1155 362.4977,-566.1155 365.9978,-556.1156 358.9978,-556.1155"/>
</g>
<!-- GO:0019752 -->
<g id="node15" class="node">
<title>GO:0019752</title>
<polygon fill="#ffffff" stroke="#000000" points="747.6097,-436.2014 587.3856,-436.2014 587.3856,-377.3986 747.6097,-377.3986 747.6097,-436.2014"/>
<text text-anchor="middle" x="667.4977" y="-419.4" font-family="Times,serif" font-size="14.00" fill="#000000">GO:0019752</text>
<text text-anchor="middle" x="667.4977" y="-402.6" font-family="Times,serif" font-size="14.00" fill="#000000">carboxylic acid metabolic</text>
<text text-anchor="middle" x="667.4977" y="-385.8" font-family="Times,serif" font-size="14.00" fill="#000000">process</text>
</g>
<!-- GO:0032787&#45;&gt;GO:0019752 -->
<g id="edge18" class="edge">
<title>GO:0032787&#45;&gt;GO:0019752</title>
<path fill="none" stroke="#000000" d="M646.1363,-341.7513C648.8482,-350.0094 651.8408,-359.1223 654.706,-367.8473"/>
<polygon fill="#000000" stroke="#000000" points="651.4196,-369.058 657.8649,-377.4669 658.0702,-366.874 651.4196,-369.058"/>
</g>
<!-- GO:0009056 -->
<g id="node16" class="node">
<title>GO:0009056</title>
<polygon fill="#ffffff" stroke="#000000" points="202.5069,-805.0019 90.4885,-805.0019 90.4885,-763.7981 202.5069,-763.7981 202.5069,-805.0019"/>
<text text-anchor="middle" x="146.4977" y="-788.6" font-family="Times,serif" font-size="14.00" fill="#000000">GO:0009056</text>
<text text-anchor="middle" x="146.4977" y="-771.8" font-family="Times,serif" font-size="14.00" fill="#000000">catabolic process</text>
</g>
<!-- GO:0044248&#45;&gt;GO:0009056 -->
<g id="edge19" class="edge">
<title>GO:0044248&#45;&gt;GO:0009056</title>
<path fill="none" stroke="#000000" d="M164.1261,-625.1339C152.6235,-634.9624 141.7937,-646.9842 135.4977,-660.8 122.0115,-690.3937 128.2558,-728.0652 135.6504,-753.997"/>
<polygon fill="#000000" stroke="#000000" points="132.3345,-755.1223 138.6125,-763.6568 139.0269,-753.0701 132.3345,-755.1223"/>
</g>
<!-- GO:0044237 -->
<g id="node17" class="node">
<title>GO:0044237</title>
<polygon fill="#ffffff" stroke="#000000" points="611.6805,-719.4014 495.3148,-719.4014 495.3148,-660.5986 611.6805,-660.5986 611.6805,-719.4014"/>
<text text-anchor="middle" x="553.4977" y="-702.6" font-family="Times,serif" font-size="14.00" fill="#000000">GO:0044237</text>
<text text-anchor="middle" x="553.4977" y="-685.8" font-family="Times,serif" font-size="14.00" fill="#000000">cellular metabolic</text>
<text text-anchor="middle" x="553.4977" y="-669" font-family="Times,serif" font-size="14.00" fill="#000000">process</text>
</g>
<!-- GO:0044248&#45;&gt;GO:0044237 -->
<g id="edge20" class="edge">
<title>GO:0044248&#45;&gt;GO:0044237</title>
<path fill="none" stroke="#000000" d="M266.533,-621.8153C269.539,-622.8934 272.5394,-623.8979 275.4977,-624.8 366.0744,-652.4218 394.6946,-633.9315 485.4977,-660.8 485.5978,-660.8296 485.6979,-660.8593 485.7981,-660.8892"/>
<polygon fill="#000000" stroke="#000000" points="484.6243,-664.188 495.2162,-663.9376 486.78,-657.5281 484.6243,-664.188"/>
</g>
<!-- GO:0044712&#45;&gt;GO:0009056 -->
<g id="edge22" class="edge">
<title>GO:0044712&#45;&gt;GO:0009056</title>
<path fill="none" stroke="#000000" d="M200.2455,-719.3513C190.6732,-730.9363 179.7107,-744.2037 170.1934,-755.722"/>
<polygon fill="#000000" stroke="#000000" points="167.2309,-753.8126 163.5593,-763.751 172.6272,-758.2714 167.2309,-753.8126"/>
</g>
<!-- GO:0044710 -->
<g id="node18" class="node">
<title>GO:0044710</title>
<polygon fill="#ffffff" stroke="#000000" points="414.9059,-813.8014 250.0894,-813.8014 250.0894,-754.9986 414.9059,-754.9986 414.9059,-813.8014"/>
<text text-anchor="middle" x="332.4977" y="-797" font-family="Times,serif" font-size="14.00" fill="#000000">GO:0044710</text>
<text text-anchor="middle" x="332.4977" y="-780.2" font-family="Times,serif" font-size="14.00" fill="#000000">single&#45;organism metabolic</text>
<text text-anchor="middle" x="332.4977" y="-763.4" font-family="Times,serif" font-size="14.00" fill="#000000">process</text>
</g>
<!-- GO:0044712&#45;&gt;GO:0044710 -->
<g id="edge21" class="edge">
<title>GO:0044712&#45;&gt;GO:0044710</title>
<path fill="none" stroke="#000000" d="M258.0775,-719.3513C268.5412,-728.4973 280.2046,-738.692 291.1359,-748.2467"/>
<polygon fill="#000000" stroke="#000000" points="289.1059,-751.121 298.9386,-755.0669 293.7127,-745.8505 289.1059,-751.121"/>
</g>
<!-- GO:1901575&#45;&gt;GO:0009056 -->
<g id="edge24" class="edge">
<title>GO:1901575&#45;&gt;GO:0009056</title>
<path fill="none" stroke="#000000" d="M89.1227,-625.1C101.7357,-660.1199 122.6673,-718.2356 135.459,-753.7515"/>
<polygon fill="#000000" stroke="#000000" points="132.3117,-755.3421 138.9933,-763.5645 138.8976,-752.9701 132.3117,-755.3421"/>
</g>
<!-- GO:0071704 -->
<g id="node19" class="node">
<title>GO:0071704</title>
<polygon fill="#ffffff" stroke="#000000" points="476.6833,-719.4014 360.312,-719.4014 360.312,-660.5986 476.6833,-660.5986 476.6833,-719.4014"/>
<text text-anchor="middle" x="418.4977" y="-702.6" font-family="Times,serif" font-size="14.00" fill="#000000">GO:0071704</text>
<text text-anchor="middle" x="418.4977" y="-685.8" font-family="Times,serif" font-size="14.00" fill="#000000">organic substance</text>
<text text-anchor="middle" x="418.4977" y="-669" font-family="Times,serif" font-size="14.00" fill="#000000">metabolic process</text>
</g>
<!-- GO:1901575&#45;&gt;GO:0071704 -->
<g id="edge23" class="edge">
<title>GO:1901575&#45;&gt;GO:0071704</title>
<path fill="none" stroke="#000000" d="M136.6984,-621.7818C139.6541,-622.8541 142.5985,-623.868 145.4977,-624.8 218.1951,-648.1709 239.3459,-642.562 313.4977,-660.8 325.4583,-663.7418 338.1256,-667.0756 350.3667,-670.4118"/>
<polygon fill="#000000" stroke="#000000" points="349.5007,-673.8035 360.0709,-673.0805 351.3569,-667.0541 349.5007,-673.8035"/>
</g>
<!-- GO:0006081&#45;&gt;GO:0044237 -->
<g id="edge28" class="edge">
<title>GO:0006081&#45;&gt;GO:0044237</title>
<path fill="none" stroke="#000000" d="M528.0019,-624.9513C531.2734,-633.2982 534.8873,-642.5184 538.3404,-651.3286"/>
<polygon fill="#000000" stroke="#000000" points="535.0927,-652.6337 542.0006,-660.6669 541.6099,-650.0792 535.0927,-652.6337"/>
</g>
<!-- GO:0006081&#45;&gt;GO:0044710 -->
<g id="edge26" class="edge">
<title>GO:0006081&#45;&gt;GO:0044710</title>
<path fill="none" stroke="#000000" d="M458.1175,-621.2845C455.2092,-622.4882 452.324,-623.6661 449.4977,-624.8 406.4326,-642.0768 380.8775,-624.8847 351.4977,-660.8 332.445,-684.0908 328.4536,-718.3923 328.7996,-744.9546"/>
<polygon fill="#000000" stroke="#000000" points="325.306,-745.2035 329.1416,-755.0796 332.302,-744.9671 325.306,-745.2035"/>
</g>
<!-- GO:0006081&#45;&gt;GO:0071704 -->
<g id="edge25" class="edge">
<title>GO:0006081&#45;&gt;GO:0071704</title>
<path fill="none" stroke="#000000" d="M486.027,-624.9513C476.6244,-634.0086 466.1542,-644.0941 456.3187,-653.5683"/>
<polygon fill="#000000" stroke="#000000" points="453.7234,-651.2085 448.9494,-660.6669 458.5797,-656.25 453.7234,-651.2085"/>
</g>
<!-- GO:0044763 -->
<g id="node20" class="node">
<title>GO:0044763</title>
<polygon fill="#ffffff" stroke="#000000" points="959.1762,-719.4014 807.8191,-719.4014 807.8191,-660.5986 959.1762,-660.5986 959.1762,-719.4014"/>
<text text-anchor="middle" x="883.4977" y="-702.6" font-family="Times,serif" font-size="14.00" fill="#000000">GO:0044763</text>
<text text-anchor="middle" x="883.4977" y="-685.8" font-family="Times,serif" font-size="14.00" fill="#000000">single&#45;organism cellular</text>
<text text-anchor="middle" x="883.4977" y="-669" font-family="Times,serif" font-size="14.00" fill="#000000">process</text>
</g>
<!-- GO:0006081&#45;&gt;GO:0044763 -->
<g id="edge27" class="edge">
<title>GO:0006081&#45;&gt;GO:0044763</title>
<path fill="none" stroke="#000000" d="M575.0194,-622.0721C577.8639,-623.0531 580.6998,-623.9698 583.4977,-624.8 673.3874,-651.4727 702.7005,-637.927 797.9462,-660.8489"/>
<polygon fill="#000000" stroke="#000000" points="797.1368,-664.2541 807.6852,-663.2629 798.821,-657.4597 797.1368,-664.2541"/>
</g>
<!-- GO:0042180&#45;&gt;GO:0044237 -->
<g id="edge32" class="edge">
<title>GO:0042180&#45;&gt;GO:0044237</title>
<path fill="none" stroke="#000000" d="M634.8085,-624.9513C623.154,-634.2749 610.1373,-644.6883 597.9944,-654.4026"/>
<polygon fill="#000000" stroke="#000000" points="595.7863,-651.6868 590.1641,-660.6669 600.1592,-657.1529 595.7863,-651.6868"/>
</g>
<!-- GO:0042180&#45;&gt;GO:0071704 -->
<g id="edge29" class="edge">
<title>GO:0042180&#45;&gt;GO:0071704</title>
<path fill="none" stroke="#000000" d="M592.7565,-622.0516C559.7462,-633.4763 521.075,-647.3003 486.4977,-660.8 486.4004,-660.838 486.3031,-660.876 486.2057,-660.9141"/>
<polygon fill="#000000" stroke="#000000" points="484.9932,-657.6295 477.0006,-664.5843 487.5858,-664.1317 484.9932,-657.6295"/>
</g>
<!-- GO:0042180&#45;&gt;GO:0044763 -->
<g id="edge30" class="edge">
<title>GO:0042180&#45;&gt;GO:0044763</title>
<path fill="none" stroke="#000000" d="M737.1239,-624.8223C759.7759,-634.9088 785.3198,-646.2831 808.6532,-656.6731"/>
<polygon fill="#000000" stroke="#000000" points="807.2575,-659.8828 817.8165,-660.7533 810.105,-653.4881 807.2575,-659.8828"/>
</g>
<!-- GO:0044281 -->
<g id="node21" class="node">
<title>GO:0044281</title>
<polygon fill="#ffffff" stroke="#000000" points="789.3505,-719.4014 629.6448,-719.4014 629.6448,-660.5986 789.3505,-660.5986 789.3505,-719.4014"/>
<text text-anchor="middle" x="709.4977" y="-702.6" font-family="Times,serif" font-size="14.00" fill="#000000">GO:0044281</text>
<text text-anchor="middle" x="709.4977" y="-685.8" font-family="Times,serif" font-size="14.00" fill="#000000">small molecule metabolic</text>
<text text-anchor="middle" x="709.4977" y="-669" font-family="Times,serif" font-size="14.00" fill="#000000">process</text>
</g>
<!-- GO:0042180&#45;&gt;GO:0044281 -->
<g id="edge31" class="edge">
<title>GO:0042180&#45;&gt;GO:0044281</title>
<path fill="none" stroke="#000000" d="M683.3128,-624.9513C686.6728,-633.2982 690.3843,-642.5184 693.9308,-651.3286"/>
<polygon fill="#000000" stroke="#000000" points="690.7087,-652.6972 697.6898,-660.6669 697.2023,-650.0832 690.7087,-652.6972"/>
</g>
<!-- GO:0044282&#45;&gt;GO:0044712 -->
<g id="edge33" class="edge">
<title>GO:0044282&#45;&gt;GO:0044712</title>
<path fill="none" stroke="#000000" d="M319.5901,-624.9513C305.7005,-634.4525 290.1567,-645.0854 275.7259,-654.9569"/>
<polygon fill="#000000" stroke="#000000" points="273.6563,-652.1321 267.3787,-660.6669 277.6085,-657.9096 273.6563,-652.1321"/>
</g>
<!-- GO:0044282&#45;&gt;GO:0044281 -->
<g id="edge34" class="edge">
<title>GO:0044282&#45;&gt;GO:0044281</title>
<path fill="none" stroke="#000000" d="M440.1486,-622.1603C443.2977,-623.0793 446.423,-623.9634 449.4977,-624.8 521.3653,-644.3543 543.6701,-640.9934 619.5325,-660.6644"/>
<polygon fill="#000000" stroke="#000000" points="619.0058,-664.1454 629.5683,-663.3183 620.7955,-657.378 619.0058,-664.1454"/>
</g>
<!-- GO:0043436 -->
<g id="node22" class="node">
<title>GO:0043436</title>
<polygon fill="#ffffff" stroke="#000000" points="858.5034,-521.8019 694.4919,-521.8019 694.4919,-480.5981 858.5034,-480.5981 858.5034,-521.8019"/>
<text text-anchor="middle" x="776.4977" y="-505.4" font-family="Times,serif" font-size="14.00" fill="#000000">GO:0043436</text>
<text text-anchor="middle" x="776.4977" y="-488.6" font-family="Times,serif" font-size="14.00" fill="#000000">oxoacid metabolic process</text>
</g>
<!-- GO:0019752&#45;&gt;GO:0043436 -->
<g id="edge35" class="edge">
<title>GO:0019752&#45;&gt;GO:0043436</title>
<path fill="none" stroke="#000000" d="M701.3884,-436.1513C715.2847,-448.1862 731.2773,-462.0367 744.9244,-473.8559"/>
<polygon fill="#000000" stroke="#000000" points="742.8045,-476.65 752.655,-480.551 747.3872,-471.3586 742.8045,-476.65"/>
</g>
<!-- GO:0008152 -->
<g id="node23" class="node">
<title>GO:0008152</title>
<polygon fill="#ffffff" stroke="#000000" points="480.6833,-891.0019 364.312,-891.0019 364.312,-849.7981 480.6833,-849.7981 480.6833,-891.0019"/>
<text text-anchor="middle" x="422.4977" y="-874.6" font-family="Times,serif" font-size="14.00" fill="#000000">GO:0008152</text>
<text text-anchor="middle" x="422.4977" y="-857.8" font-family="Times,serif" font-size="14.00" fill="#000000">metabolic process</text>
</g>
<!-- GO:0009056&#45;&gt;GO:0008152 -->
<g id="edge36" class="edge">
<title>GO:0009056&#45;&gt;GO:0008152</title>
<path fill="none" stroke="#000000" d="M202.683,-801.907C246.533,-815.5704 307.6315,-834.6084 354.2863,-849.1457"/>
<polygon fill="#000000" stroke="#000000" points="353.4228,-852.5426 364.0113,-852.176 355.5053,-845.8595 353.4228,-852.5426"/>
</g>
<!-- GO:0044237&#45;&gt;GO:0008152 -->
<g id="edge38" class="edge">
<title>GO:0044237&#45;&gt;GO:0008152</title>
<path fill="none" stroke="#000000" d="M532.1587,-719.3859C507.7336,-753.0217 467.9729,-807.7761 443.6333,-841.2941"/>
<polygon fill="#000000" stroke="#000000" points="440.5434,-839.5927 437.4996,-849.7409 446.2075,-843.7058 440.5434,-839.5927"/>
</g>
<!-- GO:0009987 -->
<g id="node24" class="node">
<title>GO:0009987</title>
<polygon fill="#ffffff" stroke="#000000" points="730.4539,-805.0019 626.5414,-805.0019 626.5414,-763.7981 730.4539,-763.7981 730.4539,-805.0019"/>
<text text-anchor="middle" x="678.4977" y="-788.6" font-family="Times,serif" font-size="14.00" fill="#000000">GO:0009987</text>
<text text-anchor="middle" x="678.4977" y="-771.8" font-family="Times,serif" font-size="14.00" fill="#000000">cellular process</text>
</g>
<!-- GO:0044237&#45;&gt;GO:0009987 -->
<g id="edge37" class="edge">
<title>GO:0044237&#45;&gt;GO:0009987</title>
<path fill="none" stroke="#000000" d="M592.3632,-719.3513C608.5972,-731.6112 627.3259,-745.7551 643.1646,-757.7165"/>
<polygon fill="#000000" stroke="#000000" points="641.0659,-760.5174 651.1552,-763.751 645.2844,-754.9314 641.0659,-760.5174"/>
</g>
<!-- GO:0044710&#45;&gt;GO:0008152 -->
<g id="edge39" class="edge">
<title>GO:0044710&#45;&gt;GO:0008152</title>
<path fill="none" stroke="#000000" d="M363.2188,-813.7558C372.9426,-823.0474 383.6588,-833.2873 393.2745,-842.4757"/>
<polygon fill="#000000" stroke="#000000" points="391.0623,-845.2028 400.7103,-849.5809 395.8983,-840.1419 391.0623,-845.2028"/>
</g>
<!-- GO:0044699 -->
<g id="node25" class="node">
<title>GO:0044699</title>
<polygon fill="#ffffff" stroke="#000000" points="650.179,-891.0019 498.8163,-891.0019 498.8163,-849.7981 650.179,-849.7981 650.179,-891.0019"/>
<text text-anchor="middle" x="574.4977" y="-874.6" font-family="Times,serif" font-size="14.00" fill="#000000">GO:0044699</text>
<text text-anchor="middle" x="574.4977" y="-857.8" font-family="Times,serif" font-size="14.00" fill="#000000">single&#45;organism process</text>
</g>
<!-- GO:0044710&#45;&gt;GO:0044699 -->
<g id="edge40" class="edge">
<title>GO:0044710&#45;&gt;GO:0044699</title>
<path fill="none" stroke="#000000" d="M414.7655,-813.6357C444.8037,-824.3104 478.4019,-836.2503 507.005,-846.415"/>
<polygon fill="#000000" stroke="#000000" points="505.9067,-849.7391 516.5014,-849.7898 508.2507,-843.1432 505.9067,-849.7391"/>
</g>
<!-- GO:0071704&#45;&gt;GO:0008152 -->
<g id="edge41" class="edge">
<title>GO:0071704&#45;&gt;GO:0008152</title>
<path fill="none" stroke="#000000" d="M421.2414,-719.5083C422.1535,-730.6785 423.0503,-743.5153 423.4977,-755.2 424.4907,-781.1366 423.7261,-787.6454 423.4977,-813.6 423.4238,-821.9906 423.2886,-831.0776 423.141,-839.4715"/>
<polygon fill="#000000" stroke="#000000" points="419.6387,-839.5646 422.951,-849.6283 426.6375,-839.6955 419.6387,-839.5646"/>
</g>
<!-- GO:0044763&#45;&gt;GO:0009987 -->
<g id="edge42" class="edge">
<title>GO:0044763&#45;&gt;GO:0009987</title>
<path fill="none" stroke="#000000" d="M820.0383,-719.2223C792.0581,-732.1068 759.5148,-747.0926 732.6928,-759.4438"/>
<polygon fill="#000000" stroke="#000000" points="731.0803,-756.333 723.461,-763.6949 734.0082,-762.6913 731.0803,-756.333"/>
</g>
<!-- GO:0044763&#45;&gt;GO:0044699 -->
<g id="edge43" class="edge">
<title>GO:0044763&#45;&gt;GO:0044699</title>
<path fill="none" stroke="#000000" d="M807.6545,-716.62C804.5714,-717.5225 801.5105,-718.3868 798.4977,-719.2 719.3109,-740.5723 679.9683,-702.0519 617.4977,-755.2 592.7748,-776.2334 582.2509,-812.921 577.7806,-839.2471"/>
<polygon fill="#000000" stroke="#000000" points="574.2693,-839.0636 576.2563,-849.4704 581.1928,-840.0959 574.2693,-839.0636"/>
</g>
<!-- GO:0044281&#45;&gt;GO:0044710 -->
<g id="edge44" class="edge">
<title>GO:0044281&#45;&gt;GO:0044710</title>
<path fill="none" stroke="#000000" d="M629.5525,-716.6236C626.5017,-717.5142 623.4756,-718.3764 620.4977,-719.2 555.7074,-737.1194 481.7294,-753.7877 424.9745,-765.7853"/>
<polygon fill="#000000" stroke="#000000" points="424.009,-762.4117 414.9435,-767.8951 425.4498,-769.2618 424.009,-762.4117"/>
</g>
<!-- GO:0006082 -->
<g id="node26" class="node">
<title>GO:0006082</title>
<polygon fill="#ffffff" stroke="#000000" points="912.0049,-625.0014 768.9904,-625.0014 768.9904,-566.1986 912.0049,-566.1986 912.0049,-625.0014"/>
<text text-anchor="middle" x="840.4977" y="-608.2" font-family="Times,serif" font-size="14.00" fill="#000000">GO:0006082</text>
<text text-anchor="middle" x="840.4977" y="-591.4" font-family="Times,serif" font-size="14.00" fill="#000000">organic acid metabolic</text>
<text text-anchor="middle" x="840.4977" y="-574.6" font-family="Times,serif" font-size="14.00" fill="#000000">process</text>
</g>
<!-- GO:0043436&#45;&gt;GO:0006082 -->
<g id="edge45" class="edge">
<title>GO:0043436&#45;&gt;GO:0006082</title>
<path fill="none" stroke="#000000" d="M790.7013,-522.1504C797.7541,-532.5532 806.4979,-545.4504 814.681,-557.5204"/>
<polygon fill="#000000" stroke="#000000" points="811.9996,-559.8025 820.5082,-566.1155 817.7935,-555.8743 811.9996,-559.8025"/>
</g>
<!-- GO:0008150 -->
<g id="node27" class="node">
<title>GO:0008150</title>
<polygon fill="#ffffff" stroke="#000000" points="634.9683,-968.6019 514.027,-968.6019 514.027,-927.3981 634.9683,-927.3981 634.9683,-968.6019"/>
<text text-anchor="middle" x="574.4977" y="-952.2" font-family="Times,serif" font-size="14.00" fill="#000000">GO:0008150</text>
<text text-anchor="middle" x="574.4977" y="-935.4" font-family="Times,serif" font-size="14.00" fill="#000000">biological_process</text>
</g>
<!-- GO:0008152&#45;&gt;GO:0008150 -->
<g id="edge46" class="edge">
<title>GO:0008152&#45;&gt;GO:0008150</title>
<path fill="none" stroke="#000000" d="M463.2309,-891.1954C482.2193,-900.8895 504.9816,-912.5102 524.9574,-922.7084"/>
<polygon fill="#000000" stroke="#000000" points="523.4179,-925.8521 533.9158,-927.2819 526.6008,-919.6176 523.4179,-925.8521"/>
</g>
<!-- GO:0009987&#45;&gt;GO:0008150 -->
<g id="edge47" class="edge">
<title>GO:0009987&#45;&gt;GO:0008150</title>
<path fill="none" stroke="#000000" d="M679.4456,-805.0158C679.5124,-827.8936 676.601,-865.031 659.4977,-891.2 651.606,-903.2746 640.158,-913.4074 628.2071,-921.6142"/>
<polygon fill="#000000" stroke="#000000" points="625.9705,-918.8916 619.4598,-927.2499 629.7618,-924.776 625.9705,-918.8916"/>
</g>
<!-- GO:0044699&#45;&gt;GO:0008150 -->
<g id="edge48" class="edge">
<title>GO:0044699&#45;&gt;GO:0008150</title>
<path fill="none" stroke="#000000" d="M574.4977,-891.1954C574.4977,-899.1109 574.4977,-908.3109 574.4977,-916.9722"/>
<polygon fill="#000000" stroke="#000000" points="570.9978,-917.1472 574.4977,-927.1472 577.9978,-917.1473 570.9978,-917.1472"/>
</g>
<!-- GO:0006082&#45;&gt;GO:0044237 -->
<g id="edge52" class="edge">
<title>GO:0006082&#45;&gt;GO:0044237</title>
<path fill="none" stroke="#000000" d="M768.6254,-621.8998C765.5491,-622.9019 762.4969,-623.8732 759.4977,-624.8 701.5034,-642.7212 682.6563,-640.2905 621.5107,-660.6478"/>
<polygon fill="#000000" stroke="#000000" points="620.0884,-657.4345 611.7486,-663.9688 622.343,-664.0615 620.0884,-657.4345"/>
</g>
<!-- GO:0006082&#45;&gt;GO:0071704 -->
<g id="edge49" class="edge">
<title>GO:0006082&#45;&gt;GO:0071704</title>
<path fill="none" stroke="#000000" d="M768.7545,-622.3676C765.6428,-623.2417 762.5479,-624.0582 759.4977,-624.8 640.5797,-653.7188 604.501,-628.3503 486.4977,-660.8 486.397,-660.8277 486.2963,-660.8555 486.1956,-660.8834"/>
<polygon fill="#000000" stroke="#000000" points="485.2688,-657.5066 476.7362,-663.7872 487.3231,-664.1984 485.2688,-657.5066"/>
</g>
<!-- GO:0006082&#45;&gt;GO:0044763 -->
<g id="edge50" class="edge">
<title>GO:0006082&#45;&gt;GO:0044763</title>
<path fill="none" stroke="#000000" d="M853.8674,-624.9513C857.6695,-633.2982 861.8694,-642.5184 865.8825,-651.3286"/>
<polygon fill="#000000" stroke="#000000" points="862.8057,-653.0174 870.1362,-660.6669 869.1759,-650.1156 862.8057,-653.0174"/>
</g>
<!-- GO:0006082&#45;&gt;GO:0044281 -->
<g id="edge51" class="edge">
<title>GO:0006082&#45;&gt;GO:0044281</title>
<path fill="none" stroke="#000000" d="M799.7665,-624.9513C786.7048,-634.3637 772.1019,-644.8867 758.5117,-654.68"/>
<polygon fill="#000000" stroke="#000000" points="756.2704,-651.981 750.2036,-660.6669 760.3628,-657.6601 756.2704,-651.981"/>
</g>
</g>
</svg>
