<?xml version="1.0" encoding="UTF-8" standalone="no"?>
<!DOCTYPE svg PUBLIC "-//W3C//DTD SVG 1.1//EN"
 "http://www.w3.org/Graphics/SVG/1.1/DTD/svg11.dtd">
<!-- Generated by graphviz version 2.40.1 (20161225.0304)
 -->
<!-- Title: G Pages: 1 -->
<svg width="1158pt" height="788pt"
 viewBox="0.00 0.00 1158.15 788.00" xmlns="http://www.w3.org/2000/svg" xmlns:xlink="http://www.w3.org/1999/xlink">
<g id="graph0" class="graph" transform="scale(1 1) rotate(0) translate(4 784)">
<title>G</title>
<polygon fill="#ffffff" stroke="transparent" points="-4,4 -4,-784 1154.1498,-784 1154.1498,4 -4,4"/>
<!-- GO:0009897 -->
<g id="node1" class="node">
<title>GO:0009897</title>
<polygon fill="#00ffff" stroke="#000000" points="463.768,-530.6014 317.8646,-530.6014 317.8646,-471.7986 463.768,-471.7986 463.768,-530.6014"/>
<text text-anchor="middle" x="390.8163" y="-513.8" font-family="Times,serif" font-size="14.00" fill="#000000">GO:0009897</text>
<text text-anchor="middle" x="390.8163" y="-497" font-family="Times,serif" font-size="14.00" fill="#000000">external side of plasma</text>
<text text-anchor="middle" x="390.8163" y="-480.2" font-family="Times,serif" font-size="14.00" fill="#000000">membrane</text>
</g>
<!-- GO:0044459 -->
<g id="node2" class="node">
<title>GO:0044459</title>
<polygon fill="#ffffff" stroke="#000000" points="506.3235,-616.2019 363.3091,-616.2019 363.3091,-574.9981 506.3235,-574.9981 506.3235,-616.2019"/>
<text text-anchor="middle" x="434.8163" y="-599.8" font-family="Times,serif" font-size="14.00" fill="#000000">GO:0044459</text>
<text text-anchor="middle" x="434.8163" y="-583" font-family="Times,serif" font-size="14.00" fill="#000000">plasma membrane part</text>
</g>
<!-- GO:0009897&#45;&gt;GO:0044459 -->
<g id="edge1" class="edge">
<title>GO:0009897&#45;&gt;GO:0044459</title>
<path fill="none" stroke="#000000" d="M404.497,-530.5513C409.6871,-541.6864 415.6016,-554.3758 420.8204,-565.5724"/>
<polygon fill="#000000" stroke="#000000" points="417.7947,-567.3658 425.1918,-574.951 424.1394,-564.4085 417.7947,-567.3658"/>
</g>
<!-- GO:0098552 -->
<g id="node3" class="node">
<title>GO:0098552</title>
<polygon fill="#ffffff" stroke="#000000" points="345.1127,-616.2019 228.5199,-616.2019 228.5199,-574.9981 345.1127,-574.9981 345.1127,-616.2019"/>
<text text-anchor="middle" x="286.8163" y="-599.8" font-family="Times,serif" font-size="14.00" fill="#000000">GO:0098552</text>
<text text-anchor="middle" x="286.8163" y="-583" font-family="Times,serif" font-size="14.00" fill="#000000">side of membrane</text>
</g>
<!-- GO:0009897&#45;&gt;GO:0098552 -->
<g id="edge2" class="edge">
<title>GO:0009897&#45;&gt;GO:0098552</title>
<path fill="none" stroke="#000000" d="M358.4801,-530.5513C345.3452,-542.4737 330.2473,-556.178 317.3069,-567.924"/>
<polygon fill="#000000" stroke="#000000" points="314.6174,-565.6383 309.5652,-574.951 319.3222,-570.8215 314.6174,-565.6383"/>
</g>
<!-- GO:0044425 -->
<g id="node4" class="node">
<title>GO:0044425</title>
<polygon fill="#00ffff" stroke="#000000" points="411.1683,-702.2019 310.4643,-702.2019 310.4643,-660.9981 411.1683,-660.9981 411.1683,-702.2019"/>
<text text-anchor="middle" x="360.8163" y="-685.8" font-family="Times,serif" font-size="14.00" fill="#000000">GO:0044425</text>
<text text-anchor="middle" x="360.8163" y="-669" font-family="Times,serif" font-size="14.00" fill="#000000">membrane part</text>
</g>
<!-- GO:0044459&#45;&gt;GO:0044425 -->
<g id="edge3" class="edge">
<title>GO:0044459&#45;&gt;GO:0044425</title>
<path fill="none" stroke="#000000" d="M416.903,-616.4182C407.3589,-627.5099 395.4817,-641.3132 385.1173,-653.3583"/>
<polygon fill="#000000" stroke="#000000" points="382.4341,-651.1105 378.5647,-660.9735 387.7402,-655.6762 382.4341,-651.1105"/>
</g>
<!-- GO:0044464 -->
<g id="node5" class="node">
<title>GO:0044464</title>
<polygon fill="#ff0000" stroke="#000000" points="797.4202,-702.2019 708.2124,-702.2019 708.2124,-660.9981 797.4202,-660.9981 797.4202,-702.2019"/>
<text text-anchor="middle" x="752.8163" y="-685.8" font-family="Times,serif" font-size="14.00" fill="#000000">GO:0044464</text>
<text text-anchor="middle" x="752.8163" y="-669" font-family="Times,serif" font-size="14.00" fill="#000000">cell part</text>
</g>
<!-- GO:0044459&#45;&gt;GO:0044464 -->
<g id="edge4" class="edge">
<title>GO:0044459&#45;&gt;GO:0044464</title>
<path fill="none" stroke="#000000" d="M487.7959,-616.2625C496.7379,-619.367 505.9843,-622.3454 514.8163,-624.8 592.5269,-646.3977 617.5364,-638.0877 698.5702,-660.6761"/>
<polygon fill="#000000" stroke="#000000" points="697.6181,-664.0441 708.1951,-663.429 699.5431,-657.314 697.6181,-664.0441"/>
</g>
<!-- GO:0098552&#45;&gt;GO:0044425 -->
<g id="edge5" class="edge">
<title>GO:0098552&#45;&gt;GO:0044425</title>
<path fill="none" stroke="#000000" d="M304.7296,-616.4182C314.2737,-627.5099 326.1509,-641.3132 336.5153,-653.3583"/>
<polygon fill="#000000" stroke="#000000" points="333.8924,-655.6762 343.0679,-660.9735 339.1985,-651.1105 333.8924,-655.6762"/>
</g>
<!-- GO:0005575 -->
<g id="node6" class="node">
<title>GO:0005575</title>
<polygon fill="#ffffff" stroke="#000000" points="761.503,-779.8019 634.1296,-779.8019 634.1296,-738.5981 761.503,-738.5981 761.503,-779.8019"/>
<text text-anchor="middle" x="697.8163" y="-763.4" font-family="Times,serif" font-size="14.00" fill="#000000">GO:0005575</text>
<text text-anchor="middle" x="697.8163" y="-746.6" font-family="Times,serif" font-size="14.00" fill="#000000">cellular_component</text>
</g>
<!-- GO:0044425&#45;&gt;GO:0005575 -->
<g id="edge6" class="edge">
<title>GO:0044425&#45;&gt;GO:0005575</title>
<path fill="none" stroke="#000000" d="M411.2686,-693.2175C467.6522,-706.2008 559.475,-727.3446 623.9464,-742.1902"/>
<polygon fill="#000000" stroke="#000000" points="623.5189,-745.6833 634.0493,-744.5166 625.0897,-738.8618 623.5189,-745.6833"/>
</g>
<!-- GO:0044464&#45;&gt;GO:0005575 -->
<g id="edge7" class="edge">
<title>GO:0044464&#45;&gt;GO:0005575</title>
<path fill="none" stroke="#000000" d="M738.0773,-702.3954C732.0356,-710.9197 724.9379,-720.9339 718.3984,-730.1605"/>
<polygon fill="#000000" stroke="#000000" points="715.523,-728.1647 712.596,-738.3472 721.234,-732.2125 715.523,-728.1647"/>
</g>
<!-- GO:0043229 -->
<g id="node7" class="node">
<title>GO:0043229</title>
<polygon fill="#00ff00" stroke="#000000" points="767.5347,-521.8019 628.0979,-521.8019 628.0979,-480.5981 767.5347,-480.5981 767.5347,-521.8019"/>
<text text-anchor="middle" x="697.8163" y="-505.4" font-family="Times,serif" font-size="14.00" fill="#000000">GO:0043229</text>
<text text-anchor="middle" x="697.8163" y="-488.6" font-family="Times,serif" font-size="14.00" fill="#000000">intracellular organelle</text>
</g>
<!-- GO:0044424 -->
<g id="node8" class="node">
<title>GO:0044424</title>
<polygon fill="#ff0000" stroke="#000000" points="886.2147,-616.2019 777.4179,-616.2019 777.4179,-574.9981 886.2147,-574.9981 886.2147,-616.2019"/>
<text text-anchor="middle" x="831.8163" y="-599.8" font-family="Times,serif" font-size="14.00" fill="#000000">GO:0044424</text>
<text text-anchor="middle" x="831.8163" y="-583" font-family="Times,serif" font-size="14.00" fill="#000000">intracellular part</text>
</g>
<!-- GO:0043229&#45;&gt;GO:0044424 -->
<g id="edge8" class="edge">
<title>GO:0043229&#45;&gt;GO:0044424</title>
<path fill="none" stroke="#000000" d="M727.2232,-521.9165C746.8596,-535.7499 772.8659,-554.0708 794.0336,-568.9829"/>
<polygon fill="#000000" stroke="#000000" points="792.2872,-572.0339 802.478,-574.9318 796.3186,-566.3114 792.2872,-572.0339"/>
</g>
<!-- GO:0043226 -->
<g id="node9" class="node">
<title>GO:0043226</title>
<polygon fill="#00ff00" stroke="#000000" points="613.4202,-616.2019 524.2124,-616.2019 524.2124,-574.9981 613.4202,-574.9981 613.4202,-616.2019"/>
<text text-anchor="middle" x="568.8163" y="-599.8" font-family="Times,serif" font-size="14.00" fill="#000000">GO:0043226</text>
<text text-anchor="middle" x="568.8163" y="-583" font-family="Times,serif" font-size="14.00" fill="#000000">organelle</text>
</g>
<!-- GO:0043229&#45;&gt;GO:0043226 -->
<g id="edge9" class="edge">
<title>GO:0043229&#45;&gt;GO:0043226</title>
<path fill="none" stroke="#000000" d="M669.5067,-521.9165C650.6029,-535.7499 625.5671,-554.0708 605.1892,-568.9829"/>
<polygon fill="#000000" stroke="#000000" points="603.063,-566.2018 597.0599,-574.9318 607.1968,-571.8508 603.063,-566.2018"/>
</g>
<!-- GO:0044424&#45;&gt;GO:0044464 -->
<g id="edge10" class="edge">
<title>GO:0044424&#45;&gt;GO:0044464</title>
<path fill="none" stroke="#000000" d="M812.6926,-616.4182C802.5037,-627.5099 789.8239,-641.3132 778.7593,-653.3583"/>
<polygon fill="#000000" stroke="#000000" points="775.9514,-651.2413 771.7639,-660.9735 781.1065,-655.9768 775.9514,-651.2413"/>
</g>
<!-- GO:0043226&#45;&gt;GO:0005575 -->
<g id="edge11" class="edge">
<title>GO:0043226&#45;&gt;GO:0005575</title>
<path fill="none" stroke="#000000" d="M567.3332,-616.5874C566.7867,-639.7984 569.2696,-677.2334 587.8163,-702.4 597.4781,-715.5103 611.0574,-725.8359 625.3887,-733.8766"/>
<polygon fill="#000000" stroke="#000000" points="623.8991,-737.0475 634.3808,-738.5922 627.1502,-730.8482 623.8991,-737.0475"/>
</g>
<!-- GO:0005887 -->
<g id="node10" class="node">
<title>GO:0005887</title>
<polygon fill="#00ffff" stroke="#000000" points="219.4494,-436.2014 80.1832,-436.2014 80.1832,-377.3986 219.4494,-377.3986 219.4494,-436.2014"/>
<text text-anchor="middle" x="149.8163" y="-419.4" font-family="Times,serif" font-size="14.00" fill="#000000">GO:0005887</text>
<text text-anchor="middle" x="149.8163" y="-402.6" font-family="Times,serif" font-size="14.00" fill="#000000">integral component of</text>
<text text-anchor="middle" x="149.8163" y="-385.8" font-family="Times,serif" font-size="14.00" fill="#000000">plasma membrane</text>
</g>
<!-- GO:0016021 -->
<g id="node11" class="node">
<title>GO:0016021</title>
<polygon fill="#00ffff" stroke="#000000" points="139.4494,-530.6014 .1832,-530.6014 .1832,-471.7986 139.4494,-471.7986 139.4494,-530.6014"/>
<text text-anchor="middle" x="69.8163" y="-513.8" font-family="Times,serif" font-size="14.00" fill="#000000">GO:0016021</text>
<text text-anchor="middle" x="69.8163" y="-497" font-family="Times,serif" font-size="14.00" fill="#000000">integral component of</text>
<text text-anchor="middle" x="69.8163" y="-480.2" font-family="Times,serif" font-size="14.00" fill="#000000">membrane</text>
</g>
<!-- GO:0005887&#45;&gt;GO:0016021 -->
<g id="edge12" class="edge">
<title>GO:0005887&#45;&gt;GO:0016021</title>
<path fill="none" stroke="#000000" d="M124.9423,-436.1513C117.4172,-445.031 109.0544,-454.899 101.1635,-464.2103"/>
<polygon fill="#000000" stroke="#000000" points="98.47,-461.975 94.6749,-471.8669 103.8103,-466.5007 98.47,-461.975"/>
</g>
<!-- GO:0031226 -->
<g id="node12" class="node">
<title>GO:0031226</title>
<polygon fill="#ffffff" stroke="#000000" points="300.0697,-530.6014 157.5629,-530.6014 157.5629,-471.7986 300.0697,-471.7986 300.0697,-530.6014"/>
<text text-anchor="middle" x="228.8163" y="-513.8" font-family="Times,serif" font-size="14.00" fill="#000000">GO:0031226</text>
<text text-anchor="middle" x="228.8163" y="-497" font-family="Times,serif" font-size="14.00" fill="#000000">intrinsic component of</text>
<text text-anchor="middle" x="228.8163" y="-480.2" font-family="Times,serif" font-size="14.00" fill="#000000">plasma membrane</text>
</g>
<!-- GO:0005887&#45;&gt;GO:0031226 -->
<g id="edge13" class="edge">
<title>GO:0005887&#45;&gt;GO:0031226</title>
<path fill="none" stroke="#000000" d="M174.3793,-436.1513C181.7361,-444.9422 189.9036,-454.7018 197.627,-463.9308"/>
<polygon fill="#000000" stroke="#000000" points="195.1665,-466.4442 204.2684,-471.8669 200.5347,-461.9517 195.1665,-466.4442"/>
</g>
<!-- GO:0031224 -->
<g id="node13" class="node">
<title>GO:0031224</title>
<polygon fill="#ffffff" stroke="#000000" points="210.0697,-625.0014 67.5629,-625.0014 67.5629,-566.1986 210.0697,-566.1986 210.0697,-625.0014"/>
<text text-anchor="middle" x="138.8163" y="-608.2" font-family="Times,serif" font-size="14.00" fill="#000000">GO:0031224</text>
<text text-anchor="middle" x="138.8163" y="-591.4" font-family="Times,serif" font-size="14.00" fill="#000000">intrinsic component of</text>
<text text-anchor="middle" x="138.8163" y="-574.6" font-family="Times,serif" font-size="14.00" fill="#000000">membrane</text>
</g>
<!-- GO:0016021&#45;&gt;GO:0031224 -->
<g id="edge14" class="edge">
<title>GO:0016021&#45;&gt;GO:0031224</title>
<path fill="none" stroke="#000000" d="M91.2701,-530.5513C97.6307,-539.2534 104.6852,-548.9047 111.3705,-558.0509"/>
<polygon fill="#000000" stroke="#000000" points="108.649,-560.2589 117.3758,-566.2669 114.3004,-556.1282 108.649,-560.2589"/>
</g>
<!-- GO:0031226&#45;&gt;GO:0044459 -->
<g id="edge15" class="edge">
<title>GO:0031226&#45;&gt;GO:0044459</title>
<path fill="none" stroke="#000000" d="M292.5852,-530.4223C320.7019,-543.3068 353.4039,-558.2926 380.3568,-570.6438"/>
<polygon fill="#000000" stroke="#000000" points="379.0846,-573.9108 389.6336,-574.8949 382.0008,-567.5471 379.0846,-573.9108"/>
</g>
<!-- GO:0031226&#45;&gt;GO:0031224 -->
<g id="edge16" class="edge">
<title>GO:0031226&#45;&gt;GO:0031224</title>
<path fill="none" stroke="#000000" d="M200.8331,-530.5513C192.2826,-539.5198 182.7709,-549.4965 173.8158,-558.8894"/>
<polygon fill="#000000" stroke="#000000" points="171.1494,-556.614 166.7822,-566.2669 176.2158,-561.4442 171.1494,-556.614"/>
</g>
<!-- GO:0031224&#45;&gt;GO:0044425 -->
<g id="edge17" class="edge">
<title>GO:0031224&#45;&gt;GO:0044425</title>
<path fill="none" stroke="#000000" d="M210.2805,-623.2843C239.5337,-634.6167 273.0012,-647.5815 300.9398,-658.4046"/>
<polygon fill="#000000" stroke="#000000" points="299.9863,-661.7886 310.5754,-662.1373 302.515,-655.2613 299.9863,-661.7886"/>
</g>
<!-- GO:0043227 -->
<g id="node14" class="node">
<title>GO:0043227</title>
<polygon fill="#00ff00" stroke="#000000" points="609.7771,-530.6014 481.8555,-530.6014 481.8555,-471.7986 609.7771,-471.7986 609.7771,-530.6014"/>
<text text-anchor="middle" x="545.8163" y="-513.8" font-family="Times,serif" font-size="14.00" fill="#000000">GO:0043227</text>
<text text-anchor="middle" x="545.8163" y="-497" font-family="Times,serif" font-size="14.00" fill="#000000">membrane&#45;bounded</text>
<text text-anchor="middle" x="545.8163" y="-480.2" font-family="Times,serif" font-size="14.00" fill="#000000">organelle</text>
</g>
<!-- GO:0043227&#45;&gt;GO:0043226 -->
<g id="edge18" class="edge">
<title>GO:0043227&#45;&gt;GO:0043226</title>
<path fill="none" stroke="#000000" d="M552.9676,-530.5513C555.6532,-541.5739 558.7098,-554.1196 561.4175,-565.2326"/>
<polygon fill="#000000" stroke="#000000" points="558.0175,-566.0637 563.7853,-574.951 564.8185,-564.4067 558.0175,-566.0637"/>
</g>
<!-- GO:0005634 -->
<g id="node15" class="node">
<title>GO:0005634</title>
<polygon fill="#00ffff" stroke="#000000" points="666.4202,-324.6019 577.2124,-324.6019 577.2124,-283.3981 666.4202,-283.3981 666.4202,-324.6019"/>
<text text-anchor="middle" x="621.8163" y="-308.2" font-family="Times,serif" font-size="14.00" fill="#000000">GO:0005634</text>
<text text-anchor="middle" x="621.8163" y="-291.4" font-family="Times,serif" font-size="14.00" fill="#000000">nucleus</text>
</g>
<!-- GO:0043231 -->
<g id="node16" class="node">
<title>GO:0043231</title>
<polygon fill="#00ff00" stroke="#000000" points="697.1951,-436.2014 546.4375,-436.2014 546.4375,-377.3986 697.1951,-377.3986 697.1951,-436.2014"/>
<text text-anchor="middle" x="621.8163" y="-419.4" font-family="Times,serif" font-size="14.00" fill="#000000">GO:0043231</text>
<text text-anchor="middle" x="621.8163" y="-402.6" font-family="Times,serif" font-size="14.00" fill="#000000">intracellular membrane&#45;</text>
<text text-anchor="middle" x="621.8163" y="-385.8" font-family="Times,serif" font-size="14.00" fill="#000000">bounded organelle</text>
</g>
<!-- GO:0005634&#45;&gt;GO:0043231 -->
<g id="edge19" class="edge">
<title>GO:0005634&#45;&gt;GO:0043231</title>
<path fill="none" stroke="#000000" d="M621.8163,-324.8031C621.8163,-336.9833 621.8163,-352.7676 621.8163,-367.2305"/>
<polygon fill="#000000" stroke="#000000" points="618.3164,-367.4577 621.8163,-377.4577 625.3164,-367.4578 618.3164,-367.4577"/>
</g>
<!-- GO:0043231&#45;&gt;GO:0043229 -->
<g id="edge20" class="edge">
<title>GO:0043231&#45;&gt;GO:0043229</title>
<path fill="none" stroke="#000000" d="M645.4466,-436.1513C654.7735,-447.7363 665.4549,-461.0037 674.7281,-472.522"/>
<polygon fill="#000000" stroke="#000000" points="672.1947,-474.9565 681.1921,-480.551 677.6473,-470.5667 672.1947,-474.9565"/>
</g>
<!-- GO:0043231&#45;&gt;GO:0043227 -->
<g id="edge21" class="edge">
<title>GO:0043231&#45;&gt;GO:0043227</title>
<path fill="none" stroke="#000000" d="M598.186,-436.1513C591.1086,-444.9422 583.2513,-454.7018 575.8212,-463.9308"/>
<polygon fill="#000000" stroke="#000000" points="572.9768,-461.8826 569.432,-471.8669 578.4293,-466.2724 572.9768,-461.8826"/>
</g>
<!-- GO:0016020 -->
<g id="node17" class="node">
<title>GO:0016020</title>
<polygon fill="#ffff00" stroke="#000000" points="950.4202,-702.2019 861.2124,-702.2019 861.2124,-660.9981 950.4202,-660.9981 950.4202,-702.2019"/>
<text text-anchor="middle" x="905.8163" y="-685.8" font-family="Times,serif" font-size="14.00" fill="#000000">GO:0016020</text>
<text text-anchor="middle" x="905.8163" y="-669" font-family="Times,serif" font-size="14.00" fill="#000000">membrane</text>
</g>
<!-- GO:0016020&#45;&gt;GO:0005575 -->
<g id="edge22" class="edge">
<title>GO:0016020&#45;&gt;GO:0005575</title>
<path fill="none" stroke="#000000" d="M861.1951,-698.2471C832.5277,-708.9423 794.8081,-723.0146 762.8354,-734.9429"/>
<polygon fill="#000000" stroke="#000000" points="761.2595,-731.7951 753.1137,-738.5698 763.7064,-738.3535 761.2595,-731.7951"/>
</g>
<!-- GO:0044451 -->
<g id="node18" class="node">
<title>GO:0044451</title>
<polygon fill="#00ffff" stroke="#000000" points="931.8423,-324.6019 819.7903,-324.6019 819.7903,-283.3981 931.8423,-283.3981 931.8423,-324.6019"/>
<text text-anchor="middle" x="875.8163" y="-308.2" font-family="Times,serif" font-size="14.00" fill="#000000">GO:0044451</text>
<text text-anchor="middle" x="875.8163" y="-291.4" font-family="Times,serif" font-size="14.00" fill="#000000">nucleoplasm part</text>
</g>
<!-- GO:0044428 -->
<g id="node19" class="node">
<title>GO:0044428</title>
<polygon fill="#00ff00" stroke="#000000" points="899.4202,-427.4019 810.2124,-427.4019 810.2124,-386.1981 899.4202,-386.1981 899.4202,-427.4019"/>
<text text-anchor="middle" x="854.8163" y="-411" font-family="Times,serif" font-size="14.00" fill="#000000">GO:0044428</text>
<text text-anchor="middle" x="854.8163" y="-394.2" font-family="Times,serif" font-size="14.00" fill="#000000">nuclear part</text>
</g>
<!-- GO:0044451&#45;&gt;GO:0044428 -->
<g id="edge23" class="edge">
<title>GO:0044451&#45;&gt;GO:0044428</title>
<path fill="none" stroke="#000000" d="M871.5666,-324.8031C868.5494,-339.573 864.4497,-359.6424 861.0614,-376.229"/>
<polygon fill="#000000" stroke="#000000" points="857.632,-375.5296 859.0596,-386.0278 864.4904,-376.9307 857.632,-375.5296"/>
</g>
<!-- GO:0044446 -->
<g id="node20" class="node">
<title>GO:0044446</title>
<polygon fill="#ffff00" stroke="#000000" points="924.5347,-530.6014 785.0979,-530.6014 785.0979,-471.7986 924.5347,-471.7986 924.5347,-530.6014"/>
<text text-anchor="middle" x="854.8163" y="-513.8" font-family="Times,serif" font-size="14.00" fill="#000000">GO:0044446</text>
<text text-anchor="middle" x="854.8163" y="-497" font-family="Times,serif" font-size="14.00" fill="#000000">intracellular organelle</text>
<text text-anchor="middle" x="854.8163" y="-480.2" font-family="Times,serif" font-size="14.00" fill="#000000">part</text>
</g>
<!-- GO:0044428&#45;&gt;GO:0044446 -->
<g id="edge24" class="edge">
<title>GO:0044428&#45;&gt;GO:0044446</title>
<path fill="none" stroke="#000000" d="M854.8163,-427.7504C854.8163,-437.7492 854.8163,-450.0525 854.8163,-461.7106"/>
<polygon fill="#000000" stroke="#000000" points="851.3164,-461.7155 854.8163,-471.7155 858.3164,-461.7156 851.3164,-461.7155"/>
</g>
<!-- GO:0044446&#45;&gt;GO:0044424 -->
<g id="edge25" class="edge">
<title>GO:0044446&#45;&gt;GO:0044424</title>
<path fill="none" stroke="#000000" d="M847.665,-530.5513C844.9794,-541.5739 841.9228,-554.1196 839.2151,-565.2326"/>
<polygon fill="#000000" stroke="#000000" points="835.8141,-564.4067 836.8473,-574.951 842.6151,-566.0637 835.8141,-564.4067"/>
</g>
<!-- GO:0044422 -->
<g id="node21" class="node">
<title>GO:0044422</title>
<polygon fill="#ffffff" stroke="#000000" points="690.6684,-702.2019 596.9642,-702.2019 596.9642,-660.9981 690.6684,-660.9981 690.6684,-702.2019"/>
<text text-anchor="middle" x="643.8163" y="-685.8" font-family="Times,serif" font-size="14.00" fill="#000000">GO:0044422</text>
<text text-anchor="middle" x="643.8163" y="-669" font-family="Times,serif" font-size="14.00" fill="#000000">organelle part</text>
</g>
<!-- GO:0044446&#45;&gt;GO:0044422 -->
<g id="edge26" class="edge">
<title>GO:0044446&#45;&gt;GO:0044422</title>
<path fill="none" stroke="#000000" d="M785.1464,-527.507C782.3374,-528.4962 779.5526,-529.4641 776.8163,-530.4 725.7401,-547.87 695.9291,-525.3992 660.8163,-566.4 641.1404,-589.3753 638.6572,-624.847 639.9908,-650.359"/>
<polygon fill="#000000" stroke="#000000" points="636.5218,-650.9059 640.7571,-660.6174 643.5024,-650.3844 636.5218,-650.9059"/>
</g>
<!-- GO:0044422&#45;&gt;GO:0005575 -->
<g id="edge27" class="edge">
<title>GO:0044422&#45;&gt;GO:0005575</title>
<path fill="none" stroke="#000000" d="M658.2873,-702.3954C664.1587,-710.8328 671.0457,-720.7297 677.4117,-729.8778"/>
<polygon fill="#000000" stroke="#000000" points="674.7205,-732.1382 683.3053,-738.3472 680.4663,-728.1398 674.7205,-732.1382"/>
</g>
<!-- GO:0055029 -->
<g id="node22" class="node">
<title>GO:0055029</title>
<polygon fill="#00ffff" stroke="#000000" points="925.6272,-58.6014 752.0054,-58.6014 752.0054,.2014 925.6272,.2014 925.6272,-58.6014"/>
<text text-anchor="middle" x="838.8163" y="-41.8" font-family="Times,serif" font-size="14.00" fill="#000000">GO:0055029</text>
<text text-anchor="middle" x="838.8163" y="-25" font-family="Times,serif" font-size="14.00" fill="#000000">nuclear DNA&#45;directed RNA</text>
<text text-anchor="middle" x="838.8163" y="-8.2" font-family="Times,serif" font-size="14.00" fill="#000000">polymerase complex</text>
</g>
<!-- GO:0055029&#45;&gt;GO:0044428 -->
<g id="edge28" class="edge">
<title>GO:0055029&#45;&gt;GO:0044428</title>
<path fill="none" stroke="#000000" d="M828.8436,-58.8255C811.4387,-115.2305 780.1574,-241.3608 810.8163,-341.6 814.7873,-354.5832 822.3104,-367.3159 830.0275,-378.0345"/>
<polygon fill="#000000" stroke="#000000" points="827.3624,-380.3125 836.194,-386.1651 832.9398,-376.0824 827.3624,-380.3125"/>
</g>
<!-- GO:0000428 -->
<g id="node23" class="node">
<title>GO:0000428</title>
<polygon fill="#ffa500" stroke="#000000" points="989.0571,-153.0014 856.5755,-153.0014 856.5755,-94.1986 989.0571,-94.1986 989.0571,-153.0014"/>
<text text-anchor="middle" x="922.8163" y="-136.2" font-family="Times,serif" font-size="14.00" fill="#000000">GO:0000428</text>
<text text-anchor="middle" x="922.8163" y="-119.4" font-family="Times,serif" font-size="14.00" fill="#000000">DNA&#45;directed RNA</text>
<text text-anchor="middle" x="922.8163" y="-102.6" font-family="Times,serif" font-size="14.00" fill="#000000">polymerase complex</text>
</g>
<!-- GO:0055029&#45;&gt;GO:0000428 -->
<g id="edge29" class="edge">
<title>GO:0055029&#45;&gt;GO:0000428</title>
<path fill="none" stroke="#000000" d="M864.934,-58.5513C872.8354,-67.431 881.6163,-77.299 889.9017,-86.6103"/>
<polygon fill="#000000" stroke="#000000" points="887.4525,-89.1229 896.7148,-94.2669 892.6819,-84.4696 887.4525,-89.1229"/>
</g>
<!-- GO:0030880 -->
<g id="node24" class="node">
<title>GO:0030880</title>
<polygon fill="#ffffff" stroke="#000000" points="1042.607,-230.2019 877.0256,-230.2019 877.0256,-188.9981 1042.607,-188.9981 1042.607,-230.2019"/>
<text text-anchor="middle" x="959.8163" y="-213.8" font-family="Times,serif" font-size="14.00" fill="#000000">GO:0030880</text>
<text text-anchor="middle" x="959.8163" y="-197" font-family="Times,serif" font-size="14.00" fill="#000000">RNA polymerase complex</text>
</g>
<!-- GO:0000428&#45;&gt;GO:0030880 -->
<g id="edge30" class="edge">
<title>GO:0000428&#45;&gt;GO:0030880</title>
<path fill="none" stroke="#000000" d="M935.5496,-153.1963C939.2251,-161.7393 943.238,-171.0667 946.9231,-179.6321"/>
<polygon fill="#000000" stroke="#000000" points="943.7418,-181.0939 950.909,-188.8966 950.1719,-178.3274 943.7418,-181.0939"/>
</g>
<!-- GO:0030880&#45;&gt;GO:0044424 -->
<g id="edge31" class="edge">
<title>GO:0030880&#45;&gt;GO:0044424</title>
<path fill="none" stroke="#000000" d="M964.0174,-230.2437C973.8254,-284.143 993.1404,-431.7582 933.8163,-530.4 927.1943,-541.4108 903.63,-556.777 880.8177,-569.8263"/>
<polygon fill="#000000" stroke="#000000" points="878.8181,-566.9352 871.8143,-574.8849 882.2469,-573.0379 878.8181,-566.9352"/>
</g>
<!-- GO:0061695 -->
<g id="node25" class="node">
<title>GO:0061695</title>
<polygon fill="#ffa500" stroke="#000000" points="1144.8241,-341.7003 990.8085,-341.7003 990.8085,-266.2997 1144.8241,-266.2997 1144.8241,-341.7003"/>
<text text-anchor="middle" x="1067.8163" y="-325" font-family="Times,serif" font-size="14.00" fill="#000000">GO:0061695</text>
<text text-anchor="middle" x="1067.8163" y="-308.2" font-family="Times,serif" font-size="14.00" fill="#000000">transferase complex,</text>
<text text-anchor="middle" x="1067.8163" y="-291.4" font-family="Times,serif" font-size="14.00" fill="#000000">transferring phosphorus&#45;</text>
<text text-anchor="middle" x="1067.8163" y="-274.6" font-family="Times,serif" font-size="14.00" fill="#000000">containing groups</text>
</g>
<!-- GO:0030880&#45;&gt;GO:0061695 -->
<g id="edge32" class="edge">
<title>GO:0030880&#45;&gt;GO:0061695</title>
<path fill="none" stroke="#000000" d="M983.5174,-230.3165C993.3989,-238.9536 1005.2817,-249.3401 1016.9672,-259.5541"/>
<polygon fill="#000000" stroke="#000000" points="1014.762,-262.2752 1024.5946,-266.2211 1019.3688,-257.0047 1014.762,-262.2752"/>
</g>
<!-- GO:1990234 -->
<g id="node26" class="node">
<title>GO:1990234</title>
<polygon fill="#ffffff" stroke="#000000" points="1145.1471,-427.4019 1016.4855,-427.4019 1016.4855,-386.1981 1145.1471,-386.1981 1145.1471,-427.4019"/>
<text text-anchor="middle" x="1080.8163" y="-411" font-family="Times,serif" font-size="14.00" fill="#000000">GO:1990234</text>
<text text-anchor="middle" x="1080.8163" y="-394.2" font-family="Times,serif" font-size="14.00" fill="#000000">transferase complex</text>
</g>
<!-- GO:0061695&#45;&gt;GO:1990234 -->
<g id="edge33" class="edge">
<title>GO:0061695&#45;&gt;GO:1990234</title>
<path fill="none" stroke="#000000" d="M1072.5832,-341.6952C1074.0071,-352.9552 1075.5508,-365.1618 1076.9125,-375.9299"/>
<polygon fill="#000000" stroke="#000000" points="1073.4754,-376.6483 1078.2024,-386.1302 1080.4201,-375.7701 1073.4754,-376.6483"/>
</g>
<!-- GO:1902494 -->
<g id="node27" class="node">
<title>GO:1902494</title>
<polygon fill="#ffffff" stroke="#000000" points="1145.4476,-521.8019 1030.185,-521.8019 1030.185,-480.5981 1145.4476,-480.5981 1145.4476,-521.8019"/>
<text text-anchor="middle" x="1087.8163" y="-505.4" font-family="Times,serif" font-size="14.00" fill="#000000">GO:1902494</text>
<text text-anchor="middle" x="1087.8163" y="-488.6" font-family="Times,serif" font-size="14.00" fill="#000000">catalytic complex</text>
</g>
<!-- GO:1990234&#45;&gt;GO:1902494 -->
<g id="edge34" class="edge">
<title>GO:1990234&#45;&gt;GO:1902494</title>
<path fill="none" stroke="#000000" d="M1082.3698,-427.7504C1083.2942,-440.2165 1084.4842,-456.2645 1085.516,-470.1786"/>
<polygon fill="#000000" stroke="#000000" points="1082.0371,-470.5944 1086.2671,-480.3081 1089.0179,-470.0767 1082.0371,-470.5944"/>
</g>
<!-- GO:0043234 -->
<g id="node28" class="node">
<title>GO:0043234</title>
<polygon fill="#ffa500" stroke="#000000" points="1148.6837,-616.2019 1040.9489,-616.2019 1040.9489,-574.9981 1148.6837,-574.9981 1148.6837,-616.2019"/>
<text text-anchor="middle" x="1094.8163" y="-599.8" font-family="Times,serif" font-size="14.00" fill="#000000">GO:0043234</text>
<text text-anchor="middle" x="1094.8163" y="-583" font-family="Times,serif" font-size="14.00" fill="#000000">protein complex</text>
</g>
<!-- GO:1902494&#45;&gt;GO:0043234 -->
<g id="edge35" class="edge">
<title>GO:1902494&#45;&gt;GO:0043234</title>
<path fill="none" stroke="#000000" d="M1089.3698,-522.1504C1090.2942,-534.6165 1091.4842,-550.6645 1092.516,-564.5786"/>
<polygon fill="#000000" stroke="#000000" points="1089.0371,-564.9944 1093.2671,-574.7081 1096.0179,-564.4767 1089.0371,-564.9944"/>
</g>
<!-- GO:0032991 -->
<g id="node29" class="node">
<title>GO:0032991</title>
<polygon fill="#ffffff" stroke="#000000" points="1149.9836,-702.2019 991.649,-702.2019 991.649,-660.9981 1149.9836,-660.9981 1149.9836,-702.2019"/>
<text text-anchor="middle" x="1070.8163" y="-685.8" font-family="Times,serif" font-size="14.00" fill="#000000">GO:0032991</text>
<text text-anchor="middle" x="1070.8163" y="-669" font-family="Times,serif" font-size="14.00" fill="#000000">macromolecular complex</text>
</g>
<!-- GO:0043234&#45;&gt;GO:0032991 -->
<g id="edge36" class="edge">
<title>GO:0043234&#45;&gt;GO:0032991</title>
<path fill="none" stroke="#000000" d="M1089.0066,-616.4182C1086.0881,-626.8761 1082.4969,-639.7446 1079.2785,-651.277"/>
<polygon fill="#000000" stroke="#000000" points="1075.8894,-650.4007 1076.5725,-660.9735 1082.6318,-652.2824 1075.8894,-650.4007"/>
</g>
<!-- GO:0032991&#45;&gt;GO:0005575 -->
<g id="edge37" class="edge">
<title>GO:0032991&#45;&gt;GO:0005575</title>
<path fill="none" stroke="#000000" d="M991.2559,-698.152C926.1649,-711.6937 834.8248,-730.6964 771.4104,-743.8893"/>
<polygon fill="#000000" stroke="#000000" points="770.5583,-740.4915 761.4808,-745.9551 771.9841,-747.3448 770.5583,-740.4915"/>
</g>
<!-- GO:0009986 -->
<g id="node30" class="node">
<title>GO:0009986</title>
<polygon fill="#00ffff" stroke="#000000" points="759.4202,-616.2019 670.2124,-616.2019 670.2124,-574.9981 759.4202,-574.9981 759.4202,-616.2019"/>
<text text-anchor="middle" x="714.8163" y="-599.8" font-family="Times,serif" font-size="14.00" fill="#000000">GO:0009986</text>
<text text-anchor="middle" x="714.8163" y="-583" font-family="Times,serif" font-size="14.00" fill="#000000">cell surface</text>
</g>
<!-- GO:0009986&#45;&gt;GO:0044464 -->
<g id="edge38" class="edge">
<title>GO:0009986&#45;&gt;GO:0044464</title>
<path fill="none" stroke="#000000" d="M724.015,-616.4182C728.6827,-626.9818 734.437,-640.0048 739.572,-651.6261"/>
<polygon fill="#000000" stroke="#000000" points="736.4592,-653.2412 743.7023,-660.9735 742.862,-650.412 736.4592,-653.2412"/>
</g>
<!-- GO:0005886 -->
<g id="node31" class="node">
<title>GO:0005886</title>
<polygon fill="#00ff00" stroke="#000000" points="1023.0571,-616.2019 904.5755,-616.2019 904.5755,-574.9981 1023.0571,-574.9981 1023.0571,-616.2019"/>
<text text-anchor="middle" x="963.8163" y="-599.8" font-family="Times,serif" font-size="14.00" fill="#000000">GO:0005886</text>
<text text-anchor="middle" x="963.8163" y="-583" font-family="Times,serif" font-size="14.00" fill="#000000">plasma membrane</text>
</g>
<!-- GO:0005886&#45;&gt;GO:0044464 -->
<g id="edge40" class="edge">
<title>GO:0005886&#45;&gt;GO:0044464</title>
<path fill="none" stroke="#000000" d="M915.2379,-616.3003C908.3902,-619.1766 901.4322,-622.0773 894.8163,-624.8 865.9502,-636.6797 833.6499,-649.627 807.1571,-660.1561"/>
<polygon fill="#000000" stroke="#000000" points="805.6798,-656.9768 797.6765,-663.9193 808.2624,-663.483 805.6798,-656.9768"/>
</g>
<!-- GO:0005886&#45;&gt;GO:0016020 -->
<g id="edge39" class="edge">
<title>GO:0005886&#45;&gt;GO:0016020</title>
<path fill="none" stroke="#000000" d="M949.7761,-616.4182C942.4381,-627.2987 933.3404,-640.7884 925.3285,-652.6681"/>
<polygon fill="#000000" stroke="#000000" points="922.4169,-650.7258 919.7272,-660.9735 928.2204,-654.6398 922.4169,-650.7258"/>
</g>
</g>
</svg>
