<?xml version="1.0" encoding="UTF-8" standalone="no"?>
<!DOCTYPE svg PUBLIC "-//W3C//DTD SVG 1.1//EN"
 "http://www.w3.org/Graphics/SVG/1.1/DTD/svg11.dtd">
<!-- Generated by graphviz version 2.40.1 (20161225.0304)
 -->
<!-- Title: G Pages: 1 -->
<svg width="338pt" height="299pt"
 viewBox="0.00 0.00 337.96 299.20" xmlns="http://www.w3.org/2000/svg" xmlns:xlink="http://www.w3.org/1999/xlink">
<g id="graph0" class="graph" transform="scale(1 1) rotate(0) translate(4 295.2)">
<title>G</title>
<polygon fill="#ffffff" stroke="transparent" points="-4,4 -4,-295.2 333.9615,-295.2 333.9615,4 -4,4"/>
<!-- GO:0003824 -->
<g id="node1" class="node">
<title>GO:0003824</title>
<polygon fill="#00ffff" stroke="#000000" points="108.8686,-213.4019 .0438,-213.4019 .0438,-172.1981 108.8686,-172.1981 108.8686,-213.4019"/>
<text text-anchor="middle" x="54.4562" y="-197" font-family="Times,serif" font-size="14.00" fill="#000000">GO:0003824</text>
<text text-anchor="middle" x="54.4562" y="-180.2" font-family="Times,serif" font-size="14.00" fill="#000000">catalytic activity</text>
</g>
<!-- GO:0003674 -->
<g id="node2" class="node">
<title>GO:0003674</title>
<polygon fill="#ffffff" stroke="#000000" points="175.0893,-291.0019 49.8231,-291.0019 49.8231,-249.7981 175.0893,-249.7981 175.0893,-291.0019"/>
<text text-anchor="middle" x="112.4562" y="-274.6" font-family="Times,serif" font-size="14.00" fill="#000000">GO:0003674</text>
<text text-anchor="middle" x="112.4562" y="-257.8" font-family="Times,serif" font-size="14.00" fill="#000000">molecular_function</text>
</g>
<!-- GO:0003824&#45;&gt;GO:0003674 -->
<g id="edge1" class="edge">
<title>GO:0003824&#45;&gt;GO:0003674</title>
<path fill="none" stroke="#000000" d="M69.9991,-213.5954C76.3704,-222.1197 83.8553,-232.1339 90.7514,-241.3605"/>
<polygon fill="#000000" stroke="#000000" points="88.0801,-243.6327 96.8704,-249.5472 93.687,-239.4419 88.0801,-243.6327"/>
</g>
<!-- GO:0003676 -->
<g id="node3" class="node">
<title>GO:0003676</title>
<polygon fill="#00ffff" stroke="#000000" points="235.9831,-41.4019 106.9293,-41.4019 106.9293,-.1981 235.9831,-.1981 235.9831,-41.4019"/>
<text text-anchor="middle" x="171.4562" y="-25" font-family="Times,serif" font-size="14.00" fill="#000000">GO:0003676</text>
<text text-anchor="middle" x="171.4562" y="-8.2" font-family="Times,serif" font-size="14.00" fill="#000000">nucleic acid binding</text>
</g>
<!-- GO:0097159 -->
<g id="node4" class="node">
<title>GO:0097159</title>
<polygon fill="#ffffff" stroke="#000000" points="164.9676,-136.2014 7.9448,-136.2014 7.9448,-77.3986 164.9676,-77.3986 164.9676,-136.2014"/>
<text text-anchor="middle" x="86.4562" y="-119.4" font-family="Times,serif" font-size="14.00" fill="#000000">GO:0097159</text>
<text text-anchor="middle" x="86.4562" y="-102.6" font-family="Times,serif" font-size="14.00" fill="#000000">organic cyclic compound</text>
<text text-anchor="middle" x="86.4562" y="-85.8" font-family="Times,serif" font-size="14.00" fill="#000000">binding</text>
</g>
<!-- GO:0003676&#45;&gt;GO:0097159 -->
<g id="edge2" class="edge">
<title>GO:0003676&#45;&gt;GO:0097159</title>
<path fill="none" stroke="#000000" d="M150.8801,-41.6182C142.4231,-50.1747 132.3712,-60.3448 122.7526,-70.0766"/>
<polygon fill="#000000" stroke="#000000" points="120.0555,-67.8264 115.5152,-77.3991 125.0341,-72.7472 120.0555,-67.8264"/>
</g>
<!-- GO:1901363 -->
<g id="node5" class="node">
<title>GO:1901363</title>
<polygon fill="#ffffff" stroke="#000000" points="329.9668,-136.2014 182.9456,-136.2014 182.9456,-77.3986 329.9668,-77.3986 329.9668,-136.2014"/>
<text text-anchor="middle" x="256.4562" y="-119.4" font-family="Times,serif" font-size="14.00" fill="#000000">GO:1901363</text>
<text text-anchor="middle" x="256.4562" y="-102.6" font-family="Times,serif" font-size="14.00" fill="#000000">heterocyclic compound</text>
<text text-anchor="middle" x="256.4562" y="-85.8" font-family="Times,serif" font-size="14.00" fill="#000000">binding</text>
</g>
<!-- GO:0003676&#45;&gt;GO:1901363 -->
<g id="edge3" class="edge">
<title>GO:0003676&#45;&gt;GO:1901363</title>
<path fill="none" stroke="#000000" d="M192.0323,-41.6182C200.4893,-50.1747 210.5412,-60.3448 220.1598,-70.0766"/>
<polygon fill="#000000" stroke="#000000" points="217.8783,-72.7472 227.3972,-77.3991 222.8569,-67.8264 217.8783,-72.7472"/>
</g>
<!-- GO:0005488 -->
<g id="node6" class="node">
<title>GO:0005488</title>
<polygon fill="#ffffff" stroke="#000000" points="216.0601,-213.4019 126.8523,-213.4019 126.8523,-172.1981 216.0601,-172.1981 216.0601,-213.4019"/>
<text text-anchor="middle" x="171.4562" y="-197" font-family="Times,serif" font-size="14.00" fill="#000000">GO:0005488</text>
<text text-anchor="middle" x="171.4562" y="-180.2" font-family="Times,serif" font-size="14.00" fill="#000000">binding</text>
</g>
<!-- GO:0097159&#45;&gt;GO:0005488 -->
<g id="edge4" class="edge">
<title>GO:0097159&#45;&gt;GO:0005488</title>
<path fill="none" stroke="#000000" d="M115.7084,-136.3963C124.7876,-145.5824 134.7631,-155.6752 143.7349,-164.7526"/>
<polygon fill="#000000" stroke="#000000" points="141.4745,-167.4446 150.9935,-172.0966 146.4532,-162.5239 141.4745,-167.4446"/>
</g>
<!-- GO:1901363&#45;&gt;GO:0005488 -->
<g id="edge5" class="edge">
<title>GO:1901363&#45;&gt;GO:0005488</title>
<path fill="none" stroke="#000000" d="M227.204,-136.3963C218.1248,-145.5824 208.1493,-155.6752 199.1775,-164.7526"/>
<polygon fill="#000000" stroke="#000000" points="196.4592,-162.5239 191.9189,-172.0966 201.4379,-167.4446 196.4592,-162.5239"/>
</g>
<!-- GO:0005488&#45;&gt;GO:0003674 -->
<g id="edge6" class="edge">
<title>GO:0005488&#45;&gt;GO:0003674</title>
<path fill="none" stroke="#000000" d="M155.6453,-213.5954C149.1641,-222.1197 141.5503,-232.1339 134.5352,-241.3605"/>
<polygon fill="#000000" stroke="#000000" points="131.577,-239.4684 128.3108,-249.5472 137.1494,-243.7051 131.577,-239.4684"/>
</g>
</g>
</svg>
