<?xml version="1.0" encoding="UTF-8" standalone="no"?>
<!DOCTYPE svg PUBLIC "-//W3C//DTD SVG 1.1//EN"
 "http://www.w3.org/Graphics/SVG/1.1/DTD/svg11.dtd">
<!-- Generated by graphviz version 2.40.1 (20161225.0304)
 -->
<!-- Title: G Pages: 1 -->
<svg width="136pt" height="438pt"
 viewBox="0.00 0.00 135.99 437.60" xmlns="http://www.w3.org/2000/svg" xmlns:xlink="http://www.w3.org/1999/xlink">
<g id="graph0" class="graph" transform="scale(1 1) rotate(0) translate(4 433.6)">
<title>G</title>
<polygon fill="#ffffff" stroke="transparent" points="-4,4 -4,-433.6 131.9874,-433.6 131.9874,4 -4,4"/>
<!-- GO:0043167 -->
<g id="node1" class="node">
<title>GO:0043167</title>
<polygon fill="#ffa500" stroke="#000000" points="108.5976,-274.2019 19.3898,-274.2019 19.3898,-232.9981 108.5976,-232.9981 108.5976,-274.2019"/>
<text text-anchor="middle" x="63.9937" y="-257.8" font-family="Times,serif" font-size="14.00" fill="#000000">GO:0043167</text>
<text text-anchor="middle" x="63.9937" y="-241" font-family="Times,serif" font-size="14.00" fill="#000000">ion binding</text>
</g>
<!-- GO:0005488 -->
<g id="node2" class="node">
<title>GO:0005488</title>
<polygon fill="#ffffff" stroke="#000000" points="108.5976,-351.8019 19.3898,-351.8019 19.3898,-310.5981 108.5976,-310.5981 108.5976,-351.8019"/>
<text text-anchor="middle" x="63.9937" y="-335.4" font-family="Times,serif" font-size="14.00" fill="#000000">GO:0005488</text>
<text text-anchor="middle" x="63.9937" y="-318.6" font-family="Times,serif" font-size="14.00" fill="#000000">binding</text>
</g>
<!-- GO:0043167&#45;&gt;GO:0005488 -->
<g id="edge1" class="edge">
<title>GO:0043167&#45;&gt;GO:0005488</title>
<path fill="none" stroke="#000000" d="M63.9937,-274.3954C63.9937,-282.3109 63.9937,-291.5109 63.9937,-300.1722"/>
<polygon fill="#000000" stroke="#000000" points="60.4938,-300.3472 63.9937,-310.3472 67.4938,-300.3473 60.4938,-300.3472"/>
</g>
<!-- GO:0003674 -->
<g id="node3" class="node">
<title>GO:0003674</title>
<polygon fill="#ffffff" stroke="#000000" points="126.6268,-429.4019 1.3606,-429.4019 1.3606,-388.1981 126.6268,-388.1981 126.6268,-429.4019"/>
<text text-anchor="middle" x="63.9937" y="-413" font-family="Times,serif" font-size="14.00" fill="#000000">GO:0003674</text>
<text text-anchor="middle" x="63.9937" y="-396.2" font-family="Times,serif" font-size="14.00" fill="#000000">molecular_function</text>
</g>
<!-- GO:0005488&#45;&gt;GO:0003674 -->
<g id="edge2" class="edge">
<title>GO:0005488&#45;&gt;GO:0003674</title>
<path fill="none" stroke="#000000" d="M63.9937,-351.9954C63.9937,-359.9109 63.9937,-369.1109 63.9937,-377.7722"/>
<polygon fill="#000000" stroke="#000000" points="60.4938,-377.9472 63.9937,-387.9472 67.4938,-377.9473 60.4938,-377.9472"/>
</g>
<!-- GO:0005509 -->
<g id="node4" class="node">
<title>GO:0005509</title>
<polygon fill="#ffa500" stroke="#000000" points="127.9811,-41.4019 .0063,-41.4019 .0063,-.1981 127.9811,-.1981 127.9811,-41.4019"/>
<text text-anchor="middle" x="63.9937" y="-25" font-family="Times,serif" font-size="14.00" fill="#000000">GO:0005509</text>
<text text-anchor="middle" x="63.9937" y="-8.2" font-family="Times,serif" font-size="14.00" fill="#000000">calcium ion binding</text>
</g>
<!-- GO:0046872 -->
<g id="node5" class="node">
<title>GO:0046872</title>
<polygon fill="#ffa500" stroke="#000000" points="121.2667,-119.0019 6.7207,-119.0019 6.7207,-77.7981 121.2667,-77.7981 121.2667,-119.0019"/>
<text text-anchor="middle" x="63.9937" y="-102.6" font-family="Times,serif" font-size="14.00" fill="#000000">GO:0046872</text>
<text text-anchor="middle" x="63.9937" y="-85.8" font-family="Times,serif" font-size="14.00" fill="#000000">metal ion binding</text>
</g>
<!-- GO:0005509&#45;&gt;GO:0046872 -->
<g id="edge3" class="edge">
<title>GO:0005509&#45;&gt;GO:0046872</title>
<path fill="none" stroke="#000000" d="M63.9937,-41.5954C63.9937,-49.5109 63.9937,-58.7109 63.9937,-67.3722"/>
<polygon fill="#000000" stroke="#000000" points="60.4938,-67.5472 63.9937,-77.5472 67.4938,-67.5473 60.4938,-67.5472"/>
</g>
<!-- GO:0043169 -->
<g id="node6" class="node">
<title>GO:0043169</title>
<polygon fill="#ffffff" stroke="#000000" points="112.4866,-196.6019 15.5008,-196.6019 15.5008,-155.3981 112.4866,-155.3981 112.4866,-196.6019"/>
<text text-anchor="middle" x="63.9937" y="-180.2" font-family="Times,serif" font-size="14.00" fill="#000000">GO:0043169</text>
<text text-anchor="middle" x="63.9937" y="-163.4" font-family="Times,serif" font-size="14.00" fill="#000000">cation binding</text>
</g>
<!-- GO:0046872&#45;&gt;GO:0043169 -->
<g id="edge4" class="edge">
<title>GO:0046872&#45;&gt;GO:0043169</title>
<path fill="none" stroke="#000000" d="M63.9937,-119.1954C63.9937,-127.1109 63.9937,-136.3109 63.9937,-144.9722"/>
<polygon fill="#000000" stroke="#000000" points="60.4938,-145.1472 63.9937,-155.1472 67.4938,-145.1473 60.4938,-145.1472"/>
</g>
<!-- GO:0043169&#45;&gt;GO:0043167 -->
<g id="edge5" class="edge">
<title>GO:0043169&#45;&gt;GO:0043167</title>
<path fill="none" stroke="#000000" d="M63.9937,-196.7954C63.9937,-204.7109 63.9937,-213.9109 63.9937,-222.5722"/>
<polygon fill="#000000" stroke="#000000" points="60.4938,-222.7472 63.9937,-232.7472 67.4938,-222.7473 60.4938,-222.7472"/>
</g>
</g>
</svg>
