<?xml version="1.0" encoding="UTF-8" standalone="no"?>
<!DOCTYPE svg PUBLIC "-//W3C//DTD SVG 1.1//EN"
 "http://www.w3.org/Graphics/SVG/1.1/DTD/svg11.dtd">
<!-- Generated by graphviz version 2.40.1 (20161225.0304)
 -->
<!-- Title: G Pages: 1 -->
<svg width="416pt" height="127pt"
 viewBox="0.00 0.00 415.57 127.20" xmlns="http://www.w3.org/2000/svg" xmlns:xlink="http://www.w3.org/1999/xlink">
<g id="graph0" class="graph" transform="scale(1 1) rotate(0) translate(4 123.2)">
<title>G</title>
<polygon fill="#ffffff" stroke="transparent" points="-4,4 -4,-123.2 411.5681,-123.2 411.5681,4 -4,4"/>
<!-- GO:0009987 -->
<g id="node1" class="node">
<title>GO:0009987</title>
<polygon fill="#ffffff" stroke="#000000" points="103.6838,-41.4019 -.2286,-41.4019 -.2286,-.1981 103.6838,-.1981 103.6838,-41.4019"/>
<text text-anchor="middle" x="51.7276" y="-25" font-family="Times,serif" font-size="14.00" fill="#000000">GO:0009987</text>
<text text-anchor="middle" x="51.7276" y="-8.2" font-family="Times,serif" font-size="14.00" fill="#000000">cellular process</text>
</g>
<!-- GO:0008150 -->
<g id="node2" class="node">
<title>GO:0008150</title>
<polygon fill="#ffffff" stroke="#000000" points="240.1982,-119.0019 119.257,-119.0019 119.257,-77.7981 240.1982,-77.7981 240.1982,-119.0019"/>
<text text-anchor="middle" x="179.7276" y="-102.6" font-family="Times,serif" font-size="14.00" fill="#000000">GO:0008150</text>
<text text-anchor="middle" x="179.7276" y="-85.8" font-family="Times,serif" font-size="14.00" fill="#000000">biological_process</text>
</g>
<!-- GO:0009987&#45;&gt;GO:0008150 -->
<g id="edge1" class="edge">
<title>GO:0009987&#45;&gt;GO:0008150</title>
<path fill="none" stroke="#000000" d="M86.0293,-41.5954C101.5248,-50.9896 120.0049,-62.1931 136.4418,-72.158"/>
<polygon fill="#000000" stroke="#000000" points="134.9655,-75.3559 145.3313,-77.5472 138.5945,-69.37 134.9655,-75.3559"/>
</g>
<!-- GO:0008152 -->
<g id="node3" class="node">
<title>GO:0008152</title>
<polygon fill="#ffffff" stroke="#000000" points="237.9132,-41.4019 121.542,-41.4019 121.542,-.1981 237.9132,-.1981 237.9132,-41.4019"/>
<text text-anchor="middle" x="179.7276" y="-25" font-family="Times,serif" font-size="14.00" fill="#000000">GO:0008152</text>
<text text-anchor="middle" x="179.7276" y="-8.2" font-family="Times,serif" font-size="14.00" fill="#000000">metabolic process</text>
</g>
<!-- GO:0008152&#45;&gt;GO:0008150 -->
<g id="edge2" class="edge">
<title>GO:0008152&#45;&gt;GO:0008150</title>
<path fill="none" stroke="#000000" d="M179.7276,-41.5954C179.7276,-49.5109 179.7276,-58.7109 179.7276,-67.3722"/>
<polygon fill="#000000" stroke="#000000" points="176.2277,-67.5472 179.7276,-77.5472 183.2277,-67.5473 176.2277,-67.5472"/>
</g>
<!-- GO:0044699 -->
<g id="node4" class="node">
<title>GO:0044699</title>
<polygon fill="#ffffff" stroke="#000000" points="407.4089,-41.4019 256.0463,-41.4019 256.0463,-.1981 407.4089,-.1981 407.4089,-41.4019"/>
<text text-anchor="middle" x="331.7276" y="-25" font-family="Times,serif" font-size="14.00" fill="#000000">GO:0044699</text>
<text text-anchor="middle" x="331.7276" y="-8.2" font-family="Times,serif" font-size="14.00" fill="#000000">single&#45;organism process</text>
</g>
<!-- GO:0044699&#45;&gt;GO:0008150 -->
<g id="edge3" class="edge">
<title>GO:0044699&#45;&gt;GO:0008150</title>
<path fill="none" stroke="#000000" d="M290.9944,-41.5954C272.006,-51.2895 249.2436,-62.9102 229.2679,-73.1084"/>
<polygon fill="#000000" stroke="#000000" points="227.6245,-70.0176 220.3095,-77.6819 230.8074,-76.2521 227.6245,-70.0176"/>
</g>
</g>
</svg>
