<?xml version="1.0" encoding="UTF-8" standalone="no"?>
<!DOCTYPE svg PUBLIC "-//W3C//DTD SVG 1.1//EN"
 "http://www.w3.org/Graphics/SVG/1.1/DTD/svg11.dtd">
<!-- Generated by graphviz version 2.40.1 (20161225.0304)
 -->
<!-- Title: G Pages: 1 -->
<svg width="451pt" height="471pt"
 viewBox="0.00 0.00 450.59 471.20" xmlns="http://www.w3.org/2000/svg" xmlns:xlink="http://www.w3.org/1999/xlink">
<g id="graph0" class="graph" transform="scale(1 1) rotate(0) translate(4 467.2)">
<title>G</title>
<polygon fill="#ffffff" stroke="transparent" points="-4,4 -4,-467.2 446.5895,-467.2 446.5895,4 -4,4"/>
<!-- GO:0005654 -->
<g id="node1" class="node">
<title>GO:0005654</title>
<polygon fill="#ffa500" stroke="#000000" points="114.213,-41.4019 25.0052,-41.4019 25.0052,-.1981 114.213,-.1981 114.213,-41.4019"/>
<text text-anchor="middle" x="69.6091" y="-25" font-family="Times,serif" font-size="14.00" fill="#000000">GO:0005654</text>
<text text-anchor="middle" x="69.6091" y="-8.2" font-family="Times,serif" font-size="14.00" fill="#000000">nucleoplasm</text>
</g>
<!-- GO:0044428 -->
<g id="node2" class="node">
<title>GO:0044428</title>
<polygon fill="#ffffff" stroke="#000000" points="114.213,-127.4019 25.0052,-127.4019 25.0052,-86.1981 114.213,-86.1981 114.213,-127.4019"/>
<text text-anchor="middle" x="69.6091" y="-111" font-family="Times,serif" font-size="14.00" fill="#000000">GO:0044428</text>
<text text-anchor="middle" x="69.6091" y="-94.2" font-family="Times,serif" font-size="14.00" fill="#000000">nuclear part</text>
</g>
<!-- GO:0005654&#45;&gt;GO:0044428 -->
<g id="edge1" class="edge">
<title>GO:0005654&#45;&gt;GO:0044428</title>
<path fill="none" stroke="#000000" d="M69.6091,-41.6182C69.6091,-51.9705 69.6091,-64.6848 69.6091,-76.1271"/>
<polygon fill="#000000" stroke="#000000" points="66.1092,-76.1735 69.6091,-86.1735 73.1092,-76.1735 66.1092,-76.1735"/>
</g>
<!-- GO:0044446 -->
<g id="node3" class="node">
<title>GO:0044446</title>
<polygon fill="#ffa500" stroke="#000000" points="139.3275,-230.6014 -.1093,-230.6014 -.1093,-171.7986 139.3275,-171.7986 139.3275,-230.6014"/>
<text text-anchor="middle" x="69.6091" y="-213.8" font-family="Times,serif" font-size="14.00" fill="#000000">GO:0044446</text>
<text text-anchor="middle" x="69.6091" y="-197" font-family="Times,serif" font-size="14.00" fill="#000000">intracellular organelle</text>
<text text-anchor="middle" x="69.6091" y="-180.2" font-family="Times,serif" font-size="14.00" fill="#000000">part</text>
</g>
<!-- GO:0044428&#45;&gt;GO:0044446 -->
<g id="edge2" class="edge">
<title>GO:0044428&#45;&gt;GO:0044446</title>
<path fill="none" stroke="#000000" d="M69.6091,-127.7504C69.6091,-137.7492 69.6091,-150.0525 69.6091,-161.7106"/>
<polygon fill="#000000" stroke="#000000" points="66.1092,-161.7155 69.6091,-171.7155 73.1092,-161.7156 66.1092,-161.7155"/>
</g>
<!-- GO:0044424 -->
<g id="node4" class="node">
<title>GO:0044424</title>
<polygon fill="#ff0000" stroke="#000000" points="219.0075,-307.8019 110.2107,-307.8019 110.2107,-266.5981 219.0075,-266.5981 219.0075,-307.8019"/>
<text text-anchor="middle" x="164.6091" y="-291.4" font-family="Times,serif" font-size="14.00" fill="#000000">GO:0044424</text>
<text text-anchor="middle" x="164.6091" y="-274.6" font-family="Times,serif" font-size="14.00" fill="#000000">intracellular part</text>
</g>
<!-- GO:0044446&#45;&gt;GO:0044424 -->
<g id="edge3" class="edge">
<title>GO:0044446&#45;&gt;GO:0044424</title>
<path fill="none" stroke="#000000" d="M102.037,-230.5558C112.4026,-239.9394 123.8366,-250.2902 134.0636,-259.5483"/>
<polygon fill="#000000" stroke="#000000" points="131.8488,-262.2645 141.6113,-266.3809 136.5467,-257.075 131.8488,-262.2645"/>
</g>
<!-- GO:0044422 -->
<g id="node5" class="node">
<title>GO:0044422</title>
<polygon fill="#ffa500" stroke="#000000" points="116.4612,-385.4019 22.757,-385.4019 22.757,-344.1981 116.4612,-344.1981 116.4612,-385.4019"/>
<text text-anchor="middle" x="69.6091" y="-369" font-family="Times,serif" font-size="14.00" fill="#000000">GO:0044422</text>
<text text-anchor="middle" x="69.6091" y="-352.2" font-family="Times,serif" font-size="14.00" fill="#000000">organelle part</text>
</g>
<!-- GO:0044446&#45;&gt;GO:0044422 -->
<g id="edge4" class="edge">
<title>GO:0044446&#45;&gt;GO:0044422</title>
<path fill="none" stroke="#000000" d="M69.6091,-230.4484C69.6091,-259.5891 69.6091,-304.1603 69.6091,-333.8759"/>
<polygon fill="#000000" stroke="#000000" points="66.1092,-334.0955 69.6091,-344.0955 73.1092,-334.0955 66.1092,-334.0955"/>
</g>
<!-- GO:0044464 -->
<g id="node6" class="node">
<title>GO:0044464</title>
<polygon fill="#ffffff" stroke="#000000" points="223.213,-385.4019 134.0052,-385.4019 134.0052,-344.1981 223.213,-344.1981 223.213,-385.4019"/>
<text text-anchor="middle" x="178.6091" y="-369" font-family="Times,serif" font-size="14.00" fill="#000000">GO:0044464</text>
<text text-anchor="middle" x="178.6091" y="-352.2" font-family="Times,serif" font-size="14.00" fill="#000000">cell part</text>
</g>
<!-- GO:0044424&#45;&gt;GO:0044464 -->
<g id="edge5" class="edge">
<title>GO:0044424&#45;&gt;GO:0044464</title>
<path fill="none" stroke="#000000" d="M168.3608,-307.9954C169.8046,-315.9978 171.4852,-325.3133 173.0628,-334.0575"/>
<polygon fill="#000000" stroke="#000000" points="169.6271,-334.7275 174.847,-343.9472 176.5159,-333.4847 169.6271,-334.7275"/>
</g>
<!-- GO:0005575 -->
<g id="node7" class="node">
<title>GO:0005575</title>
<polygon fill="#ffffff" stroke="#000000" points="242.2958,-463.0019 114.9224,-463.0019 114.9224,-421.7981 242.2958,-421.7981 242.2958,-463.0019"/>
<text text-anchor="middle" x="178.6091" y="-446.6" font-family="Times,serif" font-size="14.00" fill="#000000">GO:0005575</text>
<text text-anchor="middle" x="178.6091" y="-429.8" font-family="Times,serif" font-size="14.00" fill="#000000">cellular_component</text>
</g>
<!-- GO:0044422&#45;&gt;GO:0005575 -->
<g id="edge6" class="edge">
<title>GO:0044422&#45;&gt;GO:0005575</title>
<path fill="none" stroke="#000000" d="M98.8191,-385.5954C111.7702,-394.8156 127.1695,-405.7788 140.9692,-415.6031"/>
<polygon fill="#000000" stroke="#000000" points="139.1421,-418.5988 149.3185,-421.5472 143.2019,-412.8963 139.1421,-418.5988"/>
</g>
<!-- GO:0044464&#45;&gt;GO:0005575 -->
<g id="edge14" class="edge">
<title>GO:0044464&#45;&gt;GO:0005575</title>
<path fill="none" stroke="#000000" d="M178.6091,-385.5954C178.6091,-393.5109 178.6091,-402.7109 178.6091,-411.3722"/>
<polygon fill="#000000" stroke="#000000" points="175.1092,-411.5472 178.6091,-421.5472 182.1092,-411.5473 175.1092,-411.5472"/>
</g>
<!-- GO:0043231 -->
<g id="node8" class="node">
<title>GO:0043231</title>
<polygon fill="#ffff00" stroke="#000000" points="377.9879,-136.2014 227.2303,-136.2014 227.2303,-77.3986 377.9879,-77.3986 377.9879,-136.2014"/>
<text text-anchor="middle" x="302.6091" y="-119.4" font-family="Times,serif" font-size="14.00" fill="#000000">GO:0043231</text>
<text text-anchor="middle" x="302.6091" y="-102.6" font-family="Times,serif" font-size="14.00" fill="#000000">intracellular membrane&#45;</text>
<text text-anchor="middle" x="302.6091" y="-85.8" font-family="Times,serif" font-size="14.00" fill="#000000">bounded organelle</text>
</g>
<!-- GO:0043229 -->
<g id="node9" class="node">
<title>GO:0043229</title>
<polygon fill="#ffffff" stroke="#000000" points="296.3275,-221.8019 156.8907,-221.8019 156.8907,-180.5981 296.3275,-180.5981 296.3275,-221.8019"/>
<text text-anchor="middle" x="226.6091" y="-205.4" font-family="Times,serif" font-size="14.00" fill="#000000">GO:0043229</text>
<text text-anchor="middle" x="226.6091" y="-188.6" font-family="Times,serif" font-size="14.00" fill="#000000">intracellular organelle</text>
</g>
<!-- GO:0043231&#45;&gt;GO:0043229 -->
<g id="edge7" class="edge">
<title>GO:0043231&#45;&gt;GO:0043229</title>
<path fill="none" stroke="#000000" d="M278.9788,-136.1513C269.6519,-147.7363 258.9705,-161.0037 249.6973,-172.522"/>
<polygon fill="#000000" stroke="#000000" points="246.7781,-170.5667 243.2333,-180.551 252.2307,-174.9565 246.7781,-170.5667"/>
</g>
<!-- GO:0043227 -->
<g id="node10" class="node">
<title>GO:0043227</title>
<polygon fill="#ffff00" stroke="#000000" points="442.5699,-230.6014 314.6483,-230.6014 314.6483,-171.7986 442.5699,-171.7986 442.5699,-230.6014"/>
<text text-anchor="middle" x="378.6091" y="-213.8" font-family="Times,serif" font-size="14.00" fill="#000000">GO:0043227</text>
<text text-anchor="middle" x="378.6091" y="-197" font-family="Times,serif" font-size="14.00" fill="#000000">membrane&#45;bounded</text>
<text text-anchor="middle" x="378.6091" y="-180.2" font-family="Times,serif" font-size="14.00" fill="#000000">organelle</text>
</g>
<!-- GO:0043231&#45;&gt;GO:0043227 -->
<g id="edge8" class="edge">
<title>GO:0043231&#45;&gt;GO:0043227</title>
<path fill="none" stroke="#000000" d="M326.2394,-136.1513C333.3168,-144.9422 341.1741,-154.7018 348.6042,-163.9308"/>
<polygon fill="#000000" stroke="#000000" points="345.9961,-166.2724 354.9934,-171.8669 351.4486,-161.8826 345.9961,-166.2724"/>
</g>
<!-- GO:0043229&#45;&gt;GO:0044424 -->
<g id="edge9" class="edge">
<title>GO:0043229&#45;&gt;GO:0044424</title>
<path fill="none" stroke="#000000" d="M211.6006,-222.0182C203.7566,-232.8987 194.0314,-246.3884 185.467,-258.2681"/>
<polygon fill="#000000" stroke="#000000" points="182.4883,-256.4149 179.4794,-266.5735 188.1665,-260.5086 182.4883,-256.4149"/>
</g>
<!-- GO:0043226 -->
<g id="node11" class="node">
<title>GO:0043226</title>
<polygon fill="#ffffff" stroke="#000000" points="326.213,-307.8019 237.0052,-307.8019 237.0052,-266.5981 326.213,-266.5981 326.213,-307.8019"/>
<text text-anchor="middle" x="281.6091" y="-291.4" font-family="Times,serif" font-size="14.00" fill="#000000">GO:0043226</text>
<text text-anchor="middle" x="281.6091" y="-274.6" font-family="Times,serif" font-size="14.00" fill="#000000">organelle</text>
</g>
<!-- GO:0043229&#45;&gt;GO:0043226 -->
<g id="edge10" class="edge">
<title>GO:0043229&#45;&gt;GO:0043226</title>
<path fill="none" stroke="#000000" d="M239.9231,-222.0182C246.8139,-232.793 255.3413,-246.1267 262.8846,-257.9216"/>
<polygon fill="#000000" stroke="#000000" points="260.0814,-260.0347 268.4177,-266.5735 265.9785,-256.2633 260.0814,-260.0347"/>
</g>
<!-- GO:0043227&#45;&gt;GO:0043226 -->
<g id="edge11" class="edge">
<title>GO:0043227&#45;&gt;GO:0043226</title>
<path fill="none" stroke="#000000" d="M345.4985,-230.5558C334.9146,-239.9394 323.24,-250.2902 312.7977,-259.5483"/>
<polygon fill="#000000" stroke="#000000" points="310.2518,-257.1279 305.0911,-266.3809 314.8956,-262.3658 310.2518,-257.1279"/>
</g>
<!-- GO:0043226&#45;&gt;GO:0005575 -->
<g id="edge12" class="edge">
<title>GO:0043226&#45;&gt;GO:0005575</title>
<path fill="none" stroke="#000000" d="M273.3341,-308.1717C264.7046,-328.8078 250.0189,-360.7474 232.6091,-385.6 225.6051,-395.5983 216.8778,-405.5649 208.4955,-414.2941"/>
<polygon fill="#000000" stroke="#000000" points="205.8026,-412.04 201.2699,-421.6163 210.7852,-416.9568 205.8026,-412.04"/>
</g>
<!-- GO:0005634 -->
<g id="node12" class="node">
<title>GO:0005634</title>
<polygon fill="#ffff00" stroke="#000000" points="347.213,-41.4019 258.0052,-41.4019 258.0052,-.1981 347.213,-.1981 347.213,-41.4019"/>
<text text-anchor="middle" x="302.6091" y="-25" font-family="Times,serif" font-size="14.00" fill="#000000">GO:0005634</text>
<text text-anchor="middle" x="302.6091" y="-8.2" font-family="Times,serif" font-size="14.00" fill="#000000">nucleus</text>
</g>
<!-- GO:0005634&#45;&gt;GO:0043231 -->
<g id="edge13" class="edge">
<title>GO:0005634&#45;&gt;GO:0043231</title>
<path fill="none" stroke="#000000" d="M302.6091,-41.6182C302.6091,-49.3358 302.6091,-58.3662 302.6091,-67.2036"/>
<polygon fill="#000000" stroke="#000000" points="299.1092,-67.3991 302.6091,-77.3991 306.1092,-67.3992 299.1092,-67.3991"/>
</g>
</g>
</svg>
