<?xml version="1.0" encoding="UTF-8" standalone="no"?>
<!DOCTYPE svg PUBLIC "-//W3C//DTD SVG 1.1//EN"
 "http://www.w3.org/Graphics/SVG/1.1/DTD/svg11.dtd">
<!-- Generated by graphviz version 2.40.1 (20161225.0304)
 -->
<!-- Title: G Pages: 1 -->
<svg width="1089pt" height="754pt"
 viewBox="0.00 0.00 1089.36 754.40" xmlns="http://www.w3.org/2000/svg" xmlns:xlink="http://www.w3.org/1999/xlink">
<g id="graph0" class="graph" transform="scale(1 1) rotate(0) translate(4 750.4)">
<title>G</title>
<polygon fill="#ffffff" stroke="transparent" points="-4,4 -4,-750.4 1085.364,-750.4 1085.364,4 -4,4"/>
<!-- GO:0035639 -->
<g id="node1" class="node">
<title>GO:0035639</title>
<polygon fill="#ffffff" stroke="#000000" points="831.8052,-136.2014 694.4312,-136.2014 694.4312,-77.3986 831.8052,-77.3986 831.8052,-136.2014"/>
<text text-anchor="middle" x="763.1182" y="-119.4" font-family="Times,serif" font-size="14.00" fill="#000000">GO:0035639</text>
<text text-anchor="middle" x="763.1182" y="-102.6" font-family="Times,serif" font-size="14.00" fill="#000000">purine ribonucleoside</text>
<text text-anchor="middle" x="763.1182" y="-85.8" font-family="Times,serif" font-size="14.00" fill="#000000">triphosphate binding</text>
</g>
<!-- GO:1901265 -->
<g id="node2" class="node">
<title>GO:1901265</title>
<polygon fill="#ffffff" stroke="#000000" points="773.2523,-497.0014 636.9841,-497.0014 636.9841,-438.1986 773.2523,-438.1986 773.2523,-497.0014"/>
<text text-anchor="middle" x="705.1182" y="-480.2" font-family="Times,serif" font-size="14.00" fill="#000000">GO:1901265</text>
<text text-anchor="middle" x="705.1182" y="-463.4" font-family="Times,serif" font-size="14.00" fill="#000000">nucleoside phosphate</text>
<text text-anchor="middle" x="705.1182" y="-446.6" font-family="Times,serif" font-size="14.00" fill="#000000">binding</text>
</g>
<!-- GO:0035639&#45;&gt;GO:1901265 -->
<g id="edge1" class="edge">
<title>GO:0035639&#45;&gt;GO:1901265</title>
<path fill="none" stroke="#000000" d="M770.4676,-136.2298C782.6281,-190.926 802.2135,-310.9864 766.1182,-402.4 762.0646,-412.6659 755.547,-422.2651 748.2495,-430.7742"/>
<polygon fill="#000000" stroke="#000000" points="745.5551,-428.5339 741.3769,-438.2701 750.7147,-433.2645 745.5551,-428.5339"/>
</g>
<!-- GO:0097159 -->
<g id="node3" class="node">
<title>GO:0097159</title>
<polygon fill="#ff00ff" stroke="#000000" points="817.6296,-591.4014 660.6068,-591.4014 660.6068,-532.5986 817.6296,-532.5986 817.6296,-591.4014"/>
<text text-anchor="middle" x="739.1182" y="-574.6" font-family="Times,serif" font-size="14.00" fill="#000000">GO:0097159</text>
<text text-anchor="middle" x="739.1182" y="-557.8" font-family="Times,serif" font-size="14.00" fill="#000000">organic cyclic compound</text>
<text text-anchor="middle" x="739.1182" y="-541" font-family="Times,serif" font-size="14.00" fill="#000000">binding</text>
</g>
<!-- GO:1901265&#45;&gt;GO:0097159 -->
<g id="edge2" class="edge">
<title>GO:1901265&#45;&gt;GO:0097159</title>
<path fill="none" stroke="#000000" d="M715.6896,-496.9513C718.664,-505.2094 721.9462,-514.3223 725.0886,-523.0473"/>
<polygon fill="#000000" stroke="#000000" points="721.8717,-524.4445 728.5533,-532.6669 728.4576,-522.0725 721.8717,-524.4445"/>
</g>
<!-- GO:1901363 -->
<g id="node4" class="node">
<title>GO:1901363</title>
<polygon fill="#ff00ff" stroke="#000000" points="642.6288,-591.4014 495.6076,-591.4014 495.6076,-532.5986 642.6288,-532.5986 642.6288,-591.4014"/>
<text text-anchor="middle" x="569.1182" y="-574.6" font-family="Times,serif" font-size="14.00" fill="#000000">GO:1901363</text>
<text text-anchor="middle" x="569.1182" y="-557.8" font-family="Times,serif" font-size="14.00" fill="#000000">heterocyclic compound</text>
<text text-anchor="middle" x="569.1182" y="-541" font-family="Times,serif" font-size="14.00" fill="#000000">binding</text>
</g>
<!-- GO:1901265&#45;&gt;GO:1901363 -->
<g id="edge3" class="edge">
<title>GO:1901265&#45;&gt;GO:1901363</title>
<path fill="none" stroke="#000000" d="M662.8324,-496.9513C649.1442,-506.4525 633.8257,-517.0854 619.604,-526.9569"/>
<polygon fill="#000000" stroke="#000000" points="617.597,-524.0894 611.3778,-532.6669 621.5885,-529.8399 617.597,-524.0894"/>
</g>
<!-- GO:0005488 -->
<g id="node5" class="node">
<title>GO:0005488</title>
<polygon fill="#ffffff" stroke="#000000" points="613.7221,-668.6019 524.5143,-668.6019 524.5143,-627.3981 613.7221,-627.3981 613.7221,-668.6019"/>
<text text-anchor="middle" x="569.1182" y="-652.2" font-family="Times,serif" font-size="14.00" fill="#000000">GO:0005488</text>
<text text-anchor="middle" x="569.1182" y="-635.4" font-family="Times,serif" font-size="14.00" fill="#000000">binding</text>
</g>
<!-- GO:0097159&#45;&gt;GO:0005488 -->
<g id="edge4" class="edge">
<title>GO:0097159&#45;&gt;GO:0005488</title>
<path fill="none" stroke="#000000" d="M681.0893,-591.3558C660.9115,-601.5634 638.4715,-612.9154 619.0103,-622.7605"/>
<polygon fill="#000000" stroke="#000000" points="617.3522,-619.6768 610.009,-627.3141 620.5121,-625.9231 617.3522,-619.6768"/>
</g>
<!-- GO:1901363&#45;&gt;GO:0005488 -->
<g id="edge5" class="edge">
<title>GO:1901363&#45;&gt;GO:0005488</title>
<path fill="none" stroke="#000000" d="M569.1182,-591.5963C569.1182,-599.8638 569.1182,-608.8657 569.1182,-617.2008"/>
<polygon fill="#000000" stroke="#000000" points="565.6183,-617.2965 569.1182,-627.2966 572.6183,-617.2966 565.6183,-617.2965"/>
</g>
<!-- GO:0003674 -->
<g id="node6" class="node">
<title>GO:0003674</title>
<polygon fill="#ffffff" stroke="#000000" points="383.7513,-746.2019 258.4851,-746.2019 258.4851,-704.9981 383.7513,-704.9981 383.7513,-746.2019"/>
<text text-anchor="middle" x="321.1182" y="-729.8" font-family="Times,serif" font-size="14.00" fill="#000000">GO:0003674</text>
<text text-anchor="middle" x="321.1182" y="-713" font-family="Times,serif" font-size="14.00" fill="#000000">molecular_function</text>
</g>
<!-- GO:0005488&#45;&gt;GO:0003674 -->
<g id="edge6" class="edge">
<title>GO:0005488&#45;&gt;GO:0003674</title>
<path fill="none" stroke="#000000" d="M524.4943,-661.9629C488.1395,-673.3385 436.0806,-689.6279 393.7346,-702.8781"/>
<polygon fill="#000000" stroke="#000000" points="392.5263,-699.5888 384.0278,-705.9154 394.6167,-706.2694 392.5263,-699.5888"/>
</g>
<!-- GO:0043169 -->
<g id="node7" class="node">
<title>GO:0043169</title>
<polygon fill="#ff00ff" stroke="#000000" points="1081.6111,-488.2019 984.6253,-488.2019 984.6253,-446.9981 1081.6111,-446.9981 1081.6111,-488.2019"/>
<text text-anchor="middle" x="1033.1182" y="-471.8" font-family="Times,serif" font-size="14.00" fill="#000000">GO:0043169</text>
<text text-anchor="middle" x="1033.1182" y="-455" font-family="Times,serif" font-size="14.00" fill="#000000">cation binding</text>
</g>
<!-- GO:0043167 -->
<g id="node8" class="node">
<title>GO:0043167</title>
<polygon fill="#ffffff" stroke="#000000" points="1077.7221,-582.6019 988.5143,-582.6019 988.5143,-541.3981 1077.7221,-541.3981 1077.7221,-582.6019"/>
<text text-anchor="middle" x="1033.1182" y="-566.2" font-family="Times,serif" font-size="14.00" fill="#000000">GO:0043167</text>
<text text-anchor="middle" x="1033.1182" y="-549.4" font-family="Times,serif" font-size="14.00" fill="#000000">ion binding</text>
</g>
<!-- GO:0043169&#45;&gt;GO:0043167 -->
<g id="edge7" class="edge">
<title>GO:0043169&#45;&gt;GO:0043167</title>
<path fill="none" stroke="#000000" d="M1033.1182,-488.5504C1033.1182,-501.0165 1033.1182,-517.0645 1033.1182,-530.9786"/>
<polygon fill="#000000" stroke="#000000" points="1029.6183,-531.1081 1033.1182,-541.1081 1036.6183,-531.1082 1029.6183,-531.1081"/>
</g>
<!-- GO:0043167&#45;&gt;GO:0005488 -->
<g id="edge8" class="edge">
<title>GO:0043167&#45;&gt;GO:0005488</title>
<path fill="none" stroke="#000000" d="M999.3744,-582.6104C992.8365,-585.9164 985.9039,-588.9762 979.1182,-591.2 914.2202,-612.4679 719.671,-633.4662 623.7733,-642.8709"/>
<polygon fill="#000000" stroke="#000000" points="623.3082,-639.3995 613.6945,-643.8522 623.9866,-646.3665 623.3082,-639.3995"/>
</g>
<!-- GO:0051540 -->
<g id="node9" class="node">
<title>GO:0051540</title>
<polygon fill="#ff00ff" stroke="#000000" points="970.3161,-582.6019 835.9203,-582.6019 835.9203,-541.3981 970.3161,-541.3981 970.3161,-582.6019"/>
<text text-anchor="middle" x="903.1182" y="-566.2" font-family="Times,serif" font-size="14.00" fill="#000000">GO:0051540</text>
<text text-anchor="middle" x="903.1182" y="-549.4" font-family="Times,serif" font-size="14.00" fill="#000000">metal cluster binding</text>
</g>
<!-- GO:0051540&#45;&gt;GO:0005488 -->
<g id="edge9" class="edge">
<title>GO:0051540&#45;&gt;GO:0005488</title>
<path fill="none" stroke="#000000" d="M852.3811,-582.6994C844.0136,-585.7638 835.376,-588.7199 827.1182,-591.2 758.1406,-611.9161 676.7091,-628.5893 624.0561,-638.3848"/>
<polygon fill="#000000" stroke="#000000" points="623.122,-634.9978 613.9214,-640.2513 624.39,-641.8821 623.122,-634.9978"/>
</g>
<!-- GO:0016491 -->
<g id="node10" class="node">
<title>GO:0016491</title>
<polygon fill="#ff00ff" stroke="#000000" points="146.3548,-582.6019 -.1184,-582.6019 -.1184,-541.3981 146.3548,-541.3981 146.3548,-582.6019"/>
<text text-anchor="middle" x="73.1182" y="-566.2" font-family="Times,serif" font-size="14.00" fill="#000000">GO:0016491</text>
<text text-anchor="middle" x="73.1182" y="-549.4" font-family="Times,serif" font-size="14.00" fill="#000000">oxidoreductase activity</text>
</g>
<!-- GO:0003824 -->
<g id="node11" class="node">
<title>GO:0003824</title>
<polygon fill="#ffffff" stroke="#000000" points="317.5306,-668.6019 208.7058,-668.6019 208.7058,-627.3981 317.5306,-627.3981 317.5306,-668.6019"/>
<text text-anchor="middle" x="263.1182" y="-652.2" font-family="Times,serif" font-size="14.00" fill="#000000">GO:0003824</text>
<text text-anchor="middle" x="263.1182" y="-635.4" font-family="Times,serif" font-size="14.00" fill="#000000">catalytic activity</text>
</g>
<!-- GO:0016491&#45;&gt;GO:0003824 -->
<g id="edge10" class="edge">
<title>GO:0016491&#45;&gt;GO:0003824</title>
<path fill="none" stroke="#000000" d="M119.1119,-582.8182C145.9507,-594.9663 179.9756,-610.367 208.2126,-623.148"/>
<polygon fill="#000000" stroke="#000000" points="206.9946,-626.4385 217.5481,-627.3735 209.8811,-620.0613 206.9946,-626.4385"/>
</g>
<!-- GO:0003824&#45;&gt;GO:0003674 -->
<g id="edge11" class="edge">
<title>GO:0003824&#45;&gt;GO:0003674</title>
<path fill="none" stroke="#000000" d="M278.6611,-668.7954C285.0324,-677.3197 292.5173,-687.3339 299.4134,-696.5605"/>
<polygon fill="#000000" stroke="#000000" points="296.7421,-698.8327 305.5324,-704.7472 302.349,-694.6419 296.7421,-698.8327"/>
</g>
<!-- GO:0005524 -->
<g id="node12" class="node">
<title>GO:0005524</title>
<polygon fill="#ffffff" stroke="#000000" points="689.7221,-41.4019 600.5143,-41.4019 600.5143,-.1981 689.7221,-.1981 689.7221,-41.4019"/>
<text text-anchor="middle" x="645.1182" y="-25" font-family="Times,serif" font-size="14.00" fill="#000000">GO:0005524</text>
<text text-anchor="middle" x="645.1182" y="-8.2" font-family="Times,serif" font-size="14.00" fill="#000000">ATP binding</text>
</g>
<!-- GO:0005524&#45;&gt;GO:0035639 -->
<g id="edge12" class="edge">
<title>GO:0005524&#45;&gt;GO:0035639</title>
<path fill="none" stroke="#000000" d="M673.6827,-41.6182C685.9985,-50.5941 700.7508,-61.3458 714.6893,-71.5044"/>
<polygon fill="#000000" stroke="#000000" points="712.6346,-74.3378 722.7775,-77.3991 716.7575,-68.6807 712.6346,-74.3378"/>
</g>
<!-- GO:0032559 -->
<g id="node13" class="node">
<title>GO:0032559</title>
<polygon fill="#ffffff" stroke="#000000" points="560.8052,-136.2014 423.4312,-136.2014 423.4312,-77.3986 560.8052,-77.3986 560.8052,-136.2014"/>
<text text-anchor="middle" x="492.1182" y="-119.4" font-family="Times,serif" font-size="14.00" fill="#000000">GO:0032559</text>
<text text-anchor="middle" x="492.1182" y="-102.6" font-family="Times,serif" font-size="14.00" fill="#000000">adenyl ribonucleotide</text>
<text text-anchor="middle" x="492.1182" y="-85.8" font-family="Times,serif" font-size="14.00" fill="#000000">binding</text>
</g>
<!-- GO:0005524&#45;&gt;GO:0032559 -->
<g id="edge13" class="edge">
<title>GO:0005524&#45;&gt;GO:0032559</title>
<path fill="none" stroke="#000000" d="M608.0812,-41.6182C591.5137,-50.9306 571.5458,-62.1544 552.8836,-72.6443"/>
<polygon fill="#000000" stroke="#000000" points="551.1362,-69.6114 544.1338,-77.5624 554.5661,-75.7135 551.1362,-69.6114"/>
</g>
<!-- GO:0032550 -->
<g id="node14" class="node">
<title>GO:0032550</title>
<polygon fill="#ffffff" stroke="#000000" points="713.8052,-325.0014 576.4312,-325.0014 576.4312,-266.1986 713.8052,-266.1986 713.8052,-325.0014"/>
<text text-anchor="middle" x="645.1182" y="-308.2" font-family="Times,serif" font-size="14.00" fill="#000000">GO:0032550</text>
<text text-anchor="middle" x="645.1182" y="-291.4" font-family="Times,serif" font-size="14.00" fill="#000000">purine ribonucleoside</text>
<text text-anchor="middle" x="645.1182" y="-274.6" font-family="Times,serif" font-size="14.00" fill="#000000">binding</text>
</g>
<!-- GO:0005524&#45;&gt;GO:0032550 -->
<g id="edge14" class="edge">
<title>GO:0005524&#45;&gt;GO:0032550</title>
<path fill="none" stroke="#000000" d="M645.1182,-41.4547C645.1182,-87.024 645.1182,-196.8238 645.1182,-256.0863"/>
<polygon fill="#000000" stroke="#000000" points="641.6183,-256.1895 645.1182,-266.1896 648.6183,-256.1896 641.6183,-256.1895"/>
</g>
<!-- GO:0032555 -->
<g id="node15" class="node">
<title>GO:0032555</title>
<polygon fill="#ffffff" stroke="#000000" points="393.2509,-230.6014 256.9855,-230.6014 256.9855,-171.7986 393.2509,-171.7986 393.2509,-230.6014"/>
<text text-anchor="middle" x="325.1182" y="-213.8" font-family="Times,serif" font-size="14.00" fill="#000000">GO:0032555</text>
<text text-anchor="middle" x="325.1182" y="-197" font-family="Times,serif" font-size="14.00" fill="#000000">purine ribonucleotide</text>
<text text-anchor="middle" x="325.1182" y="-180.2" font-family="Times,serif" font-size="14.00" fill="#000000">binding</text>
</g>
<!-- GO:0032559&#45;&gt;GO:0032555 -->
<g id="edge15" class="edge">
<title>GO:0032559&#45;&gt;GO:0032555</title>
<path fill="none" stroke="#000000" d="M440.1938,-136.1513C423.0713,-145.8301 403.8713,-156.6833 386.1339,-166.7097"/>
<polygon fill="#000000" stroke="#000000" points="383.9936,-163.899 377.0105,-171.8669 387.4383,-169.9928 383.9936,-163.899"/>
</g>
<!-- GO:0030554 -->
<g id="node16" class="node">
<title>GO:0030554</title>
<polygon fill="#ffffff" stroke="#000000" points="573.0353,-221.8019 411.2011,-221.8019 411.2011,-180.5981 573.0353,-180.5981 573.0353,-221.8019"/>
<text text-anchor="middle" x="492.1182" y="-205.4" font-family="Times,serif" font-size="14.00" fill="#000000">GO:0030554</text>
<text text-anchor="middle" x="492.1182" y="-188.6" font-family="Times,serif" font-size="14.00" fill="#000000">adenyl nucleotide binding</text>
</g>
<!-- GO:0032559&#45;&gt;GO:0030554 -->
<g id="edge16" class="edge">
<title>GO:0032559&#45;&gt;GO:0030554</title>
<path fill="none" stroke="#000000" d="M492.1182,-136.1513C492.1182,-147.0614 492.1182,-159.4637 492.1182,-170.492"/>
<polygon fill="#000000" stroke="#000000" points="488.6183,-170.5509 492.1182,-180.551 495.6183,-170.551 488.6183,-170.5509"/>
</g>
<!-- GO:0001883 -->
<g id="node17" class="node">
<title>GO:0001883</title>
<polygon fill="#ffffff" stroke="#000000" points="595.0353,-402.2019 433.2011,-402.2019 433.2011,-360.9981 595.0353,-360.9981 595.0353,-402.2019"/>
<text text-anchor="middle" x="514.1182" y="-385.8" font-family="Times,serif" font-size="14.00" fill="#000000">GO:0001883</text>
<text text-anchor="middle" x="514.1182" y="-369" font-family="Times,serif" font-size="14.00" fill="#000000">purine nucleoside binding</text>
</g>
<!-- GO:0032550&#45;&gt;GO:0001883 -->
<g id="edge17" class="edge">
<title>GO:0032550&#45;&gt;GO:0001883</title>
<path fill="none" stroke="#000000" d="M600.4018,-324.9558C585.5476,-334.7074 569.1025,-345.5035 554.5876,-355.0323"/>
<polygon fill="#000000" stroke="#000000" points="552.2697,-352.3671 545.831,-360.7809 556.1113,-358.2188 552.2697,-352.3671"/>
</g>
<!-- GO:0032549 -->
<g id="node18" class="node">
<title>GO:0032549</title>
<polygon fill="#ffffff" stroke="#000000" points="757.3205,-402.2019 612.9159,-402.2019 612.9159,-360.9981 757.3205,-360.9981 757.3205,-402.2019"/>
<text text-anchor="middle" x="685.1182" y="-385.8" font-family="Times,serif" font-size="14.00" fill="#000000">GO:0032549</text>
<text text-anchor="middle" x="685.1182" y="-369" font-family="Times,serif" font-size="14.00" fill="#000000">ribonucleoside binding</text>
</g>
<!-- GO:0032550&#45;&gt;GO:0032549 -->
<g id="edge18" class="edge">
<title>GO:0032550&#45;&gt;GO:0032549</title>
<path fill="none" stroke="#000000" d="M658.8839,-325.1963C662.8574,-333.7393 667.1957,-343.0667 671.1796,-351.6321"/>
<polygon fill="#000000" stroke="#000000" points="668.0978,-353.3054 675.4887,-360.8966 674.4449,-350.3533 668.0978,-353.3054"/>
</g>
<!-- GO:0017076 -->
<g id="node19" class="node">
<title>GO:0017076</title>
<polygon fill="#ffffff" stroke="#000000" points="527.9809,-316.2019 368.2555,-316.2019 368.2555,-274.9981 527.9809,-274.9981 527.9809,-316.2019"/>
<text text-anchor="middle" x="448.1182" y="-299.8" font-family="Times,serif" font-size="14.00" fill="#000000">GO:0017076</text>
<text text-anchor="middle" x="448.1182" y="-283" font-family="Times,serif" font-size="14.00" fill="#000000">purine nucleotide binding</text>
</g>
<!-- GO:0032555&#45;&gt;GO:0017076 -->
<g id="edge19" class="edge">
<title>GO:0032555&#45;&gt;GO:0017076</title>
<path fill="none" stroke="#000000" d="M363.3619,-230.5513C379.1896,-242.6987 397.4273,-256.6958 412.9208,-268.5867"/>
<polygon fill="#000000" stroke="#000000" points="411.1493,-271.6391 421.2132,-274.951 415.4112,-266.086 411.1493,-271.6391"/>
</g>
<!-- GO:0032553 -->
<g id="node20" class="node">
<title>GO:0032553</title>
<polygon fill="#ffffff" stroke="#000000" points="349.7663,-316.2019 206.4701,-316.2019 206.4701,-274.9981 349.7663,-274.9981 349.7663,-316.2019"/>
<text text-anchor="middle" x="278.1182" y="-299.8" font-family="Times,serif" font-size="14.00" fill="#000000">GO:0032553</text>
<text text-anchor="middle" x="278.1182" y="-283" font-family="Times,serif" font-size="14.00" fill="#000000">ribonucleotide binding</text>
</g>
<!-- GO:0032555&#45;&gt;GO:0032553 -->
<g id="edge20" class="edge">
<title>GO:0032555&#45;&gt;GO:0032553</title>
<path fill="none" stroke="#000000" d="M310.5047,-230.5513C304.9048,-241.7989 298.5153,-254.6323 292.8997,-265.9112"/>
<polygon fill="#000000" stroke="#000000" points="289.7228,-264.4392 288.399,-274.951 295.9891,-267.5591 289.7228,-264.4392"/>
</g>
<!-- GO:0030554&#45;&gt;GO:0017076 -->
<g id="edge21" class="edge">
<title>GO:0030554&#45;&gt;GO:0017076</title>
<path fill="none" stroke="#000000" d="M482.3532,-222.1504C476.4288,-234.8609 468.7687,-251.2952 462.197,-265.3945"/>
<polygon fill="#000000" stroke="#000000" points="458.9083,-264.1657 457.8559,-274.7081 465.253,-267.123 458.9083,-264.1657"/>
</g>
<!-- GO:0001882 -->
<g id="node21" class="node">
<title>GO:0001882</title>
<polygon fill="#ffffff" stroke="#000000" points="597.2691,-488.2019 474.9673,-488.2019 474.9673,-446.9981 597.2691,-446.9981 597.2691,-488.2019"/>
<text text-anchor="middle" x="536.1182" y="-471.8" font-family="Times,serif" font-size="14.00" fill="#000000">GO:0001882</text>
<text text-anchor="middle" x="536.1182" y="-455" font-family="Times,serif" font-size="14.00" fill="#000000">nucleoside binding</text>
</g>
<!-- GO:0001883&#45;&gt;GO:0001882 -->
<g id="edge22" class="edge">
<title>GO:0001883&#45;&gt;GO:0001882</title>
<path fill="none" stroke="#000000" d="M519.4438,-402.4182C522.1191,-412.8761 525.411,-425.7446 528.3612,-437.277"/>
<polygon fill="#000000" stroke="#000000" points="524.9724,-438.1529 530.8417,-446.9735 531.7541,-436.418 524.9724,-438.1529"/>
</g>
<!-- GO:0032549&#45;&gt;GO:0001882 -->
<g id="edge23" class="edge">
<title>GO:0032549&#45;&gt;GO:0001882</title>
<path fill="none" stroke="#000000" d="M649.0495,-402.4182C628.4597,-414.3022 602.477,-429.299 580.6262,-441.9108"/>
<polygon fill="#000000" stroke="#000000" points="578.7661,-438.9432 571.8548,-446.9735 582.2653,-445.0059 578.7661,-438.9432"/>
</g>
<!-- GO:0000166 -->
<g id="node22" class="node">
<title>GO:0000166</title>
<polygon fill="#ffffff" stroke="#000000" points="415.2157,-402.2019 295.0207,-402.2019 295.0207,-360.9981 415.2157,-360.9981 415.2157,-402.2019"/>
<text text-anchor="middle" x="355.1182" y="-385.8" font-family="Times,serif" font-size="14.00" fill="#000000">GO:0000166</text>
<text text-anchor="middle" x="355.1182" y="-369" font-family="Times,serif" font-size="14.00" fill="#000000">nucleotide binding</text>
</g>
<!-- GO:0017076&#45;&gt;GO:0000166 -->
<g id="edge24" class="edge">
<title>GO:0017076&#45;&gt;GO:0000166</title>
<path fill="none" stroke="#000000" d="M425.6055,-316.4182C413.3825,-327.7212 398.1144,-341.8401 384.9165,-354.0446"/>
<polygon fill="#000000" stroke="#000000" points="382.3893,-351.6144 377.4236,-360.9735 387.1419,-356.7538 382.3893,-351.6144"/>
</g>
<!-- GO:0032553&#45;&gt;GO:0000166 -->
<g id="edge26" class="edge">
<title>GO:0032553&#45;&gt;GO:0000166</title>
<path fill="none" stroke="#000000" d="M296.7578,-316.4182C306.6887,-327.5099 319.0475,-341.3132 329.832,-353.3583"/>
<polygon fill="#000000" stroke="#000000" points="327.3722,-355.858 336.6503,-360.9735 332.5873,-351.1887 327.3722,-355.858"/>
</g>
<!-- GO:0097367 -->
<g id="node23" class="node">
<title>GO:0097367</title>
<polygon fill="#ffffff" stroke="#000000" points="312.1653,-591.4014 164.0711,-591.4014 164.0711,-532.5986 312.1653,-532.5986 312.1653,-591.4014"/>
<text text-anchor="middle" x="238.1182" y="-574.6" font-family="Times,serif" font-size="14.00" fill="#000000">GO:0097367</text>
<text text-anchor="middle" x="238.1182" y="-557.8" font-family="Times,serif" font-size="14.00" fill="#000000">carbohydrate derivative</text>
<text text-anchor="middle" x="238.1182" y="-541" font-family="Times,serif" font-size="14.00" fill="#000000">binding</text>
</g>
<!-- GO:0032553&#45;&gt;GO:0097367 -->
<g id="edge25" class="edge">
<title>GO:0032553&#45;&gt;GO:0097367</title>
<path fill="none" stroke="#000000" d="M274.9795,-316.504C268.3216,-360.8451 252.6896,-464.9547 244.0749,-522.3286"/>
<polygon fill="#000000" stroke="#000000" points="240.5755,-522.0638 242.5517,-532.4727 247.4979,-523.1033 240.5755,-522.0638"/>
</g>
<!-- GO:0001882&#45;&gt;GO:0097159 -->
<g id="edge30" class="edge">
<title>GO:0001882&#45;&gt;GO:0097159</title>
<path fill="none" stroke="#000000" d="M580.6674,-488.3165C605.9428,-500.0702 638.1844,-515.0633 666.9773,-528.4527"/>
<polygon fill="#000000" stroke="#000000" points="665.6479,-531.6944 676.1913,-532.7374 668.5996,-525.3471 665.6479,-531.6944"/>
</g>
<!-- GO:0001882&#45;&gt;GO:1901363 -->
<g id="edge29" class="edge">
<title>GO:0001882&#45;&gt;GO:1901363</title>
<path fill="none" stroke="#000000" d="M543.442,-488.5504C546.9726,-498.6502 551.3252,-511.1012 555.4371,-522.8637"/>
<polygon fill="#000000" stroke="#000000" points="552.2072,-524.2307 558.8111,-532.5155 558.8151,-521.9207 552.2072,-524.2307"/>
</g>
<!-- GO:0001882&#45;&gt;GO:0097367 -->
<g id="edge28" class="edge">
<title>GO:0001882&#45;&gt;GO:0097367</title>
<path fill="none" stroke="#000000" d="M474.7296,-485.4383C433.876,-497.4892 378.8187,-514.0721 321.8117,-532.6154"/>
<polygon fill="#000000" stroke="#000000" points="320.6942,-529.2984 312.275,-535.7301 322.8675,-535.9525 320.6942,-529.2984"/>
</g>
<!-- GO:0036094 -->
<g id="node24" class="node">
<title>GO:0036094</title>
<polygon fill="#ffffff" stroke="#000000" points="478.0466,-582.6019 330.1898,-582.6019 330.1898,-541.3981 478.0466,-541.3981 478.0466,-582.6019"/>
<text text-anchor="middle" x="404.1182" y="-566.2" font-family="Times,serif" font-size="14.00" fill="#000000">GO:0036094</text>
<text text-anchor="middle" x="404.1182" y="-549.4" font-family="Times,serif" font-size="14.00" fill="#000000">small molecule binding</text>
</g>
<!-- GO:0001882&#45;&gt;GO:0036094 -->
<g id="edge27" class="edge">
<title>GO:0001882&#45;&gt;GO:0036094</title>
<path fill="none" stroke="#000000" d="M507.1502,-488.3165C487.8068,-502.1499 462.1887,-520.4708 441.337,-535.3829"/>
<polygon fill="#000000" stroke="#000000" points="439.1166,-532.6679 433.0186,-541.3318 443.1886,-538.3617 439.1166,-532.6679"/>
</g>
<!-- GO:0000166&#45;&gt;GO:1901265 -->
<g id="edge32" class="edge">
<title>GO:0000166&#45;&gt;GO:1901265</title>
<path fill="none" stroke="#000000" d="M415.2333,-400.0982C418.2305,-400.9022 421.2044,-401.6745 424.1182,-402.4 504.1313,-422.3229 526.046,-418.7159 606.1182,-438.4 612.9972,-440.0911 620.1124,-441.9561 627.2268,-443.9012"/>
<polygon fill="#000000" stroke="#000000" points="626.3332,-447.2854 636.9055,-446.5942 628.2097,-440.5416 626.3332,-447.2854"/>
</g>
<!-- GO:0000166&#45;&gt;GO:0036094 -->
<g id="edge31" class="edge">
<title>GO:0000166&#45;&gt;GO:0036094</title>
<path fill="none" stroke="#000000" d="M360.7391,-402.2942C369.3558,-434.0176 385.8777,-494.8453 395.8581,-531.5892"/>
<polygon fill="#000000" stroke="#000000" points="392.4887,-532.5372 398.4876,-541.2701 399.2439,-530.7023 392.4887,-532.5372"/>
</g>
<!-- GO:0097367&#45;&gt;GO:0005488 -->
<g id="edge33" class="edge">
<title>GO:0097367&#45;&gt;GO:0005488</title>
<path fill="none" stroke="#000000" d="M312.1955,-588.5278C315.2008,-589.4558 318.1835,-590.3507 321.1182,-591.2 386.8126,-610.2128 463.76,-627.0047 514.3172,-637.3073"/>
<polygon fill="#000000" stroke="#000000" points="513.8828,-640.7902 524.3783,-639.3428 515.271,-633.9292 513.8828,-640.7902"/>
</g>
<!-- GO:0036094&#45;&gt;GO:0005488 -->
<g id="edge34" class="edge">
<title>GO:0036094&#45;&gt;GO:0005488</title>
<path fill="none" stroke="#000000" d="M444.0601,-582.8182C467.0635,-594.8078 496.1456,-609.9658 520.475,-622.6466"/>
<polygon fill="#000000" stroke="#000000" points="519.0586,-625.8552 529.5441,-627.3735 522.2941,-619.6478 519.0586,-625.8552"/>
</g>
</g>
</svg>
