<?xml version="1.0" encoding="UTF-8" standalone="no"?>
<!DOCTYPE svg PUBLIC "-//W3C//DTD SVG 1.1//EN"
 "http://www.w3.org/Graphics/SVG/1.1/DTD/svg11.dtd">
<!-- Generated by graphviz version 2.40.1 (20161225.0304)
 -->
<!-- Title: G Pages: 1 -->
<svg width="704pt" height="471pt"
 viewBox="0.00 0.00 703.59 471.20" xmlns="http://www.w3.org/2000/svg" xmlns:xlink="http://www.w3.org/1999/xlink">
<g id="graph0" class="graph" transform="scale(1 1) rotate(0) translate(4 467.2)">
<title>G</title>
<polygon fill="#ffffff" stroke="transparent" points="-4,4 -4,-467.2 699.5895,-467.2 699.5895,4 -4,4"/>
<!-- GO:0043229 -->
<g id="node1" class="node">
<title>GO:0043229</title>
<polygon fill="#ffa500" stroke="#000000" points="285.6988,-221.8019 146.262,-221.8019 146.262,-180.5981 285.6988,-180.5981 285.6988,-221.8019"/>
<text text-anchor="middle" x="215.9804" y="-205.4" font-family="Times,serif" font-size="14.00" fill="#000000">GO:0043229</text>
<text text-anchor="middle" x="215.9804" y="-188.6" font-family="Times,serif" font-size="14.00" fill="#000000">intracellular organelle</text>
</g>
<!-- GO:0044424 -->
<g id="node2" class="node">
<title>GO:0044424</title>
<polygon fill="#ff0000" stroke="#000000" points="402.3788,-307.8019 293.582,-307.8019 293.582,-266.5981 402.3788,-266.5981 402.3788,-307.8019"/>
<text text-anchor="middle" x="347.9804" y="-291.4" font-family="Times,serif" font-size="14.00" fill="#000000">GO:0044424</text>
<text text-anchor="middle" x="347.9804" y="-274.6" font-family="Times,serif" font-size="14.00" fill="#000000">intracellular part</text>
</g>
<!-- GO:0043229&#45;&gt;GO:0044424 -->
<g id="edge1" class="edge">
<title>GO:0043229&#45;&gt;GO:0044424</title>
<path fill="none" stroke="#000000" d="M247.9339,-222.0182C265.9313,-233.7437 288.5798,-248.4996 307.7742,-261.0051"/>
<polygon fill="#000000" stroke="#000000" points="306.0319,-264.0472 316.3211,-266.5735 309.8531,-258.1821 306.0319,-264.0472"/>
</g>
<!-- GO:0043226 -->
<g id="node3" class="node">
<title>GO:0043226</title>
<polygon fill="#ffa500" stroke="#000000" points="251.5843,-307.8019 162.3765,-307.8019 162.3765,-266.5981 251.5843,-266.5981 251.5843,-307.8019"/>
<text text-anchor="middle" x="206.9804" y="-291.4" font-family="Times,serif" font-size="14.00" fill="#000000">GO:0043226</text>
<text text-anchor="middle" x="206.9804" y="-274.6" font-family="Times,serif" font-size="14.00" fill="#000000">organelle</text>
</g>
<!-- GO:0043229&#45;&gt;GO:0043226 -->
<g id="edge2" class="edge">
<title>GO:0043229&#45;&gt;GO:0043226</title>
<path fill="none" stroke="#000000" d="M213.8018,-222.0182C212.7184,-232.3705 211.3878,-245.0848 210.1903,-256.5271"/>
<polygon fill="#000000" stroke="#000000" points="206.6989,-256.2635 209.139,-266.5735 213.6609,-256.9921 206.6989,-256.2635"/>
</g>
<!-- GO:0044464 -->
<g id="node4" class="node">
<title>GO:0044464</title>
<polygon fill="#ff0000" stroke="#000000" points="324.5843,-385.4019 235.3765,-385.4019 235.3765,-344.1981 324.5843,-344.1981 324.5843,-385.4019"/>
<text text-anchor="middle" x="279.9804" y="-369" font-family="Times,serif" font-size="14.00" fill="#000000">GO:0044464</text>
<text text-anchor="middle" x="279.9804" y="-352.2" font-family="Times,serif" font-size="14.00" fill="#000000">cell part</text>
</g>
<!-- GO:0044424&#45;&gt;GO:0044464 -->
<g id="edge3" class="edge">
<title>GO:0044424&#45;&gt;GO:0044464</title>
<path fill="none" stroke="#000000" d="M329.7576,-307.9954C322.1354,-316.6937 313.1538,-326.9433 304.9332,-336.3244"/>
<polygon fill="#000000" stroke="#000000" points="302.2117,-334.1195 298.2535,-343.9472 307.4764,-338.7329 302.2117,-334.1195"/>
</g>
<!-- GO:0005575 -->
<g id="node5" class="node">
<title>GO:0005575</title>
<polygon fill="#ffffff" stroke="#000000" points="450.6671,-463.0019 323.2937,-463.0019 323.2937,-421.7981 450.6671,-421.7981 450.6671,-463.0019"/>
<text text-anchor="middle" x="386.9804" y="-446.6" font-family="Times,serif" font-size="14.00" fill="#000000">GO:0005575</text>
<text text-anchor="middle" x="386.9804" y="-429.8" font-family="Times,serif" font-size="14.00" fill="#000000">cellular_component</text>
</g>
<!-- GO:0043226&#45;&gt;GO:0005575 -->
<g id="edge4" class="edge">
<title>GO:0043226&#45;&gt;GO:0005575</title>
<path fill="none" stroke="#000000" d="M205.3619,-307.8155C204.7959,-329.6793 207.3552,-363.9829 225.9804,-385.6 238.1015,-399.6682 276.9285,-413.5725 313.4143,-424.103"/>
<polygon fill="#000000" stroke="#000000" points="312.544,-427.494 323.1188,-426.8429 314.446,-420.7574 312.544,-427.494"/>
</g>
<!-- GO:0044464&#45;&gt;GO:0005575 -->
<g id="edge7" class="edge">
<title>GO:0044464&#45;&gt;GO:0005575</title>
<path fill="none" stroke="#000000" d="M308.6544,-385.5954C321.3679,-394.8156 336.4847,-405.7788 350.0311,-415.6031"/>
<polygon fill="#000000" stroke="#000000" points="348.0772,-418.5096 358.2272,-421.5472 352.1868,-412.8429 348.0772,-418.5096"/>
</g>
<!-- GO:0043227 -->
<g id="node6" class="node">
<title>GO:0043227</title>
<polygon fill="#ffa500" stroke="#000000" points="127.9412,-230.6014 .0196,-230.6014 .0196,-171.7986 127.9412,-171.7986 127.9412,-230.6014"/>
<text text-anchor="middle" x="63.9804" y="-213.8" font-family="Times,serif" font-size="14.00" fill="#000000">GO:0043227</text>
<text text-anchor="middle" x="63.9804" y="-197" font-family="Times,serif" font-size="14.00" fill="#000000">membrane&#45;bounded</text>
<text text-anchor="middle" x="63.9804" y="-180.2" font-family="Times,serif" font-size="14.00" fill="#000000">organelle</text>
</g>
<!-- GO:0043227&#45;&gt;GO:0043226 -->
<g id="edge5" class="edge">
<title>GO:0043227&#45;&gt;GO:0043226</title>
<path fill="none" stroke="#000000" d="M112.7929,-230.5558C129.3138,-240.4914 147.6375,-251.5112 163.6985,-261.1703"/>
<polygon fill="#000000" stroke="#000000" points="161.9892,-264.2265 172.3627,-266.3809 165.5968,-258.2277 161.9892,-264.2265"/>
</g>
<!-- GO:0005737 -->
<g id="node7" class="node">
<title>GO:0005737</title>
<polygon fill="#00ff00" stroke="#000000" points="392.5843,-221.8019 303.3765,-221.8019 303.3765,-180.5981 392.5843,-180.5981 392.5843,-221.8019"/>
<text text-anchor="middle" x="347.9804" y="-205.4" font-family="Times,serif" font-size="14.00" fill="#000000">GO:0005737</text>
<text text-anchor="middle" x="347.9804" y="-188.6" font-family="Times,serif" font-size="14.00" fill="#000000">cytoplasm</text>
</g>
<!-- GO:0005737&#45;&gt;GO:0044424 -->
<g id="edge6" class="edge">
<title>GO:0005737&#45;&gt;GO:0044424</title>
<path fill="none" stroke="#000000" d="M347.9804,-222.0182C347.9804,-232.3705 347.9804,-245.0848 347.9804,-256.5271"/>
<polygon fill="#000000" stroke="#000000" points="344.4805,-256.5735 347.9804,-266.5735 351.4805,-256.5735 344.4805,-256.5735"/>
</g>
<!-- GO:0005634 -->
<g id="node8" class="node">
<title>GO:0005634</title>
<polygon fill="#ff00ff" stroke="#000000" points="184.5843,-41.4019 95.3765,-41.4019 95.3765,-.1981 184.5843,-.1981 184.5843,-41.4019"/>
<text text-anchor="middle" x="139.9804" y="-25" font-family="Times,serif" font-size="14.00" fill="#000000">GO:0005634</text>
<text text-anchor="middle" x="139.9804" y="-8.2" font-family="Times,serif" font-size="14.00" fill="#000000">nucleus</text>
</g>
<!-- GO:0043231 -->
<g id="node9" class="node">
<title>GO:0043231</title>
<polygon fill="#ffa500" stroke="#000000" points="215.3592,-136.2014 64.6016,-136.2014 64.6016,-77.3986 215.3592,-77.3986 215.3592,-136.2014"/>
<text text-anchor="middle" x="139.9804" y="-119.4" font-family="Times,serif" font-size="14.00" fill="#000000">GO:0043231</text>
<text text-anchor="middle" x="139.9804" y="-102.6" font-family="Times,serif" font-size="14.00" fill="#000000">intracellular membrane&#45;</text>
<text text-anchor="middle" x="139.9804" y="-85.8" font-family="Times,serif" font-size="14.00" fill="#000000">bounded organelle</text>
</g>
<!-- GO:0005634&#45;&gt;GO:0043231 -->
<g id="edge8" class="edge">
<title>GO:0005634&#45;&gt;GO:0043231</title>
<path fill="none" stroke="#000000" d="M139.9804,-41.6182C139.9804,-49.3358 139.9804,-58.3662 139.9804,-67.2036"/>
<polygon fill="#000000" stroke="#000000" points="136.4805,-67.3991 139.9804,-77.3991 143.4805,-67.3992 136.4805,-67.3991"/>
</g>
<!-- GO:0043231&#45;&gt;GO:0043229 -->
<g id="edge9" class="edge">
<title>GO:0043231&#45;&gt;GO:0043229</title>
<path fill="none" stroke="#000000" d="M163.6107,-136.1513C172.9376,-147.7363 183.619,-161.0037 192.8922,-172.522"/>
<polygon fill="#000000" stroke="#000000" points="190.3588,-174.9565 199.3562,-180.551 195.8114,-170.5667 190.3588,-174.9565"/>
</g>
<!-- GO:0043231&#45;&gt;GO:0043227 -->
<g id="edge10" class="edge">
<title>GO:0043231&#45;&gt;GO:0043227</title>
<path fill="none" stroke="#000000" d="M116.3501,-136.1513C109.2727,-144.9422 101.4154,-154.7018 93.9853,-163.9308"/>
<polygon fill="#000000" stroke="#000000" points="91.1409,-161.8826 87.5961,-171.8669 96.5934,-166.2724 91.1409,-161.8826"/>
</g>
<!-- GO:0016020 -->
<g id="node10" class="node">
<title>GO:0016020</title>
<polygon fill="#00ffff" stroke="#000000" points="431.5843,-385.4019 342.3765,-385.4019 342.3765,-344.1981 431.5843,-344.1981 431.5843,-385.4019"/>
<text text-anchor="middle" x="386.9804" y="-369" font-family="Times,serif" font-size="14.00" fill="#000000">GO:0016020</text>
<text text-anchor="middle" x="386.9804" y="-352.2" font-family="Times,serif" font-size="14.00" fill="#000000">membrane</text>
</g>
<!-- GO:0016020&#45;&gt;GO:0005575 -->
<g id="edge11" class="edge">
<title>GO:0016020&#45;&gt;GO:0005575</title>
<path fill="none" stroke="#000000" d="M386.9804,-385.5954C386.9804,-393.5109 386.9804,-402.7109 386.9804,-411.3722"/>
<polygon fill="#000000" stroke="#000000" points="383.4805,-411.5472 386.9804,-421.5472 390.4805,-411.5473 383.4805,-411.5472"/>
</g>
<!-- GO:0032991 -->
<g id="node11" class="node">
<title>GO:0032991</title>
<polygon fill="#00ff00" stroke="#000000" points="608.1477,-385.4019 449.8131,-385.4019 449.8131,-344.1981 608.1477,-344.1981 608.1477,-385.4019"/>
<text text-anchor="middle" x="528.9804" y="-369" font-family="Times,serif" font-size="14.00" fill="#000000">GO:0032991</text>
<text text-anchor="middle" x="528.9804" y="-352.2" font-family="Times,serif" font-size="14.00" fill="#000000">macromolecular complex</text>
</g>
<!-- GO:0032991&#45;&gt;GO:0005575 -->
<g id="edge12" class="edge">
<title>GO:0032991&#45;&gt;GO:0005575</title>
<path fill="none" stroke="#000000" d="M490.927,-385.5954C473.4182,-395.1635 452.4748,-406.6087 433.9899,-416.7103"/>
<polygon fill="#000000" stroke="#000000" points="432.2356,-413.6804 425.1388,-421.5472 435.5924,-419.823 432.2356,-413.6804"/>
</g>
<!-- GO:0044446 -->
<g id="node12" class="node">
<title>GO:0044446</title>
<polygon fill="#ffa500" stroke="#000000" points="695.6988,-230.6014 556.262,-230.6014 556.262,-171.7986 695.6988,-171.7986 695.6988,-230.6014"/>
<text text-anchor="middle" x="625.9804" y="-213.8" font-family="Times,serif" font-size="14.00" fill="#000000">GO:0044446</text>
<text text-anchor="middle" x="625.9804" y="-197" font-family="Times,serif" font-size="14.00" fill="#000000">intracellular organelle</text>
<text text-anchor="middle" x="625.9804" y="-180.2" font-family="Times,serif" font-size="14.00" fill="#000000">part</text>
</g>
<!-- GO:0044446&#45;&gt;GO:0044424 -->
<g id="edge13" class="edge">
<title>GO:0044446&#45;&gt;GO:0044424</title>
<path fill="none" stroke="#000000" d="M556.1881,-222.7904C512.0205,-236.4538 455.3366,-253.9891 412.2681,-267.3124"/>
<polygon fill="#000000" stroke="#000000" points="410.9828,-264.0463 402.4639,-270.3454 413.0516,-270.7337 410.9828,-264.0463"/>
</g>
<!-- GO:0044422 -->
<g id="node13" class="node">
<title>GO:0044422</title>
<polygon fill="#ffffff" stroke="#000000" points="677.8325,-307.8019 584.1283,-307.8019 584.1283,-266.5981 677.8325,-266.5981 677.8325,-307.8019"/>
<text text-anchor="middle" x="630.9804" y="-291.4" font-family="Times,serif" font-size="14.00" fill="#000000">GO:0044422</text>
<text text-anchor="middle" x="630.9804" y="-274.6" font-family="Times,serif" font-size="14.00" fill="#000000">organelle part</text>
</g>
<!-- GO:0044446&#45;&gt;GO:0044422 -->
<g id="edge14" class="edge">
<title>GO:0044446&#45;&gt;GO:0044422</title>
<path fill="none" stroke="#000000" d="M627.7011,-230.7963C628.1818,-239.0638 628.7052,-248.0657 629.1898,-256.4008"/>
<polygon fill="#000000" stroke="#000000" points="625.7021,-256.7166 629.7767,-266.4966 632.6903,-256.3102 625.7021,-256.7166"/>
</g>
<!-- GO:0044422&#45;&gt;GO:0005575 -->
<g id="edge15" class="edge">
<title>GO:0044422&#45;&gt;GO:0005575</title>
<path fill="none" stroke="#000000" d="M634.2083,-308.0573C636.3657,-330.128 635.9573,-364.6072 616.9804,-385.6 596.1544,-408.6382 519.8637,-424.2613 460.7923,-433.2007"/>
<polygon fill="#000000" stroke="#000000" points="460.1094,-429.7635 450.7272,-434.6852 461.1309,-436.6886 460.1094,-429.7635"/>
</g>
<!-- GO:0044444 -->
<g id="node14" class="node">
<title>GO:0044444</title>
<polygon fill="#ffff00" stroke="#000000" points="519.397,-221.8019 410.5638,-221.8019 410.5638,-180.5981 519.397,-180.5981 519.397,-221.8019"/>
<text text-anchor="middle" x="464.9804" y="-205.4" font-family="Times,serif" font-size="14.00" fill="#000000">GO:0044444</text>
<text text-anchor="middle" x="464.9804" y="-188.6" font-family="Times,serif" font-size="14.00" fill="#000000">cytoplasmic part</text>
</g>
<!-- GO:0044444&#45;&gt;GO:0044424 -->
<g id="edge16" class="edge">
<title>GO:0044444&#45;&gt;GO:0044424</title>
<path fill="none" stroke="#000000" d="M436.658,-222.0182C420.9932,-233.5325 401.353,-247.9688 384.5403,-260.3269"/>
<polygon fill="#000000" stroke="#000000" points="382.0266,-257.8308 376.042,-266.5735 386.1724,-263.471 382.0266,-257.8308"/>
</g>
</g>
</svg>
