<?xml version="1.0" encoding="UTF-8" standalone="no"?>
<!DOCTYPE svg PUBLIC "-//W3C//DTD SVG 1.1//EN"
 "http://www.w3.org/Graphics/SVG/1.1/DTD/svg11.dtd">
<!-- Generated by graphviz version 2.40.1 (20161225.0304)
 -->
<!-- Title: G Pages: 1 -->
<svg width="980pt" height="505pt"
 viewBox="0.00 0.00 980.38 504.80" xmlns="http://www.w3.org/2000/svg" xmlns:xlink="http://www.w3.org/1999/xlink">
<g id="graph0" class="graph" transform="scale(1 1) rotate(0) translate(4 500.8)">
<title>G</title>
<polygon fill="#ffffff" stroke="transparent" points="-4,4 -4,-500.8 976.3777,-500.8 976.3777,4 -4,4"/>
<!-- GO:0019538 -->
<g id="node1" class="node">
<title>GO:0019538</title>
<polygon fill="#00ff00" stroke="#000000" points="878.9683,-127.4019 719.2849,-127.4019 719.2849,-86.1981 878.9683,-86.1981 878.9683,-127.4019"/>
<text text-anchor="middle" x="799.1266" y="-111" font-family="Times,serif" font-size="14.00" fill="#000000">GO:0019538</text>
<text text-anchor="middle" x="799.1266" y="-94.2" font-family="Times,serif" font-size="14.00" fill="#000000">protein metabolic process</text>
</g>
<!-- GO:0044238 -->
<g id="node2" class="node">
<title>GO:0044238</title>
<polygon fill="#ff0000" stroke="#000000" points="972.1296,-221.8019 808.1236,-221.8019 808.1236,-180.5981 972.1296,-180.5981 972.1296,-221.8019"/>
<text text-anchor="middle" x="890.1266" y="-205.4" font-family="Times,serif" font-size="14.00" fill="#000000">GO:0044238</text>
<text text-anchor="middle" x="890.1266" y="-188.6" font-family="Times,serif" font-size="14.00" fill="#000000">primary metabolic process</text>
</g>
<!-- GO:0019538&#45;&gt;GO:0044238 -->
<g id="edge1" class="edge">
<title>GO:0019538&#45;&gt;GO:0044238</title>
<path fill="none" stroke="#000000" d="M819.3224,-127.7504C832.1642,-141.072 848.9491,-158.484 862.9531,-173.0112"/>
<polygon fill="#000000" stroke="#000000" points="860.5271,-175.5377 869.9872,-180.3081 865.5668,-170.6795 860.5271,-175.5377"/>
</g>
<!-- GO:0043170 -->
<g id="node3" class="node">
<title>GO:0043170</title>
<polygon fill="#ff0000" stroke="#000000" points="789.6288,-230.6014 628.6244,-230.6014 628.6244,-171.7986 789.6288,-171.7986 789.6288,-230.6014"/>
<text text-anchor="middle" x="709.1266" y="-213.8" font-family="Times,serif" font-size="14.00" fill="#000000">GO:0043170</text>
<text text-anchor="middle" x="709.1266" y="-197" font-family="Times,serif" font-size="14.00" fill="#000000">macromolecule metabolic</text>
<text text-anchor="middle" x="709.1266" y="-180.2" font-family="Times,serif" font-size="14.00" fill="#000000">process</text>
</g>
<!-- GO:0019538&#45;&gt;GO:0043170 -->
<g id="edge2" class="edge">
<title>GO:0019538&#45;&gt;GO:0043170</title>
<path fill="none" stroke="#000000" d="M779.1527,-127.7504C768.9459,-138.4562 756.2204,-151.8038 744.4279,-164.1729"/>
<polygon fill="#000000" stroke="#000000" points="741.604,-162.0626 737.2368,-171.7155 746.6704,-166.8929 741.604,-162.0626"/>
</g>
<!-- GO:0008152 -->
<g id="node4" class="node">
<title>GO:0008152</title>
<polygon fill="#ffffff" stroke="#000000" points="553.3122,-410.6019 436.941,-410.6019 436.941,-369.3981 553.3122,-369.3981 553.3122,-410.6019"/>
<text text-anchor="middle" x="495.1266" y="-394.2" font-family="Times,serif" font-size="14.00" fill="#000000">GO:0008152</text>
<text text-anchor="middle" x="495.1266" y="-377.4" font-family="Times,serif" font-size="14.00" fill="#000000">metabolic process</text>
</g>
<!-- GO:0044238&#45;&gt;GO:0008152 -->
<g id="edge3" class="edge">
<title>GO:0044238&#45;&gt;GO:0008152</title>
<path fill="none" stroke="#000000" d="M877.2394,-222.2187C858.6671,-250.5309 821.5643,-300.1997 776.1266,-324.8 691.3119,-370.7193 654.579,-333.3286 562.1266,-360.8 557.5046,-362.1734 552.7786,-363.7824 548.0811,-365.5269"/>
<polygon fill="#000000" stroke="#000000" points="546.5599,-362.3636 538.5218,-369.2658 549.1097,-368.8827 546.5599,-362.3636"/>
</g>
<!-- GO:0071704 -->
<g id="node5" class="node">
<title>GO:0071704</title>
<polygon fill="#ff0000" stroke="#000000" points="767.3122,-325.0014 650.941,-325.0014 650.941,-266.1986 767.3122,-266.1986 767.3122,-325.0014"/>
<text text-anchor="middle" x="709.1266" y="-308.2" font-family="Times,serif" font-size="14.00" fill="#000000">GO:0071704</text>
<text text-anchor="middle" x="709.1266" y="-291.4" font-family="Times,serif" font-size="14.00" fill="#000000">organic substance</text>
<text text-anchor="middle" x="709.1266" y="-274.6" font-family="Times,serif" font-size="14.00" fill="#000000">metabolic process</text>
</g>
<!-- GO:0043170&#45;&gt;GO:0071704 -->
<g id="edge4" class="edge">
<title>GO:0043170&#45;&gt;GO:0071704</title>
<path fill="none" stroke="#000000" d="M709.1266,-230.5513C709.1266,-238.6318 709.1266,-247.5308 709.1266,-256.0838"/>
<polygon fill="#000000" stroke="#000000" points="705.6267,-256.2668 709.1266,-266.2669 712.6267,-256.2669 705.6267,-256.2668"/>
</g>
<!-- GO:0008150 -->
<g id="node6" class="node">
<title>GO:0008150</title>
<polygon fill="#ffffff" stroke="#000000" points="427.5972,-496.6019 306.656,-496.6019 306.656,-455.3981 427.5972,-455.3981 427.5972,-496.6019"/>
<text text-anchor="middle" x="367.1266" y="-480.2" font-family="Times,serif" font-size="14.00" fill="#000000">GO:0008150</text>
<text text-anchor="middle" x="367.1266" y="-463.4" font-family="Times,serif" font-size="14.00" fill="#000000">biological_process</text>
</g>
<!-- GO:0008152&#45;&gt;GO:0008150 -->
<g id="edge5" class="edge">
<title>GO:0008152&#45;&gt;GO:0008150</title>
<path fill="none" stroke="#000000" d="M464.1414,-410.8182C446.768,-422.4909 424.925,-437.1667 406.3661,-449.6359"/>
<polygon fill="#000000" stroke="#000000" points="404.1751,-446.8914 397.8265,-455.3735 408.0789,-452.7018 404.1751,-446.8914"/>
</g>
<!-- GO:0071704&#45;&gt;GO:0008152 -->
<g id="edge6" class="edge">
<title>GO:0071704&#45;&gt;GO:0008152</title>
<path fill="none" stroke="#000000" d="M650.9328,-321.2705C619.9752,-334.9266 582.0804,-351.6428 551.4148,-365.1701"/>
<polygon fill="#000000" stroke="#000000" points="549.8824,-362.0206 542.1457,-369.2589 552.7076,-368.4251 549.8824,-362.0206"/>
</g>
<!-- GO:0006807 -->
<g id="node7" class="node">
<title>GO:0006807</title>
<polygon fill="#00ff00" stroke="#000000" points="484.8885,-325.0014 359.3647,-325.0014 359.3647,-266.1986 484.8885,-266.1986 484.8885,-325.0014"/>
<text text-anchor="middle" x="422.1266" y="-308.2" font-family="Times,serif" font-size="14.00" fill="#000000">GO:0006807</text>
<text text-anchor="middle" x="422.1266" y="-291.4" font-family="Times,serif" font-size="14.00" fill="#000000">nitrogen compound</text>
<text text-anchor="middle" x="422.1266" y="-274.6" font-family="Times,serif" font-size="14.00" fill="#000000">metabolic process</text>
</g>
<!-- GO:0006807&#45;&gt;GO:0008152 -->
<g id="edge7" class="edge">
<title>GO:0006807&#45;&gt;GO:0008152</title>
<path fill="none" stroke="#000000" d="M444.8241,-324.9513C453.7828,-336.5363 464.0426,-349.8037 472.9498,-361.322"/>
<polygon fill="#000000" stroke="#000000" points="470.2725,-363.5814 479.1586,-369.351 475.81,-359.2992 470.2725,-363.5814"/>
</g>
<!-- GO:0050789 -->
<g id="node8" class="node">
<title>GO:0050789</title>
<polygon fill="#ffff00" stroke="#000000" points="298.041,-419.4014 150.2122,-419.4014 150.2122,-360.5986 298.041,-360.5986 298.041,-419.4014"/>
<text text-anchor="middle" x="224.1266" y="-402.6" font-family="Times,serif" font-size="14.00" fill="#000000">GO:0050789</text>
<text text-anchor="middle" x="224.1266" y="-385.8" font-family="Times,serif" font-size="14.00" fill="#000000">regulation of biological</text>
<text text-anchor="middle" x="224.1266" y="-369" font-family="Times,serif" font-size="14.00" fill="#000000">process</text>
</g>
<!-- GO:0050789&#45;&gt;GO:0008150 -->
<g id="edge8" class="edge">
<title>GO:0050789&#45;&gt;GO:0008150</title>
<path fill="none" stroke="#000000" d="M272.9391,-419.3558C289.46,-429.2914 307.7837,-440.3112 323.8447,-449.9703"/>
<polygon fill="#000000" stroke="#000000" points="322.1354,-453.0265 332.5089,-455.1809 325.743,-447.0277 322.1354,-453.0265"/>
</g>
<!-- GO:1901576 -->
<g id="node9" class="node">
<title>GO:1901576</title>
<polygon fill="#00ff00" stroke="#000000" points="611.0418,-230.6014 481.2114,-230.6014 481.2114,-171.7986 611.0418,-171.7986 611.0418,-230.6014"/>
<text text-anchor="middle" x="546.1266" y="-213.8" font-family="Times,serif" font-size="14.00" fill="#000000">GO:1901576</text>
<text text-anchor="middle" x="546.1266" y="-197" font-family="Times,serif" font-size="14.00" fill="#000000">organic substance</text>
<text text-anchor="middle" x="546.1266" y="-180.2" font-family="Times,serif" font-size="14.00" fill="#000000">biosynthetic process</text>
</g>
<!-- GO:1901576&#45;&gt;GO:0071704 -->
<g id="edge9" class="edge">
<title>GO:1901576&#45;&gt;GO:0071704</title>
<path fill="none" stroke="#000000" d="M596.8073,-230.5513C613.5197,-240.2301 632.2598,-251.0833 649.5723,-261.1097"/>
<polygon fill="#000000" stroke="#000000" points="648.0696,-264.2839 658.4772,-266.2669 651.5778,-258.2265 648.0696,-264.2839"/>
</g>
<!-- GO:0009058 -->
<g id="node10" class="node">
<title>GO:0009058</title>
<polygon fill="#ffffff" stroke="#000000" points="633.0418,-316.2019 503.2114,-316.2019 503.2114,-274.9981 633.0418,-274.9981 633.0418,-316.2019"/>
<text text-anchor="middle" x="568.1266" y="-299.8" font-family="Times,serif" font-size="14.00" fill="#000000">GO:0009058</text>
<text text-anchor="middle" x="568.1266" y="-283" font-family="Times,serif" font-size="14.00" fill="#000000">biosynthetic process</text>
</g>
<!-- GO:1901576&#45;&gt;GO:0009058 -->
<g id="edge10" class="edge">
<title>GO:1901576&#45;&gt;GO:0009058</title>
<path fill="none" stroke="#000000" d="M552.9669,-230.5513C555.5096,-241.4614 558.3999,-253.8637 560.9701,-264.892"/>
<polygon fill="#000000" stroke="#000000" points="557.6359,-266.0064 563.3143,-274.951 564.4532,-264.4175 557.6359,-266.0064"/>
</g>
<!-- GO:0009058&#45;&gt;GO:0008152 -->
<g id="edge11" class="edge">
<title>GO:0009058&#45;&gt;GO:0008152</title>
<path fill="none" stroke="#000000" d="M551.9255,-316.5504C541.8129,-329.6276 528.6521,-346.6464 517.5457,-361.0087"/>
<polygon fill="#000000" stroke="#000000" points="514.631,-359.0564 511.2824,-369.1081 520.1685,-363.3386 514.631,-359.0564"/>
</g>
<!-- GO:0044260 -->
<g id="node11" class="node">
<title>GO:0044260</title>
<polygon fill="#00ffff" stroke="#000000" points="584.899,-136.2014 437.3542,-136.2014 437.3542,-77.3986 584.899,-77.3986 584.899,-136.2014"/>
<text text-anchor="middle" x="511.1266" y="-119.4" font-family="Times,serif" font-size="14.00" fill="#000000">GO:0044260</text>
<text text-anchor="middle" x="511.1266" y="-102.6" font-family="Times,serif" font-size="14.00" fill="#000000">cellular macromolecule</text>
<text text-anchor="middle" x="511.1266" y="-85.8" font-family="Times,serif" font-size="14.00" fill="#000000">metabolic process</text>
</g>
<!-- GO:0044260&#45;&gt;GO:0043170 -->
<g id="edge13" class="edge">
<title>GO:0044260&#45;&gt;GO:0043170</title>
<path fill="none" stroke="#000000" d="M572.4191,-136.0223C593.3879,-146.0195 617.0102,-157.2819 638.6457,-167.597"/>
<polygon fill="#000000" stroke="#000000" points="637.25,-170.809 647.7829,-171.9533 640.2626,-164.4904 637.25,-170.809"/>
</g>
<!-- GO:0044237 -->
<g id="node12" class="node">
<title>GO:0044237</title>
<polygon fill="#ffff00" stroke="#000000" points="341.3094,-325.0014 224.9438,-325.0014 224.9438,-266.1986 341.3094,-266.1986 341.3094,-325.0014"/>
<text text-anchor="middle" x="283.1266" y="-308.2" font-family="Times,serif" font-size="14.00" fill="#000000">GO:0044237</text>
<text text-anchor="middle" x="283.1266" y="-291.4" font-family="Times,serif" font-size="14.00" fill="#000000">cellular metabolic</text>
<text text-anchor="middle" x="283.1266" y="-274.6" font-family="Times,serif" font-size="14.00" fill="#000000">process</text>
</g>
<!-- GO:0044260&#45;&gt;GO:0044237 -->
<g id="edge12" class="edge">
<title>GO:0044260&#45;&gt;GO:0044237</title>
<path fill="none" stroke="#000000" d="M437.0755,-115.2746C397.1582,-123.53 349.9158,-139.8272 319.1266,-172 297.5723,-194.5229 288.8188,-229.1956 285.3156,-256.0918"/>
<polygon fill="#000000" stroke="#000000" points="281.8022,-256.0206 284.1804,-266.345 288.7597,-256.7909 281.8022,-256.0206"/>
</g>
<!-- GO:0044237&#45;&gt;GO:0008152 -->
<g id="edge15" class="edge">
<title>GO:0044237&#45;&gt;GO:0008152</title>
<path fill="none" stroke="#000000" d="M341.3369,-321.5201C371.997,-335.1725 409.4036,-351.829 439.6478,-365.2962"/>
<polygon fill="#000000" stroke="#000000" points="438.2296,-368.496 448.7886,-369.3665 441.0771,-362.1013 438.2296,-368.496"/>
</g>
<!-- GO:0009987 -->
<g id="node13" class="node">
<title>GO:0009987</title>
<polygon fill="#ff0000" stroke="#000000" points="419.0828,-410.6019 315.1704,-410.6019 315.1704,-369.3981 419.0828,-369.3981 419.0828,-410.6019"/>
<text text-anchor="middle" x="367.1266" y="-394.2" font-family="Times,serif" font-size="14.00" fill="#000000">GO:0009987</text>
<text text-anchor="middle" x="367.1266" y="-377.4" font-family="Times,serif" font-size="14.00" fill="#000000">cellular process</text>
</g>
<!-- GO:0044237&#45;&gt;GO:0009987 -->
<g id="edge14" class="edge">
<title>GO:0044237&#45;&gt;GO:0009987</title>
<path fill="none" stroke="#000000" d="M309.2443,-324.9513C319.653,-336.6488 331.5881,-350.0615 341.9062,-361.657"/>
<polygon fill="#000000" stroke="#000000" points="339.4902,-364.207 348.7525,-369.351 344.7196,-359.5537 339.4902,-364.207"/>
</g>
<!-- GO:0009987&#45;&gt;GO:0008150 -->
<g id="edge16" class="edge">
<title>GO:0009987&#45;&gt;GO:0008150</title>
<path fill="none" stroke="#000000" d="M367.1266,-410.8182C367.1266,-421.1705 367.1266,-433.8848 367.1266,-445.3271"/>
<polygon fill="#000000" stroke="#000000" points="363.6267,-445.3735 367.1266,-455.3735 370.6267,-445.3735 363.6267,-445.3735"/>
</g>
<!-- GO:0065007 -->
<g id="node14" class="node">
<title>GO:0065007</title>
<polygon fill="#ffff00" stroke="#000000" points="132.38,-410.6019 -.1268,-410.6019 -.1268,-369.3981 132.38,-369.3981 132.38,-410.6019"/>
<text text-anchor="middle" x="66.1266" y="-394.2" font-family="Times,serif" font-size="14.00" fill="#000000">GO:0065007</text>
<text text-anchor="middle" x="66.1266" y="-377.4" font-family="Times,serif" font-size="14.00" fill="#000000">biological regulation</text>
</g>
<!-- GO:0065007&#45;&gt;GO:0008150 -->
<g id="edge17" class="edge">
<title>GO:0065007&#45;&gt;GO:0008150</title>
<path fill="none" stroke="#000000" d="M116.6522,-410.6599C124.7762,-413.695 133.1393,-416.6524 141.1266,-419.2 192.5472,-435.6007 251.751,-450.3333 296.6609,-460.6822"/>
<polygon fill="#000000" stroke="#000000" points="296.0671,-464.1367 306.5957,-462.9539 297.6275,-457.3128 296.0671,-464.1367"/>
</g>
<!-- GO:0050794 -->
<g id="node15" class="node">
<title>GO:0050794</title>
<polygon fill="#ffff00" stroke="#000000" points="207.0256,-325.0014 73.2276,-325.0014 73.2276,-266.1986 207.0256,-266.1986 207.0256,-325.0014"/>
<text text-anchor="middle" x="140.1266" y="-308.2" font-family="Times,serif" font-size="14.00" fill="#000000">GO:0050794</text>
<text text-anchor="middle" x="140.1266" y="-291.4" font-family="Times,serif" font-size="14.00" fill="#000000">regulation of cellular</text>
<text text-anchor="middle" x="140.1266" y="-274.6" font-family="Times,serif" font-size="14.00" fill="#000000">process</text>
</g>
<!-- GO:0050794&#45;&gt;GO:0050789 -->
<g id="edge19" class="edge">
<title>GO:0050794&#45;&gt;GO:0050789</title>
<path fill="none" stroke="#000000" d="M166.2443,-324.9513C174.1457,-333.831 182.9266,-343.699 191.212,-353.0103"/>
<polygon fill="#000000" stroke="#000000" points="188.7628,-355.5229 198.0251,-360.6669 193.9922,-350.8696 188.7628,-355.5229"/>
</g>
<!-- GO:0050794&#45;&gt;GO:0065007 -->
<g id="edge18" class="edge">
<title>GO:0050794&#45;&gt;GO:0065007</title>
<path fill="none" stroke="#000000" d="M117.1182,-324.9513C108.0367,-336.5363 97.6364,-349.8037 88.6072,-361.322"/>
<polygon fill="#000000" stroke="#000000" points="85.7282,-359.3215 82.3133,-369.351 91.2373,-363.6401 85.7282,-359.3215"/>
</g>
<!-- GO:0044249 -->
<g id="node16" class="node">
<title>GO:0044249</title>
<polygon fill="#00ff00" stroke="#000000" points="458.039,-230.6014 328.2142,-230.6014 328.2142,-171.7986 458.039,-171.7986 458.039,-230.6014"/>
<text text-anchor="middle" x="393.1266" y="-213.8" font-family="Times,serif" font-size="14.00" fill="#000000">GO:0044249</text>
<text text-anchor="middle" x="393.1266" y="-197" font-family="Times,serif" font-size="14.00" fill="#000000">cellular biosynthetic</text>
<text text-anchor="middle" x="393.1266" y="-180.2" font-family="Times,serif" font-size="14.00" fill="#000000">process</text>
</g>
<!-- GO:0044249&#45;&gt;GO:0009058 -->
<g id="edge20" class="edge">
<title>GO:0044249&#45;&gt;GO:0009058</title>
<path fill="none" stroke="#000000" d="M447.5384,-230.5513C470.9957,-243.2048 498.1737,-257.8654 520.7836,-270.0618"/>
<polygon fill="#000000" stroke="#000000" points="519.3843,-273.2837 529.8472,-274.951 522.7077,-267.1229 519.3843,-273.2837"/>
</g>
<!-- GO:0044249&#45;&gt;GO:0044237 -->
<g id="edge21" class="edge">
<title>GO:0044249&#45;&gt;GO:0044237</title>
<path fill="none" stroke="#000000" d="M358.9249,-230.5513C348.1639,-239.7861 336.1573,-250.09 324.9303,-259.7249"/>
<polygon fill="#000000" stroke="#000000" points="322.6165,-257.0983 317.3072,-266.2669 327.1752,-262.4104 322.6165,-257.0983"/>
</g>
<!-- GO:0044699 -->
<g id="node17" class="node">
<title>GO:0044699</title>
<polygon fill="#00ffff" stroke="#000000" points="722.8079,-410.6019 571.4453,-410.6019 571.4453,-369.3981 722.8079,-369.3981 722.8079,-410.6019"/>
<text text-anchor="middle" x="647.1266" y="-394.2" font-family="Times,serif" font-size="14.00" fill="#000000">GO:0044699</text>
<text text-anchor="middle" x="647.1266" y="-377.4" font-family="Times,serif" font-size="14.00" fill="#000000">single&#45;organism process</text>
</g>
<!-- GO:0044699&#45;&gt;GO:0008150 -->
<g id="edge22" class="edge">
<title>GO:0044699&#45;&gt;GO:0008150</title>
<path fill="none" stroke="#000000" d="M588.2601,-410.6269C579.5206,-413.5715 570.6043,-416.5108 562.1266,-419.2 521.0914,-432.2167 474.8446,-445.7367 437.6905,-456.3193"/>
<polygon fill="#000000" stroke="#000000" points="436.6214,-452.9845 427.9581,-459.0835 438.5339,-459.7182 436.6214,-452.9845"/>
</g>
<!-- GO:0006508 -->
<g id="node18" class="node">
<title>GO:0006508</title>
<polygon fill="#00ffff" stroke="#000000" points="843.7305,-41.4019 754.5227,-41.4019 754.5227,-.1981 843.7305,-.1981 843.7305,-41.4019"/>
<text text-anchor="middle" x="799.1266" y="-25" font-family="Times,serif" font-size="14.00" fill="#000000">GO:0006508</text>
<text text-anchor="middle" x="799.1266" y="-8.2" font-family="Times,serif" font-size="14.00" fill="#000000">proteolysis</text>
</g>
<!-- GO:0006508&#45;&gt;GO:0019538 -->
<g id="edge23" class="edge">
<title>GO:0006508&#45;&gt;GO:0019538</title>
<path fill="none" stroke="#000000" d="M799.1266,-41.6182C799.1266,-51.9705 799.1266,-64.6848 799.1266,-76.1271"/>
<polygon fill="#000000" stroke="#000000" points="795.6267,-76.1735 799.1266,-86.1735 802.6267,-76.1735 795.6267,-76.1735"/>
</g>
</g>
</svg>
