<?xml version="1.0" encoding="UTF-8" standalone="no"?>
<!DOCTYPE svg PUBLIC "-//W3C//DTD SVG 1.1//EN"
 "http://www.w3.org/Graphics/SVG/1.1/DTD/svg11.dtd">
<!-- Generated by graphviz version 2.40.1 (20161225.0304)
 -->
<!-- Title: G Pages: 1 -->
<svg width="740pt" height="255pt"
 viewBox="0.00 0.00 739.97 255.20" xmlns="http://www.w3.org/2000/svg" xmlns:xlink="http://www.w3.org/1999/xlink">
<g id="graph0" class="graph" transform="scale(1 1) rotate(0) translate(4 251.2)">
<title>G</title>
<polygon fill="#ffffff" stroke="transparent" points="-4,4 -4,-251.2 735.9699,-251.2 735.9699,4 -4,4"/>
<!-- GO:0050789 -->
<g id="node1" class="node">
<title>GO:0050789</title>
<polygon fill="#00ff00" stroke="#000000" points="581.7577,-161.4014 433.9289,-161.4014 433.9289,-102.5986 581.7577,-102.5986 581.7577,-161.4014"/>
<text text-anchor="middle" x="507.8433" y="-144.6" font-family="Times,serif" font-size="14.00" fill="#000000">GO:0050789</text>
<text text-anchor="middle" x="507.8433" y="-127.8" font-family="Times,serif" font-size="14.00" fill="#000000">regulation of biological</text>
<text text-anchor="middle" x="507.8433" y="-111" font-family="Times,serif" font-size="14.00" fill="#000000">process</text>
</g>
<!-- GO:0008150 -->
<g id="node2" class="node">
<title>GO:0008150</title>
<polygon fill="#ffffff" stroke="#000000" points="400.3139,-247.0019 279.3727,-247.0019 279.3727,-205.7981 400.3139,-205.7981 400.3139,-247.0019"/>
<text text-anchor="middle" x="339.8433" y="-230.6" font-family="Times,serif" font-size="14.00" fill="#000000">GO:0008150</text>
<text text-anchor="middle" x="339.8433" y="-213.8" font-family="Times,serif" font-size="14.00" fill="#000000">biological_process</text>
</g>
<!-- GO:0050789&#45;&gt;GO:0008150 -->
<g id="edge1" class="edge">
<title>GO:0050789&#45;&gt;GO:0008150</title>
<path fill="none" stroke="#000000" d="M455.608,-161.3513C433.1891,-173.9486 407.23,-188.5351 385.5823,-200.6991"/>
<polygon fill="#000000" stroke="#000000" points="383.595,-197.801 376.5915,-205.751 387.0241,-203.9036 383.595,-197.801"/>
</g>
<!-- GO:0016043 -->
<g id="node3" class="node">
<title>GO:0016043</title>
<polygon fill="#00ff00" stroke="#000000" points="154.5303,-58.6014 31.1563,-58.6014 31.1563,.2014 154.5303,.2014 154.5303,-58.6014"/>
<text text-anchor="middle" x="92.8433" y="-41.8" font-family="Times,serif" font-size="14.00" fill="#000000">GO:0016043</text>
<text text-anchor="middle" x="92.8433" y="-25" font-family="Times,serif" font-size="14.00" fill="#000000">cellular component</text>
<text text-anchor="middle" x="92.8433" y="-8.2" font-family="Times,serif" font-size="14.00" fill="#000000">organization</text>
</g>
<!-- GO:0009987 -->
<g id="node4" class="node">
<title>GO:0009987</title>
<polygon fill="#ff0000" stroke="#000000" points="245.7995,-152.6019 141.8871,-152.6019 141.8871,-111.3981 245.7995,-111.3981 245.7995,-152.6019"/>
<text text-anchor="middle" x="193.8433" y="-136.2" font-family="Times,serif" font-size="14.00" fill="#000000">GO:0009987</text>
<text text-anchor="middle" x="193.8433" y="-119.4" font-family="Times,serif" font-size="14.00" fill="#000000">cellular process</text>
</g>
<!-- GO:0016043&#45;&gt;GO:0009987 -->
<g id="edge2" class="edge">
<title>GO:0016043&#45;&gt;GO:0009987</title>
<path fill="none" stroke="#000000" d="M121.7858,-58.6584C135.754,-72.8754 152.4309,-89.8496 166.2216,-103.886"/>
<polygon fill="#000000" stroke="#000000" points="164.0456,-106.6653 173.5506,-111.3456 169.0389,-101.7594 164.0456,-106.6653"/>
</g>
<!-- GO:0071840 -->
<g id="node5" class="node">
<title>GO:0071840</title>
<polygon fill="#ffffff" stroke="#000000" points="123.5303,-169.7003 .1563,-169.7003 .1563,-94.2997 123.5303,-94.2997 123.5303,-169.7003"/>
<text text-anchor="middle" x="61.8433" y="-153" font-family="Times,serif" font-size="14.00" fill="#000000">GO:0071840</text>
<text text-anchor="middle" x="61.8433" y="-136.2" font-family="Times,serif" font-size="14.00" fill="#000000">cellular component</text>
<text text-anchor="middle" x="61.8433" y="-119.4" font-family="Times,serif" font-size="14.00" fill="#000000">organization or</text>
<text text-anchor="middle" x="61.8433" y="-102.6" font-family="Times,serif" font-size="14.00" fill="#000000">biogenesis</text>
</g>
<!-- GO:0016043&#45;&gt;GO:0071840 -->
<g id="edge3" class="edge">
<title>GO:0016043&#45;&gt;GO:0071840</title>
<path fill="none" stroke="#000000" d="M83.9599,-58.6584C81.5421,-66.6763 78.8598,-75.5712 76.2211,-84.3215"/>
<polygon fill="#000000" stroke="#000000" points="72.8131,-83.5003 73.2768,-94.085 79.515,-85.5213 72.8131,-83.5003"/>
</g>
<!-- GO:0009987&#45;&gt;GO:0008150 -->
<g id="edge4" class="edge">
<title>GO:0009987&#45;&gt;GO:0008150</title>
<path fill="none" stroke="#000000" d="M225.8836,-152.7165C247.4688,-166.6729 276.118,-185.1968 299.2908,-200.1798"/>
<polygon fill="#000000" stroke="#000000" points="297.5798,-203.2413 307.8777,-205.7318 301.3805,-197.363 297.5798,-203.2413"/>
</g>
<!-- GO:0071840&#45;&gt;GO:0008150 -->
<g id="edge5" class="edge">
<title>GO:0071840&#45;&gt;GO:0008150</title>
<path fill="none" stroke="#000000" d="M123.8155,-165.806C126.8415,-167.1444 129.861,-168.4178 132.8433,-169.6 177.0092,-187.1083 228.5228,-201.2649 269.1124,-211.0661"/>
<polygon fill="#000000" stroke="#000000" points="268.3808,-214.4897 278.9195,-213.4011 270.0022,-207.68 268.3808,-214.4897"/>
</g>
<!-- GO:0065007 -->
<g id="node6" class="node">
<title>GO:0065007</title>
<polygon fill="#00ff00" stroke="#000000" points="732.0967,-152.6019 599.5899,-152.6019 599.5899,-111.3981 732.0967,-111.3981 732.0967,-152.6019"/>
<text text-anchor="middle" x="665.8433" y="-136.2" font-family="Times,serif" font-size="14.00" fill="#000000">GO:0065007</text>
<text text-anchor="middle" x="665.8433" y="-119.4" font-family="Times,serif" font-size="14.00" fill="#000000">biological regulation</text>
</g>
<!-- GO:0065007&#45;&gt;GO:0008150 -->
<g id="edge6" class="edge">
<title>GO:0065007&#45;&gt;GO:0008150</title>
<path fill="none" stroke="#000000" d="M628.8576,-152.7682C616.9827,-158.8262 603.5973,-165.0363 590.8433,-169.6 531.4905,-190.838 461.3173,-205.9192 410.2803,-215.1789"/>
<polygon fill="#000000" stroke="#000000" points="409.5665,-211.7509 400.3369,-216.9534 410.7962,-218.6421 409.5665,-211.7509"/>
</g>
<!-- GO:0050794 -->
<g id="node7" class="node">
<title>GO:0050794</title>
<polygon fill="#00ff00" stroke="#000000" points="653.7423,-58.6014 519.9443,-58.6014 519.9443,.2014 653.7423,.2014 653.7423,-58.6014"/>
<text text-anchor="middle" x="586.8433" y="-41.8" font-family="Times,serif" font-size="14.00" fill="#000000">GO:0050794</text>
<text text-anchor="middle" x="586.8433" y="-25" font-family="Times,serif" font-size="14.00" fill="#000000">regulation of cellular</text>
<text text-anchor="middle" x="586.8433" y="-8.2" font-family="Times,serif" font-size="14.00" fill="#000000">process</text>
</g>
<!-- GO:0050794&#45;&gt;GO:0050789 -->
<g id="edge8" class="edge">
<title>GO:0050794&#45;&gt;GO:0050789</title>
<path fill="none" stroke="#000000" d="M564.2051,-58.6584C555.6105,-69.8421 545.7048,-82.7321 536.6184,-94.556"/>
<polygon fill="#000000" stroke="#000000" points="533.8031,-92.4755 530.4848,-102.5373 539.3534,-96.7409 533.8031,-92.4755"/>
</g>
<!-- GO:0050794&#45;&gt;GO:0065007 -->
<g id="edge7" class="edge">
<title>GO:0050794&#45;&gt;GO:0065007</title>
<path fill="none" stroke="#000000" d="M609.4815,-58.6584C620.2048,-72.6121 632.9691,-89.2219 643.6366,-103.1032"/>
<polygon fill="#000000" stroke="#000000" points="641.1022,-105.5492 649.9708,-111.3456 646.6526,-101.2838 641.1022,-105.5492"/>
</g>
<!-- GO:0044699 -->
<g id="node8" class="node">
<title>GO:0044699</title>
<polygon fill="#ffa500" stroke="#000000" points="415.5246,-152.6019 264.162,-152.6019 264.162,-111.3981 415.5246,-111.3981 415.5246,-152.6019"/>
<text text-anchor="middle" x="339.8433" y="-136.2" font-family="Times,serif" font-size="14.00" fill="#000000">GO:0044699</text>
<text text-anchor="middle" x="339.8433" y="-119.4" font-family="Times,serif" font-size="14.00" fill="#000000">single&#45;organism process</text>
</g>
<!-- GO:0044699&#45;&gt;GO:0008150 -->
<g id="edge9" class="edge">
<title>GO:0044699&#45;&gt;GO:0008150</title>
<path fill="none" stroke="#000000" d="M339.8433,-152.9504C339.8433,-165.4165 339.8433,-181.4645 339.8433,-195.3786"/>
<polygon fill="#000000" stroke="#000000" points="336.3434,-195.5081 339.8433,-205.5081 343.3434,-195.5082 336.3434,-195.5081"/>
</g>
<!-- GO:0044763 -->
<g id="node9" class="node">
<title>GO:0044763</title>
<polygon fill="#ffff00" stroke="#000000" points="354.5218,-58.6014 203.1648,-58.6014 203.1648,.2014 354.5218,.2014 354.5218,-58.6014"/>
<text text-anchor="middle" x="278.8433" y="-41.8" font-family="Times,serif" font-size="14.00" fill="#000000">GO:0044763</text>
<text text-anchor="middle" x="278.8433" y="-25" font-family="Times,serif" font-size="14.00" fill="#000000">single&#45;organism cellular</text>
<text text-anchor="middle" x="278.8433" y="-8.2" font-family="Times,serif" font-size="14.00" fill="#000000">process</text>
</g>
<!-- GO:0044763&#45;&gt;GO:0009987 -->
<g id="edge10" class="edge">
<title>GO:0044763&#45;&gt;GO:0009987</title>
<path fill="none" stroke="#000000" d="M254.4857,-58.6584C242.8392,-72.7438 228.955,-89.5355 217.4123,-103.4954"/>
<polygon fill="#000000" stroke="#000000" points="214.5963,-101.4086 210.9213,-111.3456 219.991,-105.8692 214.5963,-101.4086"/>
</g>
<!-- GO:0044763&#45;&gt;GO:0044699 -->
<g id="edge11" class="edge">
<title>GO:0044763&#45;&gt;GO:0044699</title>
<path fill="none" stroke="#000000" d="M296.3235,-58.6584C304.5253,-72.4805 314.2736,-88.9087 322.4628,-102.7096"/>
<polygon fill="#000000" stroke="#000000" points="319.4742,-104.5318 327.5873,-111.3456 325.4942,-100.9596 319.4742,-104.5318"/>
</g>
</g>
</svg>
