<?xml version="1.0" encoding="UTF-8" standalone="no"?>
<!DOCTYPE svg PUBLIC "-//W3C//DTD SVG 1.1//EN"
 "http://www.w3.org/Graphics/SVG/1.1/DTD/svg11.dtd">
<!-- Generated by graphviz version 2.40.1 (20161225.0304)
 -->
<!-- Title: G Pages: 1 -->
<svg width="134pt" height="299pt"
 viewBox="0.00 0.00 134.02 299.20" xmlns="http://www.w3.org/2000/svg" xmlns:xlink="http://www.w3.org/1999/xlink">
<g id="graph0" class="graph" transform="scale(1 1) rotate(0) translate(4 295.2)">
<title>G</title>
<polygon fill="#ffffff" stroke="transparent" points="-4,4 -4,-295.2 130.0218,-295.2 130.0218,4 -4,4"/>
<!-- GO:0008092 -->
<g id="node1" class="node">
<title>GO:0008092</title>
<polygon fill="#ffffff" stroke="#000000" points="126.0327,-58.6014 -.0109,-58.6014 -.0109,.2014 126.0327,.2014 126.0327,-58.6014"/>
<text text-anchor="middle" x="63.0109" y="-41.8" font-family="Times,serif" font-size="14.00" fill="#000000">GO:0008092</text>
<text text-anchor="middle" x="63.0109" y="-25" font-family="Times,serif" font-size="14.00" fill="#000000">cytoskeletal protein</text>
<text text-anchor="middle" x="63.0109" y="-8.2" font-family="Times,serif" font-size="14.00" fill="#000000">binding</text>
</g>
<!-- GO:0005515 -->
<g id="node2" class="node">
<title>GO:0005515</title>
<polygon fill="#ffffff" stroke="#000000" points="113.9485,-135.8019 12.0733,-135.8019 12.0733,-94.5981 113.9485,-94.5981 113.9485,-135.8019"/>
<text text-anchor="middle" x="63.0109" y="-119.4" font-family="Times,serif" font-size="14.00" fill="#000000">GO:0005515</text>
<text text-anchor="middle" x="63.0109" y="-102.6" font-family="Times,serif" font-size="14.00" fill="#000000">protein binding</text>
</g>
<!-- GO:0008092&#45;&gt;GO:0005515 -->
<g id="edge1" class="edge">
<title>GO:0008092&#45;&gt;GO:0005515</title>
<path fill="none" stroke="#000000" d="M63.0109,-58.7963C63.0109,-67.0638 63.0109,-76.0657 63.0109,-84.4008"/>
<polygon fill="#000000" stroke="#000000" points="59.511,-84.4965 63.0109,-94.4966 66.511,-84.4966 59.511,-84.4965"/>
</g>
<!-- GO:0005488 -->
<g id="node3" class="node">
<title>GO:0005488</title>
<polygon fill="#ffffff" stroke="#000000" points="107.6148,-213.4019 18.407,-213.4019 18.407,-172.1981 107.6148,-172.1981 107.6148,-213.4019"/>
<text text-anchor="middle" x="63.0109" y="-197" font-family="Times,serif" font-size="14.00" fill="#000000">GO:0005488</text>
<text text-anchor="middle" x="63.0109" y="-180.2" font-family="Times,serif" font-size="14.00" fill="#000000">binding</text>
</g>
<!-- GO:0005515&#45;&gt;GO:0005488 -->
<g id="edge2" class="edge">
<title>GO:0005515&#45;&gt;GO:0005488</title>
<path fill="none" stroke="#000000" d="M63.0109,-135.9954C63.0109,-143.9109 63.0109,-153.1109 63.0109,-161.7722"/>
<polygon fill="#000000" stroke="#000000" points="59.511,-161.9472 63.0109,-171.9472 66.511,-161.9473 59.511,-161.9472"/>
</g>
<!-- GO:0003674 -->
<g id="node4" class="node">
<title>GO:0003674</title>
<polygon fill="#ffffff" stroke="#000000" points="125.644,-291.0019 .3778,-291.0019 .3778,-249.7981 125.644,-249.7981 125.644,-291.0019"/>
<text text-anchor="middle" x="63.0109" y="-274.6" font-family="Times,serif" font-size="14.00" fill="#000000">GO:0003674</text>
<text text-anchor="middle" x="63.0109" y="-257.8" font-family="Times,serif" font-size="14.00" fill="#000000">molecular_function</text>
</g>
<!-- GO:0005488&#45;&gt;GO:0003674 -->
<g id="edge3" class="edge">
<title>GO:0005488&#45;&gt;GO:0003674</title>
<path fill="none" stroke="#000000" d="M63.0109,-213.5954C63.0109,-221.5109 63.0109,-230.7109 63.0109,-239.3722"/>
<polygon fill="#000000" stroke="#000000" points="59.511,-239.5472 63.0109,-249.5472 66.511,-239.5473 59.511,-239.5472"/>
</g>
</g>
</svg>
