<?xml version="1.0" encoding="UTF-8" standalone="no"?>
<!DOCTYPE svg PUBLIC "-//W3C//DTD SVG 1.1//EN"
 "http://www.w3.org/Graphics/SVG/1.1/DTD/svg11.dtd">
<!-- Generated by graphviz version 2.40.1 (20161225.0304)
 -->
<!-- Title: G Pages: 1 -->
<svg width="420pt" height="471pt"
 viewBox="0.00 0.00 420.44 471.20" xmlns="http://www.w3.org/2000/svg" xmlns:xlink="http://www.w3.org/1999/xlink">
<g id="graph0" class="graph" transform="scale(1 1) rotate(0) translate(4 467.2)">
<title>G</title>
<polygon fill="#ffffff" stroke="transparent" points="-4,4 -4,-467.2 416.4387,-467.2 416.4387,4 -4,4"/>
<!-- GO:0043229 -->
<g id="node1" class="node">
<title>GO:0043229</title>
<polygon fill="#ff0000" stroke="#000000" points="266.1767,-221.8019 126.7399,-221.8019 126.7399,-180.5981 266.1767,-180.5981 266.1767,-221.8019"/>
<text text-anchor="middle" x="196.4583" y="-205.4" font-family="Times,serif" font-size="14.00" fill="#000000">GO:0043229</text>
<text text-anchor="middle" x="196.4583" y="-188.6" font-family="Times,serif" font-size="14.00" fill="#000000">intracellular organelle</text>
</g>
<!-- GO:0044424 -->
<g id="node2" class="node">
<title>GO:0044424</title>
<polygon fill="#ffffff" stroke="#000000" points="191.8567,-307.8019 83.0599,-307.8019 83.0599,-266.5981 191.8567,-266.5981 191.8567,-307.8019"/>
<text text-anchor="middle" x="137.4583" y="-291.4" font-family="Times,serif" font-size="14.00" fill="#000000">GO:0044424</text>
<text text-anchor="middle" x="137.4583" y="-274.6" font-family="Times,serif" font-size="14.00" fill="#000000">intracellular part</text>
</g>
<!-- GO:0043229&#45;&gt;GO:0044424 -->
<g id="edge1" class="edge">
<title>GO:0043229&#45;&gt;GO:0044424</title>
<path fill="none" stroke="#000000" d="M182.176,-222.0182C174.7115,-232.8987 165.457,-246.3884 157.3069,-258.2681"/>
<polygon fill="#000000" stroke="#000000" points="154.3801,-256.3475 151.609,-266.5735 160.1523,-260.3075 154.3801,-256.3475"/>
</g>
<!-- GO:0043226 -->
<g id="node3" class="node">
<title>GO:0043226</title>
<polygon fill="#ffffff" stroke="#000000" points="299.0622,-307.8019 209.8544,-307.8019 209.8544,-266.5981 299.0622,-266.5981 299.0622,-307.8019"/>
<text text-anchor="middle" x="254.4583" y="-291.4" font-family="Times,serif" font-size="14.00" fill="#000000">GO:0043226</text>
<text text-anchor="middle" x="254.4583" y="-274.6" font-family="Times,serif" font-size="14.00" fill="#000000">organelle</text>
</g>
<!-- GO:0043229&#45;&gt;GO:0043226 -->
<g id="edge2" class="edge">
<title>GO:0043229&#45;&gt;GO:0043226</title>
<path fill="none" stroke="#000000" d="M210.4985,-222.0182C217.8365,-232.8987 226.9342,-246.3884 234.9461,-258.2681"/>
<polygon fill="#000000" stroke="#000000" points="232.0542,-260.2398 240.5474,-266.5735 237.8577,-256.3258 232.0542,-260.2398"/>
</g>
<!-- GO:0044464 -->
<g id="node4" class="node">
<title>GO:0044464</title>
<polygon fill="#ffffff" stroke="#000000" points="204.0622,-385.4019 114.8544,-385.4019 114.8544,-344.1981 204.0622,-344.1981 204.0622,-385.4019"/>
<text text-anchor="middle" x="159.4583" y="-369" font-family="Times,serif" font-size="14.00" fill="#000000">GO:0044464</text>
<text text-anchor="middle" x="159.4583" y="-352.2" font-family="Times,serif" font-size="14.00" fill="#000000">cell part</text>
</g>
<!-- GO:0044424&#45;&gt;GO:0044464 -->
<g id="edge3" class="edge">
<title>GO:0044424&#45;&gt;GO:0044464</title>
<path fill="none" stroke="#000000" d="M143.3539,-307.9954C145.6226,-315.9978 148.2636,-325.3133 150.7426,-334.0575"/>
<polygon fill="#000000" stroke="#000000" points="147.4515,-335.2811 153.5464,-343.9472 154.1861,-333.3717 147.4515,-335.2811"/>
</g>
<!-- GO:0005575 -->
<g id="node5" class="node">
<title>GO:0005575</title>
<polygon fill="#ffffff" stroke="#000000" points="307.145,-463.0019 179.7716,-463.0019 179.7716,-421.7981 307.145,-421.7981 307.145,-463.0019"/>
<text text-anchor="middle" x="243.4583" y="-446.6" font-family="Times,serif" font-size="14.00" fill="#000000">GO:0005575</text>
<text text-anchor="middle" x="243.4583" y="-429.8" font-family="Times,serif" font-size="14.00" fill="#000000">cellular_component</text>
</g>
<!-- GO:0043226&#45;&gt;GO:0005575 -->
<g id="edge4" class="edge">
<title>GO:0043226&#45;&gt;GO:0005575</title>
<path fill="none" stroke="#000000" d="M252.9976,-307.8094C251.1156,-334.3627 247.8273,-380.7577 245.6462,-411.5304"/>
<polygon fill="#000000" stroke="#000000" points="242.1409,-411.4829 244.9251,-421.7054 249.1234,-411.9779 242.1409,-411.4829"/>
</g>
<!-- GO:0044464&#45;&gt;GO:0005575 -->
<g id="edge10" class="edge">
<title>GO:0044464&#45;&gt;GO:0005575</title>
<path fill="none" stroke="#000000" d="M181.9688,-385.5954C191.5728,-394.4677 202.9238,-404.9539 213.2424,-414.4862"/>
<polygon fill="#000000" stroke="#000000" points="211.1653,-417.3324 220.8857,-421.5472 215.9153,-412.1906 211.1653,-417.3324"/>
</g>
<!-- GO:0043227 -->
<g id="node6" class="node">
<title>GO:0043227</title>
<polygon fill="#ffff00" stroke="#000000" points="412.4191,-230.6014 284.4975,-230.6014 284.4975,-171.7986 412.4191,-171.7986 412.4191,-230.6014"/>
<text text-anchor="middle" x="348.4583" y="-213.8" font-family="Times,serif" font-size="14.00" fill="#000000">GO:0043227</text>
<text text-anchor="middle" x="348.4583" y="-197" font-family="Times,serif" font-size="14.00" fill="#000000">membrane&#45;bounded</text>
<text text-anchor="middle" x="348.4583" y="-180.2" font-family="Times,serif" font-size="14.00" fill="#000000">organelle</text>
</g>
<!-- GO:0043227&#45;&gt;GO:0043226 -->
<g id="edge5" class="edge">
<title>GO:0043227&#45;&gt;GO:0043226</title>
<path fill="none" stroke="#000000" d="M316.3717,-230.5558C306.1152,-239.9394 294.8016,-250.2902 284.6823,-259.5483"/>
<polygon fill="#000000" stroke="#000000" points="282.2295,-257.0484 277.214,-266.3809 286.9547,-262.2131 282.2295,-257.0484"/>
</g>
<!-- GO:0005634 -->
<g id="node7" class="node">
<title>GO:0005634</title>
<polygon fill="#00ff00" stroke="#000000" points="317.0622,-41.4019 227.8544,-41.4019 227.8544,-.1981 317.0622,-.1981 317.0622,-41.4019"/>
<text text-anchor="middle" x="272.4583" y="-25" font-family="Times,serif" font-size="14.00" fill="#000000">GO:0005634</text>
<text text-anchor="middle" x="272.4583" y="-8.2" font-family="Times,serif" font-size="14.00" fill="#000000">nucleus</text>
</g>
<!-- GO:0043231 -->
<g id="node8" class="node">
<title>GO:0043231</title>
<polygon fill="#ffff00" stroke="#000000" points="347.8371,-136.2014 197.0795,-136.2014 197.0795,-77.3986 347.8371,-77.3986 347.8371,-136.2014"/>
<text text-anchor="middle" x="272.4583" y="-119.4" font-family="Times,serif" font-size="14.00" fill="#000000">GO:0043231</text>
<text text-anchor="middle" x="272.4583" y="-102.6" font-family="Times,serif" font-size="14.00" fill="#000000">intracellular membrane&#45;</text>
<text text-anchor="middle" x="272.4583" y="-85.8" font-family="Times,serif" font-size="14.00" fill="#000000">bounded organelle</text>
</g>
<!-- GO:0005634&#45;&gt;GO:0043231 -->
<g id="edge6" class="edge">
<title>GO:0005634&#45;&gt;GO:0043231</title>
<path fill="none" stroke="#000000" d="M272.4583,-41.6182C272.4583,-49.3358 272.4583,-58.3662 272.4583,-67.2036"/>
<polygon fill="#000000" stroke="#000000" points="268.9584,-67.3991 272.4583,-77.3991 275.9584,-67.3992 268.9584,-67.3991"/>
</g>
<!-- GO:0043231&#45;&gt;GO:0043229 -->
<g id="edge7" class="edge">
<title>GO:0043231&#45;&gt;GO:0043229</title>
<path fill="none" stroke="#000000" d="M248.828,-136.1513C239.5011,-147.7363 228.8197,-161.0037 219.5465,-172.522"/>
<polygon fill="#000000" stroke="#000000" points="216.6273,-170.5667 213.0825,-180.551 222.0799,-174.9565 216.6273,-170.5667"/>
</g>
<!-- GO:0043231&#45;&gt;GO:0043227 -->
<g id="edge8" class="edge">
<title>GO:0043231&#45;&gt;GO:0043227</title>
<path fill="none" stroke="#000000" d="M296.0886,-136.1513C303.166,-144.9422 311.0233,-154.7018 318.4534,-163.9308"/>
<polygon fill="#000000" stroke="#000000" points="315.8453,-166.2724 324.8426,-171.8669 321.2978,-161.8826 315.8453,-166.2724"/>
</g>
<!-- GO:0044444 -->
<g id="node9" class="node">
<title>GO:0044444</title>
<polygon fill="#00ffff" stroke="#000000" points="108.8749,-221.8019 .0417,-221.8019 .0417,-180.5981 108.8749,-180.5981 108.8749,-221.8019"/>
<text text-anchor="middle" x="54.4583" y="-205.4" font-family="Times,serif" font-size="14.00" fill="#000000">GO:0044444</text>
<text text-anchor="middle" x="54.4583" y="-188.6" font-family="Times,serif" font-size="14.00" fill="#000000">cytoplasmic part</text>
</g>
<!-- GO:0044444&#45;&gt;GO:0044424 -->
<g id="edge9" class="edge">
<title>GO:0044444&#45;&gt;GO:0044424</title>
<path fill="none" stroke="#000000" d="M74.5503,-222.0182C85.357,-233.2156 98.8309,-247.1764 110.5334,-259.3019"/>
<polygon fill="#000000" stroke="#000000" points="108.0884,-261.8086 117.5513,-266.5735 113.1253,-256.9475 108.0884,-261.8086"/>
</g>
<!-- GO:0044422 -->
<g id="node10" class="node">
<title>GO:0044422</title>
<polygon fill="#00ff00" stroke="#000000" points="365.3104,-385.4019 271.6062,-385.4019 271.6062,-344.1981 365.3104,-344.1981 365.3104,-385.4019"/>
<text text-anchor="middle" x="318.4583" y="-369" font-family="Times,serif" font-size="14.00" fill="#000000">GO:0044422</text>
<text text-anchor="middle" x="318.4583" y="-352.2" font-family="Times,serif" font-size="14.00" fill="#000000">organelle part</text>
</g>
<!-- GO:0044422&#45;&gt;GO:0005575 -->
<g id="edge11" class="edge">
<title>GO:0044422&#45;&gt;GO:0005575</title>
<path fill="none" stroke="#000000" d="M298.3597,-385.5954C289.8687,-394.3807 279.8484,-404.7484 270.7081,-414.2056"/>
<polygon fill="#000000" stroke="#000000" points="268.0453,-411.9243 263.6124,-421.5472 273.0787,-416.7891 268.0453,-411.9243"/>
</g>
</g>
</svg>
