<?xml version="1.0" encoding="UTF-8" standalone="no"?>
<!DOCTYPE svg PUBLIC "-//W3C//DTD SVG 1.1//EN"
 "http://www.w3.org/Graphics/SVG/1.1/DTD/svg11.dtd">
<!-- Generated by graphviz version 2.40.1 (20161225.0304)
 -->
<!-- Title: G Pages: 1 -->
<svg width="1046pt" height="427pt"
 viewBox="0.00 0.00 1046.29 427.20" xmlns="http://www.w3.org/2000/svg" xmlns:xlink="http://www.w3.org/1999/xlink">
<g id="graph0" class="graph" transform="scale(1 1) rotate(0) translate(4 423.2)">
<title>G</title>
<polygon fill="#ffffff" stroke="transparent" points="-4,4 -4,-423.2 1042.2946,-423.2 1042.2946,4 -4,4"/>
<!-- GO:0050789 -->
<g id="node1" class="node">
<title>GO:0050789</title>
<polygon fill="#00ffff" stroke="#000000" points="767.257,-341.8014 619.4282,-341.8014 619.4282,-282.9986 767.257,-282.9986 767.257,-341.8014"/>
<text text-anchor="middle" x="693.3426" y="-325" font-family="Times,serif" font-size="14.00" fill="#000000">GO:0050789</text>
<text text-anchor="middle" x="693.3426" y="-308.2" font-family="Times,serif" font-size="14.00" fill="#000000">regulation of biological</text>
<text text-anchor="middle" x="693.3426" y="-291.4" font-family="Times,serif" font-size="14.00" fill="#000000">process</text>
</g>
<!-- GO:0008150 -->
<g id="node2" class="node">
<title>GO:0008150</title>
<polygon fill="#ffffff" stroke="#000000" points="669.8132,-419.0019 548.872,-419.0019 548.872,-377.7981 669.8132,-377.7981 669.8132,-419.0019"/>
<text text-anchor="middle" x="609.3426" y="-402.6" font-family="Times,serif" font-size="14.00" fill="#000000">GO:0008150</text>
<text text-anchor="middle" x="609.3426" y="-385.8" font-family="Times,serif" font-size="14.00" fill="#000000">biological_process</text>
</g>
<!-- GO:0050789&#45;&gt;GO:0008150 -->
<g id="edge1" class="edge">
<title>GO:0050789&#45;&gt;GO:0008150</title>
<path fill="none" stroke="#000000" d="M664.4346,-341.9963C655.4621,-351.1824 645.604,-361.2752 636.7377,-370.3526"/>
<polygon fill="#000000" stroke="#000000" points="634.0482,-368.0972 629.5646,-377.6966 639.0558,-372.9884 634.0482,-368.0972"/>
</g>
<!-- GO:0044260 -->
<g id="node3" class="node">
<title>GO:0044260</title>
<polygon fill="#00ffff" stroke="#000000" points="266.115,-58.6014 118.5702,-58.6014 118.5702,.2014 266.115,.2014 266.115,-58.6014"/>
<text text-anchor="middle" x="192.3426" y="-41.8" font-family="Times,serif" font-size="14.00" fill="#000000">GO:0044260</text>
<text text-anchor="middle" x="192.3426" y="-25" font-family="Times,serif" font-size="14.00" fill="#000000">cellular macromolecule</text>
<text text-anchor="middle" x="192.3426" y="-8.2" font-family="Times,serif" font-size="14.00" fill="#000000">metabolic process</text>
</g>
<!-- GO:0044237 -->
<g id="node4" class="node">
<title>GO:0044237</title>
<polygon fill="#ffffff" stroke="#000000" points="434.5254,-247.4014 318.1598,-247.4014 318.1598,-188.5986 434.5254,-188.5986 434.5254,-247.4014"/>
<text text-anchor="middle" x="376.3426" y="-230.6" font-family="Times,serif" font-size="14.00" fill="#000000">GO:0044237</text>
<text text-anchor="middle" x="376.3426" y="-213.8" font-family="Times,serif" font-size="14.00" fill="#000000">cellular metabolic</text>
<text text-anchor="middle" x="376.3426" y="-197" font-family="Times,serif" font-size="14.00" fill="#000000">process</text>
</g>
<!-- GO:0044260&#45;&gt;GO:0044237 -->
<g id="edge2" class="edge">
<title>GO:0044260&#45;&gt;GO:0044237</title>
<path fill="none" stroke="#000000" d="M221.0926,-58.7C253.3645,-91.8138 305.7615,-145.5777 340.6329,-181.3587"/>
<polygon fill="#000000" stroke="#000000" points="338.3085,-183.9884 347.7945,-188.7072 343.3216,-179.1028 338.3085,-183.9884"/>
</g>
<!-- GO:0043170 -->
<g id="node5" class="node">
<title>GO:0043170</title>
<polygon fill="#ffffff" stroke="#000000" points="191.8448,-153.0014 30.8404,-153.0014 30.8404,-94.1986 191.8448,-94.1986 191.8448,-153.0014"/>
<text text-anchor="middle" x="111.3426" y="-136.2" font-family="Times,serif" font-size="14.00" fill="#000000">GO:0043170</text>
<text text-anchor="middle" x="111.3426" y="-119.4" font-family="Times,serif" font-size="14.00" fill="#000000">macromolecule metabolic</text>
<text text-anchor="middle" x="111.3426" y="-102.6" font-family="Times,serif" font-size="14.00" fill="#000000">process</text>
</g>
<!-- GO:0044260&#45;&gt;GO:0043170 -->
<g id="edge3" class="edge">
<title>GO:0044260&#45;&gt;GO:0043170</title>
<path fill="none" stroke="#000000" d="M167.1577,-58.5513C159.5385,-67.431 151.0712,-77.299 143.0817,-86.6103"/>
<polygon fill="#000000" stroke="#000000" points="140.3676,-84.3985 136.5119,-94.2669 145.6801,-88.9569 140.3676,-84.3985"/>
</g>
<!-- GO:0009987 -->
<g id="node6" class="node">
<title>GO:0009987</title>
<polygon fill="#ffa500" stroke="#000000" points="431.2988,-333.0019 327.3864,-333.0019 327.3864,-291.7981 431.2988,-291.7981 431.2988,-333.0019"/>
<text text-anchor="middle" x="379.3426" y="-316.6" font-family="Times,serif" font-size="14.00" fill="#000000">GO:0009987</text>
<text text-anchor="middle" x="379.3426" y="-299.8" font-family="Times,serif" font-size="14.00" fill="#000000">cellular process</text>
</g>
<!-- GO:0044237&#45;&gt;GO:0009987 -->
<g id="edge4" class="edge">
<title>GO:0044237&#45;&gt;GO:0009987</title>
<path fill="none" stroke="#000000" d="M377.2754,-247.3513C377.6221,-258.2614 378.0162,-270.6637 378.3667,-281.692"/>
<polygon fill="#000000" stroke="#000000" points="374.8704,-281.8672 378.6864,-291.751 381.8669,-281.6448 374.8704,-281.8672"/>
</g>
<!-- GO:0008152 -->
<g id="node7" class="node">
<title>GO:0008152</title>
<polygon fill="#00ff00" stroke="#000000" points="294.5282,-333.0019 178.157,-333.0019 178.157,-291.7981 294.5282,-291.7981 294.5282,-333.0019"/>
<text text-anchor="middle" x="236.3426" y="-316.6" font-family="Times,serif" font-size="14.00" fill="#000000">GO:0008152</text>
<text text-anchor="middle" x="236.3426" y="-299.8" font-family="Times,serif" font-size="14.00" fill="#000000">metabolic process</text>
</g>
<!-- GO:0044237&#45;&gt;GO:0008152 -->
<g id="edge5" class="edge">
<title>GO:0044237&#45;&gt;GO:0008152</title>
<path fill="none" stroke="#000000" d="M332.8131,-247.3513C314.4643,-259.7236 293.2698,-274.0148 275.4282,-286.0451"/>
<polygon fill="#000000" stroke="#000000" points="273.3006,-283.2583 266.9661,-291.751 277.2141,-289.0622 273.3006,-283.2583"/>
</g>
<!-- GO:0071704 -->
<g id="node8" class="node">
<title>GO:0071704</title>
<polygon fill="#00ff00" stroke="#000000" points="116.5282,-247.4014 .157,-247.4014 .157,-188.5986 116.5282,-188.5986 116.5282,-247.4014"/>
<text text-anchor="middle" x="58.3426" y="-230.6" font-family="Times,serif" font-size="14.00" fill="#000000">GO:0071704</text>
<text text-anchor="middle" x="58.3426" y="-213.8" font-family="Times,serif" font-size="14.00" fill="#000000">organic substance</text>
<text text-anchor="middle" x="58.3426" y="-197" font-family="Times,serif" font-size="14.00" fill="#000000">metabolic process</text>
</g>
<!-- GO:0043170&#45;&gt;GO:0071704 -->
<g id="edge6" class="edge">
<title>GO:0043170&#45;&gt;GO:0071704</title>
<path fill="none" stroke="#000000" d="M94.8636,-152.9513C90.0776,-161.4758 84.7802,-170.9111 79.7389,-179.8904"/>
<polygon fill="#000000" stroke="#000000" points="76.6552,-178.2337 74.8114,-188.6669 82.759,-181.6606 76.6552,-178.2337"/>
</g>
<!-- GO:0009987&#45;&gt;GO:0008150 -->
<g id="edge7" class="edge">
<title>GO:0009987&#45;&gt;GO:0008150</title>
<path fill="none" stroke="#000000" d="M420.7118,-333.0362C427.2229,-336.0416 433.9233,-338.9962 440.3426,-341.6 472.3071,-354.5655 508.4673,-367.0063 539.1132,-376.9223"/>
<polygon fill="#000000" stroke="#000000" points="538.2659,-380.3262 548.8572,-380.0505 540.4057,-373.6612 538.2659,-380.3262"/>
</g>
<!-- GO:0008152&#45;&gt;GO:0008150 -->
<g id="edge8" class="edge">
<title>GO:0008152&#45;&gt;GO:0008150</title>
<path fill="none" stroke="#000000" d="M290.6752,-333.0259C299.8373,-336.1348 309.3063,-339.1241 318.3426,-341.6 392.6086,-361.9485 479.4478,-377.9111 538.8057,-387.6652"/>
<polygon fill="#000000" stroke="#000000" points="538.3915,-391.1438 548.8238,-389.2954 539.5158,-384.2346 538.3915,-391.1438"/>
</g>
<!-- GO:0071704&#45;&gt;GO:0008152 -->
<g id="edge9" class="edge">
<title>GO:0071704&#45;&gt;GO:0008152</title>
<path fill="none" stroke="#000000" d="M113.6872,-247.3513C137.6526,-260.0611 165.4363,-274.7957 188.4943,-287.0243"/>
<polygon fill="#000000" stroke="#000000" points="186.9326,-290.1577 197.407,-291.751 190.2123,-283.9736 186.9326,-290.1577"/>
</g>
<!-- GO:0065007 -->
<g id="node9" class="node">
<title>GO:0065007</title>
<polygon fill="#00ffff" stroke="#000000" points="917.596,-333.0019 785.0892,-333.0019 785.0892,-291.7981 917.596,-291.7981 917.596,-333.0019"/>
<text text-anchor="middle" x="851.3426" y="-316.6" font-family="Times,serif" font-size="14.00" fill="#000000">GO:0065007</text>
<text text-anchor="middle" x="851.3426" y="-299.8" font-family="Times,serif" font-size="14.00" fill="#000000">biological regulation</text>
</g>
<!-- GO:0065007&#45;&gt;GO:0008150 -->
<g id="edge10" class="edge">
<title>GO:0065007&#45;&gt;GO:0008150</title>
<path fill="none" stroke="#000000" d="M799.0002,-333.1125C791.4183,-336.0154 783.6942,-338.9201 776.3426,-341.6 744.6686,-353.1462 709.354,-365.2656 679.3872,-375.3301"/>
<polygon fill="#000000" stroke="#000000" points="678.2275,-372.0273 669.857,-378.5222 680.4509,-378.6648 678.2275,-372.0273"/>
</g>
<!-- GO:0006810 -->
<g id="node10" class="node">
<title>GO:0006810</title>
<polygon fill="#00ffff" stroke="#000000" points="1024.9465,-144.2019 935.7387,-144.2019 935.7387,-102.9981 1024.9465,-102.9981 1024.9465,-144.2019"/>
<text text-anchor="middle" x="980.3426" y="-127.8" font-family="Times,serif" font-size="14.00" fill="#000000">GO:0006810</text>
<text text-anchor="middle" x="980.3426" y="-111" font-family="Times,serif" font-size="14.00" fill="#000000">transport</text>
</g>
<!-- GO:0051234 -->
<g id="node11" class="node">
<title>GO:0051234</title>
<polygon fill="#ffffff" stroke="#000000" points="1034.4893,-247.4014 926.1959,-247.4014 926.1959,-188.5986 1034.4893,-188.5986 1034.4893,-247.4014"/>
<text text-anchor="middle" x="980.3426" y="-230.6" font-family="Times,serif" font-size="14.00" fill="#000000">GO:0051234</text>
<text text-anchor="middle" x="980.3426" y="-213.8" font-family="Times,serif" font-size="14.00" fill="#000000">establishment of</text>
<text text-anchor="middle" x="980.3426" y="-197" font-family="Times,serif" font-size="14.00" fill="#000000">localization</text>
</g>
<!-- GO:0006810&#45;&gt;GO:0051234 -->
<g id="edge11" class="edge">
<title>GO:0006810&#45;&gt;GO:0051234</title>
<path fill="none" stroke="#000000" d="M980.3426,-144.5504C980.3426,-154.5492 980.3426,-166.8525 980.3426,-178.5106"/>
<polygon fill="#000000" stroke="#000000" points="976.8427,-178.5155 980.3426,-188.5155 983.8427,-178.5156 976.8427,-178.5155"/>
</g>
<!-- GO:0051179 -->
<g id="node12" class="node">
<title>GO:0051179</title>
<polygon fill="#00ffff" stroke="#000000" points="1024.9465,-333.0019 935.7387,-333.0019 935.7387,-291.7981 1024.9465,-291.7981 1024.9465,-333.0019"/>
<text text-anchor="middle" x="980.3426" y="-316.6" font-family="Times,serif" font-size="14.00" fill="#000000">GO:0051179</text>
<text text-anchor="middle" x="980.3426" y="-299.8" font-family="Times,serif" font-size="14.00" fill="#000000">localization</text>
</g>
<!-- GO:0051234&#45;&gt;GO:0051179 -->
<g id="edge12" class="edge">
<title>GO:0051234&#45;&gt;GO:0051179</title>
<path fill="none" stroke="#000000" d="M980.3426,-247.3513C980.3426,-258.2614 980.3426,-270.6637 980.3426,-281.692"/>
<polygon fill="#000000" stroke="#000000" points="976.8427,-281.7509 980.3426,-291.751 983.8427,-281.751 976.8427,-281.7509"/>
</g>
<!-- GO:0051179&#45;&gt;GO:0008150 -->
<g id="edge13" class="edge">
<title>GO:0051179&#45;&gt;GO:0008150</title>
<path fill="none" stroke="#000000" d="M945.9387,-333.0886C939.5814,-336.3043 932.8817,-339.3126 926.3426,-341.6 844.5618,-370.2075 745.6371,-384.9937 680.2881,-392.2092"/>
<polygon fill="#000000" stroke="#000000" points="679.6653,-388.7558 670.096,-393.3032 680.4124,-395.7159 679.6653,-388.7558"/>
</g>
<!-- GO:0050794 -->
<g id="node13" class="node">
<title>GO:0050794</title>
<polygon fill="#00ffff" stroke="#000000" points="834.2416,-247.4014 700.4436,-247.4014 700.4436,-188.5986 834.2416,-188.5986 834.2416,-247.4014"/>
<text text-anchor="middle" x="767.3426" y="-230.6" font-family="Times,serif" font-size="14.00" fill="#000000">GO:0050794</text>
<text text-anchor="middle" x="767.3426" y="-213.8" font-family="Times,serif" font-size="14.00" fill="#000000">regulation of cellular</text>
<text text-anchor="middle" x="767.3426" y="-197" font-family="Times,serif" font-size="14.00" fill="#000000">process</text>
</g>
<!-- GO:0050794&#45;&gt;GO:0050789 -->
<g id="edge15" class="edge">
<title>GO:0050794&#45;&gt;GO:0050789</title>
<path fill="none" stroke="#000000" d="M744.3342,-247.3513C737.443,-256.1422 729.7925,-265.9018 722.5579,-275.1308"/>
<polygon fill="#000000" stroke="#000000" points="719.7517,-273.0374 716.3368,-283.0669 725.2608,-277.356 719.7517,-273.0374"/>
</g>
<!-- GO:0050794&#45;&gt;GO:0065007 -->
<g id="edge14" class="edge">
<title>GO:0050794&#45;&gt;GO:0065007</title>
<path fill="none" stroke="#000000" d="M793.4603,-247.3513C803.869,-259.0488 815.8041,-272.4615 826.1222,-284.057"/>
<polygon fill="#000000" stroke="#000000" points="823.7062,-286.607 832.9685,-291.751 828.9356,-281.9537 823.7062,-286.607"/>
</g>
<!-- GO:0044699 -->
<g id="node14" class="node">
<title>GO:0044699</title>
<polygon fill="#00ff00" stroke="#000000" points="601.0239,-333.0019 449.6613,-333.0019 449.6613,-291.7981 601.0239,-291.7981 601.0239,-333.0019"/>
<text text-anchor="middle" x="525.3426" y="-316.6" font-family="Times,serif" font-size="14.00" fill="#000000">GO:0044699</text>
<text text-anchor="middle" x="525.3426" y="-299.8" font-family="Times,serif" font-size="14.00" fill="#000000">single&#45;organism process</text>
</g>
<!-- GO:0044699&#45;&gt;GO:0008150 -->
<g id="edge16" class="edge">
<title>GO:0044699&#45;&gt;GO:0008150</title>
<path fill="none" stroke="#000000" d="M545.6767,-333.2182C556.6136,-344.4156 570.2498,-358.3764 582.0933,-370.5019"/>
<polygon fill="#000000" stroke="#000000" points="579.7045,-373.0653 589.1958,-377.7735 584.7122,-368.1741 579.7045,-373.0653"/>
</g>
<!-- GO:0071702 -->
<g id="node15" class="node">
<title>GO:0071702</title>
<polygon fill="#ff00ff" stroke="#000000" points="1038.2466,-58.6014 922.4386,-58.6014 922.4386,.2014 1038.2466,.2014 1038.2466,-58.6014"/>
<text text-anchor="middle" x="980.3426" y="-41.8" font-family="Times,serif" font-size="14.00" fill="#000000">GO:0071702</text>
<text text-anchor="middle" x="980.3426" y="-25" font-family="Times,serif" font-size="14.00" fill="#000000">organic substance</text>
<text text-anchor="middle" x="980.3426" y="-8.2" font-family="Times,serif" font-size="14.00" fill="#000000">transport</text>
</g>
<!-- GO:0071702&#45;&gt;GO:0006810 -->
<g id="edge17" class="edge">
<title>GO:0071702&#45;&gt;GO:0006810</title>
<path fill="none" stroke="#000000" d="M980.3426,-58.5513C980.3426,-69.4614 980.3426,-81.8637 980.3426,-92.892"/>
<polygon fill="#000000" stroke="#000000" points="976.8427,-92.9509 980.3426,-102.951 983.8427,-92.951 976.8427,-92.9509"/>
</g>
<!-- GO:0044763 -->
<g id="node16" class="node">
<title>GO:0044763</title>
<polygon fill="#00ffff" stroke="#000000" points="604.0211,-247.4014 452.6641,-247.4014 452.6641,-188.5986 604.0211,-188.5986 604.0211,-247.4014"/>
<text text-anchor="middle" x="528.3426" y="-230.6" font-family="Times,serif" font-size="14.00" fill="#000000">GO:0044763</text>
<text text-anchor="middle" x="528.3426" y="-213.8" font-family="Times,serif" font-size="14.00" fill="#000000">single&#45;organism cellular</text>
<text text-anchor="middle" x="528.3426" y="-197" font-family="Times,serif" font-size="14.00" fill="#000000">process</text>
</g>
<!-- GO:0044763&#45;&gt;GO:0009987 -->
<g id="edge18" class="edge">
<title>GO:0044763&#45;&gt;GO:0009987</title>
<path fill="none" stroke="#000000" d="M482.0148,-247.3513C462.3089,-259.8361 439.519,-274.2748 420.4239,-286.3727"/>
<polygon fill="#000000" stroke="#000000" points="418.509,-283.4425 411.9348,-291.751 422.2553,-289.3556 418.509,-283.4425"/>
</g>
<!-- GO:0044763&#45;&gt;GO:0044699 -->
<g id="edge19" class="edge">
<title>GO:0044763&#45;&gt;GO:0044699</title>
<path fill="none" stroke="#000000" d="M527.4098,-247.3513C527.0631,-258.2614 526.669,-270.6637 526.3185,-281.692"/>
<polygon fill="#000000" stroke="#000000" points="522.8183,-281.6448 525.9988,-291.751 529.8148,-281.8672 522.8183,-281.6448"/>
</g>
<!-- GO:0044238 -->
<g id="node17" class="node">
<title>GO:0044238</title>
<polygon fill="#00ff00" stroke="#000000" points="299.3456,-238.6019 135.3396,-238.6019 135.3396,-197.3981 299.3456,-197.3981 299.3456,-238.6019"/>
<text text-anchor="middle" x="217.3426" y="-222.2" font-family="Times,serif" font-size="14.00" fill="#000000">GO:0044238</text>
<text text-anchor="middle" x="217.3426" y="-205.4" font-family="Times,serif" font-size="14.00" fill="#000000">primary metabolic process</text>
</g>
<!-- GO:0044238&#45;&gt;GO:0008152 -->
<g id="edge20" class="edge">
<title>GO:0044238&#45;&gt;GO:0008152</title>
<path fill="none" stroke="#000000" d="M221.5593,-238.9504C224.0684,-251.4165 227.2984,-267.4645 230.0989,-281.3786"/>
<polygon fill="#000000" stroke="#000000" points="226.7333,-282.3954 232.1377,-291.5081 233.5956,-281.0141 226.7333,-282.3954"/>
</g>
</g>
</svg>
