<?xml version="1.0" encoding="UTF-8" standalone="no"?>
<!DOCTYPE svg PUBLIC "-//W3C//DTD SVG 1.1//EN"
 "http://www.w3.org/Graphics/SVG/1.1/DTD/svg11.dtd">
<!-- Generated by graphviz version 2.40.1 (20161225.0304)
 -->
<!-- Title: G Pages: 1 -->
<svg width="343pt" height="299pt"
 viewBox="0.00 0.00 343.21 299.20" xmlns="http://www.w3.org/2000/svg" xmlns:xlink="http://www.w3.org/1999/xlink">
<g id="graph0" class="graph" transform="scale(1 1) rotate(0) translate(4 295.2)">
<title>G</title>
<polygon fill="#ffffff" stroke="transparent" points="-4,4 -4,-295.2 339.2115,-295.2 339.2115,4 -4,4"/>
<!-- GO:0003676 -->
<g id="node1" class="node">
<title>GO:0003676</title>
<polygon fill="#00ffff" stroke="#000000" points="228.2822,-41.4019 99.2284,-41.4019 99.2284,-.1981 228.2822,-.1981 228.2822,-41.4019"/>
<text text-anchor="middle" x="163.7553" y="-25" font-family="Times,serif" font-size="14.00" fill="#000000">GO:0003676</text>
<text text-anchor="middle" x="163.7553" y="-8.2" font-family="Times,serif" font-size="14.00" fill="#000000">nucleic acid binding</text>
</g>
<!-- GO:0097159 -->
<g id="node2" class="node">
<title>GO:0097159</title>
<polygon fill="#00ff00" stroke="#000000" points="157.2667,-136.2014 .2439,-136.2014 .2439,-77.3986 157.2667,-77.3986 157.2667,-136.2014"/>
<text text-anchor="middle" x="78.7553" y="-119.4" font-family="Times,serif" font-size="14.00" fill="#000000">GO:0097159</text>
<text text-anchor="middle" x="78.7553" y="-102.6" font-family="Times,serif" font-size="14.00" fill="#000000">organic cyclic compound</text>
<text text-anchor="middle" x="78.7553" y="-85.8" font-family="Times,serif" font-size="14.00" fill="#000000">binding</text>
</g>
<!-- GO:0003676&#45;&gt;GO:0097159 -->
<g id="edge1" class="edge">
<title>GO:0003676&#45;&gt;GO:0097159</title>
<path fill="none" stroke="#000000" d="M143.1792,-41.6182C134.7222,-50.1747 124.6703,-60.3448 115.0517,-70.0766"/>
<polygon fill="#000000" stroke="#000000" points="112.3546,-67.8264 107.8143,-77.3991 117.3332,-72.7472 112.3546,-67.8264"/>
</g>
<!-- GO:1901363 -->
<g id="node3" class="node">
<title>GO:1901363</title>
<polygon fill="#00ff00" stroke="#000000" points="322.2659,-136.2014 175.2447,-136.2014 175.2447,-77.3986 322.2659,-77.3986 322.2659,-136.2014"/>
<text text-anchor="middle" x="248.7553" y="-119.4" font-family="Times,serif" font-size="14.00" fill="#000000">GO:1901363</text>
<text text-anchor="middle" x="248.7553" y="-102.6" font-family="Times,serif" font-size="14.00" fill="#000000">heterocyclic compound</text>
<text text-anchor="middle" x="248.7553" y="-85.8" font-family="Times,serif" font-size="14.00" fill="#000000">binding</text>
</g>
<!-- GO:0003676&#45;&gt;GO:1901363 -->
<g id="edge2" class="edge">
<title>GO:0003676&#45;&gt;GO:1901363</title>
<path fill="none" stroke="#000000" d="M184.3314,-41.6182C192.7884,-50.1747 202.8403,-60.3448 212.4589,-70.0766"/>
<polygon fill="#000000" stroke="#000000" points="210.1774,-72.7472 219.6963,-77.3991 215.156,-67.8264 210.1774,-72.7472"/>
</g>
<!-- GO:0005488 -->
<g id="node4" class="node">
<title>GO:0005488</title>
<polygon fill="#ffffff" stroke="#000000" points="208.3592,-213.4019 119.1514,-213.4019 119.1514,-172.1981 208.3592,-172.1981 208.3592,-213.4019"/>
<text text-anchor="middle" x="163.7553" y="-197" font-family="Times,serif" font-size="14.00" fill="#000000">GO:0005488</text>
<text text-anchor="middle" x="163.7553" y="-180.2" font-family="Times,serif" font-size="14.00" fill="#000000">binding</text>
</g>
<!-- GO:0097159&#45;&gt;GO:0005488 -->
<g id="edge3" class="edge">
<title>GO:0097159&#45;&gt;GO:0005488</title>
<path fill="none" stroke="#000000" d="M108.0075,-136.3963C117.0867,-145.5824 127.0622,-155.6752 136.034,-164.7526"/>
<polygon fill="#000000" stroke="#000000" points="133.7736,-167.4446 143.2926,-172.0966 138.7523,-162.5239 133.7736,-167.4446"/>
</g>
<!-- GO:1901363&#45;&gt;GO:0005488 -->
<g id="edge4" class="edge">
<title>GO:1901363&#45;&gt;GO:0005488</title>
<path fill="none" stroke="#000000" d="M219.5031,-136.3963C210.4239,-145.5824 200.4484,-155.6752 191.4766,-164.7526"/>
<polygon fill="#000000" stroke="#000000" points="188.7583,-162.5239 184.218,-172.0966 193.737,-167.4446 188.7583,-162.5239"/>
</g>
<!-- GO:0003674 -->
<g id="node5" class="node">
<title>GO:0003674</title>
<polygon fill="#ffffff" stroke="#000000" points="284.3884,-291.0019 159.1222,-291.0019 159.1222,-249.7981 284.3884,-249.7981 284.3884,-291.0019"/>
<text text-anchor="middle" x="221.7553" y="-274.6" font-family="Times,serif" font-size="14.00" fill="#000000">GO:0003674</text>
<text text-anchor="middle" x="221.7553" y="-257.8" font-family="Times,serif" font-size="14.00" fill="#000000">molecular_function</text>
</g>
<!-- GO:0005488&#45;&gt;GO:0003674 -->
<g id="edge5" class="edge">
<title>GO:0005488&#45;&gt;GO:0003674</title>
<path fill="none" stroke="#000000" d="M179.2982,-213.5954C185.6695,-222.1197 193.1544,-232.1339 200.0505,-241.3605"/>
<polygon fill="#000000" stroke="#000000" points="197.3792,-243.6327 206.1695,-249.5472 202.9861,-239.4419 197.3792,-243.6327"/>
</g>
<!-- GO:0003824 -->
<g id="node6" class="node">
<title>GO:0003824</title>
<polygon fill="#00ff00" stroke="#000000" points="335.1677,-213.4019 226.3429,-213.4019 226.3429,-172.1981 335.1677,-172.1981 335.1677,-213.4019"/>
<text text-anchor="middle" x="280.7553" y="-197" font-family="Times,serif" font-size="14.00" fill="#000000">GO:0003824</text>
<text text-anchor="middle" x="280.7553" y="-180.2" font-family="Times,serif" font-size="14.00" fill="#000000">catalytic activity</text>
</g>
<!-- GO:0003824&#45;&gt;GO:0003674 -->
<g id="edge6" class="edge">
<title>GO:0003824&#45;&gt;GO:0003674</title>
<path fill="none" stroke="#000000" d="M264.9444,-213.5954C258.4632,-222.1197 250.8494,-232.1339 243.8343,-241.3605"/>
<polygon fill="#000000" stroke="#000000" points="240.8761,-239.4684 237.6099,-249.5472 246.4485,-243.7051 240.8761,-239.4684"/>
</g>
</g>
</svg>
