<?xml version="1.0" encoding="UTF-8" standalone="no"?>
<!DOCTYPE svg PUBLIC "-//W3C//DTD SVG 1.1//EN"
 "http://www.w3.org/Graphics/SVG/1.1/DTD/svg11.dtd">
<!-- Generated by graphviz version 2.40.1 (20161225.0304)
 -->
<!-- Title: G Pages: 1 -->
<svg width="719pt" height="471pt"
 viewBox="0.00 0.00 718.66 471.20" xmlns="http://www.w3.org/2000/svg" xmlns:xlink="http://www.w3.org/1999/xlink">
<g id="graph0" class="graph" transform="scale(1 1) rotate(0) translate(4 467.2)">
<title>G</title>
<polygon fill="#ffffff" stroke="transparent" points="-4,4 -4,-467.2 714.6561,-467.2 714.6561,4 -4,4"/>
<!-- GO:0044464 -->
<g id="node1" class="node">
<title>GO:0044464</title>
<polygon fill="#ff0000" stroke="#000000" points="315.5843,-385.4019 226.3765,-385.4019 226.3765,-344.1981 315.5843,-344.1981 315.5843,-385.4019"/>
<text text-anchor="middle" x="270.9804" y="-369" font-family="Times,serif" font-size="14.00" fill="#000000">GO:0044464</text>
<text text-anchor="middle" x="270.9804" y="-352.2" font-family="Times,serif" font-size="14.00" fill="#000000">cell part</text>
</g>
<!-- GO:0005575 -->
<g id="node2" class="node">
<title>GO:0005575</title>
<polygon fill="#ffffff" stroke="#000000" points="441.6671,-463.0019 314.2937,-463.0019 314.2937,-421.7981 441.6671,-421.7981 441.6671,-463.0019"/>
<text text-anchor="middle" x="377.9804" y="-446.6" font-family="Times,serif" font-size="14.00" fill="#000000">GO:0005575</text>
<text text-anchor="middle" x="377.9804" y="-429.8" font-family="Times,serif" font-size="14.00" fill="#000000">cellular_component</text>
</g>
<!-- GO:0044464&#45;&gt;GO:0005575 -->
<g id="edge1" class="edge">
<title>GO:0044464&#45;&gt;GO:0005575</title>
<path fill="none" stroke="#000000" d="M299.6544,-385.5954C312.3679,-394.8156 327.4847,-405.7788 341.0311,-415.6031"/>
<polygon fill="#000000" stroke="#000000" points="339.0772,-418.5096 349.2272,-421.5472 343.1868,-412.8429 339.0772,-418.5096"/>
</g>
<!-- GO:0043229 -->
<g id="node3" class="node">
<title>GO:0043229</title>
<polygon fill="#ffa500" stroke="#000000" points="285.6988,-221.8019 146.262,-221.8019 146.262,-180.5981 285.6988,-180.5981 285.6988,-221.8019"/>
<text text-anchor="middle" x="215.9804" y="-205.4" font-family="Times,serif" font-size="14.00" fill="#000000">GO:0043229</text>
<text text-anchor="middle" x="215.9804" y="-188.6" font-family="Times,serif" font-size="14.00" fill="#000000">intracellular organelle</text>
</g>
<!-- GO:0044424 -->
<g id="node4" class="node">
<title>GO:0044424</title>
<polygon fill="#ff0000" stroke="#000000" points="402.3788,-307.8019 293.582,-307.8019 293.582,-266.5981 402.3788,-266.5981 402.3788,-307.8019"/>
<text text-anchor="middle" x="347.9804" y="-291.4" font-family="Times,serif" font-size="14.00" fill="#000000">GO:0044424</text>
<text text-anchor="middle" x="347.9804" y="-274.6" font-family="Times,serif" font-size="14.00" fill="#000000">intracellular part</text>
</g>
<!-- GO:0043229&#45;&gt;GO:0044424 -->
<g id="edge2" class="edge">
<title>GO:0043229&#45;&gt;GO:0044424</title>
<path fill="none" stroke="#000000" d="M247.9339,-222.0182C265.9313,-233.7437 288.5798,-248.4996 307.7742,-261.0051"/>
<polygon fill="#000000" stroke="#000000" points="306.0319,-264.0472 316.3211,-266.5735 309.8531,-258.1821 306.0319,-264.0472"/>
</g>
<!-- GO:0043226 -->
<g id="node5" class="node">
<title>GO:0043226</title>
<polygon fill="#ff0000" stroke="#000000" points="242.5843,-307.8019 153.3765,-307.8019 153.3765,-266.5981 242.5843,-266.5981 242.5843,-307.8019"/>
<text text-anchor="middle" x="197.9804" y="-291.4" font-family="Times,serif" font-size="14.00" fill="#000000">GO:0043226</text>
<text text-anchor="middle" x="197.9804" y="-274.6" font-family="Times,serif" font-size="14.00" fill="#000000">organelle</text>
</g>
<!-- GO:0043229&#45;&gt;GO:0043226 -->
<g id="edge3" class="edge">
<title>GO:0043229&#45;&gt;GO:0043226</title>
<path fill="none" stroke="#000000" d="M211.6231,-222.0182C209.4563,-232.3705 206.7952,-245.0848 204.4003,-256.5271"/>
<polygon fill="#000000" stroke="#000000" points="200.9205,-256.0686 202.2976,-266.5735 207.772,-257.5027 200.9205,-256.0686"/>
</g>
<!-- GO:0044424&#45;&gt;GO:0044464 -->
<g id="edge4" class="edge">
<title>GO:0044424&#45;&gt;GO:0044464</title>
<path fill="none" stroke="#000000" d="M327.3458,-307.9954C318.6284,-316.7807 308.3409,-327.1484 298.9568,-336.6056"/>
<polygon fill="#000000" stroke="#000000" points="296.2311,-334.3835 291.6719,-343.9472 301.2,-339.314 296.2311,-334.3835"/>
</g>
<!-- GO:0043226&#45;&gt;GO:0005575 -->
<g id="edge5" class="edge">
<title>GO:0043226&#45;&gt;GO:0005575</title>
<path fill="none" stroke="#000000" d="M196.3619,-307.8155C195.7959,-329.6793 198.3552,-363.9829 216.9804,-385.6 229.1015,-399.6682 267.9285,-413.5725 304.4143,-424.103"/>
<polygon fill="#000000" stroke="#000000" points="303.544,-427.494 314.1188,-426.8429 305.446,-420.7574 303.544,-427.494"/>
</g>
<!-- GO:0043227 -->
<g id="node6" class="node">
<title>GO:0043227</title>
<polygon fill="#ffa500" stroke="#000000" points="127.9412,-230.6014 .0196,-230.6014 .0196,-171.7986 127.9412,-171.7986 127.9412,-230.6014"/>
<text text-anchor="middle" x="63.9804" y="-213.8" font-family="Times,serif" font-size="14.00" fill="#000000">GO:0043227</text>
<text text-anchor="middle" x="63.9804" y="-197" font-family="Times,serif" font-size="14.00" fill="#000000">membrane&#45;bounded</text>
<text text-anchor="middle" x="63.9804" y="-180.2" font-family="Times,serif" font-size="14.00" fill="#000000">organelle</text>
</g>
<!-- GO:0043227&#45;&gt;GO:0043226 -->
<g id="edge6" class="edge">
<title>GO:0043227&#45;&gt;GO:0043226</title>
<path fill="none" stroke="#000000" d="M109.7208,-230.5558C125.0585,-240.3994 142.0545,-251.3073 157.0039,-260.9017"/>
<polygon fill="#000000" stroke="#000000" points="155.2351,-263.9252 165.5414,-266.3809 159.016,-258.0341 155.2351,-263.9252"/>
</g>
<!-- GO:0005737 -->
<g id="node7" class="node">
<title>GO:0005737</title>
<polygon fill="#00ff00" stroke="#000000" points="392.5843,-221.8019 303.3765,-221.8019 303.3765,-180.5981 392.5843,-180.5981 392.5843,-221.8019"/>
<text text-anchor="middle" x="347.9804" y="-205.4" font-family="Times,serif" font-size="14.00" fill="#000000">GO:0005737</text>
<text text-anchor="middle" x="347.9804" y="-188.6" font-family="Times,serif" font-size="14.00" fill="#000000">cytoplasm</text>
</g>
<!-- GO:0005737&#45;&gt;GO:0044424 -->
<g id="edge7" class="edge">
<title>GO:0005737&#45;&gt;GO:0044424</title>
<path fill="none" stroke="#000000" d="M347.9804,-222.0182C347.9804,-232.3705 347.9804,-245.0848 347.9804,-256.5271"/>
<polygon fill="#000000" stroke="#000000" points="344.4805,-256.5735 347.9804,-266.5735 351.4805,-256.5735 344.4805,-256.5735"/>
</g>
<!-- GO:0005634 -->
<g id="node8" class="node">
<title>GO:0005634</title>
<polygon fill="#ffff00" stroke="#000000" points="184.5843,-41.4019 95.3765,-41.4019 95.3765,-.1981 184.5843,-.1981 184.5843,-41.4019"/>
<text text-anchor="middle" x="139.9804" y="-25" font-family="Times,serif" font-size="14.00" fill="#000000">GO:0005634</text>
<text text-anchor="middle" x="139.9804" y="-8.2" font-family="Times,serif" font-size="14.00" fill="#000000">nucleus</text>
</g>
<!-- GO:0043231 -->
<g id="node9" class="node">
<title>GO:0043231</title>
<polygon fill="#ffa500" stroke="#000000" points="215.3592,-136.2014 64.6016,-136.2014 64.6016,-77.3986 215.3592,-77.3986 215.3592,-136.2014"/>
<text text-anchor="middle" x="139.9804" y="-119.4" font-family="Times,serif" font-size="14.00" fill="#000000">GO:0043231</text>
<text text-anchor="middle" x="139.9804" y="-102.6" font-family="Times,serif" font-size="14.00" fill="#000000">intracellular membrane&#45;</text>
<text text-anchor="middle" x="139.9804" y="-85.8" font-family="Times,serif" font-size="14.00" fill="#000000">bounded organelle</text>
</g>
<!-- GO:0005634&#45;&gt;GO:0043231 -->
<g id="edge8" class="edge">
<title>GO:0005634&#45;&gt;GO:0043231</title>
<path fill="none" stroke="#000000" d="M139.9804,-41.6182C139.9804,-49.3358 139.9804,-58.3662 139.9804,-67.2036"/>
<polygon fill="#000000" stroke="#000000" points="136.4805,-67.3991 139.9804,-77.3991 143.4805,-67.3992 136.4805,-67.3991"/>
</g>
<!-- GO:0043231&#45;&gt;GO:0043229 -->
<g id="edge9" class="edge">
<title>GO:0043231&#45;&gt;GO:0043229</title>
<path fill="none" stroke="#000000" d="M163.6107,-136.1513C172.9376,-147.7363 183.619,-161.0037 192.8922,-172.522"/>
<polygon fill="#000000" stroke="#000000" points="190.3588,-174.9565 199.3562,-180.551 195.8114,-170.5667 190.3588,-174.9565"/>
</g>
<!-- GO:0043231&#45;&gt;GO:0043227 -->
<g id="edge10" class="edge">
<title>GO:0043231&#45;&gt;GO:0043227</title>
<path fill="none" stroke="#000000" d="M116.3501,-136.1513C109.2727,-144.9422 101.4154,-154.7018 93.9853,-163.9308"/>
<polygon fill="#000000" stroke="#000000" points="91.1409,-161.8826 87.5961,-171.8669 96.5934,-166.2724 91.1409,-161.8826"/>
</g>
<!-- GO:0016020 -->
<g id="node10" class="node">
<title>GO:0016020</title>
<polygon fill="#ffff00" stroke="#000000" points="422.5843,-385.4019 333.3765,-385.4019 333.3765,-344.1981 422.5843,-344.1981 422.5843,-385.4019"/>
<text text-anchor="middle" x="377.9804" y="-369" font-family="Times,serif" font-size="14.00" fill="#000000">GO:0016020</text>
<text text-anchor="middle" x="377.9804" y="-352.2" font-family="Times,serif" font-size="14.00" fill="#000000">membrane</text>
</g>
<!-- GO:0016020&#45;&gt;GO:0005575 -->
<g id="edge11" class="edge">
<title>GO:0016020&#45;&gt;GO:0005575</title>
<path fill="none" stroke="#000000" d="M377.9804,-385.5954C377.9804,-393.5109 377.9804,-402.7109 377.9804,-411.3722"/>
<polygon fill="#000000" stroke="#000000" points="374.4805,-411.5472 377.9804,-421.5472 381.4805,-411.5473 374.4805,-411.5472"/>
</g>
<!-- GO:0043234 -->
<g id="node11" class="node">
<title>GO:0043234</title>
<polygon fill="#ffa500" stroke="#000000" points="573.8478,-307.8019 466.113,-307.8019 466.113,-266.5981 573.8478,-266.5981 573.8478,-307.8019"/>
<text text-anchor="middle" x="519.9804" y="-291.4" font-family="Times,serif" font-size="14.00" fill="#000000">GO:0043234</text>
<text text-anchor="middle" x="519.9804" y="-274.6" font-family="Times,serif" font-size="14.00" fill="#000000">protein complex</text>
</g>
<!-- GO:0032991 -->
<g id="node12" class="node">
<title>GO:0032991</title>
<polygon fill="#ffa500" stroke="#000000" points="599.1477,-385.4019 440.8131,-385.4019 440.8131,-344.1981 599.1477,-344.1981 599.1477,-385.4019"/>
<text text-anchor="middle" x="519.9804" y="-369" font-family="Times,serif" font-size="14.00" fill="#000000">GO:0032991</text>
<text text-anchor="middle" x="519.9804" y="-352.2" font-family="Times,serif" font-size="14.00" fill="#000000">macromolecular complex</text>
</g>
<!-- GO:0043234&#45;&gt;GO:0032991 -->
<g id="edge12" class="edge">
<title>GO:0043234&#45;&gt;GO:0032991</title>
<path fill="none" stroke="#000000" d="M519.9804,-307.9954C519.9804,-315.9109 519.9804,-325.1109 519.9804,-333.7722"/>
<polygon fill="#000000" stroke="#000000" points="516.4805,-333.9472 519.9804,-343.9472 523.4805,-333.9473 516.4805,-333.9472"/>
</g>
<!-- GO:0032991&#45;&gt;GO:0005575 -->
<g id="edge13" class="edge">
<title>GO:0032991&#45;&gt;GO:0005575</title>
<path fill="none" stroke="#000000" d="M481.927,-385.5954C464.4182,-395.1635 443.4748,-406.6087 424.9899,-416.7103"/>
<polygon fill="#000000" stroke="#000000" points="423.2356,-413.6804 416.1388,-421.5472 426.5924,-419.823 423.2356,-413.6804"/>
</g>
<!-- GO:0005829 -->
<g id="node13" class="node">
<title>GO:0005829</title>
<polygon fill="#00ffff" stroke="#000000" points="509.5843,-127.4019 420.3765,-127.4019 420.3765,-86.1981 509.5843,-86.1981 509.5843,-127.4019"/>
<text text-anchor="middle" x="464.9804" y="-111" font-family="Times,serif" font-size="14.00" fill="#000000">GO:0005829</text>
<text text-anchor="middle" x="464.9804" y="-94.2" font-family="Times,serif" font-size="14.00" fill="#000000">cytosol</text>
</g>
<!-- GO:0044444 -->
<g id="node14" class="node">
<title>GO:0044444</title>
<polygon fill="#ffa500" stroke="#000000" points="519.397,-221.8019 410.5638,-221.8019 410.5638,-180.5981 519.397,-180.5981 519.397,-221.8019"/>
<text text-anchor="middle" x="464.9804" y="-205.4" font-family="Times,serif" font-size="14.00" fill="#000000">GO:0044444</text>
<text text-anchor="middle" x="464.9804" y="-188.6" font-family="Times,serif" font-size="14.00" fill="#000000">cytoplasmic part</text>
</g>
<!-- GO:0005829&#45;&gt;GO:0044444 -->
<g id="edge14" class="edge">
<title>GO:0005829&#45;&gt;GO:0044444</title>
<path fill="none" stroke="#000000" d="M464.9804,-127.7504C464.9804,-140.2165 464.9804,-156.2645 464.9804,-170.1786"/>
<polygon fill="#000000" stroke="#000000" points="461.4805,-170.3081 464.9804,-180.3081 468.4805,-170.3082 461.4805,-170.3081"/>
</g>
<!-- GO:0044444&#45;&gt;GO:0044424 -->
<g id="edge15" class="edge">
<title>GO:0044444&#45;&gt;GO:0044424</title>
<path fill="none" stroke="#000000" d="M436.658,-222.0182C420.9932,-233.5325 401.353,-247.9688 384.5403,-260.3269"/>
<polygon fill="#000000" stroke="#000000" points="382.0266,-257.8308 376.042,-266.5735 386.1724,-263.471 382.0266,-257.8308"/>
</g>
<!-- GO:0044446 -->
<g id="node15" class="node">
<title>GO:0044446</title>
<polygon fill="#ffa500" stroke="#000000" points="682.6988,-230.6014 543.262,-230.6014 543.262,-171.7986 682.6988,-171.7986 682.6988,-230.6014"/>
<text text-anchor="middle" x="612.9804" y="-213.8" font-family="Times,serif" font-size="14.00" fill="#000000">GO:0044446</text>
<text text-anchor="middle" x="612.9804" y="-197" font-family="Times,serif" font-size="14.00" fill="#000000">intracellular organelle</text>
<text text-anchor="middle" x="612.9804" y="-180.2" font-family="Times,serif" font-size="14.00" fill="#000000">part</text>
</g>
<!-- GO:0044446&#45;&gt;GO:0044424 -->
<g id="edge16" class="edge">
<title>GO:0044446&#45;&gt;GO:0044424</title>
<path fill="none" stroke="#000000" d="M542.9864,-225.4014C537.913,-227.1075 532.8709,-228.7887 527.9804,-230.4 489.7391,-242.9999 446.7408,-256.5896 412.3614,-267.3164"/>
<polygon fill="#000000" stroke="#000000" points="410.9516,-264.0896 402.4452,-270.4056 413.0337,-270.7728 410.9516,-264.0896"/>
</g>
<!-- GO:0044422 -->
<g id="node16" class="node">
<title>GO:0044422</title>
<polygon fill="#ffa500" stroke="#000000" points="710.8325,-385.4019 617.1283,-385.4019 617.1283,-344.1981 710.8325,-344.1981 710.8325,-385.4019"/>
<text text-anchor="middle" x="663.9804" y="-369" font-family="Times,serif" font-size="14.00" fill="#000000">GO:0044422</text>
<text text-anchor="middle" x="663.9804" y="-352.2" font-family="Times,serif" font-size="14.00" fill="#000000">organelle part</text>
</g>
<!-- GO:0044446&#45;&gt;GO:0044422 -->
<g id="edge17" class="edge">
<title>GO:0044446&#45;&gt;GO:0044422</title>
<path fill="none" stroke="#000000" d="M622.0982,-230.4484C631.2222,-259.717 645.1988,-304.5516 654.4619,-334.266"/>
<polygon fill="#000000" stroke="#000000" points="651.2085,-335.5903 657.5261,-344.0955 657.8913,-333.507 651.2085,-335.5903"/>
</g>
<!-- GO:0044422&#45;&gt;GO:0005575 -->
<g id="edge18" class="edge">
<title>GO:0044422&#45;&gt;GO:0005575</title>
<path fill="none" stroke="#000000" d="M617.0594,-382.6681C613.9994,-383.6968 610.9538,-384.6839 607.9804,-385.6 556.3464,-401.5086 497.1428,-416.0464 451.7332,-426.4314"/>
<polygon fill="#000000" stroke="#000000" points="450.9451,-423.0212 441.9687,-428.6493 452.4956,-429.8474 450.9451,-423.0212"/>
</g>
<!-- GO:0044428 -->
<g id="node17" class="node">
<title>GO:0044428</title>
<polygon fill="#00ff00" stroke="#000000" points="657.5843,-127.4019 568.3765,-127.4019 568.3765,-86.1981 657.5843,-86.1981 657.5843,-127.4019"/>
<text text-anchor="middle" x="612.9804" y="-111" font-family="Times,serif" font-size="14.00" fill="#000000">GO:0044428</text>
<text text-anchor="middle" x="612.9804" y="-94.2" font-family="Times,serif" font-size="14.00" fill="#000000">nuclear part</text>
</g>
<!-- GO:0044428&#45;&gt;GO:0044446 -->
<g id="edge19" class="edge">
<title>GO:0044428&#45;&gt;GO:0044446</title>
<path fill="none" stroke="#000000" d="M612.9804,-127.7504C612.9804,-137.7492 612.9804,-150.0525 612.9804,-161.7106"/>
<polygon fill="#000000" stroke="#000000" points="609.4805,-161.7155 612.9804,-171.7155 616.4805,-161.7156 609.4805,-161.7155"/>
</g>
</g>
</svg>
