<?xml version="1.0" encoding="UTF-8" standalone="no"?>
<!DOCTYPE svg PUBLIC "-//W3C//DTD SVG 1.1//EN"
 "http://www.w3.org/Graphics/SVG/1.1/DTD/svg11.dtd">
<!-- Generated by graphviz version 2.40.1 (20161225.0304)
 -->
<!-- Title: G Pages: 1 -->
<svg width="157pt" height="427pt"
 viewBox="0.00 0.00 157.34 427.20" xmlns="http://www.w3.org/2000/svg" xmlns:xlink="http://www.w3.org/1999/xlink">
<g id="graph0" class="graph" transform="scale(1 1) rotate(0) translate(4 423.2)">
<title>G</title>
<polygon fill="#ffffff" stroke="transparent" points="-4,4 -4,-423.2 153.3444,-423.2 153.3444,4 -4,4"/>
<!-- GO:0004364 -->
<g id="node1" class="node">
<title>GO:0004364</title>
<polygon fill="#ff0000" stroke="#000000" points="146.2838,-58.6014 3.0606,-58.6014 3.0606,.2014 146.2838,.2014 146.2838,-58.6014"/>
<text text-anchor="middle" x="74.6722" y="-41.8" font-family="Times,serif" font-size="14.00" fill="#000000">GO:0004364</text>
<text text-anchor="middle" x="74.6722" y="-25" font-family="Times,serif" font-size="14.00" fill="#000000">glutathione transferase</text>
<text text-anchor="middle" x="74.6722" y="-8.2" font-family="Times,serif" font-size="14.00" fill="#000000">activity</text>
</g>
<!-- GO:0016765 -->
<g id="node2" class="node">
<title>GO:0016765</title>
<polygon fill="#ffffff" stroke="#000000" points="149.517,-186.4 -.1726,-186.4 -.1726,-94.4 149.517,-94.4 149.517,-186.4"/>
<text text-anchor="middle" x="74.6722" y="-169.8" font-family="Times,serif" font-size="14.00" fill="#000000">GO:0016765</text>
<text text-anchor="middle" x="74.6722" y="-153" font-family="Times,serif" font-size="14.00" fill="#000000">transferase activity,</text>
<text text-anchor="middle" x="74.6722" y="-136.2" font-family="Times,serif" font-size="14.00" fill="#000000">transferring alkyl or</text>
<text text-anchor="middle" x="74.6722" y="-119.4" font-family="Times,serif" font-size="14.00" fill="#000000">aryl (other than methyl)</text>
<text text-anchor="middle" x="74.6722" y="-102.6" font-family="Times,serif" font-size="14.00" fill="#000000">groups</text>
</g>
<!-- GO:0004364&#45;&gt;GO:0016765 -->
<g id="edge1" class="edge">
<title>GO:0004364&#45;&gt;GO:0016765</title>
<path fill="none" stroke="#000000" d="M74.6722,-58.4165C74.6722,-66.3646 74.6722,-75.2491 74.6722,-84.1556"/>
<polygon fill="#000000" stroke="#000000" points="71.1723,-84.172 74.6722,-94.1721 78.1723,-84.1721 71.1723,-84.172"/>
</g>
<!-- GO:0016740 -->
<g id="node3" class="node">
<title>GO:0016740</title>
<polygon fill="#ffffff" stroke="#000000" points="135.7839,-263.8019 13.5605,-263.8019 13.5605,-222.5981 135.7839,-222.5981 135.7839,-263.8019"/>
<text text-anchor="middle" x="74.6722" y="-247.4" font-family="Times,serif" font-size="14.00" fill="#000000">GO:0016740</text>
<text text-anchor="middle" x="74.6722" y="-230.6" font-family="Times,serif" font-size="14.00" fill="#000000">transferase activity</text>
</g>
<!-- GO:0016765&#45;&gt;GO:0016740 -->
<g id="edge2" class="edge">
<title>GO:0016765&#45;&gt;GO:0016740</title>
<path fill="none" stroke="#000000" d="M74.6722,-186.6876C74.6722,-195.3585 74.6722,-204.2253 74.6722,-212.288"/>
<polygon fill="#000000" stroke="#000000" points="71.1723,-212.3398 74.6722,-222.3398 78.1723,-212.3398 71.1723,-212.3398"/>
</g>
<!-- GO:0003824 -->
<g id="node4" class="node">
<title>GO:0003824</title>
<polygon fill="#ff0000" stroke="#000000" points="129.0846,-341.4019 20.2598,-341.4019 20.2598,-300.1981 129.0846,-300.1981 129.0846,-341.4019"/>
<text text-anchor="middle" x="74.6722" y="-325" font-family="Times,serif" font-size="14.00" fill="#000000">GO:0003824</text>
<text text-anchor="middle" x="74.6722" y="-308.2" font-family="Times,serif" font-size="14.00" fill="#000000">catalytic activity</text>
</g>
<!-- GO:0016740&#45;&gt;GO:0003824 -->
<g id="edge3" class="edge">
<title>GO:0016740&#45;&gt;GO:0003824</title>
<path fill="none" stroke="#000000" d="M74.6722,-263.9954C74.6722,-271.9109 74.6722,-281.1109 74.6722,-289.7722"/>
<polygon fill="#000000" stroke="#000000" points="71.1723,-289.9472 74.6722,-299.9472 78.1723,-289.9473 71.1723,-289.9472"/>
</g>
<!-- GO:0003674 -->
<g id="node5" class="node">
<title>GO:0003674</title>
<polygon fill="#ffffff" stroke="#000000" points="137.3053,-419.0019 12.0391,-419.0019 12.0391,-377.7981 137.3053,-377.7981 137.3053,-419.0019"/>
<text text-anchor="middle" x="74.6722" y="-402.6" font-family="Times,serif" font-size="14.00" fill="#000000">GO:0003674</text>
<text text-anchor="middle" x="74.6722" y="-385.8" font-family="Times,serif" font-size="14.00" fill="#000000">molecular_function</text>
</g>
<!-- GO:0003824&#45;&gt;GO:0003674 -->
<g id="edge4" class="edge">
<title>GO:0003824&#45;&gt;GO:0003674</title>
<path fill="none" stroke="#000000" d="M74.6722,-341.5954C74.6722,-349.5109 74.6722,-358.7109 74.6722,-367.3722"/>
<polygon fill="#000000" stroke="#000000" points="71.1723,-367.5472 74.6722,-377.5472 78.1723,-367.5473 71.1723,-367.5472"/>
</g>
</g>
</svg>
