<?xml version="1.0" encoding="UTF-8" standalone="no"?>
<!DOCTYPE svg PUBLIC "-//W3C//DTD SVG 1.1//EN"
 "http://www.w3.org/Graphics/SVG/1.1/DTD/svg11.dtd">
<!-- Generated by graphviz version 2.40.1 (20161225.0304)
 -->
<!-- Title: G Pages: 1 -->
<svg width="586pt" height="616pt"
 viewBox="0.00 0.00 585.91 616.00" xmlns="http://www.w3.org/2000/svg" xmlns:xlink="http://www.w3.org/1999/xlink">
<g id="graph0" class="graph" transform="scale(1 1) rotate(0) translate(4 612)">
<title>G</title>
<polygon fill="#ffffff" stroke="transparent" points="-4,4 -4,-612 581.9089,-612 581.9089,4 -4,4"/>
<!-- GO:0034641 -->
<g id="node1" class="node">
<title>GO:0034641</title>
<polygon fill="#ffff00" stroke="#000000" points="315.8799,-358.5003 182.2569,-358.5003 182.2569,-283.0997 315.8799,-283.0997 315.8799,-358.5003"/>
<text text-anchor="middle" x="249.0684" y="-341.8" font-family="Times,serif" font-size="14.00" fill="#000000">GO:0034641</text>
<text text-anchor="middle" x="249.0684" y="-325" font-family="Times,serif" font-size="14.00" fill="#000000">cellular nitrogen</text>
<text text-anchor="middle" x="249.0684" y="-308.2" font-family="Times,serif" font-size="14.00" fill="#000000">compound metabolic</text>
<text text-anchor="middle" x="249.0684" y="-291.4" font-family="Times,serif" font-size="14.00" fill="#000000">process</text>
</g>
<!-- GO:0006807 -->
<g id="node2" class="node">
<title>GO:0006807</title>
<polygon fill="#ffffff" stroke="#000000" points="282.8303,-453.0014 157.3065,-453.0014 157.3065,-394.1986 282.8303,-394.1986 282.8303,-453.0014"/>
<text text-anchor="middle" x="220.0684" y="-436.2" font-family="Times,serif" font-size="14.00" fill="#000000">GO:0006807</text>
<text text-anchor="middle" x="220.0684" y="-419.4" font-family="Times,serif" font-size="14.00" fill="#000000">nitrogen compound</text>
<text text-anchor="middle" x="220.0684" y="-402.6" font-family="Times,serif" font-size="14.00" fill="#000000">metabolic process</text>
</g>
<!-- GO:0034641&#45;&gt;GO:0006807 -->
<g id="edge1" class="edge">
<title>GO:0034641&#45;&gt;GO:0006807</title>
<path fill="none" stroke="#000000" d="M238.4345,-358.4952C236.0411,-366.9796 233.496,-376.0015 231.0872,-384.5404"/>
<polygon fill="#000000" stroke="#000000" points="227.6858,-383.7067 228.3392,-394.2814 234.4229,-385.6073 227.6858,-383.7067"/>
</g>
<!-- GO:0044237 -->
<g id="node3" class="node">
<title>GO:0044237</title>
<polygon fill="#ff0000" stroke="#000000" points="417.2512,-453.0014 300.8856,-453.0014 300.8856,-394.1986 417.2512,-394.1986 417.2512,-453.0014"/>
<text text-anchor="middle" x="359.0684" y="-436.2" font-family="Times,serif" font-size="14.00" fill="#000000">GO:0044237</text>
<text text-anchor="middle" x="359.0684" y="-419.4" font-family="Times,serif" font-size="14.00" fill="#000000">cellular metabolic</text>
<text text-anchor="middle" x="359.0684" y="-402.6" font-family="Times,serif" font-size="14.00" fill="#000000">process</text>
</g>
<!-- GO:0034641&#45;&gt;GO:0044237 -->
<g id="edge2" class="edge">
<title>GO:0034641&#45;&gt;GO:0044237</title>
<path fill="none" stroke="#000000" d="M289.4037,-358.4952C299.4692,-367.9018 310.2415,-377.9691 320.2328,-387.3064"/>
<polygon fill="#000000" stroke="#000000" points="318.0004,-390.0106 327.6963,-394.2814 322.7799,-384.8963 318.0004,-390.0106"/>
</g>
<!-- GO:0008152 -->
<g id="node4" class="node">
<title>GO:0008152</title>
<polygon fill="#ff0000" stroke="#000000" points="283.254,-530.2019 166.8828,-530.2019 166.8828,-488.9981 283.254,-488.9981 283.254,-530.2019"/>
<text text-anchor="middle" x="225.0684" y="-513.8" font-family="Times,serif" font-size="14.00" fill="#000000">GO:0008152</text>
<text text-anchor="middle" x="225.0684" y="-497" font-family="Times,serif" font-size="14.00" fill="#000000">metabolic process</text>
</g>
<!-- GO:0006807&#45;&gt;GO:0008152 -->
<g id="edge3" class="edge">
<title>GO:0006807&#45;&gt;GO:0008152</title>
<path fill="none" stroke="#000000" d="M221.7891,-453.1963C222.2698,-461.4638 222.7932,-470.4657 223.2778,-478.8008"/>
<polygon fill="#000000" stroke="#000000" points="219.7901,-479.1166 223.8647,-488.8966 226.7783,-478.7102 219.7901,-479.1166"/>
</g>
<!-- GO:0044237&#45;&gt;GO:0008152 -->
<g id="edge5" class="edge">
<title>GO:0044237&#45;&gt;GO:0008152</title>
<path fill="none" stroke="#000000" d="M313.328,-452.9558C297.9903,-462.7994 280.9943,-473.7073 266.0449,-483.3017"/>
<polygon fill="#000000" stroke="#000000" points="264.0328,-480.4341 257.5074,-488.7809 267.8137,-486.3252 264.0328,-480.4341"/>
</g>
<!-- GO:0009987 -->
<g id="node5" class="node">
<title>GO:0009987</title>
<polygon fill="#ff0000" stroke="#000000" points="408.0246,-530.2019 304.1122,-530.2019 304.1122,-488.9981 408.0246,-488.9981 408.0246,-530.2019"/>
<text text-anchor="middle" x="356.0684" y="-513.8" font-family="Times,serif" font-size="14.00" fill="#000000">GO:0009987</text>
<text text-anchor="middle" x="356.0684" y="-497" font-family="Times,serif" font-size="14.00" fill="#000000">cellular process</text>
</g>
<!-- GO:0044237&#45;&gt;GO:0009987 -->
<g id="edge4" class="edge">
<title>GO:0044237&#45;&gt;GO:0009987</title>
<path fill="none" stroke="#000000" d="M358.036,-453.1963C357.7476,-461.4638 357.4335,-470.4657 357.1428,-478.8008"/>
<polygon fill="#000000" stroke="#000000" points="353.6415,-478.7806 356.7906,-488.8966 360.6372,-479.0247 353.6415,-478.7806"/>
</g>
<!-- GO:0008150 -->
<g id="node6" class="node">
<title>GO:0008150</title>
<polygon fill="#ffffff" stroke="#000000" points="416.539,-607.8019 295.5978,-607.8019 295.5978,-566.5981 416.539,-566.5981 416.539,-607.8019"/>
<text text-anchor="middle" x="356.0684" y="-591.4" font-family="Times,serif" font-size="14.00" fill="#000000">GO:0008150</text>
<text text-anchor="middle" x="356.0684" y="-574.6" font-family="Times,serif" font-size="14.00" fill="#000000">biological_process</text>
</g>
<!-- GO:0008152&#45;&gt;GO:0008150 -->
<g id="edge6" class="edge">
<title>GO:0008152&#45;&gt;GO:0008150</title>
<path fill="none" stroke="#000000" d="M260.174,-530.3954C276.1796,-539.8766 295.2965,-551.2008 312.2348,-561.2345"/>
<polygon fill="#000000" stroke="#000000" points="310.4783,-564.2619 320.8659,-566.3472 314.0459,-558.2393 310.4783,-564.2619"/>
</g>
<!-- GO:0009987&#45;&gt;GO:0008150 -->
<g id="edge7" class="edge">
<title>GO:0009987&#45;&gt;GO:0008150</title>
<path fill="none" stroke="#000000" d="M356.0684,-530.3954C356.0684,-538.3109 356.0684,-547.5109 356.0684,-556.1722"/>
<polygon fill="#000000" stroke="#000000" points="352.5685,-556.3472 356.0684,-566.3472 359.5685,-556.3473 352.5685,-556.3472"/>
</g>
<!-- GO:0044699 -->
<g id="node7" class="node">
<title>GO:0044699</title>
<polygon fill="#00ffff" stroke="#000000" points="577.7497,-530.2019 426.3871,-530.2019 426.3871,-488.9981 577.7497,-488.9981 577.7497,-530.2019"/>
<text text-anchor="middle" x="502.0684" y="-513.8" font-family="Times,serif" font-size="14.00" fill="#000000">GO:0044699</text>
<text text-anchor="middle" x="502.0684" y="-497" font-family="Times,serif" font-size="14.00" fill="#000000">single&#45;organism process</text>
</g>
<!-- GO:0044699&#45;&gt;GO:0008150 -->
<g id="edge8" class="edge">
<title>GO:0044699&#45;&gt;GO:0008150</title>
<path fill="none" stroke="#000000" d="M462.9431,-530.3954C444.7864,-540.0458 423.0373,-551.6056 403.9126,-561.7705"/>
<polygon fill="#000000" stroke="#000000" points="402.2359,-558.6979 395.0484,-566.4819 405.5213,-564.8791 402.2359,-558.6979"/>
</g>
<!-- GO:0071704 -->
<g id="node8" class="node">
<title>GO:0071704</title>
<polygon fill="#ffa500" stroke="#000000" points="139.254,-453.0014 22.8828,-453.0014 22.8828,-394.1986 139.254,-394.1986 139.254,-453.0014"/>
<text text-anchor="middle" x="81.0684" y="-436.2" font-family="Times,serif" font-size="14.00" fill="#000000">GO:0071704</text>
<text text-anchor="middle" x="81.0684" y="-419.4" font-family="Times,serif" font-size="14.00" fill="#000000">organic substance</text>
<text text-anchor="middle" x="81.0684" y="-402.6" font-family="Times,serif" font-size="14.00" fill="#000000">metabolic process</text>
</g>
<!-- GO:0071704&#45;&gt;GO:0008152 -->
<g id="edge9" class="edge">
<title>GO:0071704&#45;&gt;GO:0008152</title>
<path fill="none" stroke="#000000" d="M130.2223,-452.9558C146.8586,-462.8914 165.3105,-473.9112 181.4838,-483.5703"/>
<polygon fill="#000000" stroke="#000000" points="179.8285,-486.6584 190.2086,-488.7809 183.4177,-480.6486 179.8285,-486.6584"/>
</g>
<!-- GO:0006749 -->
<g id="node9" class="node">
<title>GO:0006749</title>
<polygon fill="#ffff00" stroke="#000000" points="415.7665,-58.6014 278.3703,-58.6014 278.3703,.2014 415.7665,.2014 415.7665,-58.6014"/>
<text text-anchor="middle" x="347.0684" y="-41.8" font-family="Times,serif" font-size="14.00" fill="#000000">GO:0006749</text>
<text text-anchor="middle" x="347.0684" y="-25" font-family="Times,serif" font-size="14.00" fill="#000000">glutathione metabolic</text>
<text text-anchor="middle" x="347.0684" y="-8.2" font-family="Times,serif" font-size="14.00" fill="#000000">process</text>
</g>
<!-- GO:0006518 -->
<g id="node10" class="node">
<title>GO:0006518</title>
<polygon fill="#ffffff" stroke="#000000" points="267.9645,-144.2019 106.1723,-144.2019 106.1723,-102.9981 267.9645,-102.9981 267.9645,-144.2019"/>
<text text-anchor="middle" x="187.0684" y="-127.8" font-family="Times,serif" font-size="14.00" fill="#000000">GO:0006518</text>
<text text-anchor="middle" x="187.0684" y="-111" font-family="Times,serif" font-size="14.00" fill="#000000">peptide metabolic process</text>
</g>
<!-- GO:0006749&#45;&gt;GO:0006518 -->
<g id="edge10" class="edge">
<title>GO:0006749&#45;&gt;GO:0006518</title>
<path fill="none" stroke="#000000" d="M297.3205,-58.5513C276.0644,-71.0923 251.4669,-85.6049 230.9057,-97.736"/>
<polygon fill="#000000" stroke="#000000" points="228.9009,-94.855 222.0667,-102.951 232.458,-100.8839 228.9009,-94.855"/>
</g>
<!-- GO:0006790 -->
<g id="node11" class="node">
<title>GO:0006790</title>
<polygon fill="#ffff00" stroke="#000000" points="545.0362,-153.0014 375.1006,-153.0014 375.1006,-94.1986 545.0362,-94.1986 545.0362,-153.0014"/>
<text text-anchor="middle" x="460.0684" y="-136.2" font-family="Times,serif" font-size="14.00" fill="#000000">GO:0006790</text>
<text text-anchor="middle" x="460.0684" y="-119.4" font-family="Times,serif" font-size="14.00" fill="#000000">sulfur compound metabolic</text>
<text text-anchor="middle" x="460.0684" y="-102.6" font-family="Times,serif" font-size="14.00" fill="#000000">process</text>
</g>
<!-- GO:0006749&#45;&gt;GO:0006790 -->
<g id="edge11" class="edge">
<title>GO:0006749&#45;&gt;GO:0006790</title>
<path fill="none" stroke="#000000" d="M382.2029,-58.5513C393.2573,-67.7861 405.5914,-78.09 417.1246,-87.7249"/>
<polygon fill="#000000" stroke="#000000" points="415.0373,-90.5417 424.9556,-94.2669 419.5251,-85.1696 415.0373,-90.5417"/>
</g>
<!-- GO:0006575 -->
<g id="node12" class="node">
<title>GO:0006575</title>
<polygon fill="#ffffff" stroke="#000000" points="432.0882,-247.4014 282.0486,-247.4014 282.0486,-188.5986 432.0882,-188.5986 432.0882,-247.4014"/>
<text text-anchor="middle" x="357.0684" y="-230.6" font-family="Times,serif" font-size="14.00" fill="#000000">GO:0006575</text>
<text text-anchor="middle" x="357.0684" y="-213.8" font-family="Times,serif" font-size="14.00" fill="#000000">cellular modified amino</text>
<text text-anchor="middle" x="357.0684" y="-197" font-family="Times,serif" font-size="14.00" fill="#000000">acid metabolic process</text>
</g>
<!-- GO:0006749&#45;&gt;GO:0006575 -->
<g id="edge12" class="edge">
<title>GO:0006749&#45;&gt;GO:0006575</title>
<path fill="none" stroke="#000000" d="M348.6309,-58.7C350.3408,-90.9825 353.0902,-142.8912 354.9832,-178.6305"/>
<polygon fill="#000000" stroke="#000000" points="351.4928,-178.9063 355.5169,-188.7072 358.483,-178.536 351.4928,-178.9063"/>
</g>
<!-- GO:1901564 -->
<g id="node13" class="node">
<title>GO:1901564</title>
<polygon fill="#ffff00" stroke="#000000" points="164.2053,-350.2014 -.0685,-350.2014 -.0685,-291.3986 164.2053,-291.3986 164.2053,-350.2014"/>
<text text-anchor="middle" x="82.0684" y="-333.4" font-family="Times,serif" font-size="14.00" fill="#000000">GO:1901564</text>
<text text-anchor="middle" x="82.0684" y="-316.6" font-family="Times,serif" font-size="14.00" fill="#000000">organonitrogen compound</text>
<text text-anchor="middle" x="82.0684" y="-299.8" font-family="Times,serif" font-size="14.00" fill="#000000">metabolic process</text>
</g>
<!-- GO:0006518&#45;&gt;GO:1901564 -->
<g id="edge13" class="edge">
<title>GO:0006518&#45;&gt;GO:1901564</title>
<path fill="none" stroke="#000000" d="M147.4961,-144.2554C130.4737,-155.1944 112.0081,-170.2369 101.0684,-188.8 84.5994,-216.7457 80.4658,-253.6385 80.0985,-281.3154"/>
<polygon fill="#000000" stroke="#000000" points="76.5988,-281.4428 80.1243,-291.4338 83.5987,-281.4248 76.5988,-281.4428"/>
</g>
<!-- GO:0043603 -->
<g id="node14" class="node">
<title>GO:0043603</title>
<polygon fill="#ffffff" stroke="#000000" points="264.4617,-247.4014 109.6751,-247.4014 109.6751,-188.5986 264.4617,-188.5986 264.4617,-247.4014"/>
<text text-anchor="middle" x="187.0684" y="-230.6" font-family="Times,serif" font-size="14.00" fill="#000000">GO:0043603</text>
<text text-anchor="middle" x="187.0684" y="-213.8" font-family="Times,serif" font-size="14.00" fill="#000000">cellular amide metabolic</text>
<text text-anchor="middle" x="187.0684" y="-197" font-family="Times,serif" font-size="14.00" fill="#000000">process</text>
</g>
<!-- GO:0006518&#45;&gt;GO:0043603 -->
<g id="edge14" class="edge">
<title>GO:0006518&#45;&gt;GO:0043603</title>
<path fill="none" stroke="#000000" d="M187.0684,-144.5504C187.0684,-154.5492 187.0684,-166.8525 187.0684,-178.5106"/>
<polygon fill="#000000" stroke="#000000" points="183.5685,-178.5155 187.0684,-188.5155 190.5685,-178.5156 183.5685,-178.5155"/>
</g>
<!-- GO:0006790&#45;&gt;GO:0044237 -->
<g id="edge15" class="edge">
<title>GO:0006790&#45;&gt;GO:0044237</title>
<path fill="none" stroke="#000000" d="M457.9172,-152.8348C455.4998,-178.2106 450.5944,-215.7184 441.0684,-247.2 426.0289,-296.9024 399.4741,-350.536 380.6623,-385.4484"/>
<polygon fill="#000000" stroke="#000000" points="377.5272,-383.8872 375.8183,-394.3433 383.6748,-387.235 377.5272,-383.8872"/>
</g>
<!-- GO:0006575&#45;&gt;GO:0044237 -->
<g id="edge17" class="edge">
<title>GO:0006575&#45;&gt;GO:0044237</title>
<path fill="none" stroke="#000000" d="M357.355,-247.4575C357.704,-283.3359 358.2949,-344.0844 358.6834,-384.0217"/>
<polygon fill="#000000" stroke="#000000" points="355.1852,-384.2317 358.7824,-394.1972 362.1848,-384.1636 355.1852,-384.2317"/>
</g>
<!-- GO:0006575&#45;&gt;GO:1901564 -->
<g id="edge16" class="edge">
<title>GO:0006575&#45;&gt;GO:1901564</title>
<path fill="none" stroke="#000000" d="M281.6945,-244.2714C240.4021,-258.7506 193.5577,-275.3428 173.0684,-283.2 169.2079,-284.6804 165.2645,-286.2167 161.2884,-287.7852"/>
<polygon fill="#000000" stroke="#000000" points="159.9719,-284.5421 151.9751,-291.492 162.5605,-291.0459 159.9719,-284.5421"/>
</g>
<!-- GO:1901564&#45;&gt;GO:0006807 -->
<g id="edge19" class="edge">
<title>GO:1901564&#45;&gt;GO:0006807</title>
<path fill="none" stroke="#000000" d="M121.6137,-350.2584C137.3487,-361.9798 155.5996,-375.5754 172.082,-387.8536"/>
<polygon fill="#000000" stroke="#000000" points="170.407,-390.9702 180.5174,-394.1373 174.5888,-385.3565 170.407,-390.9702"/>
</g>
<!-- GO:1901564&#45;&gt;GO:0071704 -->
<g id="edge18" class="edge">
<title>GO:1901564&#45;&gt;GO:0071704</title>
<path fill="none" stroke="#000000" d="M81.7818,-350.2584C81.6793,-360.7969 81.5621,-372.8505 81.4526,-384.0994"/>
<polygon fill="#000000" stroke="#000000" points="77.9525,-384.1037 81.355,-394.1373 84.9522,-384.1719 77.9525,-384.1037"/>
</g>
<!-- GO:0043603&#45;&gt;GO:0034641 -->
<g id="edge20" class="edge">
<title>GO:0043603&#45;&gt;GO:0034641</title>
<path fill="none" stroke="#000000" d="M204.8351,-247.4584C209.8788,-255.8212 215.4979,-265.138 220.9933,-274.2497"/>
<polygon fill="#000000" stroke="#000000" points="218.0397,-276.1294 226.2014,-282.885 224.0339,-272.5142 218.0397,-276.1294"/>
</g>
</g>
</svg>
