<?xml version="1.0" encoding="UTF-8" standalone="no"?>
<!DOCTYPE svg PUBLIC "-//W3C//DTD SVG 1.1//EN"
 "http://www.w3.org/Graphics/SVG/1.1/DTD/svg11.dtd">
<!-- Generated by graphviz version 2.40.1 (20161225.0304)
 -->
<!-- Title: G Pages: 1 -->
<svg width="224pt" height="282pt"
 viewBox="0.00 0.00 224.01 282.40" xmlns="http://www.w3.org/2000/svg" xmlns:xlink="http://www.w3.org/1999/xlink">
<g id="graph0" class="graph" transform="scale(1 1) rotate(0) translate(4 278.4)">
<title>G</title>
<polygon fill="#ffffff" stroke="transparent" points="-4,4 -4,-278.4 220.0102,-278.4 220.0102,4 -4,4"/>
<!-- GO:0005737 -->
<g id="node1" class="node">
<title>GO:0005737</title>
<polygon fill="#00ff00" stroke="#000000" points="89.1558,-41.4019 -.052,-41.4019 -.052,-.1981 89.1558,-.1981 89.1558,-41.4019"/>
<text text-anchor="middle" x="44.5519" y="-25" font-family="Times,serif" font-size="14.00" fill="#000000">GO:0005737</text>
<text text-anchor="middle" x="44.5519" y="-8.2" font-family="Times,serif" font-size="14.00" fill="#000000">cytoplasm</text>
</g>
<!-- GO:0044424 -->
<g id="node2" class="node">
<title>GO:0044424</title>
<polygon fill="#ff0000" stroke="#000000" points="156.9503,-119.0019 48.1535,-119.0019 48.1535,-77.7981 156.9503,-77.7981 156.9503,-119.0019"/>
<text text-anchor="middle" x="102.5519" y="-102.6" font-family="Times,serif" font-size="14.00" fill="#000000">GO:0044424</text>
<text text-anchor="middle" x="102.5519" y="-85.8" font-family="Times,serif" font-size="14.00" fill="#000000">intracellular part</text>
</g>
<!-- GO:0005737&#45;&gt;GO:0044424 -->
<g id="edge1" class="edge">
<title>GO:0005737&#45;&gt;GO:0044424</title>
<path fill="none" stroke="#000000" d="M60.0948,-41.5954C66.4661,-50.1197 73.951,-60.1339 80.8471,-69.3605"/>
<polygon fill="#000000" stroke="#000000" points="78.1758,-71.6327 86.9661,-77.5472 83.7827,-67.4419 78.1758,-71.6327"/>
</g>
<!-- GO:0044464 -->
<g id="node3" class="node">
<title>GO:0044464</title>
<polygon fill="#ff0000" stroke="#000000" points="147.1558,-196.6019 57.948,-196.6019 57.948,-155.3981 147.1558,-155.3981 147.1558,-196.6019"/>
<text text-anchor="middle" x="102.5519" y="-180.2" font-family="Times,serif" font-size="14.00" fill="#000000">GO:0044464</text>
<text text-anchor="middle" x="102.5519" y="-163.4" font-family="Times,serif" font-size="14.00" fill="#000000">cell part</text>
</g>
<!-- GO:0044424&#45;&gt;GO:0044464 -->
<g id="edge2" class="edge">
<title>GO:0044424&#45;&gt;GO:0044464</title>
<path fill="none" stroke="#000000" d="M102.5519,-119.1954C102.5519,-127.1109 102.5519,-136.3109 102.5519,-144.9722"/>
<polygon fill="#000000" stroke="#000000" points="99.052,-145.1472 102.5519,-155.1472 106.052,-145.1473 99.052,-145.1472"/>
</g>
<!-- GO:0005575 -->
<g id="node4" class="node">
<title>GO:0005575</title>
<polygon fill="#ffffff" stroke="#000000" points="166.2386,-274.2019 38.8652,-274.2019 38.8652,-232.9981 166.2386,-232.9981 166.2386,-274.2019"/>
<text text-anchor="middle" x="102.5519" y="-257.8" font-family="Times,serif" font-size="14.00" fill="#000000">GO:0005575</text>
<text text-anchor="middle" x="102.5519" y="-241" font-family="Times,serif" font-size="14.00" fill="#000000">cellular_component</text>
</g>
<!-- GO:0044464&#45;&gt;GO:0005575 -->
<g id="edge3" class="edge">
<title>GO:0044464&#45;&gt;GO:0005575</title>
<path fill="none" stroke="#000000" d="M102.5519,-196.7954C102.5519,-204.7109 102.5519,-213.9109 102.5519,-222.5722"/>
<polygon fill="#000000" stroke="#000000" points="99.052,-222.7472 102.5519,-232.7472 106.052,-222.7473 99.052,-222.7472"/>
</g>
<!-- GO:0044444 -->
<g id="node5" class="node">
<title>GO:0044444</title>
<polygon fill="#ffff00" stroke="#000000" points="215.9685,-41.4019 107.1353,-41.4019 107.1353,-.1981 215.9685,-.1981 215.9685,-41.4019"/>
<text text-anchor="middle" x="161.5519" y="-25" font-family="Times,serif" font-size="14.00" fill="#000000">GO:0044444</text>
<text text-anchor="middle" x="161.5519" y="-8.2" font-family="Times,serif" font-size="14.00" fill="#000000">cytoplasmic part</text>
</g>
<!-- GO:0044444&#45;&gt;GO:0044424 -->
<g id="edge4" class="edge">
<title>GO:0044444&#45;&gt;GO:0044424</title>
<path fill="none" stroke="#000000" d="M145.741,-41.5954C139.2598,-50.1197 131.646,-60.1339 124.6309,-69.3605"/>
<polygon fill="#000000" stroke="#000000" points="121.6727,-67.4684 118.4065,-77.5472 127.2451,-71.7051 121.6727,-67.4684"/>
</g>
</g>
</svg>
