<?xml version="1.0" encoding="UTF-8" standalone="no"?>
<!DOCTYPE svg PUBLIC "-//W3C//DTD SVG 1.1//EN"
 "http://www.w3.org/Graphics/SVG/1.1/DTD/svg11.dtd">
<!-- Generated by graphviz version 2.40.1 (20161225.0304)
 -->
<!-- Title: G Pages: 1 -->
<svg width="318pt" height="694pt"
 viewBox="0.00 0.00 318.17 693.60" xmlns="http://www.w3.org/2000/svg" xmlns:xlink="http://www.w3.org/1999/xlink">
<g id="graph0" class="graph" transform="scale(1 1) rotate(0) translate(4 689.6)">
<title>G</title>
<polygon fill="#ffffff" stroke="transparent" points="-4,4 -4,-689.6 314.1733,-689.6 314.1733,4 -4,4"/>
<!-- GO:0004175 -->
<g id="node1" class="node">
<title>GO:0004175</title>
<polygon fill="#ff0000" stroke="#000000" points="141.3643,-255.4019 .2115,-255.4019 .2115,-214.1981 141.3643,-214.1981 141.3643,-255.4019"/>
<text text-anchor="middle" x="70.7879" y="-239" font-family="Times,serif" font-size="14.00" fill="#000000">GO:0004175</text>
<text text-anchor="middle" x="70.7879" y="-222.2" font-family="Times,serif" font-size="14.00" fill="#000000">endopeptidase activity</text>
</g>
<!-- GO:0070011 -->
<g id="node2" class="node">
<title>GO:0070011</title>
<polygon fill="#ffffff" stroke="#000000" points="225.0273,-375.3003 78.5485,-375.3003 78.5485,-299.8997 225.0273,-299.8997 225.0273,-375.3003"/>
<text text-anchor="middle" x="151.7879" y="-358.6" font-family="Times,serif" font-size="14.00" fill="#000000">GO:0070011</text>
<text text-anchor="middle" x="151.7879" y="-341.8" font-family="Times,serif" font-size="14.00" fill="#000000">peptidase activity,</text>
<text text-anchor="middle" x="151.7879" y="-325" font-family="Times,serif" font-size="14.00" fill="#000000">acting on L&#45;amino acid</text>
<text text-anchor="middle" x="151.7879" y="-308.2" font-family="Times,serif" font-size="14.00" fill="#000000">peptides</text>
</g>
<!-- GO:0004175&#45;&gt;GO:0070011 -->
<g id="edge1" class="edge">
<title>GO:0004175&#45;&gt;GO:0070011</title>
<path fill="none" stroke="#000000" d="M87.1795,-255.6031C95.3704,-265.9985 105.6298,-279.0191 115.5451,-291.6029"/>
<polygon fill="#000000" stroke="#000000" points="113.0477,-294.0887 121.9859,-299.7773 118.546,-289.7564 113.0477,-294.0887"/>
</g>
<!-- GO:0008233 -->
<g id="node3" class="node">
<title>GO:0008233</title>
<polygon fill="#ffffff" stroke="#000000" points="209.1497,-452.6019 94.4261,-452.6019 94.4261,-411.3981 209.1497,-411.3981 209.1497,-452.6019"/>
<text text-anchor="middle" x="151.7879" y="-436.2" font-family="Times,serif" font-size="14.00" fill="#000000">GO:0008233</text>
<text text-anchor="middle" x="151.7879" y="-419.4" font-family="Times,serif" font-size="14.00" fill="#000000">peptidase activity</text>
</g>
<!-- GO:0070011&#45;&gt;GO:0008233 -->
<g id="edge2" class="edge">
<title>GO:0070011&#45;&gt;GO:0008233</title>
<path fill="none" stroke="#000000" d="M151.7879,-375.4522C151.7879,-383.9406 151.7879,-392.8492 151.7879,-401.0197"/>
<polygon fill="#000000" stroke="#000000" points="148.288,-401.2379 151.7879,-411.2379 155.288,-401.2379 148.288,-401.2379"/>
</g>
<!-- GO:0016787 -->
<g id="node4" class="node">
<title>GO:0016787</title>
<polygon fill="#ffffff" stroke="#000000" points="209.7045,-530.2019 93.8713,-530.2019 93.8713,-488.9981 209.7045,-488.9981 209.7045,-530.2019"/>
<text text-anchor="middle" x="151.7879" y="-513.8" font-family="Times,serif" font-size="14.00" fill="#000000">GO:0016787</text>
<text text-anchor="middle" x="151.7879" y="-497" font-family="Times,serif" font-size="14.00" fill="#000000">hydrolase activity</text>
</g>
<!-- GO:0008233&#45;&gt;GO:0016787 -->
<g id="edge3" class="edge">
<title>GO:0008233&#45;&gt;GO:0016787</title>
<path fill="none" stroke="#000000" d="M151.7879,-452.7954C151.7879,-460.7109 151.7879,-469.9109 151.7879,-478.5722"/>
<polygon fill="#000000" stroke="#000000" points="148.288,-478.7472 151.7879,-488.7472 155.288,-478.7473 148.288,-478.7472"/>
</g>
<!-- GO:0003824 -->
<g id="node5" class="node">
<title>GO:0003824</title>
<polygon fill="#ffffff" stroke="#000000" points="206.2003,-607.8019 97.3755,-607.8019 97.3755,-566.5981 206.2003,-566.5981 206.2003,-607.8019"/>
<text text-anchor="middle" x="151.7879" y="-591.4" font-family="Times,serif" font-size="14.00" fill="#000000">GO:0003824</text>
<text text-anchor="middle" x="151.7879" y="-574.6" font-family="Times,serif" font-size="14.00" fill="#000000">catalytic activity</text>
</g>
<!-- GO:0016787&#45;&gt;GO:0003824 -->
<g id="edge4" class="edge">
<title>GO:0016787&#45;&gt;GO:0003824</title>
<path fill="none" stroke="#000000" d="M151.7879,-530.3954C151.7879,-538.3109 151.7879,-547.5109 151.7879,-556.1722"/>
<polygon fill="#000000" stroke="#000000" points="148.288,-556.3472 151.7879,-566.3472 155.288,-556.3473 148.288,-556.3472"/>
</g>
<!-- GO:0003674 -->
<g id="node6" class="node">
<title>GO:0003674</title>
<polygon fill="#ffffff" stroke="#000000" points="214.421,-685.4019 89.1548,-685.4019 89.1548,-644.1981 214.421,-644.1981 214.421,-685.4019"/>
<text text-anchor="middle" x="151.7879" y="-669" font-family="Times,serif" font-size="14.00" fill="#000000">GO:0003674</text>
<text text-anchor="middle" x="151.7879" y="-652.2" font-family="Times,serif" font-size="14.00" fill="#000000">molecular_function</text>
</g>
<!-- GO:0003824&#45;&gt;GO:0003674 -->
<g id="edge5" class="edge">
<title>GO:0003824&#45;&gt;GO:0003674</title>
<path fill="none" stroke="#000000" d="M151.7879,-607.9954C151.7879,-615.9109 151.7879,-625.1109 151.7879,-633.7722"/>
<polygon fill="#000000" stroke="#000000" points="148.288,-633.9472 151.7879,-643.9472 155.288,-633.9473 148.288,-633.9472"/>
</g>
<!-- GO:0016929 -->
<g id="node7" class="node">
<title>GO:0016929</title>
<polygon fill="#ff0000" stroke="#000000" points="310.0589,-58.6014 155.5169,-58.6014 155.5169,.2014 310.0589,.2014 310.0589,-58.6014"/>
<text text-anchor="middle" x="232.7879" y="-41.8" font-family="Times,serif" font-size="14.00" fill="#000000">GO:0016929</text>
<text text-anchor="middle" x="232.7879" y="-25" font-family="Times,serif" font-size="14.00" fill="#000000">SUMO&#45;specific protease</text>
<text text-anchor="middle" x="232.7879" y="-8.2" font-family="Times,serif" font-size="14.00" fill="#000000">activity</text>
</g>
<!-- GO:0019783 -->
<g id="node8" class="node">
<title>GO:0019783</title>
<polygon fill="#ffffff" stroke="#000000" points="302.8237,-169.7003 162.7521,-169.7003 162.7521,-94.2997 302.8237,-94.2997 302.8237,-169.7003"/>
<text text-anchor="middle" x="232.7879" y="-153" font-family="Times,serif" font-size="14.00" fill="#000000">GO:0019783</text>
<text text-anchor="middle" x="232.7879" y="-136.2" font-family="Times,serif" font-size="14.00" fill="#000000">ubiquitin&#45;like protein&#45;</text>
<text text-anchor="middle" x="232.7879" y="-119.4" font-family="Times,serif" font-size="14.00" fill="#000000">specific protease</text>
<text text-anchor="middle" x="232.7879" y="-102.6" font-family="Times,serif" font-size="14.00" fill="#000000">activity</text>
</g>
<!-- GO:0016929&#45;&gt;GO:0019783 -->
<g id="edge6" class="edge">
<title>GO:0016929&#45;&gt;GO:0019783</title>
<path fill="none" stroke="#000000" d="M232.7879,-58.6584C232.7879,-66.5901 232.7879,-75.38 232.7879,-84.0392"/>
<polygon fill="#000000" stroke="#000000" points="229.288,-84.0849 232.7879,-94.085 236.288,-84.085 229.288,-84.0849"/>
</g>
<!-- GO:0008234 -->
<g id="node9" class="node">
<title>GO:0008234</title>
<polygon fill="#ffffff" stroke="#000000" points="306.2929,-264.2014 159.2829,-264.2014 159.2829,-205.3986 306.2929,-205.3986 306.2929,-264.2014"/>
<text text-anchor="middle" x="232.7879" y="-247.4" font-family="Times,serif" font-size="14.00" fill="#000000">GO:0008234</text>
<text text-anchor="middle" x="232.7879" y="-230.6" font-family="Times,serif" font-size="14.00" fill="#000000">cysteine&#45;type peptidase</text>
<text text-anchor="middle" x="232.7879" y="-213.8" font-family="Times,serif" font-size="14.00" fill="#000000">activity</text>
</g>
<!-- GO:0019783&#45;&gt;GO:0008234 -->
<g id="edge7" class="edge">
<title>GO:0019783&#45;&gt;GO:0008234</title>
<path fill="none" stroke="#000000" d="M232.7879,-169.6952C232.7879,-178.0874 232.7879,-187.0054 232.7879,-195.4618"/>
<polygon fill="#000000" stroke="#000000" points="229.288,-195.4813 232.7879,-205.4814 236.288,-195.4814 229.288,-195.4813"/>
</g>
<!-- GO:0008234&#45;&gt;GO:0070011 -->
<g id="edge8" class="edge">
<title>GO:0008234&#45;&gt;GO:0070011</title>
<path fill="none" stroke="#000000" d="M209.5766,-264.2584C202.8513,-272.7936 195.3431,-282.3226 188.0228,-291.613"/>
<polygon fill="#000000" stroke="#000000" points="185.1025,-289.6641 181.6626,-299.685 190.6008,-293.9964 185.1025,-289.6641"/>
</g>
</g>
</svg>
