<?xml version="1.0" encoding="UTF-8" standalone="no"?>
<!DOCTYPE svg PUBLIC "-//W3C//DTD SVG 1.1//EN"
 "http://www.w3.org/Graphics/SVG/1.1/DTD/svg11.dtd">
<!-- Generated by graphviz version 2.40.1 (20161225.0304)
 -->
<!-- Title: G Pages: 1 -->
<svg width="464pt" height="882pt"
 viewBox="0.00 0.00 464.14 882.40" xmlns="http://www.w3.org/2000/svg" xmlns:xlink="http://www.w3.org/1999/xlink">
<g id="graph0" class="graph" transform="scale(1 1) rotate(0) translate(4 878.4)">
<title>G</title>
<polygon fill="#ffffff" stroke="transparent" points="-4,4 -4,-878.4 460.1372,-878.4 460.1372,4 -4,4"/>
<!-- GO:0016926 -->
<g id="node1" class="node">
<title>GO:0016926</title>
<polygon fill="#ff0000" stroke="#000000" points="247.4793,-41.4019 106.2929,-41.4019 106.2929,-.1981 247.4793,-.1981 247.4793,-41.4019"/>
<text text-anchor="middle" x="176.8861" y="-25" font-family="Times,serif" font-size="14.00" fill="#000000">GO:0016926</text>
<text text-anchor="middle" x="176.8861" y="-8.2" font-family="Times,serif" font-size="14.00" fill="#000000">protein desumoylation</text>
</g>
<!-- GO:0018205 -->
<g id="node2" class="node">
<title>GO:0018205</title>
<polygon fill="#ffffff" stroke="#000000" points="155.8735,-136.2014 55.8987,-136.2014 55.8987,-77.3986 155.8735,-77.3986 155.8735,-136.2014"/>
<text text-anchor="middle" x="105.8861" y="-119.4" font-family="Times,serif" font-size="14.00" fill="#000000">GO:0018205</text>
<text text-anchor="middle" x="105.8861" y="-102.6" font-family="Times,serif" font-size="14.00" fill="#000000">peptidyl&#45;lysine</text>
<text text-anchor="middle" x="105.8861" y="-85.8" font-family="Times,serif" font-size="14.00" fill="#000000">modification</text>
</g>
<!-- GO:0016926&#45;&gt;GO:0018205 -->
<g id="edge1" class="edge">
<title>GO:0016926&#45;&gt;GO:0018205</title>
<path fill="none" stroke="#000000" d="M159.699,-41.6182C152.7734,-50.0069 144.5674,-59.9466 136.6773,-69.5037"/>
<polygon fill="#000000" stroke="#000000" points="133.8264,-67.4593 130.1589,-77.3991 139.2245,-71.9159 133.8264,-67.4593"/>
</g>
<!-- GO:0070646 -->
<g id="node3" class="node">
<title>GO:0070646</title>
<polygon fill="#ffffff" stroke="#000000" points="332.0854,-136.2014 183.6868,-136.2014 183.6868,-77.3986 332.0854,-77.3986 332.0854,-136.2014"/>
<text text-anchor="middle" x="257.8861" y="-119.4" font-family="Times,serif" font-size="14.00" fill="#000000">GO:0070646</text>
<text text-anchor="middle" x="257.8861" y="-102.6" font-family="Times,serif" font-size="14.00" fill="#000000">protein modification by</text>
<text text-anchor="middle" x="257.8861" y="-85.8" font-family="Times,serif" font-size="14.00" fill="#000000">small protein removal</text>
</g>
<!-- GO:0016926&#45;&gt;GO:0070646 -->
<g id="edge2" class="edge">
<title>GO:0016926&#45;&gt;GO:0070646</title>
<path fill="none" stroke="#000000" d="M196.4939,-41.6182C204.5529,-50.1747 214.1318,-60.3448 223.2978,-70.0766"/>
<polygon fill="#000000" stroke="#000000" points="220.7904,-72.5193 230.1946,-77.3991 225.8861,-67.7199 220.7904,-72.5193"/>
</g>
<!-- GO:0018193 -->
<g id="node4" class="node">
<title>GO:0018193</title>
<polygon fill="#ffffff" stroke="#000000" points="160.2492,-239.0014 31.523,-239.0014 31.523,-180.1986 160.2492,-180.1986 160.2492,-239.0014"/>
<text text-anchor="middle" x="95.8861" y="-222.2" font-family="Times,serif" font-size="14.00" fill="#000000">GO:0018193</text>
<text text-anchor="middle" x="95.8861" y="-205.4" font-family="Times,serif" font-size="14.00" fill="#000000">peptidyl&#45;amino acid</text>
<text text-anchor="middle" x="95.8861" y="-188.6" font-family="Times,serif" font-size="14.00" fill="#000000">modification</text>
</g>
<!-- GO:0018205&#45;&gt;GO:0018193 -->
<g id="edge3" class="edge">
<title>GO:0018205&#45;&gt;GO:0018193</title>
<path fill="none" stroke="#000000" d="M103.0205,-136.2584C101.9953,-146.7969 100.8228,-158.8505 99.7286,-170.0994"/>
<polygon fill="#000000" stroke="#000000" points="96.2368,-169.8454 98.7521,-180.1373 103.204,-170.5232 96.2368,-169.8454"/>
</g>
<!-- GO:0006508 -->
<g id="node5" class="node">
<title>GO:0006508</title>
<polygon fill="#ffffff" stroke="#000000" points="410.49,-333.0019 321.2822,-333.0019 321.2822,-291.7981 410.49,-291.7981 410.49,-333.0019"/>
<text text-anchor="middle" x="365.8861" y="-316.6" font-family="Times,serif" font-size="14.00" fill="#000000">GO:0006508</text>
<text text-anchor="middle" x="365.8861" y="-299.8" font-family="Times,serif" font-size="14.00" fill="#000000">proteolysis</text>
</g>
<!-- GO:0070646&#45;&gt;GO:0006508 -->
<g id="edge4" class="edge">
<title>GO:0070646&#45;&gt;GO:0006508</title>
<path fill="none" stroke="#000000" d="M312.3634,-136.1394C325.6594,-145.8384 338.4662,-157.8421 346.8861,-172 366.818,-205.5152 369.35,-251.3624 368.3887,-281.4156"/>
<polygon fill="#000000" stroke="#000000" points="364.8777,-281.5671 367.9022,-291.7211 371.8699,-281.8973 364.8777,-281.5671"/>
</g>
<!-- GO:0070647 -->
<g id="node6" class="node">
<title>GO:0070647</title>
<polygon fill="#ffffff" stroke="#000000" points="337.4745,-247.3003 178.2977,-247.3003 178.2977,-171.8997 337.4745,-171.8997 337.4745,-247.3003"/>
<text text-anchor="middle" x="257.8861" y="-230.6" font-family="Times,serif" font-size="14.00" fill="#000000">GO:0070647</text>
<text text-anchor="middle" x="257.8861" y="-213.8" font-family="Times,serif" font-size="14.00" fill="#000000">protein modification by</text>
<text text-anchor="middle" x="257.8861" y="-197" font-family="Times,serif" font-size="14.00" fill="#000000">small protein conjugation</text>
<text text-anchor="middle" x="257.8861" y="-180.2" font-family="Times,serif" font-size="14.00" fill="#000000">or removal</text>
</g>
<!-- GO:0070646&#45;&gt;GO:0070647 -->
<g id="edge5" class="edge">
<title>GO:0070646&#45;&gt;GO:0070647</title>
<path fill="none" stroke="#000000" d="M257.8861,-136.2584C257.8861,-144.1901 257.8861,-152.98 257.8861,-161.6392"/>
<polygon fill="#000000" stroke="#000000" points="254.3862,-161.6849 257.8861,-171.685 261.3862,-161.685 254.3862,-161.6849"/>
</g>
<!-- GO:0006464 -->
<g id="node7" class="node">
<title>GO:0006464</title>
<polygon fill="#ffffff" stroke="#000000" points="222.4079,-341.8014 89.3643,-341.8014 89.3643,-282.9986 222.4079,-282.9986 222.4079,-341.8014"/>
<text text-anchor="middle" x="155.8861" y="-325" font-family="Times,serif" font-size="14.00" fill="#000000">GO:0006464</text>
<text text-anchor="middle" x="155.8861" y="-308.2" font-family="Times,serif" font-size="14.00" fill="#000000">cellular protein</text>
<text text-anchor="middle" x="155.8861" y="-291.4" font-family="Times,serif" font-size="14.00" fill="#000000">modification process</text>
</g>
<!-- GO:0018193&#45;&gt;GO:0006464 -->
<g id="edge6" class="edge">
<title>GO:0018193&#45;&gt;GO:0006464</title>
<path fill="none" stroke="#000000" d="M113.0797,-239.0584C119.4817,-250.0271 126.8415,-262.6369 133.6328,-274.2727"/>
<polygon fill="#000000" stroke="#000000" points="130.6263,-276.0651 138.69,-282.9373 136.672,-272.5365 130.6263,-276.0651"/>
</g>
<!-- GO:0019538 -->
<g id="node8" class="node">
<title>GO:0019538</title>
<polygon fill="#ffffff" stroke="#000000" points="445.7278,-521.8019 286.0444,-521.8019 286.0444,-480.5981 445.7278,-480.5981 445.7278,-521.8019"/>
<text text-anchor="middle" x="365.8861" y="-505.4" font-family="Times,serif" font-size="14.00" fill="#000000">GO:0019538</text>
<text text-anchor="middle" x="365.8861" y="-488.6" font-family="Times,serif" font-size="14.00" fill="#000000">protein metabolic process</text>
</g>
<!-- GO:0006508&#45;&gt;GO:0019538 -->
<g id="edge7" class="edge">
<title>GO:0006508&#45;&gt;GO:0019538</title>
<path fill="none" stroke="#000000" d="M365.8861,-333.3263C365.8861,-366.5865 365.8861,-431.6928 365.8861,-470.3227"/>
<polygon fill="#000000" stroke="#000000" points="362.3862,-470.4677 365.8861,-480.4677 369.3862,-470.4678 362.3862,-470.4677"/>
</g>
<!-- GO:0070647&#45;&gt;GO:0006464 -->
<g id="edge8" class="edge">
<title>GO:0070647&#45;&gt;GO:0006464</title>
<path fill="none" stroke="#000000" d="M220.4843,-247.2952C211.2423,-256.6096 201.3577,-266.5717 192.17,-275.8316"/>
<polygon fill="#000000" stroke="#000000" points="189.5355,-273.5175 184.9766,-283.0814 194.5045,-278.4479 189.5355,-273.5175"/>
</g>
<!-- GO:0044267 -->
<g id="node9" class="node">
<title>GO:0044267</title>
<polygon fill="#ffffff" stroke="#000000" points="161.0717,-436.2014 44.7005,-436.2014 44.7005,-377.3986 161.0717,-377.3986 161.0717,-436.2014"/>
<text text-anchor="middle" x="102.8861" y="-419.4" font-family="Times,serif" font-size="14.00" fill="#000000">GO:0044267</text>
<text text-anchor="middle" x="102.8861" y="-402.6" font-family="Times,serif" font-size="14.00" fill="#000000">cellular protein</text>
<text text-anchor="middle" x="102.8861" y="-385.8" font-family="Times,serif" font-size="14.00" fill="#000000">metabolic process</text>
</g>
<!-- GO:0006464&#45;&gt;GO:0044267 -->
<g id="edge9" class="edge">
<title>GO:0006464&#45;&gt;GO:0044267</title>
<path fill="none" stroke="#000000" d="M139.4071,-341.7513C134.6211,-350.2758 129.3237,-359.7111 124.2824,-368.6904"/>
<polygon fill="#000000" stroke="#000000" points="121.1987,-367.0337 119.3549,-377.4669 127.3025,-370.4606 121.1987,-367.0337"/>
</g>
<!-- GO:0036211 -->
<g id="node10" class="node">
<title>GO:0036211</title>
<polygon fill="#ffffff" stroke="#000000" points="310.0856,-436.2014 179.6866,-436.2014 179.6866,-377.3986 310.0856,-377.3986 310.0856,-436.2014"/>
<text text-anchor="middle" x="244.8861" y="-419.4" font-family="Times,serif" font-size="14.00" fill="#000000">GO:0036211</text>
<text text-anchor="middle" x="244.8861" y="-402.6" font-family="Times,serif" font-size="14.00" fill="#000000">protein modification</text>
<text text-anchor="middle" x="244.8861" y="-385.8" font-family="Times,serif" font-size="14.00" fill="#000000">process</text>
</g>
<!-- GO:0006464&#45;&gt;GO:0036211 -->
<g id="edge10" class="edge">
<title>GO:0006464&#45;&gt;GO:0036211</title>
<path fill="none" stroke="#000000" d="M183.5584,-341.7513C192.0138,-350.7198 201.4199,-360.6965 210.2755,-370.0894"/>
<polygon fill="#000000" stroke="#000000" points="207.8243,-372.5917 217.2309,-377.4669 212.9176,-367.7897 207.8243,-372.5917"/>
</g>
<!-- GO:0044238 -->
<g id="node11" class="node">
<title>GO:0044238</title>
<polygon fill="#ffffff" stroke="#000000" points="455.8891,-710.6019 291.8831,-710.6019 291.8831,-669.3981 455.8891,-669.3981 455.8891,-710.6019"/>
<text text-anchor="middle" x="373.8861" y="-694.2" font-family="Times,serif" font-size="14.00" fill="#000000">GO:0044238</text>
<text text-anchor="middle" x="373.8861" y="-677.4" font-family="Times,serif" font-size="14.00" fill="#000000">primary metabolic process</text>
</g>
<!-- GO:0019538&#45;&gt;GO:0044238 -->
<g id="edge11" class="edge">
<title>GO:0019538&#45;&gt;GO:0044238</title>
<path fill="none" stroke="#000000" d="M366.7728,-522.1263C368.1821,-555.3865 370.9409,-620.4928 372.5777,-659.1227"/>
<polygon fill="#000000" stroke="#000000" points="369.0873,-659.4249 373.0076,-669.2677 376.081,-659.1285 369.0873,-659.4249"/>
</g>
<!-- GO:0043170 -->
<g id="node12" class="node">
<title>GO:0043170</title>
<polygon fill="#ffffff" stroke="#000000" points="297.3883,-625.0014 136.3839,-625.0014 136.3839,-566.1986 297.3883,-566.1986 297.3883,-625.0014"/>
<text text-anchor="middle" x="216.8861" y="-608.2" font-family="Times,serif" font-size="14.00" fill="#000000">GO:0043170</text>
<text text-anchor="middle" x="216.8861" y="-591.4" font-family="Times,serif" font-size="14.00" fill="#000000">macromolecule metabolic</text>
<text text-anchor="middle" x="216.8861" y="-574.6" font-family="Times,serif" font-size="14.00" fill="#000000">process</text>
</g>
<!-- GO:0019538&#45;&gt;GO:0043170 -->
<g id="edge12" class="edge">
<title>GO:0019538&#45;&gt;GO:0043170</title>
<path fill="none" stroke="#000000" d="M333.1874,-521.9165C315.1977,-533.314 292.4,-547.7576 271.7648,-560.8312"/>
<polygon fill="#000000" stroke="#000000" points="269.648,-558.0289 263.0738,-566.3374 273.3944,-563.9421 269.648,-558.0289"/>
</g>
<!-- GO:0044267&#45;&gt;GO:0019538 -->
<g id="edge13" class="edge">
<title>GO:0044267&#45;&gt;GO:0019538</title>
<path fill="none" stroke="#000000" d="M161.3655,-432.2767C164.5758,-433.5611 167.7647,-434.8103 170.8861,-436 182.9114,-440.5832 243.2648,-460.6917 293.6836,-477.3802"/>
<polygon fill="#000000" stroke="#000000" points="292.6993,-480.7411 303.2925,-480.5592 294.898,-474.0954 292.6993,-480.7411"/>
</g>
<!-- GO:0044260 -->
<g id="node13" class="node">
<title>GO:0044260</title>
<polygon fill="#ffffff" stroke="#000000" points="147.6585,-530.6014 .1137,-530.6014 .1137,-471.7986 147.6585,-471.7986 147.6585,-530.6014"/>
<text text-anchor="middle" x="73.8861" y="-513.8" font-family="Times,serif" font-size="14.00" fill="#000000">GO:0044260</text>
<text text-anchor="middle" x="73.8861" y="-497" font-family="Times,serif" font-size="14.00" fill="#000000">cellular macromolecule</text>
<text text-anchor="middle" x="73.8861" y="-480.2" font-family="Times,serif" font-size="14.00" fill="#000000">metabolic process</text>
</g>
<!-- GO:0044267&#45;&gt;GO:0044260 -->
<g id="edge14" class="edge">
<title>GO:0044267&#45;&gt;GO:0044260</title>
<path fill="none" stroke="#000000" d="M93.8693,-436.1513C91.3324,-444.4094 88.5328,-453.5223 85.8525,-462.2473"/>
<polygon fill="#000000" stroke="#000000" points="82.4883,-461.2799 82.8973,-471.8669 89.1797,-463.3356 82.4883,-461.2799"/>
</g>
<!-- GO:0036211&#45;&gt;GO:0019538 -->
<g id="edge15" class="edge">
<title>GO:0036211&#45;&gt;GO:0019538</title>
<path fill="none" stroke="#000000" d="M282.508,-436.1513C298.0783,-448.2987 316.0194,-462.2958 331.261,-474.1867"/>
<polygon fill="#000000" stroke="#000000" points="329.3813,-477.1594 339.4186,-480.551 333.6871,-471.6403 329.3813,-477.1594"/>
</g>
<!-- GO:0043412 -->
<g id="node14" class="node">
<title>GO:0043412</title>
<polygon fill="#ffffff" stroke="#000000" points="268.1825,-530.6014 165.5897,-530.6014 165.5897,-471.7986 268.1825,-471.7986 268.1825,-530.6014"/>
<text text-anchor="middle" x="216.8861" y="-513.8" font-family="Times,serif" font-size="14.00" fill="#000000">GO:0043412</text>
<text text-anchor="middle" x="216.8861" y="-497" font-family="Times,serif" font-size="14.00" fill="#000000">macromolecule</text>
<text text-anchor="middle" x="216.8861" y="-480.2" font-family="Times,serif" font-size="14.00" fill="#000000">modification</text>
</g>
<!-- GO:0036211&#45;&gt;GO:0043412 -->
<g id="edge16" class="edge">
<title>GO:0036211&#45;&gt;GO:0043412</title>
<path fill="none" stroke="#000000" d="M236.1802,-436.1513C233.7308,-444.4094 231.0278,-453.5223 228.4399,-462.2473"/>
<polygon fill="#000000" stroke="#000000" points="225.0748,-461.2844 225.5866,-471.8669 231.7858,-463.275 225.0748,-461.2844"/>
</g>
<!-- GO:0008152 -->
<g id="node15" class="node">
<title>GO:0008152</title>
<polygon fill="#ffffff" stroke="#000000" points="273.0717,-796.6019 156.7005,-796.6019 156.7005,-755.3981 273.0717,-755.3981 273.0717,-796.6019"/>
<text text-anchor="middle" x="214.8861" y="-780.2" font-family="Times,serif" font-size="14.00" fill="#000000">GO:0008152</text>
<text text-anchor="middle" x="214.8861" y="-763.4" font-family="Times,serif" font-size="14.00" fill="#000000">metabolic process</text>
</g>
<!-- GO:0044238&#45;&gt;GO:0008152 -->
<g id="edge17" class="edge">
<title>GO:0044238&#45;&gt;GO:0008152</title>
<path fill="none" stroke="#000000" d="M335.3966,-710.8182C313.3274,-722.755 285.4519,-737.8323 262.0706,-750.4788"/>
<polygon fill="#000000" stroke="#000000" points="260.1518,-747.5374 253.0211,-755.3735 263.4821,-753.6945 260.1518,-747.5374"/>
</g>
<!-- GO:0071704 -->
<g id="node16" class="node">
<title>GO:0071704</title>
<polygon fill="#ffffff" stroke="#000000" points="273.0717,-719.4014 156.7005,-719.4014 156.7005,-660.5986 273.0717,-660.5986 273.0717,-719.4014"/>
<text text-anchor="middle" x="214.8861" y="-702.6" font-family="Times,serif" font-size="14.00" fill="#000000">GO:0071704</text>
<text text-anchor="middle" x="214.8861" y="-685.8" font-family="Times,serif" font-size="14.00" fill="#000000">organic substance</text>
<text text-anchor="middle" x="214.8861" y="-669" font-family="Times,serif" font-size="14.00" fill="#000000">metabolic process</text>
</g>
<!-- GO:0043170&#45;&gt;GO:0071704 -->
<g id="edge18" class="edge">
<title>GO:0043170&#45;&gt;GO:0071704</title>
<path fill="none" stroke="#000000" d="M216.2643,-624.9513C216.0931,-633.0318 215.9045,-641.9308 215.7233,-650.4838"/>
<polygon fill="#000000" stroke="#000000" points="212.2203,-650.5949 215.5076,-660.6669 219.2187,-650.7433 212.2203,-650.5949"/>
</g>
<!-- GO:0044260&#45;&gt;GO:0043170 -->
<g id="edge20" class="edge">
<title>GO:0044260&#45;&gt;GO:0043170</title>
<path fill="none" stroke="#000000" d="M118.3483,-530.5513C132.7411,-540.0525 148.8481,-550.6854 163.8018,-560.5569"/>
<polygon fill="#000000" stroke="#000000" points="162.1776,-563.6785 172.4514,-566.2669 166.034,-557.8366 162.1776,-563.6785"/>
</g>
<!-- GO:0044237 -->
<g id="node17" class="node">
<title>GO:0044237</title>
<polygon fill="#ffffff" stroke="#000000" points="118.0689,-625.0014 1.7033,-625.0014 1.7033,-566.1986 118.0689,-566.1986 118.0689,-625.0014"/>
<text text-anchor="middle" x="59.8861" y="-608.2" font-family="Times,serif" font-size="14.00" fill="#000000">GO:0044237</text>
<text text-anchor="middle" x="59.8861" y="-591.4" font-family="Times,serif" font-size="14.00" fill="#000000">cellular metabolic</text>
<text text-anchor="middle" x="59.8861" y="-574.6" font-family="Times,serif" font-size="14.00" fill="#000000">process</text>
</g>
<!-- GO:0044260&#45;&gt;GO:0044237 -->
<g id="edge19" class="edge">
<title>GO:0044260&#45;&gt;GO:0044237</title>
<path fill="none" stroke="#000000" d="M69.5332,-530.5513C68.3216,-538.7206 66.986,-547.7264 65.7047,-556.3657"/>
<polygon fill="#000000" stroke="#000000" points="62.2413,-555.8616 64.2364,-566.2669 69.1656,-556.8885 62.2413,-555.8616"/>
</g>
<!-- GO:0043412&#45;&gt;GO:0043170 -->
<g id="edge21" class="edge">
<title>GO:0043412&#45;&gt;GO:0043170</title>
<path fill="none" stroke="#000000" d="M216.8861,-530.5513C216.8861,-538.6318 216.8861,-547.5308 216.8861,-556.0838"/>
<polygon fill="#000000" stroke="#000000" points="213.3862,-556.2668 216.8861,-566.2669 220.3862,-556.2669 213.3862,-556.2668"/>
</g>
<!-- GO:0008150 -->
<g id="node18" class="node">
<title>GO:0008150</title>
<polygon fill="#ffffff" stroke="#000000" points="275.3567,-874.2019 154.4155,-874.2019 154.4155,-832.9981 275.3567,-832.9981 275.3567,-874.2019"/>
<text text-anchor="middle" x="214.8861" y="-857.8" font-family="Times,serif" font-size="14.00" fill="#000000">GO:0008150</text>
<text text-anchor="middle" x="214.8861" y="-841" font-family="Times,serif" font-size="14.00" fill="#000000">biological_process</text>
</g>
<!-- GO:0008152&#45;&gt;GO:0008150 -->
<g id="edge22" class="edge">
<title>GO:0008152&#45;&gt;GO:0008150</title>
<path fill="none" stroke="#000000" d="M214.8861,-796.7954C214.8861,-804.7109 214.8861,-813.9109 214.8861,-822.5722"/>
<polygon fill="#000000" stroke="#000000" points="211.3862,-822.7472 214.8861,-832.7472 218.3862,-822.7473 211.3862,-822.7472"/>
</g>
<!-- GO:0071704&#45;&gt;GO:0008152 -->
<g id="edge23" class="edge">
<title>GO:0071704&#45;&gt;GO:0008152</title>
<path fill="none" stroke="#000000" d="M214.8861,-719.5963C214.8861,-727.8638 214.8861,-736.8657 214.8861,-745.2008"/>
<polygon fill="#000000" stroke="#000000" points="211.3862,-745.2965 214.8861,-755.2966 218.3862,-745.2966 211.3862,-745.2965"/>
</g>
<!-- GO:0044237&#45;&gt;GO:0008152 -->
<g id="edge25" class="edge">
<title>GO:0044237&#45;&gt;GO:0008152</title>
<path fill="none" stroke="#000000" d="M38.7321,-624.9508C22.2163,-651.7925 5.2348,-691.4299 25.8861,-719.2 40.5837,-738.964 98.3853,-754.4439 146.2394,-764.2179"/>
<polygon fill="#000000" stroke="#000000" points="145.7899,-767.697 156.2808,-766.2164 147.1564,-760.8317 145.7899,-767.697"/>
</g>
<!-- GO:0009987 -->
<g id="node19" class="node">
<title>GO:0009987</title>
<polygon fill="#ffffff" stroke="#000000" points="138.8423,-710.6019 34.9299,-710.6019 34.9299,-669.3981 138.8423,-669.3981 138.8423,-710.6019"/>
<text text-anchor="middle" x="86.8861" y="-694.2" font-family="Times,serif" font-size="14.00" fill="#000000">GO:0009987</text>
<text text-anchor="middle" x="86.8861" y="-677.4" font-family="Times,serif" font-size="14.00" fill="#000000">cellular process</text>
</g>
<!-- GO:0044237&#45;&gt;GO:0009987 -->
<g id="edge24" class="edge">
<title>GO:0044237&#45;&gt;GO:0009987</title>
<path fill="none" stroke="#000000" d="M68.2811,-624.9513C71.4337,-635.9739 75.022,-648.5196 78.2005,-659.6326"/>
<polygon fill="#000000" stroke="#000000" points="74.8651,-660.699 80.9801,-669.351 81.5952,-658.774 74.8651,-660.699"/>
</g>
</g>
</svg>
