<?xml version="1.0" encoding="UTF-8" standalone="no"?>
<!DOCTYPE svg PUBLIC "-//W3C//DTD SVG 1.1//EN"
 "http://www.w3.org/Graphics/SVG/1.1/DTD/svg11.dtd">
<!-- Generated by graphviz version 2.40.1 (20161225.0304)
 -->
<!-- Title: G Pages: 1 -->
<svg width="294pt" height="394pt"
 viewBox="0.00 0.00 293.59 393.60" xmlns="http://www.w3.org/2000/svg" xmlns:xlink="http://www.w3.org/1999/xlink">
<g id="graph0" class="graph" transform="scale(1 1) rotate(0) translate(4 389.6)">
<title>G</title>
<polygon fill="#ffffff" stroke="transparent" points="-4,4 -4,-389.6 289.5895,-389.6 289.5895,4 -4,4"/>
<!-- GO:0005634 -->
<g id="node1" class="node">
<title>GO:0005634</title>
<polygon fill="#ff0000" stroke="#000000" points="190.213,-41.4019 101.0052,-41.4019 101.0052,-.1981 190.213,-.1981 190.213,-41.4019"/>
<text text-anchor="middle" x="145.6091" y="-25" font-family="Times,serif" font-size="14.00" fill="#000000">GO:0005634</text>
<text text-anchor="middle" x="145.6091" y="-8.2" font-family="Times,serif" font-size="14.00" fill="#000000">nucleus</text>
</g>
<!-- GO:0043231 -->
<g id="node2" class="node">
<title>GO:0043231</title>
<polygon fill="#ffffff" stroke="#000000" points="220.9879,-136.2014 70.2303,-136.2014 70.2303,-77.3986 220.9879,-77.3986 220.9879,-136.2014"/>
<text text-anchor="middle" x="145.6091" y="-119.4" font-family="Times,serif" font-size="14.00" fill="#000000">GO:0043231</text>
<text text-anchor="middle" x="145.6091" y="-102.6" font-family="Times,serif" font-size="14.00" fill="#000000">intracellular membrane&#45;</text>
<text text-anchor="middle" x="145.6091" y="-85.8" font-family="Times,serif" font-size="14.00" fill="#000000">bounded organelle</text>
</g>
<!-- GO:0005634&#45;&gt;GO:0043231 -->
<g id="edge1" class="edge">
<title>GO:0005634&#45;&gt;GO:0043231</title>
<path fill="none" stroke="#000000" d="M145.6091,-41.6182C145.6091,-49.3358 145.6091,-58.3662 145.6091,-67.2036"/>
<polygon fill="#000000" stroke="#000000" points="142.1092,-67.3991 145.6091,-77.3991 149.1092,-67.3992 142.1092,-67.3991"/>
</g>
<!-- GO:0043229 -->
<g id="node3" class="node">
<title>GO:0043229</title>
<polygon fill="#ffffff" stroke="#000000" points="139.3275,-221.8019 -.1093,-221.8019 -.1093,-180.5981 139.3275,-180.5981 139.3275,-221.8019"/>
<text text-anchor="middle" x="69.6091" y="-205.4" font-family="Times,serif" font-size="14.00" fill="#000000">GO:0043229</text>
<text text-anchor="middle" x="69.6091" y="-188.6" font-family="Times,serif" font-size="14.00" fill="#000000">intracellular organelle</text>
</g>
<!-- GO:0043231&#45;&gt;GO:0043229 -->
<g id="edge2" class="edge">
<title>GO:0043231&#45;&gt;GO:0043229</title>
<path fill="none" stroke="#000000" d="M121.9788,-136.1513C112.6519,-147.7363 101.9705,-161.0037 92.6973,-172.522"/>
<polygon fill="#000000" stroke="#000000" points="89.7781,-170.5667 86.2333,-180.551 95.2307,-174.9565 89.7781,-170.5667"/>
</g>
<!-- GO:0043227 -->
<g id="node4" class="node">
<title>GO:0043227</title>
<polygon fill="#ffffff" stroke="#000000" points="285.5699,-230.6014 157.6483,-230.6014 157.6483,-171.7986 285.5699,-171.7986 285.5699,-230.6014"/>
<text text-anchor="middle" x="221.6091" y="-213.8" font-family="Times,serif" font-size="14.00" fill="#000000">GO:0043227</text>
<text text-anchor="middle" x="221.6091" y="-197" font-family="Times,serif" font-size="14.00" fill="#000000">membrane&#45;bounded</text>
<text text-anchor="middle" x="221.6091" y="-180.2" font-family="Times,serif" font-size="14.00" fill="#000000">organelle</text>
</g>
<!-- GO:0043231&#45;&gt;GO:0043227 -->
<g id="edge3" class="edge">
<title>GO:0043231&#45;&gt;GO:0043227</title>
<path fill="none" stroke="#000000" d="M169.2394,-136.1513C176.3168,-144.9422 184.1741,-154.7018 191.6042,-163.9308"/>
<polygon fill="#000000" stroke="#000000" points="188.9961,-166.2724 197.9934,-171.8669 194.4486,-161.8826 188.9961,-166.2724"/>
</g>
<!-- GO:0044424 -->
<g id="node5" class="node">
<title>GO:0044424</title>
<polygon fill="#ffffff" stroke="#000000" points="124.0075,-307.8019 15.2107,-307.8019 15.2107,-266.5981 124.0075,-266.5981 124.0075,-307.8019"/>
<text text-anchor="middle" x="69.6091" y="-291.4" font-family="Times,serif" font-size="14.00" fill="#000000">GO:0044424</text>
<text text-anchor="middle" x="69.6091" y="-274.6" font-family="Times,serif" font-size="14.00" fill="#000000">intracellular part</text>
</g>
<!-- GO:0043229&#45;&gt;GO:0044424 -->
<g id="edge4" class="edge">
<title>GO:0043229&#45;&gt;GO:0044424</title>
<path fill="none" stroke="#000000" d="M69.6091,-222.0182C69.6091,-232.3705 69.6091,-245.0848 69.6091,-256.5271"/>
<polygon fill="#000000" stroke="#000000" points="66.1092,-256.5735 69.6091,-266.5735 73.1092,-256.5735 66.1092,-256.5735"/>
</g>
<!-- GO:0043226 -->
<g id="node6" class="node">
<title>GO:0043226</title>
<polygon fill="#ffffff" stroke="#000000" points="253.213,-307.8019 164.0052,-307.8019 164.0052,-266.5981 253.213,-266.5981 253.213,-307.8019"/>
<text text-anchor="middle" x="208.6091" y="-291.4" font-family="Times,serif" font-size="14.00" fill="#000000">GO:0043226</text>
<text text-anchor="middle" x="208.6091" y="-274.6" font-family="Times,serif" font-size="14.00" fill="#000000">organelle</text>
</g>
<!-- GO:0043229&#45;&gt;GO:0043226 -->
<g id="edge5" class="edge">
<title>GO:0043229&#45;&gt;GO:0043226</title>
<path fill="none" stroke="#000000" d="M103.2571,-222.0182C122.2942,-233.7966 146.2734,-248.6326 166.5437,-261.1739"/>
<polygon fill="#000000" stroke="#000000" points="164.9255,-264.2884 175.2709,-266.5735 168.6085,-258.3356 164.9255,-264.2884"/>
</g>
<!-- GO:0043227&#45;&gt;GO:0043226 -->
<g id="edge6" class="edge">
<title>GO:0043227&#45;&gt;GO:0043226</title>
<path fill="none" stroke="#000000" d="M217.1352,-230.7963C215.8855,-239.0638 214.5247,-248.0657 213.2648,-256.4008"/>
<polygon fill="#000000" stroke="#000000" points="209.7727,-256.0857 211.7387,-266.4966 216.6941,-257.132 209.7727,-256.0857"/>
</g>
<!-- GO:0044464 -->
<g id="node7" class="node">
<title>GO:0044464</title>
<polygon fill="#ffffff" stroke="#000000" points="114.213,-385.4019 25.0052,-385.4019 25.0052,-344.1981 114.213,-344.1981 114.213,-385.4019"/>
<text text-anchor="middle" x="69.6091" y="-369" font-family="Times,serif" font-size="14.00" fill="#000000">GO:0044464</text>
<text text-anchor="middle" x="69.6091" y="-352.2" font-family="Times,serif" font-size="14.00" fill="#000000">cell part</text>
</g>
<!-- GO:0044424&#45;&gt;GO:0044464 -->
<g id="edge7" class="edge">
<title>GO:0044424&#45;&gt;GO:0044464</title>
<path fill="none" stroke="#000000" d="M69.6091,-307.9954C69.6091,-315.9109 69.6091,-325.1109 69.6091,-333.7722"/>
<polygon fill="#000000" stroke="#000000" points="66.1092,-333.9472 69.6091,-343.9472 73.1092,-333.9473 66.1092,-333.9472"/>
</g>
<!-- GO:0005575 -->
<g id="node8" class="node">
<title>GO:0005575</title>
<polygon fill="#ffffff" stroke="#000000" points="272.2958,-385.4019 144.9224,-385.4019 144.9224,-344.1981 272.2958,-344.1981 272.2958,-385.4019"/>
<text text-anchor="middle" x="208.6091" y="-369" font-family="Times,serif" font-size="14.00" fill="#000000">GO:0005575</text>
<text text-anchor="middle" x="208.6091" y="-352.2" font-family="Times,serif" font-size="14.00" fill="#000000">cellular_component</text>
</g>
<!-- GO:0043226&#45;&gt;GO:0005575 -->
<g id="edge8" class="edge">
<title>GO:0043226&#45;&gt;GO:0005575</title>
<path fill="none" stroke="#000000" d="M208.6091,-307.9954C208.6091,-315.9109 208.6091,-325.1109 208.6091,-333.7722"/>
<polygon fill="#000000" stroke="#000000" points="205.1092,-333.9472 208.6091,-343.9472 212.1092,-333.9473 205.1092,-333.9472"/>
</g>
</g>
</svg>
