<?xml version="1.0" encoding="UTF-8" standalone="no"?>
<!DOCTYPE svg PUBLIC "-//W3C//DTD SVG 1.1//EN"
 "http://www.w3.org/Graphics/SVG/1.1/DTD/svg11.dtd">
<!-- Generated by graphviz version 2.40.1 (20161225.0304)
 -->
<!-- Title: G Pages: 1 -->
<svg width="1090pt" height="316pt"
 viewBox="0.00 0.00 1089.54 316.00" xmlns="http://www.w3.org/2000/svg" xmlns:xlink="http://www.w3.org/1999/xlink">
<g id="graph0" class="graph" transform="scale(1 1) rotate(0) translate(4 312)">
<title>G</title>
<polygon fill="#ffffff" stroke="transparent" points="-4,4 -4,-312 1085.5383,-312 1085.5383,4 -4,4"/>
<!-- GO:0007165 -->
<g id="node1" class="node">
<title>GO:0007165</title>
<polygon fill="#00ffff" stroke="#000000" points="127.8459,-41.4019 5.5525,-41.4019 5.5525,-.1981 127.8459,-.1981 127.8459,-41.4019"/>
<text text-anchor="middle" x="66.6992" y="-25" font-family="Times,serif" font-size="14.00" fill="#000000">GO:0007165</text>
<text text-anchor="middle" x="66.6992" y="-8.2" font-family="Times,serif" font-size="14.00" fill="#000000">signal transduction</text>
</g>
<!-- GO:0050794 -->
<g id="node2" class="node">
<title>GO:0050794</title>
<polygon fill="#00ff00" stroke="#000000" points="133.5982,-136.2014 -.1998,-136.2014 -.1998,-77.3986 133.5982,-77.3986 133.5982,-136.2014"/>
<text text-anchor="middle" x="66.6992" y="-119.4" font-family="Times,serif" font-size="14.00" fill="#000000">GO:0050794</text>
<text text-anchor="middle" x="66.6992" y="-102.6" font-family="Times,serif" font-size="14.00" fill="#000000">regulation of cellular</text>
<text text-anchor="middle" x="66.6992" y="-85.8" font-family="Times,serif" font-size="14.00" fill="#000000">process</text>
</g>
<!-- GO:0007165&#45;&gt;GO:0050794 -->
<g id="edge1" class="edge">
<title>GO:0007165&#45;&gt;GO:0050794</title>
<path fill="none" stroke="#000000" d="M66.6992,-41.6182C66.6992,-49.3358 66.6992,-58.3662 66.6992,-67.2036"/>
<polygon fill="#000000" stroke="#000000" points="63.1993,-67.3991 66.6992,-77.3991 70.1993,-67.3992 63.1993,-67.3991"/>
</g>
<!-- GO:0065007 -->
<g id="node3" class="node">
<title>GO:0065007</title>
<polygon fill="#ffffff" stroke="#000000" points="399.9526,-221.8019 267.4458,-221.8019 267.4458,-180.5981 399.9526,-180.5981 399.9526,-221.8019"/>
<text text-anchor="middle" x="333.6992" y="-205.4" font-family="Times,serif" font-size="14.00" fill="#000000">GO:0065007</text>
<text text-anchor="middle" x="333.6992" y="-188.6" font-family="Times,serif" font-size="14.00" fill="#000000">biological regulation</text>
</g>
<!-- GO:0050794&#45;&gt;GO:0065007 -->
<g id="edge2" class="edge">
<title>GO:0050794&#45;&gt;GO:0065007</title>
<path fill="none" stroke="#000000" d="M133.7028,-133.0546C136.4001,-134.0583 139.0734,-135.0435 141.6992,-136 180.7014,-150.2069 224.5082,-165.1588 260.4191,-177.1554"/>
<polygon fill="#000000" stroke="#000000" points="259.7342,-180.6163 270.3279,-180.4575 261.9474,-173.9754 259.7342,-180.6163"/>
</g>
<!-- GO:0050789 -->
<g id="node4" class="node">
<title>GO:0050789</title>
<polygon fill="#ffffff" stroke="#000000" points="177.6136,-230.6014 29.7848,-230.6014 29.7848,-171.7986 177.6136,-171.7986 177.6136,-230.6014"/>
<text text-anchor="middle" x="103.6992" y="-213.8" font-family="Times,serif" font-size="14.00" fill="#000000">GO:0050789</text>
<text text-anchor="middle" x="103.6992" y="-197" font-family="Times,serif" font-size="14.00" fill="#000000">regulation of biological</text>
<text text-anchor="middle" x="103.6992" y="-180.2" font-family="Times,serif" font-size="14.00" fill="#000000">process</text>
</g>
<!-- GO:0050794&#45;&gt;GO:0050789 -->
<g id="edge3" class="edge">
<title>GO:0050794&#45;&gt;GO:0050789</title>
<path fill="none" stroke="#000000" d="M78.2034,-136.1513C81.475,-144.4982 85.0888,-153.7184 88.542,-162.5286"/>
<polygon fill="#000000" stroke="#000000" points="85.2942,-163.8337 92.2021,-171.8669 91.8115,-161.2792 85.2942,-163.8337"/>
</g>
<!-- GO:0008150 -->
<g id="node5" class="node">
<title>GO:0008150</title>
<polygon fill="#ffffff" stroke="#000000" points="572.1698,-307.8019 451.2286,-307.8019 451.2286,-266.5981 572.1698,-266.5981 572.1698,-307.8019"/>
<text text-anchor="middle" x="511.6992" y="-291.4" font-family="Times,serif" font-size="14.00" fill="#000000">GO:0008150</text>
<text text-anchor="middle" x="511.6992" y="-274.6" font-family="Times,serif" font-size="14.00" fill="#000000">biological_process</text>
</g>
<!-- GO:0065007&#45;&gt;GO:0008150 -->
<g id="edge4" class="edge">
<title>GO:0065007&#45;&gt;GO:0008150</title>
<path fill="none" stroke="#000000" d="M376.788,-222.0182C401.8224,-234.1135 433.5306,-249.4332 459.916,-262.1812"/>
<polygon fill="#000000" stroke="#000000" points="458.4804,-265.3746 469.0072,-266.5735 461.5256,-259.0717 458.4804,-265.3746"/>
</g>
<!-- GO:0050789&#45;&gt;GO:0008150 -->
<g id="edge5" class="edge">
<title>GO:0050789&#45;&gt;GO:0008150</title>
<path fill="none" stroke="#000000" d="M177.5849,-216.774C252.3736,-232.5382 367.2057,-256.743 440.8772,-272.2718"/>
<polygon fill="#000000" stroke="#000000" points="440.4841,-275.7658 450.991,-274.4037 441.9279,-268.9163 440.4841,-275.7658"/>
</g>
<!-- GO:0044710 -->
<g id="node6" class="node">
<title>GO:0044710</title>
<polygon fill="#00ffff" stroke="#000000" points="777.1074,-136.2014 612.291,-136.2014 612.291,-77.3986 777.1074,-77.3986 777.1074,-136.2014"/>
<text text-anchor="middle" x="694.6992" y="-119.4" font-family="Times,serif" font-size="14.00" fill="#000000">GO:0044710</text>
<text text-anchor="middle" x="694.6992" y="-102.6" font-family="Times,serif" font-size="14.00" fill="#000000">single&#45;organism metabolic</text>
<text text-anchor="middle" x="694.6992" y="-85.8" font-family="Times,serif" font-size="14.00" fill="#000000">process</text>
</g>
<!-- GO:0008152 -->
<g id="node7" class="node">
<title>GO:0008152</title>
<polygon fill="#ffff00" stroke="#000000" points="569.8848,-221.8019 453.5136,-221.8019 453.5136,-180.5981 569.8848,-180.5981 569.8848,-221.8019"/>
<text text-anchor="middle" x="511.6992" y="-205.4" font-family="Times,serif" font-size="14.00" fill="#000000">GO:0008152</text>
<text text-anchor="middle" x="511.6992" y="-188.6" font-family="Times,serif" font-size="14.00" fill="#000000">metabolic process</text>
</g>
<!-- GO:0044710&#45;&gt;GO:0008152 -->
<g id="edge6" class="edge">
<title>GO:0044710&#45;&gt;GO:0008152</title>
<path fill="none" stroke="#000000" d="M637.8,-136.1513C613.1614,-148.8611 584.5973,-163.5957 560.8915,-175.8243"/>
<polygon fill="#000000" stroke="#000000" points="559.0112,-172.8559 551.7285,-180.551 562.2204,-179.077 559.0112,-172.8559"/>
</g>
<!-- GO:0044699 -->
<g id="node8" class="node">
<title>GO:0044699</title>
<polygon fill="#ffff00" stroke="#000000" points="770.3805,-221.8019 619.0179,-221.8019 619.0179,-180.5981 770.3805,-180.5981 770.3805,-221.8019"/>
<text text-anchor="middle" x="694.6992" y="-205.4" font-family="Times,serif" font-size="14.00" fill="#000000">GO:0044699</text>
<text text-anchor="middle" x="694.6992" y="-188.6" font-family="Times,serif" font-size="14.00" fill="#000000">single&#45;organism process</text>
</g>
<!-- GO:0044710&#45;&gt;GO:0044699 -->
<g id="edge7" class="edge">
<title>GO:0044710&#45;&gt;GO:0044699</title>
<path fill="none" stroke="#000000" d="M694.6992,-136.1513C694.6992,-147.0614 694.6992,-159.4637 694.6992,-170.492"/>
<polygon fill="#000000" stroke="#000000" points="691.1993,-170.5509 694.6992,-180.551 698.1993,-170.551 691.1993,-170.5509"/>
</g>
<!-- GO:0008152&#45;&gt;GO:0008150 -->
<g id="edge8" class="edge">
<title>GO:0008152&#45;&gt;GO:0008150</title>
<path fill="none" stroke="#000000" d="M511.6992,-222.0182C511.6992,-232.3705 511.6992,-245.0848 511.6992,-256.5271"/>
<polygon fill="#000000" stroke="#000000" points="508.1993,-256.5735 511.6992,-266.5735 515.1993,-256.5735 508.1993,-256.5735"/>
</g>
<!-- GO:0044699&#45;&gt;GO:0008150 -->
<g id="edge9" class="edge">
<title>GO:0044699&#45;&gt;GO:0008150</title>
<path fill="none" stroke="#000000" d="M650.4,-222.0182C624.6624,-234.1135 592.0635,-249.4332 564.937,-262.1812"/>
<polygon fill="#000000" stroke="#000000" points="563.1522,-259.1526 555.5904,-266.5735 566.1295,-265.4879 563.1522,-259.1526"/>
</g>
<!-- GO:0006807 -->
<g id="node9" class="node">
<title>GO:0006807</title>
<polygon fill="#00ffff" stroke="#000000" points="276.4611,-136.2014 150.9373,-136.2014 150.9373,-77.3986 276.4611,-77.3986 276.4611,-136.2014"/>
<text text-anchor="middle" x="213.6992" y="-119.4" font-family="Times,serif" font-size="14.00" fill="#000000">GO:0006807</text>
<text text-anchor="middle" x="213.6992" y="-102.6" font-family="Times,serif" font-size="14.00" fill="#000000">nitrogen compound</text>
<text text-anchor="middle" x="213.6992" y="-85.8" font-family="Times,serif" font-size="14.00" fill="#000000">metabolic process</text>
</g>
<!-- GO:0006807&#45;&gt;GO:0008152 -->
<g id="edge10" class="edge">
<title>GO:0006807&#45;&gt;GO:0008152</title>
<path fill="none" stroke="#000000" d="M276.3814,-132.6703C279.5212,-133.8249 282.6398,-134.9415 285.6992,-136 293.4307,-138.6749 380.0636,-163.556 443.7727,-181.7899"/>
<polygon fill="#000000" stroke="#000000" points="442.8121,-185.1554 453.3892,-184.5415 444.7379,-178.4255 442.8121,-185.1554"/>
</g>
<!-- GO:0071704 -->
<g id="node10" class="node">
<title>GO:0071704</title>
<polygon fill="#ffff00" stroke="#000000" points="410.8848,-136.2014 294.5136,-136.2014 294.5136,-77.3986 410.8848,-77.3986 410.8848,-136.2014"/>
<text text-anchor="middle" x="352.6992" y="-119.4" font-family="Times,serif" font-size="14.00" fill="#000000">GO:0071704</text>
<text text-anchor="middle" x="352.6992" y="-102.6" font-family="Times,serif" font-size="14.00" fill="#000000">organic substance</text>
<text text-anchor="middle" x="352.6992" y="-85.8" font-family="Times,serif" font-size="14.00" fill="#000000">metabolic process</text>
</g>
<!-- GO:0071704&#45;&gt;GO:0008152 -->
<g id="edge11" class="edge">
<title>GO:0071704&#45;&gt;GO:0008152</title>
<path fill="none" stroke="#000000" d="M402.1362,-136.1513C423.2594,-148.6923 447.7032,-163.2049 468.1359,-175.336"/>
<polygon fill="#000000" stroke="#000000" points="466.5341,-178.4553 476.9196,-180.551 470.1077,-172.4363 466.5341,-178.4553"/>
</g>
<!-- GO:0009987 -->
<g id="node11" class="node">
<title>GO:0009987</title>
<polygon fill="#ffa500" stroke="#000000" points="905.6554,-221.8019 801.743,-221.8019 801.743,-180.5981 905.6554,-180.5981 905.6554,-221.8019"/>
<text text-anchor="middle" x="853.6992" y="-205.4" font-family="Times,serif" font-size="14.00" fill="#000000">GO:0009987</text>
<text text-anchor="middle" x="853.6992" y="-188.6" font-family="Times,serif" font-size="14.00" fill="#000000">cellular process</text>
</g>
<!-- GO:0009987&#45;&gt;GO:0008150 -->
<g id="edge12" class="edge">
<title>GO:0009987&#45;&gt;GO:0008150</title>
<path fill="none" stroke="#000000" d="M804.7448,-221.8398C796.4673,-224.947 787.8989,-227.9322 779.6992,-230.4 713.7793,-250.2397 636.7289,-265.8022 582.2071,-275.582"/>
<polygon fill="#000000" stroke="#000000" points="581.5312,-272.1471 572.2966,-277.3405 582.7543,-279.0395 581.5312,-272.1471"/>
</g>
<!-- GO:0044763 -->
<g id="node12" class="node">
<title>GO:0044763</title>
<polygon fill="#00ffff" stroke="#000000" points="1081.3777,-136.2014 930.0207,-136.2014 930.0207,-77.3986 1081.3777,-77.3986 1081.3777,-136.2014"/>
<text text-anchor="middle" x="1005.6992" y="-119.4" font-family="Times,serif" font-size="14.00" fill="#000000">GO:0044763</text>
<text text-anchor="middle" x="1005.6992" y="-102.6" font-family="Times,serif" font-size="14.00" fill="#000000">single&#45;organism cellular</text>
<text text-anchor="middle" x="1005.6992" y="-85.8" font-family="Times,serif" font-size="14.00" fill="#000000">process</text>
</g>
<!-- GO:0044763&#45;&gt;GO:0044699 -->
<g id="edge14" class="edge">
<title>GO:0044763&#45;&gt;GO:0044699</title>
<path fill="none" stroke="#000000" d="M929.7696,-133.1227C926.7105,-134.1075 923.6782,-135.0702 920.6992,-136 864.287,-153.607 849.4631,-155.562 792.6992,-172 786.3405,-173.8414 779.755,-175.7659 773.1436,-177.7102"/>
<polygon fill="#000000" stroke="#000000" points="772.0634,-174.3796 763.462,-180.5657 774.0437,-181.0937 772.0634,-174.3796"/>
</g>
<!-- GO:0044763&#45;&gt;GO:0009987 -->
<g id="edge13" class="edge">
<title>GO:0044763&#45;&gt;GO:0009987</title>
<path fill="none" stroke="#000000" d="M958.4387,-136.1513C938.336,-148.6361 915.0872,-163.0748 895.6076,-175.1727"/>
<polygon fill="#000000" stroke="#000000" points="893.5961,-172.3018 886.9476,-180.551 897.2892,-178.2483 893.5961,-172.3018"/>
</g>
<!-- GO:0044238 -->
<g id="node13" class="node">
<title>GO:0044238</title>
<polygon fill="#ffff00" stroke="#000000" points="593.7022,-127.4019 429.6962,-127.4019 429.6962,-86.1981 593.7022,-86.1981 593.7022,-127.4019"/>
<text text-anchor="middle" x="511.6992" y="-111" font-family="Times,serif" font-size="14.00" fill="#000000">GO:0044238</text>
<text text-anchor="middle" x="511.6992" y="-94.2" font-family="Times,serif" font-size="14.00" fill="#000000">primary metabolic process</text>
</g>
<!-- GO:0044238&#45;&gt;GO:0008152 -->
<g id="edge15" class="edge">
<title>GO:0044238&#45;&gt;GO:0008152</title>
<path fill="none" stroke="#000000" d="M511.6992,-127.7504C511.6992,-140.2165 511.6992,-156.2645 511.6992,-170.1786"/>
<polygon fill="#000000" stroke="#000000" points="508.1993,-170.3081 511.6992,-180.3081 515.1993,-170.3082 508.1993,-170.3081"/>
</g>
<!-- GO:0044237 -->
<g id="node14" class="node">
<title>GO:0044237</title>
<polygon fill="#00ff00" stroke="#000000" points="911.882,-136.2014 795.5164,-136.2014 795.5164,-77.3986 911.882,-77.3986 911.882,-136.2014"/>
<text text-anchor="middle" x="853.6992" y="-119.4" font-family="Times,serif" font-size="14.00" fill="#000000">GO:0044237</text>
<text text-anchor="middle" x="853.6992" y="-102.6" font-family="Times,serif" font-size="14.00" fill="#000000">cellular metabolic</text>
<text text-anchor="middle" x="853.6992" y="-85.8" font-family="Times,serif" font-size="14.00" fill="#000000">process</text>
</g>
<!-- GO:0044237&#45;&gt;GO:0008152 -->
<g id="edge17" class="edge">
<title>GO:0044237&#45;&gt;GO:0008152</title>
<path fill="none" stroke="#000000" d="M795.38,-132.7386C792.1284,-133.9039 788.8868,-135.0011 785.6992,-136 709.5108,-159.8756 687.1437,-152.5817 609.6992,-172 600.0129,-174.4287 589.8519,-177.1999 579.8924,-180.0458"/>
<polygon fill="#000000" stroke="#000000" points="578.655,-176.7603 570.0252,-182.9066 580.6043,-183.4835 578.655,-176.7603"/>
</g>
<!-- GO:0044237&#45;&gt;GO:0009987 -->
<g id="edge16" class="edge">
<title>GO:0044237&#45;&gt;GO:0009987</title>
<path fill="none" stroke="#000000" d="M853.6992,-136.1513C853.6992,-147.0614 853.6992,-159.4637 853.6992,-170.492"/>
<polygon fill="#000000" stroke="#000000" points="850.1993,-170.5509 853.6992,-180.551 857.1993,-170.551 850.1993,-170.5509"/>
</g>
</g>
</svg>
