<?xml version="1.0" encoding="UTF-8" standalone="no"?>
<!DOCTYPE svg PUBLIC "-//W3C//DTD SVG 1.1//EN"
 "http://www.w3.org/Graphics/SVG/1.1/DTD/svg11.dtd">
<!-- Generated by graphviz version 2.40.1 (20161225.0304)
 -->
<!-- Title: G Pages: 1 -->
<svg width="154pt" height="205pt"
 viewBox="0.00 0.00 154.24 204.80" xmlns="http://www.w3.org/2000/svg" xmlns:xlink="http://www.w3.org/1999/xlink">
<g id="graph0" class="graph" transform="scale(1 1) rotate(0) translate(4 200.8)">
<title>G</title>
<polygon fill="#ffffff" stroke="transparent" points="-4,4 -4,-200.8 150.2364,-200.8 150.2364,4 -4,4"/>
<!-- GO:0016491 -->
<g id="node1" class="node">
<title>GO:0016491</title>
<polygon fill="#ff00ff" stroke="#000000" points="146.3548,-41.4019 -.1184,-41.4019 -.1184,-.1981 146.3548,-.1981 146.3548,-41.4019"/>
<text text-anchor="middle" x="73.1182" y="-25" font-family="Times,serif" font-size="14.00" fill="#000000">GO:0016491</text>
<text text-anchor="middle" x="73.1182" y="-8.2" font-family="Times,serif" font-size="14.00" fill="#000000">oxidoreductase activity</text>
</g>
<!-- GO:0003824 -->
<g id="node2" class="node">
<title>GO:0003824</title>
<polygon fill="#ffff00" stroke="#000000" points="127.5306,-119.0019 18.7058,-119.0019 18.7058,-77.7981 127.5306,-77.7981 127.5306,-119.0019"/>
<text text-anchor="middle" x="73.1182" y="-102.6" font-family="Times,serif" font-size="14.00" fill="#000000">GO:0003824</text>
<text text-anchor="middle" x="73.1182" y="-85.8" font-family="Times,serif" font-size="14.00" fill="#000000">catalytic activity</text>
</g>
<!-- GO:0016491&#45;&gt;GO:0003824 -->
<g id="edge1" class="edge">
<title>GO:0016491&#45;&gt;GO:0003824</title>
<path fill="none" stroke="#000000" d="M73.1182,-41.5954C73.1182,-49.5109 73.1182,-58.7109 73.1182,-67.3722"/>
<polygon fill="#000000" stroke="#000000" points="69.6183,-67.5472 73.1182,-77.5472 76.6183,-67.5473 69.6183,-67.5472"/>
</g>
<!-- GO:0003674 -->
<g id="node3" class="node">
<title>GO:0003674</title>
<polygon fill="#ffffff" stroke="#000000" points="135.7513,-196.6019 10.4851,-196.6019 10.4851,-155.3981 135.7513,-155.3981 135.7513,-196.6019"/>
<text text-anchor="middle" x="73.1182" y="-180.2" font-family="Times,serif" font-size="14.00" fill="#000000">GO:0003674</text>
<text text-anchor="middle" x="73.1182" y="-163.4" font-family="Times,serif" font-size="14.00" fill="#000000">molecular_function</text>
</g>
<!-- GO:0003824&#45;&gt;GO:0003674 -->
<g id="edge2" class="edge">
<title>GO:0003824&#45;&gt;GO:0003674</title>
<path fill="none" stroke="#000000" d="M73.1182,-119.1954C73.1182,-127.1109 73.1182,-136.3109 73.1182,-144.9722"/>
<polygon fill="#000000" stroke="#000000" points="69.6183,-145.1472 73.1182,-155.1472 76.6183,-145.1473 69.6183,-145.1472"/>
</g>
</g>
</svg>
