<?xml version="1.0" encoding="UTF-8" standalone="no"?>
<!DOCTYPE svg PUBLIC "-//W3C//DTD SVG 1.1//EN"
 "http://www.w3.org/Graphics/SVG/1.1/DTD/svg11.dtd">
<!-- Generated by graphviz version 2.40.1 (20161225.0304)
 -->
<!-- Title: G Pages: 1 -->
<svg width="782pt" height="333pt"
 viewBox="0.00 0.00 781.66 332.80" xmlns="http://www.w3.org/2000/svg" xmlns:xlink="http://www.w3.org/1999/xlink">
<g id="graph0" class="graph" transform="scale(1 1) rotate(0) translate(4 328.8)">
<title>G</title>
<polygon fill="#ffffff" stroke="transparent" points="-4,4 -4,-328.8 777.6554,-328.8 777.6554,4 -4,4"/>
<!-- GO:0048518 -->
<g id="node1" class="node">
<title>GO:0048518</title>
<polygon fill="#00ffff" stroke="#000000" points="141.4603,-153.0014 5.9535,-153.0014 5.9535,-94.1986 141.4603,-94.1986 141.4603,-153.0014"/>
<text text-anchor="middle" x="73.7069" y="-136.2" font-family="Times,serif" font-size="14.00" fill="#000000">GO:0048518</text>
<text text-anchor="middle" x="73.7069" y="-119.4" font-family="Times,serif" font-size="14.00" fill="#000000">positive regulation of</text>
<text text-anchor="middle" x="73.7069" y="-102.6" font-family="Times,serif" font-size="14.00" fill="#000000">biological process</text>
</g>
<!-- GO:0065007 -->
<g id="node2" class="node">
<title>GO:0065007</title>
<polygon fill="#ffa500" stroke="#000000" points="297.9603,-238.6019 165.4535,-238.6019 165.4535,-197.3981 297.9603,-197.3981 297.9603,-238.6019"/>
<text text-anchor="middle" x="231.7069" y="-222.2" font-family="Times,serif" font-size="14.00" fill="#000000">GO:0065007</text>
<text text-anchor="middle" x="231.7069" y="-205.4" font-family="Times,serif" font-size="14.00" fill="#000000">biological regulation</text>
</g>
<!-- GO:0048518&#45;&gt;GO:0065007 -->
<g id="edge1" class="edge">
<title>GO:0048518&#45;&gt;GO:0065007</title>
<path fill="none" stroke="#000000" d="M122.833,-152.9513C143.8233,-165.4923 168.1134,-180.0049 188.4176,-192.136"/>
<polygon fill="#000000" stroke="#000000" points="186.7664,-195.2265 197.146,-197.351 190.3567,-189.2174 186.7664,-195.2265"/>
</g>
<!-- GO:0050789 -->
<g id="node3" class="node">
<title>GO:0050789</title>
<polygon fill="#ffa500" stroke="#000000" points="147.6213,-247.4014 -.2075,-247.4014 -.2075,-188.5986 147.6213,-188.5986 147.6213,-247.4014"/>
<text text-anchor="middle" x="73.7069" y="-230.6" font-family="Times,serif" font-size="14.00" fill="#000000">GO:0050789</text>
<text text-anchor="middle" x="73.7069" y="-213.8" font-family="Times,serif" font-size="14.00" fill="#000000">regulation of biological</text>
<text text-anchor="middle" x="73.7069" y="-197" font-family="Times,serif" font-size="14.00" fill="#000000">process</text>
</g>
<!-- GO:0048518&#45;&gt;GO:0050789 -->
<g id="edge2" class="edge">
<title>GO:0048518&#45;&gt;GO:0050789</title>
<path fill="none" stroke="#000000" d="M73.7069,-152.9513C73.7069,-161.0318 73.7069,-169.9308 73.7069,-178.4838"/>
<polygon fill="#000000" stroke="#000000" points="70.207,-178.6668 73.7069,-188.6669 77.207,-178.6669 70.207,-178.6668"/>
</g>
<!-- GO:0008150 -->
<g id="node4" class="node">
<title>GO:0008150</title>
<polygon fill="#ffffff" stroke="#000000" points="428.1775,-324.6019 307.2363,-324.6019 307.2363,-283.3981 428.1775,-283.3981 428.1775,-324.6019"/>
<text text-anchor="middle" x="367.7069" y="-308.2" font-family="Times,serif" font-size="14.00" fill="#000000">GO:0008150</text>
<text text-anchor="middle" x="367.7069" y="-291.4" font-family="Times,serif" font-size="14.00" fill="#000000">biological_process</text>
</g>
<!-- GO:0065007&#45;&gt;GO:0008150 -->
<g id="edge3" class="edge">
<title>GO:0065007&#45;&gt;GO:0008150</title>
<path fill="none" stroke="#000000" d="M264.6287,-238.8182C283.2549,-250.5966 306.7166,-265.4326 326.5494,-277.9739"/>
<polygon fill="#000000" stroke="#000000" points="324.7657,-280.987 335.0883,-283.3735 328.5069,-275.0707 324.7657,-280.987"/>
</g>
<!-- GO:0050789&#45;&gt;GO:0008150 -->
<g id="edge4" class="edge">
<title>GO:0050789&#45;&gt;GO:0008150</title>
<path fill="none" stroke="#000000" d="M147.8265,-244.3867C150.8201,-245.3538 153.7888,-246.2953 156.7069,-247.2 203.0692,-261.5732 255.7962,-275.7677 296.9441,-286.3717"/>
<polygon fill="#000000" stroke="#000000" points="296.3201,-289.8249 306.8762,-288.9195 298.0595,-283.0444 296.3201,-289.8249"/>
</g>
<!-- GO:0050794 -->
<g id="node5" class="node">
<title>GO:0050794</title>
<polygon fill="#ffa500" stroke="#000000" points="293.6059,-153.0014 159.8079,-153.0014 159.8079,-94.1986 293.6059,-94.1986 293.6059,-153.0014"/>
<text text-anchor="middle" x="226.7069" y="-136.2" font-family="Times,serif" font-size="14.00" fill="#000000">GO:0050794</text>
<text text-anchor="middle" x="226.7069" y="-119.4" font-family="Times,serif" font-size="14.00" fill="#000000">regulation of cellular</text>
<text text-anchor="middle" x="226.7069" y="-102.6" font-family="Times,serif" font-size="14.00" fill="#000000">process</text>
</g>
<!-- GO:0050794&#45;&gt;GO:0065007 -->
<g id="edge5" class="edge">
<title>GO:0050794&#45;&gt;GO:0065007</title>
<path fill="none" stroke="#000000" d="M228.2615,-152.9513C228.8394,-163.8614 229.4963,-176.2637 230.0804,-187.292"/>
<polygon fill="#000000" stroke="#000000" points="226.5891,-187.5501 230.6132,-197.351 233.5793,-187.1798 226.5891,-187.5501"/>
</g>
<!-- GO:0050794&#45;&gt;GO:0050789 -->
<g id="edge6" class="edge">
<title>GO:0050794&#45;&gt;GO:0050789</title>
<path fill="none" stroke="#000000" d="M179.1354,-152.9513C163.5922,-162.5413 146.1806,-173.2842 130.0551,-183.2335"/>
<polygon fill="#000000" stroke="#000000" points="127.9216,-180.4372 121.249,-188.6669 131.5973,-186.3946 127.9216,-180.4372"/>
</g>
<!-- GO:0044699 -->
<g id="node6" class="node">
<title>GO:0044699</title>
<polygon fill="#ffa500" stroke="#000000" points="589.3882,-238.6019 438.0256,-238.6019 438.0256,-197.3981 589.3882,-197.3981 589.3882,-238.6019"/>
<text text-anchor="middle" x="513.7069" y="-222.2" font-family="Times,serif" font-size="14.00" fill="#000000">GO:0044699</text>
<text text-anchor="middle" x="513.7069" y="-205.4" font-family="Times,serif" font-size="14.00" fill="#000000">single&#45;organism process</text>
</g>
<!-- GO:0044699&#45;&gt;GO:0008150 -->
<g id="edge7" class="edge">
<title>GO:0044699&#45;&gt;GO:0008150</title>
<path fill="none" stroke="#000000" d="M478.3644,-238.8182C458.2789,-250.6494 432.9558,-265.5657 411.6045,-278.1425"/>
<polygon fill="#000000" stroke="#000000" points="409.5639,-275.2824 402.724,-283.3735 413.1167,-281.3138 409.5639,-275.2824"/>
</g>
<!-- GO:0032502 -->
<g id="node7" class="node">
<title>GO:0032502</title>
<polygon fill="#ffa500" stroke="#000000" points="751.6067,-238.6019 607.8071,-238.6019 607.8071,-197.3981 751.6067,-197.3981 751.6067,-238.6019"/>
<text text-anchor="middle" x="679.7069" y="-222.2" font-family="Times,serif" font-size="14.00" fill="#000000">GO:0032502</text>
<text text-anchor="middle" x="679.7069" y="-205.4" font-family="Times,serif" font-size="14.00" fill="#000000">developmental process</text>
</g>
<!-- GO:0032502&#45;&gt;GO:0008150 -->
<g id="edge8" class="edge">
<title>GO:0032502&#45;&gt;GO:0008150</title>
<path fill="none" stroke="#000000" d="M624.6289,-238.7284C616.0024,-241.7214 607.1492,-244.6481 598.7069,-247.2 545.488,-263.2871 484.3613,-278.1621 438.3607,-288.6512"/>
<polygon fill="#000000" stroke="#000000" points="437.4676,-285.2647 428.4882,-290.888 439.0144,-292.0917 437.4676,-285.2647"/>
</g>
<!-- GO:0009987 -->
<g id="node8" class="node">
<title>GO:0009987</title>
<polygon fill="#00ffff" stroke="#000000" points="419.6631,-238.6019 315.7507,-238.6019 315.7507,-197.3981 419.6631,-197.3981 419.6631,-238.6019"/>
<text text-anchor="middle" x="367.7069" y="-222.2" font-family="Times,serif" font-size="14.00" fill="#000000">GO:0009987</text>
<text text-anchor="middle" x="367.7069" y="-205.4" font-family="Times,serif" font-size="14.00" fill="#000000">cellular process</text>
</g>
<!-- GO:0009987&#45;&gt;GO:0008150 -->
<g id="edge9" class="edge">
<title>GO:0009987&#45;&gt;GO:0008150</title>
<path fill="none" stroke="#000000" d="M367.7069,-238.8182C367.7069,-249.1705 367.7069,-261.8848 367.7069,-273.3271"/>
<polygon fill="#000000" stroke="#000000" points="364.207,-273.3735 367.7069,-283.3735 371.207,-273.3735 364.207,-273.3735"/>
</g>
<!-- GO:0044767 -->
<g id="node9" class="node">
<title>GO:0044767</title>
<polygon fill="#00ffff" stroke="#000000" points="625.6067,-153.0014 481.8071,-153.0014 481.8071,-94.1986 625.6067,-94.1986 625.6067,-153.0014"/>
<text text-anchor="middle" x="553.7069" y="-136.2" font-family="Times,serif" font-size="14.00" fill="#000000">GO:0044767</text>
<text text-anchor="middle" x="553.7069" y="-119.4" font-family="Times,serif" font-size="14.00" fill="#000000">single&#45;organism</text>
<text text-anchor="middle" x="553.7069" y="-102.6" font-family="Times,serif" font-size="14.00" fill="#000000">developmental process</text>
</g>
<!-- GO:0044767&#45;&gt;GO:0044699 -->
<g id="edge11" class="edge">
<title>GO:0044767&#45;&gt;GO:0044699</title>
<path fill="none" stroke="#000000" d="M541.2699,-152.9513C536.5516,-164.0864 531.1748,-176.7758 526.4305,-187.9724"/>
<polygon fill="#000000" stroke="#000000" points="523.1354,-186.7779 522.4565,-197.351 529.5807,-189.509 523.1354,-186.7779"/>
</g>
<!-- GO:0044767&#45;&gt;GO:0032502 -->
<g id="edge10" class="edge">
<title>GO:0044767&#45;&gt;GO:0032502</title>
<path fill="none" stroke="#000000" d="M592.8834,-152.9513C609.2472,-165.2112 628.1258,-179.3551 644.0912,-191.3165"/>
<polygon fill="#000000" stroke="#000000" points="642.0441,-194.1561 652.1457,-197.351 646.2412,-188.5539 642.0441,-194.1561"/>
</g>
<!-- GO:0044763 -->
<g id="node10" class="node">
<title>GO:0044763</title>
<polygon fill="#00ffff" stroke="#000000" points="463.3854,-153.0014 312.0284,-153.0014 312.0284,-94.1986 463.3854,-94.1986 463.3854,-153.0014"/>
<text text-anchor="middle" x="387.7069" y="-136.2" font-family="Times,serif" font-size="14.00" fill="#000000">GO:0044763</text>
<text text-anchor="middle" x="387.7069" y="-119.4" font-family="Times,serif" font-size="14.00" fill="#000000">single&#45;organism cellular</text>
<text text-anchor="middle" x="387.7069" y="-102.6" font-family="Times,serif" font-size="14.00" fill="#000000">process</text>
</g>
<!-- GO:0044763&#45;&gt;GO:0044699 -->
<g id="edge13" class="edge">
<title>GO:0044763&#45;&gt;GO:0044699</title>
<path fill="none" stroke="#000000" d="M426.8834,-152.9513C443.2472,-165.2112 462.1258,-179.3551 478.0912,-191.3165"/>
<polygon fill="#000000" stroke="#000000" points="476.0441,-194.1561 486.1457,-197.351 480.2412,-188.5539 476.0441,-194.1561"/>
</g>
<!-- GO:0044763&#45;&gt;GO:0009987 -->
<g id="edge12" class="edge">
<title>GO:0044763&#45;&gt;GO:0009987</title>
<path fill="none" stroke="#000000" d="M381.4884,-152.9513C379.1769,-163.8614 376.5493,-176.2637 374.2128,-187.292"/>
<polygon fill="#000000" stroke="#000000" points="370.7304,-186.8427 372.0817,-197.351 377.5784,-188.2936 370.7304,-186.8427"/>
</g>
<!-- GO:0048856 -->
<g id="node11" class="node">
<title>GO:0048856</title>
<polygon fill="#ffa500" stroke="#000000" points="773.6039,-153.0014 643.8099,-153.0014 643.8099,-94.1986 773.6039,-94.1986 773.6039,-153.0014"/>
<text text-anchor="middle" x="708.7069" y="-136.2" font-family="Times,serif" font-size="14.00" fill="#000000">GO:0048856</text>
<text text-anchor="middle" x="708.7069" y="-119.4" font-family="Times,serif" font-size="14.00" fill="#000000">anatomical structure</text>
<text text-anchor="middle" x="708.7069" y="-102.6" font-family="Times,serif" font-size="14.00" fill="#000000">development</text>
</g>
<!-- GO:0048856&#45;&gt;GO:0032502 -->
<g id="edge14" class="edge">
<title>GO:0048856&#45;&gt;GO:0032502</title>
<path fill="none" stroke="#000000" d="M699.6901,-152.9513C696.3039,-163.9739 692.4498,-176.5196 689.0359,-187.6326"/>
<polygon fill="#000000" stroke="#000000" points="685.6413,-186.764 686.0503,-197.351 692.3327,-188.8197 685.6413,-186.764"/>
</g>
<!-- GO:0048522 -->
<g id="node12" class="node">
<title>GO:0048522</title>
<polygon fill="#00ffff" stroke="#000000" points="217.4603,-58.6014 81.9535,-58.6014 81.9535,.2014 217.4603,.2014 217.4603,-58.6014"/>
<text text-anchor="middle" x="149.7069" y="-41.8" font-family="Times,serif" font-size="14.00" fill="#000000">GO:0048522</text>
<text text-anchor="middle" x="149.7069" y="-25" font-family="Times,serif" font-size="14.00" fill="#000000">positive regulation of</text>
<text text-anchor="middle" x="149.7069" y="-8.2" font-family="Times,serif" font-size="14.00" fill="#000000">cellular process</text>
</g>
<!-- GO:0048522&#45;&gt;GO:0048518 -->
<g id="edge15" class="edge">
<title>GO:0048522&#45;&gt;GO:0048518</title>
<path fill="none" stroke="#000000" d="M126.0766,-58.5513C118.9992,-67.3422 111.1419,-77.1018 103.7118,-86.3308"/>
<polygon fill="#000000" stroke="#000000" points="100.8674,-84.2826 97.3226,-94.2669 106.3199,-88.6724 100.8674,-84.2826"/>
</g>
<!-- GO:0048522&#45;&gt;GO:0050794 -->
<g id="edge16" class="edge">
<title>GO:0048522&#45;&gt;GO:0050794</title>
<path fill="none" stroke="#000000" d="M173.6481,-58.5513C180.8186,-67.3422 188.7793,-77.1018 196.3072,-86.3308"/>
<polygon fill="#000000" stroke="#000000" points="193.7475,-88.73 202.7805,-94.2669 199.1719,-84.3055 193.7475,-88.73"/>
</g>
</g>
</svg>
