<?xml version="1.0" encoding="UTF-8" standalone="no"?>
<!DOCTYPE svg PUBLIC "-//W3C//DTD SVG 1.1//EN"
 "http://www.w3.org/Graphics/SVG/1.1/DTD/svg11.dtd">
<!-- Generated by graphviz version 2.40.1 (20161225.0304)
 -->
<!-- Title: G Pages: 1 -->
<svg width="492pt" height="394pt"
 viewBox="0.00 0.00 492.22 393.60" xmlns="http://www.w3.org/2000/svg" xmlns:xlink="http://www.w3.org/1999/xlink">
<g id="graph0" class="graph" transform="scale(1 1) rotate(0) translate(4 389.6)">
<title>G</title>
<polygon fill="#ffffff" stroke="transparent" points="-4,4 -4,-389.6 488.2245,-389.6 488.2245,4 -4,4"/>
<!-- GO:0005615 -->
<g id="node1" class="node">
<title>GO:0005615</title>
<polygon fill="#ffffff" stroke="#000000" points="135.29,-230.2019 15.1982,-230.2019 15.1982,-188.9981 135.29,-188.9981 135.29,-230.2019"/>
<text text-anchor="middle" x="75.2441" y="-213.8" font-family="Times,serif" font-size="14.00" fill="#000000">GO:0005615</text>
<text text-anchor="middle" x="75.2441" y="-197" font-family="Times,serif" font-size="14.00" fill="#000000">extracellular space</text>
</g>
<!-- GO:0044421 -->
<g id="node2" class="node">
<title>GO:0044421</title>
<polygon fill="#00ffff" stroke="#000000" points="150.7331,-307.8019 -.2449,-307.8019 -.2449,-266.5981 150.7331,-266.5981 150.7331,-307.8019"/>
<text text-anchor="middle" x="75.2441" y="-291.4" font-family="Times,serif" font-size="14.00" fill="#000000">GO:0044421</text>
<text text-anchor="middle" x="75.2441" y="-274.6" font-family="Times,serif" font-size="14.00" fill="#000000">extracellular region part</text>
</g>
<!-- GO:0005615&#45;&gt;GO:0044421 -->
<g id="edge1" class="edge">
<title>GO:0005615&#45;&gt;GO:0044421</title>
<path fill="none" stroke="#000000" d="M75.2441,-230.3954C75.2441,-238.3109 75.2441,-247.5109 75.2441,-256.1722"/>
<polygon fill="#000000" stroke="#000000" points="71.7442,-256.3472 75.2441,-266.3472 78.7442,-256.3473 71.7442,-256.3472"/>
</g>
<!-- GO:0005575 -->
<g id="node3" class="node">
<title>GO:0005575</title>
<polygon fill="#ffffff" stroke="#000000" points="312.9308,-385.4019 185.5574,-385.4019 185.5574,-344.1981 312.9308,-344.1981 312.9308,-385.4019"/>
<text text-anchor="middle" x="249.2441" y="-369" font-family="Times,serif" font-size="14.00" fill="#000000">GO:0005575</text>
<text text-anchor="middle" x="249.2441" y="-352.2" font-family="Times,serif" font-size="14.00" fill="#000000">cellular_component</text>
</g>
<!-- GO:0044421&#45;&gt;GO:0005575 -->
<g id="edge2" class="edge">
<title>GO:0044421&#45;&gt;GO:0005575</title>
<path fill="none" stroke="#000000" d="M121.8729,-307.9954C143.9034,-317.8205 170.3716,-329.6247 193.4588,-339.921"/>
<polygon fill="#000000" stroke="#000000" points="192.23,-343.2053 202.7885,-344.0819 195.0812,-336.8122 192.23,-343.2053"/>
</g>
<!-- GO:0044464 -->
<g id="node4" class="node">
<title>GO:0044464</title>
<polygon fill="#ffa500" stroke="#000000" points="257.848,-307.8019 168.6402,-307.8019 168.6402,-266.5981 257.848,-266.5981 257.848,-307.8019"/>
<text text-anchor="middle" x="213.2441" y="-291.4" font-family="Times,serif" font-size="14.00" fill="#000000">GO:0044464</text>
<text text-anchor="middle" x="213.2441" y="-274.6" font-family="Times,serif" font-size="14.00" fill="#000000">cell part</text>
</g>
<!-- GO:0044464&#45;&gt;GO:0005575 -->
<g id="edge3" class="edge">
<title>GO:0044464&#45;&gt;GO:0005575</title>
<path fill="none" stroke="#000000" d="M222.8914,-307.9954C226.6846,-316.1718 231.1137,-325.7189 235.2463,-334.627"/>
<polygon fill="#000000" stroke="#000000" points="232.1867,-336.3488 239.5701,-343.9472 238.5367,-333.4029 232.1867,-336.3488"/>
</g>
<!-- GO:0043229 -->
<g id="node5" class="node">
<title>GO:0043229</title>
<polygon fill="#ffffff" stroke="#000000" points="337.9625,-144.2019 198.5257,-144.2019 198.5257,-102.9981 337.9625,-102.9981 337.9625,-144.2019"/>
<text text-anchor="middle" x="268.2441" y="-127.8" font-family="Times,serif" font-size="14.00" fill="#000000">GO:0043229</text>
<text text-anchor="middle" x="268.2441" y="-111" font-family="Times,serif" font-size="14.00" fill="#000000">intracellular organelle</text>
</g>
<!-- GO:0044424 -->
<g id="node6" class="node">
<title>GO:0044424</title>
<polygon fill="#ffff00" stroke="#000000" points="264.6425,-230.2019 155.8457,-230.2019 155.8457,-188.9981 264.6425,-188.9981 264.6425,-230.2019"/>
<text text-anchor="middle" x="210.2441" y="-213.8" font-family="Times,serif" font-size="14.00" fill="#000000">GO:0044424</text>
<text text-anchor="middle" x="210.2441" y="-197" font-family="Times,serif" font-size="14.00" fill="#000000">intracellular part</text>
</g>
<!-- GO:0043229&#45;&gt;GO:0044424 -->
<g id="edge4" class="edge">
<title>GO:0043229&#45;&gt;GO:0044424</title>
<path fill="none" stroke="#000000" d="M254.2039,-144.4182C246.8659,-155.2987 237.7682,-168.7884 229.7563,-180.6681"/>
<polygon fill="#000000" stroke="#000000" points="226.8447,-178.7258 224.155,-188.9735 232.6482,-182.6398 226.8447,-178.7258"/>
</g>
<!-- GO:0043226 -->
<g id="node7" class="node">
<title>GO:0043226</title>
<polygon fill="#ffffff" stroke="#000000" points="371.848,-230.2019 282.6402,-230.2019 282.6402,-188.9981 371.848,-188.9981 371.848,-230.2019"/>
<text text-anchor="middle" x="327.2441" y="-213.8" font-family="Times,serif" font-size="14.00" fill="#000000">GO:0043226</text>
<text text-anchor="middle" x="327.2441" y="-197" font-family="Times,serif" font-size="14.00" fill="#000000">organelle</text>
</g>
<!-- GO:0043229&#45;&gt;GO:0043226 -->
<g id="edge5" class="edge">
<title>GO:0043229&#45;&gt;GO:0043226</title>
<path fill="none" stroke="#000000" d="M282.5264,-144.4182C289.9909,-155.2987 299.2454,-168.7884 307.3955,-180.6681"/>
<polygon fill="#000000" stroke="#000000" points="304.5501,-182.7075 313.0934,-188.9735 310.3223,-178.7475 304.5501,-182.7075"/>
</g>
<!-- GO:0044424&#45;&gt;GO:0044464 -->
<g id="edge6" class="edge">
<title>GO:0044424&#45;&gt;GO:0044464</title>
<path fill="none" stroke="#000000" d="M211.048,-230.3954C211.3541,-238.3109 211.7097,-247.5109 212.0446,-256.1722"/>
<polygon fill="#000000" stroke="#000000" points="208.5541,-256.4899 212.4379,-266.3472 215.5489,-256.2194 208.5541,-256.4899"/>
</g>
<!-- GO:0043226&#45;&gt;GO:0005575 -->
<g id="edge7" class="edge">
<title>GO:0043226&#45;&gt;GO:0005575</title>
<path fill="none" stroke="#000000" d="M316.8863,-230.2094C303.3663,-257.1106 279.6115,-304.3767 264.1547,-335.1317"/>
<polygon fill="#000000" stroke="#000000" points="261.0081,-333.5986 259.6447,-344.1054 267.2626,-336.7421 261.0081,-333.5986"/>
</g>
<!-- GO:0044444 -->
<g id="node8" class="node">
<title>GO:0044444</title>
<polygon fill="#00ffff" stroke="#000000" points="180.6607,-144.2019 71.8275,-144.2019 71.8275,-102.9981 180.6607,-102.9981 180.6607,-144.2019"/>
<text text-anchor="middle" x="126.2441" y="-127.8" font-family="Times,serif" font-size="14.00" fill="#000000">GO:0044444</text>
<text text-anchor="middle" x="126.2441" y="-111" font-family="Times,serif" font-size="14.00" fill="#000000">cytoplasmic part</text>
</g>
<!-- GO:0044444&#45;&gt;GO:0044424 -->
<g id="edge8" class="edge">
<title>GO:0044444&#45;&gt;GO:0044424</title>
<path fill="none" stroke="#000000" d="M146.5782,-144.4182C157.5151,-155.6156 171.1513,-169.5764 182.9948,-181.7019"/>
<polygon fill="#000000" stroke="#000000" points="180.606,-184.2653 190.0973,-188.9735 185.6137,-179.3741 180.606,-184.2653"/>
</g>
<!-- GO:0005576 -->
<g id="node9" class="node">
<title>GO:0005576</title>
<polygon fill="#ff00ff" stroke="#000000" points="439.9667,-307.8019 314.5215,-307.8019 314.5215,-266.5981 439.9667,-266.5981 439.9667,-307.8019"/>
<text text-anchor="middle" x="377.2441" y="-291.4" font-family="Times,serif" font-size="14.00" fill="#000000">GO:0005576</text>
<text text-anchor="middle" x="377.2441" y="-274.6" font-family="Times,serif" font-size="14.00" fill="#000000">extracellular region</text>
</g>
<!-- GO:0005576&#45;&gt;GO:0005575 -->
<g id="edge9" class="edge">
<title>GO:0005576&#45;&gt;GO:0005575</title>
<path fill="none" stroke="#000000" d="M342.9424,-307.9954C327.4469,-317.3896 308.9668,-328.5931 292.5299,-338.558"/>
<polygon fill="#000000" stroke="#000000" points="290.3772,-335.77 283.6404,-343.9472 294.0062,-341.7559 290.3772,-335.77"/>
</g>
<!-- GO:0043227 -->
<g id="node10" class="node">
<title>GO:0043227</title>
<polygon fill="#ffffff" stroke="#000000" points="484.2049,-153.0014 356.2833,-153.0014 356.2833,-94.1986 484.2049,-94.1986 484.2049,-153.0014"/>
<text text-anchor="middle" x="420.2441" y="-136.2" font-family="Times,serif" font-size="14.00" fill="#000000">GO:0043227</text>
<text text-anchor="middle" x="420.2441" y="-119.4" font-family="Times,serif" font-size="14.00" fill="#000000">membrane&#45;bounded</text>
<text text-anchor="middle" x="420.2441" y="-102.6" font-family="Times,serif" font-size="14.00" fill="#000000">organelle</text>
</g>
<!-- GO:0043227&#45;&gt;GO:0043226 -->
<g id="edge10" class="edge">
<title>GO:0043227&#45;&gt;GO:0043226</title>
<path fill="none" stroke="#000000" d="M388.4989,-152.9558C378.3515,-162.3394 367.1582,-172.6902 357.1465,-181.9483"/>
<polygon fill="#000000" stroke="#000000" points="354.7235,-179.4219 349.7577,-188.7809 359.476,-184.5613 354.7235,-179.4219"/>
</g>
<!-- GO:0043231 -->
<g id="node11" class="node">
<title>GO:0043231</title>
<polygon fill="#ffffff" stroke="#000000" points="419.6229,-58.6014 268.8653,-58.6014 268.8653,.2014 419.6229,.2014 419.6229,-58.6014"/>
<text text-anchor="middle" x="344.2441" y="-41.8" font-family="Times,serif" font-size="14.00" fill="#000000">GO:0043231</text>
<text text-anchor="middle" x="344.2441" y="-25" font-family="Times,serif" font-size="14.00" fill="#000000">intracellular membrane&#45;</text>
<text text-anchor="middle" x="344.2441" y="-8.2" font-family="Times,serif" font-size="14.00" fill="#000000">bounded organelle</text>
</g>
<!-- GO:0043231&#45;&gt;GO:0043229 -->
<g id="edge11" class="edge">
<title>GO:0043231&#45;&gt;GO:0043229</title>
<path fill="none" stroke="#000000" d="M320.6138,-58.5513C311.2869,-70.1363 300.6055,-83.4037 291.3323,-94.922"/>
<polygon fill="#000000" stroke="#000000" points="288.4131,-92.9667 284.8683,-102.951 293.8657,-97.3565 288.4131,-92.9667"/>
</g>
<!-- GO:0043231&#45;&gt;GO:0043227 -->
<g id="edge12" class="edge">
<title>GO:0043231&#45;&gt;GO:0043227</title>
<path fill="none" stroke="#000000" d="M367.8744,-58.5513C374.9518,-67.3422 382.8091,-77.1018 390.2392,-86.3308"/>
<polygon fill="#000000" stroke="#000000" points="387.6311,-88.6724 396.6284,-94.2669 393.0836,-84.2826 387.6311,-88.6724"/>
</g>
</g>
</svg>
