<?xml version="1.0" encoding="UTF-8" standalone="no"?>
<!DOCTYPE svg PUBLIC "-//W3C//DTD SVG 1.1//EN"
 "http://www.w3.org/Graphics/SVG/1.1/DTD/svg11.dtd">
<!-- Generated by graphviz version 2.40.1 (20161225.0304)
 -->
<!-- Title: G Pages: 1 -->
<svg width="470pt" height="377pt"
 viewBox="0.00 0.00 469.92 376.80" xmlns="http://www.w3.org/2000/svg" xmlns:xlink="http://www.w3.org/1999/xlink">
<g id="graph0" class="graph" transform="scale(1 1) rotate(0) translate(4 372.8)">
<title>G</title>
<polygon fill="#ffffff" stroke="transparent" points="-4,4 -4,-372.8 465.9184,-372.8 465.9184,4 -4,4"/>
<!-- GO:0008083 -->
<g id="node1" class="node">
<title>GO:0008083</title>
<polygon fill="#00ffff" stroke="#000000" points="137.4359,-41.4019 -.1455,-41.4019 -.1455,-.1981 137.4359,-.1981 137.4359,-41.4019"/>
<text text-anchor="middle" x="68.6452" y="-25" font-family="Times,serif" font-size="14.00" fill="#000000">GO:0008083</text>
<text text-anchor="middle" x="68.6452" y="-8.2" font-family="Times,serif" font-size="14.00" fill="#000000">growth factor activity</text>
</g>
<!-- GO:0005102 -->
<g id="node2" class="node">
<title>GO:0005102</title>
<polygon fill="#00ff00" stroke="#000000" points="122.7821,-119.0019 14.5083,-119.0019 14.5083,-77.7981 122.7821,-77.7981 122.7821,-119.0019"/>
<text text-anchor="middle" x="68.6452" y="-102.6" font-family="Times,serif" font-size="14.00" fill="#000000">GO:0005102</text>
<text text-anchor="middle" x="68.6452" y="-85.8" font-family="Times,serif" font-size="14.00" fill="#000000">receptor binding</text>
</g>
<!-- GO:0008083&#45;&gt;GO:0005102 -->
<g id="edge1" class="edge">
<title>GO:0008083&#45;&gt;GO:0005102</title>
<path fill="none" stroke="#000000" d="M68.6452,-41.5954C68.6452,-49.5109 68.6452,-58.7109 68.6452,-67.3722"/>
<polygon fill="#000000" stroke="#000000" points="65.1453,-67.5472 68.6452,-77.5472 72.1453,-67.5473 65.1453,-67.5472"/>
</g>
<!-- GO:0005515 -->
<g id="node3" class="node">
<title>GO:0005515</title>
<polygon fill="#ffffff" stroke="#000000" points="119.5828,-205.0019 17.7076,-205.0019 17.7076,-163.7981 119.5828,-163.7981 119.5828,-205.0019"/>
<text text-anchor="middle" x="68.6452" y="-188.6" font-family="Times,serif" font-size="14.00" fill="#000000">GO:0005515</text>
<text text-anchor="middle" x="68.6452" y="-171.8" font-family="Times,serif" font-size="14.00" fill="#000000">protein binding</text>
</g>
<!-- GO:0005102&#45;&gt;GO:0005515 -->
<g id="edge2" class="edge">
<title>GO:0005102&#45;&gt;GO:0005515</title>
<path fill="none" stroke="#000000" d="M68.6452,-119.2182C68.6452,-129.5705 68.6452,-142.2848 68.6452,-153.7271"/>
<polygon fill="#000000" stroke="#000000" points="65.1453,-153.7735 68.6452,-163.7735 72.1453,-153.7735 65.1453,-153.7735"/>
</g>
<!-- GO:0005488 -->
<g id="node4" class="node">
<title>GO:0005488</title>
<polygon fill="#ffffff" stroke="#000000" points="261.2491,-291.0019 172.0413,-291.0019 172.0413,-249.7981 261.2491,-249.7981 261.2491,-291.0019"/>
<text text-anchor="middle" x="216.6452" y="-274.6" font-family="Times,serif" font-size="14.00" fill="#000000">GO:0005488</text>
<text text-anchor="middle" x="216.6452" y="-257.8" font-family="Times,serif" font-size="14.00" fill="#000000">binding</text>
</g>
<!-- GO:0005515&#45;&gt;GO:0005488 -->
<g id="edge3" class="edge">
<title>GO:0005515&#45;&gt;GO:0005488</title>
<path fill="none" stroke="#000000" d="M104.4719,-205.2182C124.9234,-217.1022 150.7318,-232.099 172.4359,-244.7108"/>
<polygon fill="#000000" stroke="#000000" points="170.7437,-247.7755 181.1485,-249.7735 174.2607,-241.7231 170.7437,-247.7755"/>
</g>
<!-- GO:0003674 -->
<g id="node5" class="node">
<title>GO:0003674</title>
<polygon fill="#ffffff" stroke="#000000" points="279.2783,-368.6019 154.0121,-368.6019 154.0121,-327.3981 279.2783,-327.3981 279.2783,-368.6019"/>
<text text-anchor="middle" x="216.6452" y="-352.2" font-family="Times,serif" font-size="14.00" fill="#000000">GO:0003674</text>
<text text-anchor="middle" x="216.6452" y="-335.4" font-family="Times,serif" font-size="14.00" fill="#000000">molecular_function</text>
</g>
<!-- GO:0005488&#45;&gt;GO:0003674 -->
<g id="edge4" class="edge">
<title>GO:0005488&#45;&gt;GO:0003674</title>
<path fill="none" stroke="#000000" d="M216.6452,-291.1954C216.6452,-299.1109 216.6452,-308.3109 216.6452,-316.9722"/>
<polygon fill="#000000" stroke="#000000" points="213.1453,-317.1472 216.6452,-327.1472 220.1453,-317.1473 213.1453,-317.1472"/>
</g>
<!-- GO:0008201 -->
<g id="node6" class="node">
<title>GO:0008201</title>
<polygon fill="#ffff00" stroke="#000000" points="339.9071,-41.4019 235.3833,-41.4019 235.3833,-.1981 339.9071,-.1981 339.9071,-41.4019"/>
<text text-anchor="middle" x="287.6452" y="-25" font-family="Times,serif" font-size="14.00" fill="#000000">GO:0008201</text>
<text text-anchor="middle" x="287.6452" y="-8.2" font-family="Times,serif" font-size="14.00" fill="#000000">heparin binding</text>
</g>
<!-- GO:1901681 -->
<g id="node7" class="node">
<title>GO:1901681</title>
<polygon fill="#ffffff" stroke="#000000" points="295.1887,-205.0019 138.1017,-205.0019 138.1017,-163.7981 295.1887,-163.7981 295.1887,-205.0019"/>
<text text-anchor="middle" x="216.6452" y="-188.6" font-family="Times,serif" font-size="14.00" fill="#000000">GO:1901681</text>
<text text-anchor="middle" x="216.6452" y="-171.8" font-family="Times,serif" font-size="14.00" fill="#000000">sulfur compound binding</text>
</g>
<!-- GO:0008201&#45;&gt;GO:1901681 -->
<g id="edge5" class="edge">
<title>GO:0008201&#45;&gt;GO:1901681</title>
<path fill="none" stroke="#000000" d="M278.653,-41.5201C266.31,-69.9611 244.0341,-121.2897 229.8117,-154.0615"/>
<polygon fill="#000000" stroke="#000000" points="226.4467,-153.0236 225.6762,-163.5904 232.8681,-155.8105 226.4467,-153.0236"/>
</g>
<!-- GO:0005539 -->
<g id="node8" class="node">
<title>GO:0005539</title>
<polygon fill="#ffffff" stroke="#000000" points="458.2919,-119.0019 286.9985,-119.0019 286.9985,-77.7981 458.2919,-77.7981 458.2919,-119.0019"/>
<text text-anchor="middle" x="372.6452" y="-102.6" font-family="Times,serif" font-size="14.00" fill="#000000">GO:0005539</text>
<text text-anchor="middle" x="372.6452" y="-85.8" font-family="Times,serif" font-size="14.00" fill="#000000">glycosaminoglycan binding</text>
</g>
<!-- GO:0008201&#45;&gt;GO:0005539 -->
<g id="edge6" class="edge">
<title>GO:0008201&#45;&gt;GO:0005539</title>
<path fill="none" stroke="#000000" d="M310.4236,-41.5954C320.2373,-50.5547 331.8536,-61.1596 342.3763,-70.7663"/>
<polygon fill="#000000" stroke="#000000" points="340.0588,-73.3897 349.8039,-77.5472 344.7784,-68.2201 340.0588,-73.3897"/>
</g>
<!-- GO:1901681&#45;&gt;GO:0005488 -->
<g id="edge7" class="edge">
<title>GO:1901681&#45;&gt;GO:0005488</title>
<path fill="none" stroke="#000000" d="M216.6452,-205.2182C216.6452,-215.5705 216.6452,-228.2848 216.6452,-239.7271"/>
<polygon fill="#000000" stroke="#000000" points="213.1453,-239.7735 216.6452,-249.7735 220.1453,-239.7735 213.1453,-239.7735"/>
</g>
<!-- GO:0097367 -->
<g id="node9" class="node">
<title>GO:0097367</title>
<polygon fill="#ffff00" stroke="#000000" points="461.6923,-213.8014 313.5981,-213.8014 313.5981,-154.9986 461.6923,-154.9986 461.6923,-213.8014"/>
<text text-anchor="middle" x="387.6452" y="-197" font-family="Times,serif" font-size="14.00" fill="#000000">GO:0097367</text>
<text text-anchor="middle" x="387.6452" y="-180.2" font-family="Times,serif" font-size="14.00" fill="#000000">carbohydrate derivative</text>
<text text-anchor="middle" x="387.6452" y="-163.4" font-family="Times,serif" font-size="14.00" fill="#000000">binding</text>
</g>
<!-- GO:0005539&#45;&gt;GO:0097367 -->
<g id="edge8" class="edge">
<title>GO:0005539&#45;&gt;GO:0097367</title>
<path fill="none" stroke="#000000" d="M376.2763,-119.2182C377.637,-127.0197 379.2317,-136.1626 380.7891,-145.0917"/>
<polygon fill="#000000" stroke="#000000" points="377.3509,-145.7493 382.5171,-154.9991 384.2468,-144.5465 377.3509,-145.7493"/>
</g>
<!-- GO:0097367&#45;&gt;GO:0005488 -->
<g id="edge9" class="edge">
<title>GO:0097367&#45;&gt;GO:0005488</title>
<path fill="none" stroke="#000000" d="M329.275,-213.7558C308.9784,-223.9634 286.4064,-235.3154 266.8307,-245.1605"/>
<polygon fill="#000000" stroke="#000000" points="265.1377,-242.0942 257.7765,-249.7141 268.2829,-248.3478 265.1377,-242.0942"/>
</g>
</g>
</svg>
