<?xml version="1.0" encoding="UTF-8" standalone="no"?>
<!DOCTYPE svg PUBLIC "-//W3C//DTD SVG 1.1//EN"
 "http://www.w3.org/Graphics/SVG/1.1/DTD/svg11.dtd">
<!-- Generated by graphviz version 2.40.1 (20161225.0304)
 -->
<!-- Title: G Pages: 1 -->
<svg width="284pt" height="377pt"
 viewBox="0.00 0.00 283.79 376.80" xmlns="http://www.w3.org/2000/svg" xmlns:xlink="http://www.w3.org/1999/xlink">
<g id="graph0" class="graph" transform="scale(1 1) rotate(0) translate(4 372.8)">
<title>G</title>
<polygon fill="#ffffff" stroke="transparent" points="-4,4 -4,-372.8 279.7918,-372.8 279.7918,4 -4,4"/>
<!-- GO:0043234 -->
<g id="node1" class="node">
<title>GO:0043234</title>
<polygon fill="#ffa500" stroke="#000000" points="249.3257,-213.4019 141.5909,-213.4019 141.5909,-172.1981 249.3257,-172.1981 249.3257,-213.4019"/>
<text text-anchor="middle" x="195.4583" y="-197" font-family="Times,serif" font-size="14.00" fill="#000000">GO:0043234</text>
<text text-anchor="middle" x="195.4583" y="-180.2" font-family="Times,serif" font-size="14.00" fill="#000000">protein complex</text>
</g>
<!-- GO:0032991 -->
<g id="node2" class="node">
<title>GO:0032991</title>
<polygon fill="#ffa500" stroke="#000000" points="275.6256,-291.0019 117.291,-291.0019 117.291,-249.7981 275.6256,-249.7981 275.6256,-291.0019"/>
<text text-anchor="middle" x="196.4583" y="-274.6" font-family="Times,serif" font-size="14.00" fill="#000000">GO:0032991</text>
<text text-anchor="middle" x="196.4583" y="-257.8" font-family="Times,serif" font-size="14.00" fill="#000000">macromolecular complex</text>
</g>
<!-- GO:0043234&#45;&gt;GO:0032991 -->
<g id="edge1" class="edge">
<title>GO:0043234&#45;&gt;GO:0032991</title>
<path fill="none" stroke="#000000" d="M195.7263,-213.5954C195.8283,-221.5109 195.9468,-230.7109 196.0585,-239.3722"/>
<polygon fill="#000000" stroke="#000000" points="192.5609,-239.5932 196.1896,-249.5472 199.5603,-239.5029 192.5609,-239.5932"/>
</g>
<!-- GO:0005575 -->
<g id="node3" class="node">
<title>GO:0005575</title>
<polygon fill="#ffffff" stroke="#000000" points="189.145,-368.6019 61.7716,-368.6019 61.7716,-327.3981 189.145,-327.3981 189.145,-368.6019"/>
<text text-anchor="middle" x="125.4583" y="-352.2" font-family="Times,serif" font-size="14.00" fill="#000000">GO:0005575</text>
<text text-anchor="middle" x="125.4583" y="-335.4" font-family="Times,serif" font-size="14.00" fill="#000000">cellular_component</text>
</g>
<!-- GO:0032991&#45;&gt;GO:0005575 -->
<g id="edge2" class="edge">
<title>GO:0032991&#45;&gt;GO:0005575</title>
<path fill="none" stroke="#000000" d="M177.4316,-291.1954C169.4731,-299.8937 160.0953,-310.1433 151.512,-319.5244"/>
<polygon fill="#000000" stroke="#000000" points="148.7056,-317.4067 144.5375,-327.1472 153.8702,-322.132 148.7056,-317.4067"/>
</g>
<!-- GO:0005829 -->
<g id="node4" class="node">
<title>GO:0005829</title>
<polygon fill="#ffa500" stroke="#000000" points="99.0622,-41.4019 9.8544,-41.4019 9.8544,-.1981 99.0622,-.1981 99.0622,-41.4019"/>
<text text-anchor="middle" x="54.4583" y="-25" font-family="Times,serif" font-size="14.00" fill="#000000">GO:0005829</text>
<text text-anchor="middle" x="54.4583" y="-8.2" font-family="Times,serif" font-size="14.00" fill="#000000">cytosol</text>
</g>
<!-- GO:0044444 -->
<g id="node5" class="node">
<title>GO:0044444</title>
<polygon fill="#ffa500" stroke="#000000" points="108.8749,-127.4019 .0417,-127.4019 .0417,-86.1981 108.8749,-86.1981 108.8749,-127.4019"/>
<text text-anchor="middle" x="54.4583" y="-111" font-family="Times,serif" font-size="14.00" fill="#000000">GO:0044444</text>
<text text-anchor="middle" x="54.4583" y="-94.2" font-family="Times,serif" font-size="14.00" fill="#000000">cytoplasmic part</text>
</g>
<!-- GO:0005829&#45;&gt;GO:0044444 -->
<g id="edge3" class="edge">
<title>GO:0005829&#45;&gt;GO:0044444</title>
<path fill="none" stroke="#000000" d="M54.4583,-41.6182C54.4583,-51.9705 54.4583,-64.6848 54.4583,-76.1271"/>
<polygon fill="#000000" stroke="#000000" points="50.9584,-76.1735 54.4583,-86.1735 57.9584,-76.1735 50.9584,-76.1735"/>
</g>
<!-- GO:0044424 -->
<g id="node6" class="node">
<title>GO:0044424</title>
<polygon fill="#ff0000" stroke="#000000" points="108.8567,-213.4019 .0599,-213.4019 .0599,-172.1981 108.8567,-172.1981 108.8567,-213.4019"/>
<text text-anchor="middle" x="54.4583" y="-197" font-family="Times,serif" font-size="14.00" fill="#000000">GO:0044424</text>
<text text-anchor="middle" x="54.4583" y="-180.2" font-family="Times,serif" font-size="14.00" fill="#000000">intracellular part</text>
</g>
<!-- GO:0044444&#45;&gt;GO:0044424 -->
<g id="edge4" class="edge">
<title>GO:0044444&#45;&gt;GO:0044424</title>
<path fill="none" stroke="#000000" d="M54.4583,-127.6182C54.4583,-137.9705 54.4583,-150.6848 54.4583,-162.1271"/>
<polygon fill="#000000" stroke="#000000" points="50.9584,-162.1735 54.4583,-172.1735 57.9584,-162.1735 50.9584,-162.1735"/>
</g>
<!-- GO:0044464 -->
<g id="node7" class="node">
<title>GO:0044464</title>
<polygon fill="#ffffff" stroke="#000000" points="99.0622,-291.0019 9.8544,-291.0019 9.8544,-249.7981 99.0622,-249.7981 99.0622,-291.0019"/>
<text text-anchor="middle" x="54.4583" y="-274.6" font-family="Times,serif" font-size="14.00" fill="#000000">GO:0044464</text>
<text text-anchor="middle" x="54.4583" y="-257.8" font-family="Times,serif" font-size="14.00" fill="#000000">cell part</text>
</g>
<!-- GO:0044424&#45;&gt;GO:0044464 -->
<g id="edge5" class="edge">
<title>GO:0044424&#45;&gt;GO:0044464</title>
<path fill="none" stroke="#000000" d="M54.4583,-213.5954C54.4583,-221.5109 54.4583,-230.7109 54.4583,-239.3722"/>
<polygon fill="#000000" stroke="#000000" points="50.9584,-239.5472 54.4583,-249.5472 57.9584,-239.5473 50.9584,-239.5472"/>
</g>
<!-- GO:0044464&#45;&gt;GO:0005575 -->
<g id="edge6" class="edge">
<title>GO:0044464&#45;&gt;GO:0005575</title>
<path fill="none" stroke="#000000" d="M73.485,-291.1954C81.4435,-299.8937 90.8213,-310.1433 99.4046,-319.5244"/>
<polygon fill="#000000" stroke="#000000" points="97.0464,-322.132 106.3791,-327.1472 102.211,-317.4067 97.0464,-322.132"/>
</g>
<!-- GO:0033256 -->
<g id="node8" class="node">
<title>GO:0033256</title>
<polygon fill="#ffa500" stroke="#000000" points="264.2518,-136.2014 126.6648,-136.2014 126.6648,-77.3986 264.2518,-77.3986 264.2518,-136.2014"/>
<text text-anchor="middle" x="195.4583" y="-119.4" font-family="Times,serif" font-size="14.00" fill="#000000">GO:0033256</text>
<text text-anchor="middle" x="195.4583" y="-102.6" font-family="Times,serif" font-size="14.00" fill="#000000">I&#45;kappaB/NF&#45;kappaB</text>
<text text-anchor="middle" x="195.4583" y="-85.8" font-family="Times,serif" font-size="14.00" fill="#000000">complex</text>
</g>
<!-- GO:0033256&#45;&gt;GO:0043234 -->
<g id="edge7" class="edge">
<title>GO:0033256&#45;&gt;GO:0043234</title>
<path fill="none" stroke="#000000" d="M195.4583,-136.3963C195.4583,-144.6638 195.4583,-153.6657 195.4583,-162.0008"/>
<polygon fill="#000000" stroke="#000000" points="191.9584,-162.0965 195.4583,-172.0966 198.9584,-162.0966 191.9584,-162.0965"/>
</g>
<!-- GO:0033256&#45;&gt;GO:0044424 -->
<g id="edge8" class="edge">
<title>GO:0033256&#45;&gt;GO:0044424</title>
<path fill="none" stroke="#000000" d="M147.3285,-136.1558C131.0387,-146.0914 112.9713,-157.1112 97.1349,-166.7703"/>
<polygon fill="#000000" stroke="#000000" points="95.3067,-163.7857 88.5919,-171.9809 98.9517,-169.7618 95.3067,-163.7857"/>
</g>
</g>
</svg>
