<?xml version="1.0" encoding="UTF-8" standalone="no"?>
<!DOCTYPE svg PUBLIC "-//W3C//DTD SVG 1.1//EN"
 "http://www.w3.org/Graphics/SVG/1.1/DTD/svg11.dtd">
<!-- Generated by graphviz version 2.40.1 (20161225.0304)
 -->
<!-- Title: G Pages: 1 -->
<svg width="819pt" height="922pt"
 viewBox="0.00 0.00 818.82 922.40" xmlns="http://www.w3.org/2000/svg" xmlns:xlink="http://www.w3.org/1999/xlink">
<g id="graph0" class="graph" transform="scale(1 1) rotate(0) translate(4 918.4)">
<title>G</title>
<polygon fill="#ffffff" stroke="transparent" points="-4,4 -4,-918.4 814.8209,-918.4 814.8209,4 -4,4"/>
<!-- GO:0003677 -->
<g id="node1" class="node">
<title>GO:0003677</title>
<polygon fill="#ff0000" stroke="#000000" points="617.9175,-477.8019 525.7137,-477.8019 525.7137,-436.5981 617.9175,-436.5981 617.9175,-477.8019"/>
<text text-anchor="middle" x="571.8156" y="-461.4" font-family="Times,serif" font-size="14.00" fill="#000000">GO:0003677</text>
<text text-anchor="middle" x="571.8156" y="-444.6" font-family="Times,serif" font-size="14.00" fill="#000000">DNA binding</text>
</g>
<!-- GO:0003676 -->
<g id="node2" class="node">
<title>GO:0003676</title>
<polygon fill="#ffffff" stroke="#000000" points="562.3425,-589.0019 433.2887,-589.0019 433.2887,-547.7981 562.3425,-547.7981 562.3425,-589.0019"/>
<text text-anchor="middle" x="497.8156" y="-572.6" font-family="Times,serif" font-size="14.00" fill="#000000">GO:0003676</text>
<text text-anchor="middle" x="497.8156" y="-555.8" font-family="Times,serif" font-size="14.00" fill="#000000">nucleic acid binding</text>
</g>
<!-- GO:0003677&#45;&gt;GO:0003676 -->
<g id="edge1" class="edge">
<title>GO:0003677&#45;&gt;GO:0003676</title>
<path fill="none" stroke="#000000" d="M558.0702,-477.8553C546.6164,-495.0669 530.1628,-519.7918 517.3423,-539.0572"/>
<polygon fill="#000000" stroke="#000000" points="514.3648,-537.2138 511.7385,-547.478 520.1924,-541.0919 514.3648,-537.2138"/>
</g>
<!-- GO:0097159 -->
<g id="node3" class="node">
<title>GO:0097159</title>
<polygon fill="#ffffff" stroke="#000000" points="491.327,-717.4014 334.3042,-717.4014 334.3042,-658.5986 491.327,-658.5986 491.327,-717.4014"/>
<text text-anchor="middle" x="412.8156" y="-700.6" font-family="Times,serif" font-size="14.00" fill="#000000">GO:0097159</text>
<text text-anchor="middle" x="412.8156" y="-683.8" font-family="Times,serif" font-size="14.00" fill="#000000">organic cyclic compound</text>
<text text-anchor="middle" x="412.8156" y="-667" font-family="Times,serif" font-size="14.00" fill="#000000">binding</text>
</g>
<!-- GO:0003676&#45;&gt;GO:0097159 -->
<g id="edge2" class="edge">
<title>GO:0003676&#45;&gt;GO:0097159</title>
<path fill="none" stroke="#000000" d="M483.0097,-589.2327C471.1067,-605.981 454.0703,-629.9523 439.7621,-650.0847"/>
<polygon fill="#000000" stroke="#000000" points="436.7602,-648.2668 433.82,-658.4455 442.466,-652.322 436.7602,-648.2668"/>
</g>
<!-- GO:1901363 -->
<g id="node4" class="node">
<title>GO:1901363</title>
<polygon fill="#ffffff" stroke="#000000" points="656.3262,-717.4014 509.305,-717.4014 509.305,-658.5986 656.3262,-658.5986 656.3262,-717.4014"/>
<text text-anchor="middle" x="582.8156" y="-700.6" font-family="Times,serif" font-size="14.00" fill="#000000">GO:1901363</text>
<text text-anchor="middle" x="582.8156" y="-683.8" font-family="Times,serif" font-size="14.00" fill="#000000">heterocyclic compound</text>
<text text-anchor="middle" x="582.8156" y="-667" font-family="Times,serif" font-size="14.00" fill="#000000">binding</text>
</g>
<!-- GO:0003676&#45;&gt;GO:1901363 -->
<g id="edge3" class="edge">
<title>GO:0003676&#45;&gt;GO:1901363</title>
<path fill="none" stroke="#000000" d="M512.6215,-589.2327C524.5245,-605.981 541.5609,-629.9523 555.8691,-650.0847"/>
<polygon fill="#000000" stroke="#000000" points="553.1652,-652.322 561.8112,-658.4455 558.871,-648.2668 553.1652,-652.322"/>
</g>
<!-- GO:0005488 -->
<g id="node5" class="node">
<title>GO:0005488</title>
<polygon fill="#ffffff" stroke="#000000" points="369.4195,-819.8019 280.2117,-819.8019 280.2117,-778.5981 369.4195,-778.5981 369.4195,-819.8019"/>
<text text-anchor="middle" x="324.8156" y="-803.4" font-family="Times,serif" font-size="14.00" fill="#000000">GO:0005488</text>
<text text-anchor="middle" x="324.8156" y="-786.6" font-family="Times,serif" font-size="14.00" fill="#000000">binding</text>
</g>
<!-- GO:0097159&#45;&gt;GO:0005488 -->
<g id="edge4" class="edge">
<title>GO:0097159&#45;&gt;GO:0005488</title>
<path fill="none" stroke="#000000" d="M389.6946,-717.2165C376.772,-733.546 360.7213,-753.8282 347.8179,-770.1335"/>
<polygon fill="#000000" stroke="#000000" points="344.8514,-768.242 341.3903,-778.2556 350.3405,-772.5859 344.8514,-768.242"/>
</g>
<!-- GO:1901363&#45;&gt;GO:0005488 -->
<g id="edge5" class="edge">
<title>GO:1901363&#45;&gt;GO:0005488</title>
<path fill="none" stroke="#000000" d="M519.3429,-717.3613C513.0953,-720.174 506.8403,-722.9599 500.8156,-725.6 460.194,-743.4008 413.9126,-762.7172 379.0074,-777.0931"/>
<polygon fill="#000000" stroke="#000000" points="377.3957,-773.9714 369.4782,-781.0114 380.0579,-780.4454 377.3957,-773.9714"/>
</g>
<!-- GO:0003674 -->
<g id="node6" class="node">
<title>GO:0003674</title>
<polygon fill="#ffffff" stroke="#000000" points="303.4487,-914.2019 178.1825,-914.2019 178.1825,-872.9981 303.4487,-872.9981 303.4487,-914.2019"/>
<text text-anchor="middle" x="240.8156" y="-897.8" font-family="Times,serif" font-size="14.00" fill="#000000">GO:0003674</text>
<text text-anchor="middle" x="240.8156" y="-881" font-family="Times,serif" font-size="14.00" fill="#000000">molecular_function</text>
</g>
<!-- GO:0005488&#45;&gt;GO:0003674 -->
<g id="edge6" class="edge">
<title>GO:0005488&#45;&gt;GO:0003674</title>
<path fill="none" stroke="#000000" d="M306.1733,-820.1504C294.4281,-833.3498 279.1096,-850.5649 266.2552,-865.0107"/>
<polygon fill="#000000" stroke="#000000" points="263.4387,-862.9109 259.4058,-872.7081 268.6681,-867.5642 263.4387,-862.9109"/>
</g>
<!-- GO:0000981 -->
<g id="node7" class="node">
<title>GO:0000981</title>
<polygon fill="#ff0000" stroke="#000000" points="139.4473,-614.4 .1839,-614.4 .1839,-522.4 139.4473,-522.4 139.4473,-614.4"/>
<text text-anchor="middle" x="69.8156" y="-597.8" font-family="Times,serif" font-size="14.00" fill="#000000">GO:0000981</text>
<text text-anchor="middle" x="69.8156" y="-581" font-family="Times,serif" font-size="14.00" fill="#000000">RNA polymerase II</text>
<text text-anchor="middle" x="69.8156" y="-564.2" font-family="Times,serif" font-size="14.00" fill="#000000">transcription factor</text>
<text text-anchor="middle" x="69.8156" y="-547.4" font-family="Times,serif" font-size="14.00" fill="#000000">activity, sequence&#45;</text>
<text text-anchor="middle" x="69.8156" y="-530.6" font-family="Times,serif" font-size="14.00" fill="#000000">specific DNA binding</text>
</g>
<!-- GO:0003700 -->
<g id="node8" class="node">
<title>GO:0003700</title>
<polygon fill="#ff0000" stroke="#000000" points="139.4473,-725.7003 .1839,-725.7003 .1839,-650.2997 139.4473,-650.2997 139.4473,-725.7003"/>
<text text-anchor="middle" x="69.8156" y="-709" font-family="Times,serif" font-size="14.00" fill="#000000">GO:0003700</text>
<text text-anchor="middle" x="69.8156" y="-692.2" font-family="Times,serif" font-size="14.00" fill="#000000">transcription factor</text>
<text text-anchor="middle" x="69.8156" y="-675.4" font-family="Times,serif" font-size="14.00" fill="#000000">activity, sequence&#45;</text>
<text text-anchor="middle" x="69.8156" y="-658.6" font-family="Times,serif" font-size="14.00" fill="#000000">specific DNA binding</text>
</g>
<!-- GO:0000981&#45;&gt;GO:0003700 -->
<g id="edge7" class="edge">
<title>GO:0000981&#45;&gt;GO:0003700</title>
<path fill="none" stroke="#000000" d="M69.8156,-614.6405C69.8156,-623.0523 69.8156,-631.8419 69.8156,-640.2951"/>
<polygon fill="#000000" stroke="#000000" points="66.3157,-640.3911 69.8156,-650.3912 73.3157,-640.3912 66.3157,-640.3911"/>
</g>
<!-- GO:0001071 -->
<g id="node9" class="node">
<title>GO:0001071</title>
<polygon fill="#ffffff" stroke="#000000" points="242.3425,-836.9003 113.2887,-836.9003 113.2887,-761.4997 242.3425,-761.4997 242.3425,-836.9003"/>
<text text-anchor="middle" x="177.8156" y="-820.2" font-family="Times,serif" font-size="14.00" fill="#000000">GO:0001071</text>
<text text-anchor="middle" x="177.8156" y="-803.4" font-family="Times,serif" font-size="14.00" fill="#000000">nucleic acid binding</text>
<text text-anchor="middle" x="177.8156" y="-786.6" font-family="Times,serif" font-size="14.00" fill="#000000">transcription factor</text>
<text text-anchor="middle" x="177.8156" y="-769.8" font-family="Times,serif" font-size="14.00" fill="#000000">activity</text>
</g>
<!-- GO:0003700&#45;&gt;GO:0001071 -->
<g id="edge8" class="edge">
<title>GO:0003700&#45;&gt;GO:0001071</title>
<path fill="none" stroke="#000000" d="M106.3795,-725.6472C115.3521,-734.8858 125.0443,-744.8651 134.3079,-754.4032"/>
<polygon fill="#000000" stroke="#000000" points="131.8115,-756.8565 141.2894,-761.5915 136.833,-751.9795 131.8115,-756.8565"/>
</g>
<!-- GO:0001071&#45;&gt;GO:0003674 -->
<g id="edge9" class="edge">
<title>GO:0001071&#45;&gt;GO:0003674</title>
<path fill="none" stroke="#000000" d="M203.0771,-837.0522C209.124,-846.1129 215.4903,-855.6523 221.236,-864.2617"/>
<polygon fill="#000000" stroke="#000000" points="218.4972,-866.463 226.9595,-872.8379 224.3197,-862.5772 218.4972,-866.463"/>
</g>
<!-- GO:0044212 -->
<g id="node10" class="node">
<title>GO:0044212</title>
<polygon fill="#ff0000" stroke="#000000" points="485.6048,-297.8014 338.0264,-297.8014 338.0264,-238.9986 485.6048,-238.9986 485.6048,-297.8014"/>
<text text-anchor="middle" x="411.8156" y="-281" font-family="Times,serif" font-size="14.00" fill="#000000">GO:0044212</text>
<text text-anchor="middle" x="411.8156" y="-264.2" font-family="Times,serif" font-size="14.00" fill="#000000">transcription regulatory</text>
<text text-anchor="middle" x="411.8156" y="-247.4" font-family="Times,serif" font-size="14.00" fill="#000000">region DNA binding</text>
</g>
<!-- GO:0000975 -->
<g id="node11" class="node">
<title>GO:0000975</title>
<polygon fill="#ff0000" stroke="#000000" points="484.9333,-392.2014 338.6979,-392.2014 338.6979,-333.3986 484.9333,-333.3986 484.9333,-392.2014"/>
<text text-anchor="middle" x="411.8156" y="-375.4" font-family="Times,serif" font-size="14.00" fill="#000000">GO:0000975</text>
<text text-anchor="middle" x="411.8156" y="-358.6" font-family="Times,serif" font-size="14.00" fill="#000000">regulatory region DNA</text>
<text text-anchor="middle" x="411.8156" y="-341.8" font-family="Times,serif" font-size="14.00" fill="#000000">binding</text>
</g>
<!-- GO:0044212&#45;&gt;GO:0000975 -->
<g id="edge10" class="edge">
<title>GO:0044212&#45;&gt;GO:0000975</title>
<path fill="none" stroke="#000000" d="M411.8156,-297.7513C411.8156,-305.8318 411.8156,-314.7308 411.8156,-323.2838"/>
<polygon fill="#000000" stroke="#000000" points="408.3157,-323.4668 411.8156,-333.4669 415.3157,-323.4669 408.3157,-323.4668"/>
</g>
<!-- GO:0000975&#45;&gt;GO:0003677 -->
<g id="edge12" class="edge">
<title>GO:0000975&#45;&gt;GO:0003677</title>
<path fill="none" stroke="#000000" d="M461.5635,-392.1513C482.8196,-404.6923 507.4171,-419.2049 527.9783,-431.336"/>
<polygon fill="#000000" stroke="#000000" points="526.426,-434.4839 536.8173,-436.551 529.9831,-428.455 526.426,-434.4839"/>
</g>
<!-- GO:0001067 -->
<g id="node12" class="node">
<title>GO:0001067</title>
<polygon fill="#ffffff" stroke="#000000" points="501.0382,-486.6014 344.593,-486.6014 344.593,-427.7986 501.0382,-427.7986 501.0382,-486.6014"/>
<text text-anchor="middle" x="422.8156" y="-469.8" font-family="Times,serif" font-size="14.00" fill="#000000">GO:0001067</text>
<text text-anchor="middle" x="422.8156" y="-453" font-family="Times,serif" font-size="14.00" fill="#000000">regulatory region nucleic</text>
<text text-anchor="middle" x="422.8156" y="-436.2" font-family="Times,serif" font-size="14.00" fill="#000000">acid binding</text>
</g>
<!-- GO:0000975&#45;&gt;GO:0001067 -->
<g id="edge11" class="edge">
<title>GO:0000975&#45;&gt;GO:0001067</title>
<path fill="none" stroke="#000000" d="M415.2358,-392.1513C416.1774,-400.2318 417.2143,-409.1308 418.211,-417.6838"/>
<polygon fill="#000000" stroke="#000000" points="414.7636,-418.3392 419.3975,-427.8669 421.7165,-417.5289 414.7636,-418.3392"/>
</g>
<!-- GO:0001067&#45;&gt;GO:0003676 -->
<g id="edge13" class="edge">
<title>GO:0001067&#45;&gt;GO:0003676</title>
<path fill="none" stroke="#000000" d="M442.521,-486.4165C453.4336,-502.5962 466.9634,-522.6564 477.908,-538.8837"/>
<polygon fill="#000000" stroke="#000000" points="475.196,-541.1221 483.6894,-547.4556 480.9994,-537.2079 475.196,-541.1221"/>
</g>
<!-- GO:0000976 -->
<g id="node13" class="node">
<title>GO:0000976</title>
<polygon fill="#ffa500" stroke="#000000" points="658.0754,-203.3003 503.5558,-203.3003 503.5558,-127.8997 658.0754,-127.8997 658.0754,-203.3003"/>
<text text-anchor="middle" x="580.8156" y="-186.6" font-family="Times,serif" font-size="14.00" fill="#000000">GO:0000976</text>
<text text-anchor="middle" x="580.8156" y="-169.8" font-family="Times,serif" font-size="14.00" fill="#000000">transcription regulatory</text>
<text text-anchor="middle" x="580.8156" y="-153" font-family="Times,serif" font-size="14.00" fill="#000000">region sequence&#45;specific</text>
<text text-anchor="middle" x="580.8156" y="-136.2" font-family="Times,serif" font-size="14.00" fill="#000000">DNA binding</text>
</g>
<!-- GO:0000976&#45;&gt;GO:0044212 -->
<g id="edge14" class="edge">
<title>GO:0000976&#45;&gt;GO:0044212</title>
<path fill="none" stroke="#000000" d="M518.8459,-203.2952C502.472,-213.2552 484.8806,-223.9558 468.7852,-233.7463"/>
<polygon fill="#000000" stroke="#000000" points="466.7391,-230.8942 460.0145,-239.0814 470.377,-236.8747 466.7391,-230.8942"/>
</g>
<!-- GO:1990837 -->
<g id="node14" class="node">
<title>GO:1990837</title>
<polygon fill="#ffffff" stroke="#000000" points="665.5754,-297.8014 504.0558,-297.8014 504.0558,-238.9986 665.5754,-238.9986 665.5754,-297.8014"/>
<text text-anchor="middle" x="584.8156" y="-281" font-family="Times,serif" font-size="14.00" fill="#000000">GO:1990837</text>
<text text-anchor="middle" x="584.8156" y="-264.2" font-family="Times,serif" font-size="14.00" fill="#000000">sequence&#45;specific double&#45;</text>
<text text-anchor="middle" x="584.8156" y="-247.4" font-family="Times,serif" font-size="14.00" fill="#000000">stranded DNA binding</text>
</g>
<!-- GO:0000976&#45;&gt;GO:1990837 -->
<g id="edge15" class="edge">
<title>GO:0000976&#45;&gt;GO:1990837</title>
<path fill="none" stroke="#000000" d="M582.2823,-203.2952C582.6089,-211.6874 582.9559,-220.6054 583.2849,-229.0618"/>
<polygon fill="#000000" stroke="#000000" points="579.7885,-229.225 583.6748,-239.0814 586.7832,-228.9528 579.7885,-229.225"/>
</g>
<!-- GO:0043565 -->
<g id="node15" class="node">
<title>GO:0043565</title>
<polygon fill="#ffffff" stroke="#000000" points="652.6295,-392.2014 503.0017,-392.2014 503.0017,-333.3986 652.6295,-333.3986 652.6295,-392.2014"/>
<text text-anchor="middle" x="577.8156" y="-375.4" font-family="Times,serif" font-size="14.00" fill="#000000">GO:0043565</text>
<text text-anchor="middle" x="577.8156" y="-358.6" font-family="Times,serif" font-size="14.00" fill="#000000">sequence&#45;specific DNA</text>
<text text-anchor="middle" x="577.8156" y="-341.8" font-family="Times,serif" font-size="14.00" fill="#000000">binding</text>
</g>
<!-- GO:1990837&#45;&gt;GO:0043565 -->
<g id="edge16" class="edge">
<title>GO:1990837&#45;&gt;GO:0043565</title>
<path fill="none" stroke="#000000" d="M582.6391,-297.7513C582.0399,-305.8318 581.3801,-314.7308 580.7458,-323.2838"/>
<polygon fill="#000000" stroke="#000000" points="577.2399,-323.2354 579.9907,-333.4669 584.2207,-323.7531 577.2399,-323.2354"/>
</g>
<!-- GO:0003690 -->
<g id="node16" class="node">
<title>GO:0003690</title>
<polygon fill="#ffffff" stroke="#000000" points="810.8262,-392.2014 670.805,-392.2014 670.805,-333.3986 810.8262,-333.3986 810.8262,-392.2014"/>
<text text-anchor="middle" x="740.8156" y="-375.4" font-family="Times,serif" font-size="14.00" fill="#000000">GO:0003690</text>
<text text-anchor="middle" x="740.8156" y="-358.6" font-family="Times,serif" font-size="14.00" fill="#000000">double&#45;stranded DNA</text>
<text text-anchor="middle" x="740.8156" y="-341.8" font-family="Times,serif" font-size="14.00" fill="#000000">binding</text>
</g>
<!-- GO:1990837&#45;&gt;GO:0003690 -->
<g id="edge17" class="edge">
<title>GO:1990837&#45;&gt;GO:0003690</title>
<path fill="none" stroke="#000000" d="M633.3198,-297.7513C649.1678,-307.3413 666.9209,-318.0842 683.3625,-328.0335"/>
<polygon fill="#000000" stroke="#000000" points="681.9738,-331.2841 692.3414,-333.4669 685.5979,-325.2952 681.9738,-331.2841"/>
</g>
<!-- GO:0043565&#45;&gt;GO:0003677 -->
<g id="edge18" class="edge">
<title>GO:0043565&#45;&gt;GO:0003677</title>
<path fill="none" stroke="#000000" d="M575.9501,-392.1513C575.2566,-403.0614 574.4683,-415.4637 573.7674,-426.492"/>
<polygon fill="#000000" stroke="#000000" points="570.2695,-426.3491 573.128,-436.551 577.2554,-426.7932 570.2695,-426.3491"/>
</g>
<!-- GO:0003690&#45;&gt;GO:0003677 -->
<g id="edge19" class="edge">
<title>GO:0003690&#45;&gt;GO:0003677</title>
<path fill="none" stroke="#000000" d="M688.2693,-392.1513C665.6163,-404.8048 639.3702,-419.4654 617.5354,-431.6618"/>
<polygon fill="#000000" stroke="#000000" points="615.8061,-428.6187 608.7826,-436.551 619.2198,-434.73 615.8061,-428.6187"/>
</g>
<!-- GO:0000977 -->
<g id="node17" class="node">
<title>GO:0000977</title>
<polygon fill="#ffa500" stroke="#000000" points="570.6295,-92 421.0017,-92 421.0017,0 570.6295,0 570.6295,-92"/>
<text text-anchor="middle" x="495.8156" y="-75.4" font-family="Times,serif" font-size="14.00" fill="#000000">GO:0000977</text>
<text text-anchor="middle" x="495.8156" y="-58.6" font-family="Times,serif" font-size="14.00" fill="#000000">RNA polymerase II</text>
<text text-anchor="middle" x="495.8156" y="-41.8" font-family="Times,serif" font-size="14.00" fill="#000000">regulatory region</text>
<text text-anchor="middle" x="495.8156" y="-25" font-family="Times,serif" font-size="14.00" fill="#000000">sequence&#45;specific DNA</text>
<text text-anchor="middle" x="495.8156" y="-8.2" font-family="Times,serif" font-size="14.00" fill="#000000">binding</text>
</g>
<!-- GO:0000977&#45;&gt;GO:0000976 -->
<g id="edge20" class="edge">
<title>GO:0000977&#45;&gt;GO:0000976</title>
<path fill="none" stroke="#000000" d="M528.6788,-92.2405C535.117,-101.2993 541.8666,-110.7964 548.2935,-119.8395"/>
<polygon fill="#000000" stroke="#000000" points="545.441,-121.8676 554.0869,-127.9912 551.1468,-117.8125 545.441,-121.8676"/>
</g>
<!-- GO:0001012 -->
<g id="node18" class="node">
<title>GO:0001012</title>
<polygon fill="#ffffff" stroke="#000000" points="484.9333,-203.3003 338.6979,-203.3003 338.6979,-127.8997 484.9333,-127.8997 484.9333,-203.3003"/>
<text text-anchor="middle" x="411.8156" y="-186.6" font-family="Times,serif" font-size="14.00" fill="#000000">GO:0001012</text>
<text text-anchor="middle" x="411.8156" y="-169.8" font-family="Times,serif" font-size="14.00" fill="#000000">RNA polymerase II</text>
<text text-anchor="middle" x="411.8156" y="-153" font-family="Times,serif" font-size="14.00" fill="#000000">regulatory region DNA</text>
<text text-anchor="middle" x="411.8156" y="-136.2" font-family="Times,serif" font-size="14.00" fill="#000000">binding</text>
</g>
<!-- GO:0000977&#45;&gt;GO:0001012 -->
<g id="edge21" class="edge">
<title>GO:0000977&#45;&gt;GO:0001012</title>
<path fill="none" stroke="#000000" d="M463.339,-92.2405C457.0415,-101.2069 450.4425,-110.6027 444.1496,-119.5626"/>
<polygon fill="#000000" stroke="#000000" points="441.1132,-117.7962 438.2298,-127.9912 446.8415,-121.8195 441.1132,-117.7962"/>
</g>
<!-- GO:0001012&#45;&gt;GO:0044212 -->
<g id="edge22" class="edge">
<title>GO:0001012&#45;&gt;GO:0044212</title>
<path fill="none" stroke="#000000" d="M411.8156,-203.2952C411.8156,-211.6874 411.8156,-220.6054 411.8156,-229.0618"/>
<polygon fill="#000000" stroke="#000000" points="408.3157,-229.0813 411.8156,-239.0814 415.3157,-229.0814 408.3157,-229.0813"/>
</g>
<!-- GO:0003682 -->
<g id="node19" class="node">
<title>GO:0003682</title>
<polygon fill="#ffa500" stroke="#000000" points="296.3584,-589.0019 177.2728,-589.0019 177.2728,-547.7981 296.3584,-547.7981 296.3584,-589.0019"/>
<text text-anchor="middle" x="236.8156" y="-572.6" font-family="Times,serif" font-size="14.00" fill="#000000">GO:0003682</text>
<text text-anchor="middle" x="236.8156" y="-555.8" font-family="Times,serif" font-size="14.00" fill="#000000">chromatin binding</text>
</g>
<!-- GO:0044877 -->
<g id="node20" class="node">
<title>GO:0044877</title>
<polygon fill="#ffffff" stroke="#000000" points="315.9829,-717.4014 157.6483,-717.4014 157.6483,-658.5986 315.9829,-658.5986 315.9829,-717.4014"/>
<text text-anchor="middle" x="236.8156" y="-700.6" font-family="Times,serif" font-size="14.00" fill="#000000">GO:0044877</text>
<text text-anchor="middle" x="236.8156" y="-683.8" font-family="Times,serif" font-size="14.00" fill="#000000">macromolecular complex</text>
<text text-anchor="middle" x="236.8156" y="-667" font-family="Times,serif" font-size="14.00" fill="#000000">binding</text>
</g>
<!-- GO:0003682&#45;&gt;GO:0044877 -->
<g id="edge23" class="edge">
<title>GO:0003682&#45;&gt;GO:0044877</title>
<path fill="none" stroke="#000000" d="M236.8156,-589.2327C236.8156,-605.4576 236.8156,-628.4611 236.8156,-648.1863"/>
<polygon fill="#000000" stroke="#000000" points="233.3157,-648.4455 236.8156,-658.4455 240.3157,-648.4456 233.3157,-648.4455"/>
</g>
<!-- GO:0044877&#45;&gt;GO:0005488 -->
<g id="edge24" class="edge">
<title>GO:0044877&#45;&gt;GO:0005488</title>
<path fill="none" stroke="#000000" d="M259.9366,-717.2165C272.8592,-733.546 288.9099,-753.8282 301.8133,-770.1335"/>
<polygon fill="#000000" stroke="#000000" points="299.2907,-772.5859 308.2409,-778.2556 304.7798,-768.242 299.2907,-772.5859"/>
</g>
</g>
</svg>
