<?xml version="1.0" encoding="UTF-8" standalone="no"?>
<!DOCTYPE svg PUBLIC "-//W3C//DTD SVG 1.1//EN"
 "http://www.w3.org/Graphics/SVG/1.1/DTD/svg11.dtd">
<!-- Generated by graphviz version 2.40.1 (20161225.0304)
 -->
<!-- Title: G Pages: 1 -->
<svg width="578pt" height="394pt"
 viewBox="0.00 0.00 577.59 393.60" xmlns="http://www.w3.org/2000/svg" xmlns:xlink="http://www.w3.org/1999/xlink">
<g id="graph0" class="graph" transform="scale(1 1) rotate(0) translate(4 389.6)">
<title>G</title>
<polygon fill="#ffffff" stroke="transparent" points="-4,4 -4,-389.6 573.5895,-389.6 573.5895,4 -4,4"/>
<!-- GO:0044464 -->
<g id="node1" class="node">
<title>GO:0044464</title>
<polygon fill="#ff0000" stroke="#000000" points="256.213,-307.8019 167.0052,-307.8019 167.0052,-266.5981 256.213,-266.5981 256.213,-307.8019"/>
<text text-anchor="middle" x="211.6091" y="-291.4" font-family="Times,serif" font-size="14.00" fill="#000000">GO:0044464</text>
<text text-anchor="middle" x="211.6091" y="-274.6" font-family="Times,serif" font-size="14.00" fill="#000000">cell part</text>
</g>
<!-- GO:0005575 -->
<g id="node2" class="node">
<title>GO:0005575</title>
<polygon fill="#ffffff" stroke="#000000" points="311.2958,-385.4019 183.9224,-385.4019 183.9224,-344.1981 311.2958,-344.1981 311.2958,-385.4019"/>
<text text-anchor="middle" x="247.6091" y="-369" font-family="Times,serif" font-size="14.00" fill="#000000">GO:0005575</text>
<text text-anchor="middle" x="247.6091" y="-352.2" font-family="Times,serif" font-size="14.00" fill="#000000">cellular_component</text>
</g>
<!-- GO:0044464&#45;&gt;GO:0005575 -->
<g id="edge1" class="edge">
<title>GO:0044464&#45;&gt;GO:0005575</title>
<path fill="none" stroke="#000000" d="M221.2564,-307.9954C225.0496,-316.1718 229.4787,-325.7189 233.6113,-334.627"/>
<polygon fill="#000000" stroke="#000000" points="230.5517,-336.3488 237.9351,-343.9472 236.9017,-333.4029 230.5517,-336.3488"/>
</g>
<!-- GO:0043229 -->
<g id="node3" class="node">
<title>GO:0043229</title>
<polygon fill="#ffff00" stroke="#000000" points="423.3275,-144.2019 283.8907,-144.2019 283.8907,-102.9981 423.3275,-102.9981 423.3275,-144.2019"/>
<text text-anchor="middle" x="353.6091" y="-127.8" font-family="Times,serif" font-size="14.00" fill="#000000">GO:0043229</text>
<text text-anchor="middle" x="353.6091" y="-111" font-family="Times,serif" font-size="14.00" fill="#000000">intracellular organelle</text>
</g>
<!-- GO:0044424 -->
<g id="node4" class="node">
<title>GO:0044424</title>
<polygon fill="#ff0000" stroke="#000000" points="266.0075,-230.2019 157.2107,-230.2019 157.2107,-188.9981 266.0075,-188.9981 266.0075,-230.2019"/>
<text text-anchor="middle" x="211.6091" y="-213.8" font-family="Times,serif" font-size="14.00" fill="#000000">GO:0044424</text>
<text text-anchor="middle" x="211.6091" y="-197" font-family="Times,serif" font-size="14.00" fill="#000000">intracellular part</text>
</g>
<!-- GO:0043229&#45;&gt;GO:0044424 -->
<g id="edge2" class="edge">
<title>GO:0043229&#45;&gt;GO:0044424</title>
<path fill="none" stroke="#000000" d="M319.2349,-144.4182C299.6997,-156.2494 275.0704,-171.1657 254.304,-183.7425"/>
<polygon fill="#000000" stroke="#000000" points="252.4073,-180.7994 245.6668,-188.9735 256.0335,-186.7869 252.4073,-180.7994"/>
</g>
<!-- GO:0043226 -->
<g id="node5" class="node">
<title>GO:0043226</title>
<polygon fill="#ffa500" stroke="#000000" points="398.213,-230.2019 309.0052,-230.2019 309.0052,-188.9981 398.213,-188.9981 398.213,-230.2019"/>
<text text-anchor="middle" x="353.6091" y="-213.8" font-family="Times,serif" font-size="14.00" fill="#000000">GO:0043226</text>
<text text-anchor="middle" x="353.6091" y="-197" font-family="Times,serif" font-size="14.00" fill="#000000">organelle</text>
</g>
<!-- GO:0043229&#45;&gt;GO:0043226 -->
<g id="edge3" class="edge">
<title>GO:0043229&#45;&gt;GO:0043226</title>
<path fill="none" stroke="#000000" d="M353.6091,-144.4182C353.6091,-154.7705 353.6091,-167.4848 353.6091,-178.9271"/>
<polygon fill="#000000" stroke="#000000" points="350.1092,-178.9735 353.6091,-188.9735 357.1092,-178.9735 350.1092,-178.9735"/>
</g>
<!-- GO:0044424&#45;&gt;GO:0044464 -->
<g id="edge4" class="edge">
<title>GO:0044424&#45;&gt;GO:0044464</title>
<path fill="none" stroke="#000000" d="M211.6091,-230.3954C211.6091,-238.3109 211.6091,-247.5109 211.6091,-256.1722"/>
<polygon fill="#000000" stroke="#000000" points="208.1092,-256.3472 211.6091,-266.3472 215.1092,-256.3473 208.1092,-256.3472"/>
</g>
<!-- GO:0043226&#45;&gt;GO:0005575 -->
<g id="edge5" class="edge">
<title>GO:0043226&#45;&gt;GO:0005575</title>
<path fill="none" stroke="#000000" d="M333.5333,-230.3192C323.9379,-240.7256 312.6114,-253.7795 303.6091,-266.4 287.9413,-288.3649 272.9757,-315.0643 262.4636,-335.1066"/>
<polygon fill="#000000" stroke="#000000" points="259.3061,-333.5928 257.8191,-344.0827 265.5232,-336.8096 259.3061,-333.5928"/>
</g>
<!-- GO:0043227 -->
<g id="node6" class="node">
<title>GO:0043227</title>
<polygon fill="#ffff00" stroke="#000000" points="569.5699,-153.0014 441.6483,-153.0014 441.6483,-94.1986 569.5699,-94.1986 569.5699,-153.0014"/>
<text text-anchor="middle" x="505.6091" y="-136.2" font-family="Times,serif" font-size="14.00" fill="#000000">GO:0043227</text>
<text text-anchor="middle" x="505.6091" y="-119.4" font-family="Times,serif" font-size="14.00" fill="#000000">membrane&#45;bounded</text>
<text text-anchor="middle" x="505.6091" y="-102.6" font-family="Times,serif" font-size="14.00" fill="#000000">organelle</text>
</g>
<!-- GO:0043227&#45;&gt;GO:0043226 -->
<g id="edge6" class="edge">
<title>GO:0043227&#45;&gt;GO:0043226</title>
<path fill="none" stroke="#000000" d="M453.7245,-152.9558C436.0012,-162.9834 416.3261,-174.1154 399.1415,-183.8383"/>
<polygon fill="#000000" stroke="#000000" points="397.3855,-180.8103 390.4056,-188.7809 400.8326,-186.9028 397.3855,-180.8103"/>
</g>
<!-- GO:0032991 -->
<g id="node7" class="node">
<title>GO:0032991</title>
<polygon fill="#ff00ff" stroke="#000000" points="470.7764,-307.8019 312.4418,-307.8019 312.4418,-266.5981 470.7764,-266.5981 470.7764,-307.8019"/>
<text text-anchor="middle" x="391.6091" y="-291.4" font-family="Times,serif" font-size="14.00" fill="#000000">GO:0032991</text>
<text text-anchor="middle" x="391.6091" y="-274.6" font-family="Times,serif" font-size="14.00" fill="#000000">macromolecular complex</text>
</g>
<!-- GO:0032991&#45;&gt;GO:0005575 -->
<g id="edge7" class="edge">
<title>GO:0032991&#45;&gt;GO:0005575</title>
<path fill="none" stroke="#000000" d="M353.0197,-307.9954C335.2644,-317.5635 314.026,-329.0087 295.2807,-339.1103"/>
<polygon fill="#000000" stroke="#000000" points="293.4477,-336.1222 286.305,-343.9472 296.7685,-342.2844 293.4477,-336.1222"/>
</g>
<!-- GO:0043231 -->
<g id="node8" class="node">
<title>GO:0043231</title>
<polygon fill="#00ff00" stroke="#000000" points="504.9879,-58.6014 354.2303,-58.6014 354.2303,.2014 504.9879,.2014 504.9879,-58.6014"/>
<text text-anchor="middle" x="429.6091" y="-41.8" font-family="Times,serif" font-size="14.00" fill="#000000">GO:0043231</text>
<text text-anchor="middle" x="429.6091" y="-25" font-family="Times,serif" font-size="14.00" fill="#000000">intracellular membrane&#45;</text>
<text text-anchor="middle" x="429.6091" y="-8.2" font-family="Times,serif" font-size="14.00" fill="#000000">bounded organelle</text>
</g>
<!-- GO:0043231&#45;&gt;GO:0043229 -->
<g id="edge8" class="edge">
<title>GO:0043231&#45;&gt;GO:0043229</title>
<path fill="none" stroke="#000000" d="M405.9788,-58.5513C396.6519,-70.1363 385.9705,-83.4037 376.6973,-94.922"/>
<polygon fill="#000000" stroke="#000000" points="373.7781,-92.9667 370.2333,-102.951 379.2307,-97.3565 373.7781,-92.9667"/>
</g>
<!-- GO:0043231&#45;&gt;GO:0043227 -->
<g id="edge9" class="edge">
<title>GO:0043231&#45;&gt;GO:0043227</title>
<path fill="none" stroke="#000000" d="M453.2394,-58.5513C460.3168,-67.3422 468.1741,-77.1018 475.6042,-86.3308"/>
<polygon fill="#000000" stroke="#000000" points="472.9961,-88.6724 481.9934,-94.2669 478.4486,-84.2826 472.9961,-88.6724"/>
</g>
<!-- GO:0044446 -->
<g id="node9" class="node">
<title>GO:0044446</title>
<polygon fill="#00ffff" stroke="#000000" points="139.3275,-153.0014 -.1093,-153.0014 -.1093,-94.1986 139.3275,-94.1986 139.3275,-153.0014"/>
<text text-anchor="middle" x="69.6091" y="-136.2" font-family="Times,serif" font-size="14.00" fill="#000000">GO:0044446</text>
<text text-anchor="middle" x="69.6091" y="-119.4" font-family="Times,serif" font-size="14.00" fill="#000000">intracellular organelle</text>
<text text-anchor="middle" x="69.6091" y="-102.6" font-family="Times,serif" font-size="14.00" fill="#000000">part</text>
</g>
<!-- GO:0044446&#45;&gt;GO:0044424 -->
<g id="edge10" class="edge">
<title>GO:0044446&#45;&gt;GO:0044424</title>
<path fill="none" stroke="#000000" d="M118.0803,-152.9558C134.4856,-162.8914 152.6811,-173.9112 168.6298,-183.5703"/>
<polygon fill="#000000" stroke="#000000" points="166.8667,-186.5943 177.2334,-188.7809 170.493,-180.6068 166.8667,-186.5943"/>
</g>
<!-- GO:0044422 -->
<g id="node10" class="node">
<title>GO:0044422</title>
<polygon fill="#ffffff" stroke="#000000" points="141.4612,-307.8019 47.757,-307.8019 47.757,-266.5981 141.4612,-266.5981 141.4612,-307.8019"/>
<text text-anchor="middle" x="94.6091" y="-291.4" font-family="Times,serif" font-size="14.00" fill="#000000">GO:0044422</text>
<text text-anchor="middle" x="94.6091" y="-274.6" font-family="Times,serif" font-size="14.00" fill="#000000">organelle part</text>
</g>
<!-- GO:0044446&#45;&gt;GO:0044422 -->
<g id="edge11" class="edge">
<title>GO:0044446&#45;&gt;GO:0044422</title>
<path fill="none" stroke="#000000" d="M74.0786,-152.8484C78.5316,-181.9891 85.3426,-226.5603 89.8835,-256.2759"/>
<polygon fill="#000000" stroke="#000000" points="86.4747,-257.139 91.4452,-266.4955 93.3944,-256.0815 86.4747,-257.139"/>
</g>
<!-- GO:0044422&#45;&gt;GO:0005575 -->
<g id="edge12" class="edge">
<title>GO:0044422&#45;&gt;GO:0005575</title>
<path fill="none" stroke="#000000" d="M135.6103,-307.9954C154.7236,-317.6895 177.6357,-329.3102 197.7429,-339.5084"/>
<polygon fill="#000000" stroke="#000000" points="196.2586,-342.6799 206.7602,-344.0819 199.4249,-336.437 196.2586,-342.6799"/>
</g>
<!-- GO:0044444 -->
<g id="node11" class="node">
<title>GO:0044444</title>
<polygon fill="#ffff00" stroke="#000000" points="266.0257,-144.2019 157.1925,-144.2019 157.1925,-102.9981 266.0257,-102.9981 266.0257,-144.2019"/>
<text text-anchor="middle" x="211.6091" y="-127.8" font-family="Times,serif" font-size="14.00" fill="#000000">GO:0044444</text>
<text text-anchor="middle" x="211.6091" y="-111" font-family="Times,serif" font-size="14.00" fill="#000000">cytoplasmic part</text>
</g>
<!-- GO:0044444&#45;&gt;GO:0044424 -->
<g id="edge13" class="edge">
<title>GO:0044444&#45;&gt;GO:0044424</title>
<path fill="none" stroke="#000000" d="M211.6091,-144.4182C211.6091,-154.7705 211.6091,-167.4848 211.6091,-178.9271"/>
<polygon fill="#000000" stroke="#000000" points="208.1092,-178.9735 211.6091,-188.9735 215.1092,-178.9735 208.1092,-178.9735"/>
</g>
</g>
</svg>
