<?xml version="1.0" encoding="UTF-8" standalone="no"?>
<!DOCTYPE svg PUBLIC "-//W3C//DTD SVG 1.1//EN"
 "http://www.w3.org/Graphics/SVG/1.1/DTD/svg11.dtd">
<!-- Generated by graphviz version 2.40.1 (20161225.0304)
 -->
<!-- Title: G Pages: 1 -->
<svg width="662pt" height="222pt"
 viewBox="0.00 0.00 662.26 221.60" xmlns="http://www.w3.org/2000/svg" xmlns:xlink="http://www.w3.org/1999/xlink">
<g id="graph0" class="graph" transform="scale(1 1) rotate(0) translate(4 217.6)">
<title>G</title>
<polygon fill="#ffffff" stroke="transparent" points="-4,4 -4,-217.6 658.2606,-217.6 658.2606,4 -4,4"/>
<!-- GO:1901363 -->
<g id="node1" class="node">
<title>GO:1901363</title>
<polygon fill="#00ffff" stroke="#000000" points="147.0159,-58.6014 -.0053,-58.6014 -.0053,.2014 147.0159,.2014 147.0159,-58.6014"/>
<text text-anchor="middle" x="73.5053" y="-41.8" font-family="Times,serif" font-size="14.00" fill="#000000">GO:1901363</text>
<text text-anchor="middle" x="73.5053" y="-25" font-family="Times,serif" font-size="14.00" fill="#000000">heterocyclic compound</text>
<text text-anchor="middle" x="73.5053" y="-8.2" font-family="Times,serif" font-size="14.00" fill="#000000">binding</text>
</g>
<!-- GO:0005488 -->
<g id="node2" class="node">
<title>GO:0005488</title>
<polygon fill="#ffffff" stroke="#000000" points="366.1092,-135.8019 276.9014,-135.8019 276.9014,-94.5981 366.1092,-94.5981 366.1092,-135.8019"/>
<text text-anchor="middle" x="321.5053" y="-119.4" font-family="Times,serif" font-size="14.00" fill="#000000">GO:0005488</text>
<text text-anchor="middle" x="321.5053" y="-102.6" font-family="Times,serif" font-size="14.00" fill="#000000">binding</text>
</g>
<!-- GO:1901363&#45;&gt;GO:0005488 -->
<g id="edge1" class="edge">
<title>GO:1901363&#45;&gt;GO:0005488</title>
<path fill="none" stroke="#000000" d="M147.2473,-55.508C150.0344,-56.4869 152.7945,-57.4536 155.5053,-58.4 192.6431,-71.3655 234.5551,-85.7042 266.9739,-96.7312"/>
<polygon fill="#000000" stroke="#000000" points="266.1199,-100.1375 276.7143,-100.0419 268.3726,-93.5099 266.1199,-100.1375"/>
</g>
<!-- GO:0003674 -->
<g id="node3" class="node">
<title>GO:0003674</title>
<polygon fill="#ffffff" stroke="#000000" points="442.1384,-213.4019 316.8722,-213.4019 316.8722,-172.1981 442.1384,-172.1981 442.1384,-213.4019"/>
<text text-anchor="middle" x="379.5053" y="-197" font-family="Times,serif" font-size="14.00" fill="#000000">GO:0003674</text>
<text text-anchor="middle" x="379.5053" y="-180.2" font-family="Times,serif" font-size="14.00" fill="#000000">molecular_function</text>
</g>
<!-- GO:0005488&#45;&gt;GO:0003674 -->
<g id="edge2" class="edge">
<title>GO:0005488&#45;&gt;GO:0003674</title>
<path fill="none" stroke="#000000" d="M337.0482,-135.9954C343.4195,-144.5197 350.9044,-154.5339 357.8005,-163.7605"/>
<polygon fill="#000000" stroke="#000000" points="355.1292,-166.0327 363.9195,-171.9472 360.7361,-161.8419 355.1292,-166.0327"/>
</g>
<!-- GO:0036094 -->
<g id="node4" class="node">
<title>GO:0036094</title>
<polygon fill="#ff00ff" stroke="#000000" points="312.4337,-49.8019 164.5769,-49.8019 164.5769,-8.5981 312.4337,-8.5981 312.4337,-49.8019"/>
<text text-anchor="middle" x="238.5053" y="-33.4" font-family="Times,serif" font-size="14.00" fill="#000000">GO:0036094</text>
<text text-anchor="middle" x="238.5053" y="-16.6" font-family="Times,serif" font-size="14.00" fill="#000000">small molecule binding</text>
</g>
<!-- GO:0036094&#45;&gt;GO:0005488 -->
<g id="edge3" class="edge">
<title>GO:0036094&#45;&gt;GO:0005488</title>
<path fill="none" stroke="#000000" d="M258.5973,-50.0182C269.404,-61.2156 282.8779,-75.1764 294.5804,-87.3019"/>
<polygon fill="#000000" stroke="#000000" points="292.1354,-89.8086 301.5983,-94.5735 297.1723,-84.9475 292.1354,-89.8086"/>
</g>
<!-- GO:0003824 -->
<g id="node5" class="node">
<title>GO:0003824</title>
<polygon fill="#00ffff" stroke="#000000" points="492.9177,-135.8019 384.0929,-135.8019 384.0929,-94.5981 492.9177,-94.5981 492.9177,-135.8019"/>
<text text-anchor="middle" x="438.5053" y="-119.4" font-family="Times,serif" font-size="14.00" fill="#000000">GO:0003824</text>
<text text-anchor="middle" x="438.5053" y="-102.6" font-family="Times,serif" font-size="14.00" fill="#000000">catalytic activity</text>
</g>
<!-- GO:0003824&#45;&gt;GO:0003674 -->
<g id="edge4" class="edge">
<title>GO:0003824&#45;&gt;GO:0003674</title>
<path fill="none" stroke="#000000" d="M422.6944,-135.9954C416.2132,-144.5197 408.5994,-154.5339 401.5843,-163.7605"/>
<polygon fill="#000000" stroke="#000000" points="398.6261,-161.8684 395.3599,-171.9472 404.1985,-166.1051 398.6261,-161.8684"/>
</g>
<!-- GO:0097367 -->
<g id="node6" class="node">
<title>GO:0097367</title>
<polygon fill="#00ffff" stroke="#000000" points="478.5524,-58.6014 330.4582,-58.6014 330.4582,.2014 478.5524,.2014 478.5524,-58.6014"/>
<text text-anchor="middle" x="404.5053" y="-41.8" font-family="Times,serif" font-size="14.00" fill="#000000">GO:0097367</text>
<text text-anchor="middle" x="404.5053" y="-25" font-family="Times,serif" font-size="14.00" fill="#000000">carbohydrate derivative</text>
<text text-anchor="middle" x="404.5053" y="-8.2" font-family="Times,serif" font-size="14.00" fill="#000000">binding</text>
</g>
<!-- GO:0097367&#45;&gt;GO:0005488 -->
<g id="edge5" class="edge">
<title>GO:0097367&#45;&gt;GO:0005488</title>
<path fill="none" stroke="#000000" d="M375.9414,-58.7963C367.0758,-67.9824 357.335,-78.0752 348.5743,-87.1526"/>
<polygon fill="#000000" stroke="#000000" points="345.9126,-84.8705 341.4865,-94.4966 350.9494,-89.7316 345.9126,-84.8705"/>
</g>
<!-- GO:0097159 -->
<g id="node7" class="node">
<title>GO:0097159</title>
<polygon fill="#00ffff" stroke="#000000" points="654.0167,-58.6014 496.9939,-58.6014 496.9939,.2014 654.0167,.2014 654.0167,-58.6014"/>
<text text-anchor="middle" x="575.5053" y="-41.8" font-family="Times,serif" font-size="14.00" fill="#000000">GO:0097159</text>
<text text-anchor="middle" x="575.5053" y="-25" font-family="Times,serif" font-size="14.00" fill="#000000">organic cyclic compound</text>
<text text-anchor="middle" x="575.5053" y="-8.2" font-family="Times,serif" font-size="14.00" fill="#000000">binding</text>
</g>
<!-- GO:0097159&#45;&gt;GO:0005488 -->
<g id="edge6" class="edge">
<title>GO:0097159&#45;&gt;GO:0005488</title>
<path fill="none" stroke="#000000" d="M496.8351,-55.3448C493.6848,-56.3789 490.5656,-57.4005 487.5053,-58.4 440.6183,-73.714 426.3995,-76.684 375.7534,-94.396"/>
<polygon fill="#000000" stroke="#000000" points="374.4921,-91.1294 366.2219,-97.7516 376.8168,-97.7321 374.4921,-91.1294"/>
</g>
</g>
</svg>
