<?xml version="1.0" encoding="UTF-8" standalone="no"?>
<!DOCTYPE svg PUBLIC "-//W3C//DTD SVG 1.1//EN"
 "http://www.w3.org/Graphics/SVG/1.1/DTD/svg11.dtd">
<!-- Generated by graphviz version 2.40.1 (20161225.0304)
 -->
<!-- Title: G Pages: 1 -->
<svg width="489pt" height="394pt"
 viewBox="0.00 0.00 488.71 393.60" xmlns="http://www.w3.org/2000/svg" xmlns:xlink="http://www.w3.org/1999/xlink">
<g id="graph0" class="graph" transform="scale(1 1) rotate(0) translate(4 389.6)">
<title>G</title>
<polygon fill="#ffffff" stroke="transparent" points="-4,4 -4,-389.6 484.7122,-389.6 484.7122,4 -4,4"/>
<!-- GO:0009408 -->
<g id="node1" class="node">
<title>GO:0009408</title>
<polygon fill="#00ffff" stroke="#000000" points="177.1742,-41.4019 70.795,-41.4019 70.795,-.1981 177.1742,-.1981 177.1742,-41.4019"/>
<text text-anchor="middle" x="123.9846" y="-25" font-family="Times,serif" font-size="14.00" fill="#000000">GO:0009408</text>
<text text-anchor="middle" x="123.9846" y="-8.2" font-family="Times,serif" font-size="14.00" fill="#000000">response to heat</text>
</g>
<!-- GO:0006950 -->
<g id="node2" class="node">
<title>GO:0006950</title>
<polygon fill="#ffff00" stroke="#000000" points="113.9538,-221.8019 .0154,-221.8019 .0154,-180.5981 113.9538,-180.5981 113.9538,-221.8019"/>
<text text-anchor="middle" x="56.9846" y="-205.4" font-family="Times,serif" font-size="14.00" fill="#000000">GO:0006950</text>
<text text-anchor="middle" x="56.9846" y="-188.6" font-family="Times,serif" font-size="14.00" fill="#000000">response to stress</text>
</g>
<!-- GO:0009408&#45;&gt;GO:0006950 -->
<g id="edge1" class="edge">
<title>GO:0009408&#45;&gt;GO:0006950</title>
<path fill="none" stroke="#000000" d="M114.8817,-41.4415C110.2521,-52.1601 104.636,-65.5106 99.9846,-77.6 87.8665,-109.0961 75.3347,-145.6531 66.9488,-170.795"/>
<polygon fill="#000000" stroke="#000000" points="63.558,-169.9004 63.7306,-180.4938 70.2018,-172.1049 63.558,-169.9004"/>
</g>
<!-- GO:0009266 -->
<g id="node3" class="node">
<title>GO:0009266</title>
<polygon fill="#ffffff" stroke="#000000" points="258.7059,-136.2014 109.2633,-136.2014 109.2633,-77.3986 258.7059,-77.3986 258.7059,-136.2014"/>
<text text-anchor="middle" x="183.9846" y="-119.4" font-family="Times,serif" font-size="14.00" fill="#000000">GO:0009266</text>
<text text-anchor="middle" x="183.9846" y="-102.6" font-family="Times,serif" font-size="14.00" fill="#000000">response to temperature</text>
<text text-anchor="middle" x="183.9846" y="-85.8" font-family="Times,serif" font-size="14.00" fill="#000000">stimulus</text>
</g>
<!-- GO:0009408&#45;&gt;GO:0009266 -->
<g id="edge2" class="edge">
<title>GO:0009408&#45;&gt;GO:0009266</title>
<path fill="none" stroke="#000000" d="M138.5089,-41.6182C144.2445,-49.8391 151.0192,-59.5496 157.5635,-68.9298"/>
<polygon fill="#000000" stroke="#000000" points="154.8801,-71.2005 163.4724,-77.3991 160.621,-67.1952 154.8801,-71.2005"/>
</g>
<!-- GO:0050896 -->
<g id="node4" class="node">
<title>GO:0050896</title>
<polygon fill="#ffff00" stroke="#000000" points="189.3062,-307.8019 58.663,-307.8019 58.663,-266.5981 189.3062,-266.5981 189.3062,-307.8019"/>
<text text-anchor="middle" x="123.9846" y="-291.4" font-family="Times,serif" font-size="14.00" fill="#000000">GO:0050896</text>
<text text-anchor="middle" x="123.9846" y="-274.6" font-family="Times,serif" font-size="14.00" fill="#000000">response to stimulus</text>
</g>
<!-- GO:0006950&#45;&gt;GO:0050896 -->
<g id="edge3" class="edge">
<title>GO:0006950&#45;&gt;GO:0050896</title>
<path fill="none" stroke="#000000" d="M73.2034,-222.0182C81.7624,-233.0043 92.3938,-246.6506 101.7138,-258.6137"/>
<polygon fill="#000000" stroke="#000000" points="99.0083,-260.8359 107.9151,-266.5735 104.5303,-256.5339 99.0083,-260.8359"/>
</g>
<!-- GO:0009628 -->
<g id="node5" class="node">
<title>GO:0009628</title>
<polygon fill="#00ff00" stroke="#000000" points="252.4552,-230.6014 131.514,-230.6014 131.514,-171.7986 252.4552,-171.7986 252.4552,-230.6014"/>
<text text-anchor="middle" x="191.9846" y="-213.8" font-family="Times,serif" font-size="14.00" fill="#000000">GO:0009628</text>
<text text-anchor="middle" x="191.9846" y="-197" font-family="Times,serif" font-size="14.00" fill="#000000">response to abiotic</text>
<text text-anchor="middle" x="191.9846" y="-180.2" font-family="Times,serif" font-size="14.00" fill="#000000">stimulus</text>
</g>
<!-- GO:0009266&#45;&gt;GO:0009628 -->
<g id="edge4" class="edge">
<title>GO:0009266&#45;&gt;GO:0009628</title>
<path fill="none" stroke="#000000" d="M186.472,-136.1513C187.1568,-144.2318 187.9109,-153.1308 188.6358,-161.6838"/>
<polygon fill="#000000" stroke="#000000" points="185.1667,-162.1982 189.4987,-171.8669 192.1417,-161.607 185.1667,-162.1982"/>
</g>
<!-- GO:0008150 -->
<g id="node6" class="node">
<title>GO:0008150</title>
<polygon fill="#ffffff" stroke="#000000" points="343.4552,-385.4019 222.514,-385.4019 222.514,-344.1981 343.4552,-344.1981 343.4552,-385.4019"/>
<text text-anchor="middle" x="282.9846" y="-369" font-family="Times,serif" font-size="14.00" fill="#000000">GO:0008150</text>
<text text-anchor="middle" x="282.9846" y="-352.2" font-family="Times,serif" font-size="14.00" fill="#000000">biological_process</text>
</g>
<!-- GO:0050896&#45;&gt;GO:0008150 -->
<g id="edge5" class="edge">
<title>GO:0050896&#45;&gt;GO:0008150</title>
<path fill="none" stroke="#000000" d="M166.5937,-307.9954C186.546,-317.7331 210.4818,-329.415 231.4451,-339.6461"/>
<polygon fill="#000000" stroke="#000000" points="230.0119,-342.8412 240.5338,-344.0819 233.0821,-336.5504 230.0119,-342.8412"/>
</g>
<!-- GO:0009628&#45;&gt;GO:0050896 -->
<g id="edge6" class="edge">
<title>GO:0009628&#45;&gt;GO:0050896</title>
<path fill="none" stroke="#000000" d="M168.5829,-230.7963C161.4647,-239.7986 153.658,-249.6719 146.5932,-258.6067"/>
<polygon fill="#000000" stroke="#000000" points="143.8117,-256.4815 140.3548,-266.4966 149.3026,-260.8232 143.8117,-256.4815"/>
</g>
<!-- GO:0044699 -->
<g id="node7" class="node">
<title>GO:0044699</title>
<polygon fill="#00ffff" stroke="#000000" points="358.6659,-307.8019 207.3033,-307.8019 207.3033,-266.5981 358.6659,-266.5981 358.6659,-307.8019"/>
<text text-anchor="middle" x="282.9846" y="-291.4" font-family="Times,serif" font-size="14.00" fill="#000000">GO:0044699</text>
<text text-anchor="middle" x="282.9846" y="-274.6" font-family="Times,serif" font-size="14.00" fill="#000000">single&#45;organism process</text>
</g>
<!-- GO:0044699&#45;&gt;GO:0008150 -->
<g id="edge7" class="edge">
<title>GO:0044699&#45;&gt;GO:0008150</title>
<path fill="none" stroke="#000000" d="M282.9846,-307.9954C282.9846,-315.9109 282.9846,-325.1109 282.9846,-333.7722"/>
<polygon fill="#000000" stroke="#000000" points="279.4847,-333.9472 282.9846,-343.9472 286.4847,-333.9473 279.4847,-333.9472"/>
</g>
<!-- GO:0009987 -->
<g id="node8" class="node">
<title>GO:0009987</title>
<polygon fill="#ffff00" stroke="#000000" points="480.9408,-307.8019 377.0284,-307.8019 377.0284,-266.5981 480.9408,-266.5981 480.9408,-307.8019"/>
<text text-anchor="middle" x="428.9846" y="-291.4" font-family="Times,serif" font-size="14.00" fill="#000000">GO:0009987</text>
<text text-anchor="middle" x="428.9846" y="-274.6" font-family="Times,serif" font-size="14.00" fill="#000000">cellular process</text>
</g>
<!-- GO:0009987&#45;&gt;GO:0008150 -->
<g id="edge8" class="edge">
<title>GO:0009987&#45;&gt;GO:0008150</title>
<path fill="none" stroke="#000000" d="M389.8593,-307.9954C371.7026,-317.6458 349.9535,-329.2056 330.8288,-339.3705"/>
<polygon fill="#000000" stroke="#000000" points="329.1521,-336.2979 321.9646,-344.0819 332.4375,-342.4791 329.1521,-336.2979"/>
</g>
</g>
</svg>
