<?xml version="1.0" encoding="UTF-8" standalone="no"?>
<!DOCTYPE svg PUBLIC "-//W3C//DTD SVG 1.1//EN"
 "http://www.w3.org/Graphics/SVG/1.1/DTD/svg11.dtd">
<!-- Generated by graphviz version 2.40.1 (20161225.0304)
 -->
<!-- Title: G Pages: 1 -->
<svg width="562pt" height="316pt"
 viewBox="0.00 0.00 562.16 316.00" xmlns="http://www.w3.org/2000/svg" xmlns:xlink="http://www.w3.org/1999/xlink">
<g id="graph0" class="graph" transform="scale(1 1) rotate(0) translate(4 312)">
<title>G</title>
<polygon fill="#ffffff" stroke="transparent" points="-4,4 -4,-312 558.1568,-312 558.1568,4 -4,4"/>
<!-- GO:0009279 -->
<g id="node1" class="node">
<title>GO:0009279</title>
<polygon fill="#00ffff" stroke="#000000" points="266.342,-49.8019 135.2184,-49.8019 135.2184,-8.5981 266.342,-8.5981 266.342,-49.8019"/>
<text text-anchor="middle" x="200.7802" y="-33.4" font-family="Times,serif" font-size="14.00" fill="#000000">GO:0009279</text>
<text text-anchor="middle" x="200.7802" y="-16.6" font-family="Times,serif" font-size="14.00" fill="#000000">cell outer membrane</text>
</g>
<!-- GO:0044462 -->
<g id="node2" class="node">
<title>GO:0044462</title>
<polygon fill="#ffffff" stroke="#000000" points="141.3413,-153.0014 .2191,-153.0014 .2191,-94.1986 141.3413,-94.1986 141.3413,-153.0014"/>
<text text-anchor="middle" x="70.7802" y="-136.2" font-family="Times,serif" font-size="14.00" fill="#000000">GO:0044462</text>
<text text-anchor="middle" x="70.7802" y="-119.4" font-family="Times,serif" font-size="14.00" fill="#000000">external encapsulating</text>
<text text-anchor="middle" x="70.7802" y="-102.6" font-family="Times,serif" font-size="14.00" fill="#000000">structure part</text>
</g>
<!-- GO:0009279&#45;&gt;GO:0044462 -->
<g id="edge1" class="edge">
<title>GO:0009279&#45;&gt;GO:0044462</title>
<path fill="none" stroke="#000000" d="M172.2511,-49.9165C156.8357,-61.1105 137.3739,-75.2427 119.6272,-88.1296"/>
<polygon fill="#000000" stroke="#000000" points="117.1134,-85.6295 111.0782,-94.3374 121.2265,-91.2937 117.1134,-85.6295"/>
</g>
<!-- GO:0019867 -->
<g id="node3" class="node">
<title>GO:0019867</title>
<polygon fill="#ffffff" stroke="#000000" points="393.6322,-144.2019 285.9282,-144.2019 285.9282,-102.9981 393.6322,-102.9981 393.6322,-144.2019"/>
<text text-anchor="middle" x="339.7802" y="-127.8" font-family="Times,serif" font-size="14.00" fill="#000000">GO:0019867</text>
<text text-anchor="middle" x="339.7802" y="-111" font-family="Times,serif" font-size="14.00" fill="#000000">outer membrane</text>
</g>
<!-- GO:0009279&#45;&gt;GO:0019867 -->
<g id="edge2" class="edge">
<title>GO:0009279&#45;&gt;GO:0019867</title>
<path fill="none" stroke="#000000" d="M231.2843,-49.9165C251.7441,-63.8114 278.8701,-82.2337 300.8801,-97.1815"/>
<polygon fill="#000000" stroke="#000000" points="299.1082,-100.209 309.3472,-102.9318 303.041,-94.4182 299.1082,-100.209"/>
</g>
<!-- GO:0044464 -->
<g id="node4" class="node">
<title>GO:0044464</title>
<polygon fill="#ff0000" stroke="#000000" points="258.3841,-230.2019 169.1763,-230.2019 169.1763,-188.9981 258.3841,-188.9981 258.3841,-230.2019"/>
<text text-anchor="middle" x="213.7802" y="-213.8" font-family="Times,serif" font-size="14.00" fill="#000000">GO:0044464</text>
<text text-anchor="middle" x="213.7802" y="-197" font-family="Times,serif" font-size="14.00" fill="#000000">cell part</text>
</g>
<!-- GO:0044462&#45;&gt;GO:0044464 -->
<g id="edge3" class="edge">
<title>GO:0044462&#45;&gt;GO:0044464</title>
<path fill="none" stroke="#000000" d="M119.5927,-152.9558C136.1136,-162.8914 154.4373,-173.9112 170.4983,-183.5703"/>
<polygon fill="#000000" stroke="#000000" points="168.789,-186.6265 179.1625,-188.7809 172.3966,-180.6277 168.789,-186.6265"/>
</g>
<!-- GO:0016020 -->
<g id="node5" class="node">
<title>GO:0016020</title>
<polygon fill="#ff0000" stroke="#000000" points="384.3841,-230.2019 295.1763,-230.2019 295.1763,-188.9981 384.3841,-188.9981 384.3841,-230.2019"/>
<text text-anchor="middle" x="339.7802" y="-213.8" font-family="Times,serif" font-size="14.00" fill="#000000">GO:0016020</text>
<text text-anchor="middle" x="339.7802" y="-197" font-family="Times,serif" font-size="14.00" fill="#000000">membrane</text>
</g>
<!-- GO:0019867&#45;&gt;GO:0016020 -->
<g id="edge4" class="edge">
<title>GO:0019867&#45;&gt;GO:0016020</title>
<path fill="none" stroke="#000000" d="M339.7802,-144.4182C339.7802,-154.7705 339.7802,-167.4848 339.7802,-178.9271"/>
<polygon fill="#000000" stroke="#000000" points="336.2803,-178.9735 339.7802,-188.9735 343.2803,-178.9735 336.2803,-178.9735"/>
</g>
<!-- GO:0005575 -->
<g id="node6" class="node">
<title>GO:0005575</title>
<polygon fill="#ffffff" stroke="#000000" points="403.4669,-307.8019 276.0935,-307.8019 276.0935,-266.5981 403.4669,-266.5981 403.4669,-307.8019"/>
<text text-anchor="middle" x="339.7802" y="-291.4" font-family="Times,serif" font-size="14.00" fill="#000000">GO:0005575</text>
<text text-anchor="middle" x="339.7802" y="-274.6" font-family="Times,serif" font-size="14.00" fill="#000000">cellular_component</text>
</g>
<!-- GO:0044464&#45;&gt;GO:0005575 -->
<g id="edge5" class="edge">
<title>GO:0044464&#45;&gt;GO:0005575</title>
<path fill="none" stroke="#000000" d="M247.5459,-230.3954C262.7994,-239.7896 280.9907,-250.9931 297.1707,-260.958"/>
<polygon fill="#000000" stroke="#000000" points="295.5712,-264.0833 305.9213,-266.3472 299.242,-258.123 295.5712,-264.0833"/>
</g>
<!-- GO:0016020&#45;&gt;GO:0005575 -->
<g id="edge6" class="edge">
<title>GO:0016020&#45;&gt;GO:0005575</title>
<path fill="none" stroke="#000000" d="M339.7802,-230.3954C339.7802,-238.3109 339.7802,-247.5109 339.7802,-256.1722"/>
<polygon fill="#000000" stroke="#000000" points="336.2803,-256.3472 339.7802,-266.3472 343.2803,-256.3473 336.2803,-256.3472"/>
</g>
<!-- GO:0016021 -->
<g id="node7" class="node">
<title>GO:0016021</title>
<polygon fill="#00ffff" stroke="#000000" points="552.4133,-58.6014 413.1471,-58.6014 413.1471,.2014 552.4133,.2014 552.4133,-58.6014"/>
<text text-anchor="middle" x="482.7802" y="-41.8" font-family="Times,serif" font-size="14.00" fill="#000000">GO:0016021</text>
<text text-anchor="middle" x="482.7802" y="-25" font-family="Times,serif" font-size="14.00" fill="#000000">integral component of</text>
<text text-anchor="middle" x="482.7802" y="-8.2" font-family="Times,serif" font-size="14.00" fill="#000000">membrane</text>
</g>
<!-- GO:0031224 -->
<g id="node8" class="node">
<title>GO:0031224</title>
<polygon fill="#ffffff" stroke="#000000" points="554.0336,-153.0014 411.5268,-153.0014 411.5268,-94.1986 554.0336,-94.1986 554.0336,-153.0014"/>
<text text-anchor="middle" x="482.7802" y="-136.2" font-family="Times,serif" font-size="14.00" fill="#000000">GO:0031224</text>
<text text-anchor="middle" x="482.7802" y="-119.4" font-family="Times,serif" font-size="14.00" fill="#000000">intrinsic component of</text>
<text text-anchor="middle" x="482.7802" y="-102.6" font-family="Times,serif" font-size="14.00" fill="#000000">membrane</text>
</g>
<!-- GO:0016021&#45;&gt;GO:0031224 -->
<g id="edge7" class="edge">
<title>GO:0016021&#45;&gt;GO:0031224</title>
<path fill="none" stroke="#000000" d="M482.7802,-58.5513C482.7802,-66.6318 482.7802,-75.5308 482.7802,-84.0838"/>
<polygon fill="#000000" stroke="#000000" points="479.2803,-84.2668 482.7802,-94.2669 486.2803,-84.2669 479.2803,-84.2668"/>
</g>
<!-- GO:0044425 -->
<g id="node9" class="node">
<title>GO:0044425</title>
<polygon fill="#00ffff" stroke="#000000" points="518.1322,-230.2019 417.4282,-230.2019 417.4282,-188.9981 518.1322,-188.9981 518.1322,-230.2019"/>
<text text-anchor="middle" x="467.7802" y="-213.8" font-family="Times,serif" font-size="14.00" fill="#000000">GO:0044425</text>
<text text-anchor="middle" x="467.7802" y="-197" font-family="Times,serif" font-size="14.00" fill="#000000">membrane part</text>
</g>
<!-- GO:0031224&#45;&gt;GO:0044425 -->
<g id="edge8" class="edge">
<title>GO:0031224&#45;&gt;GO:0044425</title>
<path fill="none" stroke="#000000" d="M477.6181,-153.1963C476.1761,-161.4638 474.6059,-170.4657 473.1521,-178.8008"/>
<polygon fill="#000000" stroke="#000000" points="469.6616,-178.4439 471.3913,-188.8966 476.5575,-179.6467 469.6616,-178.4439"/>
</g>
<!-- GO:0044425&#45;&gt;GO:0005575 -->
<g id="edge9" class="edge">
<title>GO:0044425&#45;&gt;GO:0005575</title>
<path fill="none" stroke="#000000" d="M433.4785,-230.3954C417.983,-239.7896 399.5029,-250.9931 383.066,-260.958"/>
<polygon fill="#000000" stroke="#000000" points="380.9133,-258.17 374.1765,-266.3472 384.5423,-264.1559 380.9133,-258.17"/>
</g>
<!-- GO:0044424 -->
<g id="node10" class="node">
<title>GO:0044424</title>
<polygon fill="#ffa500" stroke="#000000" points="268.1786,-144.2019 159.3818,-144.2019 159.3818,-102.9981 268.1786,-102.9981 268.1786,-144.2019"/>
<text text-anchor="middle" x="213.7802" y="-127.8" font-family="Times,serif" font-size="14.00" fill="#000000">GO:0044424</text>
<text text-anchor="middle" x="213.7802" y="-111" font-family="Times,serif" font-size="14.00" fill="#000000">intracellular part</text>
</g>
<!-- GO:0044424&#45;&gt;GO:0044464 -->
<g id="edge10" class="edge">
<title>GO:0044424&#45;&gt;GO:0044464</title>
<path fill="none" stroke="#000000" d="M213.7802,-144.4182C213.7802,-154.7705 213.7802,-167.4848 213.7802,-178.9271"/>
<polygon fill="#000000" stroke="#000000" points="210.2803,-178.9735 213.7802,-188.9735 217.2803,-178.9735 210.2803,-178.9735"/>
</g>
</g>
</svg>
