<?xml version="1.0" encoding="UTF-8" standalone="no"?>
<!DOCTYPE svg PUBLIC "-//W3C//DTD SVG 1.1//EN"
 "http://www.w3.org/Graphics/SVG/1.1/DTD/svg11.dtd">
<!-- Generated by graphviz version 2.40.1 (20161225.0304)
 -->
<!-- Title: G Pages: 1 -->
<svg width="275pt" height="222pt"
 viewBox="0.00 0.00 274.94 221.60" xmlns="http://www.w3.org/2000/svg" xmlns:xlink="http://www.w3.org/1999/xlink">
<g id="graph0" class="graph" transform="scale(1 1) rotate(0) translate(4 217.6)">
<title>G</title>
<polygon fill="#ffffff" stroke="transparent" points="-4,4 -4,-217.6 270.944,-217.6 270.944,4 -4,4"/>
<!-- GO:0060089 -->
<g id="node1" class="node">
<title>GO:0060089</title>
<polygon fill="#ffffff" stroke="#000000" points="133.6648,-136.2014 .1116,-136.2014 .1116,-77.3986 133.6648,-77.3986 133.6648,-136.2014"/>
<text text-anchor="middle" x="66.8882" y="-119.4" font-family="Times,serif" font-size="14.00" fill="#000000">GO:0060089</text>
<text text-anchor="middle" x="66.8882" y="-102.6" font-family="Times,serif" font-size="14.00" fill="#000000">molecular transducer</text>
<text text-anchor="middle" x="66.8882" y="-85.8" font-family="Times,serif" font-size="14.00" fill="#000000">activity</text>
</g>
<!-- GO:0003674 -->
<g id="node2" class="node">
<title>GO:0003674</title>
<polygon fill="#ffffff" stroke="#000000" points="198.5213,-213.4019 73.2551,-213.4019 73.2551,-172.1981 198.5213,-172.1981 198.5213,-213.4019"/>
<text text-anchor="middle" x="135.8882" y="-197" font-family="Times,serif" font-size="14.00" fill="#000000">GO:0003674</text>
<text text-anchor="middle" x="135.8882" y="-180.2" font-family="Times,serif" font-size="14.00" fill="#000000">molecular_function</text>
</g>
<!-- GO:0060089&#45;&gt;GO:0003674 -->
<g id="edge1" class="edge">
<title>GO:0060089&#45;&gt;GO:0003674</title>
<path fill="none" stroke="#000000" d="M90.6341,-136.3963C97.8569,-145.3986 105.7784,-155.2719 112.9471,-164.2067"/>
<polygon fill="#000000" stroke="#000000" points="110.2893,-166.487 119.2773,-172.0966 115.7492,-162.1064 110.2893,-166.487"/>
</g>
<!-- GO:0003824 -->
<g id="node3" class="node">
<title>GO:0003824</title>
<polygon fill="#ff00ff" stroke="#000000" points="260.3006,-127.4019 151.4758,-127.4019 151.4758,-86.1981 260.3006,-86.1981 260.3006,-127.4019"/>
<text text-anchor="middle" x="205.8882" y="-111" font-family="Times,serif" font-size="14.00" fill="#000000">GO:0003824</text>
<text text-anchor="middle" x="205.8882" y="-94.2" font-family="Times,serif" font-size="14.00" fill="#000000">catalytic activity</text>
</g>
<!-- GO:0003824&#45;&gt;GO:0003674 -->
<g id="edge2" class="edge">
<title>GO:0003824&#45;&gt;GO:0003674</title>
<path fill="none" stroke="#000000" d="M188.9432,-127.6182C180.001,-138.6043 168.8936,-152.2506 159.1562,-164.2137"/>
<polygon fill="#000000" stroke="#000000" points="156.2755,-162.2084 152.6772,-172.1735 161.7044,-166.6273 156.2755,-162.2084"/>
</g>
<!-- GO:0016740 -->
<g id="node4" class="node">
<title>GO:0016740</title>
<polygon fill="#ffffff" stroke="#000000" points="266.9999,-41.4019 144.7765,-41.4019 144.7765,-.1981 266.9999,-.1981 266.9999,-41.4019"/>
<text text-anchor="middle" x="205.8882" y="-25" font-family="Times,serif" font-size="14.00" fill="#000000">GO:0016740</text>
<text text-anchor="middle" x="205.8882" y="-8.2" font-family="Times,serif" font-size="14.00" fill="#000000">transferase activity</text>
</g>
<!-- GO:0016740&#45;&gt;GO:0003824 -->
<g id="edge3" class="edge">
<title>GO:0016740&#45;&gt;GO:0003824</title>
<path fill="none" stroke="#000000" d="M205.8882,-41.6182C205.8882,-51.9705 205.8882,-64.6848 205.8882,-76.1271"/>
<polygon fill="#000000" stroke="#000000" points="202.3883,-76.1735 205.8882,-86.1735 209.3883,-76.1735 202.3883,-76.1735"/>
</g>
</g>
</svg>
