<?xml version="1.0" encoding="UTF-8" standalone="no"?>
<!DOCTYPE svg PUBLIC "-//W3C//DTD SVG 1.1//EN"
 "http://www.w3.org/Graphics/SVG/1.1/DTD/svg11.dtd">
<!-- Generated by graphviz version 2.40.1 (20161225.0304)
 -->
<!-- Title: G Pages: 1 -->
<svg width="1066pt" height="350pt"
 viewBox="0.00 0.00 1065.96 349.60" xmlns="http://www.w3.org/2000/svg" xmlns:xlink="http://www.w3.org/1999/xlink">
<g id="graph0" class="graph" transform="scale(1 1) rotate(0) translate(4 345.6)">
<title>G</title>
<polygon fill="#ffffff" stroke="transparent" points="-4,4 -4,-345.6 1061.958,-345.6 1061.958,4 -4,4"/>
<!-- GO:0050789 -->
<g id="node1" class="node">
<title>GO:0050789</title>
<polygon fill="#00ffff" stroke="#000000" points="147.6213,-255.8014 -.2075,-255.8014 -.2075,-196.9986 147.6213,-196.9986 147.6213,-255.8014"/>
<text text-anchor="middle" x="73.7069" y="-239" font-family="Times,serif" font-size="14.00" fill="#000000">GO:0050789</text>
<text text-anchor="middle" x="73.7069" y="-222.2" font-family="Times,serif" font-size="14.00" fill="#000000">regulation of biological</text>
<text text-anchor="middle" x="73.7069" y="-205.4" font-family="Times,serif" font-size="14.00" fill="#000000">process</text>
</g>
<!-- GO:0008150 -->
<g id="node2" class="node">
<title>GO:0008150</title>
<polygon fill="#ffffff" stroke="#000000" points="504.1775,-341.4019 383.2363,-341.4019 383.2363,-300.1981 504.1775,-300.1981 504.1775,-341.4019"/>
<text text-anchor="middle" x="443.7069" y="-325" font-family="Times,serif" font-size="14.00" fill="#000000">GO:0008150</text>
<text text-anchor="middle" x="443.7069" y="-308.2" font-family="Times,serif" font-size="14.00" fill="#000000">biological_process</text>
</g>
<!-- GO:0050789&#45;&gt;GO:0008150 -->
<g id="edge1" class="edge">
<title>GO:0050789&#45;&gt;GO:0008150</title>
<path fill="none" stroke="#000000" d="M134.2706,-255.7512C141.7294,-258.794 149.3258,-261.6326 156.7069,-264 228.8317,-287.133 314.3143,-302.5889 373.1191,-311.4622"/>
<polygon fill="#000000" stroke="#000000" points="372.6437,-314.9299 383.0493,-312.9363 373.6716,-308.0058 372.6437,-314.9299"/>
</g>
<!-- GO:0016043 -->
<g id="node3" class="node">
<title>GO:0016043</title>
<polygon fill="#00ff00" stroke="#000000" points="435.3939,-153.0014 312.0199,-153.0014 312.0199,-94.1986 435.3939,-94.1986 435.3939,-153.0014"/>
<text text-anchor="middle" x="373.7069" y="-136.2" font-family="Times,serif" font-size="14.00" fill="#000000">GO:0016043</text>
<text text-anchor="middle" x="373.7069" y="-119.4" font-family="Times,serif" font-size="14.00" fill="#000000">cellular component</text>
<text text-anchor="middle" x="373.7069" y="-102.6" font-family="Times,serif" font-size="14.00" fill="#000000">organization</text>
</g>
<!-- GO:0009987 -->
<g id="node4" class="node">
<title>GO:0009987</title>
<polygon fill="#ff0000" stroke="#000000" points="561.6631,-247.0019 457.7507,-247.0019 457.7507,-205.7981 561.6631,-205.7981 561.6631,-247.0019"/>
<text text-anchor="middle" x="509.7069" y="-230.6" font-family="Times,serif" font-size="14.00" fill="#000000">GO:0009987</text>
<text text-anchor="middle" x="509.7069" y="-213.8" font-family="Times,serif" font-size="14.00" fill="#000000">cellular process</text>
</g>
<!-- GO:0016043&#45;&gt;GO:0009987 -->
<g id="edge2" class="edge">
<title>GO:0016043&#45;&gt;GO:0009987</title>
<path fill="none" stroke="#000000" d="M412.679,-153.0584C432.0971,-167.7362 455.403,-185.3527 474.3062,-199.6412"/>
<polygon fill="#000000" stroke="#000000" points="472.2941,-202.5077 482.3821,-205.7456 476.5151,-196.9235 472.2941,-202.5077"/>
</g>
<!-- GO:0071840 -->
<g id="node5" class="node">
<title>GO:0071840</title>
<polygon fill="#ffffff" stroke="#000000" points="439.3939,-264.1003 316.0199,-264.1003 316.0199,-188.6997 439.3939,-188.6997 439.3939,-264.1003"/>
<text text-anchor="middle" x="377.7069" y="-247.4" font-family="Times,serif" font-size="14.00" fill="#000000">GO:0071840</text>
<text text-anchor="middle" x="377.7069" y="-230.6" font-family="Times,serif" font-size="14.00" fill="#000000">cellular component</text>
<text text-anchor="middle" x="377.7069" y="-213.8" font-family="Times,serif" font-size="14.00" fill="#000000">organization or</text>
<text text-anchor="middle" x="377.7069" y="-197" font-family="Times,serif" font-size="14.00" fill="#000000">biogenesis</text>
</g>
<!-- GO:0016043&#45;&gt;GO:0071840 -->
<g id="edge3" class="edge">
<title>GO:0016043&#45;&gt;GO:0071840</title>
<path fill="none" stroke="#000000" d="M374.8531,-153.0584C375.1618,-160.9901 375.5038,-169.78 375.8407,-178.4392"/>
<polygon fill="#000000" stroke="#000000" points="372.3453,-178.6286 376.2316,-188.485 379.3401,-178.3564 372.3453,-178.6286"/>
</g>
<!-- GO:0009987&#45;&gt;GO:0008150 -->
<g id="edge4" class="edge">
<title>GO:0009987&#45;&gt;GO:0008150</title>
<path fill="none" stroke="#000000" d="M495.0594,-247.3504C486.0019,-260.3054 474.2398,-277.1287 464.2583,-291.4053"/>
<polygon fill="#000000" stroke="#000000" points="461.175,-289.707 458.3135,-299.9081 466.912,-293.718 461.175,-289.707"/>
</g>
<!-- GO:0071840&#45;&gt;GO:0008150 -->
<g id="edge5" class="edge">
<title>GO:0071840&#45;&gt;GO:0008150</title>
<path fill="none" stroke="#000000" d="M404.1713,-264.2522C410.5728,-273.4082 417.3161,-283.0532 423.3848,-291.7333"/>
<polygon fill="#000000" stroke="#000000" points="420.5926,-293.8478 429.191,-300.0379 426.3295,-289.8368 420.5926,-293.8478"/>
</g>
<!-- GO:0065007 -->
<g id="node6" class="node">
<title>GO:0065007</title>
<polygon fill="#00ffff" stroke="#000000" points="297.9603,-247.0019 165.4535,-247.0019 165.4535,-205.7981 297.9603,-205.7981 297.9603,-247.0019"/>
<text text-anchor="middle" x="231.7069" y="-230.6" font-family="Times,serif" font-size="14.00" fill="#000000">GO:0065007</text>
<text text-anchor="middle" x="231.7069" y="-213.8" font-family="Times,serif" font-size="14.00" fill="#000000">biological regulation</text>
</g>
<!-- GO:0065007&#45;&gt;GO:0008150 -->
<g id="edge6" class="edge">
<title>GO:0065007&#45;&gt;GO:0008150</title>
<path fill="none" stroke="#000000" d="M271.5411,-247.0344C282.8291,-252.7 295.1825,-258.7304 306.7069,-264 330.9919,-275.1044 358.085,-286.5338 381.7253,-296.2023"/>
<polygon fill="#000000" stroke="#000000" points="380.7019,-299.5645 391.2836,-300.0929 383.341,-293.081 380.7019,-299.5645"/>
</g>
<!-- GO:0050794 -->
<g id="node7" class="node">
<title>GO:0050794</title>
<polygon fill="#00ffff" stroke="#000000" points="218.6059,-153.0014 84.8079,-153.0014 84.8079,-94.1986 218.6059,-94.1986 218.6059,-153.0014"/>
<text text-anchor="middle" x="151.7069" y="-136.2" font-family="Times,serif" font-size="14.00" fill="#000000">GO:0050794</text>
<text text-anchor="middle" x="151.7069" y="-119.4" font-family="Times,serif" font-size="14.00" fill="#000000">regulation of cellular</text>
<text text-anchor="middle" x="151.7069" y="-102.6" font-family="Times,serif" font-size="14.00" fill="#000000">process</text>
</g>
<!-- GO:0050794&#45;&gt;GO:0050789 -->
<g id="edge8" class="edge">
<title>GO:0050794&#45;&gt;GO:0050789</title>
<path fill="none" stroke="#000000" d="M129.3552,-153.0584C120.8695,-164.2421 111.0892,-177.1321 102.1177,-188.956"/>
<polygon fill="#000000" stroke="#000000" points="99.3182,-186.8553 96.0618,-196.9373 104.8947,-191.0865 99.3182,-186.8553"/>
</g>
<!-- GO:0050794&#45;&gt;GO:0065007 -->
<g id="edge7" class="edge">
<title>GO:0050794&#45;&gt;GO:0065007</title>
<path fill="none" stroke="#000000" d="M174.6317,-153.0584C185.4907,-167.0121 198.4165,-183.6219 209.2191,-197.5032"/>
<polygon fill="#000000" stroke="#000000" points="206.7297,-200.0033 215.6335,-205.7456 212.2541,-195.7042 206.7297,-200.0033"/>
</g>
<!-- GO:0008152 -->
<g id="node8" class="node">
<title>GO:0008152</title>
<polygon fill="#00ff00" stroke="#000000" points="871.8925,-247.0019 755.5213,-247.0019 755.5213,-205.7981 871.8925,-205.7981 871.8925,-247.0019"/>
<text text-anchor="middle" x="813.7069" y="-230.6" font-family="Times,serif" font-size="14.00" fill="#000000">GO:0008152</text>
<text text-anchor="middle" x="813.7069" y="-213.8" font-family="Times,serif" font-size="14.00" fill="#000000">metabolic process</text>
</g>
<!-- GO:0008152&#45;&gt;GO:0008150 -->
<g id="edge9" class="edge">
<title>GO:0008152&#45;&gt;GO:0008150</title>
<path fill="none" stroke="#000000" d="M778.5952,-247.067C766.8626,-253.2651 753.5092,-259.582 740.7069,-264 665.4938,-289.9555 575.2369,-305.0867 514.1125,-313.1127"/>
<polygon fill="#000000" stroke="#000000" points="513.6554,-309.6426 504.1826,-314.3877 514.5469,-316.5856 513.6554,-309.6426"/>
</g>
<!-- GO:0044699 -->
<g id="node9" class="node">
<title>GO:0044699</title>
<polygon fill="#ffff00" stroke="#000000" points="731.3882,-247.0019 580.0256,-247.0019 580.0256,-205.7981 731.3882,-205.7981 731.3882,-247.0019"/>
<text text-anchor="middle" x="655.7069" y="-230.6" font-family="Times,serif" font-size="14.00" fill="#000000">GO:0044699</text>
<text text-anchor="middle" x="655.7069" y="-213.8" font-family="Times,serif" font-size="14.00" fill="#000000">single&#45;organism process</text>
</g>
<!-- GO:0044699&#45;&gt;GO:0008150 -->
<g id="edge10" class="edge">
<title>GO:0044699&#45;&gt;GO:0008150</title>
<path fill="none" stroke="#000000" d="M609.1826,-247.1165C576.8733,-261.5033 533.6641,-280.7436 499.5017,-295.9555"/>
<polygon fill="#000000" stroke="#000000" points="497.8342,-292.8667 490.1227,-300.1318 500.6817,-299.2614 497.8342,-292.8667"/>
</g>
<!-- GO:0043170 -->
<g id="node10" class="node">
<title>GO:0043170</title>
<polygon fill="#ff00ff" stroke="#000000" points="897.2091,-58.6014 736.2047,-58.6014 736.2047,.2014 897.2091,.2014 897.2091,-58.6014"/>
<text text-anchor="middle" x="816.7069" y="-41.8" font-family="Times,serif" font-size="14.00" fill="#000000">GO:0043170</text>
<text text-anchor="middle" x="816.7069" y="-25" font-family="Times,serif" font-size="14.00" fill="#000000">macromolecule metabolic</text>
<text text-anchor="middle" x="816.7069" y="-8.2" font-family="Times,serif" font-size="14.00" fill="#000000">process</text>
</g>
<!-- GO:0071704 -->
<g id="node11" class="node">
<title>GO:0071704</title>
<polygon fill="#00ff00" stroke="#000000" points="874.8925,-153.0014 758.5213,-153.0014 758.5213,-94.1986 874.8925,-94.1986 874.8925,-153.0014"/>
<text text-anchor="middle" x="816.7069" y="-136.2" font-family="Times,serif" font-size="14.00" fill="#000000">GO:0071704</text>
<text text-anchor="middle" x="816.7069" y="-119.4" font-family="Times,serif" font-size="14.00" fill="#000000">organic substance</text>
<text text-anchor="middle" x="816.7069" y="-102.6" font-family="Times,serif" font-size="14.00" fill="#000000">metabolic process</text>
</g>
<!-- GO:0043170&#45;&gt;GO:0071704 -->
<g id="edge11" class="edge">
<title>GO:0043170&#45;&gt;GO:0071704</title>
<path fill="none" stroke="#000000" d="M816.7069,-58.5513C816.7069,-66.6318 816.7069,-75.5308 816.7069,-84.0838"/>
<polygon fill="#000000" stroke="#000000" points="813.207,-84.2668 816.7069,-94.2669 820.207,-84.2669 813.207,-84.2668"/>
</g>
<!-- GO:0071704&#45;&gt;GO:0008152 -->
<g id="edge12" class="edge">
<title>GO:0071704&#45;&gt;GO:0008152</title>
<path fill="none" stroke="#000000" d="M815.8472,-153.0584C815.4592,-166.3539 815.0008,-182.0608 814.608,-195.5212"/>
<polygon fill="#000000" stroke="#000000" points="811.1029,-195.6478 814.3097,-205.7456 818.1,-195.852 811.1029,-195.6478"/>
</g>
<!-- GO:0044763 -->
<g id="node12" class="node">
<title>GO:0044763</title>
<polygon fill="#ffff00" stroke="#000000" points="605.3854,-153.0014 454.0284,-153.0014 454.0284,-94.1986 605.3854,-94.1986 605.3854,-153.0014"/>
<text text-anchor="middle" x="529.7069" y="-136.2" font-family="Times,serif" font-size="14.00" fill="#000000">GO:0044763</text>
<text text-anchor="middle" x="529.7069" y="-119.4" font-family="Times,serif" font-size="14.00" fill="#000000">single&#45;organism cellular</text>
<text text-anchor="middle" x="529.7069" y="-102.6" font-family="Times,serif" font-size="14.00" fill="#000000">process</text>
</g>
<!-- GO:0044763&#45;&gt;GO:0009987 -->
<g id="edge13" class="edge">
<title>GO:0044763&#45;&gt;GO:0009987</title>
<path fill="none" stroke="#000000" d="M523.9757,-153.0584C521.3634,-166.4856 518.2726,-182.3721 515.6368,-195.9204"/>
<polygon fill="#000000" stroke="#000000" points="512.1995,-195.2612 513.7253,-205.7456 519.0706,-196.5981 512.1995,-195.2612"/>
</g>
<!-- GO:0044763&#45;&gt;GO:0044699 -->
<g id="edge14" class="edge">
<title>GO:0044763&#45;&gt;GO:0044699</title>
<path fill="none" stroke="#000000" d="M565.8134,-153.0584C583.5617,-167.5387 604.8157,-184.8792 622.2002,-199.0628"/>
<polygon fill="#000000" stroke="#000000" points="620.4303,-202.1359 630.3912,-205.7456 624.8555,-196.712 620.4303,-202.1359"/>
</g>
<!-- GO:0044238 -->
<g id="node13" class="node">
<title>GO:0044238</title>
<polygon fill="#00ffff" stroke="#000000" points="1057.7099,-144.2019 893.7039,-144.2019 893.7039,-102.9981 1057.7099,-102.9981 1057.7099,-144.2019"/>
<text text-anchor="middle" x="975.7069" y="-127.8" font-family="Times,serif" font-size="14.00" fill="#000000">GO:0044238</text>
<text text-anchor="middle" x="975.7069" y="-111" font-family="Times,serif" font-size="14.00" fill="#000000">primary metabolic process</text>
</g>
<!-- GO:0044238&#45;&gt;GO:0008152 -->
<g id="edge15" class="edge">
<title>GO:0044238&#45;&gt;GO:0008152</title>
<path fill="none" stroke="#000000" d="M942.9238,-144.4031C917.5623,-160.4967 882.2853,-182.8824 854.9975,-200.1983"/>
<polygon fill="#000000" stroke="#000000" points="853.0095,-197.3146 846.4413,-205.6278 856.7601,-203.225 853.0095,-197.3146"/>
</g>
<!-- GO:0044237 -->
<g id="node14" class="node">
<title>GO:0044237</title>
<polygon fill="#00ffff" stroke="#000000" points="739.8897,-153.0014 623.5241,-153.0014 623.5241,-94.1986 739.8897,-94.1986 739.8897,-153.0014"/>
<text text-anchor="middle" x="681.7069" y="-136.2" font-family="Times,serif" font-size="14.00" fill="#000000">GO:0044237</text>
<text text-anchor="middle" x="681.7069" y="-119.4" font-family="Times,serif" font-size="14.00" fill="#000000">cellular metabolic</text>
<text text-anchor="middle" x="681.7069" y="-102.6" font-family="Times,serif" font-size="14.00" fill="#000000">process</text>
</g>
<!-- GO:0044237&#45;&gt;GO:0009987 -->
<g id="edge16" class="edge">
<title>GO:0044237&#45;&gt;GO:0009987</title>
<path fill="none" stroke="#000000" d="M631.2894,-152.91C612.2516,-164.0574 590.4306,-176.9303 570.7069,-188.8 564.4779,-192.5486 557.9142,-196.545 551.4931,-200.4808"/>
<polygon fill="#000000" stroke="#000000" points="549.5566,-197.5628 542.8703,-205.7813 553.2223,-203.5262 549.5566,-197.5628"/>
</g>
<!-- GO:0044237&#45;&gt;GO:0008152 -->
<g id="edge17" class="edge">
<title>GO:0044237&#45;&gt;GO:0008152</title>
<path fill="none" stroke="#000000" d="M719.5328,-153.0584C738.2953,-167.6703 760.7974,-185.1947 779.1003,-199.4488"/>
<polygon fill="#000000" stroke="#000000" points="777.1455,-202.3626 787.1857,-205.7456 781.4466,-196.8398 777.1455,-202.3626"/>
</g>
</g>
</svg>
