<?xml version="1.0" encoding="UTF-8" standalone="no"?>
<!DOCTYPE svg PUBLIC "-//W3C//DTD SVG 1.1//EN"
 "http://www.w3.org/Graphics/SVG/1.1/DTD/svg11.dtd">
<!-- Generated by graphviz version 2.40.1 (20161225.0304)
 -->
<!-- Title: G Pages: 1 -->
<svg width="441pt" height="377pt"
 viewBox="0.00 0.00 440.75 376.80" xmlns="http://www.w3.org/2000/svg" xmlns:xlink="http://www.w3.org/1999/xlink">
<g id="graph0" class="graph" transform="scale(1 1) rotate(0) translate(4 372.8)">
<title>G</title>
<polygon fill="#ffffff" stroke="transparent" points="-4,4 -4,-372.8 436.7511,-372.8 436.7511,4 -4,4"/>
<!-- GO:0003676 -->
<g id="node1" class="node">
<title>GO:0003676</title>
<polygon fill="#ffffff" stroke="#000000" points="338.7727,-119.0019 209.7189,-119.0019 209.7189,-77.7981 338.7727,-77.7981 338.7727,-119.0019"/>
<text text-anchor="middle" x="274.2458" y="-102.6" font-family="Times,serif" font-size="14.00" fill="#000000">GO:0003676</text>
<text text-anchor="middle" x="274.2458" y="-85.8" font-family="Times,serif" font-size="14.00" fill="#000000">nucleic acid binding</text>
</g>
<!-- GO:0097159 -->
<g id="node2" class="node">
<title>GO:0097159</title>
<polygon fill="#ff00ff" stroke="#000000" points="267.7572,-213.8014 110.7344,-213.8014 110.7344,-154.9986 267.7572,-154.9986 267.7572,-213.8014"/>
<text text-anchor="middle" x="189.2458" y="-197" font-family="Times,serif" font-size="14.00" fill="#000000">GO:0097159</text>
<text text-anchor="middle" x="189.2458" y="-180.2" font-family="Times,serif" font-size="14.00" fill="#000000">organic cyclic compound</text>
<text text-anchor="middle" x="189.2458" y="-163.4" font-family="Times,serif" font-size="14.00" fill="#000000">binding</text>
</g>
<!-- GO:0003676&#45;&gt;GO:0097159 -->
<g id="edge1" class="edge">
<title>GO:0003676&#45;&gt;GO:0097159</title>
<path fill="none" stroke="#000000" d="M253.6697,-119.2182C245.2127,-127.7747 235.1608,-137.9448 225.5422,-147.6766"/>
<polygon fill="#000000" stroke="#000000" points="222.8451,-145.4264 218.3048,-154.9991 227.8237,-150.3472 222.8451,-145.4264"/>
</g>
<!-- GO:1901363 -->
<g id="node3" class="node">
<title>GO:1901363</title>
<polygon fill="#ff00ff" stroke="#000000" points="432.7564,-213.8014 285.7352,-213.8014 285.7352,-154.9986 432.7564,-154.9986 432.7564,-213.8014"/>
<text text-anchor="middle" x="359.2458" y="-197" font-family="Times,serif" font-size="14.00" fill="#000000">GO:1901363</text>
<text text-anchor="middle" x="359.2458" y="-180.2" font-family="Times,serif" font-size="14.00" fill="#000000">heterocyclic compound</text>
<text text-anchor="middle" x="359.2458" y="-163.4" font-family="Times,serif" font-size="14.00" fill="#000000">binding</text>
</g>
<!-- GO:0003676&#45;&gt;GO:1901363 -->
<g id="edge2" class="edge">
<title>GO:0003676&#45;&gt;GO:1901363</title>
<path fill="none" stroke="#000000" d="M294.8219,-119.2182C303.2789,-127.7747 313.3308,-137.9448 322.9494,-147.6766"/>
<polygon fill="#000000" stroke="#000000" points="320.6679,-150.3472 330.1868,-154.9991 325.6465,-145.4264 320.6679,-150.3472"/>
</g>
<!-- GO:0005488 -->
<g id="node4" class="node">
<title>GO:0005488</title>
<polygon fill="#ffffff" stroke="#000000" points="233.8497,-291.0019 144.6419,-291.0019 144.6419,-249.7981 233.8497,-249.7981 233.8497,-291.0019"/>
<text text-anchor="middle" x="189.2458" y="-274.6" font-family="Times,serif" font-size="14.00" fill="#000000">GO:0005488</text>
<text text-anchor="middle" x="189.2458" y="-257.8" font-family="Times,serif" font-size="14.00" fill="#000000">binding</text>
</g>
<!-- GO:0097159&#45;&gt;GO:0005488 -->
<g id="edge3" class="edge">
<title>GO:0097159&#45;&gt;GO:0005488</title>
<path fill="none" stroke="#000000" d="M189.2458,-213.9963C189.2458,-222.2638 189.2458,-231.2657 189.2458,-239.6008"/>
<polygon fill="#000000" stroke="#000000" points="185.7459,-239.6965 189.2458,-249.6966 192.7459,-239.6966 185.7459,-239.6965"/>
</g>
<!-- GO:1901363&#45;&gt;GO:0005488 -->
<g id="edge4" class="edge">
<title>GO:1901363&#45;&gt;GO:0005488</title>
<path fill="none" stroke="#000000" d="M301.2169,-213.7558C281.0391,-223.9634 258.5991,-235.3154 239.1379,-245.1605"/>
<polygon fill="#000000" stroke="#000000" points="237.4798,-242.0768 230.1366,-249.7141 240.6397,-248.3231 237.4798,-242.0768"/>
</g>
<!-- GO:0003674 -->
<g id="node5" class="node">
<title>GO:0003674</title>
<polygon fill="#ffffff" stroke="#000000" points="192.8789,-368.6019 67.6127,-368.6019 67.6127,-327.3981 192.8789,-327.3981 192.8789,-368.6019"/>
<text text-anchor="middle" x="130.2458" y="-352.2" font-family="Times,serif" font-size="14.00" fill="#000000">GO:0003674</text>
<text text-anchor="middle" x="130.2458" y="-335.4" font-family="Times,serif" font-size="14.00" fill="#000000">molecular_function</text>
</g>
<!-- GO:0005488&#45;&gt;GO:0003674 -->
<g id="edge5" class="edge">
<title>GO:0005488&#45;&gt;GO:0003674</title>
<path fill="none" stroke="#000000" d="M173.4349,-291.1954C166.9537,-299.7197 159.3399,-309.7339 152.3248,-318.9605"/>
<polygon fill="#000000" stroke="#000000" points="149.3666,-317.0684 146.1004,-327.1472 154.939,-321.3051 149.3666,-317.0684"/>
</g>
<!-- GO:0043169 -->
<g id="node6" class="node">
<title>GO:0043169</title>
<polygon fill="#ffffff" stroke="#000000" points="96.7387,-119.0019 -.2471,-119.0019 -.2471,-77.7981 96.7387,-77.7981 96.7387,-119.0019"/>
<text text-anchor="middle" x="48.2458" y="-102.6" font-family="Times,serif" font-size="14.00" fill="#000000">GO:0043169</text>
<text text-anchor="middle" x="48.2458" y="-85.8" font-family="Times,serif" font-size="14.00" fill="#000000">cation binding</text>
</g>
<!-- GO:0043167 -->
<g id="node7" class="node">
<title>GO:0043167</title>
<polygon fill="#ffffff" stroke="#000000" points="92.8497,-205.0019 3.6419,-205.0019 3.6419,-163.7981 92.8497,-163.7981 92.8497,-205.0019"/>
<text text-anchor="middle" x="48.2458" y="-188.6" font-family="Times,serif" font-size="14.00" fill="#000000">GO:0043167</text>
<text text-anchor="middle" x="48.2458" y="-171.8" font-family="Times,serif" font-size="14.00" fill="#000000">ion binding</text>
</g>
<!-- GO:0043169&#45;&gt;GO:0043167 -->
<g id="edge6" class="edge">
<title>GO:0043169&#45;&gt;GO:0043167</title>
<path fill="none" stroke="#000000" d="M48.2458,-119.2182C48.2458,-129.5705 48.2458,-142.2848 48.2458,-153.7271"/>
<polygon fill="#000000" stroke="#000000" points="44.7459,-153.7735 48.2458,-163.7735 51.7459,-153.7735 44.7459,-153.7735"/>
</g>
<!-- GO:0043167&#45;&gt;GO:0005488 -->
<g id="edge7" class="edge">
<title>GO:0043167&#45;&gt;GO:0005488</title>
<path fill="none" stroke="#000000" d="M82.378,-205.2182C101.7756,-217.0494 126.2315,-231.9657 146.8515,-244.5425"/>
<polygon fill="#000000" stroke="#000000" points="145.0681,-247.5544 155.428,-249.7735 148.7132,-241.5783 145.0681,-247.5544"/>
</g>
<!-- GO:0003824 -->
<g id="node8" class="node">
<title>GO:0003824</title>
<polygon fill="#ffffff" stroke="#000000" points="126.6582,-291.0019 17.8334,-291.0019 17.8334,-249.7981 126.6582,-249.7981 126.6582,-291.0019"/>
<text text-anchor="middle" x="72.2458" y="-274.6" font-family="Times,serif" font-size="14.00" fill="#000000">GO:0003824</text>
<text text-anchor="middle" x="72.2458" y="-257.8" font-family="Times,serif" font-size="14.00" fill="#000000">catalytic activity</text>
</g>
<!-- GO:0003824&#45;&gt;GO:0003674 -->
<g id="edge8" class="edge">
<title>GO:0003824&#45;&gt;GO:0003674</title>
<path fill="none" stroke="#000000" d="M87.7887,-291.1954C94.16,-299.7197 101.6449,-309.7339 108.541,-318.9605"/>
<polygon fill="#000000" stroke="#000000" points="105.8697,-321.2327 114.66,-327.1472 111.4766,-317.0419 105.8697,-321.2327"/>
</g>
<!-- GO:0003723 -->
<g id="node9" class="node">
<title>GO:0003723</title>
<polygon fill="#ffffff" stroke="#000000" points="320.077,-41.4019 228.4146,-41.4019 228.4146,-.1981 320.077,-.1981 320.077,-41.4019"/>
<text text-anchor="middle" x="274.2458" y="-25" font-family="Times,serif" font-size="14.00" fill="#000000">GO:0003723</text>
<text text-anchor="middle" x="274.2458" y="-8.2" font-family="Times,serif" font-size="14.00" fill="#000000">RNA binding</text>
</g>
<!-- GO:0003723&#45;&gt;GO:0003676 -->
<g id="edge9" class="edge">
<title>GO:0003723&#45;&gt;GO:0003676</title>
<path fill="none" stroke="#000000" d="M274.2458,-41.5954C274.2458,-49.5109 274.2458,-58.7109 274.2458,-67.3722"/>
<polygon fill="#000000" stroke="#000000" points="270.7459,-67.5472 274.2458,-77.5472 277.7459,-67.5473 270.7459,-67.5472"/>
</g>
</g>
</svg>
