<?xml version="1.0" encoding="UTF-8" standalone="no"?>
<!DOCTYPE svg PUBLIC "-//W3C//DTD SVG 1.1//EN"
 "http://www.w3.org/Graphics/SVG/1.1/DTD/svg11.dtd">
<!-- Generated by graphviz version 2.40.1 (20161225.0304)
 -->
<!-- Title: G Pages: 1 -->
<svg width="528pt" height="282pt"
 viewBox="0.00 0.00 527.89 282.40" xmlns="http://www.w3.org/2000/svg" xmlns:xlink="http://www.w3.org/1999/xlink">
<g id="graph0" class="graph" transform="scale(1 1) rotate(0) translate(4 278.4)">
<title>G</title>
<polygon fill="#ffffff" stroke="transparent" points="-4,4 -4,-278.4 523.8854,-278.4 523.8854,4 -4,4"/>
<!-- GO:0043229 -->
<g id="node1" class="node">
<title>GO:0043229</title>
<polygon fill="#00ffff" stroke="#000000" points="373.2703,-41.4019 233.8335,-41.4019 233.8335,-.1981 373.2703,-.1981 373.2703,-41.4019"/>
<text text-anchor="middle" x="303.5519" y="-25" font-family="Times,serif" font-size="14.00" fill="#000000">GO:0043229</text>
<text text-anchor="middle" x="303.5519" y="-8.2" font-family="Times,serif" font-size="14.00" fill="#000000">intracellular organelle</text>
</g>
<!-- GO:0044424 -->
<g id="node2" class="node">
<title>GO:0044424</title>
<polygon fill="#ff0000" stroke="#000000" points="232.9503,-119.0019 124.1535,-119.0019 124.1535,-77.7981 232.9503,-77.7981 232.9503,-119.0019"/>
<text text-anchor="middle" x="178.5519" y="-102.6" font-family="Times,serif" font-size="14.00" fill="#000000">GO:0044424</text>
<text text-anchor="middle" x="178.5519" y="-85.8" font-family="Times,serif" font-size="14.00" fill="#000000">intracellular part</text>
</g>
<!-- GO:0043229&#45;&gt;GO:0044424 -->
<g id="edge1" class="edge">
<title>GO:0043229&#45;&gt;GO:0044424</title>
<path fill="none" stroke="#000000" d="M270.0542,-41.5954C254.9218,-50.9896 236.8748,-62.1931 220.8232,-72.158"/>
<polygon fill="#000000" stroke="#000000" points="218.792,-69.2993 212.1421,-77.5472 222.4841,-75.2465 218.792,-69.2993"/>
</g>
<!-- GO:0043226 -->
<g id="node3" class="node">
<title>GO:0043226</title>
<polygon fill="#00ffff" stroke="#000000" points="343.1558,-196.6019 253.948,-196.6019 253.948,-155.3981 343.1558,-155.3981 343.1558,-196.6019"/>
<text text-anchor="middle" x="298.5519" y="-180.2" font-family="Times,serif" font-size="14.00" fill="#000000">GO:0043226</text>
<text text-anchor="middle" x="298.5519" y="-163.4" font-family="Times,serif" font-size="14.00" fill="#000000">organelle</text>
</g>
<!-- GO:0043229&#45;&gt;GO:0043226 -->
<g id="edge2" class="edge">
<title>GO:0043229&#45;&gt;GO:0043226</title>
<path fill="none" stroke="#000000" d="M302.8879,-41.4094C302.0325,-67.9627 300.5378,-114.3577 299.5464,-145.1304"/>
<polygon fill="#000000" stroke="#000000" points="296.0425,-145.1979 299.2186,-155.3054 303.0389,-145.4233 296.0425,-145.1979"/>
</g>
<!-- GO:0044464 -->
<g id="node4" class="node">
<title>GO:0044464</title>
<polygon fill="#ffffff" stroke="#000000" points="232.1558,-196.6019 142.948,-196.6019 142.948,-155.3981 232.1558,-155.3981 232.1558,-196.6019"/>
<text text-anchor="middle" x="187.5519" y="-180.2" font-family="Times,serif" font-size="14.00" fill="#000000">GO:0044464</text>
<text text-anchor="middle" x="187.5519" y="-163.4" font-family="Times,serif" font-size="14.00" fill="#000000">cell part</text>
</g>
<!-- GO:0044424&#45;&gt;GO:0044464 -->
<g id="edge3" class="edge">
<title>GO:0044424&#45;&gt;GO:0044464</title>
<path fill="none" stroke="#000000" d="M180.9637,-119.1954C181.8818,-127.1109 182.9488,-136.3109 183.9533,-144.9722"/>
<polygon fill="#000000" stroke="#000000" points="180.5046,-145.6171 185.1334,-155.1472 187.4579,-144.8106 180.5046,-145.6171"/>
</g>
<!-- GO:0005575 -->
<g id="node5" class="node">
<title>GO:0005575</title>
<polygon fill="#ffffff" stroke="#000000" points="362.2386,-274.2019 234.8652,-274.2019 234.8652,-232.9981 362.2386,-232.9981 362.2386,-274.2019"/>
<text text-anchor="middle" x="298.5519" y="-257.8" font-family="Times,serif" font-size="14.00" fill="#000000">GO:0005575</text>
<text text-anchor="middle" x="298.5519" y="-241" font-family="Times,serif" font-size="14.00" fill="#000000">cellular_component</text>
</g>
<!-- GO:0043226&#45;&gt;GO:0005575 -->
<g id="edge4" class="edge">
<title>GO:0043226&#45;&gt;GO:0005575</title>
<path fill="none" stroke="#000000" d="M298.5519,-196.7954C298.5519,-204.7109 298.5519,-213.9109 298.5519,-222.5722"/>
<polygon fill="#000000" stroke="#000000" points="295.052,-222.7472 298.5519,-232.7472 302.052,-222.7473 295.052,-222.7472"/>
</g>
<!-- GO:0044464&#45;&gt;GO:0005575 -->
<g id="edge6" class="edge">
<title>GO:0044464&#45;&gt;GO:0005575</title>
<path fill="none" stroke="#000000" d="M217.2979,-196.7954C230.4866,-206.0156 246.1685,-216.9788 260.2213,-226.8031"/>
<polygon fill="#000000" stroke="#000000" points="258.5226,-229.886 268.7238,-232.7472 262.5334,-224.149 258.5226,-229.886"/>
</g>
<!-- GO:0005737 -->
<g id="node6" class="node">
<title>GO:0005737</title>
<polygon fill="#00ffff" stroke="#000000" points="89.1558,-41.4019 -.052,-41.4019 -.052,-.1981 89.1558,-.1981 89.1558,-41.4019"/>
<text text-anchor="middle" x="44.5519" y="-25" font-family="Times,serif" font-size="14.00" fill="#000000">GO:0005737</text>
<text text-anchor="middle" x="44.5519" y="-8.2" font-family="Times,serif" font-size="14.00" fill="#000000">cytoplasm</text>
</g>
<!-- GO:0005737&#45;&gt;GO:0044424 -->
<g id="edge5" class="edge">
<title>GO:0005737&#45;&gt;GO:0044424</title>
<path fill="none" stroke="#000000" d="M80.4614,-41.5954C96.8336,-51.0766 116.3882,-62.4008 133.7145,-72.4345"/>
<polygon fill="#000000" stroke="#000000" points="132.1355,-75.5646 142.5432,-77.5472 135.6436,-69.507 132.1355,-75.5646"/>
</g>
<!-- GO:0043234 -->
<g id="node7" class="node">
<title>GO:0043234</title>
<polygon fill="#00ff00" stroke="#000000" points="494.4193,-119.0019 386.6845,-119.0019 386.6845,-77.7981 494.4193,-77.7981 494.4193,-119.0019"/>
<text text-anchor="middle" x="440.5519" y="-102.6" font-family="Times,serif" font-size="14.00" fill="#000000">GO:0043234</text>
<text text-anchor="middle" x="440.5519" y="-85.8" font-family="Times,serif" font-size="14.00" fill="#000000">protein complex</text>
</g>
<!-- GO:0032991 -->
<g id="node8" class="node">
<title>GO:0032991</title>
<polygon fill="#00ff00" stroke="#000000" points="519.7192,-196.6019 361.3846,-196.6019 361.3846,-155.3981 519.7192,-155.3981 519.7192,-196.6019"/>
<text text-anchor="middle" x="440.5519" y="-180.2" font-family="Times,serif" font-size="14.00" fill="#000000">GO:0032991</text>
<text text-anchor="middle" x="440.5519" y="-163.4" font-family="Times,serif" font-size="14.00" fill="#000000">macromolecular complex</text>
</g>
<!-- GO:0043234&#45;&gt;GO:0032991 -->
<g id="edge7" class="edge">
<title>GO:0043234&#45;&gt;GO:0032991</title>
<path fill="none" stroke="#000000" d="M440.5519,-119.1954C440.5519,-127.1109 440.5519,-136.3109 440.5519,-144.9722"/>
<polygon fill="#000000" stroke="#000000" points="437.052,-145.1472 440.5519,-155.1472 444.052,-145.1473 437.052,-145.1472"/>
</g>
<!-- GO:0032991&#45;&gt;GO:0005575 -->
<g id="edge8" class="edge">
<title>GO:0032991&#45;&gt;GO:0005575</title>
<path fill="none" stroke="#000000" d="M402.4985,-196.7954C384.9897,-206.3635 364.0463,-217.8087 345.5614,-227.9103"/>
<polygon fill="#000000" stroke="#000000" points="343.8071,-224.8804 336.7103,-232.7472 347.1639,-231.023 343.8071,-224.8804"/>
</g>
<!-- GO:0044444 -->
<g id="node9" class="node">
<title>GO:0044444</title>
<polygon fill="#00ffff" stroke="#000000" points="215.9685,-41.4019 107.1353,-41.4019 107.1353,-.1981 215.9685,-.1981 215.9685,-41.4019"/>
<text text-anchor="middle" x="161.5519" y="-25" font-family="Times,serif" font-size="14.00" fill="#000000">GO:0044444</text>
<text text-anchor="middle" x="161.5519" y="-8.2" font-family="Times,serif" font-size="14.00" fill="#000000">cytoplasmic part</text>
</g>
<!-- GO:0044444&#45;&gt;GO:0044424 -->
<g id="edge9" class="edge">
<title>GO:0044444&#45;&gt;GO:0044424</title>
<path fill="none" stroke="#000000" d="M166.1076,-41.5954C167.8607,-49.5978 169.9015,-58.9133 171.8171,-67.6575"/>
<polygon fill="#000000" stroke="#000000" points="168.4247,-68.5279 173.9836,-77.5472 175.2625,-67.0299 168.4247,-68.5279"/>
</g>
</g>
</svg>
