<?xml version="1.0" encoding="UTF-8" standalone="no"?>
<!DOCTYPE svg PUBLIC "-//W3C//DTD SVG 1.1//EN"
 "http://www.w3.org/Graphics/SVG/1.1/DTD/svg11.dtd">
<!-- Generated by graphviz version 2.40.1 (20161225.0304)
 -->
<!-- Title: G Pages: 1 -->
<svg width="282pt" height="127pt"
 viewBox="0.00 0.00 281.57 127.20" xmlns="http://www.w3.org/2000/svg" xmlns:xlink="http://www.w3.org/1999/xlink">
<g id="graph0" class="graph" transform="scale(1 1) rotate(0) translate(4 123.2)">
<title>G</title>
<polygon fill="#ffffff" stroke="transparent" points="-4,4 -4,-123.2 277.5681,-123.2 277.5681,4 -4,4"/>
<!-- GO:0044699 -->
<g id="node1" class="node">
<title>GO:0044699</title>
<polygon fill="#00ffff" stroke="#000000" points="151.5218,-41.4019 .1592,-41.4019 .1592,-.1981 151.5218,-.1981 151.5218,-41.4019"/>
<text text-anchor="middle" x="75.8405" y="-25" font-family="Times,serif" font-size="14.00" fill="#000000">GO:0044699</text>
<text text-anchor="middle" x="75.8405" y="-8.2" font-family="Times,serif" font-size="14.00" fill="#000000">single&#45;organism process</text>
</g>
<!-- GO:0008150 -->
<g id="node2" class="node">
<title>GO:0008150</title>
<polygon fill="#ffffff" stroke="#000000" points="209.3111,-119.0019 88.3699,-119.0019 88.3699,-77.7981 209.3111,-77.7981 209.3111,-119.0019"/>
<text text-anchor="middle" x="148.8405" y="-102.6" font-family="Times,serif" font-size="14.00" fill="#000000">GO:0008150</text>
<text text-anchor="middle" x="148.8405" y="-85.8" font-family="Times,serif" font-size="14.00" fill="#000000">biological_process</text>
</g>
<!-- GO:0044699&#45;&gt;GO:0008150 -->
<g id="edge1" class="edge">
<title>GO:0044699&#45;&gt;GO:0008150</title>
<path fill="none" stroke="#000000" d="M95.4032,-41.5954C103.6677,-50.3807 113.4208,-60.7484 122.3174,-70.2056"/>
<polygon fill="#000000" stroke="#000000" points="119.8226,-72.6617 129.2238,-77.5472 124.9212,-67.8654 119.8226,-72.6617"/>
</g>
<!-- GO:0009987 -->
<g id="node3" class="node">
<title>GO:0009987</title>
<polygon fill="#00ff00" stroke="#000000" points="273.7967,-41.4019 169.8843,-41.4019 169.8843,-.1981 273.7967,-.1981 273.7967,-41.4019"/>
<text text-anchor="middle" x="221.8405" y="-25" font-family="Times,serif" font-size="14.00" fill="#000000">GO:0009987</text>
<text text-anchor="middle" x="221.8405" y="-8.2" font-family="Times,serif" font-size="14.00" fill="#000000">cellular process</text>
</g>
<!-- GO:0009987&#45;&gt;GO:0008150 -->
<g id="edge2" class="edge">
<title>GO:0009987&#45;&gt;GO:0008150</title>
<path fill="none" stroke="#000000" d="M202.2778,-41.5954C194.0133,-50.3807 184.2602,-60.7484 175.3636,-70.2056"/>
<polygon fill="#000000" stroke="#000000" points="172.7598,-67.8654 168.4572,-77.5472 177.8584,-72.6617 172.7598,-67.8654"/>
</g>
</g>
</svg>
