<?xml version="1.0" encoding="UTF-8" standalone="no"?>
<!DOCTYPE svg PUBLIC "-//W3C//DTD SVG 1.1//EN"
 "http://www.w3.org/Graphics/SVG/1.1/DTD/svg11.dtd">
<!-- Generated by graphviz version 2.40.1 (20161225.0304)
 -->
<!-- Title: G Pages: 1 -->
<svg width="334pt" height="488pt"
 viewBox="0.00 0.00 334.02 488.00" xmlns="http://www.w3.org/2000/svg" xmlns:xlink="http://www.w3.org/1999/xlink">
<g id="graph0" class="graph" transform="scale(1 1) rotate(0) translate(4 484)">
<title>G</title>
<polygon fill="#ffffff" stroke="transparent" points="-4,4 -4,-484 330.0183,-484 330.0183,4 -4,4"/>
<!-- GO:0004860 -->
<g id="node1" class="node">
<title>GO:0004860</title>
<polygon fill="#ff00ff" stroke="#000000" points="239.5187,-58.6014 93.2303,-58.6014 93.2303,.2014 239.5187,.2014 239.5187,-58.6014"/>
<text text-anchor="middle" x="166.3745" y="-41.8" font-family="Times,serif" font-size="14.00" fill="#000000">GO:0004860</text>
<text text-anchor="middle" x="166.3745" y="-25" font-family="Times,serif" font-size="14.00" fill="#000000">protein kinase inhibitor</text>
<text text-anchor="middle" x="166.3745" y="-8.2" font-family="Times,serif" font-size="14.00" fill="#000000">activity</text>
</g>
<!-- GO:0019210 -->
<g id="node2" class="node">
<title>GO:0019210</title>
<polygon fill="#ffffff" stroke="#000000" points="157.8535,-144.2019 8.8955,-144.2019 8.8955,-102.9981 157.8535,-102.9981 157.8535,-144.2019"/>
<text text-anchor="middle" x="83.3745" y="-127.8" font-family="Times,serif" font-size="14.00" fill="#000000">GO:0019210</text>
<text text-anchor="middle" x="83.3745" y="-111" font-family="Times,serif" font-size="14.00" fill="#000000">kinase inhibitor activity</text>
</g>
<!-- GO:0004860&#45;&gt;GO:0019210 -->
<g id="edge1" class="edge">
<title>GO:0004860&#45;&gt;GO:0019210</title>
<path fill="none" stroke="#000000" d="M140.5678,-58.5513C130.2829,-70.2488 118.4899,-83.6615 108.2947,-95.257"/>
<polygon fill="#000000" stroke="#000000" points="105.5045,-93.1299 101.5299,-102.951 110.7615,-97.7521 105.5045,-93.1299"/>
</g>
<!-- GO:0019887 -->
<g id="node3" class="node">
<title>GO:0019887</title>
<polygon fill="#ffffff" stroke="#000000" points="324.8269,-153.0014 175.9221,-153.0014 175.9221,-94.1986 324.8269,-94.1986 324.8269,-153.0014"/>
<text text-anchor="middle" x="250.3745" y="-136.2" font-family="Times,serif" font-size="14.00" fill="#000000">GO:0019887</text>
<text text-anchor="middle" x="250.3745" y="-119.4" font-family="Times,serif" font-size="14.00" fill="#000000">protein kinase regulator</text>
<text text-anchor="middle" x="250.3745" y="-102.6" font-family="Times,serif" font-size="14.00" fill="#000000">activity</text>
</g>
<!-- GO:0004860&#45;&gt;GO:0019887 -->
<g id="edge2" class="edge">
<title>GO:0004860&#45;&gt;GO:0019887</title>
<path fill="none" stroke="#000000" d="M192.4922,-58.5513C200.3936,-67.431 209.1745,-77.299 217.4599,-86.6103"/>
<polygon fill="#000000" stroke="#000000" points="215.0107,-89.1229 224.273,-94.2669 220.2401,-84.4696 215.0107,-89.1229"/>
</g>
<!-- GO:0004857 -->
<g id="node4" class="node">
<title>GO:0004857</title>
<polygon fill="#ff00ff" stroke="#000000" points="156.6237,-230.2019 .1253,-230.2019 .1253,-188.9981 156.6237,-188.9981 156.6237,-230.2019"/>
<text text-anchor="middle" x="78.3745" y="-213.8" font-family="Times,serif" font-size="14.00" fill="#000000">GO:0004857</text>
<text text-anchor="middle" x="78.3745" y="-197" font-family="Times,serif" font-size="14.00" fill="#000000">enzyme inhibitor activity</text>
</g>
<!-- GO:0019210&#45;&gt;GO:0004857 -->
<g id="edge3" class="edge">
<title>GO:0019210&#45;&gt;GO:0004857</title>
<path fill="none" stroke="#000000" d="M82.1641,-144.4182C81.5623,-154.7705 80.8231,-167.4848 80.1578,-178.9271"/>
<polygon fill="#000000" stroke="#000000" points="76.6601,-178.7872 79.5737,-188.9735 83.6483,-179.1936 76.6601,-178.7872"/>
</g>
<!-- GO:0019207 -->
<g id="node5" class="node">
<title>GO:0019207</title>
<polygon fill="#ffffff" stroke="#000000" points="326.1624,-230.2019 174.5866,-230.2019 174.5866,-188.9981 326.1624,-188.9981 326.1624,-230.2019"/>
<text text-anchor="middle" x="250.3745" y="-213.8" font-family="Times,serif" font-size="14.00" fill="#000000">GO:0019207</text>
<text text-anchor="middle" x="250.3745" y="-197" font-family="Times,serif" font-size="14.00" fill="#000000">kinase regulator activity</text>
</g>
<!-- GO:0019210&#45;&gt;GO:0019207 -->
<g id="edge4" class="edge">
<title>GO:0019210&#45;&gt;GO:0019207</title>
<path fill="none" stroke="#000000" d="M123.8005,-144.4182C147.0827,-156.4078 176.5174,-171.5658 201.1417,-184.2466"/>
<polygon fill="#000000" stroke="#000000" points="199.8279,-187.5068 210.3207,-188.9735 203.0327,-181.2835 199.8279,-187.5068"/>
</g>
<!-- GO:0019887&#45;&gt;GO:0019207 -->
<g id="edge5" class="edge">
<title>GO:0019887&#45;&gt;GO:0019207</title>
<path fill="none" stroke="#000000" d="M250.3745,-153.1963C250.3745,-161.4638 250.3745,-170.4657 250.3745,-178.8008"/>
<polygon fill="#000000" stroke="#000000" points="246.8746,-178.8965 250.3745,-188.8966 253.8746,-178.8966 246.8746,-178.8965"/>
</g>
<!-- GO:0030234 -->
<g id="node6" class="node">
<title>GO:0030234</title>
<polygon fill="#ffffff" stroke="#000000" points="243.9321,-307.8019 84.8169,-307.8019 84.8169,-266.5981 243.9321,-266.5981 243.9321,-307.8019"/>
<text text-anchor="middle" x="164.3745" y="-291.4" font-family="Times,serif" font-size="14.00" fill="#000000">GO:0030234</text>
<text text-anchor="middle" x="164.3745" y="-274.6" font-family="Times,serif" font-size="14.00" fill="#000000">enzyme regulator activity</text>
</g>
<!-- GO:0004857&#45;&gt;GO:0030234 -->
<g id="edge6" class="edge">
<title>GO:0004857&#45;&gt;GO:0030234</title>
<path fill="none" stroke="#000000" d="M101.4209,-230.3954C111.35,-239.3547 123.103,-249.9596 133.7495,-259.5663"/>
<polygon fill="#000000" stroke="#000000" points="131.4954,-262.2465 141.2645,-266.3472 136.1848,-257.0495 131.4954,-262.2465"/>
</g>
<!-- GO:0019207&#45;&gt;GO:0030234 -->
<g id="edge7" class="edge">
<title>GO:0019207&#45;&gt;GO:0030234</title>
<path fill="none" stroke="#000000" d="M227.3281,-230.3954C217.399,-239.3547 205.646,-249.9596 194.9995,-259.5663"/>
<polygon fill="#000000" stroke="#000000" points="192.5642,-257.0495 187.4845,-266.3472 197.2536,-262.2465 192.5642,-257.0495"/>
</g>
<!-- GO:0098772 -->
<g id="node7" class="node">
<title>GO:0098772</title>
<polygon fill="#ff00ff" stroke="#000000" points="225.5072,-402.6014 103.2418,-402.6014 103.2418,-343.7986 225.5072,-343.7986 225.5072,-402.6014"/>
<text text-anchor="middle" x="164.3745" y="-385.8" font-family="Times,serif" font-size="14.00" fill="#000000">GO:0098772</text>
<text text-anchor="middle" x="164.3745" y="-369" font-family="Times,serif" font-size="14.00" fill="#000000">molecular function</text>
<text text-anchor="middle" x="164.3745" y="-352.2" font-family="Times,serif" font-size="14.00" fill="#000000">regulator</text>
</g>
<!-- GO:0030234&#45;&gt;GO:0098772 -->
<g id="edge8" class="edge">
<title>GO:0030234&#45;&gt;GO:0098772</title>
<path fill="none" stroke="#000000" d="M164.3745,-308.0182C164.3745,-315.7358 164.3745,-324.7662 164.3745,-333.6036"/>
<polygon fill="#000000" stroke="#000000" points="160.8746,-333.7991 164.3745,-343.7991 167.8746,-333.7992 160.8746,-333.7991"/>
</g>
<!-- GO:0003674 -->
<g id="node8" class="node">
<title>GO:0003674</title>
<polygon fill="#ffffff" stroke="#000000" points="227.0076,-479.8019 101.7414,-479.8019 101.7414,-438.5981 227.0076,-438.5981 227.0076,-479.8019"/>
<text text-anchor="middle" x="164.3745" y="-463.4" font-family="Times,serif" font-size="14.00" fill="#000000">GO:0003674</text>
<text text-anchor="middle" x="164.3745" y="-446.6" font-family="Times,serif" font-size="14.00" fill="#000000">molecular_function</text>
</g>
<!-- GO:0098772&#45;&gt;GO:0003674 -->
<g id="edge9" class="edge">
<title>GO:0098772&#45;&gt;GO:0003674</title>
<path fill="none" stroke="#000000" d="M164.3745,-402.7963C164.3745,-411.0638 164.3745,-420.0657 164.3745,-428.4008"/>
<polygon fill="#000000" stroke="#000000" points="160.8746,-428.4965 164.3745,-438.4966 167.8746,-428.4966 160.8746,-428.4965"/>
</g>
</g>
</svg>
