<?xml version="1.0" encoding="UTF-8" standalone="no"?>
<!DOCTYPE svg PUBLIC "-//W3C//DTD SVG 1.1//EN"
 "http://www.w3.org/Graphics/SVG/1.1/DTD/svg11.dtd">
<!-- Generated by graphviz version 2.40.1 (20161225.0304)
 -->
<!-- Title: G Pages: 1 -->
<svg width="284pt" height="205pt"
 viewBox="0.00 0.00 283.78 204.80" xmlns="http://www.w3.org/2000/svg" xmlns:xlink="http://www.w3.org/1999/xlink">
<g id="graph0" class="graph" transform="scale(1 1) rotate(0) translate(4 200.8)">
<title>G</title>
<polygon fill="#ffffff" stroke="transparent" points="-4,4 -4,-200.8 279.7827,-200.8 279.7827,4 -4,4"/>
<!-- GO:0044464 -->
<g id="node1" class="node">
<title>GO:0044464</title>
<polygon fill="#ff0000" stroke="#000000" points="265.9374,-119.0019 176.7296,-119.0019 176.7296,-77.7981 265.9374,-77.7981 265.9374,-119.0019"/>
<text text-anchor="middle" x="221.3335" y="-102.6" font-family="Times,serif" font-size="14.00" fill="#000000">GO:0044464</text>
<text text-anchor="middle" x="221.3335" y="-85.8" font-family="Times,serif" font-size="14.00" fill="#000000">cell part</text>
</g>
<!-- GO:0005575 -->
<g id="node2" class="node">
<title>GO:0005575</title>
<polygon fill="#ffffff" stroke="#000000" points="214.0202,-196.6019 86.6468,-196.6019 86.6468,-155.3981 214.0202,-155.3981 214.0202,-196.6019"/>
<text text-anchor="middle" x="150.3335" y="-180.2" font-family="Times,serif" font-size="14.00" fill="#000000">GO:0005575</text>
<text text-anchor="middle" x="150.3335" y="-163.4" font-family="Times,serif" font-size="14.00" fill="#000000">cellular_component</text>
</g>
<!-- GO:0044464&#45;&gt;GO:0005575 -->
<g id="edge1" class="edge">
<title>GO:0044464&#45;&gt;GO:0005575</title>
<path fill="none" stroke="#000000" d="M202.3068,-119.1954C194.3483,-127.8937 184.9705,-138.1433 176.3872,-147.5244"/>
<polygon fill="#000000" stroke="#000000" points="173.5808,-145.4067 169.4127,-155.1472 178.7454,-150.132 173.5808,-145.4067"/>
</g>
<!-- GO:0032991 -->
<g id="node3" class="node">
<title>GO:0032991</title>
<polygon fill="#00ff00" stroke="#000000" points="158.5008,-119.0019 .1662,-119.0019 .1662,-77.7981 158.5008,-77.7981 158.5008,-119.0019"/>
<text text-anchor="middle" x="79.3335" y="-102.6" font-family="Times,serif" font-size="14.00" fill="#000000">GO:0032991</text>
<text text-anchor="middle" x="79.3335" y="-85.8" font-family="Times,serif" font-size="14.00" fill="#000000">macromolecular complex</text>
</g>
<!-- GO:0032991&#45;&gt;GO:0005575 -->
<g id="edge2" class="edge">
<title>GO:0032991&#45;&gt;GO:0005575</title>
<path fill="none" stroke="#000000" d="M98.3602,-119.1954C106.3187,-127.8937 115.6965,-138.1433 124.2798,-147.5244"/>
<polygon fill="#000000" stroke="#000000" points="121.9216,-150.132 131.2543,-155.1472 127.0862,-145.4067 121.9216,-150.132"/>
</g>
<!-- GO:0044424 -->
<g id="node4" class="node">
<title>GO:0044424</title>
<polygon fill="#ffa500" stroke="#000000" points="275.7319,-41.4019 166.9351,-41.4019 166.9351,-.1981 275.7319,-.1981 275.7319,-41.4019"/>
<text text-anchor="middle" x="221.3335" y="-25" font-family="Times,serif" font-size="14.00" fill="#000000">GO:0044424</text>
<text text-anchor="middle" x="221.3335" y="-8.2" font-family="Times,serif" font-size="14.00" fill="#000000">intracellular part</text>
</g>
<!-- GO:0044424&#45;&gt;GO:0044464 -->
<g id="edge3" class="edge">
<title>GO:0044424&#45;&gt;GO:0044464</title>
<path fill="none" stroke="#000000" d="M221.3335,-41.5954C221.3335,-49.5109 221.3335,-58.7109 221.3335,-67.3722"/>
<polygon fill="#000000" stroke="#000000" points="217.8336,-67.5472 221.3335,-77.5472 224.8336,-67.5473 217.8336,-67.5472"/>
</g>
</g>
</svg>
