<?xml version="1.0" encoding="UTF-8" standalone="no"?>
<!DOCTYPE svg PUBLIC "-//W3C//DTD SVG 1.1//EN"
 "http://www.w3.org/Graphics/SVG/1.1/DTD/svg11.dtd">
<!-- Generated by graphviz version 2.40.1 (20161225.0304)
 -->
<!-- Title: G Pages: 1 -->
<svg width="941pt" height="522pt"
 viewBox="0.00 0.00 941.24 521.60" xmlns="http://www.w3.org/2000/svg" xmlns:xlink="http://www.w3.org/1999/xlink">
<g id="graph0" class="graph" transform="scale(1 1) rotate(0) translate(4 517.6)">
<title>G</title>
<polygon fill="#ffffff" stroke="transparent" points="-4,4 -4,-517.6 937.2448,-517.6 937.2448,4 -4,4"/>
<!-- GO:0007165 -->
<g id="node1" class="node">
<title>GO:0007165</title>
<polygon fill="#00ffff" stroke="#000000" points="206.2733,-230.2019 83.9799,-230.2019 83.9799,-188.9981 206.2733,-188.9981 206.2733,-230.2019"/>
<text text-anchor="middle" x="145.1266" y="-213.8" font-family="Times,serif" font-size="14.00" fill="#000000">GO:0007165</text>
<text text-anchor="middle" x="145.1266" y="-197" font-family="Times,serif" font-size="14.00" fill="#000000">signal transduction</text>
</g>
<!-- GO:0050794 -->
<g id="node2" class="node">
<title>GO:0050794</title>
<polygon fill="#00ff00" stroke="#000000" points="212.0256,-325.0014 78.2276,-325.0014 78.2276,-266.1986 212.0256,-266.1986 212.0256,-325.0014"/>
<text text-anchor="middle" x="145.1266" y="-308.2" font-family="Times,serif" font-size="14.00" fill="#000000">GO:0050794</text>
<text text-anchor="middle" x="145.1266" y="-291.4" font-family="Times,serif" font-size="14.00" fill="#000000">regulation of cellular</text>
<text text-anchor="middle" x="145.1266" y="-274.6" font-family="Times,serif" font-size="14.00" fill="#000000">process</text>
</g>
<!-- GO:0007165&#45;&gt;GO:0050794 -->
<g id="edge1" class="edge">
<title>GO:0007165&#45;&gt;GO:0050794</title>
<path fill="none" stroke="#000000" d="M145.1266,-230.4182C145.1266,-238.1358 145.1266,-247.1662 145.1266,-256.0036"/>
<polygon fill="#000000" stroke="#000000" points="141.6267,-256.1991 145.1266,-266.1991 148.6267,-256.1992 141.6267,-256.1991"/>
</g>
<!-- GO:0065007 -->
<g id="node3" class="node">
<title>GO:0065007</title>
<polygon fill="#00ff00" stroke="#000000" points="132.38,-419.0019 -.1268,-419.0019 -.1268,-377.7981 132.38,-377.7981 132.38,-419.0019"/>
<text text-anchor="middle" x="66.1266" y="-402.6" font-family="Times,serif" font-size="14.00" fill="#000000">GO:0065007</text>
<text text-anchor="middle" x="66.1266" y="-385.8" font-family="Times,serif" font-size="14.00" fill="#000000">biological regulation</text>
</g>
<!-- GO:0050794&#45;&gt;GO:0065007 -->
<g id="edge2" class="edge">
<title>GO:0050794&#45;&gt;GO:0065007</title>
<path fill="none" stroke="#000000" d="M122.4884,-325.0584C111.7651,-339.0121 99.0008,-355.6219 88.3333,-369.5032"/>
<polygon fill="#000000" stroke="#000000" points="85.3173,-367.6838 81.9991,-377.7456 90.8677,-371.9492 85.3173,-367.6838"/>
</g>
<!-- GO:0050789 -->
<g id="node4" class="node">
<title>GO:0050789</title>
<polygon fill="#00ff00" stroke="#000000" points="298.041,-427.8014 150.2122,-427.8014 150.2122,-368.9986 298.041,-368.9986 298.041,-427.8014"/>
<text text-anchor="middle" x="224.1266" y="-411" font-family="Times,serif" font-size="14.00" fill="#000000">GO:0050789</text>
<text text-anchor="middle" x="224.1266" y="-394.2" font-family="Times,serif" font-size="14.00" fill="#000000">regulation of biological</text>
<text text-anchor="middle" x="224.1266" y="-377.4" font-family="Times,serif" font-size="14.00" fill="#000000">process</text>
</g>
<!-- GO:0050794&#45;&gt;GO:0050789 -->
<g id="edge3" class="edge">
<title>GO:0050794&#45;&gt;GO:0050789</title>
<path fill="none" stroke="#000000" d="M167.7648,-325.0584C176.3594,-336.2421 186.2651,-349.1321 195.3515,-360.956"/>
<polygon fill="#000000" stroke="#000000" points="192.6165,-363.1409 201.4851,-368.9373 198.1668,-358.8755 192.6165,-363.1409"/>
</g>
<!-- GO:0008150 -->
<g id="node5" class="node">
<title>GO:0008150</title>
<polygon fill="#ffffff" stroke="#000000" points="531.5972,-513.4019 410.656,-513.4019 410.656,-472.1981 531.5972,-472.1981 531.5972,-513.4019"/>
<text text-anchor="middle" x="471.1266" y="-497" font-family="Times,serif" font-size="14.00" fill="#000000">GO:0008150</text>
<text text-anchor="middle" x="471.1266" y="-480.2" font-family="Times,serif" font-size="14.00" fill="#000000">biological_process</text>
</g>
<!-- GO:0065007&#45;&gt;GO:0008150 -->
<g id="edge4" class="edge">
<title>GO:0065007&#45;&gt;GO:0008150</title>
<path fill="none" stroke="#000000" d="M102.2095,-419.1821C114.264,-425.3871 127.9813,-431.679 141.1266,-436 227.9331,-464.534 332.5473,-479.4415 400.3772,-486.6987"/>
<polygon fill="#000000" stroke="#000000" points="400.2161,-490.2008 410.5251,-487.7567 400.942,-483.2385 400.2161,-490.2008"/>
</g>
<!-- GO:0050789&#45;&gt;GO:0008150 -->
<g id="edge5" class="edge">
<title>GO:0050789&#45;&gt;GO:0008150</title>
<path fill="none" stroke="#000000" d="M287.3116,-427.7461C293.9661,-430.6198 300.661,-433.4222 307.1266,-436 337.4279,-448.0811 371.4307,-460.1023 400.585,-469.9537"/>
<polygon fill="#000000" stroke="#000000" points="399.68,-473.3418 410.2739,-473.2083 401.909,-466.7061 399.68,-473.3418"/>
</g>
<!-- GO:0016043 -->
<g id="node6" class="node">
<title>GO:0016043</title>
<polygon fill="#ff0000" stroke="#000000" points="837.8136,-325.0014 714.4396,-325.0014 714.4396,-266.1986 837.8136,-266.1986 837.8136,-325.0014"/>
<text text-anchor="middle" x="776.1266" y="-308.2" font-family="Times,serif" font-size="14.00" fill="#000000">GO:0016043</text>
<text text-anchor="middle" x="776.1266" y="-291.4" font-family="Times,serif" font-size="14.00" fill="#000000">cellular component</text>
<text text-anchor="middle" x="776.1266" y="-274.6" font-family="Times,serif" font-size="14.00" fill="#000000">organization</text>
</g>
<!-- GO:0009987 -->
<g id="node7" class="node">
<title>GO:0009987</title>
<polygon fill="#ffffff" stroke="#000000" points="752.0828,-419.0019 648.1704,-419.0019 648.1704,-377.7981 752.0828,-377.7981 752.0828,-419.0019"/>
<text text-anchor="middle" x="700.1266" y="-402.6" font-family="Times,serif" font-size="14.00" fill="#000000">GO:0009987</text>
<text text-anchor="middle" x="700.1266" y="-385.8" font-family="Times,serif" font-size="14.00" fill="#000000">cellular process</text>
</g>
<!-- GO:0016043&#45;&gt;GO:0009987 -->
<g id="edge6" class="edge">
<title>GO:0016043&#45;&gt;GO:0009987</title>
<path fill="none" stroke="#000000" d="M754.3481,-325.0584C744.032,-339.0121 731.7525,-355.6219 721.49,-369.5032"/>
<polygon fill="#000000" stroke="#000000" points="718.5268,-367.6238 715.3964,-377.7456 724.1556,-371.7852 718.5268,-367.6238"/>
</g>
<!-- GO:0071840 -->
<g id="node8" class="node">
<title>GO:0071840</title>
<polygon fill="#ffffff" stroke="#000000" points="893.8136,-436.1003 770.4396,-436.1003 770.4396,-360.6997 893.8136,-360.6997 893.8136,-436.1003"/>
<text text-anchor="middle" x="832.1266" y="-419.4" font-family="Times,serif" font-size="14.00" fill="#000000">GO:0071840</text>
<text text-anchor="middle" x="832.1266" y="-402.6" font-family="Times,serif" font-size="14.00" fill="#000000">cellular component</text>
<text text-anchor="middle" x="832.1266" y="-385.8" font-family="Times,serif" font-size="14.00" fill="#000000">organization or</text>
<text text-anchor="middle" x="832.1266" y="-369" font-family="Times,serif" font-size="14.00" fill="#000000">biogenesis</text>
</g>
<!-- GO:0016043&#45;&gt;GO:0071840 -->
<g id="edge7" class="edge">
<title>GO:0016043&#45;&gt;GO:0071840</title>
<path fill="none" stroke="#000000" d="M792.174,-325.0584C796.6826,-333.335 801.7003,-342.546 806.6149,-351.5678"/>
<polygon fill="#000000" stroke="#000000" points="803.6152,-353.3777 811.4725,-360.485 809.7623,-350.0291 803.6152,-353.3777"/>
</g>
<!-- GO:0009987&#45;&gt;GO:0008150 -->
<g id="edge8" class="edge">
<title>GO:0009987&#45;&gt;GO:0008150</title>
<path fill="none" stroke="#000000" d="M669.54,-419.1252C660.0427,-425.0435 649.373,-431.1861 639.1266,-436 608.0725,-450.5897 572.2195,-463.2406 541.6303,-472.876"/>
<polygon fill="#000000" stroke="#000000" points="540.4096,-469.5901 531.8965,-475.8971 542.4845,-476.2755 540.4096,-469.5901"/>
</g>
<!-- GO:0071840&#45;&gt;GO:0008150 -->
<g id="edge9" class="edge">
<title>GO:0071840&#45;&gt;GO:0008150</title>
<path fill="none" stroke="#000000" d="M770.2585,-432.4836C767.2047,-433.7478 764.1508,-434.9295 761.1266,-436 688.5488,-461.6915 601.4075,-476.7806 541.7174,-484.8691"/>
<polygon fill="#000000" stroke="#000000" points="541.0957,-481.4207 531.6417,-486.2033 542.0147,-488.3602 541.0957,-481.4207"/>
</g>
<!-- GO:0044699 -->
<g id="node9" class="node">
<title>GO:0044699</title>
<polygon fill="#ffff00" stroke="#000000" points="629.8079,-419.0019 478.4453,-419.0019 478.4453,-377.7981 629.8079,-377.7981 629.8079,-419.0019"/>
<text text-anchor="middle" x="554.1266" y="-402.6" font-family="Times,serif" font-size="14.00" fill="#000000">GO:0044699</text>
<text text-anchor="middle" x="554.1266" y="-385.8" font-family="Times,serif" font-size="14.00" fill="#000000">single&#45;organism process</text>
</g>
<!-- GO:0044699&#45;&gt;GO:0008150 -->
<g id="edge10" class="edge">
<title>GO:0044699&#45;&gt;GO:0008150</title>
<path fill="none" stroke="#000000" d="M535.7062,-419.3504C524.1008,-432.5498 508.9647,-449.7649 496.2634,-464.2107"/>
<polygon fill="#000000" stroke="#000000" points="493.4701,-462.0871 489.4955,-471.9081 498.7271,-466.7092 493.4701,-462.0871"/>
</g>
<!-- GO:0030036 -->
<g id="node10" class="node">
<title>GO:0030036</title>
<polygon fill="#00ffff" stroke="#000000" points="733.0981,-58.6014 615.1551,-58.6014 615.1551,.2014 733.0981,.2014 733.0981,-58.6014"/>
<text text-anchor="middle" x="674.1266" y="-41.8" font-family="Times,serif" font-size="14.00" fill="#000000">GO:0030036</text>
<text text-anchor="middle" x="674.1266" y="-25" font-family="Times,serif" font-size="14.00" fill="#000000">actin cytoskeleton</text>
<text text-anchor="middle" x="674.1266" y="-8.2" font-family="Times,serif" font-size="14.00" fill="#000000">organization</text>
</g>
<!-- GO:1902589 -->
<g id="node11" class="node">
<title>GO:1902589</title>
<polygon fill="#ffffff" stroke="#000000" points="754.9143,-153.0014 593.3389,-153.0014 593.3389,-94.1986 754.9143,-94.1986 754.9143,-153.0014"/>
<text text-anchor="middle" x="674.1266" y="-136.2" font-family="Times,serif" font-size="14.00" fill="#000000">GO:1902589</text>
<text text-anchor="middle" x="674.1266" y="-119.4" font-family="Times,serif" font-size="14.00" fill="#000000">single&#45;organism organelle</text>
<text text-anchor="middle" x="674.1266" y="-102.6" font-family="Times,serif" font-size="14.00" fill="#000000">organization</text>
</g>
<!-- GO:0030036&#45;&gt;GO:1902589 -->
<g id="edge11" class="edge">
<title>GO:0030036&#45;&gt;GO:1902589</title>
<path fill="none" stroke="#000000" d="M674.1266,-58.5513C674.1266,-66.6318 674.1266,-75.5308 674.1266,-84.0838"/>
<polygon fill="#000000" stroke="#000000" points="670.6267,-84.2668 674.1266,-94.2669 677.6267,-84.2669 670.6267,-84.2668"/>
</g>
<!-- GO:0007010 -->
<g id="node12" class="node">
<title>GO:0007010</title>
<polygon fill="#ffffff" stroke="#000000" points="933.3632,-144.2019 772.89,-144.2019 772.89,-102.9981 933.3632,-102.9981 933.3632,-144.2019"/>
<text text-anchor="middle" x="853.1266" y="-127.8" font-family="Times,serif" font-size="14.00" fill="#000000">GO:0007010</text>
<text text-anchor="middle" x="853.1266" y="-111" font-family="Times,serif" font-size="14.00" fill="#000000">cytoskeleton organization</text>
</g>
<!-- GO:0030036&#45;&gt;GO:0007010 -->
<g id="edge12" class="edge">
<title>GO:0030036&#45;&gt;GO:0007010</title>
<path fill="none" stroke="#000000" d="M729.7821,-58.5513C753.8822,-71.2611 781.8219,-85.9957 805.0095,-98.2243"/>
<polygon fill="#000000" stroke="#000000" points="803.4942,-101.382 813.9722,-102.951 806.7596,-95.1903 803.4942,-101.382"/>
</g>
<!-- GO:0030029 -->
<g id="node13" class="node">
<title>GO:0030029</title>
<polygon fill="#ffffff" stroke="#000000" points="575.0236,-153.0014 445.2296,-153.0014 445.2296,-94.1986 575.0236,-94.1986 575.0236,-153.0014"/>
<text text-anchor="middle" x="510.1266" y="-136.2" font-family="Times,serif" font-size="14.00" fill="#000000">GO:0030029</text>
<text text-anchor="middle" x="510.1266" y="-119.4" font-family="Times,serif" font-size="14.00" fill="#000000">actin filament&#45;based</text>
<text text-anchor="middle" x="510.1266" y="-102.6" font-family="Times,serif" font-size="14.00" fill="#000000">process</text>
</g>
<!-- GO:0030036&#45;&gt;GO:0030029 -->
<g id="edge13" class="edge">
<title>GO:0030036&#45;&gt;GO:0030029</title>
<path fill="none" stroke="#000000" d="M623.135,-58.5513C606.32,-68.2301 587.465,-79.0833 570.0463,-89.1097"/>
<polygon fill="#000000" stroke="#000000" points="568.0074,-86.2448 561.0867,-94.2669 571.4996,-92.3115 568.0074,-86.2448"/>
</g>
<!-- GO:0006996 -->
<g id="node14" class="node">
<title>GO:0006996</title>
<polygon fill="#ff0000" stroke="#000000" points="846.6891,-230.2019 705.5641,-230.2019 705.5641,-188.9981 846.6891,-188.9981 846.6891,-230.2019"/>
<text text-anchor="middle" x="776.1266" y="-213.8" font-family="Times,serif" font-size="14.00" fill="#000000">GO:0006996</text>
<text text-anchor="middle" x="776.1266" y="-197" font-family="Times,serif" font-size="14.00" fill="#000000">organelle organization</text>
</g>
<!-- GO:1902589&#45;&gt;GO:0006996 -->
<g id="edge14" class="edge">
<title>GO:1902589&#45;&gt;GO:0006996</title>
<path fill="none" stroke="#000000" d="M708.9439,-152.9558C720.1825,-162.4314 732.5906,-172.8932 743.653,-182.2203"/>
<polygon fill="#000000" stroke="#000000" points="741.5329,-185.0108 751.4342,-188.7809 746.0451,-179.6591 741.5329,-185.0108"/>
</g>
<!-- GO:0044763 -->
<g id="node15" class="node">
<title>GO:0044763</title>
<polygon fill="#ffff00" stroke="#000000" points="684.8051,-325.0014 533.4481,-325.0014 533.4481,-266.1986 684.8051,-266.1986 684.8051,-325.0014"/>
<text text-anchor="middle" x="609.1266" y="-308.2" font-family="Times,serif" font-size="14.00" fill="#000000">GO:0044763</text>
<text text-anchor="middle" x="609.1266" y="-291.4" font-family="Times,serif" font-size="14.00" fill="#000000">single&#45;organism cellular</text>
<text text-anchor="middle" x="609.1266" y="-274.6" font-family="Times,serif" font-size="14.00" fill="#000000">process</text>
</g>
<!-- GO:1902589&#45;&gt;GO:0044763 -->
<g id="edge15" class="edge">
<title>GO:1902589&#45;&gt;GO:0044763</title>
<path fill="none" stroke="#000000" d="M662.9527,-153.1679C652.1769,-181.6822 635.8011,-225.0153 623.9421,-256.396"/>
<polygon fill="#000000" stroke="#000000" points="620.5244,-255.5391 620.2633,-266.1307 627.0724,-258.0137 620.5244,-255.5391"/>
</g>
<!-- GO:0007010&#45;&gt;GO:0006996 -->
<g id="edge16" class="edge">
<title>GO:0007010&#45;&gt;GO:0006996</title>
<path fill="none" stroke="#000000" d="M834.487,-144.4182C824.5561,-155.5099 812.1973,-169.3132 801.4128,-181.3583"/>
<polygon fill="#000000" stroke="#000000" points="798.6575,-179.1887 794.5945,-188.9735 803.8726,-183.858 798.6575,-179.1887"/>
</g>
<!-- GO:0030029&#45;&gt;GO:0044763 -->
<g id="edge17" class="edge">
<title>GO:0030029&#45;&gt;GO:0044763</title>
<path fill="none" stroke="#000000" d="M527.1453,-153.1679C543.6997,-181.929 568.9319,-225.7667 587.0291,-257.2084"/>
<polygon fill="#000000" stroke="#000000" points="584.1426,-259.2098 592.1646,-266.1307 590.2095,-255.7178 584.1426,-259.2098"/>
</g>
<!-- GO:0006996&#45;&gt;GO:0016043 -->
<g id="edge18" class="edge">
<title>GO:0006996&#45;&gt;GO:0016043</title>
<path fill="none" stroke="#000000" d="M776.1266,-230.4182C776.1266,-238.1358 776.1266,-247.1662 776.1266,-256.0036"/>
<polygon fill="#000000" stroke="#000000" points="772.6267,-256.1991 776.1266,-266.1991 779.6267,-256.1992 772.6267,-256.1991"/>
</g>
<!-- GO:0044763&#45;&gt;GO:0009987 -->
<g id="edge19" class="edge">
<title>GO:0044763&#45;&gt;GO:0009987</title>
<path fill="none" stroke="#000000" d="M635.2035,-325.0584C647.6722,-339.1438 662.5364,-355.9355 674.8939,-369.8954"/>
<polygon fill="#000000" stroke="#000000" points="672.5941,-372.5778 681.8431,-377.7456 677.8355,-367.938 672.5941,-372.5778"/>
</g>
<!-- GO:0044763&#45;&gt;GO:0044699 -->
<g id="edge20" class="edge">
<title>GO:0044763&#45;&gt;GO:0044699</title>
<path fill="none" stroke="#000000" d="M593.3658,-325.0584C586.0411,-338.7489 577.3486,-354.996 570.0089,-368.7146"/>
<polygon fill="#000000" stroke="#000000" points="566.8085,-367.2771 565.1771,-377.7456 572.9807,-370.5794 566.8085,-367.2771"/>
</g>
<!-- GO:0044767 -->
<g id="node16" class="node">
<title>GO:0044767</title>
<polygon fill="#00ffff" stroke="#000000" points="487.0264,-325.0014 343.2268,-325.0014 343.2268,-266.1986 487.0264,-266.1986 487.0264,-325.0014"/>
<text text-anchor="middle" x="415.1266" y="-308.2" font-family="Times,serif" font-size="14.00" fill="#000000">GO:0044767</text>
<text text-anchor="middle" x="415.1266" y="-291.4" font-family="Times,serif" font-size="14.00" fill="#000000">single&#45;organism</text>
<text text-anchor="middle" x="415.1266" y="-274.6" font-family="Times,serif" font-size="14.00" fill="#000000">developmental process</text>
</g>
<!-- GO:0044767&#45;&gt;GO:0044699 -->
<g id="edge22" class="edge">
<title>GO:0044767&#45;&gt;GO:0044699</title>
<path fill="none" stroke="#000000" d="M454.9584,-325.0584C474.8049,-339.7362 498.6249,-357.3527 517.945,-371.6412"/>
<polygon fill="#000000" stroke="#000000" points="516.0777,-374.6134 526.199,-377.7456 520.2401,-368.9854 516.0777,-374.6134"/>
</g>
<!-- GO:0032502 -->
<g id="node17" class="node">
<title>GO:0032502</title>
<polygon fill="#ffffff" stroke="#000000" points="460.0264,-419.0019 316.2268,-419.0019 316.2268,-377.7981 460.0264,-377.7981 460.0264,-419.0019"/>
<text text-anchor="middle" x="388.1266" y="-402.6" font-family="Times,serif" font-size="14.00" fill="#000000">GO:0032502</text>
<text text-anchor="middle" x="388.1266" y="-385.8" font-family="Times,serif" font-size="14.00" fill="#000000">developmental process</text>
</g>
<!-- GO:0044767&#45;&gt;GO:0032502 -->
<g id="edge21" class="edge">
<title>GO:0044767&#45;&gt;GO:0032502</title>
<path fill="none" stroke="#000000" d="M407.3895,-325.0584C403.8629,-338.4856 399.6904,-354.3721 396.1319,-367.9204"/>
<polygon fill="#000000" stroke="#000000" points="392.7066,-367.1845 393.5514,-377.7456 399.4769,-368.9628 392.7066,-367.1845"/>
</g>
<!-- GO:0032502&#45;&gt;GO:0008150 -->
<g id="edge23" class="edge">
<title>GO:0032502&#45;&gt;GO:0008150</title>
<path fill="none" stroke="#000000" d="M406.547,-419.3504C418.1524,-432.5498 433.2885,-449.7649 445.9898,-464.2107"/>
<polygon fill="#000000" stroke="#000000" points="443.5261,-466.7092 452.7577,-471.9081 448.7831,-462.0871 443.5261,-466.7092"/>
</g>
</g>
</svg>
