<?xml version="1.0" encoding="UTF-8" standalone="no"?>
<!DOCTYPE svg PUBLIC "-//W3C//DTD SVG 1.1//EN"
 "http://www.w3.org/Graphics/SVG/1.1/DTD/svg11.dtd">
<!-- Generated by graphviz version 2.40.1 (20161225.0304)
 -->
<!-- Title: G Pages: 1 -->
<svg width="918pt" height="889pt"
 viewBox="0.00 0.00 917.62 888.80" xmlns="http://www.w3.org/2000/svg" xmlns:xlink="http://www.w3.org/1999/xlink">
<g id="graph0" class="graph" transform="scale(1 1) rotate(0) translate(4 884.8)">
<title>G</title>
<polygon fill="#ffffff" stroke="transparent" points="-4,4 -4,-884.8 913.6179,-884.8 913.6179,4 -4,4"/>
<!-- GO:0018024 -->
<g id="node1" class="node">
<title>GO:0018024</title>
<polygon fill="#ffa500" stroke="#000000" points="225.9973,-75.3003 95.4495,-75.3003 95.4495,.1003 225.9973,.1003 225.9973,-75.3003"/>
<text text-anchor="middle" x="160.7234" y="-58.6" font-family="Times,serif" font-size="14.00" fill="#000000">GO:0018024</text>
<text text-anchor="middle" x="160.7234" y="-41.8" font-family="Times,serif" font-size="14.00" fill="#000000">histone&#45;lysine</text>
<text text-anchor="middle" x="160.7234" y="-25" font-family="Times,serif" font-size="14.00" fill="#000000">N&#45;methyltransferase</text>
<text text-anchor="middle" x="160.7234" y="-8.2" font-family="Times,serif" font-size="14.00" fill="#000000">activity</text>
</g>
<!-- GO:0042054 -->
<g id="node2" class="node">
<title>GO:0042054</title>
<polygon fill="#ffffff" stroke="#000000" points="159.6708,-178.2014 -.224,-178.2014 -.224,-119.3986 159.6708,-119.3986 159.6708,-178.2014"/>
<text text-anchor="middle" x="79.7234" y="-161.4" font-family="Times,serif" font-size="14.00" fill="#000000">GO:0042054</text>
<text text-anchor="middle" x="79.7234" y="-144.6" font-family="Times,serif" font-size="14.00" fill="#000000">histone methyltransferase</text>
<text text-anchor="middle" x="79.7234" y="-127.8" font-family="Times,serif" font-size="14.00" fill="#000000">activity</text>
</g>
<!-- GO:0018024&#45;&gt;GO:0042054 -->
<g id="edge1" class="edge">
<title>GO:0018024&#45;&gt;GO:0042054</title>
<path fill="none" stroke="#000000" d="M133.3005,-75.2472C124.88,-86.8072 115.6147,-99.527 107.1912,-111.0911"/>
<polygon fill="#000000" stroke="#000000" points="104.2893,-109.1305 101.2305,-119.2742 109.9474,-113.2519 104.2893,-109.1305"/>
</g>
<!-- GO:0016279 -->
<g id="node3" class="node">
<title>GO:0016279</title>
<polygon fill="#ffffff" stroke="#000000" points="307.9973,-186.5003 177.4495,-186.5003 177.4495,-111.0997 307.9973,-111.0997 307.9973,-186.5003"/>
<text text-anchor="middle" x="242.7234" y="-169.8" font-family="Times,serif" font-size="14.00" fill="#000000">GO:0016279</text>
<text text-anchor="middle" x="242.7234" y="-153" font-family="Times,serif" font-size="14.00" fill="#000000">protein&#45;lysine</text>
<text text-anchor="middle" x="242.7234" y="-136.2" font-family="Times,serif" font-size="14.00" fill="#000000">N&#45;methyltransferase</text>
<text text-anchor="middle" x="242.7234" y="-119.4" font-family="Times,serif" font-size="14.00" fill="#000000">activity</text>
</g>
<!-- GO:0018024&#45;&gt;GO:0016279 -->
<g id="edge2" class="edge">
<title>GO:0018024&#45;&gt;GO:0016279</title>
<path fill="none" stroke="#000000" d="M188.4849,-75.2472C195.0303,-84.1235 202.08,-93.6835 208.8609,-102.8791"/>
<polygon fill="#000000" stroke="#000000" points="206.2386,-105.2204 214.9905,-111.1915 211.8725,-101.0659 206.2386,-105.2204"/>
</g>
<!-- GO:0008276 -->
<g id="node4" class="node">
<title>GO:0008276</title>
<polygon fill="#ffffff" stroke="#000000" points="158.8866,-289.4014 .5602,-289.4014 .5602,-230.5986 158.8866,-230.5986 158.8866,-289.4014"/>
<text text-anchor="middle" x="79.7234" y="-272.6" font-family="Times,serif" font-size="14.00" fill="#000000">GO:0008276</text>
<text text-anchor="middle" x="79.7234" y="-255.8" font-family="Times,serif" font-size="14.00" fill="#000000">protein methyltransferase</text>
<text text-anchor="middle" x="79.7234" y="-239" font-family="Times,serif" font-size="14.00" fill="#000000">activity</text>
</g>
<!-- GO:0042054&#45;&gt;GO:0008276 -->
<g id="edge3" class="edge">
<title>GO:0042054&#45;&gt;GO:0008276</title>
<path fill="none" stroke="#000000" d="M79.7234,-178.0165C79.7234,-190.9386 79.7234,-206.3358 79.7234,-220.2788"/>
<polygon fill="#000000" stroke="#000000" points="76.2235,-220.5925 79.7234,-230.5926 83.2235,-220.5926 76.2235,-220.5925"/>
</g>
<!-- GO:0016279&#45;&gt;GO:0008276 -->
<g id="edge4" class="edge">
<title>GO:0016279&#45;&gt;GO:0008276</title>
<path fill="none" stroke="#000000" d="M187.539,-186.4472C169.3632,-198.847 149.2312,-212.5812 131.3321,-224.7921"/>
<polygon fill="#000000" stroke="#000000" points="129.0313,-222.1248 122.7429,-230.6517 132.9762,-227.9074 129.0313,-222.1248"/>
</g>
<!-- GO:0016278 -->
<g id="node5" class="node">
<title>GO:0016278</title>
<polygon fill="#ffffff" stroke="#000000" points="307.9973,-297.7003 177.4495,-297.7003 177.4495,-222.2997 307.9973,-222.2997 307.9973,-297.7003"/>
<text text-anchor="middle" x="242.7234" y="-281" font-family="Times,serif" font-size="14.00" fill="#000000">GO:0016278</text>
<text text-anchor="middle" x="242.7234" y="-264.2" font-family="Times,serif" font-size="14.00" fill="#000000">lysine</text>
<text text-anchor="middle" x="242.7234" y="-247.4" font-family="Times,serif" font-size="14.00" fill="#000000">N&#45;methyltransferase</text>
<text text-anchor="middle" x="242.7234" y="-230.6" font-family="Times,serif" font-size="14.00" fill="#000000">activity</text>
</g>
<!-- GO:0016279&#45;&gt;GO:0016278 -->
<g id="edge5" class="edge">
<title>GO:0016279&#45;&gt;GO:0016278</title>
<path fill="none" stroke="#000000" d="M242.7234,-186.4472C242.7234,-194.78 242.7234,-203.7155 242.7234,-212.3863"/>
<polygon fill="#000000" stroke="#000000" points="239.2235,-212.3915 242.7234,-222.3915 246.2235,-212.3916 239.2235,-212.3915"/>
</g>
<!-- GO:0008168 -->
<g id="node6" class="node">
<title>GO:0008168</title>
<polygon fill="#ffffff" stroke="#000000" points="238.2309,-520.2014 123.2159,-520.2014 123.2159,-461.3986 238.2309,-461.3986 238.2309,-520.2014"/>
<text text-anchor="middle" x="180.7234" y="-503.4" font-family="Times,serif" font-size="14.00" fill="#000000">GO:0008168</text>
<text text-anchor="middle" x="180.7234" y="-486.6" font-family="Times,serif" font-size="14.00" fill="#000000">methyltransferase</text>
<text text-anchor="middle" x="180.7234" y="-469.8" font-family="Times,serif" font-size="14.00" fill="#000000">activity</text>
</g>
<!-- GO:0008276&#45;&gt;GO:0008168 -->
<g id="edge6" class="edge">
<title>GO:0008276&#45;&gt;GO:0008168</title>
<path fill="none" stroke="#000000" d="M76.6129,-289.253C74.3095,-324.0191 74.922,-382.7107 98.7234,-425.6 104.8516,-436.6427 113.6882,-446.4918 123.3131,-454.9824"/>
<polygon fill="#000000" stroke="#000000" points="121.2337,-457.805 131.1644,-461.4973 125.7037,-452.418 121.2337,-457.805"/>
</g>
<!-- GO:0008757 -->
<g id="node7" class="node">
<title>GO:0008757</title>
<polygon fill="#ffffff" stroke="#000000" points="253.5833,-425.6 107.8635,-425.6 107.8635,-333.6 253.5833,-333.6 253.5833,-425.6"/>
<text text-anchor="middle" x="180.7234" y="-409" font-family="Times,serif" font-size="14.00" fill="#000000">GO:0008757</text>
<text text-anchor="middle" x="180.7234" y="-392.2" font-family="Times,serif" font-size="14.00" fill="#000000">S&#45;adenosylmethionine&#45;</text>
<text text-anchor="middle" x="180.7234" y="-375.4" font-family="Times,serif" font-size="14.00" fill="#000000">dependent</text>
<text text-anchor="middle" x="180.7234" y="-358.6" font-family="Times,serif" font-size="14.00" fill="#000000">methyltransferase</text>
<text text-anchor="middle" x="180.7234" y="-341.8" font-family="Times,serif" font-size="14.00" fill="#000000">activity</text>
</g>
<!-- GO:0016278&#45;&gt;GO:0008757 -->
<g id="edge7" class="edge">
<title>GO:0016278&#45;&gt;GO:0008757</title>
<path fill="none" stroke="#000000" d="M223.1062,-297.8422C218.7426,-306.2598 214.0295,-315.3514 209.3867,-324.3075"/>
<polygon fill="#000000" stroke="#000000" points="206.278,-322.6995 204.783,-333.1883 212.4926,-325.9212 206.278,-322.6995"/>
</g>
<!-- GO:0008170 -->
<g id="node8" class="node">
<title>GO:0008170</title>
<polygon fill="#ffffff" stroke="#000000" points="401.9973,-409.0014 271.4495,-409.0014 271.4495,-350.1986 401.9973,-350.1986 401.9973,-409.0014"/>
<text text-anchor="middle" x="336.7234" y="-392.2" font-family="Times,serif" font-size="14.00" fill="#000000">GO:0008170</text>
<text text-anchor="middle" x="336.7234" y="-375.4" font-family="Times,serif" font-size="14.00" fill="#000000">N&#45;methyltransferase</text>
<text text-anchor="middle" x="336.7234" y="-358.6" font-family="Times,serif" font-size="14.00" fill="#000000">activity</text>
</g>
<!-- GO:0016278&#45;&gt;GO:0008170 -->
<g id="edge8" class="edge">
<title>GO:0016278&#45;&gt;GO:0008170</title>
<path fill="none" stroke="#000000" d="M272.4656,-297.8422C283.6164,-312.0298 296.2721,-328.1322 307.386,-342.2728"/>
<polygon fill="#000000" stroke="#000000" points="304.7972,-344.6431 313.7284,-350.3425 310.3008,-340.3175 304.7972,-344.6431"/>
</g>
<!-- GO:0016741 -->
<g id="node9" class="node">
<title>GO:0016741</title>
<polygon fill="#ffffff" stroke="#000000" points="254.486,-631.3003 106.9608,-631.3003 106.9608,-555.8997 254.486,-555.8997 254.486,-631.3003"/>
<text text-anchor="middle" x="180.7234" y="-614.6" font-family="Times,serif" font-size="14.00" fill="#000000">GO:0016741</text>
<text text-anchor="middle" x="180.7234" y="-597.8" font-family="Times,serif" font-size="14.00" fill="#000000">transferase activity,</text>
<text text-anchor="middle" x="180.7234" y="-581" font-family="Times,serif" font-size="14.00" fill="#000000">transferring one&#45;carbon</text>
<text text-anchor="middle" x="180.7234" y="-564.2" font-family="Times,serif" font-size="14.00" fill="#000000">groups</text>
</g>
<!-- GO:0008168&#45;&gt;GO:0016741 -->
<g id="edge9" class="edge">
<title>GO:0008168&#45;&gt;GO:0016741</title>
<path fill="none" stroke="#000000" d="M180.7234,-520.2584C180.7234,-528.1901 180.7234,-536.98 180.7234,-545.6392"/>
<polygon fill="#000000" stroke="#000000" points="177.2235,-545.6849 180.7234,-555.685 184.2235,-545.685 177.2235,-545.6849"/>
</g>
<!-- GO:0008757&#45;&gt;GO:0008168 -->
<g id="edge10" class="edge">
<title>GO:0008757&#45;&gt;GO:0008168</title>
<path fill="none" stroke="#000000" d="M180.7234,-425.7928C180.7234,-434.268 180.7234,-443.0437 180.7234,-451.3009"/>
<polygon fill="#000000" stroke="#000000" points="177.2235,-451.421 180.7234,-461.421 184.2235,-451.421 177.2235,-451.421"/>
</g>
<!-- GO:0008170&#45;&gt;GO:0008168 -->
<g id="edge11" class="edge">
<title>GO:0008170&#45;&gt;GO:0008168</title>
<path fill="none" stroke="#000000" d="M295.7362,-408.8165C275.5735,-423.1889 251.1152,-440.6233 229.946,-455.7131"/>
<polygon fill="#000000" stroke="#000000" points="227.8188,-452.9312 221.7074,-461.5858 231.882,-458.6313 227.8188,-452.9312"/>
</g>
<!-- GO:0016740 -->
<g id="node10" class="node">
<title>GO:0016740</title>
<polygon fill="#ffffff" stroke="#000000" points="241.8351,-717.0019 119.6117,-717.0019 119.6117,-675.7981 241.8351,-675.7981 241.8351,-717.0019"/>
<text text-anchor="middle" x="180.7234" y="-700.6" font-family="Times,serif" font-size="14.00" fill="#000000">GO:0016740</text>
<text text-anchor="middle" x="180.7234" y="-683.8" font-family="Times,serif" font-size="14.00" fill="#000000">transferase activity</text>
</g>
<!-- GO:0016741&#45;&gt;GO:0016740 -->
<g id="edge12" class="edge">
<title>GO:0016741&#45;&gt;GO:0016740</title>
<path fill="none" stroke="#000000" d="M180.7234,-631.2952C180.7234,-642.5552 180.7234,-654.7618 180.7234,-665.5299"/>
<polygon fill="#000000" stroke="#000000" points="177.2235,-665.7302 180.7234,-675.7302 184.2235,-665.7302 177.2235,-665.7302"/>
</g>
<!-- GO:0003824 -->
<g id="node11" class="node">
<title>GO:0003824</title>
<polygon fill="#ffa500" stroke="#000000" points="344.1358,-803.0019 235.311,-803.0019 235.311,-761.7981 344.1358,-761.7981 344.1358,-803.0019"/>
<text text-anchor="middle" x="289.7234" y="-786.6" font-family="Times,serif" font-size="14.00" fill="#000000">GO:0003824</text>
<text text-anchor="middle" x="289.7234" y="-769.8" font-family="Times,serif" font-size="14.00" fill="#000000">catalytic activity</text>
</g>
<!-- GO:0016740&#45;&gt;GO:0003824 -->
<g id="edge13" class="edge">
<title>GO:0016740&#45;&gt;GO:0003824</title>
<path fill="none" stroke="#000000" d="M207.1093,-717.2182C221.7029,-728.7325 240.0002,-743.1688 255.6634,-755.5269"/>
<polygon fill="#000000" stroke="#000000" points="253.5619,-758.3271 263.5805,-761.7735 257.8978,-752.8316 253.5619,-758.3271"/>
</g>
<!-- GO:0003674 -->
<g id="node12" class="node">
<title>GO:0003674</title>
<polygon fill="#ffffff" stroke="#000000" points="410.3565,-880.6019 285.0903,-880.6019 285.0903,-839.3981 410.3565,-839.3981 410.3565,-880.6019"/>
<text text-anchor="middle" x="347.7234" y="-864.2" font-family="Times,serif" font-size="14.00" fill="#000000">GO:0003674</text>
<text text-anchor="middle" x="347.7234" y="-847.4" font-family="Times,serif" font-size="14.00" fill="#000000">molecular_function</text>
</g>
<!-- GO:0003824&#45;&gt;GO:0003674 -->
<g id="edge14" class="edge">
<title>GO:0003824&#45;&gt;GO:0003674</title>
<path fill="none" stroke="#000000" d="M305.2663,-803.1954C311.6376,-811.7197 319.1225,-821.7339 326.0186,-830.9605"/>
<polygon fill="#000000" stroke="#000000" points="323.3473,-833.2327 332.1376,-839.1472 328.9542,-829.0419 323.3473,-833.2327"/>
</g>
<!-- GO:0044877 -->
<g id="node13" class="node">
<title>GO:0044877</title>
<polygon fill="#ffa500" stroke="#000000" points="417.8907,-725.8014 259.5561,-725.8014 259.5561,-666.9986 417.8907,-666.9986 417.8907,-725.8014"/>
<text text-anchor="middle" x="338.7234" y="-709" font-family="Times,serif" font-size="14.00" fill="#000000">GO:0044877</text>
<text text-anchor="middle" x="338.7234" y="-692.2" font-family="Times,serif" font-size="14.00" fill="#000000">macromolecular complex</text>
<text text-anchor="middle" x="338.7234" y="-675.4" font-family="Times,serif" font-size="14.00" fill="#000000">binding</text>
</g>
<!-- GO:0005488 -->
<g id="node14" class="node">
<title>GO:0005488</title>
<polygon fill="#ffffff" stroke="#000000" points="471.3273,-803.0019 382.1195,-803.0019 382.1195,-761.7981 471.3273,-761.7981 471.3273,-803.0019"/>
<text text-anchor="middle" x="426.7234" y="-786.6" font-family="Times,serif" font-size="14.00" fill="#000000">GO:0005488</text>
<text text-anchor="middle" x="426.7234" y="-769.8" font-family="Times,serif" font-size="14.00" fill="#000000">binding</text>
</g>
<!-- GO:0044877&#45;&gt;GO:0005488 -->
<g id="edge15" class="edge">
<title>GO:0044877&#45;&gt;GO:0005488</title>
<path fill="none" stroke="#000000" d="M369.008,-725.9963C378.5017,-735.2742 388.9419,-745.4772 398.3021,-754.6246"/>
<polygon fill="#000000" stroke="#000000" points="395.9403,-757.2104 405.5385,-761.6966 400.8329,-752.204 395.9403,-757.2104"/>
</g>
<!-- GO:0005488&#45;&gt;GO:0003674 -->
<g id="edge16" class="edge">
<title>GO:0005488&#45;&gt;GO:0003674</title>
<path fill="none" stroke="#000000" d="M405.5528,-803.1954C396.5205,-812.0677 385.8451,-822.5539 376.1408,-832.0862"/>
<polygon fill="#000000" stroke="#000000" points="373.6338,-829.6427 368.9524,-839.1472 378.5391,-834.6365 373.6338,-829.6427"/>
</g>
<!-- GO:0003676 -->
<g id="node15" class="node">
<title>GO:0003676</title>
<polygon fill="#ffa500" stroke="#000000" points="741.2503,-614.2019 612.1965,-614.2019 612.1965,-572.9981 741.2503,-572.9981 741.2503,-614.2019"/>
<text text-anchor="middle" x="676.7234" y="-597.8" font-family="Times,serif" font-size="14.00" fill="#000000">GO:0003676</text>
<text text-anchor="middle" x="676.7234" y="-581" font-family="Times,serif" font-size="14.00" fill="#000000">nucleic acid binding</text>
</g>
<!-- GO:0097159 -->
<g id="node16" class="node">
<title>GO:0097159</title>
<polygon fill="#ffa500" stroke="#000000" points="593.2348,-725.8014 436.212,-725.8014 436.212,-666.9986 593.2348,-666.9986 593.2348,-725.8014"/>
<text text-anchor="middle" x="514.7234" y="-709" font-family="Times,serif" font-size="14.00" fill="#000000">GO:0097159</text>
<text text-anchor="middle" x="514.7234" y="-692.2" font-family="Times,serif" font-size="14.00" fill="#000000">organic cyclic compound</text>
<text text-anchor="middle" x="514.7234" y="-675.4" font-family="Times,serif" font-size="14.00" fill="#000000">binding</text>
</g>
<!-- GO:0003676&#45;&gt;GO:0097159 -->
<g id="edge17" class="edge">
<title>GO:0003676&#45;&gt;GO:0097159</title>
<path fill="none" stroke="#000000" d="M643.9403,-614.4031C622.6027,-627.9432 594.2465,-645.9372 569.5346,-661.6186"/>
<polygon fill="#000000" stroke="#000000" points="567.5313,-658.7445 560.9632,-667.0577 571.2819,-664.655 567.5313,-658.7445"/>
</g>
<!-- GO:1901363 -->
<g id="node17" class="node">
<title>GO:1901363</title>
<polygon fill="#ffa500" stroke="#000000" points="758.234,-725.8014 611.2128,-725.8014 611.2128,-666.9986 758.234,-666.9986 758.234,-725.8014"/>
<text text-anchor="middle" x="684.7234" y="-709" font-family="Times,serif" font-size="14.00" fill="#000000">GO:1901363</text>
<text text-anchor="middle" x="684.7234" y="-692.2" font-family="Times,serif" font-size="14.00" fill="#000000">heterocyclic compound</text>
<text text-anchor="middle" x="684.7234" y="-675.4" font-family="Times,serif" font-size="14.00" fill="#000000">binding</text>
</g>
<!-- GO:0003676&#45;&gt;GO:1901363 -->
<g id="edge18" class="edge">
<title>GO:0003676&#45;&gt;GO:1901363</title>
<path fill="none" stroke="#000000" d="M678.3423,-614.4031C679.2902,-626.5833 680.5185,-642.3676 681.6441,-656.8305"/>
<polygon fill="#000000" stroke="#000000" points="678.1746,-657.3595 682.44,-667.0577 685.1535,-656.8163 678.1746,-657.3595"/>
</g>
<!-- GO:0097159&#45;&gt;GO:0005488 -->
<g id="edge19" class="edge">
<title>GO:0097159&#45;&gt;GO:0005488</title>
<path fill="none" stroke="#000000" d="M484.4388,-725.9963C474.9451,-735.2742 464.5049,-745.4772 455.1447,-754.6246"/>
<polygon fill="#000000" stroke="#000000" points="452.6139,-752.204 447.9083,-761.6966 457.5065,-757.2104 452.6139,-752.204"/>
</g>
<!-- GO:1901363&#45;&gt;GO:0005488 -->
<g id="edge20" class="edge">
<title>GO:1901363&#45;&gt;GO:0005488</title>
<path fill="none" stroke="#000000" d="M611.0025,-722.7691C608.2094,-723.7309 605.4424,-724.6774 602.7234,-725.6 562.1825,-739.3566 516.1269,-754.192 481.2993,-765.2504"/>
<polygon fill="#000000" stroke="#000000" points="479.8051,-762.0523 471.3299,-768.4101 481.9201,-768.7252 479.8051,-762.0523"/>
</g>
<!-- GO:0003677 -->
<g id="node18" class="node">
<title>GO:0003677</title>
<polygon fill="#ffa500" stroke="#000000" points="717.8253,-511.4019 625.6215,-511.4019 625.6215,-470.1981 717.8253,-470.1981 717.8253,-511.4019"/>
<text text-anchor="middle" x="671.7234" y="-495" font-family="Times,serif" font-size="14.00" fill="#000000">GO:0003677</text>
<text text-anchor="middle" x="671.7234" y="-478.2" font-family="Times,serif" font-size="14.00" fill="#000000">DNA binding</text>
</g>
<!-- GO:0003677&#45;&gt;GO:0003676 -->
<g id="edge21" class="edge">
<title>GO:0003677&#45;&gt;GO:0003676</title>
<path fill="none" stroke="#000000" d="M672.7352,-511.6031C673.4468,-526.2337 674.4113,-546.0642 675.2136,-562.5586"/>
<polygon fill="#000000" stroke="#000000" points="671.7313,-563.0097 675.7131,-572.8278 678.723,-562.6696 671.7313,-563.0097"/>
</g>
<!-- GO:0003690 -->
<g id="node19" class="node">
<title>GO:0003690</title>
<polygon fill="#ffa500" stroke="#000000" points="576.734,-409.0014 436.7128,-409.0014 436.7128,-350.1986 576.734,-350.1986 576.734,-409.0014"/>
<text text-anchor="middle" x="506.7234" y="-392.2" font-family="Times,serif" font-size="14.00" fill="#000000">GO:0003690</text>
<text text-anchor="middle" x="506.7234" y="-375.4" font-family="Times,serif" font-size="14.00" fill="#000000">double&#45;stranded DNA</text>
<text text-anchor="middle" x="506.7234" y="-358.6" font-family="Times,serif" font-size="14.00" fill="#000000">binding</text>
</g>
<!-- GO:0003690&#45;&gt;GO:0003677 -->
<g id="edge22" class="edge">
<title>GO:0003690&#45;&gt;GO:0003677</title>
<path fill="none" stroke="#000000" d="M550.0752,-408.8165C575.6132,-426.0276 607.6665,-447.6296 632.4589,-464.3381"/>
<polygon fill="#000000" stroke="#000000" points="630.6542,-467.3425 640.9029,-470.0288 634.5663,-461.5377 630.6542,-467.3425"/>
</g>
<!-- GO:0000403 -->
<g id="node20" class="node">
<title>GO:0000403</title>
<polygon fill="#ffa500" stroke="#000000" points="733.8034,-169.4019 595.6434,-169.4019 595.6434,-128.1981 733.8034,-128.1981 733.8034,-169.4019"/>
<text text-anchor="middle" x="664.7234" y="-153" font-family="Times,serif" font-size="14.00" fill="#000000">GO:0000403</text>
<text text-anchor="middle" x="664.7234" y="-136.2" font-family="Times,serif" font-size="14.00" fill="#000000">Y&#45;form DNA binding</text>
</g>
<!-- GO:0000217 -->
<g id="node21" class="node">
<title>GO:0000217</title>
<polygon fill="#ffffff" stroke="#000000" points="744.2684,-289.4014 585.1784,-289.4014 585.1784,-230.5986 744.2684,-230.5986 744.2684,-289.4014"/>
<text text-anchor="middle" x="664.7234" y="-272.6" font-family="Times,serif" font-size="14.00" fill="#000000">GO:0000217</text>
<text text-anchor="middle" x="664.7234" y="-255.8" font-family="Times,serif" font-size="14.00" fill="#000000">DNA secondary structure</text>
<text text-anchor="middle" x="664.7234" y="-239" font-family="Times,serif" font-size="14.00" fill="#000000">binding</text>
</g>
<!-- GO:0000403&#45;&gt;GO:0000217 -->
<g id="edge23" class="edge">
<title>GO:0000403&#45;&gt;GO:0000217</title>
<path fill="none" stroke="#000000" d="M664.7234,-169.4553C664.7234,-183.707 664.7234,-203.1101 664.7234,-220.2996"/>
<polygon fill="#000000" stroke="#000000" points="661.2235,-220.6505 664.7234,-230.6506 668.2235,-220.6506 661.2235,-220.6505"/>
</g>
<!-- GO:0043566 -->
<g id="node22" class="node">
<title>GO:0043566</title>
<polygon fill="#ffffff" stroke="#000000" points="741.2102,-409.0014 594.2366,-409.0014 594.2366,-350.1986 741.2102,-350.1986 741.2102,-409.0014"/>
<text text-anchor="middle" x="667.7234" y="-392.2" font-family="Times,serif" font-size="14.00" fill="#000000">GO:0043566</text>
<text text-anchor="middle" x="667.7234" y="-375.4" font-family="Times,serif" font-size="14.00" fill="#000000">structure&#45;specific DNA</text>
<text text-anchor="middle" x="667.7234" y="-358.6" font-family="Times,serif" font-size="14.00" fill="#000000">binding</text>
</g>
<!-- GO:0000217&#45;&gt;GO:0043566 -->
<g id="edge24" class="edge">
<title>GO:0000217&#45;&gt;GO:0043566</title>
<path fill="none" stroke="#000000" d="M665.4573,-289.2575C665.8386,-304.4608 666.3103,-323.2644 666.7244,-339.7735"/>
<polygon fill="#000000" stroke="#000000" points="663.2369,-340.321 666.9867,-350.2301 670.2347,-340.1454 663.2369,-340.321"/>
</g>
<!-- GO:0043566&#45;&gt;GO:0003677 -->
<g id="edge25" class="edge">
<title>GO:0043566&#45;&gt;GO:0003677</title>
<path fill="none" stroke="#000000" d="M668.7744,-408.8165C669.3348,-424.397 670.0247,-443.5758 670.5963,-459.4653"/>
<polygon fill="#000000" stroke="#000000" points="667.1127,-459.9879 670.97,-469.8556 674.1082,-459.7362 667.1127,-459.9879"/>
</g>
<!-- GO:0044212 -->
<g id="node23" class="node">
<title>GO:0044212</title>
<polygon fill="#ffa500" stroke="#000000" points="909.5126,-289.4014 761.9342,-289.4014 761.9342,-230.5986 909.5126,-230.5986 909.5126,-289.4014"/>
<text text-anchor="middle" x="835.7234" y="-272.6" font-family="Times,serif" font-size="14.00" fill="#000000">GO:0044212</text>
<text text-anchor="middle" x="835.7234" y="-255.8" font-family="Times,serif" font-size="14.00" fill="#000000">transcription regulatory</text>
<text text-anchor="middle" x="835.7234" y="-239" font-family="Times,serif" font-size="14.00" fill="#000000">region DNA binding</text>
</g>
<!-- GO:0000975 -->
<g id="node24" class="node">
<title>GO:0000975</title>
<polygon fill="#ffffff" stroke="#000000" points="905.8411,-409.0014 759.6057,-409.0014 759.6057,-350.1986 905.8411,-350.1986 905.8411,-409.0014"/>
<text text-anchor="middle" x="832.7234" y="-392.2" font-family="Times,serif" font-size="14.00" fill="#000000">GO:0000975</text>
<text text-anchor="middle" x="832.7234" y="-375.4" font-family="Times,serif" font-size="14.00" fill="#000000">regulatory region DNA</text>
<text text-anchor="middle" x="832.7234" y="-358.6" font-family="Times,serif" font-size="14.00" fill="#000000">binding</text>
</g>
<!-- GO:0044212&#45;&gt;GO:0000975 -->
<g id="edge26" class="edge">
<title>GO:0044212&#45;&gt;GO:0000975</title>
<path fill="none" stroke="#000000" d="M834.9895,-289.2575C834.6082,-304.4608 834.1365,-323.2644 833.7224,-339.7735"/>
<polygon fill="#000000" stroke="#000000" points="830.2121,-340.1454 833.4601,-350.2301 837.2099,-340.321 830.2121,-340.1454"/>
</g>
<!-- GO:0000975&#45;&gt;GO:0003677 -->
<g id="edge28" class="edge">
<title>GO:0000975&#45;&gt;GO:0003677</title>
<path fill="none" stroke="#000000" d="M790.4225,-408.8165C765.5036,-426.0276 734.2274,-447.6296 710.036,-464.3381"/>
<polygon fill="#000000" stroke="#000000" points="708.0359,-461.4659 701.7968,-470.0288 712.014,-467.2256 708.0359,-461.4659"/>
</g>
<!-- GO:0001067 -->
<g id="node25" class="node">
<title>GO:0001067</title>
<polygon fill="#ffffff" stroke="#000000" points="903.946,-520.2014 747.5008,-520.2014 747.5008,-461.3986 903.946,-461.3986 903.946,-520.2014"/>
<text text-anchor="middle" x="825.7234" y="-503.4" font-family="Times,serif" font-size="14.00" fill="#000000">GO:0001067</text>
<text text-anchor="middle" x="825.7234" y="-486.6" font-family="Times,serif" font-size="14.00" fill="#000000">regulatory region nucleic</text>
<text text-anchor="middle" x="825.7234" y="-469.8" font-family="Times,serif" font-size="14.00" fill="#000000">acid binding</text>
</g>
<!-- GO:0000975&#45;&gt;GO:0001067 -->
<g id="edge27" class="edge">
<title>GO:0000975&#45;&gt;GO:0001067</title>
<path fill="none" stroke="#000000" d="M830.8842,-408.8165C830.0708,-421.7386 829.1015,-437.1358 828.2238,-451.0788"/>
<polygon fill="#000000" stroke="#000000" points="824.7098,-451.1924 827.5746,-461.3926 831.696,-451.6322 824.7098,-451.1924"/>
</g>
<!-- GO:0001067&#45;&gt;GO:0003676 -->
<g id="edge29" class="edge">
<title>GO:0001067&#45;&gt;GO:0003676</title>
<path fill="none" stroke="#000000" d="M783.026,-520.2584C761.5609,-535.0678 735.7597,-552.8689 714.952,-567.2249"/>
<polygon fill="#000000" stroke="#000000" points="712.9036,-564.3858 706.6602,-572.9456 716.8789,-570.1476 712.9036,-564.3858"/>
</g>
<!-- GO:0003682 -->
<g id="node26" class="node">
<title>GO:0003682</title>
<polygon fill="#ffa500" stroke="#000000" points="398.2662,-614.2019 279.1806,-614.2019 279.1806,-572.9981 398.2662,-572.9981 398.2662,-614.2019"/>
<text text-anchor="middle" x="338.7234" y="-597.8" font-family="Times,serif" font-size="14.00" fill="#000000">GO:0003682</text>
<text text-anchor="middle" x="338.7234" y="-581" font-family="Times,serif" font-size="14.00" fill="#000000">chromatin binding</text>
</g>
<!-- GO:0003682&#45;&gt;GO:0044877 -->
<g id="edge30" class="edge">
<title>GO:0003682&#45;&gt;GO:0044877</title>
<path fill="none" stroke="#000000" d="M338.7234,-614.4031C338.7234,-626.5833 338.7234,-642.3676 338.7234,-656.8305"/>
<polygon fill="#000000" stroke="#000000" points="335.2235,-657.0577 338.7234,-667.0577 342.2235,-657.0578 335.2235,-657.0577"/>
</g>
</g>
</svg>
