<?xml version="1.0" encoding="UTF-8" standalone="no"?>
<!DOCTYPE svg PUBLIC "-//W3C//DTD SVG 1.1//EN"
 "http://www.w3.org/Graphics/SVG/1.1/DTD/svg11.dtd">
<!-- Generated by graphviz version 2.40.1 (20161225.0304)
 -->
<!-- Title: G Pages: 1 -->
<svg width="546pt" height="549pt"
 viewBox="0.00 0.00 545.77 548.80" xmlns="http://www.w3.org/2000/svg" xmlns:xlink="http://www.w3.org/1999/xlink">
<g id="graph0" class="graph" transform="scale(1 1) rotate(0) translate(4 544.8)">
<title>G</title>
<polygon fill="#ffffff" stroke="transparent" points="-4,4 -4,-544.8 541.7743,-544.8 541.7743,4 -4,4"/>
<!-- GO:0000785 -->
<g id="node1" class="node">
<title>GO:0000785</title>
<polygon fill="#ff0000" stroke="#000000" points="340.213,-135.8019 251.0052,-135.8019 251.0052,-94.5981 340.213,-94.5981 340.213,-135.8019"/>
<text text-anchor="middle" x="295.6091" y="-119.4" font-family="Times,serif" font-size="14.00" fill="#000000">GO:0000785</text>
<text text-anchor="middle" x="295.6091" y="-102.6" font-family="Times,serif" font-size="14.00" fill="#000000">chromatin</text>
</g>
<!-- GO:0044427 -->
<g id="node2" class="node">
<title>GO:0044427</title>
<polygon fill="#ffffff" stroke="#000000" points="308.5821,-213.4019 190.6361,-213.4019 190.6361,-172.1981 308.5821,-172.1981 308.5821,-213.4019"/>
<text text-anchor="middle" x="249.6091" y="-197" font-family="Times,serif" font-size="14.00" fill="#000000">GO:0044427</text>
<text text-anchor="middle" x="249.6091" y="-180.2" font-family="Times,serif" font-size="14.00" fill="#000000">chromosomal part</text>
</g>
<!-- GO:0000785&#45;&gt;GO:0044427 -->
<g id="edge1" class="edge">
<title>GO:0000785&#45;&gt;GO:0044427</title>
<path fill="none" stroke="#000000" d="M283.2819,-135.9954C278.332,-144.3458 272.5345,-154.1258 267.1587,-163.1947"/>
<polygon fill="#000000" stroke="#000000" points="264.0588,-161.5603 261.9703,-171.9472 270.0803,-165.1298 264.0588,-161.5603"/>
</g>
<!-- GO:0032991 -->
<g id="node3" class="node">
<title>GO:0032991</title>
<polygon fill="#ffffff" stroke="#000000" points="429.7764,-385.4019 271.4418,-385.4019 271.4418,-344.1981 429.7764,-344.1981 429.7764,-385.4019"/>
<text text-anchor="middle" x="350.6091" y="-369" font-family="Times,serif" font-size="14.00" fill="#000000">GO:0032991</text>
<text text-anchor="middle" x="350.6091" y="-352.2" font-family="Times,serif" font-size="14.00" fill="#000000">macromolecular complex</text>
</g>
<!-- GO:0000785&#45;&gt;GO:0032991 -->
<g id="edge2" class="edge">
<title>GO:0000785&#45;&gt;GO:0032991</title>
<path fill="none" stroke="#000000" d="M304.6034,-135.9525C308.9657,-146.5858 314.0238,-159.8271 317.6091,-172 334.0967,-227.9788 343.3189,-295.6794 347.6004,-334.1411"/>
<polygon fill="#000000" stroke="#000000" points="344.1307,-334.611 348.679,-344.1798 351.0906,-333.8632 344.1307,-334.611"/>
</g>
<!-- GO:0044446 -->
<g id="node4" class="node">
<title>GO:0044446</title>
<polygon fill="#ffffff" stroke="#000000" points="139.3275,-308.2014 -.1093,-308.2014 -.1093,-249.3986 139.3275,-249.3986 139.3275,-308.2014"/>
<text text-anchor="middle" x="69.6091" y="-291.4" font-family="Times,serif" font-size="14.00" fill="#000000">GO:0044446</text>
<text text-anchor="middle" x="69.6091" y="-274.6" font-family="Times,serif" font-size="14.00" fill="#000000">intracellular organelle</text>
<text text-anchor="middle" x="69.6091" y="-257.8" font-family="Times,serif" font-size="14.00" fill="#000000">part</text>
</g>
<!-- GO:0044427&#45;&gt;GO:0044446 -->
<g id="edge3" class="edge">
<title>GO:0044427&#45;&gt;GO:0044446</title>
<path fill="none" stroke="#000000" d="M206.0361,-213.6182C186.1922,-223.0992 162.2016,-234.5614 139.9071,-245.2132"/>
<polygon fill="#000000" stroke="#000000" points="138.3182,-242.0933 130.804,-249.5624 141.3359,-248.4094 138.3182,-242.0933"/>
</g>
<!-- GO:0005575 -->
<g id="node5" class="node">
<title>GO:0005575</title>
<polygon fill="#ffffff" stroke="#000000" points="257.2958,-540.6019 129.9224,-540.6019 129.9224,-499.3981 257.2958,-499.3981 257.2958,-540.6019"/>
<text text-anchor="middle" x="193.6091" y="-524.2" font-family="Times,serif" font-size="14.00" fill="#000000">GO:0005575</text>
<text text-anchor="middle" x="193.6091" y="-507.4" font-family="Times,serif" font-size="14.00" fill="#000000">cellular_component</text>
</g>
<!-- GO:0032991&#45;&gt;GO:0005575 -->
<g id="edge4" class="edge">
<title>GO:0032991&#45;&gt;GO:0005575</title>
<path fill="none" stroke="#000000" d="M329.7607,-385.4094C302.0783,-412.7744 253.0782,-461.2127 222.0274,-491.9075"/>
<polygon fill="#000000" stroke="#000000" points="219.1949,-489.7861 214.5437,-499.3054 224.116,-494.7643 219.1949,-489.7861"/>
</g>
<!-- GO:0044424 -->
<g id="node6" class="node">
<title>GO:0044424</title>
<polygon fill="#ffffff" stroke="#000000" points="248.0075,-385.4019 139.2107,-385.4019 139.2107,-344.1981 248.0075,-344.1981 248.0075,-385.4019"/>
<text text-anchor="middle" x="193.6091" y="-369" font-family="Times,serif" font-size="14.00" fill="#000000">GO:0044424</text>
<text text-anchor="middle" x="193.6091" y="-352.2" font-family="Times,serif" font-size="14.00" fill="#000000">intracellular part</text>
</g>
<!-- GO:0044446&#45;&gt;GO:0044424 -->
<g id="edge5" class="edge">
<title>GO:0044446&#45;&gt;GO:0044424</title>
<path fill="none" stroke="#000000" d="M111.936,-308.1558C125.9965,-317.9074 141.5629,-328.7035 155.3022,-338.2323"/>
<polygon fill="#000000" stroke="#000000" points="153.3791,-341.1579 163.5909,-343.9809 157.3684,-335.4059 153.3791,-341.1579"/>
</g>
<!-- GO:0044422 -->
<g id="node7" class="node">
<title>GO:0044422</title>
<polygon fill="#ffffff" stroke="#000000" points="130.4612,-463.0019 36.757,-463.0019 36.757,-421.7981 130.4612,-421.7981 130.4612,-463.0019"/>
<text text-anchor="middle" x="83.6091" y="-446.6" font-family="Times,serif" font-size="14.00" fill="#000000">GO:0044422</text>
<text text-anchor="middle" x="83.6091" y="-429.8" font-family="Times,serif" font-size="14.00" fill="#000000">organelle part</text>
</g>
<!-- GO:0044446&#45;&gt;GO:0044422 -->
<g id="edge6" class="edge">
<title>GO:0044446&#45;&gt;GO:0044422</title>
<path fill="none" stroke="#000000" d="M72.112,-308.0484C74.6057,-337.1891 78.4199,-381.7603 80.9628,-411.4759"/>
<polygon fill="#000000" stroke="#000000" points="77.4973,-412.0304 81.8373,-421.6955 84.4719,-411.4335 77.4973,-412.0304"/>
</g>
<!-- GO:0044464 -->
<g id="node8" class="node">
<title>GO:0044464</title>
<polygon fill="#ffffff" stroke="#000000" points="238.213,-463.0019 149.0052,-463.0019 149.0052,-421.7981 238.213,-421.7981 238.213,-463.0019"/>
<text text-anchor="middle" x="193.6091" y="-446.6" font-family="Times,serif" font-size="14.00" fill="#000000">GO:0044464</text>
<text text-anchor="middle" x="193.6091" y="-429.8" font-family="Times,serif" font-size="14.00" fill="#000000">cell part</text>
</g>
<!-- GO:0044424&#45;&gt;GO:0044464 -->
<g id="edge7" class="edge">
<title>GO:0044424&#45;&gt;GO:0044464</title>
<path fill="none" stroke="#000000" d="M193.6091,-385.5954C193.6091,-393.5109 193.6091,-402.7109 193.6091,-411.3722"/>
<polygon fill="#000000" stroke="#000000" points="190.1092,-411.5472 193.6091,-421.5472 197.1092,-411.5473 190.1092,-411.5472"/>
</g>
<!-- GO:0044422&#45;&gt;GO:0005575 -->
<g id="edge8" class="edge">
<title>GO:0044422&#45;&gt;GO:0005575</title>
<path fill="none" stroke="#000000" d="M113.0871,-463.1954C126.157,-472.4156 141.6976,-483.3788 155.6238,-493.2031"/>
<polygon fill="#000000" stroke="#000000" points="153.8608,-496.2427 164.0497,-499.1472 157.896,-490.5227 153.8608,-496.2427"/>
</g>
<!-- GO:0044464&#45;&gt;GO:0005575 -->
<g id="edge19" class="edge">
<title>GO:0044464&#45;&gt;GO:0005575</title>
<path fill="none" stroke="#000000" d="M193.6091,-463.1954C193.6091,-471.1109 193.6091,-480.3109 193.6091,-488.9722"/>
<polygon fill="#000000" stroke="#000000" points="190.1092,-489.1472 193.6091,-499.1472 197.1092,-489.1473 190.1092,-489.1472"/>
</g>
<!-- GO:0043234 -->
<g id="node9" class="node">
<title>GO:0043234</title>
<polygon fill="#ff0000" stroke="#000000" points="512.4765,-299.4019 404.7417,-299.4019 404.7417,-258.1981 512.4765,-258.1981 512.4765,-299.4019"/>
<text text-anchor="middle" x="458.6091" y="-283" font-family="Times,serif" font-size="14.00" fill="#000000">GO:0043234</text>
<text text-anchor="middle" x="458.6091" y="-266.2" font-family="Times,serif" font-size="14.00" fill="#000000">protein complex</text>
</g>
<!-- GO:0043234&#45;&gt;GO:0032991 -->
<g id="edge9" class="edge">
<title>GO:0043234&#45;&gt;GO:0032991</title>
<path fill="none" stroke="#000000" d="M432.4653,-299.6182C418.0055,-311.1325 399.8761,-325.5688 384.3567,-337.9269"/>
<polygon fill="#000000" stroke="#000000" points="382.1547,-335.2062 376.5121,-344.1735 386.5152,-340.6822 382.1547,-335.2062"/>
</g>
<!-- GO:0035097 -->
<g id="node10" class="node">
<title>GO:0035097</title>
<polygon fill="#ff0000" stroke="#000000" points="461.5565,-58.6014 301.6617,-58.6014 301.6617,.2014 461.5565,.2014 461.5565,-58.6014"/>
<text text-anchor="middle" x="381.6091" y="-41.8" font-family="Times,serif" font-size="14.00" fill="#000000">GO:0035097</text>
<text text-anchor="middle" x="381.6091" y="-25" font-family="Times,serif" font-size="14.00" fill="#000000">histone methyltransferase</text>
<text text-anchor="middle" x="381.6091" y="-8.2" font-family="Times,serif" font-size="14.00" fill="#000000">complex</text>
</g>
<!-- GO:0044451 -->
<g id="node11" class="node">
<title>GO:0044451</title>
<polygon fill="#ffffff" stroke="#000000" points="205.6351,-135.8019 93.5831,-135.8019 93.5831,-94.5981 205.6351,-94.5981 205.6351,-135.8019"/>
<text text-anchor="middle" x="149.6091" y="-119.4" font-family="Times,serif" font-size="14.00" fill="#000000">GO:0044451</text>
<text text-anchor="middle" x="149.6091" y="-102.6" font-family="Times,serif" font-size="14.00" fill="#000000">nucleoplasm part</text>
</g>
<!-- GO:0035097&#45;&gt;GO:0044451 -->
<g id="edge10" class="edge">
<title>GO:0035097&#45;&gt;GO:0044451</title>
<path fill="none" stroke="#000000" d="M302.7408,-58.4357C274.069,-69.064 242.0139,-80.9465 214.6707,-91.0823"/>
<polygon fill="#000000" stroke="#000000" points="213.3688,-87.8321 205.2088,-94.5898 215.8019,-94.3957 213.3688,-87.8321"/>
</g>
<!-- GO:1990234 -->
<g id="node12" class="node">
<title>GO:1990234</title>
<polygon fill="#ffffff" stroke="#000000" points="537.9399,-135.8019 409.2783,-135.8019 409.2783,-94.5981 537.9399,-94.5981 537.9399,-135.8019"/>
<text text-anchor="middle" x="473.6091" y="-119.4" font-family="Times,serif" font-size="14.00" fill="#000000">GO:1990234</text>
<text text-anchor="middle" x="473.6091" y="-102.6" font-family="Times,serif" font-size="14.00" fill="#000000">transferase complex</text>
</g>
<!-- GO:0035097&#45;&gt;GO:1990234 -->
<g id="edge11" class="edge">
<title>GO:0035097&#45;&gt;GO:1990234</title>
<path fill="none" stroke="#000000" d="M413.013,-58.5558C423.0513,-67.9394 434.1242,-78.2902 444.0282,-87.5483"/>
<polygon fill="#000000" stroke="#000000" points="441.6421,-90.1089 451.3375,-94.3809 446.4224,-84.9952 441.6421,-90.1089"/>
</g>
<!-- GO:0034708 -->
<g id="node13" class="node">
<title>GO:0034708</title>
<polygon fill="#ffffff" stroke="#000000" points="324.326,-299.4019 156.8922,-299.4019 156.8922,-258.1981 324.326,-258.1981 324.326,-299.4019"/>
<text text-anchor="middle" x="240.6091" y="-283" font-family="Times,serif" font-size="14.00" fill="#000000">GO:0034708</text>
<text text-anchor="middle" x="240.6091" y="-266.2" font-family="Times,serif" font-size="14.00" fill="#000000">methyltransferase complex</text>
</g>
<!-- GO:0035097&#45;&gt;GO:0034708 -->
<g id="edge12" class="edge">
<title>GO:0035097&#45;&gt;GO:0034708</title>
<path fill="none" stroke="#000000" d="M376.9303,-58.5049C369.6151,-97.099 352.5306,-165.6698 317.6091,-213.6 307.1877,-227.9035 292.9991,-241.0721 279.64,-251.7739"/>
<polygon fill="#000000" stroke="#000000" points="277.2297,-249.2138 271.4703,-258.1065 281.5182,-254.7463 277.2297,-249.2138"/>
</g>
<!-- GO:0044428 -->
<g id="node14" class="node">
<title>GO:0044428</title>
<polygon fill="#ff0000" stroke="#000000" points="160.213,-213.4019 71.0052,-213.4019 71.0052,-172.1981 160.213,-172.1981 160.213,-213.4019"/>
<text text-anchor="middle" x="115.6091" y="-197" font-family="Times,serif" font-size="14.00" fill="#000000">GO:0044428</text>
<text text-anchor="middle" x="115.6091" y="-180.2" font-family="Times,serif" font-size="14.00" fill="#000000">nuclear part</text>
</g>
<!-- GO:0044451&#45;&gt;GO:0044428 -->
<g id="edge13" class="edge">
<title>GO:0044451&#45;&gt;GO:0044428</title>
<path fill="none" stroke="#000000" d="M140.4977,-135.9954C136.9153,-144.1718 132.7323,-153.7189 128.8292,-162.627"/>
<polygon fill="#000000" stroke="#000000" points="125.553,-161.3832 124.7456,-171.9472 131.9646,-164.1924 125.553,-161.3832"/>
</g>
<!-- GO:1902494 -->
<g id="node15" class="node">
<title>GO:1902494</title>
<polygon fill="#ffffff" stroke="#000000" points="528.2404,-213.4019 412.9778,-213.4019 412.9778,-172.1981 528.2404,-172.1981 528.2404,-213.4019"/>
<text text-anchor="middle" x="470.6091" y="-197" font-family="Times,serif" font-size="14.00" fill="#000000">GO:1902494</text>
<text text-anchor="middle" x="470.6091" y="-180.2" font-family="Times,serif" font-size="14.00" fill="#000000">catalytic complex</text>
</g>
<!-- GO:1990234&#45;&gt;GO:1902494 -->
<g id="edge14" class="edge">
<title>GO:1990234&#45;&gt;GO:1902494</title>
<path fill="none" stroke="#000000" d="M472.8052,-135.9954C472.4991,-143.9109 472.1435,-153.1109 471.8086,-161.7722"/>
<polygon fill="#000000" stroke="#000000" points="468.3043,-161.8194 471.4153,-171.9472 475.2991,-162.0899 468.3043,-161.8194"/>
</g>
<!-- GO:0034708&#45;&gt;GO:0032991 -->
<g id="edge16" class="edge">
<title>GO:0034708&#45;&gt;GO:0032991</title>
<path fill="none" stroke="#000000" d="M267.237,-299.6182C281.9646,-311.1325 300.4297,-325.5688 316.2366,-337.9269"/>
<polygon fill="#000000" stroke="#000000" points="314.1926,-340.7716 324.2264,-344.1735 318.504,-335.2569 314.1926,-340.7716"/>
</g>
<!-- GO:0034708&#45;&gt;GO:0044424 -->
<g id="edge15" class="edge">
<title>GO:0034708&#45;&gt;GO:0044424</title>
<path fill="none" stroke="#000000" d="M229.2317,-299.6182C223.4009,-310.2874 216.1989,-323.4655 209.7999,-335.1743"/>
<polygon fill="#000000" stroke="#000000" points="206.6062,-333.7199 204.8817,-344.1735 212.7487,-337.077 206.6062,-333.7199"/>
</g>
<!-- GO:0044428&#45;&gt;GO:0044446 -->
<g id="edge17" class="edge">
<title>GO:0044428&#45;&gt;GO:0044446</title>
<path fill="none" stroke="#000000" d="M104.4738,-213.6182C100.1663,-221.6714 95.0942,-231.1539 90.1726,-240.3551"/>
<polygon fill="#000000" stroke="#000000" points="86.9655,-238.9305 85.3351,-249.3991 93.138,-242.2321 86.9655,-238.9305"/>
</g>
<!-- GO:1902494&#45;&gt;GO:0043234 -->
<g id="edge18" class="edge">
<title>GO:1902494&#45;&gt;GO:0043234</title>
<path fill="none" stroke="#000000" d="M467.7042,-213.6182C466.2597,-223.9705 464.4856,-236.6848 462.889,-248.1271"/>
<polygon fill="#000000" stroke="#000000" points="459.4028,-247.7857 461.4872,-258.1735 466.3357,-248.7532 459.4028,-247.7857"/>
</g>
</g>
</svg>
