<?xml version="1.0" encoding="UTF-8" standalone="no"?>
<!DOCTYPE svg PUBLIC "-//W3C//DTD SVG 1.1//EN"
 "http://www.w3.org/Graphics/SVG/1.1/DTD/svg11.dtd">
<!-- Generated by graphviz version 2.40.1 (20161225.0304)
 -->
<!-- Title: G Pages: 1 -->
<svg width="137pt" height="299pt"
 viewBox="0.00 0.00 137.50 299.20" xmlns="http://www.w3.org/2000/svg" xmlns:xlink="http://www.w3.org/1999/xlink">
<g id="graph0" class="graph" transform="scale(1 1) rotate(0) translate(4 295.2)">
<title>G</title>
<polygon fill="#ffffff" stroke="transparent" points="-4,4 -4,-295.2 133.4952,-295.2 133.4952,4 -4,4"/>
<!-- GO:0006457 -->
<g id="node1" class="node">
<title>GO:0006457</title>
<polygon fill="#ff0000" stroke="#000000" points="114.3466,-135.8019 15.1486,-135.8019 15.1486,-94.5981 114.3466,-94.5981 114.3466,-135.8019"/>
<text text-anchor="middle" x="64.7476" y="-119.4" font-family="Times,serif" font-size="14.00" fill="#000000">GO:0006457</text>
<text text-anchor="middle" x="64.7476" y="-102.6" font-family="Times,serif" font-size="14.00" fill="#000000">protein folding</text>
</g>
<!-- GO:0009987 -->
<g id="node2" class="node">
<title>GO:0009987</title>
<polygon fill="#ff0000" stroke="#000000" points="116.7038,-213.4019 12.7914,-213.4019 12.7914,-172.1981 116.7038,-172.1981 116.7038,-213.4019"/>
<text text-anchor="middle" x="64.7476" y="-197" font-family="Times,serif" font-size="14.00" fill="#000000">GO:0009987</text>
<text text-anchor="middle" x="64.7476" y="-180.2" font-family="Times,serif" font-size="14.00" fill="#000000">cellular process</text>
</g>
<!-- GO:0006457&#45;&gt;GO:0009987 -->
<g id="edge1" class="edge">
<title>GO:0006457&#45;&gt;GO:0009987</title>
<path fill="none" stroke="#000000" d="M64.7476,-135.9954C64.7476,-143.9109 64.7476,-153.1109 64.7476,-161.7722"/>
<polygon fill="#000000" stroke="#000000" points="61.2477,-161.9472 64.7476,-171.9472 68.2477,-161.9473 61.2477,-161.9472"/>
</g>
<!-- GO:0008150 -->
<g id="node3" class="node">
<title>GO:0008150</title>
<polygon fill="#ffffff" stroke="#000000" points="125.2182,-291.0019 4.277,-291.0019 4.277,-249.7981 125.2182,-249.7981 125.2182,-291.0019"/>
<text text-anchor="middle" x="64.7476" y="-274.6" font-family="Times,serif" font-size="14.00" fill="#000000">GO:0008150</text>
<text text-anchor="middle" x="64.7476" y="-257.8" font-family="Times,serif" font-size="14.00" fill="#000000">biological_process</text>
</g>
<!-- GO:0009987&#45;&gt;GO:0008150 -->
<g id="edge2" class="edge">
<title>GO:0009987&#45;&gt;GO:0008150</title>
<path fill="none" stroke="#000000" d="M64.7476,-213.5954C64.7476,-221.5109 64.7476,-230.7109 64.7476,-239.3722"/>
<polygon fill="#000000" stroke="#000000" points="61.2477,-239.5472 64.7476,-249.5472 68.2477,-239.5473 61.2477,-239.5472"/>
</g>
<!-- GO:0061077 -->
<g id="node4" class="node">
<title>GO:0061077</title>
<polygon fill="#ff0000" stroke="#000000" points="129.7438,-58.6014 -.2486,-58.6014 -.2486,.2014 129.7438,.2014 129.7438,-58.6014"/>
<text text-anchor="middle" x="64.7476" y="-41.8" font-family="Times,serif" font-size="14.00" fill="#000000">GO:0061077</text>
<text text-anchor="middle" x="64.7476" y="-25" font-family="Times,serif" font-size="14.00" fill="#000000">chaperone&#45;mediated</text>
<text text-anchor="middle" x="64.7476" y="-8.2" font-family="Times,serif" font-size="14.00" fill="#000000">protein folding</text>
</g>
<!-- GO:0061077&#45;&gt;GO:0006457 -->
<g id="edge3" class="edge">
<title>GO:0061077&#45;&gt;GO:0006457</title>
<path fill="none" stroke="#000000" d="M64.7476,-58.7963C64.7476,-67.0638 64.7476,-76.0657 64.7476,-84.4008"/>
<polygon fill="#000000" stroke="#000000" points="61.2477,-84.4965 64.7476,-94.4966 68.2477,-84.4966 61.2477,-84.4965"/>
</g>
</g>
</svg>
