<?xml version="1.0" encoding="UTF-8" standalone="no"?>
<!DOCTYPE svg PUBLIC "-//W3C//DTD SVG 1.1//EN"
 "http://www.w3.org/Graphics/SVG/1.1/DTD/svg11.dtd">
<!-- Generated by graphviz version 2.40.1 (20161225.0304)
 -->
<!-- Title: G Pages: 1 -->
<svg width="420pt" height="488pt"
 viewBox="0.00 0.00 420.16 488.00" xmlns="http://www.w3.org/2000/svg" xmlns:xlink="http://www.w3.org/1999/xlink">
<g id="graph0" class="graph" transform="scale(1 1) rotate(0) translate(4 484)">
<title>G</title>
<polygon fill="#ffffff" stroke="transparent" points="-4,4 -4,-484 416.161,-484 416.161,4 -4,4"/>
<!-- GO:0016020 -->
<g id="node1" class="node">
<title>GO:0016020</title>
<polygon fill="#ff0000" stroke="#000000" points="89.1558,-402.2019 -.052,-402.2019 -.052,-360.9981 89.1558,-360.9981 89.1558,-402.2019"/>
<text text-anchor="middle" x="44.5519" y="-385.8" font-family="Times,serif" font-size="14.00" fill="#000000">GO:0016020</text>
<text text-anchor="middle" x="44.5519" y="-369" font-family="Times,serif" font-size="14.00" fill="#000000">membrane</text>
</g>
<!-- GO:0005575 -->
<g id="node2" class="node">
<title>GO:0005575</title>
<polygon fill="#ffffff" stroke="#000000" points="223.2386,-479.8019 95.8652,-479.8019 95.8652,-438.5981 223.2386,-438.5981 223.2386,-479.8019"/>
<text text-anchor="middle" x="159.5519" y="-463.4" font-family="Times,serif" font-size="14.00" fill="#000000">GO:0005575</text>
<text text-anchor="middle" x="159.5519" y="-446.6" font-family="Times,serif" font-size="14.00" fill="#000000">cellular_component</text>
</g>
<!-- GO:0016020&#45;&gt;GO:0005575 -->
<g id="edge1" class="edge">
<title>GO:0016020&#45;&gt;GO:0005575</title>
<path fill="none" stroke="#000000" d="M75.3698,-402.3954C89.1627,-411.7026 105.5876,-422.7858 120.2516,-432.6809"/>
<polygon fill="#000000" stroke="#000000" points="118.4019,-435.655 128.6489,-438.3472 122.3173,-429.8524 118.4019,-435.655"/>
</g>
<!-- GO:0005789 -->
<g id="node3" class="node">
<title>GO:0005789</title>
<polygon fill="#ff0000" stroke="#000000" points="192.4643,-58.6014 48.6395,-58.6014 48.6395,.2014 192.4643,.2014 192.4643,-58.6014"/>
<text text-anchor="middle" x="120.5519" y="-41.8" font-family="Times,serif" font-size="14.00" fill="#000000">GO:0005789</text>
<text text-anchor="middle" x="120.5519" y="-25" font-family="Times,serif" font-size="14.00" fill="#000000">endoplasmic reticulum</text>
<text text-anchor="middle" x="120.5519" y="-8.2" font-family="Times,serif" font-size="14.00" fill="#000000">membrane</text>
</g>
<!-- GO:0005789&#45;&gt;GO:0016020 -->
<g id="edge3" class="edge">
<title>GO:0005789&#45;&gt;GO:0016020</title>
<path fill="none" stroke="#000000" d="M86.2452,-58.5871C76.5344,-68.8623 67.1046,-81.1678 61.5519,-94.4 25.041,-181.4054 33.1572,-296.3913 39.9193,-350.6873"/>
<polygon fill="#000000" stroke="#000000" points="36.4636,-351.2539 41.24,-360.711 43.4036,-350.3394 36.4636,-351.2539"/>
</g>
<!-- GO:0044425 -->
<g id="node4" class="node">
<title>GO:0044425</title>
<polygon fill="#ff0000" stroke="#000000" points="170.9039,-144.2019 70.1999,-144.2019 70.1999,-102.9981 170.9039,-102.9981 170.9039,-144.2019"/>
<text text-anchor="middle" x="120.5519" y="-127.8" font-family="Times,serif" font-size="14.00" fill="#000000">GO:0044425</text>
<text text-anchor="middle" x="120.5519" y="-111" font-family="Times,serif" font-size="14.00" fill="#000000">membrane part</text>
</g>
<!-- GO:0005789&#45;&gt;GO:0044425 -->
<g id="edge2" class="edge">
<title>GO:0005789&#45;&gt;GO:0044425</title>
<path fill="none" stroke="#000000" d="M120.5519,-58.5513C120.5519,-69.4614 120.5519,-81.8637 120.5519,-92.892"/>
<polygon fill="#000000" stroke="#000000" points="117.052,-92.9509 120.5519,-102.951 124.052,-92.951 117.052,-92.9509"/>
</g>
<!-- GO:0044432 -->
<g id="node5" class="node">
<title>GO:0044432</title>
<polygon fill="#ffffff" stroke="#000000" points="332.4643,-153.0014 188.6395,-153.0014 188.6395,-94.1986 332.4643,-94.1986 332.4643,-153.0014"/>
<text text-anchor="middle" x="260.5519" y="-136.2" font-family="Times,serif" font-size="14.00" fill="#000000">GO:0044432</text>
<text text-anchor="middle" x="260.5519" y="-119.4" font-family="Times,serif" font-size="14.00" fill="#000000">endoplasmic reticulum</text>
<text text-anchor="middle" x="260.5519" y="-102.6" font-family="Times,serif" font-size="14.00" fill="#000000">part</text>
</g>
<!-- GO:0005789&#45;&gt;GO:0044432 -->
<g id="edge4" class="edge">
<title>GO:0005789&#45;&gt;GO:0044432</title>
<path fill="none" stroke="#000000" d="M164.0814,-58.5513C178.1722,-68.0525 193.9412,-78.6854 208.5812,-88.5569"/>
<polygon fill="#000000" stroke="#000000" points="206.8014,-91.5781 217.0494,-94.2669 210.7149,-85.7742 206.8014,-91.5781"/>
</g>
<!-- GO:0044425&#45;&gt;GO:0005575 -->
<g id="edge5" class="edge">
<title>GO:0044425&#45;&gt;GO:0005575</title>
<path fill="none" stroke="#000000" d="M120.6931,-144.4328C121.3357,-191.0553 124.7552,-307.1852 142.5519,-402.4 144.1653,-411.032 146.5913,-420.2188 149.1092,-428.6319"/>
<polygon fill="#000000" stroke="#000000" points="145.8468,-429.9257 152.1775,-438.4211 152.5263,-427.832 145.8468,-429.9257"/>
</g>
<!-- GO:0044446 -->
<g id="node6" class="node">
<title>GO:0044446</title>
<polygon fill="#ff0000" stroke="#000000" points="412.2703,-247.4014 272.8335,-247.4014 272.8335,-188.5986 412.2703,-188.5986 412.2703,-247.4014"/>
<text text-anchor="middle" x="342.5519" y="-230.6" font-family="Times,serif" font-size="14.00" fill="#000000">GO:0044446</text>
<text text-anchor="middle" x="342.5519" y="-213.8" font-family="Times,serif" font-size="14.00" fill="#000000">intracellular organelle</text>
<text text-anchor="middle" x="342.5519" y="-197" font-family="Times,serif" font-size="14.00" fill="#000000">part</text>
</g>
<!-- GO:0044432&#45;&gt;GO:0044446 -->
<g id="edge6" class="edge">
<title>GO:0044432&#45;&gt;GO:0044446</title>
<path fill="none" stroke="#000000" d="M286.0477,-152.9513C293.761,-161.831 302.3328,-171.699 310.421,-181.0103"/>
<polygon fill="#000000" stroke="#000000" points="307.8717,-183.4126 317.0718,-188.6669 313.1563,-178.8221 307.8717,-183.4126"/>
</g>
<!-- GO:0044444 -->
<g id="node7" class="node">
<title>GO:0044444</title>
<polygon fill="#ff0000" stroke="#000000" points="254.9685,-238.6019 146.1353,-238.6019 146.1353,-197.3981 254.9685,-197.3981 254.9685,-238.6019"/>
<text text-anchor="middle" x="200.5519" y="-222.2" font-family="Times,serif" font-size="14.00" fill="#000000">GO:0044444</text>
<text text-anchor="middle" x="200.5519" y="-205.4" font-family="Times,serif" font-size="14.00" fill="#000000">cytoplasmic part</text>
</g>
<!-- GO:0044432&#45;&gt;GO:0044444 -->
<g id="edge7" class="edge">
<title>GO:0044432&#45;&gt;GO:0044444</title>
<path fill="none" stroke="#000000" d="M241.8964,-152.9513C234.676,-164.3113 226.4275,-177.2891 219.2071,-188.6491"/>
<polygon fill="#000000" stroke="#000000" points="216.0866,-187.034 213.6763,-197.351 221.9943,-190.7889 216.0866,-187.034"/>
</g>
<!-- GO:0044424 -->
<g id="node8" class="node">
<title>GO:0044424</title>
<polygon fill="#ff0000" stroke="#000000" points="254.9503,-324.6019 146.1535,-324.6019 146.1535,-283.3981 254.9503,-283.3981 254.9503,-324.6019"/>
<text text-anchor="middle" x="200.5519" y="-308.2" font-family="Times,serif" font-size="14.00" fill="#000000">GO:0044424</text>
<text text-anchor="middle" x="200.5519" y="-291.4" font-family="Times,serif" font-size="14.00" fill="#000000">intracellular part</text>
</g>
<!-- GO:0044446&#45;&gt;GO:0044424 -->
<g id="edge8" class="edge">
<title>GO:0044446&#45;&gt;GO:0044424</title>
<path fill="none" stroke="#000000" d="M294.0807,-247.3558C277.6754,-257.2914 259.4799,-268.3112 243.5312,-277.9703"/>
<polygon fill="#000000" stroke="#000000" points="241.668,-275.0068 234.9276,-283.1809 245.2943,-280.9943 241.668,-275.0068"/>
</g>
<!-- GO:0044422 -->
<g id="node9" class="node">
<title>GO:0044422</title>
<polygon fill="#ffffff" stroke="#000000" points="377.404,-324.6019 283.6998,-324.6019 283.6998,-283.3981 377.404,-283.3981 377.404,-324.6019"/>
<text text-anchor="middle" x="330.5519" y="-308.2" font-family="Times,serif" font-size="14.00" fill="#000000">GO:0044422</text>
<text text-anchor="middle" x="330.5519" y="-291.4" font-family="Times,serif" font-size="14.00" fill="#000000">organelle part</text>
</g>
<!-- GO:0044446&#45;&gt;GO:0044422 -->
<g id="edge9" class="edge">
<title>GO:0044446&#45;&gt;GO:0044422</title>
<path fill="none" stroke="#000000" d="M338.4222,-247.5963C337.2686,-255.8638 336.0125,-264.8657 334.8495,-273.2008"/>
<polygon fill="#000000" stroke="#000000" points="331.3564,-272.9088 333.4408,-283.2966 338.2892,-273.8762 331.3564,-272.9088"/>
</g>
<!-- GO:0044444&#45;&gt;GO:0044424 -->
<g id="edge10" class="edge">
<title>GO:0044444&#45;&gt;GO:0044424</title>
<path fill="none" stroke="#000000" d="M200.5519,-238.8182C200.5519,-249.1705 200.5519,-261.8848 200.5519,-273.3271"/>
<polygon fill="#000000" stroke="#000000" points="197.052,-273.3735 200.5519,-283.3735 204.052,-273.3735 197.052,-273.3735"/>
</g>
<!-- GO:0044464 -->
<g id="node10" class="node">
<title>GO:0044464</title>
<polygon fill="#ffffff" stroke="#000000" points="241.1558,-402.2019 151.948,-402.2019 151.948,-360.9981 241.1558,-360.9981 241.1558,-402.2019"/>
<text text-anchor="middle" x="196.5519" y="-385.8" font-family="Times,serif" font-size="14.00" fill="#000000">GO:0044464</text>
<text text-anchor="middle" x="196.5519" y="-369" font-family="Times,serif" font-size="14.00" fill="#000000">cell part</text>
</g>
<!-- GO:0044424&#45;&gt;GO:0044464 -->
<g id="edge11" class="edge">
<title>GO:0044424&#45;&gt;GO:0044464</title>
<path fill="none" stroke="#000000" d="M199.48,-324.7954C199.072,-332.7109 198.5977,-341.9109 198.1513,-350.5722"/>
<polygon fill="#000000" stroke="#000000" points="194.6463,-350.5803 197.6268,-360.7472 201.637,-350.9407 194.6463,-350.5803"/>
</g>
<!-- GO:0044422&#45;&gt;GO:0005575 -->
<g id="edge12" class="edge">
<title>GO:0044422&#45;&gt;GO:0005575</title>
<path fill="none" stroke="#000000" d="M316.6577,-324.9048C301.9189,-346.0721 277.1289,-378.9445 250.5519,-402.4 237.7166,-413.7278 222.3661,-424.244 207.9615,-433.0708"/>
<polygon fill="#000000" stroke="#000000" points="205.9333,-430.2055 199.1458,-438.3407 209.525,-436.2139 205.9333,-430.2055"/>
</g>
<!-- GO:0044464&#45;&gt;GO:0005575 -->
<g id="edge13" class="edge">
<title>GO:0044464&#45;&gt;GO:0005575</title>
<path fill="none" stroke="#000000" d="M186.6366,-402.3954C182.6965,-410.6588 178.089,-420.3222 173.8031,-429.311"/>
<polygon fill="#000000" stroke="#000000" points="170.6392,-427.8144 169.4946,-438.3472 176.9578,-430.8271 170.6392,-427.8144"/>
</g>
</g>
</svg>
