<?xml version="1.0" encoding="UTF-8" standalone="no"?>
<!DOCTYPE svg PUBLIC "-//W3C//DTD SVG 1.1//EN"
 "http://www.w3.org/Graphics/SVG/1.1/DTD/svg11.dtd">
<!-- Generated by graphviz version 2.40.1 (20161225.0304)
 -->
<!-- Title: G Pages: 1 -->
<svg width="589pt" height="410pt"
 viewBox="0.00 0.00 589.21 410.40" xmlns="http://www.w3.org/2000/svg" xmlns:xlink="http://www.w3.org/1999/xlink">
<g id="graph0" class="graph" transform="scale(1 1) rotate(0) translate(4 406.4)">
<title>G</title>
<polygon fill="#ffffff" stroke="transparent" points="-4,4 -4,-406.4 585.2101,-406.4 585.2101,4 -4,4"/>
<!-- GO:0008144 -->
<g id="node1" class="node">
<title>GO:0008144</title>
<polygon fill="#ffa500" stroke="#000000" points="241.0587,-238.6019 151.8509,-238.6019 151.8509,-197.3981 241.0587,-197.3981 241.0587,-238.6019"/>
<text text-anchor="middle" x="196.4548" y="-222.2" font-family="Times,serif" font-size="14.00" fill="#000000">GO:0008144</text>
<text text-anchor="middle" x="196.4548" y="-205.4" font-family="Times,serif" font-size="14.00" fill="#000000">drug binding</text>
</g>
<!-- GO:0005488 -->
<g id="node2" class="node">
<title>GO:0005488</title>
<polygon fill="#ffffff" stroke="#000000" points="309.0587,-324.6019 219.8509,-324.6019 219.8509,-283.3981 309.0587,-283.3981 309.0587,-324.6019"/>
<text text-anchor="middle" x="264.4548" y="-308.2" font-family="Times,serif" font-size="14.00" fill="#000000">GO:0005488</text>
<text text-anchor="middle" x="264.4548" y="-291.4" font-family="Times,serif" font-size="14.00" fill="#000000">binding</text>
</g>
<!-- GO:0008144&#45;&gt;GO:0005488 -->
<g id="edge1" class="edge">
<title>GO:0008144&#45;&gt;GO:0005488</title>
<path fill="none" stroke="#000000" d="M212.9157,-238.8182C221.6024,-249.8043 232.3924,-263.4506 241.8516,-275.4137"/>
<polygon fill="#000000" stroke="#000000" points="239.1976,-277.7002 248.1455,-283.3735 244.6886,-273.3585 239.1976,-277.7002"/>
</g>
<!-- GO:0003674 -->
<g id="node3" class="node">
<title>GO:0003674</title>
<polygon fill="#ffffff" stroke="#000000" points="266.0879,-402.2019 140.8217,-402.2019 140.8217,-360.9981 266.0879,-360.9981 266.0879,-402.2019"/>
<text text-anchor="middle" x="203.4548" y="-385.8" font-family="Times,serif" font-size="14.00" fill="#000000">GO:0003674</text>
<text text-anchor="middle" x="203.4548" y="-369" font-family="Times,serif" font-size="14.00" fill="#000000">molecular_function</text>
</g>
<!-- GO:0005488&#45;&gt;GO:0003674 -->
<g id="edge2" class="edge">
<title>GO:0005488&#45;&gt;GO:0003674</title>
<path fill="none" stroke="#000000" d="M248.1079,-324.7954C241.3387,-333.4067 233.3743,-343.5384 226.0604,-352.8427"/>
<polygon fill="#000000" stroke="#000000" points="223.2752,-350.7224 219.8468,-360.7472 228.7785,-355.0484 223.2752,-350.7224"/>
</g>
<!-- GO:1901363 -->
<g id="node4" class="node">
<title>GO:1901363</title>
<polygon fill="#ffa500" stroke="#000000" points="405.9654,-247.4014 258.9442,-247.4014 258.9442,-188.5986 405.9654,-188.5986 405.9654,-247.4014"/>
<text text-anchor="middle" x="332.4548" y="-230.6" font-family="Times,serif" font-size="14.00" fill="#000000">GO:1901363</text>
<text text-anchor="middle" x="332.4548" y="-213.8" font-family="Times,serif" font-size="14.00" fill="#000000">heterocyclic compound</text>
<text text-anchor="middle" x="332.4548" y="-197" font-family="Times,serif" font-size="14.00" fill="#000000">binding</text>
</g>
<!-- GO:1901363&#45;&gt;GO:0005488 -->
<g id="edge3" class="edge">
<title>GO:1901363&#45;&gt;GO:0005488</title>
<path fill="none" stroke="#000000" d="M309.0531,-247.5963C301.9349,-256.5986 294.1282,-266.4719 287.0634,-275.4067"/>
<polygon fill="#000000" stroke="#000000" points="284.2819,-273.2815 280.825,-283.2966 289.7728,-277.6232 284.2819,-273.2815"/>
</g>
<!-- GO:0005528 -->
<g id="node5" class="node">
<title>GO:0005528</title>
<polygon fill="#ffa500" stroke="#000000" points="383.1253,-49.8019 281.7843,-49.8019 281.7843,-8.5981 383.1253,-8.5981 383.1253,-49.8019"/>
<text text-anchor="middle" x="332.4548" y="-33.4" font-family="Times,serif" font-size="14.00" fill="#000000">GO:0005528</text>
<text text-anchor="middle" x="332.4548" y="-16.6" font-family="Times,serif" font-size="14.00" fill="#000000">FK506 binding</text>
</g>
<!-- GO:0005527 -->
<g id="node6" class="node">
<title>GO:0005527</title>
<polygon fill="#ffffff" stroke="#000000" points="391.7125,-144.2019 273.1971,-144.2019 273.1971,-102.9981 391.7125,-102.9981 391.7125,-144.2019"/>
<text text-anchor="middle" x="332.4548" y="-127.8" font-family="Times,serif" font-size="14.00" fill="#000000">GO:0005527</text>
<text text-anchor="middle" x="332.4548" y="-111" font-family="Times,serif" font-size="14.00" fill="#000000">macrolide binding</text>
</g>
<!-- GO:0005528&#45;&gt;GO:0005527 -->
<g id="edge4" class="edge">
<title>GO:0005528&#45;&gt;GO:0005527</title>
<path fill="none" stroke="#000000" d="M332.4548,-50.1504C332.4548,-62.6165 332.4548,-78.6645 332.4548,-92.5786"/>
<polygon fill="#000000" stroke="#000000" points="328.9549,-92.7081 332.4548,-102.7081 335.9549,-92.7082 328.9549,-92.7081"/>
</g>
<!-- GO:0005527&#45;&gt;GO:0008144 -->
<g id="edge7" class="edge">
<title>GO:0005527&#45;&gt;GO:0008144</title>
<path fill="none" stroke="#000000" d="M302.609,-144.3165C282.5909,-158.2114 256.0503,-176.6337 234.5153,-191.5815"/>
<polygon fill="#000000" stroke="#000000" points="232.4502,-188.7544 226.231,-197.3318 236.4417,-194.5049 232.4502,-188.7544"/>
</g>
<!-- GO:0005527&#45;&gt;GO:1901363 -->
<g id="edge6" class="edge">
<title>GO:0005527&#45;&gt;GO:1901363</title>
<path fill="none" stroke="#000000" d="M332.4548,-144.5504C332.4548,-154.5492 332.4548,-166.8525 332.4548,-178.5106"/>
<polygon fill="#000000" stroke="#000000" points="328.9549,-178.5155 332.4548,-188.5155 335.9549,-178.5156 328.9549,-178.5155"/>
</g>
<!-- GO:0097159 -->
<g id="node7" class="node">
<title>GO:0097159</title>
<polygon fill="#ffa500" stroke="#000000" points="580.9662,-247.4014 423.9434,-247.4014 423.9434,-188.5986 580.9662,-188.5986 580.9662,-247.4014"/>
<text text-anchor="middle" x="502.4548" y="-230.6" font-family="Times,serif" font-size="14.00" fill="#000000">GO:0097159</text>
<text text-anchor="middle" x="502.4548" y="-213.8" font-family="Times,serif" font-size="14.00" fill="#000000">organic cyclic compound</text>
<text text-anchor="middle" x="502.4548" y="-197" font-family="Times,serif" font-size="14.00" fill="#000000">binding</text>
</g>
<!-- GO:0005527&#45;&gt;GO:0097159 -->
<g id="edge5" class="edge">
<title>GO:0005527&#45;&gt;GO:0097159</title>
<path fill="none" stroke="#000000" d="M369.762,-144.3165C390.5621,-155.8666 416.9957,-170.545 440.7861,-183.7557"/>
<polygon fill="#000000" stroke="#000000" points="439.3157,-186.9426 449.7574,-188.7374 442.714,-180.8228 439.3157,-186.9426"/>
</g>
<!-- GO:0097159&#45;&gt;GO:0005488 -->
<g id="edge8" class="edge">
<title>GO:0097159&#45;&gt;GO:0005488</title>
<path fill="none" stroke="#000000" d="M423.8651,-246.398C389.5336,-258.8035 350.1101,-273.0489 319.058,-284.2694"/>
<polygon fill="#000000" stroke="#000000" points="317.5028,-281.1098 309.2874,-287.8 319.8817,-287.6932 317.5028,-281.1098"/>
</g>
<!-- GO:0003755 -->
<g id="node8" class="node">
<title>GO:0003755</title>
<polygon fill="#ff0000" stroke="#000000" points="150.8644,-58.6014 .0452,-58.6014 .0452,.2014 150.8644,.2014 150.8644,-58.6014"/>
<text text-anchor="middle" x="75.4548" y="-41.8" font-family="Times,serif" font-size="14.00" fill="#000000">GO:0003755</text>
<text text-anchor="middle" x="75.4548" y="-25" font-family="Times,serif" font-size="14.00" fill="#000000">peptidyl&#45;prolyl cis&#45;trans</text>
<text text-anchor="middle" x="75.4548" y="-8.2" font-family="Times,serif" font-size="14.00" fill="#000000">isomerase activity</text>
</g>
<!-- GO:0016859 -->
<g id="node9" class="node">
<title>GO:0016859</title>
<polygon fill="#ffffff" stroke="#000000" points="136.8504,-153.0014 14.0592,-153.0014 14.0592,-94.1986 136.8504,-94.1986 136.8504,-153.0014"/>
<text text-anchor="middle" x="75.4548" y="-136.2" font-family="Times,serif" font-size="14.00" fill="#000000">GO:0016859</text>
<text text-anchor="middle" x="75.4548" y="-119.4" font-family="Times,serif" font-size="14.00" fill="#000000">cis&#45;trans isomerase</text>
<text text-anchor="middle" x="75.4548" y="-102.6" font-family="Times,serif" font-size="14.00" fill="#000000">activity</text>
</g>
<!-- GO:0003755&#45;&gt;GO:0016859 -->
<g id="edge9" class="edge">
<title>GO:0003755&#45;&gt;GO:0016859</title>
<path fill="none" stroke="#000000" d="M75.4548,-58.5513C75.4548,-66.6318 75.4548,-75.5308 75.4548,-84.0838"/>
<polygon fill="#000000" stroke="#000000" points="71.9549,-84.2668 75.4548,-94.2669 78.9549,-84.2669 71.9549,-84.2668"/>
</g>
<!-- GO:0016853 -->
<g id="node10" class="node">
<title>GO:0016853</title>
<polygon fill="#ffffff" stroke="#000000" points="134.4221,-238.6019 16.4875,-238.6019 16.4875,-197.3981 134.4221,-197.3981 134.4221,-238.6019"/>
<text text-anchor="middle" x="75.4548" y="-222.2" font-family="Times,serif" font-size="14.00" fill="#000000">GO:0016853</text>
<text text-anchor="middle" x="75.4548" y="-205.4" font-family="Times,serif" font-size="14.00" fill="#000000">isomerase activity</text>
</g>
<!-- GO:0016859&#45;&gt;GO:0016853 -->
<g id="edge10" class="edge">
<title>GO:0016859&#45;&gt;GO:0016853</title>
<path fill="none" stroke="#000000" d="M75.4548,-152.9513C75.4548,-163.8614 75.4548,-176.2637 75.4548,-187.292"/>
<polygon fill="#000000" stroke="#000000" points="71.9549,-187.3509 75.4548,-197.351 78.9549,-187.351 71.9549,-187.3509"/>
</g>
<!-- GO:0003824 -->
<g id="node11" class="node">
<title>GO:0003824</title>
<polygon fill="#ffffff" stroke="#000000" points="199.8672,-324.6019 91.0424,-324.6019 91.0424,-283.3981 199.8672,-283.3981 199.8672,-324.6019"/>
<text text-anchor="middle" x="145.4548" y="-308.2" font-family="Times,serif" font-size="14.00" fill="#000000">GO:0003824</text>
<text text-anchor="middle" x="145.4548" y="-291.4" font-family="Times,serif" font-size="14.00" fill="#000000">catalytic activity</text>
</g>
<!-- GO:0016853&#45;&gt;GO:0003824 -->
<g id="edge11" class="edge">
<title>GO:0016853&#45;&gt;GO:0003824</title>
<path fill="none" stroke="#000000" d="M92.3998,-238.8182C101.342,-249.8043 112.4494,-263.4506 122.1868,-275.4137"/>
<polygon fill="#000000" stroke="#000000" points="119.6386,-277.8273 128.6658,-283.3735 125.0675,-273.4084 119.6386,-277.8273"/>
</g>
<!-- GO:0003824&#45;&gt;GO:0003674 -->
<g id="edge12" class="edge">
<title>GO:0003824&#45;&gt;GO:0003674</title>
<path fill="none" stroke="#000000" d="M160.9977,-324.7954C167.369,-333.3197 174.8539,-343.3339 181.75,-352.5605"/>
<polygon fill="#000000" stroke="#000000" points="179.0787,-354.8327 187.869,-360.7472 184.6856,-350.6419 179.0787,-354.8327"/>
</g>
</g>
</svg>
