<?xml version="1.0" encoding="UTF-8" standalone="no"?>
<!DOCTYPE svg PUBLIC "-//W3C//DTD SVG 1.1//EN"
 "http://www.w3.org/Graphics/SVG/1.1/DTD/svg11.dtd">
<!-- Generated by graphviz version 2.40.1 (20161225.0304)
 -->
<!-- Title: G Pages: 1 -->
<svg width="777pt" height="1027pt"
 viewBox="0.00 0.00 776.96 1027.20" xmlns="http://www.w3.org/2000/svg" xmlns:xlink="http://www.w3.org/1999/xlink">
<g id="graph0" class="graph" transform="scale(1 1) rotate(0) translate(4 1023.2)">
<title>G</title>
<polygon fill="#ffffff" stroke="transparent" points="-4,4 -4,-1023.2 772.958,-1023.2 772.958,4 -4,4"/>
<!-- GO:0050789 -->
<g id="node1" class="node">
<title>GO:0050789</title>
<polygon fill="#00ffff" stroke="#000000" points="147.6213,-941.8014 -.2075,-941.8014 -.2075,-882.9986 147.6213,-882.9986 147.6213,-941.8014"/>
<text text-anchor="middle" x="73.7069" y="-925" font-family="Times,serif" font-size="14.00" fill="#000000">GO:0050789</text>
<text text-anchor="middle" x="73.7069" y="-908.2" font-family="Times,serif" font-size="14.00" fill="#000000">regulation of biological</text>
<text text-anchor="middle" x="73.7069" y="-891.4" font-family="Times,serif" font-size="14.00" fill="#000000">process</text>
</g>
<!-- GO:0008150 -->
<g id="node2" class="node">
<title>GO:0008150</title>
<polygon fill="#ffffff" stroke="#000000" points="448.1775,-1019.0019 327.2363,-1019.0019 327.2363,-977.7981 448.1775,-977.7981 448.1775,-1019.0019"/>
<text text-anchor="middle" x="387.7069" y="-1002.6" font-family="Times,serif" font-size="14.00" fill="#000000">GO:0008150</text>
<text text-anchor="middle" x="387.7069" y="-985.8" font-family="Times,serif" font-size="14.00" fill="#000000">biological_process</text>
</g>
<!-- GO:0050789&#45;&gt;GO:0008150 -->
<g id="edge1" class="edge">
<title>GO:0050789&#45;&gt;GO:0008150</title>
<path fill="none" stroke="#000000" d="M147.8017,-938.8681C150.8022,-939.8127 153.7791,-940.7273 156.7069,-941.6 209.9875,-957.4818 271.1109,-972.3675 317.0946,-982.9127"/>
<polygon fill="#000000" stroke="#000000" points="316.4354,-986.3522 326.9632,-985.1626 317.9914,-979.5273 316.4354,-986.3522"/>
</g>
<!-- GO:0044699 -->
<g id="node3" class="node">
<title>GO:0044699</title>
<polygon fill="#00ffff" stroke="#000000" points="317.3882,-933.0019 166.0256,-933.0019 166.0256,-891.7981 317.3882,-891.7981 317.3882,-933.0019"/>
<text text-anchor="middle" x="241.7069" y="-916.6" font-family="Times,serif" font-size="14.00" fill="#000000">GO:0044699</text>
<text text-anchor="middle" x="241.7069" y="-899.8" font-family="Times,serif" font-size="14.00" fill="#000000">single&#45;organism process</text>
</g>
<!-- GO:0044699&#45;&gt;GO:0008150 -->
<g id="edge2" class="edge">
<title>GO:0044699&#45;&gt;GO:0008150</title>
<path fill="none" stroke="#000000" d="M277.0494,-933.2182C297.1349,-945.0494 322.458,-959.9657 343.8093,-972.5425"/>
<polygon fill="#000000" stroke="#000000" points="342.2971,-975.7138 352.6898,-977.7735 345.8499,-969.6824 342.2971,-975.7138"/>
</g>
<!-- GO:0044260 -->
<g id="node4" class="node">
<title>GO:0044260</title>
<polygon fill="#ffa500" stroke="#000000" points="457.4793,-658.6014 309.9345,-658.6014 309.9345,-599.7986 457.4793,-599.7986 457.4793,-658.6014"/>
<text text-anchor="middle" x="383.7069" y="-641.8" font-family="Times,serif" font-size="14.00" fill="#000000">GO:0044260</text>
<text text-anchor="middle" x="383.7069" y="-625" font-family="Times,serif" font-size="14.00" fill="#000000">cellular macromolecule</text>
<text text-anchor="middle" x="383.7069" y="-608.2" font-family="Times,serif" font-size="14.00" fill="#000000">metabolic process</text>
</g>
<!-- GO:0044237 -->
<g id="node5" class="node">
<title>GO:0044237</title>
<polygon fill="#ffa500" stroke="#000000" points="441.8897,-847.4014 325.5241,-847.4014 325.5241,-788.5986 441.8897,-788.5986 441.8897,-847.4014"/>
<text text-anchor="middle" x="383.7069" y="-830.6" font-family="Times,serif" font-size="14.00" fill="#000000">GO:0044237</text>
<text text-anchor="middle" x="383.7069" y="-813.8" font-family="Times,serif" font-size="14.00" fill="#000000">cellular metabolic</text>
<text text-anchor="middle" x="383.7069" y="-797" font-family="Times,serif" font-size="14.00" fill="#000000">process</text>
</g>
<!-- GO:0044260&#45;&gt;GO:0044237 -->
<g id="edge3" class="edge">
<title>GO:0044260&#45;&gt;GO:0044237</title>
<path fill="none" stroke="#000000" d="M383.7069,-658.7C383.7069,-690.9825 383.7069,-742.8912 383.7069,-778.6305"/>
<polygon fill="#000000" stroke="#000000" points="380.207,-778.7071 383.7069,-788.7072 387.207,-778.7072 380.207,-778.7071"/>
</g>
<!-- GO:0043170 -->
<g id="node6" class="node">
<title>GO:0043170</title>
<polygon fill="#ffffff" stroke="#000000" points="586.2091,-753.0014 425.2047,-753.0014 425.2047,-694.1986 586.2091,-694.1986 586.2091,-753.0014"/>
<text text-anchor="middle" x="505.7069" y="-736.2" font-family="Times,serif" font-size="14.00" fill="#000000">GO:0043170</text>
<text text-anchor="middle" x="505.7069" y="-719.4" font-family="Times,serif" font-size="14.00" fill="#000000">macromolecule metabolic</text>
<text text-anchor="middle" x="505.7069" y="-702.6" font-family="Times,serif" font-size="14.00" fill="#000000">process</text>
</g>
<!-- GO:0044260&#45;&gt;GO:0043170 -->
<g id="edge4" class="edge">
<title>GO:0044260&#45;&gt;GO:0043170</title>
<path fill="none" stroke="#000000" d="M421.6397,-658.5513C433.6893,-667.8749 447.1473,-678.2883 459.7018,-688.0026"/>
<polygon fill="#000000" stroke="#000000" points="457.7468,-690.9153 467.7976,-694.2669 462.0306,-685.3791 457.7468,-690.9153"/>
</g>
<!-- GO:0009987 -->
<g id="node7" class="node">
<title>GO:0009987</title>
<polygon fill="#ff0000" stroke="#000000" points="439.6631,-933.0019 335.7507,-933.0019 335.7507,-891.7981 439.6631,-891.7981 439.6631,-933.0019"/>
<text text-anchor="middle" x="387.7069" y="-916.6" font-family="Times,serif" font-size="14.00" fill="#000000">GO:0009987</text>
<text text-anchor="middle" x="387.7069" y="-899.8" font-family="Times,serif" font-size="14.00" fill="#000000">cellular process</text>
</g>
<!-- GO:0044237&#45;&gt;GO:0009987 -->
<g id="edge5" class="edge">
<title>GO:0044237&#45;&gt;GO:0009987</title>
<path fill="none" stroke="#000000" d="M384.9506,-847.3513C385.4129,-858.2614 385.9384,-870.6637 386.4057,-881.692"/>
<polygon fill="#000000" stroke="#000000" points="382.9116,-881.9082 386.8319,-891.751 389.9054,-881.6117 382.9116,-881.9082"/>
</g>
<!-- GO:0008152 -->
<g id="node8" class="node">
<title>GO:0008152</title>
<polygon fill="#ffffff" stroke="#000000" points="573.8925,-933.0019 457.5213,-933.0019 457.5213,-891.7981 573.8925,-891.7981 573.8925,-933.0019"/>
<text text-anchor="middle" x="515.7069" y="-916.6" font-family="Times,serif" font-size="14.00" fill="#000000">GO:0008152</text>
<text text-anchor="middle" x="515.7069" y="-899.8" font-family="Times,serif" font-size="14.00" fill="#000000">metabolic process</text>
</g>
<!-- GO:0044237&#45;&gt;GO:0008152 -->
<g id="edge6" class="edge">
<title>GO:0044237&#45;&gt;GO:0008152</title>
<path fill="none" stroke="#000000" d="M424.749,-847.3513C441.892,-859.6112 461.6696,-873.7551 478.3952,-885.7165"/>
<polygon fill="#000000" stroke="#000000" points="476.6633,-888.7808 486.8333,-891.751 480.7352,-883.087 476.6633,-888.7808"/>
</g>
<!-- GO:0071704 -->
<g id="node9" class="node">
<title>GO:0071704</title>
<polygon fill="#ffa500" stroke="#000000" points="576.8925,-847.4014 460.5213,-847.4014 460.5213,-788.5986 576.8925,-788.5986 576.8925,-847.4014"/>
<text text-anchor="middle" x="518.7069" y="-830.6" font-family="Times,serif" font-size="14.00" fill="#000000">GO:0071704</text>
<text text-anchor="middle" x="518.7069" y="-813.8" font-family="Times,serif" font-size="14.00" fill="#000000">organic substance</text>
<text text-anchor="middle" x="518.7069" y="-797" font-family="Times,serif" font-size="14.00" fill="#000000">metabolic process</text>
</g>
<!-- GO:0043170&#45;&gt;GO:0071704 -->
<g id="edge7" class="edge">
<title>GO:0043170&#45;&gt;GO:0071704</title>
<path fill="none" stroke="#000000" d="M509.7489,-752.9513C510.8617,-761.0318 512.0872,-769.9308 513.2651,-778.4838"/>
<polygon fill="#000000" stroke="#000000" points="509.8358,-779.2379 514.6674,-788.6669 516.7703,-778.2828 509.8358,-779.2379"/>
</g>
<!-- GO:0009987&#45;&gt;GO:0008150 -->
<g id="edge8" class="edge">
<title>GO:0009987&#45;&gt;GO:0008150</title>
<path fill="none" stroke="#000000" d="M387.7069,-933.2182C387.7069,-943.5705 387.7069,-956.2848 387.7069,-967.7271"/>
<polygon fill="#000000" stroke="#000000" points="384.207,-967.7735 387.7069,-977.7735 391.207,-967.7735 384.207,-967.7735"/>
</g>
<!-- GO:0008152&#45;&gt;GO:0008150 -->
<g id="edge9" class="edge">
<title>GO:0008152&#45;&gt;GO:0008150</title>
<path fill="none" stroke="#000000" d="M484.7217,-933.2182C467.3483,-944.8909 445.5053,-959.5667 426.9464,-972.0359"/>
<polygon fill="#000000" stroke="#000000" points="424.7554,-969.2914 418.4068,-977.7735 428.6592,-975.1018 424.7554,-969.2914"/>
</g>
<!-- GO:0071704&#45;&gt;GO:0008152 -->
<g id="edge10" class="edge">
<title>GO:0071704&#45;&gt;GO:0008152</title>
<path fill="none" stroke="#000000" d="M517.7741,-847.3513C517.4274,-858.2614 517.0333,-870.6637 516.6828,-881.692"/>
<polygon fill="#000000" stroke="#000000" points="513.1826,-881.6448 516.3631,-891.751 520.1791,-881.8672 513.1826,-881.6448"/>
</g>
<!-- GO:0032446 -->
<g id="node10" class="node">
<title>GO:0032446</title>
<polygon fill="#ffff00" stroke="#000000" points="635.2953,-264.2014 476.1185,-264.2014 476.1185,-205.3986 635.2953,-205.3986 635.2953,-264.2014"/>
<text text-anchor="middle" x="555.7069" y="-247.4" font-family="Times,serif" font-size="14.00" fill="#000000">GO:0032446</text>
<text text-anchor="middle" x="555.7069" y="-230.6" font-family="Times,serif" font-size="14.00" fill="#000000">protein modification by</text>
<text text-anchor="middle" x="555.7069" y="-213.8" font-family="Times,serif" font-size="14.00" fill="#000000">small protein conjugation</text>
</g>
<!-- GO:0070647 -->
<g id="node11" class="node">
<title>GO:0070647</title>
<polygon fill="#ffffff" stroke="#000000" points="635.2953,-375.3003 476.1185,-375.3003 476.1185,-299.8997 635.2953,-299.8997 635.2953,-375.3003"/>
<text text-anchor="middle" x="555.7069" y="-358.6" font-family="Times,serif" font-size="14.00" fill="#000000">GO:0070647</text>
<text text-anchor="middle" x="555.7069" y="-341.8" font-family="Times,serif" font-size="14.00" fill="#000000">protein modification by</text>
<text text-anchor="middle" x="555.7069" y="-325" font-family="Times,serif" font-size="14.00" fill="#000000">small protein conjugation</text>
<text text-anchor="middle" x="555.7069" y="-308.2" font-family="Times,serif" font-size="14.00" fill="#000000">or removal</text>
</g>
<!-- GO:0032446&#45;&gt;GO:0070647 -->
<g id="edge11" class="edge">
<title>GO:0032446&#45;&gt;GO:0070647</title>
<path fill="none" stroke="#000000" d="M555.7069,-264.2584C555.7069,-272.1901 555.7069,-280.98 555.7069,-289.6392"/>
<polygon fill="#000000" stroke="#000000" points="552.207,-289.6849 555.7069,-299.685 559.207,-289.685 552.207,-289.6849"/>
</g>
<!-- GO:0006464 -->
<g id="node12" class="node">
<title>GO:0006464</title>
<polygon fill="#ffffff" stroke="#000000" points="622.2287,-469.8014 489.1851,-469.8014 489.1851,-410.9986 622.2287,-410.9986 622.2287,-469.8014"/>
<text text-anchor="middle" x="555.7069" y="-453" font-family="Times,serif" font-size="14.00" fill="#000000">GO:0006464</text>
<text text-anchor="middle" x="555.7069" y="-436.2" font-family="Times,serif" font-size="14.00" fill="#000000">cellular protein</text>
<text text-anchor="middle" x="555.7069" y="-419.4" font-family="Times,serif" font-size="14.00" fill="#000000">modification process</text>
</g>
<!-- GO:0070647&#45;&gt;GO:0006464 -->
<g id="edge12" class="edge">
<title>GO:0070647&#45;&gt;GO:0006464</title>
<path fill="none" stroke="#000000" d="M555.7069,-375.2952C555.7069,-383.6874 555.7069,-392.6054 555.7069,-401.0618"/>
<polygon fill="#000000" stroke="#000000" points="552.207,-401.0813 555.7069,-411.0814 559.207,-401.0814 552.207,-401.0813"/>
</g>
<!-- GO:0044267 -->
<g id="node13" class="node">
<title>GO:0044267</title>
<polygon fill="#ffffff" stroke="#000000" points="542.8925,-564.2014 426.5213,-564.2014 426.5213,-505.3986 542.8925,-505.3986 542.8925,-564.2014"/>
<text text-anchor="middle" x="484.7069" y="-547.4" font-family="Times,serif" font-size="14.00" fill="#000000">GO:0044267</text>
<text text-anchor="middle" x="484.7069" y="-530.6" font-family="Times,serif" font-size="14.00" fill="#000000">cellular protein</text>
<text text-anchor="middle" x="484.7069" y="-513.8" font-family="Times,serif" font-size="14.00" fill="#000000">metabolic process</text>
</g>
<!-- GO:0006464&#45;&gt;GO:0044267 -->
<g id="edge13" class="edge">
<title>GO:0006464&#45;&gt;GO:0044267</title>
<path fill="none" stroke="#000000" d="M533.6312,-469.7513C527.0863,-478.4534 519.8273,-488.1047 512.9482,-497.2509"/>
<polygon fill="#000000" stroke="#000000" points="509.9826,-495.3712 506.7689,-505.4669 515.5769,-499.5788 509.9826,-495.3712"/>
</g>
<!-- GO:0036211 -->
<g id="node14" class="node">
<title>GO:0036211</title>
<polygon fill="#ffffff" stroke="#000000" points="691.9064,-564.2014 561.5074,-564.2014 561.5074,-505.3986 691.9064,-505.3986 691.9064,-564.2014"/>
<text text-anchor="middle" x="626.7069" y="-547.4" font-family="Times,serif" font-size="14.00" fill="#000000">GO:0036211</text>
<text text-anchor="middle" x="626.7069" y="-530.6" font-family="Times,serif" font-size="14.00" fill="#000000">protein modification</text>
<text text-anchor="middle" x="626.7069" y="-513.8" font-family="Times,serif" font-size="14.00" fill="#000000">process</text>
</g>
<!-- GO:0006464&#45;&gt;GO:0036211 -->
<g id="edge14" class="edge">
<title>GO:0006464&#45;&gt;GO:0036211</title>
<path fill="none" stroke="#000000" d="M577.7826,-469.7513C584.3275,-478.4534 591.5865,-488.1047 598.4656,-497.2509"/>
<polygon fill="#000000" stroke="#000000" points="595.8369,-499.5788 604.6449,-505.4669 601.4312,-495.3712 595.8369,-499.5788"/>
</g>
<!-- GO:0044267&#45;&gt;GO:0044260 -->
<g id="edge16" class="edge">
<title>GO:0044267&#45;&gt;GO:0044260</title>
<path fill="none" stroke="#000000" d="M453.3035,-564.1513C443.613,-573.2086 432.8223,-583.2941 422.6858,-592.7683"/>
<polygon fill="#000000" stroke="#000000" points="420.0067,-590.4815 415.0909,-599.8669 424.7866,-595.5955 420.0067,-590.4815"/>
</g>
<!-- GO:0019538 -->
<g id="node15" class="node">
<title>GO:0019538</title>
<polygon fill="#ffff00" stroke="#000000" points="635.5486,-649.8019 475.8652,-649.8019 475.8652,-608.5981 635.5486,-608.5981 635.5486,-649.8019"/>
<text text-anchor="middle" x="555.7069" y="-633.4" font-family="Times,serif" font-size="14.00" fill="#000000">GO:0019538</text>
<text text-anchor="middle" x="555.7069" y="-616.6" font-family="Times,serif" font-size="14.00" fill="#000000">protein metabolic process</text>
</g>
<!-- GO:0044267&#45;&gt;GO:0019538 -->
<g id="edge15" class="edge">
<title>GO:0044267&#45;&gt;GO:0019538</title>
<path fill="none" stroke="#000000" d="M506.7826,-564.1513C515.4959,-575.7363 525.4745,-589.0037 534.1377,-600.522"/>
<polygon fill="#000000" stroke="#000000" points="531.3684,-602.6629 540.1764,-608.551 536.9627,-598.4553 531.3684,-602.6629"/>
</g>
<!-- GO:0036211&#45;&gt;GO:0019538 -->
<g id="edge17" class="edge">
<title>GO:0036211&#45;&gt;GO:0019538</title>
<path fill="none" stroke="#000000" d="M604.6312,-564.1513C595.9179,-575.7363 585.9393,-589.0037 577.2761,-600.522"/>
<polygon fill="#000000" stroke="#000000" points="574.4511,-598.4553 571.2374,-608.551 580.0454,-602.6629 574.4511,-598.4553"/>
</g>
<!-- GO:0043412 -->
<g id="node16" class="node">
<title>GO:0043412</title>
<polygon fill="#ffff00" stroke="#000000" points="756.0033,-658.6014 653.4105,-658.6014 653.4105,-599.7986 756.0033,-599.7986 756.0033,-658.6014"/>
<text text-anchor="middle" x="704.7069" y="-641.8" font-family="Times,serif" font-size="14.00" fill="#000000">GO:0043412</text>
<text text-anchor="middle" x="704.7069" y="-625" font-family="Times,serif" font-size="14.00" fill="#000000">macromolecule</text>
<text text-anchor="middle" x="704.7069" y="-608.2" font-family="Times,serif" font-size="14.00" fill="#000000">modification</text>
</g>
<!-- GO:0036211&#45;&gt;GO:0043412 -->
<g id="edge18" class="edge">
<title>GO:0036211&#45;&gt;GO:0043412</title>
<path fill="none" stroke="#000000" d="M650.959,-564.1513C658.2227,-572.9422 666.2867,-582.7018 673.9124,-591.9308"/>
<polygon fill="#000000" stroke="#000000" points="671.402,-594.3873 680.4698,-599.8669 676.7982,-589.9285 671.402,-594.3873"/>
</g>
<!-- GO:0019538&#45;&gt;GO:0043170 -->
<g id="edge20" class="edge">
<title>GO:0019538&#45;&gt;GO:0043170</title>
<path fill="none" stroke="#000000" d="M544.6103,-650.1504C539.1538,-660.4522 532.4017,-673.2002 526.0625,-685.1686"/>
<polygon fill="#000000" stroke="#000000" points="522.9114,-683.6403 521.3237,-694.1155 529.0973,-686.9168 522.9114,-683.6403"/>
</g>
<!-- GO:0044238 -->
<g id="node17" class="node">
<title>GO:0044238</title>
<polygon fill="#ffa500" stroke="#000000" points="768.7099,-744.2019 604.7039,-744.2019 604.7039,-702.9981 768.7099,-702.9981 768.7099,-744.2019"/>
<text text-anchor="middle" x="686.7069" y="-727.8" font-family="Times,serif" font-size="14.00" fill="#000000">GO:0044238</text>
<text text-anchor="middle" x="686.7069" y="-711" font-family="Times,serif" font-size="14.00" fill="#000000">primary metabolic process</text>
</g>
<!-- GO:0019538&#45;&gt;GO:0044238 -->
<g id="edge19" class="edge">
<title>GO:0019538&#45;&gt;GO:0044238</title>
<path fill="none" stroke="#000000" d="M584.4554,-649.9165C603.6523,-663.7499 629.0763,-682.0708 649.7701,-696.9829"/>
<polygon fill="#000000" stroke="#000000" points="647.8662,-699.925 658.0255,-702.9318 651.9587,-694.2459 647.8662,-699.925"/>
</g>
<!-- GO:0043412&#45;&gt;GO:0043170 -->
<g id="edge21" class="edge">
<title>GO:0043412&#45;&gt;GO:0043170</title>
<path fill="none" stroke="#000000" d="M653.3433,-654.2568C650.4235,-655.6625 647.5291,-657.0514 644.7069,-658.4 623.0316,-668.7572 599.3903,-679.9028 577.8537,-689.9979"/>
<polygon fill="#000000" stroke="#000000" points="576.336,-686.8438 568.7645,-694.2547 579.305,-693.183 576.336,-686.8438"/>
</g>
<!-- GO:0044238&#45;&gt;GO:0008152 -->
<g id="edge22" class="edge">
<title>GO:0044238&#45;&gt;GO:0008152</title>
<path fill="none" stroke="#000000" d="M671.0771,-744.437C651.8902,-769.6006 617.9218,-812.8269 585.7069,-847.2 573.5745,-860.1452 559.3781,-873.6401 546.9531,-884.9717"/>
<polygon fill="#000000" stroke="#000000" points="544.5538,-882.4225 539.4799,-891.7235 549.2465,-887.6167 544.5538,-882.4225"/>
</g>
<!-- GO:0065007 -->
<g id="node18" class="node">
<title>GO:0065007</title>
<polygon fill="#00ffff" stroke="#000000" points="723.9603,-933.0019 591.4535,-933.0019 591.4535,-891.7981 723.9603,-891.7981 723.9603,-933.0019"/>
<text text-anchor="middle" x="657.7069" y="-916.6" font-family="Times,serif" font-size="14.00" fill="#000000">GO:0065007</text>
<text text-anchor="middle" x="657.7069" y="-899.8" font-family="Times,serif" font-size="14.00" fill="#000000">biological regulation</text>
</g>
<!-- GO:0065007&#45;&gt;GO:0008150 -->
<g id="edge23" class="edge">
<title>GO:0065007&#45;&gt;GO:0008150</title>
<path fill="none" stroke="#000000" d="M606.2835,-933.1061C598.4272,-936.0702 590.3808,-938.9941 582.7069,-941.6 541.7896,-955.4945 495.3609,-969.1025 458.0741,-979.5143"/>
<polygon fill="#000000" stroke="#000000" points="457.0061,-976.1783 448.3075,-982.2269 458.8794,-982.923 457.0061,-976.1783"/>
</g>
<!-- GO:0042787 -->
<g id="node19" class="node">
<title>GO:0042787</title>
<polygon fill="#00ffff" stroke="#000000" points="624.8163,-92 486.5975,-92 486.5975,0 624.8163,0 624.8163,-92"/>
<text text-anchor="middle" x="555.7069" y="-75.4" font-family="Times,serif" font-size="14.00" fill="#000000">GO:0042787</text>
<text text-anchor="middle" x="555.7069" y="-58.6" font-family="Times,serif" font-size="14.00" fill="#000000">protein ubiquitination</text>
<text text-anchor="middle" x="555.7069" y="-41.8" font-family="Times,serif" font-size="14.00" fill="#000000">involved in ubiquitin&#45;</text>
<text text-anchor="middle" x="555.7069" y="-25" font-family="Times,serif" font-size="14.00" fill="#000000">dependent protein</text>
<text text-anchor="middle" x="555.7069" y="-8.2" font-family="Times,serif" font-size="14.00" fill="#000000">catabolic process</text>
</g>
<!-- GO:0016567 -->
<g id="node20" class="node">
<title>GO:0016567</title>
<polygon fill="#00ff00" stroke="#000000" points="624.4218,-169.4019 486.992,-169.4019 486.992,-128.1981 624.4218,-128.1981 624.4218,-169.4019"/>
<text text-anchor="middle" x="555.7069" y="-153" font-family="Times,serif" font-size="14.00" fill="#000000">GO:0016567</text>
<text text-anchor="middle" x="555.7069" y="-136.2" font-family="Times,serif" font-size="14.00" fill="#000000">protein ubiquitination</text>
</g>
<!-- GO:0042787&#45;&gt;GO:0016567 -->
<g id="edge24" class="edge">
<title>GO:0042787&#45;&gt;GO:0016567</title>
<path fill="none" stroke="#000000" d="M555.7069,-92.2876C555.7069,-100.9585 555.7069,-109.8253 555.7069,-117.888"/>
<polygon fill="#000000" stroke="#000000" points="552.207,-117.9398 555.7069,-127.9398 559.207,-117.9398 552.207,-117.9398"/>
</g>
<!-- GO:0016567&#45;&gt;GO:0032446 -->
<g id="edge25" class="edge">
<title>GO:0016567&#45;&gt;GO:0032446</title>
<path fill="none" stroke="#000000" d="M555.7069,-169.6182C555.7069,-177.3358 555.7069,-186.3662 555.7069,-195.2036"/>
<polygon fill="#000000" stroke="#000000" points="552.207,-195.3991 555.7069,-205.3991 559.207,-195.3992 552.207,-195.3991"/>
</g>
</g>
</svg>
