<?xml version="1.0" encoding="UTF-8" standalone="no"?>
<!DOCTYPE svg PUBLIC "-//W3C//DTD SVG 1.1//EN"
 "http://www.w3.org/Graphics/SVG/1.1/DTD/svg11.dtd">
<!-- Generated by graphviz version 2.40.1 (20161225.0304)
 -->
<!-- Title: G Pages: 1 -->
<svg width="288pt" height="549pt"
 viewBox="0.00 0.00 287.93 548.80" xmlns="http://www.w3.org/2000/svg" xmlns:xlink="http://www.w3.org/1999/xlink">
<g id="graph0" class="graph" transform="scale(1 1) rotate(0) translate(4 544.8)">
<title>G</title>
<polygon fill="#ffffff" stroke="transparent" points="-4,4 -4,-544.8 283.9268,-544.8 283.9268,4 -4,4"/>
<!-- GO:0031461 -->
<g id="node1" class="node">
<title>GO:0031461</title>
<polygon fill="#ff0000" stroke="#000000" points="201.9132,-153.0014 61.2734,-153.0014 61.2734,-94.1986 201.9132,-94.1986 201.9132,-153.0014"/>
<text text-anchor="middle" x="131.5933" y="-136.2" font-family="Times,serif" font-size="14.00" fill="#000000">GO:0031461</text>
<text text-anchor="middle" x="131.5933" y="-119.4" font-family="Times,serif" font-size="14.00" fill="#000000">cullin&#45;RING ubiquitin</text>
<text text-anchor="middle" x="131.5933" y="-102.6" font-family="Times,serif" font-size="14.00" fill="#000000">ligase complex</text>
</g>
<!-- GO:0000151 -->
<g id="node2" class="node">
<title>GO:0000151</title>
<polygon fill="#ffffff" stroke="#000000" points="209.0217,-230.2019 54.1649,-230.2019 54.1649,-188.9981 209.0217,-188.9981 209.0217,-230.2019"/>
<text text-anchor="middle" x="131.5933" y="-213.8" font-family="Times,serif" font-size="14.00" fill="#000000">GO:0000151</text>
<text text-anchor="middle" x="131.5933" y="-197" font-family="Times,serif" font-size="14.00" fill="#000000">ubiquitin ligase complex</text>
</g>
<!-- GO:0031461&#45;&gt;GO:0000151 -->
<g id="edge1" class="edge">
<title>GO:0031461&#45;&gt;GO:0000151</title>
<path fill="none" stroke="#000000" d="M131.5933,-153.1963C131.5933,-161.4638 131.5933,-170.4657 131.5933,-178.8008"/>
<polygon fill="#000000" stroke="#000000" points="128.0934,-178.8965 131.5933,-188.8966 135.0934,-178.8966 128.0934,-178.8965"/>
</g>
<!-- GO:0044424 -->
<g id="node3" class="node">
<title>GO:0044424</title>
<polygon fill="#ff0000" stroke="#000000" points="117.9917,-307.8019 9.1949,-307.8019 9.1949,-266.5981 117.9917,-266.5981 117.9917,-307.8019"/>
<text text-anchor="middle" x="63.5933" y="-291.4" font-family="Times,serif" font-size="14.00" fill="#000000">GO:0044424</text>
<text text-anchor="middle" x="63.5933" y="-274.6" font-family="Times,serif" font-size="14.00" fill="#000000">intracellular part</text>
</g>
<!-- GO:0000151&#45;&gt;GO:0044424 -->
<g id="edge2" class="edge">
<title>GO:0000151&#45;&gt;GO:0044424</title>
<path fill="none" stroke="#000000" d="M113.3705,-230.3954C105.7483,-239.0937 96.7667,-249.3433 88.5461,-258.7244"/>
<polygon fill="#000000" stroke="#000000" points="85.8246,-256.5195 81.8664,-266.3472 91.0893,-261.1329 85.8246,-256.5195"/>
</g>
<!-- GO:1990234 -->
<g id="node4" class="node">
<title>GO:1990234</title>
<polygon fill="#ffffff" stroke="#000000" points="264.9241,-307.8019 136.2625,-307.8019 136.2625,-266.5981 264.9241,-266.5981 264.9241,-307.8019"/>
<text text-anchor="middle" x="200.5933" y="-291.4" font-family="Times,serif" font-size="14.00" fill="#000000">GO:1990234</text>
<text text-anchor="middle" x="200.5933" y="-274.6" font-family="Times,serif" font-size="14.00" fill="#000000">transferase complex</text>
</g>
<!-- GO:0000151&#45;&gt;GO:1990234 -->
<g id="edge3" class="edge">
<title>GO:0000151&#45;&gt;GO:1990234</title>
<path fill="none" stroke="#000000" d="M150.084,-230.3954C157.8184,-239.0937 166.932,-249.3433 175.2735,-258.7244"/>
<polygon fill="#000000" stroke="#000000" points="172.7911,-261.1999 182.0515,-266.3472 178.0222,-256.5485 172.7911,-261.1999"/>
</g>
<!-- GO:0044464 -->
<g id="node5" class="node">
<title>GO:0044464</title>
<polygon fill="#ffffff" stroke="#000000" points="108.1972,-385.4019 18.9894,-385.4019 18.9894,-344.1981 108.1972,-344.1981 108.1972,-385.4019"/>
<text text-anchor="middle" x="63.5933" y="-369" font-family="Times,serif" font-size="14.00" fill="#000000">GO:0044464</text>
<text text-anchor="middle" x="63.5933" y="-352.2" font-family="Times,serif" font-size="14.00" fill="#000000">cell part</text>
</g>
<!-- GO:0044424&#45;&gt;GO:0044464 -->
<g id="edge4" class="edge">
<title>GO:0044424&#45;&gt;GO:0044464</title>
<path fill="none" stroke="#000000" d="M63.5933,-307.9954C63.5933,-315.9109 63.5933,-325.1109 63.5933,-333.7722"/>
<polygon fill="#000000" stroke="#000000" points="60.0934,-333.9472 63.5933,-343.9472 67.0934,-333.9473 60.0934,-333.9472"/>
</g>
<!-- GO:1902494 -->
<g id="node6" class="node">
<title>GO:1902494</title>
<polygon fill="#ffffff" stroke="#000000" points="258.2246,-385.4019 142.962,-385.4019 142.962,-344.1981 258.2246,-344.1981 258.2246,-385.4019"/>
<text text-anchor="middle" x="200.5933" y="-369" font-family="Times,serif" font-size="14.00" fill="#000000">GO:1902494</text>
<text text-anchor="middle" x="200.5933" y="-352.2" font-family="Times,serif" font-size="14.00" fill="#000000">catalytic complex</text>
</g>
<!-- GO:1990234&#45;&gt;GO:1902494 -->
<g id="edge5" class="edge">
<title>GO:1990234&#45;&gt;GO:1902494</title>
<path fill="none" stroke="#000000" d="M200.5933,-307.9954C200.5933,-315.9109 200.5933,-325.1109 200.5933,-333.7722"/>
<polygon fill="#000000" stroke="#000000" points="197.0934,-333.9472 200.5933,-343.9472 204.0934,-333.9473 197.0934,-333.9472"/>
</g>
<!-- GO:0005575 -->
<g id="node7" class="node">
<title>GO:0005575</title>
<polygon fill="#ffffff" stroke="#000000" points="127.28,-463.0019 -.0934,-463.0019 -.0934,-421.7981 127.28,-421.7981 127.28,-463.0019"/>
<text text-anchor="middle" x="63.5933" y="-446.6" font-family="Times,serif" font-size="14.00" fill="#000000">GO:0005575</text>
<text text-anchor="middle" x="63.5933" y="-429.8" font-family="Times,serif" font-size="14.00" fill="#000000">cellular_component</text>
</g>
<!-- GO:0044464&#45;&gt;GO:0005575 -->
<g id="edge6" class="edge">
<title>GO:0044464&#45;&gt;GO:0005575</title>
<path fill="none" stroke="#000000" d="M63.5933,-385.5954C63.5933,-393.5109 63.5933,-402.7109 63.5933,-411.3722"/>
<polygon fill="#000000" stroke="#000000" points="60.0934,-411.5472 63.5933,-421.5472 67.0934,-411.5473 60.0934,-411.5472"/>
</g>
<!-- GO:0043234 -->
<g id="node8" class="node">
<title>GO:0043234</title>
<polygon fill="#ffffff" stroke="#000000" points="254.4607,-463.0019 146.7259,-463.0019 146.7259,-421.7981 254.4607,-421.7981 254.4607,-463.0019"/>
<text text-anchor="middle" x="200.5933" y="-446.6" font-family="Times,serif" font-size="14.00" fill="#000000">GO:0043234</text>
<text text-anchor="middle" x="200.5933" y="-429.8" font-family="Times,serif" font-size="14.00" fill="#000000">protein complex</text>
</g>
<!-- GO:1902494&#45;&gt;GO:0043234 -->
<g id="edge7" class="edge">
<title>GO:1902494&#45;&gt;GO:0043234</title>
<path fill="none" stroke="#000000" d="M200.5933,-385.5954C200.5933,-393.5109 200.5933,-402.7109 200.5933,-411.3722"/>
<polygon fill="#000000" stroke="#000000" points="197.0934,-411.5472 200.5933,-421.5472 204.0934,-411.5473 197.0934,-411.5472"/>
</g>
<!-- GO:0032991 -->
<g id="node9" class="node">
<title>GO:0032991</title>
<polygon fill="#ffffff" stroke="#000000" points="279.7606,-540.6019 121.426,-540.6019 121.426,-499.3981 279.7606,-499.3981 279.7606,-540.6019"/>
<text text-anchor="middle" x="200.5933" y="-524.2" font-family="Times,serif" font-size="14.00" fill="#000000">GO:0032991</text>
<text text-anchor="middle" x="200.5933" y="-507.4" font-family="Times,serif" font-size="14.00" fill="#000000">macromolecular complex</text>
</g>
<!-- GO:0043234&#45;&gt;GO:0032991 -->
<g id="edge8" class="edge">
<title>GO:0043234&#45;&gt;GO:0032991</title>
<path fill="none" stroke="#000000" d="M200.5933,-463.1954C200.5933,-471.1109 200.5933,-480.3109 200.5933,-488.9722"/>
<polygon fill="#000000" stroke="#000000" points="197.0934,-489.1472 200.5933,-499.1472 204.0934,-489.1473 197.0934,-489.1472"/>
</g>
<!-- GO:0031463 -->
<g id="node10" class="node">
<title>GO:0031463</title>
<polygon fill="#ff0000" stroke="#000000" points="199.754,-58.6014 63.4326,-58.6014 63.4326,.2014 199.754,.2014 199.754,-58.6014"/>
<text text-anchor="middle" x="131.5933" y="-41.8" font-family="Times,serif" font-size="14.00" fill="#000000">GO:0031463</text>
<text text-anchor="middle" x="131.5933" y="-25" font-family="Times,serif" font-size="14.00" fill="#000000">Cul3&#45;RING ubiquitin</text>
<text text-anchor="middle" x="131.5933" y="-8.2" font-family="Times,serif" font-size="14.00" fill="#000000">ligase complex</text>
</g>
<!-- GO:0031463&#45;&gt;GO:0031461 -->
<g id="edge9" class="edge">
<title>GO:0031463&#45;&gt;GO:0031461</title>
<path fill="none" stroke="#000000" d="M131.5933,-58.5513C131.5933,-66.6318 131.5933,-75.5308 131.5933,-84.0838"/>
<polygon fill="#000000" stroke="#000000" points="128.0934,-84.2668 131.5933,-94.2669 135.0934,-84.2669 128.0934,-84.2668"/>
</g>
</g>
</svg>
