<?xml version="1.0" encoding="UTF-8" standalone="no"?>
<!DOCTYPE svg PUBLIC "-//W3C//DTD SVG 1.1//EN"
 "http://www.w3.org/Graphics/SVG/1.1/DTD/svg11.dtd">
<!-- Generated by graphviz version 2.40.1 (20161225.0304)
 -->
<!-- Title: G Pages: 1 -->
<svg width="143pt" height="394pt"
 viewBox="0.00 0.00 143.38 393.60" xmlns="http://www.w3.org/2000/svg" xmlns:xlink="http://www.w3.org/1999/xlink">
<g id="graph0" class="graph" transform="scale(1 1) rotate(0) translate(4 389.6)">
<title>G</title>
<polygon fill="#ffffff" stroke="transparent" points="-4,4 -4,-389.6 139.3752,-389.6 139.3752,4 -4,4"/>
<!-- GO:0003824 -->
<g id="node1" class="node">
<title>GO:0003824</title>
<polygon fill="#ff0000" stroke="#000000" points="122.1,-307.8019 13.2752,-307.8019 13.2752,-266.5981 122.1,-266.5981 122.1,-307.8019"/>
<text text-anchor="middle" x="67.6876" y="-291.4" font-family="Times,serif" font-size="14.00" fill="#000000">GO:0003824</text>
<text text-anchor="middle" x="67.6876" y="-274.6" font-family="Times,serif" font-size="14.00" fill="#000000">catalytic activity</text>
</g>
<!-- GO:0003674 -->
<g id="node2" class="node">
<title>GO:0003674</title>
<polygon fill="#ffffff" stroke="#000000" points="130.3207,-385.4019 5.0545,-385.4019 5.0545,-344.1981 130.3207,-344.1981 130.3207,-385.4019"/>
<text text-anchor="middle" x="67.6876" y="-369" font-family="Times,serif" font-size="14.00" fill="#000000">GO:0003674</text>
<text text-anchor="middle" x="67.6876" y="-352.2" font-family="Times,serif" font-size="14.00" fill="#000000">molecular_function</text>
</g>
<!-- GO:0003824&#45;&gt;GO:0003674 -->
<g id="edge1" class="edge">
<title>GO:0003824&#45;&gt;GO:0003674</title>
<path fill="none" stroke="#000000" d="M67.6876,-307.9954C67.6876,-315.9109 67.6876,-325.1109 67.6876,-333.7722"/>
<polygon fill="#000000" stroke="#000000" points="64.1877,-333.9472 67.6876,-343.9472 71.1877,-333.9473 64.1877,-333.9472"/>
</g>
<!-- GO:0004842 -->
<g id="node3" class="node">
<title>GO:0004842</title>
<polygon fill="#ff0000" stroke="#000000" points="128.7993,-58.6014 6.5759,-58.6014 6.5759,.2014 128.7993,.2014 128.7993,-58.6014"/>
<text text-anchor="middle" x="67.6876" y="-41.8" font-family="Times,serif" font-size="14.00" fill="#000000">GO:0004842</text>
<text text-anchor="middle" x="67.6876" y="-25" font-family="Times,serif" font-size="14.00" fill="#000000">ubiquitin&#45;protein</text>
<text text-anchor="middle" x="67.6876" y="-8.2" font-family="Times,serif" font-size="14.00" fill="#000000">transferase activity</text>
</g>
<!-- GO:0019787 -->
<g id="node4" class="node">
<title>GO:0019787</title>
<polygon fill="#ffffff" stroke="#000000" points="135.5633,-153.0014 -.1881,-153.0014 -.1881,-94.1986 135.5633,-94.1986 135.5633,-153.0014"/>
<text text-anchor="middle" x="67.6876" y="-136.2" font-family="Times,serif" font-size="14.00" fill="#000000">GO:0019787</text>
<text text-anchor="middle" x="67.6876" y="-119.4" font-family="Times,serif" font-size="14.00" fill="#000000">ubiquitin&#45;like protein</text>
<text text-anchor="middle" x="67.6876" y="-102.6" font-family="Times,serif" font-size="14.00" fill="#000000">transferase activity</text>
</g>
<!-- GO:0004842&#45;&gt;GO:0019787 -->
<g id="edge2" class="edge">
<title>GO:0004842&#45;&gt;GO:0019787</title>
<path fill="none" stroke="#000000" d="M67.6876,-58.5513C67.6876,-66.6318 67.6876,-75.5308 67.6876,-84.0838"/>
<polygon fill="#000000" stroke="#000000" points="64.1877,-84.2668 67.6876,-94.2669 71.1877,-84.2669 64.1877,-84.2668"/>
</g>
<!-- GO:0016740 -->
<g id="node5" class="node">
<title>GO:0016740</title>
<polygon fill="#ffffff" stroke="#000000" points="128.7993,-230.2019 6.5759,-230.2019 6.5759,-188.9981 128.7993,-188.9981 128.7993,-230.2019"/>
<text text-anchor="middle" x="67.6876" y="-213.8" font-family="Times,serif" font-size="14.00" fill="#000000">GO:0016740</text>
<text text-anchor="middle" x="67.6876" y="-197" font-family="Times,serif" font-size="14.00" fill="#000000">transferase activity</text>
</g>
<!-- GO:0019787&#45;&gt;GO:0016740 -->
<g id="edge3" class="edge">
<title>GO:0019787&#45;&gt;GO:0016740</title>
<path fill="none" stroke="#000000" d="M67.6876,-153.1963C67.6876,-161.4638 67.6876,-170.4657 67.6876,-178.8008"/>
<polygon fill="#000000" stroke="#000000" points="64.1877,-178.8965 67.6876,-188.8966 71.1877,-178.8966 64.1877,-178.8965"/>
</g>
<!-- GO:0016740&#45;&gt;GO:0003824 -->
<g id="edge4" class="edge">
<title>GO:0016740&#45;&gt;GO:0003824</title>
<path fill="none" stroke="#000000" d="M67.6876,-230.3954C67.6876,-238.3109 67.6876,-247.5109 67.6876,-256.1722"/>
<polygon fill="#000000" stroke="#000000" points="64.1877,-256.3472 67.6876,-266.3472 71.1877,-256.3473 64.1877,-256.3472"/>
</g>
</g>
</svg>
