<?xml version="1.0" encoding="UTF-8" standalone="no"?>
<!DOCTYPE svg PUBLIC "-//W3C//DTD SVG 1.1//EN"
 "http://www.w3.org/Graphics/SVG/1.1/DTD/svg11.dtd">
<!-- Generated by graphviz version 2.40.1 (20161225.0304)
 -->
<!-- Title: G Pages: 1 -->
<svg width="423pt" height="454pt"
 viewBox="0.00 0.00 422.69 454.40" xmlns="http://www.w3.org/2000/svg" xmlns:xlink="http://www.w3.org/1999/xlink">
<g id="graph0" class="graph" transform="scale(1 1) rotate(0) translate(4 450.4)">
<title>G</title>
<polygon fill="#ffffff" stroke="transparent" points="-4,4 -4,-450.4 418.6933,-450.4 418.6933,4 -4,4"/>
<!-- GO:0043227 -->
<g id="node1" class="node">
<title>GO:0043227</title>
<polygon fill="#ff0000" stroke="#000000" points="254.41,-291.4014 126.4884,-291.4014 126.4884,-232.5986 254.41,-232.5986 254.41,-291.4014"/>
<text text-anchor="middle" x="190.4492" y="-274.6" font-family="Times,serif" font-size="14.00" fill="#000000">GO:0043227</text>
<text text-anchor="middle" x="190.4492" y="-257.8" font-family="Times,serif" font-size="14.00" fill="#000000">membrane&#45;bounded</text>
<text text-anchor="middle" x="190.4492" y="-241" font-family="Times,serif" font-size="14.00" fill="#000000">organelle</text>
</g>
<!-- GO:0043226 -->
<g id="node2" class="node">
<title>GO:0043226</title>
<polygon fill="#ff0000" stroke="#000000" points="239.0531,-368.6019 149.8453,-368.6019 149.8453,-327.3981 239.0531,-327.3981 239.0531,-368.6019"/>
<text text-anchor="middle" x="194.4492" y="-352.2" font-family="Times,serif" font-size="14.00" fill="#000000">GO:0043226</text>
<text text-anchor="middle" x="194.4492" y="-335.4" font-family="Times,serif" font-size="14.00" fill="#000000">organelle</text>
</g>
<!-- GO:0043227&#45;&gt;GO:0043226 -->
<g id="edge1" class="edge">
<title>GO:0043227&#45;&gt;GO:0043226</title>
<path fill="none" stroke="#000000" d="M191.8258,-291.5963C192.2103,-299.8638 192.629,-308.8657 193.0167,-317.2008"/>
<polygon fill="#000000" stroke="#000000" points="189.5253,-317.47 193.4862,-327.2966 196.5178,-317.1447 189.5253,-317.47"/>
</g>
<!-- GO:0005575 -->
<g id="node3" class="node">
<title>GO:0005575</title>
<polygon fill="#ffffff" stroke="#000000" points="258.1359,-446.2019 130.7625,-446.2019 130.7625,-404.9981 258.1359,-404.9981 258.1359,-446.2019"/>
<text text-anchor="middle" x="194.4492" y="-429.8" font-family="Times,serif" font-size="14.00" fill="#000000">GO:0005575</text>
<text text-anchor="middle" x="194.4492" y="-413" font-family="Times,serif" font-size="14.00" fill="#000000">cellular_component</text>
</g>
<!-- GO:0043226&#45;&gt;GO:0005575 -->
<g id="edge2" class="edge">
<title>GO:0043226&#45;&gt;GO:0005575</title>
<path fill="none" stroke="#000000" d="M194.4492,-368.7954C194.4492,-376.7109 194.4492,-385.9109 194.4492,-394.5722"/>
<polygon fill="#000000" stroke="#000000" points="190.9493,-394.7472 194.4492,-404.7472 197.9493,-394.7473 190.9493,-394.7472"/>
</g>
<!-- GO:0005737 -->
<g id="node4" class="node">
<title>GO:0005737</title>
<polygon fill="#00ff00" stroke="#000000" points="99.0531,-196.6019 9.8453,-196.6019 9.8453,-155.3981 99.0531,-155.3981 99.0531,-196.6019"/>
<text text-anchor="middle" x="54.4492" y="-180.2" font-family="Times,serif" font-size="14.00" fill="#000000">GO:0005737</text>
<text text-anchor="middle" x="54.4492" y="-163.4" font-family="Times,serif" font-size="14.00" fill="#000000">cytoplasm</text>
</g>
<!-- GO:0044424 -->
<g id="node5" class="node">
<title>GO:0044424</title>
<polygon fill="#ff0000" stroke="#000000" points="108.8476,-282.6019 .0508,-282.6019 .0508,-241.3981 108.8476,-241.3981 108.8476,-282.6019"/>
<text text-anchor="middle" x="54.4492" y="-266.2" font-family="Times,serif" font-size="14.00" fill="#000000">GO:0044424</text>
<text text-anchor="middle" x="54.4492" y="-249.4" font-family="Times,serif" font-size="14.00" fill="#000000">intracellular part</text>
</g>
<!-- GO:0005737&#45;&gt;GO:0044424 -->
<g id="edge3" class="edge">
<title>GO:0005737&#45;&gt;GO:0044424</title>
<path fill="none" stroke="#000000" d="M54.4492,-196.8182C54.4492,-207.1705 54.4492,-219.8848 54.4492,-231.3271"/>
<polygon fill="#000000" stroke="#000000" points="50.9493,-231.3735 54.4492,-241.3735 57.9493,-231.3735 50.9493,-231.3735"/>
</g>
<!-- GO:0044464 -->
<g id="node6" class="node">
<title>GO:0044464</title>
<polygon fill="#ffffff" stroke="#000000" points="118.0531,-368.6019 28.8453,-368.6019 28.8453,-327.3981 118.0531,-327.3981 118.0531,-368.6019"/>
<text text-anchor="middle" x="73.4492" y="-352.2" font-family="Times,serif" font-size="14.00" fill="#000000">GO:0044464</text>
<text text-anchor="middle" x="73.4492" y="-335.4" font-family="Times,serif" font-size="14.00" fill="#000000">cell part</text>
</g>
<!-- GO:0044424&#45;&gt;GO:0044464 -->
<g id="edge4" class="edge">
<title>GO:0044424&#45;&gt;GO:0044464</title>
<path fill="none" stroke="#000000" d="M59.0486,-282.8182C61.3357,-293.1705 64.1447,-305.8848 66.6726,-317.3271"/>
<polygon fill="#000000" stroke="#000000" points="63.3172,-318.3641 68.8922,-327.3735 70.1524,-316.8539 63.3172,-318.3641"/>
</g>
<!-- GO:0044464&#45;&gt;GO:0005575 -->
<g id="edge5" class="edge">
<title>GO:0044464&#45;&gt;GO:0005575</title>
<path fill="none" stroke="#000000" d="M105.875,-368.7954C120.3875,-378.1026 137.6693,-389.1858 153.0985,-399.0809"/>
<polygon fill="#000000" stroke="#000000" points="151.6268,-402.2949 161.9339,-404.7472 155.4057,-396.4026 151.6268,-402.2949"/>
</g>
<!-- GO:0031988 -->
<g id="node7" class="node">
<title>GO:0031988</title>
<polygon fill="#ffa500" stroke="#000000" points="261.7799,-119.0019 91.1185,-119.0019 91.1185,-77.7981 261.7799,-77.7981 261.7799,-119.0019"/>
<text text-anchor="middle" x="176.4492" y="-102.6" font-family="Times,serif" font-size="14.00" fill="#000000">GO:0031988</text>
<text text-anchor="middle" x="176.4492" y="-85.8" font-family="Times,serif" font-size="14.00" fill="#000000">membrane&#45;bounded vesicle</text>
</g>
<!-- GO:0031982 -->
<g id="node8" class="node">
<title>GO:0031982</title>
<polygon fill="#ffffff" stroke="#000000" points="235.0531,-196.6019 145.8453,-196.6019 145.8453,-155.3981 235.0531,-155.3981 235.0531,-196.6019"/>
<text text-anchor="middle" x="190.4492" y="-180.2" font-family="Times,serif" font-size="14.00" fill="#000000">GO:0031982</text>
<text text-anchor="middle" x="190.4492" y="-163.4" font-family="Times,serif" font-size="14.00" fill="#000000">vesicle</text>
</g>
<!-- GO:0031988&#45;&gt;GO:0031982 -->
<g id="edge6" class="edge">
<title>GO:0031988&#45;&gt;GO:0031982</title>
<path fill="none" stroke="#000000" d="M180.2009,-119.1954C181.6447,-127.1978 183.3253,-136.5133 184.9029,-145.2575"/>
<polygon fill="#000000" stroke="#000000" points="181.4672,-145.9275 186.6871,-155.1472 188.356,-144.6847 181.4672,-145.9275"/>
</g>
<!-- GO:0031982&#45;&gt;GO:0043227 -->
<g id="edge7" class="edge">
<title>GO:0031982&#45;&gt;GO:0043227</title>
<path fill="none" stroke="#000000" d="M190.4492,-196.8182C190.4492,-204.5358 190.4492,-213.5662 190.4492,-222.4036"/>
<polygon fill="#000000" stroke="#000000" points="186.9493,-222.5991 190.4492,-232.5991 193.9493,-222.5992 186.9493,-222.5991"/>
</g>
<!-- GO:0070062 -->
<g id="node9" class="node">
<title>GO:0070062</title>
<polygon fill="#ffa500" stroke="#000000" points="329.1704,-41.4019 189.728,-41.4019 189.728,-.1981 329.1704,-.1981 329.1704,-41.4019"/>
<text text-anchor="middle" x="259.4492" y="-25" font-family="Times,serif" font-size="14.00" fill="#000000">GO:0070062</text>
<text text-anchor="middle" x="259.4492" y="-8.2" font-family="Times,serif" font-size="14.00" fill="#000000">extracellular exosome</text>
</g>
<!-- GO:0070062&#45;&gt;GO:0031988 -->
<g id="edge9" class="edge">
<title>GO:0070062&#45;&gt;GO:0031988</title>
<path fill="none" stroke="#000000" d="M237.2067,-41.5954C227.717,-50.4677 216.5011,-60.9539 206.3054,-70.4862"/>
<polygon fill="#000000" stroke="#000000" points="203.6675,-68.1611 198.7531,-77.5472 208.4481,-73.2744 203.6675,-68.1611"/>
</g>
<!-- GO:1903561 -->
<g id="node10" class="node">
<title>GO:1903561</title>
<polygon fill="#ffffff" stroke="#000000" points="407.7758,-119.0019 279.1226,-119.0019 279.1226,-77.7981 407.7758,-77.7981 407.7758,-119.0019"/>
<text text-anchor="middle" x="343.4492" y="-102.6" font-family="Times,serif" font-size="14.00" fill="#000000">GO:1903561</text>
<text text-anchor="middle" x="343.4492" y="-85.8" font-family="Times,serif" font-size="14.00" fill="#000000">extracellular vesicle</text>
</g>
<!-- GO:0070062&#45;&gt;GO:1903561 -->
<g id="edge8" class="edge">
<title>GO:0070062&#45;&gt;GO:1903561</title>
<path fill="none" stroke="#000000" d="M281.9597,-41.5954C291.5637,-50.4677 302.9147,-60.9539 313.2333,-70.4862"/>
<polygon fill="#000000" stroke="#000000" points="311.1562,-73.3324 320.8766,-77.5472 315.9062,-68.1906 311.1562,-73.3324"/>
</g>
<!-- GO:1903561&#45;&gt;GO:0031982 -->
<g id="edge11" class="edge">
<title>GO:1903561&#45;&gt;GO:0031982</title>
<path fill="none" stroke="#000000" d="M302.448,-119.1954C283.3347,-128.8895 260.4226,-140.5102 240.3154,-150.7084"/>
<polygon fill="#000000" stroke="#000000" points="238.6334,-147.637 231.2981,-155.2819 241.7997,-153.8799 238.6334,-147.637"/>
</g>
<!-- GO:0043230 -->
<g id="node11" class="node">
<title>GO:0043230</title>
<polygon fill="#ffffff" stroke="#000000" points="413.9921,-282.6019 272.9063,-282.6019 272.9063,-241.3981 413.9921,-241.3981 413.9921,-282.6019"/>
<text text-anchor="middle" x="343.4492" y="-266.2" font-family="Times,serif" font-size="14.00" fill="#000000">GO:0043230</text>
<text text-anchor="middle" x="343.4492" y="-249.4" font-family="Times,serif" font-size="14.00" fill="#000000">extracellular organelle</text>
</g>
<!-- GO:1903561&#45;&gt;GO:0043230 -->
<g id="edge10" class="edge">
<title>GO:1903561&#45;&gt;GO:0043230</title>
<path fill="none" stroke="#000000" d="M343.4492,-119.1201C343.4492,-147.3159 343.4492,-198.0064 343.4492,-230.8099"/>
<polygon fill="#000000" stroke="#000000" points="339.9493,-231.1904 343.4492,-241.1904 346.9493,-231.1905 339.9493,-231.1904"/>
</g>
<!-- GO:0043230&#45;&gt;GO:0043226 -->
<g id="edge12" class="edge">
<title>GO:0043230&#45;&gt;GO:0043226</title>
<path fill="none" stroke="#000000" d="M307.3805,-282.8182C286.7907,-294.7022 260.808,-309.699 238.9572,-322.3108"/>
<polygon fill="#000000" stroke="#000000" points="237.0971,-319.3432 230.1858,-327.3735 240.5963,-325.4059 237.0971,-319.3432"/>
</g>
<!-- GO:0044421 -->
<g id="node12" class="node">
<title>GO:0044421</title>
<polygon fill="#ffa500" stroke="#000000" points="414.9382,-368.6019 263.9602,-368.6019 263.9602,-327.3981 414.9382,-327.3981 414.9382,-368.6019"/>
<text text-anchor="middle" x="339.4492" y="-352.2" font-family="Times,serif" font-size="14.00" fill="#000000">GO:0044421</text>
<text text-anchor="middle" x="339.4492" y="-335.4" font-family="Times,serif" font-size="14.00" fill="#000000">extracellular region part</text>
</g>
<!-- GO:0043230&#45;&gt;GO:0044421 -->
<g id="edge13" class="edge">
<title>GO:0043230&#45;&gt;GO:0044421</title>
<path fill="none" stroke="#000000" d="M342.4809,-282.8182C341.9994,-293.1705 341.408,-305.8848 340.8758,-317.3271"/>
<polygon fill="#000000" stroke="#000000" points="337.3771,-317.2217 340.4086,-327.3735 344.3695,-317.547 337.3771,-317.2217"/>
</g>
<!-- GO:0044421&#45;&gt;GO:0005575 -->
<g id="edge14" class="edge">
<title>GO:0044421&#45;&gt;GO:0005575</title>
<path fill="none" stroke="#000000" d="M300.5919,-368.7954C282.6411,-378.4021 261.1548,-389.901 242.2237,-400.0324"/>
<polygon fill="#000000" stroke="#000000" points="240.3275,-397.0775 233.1622,-404.8819 243.6305,-403.2492 240.3275,-397.0775"/>
</g>
</g>
</svg>
