<?xml version="1.0" encoding="UTF-8" standalone="no"?>
<!DOCTYPE svg PUBLIC "-//W3C//DTD SVG 1.1//EN"
 "http://www.w3.org/Graphics/SVG/1.1/DTD/svg11.dtd">
<!-- Generated by graphviz version 2.40.1 (20161225.0304)
 -->
<!-- Title: G Pages: 1 -->
<svg width="578pt" height="299pt"
 viewBox="0.00 0.00 577.56 299.20" xmlns="http://www.w3.org/2000/svg" xmlns:xlink="http://www.w3.org/1999/xlink">
<g id="graph0" class="graph" transform="scale(1 1) rotate(0) translate(4 295.2)">
<title>G</title>
<polygon fill="#ffffff" stroke="transparent" points="-4,4 -4,-295.2 573.5611,-295.2 573.5611,4 -4,4"/>
<!-- GO:1901363 -->
<g id="node1" class="node">
<title>GO:1901363</title>
<polygon fill="#00ffff" stroke="#000000" points="147.0159,-136.2014 -.0053,-136.2014 -.0053,-77.3986 147.0159,-77.3986 147.0159,-136.2014"/>
<text text-anchor="middle" x="73.5053" y="-119.4" font-family="Times,serif" font-size="14.00" fill="#000000">GO:1901363</text>
<text text-anchor="middle" x="73.5053" y="-102.6" font-family="Times,serif" font-size="14.00" fill="#000000">heterocyclic compound</text>
<text text-anchor="middle" x="73.5053" y="-85.8" font-family="Times,serif" font-size="14.00" fill="#000000">binding</text>
</g>
<!-- GO:0005488 -->
<g id="node2" class="node">
<title>GO:0005488</title>
<polygon fill="#ffffff" stroke="#000000" points="324.1092,-213.4019 234.9014,-213.4019 234.9014,-172.1981 324.1092,-172.1981 324.1092,-213.4019"/>
<text text-anchor="middle" x="279.5053" y="-197" font-family="Times,serif" font-size="14.00" fill="#000000">GO:0005488</text>
<text text-anchor="middle" x="279.5053" y="-180.2" font-family="Times,serif" font-size="14.00" fill="#000000">binding</text>
</g>
<!-- GO:1901363&#45;&gt;GO:0005488 -->
<g id="edge1" class="edge">
<title>GO:1901363&#45;&gt;GO:0005488</title>
<path fill="none" stroke="#000000" d="M143.5349,-136.0357C170.3225,-147.2188 200.4362,-159.7906 225.5023,-170.2551"/>
<polygon fill="#000000" stroke="#000000" points="224.268,-173.5325 234.8445,-174.1552 226.9648,-167.0728 224.268,-173.5325"/>
</g>
<!-- GO:0003674 -->
<g id="node3" class="node">
<title>GO:0003674</title>
<polygon fill="#ffffff" stroke="#000000" points="400.1384,-291.0019 274.8722,-291.0019 274.8722,-249.7981 400.1384,-249.7981 400.1384,-291.0019"/>
<text text-anchor="middle" x="337.5053" y="-274.6" font-family="Times,serif" font-size="14.00" fill="#000000">GO:0003674</text>
<text text-anchor="middle" x="337.5053" y="-257.8" font-family="Times,serif" font-size="14.00" fill="#000000">molecular_function</text>
</g>
<!-- GO:0005488&#45;&gt;GO:0003674 -->
<g id="edge2" class="edge">
<title>GO:0005488&#45;&gt;GO:0003674</title>
<path fill="none" stroke="#000000" d="M295.0482,-213.5954C301.4195,-222.1197 308.9044,-232.1339 315.8005,-241.3605"/>
<polygon fill="#000000" stroke="#000000" points="313.1292,-243.6327 321.9195,-249.5472 318.7361,-239.4419 313.1292,-243.6327"/>
</g>
<!-- GO:0043169 -->
<g id="node4" class="node">
<title>GO:0043169</title>
<polygon fill="#00ffff" stroke="#000000" points="257.9982,-41.4019 161.0124,-41.4019 161.0124,-.1981 257.9982,-.1981 257.9982,-41.4019"/>
<text text-anchor="middle" x="209.5053" y="-25" font-family="Times,serif" font-size="14.00" fill="#000000">GO:0043169</text>
<text text-anchor="middle" x="209.5053" y="-8.2" font-family="Times,serif" font-size="14.00" fill="#000000">cation binding</text>
</g>
<!-- GO:0043167 -->
<g id="node5" class="node">
<title>GO:0043167</title>
<polygon fill="#00ffff" stroke="#000000" points="254.1092,-127.4019 164.9014,-127.4019 164.9014,-86.1981 254.1092,-86.1981 254.1092,-127.4019"/>
<text text-anchor="middle" x="209.5053" y="-111" font-family="Times,serif" font-size="14.00" fill="#000000">GO:0043167</text>
<text text-anchor="middle" x="209.5053" y="-94.2" font-family="Times,serif" font-size="14.00" fill="#000000">ion binding</text>
</g>
<!-- GO:0043169&#45;&gt;GO:0043167 -->
<g id="edge3" class="edge">
<title>GO:0043169&#45;&gt;GO:0043167</title>
<path fill="none" stroke="#000000" d="M209.5053,-41.6182C209.5053,-51.9705 209.5053,-64.6848 209.5053,-76.1271"/>
<polygon fill="#000000" stroke="#000000" points="206.0054,-76.1735 209.5053,-86.1735 213.0054,-76.1735 206.0054,-76.1735"/>
</g>
<!-- GO:0043167&#45;&gt;GO:0005488 -->
<g id="edge4" class="edge">
<title>GO:0043167&#45;&gt;GO:0005488</title>
<path fill="none" stroke="#000000" d="M226.4503,-127.6182C235.3925,-138.6043 246.4999,-152.2506 256.2373,-164.2137"/>
<polygon fill="#000000" stroke="#000000" points="253.6891,-166.6273 262.7163,-172.1735 259.118,-162.2084 253.6891,-166.6273"/>
</g>
<!-- GO:0016740 -->
<g id="node6" class="node">
<title>GO:0016740</title>
<polygon fill="#00ff00" stroke="#000000" points="569.617,-127.4019 447.3936,-127.4019 447.3936,-86.1981 569.617,-86.1981 569.617,-127.4019"/>
<text text-anchor="middle" x="508.5053" y="-111" font-family="Times,serif" font-size="14.00" fill="#000000">GO:0016740</text>
<text text-anchor="middle" x="508.5053" y="-94.2" font-family="Times,serif" font-size="14.00" fill="#000000">transferase activity</text>
</g>
<!-- GO:0003824 -->
<g id="node7" class="node">
<title>GO:0003824</title>
<polygon fill="#ff0000" stroke="#000000" points="506.9177,-213.4019 398.0929,-213.4019 398.0929,-172.1981 506.9177,-172.1981 506.9177,-213.4019"/>
<text text-anchor="middle" x="452.5053" y="-197" font-family="Times,serif" font-size="14.00" fill="#000000">GO:0003824</text>
<text text-anchor="middle" x="452.5053" y="-180.2" font-family="Times,serif" font-size="14.00" fill="#000000">catalytic activity</text>
</g>
<!-- GO:0016740&#45;&gt;GO:0003824 -->
<g id="edge5" class="edge">
<title>GO:0016740&#45;&gt;GO:0003824</title>
<path fill="none" stroke="#000000" d="M494.9493,-127.6182C487.9331,-138.393 479.2507,-151.7267 471.5703,-163.5216"/>
<polygon fill="#000000" stroke="#000000" points="468.4603,-161.8836 465.9365,-172.1735 474.3263,-165.7034 468.4603,-161.8836"/>
</g>
<!-- GO:0003824&#45;&gt;GO:0003674 -->
<g id="edge6" class="edge">
<title>GO:0003824&#45;&gt;GO:0003674</title>
<path fill="none" stroke="#000000" d="M421.6874,-213.5954C407.8945,-222.9026 391.4696,-233.9858 376.8056,-243.8809"/>
<polygon fill="#000000" stroke="#000000" points="374.7399,-241.0524 368.4083,-249.5472 378.6553,-246.855 374.7399,-241.0524"/>
</g>
<!-- GO:0097159 -->
<g id="node8" class="node">
<title>GO:0097159</title>
<polygon fill="#00ffff" stroke="#000000" points="429.0167,-136.2014 271.9939,-136.2014 271.9939,-77.3986 429.0167,-77.3986 429.0167,-136.2014"/>
<text text-anchor="middle" x="350.5053" y="-119.4" font-family="Times,serif" font-size="14.00" fill="#000000">GO:0097159</text>
<text text-anchor="middle" x="350.5053" y="-102.6" font-family="Times,serif" font-size="14.00" fill="#000000">organic cyclic compound</text>
<text text-anchor="middle" x="350.5053" y="-85.8" font-family="Times,serif" font-size="14.00" fill="#000000">binding</text>
</g>
<!-- GO:0097159&#45;&gt;GO:0005488 -->
<g id="edge7" class="edge">
<title>GO:0097159&#45;&gt;GO:0005488</title>
<path fill="none" stroke="#000000" d="M326.0711,-136.3963C318.639,-145.3986 310.4878,-155.2719 303.1114,-164.2067"/>
<polygon fill="#000000" stroke="#000000" points="300.2652,-162.1567 296.5977,-172.0966 305.6633,-166.6133 300.2652,-162.1567"/>
</g>
</g>
</svg>
