<?xml version="1.0" encoding="UTF-8" standalone="no"?>
<!DOCTYPE svg PUBLIC "-//W3C//DTD SVG 1.1//EN"
 "http://www.w3.org/Graphics/SVG/1.1/DTD/svg11.dtd">
<!-- Generated by graphviz version 2.40.1 (20161225.0304)
 -->
<!-- Title: G Pages: 1 -->
<svg width="731pt" height="238pt"
 viewBox="0.00 0.00 731.43 238.40" xmlns="http://www.w3.org/2000/svg" xmlns:xlink="http://www.w3.org/1999/xlink">
<g id="graph0" class="graph" transform="scale(1 1) rotate(0) translate(4 234.4)">
<title>G</title>
<polygon fill="#ffffff" stroke="transparent" points="-4,4 -4,-234.4 727.4345,-234.4 727.4345,4 -4,4"/>
<!-- GO:0050789 -->
<g id="node1" class="node">
<title>GO:0050789</title>
<polygon fill="#ffff00" stroke="#000000" points="147.6213,-153.0014 -.2075,-153.0014 -.2075,-94.1986 147.6213,-94.1986 147.6213,-153.0014"/>
<text text-anchor="middle" x="73.7069" y="-136.2" font-family="Times,serif" font-size="14.00" fill="#000000">GO:0050789</text>
<text text-anchor="middle" x="73.7069" y="-119.4" font-family="Times,serif" font-size="14.00" fill="#000000">regulation of biological</text>
<text text-anchor="middle" x="73.7069" y="-102.6" font-family="Times,serif" font-size="14.00" fill="#000000">process</text>
</g>
<!-- GO:0008150 -->
<g id="node2" class="node">
<title>GO:0008150</title>
<polygon fill="#ffffff" stroke="#000000" points="452.1775,-230.2019 331.2363,-230.2019 331.2363,-188.9981 452.1775,-188.9981 452.1775,-230.2019"/>
<text text-anchor="middle" x="391.7069" y="-213.8" font-family="Times,serif" font-size="14.00" fill="#000000">GO:0008150</text>
<text text-anchor="middle" x="391.7069" y="-197" font-family="Times,serif" font-size="14.00" fill="#000000">biological_process</text>
</g>
<!-- GO:0050789&#45;&gt;GO:0008150 -->
<g id="edge1" class="edge">
<title>GO:0050789&#45;&gt;GO:0008150</title>
<path fill="none" stroke="#000000" d="M147.7973,-150.0829C150.799,-151.0234 153.7774,-151.9331 156.7069,-152.8 211.379,-168.9791 274.1965,-183.9807 321.122,-194.4991"/>
<polygon fill="#000000" stroke="#000000" points="320.3637,-197.9159 330.8855,-196.6743 321.886,-191.0834 320.3637,-197.9159"/>
</g>
<!-- GO:0065007 -->
<g id="node3" class="node">
<title>GO:0065007</title>
<polygon fill="#ffff00" stroke="#000000" points="297.9603,-144.2019 165.4535,-144.2019 165.4535,-102.9981 297.9603,-102.9981 297.9603,-144.2019"/>
<text text-anchor="middle" x="231.7069" y="-127.8" font-family="Times,serif" font-size="14.00" fill="#000000">GO:0065007</text>
<text text-anchor="middle" x="231.7069" y="-111" font-family="Times,serif" font-size="14.00" fill="#000000">biological regulation</text>
</g>
<!-- GO:0065007&#45;&gt;GO:0008150 -->
<g id="edge2" class="edge">
<title>GO:0065007&#45;&gt;GO:0008150</title>
<path fill="none" stroke="#000000" d="M270.4384,-144.4182C292.6465,-156.355 320.6973,-171.4323 344.2257,-184.0788"/>
<polygon fill="#000000" stroke="#000000" points="342.8667,-187.3219 353.332,-188.9735 346.1809,-181.1561 342.8667,-187.3219"/>
</g>
<!-- GO:0044699 -->
<g id="node4" class="node">
<title>GO:0044699</title>
<polygon fill="#00ffff" stroke="#000000" points="467.3882,-144.2019 316.0256,-144.2019 316.0256,-102.9981 467.3882,-102.9981 467.3882,-144.2019"/>
<text text-anchor="middle" x="391.7069" y="-127.8" font-family="Times,serif" font-size="14.00" fill="#000000">GO:0044699</text>
<text text-anchor="middle" x="391.7069" y="-111" font-family="Times,serif" font-size="14.00" fill="#000000">single&#45;organism process</text>
</g>
<!-- GO:0044699&#45;&gt;GO:0008150 -->
<g id="edge3" class="edge">
<title>GO:0044699&#45;&gt;GO:0008150</title>
<path fill="none" stroke="#000000" d="M391.7069,-144.4182C391.7069,-154.7705 391.7069,-167.4848 391.7069,-178.9271"/>
<polygon fill="#000000" stroke="#000000" points="388.207,-178.9735 391.7069,-188.9735 395.207,-178.9735 388.207,-178.9735"/>
</g>
<!-- GO:0008152 -->
<g id="node5" class="node">
<title>GO:0008152</title>
<polygon fill="#00ffff" stroke="#000000" points="601.8925,-144.2019 485.5213,-144.2019 485.5213,-102.9981 601.8925,-102.9981 601.8925,-144.2019"/>
<text text-anchor="middle" x="543.7069" y="-127.8" font-family="Times,serif" font-size="14.00" fill="#000000">GO:0008152</text>
<text text-anchor="middle" x="543.7069" y="-111" font-family="Times,serif" font-size="14.00" fill="#000000">metabolic process</text>
</g>
<!-- GO:0008152&#45;&gt;GO:0008150 -->
<g id="edge4" class="edge">
<title>GO:0008152&#45;&gt;GO:0008150</title>
<path fill="none" stroke="#000000" d="M506.9119,-144.4182C485.9077,-156.3022 459.4018,-171.299 437.111,-183.9108"/>
<polygon fill="#000000" stroke="#000000" points="435.143,-181.0029 428.163,-188.9735 438.5901,-187.0953 435.143,-181.0029"/>
</g>
<!-- GO:0050794 -->
<g id="node6" class="node">
<title>GO:0050794</title>
<polygon fill="#ffff00" stroke="#000000" points="219.6059,-58.6014 85.8079,-58.6014 85.8079,.2014 219.6059,.2014 219.6059,-58.6014"/>
<text text-anchor="middle" x="152.7069" y="-41.8" font-family="Times,serif" font-size="14.00" fill="#000000">GO:0050794</text>
<text text-anchor="middle" x="152.7069" y="-25" font-family="Times,serif" font-size="14.00" fill="#000000">regulation of cellular</text>
<text text-anchor="middle" x="152.7069" y="-8.2" font-family="Times,serif" font-size="14.00" fill="#000000">process</text>
</g>
<!-- GO:0050794&#45;&gt;GO:0050789 -->
<g id="edge6" class="edge">
<title>GO:0050794&#45;&gt;GO:0050789</title>
<path fill="none" stroke="#000000" d="M128.1439,-58.5513C120.7871,-67.3422 112.6196,-77.1018 104.8962,-86.3308"/>
<polygon fill="#000000" stroke="#000000" points="101.9885,-84.3517 98.2548,-94.2669 107.3567,-88.8442 101.9885,-84.3517"/>
</g>
<!-- GO:0050794&#45;&gt;GO:0065007 -->
<g id="edge5" class="edge">
<title>GO:0050794&#45;&gt;GO:0065007</title>
<path fill="none" stroke="#000000" d="M177.2699,-58.5513C187.0592,-70.2488 198.2838,-83.6615 207.9877,-95.257"/>
<polygon fill="#000000" stroke="#000000" points="205.3245,-97.5283 214.4265,-102.951 210.6927,-93.0358 205.3245,-97.5283"/>
</g>
<!-- GO:0009987 -->
<g id="node7" class="node">
<title>GO:0009987</title>
<polygon fill="#ffa500" stroke="#000000" points="723.6631,-144.2019 619.7507,-144.2019 619.7507,-102.9981 723.6631,-102.9981 723.6631,-144.2019"/>
<text text-anchor="middle" x="671.7069" y="-127.8" font-family="Times,serif" font-size="14.00" fill="#000000">GO:0009987</text>
<text text-anchor="middle" x="671.7069" y="-111" font-family="Times,serif" font-size="14.00" fill="#000000">cellular process</text>
</g>
<!-- GO:0009987&#45;&gt;GO:0008150 -->
<g id="edge7" class="edge">
<title>GO:0009987&#45;&gt;GO:0008150</title>
<path fill="none" stroke="#000000" d="M631.157,-144.3403C624.4194,-147.3996 617.4345,-150.3434 610.7069,-152.8 562.272,-170.4862 505.924,-184.9696 462.5147,-194.8842"/>
<polygon fill="#000000" stroke="#000000" points="461.6006,-191.5024 452.6159,-197.1173 463.141,-198.3308 461.6006,-191.5024"/>
</g>
<!-- GO:0071704 -->
<g id="node8" class="node">
<title>GO:0071704</title>
<polygon fill="#00ffff" stroke="#000000" points="601.8925,-58.6014 485.5213,-58.6014 485.5213,.2014 601.8925,.2014 601.8925,-58.6014"/>
<text text-anchor="middle" x="543.7069" y="-41.8" font-family="Times,serif" font-size="14.00" fill="#000000">GO:0071704</text>
<text text-anchor="middle" x="543.7069" y="-25" font-family="Times,serif" font-size="14.00" fill="#000000">organic substance</text>
<text text-anchor="middle" x="543.7069" y="-8.2" font-family="Times,serif" font-size="14.00" fill="#000000">metabolic process</text>
</g>
<!-- GO:0071704&#45;&gt;GO:0008152 -->
<g id="edge8" class="edge">
<title>GO:0071704&#45;&gt;GO:0008152</title>
<path fill="none" stroke="#000000" d="M543.7069,-58.5513C543.7069,-69.4614 543.7069,-81.8637 543.7069,-92.892"/>
<polygon fill="#000000" stroke="#000000" points="540.207,-92.9509 543.7069,-102.951 547.207,-92.951 540.207,-92.9509"/>
</g>
</g>
</svg>
