<?xml version="1.0" encoding="UTF-8" standalone="no"?>
<!DOCTYPE svg PUBLIC "-//W3C//DTD SVG 1.1//EN"
 "http://www.w3.org/Graphics/SVG/1.1/DTD/svg11.dtd">
<!-- Generated by graphviz version 2.40.1 (20161225.0304)
 -->
<!-- Title: G Pages: 1 -->
<svg width="528pt" height="471pt"
 viewBox="0.00 0.00 527.53 471.20" xmlns="http://www.w3.org/2000/svg" xmlns:xlink="http://www.w3.org/1999/xlink">
<g id="graph0" class="graph" transform="scale(1 1) rotate(0) translate(4 467.2)">
<title>G</title>
<polygon fill="#ffffff" stroke="transparent" points="-4,4 -4,-467.2 523.5323,-467.2 523.5323,4 -4,4"/>
<!-- GO:0043229 -->
<g id="node1" class="node">
<title>GO:0043229</title>
<polygon fill="#ffff00" stroke="#000000" points="373.2703,-221.8019 233.8335,-221.8019 233.8335,-180.5981 373.2703,-180.5981 373.2703,-221.8019"/>
<text text-anchor="middle" x="303.5519" y="-205.4" font-family="Times,serif" font-size="14.00" fill="#000000">GO:0043229</text>
<text text-anchor="middle" x="303.5519" y="-188.6" font-family="Times,serif" font-size="14.00" fill="#000000">intracellular organelle</text>
</g>
<!-- GO:0044424 -->
<g id="node2" class="node">
<title>GO:0044424</title>
<polygon fill="#ffffff" stroke="#000000" points="228.9503,-307.8019 120.1535,-307.8019 120.1535,-266.5981 228.9503,-266.5981 228.9503,-307.8019"/>
<text text-anchor="middle" x="174.5519" y="-291.4" font-family="Times,serif" font-size="14.00" fill="#000000">GO:0044424</text>
<text text-anchor="middle" x="174.5519" y="-274.6" font-family="Times,serif" font-size="14.00" fill="#000000">intracellular part</text>
</g>
<!-- GO:0043229&#45;&gt;GO:0044424 -->
<g id="edge1" class="edge">
<title>GO:0043229&#45;&gt;GO:0044424</title>
<path fill="none" stroke="#000000" d="M272.3246,-222.0182C254.7363,-233.7437 232.6025,-248.4996 213.8443,-261.0051"/>
<polygon fill="#000000" stroke="#000000" points="211.8707,-258.1143 205.4916,-266.5735 215.7536,-263.9386 211.8707,-258.1143"/>
</g>
<!-- GO:0043226 -->
<g id="node3" class="node">
<title>GO:0043226</title>
<polygon fill="#ffff00" stroke="#000000" points="348.1558,-307.8019 258.948,-307.8019 258.948,-266.5981 348.1558,-266.5981 348.1558,-307.8019"/>
<text text-anchor="middle" x="303.5519" y="-291.4" font-family="Times,serif" font-size="14.00" fill="#000000">GO:0043226</text>
<text text-anchor="middle" x="303.5519" y="-274.6" font-family="Times,serif" font-size="14.00" fill="#000000">organelle</text>
</g>
<!-- GO:0043229&#45;&gt;GO:0043226 -->
<g id="edge2" class="edge">
<title>GO:0043229&#45;&gt;GO:0043226</title>
<path fill="none" stroke="#000000" d="M303.5519,-222.0182C303.5519,-232.3705 303.5519,-245.0848 303.5519,-256.5271"/>
<polygon fill="#000000" stroke="#000000" points="300.052,-256.5735 303.5519,-266.5735 307.052,-256.5735 300.052,-256.5735"/>
</g>
<!-- GO:0044464 -->
<g id="node4" class="node">
<title>GO:0044464</title>
<polygon fill="#ffffff" stroke="#000000" points="241.1558,-385.4019 151.948,-385.4019 151.948,-344.1981 241.1558,-344.1981 241.1558,-385.4019"/>
<text text-anchor="middle" x="196.5519" y="-369" font-family="Times,serif" font-size="14.00" fill="#000000">GO:0044464</text>
<text text-anchor="middle" x="196.5519" y="-352.2" font-family="Times,serif" font-size="14.00" fill="#000000">cell part</text>
</g>
<!-- GO:0044424&#45;&gt;GO:0044464 -->
<g id="edge3" class="edge">
<title>GO:0044424&#45;&gt;GO:0044464</title>
<path fill="none" stroke="#000000" d="M180.4475,-307.9954C182.7162,-315.9978 185.3572,-325.3133 187.8362,-334.0575"/>
<polygon fill="#000000" stroke="#000000" points="184.5451,-335.2811 190.64,-343.9472 191.2797,-333.3717 184.5451,-335.2811"/>
</g>
<!-- GO:0005575 -->
<g id="node5" class="node">
<title>GO:0005575</title>
<polygon fill="#ffffff" stroke="#000000" points="296.2386,-463.0019 168.8652,-463.0019 168.8652,-421.7981 296.2386,-421.7981 296.2386,-463.0019"/>
<text text-anchor="middle" x="232.5519" y="-446.6" font-family="Times,serif" font-size="14.00" fill="#000000">GO:0005575</text>
<text text-anchor="middle" x="232.5519" y="-429.8" font-family="Times,serif" font-size="14.00" fill="#000000">cellular_component</text>
</g>
<!-- GO:0043226&#45;&gt;GO:0005575 -->
<g id="edge4" class="edge">
<title>GO:0043226&#45;&gt;GO:0005575</title>
<path fill="none" stroke="#000000" d="M294.1236,-307.8094C281.8701,-334.5947 260.3802,-381.5697 246.3067,-412.3331"/>
<polygon fill="#000000" stroke="#000000" points="242.9965,-411.1557 242.0191,-421.7054 249.3621,-414.0678 242.9965,-411.1557"/>
</g>
<!-- GO:0044464&#45;&gt;GO:0005575 -->
<g id="edge7" class="edge">
<title>GO:0044464&#45;&gt;GO:0005575</title>
<path fill="none" stroke="#000000" d="M206.1992,-385.5954C209.9924,-393.7718 214.4215,-403.3189 218.5541,-412.227"/>
<polygon fill="#000000" stroke="#000000" points="215.4945,-413.9488 222.8779,-421.5472 221.8445,-411.0029 215.4945,-413.9488"/>
</g>
<!-- GO:0043227 -->
<g id="node6" class="node">
<title>GO:0043227</title>
<polygon fill="#00ff00" stroke="#000000" points="519.5127,-230.6014 391.5911,-230.6014 391.5911,-171.7986 519.5127,-171.7986 519.5127,-230.6014"/>
<text text-anchor="middle" x="455.5519" y="-213.8" font-family="Times,serif" font-size="14.00" fill="#000000">GO:0043227</text>
<text text-anchor="middle" x="455.5519" y="-197" font-family="Times,serif" font-size="14.00" fill="#000000">membrane&#45;bounded</text>
<text text-anchor="middle" x="455.5519" y="-180.2" font-family="Times,serif" font-size="14.00" fill="#000000">organelle</text>
</g>
<!-- GO:0043227&#45;&gt;GO:0043226 -->
<g id="edge5" class="edge">
<title>GO:0043227&#45;&gt;GO:0043226</title>
<path fill="none" stroke="#000000" d="M403.6673,-230.5558C385.944,-240.5834 366.2689,-251.7154 349.0843,-261.4383"/>
<polygon fill="#000000" stroke="#000000" points="347.3283,-258.4103 340.3484,-266.3809 350.7754,-264.5028 347.3283,-258.4103"/>
</g>
<!-- GO:0005737 -->
<g id="node7" class="node">
<title>GO:0005737</title>
<polygon fill="#ffff00" stroke="#000000" points="89.1558,-221.8019 -.052,-221.8019 -.052,-180.5981 89.1558,-180.5981 89.1558,-221.8019"/>
<text text-anchor="middle" x="44.5519" y="-205.4" font-family="Times,serif" font-size="14.00" fill="#000000">GO:0005737</text>
<text text-anchor="middle" x="44.5519" y="-188.6" font-family="Times,serif" font-size="14.00" fill="#000000">cytoplasm</text>
</g>
<!-- GO:0005737&#45;&gt;GO:0044424 -->
<g id="edge6" class="edge">
<title>GO:0005737&#45;&gt;GO:0044424</title>
<path fill="none" stroke="#000000" d="M76.0213,-222.0182C93.7459,-233.7437 116.0513,-248.4996 134.9549,-261.0051"/>
<polygon fill="#000000" stroke="#000000" points="133.101,-263.9752 143.3723,-266.5735 136.9632,-258.137 133.101,-263.9752"/>
</g>
<!-- GO:0005634 -->
<g id="node8" class="node">
<title>GO:0005634</title>
<polygon fill="#00ffff" stroke="#000000" points="424.1558,-41.4019 334.948,-41.4019 334.948,-.1981 424.1558,-.1981 424.1558,-41.4019"/>
<text text-anchor="middle" x="379.5519" y="-25" font-family="Times,serif" font-size="14.00" fill="#000000">GO:0005634</text>
<text text-anchor="middle" x="379.5519" y="-8.2" font-family="Times,serif" font-size="14.00" fill="#000000">nucleus</text>
</g>
<!-- GO:0043231 -->
<g id="node9" class="node">
<title>GO:0043231</title>
<polygon fill="#00ff00" stroke="#000000" points="454.9307,-136.2014 304.1731,-136.2014 304.1731,-77.3986 454.9307,-77.3986 454.9307,-136.2014"/>
<text text-anchor="middle" x="379.5519" y="-119.4" font-family="Times,serif" font-size="14.00" fill="#000000">GO:0043231</text>
<text text-anchor="middle" x="379.5519" y="-102.6" font-family="Times,serif" font-size="14.00" fill="#000000">intracellular membrane&#45;</text>
<text text-anchor="middle" x="379.5519" y="-85.8" font-family="Times,serif" font-size="14.00" fill="#000000">bounded organelle</text>
</g>
<!-- GO:0005634&#45;&gt;GO:0043231 -->
<g id="edge8" class="edge">
<title>GO:0005634&#45;&gt;GO:0043231</title>
<path fill="none" stroke="#000000" d="M379.5519,-41.6182C379.5519,-49.3358 379.5519,-58.3662 379.5519,-67.2036"/>
<polygon fill="#000000" stroke="#000000" points="376.052,-67.3991 379.5519,-77.3991 383.052,-67.3992 376.052,-67.3991"/>
</g>
<!-- GO:0043231&#45;&gt;GO:0043229 -->
<g id="edge9" class="edge">
<title>GO:0043231&#45;&gt;GO:0043229</title>
<path fill="none" stroke="#000000" d="M355.9216,-136.1513C346.5947,-147.7363 335.9133,-161.0037 326.6401,-172.522"/>
<polygon fill="#000000" stroke="#000000" points="323.7209,-170.5667 320.1761,-180.551 329.1735,-174.9565 323.7209,-170.5667"/>
</g>
<!-- GO:0043231&#45;&gt;GO:0043227 -->
<g id="edge10" class="edge">
<title>GO:0043231&#45;&gt;GO:0043227</title>
<path fill="none" stroke="#000000" d="M403.1822,-136.1513C410.2596,-144.9422 418.1169,-154.7018 425.547,-163.9308"/>
<polygon fill="#000000" stroke="#000000" points="422.9389,-166.2724 431.9362,-171.8669 428.3914,-161.8826 422.9389,-166.2724"/>
</g>
<!-- GO:0005829 -->
<g id="node10" class="node">
<title>GO:0005829</title>
<polygon fill="#ff0000" stroke="#000000" points="206.1558,-127.4019 116.948,-127.4019 116.948,-86.1981 206.1558,-86.1981 206.1558,-127.4019"/>
<text text-anchor="middle" x="161.5519" y="-111" font-family="Times,serif" font-size="14.00" fill="#000000">GO:0005829</text>
<text text-anchor="middle" x="161.5519" y="-94.2" font-family="Times,serif" font-size="14.00" fill="#000000">cytosol</text>
</g>
<!-- GO:0044444 -->
<g id="node11" class="node">
<title>GO:0044444</title>
<polygon fill="#ffffff" stroke="#000000" points="215.9685,-221.8019 107.1353,-221.8019 107.1353,-180.5981 215.9685,-180.5981 215.9685,-221.8019"/>
<text text-anchor="middle" x="161.5519" y="-205.4" font-family="Times,serif" font-size="14.00" fill="#000000">GO:0044444</text>
<text text-anchor="middle" x="161.5519" y="-188.6" font-family="Times,serif" font-size="14.00" fill="#000000">cytoplasmic part</text>
</g>
<!-- GO:0005829&#45;&gt;GO:0044444 -->
<g id="edge11" class="edge">
<title>GO:0005829&#45;&gt;GO:0044444</title>
<path fill="none" stroke="#000000" d="M161.5519,-127.7504C161.5519,-140.2165 161.5519,-156.2645 161.5519,-170.1786"/>
<polygon fill="#000000" stroke="#000000" points="158.052,-170.3081 161.5519,-180.3081 165.052,-170.3082 158.052,-170.3081"/>
</g>
<!-- GO:0044444&#45;&gt;GO:0044424 -->
<g id="edge12" class="edge">
<title>GO:0044444&#45;&gt;GO:0044424</title>
<path fill="none" stroke="#000000" d="M164.6988,-222.0182C166.2637,-232.3705 168.1857,-245.0848 169.9153,-256.5271"/>
<polygon fill="#000000" stroke="#000000" points="166.4785,-257.209 171.4339,-266.5735 173.3999,-256.1627 166.4785,-257.209"/>
</g>
</g>
</svg>
