<?xml version="1.0" encoding="UTF-8" standalone="no"?>
<!DOCTYPE svg PUBLIC "-//W3C//DTD SVG 1.1//EN"
 "http://www.w3.org/Graphics/SVG/1.1/DTD/svg11.dtd">
<!-- Generated by graphviz version 2.40.1 (20161225.0304)
 -->
<!-- Title: G Pages: 1 -->
<svg width="237pt" height="360pt"
 viewBox="0.00 0.00 236.84 360.00" xmlns="http://www.w3.org/2000/svg" xmlns:xlink="http://www.w3.org/1999/xlink">
<g id="graph0" class="graph" transform="scale(1 1) rotate(0) translate(4 356)">
<title>G</title>
<polygon fill="#ffffff" stroke="transparent" points="-4,4 -4,-356 232.8426,-356 232.8426,4 -4,4"/>
<!-- GO:0046872 -->
<g id="node1" class="node">
<title>GO:0046872</title>
<polygon fill="#ffff00" stroke="#000000" points="114.6594,-41.4019 .1134,-41.4019 .1134,-.1981 114.6594,-.1981 114.6594,-41.4019"/>
<text text-anchor="middle" x="57.3864" y="-25" font-family="Times,serif" font-size="14.00" fill="#000000">GO:0046872</text>
<text text-anchor="middle" x="57.3864" y="-8.2" font-family="Times,serif" font-size="14.00" fill="#000000">metal ion binding</text>
</g>
<!-- GO:0043169 -->
<g id="node2" class="node">
<title>GO:0043169</title>
<polygon fill="#ffffff" stroke="#000000" points="105.8793,-119.0019 8.8935,-119.0019 8.8935,-77.7981 105.8793,-77.7981 105.8793,-119.0019"/>
<text text-anchor="middle" x="57.3864" y="-102.6" font-family="Times,serif" font-size="14.00" fill="#000000">GO:0043169</text>
<text text-anchor="middle" x="57.3864" y="-85.8" font-family="Times,serif" font-size="14.00" fill="#000000">cation binding</text>
</g>
<!-- GO:0046872&#45;&gt;GO:0043169 -->
<g id="edge1" class="edge">
<title>GO:0046872&#45;&gt;GO:0043169</title>
<path fill="none" stroke="#000000" d="M57.3864,-41.5954C57.3864,-49.5109 57.3864,-58.7109 57.3864,-67.3722"/>
<polygon fill="#000000" stroke="#000000" points="53.8865,-67.5472 57.3864,-77.5472 60.8865,-67.5473 53.8865,-67.5472"/>
</g>
<!-- GO:0043167 -->
<g id="node3" class="node">
<title>GO:0043167</title>
<polygon fill="#ffffff" stroke="#000000" points="101.9903,-196.6019 12.7825,-196.6019 12.7825,-155.3981 101.9903,-155.3981 101.9903,-196.6019"/>
<text text-anchor="middle" x="57.3864" y="-180.2" font-family="Times,serif" font-size="14.00" fill="#000000">GO:0043167</text>
<text text-anchor="middle" x="57.3864" y="-163.4" font-family="Times,serif" font-size="14.00" fill="#000000">ion binding</text>
</g>
<!-- GO:0043169&#45;&gt;GO:0043167 -->
<g id="edge2" class="edge">
<title>GO:0043169&#45;&gt;GO:0043167</title>
<path fill="none" stroke="#000000" d="M57.3864,-119.1954C57.3864,-127.1109 57.3864,-136.3109 57.3864,-144.9722"/>
<polygon fill="#000000" stroke="#000000" points="53.8865,-145.1472 57.3864,-155.1472 60.8865,-145.1473 53.8865,-145.1472"/>
</g>
<!-- GO:0005488 -->
<g id="node4" class="node">
<title>GO:0005488</title>
<polygon fill="#ffffff" stroke="#000000" points="101.9903,-274.2019 12.7825,-274.2019 12.7825,-232.9981 101.9903,-232.9981 101.9903,-274.2019"/>
<text text-anchor="middle" x="57.3864" y="-257.8" font-family="Times,serif" font-size="14.00" fill="#000000">GO:0005488</text>
<text text-anchor="middle" x="57.3864" y="-241" font-family="Times,serif" font-size="14.00" fill="#000000">binding</text>
</g>
<!-- GO:0043167&#45;&gt;GO:0005488 -->
<g id="edge3" class="edge">
<title>GO:0043167&#45;&gt;GO:0005488</title>
<path fill="none" stroke="#000000" d="M57.3864,-196.7954C57.3864,-204.7109 57.3864,-213.9109 57.3864,-222.5722"/>
<polygon fill="#000000" stroke="#000000" points="53.8865,-222.7472 57.3864,-232.7472 60.8865,-222.7473 53.8865,-222.7472"/>
</g>
<!-- GO:0003674 -->
<g id="node5" class="node">
<title>GO:0003674</title>
<polygon fill="#ffffff" stroke="#000000" points="178.0195,-351.8019 52.7533,-351.8019 52.7533,-310.5981 178.0195,-310.5981 178.0195,-351.8019"/>
<text text-anchor="middle" x="115.3864" y="-335.4" font-family="Times,serif" font-size="14.00" fill="#000000">GO:0003674</text>
<text text-anchor="middle" x="115.3864" y="-318.6" font-family="Times,serif" font-size="14.00" fill="#000000">molecular_function</text>
</g>
<!-- GO:0005488&#45;&gt;GO:0003674 -->
<g id="edge4" class="edge">
<title>GO:0005488&#45;&gt;GO:0003674</title>
<path fill="none" stroke="#000000" d="M72.9293,-274.3954C79.3006,-282.9197 86.7855,-292.9339 93.6816,-302.1605"/>
<polygon fill="#000000" stroke="#000000" points="91.0103,-304.4327 99.8006,-310.3472 96.6172,-300.2419 91.0103,-304.4327"/>
</g>
<!-- GO:0003824 -->
<g id="node6" class="node">
<title>GO:0003824</title>
<polygon fill="#ffff00" stroke="#000000" points="228.7988,-274.2019 119.974,-274.2019 119.974,-232.9981 228.7988,-232.9981 228.7988,-274.2019"/>
<text text-anchor="middle" x="174.3864" y="-257.8" font-family="Times,serif" font-size="14.00" fill="#000000">GO:0003824</text>
<text text-anchor="middle" x="174.3864" y="-241" font-family="Times,serif" font-size="14.00" fill="#000000">catalytic activity</text>
</g>
<!-- GO:0003824&#45;&gt;GO:0003674 -->
<g id="edge5" class="edge">
<title>GO:0003824&#45;&gt;GO:0003674</title>
<path fill="none" stroke="#000000" d="M158.5755,-274.3954C152.0943,-282.9197 144.4805,-292.9339 137.4654,-302.1605"/>
<polygon fill="#000000" stroke="#000000" points="134.5072,-300.2684 131.241,-310.3472 140.0796,-304.5051 134.5072,-300.2684"/>
</g>
</g>
</svg>
