<?xml version="1.0" encoding="UTF-8" standalone="no"?>
<!DOCTYPE svg PUBLIC "-//W3C//DTD SVG 1.1//EN"
 "http://www.w3.org/Graphics/SVG/1.1/DTD/svg11.dtd">
<!-- Generated by graphviz version 2.40.1 (20161225.0304)
 -->
<!-- Title: G Pages: 1 -->
<svg width="597pt" height="238pt"
 viewBox="0.00 0.00 596.57 238.40" xmlns="http://www.w3.org/2000/svg" xmlns:xlink="http://www.w3.org/1999/xlink">
<g id="graph0" class="graph" transform="scale(1 1) rotate(0) translate(4 234.4)">
<title>G</title>
<polygon fill="#ffffff" stroke="transparent" points="-4,4 -4,-234.4 592.5681,-234.4 592.5681,4 -4,4"/>
<!-- GO:0044699 -->
<g id="node1" class="node">
<title>GO:0044699</title>
<polygon fill="#00ffff" stroke="#000000" points="151.5218,-144.2019 .1592,-144.2019 .1592,-102.9981 151.5218,-102.9981 151.5218,-144.2019"/>
<text text-anchor="middle" x="75.8405" y="-127.8" font-family="Times,serif" font-size="14.00" fill="#000000">GO:0044699</text>
<text text-anchor="middle" x="75.8405" y="-111" font-family="Times,serif" font-size="14.00" fill="#000000">single&#45;organism process</text>
</g>
<!-- GO:0008150 -->
<g id="node2" class="node">
<title>GO:0008150</title>
<polygon fill="#ffffff" stroke="#000000" points="375.3111,-230.2019 254.3699,-230.2019 254.3699,-188.9981 375.3111,-188.9981 375.3111,-230.2019"/>
<text text-anchor="middle" x="314.8405" y="-213.8" font-family="Times,serif" font-size="14.00" fill="#000000">GO:0008150</text>
<text text-anchor="middle" x="314.8405" y="-197" font-family="Times,serif" font-size="14.00" fill="#000000">biological_process</text>
</g>
<!-- GO:0044699&#45;&gt;GO:0008150 -->
<g id="edge1" class="edge">
<title>GO:0044699&#45;&gt;GO:0008150</title>
<path fill="none" stroke="#000000" d="M133.3911,-144.3086C167.8791,-156.7185 211.8823,-172.5523 247.9182,-185.5192"/>
<polygon fill="#000000" stroke="#000000" points="246.7811,-188.8296 257.3755,-188.9222 249.1512,-182.2431 246.7811,-188.8296"/>
</g>
<!-- GO:0065007 -->
<g id="node3" class="node">
<title>GO:0065007</title>
<polygon fill="#ffff00" stroke="#000000" points="302.0939,-144.2019 169.5871,-144.2019 169.5871,-102.9981 302.0939,-102.9981 302.0939,-144.2019"/>
<text text-anchor="middle" x="235.8405" y="-127.8" font-family="Times,serif" font-size="14.00" fill="#000000">GO:0065007</text>
<text text-anchor="middle" x="235.8405" y="-111" font-family="Times,serif" font-size="14.00" fill="#000000">biological regulation</text>
</g>
<!-- GO:0065007&#45;&gt;GO:0008150 -->
<g id="edge2" class="edge">
<title>GO:0065007&#45;&gt;GO:0008150</title>
<path fill="none" stroke="#000000" d="M254.9642,-144.4182C265.1531,-155.5099 277.8329,-169.3132 288.8975,-181.3583"/>
<polygon fill="#000000" stroke="#000000" points="286.5503,-183.9768 295.8929,-188.9735 291.7054,-179.2413 286.5503,-183.9768"/>
</g>
<!-- GO:0048518 -->
<g id="node4" class="node">
<title>GO:0048518</title>
<polygon fill="#ff00ff" stroke="#000000" points="305.5939,-58.6014 170.0871,-58.6014 170.0871,.2014 305.5939,.2014 305.5939,-58.6014"/>
<text text-anchor="middle" x="237.8405" y="-41.8" font-family="Times,serif" font-size="14.00" fill="#000000">GO:0048518</text>
<text text-anchor="middle" x="237.8405" y="-25" font-family="Times,serif" font-size="14.00" fill="#000000">positive regulation of</text>
<text text-anchor="middle" x="237.8405" y="-8.2" font-family="Times,serif" font-size="14.00" fill="#000000">biological process</text>
</g>
<!-- GO:0048518&#45;&gt;GO:0065007 -->
<g id="edge3" class="edge">
<title>GO:0048518&#45;&gt;GO:0065007</title>
<path fill="none" stroke="#000000" d="M237.2187,-58.5513C236.9875,-69.4614 236.7247,-81.8637 236.4911,-92.892"/>
<polygon fill="#000000" stroke="#000000" points="232.9907,-92.8791 236.278,-102.951 239.9891,-93.0274 232.9907,-92.8791"/>
</g>
<!-- GO:0050789 -->
<g id="node5" class="node">
<title>GO:0050789</title>
<polygon fill="#ffffff" stroke="#000000" points="467.7549,-153.0014 319.9261,-153.0014 319.9261,-94.1986 467.7549,-94.1986 467.7549,-153.0014"/>
<text text-anchor="middle" x="393.8405" y="-136.2" font-family="Times,serif" font-size="14.00" fill="#000000">GO:0050789</text>
<text text-anchor="middle" x="393.8405" y="-119.4" font-family="Times,serif" font-size="14.00" fill="#000000">regulation of biological</text>
<text text-anchor="middle" x="393.8405" y="-102.6" font-family="Times,serif" font-size="14.00" fill="#000000">process</text>
</g>
<!-- GO:0048518&#45;&gt;GO:0050789 -->
<g id="edge4" class="edge">
<title>GO:0048518&#45;&gt;GO:0050789</title>
<path fill="none" stroke="#000000" d="M286.3447,-58.5513C302.1927,-68.1413 319.9458,-78.8842 336.3874,-88.8335"/>
<polygon fill="#000000" stroke="#000000" points="334.9987,-92.0841 345.3663,-94.2669 338.6228,-86.0952 334.9987,-92.0841"/>
</g>
<!-- GO:0050789&#45;&gt;GO:0008150 -->
<g id="edge5" class="edge">
<title>GO:0050789&#45;&gt;GO:0008150</title>
<path fill="none" stroke="#000000" d="M366.6532,-153.1963C358.2992,-162.2905 349.1288,-172.2734 340.8554,-181.28"/>
<polygon fill="#000000" stroke="#000000" points="338.0463,-179.1643 333.8588,-188.8966 343.2014,-183.8999 338.0463,-179.1643"/>
</g>
<!-- GO:0009987 -->
<g id="node6" class="node">
<title>GO:0009987</title>
<polygon fill="#00ffff" stroke="#000000" points="588.7967,-144.2019 484.8843,-144.2019 484.8843,-102.9981 588.7967,-102.9981 588.7967,-144.2019"/>
<text text-anchor="middle" x="536.8405" y="-127.8" font-family="Times,serif" font-size="14.00" fill="#000000">GO:0009987</text>
<text text-anchor="middle" x="536.8405" y="-111" font-family="Times,serif" font-size="14.00" fill="#000000">cellular process</text>
</g>
<!-- GO:0009987&#45;&gt;GO:0008150 -->
<g id="edge6" class="edge">
<title>GO:0009987&#45;&gt;GO:0008150</title>
<path fill="none" stroke="#000000" d="M495.8139,-144.3417C489.5134,-147.3009 483.0421,-150.214 476.8405,-152.8 447.1836,-165.1669 413.7738,-177.1914 385.0321,-186.9686"/>
<polygon fill="#000000" stroke="#000000" points="383.8307,-183.68 375.476,-190.1954 386.0702,-190.3121 383.8307,-183.68"/>
</g>
<!-- GO:0050794 -->
<g id="node7" class="node">
<title>GO:0050794</title>
<polygon fill="#ffff00" stroke="#000000" points="458.7395,-58.6014 324.9415,-58.6014 324.9415,.2014 458.7395,.2014 458.7395,-58.6014"/>
<text text-anchor="middle" x="391.8405" y="-41.8" font-family="Times,serif" font-size="14.00" fill="#000000">GO:0050794</text>
<text text-anchor="middle" x="391.8405" y="-25" font-family="Times,serif" font-size="14.00" fill="#000000">regulation of cellular</text>
<text text-anchor="middle" x="391.8405" y="-8.2" font-family="Times,serif" font-size="14.00" fill="#000000">process</text>
</g>
<!-- GO:0050794&#45;&gt;GO:0065007 -->
<g id="edge7" class="edge">
<title>GO:0050794&#45;&gt;GO:0065007</title>
<path fill="none" stroke="#000000" d="M343.3363,-58.5513C322.6116,-71.0923 298.629,-85.6049 278.5819,-97.736"/>
<polygon fill="#000000" stroke="#000000" points="276.7074,-94.7793 269.9639,-102.951 280.3314,-100.7682 276.7074,-94.7793"/>
</g>
<!-- GO:0050794&#45;&gt;GO:0050789 -->
<g id="edge8" class="edge">
<title>GO:0050794&#45;&gt;GO:0050789</title>
<path fill="none" stroke="#000000" d="M392.4623,-58.5513C392.6335,-66.6318 392.8221,-75.5308 393.0033,-84.0838"/>
<polygon fill="#000000" stroke="#000000" points="389.5079,-84.3433 393.219,-94.2669 396.5063,-84.1949 389.5079,-84.3433"/>
</g>
</g>
</svg>
