<?xml version="1.0" encoding="UTF-8" standalone="no"?>
<!DOCTYPE svg PUBLIC "-//W3C//DTD SVG 1.1//EN"
 "http://www.w3.org/Graphics/SVG/1.1/DTD/svg11.dtd">
<!-- Generated by graphviz version 2.40.1 (20161225.0304)
 -->
<!-- Title: G Pages: 1 -->
<svg width="1368pt" height="983pt"
 viewBox="0.00 0.00 1368.03 983.20" xmlns="http://www.w3.org/2000/svg" xmlns:xlink="http://www.w3.org/1999/xlink">
<g id="graph0" class="graph" transform="scale(1 1) rotate(0) translate(4 979.2)">
<title>G</title>
<polygon fill="#ffffff" stroke="transparent" points="-4,4 -4,-979.2 1364.0302,-979.2 1364.0302,4 -4,4"/>
<!-- GO:0080090 -->
<g id="node1" class="node">
<title>GO:0080090</title>
<polygon fill="#00ff00" stroke="#000000" points="135.6091,-700.6014 .1301,-700.6014 .1301,-641.7986 135.6091,-641.7986 135.6091,-700.6014"/>
<text text-anchor="middle" x="67.8696" y="-683.8" font-family="Times,serif" font-size="14.00" fill="#000000">GO:0080090</text>
<text text-anchor="middle" x="67.8696" y="-667" font-family="Times,serif" font-size="14.00" fill="#000000">regulation of primary</text>
<text text-anchor="middle" x="67.8696" y="-650.2" font-family="Times,serif" font-size="14.00" fill="#000000">metabolic process</text>
</g>
<!-- GO:0019222 -->
<g id="node2" class="node">
<title>GO:0019222</title>
<polygon fill="#ffffff" stroke="#000000" points="390.9985,-803.4014 244.7407,-803.4014 244.7407,-744.5986 390.9985,-744.5986 390.9985,-803.4014"/>
<text text-anchor="middle" x="317.8696" y="-786.6" font-family="Times,serif" font-size="14.00" fill="#000000">GO:0019222</text>
<text text-anchor="middle" x="317.8696" y="-769.8" font-family="Times,serif" font-size="14.00" fill="#000000">regulation of metabolic</text>
<text text-anchor="middle" x="317.8696" y="-753" font-family="Times,serif" font-size="14.00" fill="#000000">process</text>
</g>
<!-- GO:0080090&#45;&gt;GO:0019222 -->
<g id="edge1" class="edge">
<title>GO:0080090&#45;&gt;GO:0019222</title>
<path fill="none" stroke="#000000" d="M126.4624,-700.5144C132.6406,-703.3943 138.8594,-706.2068 144.8696,-708.8 173.8626,-721.3095 206.1208,-733.8332 234.8529,-744.5127"/>
<polygon fill="#000000" stroke="#000000" points="233.8586,-747.8766 244.4518,-748.0611 236.2858,-741.3109 233.8586,-747.8766"/>
</g>
<!-- GO:0065007 -->
<g id="node3" class="node">
<title>GO:0065007</title>
<polygon fill="#ffa500" stroke="#000000" points="603.123,-889.0019 470.6162,-889.0019 470.6162,-847.7981 603.123,-847.7981 603.123,-889.0019"/>
<text text-anchor="middle" x="536.8696" y="-872.6" font-family="Times,serif" font-size="14.00" fill="#000000">GO:0065007</text>
<text text-anchor="middle" x="536.8696" y="-855.8" font-family="Times,serif" font-size="14.00" fill="#000000">biological regulation</text>
</g>
<!-- GO:0019222&#45;&gt;GO:0065007 -->
<g id="edge2" class="edge">
<title>GO:0019222&#45;&gt;GO:0065007</title>
<path fill="none" stroke="#000000" d="M385.6628,-803.2223C415.6843,-816.163 450.6233,-831.2235 479.3483,-843.6054"/>
<polygon fill="#000000" stroke="#000000" points="478.2669,-846.9506 488.8356,-847.6949 481.0378,-840.5223 478.2669,-846.9506"/>
</g>
<!-- GO:0050789 -->
<g id="node4" class="node">
<title>GO:0050789</title>
<polygon fill="#ffff00" stroke="#000000" points="768.784,-897.8014 620.9552,-897.8014 620.9552,-838.9986 768.784,-838.9986 768.784,-897.8014"/>
<text text-anchor="middle" x="694.8696" y="-881" font-family="Times,serif" font-size="14.00" fill="#000000">GO:0050789</text>
<text text-anchor="middle" x="694.8696" y="-864.2" font-family="Times,serif" font-size="14.00" fill="#000000">regulation of biological</text>
<text text-anchor="middle" x="694.8696" y="-847.4" font-family="Times,serif" font-size="14.00" fill="#000000">process</text>
</g>
<!-- GO:0019222&#45;&gt;GO:0050789 -->
<g id="edge3" class="edge">
<title>GO:0019222&#45;&gt;GO:0050789</title>
<path fill="none" stroke="#000000" d="M391.438,-800.878C394.2737,-801.6974 397.0913,-802.4753 399.8696,-803.2 489.276,-826.5205 517.4817,-816.0163 610.9814,-839.1528"/>
<polygon fill="#000000" stroke="#000000" points="610.2971,-842.5901 620.8509,-841.6584 612.0196,-835.8053 610.2971,-842.5901"/>
</g>
<!-- GO:0008150 -->
<g id="node5" class="node">
<title>GO:0008150</title>
<polygon fill="#ffffff" stroke="#000000" points="982.3402,-975.0019 861.399,-975.0019 861.399,-933.7981 982.3402,-933.7981 982.3402,-975.0019"/>
<text text-anchor="middle" x="921.8696" y="-958.6" font-family="Times,serif" font-size="14.00" fill="#000000">GO:0008150</text>
<text text-anchor="middle" x="921.8696" y="-941.8" font-family="Times,serif" font-size="14.00" fill="#000000">biological_process</text>
</g>
<!-- GO:0065007&#45;&gt;GO:0008150 -->
<g id="edge4" class="edge">
<title>GO:0065007&#45;&gt;GO:0008150</title>
<path fill="none" stroke="#000000" d="M586.0377,-889.0712C594.5575,-892.2114 603.4004,-895.199 611.8696,-897.6 692.5261,-920.4657 787.6829,-936.3074 851.0898,-945.3421"/>
<polygon fill="#000000" stroke="#000000" points="850.9864,-948.8619 861.3762,-946.7877 851.9606,-941.93 850.9864,-948.8619"/>
</g>
<!-- GO:0050789&#45;&gt;GO:0008150 -->
<g id="edge5" class="edge">
<title>GO:0050789&#45;&gt;GO:0008150</title>
<path fill="none" stroke="#000000" d="M768.8838,-896.4406C797.5861,-907.3146 830.1371,-919.6467 857.813,-930.1319"/>
<polygon fill="#000000" stroke="#000000" points="856.7933,-933.4882 867.3847,-933.7581 859.2733,-926.9423 856.7933,-933.4882"/>
</g>
<!-- GO:0048583 -->
<g id="node6" class="node">
<title>GO:0048583</title>
<polygon fill="#00ffff" stroke="#000000" points="869.1615,-803.4014 714.5777,-803.4014 714.5777,-744.5986 869.1615,-744.5986 869.1615,-803.4014"/>
<text text-anchor="middle" x="791.8696" y="-786.6" font-family="Times,serif" font-size="14.00" fill="#000000">GO:0048583</text>
<text text-anchor="middle" x="791.8696" y="-769.8" font-family="Times,serif" font-size="14.00" fill="#000000">regulation of response to</text>
<text text-anchor="middle" x="791.8696" y="-753" font-family="Times,serif" font-size="14.00" fill="#000000">stimulus</text>
</g>
<!-- GO:0048583&#45;&gt;GO:0065007 -->
<g id="edge6" class="edge">
<title>GO:0048583&#45;&gt;GO:0065007</title>
<path fill="none" stroke="#000000" d="M714.197,-801.6791C682.4134,-813.1238 645.3164,-826.6334 611.8696,-839.2 607.7105,-840.7626 603.4276,-842.3876 599.1157,-844.0352"/>
<polygon fill="#000000" stroke="#000000" points="597.7478,-840.8112 589.6668,-847.6631 600.2569,-847.3461 597.7478,-840.8112"/>
</g>
<!-- GO:0048583&#45;&gt;GO:0050789 -->
<g id="edge7" class="edge">
<title>GO:0048583&#45;&gt;GO:0050789</title>
<path fill="none" stroke="#000000" d="M761.7099,-803.3513C752.4032,-812.4086 742.0398,-822.4941 732.3047,-831.9683"/>
<polygon fill="#000000" stroke="#000000" points="729.7361,-829.5842 725.0106,-839.0669 734.6182,-834.6007 729.7361,-829.5842"/>
</g>
<!-- GO:0032446 -->
<g id="node7" class="node">
<title>GO:0032446</title>
<polygon fill="#00ff00" stroke="#000000" points="1197.458,-144.6014 1038.2812,-144.6014 1038.2812,-85.7986 1197.458,-85.7986 1197.458,-144.6014"/>
<text text-anchor="middle" x="1117.8696" y="-127.8" font-family="Times,serif" font-size="14.00" fill="#000000">GO:0032446</text>
<text text-anchor="middle" x="1117.8696" y="-111" font-family="Times,serif" font-size="14.00" fill="#000000">protein modification by</text>
<text text-anchor="middle" x="1117.8696" y="-94.2" font-family="Times,serif" font-size="14.00" fill="#000000">small protein conjugation</text>
</g>
<!-- GO:0070647 -->
<g id="node8" class="node">
<title>GO:0070647</title>
<polygon fill="#ffffff" stroke="#000000" points="1197.458,-264.1003 1038.2812,-264.1003 1038.2812,-188.6997 1197.458,-188.6997 1197.458,-264.1003"/>
<text text-anchor="middle" x="1117.8696" y="-247.4" font-family="Times,serif" font-size="14.00" fill="#000000">GO:0070647</text>
<text text-anchor="middle" x="1117.8696" y="-230.6" font-family="Times,serif" font-size="14.00" fill="#000000">protein modification by</text>
<text text-anchor="middle" x="1117.8696" y="-213.8" font-family="Times,serif" font-size="14.00" fill="#000000">small protein conjugation</text>
<text text-anchor="middle" x="1117.8696" y="-197" font-family="Times,serif" font-size="14.00" fill="#000000">or removal</text>
</g>
<!-- GO:0032446&#45;&gt;GO:0070647 -->
<g id="edge8" class="edge">
<title>GO:0032446&#45;&gt;GO:0070647</title>
<path fill="none" stroke="#000000" d="M1117.8696,-144.4165C1117.8696,-154.8682 1117.8696,-166.9391 1117.8696,-178.5501"/>
<polygon fill="#000000" stroke="#000000" points="1114.3697,-178.583 1117.8696,-188.583 1121.3697,-178.5831 1114.3697,-178.583"/>
</g>
<!-- GO:0006464 -->
<g id="node9" class="node">
<title>GO:0006464</title>
<polygon fill="#ffffff" stroke="#000000" points="1184.3914,-367.0014 1051.3478,-367.0014 1051.3478,-308.1986 1184.3914,-308.1986 1184.3914,-367.0014"/>
<text text-anchor="middle" x="1117.8696" y="-350.2" font-family="Times,serif" font-size="14.00" fill="#000000">GO:0006464</text>
<text text-anchor="middle" x="1117.8696" y="-333.4" font-family="Times,serif" font-size="14.00" fill="#000000">cellular protein</text>
<text text-anchor="middle" x="1117.8696" y="-316.6" font-family="Times,serif" font-size="14.00" fill="#000000">modification process</text>
</g>
<!-- GO:0070647&#45;&gt;GO:0006464 -->
<g id="edge9" class="edge">
<title>GO:0070647&#45;&gt;GO:0006464</title>
<path fill="none" stroke="#000000" d="M1117.8696,-264.0472C1117.8696,-274.9338 1117.8696,-286.849 1117.8696,-297.8589"/>
<polygon fill="#000000" stroke="#000000" points="1114.3697,-298.0741 1117.8696,-308.0742 1121.3697,-298.0742 1114.3697,-298.0741"/>
</g>
<!-- GO:0044267 -->
<g id="node10" class="node">
<title>GO:0044267</title>
<polygon fill="#ffffff" stroke="#000000" points="1105.0552,-478.2014 988.684,-478.2014 988.684,-419.3986 1105.0552,-419.3986 1105.0552,-478.2014"/>
<text text-anchor="middle" x="1046.8696" y="-461.4" font-family="Times,serif" font-size="14.00" fill="#000000">GO:0044267</text>
<text text-anchor="middle" x="1046.8696" y="-444.6" font-family="Times,serif" font-size="14.00" fill="#000000">cellular protein</text>
<text text-anchor="middle" x="1046.8696" y="-427.8" font-family="Times,serif" font-size="14.00" fill="#000000">metabolic process</text>
</g>
<!-- GO:0006464&#45;&gt;GO:0044267 -->
<g id="edge10" class="edge">
<title>GO:0006464&#45;&gt;GO:0044267</title>
<path fill="none" stroke="#000000" d="M1099.2152,-366.8165C1090.641,-380.2453 1080.3601,-396.3472 1071.1882,-410.7122"/>
<polygon fill="#000000" stroke="#000000" points="1068.0775,-409.0805 1065.6459,-419.3926 1073.9775,-412.8476 1068.0775,-409.0805"/>
</g>
<!-- GO:0036211 -->
<g id="node11" class="node">
<title>GO:0036211</title>
<polygon fill="#ffffff" stroke="#000000" points="1254.0691,-478.2014 1123.6701,-478.2014 1123.6701,-419.3986 1254.0691,-419.3986 1254.0691,-478.2014"/>
<text text-anchor="middle" x="1188.8696" y="-461.4" font-family="Times,serif" font-size="14.00" fill="#000000">GO:0036211</text>
<text text-anchor="middle" x="1188.8696" y="-444.6" font-family="Times,serif" font-size="14.00" fill="#000000">protein modification</text>
<text text-anchor="middle" x="1188.8696" y="-427.8" font-family="Times,serif" font-size="14.00" fill="#000000">process</text>
</g>
<!-- GO:0006464&#45;&gt;GO:0036211 -->
<g id="edge11" class="edge">
<title>GO:0006464&#45;&gt;GO:0036211</title>
<path fill="none" stroke="#000000" d="M1136.524,-366.8165C1145.0982,-380.2453 1155.3791,-396.3472 1164.551,-410.7122"/>
<polygon fill="#000000" stroke="#000000" points="1161.7617,-412.8476 1170.0933,-419.3926 1167.6617,-409.0805 1161.7617,-412.8476"/>
</g>
<!-- GO:0019538 -->
<g id="node12" class="node">
<title>GO:0019538</title>
<polygon fill="#00ff00" stroke="#000000" points="1197.7113,-580.6019 1038.0279,-580.6019 1038.0279,-539.3981 1197.7113,-539.3981 1197.7113,-580.6019"/>
<text text-anchor="middle" x="1117.8696" y="-564.2" font-family="Times,serif" font-size="14.00" fill="#000000">GO:0019538</text>
<text text-anchor="middle" x="1117.8696" y="-547.4" font-family="Times,serif" font-size="14.00" fill="#000000">protein metabolic process</text>
</g>
<!-- GO:0044267&#45;&gt;GO:0019538 -->
<g id="edge12" class="edge">
<title>GO:0044267&#45;&gt;GO:0019538</title>
<path fill="none" stroke="#000000" d="M1065.524,-478.0165C1075.8546,-494.1962 1088.6628,-514.2564 1099.0238,-530.4837"/>
<polygon fill="#000000" stroke="#000000" points="1096.1653,-532.5106 1104.4968,-539.0556 1102.0652,-528.7435 1096.1653,-532.5106"/>
</g>
<!-- GO:0044260 -->
<g id="node13" class="node">
<title>GO:0044260</title>
<polygon fill="#00ff00" stroke="#000000" points="1019.642,-589.4014 872.0972,-589.4014 872.0972,-530.5986 1019.642,-530.5986 1019.642,-589.4014"/>
<text text-anchor="middle" x="945.8696" y="-572.6" font-family="Times,serif" font-size="14.00" fill="#000000">GO:0044260</text>
<text text-anchor="middle" x="945.8696" y="-555.8" font-family="Times,serif" font-size="14.00" fill="#000000">cellular macromolecule</text>
<text text-anchor="middle" x="945.8696" y="-539" font-family="Times,serif" font-size="14.00" fill="#000000">metabolic process</text>
</g>
<!-- GO:0044267&#45;&gt;GO:0044260 -->
<g id="edge13" class="edge">
<title>GO:0044267&#45;&gt;GO:0044260</title>
<path fill="none" stroke="#000000" d="M1020.333,-478.0165C1007.7908,-491.8254 992.6813,-508.4608 979.3598,-523.1276"/>
<polygon fill="#000000" stroke="#000000" points="976.7122,-520.8369 972.5796,-530.5926 981.8939,-525.5433 976.7122,-520.8369"/>
</g>
<!-- GO:0036211&#45;&gt;GO:0019538 -->
<g id="edge14" class="edge">
<title>GO:0036211&#45;&gt;GO:0019538</title>
<path fill="none" stroke="#000000" d="M1170.2152,-478.0165C1159.8846,-494.1962 1147.0764,-514.2564 1136.7154,-530.4837"/>
<polygon fill="#000000" stroke="#000000" points="1133.674,-528.7435 1131.2424,-539.0556 1139.5739,-532.5106 1133.674,-528.7435"/>
</g>
<!-- GO:0043412 -->
<g id="node14" class="node">
<title>GO:0043412</title>
<polygon fill="#ffffff" stroke="#000000" points="1318.166,-589.4014 1215.5732,-589.4014 1215.5732,-530.5986 1318.166,-530.5986 1318.166,-589.4014"/>
<text text-anchor="middle" x="1266.8696" y="-572.6" font-family="Times,serif" font-size="14.00" fill="#000000">GO:0043412</text>
<text text-anchor="middle" x="1266.8696" y="-555.8" font-family="Times,serif" font-size="14.00" fill="#000000">macromolecule</text>
<text text-anchor="middle" x="1266.8696" y="-539" font-family="Times,serif" font-size="14.00" fill="#000000">modification</text>
</g>
<!-- GO:0036211&#45;&gt;GO:0043412 -->
<g id="edge15" class="edge">
<title>GO:0036211&#45;&gt;GO:0043412</title>
<path fill="none" stroke="#000000" d="M1209.3632,-478.0165C1218.8715,-491.572 1230.2905,-507.8513 1240.4382,-522.3183"/>
<polygon fill="#000000" stroke="#000000" points="1237.6341,-524.4157 1246.2421,-530.5926 1243.3649,-520.3959 1237.6341,-524.4157"/>
</g>
<!-- GO:0044238 -->
<g id="node15" class="node">
<title>GO:0044238</title>
<polygon fill="#00ff00" stroke="#000000" points="1330.8726,-691.8019 1166.8666,-691.8019 1166.8666,-650.5981 1330.8726,-650.5981 1330.8726,-691.8019"/>
<text text-anchor="middle" x="1248.8696" y="-675.4" font-family="Times,serif" font-size="14.00" fill="#000000">GO:0044238</text>
<text text-anchor="middle" x="1248.8696" y="-658.6" font-family="Times,serif" font-size="14.00" fill="#000000">primary metabolic process</text>
</g>
<!-- GO:0019538&#45;&gt;GO:0044238 -->
<g id="edge16" class="edge">
<title>GO:0019538&#45;&gt;GO:0044238</title>
<path fill="none" stroke="#000000" d="M1142.2027,-580.6553C1163.1183,-598.4096 1193.452,-624.1585 1216.4293,-643.6629"/>
<polygon fill="#000000" stroke="#000000" points="1214.3336,-646.4749 1224.2223,-650.278 1218.8636,-641.1383 1214.3336,-646.4749"/>
</g>
<!-- GO:0043170 -->
<g id="node16" class="node">
<title>GO:0043170</title>
<polygon fill="#ffffff" stroke="#000000" points="1148.3718,-700.6014 987.3674,-700.6014 987.3674,-641.7986 1148.3718,-641.7986 1148.3718,-700.6014"/>
<text text-anchor="middle" x="1067.8696" y="-683.8" font-family="Times,serif" font-size="14.00" fill="#000000">GO:0043170</text>
<text text-anchor="middle" x="1067.8696" y="-667" font-family="Times,serif" font-size="14.00" fill="#000000">macromolecule metabolic</text>
<text text-anchor="middle" x="1067.8696" y="-650.2" font-family="Times,serif" font-size="14.00" fill="#000000">process</text>
</g>
<!-- GO:0019538&#45;&gt;GO:0043170 -->
<g id="edge17" class="edge">
<title>GO:0019538&#45;&gt;GO:0043170</title>
<path fill="none" stroke="#000000" d="M1108.5822,-580.6553C1102.0531,-595.1759 1093.1195,-615.0442 1085.2841,-632.4702"/>
<polygon fill="#000000" stroke="#000000" points="1081.9751,-631.2948 1081.0663,-641.8506 1088.3594,-634.1655 1081.9751,-631.2948"/>
</g>
<!-- GO:0044260&#45;&gt;GO:0043170 -->
<g id="edge19" class="edge">
<title>GO:0044260&#45;&gt;GO:0043170</title>
<path fill="none" stroke="#000000" d="M977.9237,-589.2165C993.2127,-603.1521 1011.6599,-619.9663 1027.8584,-634.7308"/>
<polygon fill="#000000" stroke="#000000" points="1025.8576,-637.6429 1035.606,-641.7926 1030.5731,-632.4694 1025.8576,-637.6429"/>
</g>
<!-- GO:0044237 -->
<g id="node17" class="node">
<title>GO:0044237</title>
<polygon fill="#ffffff" stroke="#000000" points="1004.0524,-803.4014 887.6868,-803.4014 887.6868,-744.5986 1004.0524,-744.5986 1004.0524,-803.4014"/>
<text text-anchor="middle" x="945.8696" y="-786.6" font-family="Times,serif" font-size="14.00" fill="#000000">GO:0044237</text>
<text text-anchor="middle" x="945.8696" y="-769.8" font-family="Times,serif" font-size="14.00" fill="#000000">cellular metabolic</text>
<text text-anchor="middle" x="945.8696" y="-753" font-family="Times,serif" font-size="14.00" fill="#000000">process</text>
</g>
<!-- GO:0044260&#45;&gt;GO:0044237 -->
<g id="edge18" class="edge">
<title>GO:0044260&#45;&gt;GO:0044237</title>
<path fill="none" stroke="#000000" d="M945.8696,-589.3071C945.8696,-626.9806 945.8696,-692.5333 945.8696,-734.5582"/>
<polygon fill="#000000" stroke="#000000" points="942.3697,-734.7042 945.8696,-744.7043 949.3697,-734.7043 942.3697,-734.7042"/>
</g>
<!-- GO:0043412&#45;&gt;GO:0043170 -->
<g id="edge20" class="edge">
<title>GO:0043412&#45;&gt;GO:0043170</title>
<path fill="none" stroke="#000000" d="M1220.8879,-589.2869C1216.1811,-592.1427 1211.448,-594.958 1206.8696,-597.6 1183.5893,-611.0341 1157.6614,-625.0186 1134.5638,-637.1441"/>
<polygon fill="#000000" stroke="#000000" points="1132.7679,-634.1335 1125.5281,-641.8689 1136.0115,-640.3367 1132.7679,-634.1335"/>
</g>
<!-- GO:0008152 -->
<g id="node18" class="node">
<title>GO:0008152</title>
<polygon fill="#ffffff" stroke="#000000" points="1044.0552,-889.0019 927.684,-889.0019 927.684,-847.7981 1044.0552,-847.7981 1044.0552,-889.0019"/>
<text text-anchor="middle" x="985.8696" y="-872.6" font-family="Times,serif" font-size="14.00" fill="#000000">GO:0008152</text>
<text text-anchor="middle" x="985.8696" y="-855.8" font-family="Times,serif" font-size="14.00" fill="#000000">metabolic process</text>
</g>
<!-- GO:0044238&#45;&gt;GO:0008152 -->
<g id="edge21" class="edge">
<title>GO:0044238&#45;&gt;GO:0008152</title>
<path fill="none" stroke="#000000" d="M1237.9286,-691.953C1221.8049,-720.6929 1189.0691,-772.5285 1147.8696,-803.2 1111.6518,-830.1628 1094.6891,-822.1752 1052.8696,-839.2 1049.2705,-840.6652 1045.5737,-842.1977 1041.854,-843.7605"/>
<polygon fill="#000000" stroke="#000000" points="1040.4416,-840.5577 1032.6036,-847.6863 1043.1763,-847.0014 1040.4416,-840.5577"/>
</g>
<!-- GO:0071704 -->
<g id="node19" class="node">
<title>GO:0071704</title>
<polygon fill="#ffffff" stroke="#000000" points="1139.0552,-803.4014 1022.684,-803.4014 1022.684,-744.5986 1139.0552,-744.5986 1139.0552,-803.4014"/>
<text text-anchor="middle" x="1080.8696" y="-786.6" font-family="Times,serif" font-size="14.00" fill="#000000">GO:0071704</text>
<text text-anchor="middle" x="1080.8696" y="-769.8" font-family="Times,serif" font-size="14.00" fill="#000000">organic substance</text>
<text text-anchor="middle" x="1080.8696" y="-753" font-family="Times,serif" font-size="14.00" fill="#000000">metabolic process</text>
</g>
<!-- GO:0043170&#45;&gt;GO:0071704 -->
<g id="edge22" class="edge">
<title>GO:0043170&#45;&gt;GO:0071704</title>
<path fill="none" stroke="#000000" d="M1071.5949,-700.6584C1072.9276,-711.1969 1074.4519,-723.2505 1075.8744,-734.4994"/>
<polygon fill="#000000" stroke="#000000" points="1072.4167,-735.0555 1077.1438,-744.5373 1079.3614,-734.1772 1072.4167,-735.0555"/>
</g>
<!-- GO:0044237&#45;&gt;GO:0008152 -->
<g id="edge24" class="edge">
<title>GO:0044237&#45;&gt;GO:0008152</title>
<path fill="none" stroke="#000000" d="M958.3066,-803.3513C963.0249,-814.4864 968.4017,-827.1758 973.146,-838.3724"/>
<polygon fill="#000000" stroke="#000000" points="969.9958,-839.909 977.12,-847.751 976.4411,-837.1779 969.9958,-839.909"/>
</g>
<!-- GO:0009987 -->
<g id="node20" class="node">
<title>GO:0009987</title>
<polygon fill="#ffa500" stroke="#000000" points="909.8258,-889.0019 805.9134,-889.0019 805.9134,-847.7981 909.8258,-847.7981 909.8258,-889.0019"/>
<text text-anchor="middle" x="857.8696" y="-872.6" font-family="Times,serif" font-size="14.00" fill="#000000">GO:0009987</text>
<text text-anchor="middle" x="857.8696" y="-855.8" font-family="Times,serif" font-size="14.00" fill="#000000">cellular process</text>
</g>
<!-- GO:0044237&#45;&gt;GO:0009987 -->
<g id="edge23" class="edge">
<title>GO:0044237&#45;&gt;GO:0009987</title>
<path fill="none" stroke="#000000" d="M918.5082,-803.3513C907.4989,-815.1612 894.8598,-828.7196 883.9797,-840.391"/>
<polygon fill="#000000" stroke="#000000" points="881.3773,-838.0497 877.1187,-847.751 886.4976,-842.8229 881.3773,-838.0497"/>
</g>
<!-- GO:0008152&#45;&gt;GO:0008150 -->
<g id="edge25" class="edge">
<title>GO:0008152&#45;&gt;GO:0008150</title>
<path fill="none" stroke="#000000" d="M970.377,-889.2182C962.2799,-900.0987 952.241,-913.5884 943.4003,-925.4681"/>
<polygon fill="#000000" stroke="#000000" points="940.3819,-923.6616 937.2195,-933.7735 945.9975,-927.8407 940.3819,-923.6616"/>
</g>
<!-- GO:0071704&#45;&gt;GO:0008152 -->
<g id="edge26" class="edge">
<title>GO:0071704&#45;&gt;GO:0008152</title>
<path fill="none" stroke="#000000" d="M1051.3318,-803.3513C1039.4467,-815.1612 1025.8022,-828.7196 1014.0566,-840.391"/>
<polygon fill="#000000" stroke="#000000" points="1011.2763,-838.2196 1006.6499,-847.751 1016.2104,-843.185 1011.2763,-838.2196"/>
</g>
<!-- GO:0009987&#45;&gt;GO:0008150 -->
<g id="edge27" class="edge">
<title>GO:0009987&#45;&gt;GO:0008150</title>
<path fill="none" stroke="#000000" d="M873.3622,-889.2182C881.4593,-900.0987 891.4982,-913.5884 900.3389,-925.4681"/>
<polygon fill="#000000" stroke="#000000" points="897.7417,-927.8407 906.5197,-933.7735 903.3573,-923.6616 897.7417,-927.8407"/>
</g>
<!-- GO:0048518 -->
<g id="node21" class="node">
<title>GO:0048518</title>
<polygon fill="#00ff00" stroke="#000000" points="696.623,-803.4014 561.1162,-803.4014 561.1162,-744.5986 696.623,-744.5986 696.623,-803.4014"/>
<text text-anchor="middle" x="628.8696" y="-786.6" font-family="Times,serif" font-size="14.00" fill="#000000">GO:0048518</text>
<text text-anchor="middle" x="628.8696" y="-769.8" font-family="Times,serif" font-size="14.00" fill="#000000">positive regulation of</text>
<text text-anchor="middle" x="628.8696" y="-753" font-family="Times,serif" font-size="14.00" fill="#000000">biological process</text>
</g>
<!-- GO:0048518&#45;&gt;GO:0065007 -->
<g id="edge28" class="edge">
<title>GO:0048518&#45;&gt;GO:0065007</title>
<path fill="none" stroke="#000000" d="M600.2645,-803.3513C588.7548,-815.1612 575.5412,-828.7196 564.1665,-840.391"/>
<polygon fill="#000000" stroke="#000000" points="561.4666,-838.1466 556.9936,-847.751 566.4797,-843.0323 561.4666,-838.1466"/>
</g>
<!-- GO:0048518&#45;&gt;GO:0050789 -->
<g id="edge29" class="edge">
<title>GO:0048518&#45;&gt;GO:0050789</title>
<path fill="none" stroke="#000000" d="M649.3906,-803.3513C655.4747,-812.0534 662.2225,-821.7047 668.6171,-830.8509"/>
<polygon fill="#000000" stroke="#000000" points="665.7628,-832.8768 674.3613,-839.0669 671.4997,-828.8658 665.7628,-832.8768"/>
</g>
<!-- GO:0060255 -->
<g id="node22" class="node">
<title>GO:0060255</title>
<polygon fill="#00ff00" stroke="#000000" points="363.3718,-597.7003 202.3674,-597.7003 202.3674,-522.2997 363.3718,-522.2997 363.3718,-597.7003"/>
<text text-anchor="middle" x="282.8696" y="-581" font-family="Times,serif" font-size="14.00" fill="#000000">GO:0060255</text>
<text text-anchor="middle" x="282.8696" y="-564.2" font-family="Times,serif" font-size="14.00" fill="#000000">regulation of</text>
<text text-anchor="middle" x="282.8696" y="-547.4" font-family="Times,serif" font-size="14.00" fill="#000000">macromolecule metabolic</text>
<text text-anchor="middle" x="282.8696" y="-530.6" font-family="Times,serif" font-size="14.00" fill="#000000">process</text>
</g>
<!-- GO:0060255&#45;&gt;GO:0019222 -->
<g id="edge30" class="edge">
<title>GO:0060255&#45;&gt;GO:0019222</title>
<path fill="none" stroke="#000000" d="M292.9898,-597.635C295.8299,-609.1192 298.7245,-621.8233 300.8696,-633.6 307.0145,-667.3352 311.5143,-706.0476 314.3351,-734.2666"/>
<polygon fill="#000000" stroke="#000000" points="310.8822,-734.9216 315.3339,-744.5358 317.8493,-734.2439 310.8822,-734.9216"/>
</g>
<!-- GO:2001141 -->
<g id="node23" class="node">
<title>GO:2001141</title>
<polygon fill="#00ffff" stroke="#000000" points="431.7848,-367.0014 301.9544,-367.0014 301.9544,-308.1986 431.7848,-308.1986 431.7848,-367.0014"/>
<text text-anchor="middle" x="366.8696" y="-350.2" font-family="Times,serif" font-size="14.00" fill="#000000">GO:2001141</text>
<text text-anchor="middle" x="366.8696" y="-333.4" font-family="Times,serif" font-size="14.00" fill="#000000">regulation of RNA</text>
<text text-anchor="middle" x="366.8696" y="-316.6" font-family="Times,serif" font-size="14.00" fill="#000000">biosynthetic process</text>
</g>
<!-- GO:0031326 -->
<g id="node24" class="node">
<title>GO:0031326</title>
<polygon fill="#ffffff" stroke="#000000" points="605.7686,-478.2014 471.9706,-478.2014 471.9706,-419.3986 605.7686,-419.3986 605.7686,-478.2014"/>
<text text-anchor="middle" x="538.8696" y="-461.4" font-family="Times,serif" font-size="14.00" fill="#000000">GO:0031326</text>
<text text-anchor="middle" x="538.8696" y="-444.6" font-family="Times,serif" font-size="14.00" fill="#000000">regulation of cellular</text>
<text text-anchor="middle" x="538.8696" y="-427.8" font-family="Times,serif" font-size="14.00" fill="#000000">biosynthetic process</text>
</g>
<!-- GO:2001141&#45;&gt;GO:0031326 -->
<g id="edge31" class="edge">
<title>GO:2001141&#45;&gt;GO:0031326</title>
<path fill="none" stroke="#000000" d="M412.0606,-366.8165C434.488,-381.3161 461.7358,-398.9321 485.2174,-414.1132"/>
<polygon fill="#000000" stroke="#000000" points="483.3841,-417.0957 493.6821,-419.5858 487.1846,-411.2172 483.3841,-417.0957"/>
</g>
<!-- GO:0051252 -->
<g id="node25" class="node">
<title>GO:0051252</title>
<polygon fill="#00ffff" stroke="#000000" points="306.3416,-478.2014 185.3976,-478.2014 185.3976,-419.3986 306.3416,-419.3986 306.3416,-478.2014"/>
<text text-anchor="middle" x="245.8696" y="-461.4" font-family="Times,serif" font-size="14.00" fill="#000000">GO:0051252</text>
<text text-anchor="middle" x="245.8696" y="-444.6" font-family="Times,serif" font-size="14.00" fill="#000000">regulation of RNA</text>
<text text-anchor="middle" x="245.8696" y="-427.8" font-family="Times,serif" font-size="14.00" fill="#000000">metabolic process</text>
</g>
<!-- GO:2001141&#45;&gt;GO:0051252 -->
<g id="edge32" class="edge">
<title>GO:2001141&#45;&gt;GO:0051252</title>
<path fill="none" stroke="#000000" d="M335.0783,-366.8165C319.9146,-380.7521 301.6185,-397.5663 285.5528,-412.3308"/>
<polygon fill="#000000" stroke="#000000" points="282.8634,-410.0489 277.8687,-419.3926 287.6,-415.203 282.8634,-410.0489"/>
</g>
<!-- GO:0010556 -->
<g id="node26" class="node">
<title>GO:0010556</title>
<polygon fill="#ffffff" stroke="#000000" points="453.7848,-486.5003 323.9544,-486.5003 323.9544,-411.0997 453.7848,-411.0997 453.7848,-486.5003"/>
<text text-anchor="middle" x="388.8696" y="-469.8" font-family="Times,serif" font-size="14.00" fill="#000000">GO:0010556</text>
<text text-anchor="middle" x="388.8696" y="-453" font-family="Times,serif" font-size="14.00" fill="#000000">regulation of</text>
<text text-anchor="middle" x="388.8696" y="-436.2" font-family="Times,serif" font-size="14.00" fill="#000000">macromolecule</text>
<text text-anchor="middle" x="388.8696" y="-419.4" font-family="Times,serif" font-size="14.00" fill="#000000">biosynthetic process</text>
</g>
<!-- GO:2001141&#45;&gt;GO:0010556 -->
<g id="edge33" class="edge">
<title>GO:2001141&#45;&gt;GO:0010556</title>
<path fill="none" stroke="#000000" d="M372.6498,-366.8165C374.7176,-377.2682 377.1057,-389.3391 379.4029,-400.9501"/>
<polygon fill="#000000" stroke="#000000" points="376.0135,-401.8525 381.3878,-410.983 382.8804,-400.4939 376.0135,-401.8525"/>
</g>
<!-- GO:0009889 -->
<g id="node27" class="node">
<title>GO:0009889</title>
<polygon fill="#ffffff" stroke="#000000" points="510.7848,-589.4014 380.9544,-589.4014 380.9544,-530.5986 510.7848,-530.5986 510.7848,-589.4014"/>
<text text-anchor="middle" x="445.8696" y="-572.6" font-family="Times,serif" font-size="14.00" fill="#000000">GO:0009889</text>
<text text-anchor="middle" x="445.8696" y="-555.8" font-family="Times,serif" font-size="14.00" fill="#000000">regulation of</text>
<text text-anchor="middle" x="445.8696" y="-539" font-family="Times,serif" font-size="14.00" fill="#000000">biosynthetic process</text>
</g>
<!-- GO:0031326&#45;&gt;GO:0009889 -->
<g id="edge34" class="edge">
<title>GO:0031326&#45;&gt;GO:0009889</title>
<path fill="none" stroke="#000000" d="M514.4349,-478.0165C502.9921,-491.6987 489.2285,-508.1558 477.0451,-522.7234"/>
<polygon fill="#000000" stroke="#000000" points="474.1946,-520.6762 470.464,-530.5926 479.5642,-525.167 474.1946,-520.6762"/>
</g>
<!-- GO:0031323 -->
<g id="node28" class="node">
<title>GO:0031323</title>
<polygon fill="#00ff00" stroke="#000000" points="537.7686,-700.6014 403.9706,-700.6014 403.9706,-641.7986 537.7686,-641.7986 537.7686,-700.6014"/>
<text text-anchor="middle" x="470.8696" y="-683.8" font-family="Times,serif" font-size="14.00" fill="#000000">GO:0031323</text>
<text text-anchor="middle" x="470.8696" y="-667" font-family="Times,serif" font-size="14.00" fill="#000000">regulation of cellular</text>
<text text-anchor="middle" x="470.8696" y="-650.2" font-family="Times,serif" font-size="14.00" fill="#000000">metabolic process</text>
</g>
<!-- GO:0031326&#45;&gt;GO:0031323 -->
<g id="edge35" class="edge">
<title>GO:0031326&#45;&gt;GO:0031323</title>
<path fill="none" stroke="#000000" d="M539.0323,-478.2656C538.3112,-508.9852 534.6209,-558.0731 519.8696,-597.6 515.2534,-609.9694 508.2081,-622.3349 500.887,-633.3029"/>
<polygon fill="#000000" stroke="#000000" points="497.8329,-631.5644 494.9977,-641.7729 503.5802,-635.5607 497.8329,-631.5644"/>
</g>
<!-- GO:0051252&#45;&gt;GO:0060255 -->
<g id="edge37" class="edge">
<title>GO:0051252&#45;&gt;GO:0060255</title>
<path fill="none" stroke="#000000" d="M255.5909,-478.0165C259.1037,-488.5737 263.1661,-500.7831 267.0653,-512.5018"/>
<polygon fill="#000000" stroke="#000000" points="263.8084,-513.7995 270.2866,-522.183 270.4504,-511.5895 263.8084,-513.7995"/>
</g>
<!-- GO:0019219 -->
<g id="node29" class="node">
<title>GO:0019219</title>
<polygon fill="#ffffff" stroke="#000000" points="184.1462,-597.7003 25.593,-597.7003 25.593,-522.2997 184.1462,-522.2997 184.1462,-597.7003"/>
<text text-anchor="middle" x="104.8696" y="-581" font-family="Times,serif" font-size="14.00" fill="#000000">GO:0019219</text>
<text text-anchor="middle" x="104.8696" y="-564.2" font-family="Times,serif" font-size="14.00" fill="#000000">regulation of nucleobase&#45;</text>
<text text-anchor="middle" x="104.8696" y="-547.4" font-family="Times,serif" font-size="14.00" fill="#000000">containing compound</text>
<text text-anchor="middle" x="104.8696" y="-530.6" font-family="Times,serif" font-size="14.00" fill="#000000">metabolic process</text>
</g>
<!-- GO:0051252&#45;&gt;GO:0019219 -->
<g id="edge36" class="edge">
<title>GO:0051252&#45;&gt;GO:0019219</title>
<path fill="none" stroke="#000000" d="M208.8235,-478.0165C194.0283,-489.6848 176.6741,-503.3712 160.4293,-516.1827"/>
<polygon fill="#000000" stroke="#000000" points="158.2443,-513.4484 152.5597,-522.3891 162.579,-518.9448 158.2443,-513.4484"/>
</g>
<!-- GO:0010556&#45;&gt;GO:0060255 -->
<g id="edge38" class="edge">
<title>GO:0010556&#45;&gt;GO:0060255</title>
<path fill="none" stroke="#000000" d="M352.9828,-486.4472C344.2627,-495.5952 334.8501,-505.4695 325.8391,-514.9226"/>
<polygon fill="#000000" stroke="#000000" points="323.0858,-512.7383 318.7194,-522.3915 328.1526,-517.5682 323.0858,-512.7383"/>
</g>
<!-- GO:0010556&#45;&gt;GO:0009889 -->
<g id="edge39" class="edge">
<title>GO:0010556&#45;&gt;GO:0009889</title>
<path fill="none" stroke="#000000" d="M408.1672,-486.4472C413.9201,-497.6705 420.2335,-509.987 426.021,-521.2778"/>
<polygon fill="#000000" stroke="#000000" points="423.0587,-523.1717 430.735,-530.4742 429.288,-519.9786 423.0587,-523.1717"/>
</g>
<!-- GO:0009889&#45;&gt;GO:0019222 -->
<g id="edge40" class="edge">
<title>GO:0009889&#45;&gt;GO:0019222</title>
<path fill="none" stroke="#000000" d="M424.5559,-589.2532C415.1278,-602.568 404.1083,-618.6591 394.8696,-633.6 374.0492,-667.2708 352.5662,-706.9254 337.6001,-735.4881"/>
<polygon fill="#000000" stroke="#000000" points="334.3041,-734.2394 332.7849,-744.7247 340.5113,-737.4753 334.3041,-734.2394"/>
</g>
<!-- GO:0031323&#45;&gt;GO:0019222 -->
<g id="edge41" class="edge">
<title>GO:0031323&#45;&gt;GO:0019222</title>
<path fill="none" stroke="#000000" d="M427.0259,-700.6584C409.1839,-712.6464 388.4242,-726.5947 369.8284,-739.0891"/>
<polygon fill="#000000" stroke="#000000" points="367.8034,-736.233 361.455,-744.7152 371.7074,-742.0433 367.8034,-736.233"/>
</g>
<!-- GO:0050794 -->
<g id="node30" class="node">
<title>GO:0050794</title>
<polygon fill="#ffff00" stroke="#000000" points="542.7686,-803.4014 408.9706,-803.4014 408.9706,-744.5986 542.7686,-744.5986 542.7686,-803.4014"/>
<text text-anchor="middle" x="475.8696" y="-786.6" font-family="Times,serif" font-size="14.00" fill="#000000">GO:0050794</text>
<text text-anchor="middle" x="475.8696" y="-769.8" font-family="Times,serif" font-size="14.00" fill="#000000">regulation of cellular</text>
<text text-anchor="middle" x="475.8696" y="-753" font-family="Times,serif" font-size="14.00" fill="#000000">process</text>
</g>
<!-- GO:0031323&#45;&gt;GO:0050794 -->
<g id="edge42" class="edge">
<title>GO:0031323&#45;&gt;GO:0050794</title>
<path fill="none" stroke="#000000" d="M472.3024,-700.6584C472.815,-711.1969 473.4012,-723.2505 473.9484,-734.4994"/>
<polygon fill="#000000" stroke="#000000" points="470.4548,-734.7192 474.4366,-744.5373 477.4466,-734.3791 470.4548,-734.7192"/>
</g>
<!-- GO:0019219&#45;&gt;GO:0080090 -->
<g id="edge44" class="edge">
<title>GO:0019219&#45;&gt;GO:0080090</title>
<path fill="none" stroke="#000000" d="M92.3431,-597.6472C88.6461,-608.7583 84.5925,-620.9408 80.8666,-632.1387"/>
<polygon fill="#000000" stroke="#000000" points="77.5301,-631.0806 77.6938,-641.6742 84.1721,-633.2907 77.5301,-631.0806"/>
</g>
<!-- GO:0019219&#45;&gt;GO:0031323 -->
<g id="edge43" class="edge">
<title>GO:0019219&#45;&gt;GO:0031323</title>
<path fill="none" stroke="#000000" d="M184.293,-594.5462C187.1765,-595.6054 190.0417,-596.6273 192.8696,-597.6 259.7873,-620.6184 337.8255,-640.7097 394.1563,-654.059"/>
<polygon fill="#000000" stroke="#000000" points="393.5252,-657.506 404.061,-656.3897 395.1287,-650.6921 393.5252,-657.506"/>
</g>
<!-- GO:0051171 -->
<g id="node31" class="node">
<title>GO:0051171</title>
<polygon fill="#ffffff" stroke="#000000" points="291.9482,-708.9003 153.791,-708.9003 153.791,-633.4997 291.9482,-633.4997 291.9482,-708.9003"/>
<text text-anchor="middle" x="222.8696" y="-692.2" font-family="Times,serif" font-size="14.00" fill="#000000">GO:0051171</text>
<text text-anchor="middle" x="222.8696" y="-675.4" font-family="Times,serif" font-size="14.00" fill="#000000">regulation of nitrogen</text>
<text text-anchor="middle" x="222.8696" y="-658.6" font-family="Times,serif" font-size="14.00" fill="#000000">compound metabolic</text>
<text text-anchor="middle" x="222.8696" y="-641.8" font-family="Times,serif" font-size="14.00" fill="#000000">process</text>
</g>
<!-- GO:0019219&#45;&gt;GO:0051171 -->
<g id="edge45" class="edge">
<title>GO:0019219&#45;&gt;GO:0051171</title>
<path fill="none" stroke="#000000" d="M144.819,-597.6472C154.7186,-606.9763 165.4197,-617.0608 175.631,-626.6836"/>
<polygon fill="#000000" stroke="#000000" points="173.2832,-629.2804 182.9613,-633.5915 178.084,-624.186 173.2832,-629.2804"/>
</g>
<!-- GO:0050794&#45;&gt;GO:0065007 -->
<g id="edge46" class="edge">
<title>GO:0050794&#45;&gt;GO:0065007</title>
<path fill="none" stroke="#000000" d="M494.836,-803.3513C502.1767,-814.7113 510.5628,-827.6891 517.9035,-839.0491"/>
<polygon fill="#000000" stroke="#000000" points="515.1594,-841.2515 523.5265,-847.751 521.0388,-837.4523 515.1594,-841.2515"/>
</g>
<!-- GO:0050794&#45;&gt;GO:0050789 -->
<g id="edge47" class="edge">
<title>GO:0050794&#45;&gt;GO:0050789</title>
<path fill="none" stroke="#000000" d="M542.7668,-802.8361C566.4131,-813.0288 593.1997,-824.5752 617.633,-835.1072"/>
<polygon fill="#000000" stroke="#000000" points="616.302,-838.3447 626.8707,-839.089 619.0729,-831.9165 616.302,-838.3447"/>
</g>
<!-- GO:0051171&#45;&gt;GO:0019222 -->
<g id="edge48" class="edge">
<title>GO:0051171&#45;&gt;GO:0019222</title>
<path fill="none" stroke="#000000" d="M257.7047,-708.8952C266.2271,-718.1174 275.3363,-727.9745 283.8214,-737.1563"/>
<polygon fill="#000000" stroke="#000000" points="281.4181,-739.7126 290.7755,-744.6814 286.559,-734.9617 281.4181,-739.7126"/>
</g>
<!-- GO:0002376 -->
<g id="node32" class="node">
<title>GO:0002376</title>
<polygon fill="#00ff00" stroke="#000000" points="1211.6202,-889.0019 1062.119,-889.0019 1062.119,-847.7981 1211.6202,-847.7981 1211.6202,-889.0019"/>
<text text-anchor="middle" x="1136.8696" y="-872.6" font-family="Times,serif" font-size="14.00" fill="#000000">GO:0002376</text>
<text text-anchor="middle" x="1136.8696" y="-855.8" font-family="Times,serif" font-size="14.00" fill="#000000">immune system process</text>
</g>
<!-- GO:0002376&#45;&gt;GO:0008150 -->
<g id="edge49" class="edge">
<title>GO:0002376&#45;&gt;GO:0008150</title>
<path fill="none" stroke="#000000" d="M1085.0981,-889.1086C1054.3374,-901.4129 1015.162,-917.083 982.9009,-929.9875"/>
<polygon fill="#000000" stroke="#000000" points="981.5489,-926.7586 973.5641,-933.7222 984.1487,-933.2579 981.5489,-926.7586"/>
</g>
<!-- GO:0016567 -->
<g id="node33" class="node">
<title>GO:0016567</title>
<polygon fill="#ff00ff" stroke="#000000" points="1186.5845,-41.4019 1049.1547,-41.4019 1049.1547,-.1981 1186.5845,-.1981 1186.5845,-41.4019"/>
<text text-anchor="middle" x="1117.8696" y="-25" font-family="Times,serif" font-size="14.00" fill="#000000">GO:0016567</text>
<text text-anchor="middle" x="1117.8696" y="-8.2" font-family="Times,serif" font-size="14.00" fill="#000000">protein ubiquitination</text>
</g>
<!-- GO:0016567&#45;&gt;GO:0032446 -->
<g id="edge50" class="edge">
<title>GO:0016567&#45;&gt;GO:0032446</title>
<path fill="none" stroke="#000000" d="M1117.8696,-41.7504C1117.8696,-51.7492 1117.8696,-64.0525 1117.8696,-75.7106"/>
<polygon fill="#000000" stroke="#000000" points="1114.3697,-75.7155 1117.8696,-85.7155 1121.3697,-75.7156 1114.3697,-75.7155"/>
</g>
<!-- GO:0006950 -->
<g id="node34" class="node">
<title>GO:0006950</title>
<polygon fill="#ff00ff" stroke="#000000" points="1351.8388,-794.6019 1237.9004,-794.6019 1237.9004,-753.3981 1351.8388,-753.3981 1351.8388,-794.6019"/>
<text text-anchor="middle" x="1294.8696" y="-778.2" font-family="Times,serif" font-size="14.00" fill="#000000">GO:0006950</text>
<text text-anchor="middle" x="1294.8696" y="-761.4" font-family="Times,serif" font-size="14.00" fill="#000000">response to stress</text>
</g>
<!-- GO:0050896 -->
<g id="node35" class="node">
<title>GO:0050896</title>
<polygon fill="#00ffff" stroke="#000000" points="1360.1912,-889.0019 1229.548,-889.0019 1229.548,-847.7981 1360.1912,-847.7981 1360.1912,-889.0019"/>
<text text-anchor="middle" x="1294.8696" y="-872.6" font-family="Times,serif" font-size="14.00" fill="#000000">GO:0050896</text>
<text text-anchor="middle" x="1294.8696" y="-855.8" font-family="Times,serif" font-size="14.00" fill="#000000">response to stimulus</text>
</g>
<!-- GO:0006950&#45;&gt;GO:0050896 -->
<g id="edge51" class="edge">
<title>GO:0006950&#45;&gt;GO:0050896</title>
<path fill="none" stroke="#000000" d="M1294.8696,-794.9504C1294.8696,-807.4165 1294.8696,-823.4645 1294.8696,-837.3786"/>
<polygon fill="#000000" stroke="#000000" points="1291.3697,-837.5081 1294.8696,-847.5081 1298.3697,-837.5082 1291.3697,-837.5081"/>
</g>
<!-- GO:0050896&#45;&gt;GO:0008150 -->
<g id="edge52" class="edge">
<title>GO:0050896&#45;&gt;GO:0008150</title>
<path fill="none" stroke="#000000" d="M1246.3599,-889.0396C1237.9534,-892.1834 1229.2275,-895.1805 1220.8696,-897.6 1144.0655,-919.8338 1053.5856,-935.629 992.4347,-944.8287"/>
<polygon fill="#000000" stroke="#000000" points="991.8793,-941.3727 982.502,-946.3038 992.9077,-948.2967 991.8793,-941.3727"/>
</g>
<!-- GO:0006355 -->
<g id="node36" class="node">
<title>GO:0006355</title>
<polygon fill="#00ffff" stroke="#000000" points="431.1077,-152.9003 302.6315,-152.9003 302.6315,-77.4997 431.1077,-77.4997 431.1077,-152.9003"/>
<text text-anchor="middle" x="366.8696" y="-136.2" font-family="Times,serif" font-size="14.00" fill="#000000">GO:0006355</text>
<text text-anchor="middle" x="366.8696" y="-119.4" font-family="Times,serif" font-size="14.00" fill="#000000">regulation of</text>
<text text-anchor="middle" x="366.8696" y="-102.6" font-family="Times,serif" font-size="14.00" fill="#000000">transcription, DNA&#45;</text>
<text text-anchor="middle" x="366.8696" y="-85.8" font-family="Times,serif" font-size="14.00" fill="#000000">templated</text>
</g>
<!-- GO:2000112 -->
<g id="node37" class="node">
<title>GO:2000112</title>
<polygon fill="#ffffff" stroke="#000000" points="583.7686,-375.3003 449.9706,-375.3003 449.9706,-299.8997 583.7686,-299.8997 583.7686,-375.3003"/>
<text text-anchor="middle" x="516.8696" y="-358.6" font-family="Times,serif" font-size="14.00" fill="#000000">GO:2000112</text>
<text text-anchor="middle" x="516.8696" y="-341.8" font-family="Times,serif" font-size="14.00" fill="#000000">regulation of cellular</text>
<text text-anchor="middle" x="516.8696" y="-325" font-family="Times,serif" font-size="14.00" fill="#000000">macromolecule</text>
<text text-anchor="middle" x="516.8696" y="-308.2" font-family="Times,serif" font-size="14.00" fill="#000000">biosynthetic process</text>
</g>
<!-- GO:0006355&#45;&gt;GO:2000112 -->
<g id="edge53" class="edge">
<title>GO:0006355&#45;&gt;GO:2000112</title>
<path fill="none" stroke="#000000" d="M410.3125,-153.0847C421.3824,-163.9572 432.7233,-176.2779 441.8696,-188.8 464.888,-220.3144 484.4732,-259.9345 497.8517,-290.3666"/>
<polygon fill="#000000" stroke="#000000" points="494.7931,-292.112 501.9737,-299.9024 501.2185,-289.3345 494.7931,-292.112"/>
</g>
<!-- GO:0010468 -->
<g id="node38" class="node">
<title>GO:0010468</title>
<polygon fill="#00ffff" stroke="#000000" points="238.7211,-255.8014 121.0181,-255.8014 121.0181,-196.9986 238.7211,-196.9986 238.7211,-255.8014"/>
<text text-anchor="middle" x="179.8696" y="-239" font-family="Times,serif" font-size="14.00" fill="#000000">GO:0010468</text>
<text text-anchor="middle" x="179.8696" y="-222.2" font-family="Times,serif" font-size="14.00" fill="#000000">regulation of gene</text>
<text text-anchor="middle" x="179.8696" y="-205.4" font-family="Times,serif" font-size="14.00" fill="#000000">expression</text>
</g>
<!-- GO:0006355&#45;&gt;GO:0010468 -->
<g id="edge54" class="edge">
<title>GO:0006355&#45;&gt;GO:0010468</title>
<path fill="none" stroke="#000000" d="M303.5599,-152.8472C282.3287,-165.4724 258.771,-179.4811 237.9596,-191.8567"/>
<polygon fill="#000000" stroke="#000000" points="236.0296,-188.9322 229.2233,-197.0517 239.6074,-194.9488 236.0296,-188.9322"/>
</g>
<!-- GO:1903506 -->
<g id="node39" class="node">
<title>GO:1903506</title>
<polygon fill="#ffffff" stroke="#000000" points="432.7169,-264.1003 301.0223,-264.1003 301.0223,-188.6997 432.7169,-188.6997 432.7169,-264.1003"/>
<text text-anchor="middle" x="366.8696" y="-247.4" font-family="Times,serif" font-size="14.00" fill="#000000">GO:1903506</text>
<text text-anchor="middle" x="366.8696" y="-230.6" font-family="Times,serif" font-size="14.00" fill="#000000">regulation of nucleic</text>
<text text-anchor="middle" x="366.8696" y="-213.8" font-family="Times,serif" font-size="14.00" fill="#000000">acid&#45;templated</text>
<text text-anchor="middle" x="366.8696" y="-197" font-family="Times,serif" font-size="14.00" fill="#000000">transcription</text>
</g>
<!-- GO:0006355&#45;&gt;GO:1903506 -->
<g id="edge55" class="edge">
<title>GO:0006355&#45;&gt;GO:1903506</title>
<path fill="none" stroke="#000000" d="M366.8696,-152.8472C366.8696,-161.18 366.8696,-170.1155 366.8696,-178.7863"/>
<polygon fill="#000000" stroke="#000000" points="363.3697,-178.7915 366.8696,-188.7915 370.3697,-178.7916 363.3697,-178.7915"/>
</g>
<!-- GO:2000112&#45;&gt;GO:0031326 -->
<g id="edge56" class="edge">
<title>GO:2000112&#45;&gt;GO:0031326</title>
<path fill="none" stroke="#000000" d="M524.3178,-375.2472C526.4938,-386.246 528.8776,-398.2948 531.0745,-409.3991"/>
<polygon fill="#000000" stroke="#000000" points="527.6538,-410.1436 533.0282,-419.2742 534.5207,-408.785 527.6538,-410.1436"/>
</g>
<!-- GO:2000112&#45;&gt;GO:0010556 -->
<g id="edge57" class="edge">
<title>GO:2000112&#45;&gt;GO:0010556</title>
<path fill="none" stroke="#000000" d="M473.5346,-375.2472C462.6919,-384.6669 450.9626,-394.8567 439.789,-404.5638"/>
<polygon fill="#000000" stroke="#000000" points="437.4136,-401.991 432.1599,-411.1915 442.0045,-407.2754 437.4136,-401.991"/>
</g>
<!-- GO:0010468&#45;&gt;GO:0060255 -->
<g id="edge58" class="edge">
<title>GO:0010468&#45;&gt;GO:0060255</title>
<path fill="none" stroke="#000000" d="M171.0209,-255.7709C157.5905,-306.2302 137.534,-411.1998 176.8696,-486.4 182.6872,-497.5218 191.035,-507.3006 200.527,-515.7915"/>
<polygon fill="#000000" stroke="#000000" points="198.4378,-518.6066 208.3583,-522.3261 202.9225,-513.2319 198.4378,-518.6066"/>
</g>
<!-- GO:1903506&#45;&gt;GO:2001141 -->
<g id="edge59" class="edge">
<title>GO:1903506&#45;&gt;GO:2001141</title>
<path fill="none" stroke="#000000" d="M366.8696,-264.0472C366.8696,-274.9338 366.8696,-286.849 366.8696,-297.8589"/>
<polygon fill="#000000" stroke="#000000" points="363.3697,-298.0741 366.8696,-308.0742 370.3697,-298.0742 363.3697,-298.0741"/>
</g>
<!-- GO:0048522 -->
<g id="node40" class="node">
<title>GO:0048522</title>
<polygon fill="#00ffff" stroke="#000000" points="694.623,-700.6014 559.1162,-700.6014 559.1162,-641.7986 694.623,-641.7986 694.623,-700.6014"/>
<text text-anchor="middle" x="626.8696" y="-683.8" font-family="Times,serif" font-size="14.00" fill="#000000">GO:0048522</text>
<text text-anchor="middle" x="626.8696" y="-667" font-family="Times,serif" font-size="14.00" fill="#000000">positive regulation of</text>
<text text-anchor="middle" x="626.8696" y="-650.2" font-family="Times,serif" font-size="14.00" fill="#000000">cellular process</text>
</g>
<!-- GO:0048522&#45;&gt;GO:0048518 -->
<g id="edge60" class="edge">
<title>GO:0048522&#45;&gt;GO:0048518</title>
<path fill="none" stroke="#000000" d="M627.4427,-700.6584C627.6478,-711.1969 627.8823,-723.2505 628.1011,-734.4994"/>
<polygon fill="#000000" stroke="#000000" points="624.6024,-734.6074 628.2964,-744.5373 631.6011,-734.4711 624.6024,-734.6074"/>
</g>
<!-- GO:0048522&#45;&gt;GO:0050794 -->
<g id="edge61" class="edge">
<title>GO:0048522&#45;&gt;GO:0050794</title>
<path fill="none" stroke="#000000" d="M583.5991,-700.6584C566.1489,-712.5384 545.8708,-726.3435 527.6458,-738.7511"/>
<polygon fill="#000000" stroke="#000000" points="525.1818,-736.1944 518.8852,-744.7152 529.1211,-741.9807 525.1818,-736.1944"/>
</g>
</g>
</svg>
