<?xml version="1.0" encoding="UTF-8" standalone="no"?>
<!DOCTYPE svg PUBLIC "-//W3C//DTD SVG 1.1//EN"
 "http://www.w3.org/Graphics/SVG/1.1/DTD/svg11.dtd">
<!-- Generated by graphviz version 2.40.1 (20161225.0304)
 -->
<!-- Title: G Pages: 1 -->
<svg width="699pt" height="488pt"
 viewBox="0.00 0.00 698.53 488.00" xmlns="http://www.w3.org/2000/svg" xmlns:xlink="http://www.w3.org/1999/xlink">
<g id="graph0" class="graph" transform="scale(1 1) rotate(0) translate(4 484)">
<title>G</title>
<polygon fill="#ffffff" stroke="transparent" points="-4,4 -4,-484 694.5323,-484 694.5323,4 -4,4"/>
<!-- GO:0043229 -->
<g id="node1" class="node">
<title>GO:0043229</title>
<polygon fill="#ff0000" stroke="#000000" points="285.6988,-238.6019 146.262,-238.6019 146.262,-197.3981 285.6988,-197.3981 285.6988,-238.6019"/>
<text text-anchor="middle" x="215.9804" y="-222.2" font-family="Times,serif" font-size="14.00" fill="#000000">GO:0043229</text>
<text text-anchor="middle" x="215.9804" y="-205.4" font-family="Times,serif" font-size="14.00" fill="#000000">intracellular organelle</text>
</g>
<!-- GO:0044424 -->
<g id="node2" class="node">
<title>GO:0044424</title>
<polygon fill="#ff0000" stroke="#000000" points="526.3788,-324.6019 417.582,-324.6019 417.582,-283.3981 526.3788,-283.3981 526.3788,-324.6019"/>
<text text-anchor="middle" x="471.9804" y="-308.2" font-family="Times,serif" font-size="14.00" fill="#000000">GO:0044424</text>
<text text-anchor="middle" x="471.9804" y="-291.4" font-family="Times,serif" font-size="14.00" fill="#000000">intracellular part</text>
</g>
<!-- GO:0043229&#45;&gt;GO:0044424 -->
<g id="edge1" class="edge">
<title>GO:0043229&#45;&gt;GO:0044424</title>
<path fill="none" stroke="#000000" d="M269.9843,-238.6102C278.0061,-241.5573 286.1927,-244.5016 293.9804,-247.2 331.3617,-260.1524 373.5254,-273.6552 407.4304,-284.2442"/>
<polygon fill="#000000" stroke="#000000" points="406.6285,-287.6602 417.217,-287.2915 408.7097,-280.9767 406.6285,-287.6602"/>
</g>
<!-- GO:0043226 -->
<g id="node3" class="node">
<title>GO:0043226</title>
<polygon fill="#ffffff" stroke="#000000" points="342.5843,-324.6019 253.3765,-324.6019 253.3765,-283.3981 342.5843,-283.3981 342.5843,-324.6019"/>
<text text-anchor="middle" x="297.9804" y="-308.2" font-family="Times,serif" font-size="14.00" fill="#000000">GO:0043226</text>
<text text-anchor="middle" x="297.9804" y="-291.4" font-family="Times,serif" font-size="14.00" fill="#000000">organelle</text>
</g>
<!-- GO:0043229&#45;&gt;GO:0043226 -->
<g id="edge2" class="edge">
<title>GO:0043229&#45;&gt;GO:0043226</title>
<path fill="none" stroke="#000000" d="M235.8303,-238.8182C246.5069,-250.0156 259.8184,-263.9764 271.3799,-276.1019"/>
<polygon fill="#000000" stroke="#000000" points="268.8794,-278.5514 278.3133,-283.3735 273.9456,-273.7208 268.8794,-278.5514"/>
</g>
<!-- GO:0044464 -->
<g id="node4" class="node">
<title>GO:0044464</title>
<polygon fill="#ffffff" stroke="#000000" points="476.5843,-402.2019 387.3765,-402.2019 387.3765,-360.9981 476.5843,-360.9981 476.5843,-402.2019"/>
<text text-anchor="middle" x="431.9804" y="-385.8" font-family="Times,serif" font-size="14.00" fill="#000000">GO:0044464</text>
<text text-anchor="middle" x="431.9804" y="-369" font-family="Times,serif" font-size="14.00" fill="#000000">cell part</text>
</g>
<!-- GO:0044424&#45;&gt;GO:0044464 -->
<g id="edge3" class="edge">
<title>GO:0044424&#45;&gt;GO:0044464</title>
<path fill="none" stroke="#000000" d="M461.2611,-324.7954C457.0016,-333.0588 452.0205,-342.7222 447.3871,-351.711"/>
<polygon fill="#000000" stroke="#000000" points="444.2,-350.255 442.7293,-360.7472 450.4221,-353.4622 444.2,-350.255"/>
</g>
<!-- GO:0005575 -->
<g id="node5" class="node">
<title>GO:0005575</title>
<polygon fill="#ffffff" stroke="#000000" points="495.6671,-479.8019 368.2937,-479.8019 368.2937,-438.5981 495.6671,-438.5981 495.6671,-479.8019"/>
<text text-anchor="middle" x="431.9804" y="-463.4" font-family="Times,serif" font-size="14.00" fill="#000000">GO:0005575</text>
<text text-anchor="middle" x="431.9804" y="-446.6" font-family="Times,serif" font-size="14.00" fill="#000000">cellular_component</text>
</g>
<!-- GO:0043226&#45;&gt;GO:0005575 -->
<g id="edge4" class="edge">
<title>GO:0043226&#45;&gt;GO:0005575</title>
<path fill="none" stroke="#000000" d="M314.0753,-324.736C329.9175,-344.9184 355.0066,-376.2788 377.9804,-402.4 386.4047,-411.9784 395.9008,-422.1588 404.5539,-431.2158"/>
<polygon fill="#000000" stroke="#000000" points="402.127,-433.7415 411.5822,-438.5215 407.1716,-428.8884 402.127,-433.7415"/>
</g>
<!-- GO:0044464&#45;&gt;GO:0005575 -->
<g id="edge7" class="edge">
<title>GO:0044464&#45;&gt;GO:0005575</title>
<path fill="none" stroke="#000000" d="M431.9804,-402.3954C431.9804,-410.3109 431.9804,-419.5109 431.9804,-428.1722"/>
<polygon fill="#000000" stroke="#000000" points="428.4805,-428.3472 431.9804,-438.3472 435.4805,-428.3473 428.4805,-428.3472"/>
</g>
<!-- GO:0043227 -->
<g id="node6" class="node">
<title>GO:0043227</title>
<polygon fill="#ff0000" stroke="#000000" points="127.9412,-247.4014 .0196,-247.4014 .0196,-188.5986 127.9412,-188.5986 127.9412,-247.4014"/>
<text text-anchor="middle" x="63.9804" y="-230.6" font-family="Times,serif" font-size="14.00" fill="#000000">GO:0043227</text>
<text text-anchor="middle" x="63.9804" y="-213.8" font-family="Times,serif" font-size="14.00" fill="#000000">membrane&#45;bounded</text>
<text text-anchor="middle" x="63.9804" y="-197" font-family="Times,serif" font-size="14.00" fill="#000000">organelle</text>
</g>
<!-- GO:0043227&#45;&gt;GO:0043226 -->
<g id="edge5" class="edge">
<title>GO:0043227&#45;&gt;GO:0043226</title>
<path fill="none" stroke="#000000" d="M128.0161,-243.788C131.0423,-244.952 134.042,-246.0945 136.9804,-247.2 172.2761,-260.4788 212.2558,-274.5884 243.5455,-285.4231"/>
<polygon fill="#000000" stroke="#000000" points="242.7875,-288.8641 253.3822,-288.8205 245.0728,-282.2476 242.7875,-288.8641"/>
</g>
<!-- GO:0005737 -->
<g id="node7" class="node">
<title>GO:0005737</title>
<polygon fill="#00ff00" stroke="#000000" points="690.5843,-238.6019 601.3765,-238.6019 601.3765,-197.3981 690.5843,-197.3981 690.5843,-238.6019"/>
<text text-anchor="middle" x="645.9804" y="-222.2" font-family="Times,serif" font-size="14.00" fill="#000000">GO:0005737</text>
<text text-anchor="middle" x="645.9804" y="-205.4" font-family="Times,serif" font-size="14.00" fill="#000000">cytoplasm</text>
</g>
<!-- GO:0005737&#45;&gt;GO:0044424 -->
<g id="edge6" class="edge">
<title>GO:0005737&#45;&gt;GO:0044424</title>
<path fill="none" stroke="#000000" d="M608.3508,-238.6809C602.8835,-241.5885 597.3046,-244.5029 591.9804,-247.2 570.6727,-257.994 546.9522,-269.3566 526.2637,-279.0588"/>
<polygon fill="#000000" stroke="#000000" points="524.5692,-275.9873 516.9912,-283.3916 527.5326,-282.3291 524.5692,-275.9873"/>
</g>
<!-- GO:0005634 -->
<g id="node8" class="node">
<title>GO:0005634</title>
<polygon fill="#ff0000" stroke="#000000" points="184.5843,-41.4019 95.3765,-41.4019 95.3765,-.1981 184.5843,-.1981 184.5843,-41.4019"/>
<text text-anchor="middle" x="139.9804" y="-25" font-family="Times,serif" font-size="14.00" fill="#000000">GO:0005634</text>
<text text-anchor="middle" x="139.9804" y="-8.2" font-family="Times,serif" font-size="14.00" fill="#000000">nucleus</text>
</g>
<!-- GO:0043231 -->
<g id="node9" class="node">
<title>GO:0043231</title>
<polygon fill="#ffffff" stroke="#000000" points="215.3592,-144.6014 64.6016,-144.6014 64.6016,-85.7986 215.3592,-85.7986 215.3592,-144.6014"/>
<text text-anchor="middle" x="139.9804" y="-127.8" font-family="Times,serif" font-size="14.00" fill="#000000">GO:0043231</text>
<text text-anchor="middle" x="139.9804" y="-111" font-family="Times,serif" font-size="14.00" fill="#000000">intracellular membrane&#45;</text>
<text text-anchor="middle" x="139.9804" y="-94.2" font-family="Times,serif" font-size="14.00" fill="#000000">bounded organelle</text>
</g>
<!-- GO:0005634&#45;&gt;GO:0043231 -->
<g id="edge8" class="edge">
<title>GO:0005634&#45;&gt;GO:0043231</title>
<path fill="none" stroke="#000000" d="M139.9804,-41.7504C139.9804,-51.7492 139.9804,-64.0525 139.9804,-75.7106"/>
<polygon fill="#000000" stroke="#000000" points="136.4805,-75.7155 139.9804,-85.7155 143.4805,-75.7156 136.4805,-75.7155"/>
</g>
<!-- GO:0043231&#45;&gt;GO:0043229 -->
<g id="edge9" class="edge">
<title>GO:0043231&#45;&gt;GO:0043229</title>
<path fill="none" stroke="#000000" d="M161.7589,-144.6584C172.075,-158.6121 184.3545,-175.2219 194.617,-189.1032"/>
<polygon fill="#000000" stroke="#000000" points="191.9514,-191.3852 200.7106,-197.3456 197.5802,-187.2238 191.9514,-191.3852"/>
</g>
<!-- GO:0043231&#45;&gt;GO:0043227 -->
<g id="edge10" class="edge">
<title>GO:0043231&#45;&gt;GO:0043227</title>
<path fill="none" stroke="#000000" d="M118.2019,-144.6584C110.0132,-155.7346 100.5873,-168.4844 91.9151,-180.2146"/>
<polygon fill="#000000" stroke="#000000" points="88.8926,-178.4155 85.7621,-188.5373 94.5214,-182.5769 88.8926,-178.4155"/>
</g>
<!-- GO:0032991 -->
<g id="node10" class="node">
<title>GO:0032991</title>
<polygon fill="#00ff00" stroke="#000000" points="653.1477,-402.2019 494.8131,-402.2019 494.8131,-360.9981 653.1477,-360.9981 653.1477,-402.2019"/>
<text text-anchor="middle" x="573.9804" y="-385.8" font-family="Times,serif" font-size="14.00" fill="#000000">GO:0032991</text>
<text text-anchor="middle" x="573.9804" y="-369" font-family="Times,serif" font-size="14.00" fill="#000000">macromolecular complex</text>
</g>
<!-- GO:0032991&#45;&gt;GO:0005575 -->
<g id="edge11" class="edge">
<title>GO:0032991&#45;&gt;GO:0005575</title>
<path fill="none" stroke="#000000" d="M535.927,-402.3954C518.4182,-411.9635 497.4748,-423.4087 478.9899,-433.5103"/>
<polygon fill="#000000" stroke="#000000" points="477.2356,-430.4804 470.1388,-438.3472 480.5924,-436.623 477.2356,-430.4804"/>
</g>
<!-- GO:0043232 -->
<g id="node11" class="node">
<title>GO:0043232</title>
<polygon fill="#00ffff" stroke="#000000" points="401.9412,-152.9003 274.0196,-152.9003 274.0196,-77.4997 401.9412,-77.4997 401.9412,-152.9003"/>
<text text-anchor="middle" x="337.9804" y="-136.2" font-family="Times,serif" font-size="14.00" fill="#000000">GO:0043232</text>
<text text-anchor="middle" x="337.9804" y="-119.4" font-family="Times,serif" font-size="14.00" fill="#000000">intracellular non&#45;</text>
<text text-anchor="middle" x="337.9804" y="-102.6" font-family="Times,serif" font-size="14.00" fill="#000000">membrane&#45;bounded</text>
<text text-anchor="middle" x="337.9804" y="-85.8" font-family="Times,serif" font-size="14.00" fill="#000000">organelle</text>
</g>
<!-- GO:0043232&#45;&gt;GO:0043229 -->
<g id="edge12" class="edge">
<title>GO:0043232&#45;&gt;GO:0043229</title>
<path fill="none" stroke="#000000" d="M293.2449,-152.8952C278.3506,-165.4454 262.0608,-179.1716 248.2947,-190.7712"/>
<polygon fill="#000000" stroke="#000000" points="245.9026,-188.21 240.5107,-197.3302 250.4132,-193.563 245.9026,-188.21"/>
</g>
<!-- GO:0043228 -->
<g id="node12" class="node">
<title>GO:0043228</title>
<polygon fill="#ffffff" stroke="#000000" points="456.6023,-247.4014 303.3585,-247.4014 303.3585,-188.5986 456.6023,-188.5986 456.6023,-247.4014"/>
<text text-anchor="middle" x="379.9804" y="-230.6" font-family="Times,serif" font-size="14.00" fill="#000000">GO:0043228</text>
<text text-anchor="middle" x="379.9804" y="-213.8" font-family="Times,serif" font-size="14.00" fill="#000000">non&#45;membrane&#45;bounded</text>
<text text-anchor="middle" x="379.9804" y="-197" font-family="Times,serif" font-size="14.00" fill="#000000">organelle</text>
</g>
<!-- GO:0043232&#45;&gt;GO:0043228 -->
<g id="edge13" class="edge">
<title>GO:0043232&#45;&gt;GO:0043228</title>
<path fill="none" stroke="#000000" d="M353.3812,-152.8952C356.8852,-161.4718 360.6137,-170.5976 364.1359,-179.2187"/>
<polygon fill="#000000" stroke="#000000" points="360.9798,-180.7479 368.002,-188.6814 367.4598,-178.1004 360.9798,-180.7479"/>
</g>
<!-- GO:0043228&#45;&gt;GO:0043226 -->
<g id="edge14" class="edge">
<title>GO:0043228&#45;&gt;GO:0043226</title>
<path fill="none" stroke="#000000" d="M351.7607,-247.5963C343.0019,-256.7824 333.3785,-266.8752 324.7233,-275.9526"/>
<polygon fill="#000000" stroke="#000000" points="322.0886,-273.6439 317.7209,-283.2966 327.1548,-278.4744 322.0886,-273.6439"/>
</g>
<!-- GO:0044444 -->
<g id="node13" class="node">
<title>GO:0044444</title>
<polygon fill="#ffff00" stroke="#000000" points="583.397,-238.6019 474.5638,-238.6019 474.5638,-197.3981 583.397,-197.3981 583.397,-238.6019"/>
<text text-anchor="middle" x="528.9804" y="-222.2" font-family="Times,serif" font-size="14.00" fill="#000000">GO:0044444</text>
<text text-anchor="middle" x="528.9804" y="-205.4" font-family="Times,serif" font-size="14.00" fill="#000000">cytoplasmic part</text>
</g>
<!-- GO:0044444&#45;&gt;GO:0044424 -->
<g id="edge15" class="edge">
<title>GO:0044444&#45;&gt;GO:0044424</title>
<path fill="none" stroke="#000000" d="M515.1823,-238.8182C508.0408,-249.593 499.2034,-262.9267 491.3858,-274.7216"/>
<polygon fill="#000000" stroke="#000000" points="488.2587,-273.1045 485.6514,-283.3735 494.0935,-276.9717 488.2587,-273.1045"/>
</g>
</g>
</svg>
