<?xml version="1.0" encoding="UTF-8" standalone="no"?>
<!DOCTYPE svg PUBLIC "-//W3C//DTD SVG 1.1//EN"
 "http://www.w3.org/Graphics/SVG/1.1/DTD/svg11.dtd">
<!-- Generated by graphviz version 2.40.1 (20161225.0304)
 -->
<!-- Title: G Pages: 1 -->
<svg width="962pt" height="922pt"
 viewBox="0.00 0.00 962.46 922.40" xmlns="http://www.w3.org/2000/svg" xmlns:xlink="http://www.w3.org/1999/xlink">
<g id="graph0" class="graph" transform="scale(1 1) rotate(0) translate(4 918.4)">
<title>G</title>
<polygon fill="#ffffff" stroke="transparent" points="-4,4 -4,-918.4 958.4615,-918.4 958.4615,4 -4,4"/>
<!-- GO:0090005 -->
<g id="node1" class="node">
<title>GO:0090005</title>
<polygon fill="#ff0000" stroke="#000000" points="699.8412,-92 548.2346,-92 548.2346,0 699.8412,0 699.8412,-92"/>
<text text-anchor="middle" x="624.0379" y="-75.4" font-family="Times,serif" font-size="14.00" fill="#000000">GO:0090005</text>
<text text-anchor="middle" x="624.0379" y="-58.6" font-family="Times,serif" font-size="14.00" fill="#000000">negative regulation of</text>
<text text-anchor="middle" x="624.0379" y="-41.8" font-family="Times,serif" font-size="14.00" fill="#000000">establishment of protein</text>
<text text-anchor="middle" x="624.0379" y="-25" font-family="Times,serif" font-size="14.00" fill="#000000">localization to plasma</text>
<text text-anchor="middle" x="624.0379" y="-8.2" font-family="Times,serif" font-size="14.00" fill="#000000">membrane</text>
</g>
<!-- GO:1904950 -->
<g id="node2" class="node">
<title>GO:1904950</title>
<polygon fill="#ffffff" stroke="#000000" points="868.8412,-211.7003 717.2346,-211.7003 717.2346,-136.2997 868.8412,-136.2997 868.8412,-211.7003"/>
<text text-anchor="middle" x="793.0379" y="-195" font-family="Times,serif" font-size="14.00" fill="#000000">GO:1904950</text>
<text text-anchor="middle" x="793.0379" y="-178.2" font-family="Times,serif" font-size="14.00" fill="#000000">negative regulation of</text>
<text text-anchor="middle" x="793.0379" y="-161.4" font-family="Times,serif" font-size="14.00" fill="#000000">establishment of protein</text>
<text text-anchor="middle" x="793.0379" y="-144.6" font-family="Times,serif" font-size="14.00" fill="#000000">localization</text>
</g>
<!-- GO:0090005&#45;&gt;GO:1904950 -->
<g id="edge1" class="edge">
<title>GO:0090005&#45;&gt;GO:1904950</title>
<path fill="none" stroke="#000000" d="M685.0508,-92.2109C701.3143,-104.5289 718.8388,-117.8019 734.9412,-129.9978"/>
<polygon fill="#000000" stroke="#000000" points="733.1331,-133.0189 743.2179,-136.2665 737.3595,-127.4387 733.1331,-133.0189"/>
</g>
<!-- GO:1903077 -->
<g id="node3" class="node">
<title>GO:1903077</title>
<polygon fill="#ffffff" stroke="#000000" points="530.3964,-211.7003 391.6794,-211.7003 391.6794,-136.2997 530.3964,-136.2997 530.3964,-211.7003"/>
<text text-anchor="middle" x="461.0379" y="-195" font-family="Times,serif" font-size="14.00" fill="#000000">GO:1903077</text>
<text text-anchor="middle" x="461.0379" y="-178.2" font-family="Times,serif" font-size="14.00" fill="#000000">negative regulation of</text>
<text text-anchor="middle" x="461.0379" y="-161.4" font-family="Times,serif" font-size="14.00" fill="#000000">protein localization to</text>
<text text-anchor="middle" x="461.0379" y="-144.6" font-family="Times,serif" font-size="14.00" fill="#000000">plasma membrane</text>
</g>
<!-- GO:0090005&#45;&gt;GO:1903077 -->
<g id="edge2" class="edge">
<title>GO:0090005&#45;&gt;GO:1903077</title>
<path fill="none" stroke="#000000" d="M565.1912,-92.2109C549.505,-104.5289 532.6027,-117.8019 517.072,-129.9978"/>
<polygon fill="#000000" stroke="#000000" points="514.7924,-127.3377 509.0892,-136.2665 519.1157,-132.8431 514.7924,-127.3377"/>
</g>
<!-- GO:0090003 -->
<g id="node4" class="node">
<title>GO:0090003</title>
<polygon fill="#ffffff" stroke="#000000" points="699.8412,-220 548.2346,-220 548.2346,-128 699.8412,-128 699.8412,-220"/>
<text text-anchor="middle" x="624.0379" y="-203.4" font-family="Times,serif" font-size="14.00" fill="#000000">GO:0090003</text>
<text text-anchor="middle" x="624.0379" y="-186.6" font-family="Times,serif" font-size="14.00" fill="#000000">regulation of</text>
<text text-anchor="middle" x="624.0379" y="-169.8" font-family="Times,serif" font-size="14.00" fill="#000000">establishment of protein</text>
<text text-anchor="middle" x="624.0379" y="-153" font-family="Times,serif" font-size="14.00" fill="#000000">localization to plasma</text>
<text text-anchor="middle" x="624.0379" y="-136.2" font-family="Times,serif" font-size="14.00" fill="#000000">membrane</text>
</g>
<!-- GO:0090005&#45;&gt;GO:0090003 -->
<g id="edge3" class="edge">
<title>GO:0090005&#45;&gt;GO:0090003</title>
<path fill="none" stroke="#000000" d="M624.0379,-92.2109C624.0379,-100.4583 624.0379,-109.1339 624.0379,-117.6276"/>
<polygon fill="#000000" stroke="#000000" points="620.538,-117.8569 624.0379,-127.8569 627.538,-117.8569 620.538,-117.8569"/>
</g>
<!-- GO:0048519 -->
<g id="node5" class="node">
<title>GO:0048519</title>
<polygon fill="#ffffff" stroke="#000000" points="954.3852,-648.2014 815.6906,-648.2014 815.6906,-589.3986 954.3852,-589.3986 954.3852,-648.2014"/>
<text text-anchor="middle" x="885.0379" y="-631.4" font-family="Times,serif" font-size="14.00" fill="#000000">GO:0048519</text>
<text text-anchor="middle" x="885.0379" y="-614.6" font-family="Times,serif" font-size="14.00" fill="#000000">negative regulation of</text>
<text text-anchor="middle" x="885.0379" y="-597.8" font-family="Times,serif" font-size="14.00" fill="#000000">biological process</text>
</g>
<!-- GO:1904950&#45;&gt;GO:0048519 -->
<g id="edge4" class="edge">
<title>GO:1904950&#45;&gt;GO:0048519</title>
<path fill="none" stroke="#000000" d="M836.325,-211.8714C848.0711,-224.6285 859.3734,-239.7805 866.0379,-256 911.1835,-365.8722 900.1874,-510.4368 891.22,-579.185"/>
<polygon fill="#000000" stroke="#000000" points="887.7433,-578.7776 889.8629,-589.1582 894.6794,-579.7215 887.7433,-578.7776"/>
</g>
<!-- GO:0070201 -->
<g id="node6" class="node">
<title>GO:0070201</title>
<polygon fill="#ffffff" stroke="#000000" points="856.8412,-339.7003 705.2346,-339.7003 705.2346,-264.2997 856.8412,-264.2997 856.8412,-339.7003"/>
<text text-anchor="middle" x="781.0379" y="-323" font-family="Times,serif" font-size="14.00" fill="#000000">GO:0070201</text>
<text text-anchor="middle" x="781.0379" y="-306.2" font-family="Times,serif" font-size="14.00" fill="#000000">regulation of</text>
<text text-anchor="middle" x="781.0379" y="-289.4" font-family="Times,serif" font-size="14.00" fill="#000000">establishment of protein</text>
<text text-anchor="middle" x="781.0379" y="-272.6" font-family="Times,serif" font-size="14.00" fill="#000000">localization</text>
</g>
<!-- GO:1904950&#45;&gt;GO:0070201 -->
<g id="edge5" class="edge">
<title>GO:1904950&#45;&gt;GO:0070201</title>
<path fill="none" stroke="#000000" d="M789.5024,-211.7119C788.2563,-225.0042 786.8384,-240.1277 785.5243,-254.1455"/>
<polygon fill="#000000" stroke="#000000" points="782.0384,-253.8322 784.5896,-264.1153 789.0078,-254.4857 782.0384,-253.8322"/>
</g>
<!-- GO:1903076 -->
<g id="node7" class="node">
<title>GO:1903076</title>
<polygon fill="#ffffff" stroke="#000000" points="530.395,-339.7003 391.6808,-339.7003 391.6808,-264.2997 530.395,-264.2997 530.395,-339.7003"/>
<text text-anchor="middle" x="461.0379" y="-323" font-family="Times,serif" font-size="14.00" fill="#000000">GO:1903076</text>
<text text-anchor="middle" x="461.0379" y="-306.2" font-family="Times,serif" font-size="14.00" fill="#000000">regulation of protein</text>
<text text-anchor="middle" x="461.0379" y="-289.4" font-family="Times,serif" font-size="14.00" fill="#000000">localization to plasma</text>
<text text-anchor="middle" x="461.0379" y="-272.6" font-family="Times,serif" font-size="14.00" fill="#000000">membrane</text>
</g>
<!-- GO:1903077&#45;&gt;GO:1903076 -->
<g id="edge6" class="edge">
<title>GO:1903077&#45;&gt;GO:1903076</title>
<path fill="none" stroke="#000000" d="M461.0379,-211.7119C461.0379,-224.8752 461.0379,-239.8342 461.0379,-253.7369"/>
<polygon fill="#000000" stroke="#000000" points="457.538,-254.1153 461.0379,-264.1153 464.538,-254.1153 457.538,-254.1153"/>
</g>
<!-- GO:1904376 -->
<g id="node8" class="node">
<title>GO:1904376</title>
<polygon fill="#ffffff" stroke="#000000" points="687.3964,-339.7003 548.6794,-339.7003 548.6794,-264.2997 687.3964,-264.2997 687.3964,-339.7003"/>
<text text-anchor="middle" x="618.0379" y="-323" font-family="Times,serif" font-size="14.00" fill="#000000">GO:1904376</text>
<text text-anchor="middle" x="618.0379" y="-306.2" font-family="Times,serif" font-size="14.00" fill="#000000">negative regulation of</text>
<text text-anchor="middle" x="618.0379" y="-289.4" font-family="Times,serif" font-size="14.00" fill="#000000">protein localization to</text>
<text text-anchor="middle" x="618.0379" y="-272.6" font-family="Times,serif" font-size="14.00" fill="#000000">cell periphery</text>
</g>
<!-- GO:1903077&#45;&gt;GO:1904376 -->
<g id="edge7" class="edge">
<title>GO:1903077&#45;&gt;GO:1904376</title>
<path fill="none" stroke="#000000" d="M507.2939,-211.7119C525.1015,-226.2302 545.5886,-242.933 564.0615,-257.9937"/>
<polygon fill="#000000" stroke="#000000" points="561.8792,-260.7304 571.8414,-264.3366 566.3025,-255.305 561.8792,-260.7304"/>
</g>
<!-- GO:0051129 -->
<g id="node9" class="node">
<title>GO:0051129</title>
<polygon fill="#ffffff" stroke="#000000" points="464.3852,-459.3003 325.6906,-459.3003 325.6906,-383.8997 464.3852,-383.8997 464.3852,-459.3003"/>
<text text-anchor="middle" x="395.0379" y="-442.6" font-family="Times,serif" font-size="14.00" fill="#000000">GO:0051129</text>
<text text-anchor="middle" x="395.0379" y="-425.8" font-family="Times,serif" font-size="14.00" fill="#000000">negative regulation of</text>
<text text-anchor="middle" x="395.0379" y="-409" font-family="Times,serif" font-size="14.00" fill="#000000">cellular component</text>
<text text-anchor="middle" x="395.0379" y="-392.2" font-family="Times,serif" font-size="14.00" fill="#000000">organization</text>
</g>
<!-- GO:1903077&#45;&gt;GO:0051129 -->
<g id="edge8" class="edge">
<title>GO:1903077&#45;&gt;GO:0051129</title>
<path fill="none" stroke="#000000" d="M413.4588,-212.0085C401.189,-224.5699 389.6003,-239.5796 383.0379,-256 368.0115,-293.5992 373.0882,-339.7952 380.7307,-373.8334"/>
<polygon fill="#000000" stroke="#000000" points="377.4294,-375.0759 383.1655,-383.9837 384.2363,-373.4431 377.4294,-375.0759"/>
</g>
<!-- GO:0090003&#45;&gt;GO:0070201 -->
<g id="edge9" class="edge">
<title>GO:0090003&#45;&gt;GO:0070201</title>
<path fill="none" stroke="#000000" d="M680.7185,-220.2109C695.6886,-232.4159 711.8088,-245.5584 726.6544,-257.6618"/>
<polygon fill="#000000" stroke="#000000" points="724.7932,-260.6602 734.7554,-264.2665 729.2165,-255.2348 724.7932,-260.6602"/>
</g>
<!-- GO:0090003&#45;&gt;GO:1903076 -->
<g id="edge10" class="edge">
<title>GO:0090003&#45;&gt;GO:1903076</title>
<path fill="none" stroke="#000000" d="M565.1912,-220.2109C549.505,-232.5289 532.6027,-245.8019 517.072,-257.9978"/>
<polygon fill="#000000" stroke="#000000" points="514.7924,-255.3377 509.0892,-264.2665 519.1157,-260.8431 514.7924,-255.3377"/>
</g>
<!-- GO:0065007 -->
<g id="node10" class="node">
<title>GO:0065007</title>
<polygon fill="#ffffff" stroke="#000000" points="530.2913,-828.2019 397.7845,-828.2019 397.7845,-786.9981 530.2913,-786.9981 530.2913,-828.2019"/>
<text text-anchor="middle" x="464.0379" y="-811.8" font-family="Times,serif" font-size="14.00" fill="#000000">GO:0065007</text>
<text text-anchor="middle" x="464.0379" y="-795" font-family="Times,serif" font-size="14.00" fill="#000000">biological regulation</text>
</g>
<!-- GO:0048519&#45;&gt;GO:0065007 -->
<g id="edge11" class="edge">
<title>GO:0048519&#45;&gt;GO:0065007</title>
<path fill="none" stroke="#000000" d="M815.5481,-645.7188C812.6892,-646.5386 809.8448,-647.3041 807.0379,-648 685.2565,-678.1945 629.6158,-611.7491 527.0379,-684 495.9971,-705.8637 479.2962,-747.6686 471.045,-776.5653"/>
<polygon fill="#000000" stroke="#000000" points="467.5728,-776.0023 468.3764,-786.5666 474.3362,-777.8069 467.5728,-776.0023"/>
</g>
<!-- GO:0050789 -->
<g id="node11" class="node">
<title>GO:0050789</title>
<polygon fill="#ffffff" stroke="#000000" points="695.9523,-837.0014 548.1235,-837.0014 548.1235,-778.1986 695.9523,-778.1986 695.9523,-837.0014"/>
<text text-anchor="middle" x="622.0379" y="-820.2" font-family="Times,serif" font-size="14.00" fill="#000000">GO:0050789</text>
<text text-anchor="middle" x="622.0379" y="-803.4" font-family="Times,serif" font-size="14.00" fill="#000000">regulation of biological</text>
<text text-anchor="middle" x="622.0379" y="-786.6" font-family="Times,serif" font-size="14.00" fill="#000000">process</text>
</g>
<!-- GO:0048519&#45;&gt;GO:0050789 -->
<g id="edge12" class="edge">
<title>GO:0048519&#45;&gt;GO:0050789</title>
<path fill="none" stroke="#000000" d="M844.2327,-648.0928C797.5872,-681.5783 721.2568,-736.3737 671.3282,-772.216"/>
<polygon fill="#000000" stroke="#000000" points="669.0213,-769.5635 662.9388,-778.2384 673.1035,-775.25 669.0213,-769.5635"/>
</g>
<!-- GO:0032880 -->
<g id="node12" class="node">
<title>GO:0032880</title>
<polygon fill="#ffffff" stroke="#000000" points="646.6165,-648.2014 515.4593,-648.2014 515.4593,-589.3986 646.6165,-589.3986 646.6165,-648.2014"/>
<text text-anchor="middle" x="581.0379" y="-631.4" font-family="Times,serif" font-size="14.00" fill="#000000">GO:0032880</text>
<text text-anchor="middle" x="581.0379" y="-614.6" font-family="Times,serif" font-size="14.00" fill="#000000">regulation of protein</text>
<text text-anchor="middle" x="581.0379" y="-597.8" font-family="Times,serif" font-size="14.00" fill="#000000">localization</text>
</g>
<!-- GO:0070201&#45;&gt;GO:0032880 -->
<g id="edge13" class="edge">
<title>GO:0070201&#45;&gt;GO:0032880</title>
<path fill="none" stroke="#000000" d="M709.6245,-339.8122C691.8116,-351.9736 674.0918,-366.8234 661.0379,-384 637.2551,-415.2937 606.7139,-521.3404 591.1445,-579.6245"/>
<polygon fill="#000000" stroke="#000000" points="587.6848,-579.0169 588.5067,-589.5798 594.4513,-580.8098 587.6848,-579.0169"/>
</g>
<!-- GO:1903729 -->
<g id="node13" class="node">
<title>GO:1903729</title>
<polygon fill="#ffffff" stroke="#000000" points="307.1003,-451.0014 158.9755,-451.0014 158.9755,-392.1986 307.1003,-392.1986 307.1003,-451.0014"/>
<text text-anchor="middle" x="233.0379" y="-434.2" font-family="Times,serif" font-size="14.00" fill="#000000">GO:1903729</text>
<text text-anchor="middle" x="233.0379" y="-417.4" font-family="Times,serif" font-size="14.00" fill="#000000">regulation of plasma</text>
<text text-anchor="middle" x="233.0379" y="-400.6" font-family="Times,serif" font-size="14.00" fill="#000000">membrane organization</text>
</g>
<!-- GO:1903076&#45;&gt;GO:1903729 -->
<g id="edge14" class="edge">
<title>GO:1903076&#45;&gt;GO:1903729</title>
<path fill="none" stroke="#000000" d="M391.3915,-338.5338C361.6026,-354.1599 327.0267,-372.2971 297.7971,-387.6298"/>
<polygon fill="#000000" stroke="#000000" points="296.1385,-384.5475 288.9087,-392.2923 299.3902,-390.7464 296.1385,-384.5475"/>
</g>
<!-- GO:1904375 -->
<g id="node14" class="node">
<title>GO:1904375</title>
<polygon fill="#ffffff" stroke="#000000" points="613.6165,-459.3003 482.4593,-459.3003 482.4593,-383.8997 613.6165,-383.8997 613.6165,-459.3003"/>
<text text-anchor="middle" x="548.0379" y="-442.6" font-family="Times,serif" font-size="14.00" fill="#000000">GO:1904375</text>
<text text-anchor="middle" x="548.0379" y="-425.8" font-family="Times,serif" font-size="14.00" fill="#000000">regulation of protein</text>
<text text-anchor="middle" x="548.0379" y="-409" font-family="Times,serif" font-size="14.00" fill="#000000">localization to cell</text>
<text text-anchor="middle" x="548.0379" y="-392.2" font-family="Times,serif" font-size="14.00" fill="#000000">periphery</text>
</g>
<!-- GO:1903076&#45;&gt;GO:1904375 -->
<g id="edge15" class="edge">
<title>GO:1903076&#45;&gt;GO:1904375</title>
<path fill="none" stroke="#000000" d="M488.5652,-339.8422C496.7372,-351.0763 505.7826,-363.5111 514.3012,-375.2218"/>
<polygon fill="#000000" stroke="#000000" points="511.6781,-377.5656 520.391,-383.5935 517.3388,-373.4478 511.6781,-377.5656"/>
</g>
<!-- GO:1904376&#45;&gt;GO:1904375 -->
<g id="edge17" class="edge">
<title>GO:1904376&#45;&gt;GO:1904375</title>
<path fill="none" stroke="#000000" d="M595.8895,-339.8422C589.3781,-350.9673 582.1777,-363.2698 575.3821,-374.8805"/>
<polygon fill="#000000" stroke="#000000" points="572.3132,-373.1951 570.2825,-383.5935 578.3545,-376.731 572.3132,-373.1951"/>
</g>
<!-- GO:1903828 -->
<g id="node15" class="node">
<title>GO:1903828</title>
<polygon fill="#ffffff" stroke="#000000" points="808.3852,-459.3003 669.6906,-459.3003 669.6906,-383.8997 808.3852,-383.8997 808.3852,-459.3003"/>
<text text-anchor="middle" x="739.0379" y="-442.6" font-family="Times,serif" font-size="14.00" fill="#000000">GO:1903828</text>
<text text-anchor="middle" x="739.0379" y="-425.8" font-family="Times,serif" font-size="14.00" fill="#000000">negative regulation of</text>
<text text-anchor="middle" x="739.0379" y="-409" font-family="Times,serif" font-size="14.00" fill="#000000">cellular protein</text>
<text text-anchor="middle" x="739.0379" y="-392.2" font-family="Times,serif" font-size="14.00" fill="#000000">localization</text>
</g>
<!-- GO:1904376&#45;&gt;GO:1903828 -->
<g id="edge16" class="edge">
<title>GO:1904376&#45;&gt;GO:1903828</title>
<path fill="none" stroke="#000000" d="M656.3231,-339.8422C668.0197,-351.4035 681.0029,-364.2365 693.1501,-376.2432"/>
<polygon fill="#000000" stroke="#000000" points="691.0139,-379.0529 700.5865,-383.5935 695.9348,-374.0744 691.0139,-379.0529"/>
</g>
<!-- GO:0048523 -->
<g id="node16" class="node">
<title>GO:0048523</title>
<polygon fill="#ffffff" stroke="#000000" points="576.3852,-553.8014 437.6906,-553.8014 437.6906,-494.9986 576.3852,-494.9986 576.3852,-553.8014"/>
<text text-anchor="middle" x="507.0379" y="-537" font-family="Times,serif" font-size="14.00" fill="#000000">GO:0048523</text>
<text text-anchor="middle" x="507.0379" y="-520.2" font-family="Times,serif" font-size="14.00" fill="#000000">negative regulation of</text>
<text text-anchor="middle" x="507.0379" y="-503.4" font-family="Times,serif" font-size="14.00" fill="#000000">cellular process</text>
</g>
<!-- GO:0051129&#45;&gt;GO:0048523 -->
<g id="edge18" class="edge">
<title>GO:0051129&#45;&gt;GO:0048523</title>
<path fill="none" stroke="#000000" d="M436.1066,-459.2952C446.3551,-468.7018 457.3233,-478.7691 467.4962,-488.1064"/>
<polygon fill="#000000" stroke="#000000" points="465.3615,-490.8978 475.0954,-495.0814 470.0949,-485.7408 465.3615,-490.8978"/>
</g>
<!-- GO:0051128 -->
<g id="node17" class="node">
<title>GO:0051128</title>
<polygon fill="#ffffff" stroke="#000000" points="419.7248,-553.8014 268.351,-553.8014 268.351,-494.9986 419.7248,-494.9986 419.7248,-553.8014"/>
<text text-anchor="middle" x="344.0379" y="-537" font-family="Times,serif" font-size="14.00" fill="#000000">GO:0051128</text>
<text text-anchor="middle" x="344.0379" y="-520.2" font-family="Times,serif" font-size="14.00" fill="#000000">regulation of cellular</text>
<text text-anchor="middle" x="344.0379" y="-503.4" font-family="Times,serif" font-size="14.00" fill="#000000">component organization</text>
</g>
<!-- GO:0051129&#45;&gt;GO:0051128 -->
<g id="edge19" class="edge">
<title>GO:0051129&#45;&gt;GO:0051128</title>
<path fill="none" stroke="#000000" d="M376.337,-459.2952C372.0363,-467.964 367.4572,-477.194 363.1398,-485.8966"/>
<polygon fill="#000000" stroke="#000000" points="359.8921,-484.5677 358.5831,-495.0814 366.1628,-487.6787 359.8921,-484.5677"/>
</g>
<!-- GO:0008150 -->
<g id="node18" class="node">
<title>GO:0008150</title>
<polygon fill="#ffffff" stroke="#000000" points="603.5085,-914.2019 482.5673,-914.2019 482.5673,-872.9981 603.5085,-872.9981 603.5085,-914.2019"/>
<text text-anchor="middle" x="543.0379" y="-897.8" font-family="Times,serif" font-size="14.00" fill="#000000">GO:0008150</text>
<text text-anchor="middle" x="543.0379" y="-881" font-family="Times,serif" font-size="14.00" fill="#000000">biological_process</text>
</g>
<!-- GO:0065007&#45;&gt;GO:0008150 -->
<g id="edge20" class="edge">
<title>GO:0065007&#45;&gt;GO:0008150</title>
<path fill="none" stroke="#000000" d="M483.1616,-828.4182C493.3505,-839.5099 506.0303,-853.3132 517.0949,-865.3583"/>
<polygon fill="#000000" stroke="#000000" points="514.7477,-867.9768 524.0903,-872.9735 519.9028,-863.2413 514.7477,-867.9768"/>
</g>
<!-- GO:0050789&#45;&gt;GO:0008150 -->
<g id="edge21" class="edge">
<title>GO:0050789&#45;&gt;GO:0008150</title>
<path fill="none" stroke="#000000" d="M594.8506,-837.1963C586.4966,-846.2905 577.3262,-856.2734 569.0528,-865.28"/>
<polygon fill="#000000" stroke="#000000" points="566.2437,-863.1643 562.0562,-872.8966 571.3988,-867.8999 566.2437,-863.1643"/>
</g>
<!-- GO:0032879 -->
<g id="node19" class="node">
<title>GO:0032879</title>
<polygon fill="#ffffff" stroke="#000000" points="625.6418,-742.6014 536.434,-742.6014 536.434,-683.7986 625.6418,-683.7986 625.6418,-742.6014"/>
<text text-anchor="middle" x="581.0379" y="-725.8" font-family="Times,serif" font-size="14.00" fill="#000000">GO:0032879</text>
<text text-anchor="middle" x="581.0379" y="-709" font-family="Times,serif" font-size="14.00" fill="#000000">regulation of</text>
<text text-anchor="middle" x="581.0379" y="-692.2" font-family="Times,serif" font-size="14.00" fill="#000000">localization</text>
</g>
<!-- GO:0032880&#45;&gt;GO:0032879 -->
<g id="edge22" class="edge">
<title>GO:0032880&#45;&gt;GO:0032879</title>
<path fill="none" stroke="#000000" d="M581.0379,-648.1513C581.0379,-656.2318 581.0379,-665.1308 581.0379,-673.6838"/>
<polygon fill="#000000" stroke="#000000" points="577.538,-673.8668 581.0379,-683.8669 584.538,-673.8669 577.538,-673.8668"/>
</g>
<!-- GO:1903729&#45;&gt;GO:0051128 -->
<g id="edge23" class="edge">
<title>GO:1903729&#45;&gt;GO:0051128</title>
<path fill="none" stroke="#000000" d="M264.846,-451.0584C277.2703,-462.5648 291.6445,-475.8771 304.709,-487.9765"/>
<polygon fill="#000000" stroke="#000000" points="302.51,-490.7104 312.2251,-494.9373 307.2664,-485.5745 302.51,-490.7104"/>
</g>
<!-- GO:1903827 -->
<g id="node20" class="node">
<title>GO:1903827</title>
<polygon fill="#ffffff" stroke="#000000" points="803.9369,-553.8014 670.1389,-553.8014 670.1389,-494.9986 803.9369,-494.9986 803.9369,-553.8014"/>
<text text-anchor="middle" x="737.0379" y="-537" font-family="Times,serif" font-size="14.00" fill="#000000">GO:1903827</text>
<text text-anchor="middle" x="737.0379" y="-520.2" font-family="Times,serif" font-size="14.00" fill="#000000">regulation of cellular</text>
<text text-anchor="middle" x="737.0379" y="-503.4" font-family="Times,serif" font-size="14.00" fill="#000000">protein localization</text>
</g>
<!-- GO:1904375&#45;&gt;GO:1903827 -->
<g id="edge24" class="edge">
<title>GO:1904375&#45;&gt;GO:1903827</title>
<path fill="none" stroke="#000000" d="M613.6105,-457.2659C633.3038,-467.9774 654.8519,-479.6978 674.3535,-490.305"/>
<polygon fill="#000000" stroke="#000000" points="672.6987,-493.3891 683.1557,-495.0926 676.0434,-487.2399 672.6987,-493.3891"/>
</g>
<!-- GO:1903828&#45;&gt;GO:0048519 -->
<g id="edge26" class="edge">
<title>GO:1903828&#45;&gt;GO:0048519</title>
<path fill="none" stroke="#000000" d="M780.9918,-459.5487C792.0338,-470.5162 803.511,-482.8685 813.0379,-495.2 833.7265,-521.9789 852.7903,-555.2693 866.0973,-580.5519"/>
<polygon fill="#000000" stroke="#000000" points="863.0172,-582.2153 870.7318,-589.4773 869.2297,-578.9895 863.0172,-582.2153"/>
</g>
<!-- GO:1903828&#45;&gt;GO:1903827 -->
<g id="edge25" class="edge">
<title>GO:1903828&#45;&gt;GO:1903827</title>
<path fill="none" stroke="#000000" d="M738.3045,-459.2952C738.1413,-467.6874 737.9678,-476.6054 737.8032,-485.0618"/>
<polygon fill="#000000" stroke="#000000" points="734.3036,-485.0151 737.6083,-495.0814 741.3023,-485.1514 734.3036,-485.0151"/>
</g>
<!-- GO:0048523&#45;&gt;GO:0048519 -->
<g id="edge27" class="edge">
<title>GO:0048523&#45;&gt;GO:0048519</title>
<path fill="none" stroke="#000000" d="M576.4671,-538.28C646.5398,-552.4909 750.9914,-574.2756 805.5588,-589.3587"/>
<polygon fill="#000000" stroke="#000000" points="804.8884,-592.8071 815.4651,-592.1876 806.8106,-586.0762 804.8884,-592.8071"/>
</g>
<!-- GO:0050794 -->
<g id="node21" class="node">
<title>GO:0050794</title>
<polygon fill="#ffffff" stroke="#000000" points="497.9369,-648.2014 364.1389,-648.2014 364.1389,-589.3986 497.9369,-589.3986 497.9369,-648.2014"/>
<text text-anchor="middle" x="431.0379" y="-631.4" font-family="Times,serif" font-size="14.00" fill="#000000">GO:0050794</text>
<text text-anchor="middle" x="431.0379" y="-614.6" font-family="Times,serif" font-size="14.00" fill="#000000">regulation of cellular</text>
<text text-anchor="middle" x="431.0379" y="-597.8" font-family="Times,serif" font-size="14.00" fill="#000000">process</text>
</g>
<!-- GO:0048523&#45;&gt;GO:0050794 -->
<g id="edge28" class="edge">
<title>GO:0048523&#45;&gt;GO:0050794</title>
<path fill="none" stroke="#000000" d="M483.4076,-553.7513C476.3302,-562.5422 468.4729,-572.3018 461.0428,-581.5308"/>
<polygon fill="#000000" stroke="#000000" points="458.1984,-579.4826 454.6536,-589.4669 463.6509,-583.8724 458.1984,-579.4826"/>
</g>
<!-- GO:0051128&#45;&gt;GO:0050794 -->
<g id="edge29" class="edge">
<title>GO:0051128&#45;&gt;GO:0050794</title>
<path fill="none" stroke="#000000" d="M371.0883,-553.7513C379.3538,-562.7198 388.5484,-572.6965 397.2051,-582.0894"/>
<polygon fill="#000000" stroke="#000000" points="394.6535,-584.4854 404.0042,-589.4669 399.8009,-579.7415 394.6535,-584.4854"/>
</g>
<!-- GO:0032879&#45;&gt;GO:0065007 -->
<g id="edge30" class="edge">
<title>GO:0032879&#45;&gt;GO:0065007</title>
<path fill="none" stroke="#000000" d="M544.6597,-742.5513C529.6042,-754.6987 512.2561,-768.6958 497.5184,-780.5867"/>
<polygon fill="#000000" stroke="#000000" points="495.2153,-777.9477 489.6304,-786.951 499.6109,-783.3955 495.2153,-777.9477"/>
</g>
<!-- GO:0032879&#45;&gt;GO:0050789 -->
<g id="edge31" class="edge">
<title>GO:0032879&#45;&gt;GO:0050789</title>
<path fill="none" stroke="#000000" d="M593.7858,-742.5513C597.411,-750.8982 601.4156,-760.1184 605.242,-768.9286"/>
<polygon fill="#000000" stroke="#000000" points="602.1038,-770.4889 609.2979,-778.2669 608.5244,-767.7003 602.1038,-770.4889"/>
</g>
<!-- GO:1903827&#45;&gt;GO:0032880 -->
<g id="edge33" class="edge">
<title>GO:1903827&#45;&gt;GO:0032880</title>
<path fill="none" stroke="#000000" d="M688.5337,-553.7513C672.6857,-563.3413 654.9326,-574.0842 638.491,-584.0335"/>
<polygon fill="#000000" stroke="#000000" points="636.2556,-581.2952 629.5121,-589.4669 639.8797,-587.2841 636.2556,-581.2952"/>
</g>
<!-- GO:0060341 -->
<g id="node22" class="node">
<title>GO:0060341</title>
<polygon fill="#ffffff" stroke="#000000" points="797.9369,-648.2014 664.1389,-648.2014 664.1389,-589.3986 797.9369,-589.3986 797.9369,-648.2014"/>
<text text-anchor="middle" x="731.0379" y="-631.4" font-family="Times,serif" font-size="14.00" fill="#000000">GO:0060341</text>
<text text-anchor="middle" x="731.0379" y="-614.6" font-family="Times,serif" font-size="14.00" fill="#000000">regulation of cellular</text>
<text text-anchor="middle" x="731.0379" y="-597.8" font-family="Times,serif" font-size="14.00" fill="#000000">localization</text>
</g>
<!-- GO:1903827&#45;&gt;GO:0060341 -->
<g id="edge32" class="edge">
<title>GO:1903827&#45;&gt;GO:0060341</title>
<path fill="none" stroke="#000000" d="M735.1724,-553.7513C734.6588,-561.8318 734.0931,-570.7308 733.5495,-579.2838"/>
<polygon fill="#000000" stroke="#000000" points="730.0437,-579.265 732.9023,-589.4669 737.0297,-579.709 730.0437,-579.265"/>
</g>
<!-- GO:0050794&#45;&gt;GO:0065007 -->
<g id="edge34" class="edge">
<title>GO:0050794&#45;&gt;GO:0065007</title>
<path fill="none" stroke="#000000" d="M436.1942,-648.3C442.2889,-683.1696 452.386,-740.9372 458.6008,-776.4929"/>
<polygon fill="#000000" stroke="#000000" points="455.2265,-777.5164 460.3961,-786.7645 462.122,-776.3111 455.2265,-777.5164"/>
</g>
<!-- GO:0050794&#45;&gt;GO:0050789 -->
<g id="edge35" class="edge">
<title>GO:0050794&#45;&gt;GO:0050789</title>
<path fill="none" stroke="#000000" d="M449.94,-648.102C467.8511,-674.5463 496.4936,-713.6035 527.0379,-742.4 538.3806,-753.0937 551.621,-763.3187 564.5526,-772.3694"/>
<polygon fill="#000000" stroke="#000000" points="562.754,-775.3797 572.9828,-778.1406 566.7083,-769.6035 562.754,-775.3797"/>
</g>
<!-- GO:0060070 -->
<g id="node23" class="node">
<title>GO:0060070</title>
<polygon fill="#ff0000" stroke="#000000" points="152.1137,-75.4014 -.0379,-75.4014 -.0379,-16.5986 152.1137,-16.5986 152.1137,-75.4014"/>
<text text-anchor="middle" x="76.0379" y="-58.6" font-family="Times,serif" font-size="14.00" fill="#000000">GO:0060070</text>
<text text-anchor="middle" x="76.0379" y="-41.8" font-family="Times,serif" font-size="14.00" fill="#000000">canonical Wnt signaling</text>
<text text-anchor="middle" x="76.0379" y="-25" font-family="Times,serif" font-size="14.00" fill="#000000">pathway</text>
</g>
<!-- GO:0016055 -->
<g id="node24" class="node">
<title>GO:0016055</title>
<polygon fill="#ffffff" stroke="#000000" points="148.9006,-194.6019 3.1752,-194.6019 3.1752,-153.3981 148.9006,-153.3981 148.9006,-194.6019"/>
<text text-anchor="middle" x="76.0379" y="-178.2" font-family="Times,serif" font-size="14.00" fill="#000000">GO:0016055</text>
<text text-anchor="middle" x="76.0379" y="-161.4" font-family="Times,serif" font-size="14.00" fill="#000000">Wnt signaling pathway</text>
</g>
<!-- GO:0060070&#45;&gt;GO:0016055 -->
<g id="edge36" class="edge">
<title>GO:0060070&#45;&gt;GO:0016055</title>
<path fill="none" stroke="#000000" d="M76.0379,-75.3658C76.0379,-95.6043 76.0379,-122.4552 76.0379,-143.0312"/>
<polygon fill="#000000" stroke="#000000" points="72.538,-143.1508 76.0379,-153.1508 79.538,-143.1509 72.538,-143.1508"/>
</g>
<!-- GO:1905114 -->
<g id="node25" class="node">
<title>GO:1905114</title>
<polygon fill="#ffffff" stroke="#000000" points="141.0144,-348 11.0614,-348 11.0614,-256 141.0144,-256 141.0144,-348"/>
<text text-anchor="middle" x="76.0379" y="-331.4" font-family="Times,serif" font-size="14.00" fill="#000000">GO:1905114</text>
<text text-anchor="middle" x="76.0379" y="-314.6" font-family="Times,serif" font-size="14.00" fill="#000000">cell surface receptor</text>
<text text-anchor="middle" x="76.0379" y="-297.8" font-family="Times,serif" font-size="14.00" fill="#000000">signaling pathway</text>
<text text-anchor="middle" x="76.0379" y="-281" font-family="Times,serif" font-size="14.00" fill="#000000">involved in cell&#45;cell</text>
<text text-anchor="middle" x="76.0379" y="-264.2" font-family="Times,serif" font-size="14.00" fill="#000000">signaling</text>
</g>
<!-- GO:0016055&#45;&gt;GO:1905114 -->
<g id="edge37" class="edge">
<title>GO:0016055&#45;&gt;GO:1905114</title>
<path fill="none" stroke="#000000" d="M76.0379,-194.8503C76.0379,-208.7126 76.0379,-227.6304 76.0379,-245.7143"/>
<polygon fill="#000000" stroke="#000000" points="72.538,-245.9282 76.0379,-255.9282 79.538,-245.9283 72.538,-245.9282"/>
</g>
<!-- GO:0007166 -->
<g id="node26" class="node">
<title>GO:0007166</title>
<polygon fill="#ffffff" stroke="#000000" points="141.0144,-451.0014 11.0614,-451.0014 11.0614,-392.1986 141.0144,-392.1986 141.0144,-451.0014"/>
<text text-anchor="middle" x="76.0379" y="-434.2" font-family="Times,serif" font-size="14.00" fill="#000000">GO:0007166</text>
<text text-anchor="middle" x="76.0379" y="-417.4" font-family="Times,serif" font-size="14.00" fill="#000000">cell surface receptor</text>
<text text-anchor="middle" x="76.0379" y="-400.6" font-family="Times,serif" font-size="14.00" fill="#000000">signaling pathway</text>
</g>
<!-- GO:1905114&#45;&gt;GO:0007166 -->
<g id="edge38" class="edge">
<title>GO:1905114&#45;&gt;GO:0007166</title>
<path fill="none" stroke="#000000" d="M76.0379,-348.2405C76.0379,-359.3987 76.0379,-371.2218 76.0379,-382.0424"/>
<polygon fill="#000000" stroke="#000000" points="72.538,-382.0551 76.0379,-392.0551 79.538,-382.0552 72.538,-382.0551"/>
</g>
<!-- GO:0007165 -->
<g id="node27" class="node">
<title>GO:0007165</title>
<polygon fill="#ffffff" stroke="#000000" points="175.1846,-545.0019 52.8912,-545.0019 52.8912,-503.7981 175.1846,-503.7981 175.1846,-545.0019"/>
<text text-anchor="middle" x="114.0379" y="-528.6" font-family="Times,serif" font-size="14.00" fill="#000000">GO:0007165</text>
<text text-anchor="middle" x="114.0379" y="-511.8" font-family="Times,serif" font-size="14.00" fill="#000000">signal transduction</text>
</g>
<!-- GO:0007166&#45;&gt;GO:0007165 -->
<g id="edge39" class="edge">
<title>GO:0007166&#45;&gt;GO:0007165</title>
<path fill="none" stroke="#000000" d="M86.9272,-451.0584C91.9392,-464.6172 97.8782,-480.6838 102.9182,-494.3182"/>
<polygon fill="#000000" stroke="#000000" points="99.6529,-495.5795 106.403,-503.7456 106.2186,-493.1524 99.6529,-495.5795"/>
</g>
<!-- GO:0007165&#45;&gt;GO:0050794 -->
<g id="edge40" class="edge">
<title>GO:0007165&#45;&gt;GO:0050794</title>
<path fill="none" stroke="#000000" d="M175.1587,-542.6013C226.2458,-557.8146 299.3693,-579.5902 354.3737,-595.97"/>
<polygon fill="#000000" stroke="#000000" points="353.4937,-599.3598 364.0767,-598.8595 355.4916,-592.651 353.4937,-599.3598"/>
</g>
</g>
</svg>
