<?xml version="1.0" encoding="UTF-8" standalone="no"?>
<!DOCTYPE svg PUBLIC "-//W3C//DTD SVG 1.1//EN"
 "http://www.w3.org/Graphics/SVG/1.1/DTD/svg11.dtd">
<!-- Generated by graphviz version 2.40.1 (20161225.0304)
 -->
<!-- Title: G Pages: 1 -->
<svg width="579pt" height="471pt"
 viewBox="0.00 0.00 579.25 471.20" xmlns="http://www.w3.org/2000/svg" xmlns:xlink="http://www.w3.org/1999/xlink">
<g id="graph0" class="graph" transform="scale(1 1) rotate(0) translate(4 467.2)">
<title>G</title>
<polygon fill="#ffffff" stroke="transparent" points="-4,4 -4,-467.2 575.2529,-467.2 575.2529,4 -4,4"/>
<!-- GO:0070062 -->
<g id="node1" class="node">
<title>GO:0070062</title>
<polygon fill="#ffff00" stroke="#000000" points="224.9653,-41.4019 85.5229,-41.4019 85.5229,-.1981 224.9653,-.1981 224.9653,-41.4019"/>
<text text-anchor="middle" x="155.2441" y="-25" font-family="Times,serif" font-size="14.00" fill="#000000">GO:0070062</text>
<text text-anchor="middle" x="155.2441" y="-8.2" font-family="Times,serif" font-size="14.00" fill="#000000">extracellular exosome</text>
</g>
<!-- GO:1903561 -->
<g id="node2" class="node">
<title>GO:1903561</title>
<polygon fill="#ffffff" stroke="#000000" points="135.5707,-127.4019 6.9175,-127.4019 6.9175,-86.1981 135.5707,-86.1981 135.5707,-127.4019"/>
<text text-anchor="middle" x="71.2441" y="-111" font-family="Times,serif" font-size="14.00" fill="#000000">GO:1903561</text>
<text text-anchor="middle" x="71.2441" y="-94.2" font-family="Times,serif" font-size="14.00" fill="#000000">extracellular vesicle</text>
</g>
<!-- GO:0070062&#45;&gt;GO:1903561 -->
<g id="edge1" class="edge">
<title>GO:0070062&#45;&gt;GO:1903561</title>
<path fill="none" stroke="#000000" d="M134.91,-41.6182C123.9731,-52.8156 110.3369,-66.7764 98.4934,-78.9019"/>
<polygon fill="#000000" stroke="#000000" points="95.8745,-76.5741 91.3909,-86.1735 100.8822,-81.4653 95.8745,-76.5741"/>
</g>
<!-- GO:0031988 -->
<g id="node3" class="node">
<title>GO:0031988</title>
<polygon fill="#ffffff" stroke="#000000" points="323.5748,-127.4019 152.9134,-127.4019 152.9134,-86.1981 323.5748,-86.1981 323.5748,-127.4019"/>
<text text-anchor="middle" x="238.2441" y="-111" font-family="Times,serif" font-size="14.00" fill="#000000">GO:0031988</text>
<text text-anchor="middle" x="238.2441" y="-94.2" font-family="Times,serif" font-size="14.00" fill="#000000">membrane&#45;bounded vesicle</text>
</g>
<!-- GO:0070062&#45;&gt;GO:0031988 -->
<g id="edge2" class="edge">
<title>GO:0070062&#45;&gt;GO:0031988</title>
<path fill="none" stroke="#000000" d="M175.3361,-41.6182C186.1428,-52.8156 199.6167,-66.7764 211.3192,-78.9019"/>
<polygon fill="#000000" stroke="#000000" points="208.8742,-81.4086 218.3371,-86.1735 213.9111,-76.5475 208.8742,-81.4086"/>
</g>
<!-- GO:0043230 -->
<g id="node4" class="node">
<title>GO:0043230</title>
<polygon fill="#ffffff" stroke="#000000" points="141.787,-299.4019 .7012,-299.4019 .7012,-258.1981 141.787,-258.1981 141.787,-299.4019"/>
<text text-anchor="middle" x="71.2441" y="-283" font-family="Times,serif" font-size="14.00" fill="#000000">GO:0043230</text>
<text text-anchor="middle" x="71.2441" y="-266.2" font-family="Times,serif" font-size="14.00" fill="#000000">extracellular organelle</text>
</g>
<!-- GO:1903561&#45;&gt;GO:0043230 -->
<g id="edge3" class="edge">
<title>GO:1903561&#45;&gt;GO:0043230</title>
<path fill="none" stroke="#000000" d="M71.2441,-127.5472C71.2441,-157.5071 71.2441,-213.0979 71.2441,-247.898"/>
<polygon fill="#000000" stroke="#000000" points="67.7442,-247.9792 71.2441,-257.9792 74.7442,-247.9792 67.7442,-247.9792"/>
</g>
<!-- GO:0031982 -->
<g id="node5" class="node">
<title>GO:0031982</title>
<polygon fill="#ffffff" stroke="#000000" points="268.848,-213.4019 179.6402,-213.4019 179.6402,-172.1981 268.848,-172.1981 268.848,-213.4019"/>
<text text-anchor="middle" x="224.2441" y="-197" font-family="Times,serif" font-size="14.00" fill="#000000">GO:0031982</text>
<text text-anchor="middle" x="224.2441" y="-180.2" font-family="Times,serif" font-size="14.00" fill="#000000">vesicle</text>
</g>
<!-- GO:1903561&#45;&gt;GO:0031982 -->
<g id="edge4" class="edge">
<title>GO:1903561&#45;&gt;GO:0031982</title>
<path fill="none" stroke="#000000" d="M108.2811,-127.6182C129.4236,-139.5022 156.1039,-154.499 178.5412,-167.1108"/>
<polygon fill="#000000" stroke="#000000" points="177.1159,-170.3246 187.5481,-172.1735 180.5458,-164.2225 177.1159,-170.3246"/>
</g>
<!-- GO:0031988&#45;&gt;GO:0031982 -->
<g id="edge5" class="edge">
<title>GO:0031988&#45;&gt;GO:0031982</title>
<path fill="none" stroke="#000000" d="M234.8551,-127.6182C233.1698,-137.9705 231.1001,-150.6848 229.2374,-162.1271"/>
<polygon fill="#000000" stroke="#000000" points="225.7542,-161.741 227.6019,-172.1735 232.6633,-162.8658 225.7542,-161.741"/>
</g>
<!-- GO:0043226 -->
<g id="node6" class="node">
<title>GO:0043226</title>
<polygon fill="#ffffff" stroke="#000000" points="261.848,-385.4019 172.6402,-385.4019 172.6402,-344.1981 261.848,-344.1981 261.848,-385.4019"/>
<text text-anchor="middle" x="217.2441" y="-369" font-family="Times,serif" font-size="14.00" fill="#000000">GO:0043226</text>
<text text-anchor="middle" x="217.2441" y="-352.2" font-family="Times,serif" font-size="14.00" fill="#000000">organelle</text>
</g>
<!-- GO:0043230&#45;&gt;GO:0043226 -->
<g id="edge6" class="edge">
<title>GO:0043230&#45;&gt;GO:0043226</title>
<path fill="none" stroke="#000000" d="M106.5866,-299.6182C126.6721,-311.4494 151.9952,-326.3657 173.3465,-338.9425"/>
<polygon fill="#000000" stroke="#000000" points="171.8343,-342.1138 182.227,-344.1735 175.3871,-336.0824 171.8343,-342.1138"/>
</g>
<!-- GO:0044421 -->
<g id="node7" class="node">
<title>GO:0044421</title>
<polygon fill="#ffffff" stroke="#000000" points="150.7331,-385.4019 -.2449,-385.4019 -.2449,-344.1981 150.7331,-344.1981 150.7331,-385.4019"/>
<text text-anchor="middle" x="75.2441" y="-369" font-family="Times,serif" font-size="14.00" fill="#000000">GO:0044421</text>
<text text-anchor="middle" x="75.2441" y="-352.2" font-family="Times,serif" font-size="14.00" fill="#000000">extracellular region part</text>
</g>
<!-- GO:0043230&#45;&gt;GO:0044421 -->
<g id="edge7" class="edge">
<title>GO:0043230&#45;&gt;GO:0044421</title>
<path fill="none" stroke="#000000" d="M72.2124,-299.6182C72.6939,-309.9705 73.2853,-322.6848 73.8175,-334.1271"/>
<polygon fill="#000000" stroke="#000000" points="70.3238,-334.347 74.2847,-344.1735 77.3162,-334.0217 70.3238,-334.347"/>
</g>
<!-- GO:0043227 -->
<g id="node8" class="node">
<title>GO:0043227</title>
<polygon fill="#ffffff" stroke="#000000" points="288.2049,-308.2014 160.2833,-308.2014 160.2833,-249.3986 288.2049,-249.3986 288.2049,-308.2014"/>
<text text-anchor="middle" x="224.2441" y="-291.4" font-family="Times,serif" font-size="14.00" fill="#000000">GO:0043227</text>
<text text-anchor="middle" x="224.2441" y="-274.6" font-family="Times,serif" font-size="14.00" fill="#000000">membrane&#45;bounded</text>
<text text-anchor="middle" x="224.2441" y="-257.8" font-family="Times,serif" font-size="14.00" fill="#000000">organelle</text>
</g>
<!-- GO:0031982&#45;&gt;GO:0043227 -->
<g id="edge8" class="edge">
<title>GO:0031982&#45;&gt;GO:0043227</title>
<path fill="none" stroke="#000000" d="M224.2441,-213.6182C224.2441,-221.3358 224.2441,-230.3662 224.2441,-239.2036"/>
<polygon fill="#000000" stroke="#000000" points="220.7442,-239.3991 224.2441,-249.3991 227.7442,-239.3992 220.7442,-239.3991"/>
</g>
<!-- GO:0005575 -->
<g id="node9" class="node">
<title>GO:0005575</title>
<polygon fill="#ffffff" stroke="#000000" points="280.9308,-463.0019 153.5574,-463.0019 153.5574,-421.7981 280.9308,-421.7981 280.9308,-463.0019"/>
<text text-anchor="middle" x="217.2441" y="-446.6" font-family="Times,serif" font-size="14.00" fill="#000000">GO:0005575</text>
<text text-anchor="middle" x="217.2441" y="-429.8" font-family="Times,serif" font-size="14.00" fill="#000000">cellular_component</text>
</g>
<!-- GO:0043226&#45;&gt;GO:0005575 -->
<g id="edge9" class="edge">
<title>GO:0043226&#45;&gt;GO:0005575</title>
<path fill="none" stroke="#000000" d="M217.2441,-385.5954C217.2441,-393.5109 217.2441,-402.7109 217.2441,-411.3722"/>
<polygon fill="#000000" stroke="#000000" points="213.7442,-411.5472 217.2441,-421.5472 220.7442,-411.5473 213.7442,-411.5472"/>
</g>
<!-- GO:0044421&#45;&gt;GO:0005575 -->
<g id="edge10" class="edge">
<title>GO:0044421&#45;&gt;GO:0005575</title>
<path fill="none" stroke="#000000" d="M113.2975,-385.5954C130.8063,-395.1635 151.7497,-406.6087 170.2346,-416.7103"/>
<polygon fill="#000000" stroke="#000000" points="168.6321,-419.823 179.0857,-421.5472 171.9889,-413.6804 168.6321,-419.823"/>
</g>
<!-- GO:0043227&#45;&gt;GO:0043226 -->
<g id="edge11" class="edge">
<title>GO:0043227&#45;&gt;GO:0043226</title>
<path fill="none" stroke="#000000" d="M221.8351,-308.3963C221.1622,-316.6638 220.4294,-325.6657 219.751,-334.0008"/>
<polygon fill="#000000" stroke="#000000" points="216.2522,-333.8455 218.9293,-344.0966 223.2291,-334.4135 216.2522,-333.8455"/>
</g>
<!-- GO:0005925 -->
<g id="node10" class="node">
<title>GO:0005925</title>
<polygon fill="#ff0000" stroke="#000000" points="499.9892,-41.4019 402.499,-41.4019 402.499,-.1981 499.9892,-.1981 499.9892,-41.4019"/>
<text text-anchor="middle" x="451.2441" y="-25" font-family="Times,serif" font-size="14.00" fill="#000000">GO:0005925</text>
<text text-anchor="middle" x="451.2441" y="-8.2" font-family="Times,serif" font-size="14.00" fill="#000000">focal adhesion</text>
</g>
<!-- GO:0005924 -->
<g id="node11" class="node">
<title>GO:0005924</title>
<polygon fill="#ffffff" stroke="#000000" points="523.1243,-136.2014 379.3639,-136.2014 379.3639,-77.3986 523.1243,-77.3986 523.1243,-136.2014"/>
<text text-anchor="middle" x="451.2441" y="-119.4" font-family="Times,serif" font-size="14.00" fill="#000000">GO:0005924</text>
<text text-anchor="middle" x="451.2441" y="-102.6" font-family="Times,serif" font-size="14.00" fill="#000000">cell&#45;substrate adherens</text>
<text text-anchor="middle" x="451.2441" y="-85.8" font-family="Times,serif" font-size="14.00" fill="#000000">junction</text>
</g>
<!-- GO:0005925&#45;&gt;GO:0005924 -->
<g id="edge12" class="edge">
<title>GO:0005925&#45;&gt;GO:0005924</title>
<path fill="none" stroke="#000000" d="M451.2441,-41.6182C451.2441,-49.3358 451.2441,-58.3662 451.2441,-67.2036"/>
<polygon fill="#000000" stroke="#000000" points="447.7442,-67.3991 451.2441,-77.3991 454.7442,-67.3992 447.7442,-67.3991"/>
</g>
<!-- GO:0005912 -->
<g id="node12" class="node">
<title>GO:0005912</title>
<polygon fill="#ffffff" stroke="#000000" points="412.8796,-213.4019 297.6086,-213.4019 297.6086,-172.1981 412.8796,-172.1981 412.8796,-213.4019"/>
<text text-anchor="middle" x="355.2441" y="-197" font-family="Times,serif" font-size="14.00" fill="#000000">GO:0005912</text>
<text text-anchor="middle" x="355.2441" y="-180.2" font-family="Times,serif" font-size="14.00" fill="#000000">adherens junction</text>
</g>
<!-- GO:0005924&#45;&gt;GO:0005912 -->
<g id="edge13" class="edge">
<title>GO:0005924&#45;&gt;GO:0005912</title>
<path fill="none" stroke="#000000" d="M418.4748,-136.1558C408.0001,-145.5394 396.4458,-155.8902 386.1111,-165.1483"/>
<polygon fill="#000000" stroke="#000000" points="383.597,-162.7015 378.484,-171.9809 388.2677,-167.9154 383.597,-162.7015"/>
</g>
<!-- GO:0030055 -->
<g id="node13" class="node">
<title>GO:0030055</title>
<polygon fill="#ffffff" stroke="#000000" points="571.2617,-213.4019 431.2265,-213.4019 431.2265,-172.1981 571.2617,-172.1981 571.2617,-213.4019"/>
<text text-anchor="middle" x="501.2441" y="-197" font-family="Times,serif" font-size="14.00" fill="#000000">GO:0030055</text>
<text text-anchor="middle" x="501.2441" y="-180.2" font-family="Times,serif" font-size="14.00" fill="#000000">cell&#45;substrate junction</text>
</g>
<!-- GO:0005924&#45;&gt;GO:0030055 -->
<g id="edge14" class="edge">
<title>GO:0005924&#45;&gt;GO:0030055</title>
<path fill="none" stroke="#000000" d="M468.4513,-136.3963C473.525,-145.1231 479.0744,-154.6682 484.1415,-163.3836"/>
<polygon fill="#000000" stroke="#000000" points="481.1552,-165.2107 489.2072,-172.0966 487.2067,-161.6923 481.1552,-165.2107"/>
</g>
<!-- GO:0070161 -->
<g id="node14" class="node">
<title>GO:0070161</title>
<polygon fill="#ffffff" stroke="#000000" points="428.1115,-299.4019 306.3767,-299.4019 306.3767,-258.1981 428.1115,-258.1981 428.1115,-299.4019"/>
<text text-anchor="middle" x="367.2441" y="-283" font-family="Times,serif" font-size="14.00" fill="#000000">GO:0070161</text>
<text text-anchor="middle" x="367.2441" y="-266.2" font-family="Times,serif" font-size="14.00" fill="#000000">anchoring junction</text>
</g>
<!-- GO:0005912&#45;&gt;GO:0070161 -->
<g id="edge15" class="edge">
<title>GO:0005912&#45;&gt;GO:0070161</title>
<path fill="none" stroke="#000000" d="M358.149,-213.6182C359.5935,-223.9705 361.3676,-236.6848 362.9642,-248.1271"/>
<polygon fill="#000000" stroke="#000000" points="359.5175,-248.7532 364.366,-258.1735 366.4504,-247.7857 359.5175,-248.7532"/>
</g>
<!-- GO:0030054 -->
<g id="node15" class="node">
<title>GO:0030054</title>
<polygon fill="#ffffff" stroke="#000000" points="411.848,-385.4019 322.6402,-385.4019 322.6402,-344.1981 411.848,-344.1981 411.848,-385.4019"/>
<text text-anchor="middle" x="367.2441" y="-369" font-family="Times,serif" font-size="14.00" fill="#000000">GO:0030054</text>
<text text-anchor="middle" x="367.2441" y="-352.2" font-family="Times,serif" font-size="14.00" fill="#000000">cell junction</text>
</g>
<!-- GO:0030055&#45;&gt;GO:0030054 -->
<g id="edge16" class="edge">
<title>GO:0030055&#45;&gt;GO:0030054</title>
<path fill="none" stroke="#000000" d="M492.7045,-213.4086C482.0282,-237.6626 462.0974,-278.3798 437.2441,-308 428.1858,-318.7957 416.8391,-329.0243 405.9348,-337.7491"/>
<polygon fill="#000000" stroke="#000000" points="403.4859,-335.2189 397.7275,-344.1123 407.7751,-340.751 403.4859,-335.2189"/>
</g>
<!-- GO:0070161&#45;&gt;GO:0030054 -->
<g id="edge17" class="edge">
<title>GO:0070161&#45;&gt;GO:0030054</title>
<path fill="none" stroke="#000000" d="M367.2441,-299.6182C367.2441,-309.9705 367.2441,-322.6848 367.2441,-334.1271"/>
<polygon fill="#000000" stroke="#000000" points="363.7442,-334.1735 367.2441,-344.1735 370.7442,-334.1735 363.7442,-334.1735"/>
</g>
<!-- GO:0030054&#45;&gt;GO:0005575 -->
<g id="edge18" class="edge">
<title>GO:0030054&#45;&gt;GO:0005575</title>
<path fill="none" stroke="#000000" d="M327.0469,-385.5954C308.3927,-395.2458 286.0477,-406.8056 266.3991,-416.9705"/>
<polygon fill="#000000" stroke="#000000" points="264.5656,-413.9783 257.292,-421.6819 267.7821,-420.1956 264.5656,-413.9783"/>
</g>
</g>
</svg>
