<?xml version="1.0" encoding="UTF-8" standalone="no"?>
<!DOCTYPE svg PUBLIC "-//W3C//DTD SVG 1.1//EN"
 "http://www.w3.org/Graphics/SVG/1.1/DTD/svg11.dtd">
<!-- Generated by graphviz version 2.40.1 (20161225.0304)
 -->
<!-- Title: G Pages: 1 -->
<svg width="269pt" height="316pt"
 viewBox="0.00 0.00 269.42 316.00" xmlns="http://www.w3.org/2000/svg" xmlns:xlink="http://www.w3.org/1999/xlink">
<g id="graph0" class="graph" transform="scale(1 1) rotate(0) translate(4 312)">
<title>G</title>
<polygon fill="#ffffff" stroke="transparent" points="-4,4 -4,-312 265.418,-312 265.418,4 -4,4"/>
<!-- GO:0016798 -->
<g id="node1" class="node">
<title>GO:0016798</title>
<polygon fill="#00ffff" stroke="#000000" points="155.3936,-58.6014 .2018,-58.6014 .2018,.2014 155.3936,.2014 155.3936,-58.6014"/>
<text text-anchor="middle" x="77.7977" y="-41.8" font-family="Times,serif" font-size="14.00" fill="#000000">GO:0016798</text>
<text text-anchor="middle" x="77.7977" y="-25" font-family="Times,serif" font-size="14.00" fill="#000000">hydrolase activity,</text>
<text text-anchor="middle" x="77.7977" y="-8.2" font-family="Times,serif" font-size="14.00" fill="#000000">acting on glycosyl bonds</text>
</g>
<!-- GO:0016787 -->
<g id="node2" class="node">
<title>GO:0016787</title>
<polygon fill="#ffffff" stroke="#000000" points="135.7143,-135.8019 19.8811,-135.8019 19.8811,-94.5981 135.7143,-94.5981 135.7143,-135.8019"/>
<text text-anchor="middle" x="77.7977" y="-119.4" font-family="Times,serif" font-size="14.00" fill="#000000">GO:0016787</text>
<text text-anchor="middle" x="77.7977" y="-102.6" font-family="Times,serif" font-size="14.00" fill="#000000">hydrolase activity</text>
</g>
<!-- GO:0016798&#45;&gt;GO:0016787 -->
<g id="edge1" class="edge">
<title>GO:0016798&#45;&gt;GO:0016787</title>
<path fill="none" stroke="#000000" d="M77.7977,-58.7963C77.7977,-67.0638 77.7977,-76.0657 77.7977,-84.4008"/>
<polygon fill="#000000" stroke="#000000" points="74.2978,-84.4965 77.7977,-94.4966 81.2978,-84.4966 74.2978,-84.4965"/>
</g>
<!-- GO:0003824 -->
<g id="node3" class="node">
<title>GO:0003824</title>
<polygon fill="#ffffff" stroke="#000000" points="132.2101,-221.8019 23.3853,-221.8019 23.3853,-180.5981 132.2101,-180.5981 132.2101,-221.8019"/>
<text text-anchor="middle" x="77.7977" y="-205.4" font-family="Times,serif" font-size="14.00" fill="#000000">GO:0003824</text>
<text text-anchor="middle" x="77.7977" y="-188.6" font-family="Times,serif" font-size="14.00" fill="#000000">catalytic activity</text>
</g>
<!-- GO:0016787&#45;&gt;GO:0003824 -->
<g id="edge2" class="edge">
<title>GO:0016787&#45;&gt;GO:0003824</title>
<path fill="none" stroke="#000000" d="M77.7977,-136.0182C77.7977,-146.3705 77.7977,-159.0848 77.7977,-170.5271"/>
<polygon fill="#000000" stroke="#000000" points="74.2978,-170.5735 77.7977,-180.5735 81.2978,-170.5735 74.2978,-170.5735"/>
</g>
<!-- GO:0003674 -->
<g id="node4" class="node">
<title>GO:0003674</title>
<polygon fill="#ffffff" stroke="#000000" points="204.4308,-307.8019 79.1646,-307.8019 79.1646,-266.5981 204.4308,-266.5981 204.4308,-307.8019"/>
<text text-anchor="middle" x="141.7977" y="-291.4" font-family="Times,serif" font-size="14.00" fill="#000000">GO:0003674</text>
<text text-anchor="middle" x="141.7977" y="-274.6" font-family="Times,serif" font-size="14.00" fill="#000000">molecular_function</text>
</g>
<!-- GO:0003824&#45;&gt;GO:0003674 -->
<g id="edge3" class="edge">
<title>GO:0003824&#45;&gt;GO:0003674</title>
<path fill="none" stroke="#000000" d="M93.2903,-222.0182C101.3874,-232.8987 111.4263,-246.3884 120.267,-258.2681"/>
<polygon fill="#000000" stroke="#000000" points="117.6698,-260.6407 126.4478,-266.5735 123.2854,-256.4616 117.6698,-260.6407"/>
</g>
<!-- GO:0004871 -->
<g id="node5" class="node">
<title>GO:0004871</title>
<polygon fill="#ff0000" stroke="#000000" points="261.5386,-230.6014 150.0568,-230.6014 150.0568,-171.7986 261.5386,-171.7986 261.5386,-230.6014"/>
<text text-anchor="middle" x="205.7977" y="-213.8" font-family="Times,serif" font-size="14.00" fill="#000000">GO:0004871</text>
<text text-anchor="middle" x="205.7977" y="-197" font-family="Times,serif" font-size="14.00" fill="#000000">signal transducer</text>
<text text-anchor="middle" x="205.7977" y="-180.2" font-family="Times,serif" font-size="14.00" fill="#000000">activity</text>
</g>
<!-- GO:0004871&#45;&gt;GO:0003674 -->
<g id="edge4" class="edge">
<title>GO:0004871&#45;&gt;GO:0003674</title>
<path fill="none" stroke="#000000" d="M183.7725,-230.7963C177.1415,-239.7068 169.8755,-249.4705 163.2802,-258.3329"/>
<polygon fill="#000000" stroke="#000000" points="160.3672,-256.3846 157.2049,-266.4966 165.9829,-260.5638 160.3672,-256.3846"/>
</g>
</g>
</svg>
