<?xml version="1.0" encoding="UTF-8" standalone="no"?>
<!DOCTYPE svg PUBLIC "-//W3C//DTD SVG 1.1//EN"
 "http://www.w3.org/Graphics/SVG/1.1/DTD/svg11.dtd">
<!-- Generated by graphviz version 2.40.1 (20161225.0304)
 -->
<!-- Title: G Pages: 1 -->
<svg width="704pt" height="427pt"
 viewBox="0.00 0.00 704.26 427.20" xmlns="http://www.w3.org/2000/svg" xmlns:xlink="http://www.w3.org/1999/xlink">
<g id="graph0" class="graph" transform="scale(1 1) rotate(0) translate(4 423.2)">
<title>G</title>
<polygon fill="#ffffff" stroke="transparent" points="-4,4 -4,-423.2 700.2588,-423.2 700.2588,4 -4,4"/>
<!-- GO:0007165 -->
<g id="node1" class="node">
<title>GO:0007165</title>
<polygon fill="#00ffff" stroke="#000000" points="604.6986,-152.6019 482.4052,-152.6019 482.4052,-111.3981 604.6986,-111.3981 604.6986,-152.6019"/>
<text text-anchor="middle" x="543.5519" y="-136.2" font-family="Times,serif" font-size="14.00" fill="#000000">GO:0007165</text>
<text text-anchor="middle" x="543.5519" y="-119.4" font-family="Times,serif" font-size="14.00" fill="#000000">signal transduction</text>
</g>
<!-- GO:0050794 -->
<g id="node2" class="node">
<title>GO:0050794</title>
<polygon fill="#00ff00" stroke="#000000" points="610.4509,-247.4014 476.6529,-247.4014 476.6529,-188.5986 610.4509,-188.5986 610.4509,-247.4014"/>
<text text-anchor="middle" x="543.5519" y="-230.6" font-family="Times,serif" font-size="14.00" fill="#000000">GO:0050794</text>
<text text-anchor="middle" x="543.5519" y="-213.8" font-family="Times,serif" font-size="14.00" fill="#000000">regulation of cellular</text>
<text text-anchor="middle" x="543.5519" y="-197" font-family="Times,serif" font-size="14.00" fill="#000000">process</text>
</g>
<!-- GO:0007165&#45;&gt;GO:0050794 -->
<g id="edge1" class="edge">
<title>GO:0007165&#45;&gt;GO:0050794</title>
<path fill="none" stroke="#000000" d="M543.5519,-152.8182C543.5519,-160.5358 543.5519,-169.5662 543.5519,-178.4036"/>
<polygon fill="#000000" stroke="#000000" points="540.052,-178.5991 543.5519,-188.5991 547.052,-178.5992 540.052,-178.5991"/>
</g>
<!-- GO:0065007 -->
<g id="node3" class="node">
<title>GO:0065007</title>
<polygon fill="#00ff00" stroke="#000000" points="530.8053,-333.0019 398.2985,-333.0019 398.2985,-291.7981 530.8053,-291.7981 530.8053,-333.0019"/>
<text text-anchor="middle" x="464.5519" y="-316.6" font-family="Times,serif" font-size="14.00" fill="#000000">GO:0065007</text>
<text text-anchor="middle" x="464.5519" y="-299.8" font-family="Times,serif" font-size="14.00" fill="#000000">biological regulation</text>
</g>
<!-- GO:0050794&#45;&gt;GO:0065007 -->
<g id="edge2" class="edge">
<title>GO:0050794&#45;&gt;GO:0065007</title>
<path fill="none" stroke="#000000" d="M518.9889,-247.3513C509.1996,-259.0488 497.975,-272.4615 488.2711,-284.057"/>
<polygon fill="#000000" stroke="#000000" points="485.5661,-281.8358 481.8323,-291.751 490.9343,-286.3283 485.5661,-281.8358"/>
</g>
<!-- GO:0050789 -->
<g id="node4" class="node">
<title>GO:0050789</title>
<polygon fill="#00ff00" stroke="#000000" points="696.4663,-341.8014 548.6375,-341.8014 548.6375,-282.9986 696.4663,-282.9986 696.4663,-341.8014"/>
<text text-anchor="middle" x="622.5519" y="-325" font-family="Times,serif" font-size="14.00" fill="#000000">GO:0050789</text>
<text text-anchor="middle" x="622.5519" y="-308.2" font-family="Times,serif" font-size="14.00" fill="#000000">regulation of biological</text>
<text text-anchor="middle" x="622.5519" y="-291.4" font-family="Times,serif" font-size="14.00" fill="#000000">process</text>
</g>
<!-- GO:0050794&#45;&gt;GO:0050789 -->
<g id="edge3" class="edge">
<title>GO:0050794&#45;&gt;GO:0050789</title>
<path fill="none" stroke="#000000" d="M568.1149,-247.3513C575.4717,-256.1422 583.6392,-265.9018 591.3626,-275.1308"/>
<polygon fill="#000000" stroke="#000000" points="588.9021,-277.6442 598.004,-283.0669 594.2703,-273.1517 588.9021,-277.6442"/>
</g>
<!-- GO:0008150 -->
<g id="node5" class="node">
<title>GO:0008150</title>
<polygon fill="#ffffff" stroke="#000000" points="389.0225,-419.0019 268.0813,-419.0019 268.0813,-377.7981 389.0225,-377.7981 389.0225,-419.0019"/>
<text text-anchor="middle" x="328.5519" y="-402.6" font-family="Times,serif" font-size="14.00" fill="#000000">GO:0008150</text>
<text text-anchor="middle" x="328.5519" y="-385.8" font-family="Times,serif" font-size="14.00" fill="#000000">biological_process</text>
</g>
<!-- GO:0065007&#45;&gt;GO:0008150 -->
<g id="edge4" class="edge">
<title>GO:0065007&#45;&gt;GO:0008150</title>
<path fill="none" stroke="#000000" d="M431.6301,-333.2182C413.0039,-344.9966 389.5422,-359.8326 369.7094,-372.3739"/>
<polygon fill="#000000" stroke="#000000" points="367.7519,-369.4707 361.1705,-377.7735 371.4931,-375.387 367.7519,-369.4707"/>
</g>
<!-- GO:0050789&#45;&gt;GO:0008150 -->
<g id="edge5" class="edge">
<title>GO:0050789&#45;&gt;GO:0008150</title>
<path fill="none" stroke="#000000" d="M548.4323,-338.7867C545.4387,-339.7538 542.47,-340.6953 539.5519,-341.6 493.1896,-355.9732 440.4626,-370.1677 399.3147,-380.7717"/>
<polygon fill="#000000" stroke="#000000" points="398.1993,-377.4444 389.3826,-383.3195 399.9387,-384.2249 398.1993,-377.4444"/>
</g>
<!-- GO:0006935 -->
<g id="node6" class="node">
<title>GO:0006935</title>
<polygon fill="#00ff00" stroke="#000000" points="89.1558,-152.6019 -.052,-152.6019 -.052,-111.3981 89.1558,-111.3981 89.1558,-152.6019"/>
<text text-anchor="middle" x="44.5519" y="-136.2" font-family="Times,serif" font-size="14.00" fill="#000000">GO:0006935</text>
<text text-anchor="middle" x="44.5519" y="-119.4" font-family="Times,serif" font-size="14.00" fill="#000000">chemotaxis</text>
</g>
<!-- GO:0042330 -->
<g id="node7" class="node">
<title>GO:0042330</title>
<polygon fill="#ffffff" stroke="#000000" points="89.1558,-238.6019 -.052,-238.6019 -.052,-197.3981 89.1558,-197.3981 89.1558,-238.6019"/>
<text text-anchor="middle" x="44.5519" y="-222.2" font-family="Times,serif" font-size="14.00" fill="#000000">GO:0042330</text>
<text text-anchor="middle" x="44.5519" y="-205.4" font-family="Times,serif" font-size="14.00" fill="#000000">taxis</text>
</g>
<!-- GO:0006935&#45;&gt;GO:0042330 -->
<g id="edge6" class="edge">
<title>GO:0006935&#45;&gt;GO:0042330</title>
<path fill="none" stroke="#000000" d="M44.5519,-152.8182C44.5519,-163.1705 44.5519,-175.8848 44.5519,-187.3271"/>
<polygon fill="#000000" stroke="#000000" points="41.052,-187.3735 44.5519,-197.3735 48.052,-187.3735 41.052,-187.3735"/>
</g>
<!-- GO:0040011 -->
<g id="node8" class="node">
<title>GO:0040011</title>
<polygon fill="#ffffff" stroke="#000000" points="89.1558,-333.0019 -.052,-333.0019 -.052,-291.7981 89.1558,-291.7981 89.1558,-333.0019"/>
<text text-anchor="middle" x="44.5519" y="-316.6" font-family="Times,serif" font-size="14.00" fill="#000000">GO:0040011</text>
<text text-anchor="middle" x="44.5519" y="-299.8" font-family="Times,serif" font-size="14.00" fill="#000000">locomotion</text>
</g>
<!-- GO:0042330&#45;&gt;GO:0040011 -->
<g id="edge7" class="edge">
<title>GO:0042330&#45;&gt;GO:0040011</title>
<path fill="none" stroke="#000000" d="M44.5519,-238.9504C44.5519,-251.4165 44.5519,-267.4645 44.5519,-281.3786"/>
<polygon fill="#000000" stroke="#000000" points="41.052,-281.5081 44.5519,-291.5081 48.052,-281.5082 41.052,-281.5081"/>
</g>
<!-- GO:0040011&#45;&gt;GO:0008150 -->
<g id="edge8" class="edge">
<title>GO:0040011&#45;&gt;GO:0008150</title>
<path fill="none" stroke="#000000" d="M78.9903,-333.0597C85.0465,-336.2012 91.387,-339.1923 97.5519,-341.6 149.698,-361.9658 211.3878,-376.6894 257.8939,-386.0358"/>
<polygon fill="#000000" stroke="#000000" points="257.3875,-389.5033 267.8761,-388.0065 258.7433,-382.6359 257.3875,-389.5033"/>
</g>
<!-- GO:0007186 -->
<g id="node9" class="node">
<title>GO:0007186</title>
<polygon fill="#00ffff" stroke="#000000" points="602.7956,-75.3003 484.3082,-75.3003 484.3082,.1003 602.7956,.1003 602.7956,-75.3003"/>
<text text-anchor="middle" x="543.5519" y="-58.6" font-family="Times,serif" font-size="14.00" fill="#000000">GO:0007186</text>
<text text-anchor="middle" x="543.5519" y="-41.8" font-family="Times,serif" font-size="14.00" fill="#000000">G&#45;protein coupled</text>
<text text-anchor="middle" x="543.5519" y="-25" font-family="Times,serif" font-size="14.00" fill="#000000">receptor signaling</text>
<text text-anchor="middle" x="543.5519" y="-8.2" font-family="Times,serif" font-size="14.00" fill="#000000">pathway</text>
</g>
<!-- GO:0007186&#45;&gt;GO:0007165 -->
<g id="edge9" class="edge">
<title>GO:0007186&#45;&gt;GO:0007165</title>
<path fill="none" stroke="#000000" d="M543.5519,-75.4522C543.5519,-83.9406 543.5519,-92.8492 543.5519,-101.0197"/>
<polygon fill="#000000" stroke="#000000" points="540.052,-101.2379 543.5519,-111.2379 547.052,-101.2379 540.052,-101.2379"/>
</g>
<!-- GO:0044699 -->
<g id="node10" class="node">
<title>GO:0044699</title>
<polygon fill="#00ffff" stroke="#000000" points="258.2332,-333.0019 106.8706,-333.0019 106.8706,-291.7981 258.2332,-291.7981 258.2332,-333.0019"/>
<text text-anchor="middle" x="182.5519" y="-316.6" font-family="Times,serif" font-size="14.00" fill="#000000">GO:0044699</text>
<text text-anchor="middle" x="182.5519" y="-299.8" font-family="Times,serif" font-size="14.00" fill="#000000">single&#45;organism process</text>
</g>
<!-- GO:0044699&#45;&gt;GO:0008150 -->
<g id="edge10" class="edge">
<title>GO:0044699&#45;&gt;GO:0008150</title>
<path fill="none" stroke="#000000" d="M217.8944,-333.2182C237.9799,-345.0494 263.303,-359.9657 284.6543,-372.5425"/>
<polygon fill="#000000" stroke="#000000" points="283.1421,-375.7138 293.5348,-377.7735 286.6949,-369.6824 283.1421,-375.7138"/>
</g>
<!-- GO:0009987 -->
<g id="node11" class="node">
<title>GO:0009987</title>
<polygon fill="#00ff00" stroke="#000000" points="380.5081,-333.0019 276.5957,-333.0019 276.5957,-291.7981 380.5081,-291.7981 380.5081,-333.0019"/>
<text text-anchor="middle" x="328.5519" y="-316.6" font-family="Times,serif" font-size="14.00" fill="#000000">GO:0009987</text>
<text text-anchor="middle" x="328.5519" y="-299.8" font-family="Times,serif" font-size="14.00" fill="#000000">cellular process</text>
</g>
<!-- GO:0009987&#45;&gt;GO:0008150 -->
<g id="edge11" class="edge">
<title>GO:0009987&#45;&gt;GO:0008150</title>
<path fill="none" stroke="#000000" d="M328.5519,-333.2182C328.5519,-343.5705 328.5519,-356.2848 328.5519,-367.7271"/>
<polygon fill="#000000" stroke="#000000" points="325.052,-367.7735 328.5519,-377.7735 332.052,-367.7735 325.052,-367.7735"/>
</g>
</g>
</svg>
