<?xml version="1.0" encoding="UTF-8" standalone="no"?>
<!DOCTYPE svg PUBLIC "-//W3C//DTD SVG 1.1//EN"
 "http://www.w3.org/Graphics/SVG/1.1/DTD/svg11.dtd">
<!-- Generated by graphviz version 2.40.1 (20161225.0304)
 -->
<!-- Title: G Pages: 1 -->
<svg width="404pt" height="505pt"
 viewBox="0.00 0.00 404.30 504.80" xmlns="http://www.w3.org/2000/svg" xmlns:xlink="http://www.w3.org/1999/xlink">
<g id="graph0" class="graph" transform="scale(1 1) rotate(0) translate(4 500.8)">
<title>G</title>
<polygon fill="#ffffff" stroke="transparent" points="-4,4 -4,-500.8 400.3016,-500.8 400.3016,4 -4,4"/>
<!-- GO:0038023 -->
<g id="node1" class="node">
<title>GO:0038023</title>
<polygon fill="#00ffff" stroke="#000000" points="396.1453,-247.4014 279.7713,-247.4014 279.7713,-188.5986 396.1453,-188.5986 396.1453,-247.4014"/>
<text text-anchor="middle" x="337.9583" y="-230.6" font-family="Times,serif" font-size="14.00" fill="#000000">GO:0038023</text>
<text text-anchor="middle" x="337.9583" y="-213.8" font-family="Times,serif" font-size="14.00" fill="#000000">signaling receptor</text>
<text text-anchor="middle" x="337.9583" y="-197" font-family="Times,serif" font-size="14.00" fill="#000000">activity</text>
</g>
<!-- GO:0004872 -->
<g id="node2" class="node">
<title>GO:0004872</title>
<polygon fill="#00ff00" stroke="#000000" points="250.8061,-324.6019 143.1105,-324.6019 143.1105,-283.3981 250.8061,-283.3981 250.8061,-324.6019"/>
<text text-anchor="middle" x="196.9583" y="-308.2" font-family="Times,serif" font-size="14.00" fill="#000000">GO:0004872</text>
<text text-anchor="middle" x="196.9583" y="-291.4" font-family="Times,serif" font-size="14.00" fill="#000000">receptor activity</text>
</g>
<!-- GO:0038023&#45;&gt;GO:0004872 -->
<g id="edge1" class="edge">
<title>GO:0038023&#45;&gt;GO:0004872</title>
<path fill="none" stroke="#000000" d="M289.8285,-247.3558C273.5387,-257.2914 255.4713,-268.3112 239.6349,-277.9703"/>
<polygon fill="#000000" stroke="#000000" points="237.8067,-274.9857 231.0919,-283.1809 241.4517,-280.9618 237.8067,-274.9857"/>
</g>
<!-- GO:0004871 -->
<g id="node3" class="node">
<title>GO:0004871</title>
<polygon fill="#ffffff" stroke="#000000" points="393.6992,-419.4014 282.2174,-419.4014 282.2174,-360.5986 393.6992,-360.5986 393.6992,-419.4014"/>
<text text-anchor="middle" x="337.9583" y="-402.6" font-family="Times,serif" font-size="14.00" fill="#000000">GO:0004871</text>
<text text-anchor="middle" x="337.9583" y="-385.8" font-family="Times,serif" font-size="14.00" fill="#000000">signal transducer</text>
<text text-anchor="middle" x="337.9583" y="-369" font-family="Times,serif" font-size="14.00" fill="#000000">activity</text>
</g>
<!-- GO:0038023&#45;&gt;GO:0004871 -->
<g id="edge2" class="edge">
<title>GO:0038023&#45;&gt;GO:0004871</title>
<path fill="none" stroke="#000000" d="M337.9583,-247.5679C337.9583,-275.9587 337.9583,-319.0404 337.9583,-350.3878"/>
<polygon fill="#000000" stroke="#000000" points="334.4584,-350.5306 337.9583,-360.5307 341.4584,-350.5307 334.4584,-350.5306"/>
</g>
<!-- GO:0060089 -->
<g id="node4" class="node">
<title>GO:0060089</title>
<polygon fill="#ffffff" stroke="#000000" points="263.7349,-419.4014 130.1817,-419.4014 130.1817,-360.5986 263.7349,-360.5986 263.7349,-419.4014"/>
<text text-anchor="middle" x="196.9583" y="-402.6" font-family="Times,serif" font-size="14.00" fill="#000000">GO:0060089</text>
<text text-anchor="middle" x="196.9583" y="-385.8" font-family="Times,serif" font-size="14.00" fill="#000000">molecular transducer</text>
<text text-anchor="middle" x="196.9583" y="-369" font-family="Times,serif" font-size="14.00" fill="#000000">activity</text>
</g>
<!-- GO:0004872&#45;&gt;GO:0060089 -->
<g id="edge3" class="edge">
<title>GO:0004872&#45;&gt;GO:0060089</title>
<path fill="none" stroke="#000000" d="M196.9583,-324.8182C196.9583,-332.5358 196.9583,-341.5662 196.9583,-350.4036"/>
<polygon fill="#000000" stroke="#000000" points="193.4584,-350.5991 196.9583,-360.5991 200.4584,-350.5992 193.4584,-350.5991"/>
</g>
<!-- GO:0003674 -->
<g id="node5" class="node">
<title>GO:0003674</title>
<polygon fill="#ffffff" stroke="#000000" points="259.5914,-496.6019 134.3252,-496.6019 134.3252,-455.3981 259.5914,-455.3981 259.5914,-496.6019"/>
<text text-anchor="middle" x="196.9583" y="-480.2" font-family="Times,serif" font-size="14.00" fill="#000000">GO:0003674</text>
<text text-anchor="middle" x="196.9583" y="-463.4" font-family="Times,serif" font-size="14.00" fill="#000000">molecular_function</text>
</g>
<!-- GO:0004871&#45;&gt;GO:0003674 -->
<g id="edge4" class="edge">
<title>GO:0004871&#45;&gt;GO:0003674</title>
<path fill="none" stroke="#000000" d="M289.8285,-419.3558C273.5387,-429.2914 255.4713,-440.3112 239.6349,-449.9703"/>
<polygon fill="#000000" stroke="#000000" points="237.8067,-446.9857 231.0919,-455.1809 241.4517,-452.9618 237.8067,-446.9857"/>
</g>
<!-- GO:0060089&#45;&gt;GO:0003674 -->
<g id="edge5" class="edge">
<title>GO:0060089&#45;&gt;GO:0003674</title>
<path fill="none" stroke="#000000" d="M196.9583,-419.5963C196.9583,-427.8638 196.9583,-436.8657 196.9583,-445.2008"/>
<polygon fill="#000000" stroke="#000000" points="193.4584,-445.2965 196.9583,-455.2966 200.4584,-445.2966 193.4584,-445.2965"/>
</g>
<!-- GO:0004930 -->
<g id="node6" class="node">
<title>GO:0004930</title>
<polygon fill="#00ffff" stroke="#000000" points="321.202,-58.6014 202.7146,-58.6014 202.7146,.2014 321.202,.2014 321.202,-58.6014"/>
<text text-anchor="middle" x="261.9583" y="-41.8" font-family="Times,serif" font-size="14.00" fill="#000000">GO:0004930</text>
<text text-anchor="middle" x="261.9583" y="-25" font-family="Times,serif" font-size="14.00" fill="#000000">G&#45;protein coupled</text>
<text text-anchor="middle" x="261.9583" y="-8.2" font-family="Times,serif" font-size="14.00" fill="#000000">receptor activity</text>
</g>
<!-- GO:0004888 -->
<g id="node7" class="node">
<title>GO:0004888</title>
<polygon fill="#00ffff" stroke="#000000" points="340.5854,-153.0014 183.3312,-153.0014 183.3312,-94.1986 340.5854,-94.1986 340.5854,-153.0014"/>
<text text-anchor="middle" x="261.9583" y="-136.2" font-family="Times,serif" font-size="14.00" fill="#000000">GO:0004888</text>
<text text-anchor="middle" x="261.9583" y="-119.4" font-family="Times,serif" font-size="14.00" fill="#000000">transmembrane signaling</text>
<text text-anchor="middle" x="261.9583" y="-102.6" font-family="Times,serif" font-size="14.00" fill="#000000">receptor activity</text>
</g>
<!-- GO:0004930&#45;&gt;GO:0004888 -->
<g id="edge6" class="edge">
<title>GO:0004930&#45;&gt;GO:0004888</title>
<path fill="none" stroke="#000000" d="M261.9583,-58.5513C261.9583,-66.6318 261.9583,-75.5308 261.9583,-84.0838"/>
<polygon fill="#000000" stroke="#000000" points="258.4584,-84.2668 261.9583,-94.2669 265.4584,-84.2669 258.4584,-84.2668"/>
</g>
<!-- GO:0004888&#45;&gt;GO:0038023 -->
<g id="edge7" class="edge">
<title>GO:0004888&#45;&gt;GO:0038023</title>
<path fill="none" stroke="#000000" d="M285.5886,-152.9513C292.666,-161.7422 300.5233,-171.5018 307.9534,-180.7308"/>
<polygon fill="#000000" stroke="#000000" points="305.3453,-183.0724 314.3426,-188.6669 310.7978,-178.6826 305.3453,-183.0724"/>
</g>
<!-- GO:0099600 -->
<g id="node8" class="node">
<title>GO:0099600</title>
<polygon fill="#ffffff" stroke="#000000" points="261.6103,-247.4014 110.3063,-247.4014 110.3063,-188.5986 261.6103,-188.5986 261.6103,-247.4014"/>
<text text-anchor="middle" x="185.9583" y="-230.6" font-family="Times,serif" font-size="14.00" fill="#000000">GO:0099600</text>
<text text-anchor="middle" x="185.9583" y="-213.8" font-family="Times,serif" font-size="14.00" fill="#000000">transmembrane receptor</text>
<text text-anchor="middle" x="185.9583" y="-197" font-family="Times,serif" font-size="14.00" fill="#000000">activity</text>
</g>
<!-- GO:0004888&#45;&gt;GO:0099600 -->
<g id="edge8" class="edge">
<title>GO:0004888&#45;&gt;GO:0099600</title>
<path fill="none" stroke="#000000" d="M238.328,-152.9513C231.2506,-161.7422 223.3933,-171.5018 215.9632,-180.7308"/>
<polygon fill="#000000" stroke="#000000" points="213.1188,-178.6826 209.574,-188.6669 218.5713,-183.0724 213.1188,-178.6826"/>
</g>
<!-- GO:0099600&#45;&gt;GO:0004872 -->
<g id="edge9" class="edge">
<title>GO:0099600&#45;&gt;GO:0004872</title>
<path fill="none" stroke="#000000" d="M189.7439,-247.5963C190.8013,-255.8638 191.9528,-264.8657 193.0189,-273.2008"/>
<polygon fill="#000000" stroke="#000000" points="189.5696,-273.8214 194.3102,-283.2966 196.5131,-272.9333 189.5696,-273.8214"/>
</g>
<!-- GO:0016787 -->
<g id="node9" class="node">
<title>GO:0016787</title>
<polygon fill="#00ffff" stroke="#000000" points="115.8749,-324.6019 .0417,-324.6019 .0417,-283.3981 115.8749,-283.3981 115.8749,-324.6019"/>
<text text-anchor="middle" x="57.9583" y="-308.2" font-family="Times,serif" font-size="14.00" fill="#000000">GO:0016787</text>
<text text-anchor="middle" x="57.9583" y="-291.4" font-family="Times,serif" font-size="14.00" fill="#000000">hydrolase activity</text>
</g>
<!-- GO:0003824 -->
<g id="node10" class="node">
<title>GO:0003824</title>
<polygon fill="#00ffff" stroke="#000000" points="112.3707,-410.6019 3.5459,-410.6019 3.5459,-369.3981 112.3707,-369.3981 112.3707,-410.6019"/>
<text text-anchor="middle" x="57.9583" y="-394.2" font-family="Times,serif" font-size="14.00" fill="#000000">GO:0003824</text>
<text text-anchor="middle" x="57.9583" y="-377.4" font-family="Times,serif" font-size="14.00" fill="#000000">catalytic activity</text>
</g>
<!-- GO:0016787&#45;&gt;GO:0003824 -->
<g id="edge10" class="edge">
<title>GO:0016787&#45;&gt;GO:0003824</title>
<path fill="none" stroke="#000000" d="M57.9583,-324.8182C57.9583,-335.1705 57.9583,-347.8848 57.9583,-359.3271"/>
<polygon fill="#000000" stroke="#000000" points="54.4584,-359.3735 57.9583,-369.3735 61.4584,-359.3735 54.4584,-359.3735"/>
</g>
<!-- GO:0003824&#45;&gt;GO:0003674 -->
<g id="edge11" class="edge">
<title>GO:0003824&#45;&gt;GO:0003674</title>
<path fill="none" stroke="#000000" d="M91.6063,-410.8182C110.6434,-422.5966 134.6226,-437.4326 154.8929,-449.9739"/>
<polygon fill="#000000" stroke="#000000" points="153.2747,-453.0884 163.6201,-455.3735 156.9577,-447.1356 153.2747,-453.0884"/>
</g>
</g>
</svg>
