<?xml version="1.0" encoding="UTF-8" standalone="no"?>
<!DOCTYPE svg PUBLIC "-//W3C//DTD SVG 1.1//EN"
 "http://www.w3.org/Graphics/SVG/1.1/DTD/svg11.dtd">
<!-- Generated by graphviz version 2.40.1 (20161225.0304)
 -->
<!-- Title: G Pages: 1 -->
<svg width="741pt" height="410pt"
 viewBox="0.00 0.00 741.36 410.40" xmlns="http://www.w3.org/2000/svg" xmlns:xlink="http://www.w3.org/1999/xlink">
<g id="graph0" class="graph" transform="scale(1 1) rotate(0) translate(4 406.4)">
<title>G</title>
<polygon fill="#ffffff" stroke="transparent" points="-4,4 -4,-406.4 737.357,-406.4 737.357,4 -4,4"/>
<!-- GO:0043229 -->
<g id="node1" class="node">
<title>GO:0043229</title>
<polygon fill="#00ffff" stroke="#000000" points="285.6988,-144.2019 146.262,-144.2019 146.262,-102.9981 285.6988,-102.9981 285.6988,-144.2019"/>
<text text-anchor="middle" x="215.9804" y="-127.8" font-family="Times,serif" font-size="14.00" fill="#000000">GO:0043229</text>
<text text-anchor="middle" x="215.9804" y="-111" font-family="Times,serif" font-size="14.00" fill="#000000">intracellular organelle</text>
</g>
<!-- GO:0044424 -->
<g id="node2" class="node">
<title>GO:0044424</title>
<polygon fill="#ffa500" stroke="#000000" points="411.3788,-238.6019 302.582,-238.6019 302.582,-197.3981 411.3788,-197.3981 411.3788,-238.6019"/>
<text text-anchor="middle" x="356.9804" y="-222.2" font-family="Times,serif" font-size="14.00" fill="#000000">GO:0044424</text>
<text text-anchor="middle" x="356.9804" y="-205.4" font-family="Times,serif" font-size="14.00" fill="#000000">intracellular part</text>
</g>
<!-- GO:0043229&#45;&gt;GO:0044424 -->
<g id="edge1" class="edge">
<title>GO:0043229&#45;&gt;GO:0044424</title>
<path fill="none" stroke="#000000" d="M246.9234,-144.3165C267.6775,-158.2114 295.1939,-176.6337 317.5206,-191.5815"/>
<polygon fill="#000000" stroke="#000000" points="315.8527,-194.6769 326.1095,-197.3318 319.7471,-188.8601 315.8527,-194.6769"/>
</g>
<!-- GO:0043226 -->
<g id="node3" class="node">
<title>GO:0043226</title>
<polygon fill="#ffffff" stroke="#000000" points="147.5843,-238.6019 58.3765,-238.6019 58.3765,-197.3981 147.5843,-197.3981 147.5843,-238.6019"/>
<text text-anchor="middle" x="102.9804" y="-222.2" font-family="Times,serif" font-size="14.00" fill="#000000">GO:0043226</text>
<text text-anchor="middle" x="102.9804" y="-205.4" font-family="Times,serif" font-size="14.00" fill="#000000">organelle</text>
</g>
<!-- GO:0043229&#45;&gt;GO:0043226 -->
<g id="edge2" class="edge">
<title>GO:0043229&#45;&gt;GO:0043226</title>
<path fill="none" stroke="#000000" d="M191.1821,-144.3165C174.8437,-157.9655 153.2762,-175.983 135.5581,-190.7846"/>
<polygon fill="#000000" stroke="#000000" points="133.1514,-188.2346 127.7209,-197.3318 137.6392,-193.6067 133.1514,-188.2346"/>
</g>
<!-- GO:0044464 -->
<g id="node4" class="node">
<title>GO:0044464</title>
<polygon fill="#ff0000" stroke="#000000" points="389.5843,-324.6019 300.3765,-324.6019 300.3765,-283.3981 389.5843,-283.3981 389.5843,-324.6019"/>
<text text-anchor="middle" x="344.9804" y="-308.2" font-family="Times,serif" font-size="14.00" fill="#000000">GO:0044464</text>
<text text-anchor="middle" x="344.9804" y="-291.4" font-family="Times,serif" font-size="14.00" fill="#000000">cell part</text>
</g>
<!-- GO:0044424&#45;&gt;GO:0044464 -->
<g id="edge3" class="edge">
<title>GO:0044424&#45;&gt;GO:0044464</title>
<path fill="none" stroke="#000000" d="M354.0755,-238.8182C352.631,-249.1705 350.8569,-261.8848 349.2603,-273.3271"/>
<polygon fill="#000000" stroke="#000000" points="345.7741,-272.9857 347.8585,-283.3735 352.707,-273.9532 345.7741,-272.9857"/>
</g>
<!-- GO:0005575 -->
<g id="node5" class="node">
<title>GO:0005575</title>
<polygon fill="#ffffff" stroke="#000000" points="360.6671,-402.2019 233.2937,-402.2019 233.2937,-360.9981 360.6671,-360.9981 360.6671,-402.2019"/>
<text text-anchor="middle" x="296.9804" y="-385.8" font-family="Times,serif" font-size="14.00" fill="#000000">GO:0005575</text>
<text text-anchor="middle" x="296.9804" y="-369" font-family="Times,serif" font-size="14.00" fill="#000000">cellular_component</text>
</g>
<!-- GO:0043226&#45;&gt;GO:0005575 -->
<g id="edge4" class="edge">
<title>GO:0043226&#45;&gt;GO:0005575</title>
<path fill="none" stroke="#000000" d="M113.1769,-238.9139C125.5146,-262.4074 148.2524,-300.4316 176.9804,-324.8 192.0983,-337.6237 210.6029,-348.242 228.5121,-356.6892"/>
<polygon fill="#000000" stroke="#000000" points="227.2498,-359.96 237.8021,-360.9089 230.1447,-353.5866 227.2498,-359.96"/>
</g>
<!-- GO:0044464&#45;&gt;GO:0005575 -->
<g id="edge16" class="edge">
<title>GO:0044464&#45;&gt;GO:0005575</title>
<path fill="none" stroke="#000000" d="M332.1173,-324.7954C326.9521,-333.1458 320.9026,-342.9258 315.293,-351.9947"/>
<polygon fill="#000000" stroke="#000000" points="312.163,-350.4015 309.879,-360.7472 318.1162,-354.0839 312.163,-350.4015"/>
</g>
<!-- GO:0043227 -->
<g id="node6" class="node">
<title>GO:0043227</title>
<polygon fill="#00ffff" stroke="#000000" points="127.9412,-153.0014 .0196,-153.0014 .0196,-94.1986 127.9412,-94.1986 127.9412,-153.0014"/>
<text text-anchor="middle" x="63.9804" y="-136.2" font-family="Times,serif" font-size="14.00" fill="#000000">GO:0043227</text>
<text text-anchor="middle" x="63.9804" y="-119.4" font-family="Times,serif" font-size="14.00" fill="#000000">membrane&#45;bounded</text>
<text text-anchor="middle" x="63.9804" y="-102.6" font-family="Times,serif" font-size="14.00" fill="#000000">organelle</text>
</g>
<!-- GO:0043227&#45;&gt;GO:0043226 -->
<g id="edge5" class="edge">
<title>GO:0043227&#45;&gt;GO:0043226</title>
<path fill="none" stroke="#000000" d="M76.1065,-152.9513C80.7068,-164.0864 85.9492,-176.7758 90.5749,-187.9724"/>
<polygon fill="#000000" stroke="#000000" points="87.3964,-189.4451 94.4496,-197.351 93.866,-186.7722 87.3964,-189.4451"/>
</g>
<!-- GO:0016021 -->
<g id="node7" class="node">
<title>GO:0016021</title>
<polygon fill="#ff0000" stroke="#000000" points="731.6135,-153.0014 592.3473,-153.0014 592.3473,-94.1986 731.6135,-94.1986 731.6135,-153.0014"/>
<text text-anchor="middle" x="661.9804" y="-136.2" font-family="Times,serif" font-size="14.00" fill="#000000">GO:0016021</text>
<text text-anchor="middle" x="661.9804" y="-119.4" font-family="Times,serif" font-size="14.00" fill="#000000">integral component of</text>
<text text-anchor="middle" x="661.9804" y="-102.6" font-family="Times,serif" font-size="14.00" fill="#000000">membrane</text>
</g>
<!-- GO:0031224 -->
<g id="node8" class="node">
<title>GO:0031224</title>
<polygon fill="#ffffff" stroke="#000000" points="733.2338,-247.4014 590.727,-247.4014 590.727,-188.5986 733.2338,-188.5986 733.2338,-247.4014"/>
<text text-anchor="middle" x="661.9804" y="-230.6" font-family="Times,serif" font-size="14.00" fill="#000000">GO:0031224</text>
<text text-anchor="middle" x="661.9804" y="-213.8" font-family="Times,serif" font-size="14.00" fill="#000000">intrinsic component of</text>
<text text-anchor="middle" x="661.9804" y="-197" font-family="Times,serif" font-size="14.00" fill="#000000">membrane</text>
</g>
<!-- GO:0016021&#45;&gt;GO:0031224 -->
<g id="edge6" class="edge">
<title>GO:0016021&#45;&gt;GO:0031224</title>
<path fill="none" stroke="#000000" d="M661.9804,-152.9513C661.9804,-161.0318 661.9804,-169.9308 661.9804,-178.4838"/>
<polygon fill="#000000" stroke="#000000" points="658.4805,-178.6668 661.9804,-188.6669 665.4805,-178.6669 658.4805,-178.6668"/>
</g>
<!-- GO:0044425 -->
<g id="node9" class="node">
<title>GO:0044425</title>
<polygon fill="#ffffff" stroke="#000000" points="551.3324,-324.6019 450.6284,-324.6019 450.6284,-283.3981 551.3324,-283.3981 551.3324,-324.6019"/>
<text text-anchor="middle" x="500.9804" y="-308.2" font-family="Times,serif" font-size="14.00" fill="#000000">GO:0044425</text>
<text text-anchor="middle" x="500.9804" y="-291.4" font-family="Times,serif" font-size="14.00" fill="#000000">membrane part</text>
</g>
<!-- GO:0031224&#45;&gt;GO:0044425 -->
<g id="edge7" class="edge">
<title>GO:0031224&#45;&gt;GO:0044425</title>
<path fill="none" stroke="#000000" d="M607.0236,-247.3558C588.1649,-257.4294 567.2196,-268.6176 548.9584,-278.372"/>
<polygon fill="#000000" stroke="#000000" points="547.1271,-275.3821 539.9556,-283.1809 550.4252,-281.5565 547.1271,-275.3821"/>
</g>
<!-- GO:0044425&#45;&gt;GO:0005575 -->
<g id="edge8" class="edge">
<title>GO:0044425&#45;&gt;GO:0005575</title>
<path fill="none" stroke="#000000" d="M450.5534,-323.182C423.522,-333.4646 389.9328,-346.2417 361.0668,-357.222"/>
<polygon fill="#000000" stroke="#000000" points="359.5771,-354.044 351.4748,-360.8707 362.0659,-360.5866 359.5771,-354.044"/>
</g>
<!-- GO:0016020 -->
<g id="node10" class="node">
<title>GO:0016020</title>
<polygon fill="#ff0000" stroke="#000000" points="275.5843,-324.6019 186.3765,-324.6019 186.3765,-283.3981 275.5843,-283.3981 275.5843,-324.6019"/>
<text text-anchor="middle" x="230.9804" y="-308.2" font-family="Times,serif" font-size="14.00" fill="#000000">GO:0016020</text>
<text text-anchor="middle" x="230.9804" y="-291.4" font-family="Times,serif" font-size="14.00" fill="#000000">membrane</text>
</g>
<!-- GO:0016020&#45;&gt;GO:0005575 -->
<g id="edge9" class="edge">
<title>GO:0016020&#45;&gt;GO:0005575</title>
<path fill="none" stroke="#000000" d="M248.6672,-324.7954C256.0653,-333.4937 264.7827,-343.7433 272.7615,-353.1244"/>
<polygon fill="#000000" stroke="#000000" points="270.0999,-355.3973 279.2448,-360.7472 275.4321,-350.8622 270.0999,-355.3973"/>
</g>
<!-- GO:0005887 -->
<g id="node11" class="node">
<title>GO:0005887</title>
<polygon fill="#ff0000" stroke="#000000" points="651.6135,-58.6014 512.3473,-58.6014 512.3473,.2014 651.6135,.2014 651.6135,-58.6014"/>
<text text-anchor="middle" x="581.9804" y="-41.8" font-family="Times,serif" font-size="14.00" fill="#000000">GO:0005887</text>
<text text-anchor="middle" x="581.9804" y="-25" font-family="Times,serif" font-size="14.00" fill="#000000">integral component of</text>
<text text-anchor="middle" x="581.9804" y="-8.2" font-family="Times,serif" font-size="14.00" fill="#000000">plasma membrane</text>
</g>
<!-- GO:0005887&#45;&gt;GO:0016021 -->
<g id="edge10" class="edge">
<title>GO:0005887&#45;&gt;GO:0016021</title>
<path fill="none" stroke="#000000" d="M606.8544,-58.5513C614.3795,-67.431 622.7423,-77.299 630.6332,-86.6103"/>
<polygon fill="#000000" stroke="#000000" points="627.9864,-88.9007 637.1218,-94.2669 633.3267,-84.375 627.9864,-88.9007"/>
</g>
<!-- GO:0031226 -->
<g id="node12" class="node">
<title>GO:0031226</title>
<polygon fill="#ffffff" stroke="#000000" points="574.2338,-153.0014 431.727,-153.0014 431.727,-94.1986 574.2338,-94.1986 574.2338,-153.0014"/>
<text text-anchor="middle" x="502.9804" y="-136.2" font-family="Times,serif" font-size="14.00" fill="#000000">GO:0031226</text>
<text text-anchor="middle" x="502.9804" y="-119.4" font-family="Times,serif" font-size="14.00" fill="#000000">intrinsic component of</text>
<text text-anchor="middle" x="502.9804" y="-102.6" font-family="Times,serif" font-size="14.00" fill="#000000">plasma membrane</text>
</g>
<!-- GO:0005887&#45;&gt;GO:0031226 -->
<g id="edge11" class="edge">
<title>GO:0005887&#45;&gt;GO:0031226</title>
<path fill="none" stroke="#000000" d="M557.4174,-58.5513C550.0606,-67.3422 541.8931,-77.1018 534.1697,-86.3308"/>
<polygon fill="#000000" stroke="#000000" points="531.262,-84.3517 527.5283,-94.2669 536.6302,-88.8442 531.262,-84.3517"/>
</g>
<!-- GO:0031226&#45;&gt;GO:0031224 -->
<g id="edge13" class="edge">
<title>GO:0031226&#45;&gt;GO:0031224</title>
<path fill="none" stroke="#000000" d="M552.4174,-152.9513C568.7197,-162.6301 586.9999,-173.4833 603.8876,-183.5097"/>
<polygon fill="#000000" stroke="#000000" points="602.1884,-186.5712 612.574,-188.6669 605.7621,-180.5521 602.1884,-186.5712"/>
</g>
<!-- GO:0044459 -->
<g id="node13" class="node">
<title>GO:0044459</title>
<polygon fill="#ffffff" stroke="#000000" points="572.4876,-238.6019 429.4732,-238.6019 429.4732,-197.3981 572.4876,-197.3981 572.4876,-238.6019"/>
<text text-anchor="middle" x="500.9804" y="-222.2" font-family="Times,serif" font-size="14.00" fill="#000000">GO:0044459</text>
<text text-anchor="middle" x="500.9804" y="-205.4" font-family="Times,serif" font-size="14.00" fill="#000000">plasma membrane part</text>
</g>
<!-- GO:0031226&#45;&gt;GO:0044459 -->
<g id="edge12" class="edge">
<title>GO:0031226&#45;&gt;GO:0044459</title>
<path fill="none" stroke="#000000" d="M502.3586,-152.9513C502.1274,-163.8614 501.8646,-176.2637 501.631,-187.292"/>
<polygon fill="#000000" stroke="#000000" points="498.1306,-187.2791 501.4179,-197.351 505.129,-187.4274 498.1306,-187.2791"/>
</g>
<!-- GO:0044459&#45;&gt;GO:0044464 -->
<g id="edge15" class="edge">
<title>GO:0044459&#45;&gt;GO:0044464</title>
<path fill="none" stroke="#000000" d="M463.2172,-238.8182C441.5643,-250.755 414.2148,-265.8323 391.2746,-278.4788"/>
<polygon fill="#000000" stroke="#000000" points="389.4636,-275.4806 382.3959,-283.3735 392.8431,-281.6108 389.4636,-275.4806"/>
</g>
<!-- GO:0044459&#45;&gt;GO:0044425 -->
<g id="edge14" class="edge">
<title>GO:0044459&#45;&gt;GO:0044425</title>
<path fill="none" stroke="#000000" d="M500.9804,-238.8182C500.9804,-249.1705 500.9804,-261.8848 500.9804,-273.3271"/>
<polygon fill="#000000" stroke="#000000" points="497.4805,-273.3735 500.9804,-283.3735 504.4805,-273.3735 497.4805,-273.3735"/>
</g>
<!-- GO:0005886 -->
<g id="node14" class="node">
<title>GO:0005886</title>
<polygon fill="#ffa500" stroke="#000000" points="284.2212,-238.6019 165.7396,-238.6019 165.7396,-197.3981 284.2212,-197.3981 284.2212,-238.6019"/>
<text text-anchor="middle" x="224.9804" y="-222.2" font-family="Times,serif" font-size="14.00" fill="#000000">GO:0005886</text>
<text text-anchor="middle" x="224.9804" y="-205.4" font-family="Times,serif" font-size="14.00" fill="#000000">plasma membrane</text>
</g>
<!-- GO:0005886&#45;&gt;GO:0044464 -->
<g id="edge18" class="edge">
<title>GO:0005886&#45;&gt;GO:0044464</title>
<path fill="none" stroke="#000000" d="M254.0291,-238.8182C270.2429,-250.4381 290.6092,-265.034 307.957,-277.4665"/>
<polygon fill="#000000" stroke="#000000" points="306.0322,-280.3931 316.1993,-283.3735 310.1099,-274.7034 306.0322,-280.3931"/>
</g>
<!-- GO:0005886&#45;&gt;GO:0016020 -->
<g id="edge17" class="edge">
<title>GO:0005886&#45;&gt;GO:0016020</title>
<path fill="none" stroke="#000000" d="M226.4328,-238.8182C227.1551,-249.1705 228.0421,-261.8848 228.8404,-273.3271"/>
<polygon fill="#000000" stroke="#000000" points="225.3538,-273.6414 229.5413,-283.3735 232.3368,-273.1541 225.3538,-273.6414"/>
</g>
<!-- GO:0043231 -->
<g id="node15" class="node">
<title>GO:0043231</title>
<polygon fill="#00ffff" stroke="#000000" points="215.3592,-58.6014 64.6016,-58.6014 64.6016,.2014 215.3592,.2014 215.3592,-58.6014"/>
<text text-anchor="middle" x="139.9804" y="-41.8" font-family="Times,serif" font-size="14.00" fill="#000000">GO:0043231</text>
<text text-anchor="middle" x="139.9804" y="-25" font-family="Times,serif" font-size="14.00" fill="#000000">intracellular membrane&#45;</text>
<text text-anchor="middle" x="139.9804" y="-8.2" font-family="Times,serif" font-size="14.00" fill="#000000">bounded organelle</text>
</g>
<!-- GO:0043231&#45;&gt;GO:0043229 -->
<g id="edge19" class="edge">
<title>GO:0043231&#45;&gt;GO:0043229</title>
<path fill="none" stroke="#000000" d="M163.6107,-58.5513C172.9376,-70.1363 183.619,-83.4037 192.8922,-94.922"/>
<polygon fill="#000000" stroke="#000000" points="190.3588,-97.3565 199.3562,-102.951 195.8114,-92.9667 190.3588,-97.3565"/>
</g>
<!-- GO:0043231&#45;&gt;GO:0043227 -->
<g id="edge20" class="edge">
<title>GO:0043231&#45;&gt;GO:0043227</title>
<path fill="none" stroke="#000000" d="M116.3501,-58.5513C109.2727,-67.3422 101.4154,-77.1018 93.9853,-86.3308"/>
<polygon fill="#000000" stroke="#000000" points="91.1409,-84.2826 87.5961,-94.2669 96.5934,-88.6724 91.1409,-84.2826"/>
</g>
<!-- GO:0044444 -->
<g id="node16" class="node">
<title>GO:0044444</title>
<polygon fill="#ffff00" stroke="#000000" points="412.397,-144.2019 303.5638,-144.2019 303.5638,-102.9981 412.397,-102.9981 412.397,-144.2019"/>
<text text-anchor="middle" x="357.9804" y="-127.8" font-family="Times,serif" font-size="14.00" fill="#000000">GO:0044444</text>
<text text-anchor="middle" x="357.9804" y="-111" font-family="Times,serif" font-size="14.00" fill="#000000">cytoplasmic part</text>
</g>
<!-- GO:0044444&#45;&gt;GO:0044424 -->
<g id="edge21" class="edge">
<title>GO:0044444&#45;&gt;GO:0044424</title>
<path fill="none" stroke="#000000" d="M357.7585,-144.5504C357.6264,-157.0165 357.4564,-173.0645 357.309,-186.9786"/>
<polygon fill="#000000" stroke="#000000" points="353.8079,-187.0716 357.2017,-197.1081 360.8075,-187.1458 353.8079,-187.0716"/>
</g>
</g>
</svg>
