<?xml version="1.0" encoding="UTF-8" standalone="no"?>
<!DOCTYPE svg PUBLIC "-//W3C//DTD SVG 1.1//EN"
 "http://www.w3.org/Graphics/SVG/1.1/DTD/svg11.dtd">
<!-- Generated by graphviz version 2.40.1 (20161225.0304)
 -->
<!-- Title: G Pages: 1 -->
<svg width="294pt" height="410pt"
 viewBox="0.00 0.00 294.17 410.40" xmlns="http://www.w3.org/2000/svg" xmlns:xlink="http://www.w3.org/1999/xlink">
<g id="graph0" class="graph" transform="scale(1 1) rotate(0) translate(4 406.4)">
<title>G</title>
<polygon fill="#ffffff" stroke="transparent" points="-4,4 -4,-406.4 290.1691,-406.4 290.1691,4 -4,4"/>
<!-- GO:0038023 -->
<g id="node1" class="node">
<title>GO:0038023</title>
<polygon fill="#ffff00" stroke="#000000" points="286.0128,-153.0014 169.6388,-153.0014 169.6388,-94.1986 286.0128,-94.1986 286.0128,-153.0014"/>
<text text-anchor="middle" x="227.8258" y="-136.2" font-family="Times,serif" font-size="14.00" fill="#000000">GO:0038023</text>
<text text-anchor="middle" x="227.8258" y="-119.4" font-family="Times,serif" font-size="14.00" fill="#000000">signaling receptor</text>
<text text-anchor="middle" x="227.8258" y="-102.6" font-family="Times,serif" font-size="14.00" fill="#000000">activity</text>
</g>
<!-- GO:0004872 -->
<g id="node2" class="node">
<title>GO:0004872</title>
<polygon fill="#ffa500" stroke="#000000" points="140.6736,-230.2019 32.978,-230.2019 32.978,-188.9981 140.6736,-188.9981 140.6736,-230.2019"/>
<text text-anchor="middle" x="86.8258" y="-213.8" font-family="Times,serif" font-size="14.00" fill="#000000">GO:0004872</text>
<text text-anchor="middle" x="86.8258" y="-197" font-family="Times,serif" font-size="14.00" fill="#000000">receptor activity</text>
</g>
<!-- GO:0038023&#45;&gt;GO:0004872 -->
<g id="edge1" class="edge">
<title>GO:0038023&#45;&gt;GO:0004872</title>
<path fill="none" stroke="#000000" d="M179.696,-152.9558C163.4062,-162.8914 145.3388,-173.9112 129.5024,-183.5703"/>
<polygon fill="#000000" stroke="#000000" points="127.6742,-180.5857 120.9594,-188.7809 131.3192,-186.5618 127.6742,-180.5857"/>
</g>
<!-- GO:0004871 -->
<g id="node3" class="node">
<title>GO:0004871</title>
<polygon fill="#ffffff" stroke="#000000" points="283.5667,-325.0014 172.0849,-325.0014 172.0849,-266.1986 283.5667,-266.1986 283.5667,-325.0014"/>
<text text-anchor="middle" x="227.8258" y="-308.2" font-family="Times,serif" font-size="14.00" fill="#000000">GO:0004871</text>
<text text-anchor="middle" x="227.8258" y="-291.4" font-family="Times,serif" font-size="14.00" fill="#000000">signal transducer</text>
<text text-anchor="middle" x="227.8258" y="-274.6" font-family="Times,serif" font-size="14.00" fill="#000000">activity</text>
</g>
<!-- GO:0038023&#45;&gt;GO:0004871 -->
<g id="edge2" class="edge">
<title>GO:0038023&#45;&gt;GO:0004871</title>
<path fill="none" stroke="#000000" d="M227.8258,-153.1679C227.8258,-181.5587 227.8258,-224.6404 227.8258,-255.9878"/>
<polygon fill="#000000" stroke="#000000" points="224.3259,-256.1306 227.8258,-266.1307 231.3259,-256.1307 224.3259,-256.1306"/>
</g>
<!-- GO:0060089 -->
<g id="node4" class="node">
<title>GO:0060089</title>
<polygon fill="#ffffff" stroke="#000000" points="153.6024,-325.0014 20.0492,-325.0014 20.0492,-266.1986 153.6024,-266.1986 153.6024,-325.0014"/>
<text text-anchor="middle" x="86.8258" y="-308.2" font-family="Times,serif" font-size="14.00" fill="#000000">GO:0060089</text>
<text text-anchor="middle" x="86.8258" y="-291.4" font-family="Times,serif" font-size="14.00" fill="#000000">molecular transducer</text>
<text text-anchor="middle" x="86.8258" y="-274.6" font-family="Times,serif" font-size="14.00" fill="#000000">activity</text>
</g>
<!-- GO:0004872&#45;&gt;GO:0060089 -->
<g id="edge3" class="edge">
<title>GO:0004872&#45;&gt;GO:0060089</title>
<path fill="none" stroke="#000000" d="M86.8258,-230.4182C86.8258,-238.1358 86.8258,-247.1662 86.8258,-256.0036"/>
<polygon fill="#000000" stroke="#000000" points="83.3259,-256.1991 86.8258,-266.1991 90.3259,-256.1992 83.3259,-256.1991"/>
</g>
<!-- GO:0003674 -->
<g id="node5" class="node">
<title>GO:0003674</title>
<polygon fill="#ffffff" stroke="#000000" points="219.4589,-402.2019 94.1927,-402.2019 94.1927,-360.9981 219.4589,-360.9981 219.4589,-402.2019"/>
<text text-anchor="middle" x="156.8258" y="-385.8" font-family="Times,serif" font-size="14.00" fill="#000000">GO:0003674</text>
<text text-anchor="middle" x="156.8258" y="-369" font-family="Times,serif" font-size="14.00" fill="#000000">molecular_function</text>
</g>
<!-- GO:0004871&#45;&gt;GO:0003674 -->
<g id="edge4" class="edge">
<title>GO:0004871&#45;&gt;GO:0003674</title>
<path fill="none" stroke="#000000" d="M203.3916,-325.1963C195.9595,-334.1986 187.8083,-344.0719 180.4319,-353.0067"/>
<polygon fill="#000000" stroke="#000000" points="177.5857,-350.9567 173.9182,-360.8966 182.9838,-355.4133 177.5857,-350.9567"/>
</g>
<!-- GO:0060089&#45;&gt;GO:0003674 -->
<g id="edge5" class="edge">
<title>GO:0060089&#45;&gt;GO:0003674</title>
<path fill="none" stroke="#000000" d="M110.9158,-325.1963C118.2433,-334.1986 126.2796,-344.0719 133.5522,-353.0067"/>
<polygon fill="#000000" stroke="#000000" points="130.9469,-355.3504 139.9742,-360.8966 136.3759,-350.9314 130.9469,-355.3504"/>
</g>
<!-- GO:0004888 -->
<g id="node6" class="node">
<title>GO:0004888</title>
<polygon fill="#ffff00" stroke="#000000" points="230.4529,-58.6014 73.1987,-58.6014 73.1987,.2014 230.4529,.2014 230.4529,-58.6014"/>
<text text-anchor="middle" x="151.8258" y="-41.8" font-family="Times,serif" font-size="14.00" fill="#000000">GO:0004888</text>
<text text-anchor="middle" x="151.8258" y="-25" font-family="Times,serif" font-size="14.00" fill="#000000">transmembrane signaling</text>
<text text-anchor="middle" x="151.8258" y="-8.2" font-family="Times,serif" font-size="14.00" fill="#000000">receptor activity</text>
</g>
<!-- GO:0004888&#45;&gt;GO:0038023 -->
<g id="edge6" class="edge">
<title>GO:0004888&#45;&gt;GO:0038023</title>
<path fill="none" stroke="#000000" d="M175.4561,-58.5513C182.5335,-67.3422 190.3908,-77.1018 197.8209,-86.3308"/>
<polygon fill="#000000" stroke="#000000" points="195.2128,-88.6724 204.2101,-94.2669 200.6653,-84.2826 195.2128,-88.6724"/>
</g>
<!-- GO:0099600 -->
<g id="node7" class="node">
<title>GO:0099600</title>
<polygon fill="#ffffff" stroke="#000000" points="151.4778,-153.0014 .1738,-153.0014 .1738,-94.1986 151.4778,-94.1986 151.4778,-153.0014"/>
<text text-anchor="middle" x="75.8258" y="-136.2" font-family="Times,serif" font-size="14.00" fill="#000000">GO:0099600</text>
<text text-anchor="middle" x="75.8258" y="-119.4" font-family="Times,serif" font-size="14.00" fill="#000000">transmembrane receptor</text>
<text text-anchor="middle" x="75.8258" y="-102.6" font-family="Times,serif" font-size="14.00" fill="#000000">activity</text>
</g>
<!-- GO:0004888&#45;&gt;GO:0099600 -->
<g id="edge7" class="edge">
<title>GO:0004888&#45;&gt;GO:0099600</title>
<path fill="none" stroke="#000000" d="M128.1955,-58.5513C121.1181,-67.3422 113.2608,-77.1018 105.8307,-86.3308"/>
<polygon fill="#000000" stroke="#000000" points="102.9863,-84.2826 99.4415,-94.2669 108.4388,-88.6724 102.9863,-84.2826"/>
</g>
<!-- GO:0099600&#45;&gt;GO:0004872 -->
<g id="edge8" class="edge">
<title>GO:0099600&#45;&gt;GO:0004872</title>
<path fill="none" stroke="#000000" d="M79.6114,-153.1963C80.6688,-161.4638 81.8203,-170.4657 82.8864,-178.8008"/>
<polygon fill="#000000" stroke="#000000" points="79.4371,-179.4214 84.1777,-188.8966 86.3806,-178.5333 79.4371,-179.4214"/>
</g>
</g>
</svg>
