<?xml version="1.0" encoding="UTF-8" standalone="no"?>
<!DOCTYPE svg PUBLIC "-//W3C//DTD SVG 1.1//EN"
 "http://www.w3.org/Graphics/SVG/1.1/DTD/svg11.dtd">
<!-- Generated by graphviz version 2.40.1 (20161225.0304)
 -->
<!-- Title: G Pages: 1 -->
<svg width="565pt" height="410pt"
 viewBox="0.00 0.00 565.44 410.40" xmlns="http://www.w3.org/2000/svg" xmlns:xlink="http://www.w3.org/1999/xlink">
<g id="graph0" class="graph" transform="scale(1 1) rotate(0) translate(4 406.4)">
<title>G</title>
<polygon fill="#ffffff" stroke="transparent" points="-4,4 -4,-406.4 561.4387,-406.4 561.4387,4 -4,4"/>
<!-- GO:0043229 -->
<g id="node1" class="node">
<title>GO:0043229</title>
<polygon fill="#00ffff" stroke="#000000" points="411.1767,-144.2019 271.7399,-144.2019 271.7399,-102.9981 411.1767,-102.9981 411.1767,-144.2019"/>
<text text-anchor="middle" x="341.4583" y="-127.8" font-family="Times,serif" font-size="14.00" fill="#000000">GO:0043229</text>
<text text-anchor="middle" x="341.4583" y="-111" font-family="Times,serif" font-size="14.00" fill="#000000">intracellular organelle</text>
</g>
<!-- GO:0044424 -->
<g id="node2" class="node">
<title>GO:0044424</title>
<polygon fill="#ffa500" stroke="#000000" points="108.8567,-238.6019 .0599,-238.6019 .0599,-197.3981 108.8567,-197.3981 108.8567,-238.6019"/>
<text text-anchor="middle" x="54.4583" y="-222.2" font-family="Times,serif" font-size="14.00" fill="#000000">GO:0044424</text>
<text text-anchor="middle" x="54.4583" y="-205.4" font-family="Times,serif" font-size="14.00" fill="#000000">intracellular part</text>
</g>
<!-- GO:0043229&#45;&gt;GO:0044424 -->
<g id="edge1" class="edge">
<title>GO:0043229&#45;&gt;GO:0044424</title>
<path fill="none" stroke="#000000" d="M271.7033,-140.9966C227.0498,-152.8427 168.1842,-169.7858 117.4583,-188.8 113.7543,-190.1884 109.9649,-191.7006 106.1727,-193.282"/>
<polygon fill="#000000" stroke="#000000" points="104.5874,-190.154 96.7879,-197.3247 107.3567,-196.5829 104.5874,-190.154"/>
</g>
<!-- GO:0043226 -->
<g id="node3" class="node">
<title>GO:0043226</title>
<polygon fill="#ffffff" stroke="#000000" points="538.0622,-238.6019 448.8544,-238.6019 448.8544,-197.3981 538.0622,-197.3981 538.0622,-238.6019"/>
<text text-anchor="middle" x="493.4583" y="-222.2" font-family="Times,serif" font-size="14.00" fill="#000000">GO:0043226</text>
<text text-anchor="middle" x="493.4583" y="-205.4" font-family="Times,serif" font-size="14.00" fill="#000000">organelle</text>
</g>
<!-- GO:0043229&#45;&gt;GO:0043226 -->
<g id="edge2" class="edge">
<title>GO:0043229&#45;&gt;GO:0043226</title>
<path fill="none" stroke="#000000" d="M374.8153,-144.3165C397.3866,-158.3344 427.3771,-176.9601 451.5578,-191.9776"/>
<polygon fill="#000000" stroke="#000000" points="449.8375,-195.0292 460.1791,-197.3318 453.5306,-189.0827 449.8375,-195.0292"/>
</g>
<!-- GO:0044464 -->
<g id="node4" class="node">
<title>GO:0044464</title>
<polygon fill="#ff0000" stroke="#000000" points="243.0622,-324.6019 153.8544,-324.6019 153.8544,-283.3981 243.0622,-283.3981 243.0622,-324.6019"/>
<text text-anchor="middle" x="198.4583" y="-308.2" font-family="Times,serif" font-size="14.00" fill="#000000">GO:0044464</text>
<text text-anchor="middle" x="198.4583" y="-291.4" font-family="Times,serif" font-size="14.00" fill="#000000">cell part</text>
</g>
<!-- GO:0044424&#45;&gt;GO:0044464 -->
<g id="edge3" class="edge">
<title>GO:0044424&#45;&gt;GO:0044464</title>
<path fill="none" stroke="#000000" d="M89.3167,-238.8182C109.127,-250.6494 134.1032,-265.5657 155.162,-278.1425"/>
<polygon fill="#000000" stroke="#000000" points="153.5409,-281.251 163.9209,-283.3735 157.1301,-275.2411 153.5409,-281.251"/>
</g>
<!-- GO:0005575 -->
<g id="node5" class="node">
<title>GO:0005575</title>
<polygon fill="#ffffff" stroke="#000000" points="438.145,-402.2019 310.7716,-402.2019 310.7716,-360.9981 438.145,-360.9981 438.145,-402.2019"/>
<text text-anchor="middle" x="374.4583" y="-385.8" font-family="Times,serif" font-size="14.00" fill="#000000">GO:0005575</text>
<text text-anchor="middle" x="374.4583" y="-369" font-family="Times,serif" font-size="14.00" fill="#000000">cellular_component</text>
</g>
<!-- GO:0043226&#45;&gt;GO:0005575 -->
<g id="edge4" class="edge">
<title>GO:0043226&#45;&gt;GO:0005575</title>
<path fill="none" stroke="#000000" d="M471.8735,-238.6851C459.5952,-251.0134 444.3452,-267.3134 432.4583,-283.2 416.1514,-304.9938 400.6571,-331.7056 389.7919,-351.7962"/>
<polygon fill="#000000" stroke="#000000" points="386.6092,-350.3265 384.9933,-360.7974 392.7862,-353.6196 386.6092,-350.3265"/>
</g>
<!-- GO:0044464&#45;&gt;GO:0005575 -->
<g id="edge10" class="edge">
<title>GO:0044464&#45;&gt;GO:0005575</title>
<path fill="none" stroke="#000000" d="M243.3259,-323.7825C266.0731,-333.812 293.9285,-346.0937 318.1067,-356.7541"/>
<polygon fill="#000000" stroke="#000000" points="316.9581,-360.0727 327.5202,-360.9046 319.7822,-353.6676 316.9581,-360.0727"/>
</g>
<!-- GO:0031224 -->
<g id="node6" class="node">
<title>GO:0031224</title>
<polygon fill="#00ff00" stroke="#000000" points="430.7117,-247.4014 288.2049,-247.4014 288.2049,-188.5986 430.7117,-188.5986 430.7117,-247.4014"/>
<text text-anchor="middle" x="359.4583" y="-230.6" font-family="Times,serif" font-size="14.00" fill="#000000">GO:0031224</text>
<text text-anchor="middle" x="359.4583" y="-213.8" font-family="Times,serif" font-size="14.00" fill="#000000">intrinsic component of</text>
<text text-anchor="middle" x="359.4583" y="-197" font-family="Times,serif" font-size="14.00" fill="#000000">membrane</text>
</g>
<!-- GO:0044425 -->
<g id="node7" class="node">
<title>GO:0044425</title>
<polygon fill="#ffa500" stroke="#000000" points="385.8103,-324.6019 285.1063,-324.6019 285.1063,-283.3981 385.8103,-283.3981 385.8103,-324.6019"/>
<text text-anchor="middle" x="335.4583" y="-308.2" font-family="Times,serif" font-size="14.00" fill="#000000">GO:0044425</text>
<text text-anchor="middle" x="335.4583" y="-291.4" font-family="Times,serif" font-size="14.00" fill="#000000">membrane part</text>
</g>
<!-- GO:0031224&#45;&gt;GO:0044425 -->
<g id="edge5" class="edge">
<title>GO:0031224&#45;&gt;GO:0044425</title>
<path fill="none" stroke="#000000" d="M351.1989,-247.5963C348.866,-255.9556 346.3236,-265.0658 343.976,-273.4784"/>
<polygon fill="#000000" stroke="#000000" points="340.5529,-272.7238 341.236,-283.2966 347.2953,-274.6054 340.5529,-272.7238"/>
</g>
<!-- GO:0044425&#45;&gt;GO:0005575 -->
<g id="edge6" class="edge">
<title>GO:0044425&#45;&gt;GO:0005575</title>
<path fill="none" stroke="#000000" d="M345.9096,-324.7954C350.0626,-333.0588 354.9192,-342.7222 359.4368,-351.711"/>
<polygon fill="#000000" stroke="#000000" points="356.3603,-353.3839 363.9782,-360.7472 362.6148,-350.2405 356.3603,-353.3839"/>
</g>
<!-- GO:0016020 -->
<g id="node8" class="node">
<title>GO:0016020</title>
<polygon fill="#00ffff" stroke="#000000" points="531.0622,-324.6019 441.8544,-324.6019 441.8544,-283.3981 531.0622,-283.3981 531.0622,-324.6019"/>
<text text-anchor="middle" x="486.4583" y="-308.2" font-family="Times,serif" font-size="14.00" fill="#000000">GO:0016020</text>
<text text-anchor="middle" x="486.4583" y="-291.4" font-family="Times,serif" font-size="14.00" fill="#000000">membrane</text>
</g>
<!-- GO:0016020&#45;&gt;GO:0005575 -->
<g id="edge7" class="edge">
<title>GO:0016020&#45;&gt;GO:0005575</title>
<path fill="none" stroke="#000000" d="M456.4444,-324.7954C443.1368,-334.0156 427.3136,-344.9788 413.1342,-354.8031"/>
<polygon fill="#000000" stroke="#000000" points="410.7816,-352.1751 404.5551,-360.7472 414.7682,-357.929 410.7816,-352.1751"/>
</g>
<!-- GO:0044459 -->
<g id="node9" class="node">
<title>GO:0044459</title>
<polygon fill="#00ffff" stroke="#000000" points="269.9655,-238.6019 126.9511,-238.6019 126.9511,-197.3981 269.9655,-197.3981 269.9655,-238.6019"/>
<text text-anchor="middle" x="198.4583" y="-222.2" font-family="Times,serif" font-size="14.00" fill="#000000">GO:0044459</text>
<text text-anchor="middle" x="198.4583" y="-205.4" font-family="Times,serif" font-size="14.00" fill="#000000">plasma membrane part</text>
</g>
<!-- GO:0044459&#45;&gt;GO:0044464 -->
<g id="edge9" class="edge">
<title>GO:0044459&#45;&gt;GO:0044464</title>
<path fill="none" stroke="#000000" d="M198.4583,-238.8182C198.4583,-249.1705 198.4583,-261.8848 198.4583,-273.3271"/>
<polygon fill="#000000" stroke="#000000" points="194.9584,-273.3735 198.4583,-283.3735 201.9584,-273.3735 194.9584,-273.3735"/>
</g>
<!-- GO:0044459&#45;&gt;GO:0044425 -->
<g id="edge8" class="edge">
<title>GO:0044459&#45;&gt;GO:0044425</title>
<path fill="none" stroke="#000000" d="M231.6222,-238.8182C250.3854,-250.5966 274.0195,-265.4326 293.9982,-277.9739"/>
<polygon fill="#000000" stroke="#000000" points="292.2694,-281.0212 302.5998,-283.3735 295.9911,-275.0925 292.2694,-281.0212"/>
</g>
<!-- GO:0043231 -->
<g id="node10" class="node">
<title>GO:0043231</title>
<polygon fill="#00ffff" stroke="#000000" points="492.8371,-58.6014 342.0795,-58.6014 342.0795,.2014 492.8371,.2014 492.8371,-58.6014"/>
<text text-anchor="middle" x="417.4583" y="-41.8" font-family="Times,serif" font-size="14.00" fill="#000000">GO:0043231</text>
<text text-anchor="middle" x="417.4583" y="-25" font-family="Times,serif" font-size="14.00" fill="#000000">intracellular membrane&#45;</text>
<text text-anchor="middle" x="417.4583" y="-8.2" font-family="Times,serif" font-size="14.00" fill="#000000">bounded organelle</text>
</g>
<!-- GO:0043231&#45;&gt;GO:0043229 -->
<g id="edge11" class="edge">
<title>GO:0043231&#45;&gt;GO:0043229</title>
<path fill="none" stroke="#000000" d="M393.828,-58.5513C384.5011,-70.1363 373.8197,-83.4037 364.5465,-94.922"/>
<polygon fill="#000000" stroke="#000000" points="361.6273,-92.9667 358.0825,-102.951 367.0799,-97.3565 361.6273,-92.9667"/>
</g>
<!-- GO:0043227 -->
<g id="node11" class="node">
<title>GO:0043227</title>
<polygon fill="#ffffff" stroke="#000000" points="557.4191,-153.0014 429.4975,-153.0014 429.4975,-94.1986 557.4191,-94.1986 557.4191,-153.0014"/>
<text text-anchor="middle" x="493.4583" y="-136.2" font-family="Times,serif" font-size="14.00" fill="#000000">GO:0043227</text>
<text text-anchor="middle" x="493.4583" y="-119.4" font-family="Times,serif" font-size="14.00" fill="#000000">membrane&#45;bounded</text>
<text text-anchor="middle" x="493.4583" y="-102.6" font-family="Times,serif" font-size="14.00" fill="#000000">organelle</text>
</g>
<!-- GO:0043231&#45;&gt;GO:0043227 -->
<g id="edge12" class="edge">
<title>GO:0043231&#45;&gt;GO:0043227</title>
<path fill="none" stroke="#000000" d="M441.0886,-58.5513C448.166,-67.3422 456.0233,-77.1018 463.4534,-86.3308"/>
<polygon fill="#000000" stroke="#000000" points="460.8453,-88.6724 469.8426,-94.2669 466.2978,-84.2826 460.8453,-88.6724"/>
</g>
<!-- GO:0043227&#45;&gt;GO:0043226 -->
<g id="edge13" class="edge">
<title>GO:0043227&#45;&gt;GO:0043226</title>
<path fill="none" stroke="#000000" d="M493.4583,-152.9513C493.4583,-163.8614 493.4583,-176.2637 493.4583,-187.292"/>
<polygon fill="#000000" stroke="#000000" points="489.9584,-187.3509 493.4583,-197.351 496.9584,-187.351 489.9584,-187.3509"/>
</g>
<!-- GO:0044444 -->
<g id="node12" class="node">
<title>GO:0044444</title>
<polygon fill="#00ff00" stroke="#000000" points="108.8749,-144.2019 .0417,-144.2019 .0417,-102.9981 108.8749,-102.9981 108.8749,-144.2019"/>
<text text-anchor="middle" x="54.4583" y="-127.8" font-family="Times,serif" font-size="14.00" fill="#000000">GO:0044444</text>
<text text-anchor="middle" x="54.4583" y="-111" font-family="Times,serif" font-size="14.00" fill="#000000">cytoplasmic part</text>
</g>
<!-- GO:0044444&#45;&gt;GO:0044424 -->
<g id="edge14" class="edge">
<title>GO:0044444&#45;&gt;GO:0044424</title>
<path fill="none" stroke="#000000" d="M54.4583,-144.5504C54.4583,-157.0165 54.4583,-173.0645 54.4583,-186.9786"/>
<polygon fill="#000000" stroke="#000000" points="50.9584,-187.1081 54.4583,-197.1081 57.9584,-187.1082 50.9584,-187.1081"/>
</g>
</g>
</svg>
