<?xml version="1.0" encoding="UTF-8" standalone="no"?>
<!DOCTYPE svg PUBLIC "-//W3C//DTD SVG 1.1//EN"
 "http://www.w3.org/Graphics/SVG/1.1/DTD/svg11.dtd">
<!-- Generated by graphviz version 2.40.1 (20161225.0304)
 -->
<!-- Title: G Pages: 1 -->
<svg width="795pt" height="377pt"
 viewBox="0.00 0.00 795.12 376.80" xmlns="http://www.w3.org/2000/svg" xmlns:xlink="http://www.w3.org/1999/xlink">
<g id="graph0" class="graph" transform="scale(1 1) rotate(0) translate(4 372.8)">
<title>G</title>
<polygon fill="#ffffff" stroke="transparent" points="-4,4 -4,-372.8 791.12,-372.8 791.12,4 -4,4"/>
<!-- GO:0022892 -->
<g id="node1" class="node">
<title>GO:0022892</title>
<polygon fill="#ffffff" stroke="#000000" points="122.1927,-213.8014 -.0643,-213.8014 -.0643,-154.9986 122.1927,-154.9986 122.1927,-213.8014"/>
<text text-anchor="middle" x="61.0642" y="-197" font-family="Times,serif" font-size="14.00" fill="#000000">GO:0022892</text>
<text text-anchor="middle" x="61.0642" y="-180.2" font-family="Times,serif" font-size="14.00" fill="#000000">substrate&#45;specific</text>
<text text-anchor="middle" x="61.0642" y="-163.4" font-family="Times,serif" font-size="14.00" fill="#000000">transporter activity</text>
</g>
<!-- GO:0005215 -->
<g id="node2" class="node">
<title>GO:0005215</title>
<polygon fill="#ffffff" stroke="#000000" points="284.1927,-291.0019 161.9357,-291.0019 161.9357,-249.7981 284.1927,-249.7981 284.1927,-291.0019"/>
<text text-anchor="middle" x="223.0642" y="-274.6" font-family="Times,serif" font-size="14.00" fill="#000000">GO:0005215</text>
<text text-anchor="middle" x="223.0642" y="-257.8" font-family="Times,serif" font-size="14.00" fill="#000000">transporter activity</text>
</g>
<!-- GO:0022892&#45;&gt;GO:0005215 -->
<g id="edge1" class="edge">
<title>GO:0022892&#45;&gt;GO:0005215</title>
<path fill="none" stroke="#000000" d="M116.3623,-213.7558C135.4166,-223.871 156.5878,-235.11 175.0158,-244.8928"/>
<polygon fill="#000000" stroke="#000000" points="173.624,-248.1165 184.0977,-249.7141 176.9063,-241.9337 173.624,-248.1165"/>
</g>
<!-- GO:0003674 -->
<g id="node3" class="node">
<title>GO:0003674</title>
<polygon fill="#ffffff" stroke="#000000" points="516.6973,-368.6019 391.4311,-368.6019 391.4311,-327.3981 516.6973,-327.3981 516.6973,-368.6019"/>
<text text-anchor="middle" x="454.0642" y="-352.2" font-family="Times,serif" font-size="14.00" fill="#000000">GO:0003674</text>
<text text-anchor="middle" x="454.0642" y="-335.4" font-family="Times,serif" font-size="14.00" fill="#000000">molecular_function</text>
</g>
<!-- GO:0005215&#45;&gt;GO:0003674 -->
<g id="edge2" class="edge">
<title>GO:0005215&#45;&gt;GO:0003674</title>
<path fill="none" stroke="#000000" d="M284.3615,-290.9916C314.6443,-301.1646 351.3561,-313.4972 382.8775,-324.0862"/>
<polygon fill="#000000" stroke="#000000" points="381.8865,-327.4454 392.4805,-327.3121 384.1156,-320.8098 381.8865,-327.4454"/>
</g>
<!-- GO:0097159 -->
<g id="node4" class="node">
<title>GO:0097159</title>
<polygon fill="#ffffff" stroke="#000000" points="481.5756,-213.8014 324.5528,-213.8014 324.5528,-154.9986 481.5756,-154.9986 481.5756,-213.8014"/>
<text text-anchor="middle" x="403.0642" y="-197" font-family="Times,serif" font-size="14.00" fill="#000000">GO:0097159</text>
<text text-anchor="middle" x="403.0642" y="-180.2" font-family="Times,serif" font-size="14.00" fill="#000000">organic cyclic compound</text>
<text text-anchor="middle" x="403.0642" y="-163.4" font-family="Times,serif" font-size="14.00" fill="#000000">binding</text>
</g>
<!-- GO:0005488 -->
<g id="node5" class="node">
<title>GO:0005488</title>
<polygon fill="#ffffff" stroke="#000000" points="498.6681,-291.0019 409.4603,-291.0019 409.4603,-249.7981 498.6681,-249.7981 498.6681,-291.0019"/>
<text text-anchor="middle" x="454.0642" y="-274.6" font-family="Times,serif" font-size="14.00" fill="#000000">GO:0005488</text>
<text text-anchor="middle" x="454.0642" y="-257.8" font-family="Times,serif" font-size="14.00" fill="#000000">binding</text>
</g>
<!-- GO:0097159&#45;&gt;GO:0005488 -->
<g id="edge3" class="edge">
<title>GO:0097159&#45;&gt;GO:0005488</title>
<path fill="none" stroke="#000000" d="M420.6155,-213.9963C425.7907,-222.7231 431.4512,-232.2682 436.6196,-240.9836"/>
<polygon fill="#000000" stroke="#000000" points="433.6753,-242.8805 441.7866,-249.6966 439.6962,-239.31 433.6753,-242.8805"/>
</g>
<!-- GO:0005488&#45;&gt;GO:0003674 -->
<g id="edge4" class="edge">
<title>GO:0005488&#45;&gt;GO:0003674</title>
<path fill="none" stroke="#000000" d="M454.0642,-291.1954C454.0642,-299.1109 454.0642,-308.3109 454.0642,-316.9722"/>
<polygon fill="#000000" stroke="#000000" points="450.5643,-317.1472 454.0642,-327.1472 457.5643,-317.1473 450.5643,-317.1472"/>
</g>
<!-- GO:0016740 -->
<g id="node6" class="node">
<title>GO:0016740</title>
<polygon fill="#ffffff" stroke="#000000" points="787.1759,-205.0019 664.9525,-205.0019 664.9525,-163.7981 787.1759,-163.7981 787.1759,-205.0019"/>
<text text-anchor="middle" x="726.0642" y="-188.6" font-family="Times,serif" font-size="14.00" fill="#000000">GO:0016740</text>
<text text-anchor="middle" x="726.0642" y="-171.8" font-family="Times,serif" font-size="14.00" fill="#000000">transferase activity</text>
</g>
<!-- GO:0003824 -->
<g id="node7" class="node">
<title>GO:0003824</title>
<polygon fill="#ffffff" stroke="#000000" points="728.4766,-291.0019 619.6518,-291.0019 619.6518,-249.7981 728.4766,-249.7981 728.4766,-291.0019"/>
<text text-anchor="middle" x="674.0642" y="-274.6" font-family="Times,serif" font-size="14.00" fill="#000000">GO:0003824</text>
<text text-anchor="middle" x="674.0642" y="-257.8" font-family="Times,serif" font-size="14.00" fill="#000000">catalytic activity</text>
</g>
<!-- GO:0016740&#45;&gt;GO:0003824 -->
<g id="edge5" class="edge">
<title>GO:0016740&#45;&gt;GO:0003824</title>
<path fill="none" stroke="#000000" d="M713.4765,-205.2182C706.9614,-215.993 698.8992,-229.3267 691.7674,-241.1216"/>
<polygon fill="#000000" stroke="#000000" points="688.7152,-239.4052 686.536,-249.7735 694.7053,-243.0272 688.7152,-239.4052"/>
</g>
<!-- GO:0003824&#45;&gt;GO:0003674 -->
<g id="edge6" class="edge">
<title>GO:0003824&#45;&gt;GO:0003674</title>
<path fill="none" stroke="#000000" d="M619.3995,-289.6817C589.9911,-300.0549 553.4476,-312.9448 522.2011,-323.9663"/>
<polygon fill="#000000" stroke="#000000" points="520.954,-320.6947 512.6877,-327.3219 523.2825,-327.2961 520.954,-320.6947"/>
</g>
<!-- GO:0022857 -->
<g id="node8" class="node">
<title>GO:0022857</title>
<polygon fill="#ffffff" stroke="#000000" points="306.4976,-213.8014 139.6308,-213.8014 139.6308,-154.9986 306.4976,-154.9986 306.4976,-213.8014"/>
<text text-anchor="middle" x="223.0642" y="-197" font-family="Times,serif" font-size="14.00" fill="#000000">GO:0022857</text>
<text text-anchor="middle" x="223.0642" y="-180.2" font-family="Times,serif" font-size="14.00" fill="#000000">transmembrane transporter</text>
<text text-anchor="middle" x="223.0642" y="-163.4" font-family="Times,serif" font-size="14.00" fill="#000000">activity</text>
</g>
<!-- GO:0022857&#45;&gt;GO:0005215 -->
<g id="edge7" class="edge">
<title>GO:0022857&#45;&gt;GO:0005215</title>
<path fill="none" stroke="#000000" d="M223.0642,-213.9963C223.0642,-222.2638 223.0642,-231.2657 223.0642,-239.6008"/>
<polygon fill="#000000" stroke="#000000" points="219.5643,-239.6965 223.0642,-249.6966 226.5643,-239.6966 219.5643,-239.6965"/>
</g>
<!-- GO:0003676 -->
<g id="node9" class="node">
<title>GO:0003676</title>
<polygon fill="#ffffff" stroke="#000000" points="552.5911,-119.0019 423.5373,-119.0019 423.5373,-77.7981 552.5911,-77.7981 552.5911,-119.0019"/>
<text text-anchor="middle" x="488.0642" y="-102.6" font-family="Times,serif" font-size="14.00" fill="#000000">GO:0003676</text>
<text text-anchor="middle" x="488.0642" y="-85.8" font-family="Times,serif" font-size="14.00" fill="#000000">nucleic acid binding</text>
</g>
<!-- GO:0003676&#45;&gt;GO:0097159 -->
<g id="edge8" class="edge">
<title>GO:0003676&#45;&gt;GO:0097159</title>
<path fill="none" stroke="#000000" d="M467.4881,-119.2182C459.0311,-127.7747 448.9792,-137.9448 439.3606,-147.6766"/>
<polygon fill="#000000" stroke="#000000" points="436.6635,-145.4264 432.1232,-154.9991 441.6421,-150.3472 436.6635,-145.4264"/>
</g>
<!-- GO:1901363 -->
<g id="node10" class="node">
<title>GO:1901363</title>
<polygon fill="#ffffff" stroke="#000000" points="646.5748,-213.8014 499.5536,-213.8014 499.5536,-154.9986 646.5748,-154.9986 646.5748,-213.8014"/>
<text text-anchor="middle" x="573.0642" y="-197" font-family="Times,serif" font-size="14.00" fill="#000000">GO:1901363</text>
<text text-anchor="middle" x="573.0642" y="-180.2" font-family="Times,serif" font-size="14.00" fill="#000000">heterocyclic compound</text>
<text text-anchor="middle" x="573.0642" y="-163.4" font-family="Times,serif" font-size="14.00" fill="#000000">binding</text>
</g>
<!-- GO:0003676&#45;&gt;GO:1901363 -->
<g id="edge9" class="edge">
<title>GO:0003676&#45;&gt;GO:1901363</title>
<path fill="none" stroke="#000000" d="M508.6403,-119.2182C517.0973,-127.7747 527.1492,-137.9448 536.7678,-147.6766"/>
<polygon fill="#000000" stroke="#000000" points="534.4863,-150.3472 544.0052,-154.9991 539.4649,-145.4264 534.4863,-150.3472"/>
</g>
<!-- GO:1901363&#45;&gt;GO:0005488 -->
<g id="edge10" class="edge">
<title>GO:1901363&#45;&gt;GO:0005488</title>
<path fill="none" stroke="#000000" d="M532.444,-213.7558C519.0778,-223.4154 504.2935,-234.0999 491.2001,-243.5623"/>
<polygon fill="#000000" stroke="#000000" points="488.9269,-240.8868 482.872,-249.5809 493.0271,-246.5603 488.9269,-240.8868"/>
</g>
<!-- GO:0003677 -->
<g id="node11" class="node">
<title>GO:0003677</title>
<polygon fill="#ffffff" stroke="#000000" points="534.1661,-41.4019 441.9623,-41.4019 441.9623,-.1981 534.1661,-.1981 534.1661,-41.4019"/>
<text text-anchor="middle" x="488.0642" y="-25" font-family="Times,serif" font-size="14.00" fill="#000000">GO:0003677</text>
<text text-anchor="middle" x="488.0642" y="-8.2" font-family="Times,serif" font-size="14.00" fill="#000000">DNA binding</text>
</g>
<!-- GO:0003677&#45;&gt;GO:0003676 -->
<g id="edge11" class="edge">
<title>GO:0003677&#45;&gt;GO:0003676</title>
<path fill="none" stroke="#000000" d="M488.0642,-41.5954C488.0642,-49.5109 488.0642,-58.7109 488.0642,-67.3722"/>
<polygon fill="#000000" stroke="#000000" points="484.5643,-67.5472 488.0642,-77.5472 491.5643,-67.5473 484.5643,-67.5472"/>
</g>
</g>
</svg>
