<?xml version="1.0" encoding="UTF-8" standalone="no"?>
<!DOCTYPE svg PUBLIC "-//W3C//DTD SVG 1.1//EN"
 "http://www.w3.org/Graphics/SVG/1.1/DTD/svg11.dtd">
<!-- Generated by graphviz version 2.40.1 (20161225.0304)
 -->
<!-- Title: G Pages: 1 -->
<svg width="129pt" height="127pt"
 viewBox="0.00 0.00 128.97 127.20" xmlns="http://www.w3.org/2000/svg" xmlns:xlink="http://www.w3.org/1999/xlink">
<g id="graph0" class="graph" transform="scale(1 1) rotate(0) translate(4 123.2)">
<title>G</title>
<polygon fill="#ffffff" stroke="transparent" points="-4,4 -4,-123.2 124.9706,-123.2 124.9706,4 -4,4"/>
<!-- GO:0009987 -->
<g id="node1" class="node">
<title>GO:0009987</title>
<polygon fill="#00ffff" stroke="#000000" points="112.4415,-41.4019 8.5291,-41.4019 8.5291,-.1981 112.4415,-.1981 112.4415,-41.4019"/>
<text text-anchor="middle" x="60.4853" y="-25" font-family="Times,serif" font-size="14.00" fill="#000000">GO:0009987</text>
<text text-anchor="middle" x="60.4853" y="-8.2" font-family="Times,serif" font-size="14.00" fill="#000000">cellular process</text>
</g>
<!-- GO:0008150 -->
<g id="node2" class="node">
<title>GO:0008150</title>
<polygon fill="#ffffff" stroke="#000000" points="120.9559,-119.0019 .0147,-119.0019 .0147,-77.7981 120.9559,-77.7981 120.9559,-119.0019"/>
<text text-anchor="middle" x="60.4853" y="-102.6" font-family="Times,serif" font-size="14.00" fill="#000000">GO:0008150</text>
<text text-anchor="middle" x="60.4853" y="-85.8" font-family="Times,serif" font-size="14.00" fill="#000000">biological_process</text>
</g>
<!-- GO:0009987&#45;&gt;GO:0008150 -->
<g id="edge1" class="edge">
<title>GO:0009987&#45;&gt;GO:0008150</title>
<path fill="none" stroke="#000000" d="M60.4853,-41.5954C60.4853,-49.5109 60.4853,-58.7109 60.4853,-67.3722"/>
<polygon fill="#000000" stroke="#000000" points="56.9854,-67.5472 60.4853,-77.5472 63.9854,-67.5473 56.9854,-67.5472"/>
</g>
</g>
</svg>
