<?xml version="1.0" encoding="UTF-8" standalone="no"?>
<!DOCTYPE svg PUBLIC "-//W3C//DTD SVG 1.1//EN"
 "http://www.w3.org/Graphics/SVG/1.1/DTD/svg11.dtd">
<!-- Generated by graphviz version 2.40.1 (20161225.0304)
 -->
<!-- Title: G Pages: 1 -->
<svg width="732pt" height="316pt"
 viewBox="0.00 0.00 731.85 316.00" xmlns="http://www.w3.org/2000/svg" xmlns:xlink="http://www.w3.org/1999/xlink">
<g id="graph0" class="graph" transform="scale(1 1) rotate(0) translate(4 312)">
<title>G</title>
<polygon fill="#ffffff" stroke="transparent" points="-4,4 -4,-312 727.8542,-312 727.8542,4 -4,4"/>
<!-- GO:0007165 -->
<g id="node1" class="node">
<title>GO:0007165</title>
<polygon fill="#00ffff" stroke="#000000" points="206.2733,-41.4019 83.9799,-41.4019 83.9799,-.1981 206.2733,-.1981 206.2733,-41.4019"/>
<text text-anchor="middle" x="145.1266" y="-25" font-family="Times,serif" font-size="14.00" fill="#000000">GO:0007165</text>
<text text-anchor="middle" x="145.1266" y="-8.2" font-family="Times,serif" font-size="14.00" fill="#000000">signal transduction</text>
</g>
<!-- GO:0050794 -->
<g id="node2" class="node">
<title>GO:0050794</title>
<polygon fill="#ffff00" stroke="#000000" points="212.0256,-136.2014 78.2276,-136.2014 78.2276,-77.3986 212.0256,-77.3986 212.0256,-136.2014"/>
<text text-anchor="middle" x="145.1266" y="-119.4" font-family="Times,serif" font-size="14.00" fill="#000000">GO:0050794</text>
<text text-anchor="middle" x="145.1266" y="-102.6" font-family="Times,serif" font-size="14.00" fill="#000000">regulation of cellular</text>
<text text-anchor="middle" x="145.1266" y="-85.8" font-family="Times,serif" font-size="14.00" fill="#000000">process</text>
</g>
<!-- GO:0007165&#45;&gt;GO:0050794 -->
<g id="edge1" class="edge">
<title>GO:0007165&#45;&gt;GO:0050794</title>
<path fill="none" stroke="#000000" d="M145.1266,-41.6182C145.1266,-49.3358 145.1266,-58.3662 145.1266,-67.2036"/>
<polygon fill="#000000" stroke="#000000" points="141.6267,-67.3991 145.1266,-77.3991 148.6267,-67.3992 141.6267,-67.3991"/>
</g>
<!-- GO:0065007 -->
<g id="node3" class="node">
<title>GO:0065007</title>
<polygon fill="#ffa500" stroke="#000000" points="132.38,-221.8019 -.1268,-221.8019 -.1268,-180.5981 132.38,-180.5981 132.38,-221.8019"/>
<text text-anchor="middle" x="66.1266" y="-205.4" font-family="Times,serif" font-size="14.00" fill="#000000">GO:0065007</text>
<text text-anchor="middle" x="66.1266" y="-188.6" font-family="Times,serif" font-size="14.00" fill="#000000">biological regulation</text>
</g>
<!-- GO:0050794&#45;&gt;GO:0065007 -->
<g id="edge2" class="edge">
<title>GO:0050794&#45;&gt;GO:0065007</title>
<path fill="none" stroke="#000000" d="M120.5636,-136.1513C110.7743,-147.8488 99.5497,-161.2615 89.8458,-172.857"/>
<polygon fill="#000000" stroke="#000000" points="87.1408,-170.6358 83.407,-180.551 92.509,-175.1283 87.1408,-170.6358"/>
</g>
<!-- GO:0050789 -->
<g id="node4" class="node">
<title>GO:0050789</title>
<polygon fill="#ffff00" stroke="#000000" points="298.041,-230.6014 150.2122,-230.6014 150.2122,-171.7986 298.041,-171.7986 298.041,-230.6014"/>
<text text-anchor="middle" x="224.1266" y="-213.8" font-family="Times,serif" font-size="14.00" fill="#000000">GO:0050789</text>
<text text-anchor="middle" x="224.1266" y="-197" font-family="Times,serif" font-size="14.00" fill="#000000">regulation of biological</text>
<text text-anchor="middle" x="224.1266" y="-180.2" font-family="Times,serif" font-size="14.00" fill="#000000">process</text>
</g>
<!-- GO:0050794&#45;&gt;GO:0050789 -->
<g id="edge3" class="edge">
<title>GO:0050794&#45;&gt;GO:0050789</title>
<path fill="none" stroke="#000000" d="M169.6896,-136.1513C177.0464,-144.9422 185.2139,-154.7018 192.9373,-163.9308"/>
<polygon fill="#000000" stroke="#000000" points="190.4768,-166.4442 199.5787,-171.8669 195.845,-161.9517 190.4768,-166.4442"/>
</g>
<!-- GO:0008150 -->
<g id="node5" class="node">
<title>GO:0008150</title>
<polygon fill="#ffffff" stroke="#000000" points="434.5972,-307.8019 313.656,-307.8019 313.656,-266.5981 434.5972,-266.5981 434.5972,-307.8019"/>
<text text-anchor="middle" x="374.1266" y="-291.4" font-family="Times,serif" font-size="14.00" fill="#000000">GO:0008150</text>
<text text-anchor="middle" x="374.1266" y="-274.6" font-family="Times,serif" font-size="14.00" fill="#000000">biological_process</text>
</g>
<!-- GO:0065007&#45;&gt;GO:0008150 -->
<g id="edge4" class="edge">
<title>GO:0065007&#45;&gt;GO:0008150</title>
<path fill="none" stroke="#000000" d="M116.6363,-221.9098C124.7624,-224.9386 133.1303,-227.8809 141.1266,-230.4 194.7726,-247.3005 256.6817,-262.1808 303.1953,-272.467"/>
<polygon fill="#000000" stroke="#000000" points="302.6585,-275.9324 313.1761,-274.656 304.1582,-269.0949 302.6585,-275.9324"/>
</g>
<!-- GO:0050789&#45;&gt;GO:0008150 -->
<g id="edge5" class="edge">
<title>GO:0050789&#45;&gt;GO:0008150</title>
<path fill="none" stroke="#000000" d="M275.3286,-230.5558C292.6581,-240.4914 311.8788,-251.5112 328.726,-261.1703"/>
<polygon fill="#000000" stroke="#000000" points="327.3981,-264.4434 337.8143,-266.3809 330.8798,-258.3707 327.3981,-264.4434"/>
</g>
<!-- GO:0008152 -->
<g id="node6" class="node">
<title>GO:0008152</title>
<polygon fill="#00ffff" stroke="#000000" points="432.3122,-221.8019 315.941,-221.8019 315.941,-180.5981 432.3122,-180.5981 432.3122,-221.8019"/>
<text text-anchor="middle" x="374.1266" y="-205.4" font-family="Times,serif" font-size="14.00" fill="#000000">GO:0008152</text>
<text text-anchor="middle" x="374.1266" y="-188.6" font-family="Times,serif" font-size="14.00" fill="#000000">metabolic process</text>
</g>
<!-- GO:0008152&#45;&gt;GO:0008150 -->
<g id="edge6" class="edge">
<title>GO:0008152&#45;&gt;GO:0008150</title>
<path fill="none" stroke="#000000" d="M374.1266,-222.0182C374.1266,-232.3705 374.1266,-245.0848 374.1266,-256.5271"/>
<polygon fill="#000000" stroke="#000000" points="370.6267,-256.5735 374.1266,-266.5735 377.6267,-256.5735 370.6267,-256.5735"/>
</g>
<!-- GO:0044699 -->
<g id="node7" class="node">
<title>GO:0044699</title>
<polygon fill="#00ff00" stroke="#000000" points="601.8079,-221.8019 450.4453,-221.8019 450.4453,-180.5981 601.8079,-180.5981 601.8079,-221.8019"/>
<text text-anchor="middle" x="526.1266" y="-205.4" font-family="Times,serif" font-size="14.00" fill="#000000">GO:0044699</text>
<text text-anchor="middle" x="526.1266" y="-188.6" font-family="Times,serif" font-size="14.00" fill="#000000">single&#45;organism process</text>
</g>
<!-- GO:0044699&#45;&gt;GO:0008150 -->
<g id="edge7" class="edge">
<title>GO:0044699&#45;&gt;GO:0008150</title>
<path fill="none" stroke="#000000" d="M489.3316,-222.0182C468.3274,-233.9022 441.8215,-248.899 419.5307,-261.5108"/>
<polygon fill="#000000" stroke="#000000" points="417.5627,-258.6029 410.5827,-266.5735 421.0098,-264.6953 417.5627,-258.6029"/>
</g>
<!-- GO:0009987 -->
<g id="node8" class="node">
<title>GO:0009987</title>
<polygon fill="#ffa500" stroke="#000000" points="724.0828,-221.8019 620.1704,-221.8019 620.1704,-180.5981 724.0828,-180.5981 724.0828,-221.8019"/>
<text text-anchor="middle" x="672.1266" y="-205.4" font-family="Times,serif" font-size="14.00" fill="#000000">GO:0009987</text>
<text text-anchor="middle" x="672.1266" y="-188.6" font-family="Times,serif" font-size="14.00" fill="#000000">cellular process</text>
</g>
<!-- GO:0009987&#45;&gt;GO:0008150 -->
<g id="edge8" class="edge">
<title>GO:0009987&#45;&gt;GO:0008150</title>
<path fill="none" stroke="#000000" d="M631.9473,-221.8991C625.1028,-224.9992 617.9873,-227.9666 611.1266,-230.4 556.5862,-249.7445 492.675,-264.6317 444.9738,-274.3028"/>
<polygon fill="#000000" stroke="#000000" points="444.1698,-270.8942 435.0501,-276.287 445.5423,-277.7583 444.1698,-270.8942"/>
</g>
<!-- GO:0044763 -->
<g id="node9" class="node">
<title>GO:0044763</title>
<polygon fill="#00ffff" stroke="#000000" points="674.8051,-136.2014 523.4481,-136.2014 523.4481,-77.3986 674.8051,-77.3986 674.8051,-136.2014"/>
<text text-anchor="middle" x="599.1266" y="-119.4" font-family="Times,serif" font-size="14.00" fill="#000000">GO:0044763</text>
<text text-anchor="middle" x="599.1266" y="-102.6" font-family="Times,serif" font-size="14.00" fill="#000000">single&#45;organism cellular</text>
<text text-anchor="middle" x="599.1266" y="-85.8" font-family="Times,serif" font-size="14.00" fill="#000000">process</text>
</g>
<!-- GO:0044763&#45;&gt;GO:0044699 -->
<g id="edge10" class="edge">
<title>GO:0044763&#45;&gt;GO:0044699</title>
<path fill="none" stroke="#000000" d="M576.4291,-136.1513C567.4704,-147.7363 557.2106,-161.0037 548.3034,-172.522"/>
<polygon fill="#000000" stroke="#000000" points="545.4432,-170.4992 542.0946,-180.551 550.9807,-174.7814 545.4432,-170.4992"/>
</g>
<!-- GO:0044763&#45;&gt;GO:0009987 -->
<g id="edge9" class="edge">
<title>GO:0044763&#45;&gt;GO:0009987</title>
<path fill="none" stroke="#000000" d="M621.8241,-136.1513C630.7828,-147.7363 641.0426,-161.0037 649.9498,-172.522"/>
<polygon fill="#000000" stroke="#000000" points="647.2725,-174.7814 656.1586,-180.551 652.81,-170.4992 647.2725,-174.7814"/>
</g>
</g>
</svg>
