<?xml version="1.0" encoding="UTF-8" standalone="no"?>
<!DOCTYPE svg PUBLIC "-//W3C//DTD SVG 1.1//EN"
 "http://www.w3.org/Graphics/SVG/1.1/DTD/svg11.dtd">
<!-- Generated by graphviz version 2.40.1 (20161225.0304)
 -->
<!-- Title: G Pages: 1 -->
<svg width="464pt" height="316pt"
 viewBox="0.00 0.00 463.67 316.00" xmlns="http://www.w3.org/2000/svg" xmlns:xlink="http://www.w3.org/1999/xlink">
<g id="graph0" class="graph" transform="scale(1 1) rotate(0) translate(4 312)">
<title>G</title>
<polygon fill="#ffffff" stroke="transparent" points="-4,4 -4,-312 459.6722,-312 459.6722,4 -4,4"/>
<!-- GO:0043226 -->
<g id="node1" class="node">
<title>GO:0043226</title>
<polygon fill="#00ffff" stroke="#000000" points="89.1558,-230.2019 -.052,-230.2019 -.052,-188.9981 89.1558,-188.9981 89.1558,-230.2019"/>
<text text-anchor="middle" x="44.5519" y="-213.8" font-family="Times,serif" font-size="14.00" fill="#000000">GO:0043226</text>
<text text-anchor="middle" x="44.5519" y="-197" font-family="Times,serif" font-size="14.00" fill="#000000">organelle</text>
</g>
<!-- GO:0005575 -->
<g id="node2" class="node">
<title>GO:0005575</title>
<polygon fill="#ffffff" stroke="#000000" points="277.2386,-307.8019 149.8652,-307.8019 149.8652,-266.5981 277.2386,-266.5981 277.2386,-307.8019"/>
<text text-anchor="middle" x="213.5519" y="-291.4" font-family="Times,serif" font-size="14.00" fill="#000000">GO:0005575</text>
<text text-anchor="middle" x="213.5519" y="-274.6" font-family="Times,serif" font-size="14.00" fill="#000000">cellular_component</text>
</g>
<!-- GO:0043226&#45;&gt;GO:0005575 -->
<g id="edge1" class="edge">
<title>GO:0043226&#45;&gt;GO:0005575</title>
<path fill="none" stroke="#000000" d="M89.3971,-230.1916C110.8836,-240.0576 136.794,-251.9549 159.374,-262.323"/>
<polygon fill="#000000" stroke="#000000" points="157.9489,-265.52 168.4971,-266.5121 160.8699,-259.1585 157.9489,-265.52"/>
</g>
<!-- GO:0031224 -->
<g id="node3" class="node">
<title>GO:0031224</title>
<polygon fill="#ffa500" stroke="#000000" points="191.8053,-153.0014 49.2985,-153.0014 49.2985,-94.1986 191.8053,-94.1986 191.8053,-153.0014"/>
<text text-anchor="middle" x="120.5519" y="-136.2" font-family="Times,serif" font-size="14.00" fill="#000000">GO:0031224</text>
<text text-anchor="middle" x="120.5519" y="-119.4" font-family="Times,serif" font-size="14.00" fill="#000000">intrinsic component of</text>
<text text-anchor="middle" x="120.5519" y="-102.6" font-family="Times,serif" font-size="14.00" fill="#000000">membrane</text>
</g>
<!-- GO:0044425 -->
<g id="node4" class="node">
<title>GO:0044425</title>
<polygon fill="#ffa500" stroke="#000000" points="207.9039,-230.2019 107.1999,-230.2019 107.1999,-188.9981 207.9039,-188.9981 207.9039,-230.2019"/>
<text text-anchor="middle" x="157.5519" y="-213.8" font-family="Times,serif" font-size="14.00" fill="#000000">GO:0044425</text>
<text text-anchor="middle" x="157.5519" y="-197" font-family="Times,serif" font-size="14.00" fill="#000000">membrane part</text>
</g>
<!-- GO:0031224&#45;&gt;GO:0044425 -->
<g id="edge2" class="edge">
<title>GO:0031224&#45;&gt;GO:0044425</title>
<path fill="none" stroke="#000000" d="M133.2852,-153.1963C136.9607,-161.7393 140.9736,-171.0667 144.6587,-179.6321"/>
<polygon fill="#000000" stroke="#000000" points="141.4774,-181.0939 148.6446,-188.8966 147.9075,-178.3274 141.4774,-181.0939"/>
</g>
<!-- GO:0044425&#45;&gt;GO:0005575 -->
<g id="edge3" class="edge">
<title>GO:0044425&#45;&gt;GO:0005575</title>
<path fill="none" stroke="#000000" d="M172.5589,-230.3954C178.7105,-238.9197 185.9372,-248.9339 192.5956,-258.1605"/>
<polygon fill="#000000" stroke="#000000" points="189.8135,-260.2864 198.5035,-266.3472 195.4898,-256.19 189.8135,-260.2864"/>
</g>
<!-- GO:0005737 -->
<g id="node5" class="node">
<title>GO:0005737</title>
<polygon fill="#00ffff" stroke="#000000" points="303.1558,-49.8019 213.948,-49.8019 213.948,-8.5981 303.1558,-8.5981 303.1558,-49.8019"/>
<text text-anchor="middle" x="258.5519" y="-33.4" font-family="Times,serif" font-size="14.00" fill="#000000">GO:0005737</text>
<text text-anchor="middle" x="258.5519" y="-16.6" font-family="Times,serif" font-size="14.00" fill="#000000">cytoplasm</text>
</g>
<!-- GO:0044424 -->
<g id="node6" class="node">
<title>GO:0044424</title>
<polygon fill="#ff0000" stroke="#000000" points="318.9503,-144.2019 210.1535,-144.2019 210.1535,-102.9981 318.9503,-102.9981 318.9503,-144.2019"/>
<text text-anchor="middle" x="264.5519" y="-127.8" font-family="Times,serif" font-size="14.00" fill="#000000">GO:0044424</text>
<text text-anchor="middle" x="264.5519" y="-111" font-family="Times,serif" font-size="14.00" fill="#000000">intracellular part</text>
</g>
<!-- GO:0005737&#45;&gt;GO:0044424 -->
<g id="edge4" class="edge">
<title>GO:0005737&#45;&gt;GO:0044424</title>
<path fill="none" stroke="#000000" d="M259.8835,-50.1504C260.6758,-62.6165 261.6958,-78.6645 262.5802,-92.5786"/>
<polygon fill="#000000" stroke="#000000" points="259.0967,-92.9503 263.224,-102.7081 266.0826,-92.5062 259.0967,-92.9503"/>
</g>
<!-- GO:0044464 -->
<g id="node7" class="node">
<title>GO:0044464</title>
<polygon fill="#ff0000" stroke="#000000" points="315.1558,-230.2019 225.948,-230.2019 225.948,-188.9981 315.1558,-188.9981 315.1558,-230.2019"/>
<text text-anchor="middle" x="270.5519" y="-213.8" font-family="Times,serif" font-size="14.00" fill="#000000">GO:0044464</text>
<text text-anchor="middle" x="270.5519" y="-197" font-family="Times,serif" font-size="14.00" fill="#000000">cell part</text>
</g>
<!-- GO:0044424&#45;&gt;GO:0044464 -->
<g id="edge5" class="edge">
<title>GO:0044424&#45;&gt;GO:0044464</title>
<path fill="none" stroke="#000000" d="M266.0043,-144.4182C266.7266,-154.7705 267.6136,-167.4848 268.4119,-178.9271"/>
<polygon fill="#000000" stroke="#000000" points="264.9253,-179.2414 269.1128,-188.9735 271.9083,-178.7541 264.9253,-179.2414"/>
</g>
<!-- GO:0044464&#45;&gt;GO:0005575 -->
<g id="edge6" class="edge">
<title>GO:0044464&#45;&gt;GO:0005575</title>
<path fill="none" stroke="#000000" d="M255.2769,-230.3954C249.0155,-238.9197 241.6597,-248.9339 234.8824,-258.1605"/>
<polygon fill="#000000" stroke="#000000" points="231.9682,-256.2158 228.869,-266.3472 237.6098,-260.3598 231.9682,-256.2158"/>
</g>
<!-- GO:0016021 -->
<g id="node8" class="node">
<title>GO:0016021</title>
<polygon fill="#ffff00" stroke="#000000" points="190.185,-58.6014 50.9188,-58.6014 50.9188,.2014 190.185,.2014 190.185,-58.6014"/>
<text text-anchor="middle" x="120.5519" y="-41.8" font-family="Times,serif" font-size="14.00" fill="#000000">GO:0016021</text>
<text text-anchor="middle" x="120.5519" y="-25" font-family="Times,serif" font-size="14.00" fill="#000000">integral component of</text>
<text text-anchor="middle" x="120.5519" y="-8.2" font-family="Times,serif" font-size="14.00" fill="#000000">membrane</text>
</g>
<!-- GO:0016021&#45;&gt;GO:0031224 -->
<g id="edge7" class="edge">
<title>GO:0016021&#45;&gt;GO:0031224</title>
<path fill="none" stroke="#000000" d="M120.5519,-58.5513C120.5519,-66.6318 120.5519,-75.5308 120.5519,-84.0838"/>
<polygon fill="#000000" stroke="#000000" points="117.052,-84.2668 120.5519,-94.2669 124.052,-84.2669 117.052,-84.2668"/>
</g>
<!-- GO:0016020 -->
<g id="node9" class="node">
<title>GO:0016020</title>
<polygon fill="#ff0000" stroke="#000000" points="434.1558,-230.2019 344.948,-230.2019 344.948,-188.9981 434.1558,-188.9981 434.1558,-230.2019"/>
<text text-anchor="middle" x="389.5519" y="-213.8" font-family="Times,serif" font-size="14.00" fill="#000000">GO:0016020</text>
<text text-anchor="middle" x="389.5519" y="-197" font-family="Times,serif" font-size="14.00" fill="#000000">membrane</text>
</g>
<!-- GO:0016020&#45;&gt;GO:0005575 -->
<g id="edge8" class="edge">
<title>GO:0016020&#45;&gt;GO:0005575</title>
<path fill="none" stroke="#000000" d="M344.6843,-229.3825C321.9371,-239.412 294.0817,-251.6937 269.9035,-262.3541"/>
<polygon fill="#000000" stroke="#000000" points="268.228,-259.2676 260.49,-266.5046 271.0521,-265.6727 268.228,-259.2676"/>
</g>
<!-- GO:0005886 -->
<g id="node10" class="node">
<title>GO:0005886</title>
<polygon fill="#00ff00" stroke="#000000" points="455.7927,-144.2019 337.3111,-144.2019 337.3111,-102.9981 455.7927,-102.9981 455.7927,-144.2019"/>
<text text-anchor="middle" x="396.5519" y="-127.8" font-family="Times,serif" font-size="14.00" fill="#000000">GO:0005886</text>
<text text-anchor="middle" x="396.5519" y="-111" font-family="Times,serif" font-size="14.00" fill="#000000">plasma membrane</text>
</g>
<!-- GO:0005886&#45;&gt;GO:0044464 -->
<g id="edge10" class="edge">
<title>GO:0005886&#45;&gt;GO:0044464</title>
<path fill="none" stroke="#000000" d="M366.0508,-144.4182C349.0263,-156.0381 327.6417,-170.634 309.4265,-183.0665"/>
<polygon fill="#000000" stroke="#000000" points="307.0585,-180.4452 300.7721,-188.9735 311.0047,-186.2269 307.0585,-180.4452"/>
</g>
<!-- GO:0005886&#45;&gt;GO:0016020 -->
<g id="edge9" class="edge">
<title>GO:0005886&#45;&gt;GO:0016020</title>
<path fill="none" stroke="#000000" d="M394.8574,-144.4182C394.0148,-154.7705 392.9799,-167.4848 392.0485,-178.9271"/>
<polygon fill="#000000" stroke="#000000" points="388.5537,-178.7225 391.2308,-188.9735 395.5306,-179.2905 388.5537,-178.7225"/>
</g>
<!-- GO:0044444 -->
<g id="node11" class="node">
<title>GO:0044444</title>
<polygon fill="#00ff00" stroke="#000000" points="429.9685,-49.8019 321.1353,-49.8019 321.1353,-8.5981 429.9685,-8.5981 429.9685,-49.8019"/>
<text text-anchor="middle" x="375.5519" y="-33.4" font-family="Times,serif" font-size="14.00" fill="#000000">GO:0044444</text>
<text text-anchor="middle" x="375.5519" y="-16.6" font-family="Times,serif" font-size="14.00" fill="#000000">cytoplasmic part</text>
</g>
<!-- GO:0044444&#45;&gt;GO:0044424 -->
<g id="edge11" class="edge">
<title>GO:0044444&#45;&gt;GO:0044424</title>
<path fill="none" stroke="#000000" d="M351.1925,-49.9165C335.1433,-63.5655 313.9575,-81.583 296.553,-96.3846"/>
<polygon fill="#000000" stroke="#000000" points="294.2047,-93.7871 288.8545,-102.9318 298.7397,-99.1195 294.2047,-93.7871"/>
</g>
</g>
</svg>
