<?xml version="1.0" encoding="UTF-8" standalone="no"?>
<!DOCTYPE svg PUBLIC "-//W3C//DTD SVG 1.1//EN"
 "http://www.w3.org/Graphics/SVG/1.1/DTD/svg11.dtd">
<!-- Generated by graphviz version 2.40.1 (20161225.0304)
 -->
<!-- Title: G Pages: 1 -->
<svg width="807pt" height="599pt"
 viewBox="0.00 0.00 807.12 599.20" xmlns="http://www.w3.org/2000/svg" xmlns:xlink="http://www.w3.org/1999/xlink">
<g id="graph0" class="graph" transform="scale(1 1) rotate(0) translate(4 595.2)">
<title>G</title>
<polygon fill="#ffffff" stroke="transparent" points="-4,4 -4,-595.2 803.1165,-595.2 803.1165,4 -4,4"/>
<!-- GO:0035639 -->
<g id="node1" class="node">
<title>GO:0035639</title>
<polygon fill="#00ffff" stroke="#000000" points="137.5303,-247.4014 .1563,-247.4014 .1563,-188.5986 137.5303,-188.5986 137.5303,-247.4014"/>
<text text-anchor="middle" x="68.8433" y="-230.6" font-family="Times,serif" font-size="14.00" fill="#000000">GO:0035639</text>
<text text-anchor="middle" x="68.8433" y="-213.8" font-family="Times,serif" font-size="14.00" fill="#000000">purine ribonucleoside</text>
<text text-anchor="middle" x="68.8433" y="-197" font-family="Times,serif" font-size="14.00" fill="#000000">triphosphate binding</text>
</g>
<!-- GO:1901265 -->
<g id="node2" class="node">
<title>GO:1901265</title>
<polygon fill="#ffffff" stroke="#000000" points="302.9774,-341.8014 166.7092,-341.8014 166.7092,-282.9986 302.9774,-282.9986 302.9774,-341.8014"/>
<text text-anchor="middle" x="234.8433" y="-325" font-family="Times,serif" font-size="14.00" fill="#000000">GO:1901265</text>
<text text-anchor="middle" x="234.8433" y="-308.2" font-family="Times,serif" font-size="14.00" fill="#000000">nucleoside phosphate</text>
<text text-anchor="middle" x="234.8433" y="-291.4" font-family="Times,serif" font-size="14.00" fill="#000000">binding</text>
</g>
<!-- GO:0035639&#45;&gt;GO:1901265 -->
<g id="edge1" class="edge">
<title>GO:0035639&#45;&gt;GO:1901265</title>
<path fill="none" stroke="#000000" d="M120.4568,-247.3513C137.4768,-257.0301 156.5618,-267.8833 174.1929,-277.9097"/>
<polygon fill="#000000" stroke="#000000" points="172.8388,-281.1659 183.2617,-283.0669 176.2992,-275.081 172.8388,-281.1659"/>
</g>
<!-- GO:0097159 -->
<g id="node3" class="node">
<title>GO:0097159</title>
<polygon fill="#00ff00" stroke="#000000" points="302.3547,-436.2014 145.3319,-436.2014 145.3319,-377.3986 302.3547,-377.3986 302.3547,-436.2014"/>
<text text-anchor="middle" x="223.8433" y="-419.4" font-family="Times,serif" font-size="14.00" fill="#000000">GO:0097159</text>
<text text-anchor="middle" x="223.8433" y="-402.6" font-family="Times,serif" font-size="14.00" fill="#000000">organic cyclic compound</text>
<text text-anchor="middle" x="223.8433" y="-385.8" font-family="Times,serif" font-size="14.00" fill="#000000">binding</text>
</g>
<!-- GO:1901265&#45;&gt;GO:0097159 -->
<g id="edge2" class="edge">
<title>GO:1901265&#45;&gt;GO:0097159</title>
<path fill="none" stroke="#000000" d="M231.4231,-341.7513C230.4815,-349.8318 229.4446,-358.7308 228.4479,-367.2838"/>
<polygon fill="#000000" stroke="#000000" points="224.9424,-367.1289 227.2614,-377.4669 231.8953,-367.9392 224.9424,-367.1289"/>
</g>
<!-- GO:1901363 -->
<g id="node4" class="node">
<title>GO:1901363</title>
<polygon fill="#00ff00" stroke="#000000" points="467.3539,-436.2014 320.3327,-436.2014 320.3327,-377.3986 467.3539,-377.3986 467.3539,-436.2014"/>
<text text-anchor="middle" x="393.8433" y="-419.4" font-family="Times,serif" font-size="14.00" fill="#000000">GO:1901363</text>
<text text-anchor="middle" x="393.8433" y="-402.6" font-family="Times,serif" font-size="14.00" fill="#000000">heterocyclic compound</text>
<text text-anchor="middle" x="393.8433" y="-385.8" font-family="Times,serif" font-size="14.00" fill="#000000">binding</text>
</g>
<!-- GO:1901265&#45;&gt;GO:1901363 -->
<g id="edge3" class="edge">
<title>GO:1901265&#45;&gt;GO:1901363</title>
<path fill="none" stroke="#000000" d="M284.2803,-341.7513C300.5826,-351.4301 318.8628,-362.2833 335.7505,-372.3097"/>
<polygon fill="#000000" stroke="#000000" points="334.0513,-375.3712 344.4369,-377.4669 337.625,-369.3521 334.0513,-375.3712"/>
</g>
<!-- GO:0005488 -->
<g id="node5" class="node">
<title>GO:0005488</title>
<polygon fill="#ffffff" stroke="#000000" points="520.4472,-513.4019 431.2394,-513.4019 431.2394,-472.1981 520.4472,-472.1981 520.4472,-513.4019"/>
<text text-anchor="middle" x="475.8433" y="-497" font-family="Times,serif" font-size="14.00" fill="#000000">GO:0005488</text>
<text text-anchor="middle" x="475.8433" y="-480.2" font-family="Times,serif" font-size="14.00" fill="#000000">binding</text>
</g>
<!-- GO:0097159&#45;&gt;GO:0005488 -->
<g id="edge4" class="edge">
<title>GO:0097159&#45;&gt;GO:0005488</title>
<path fill="none" stroke="#000000" d="M302.5411,-433.6572C341.218,-446.8564 386.851,-462.4296 421.5801,-474.2816"/>
<polygon fill="#000000" stroke="#000000" points="420.477,-477.6033 431.0715,-477.5207 422.7379,-470.9784 420.477,-477.6033"/>
</g>
<!-- GO:1901363&#45;&gt;GO:0005488 -->
<g id="edge5" class="edge">
<title>GO:1901363&#45;&gt;GO:0005488</title>
<path fill="none" stroke="#000000" d="M422.063,-436.3963C430.8218,-445.5824 440.4452,-455.6752 449.1004,-464.7526"/>
<polygon fill="#000000" stroke="#000000" points="446.6689,-467.2744 456.1028,-472.0966 451.7351,-462.4439 446.6689,-467.2744"/>
</g>
<!-- GO:0003674 -->
<g id="node6" class="node">
<title>GO:0003674</title>
<polygon fill="#ffffff" stroke="#000000" points="596.4764,-591.0019 471.2102,-591.0019 471.2102,-549.7981 596.4764,-549.7981 596.4764,-591.0019"/>
<text text-anchor="middle" x="533.8433" y="-574.6" font-family="Times,serif" font-size="14.00" fill="#000000">GO:0003674</text>
<text text-anchor="middle" x="533.8433" y="-557.8" font-family="Times,serif" font-size="14.00" fill="#000000">molecular_function</text>
</g>
<!-- GO:0005488&#45;&gt;GO:0003674 -->
<g id="edge6" class="edge">
<title>GO:0005488&#45;&gt;GO:0003674</title>
<path fill="none" stroke="#000000" d="M491.3862,-513.5954C497.7575,-522.1197 505.2424,-532.1339 512.1385,-541.3605"/>
<polygon fill="#000000" stroke="#000000" points="509.4672,-543.6327 518.2575,-549.5472 515.0741,-539.4419 509.4672,-543.6327"/>
</g>
<!-- GO:0000166 -->
<g id="node7" class="node">
<title>GO:0000166</title>
<polygon fill="#00ffff" stroke="#000000" points="618.9408,-238.6019 498.7458,-238.6019 498.7458,-197.3981 618.9408,-197.3981 618.9408,-238.6019"/>
<text text-anchor="middle" x="558.8433" y="-222.2" font-family="Times,serif" font-size="14.00" fill="#000000">GO:0000166</text>
<text text-anchor="middle" x="558.8433" y="-205.4" font-family="Times,serif" font-size="14.00" fill="#000000">nucleotide binding</text>
</g>
<!-- GO:0000166&#45;&gt;GO:1901265 -->
<g id="edge8" class="edge">
<title>GO:0000166&#45;&gt;GO:1901265</title>
<path fill="none" stroke="#000000" d="M512.5685,-238.6059C504.7344,-241.7172 496.6191,-244.7125 488.8433,-247.2 420.2458,-269.1442 400.4511,-264.709 330.8433,-283.2 324.9321,-284.7703 318.8366,-286.4591 312.7185,-288.2044"/>
<polygon fill="#000000" stroke="#000000" points="311.7425,-284.8431 303.1092,-290.9845 313.6879,-291.5674 311.7425,-284.8431"/>
</g>
<!-- GO:0036094 -->
<g id="node8" class="node">
<title>GO:0036094</title>
<polygon fill="#ffffff" stroke="#000000" points="632.7717,-427.4019 484.9149,-427.4019 484.9149,-386.1981 632.7717,-386.1981 632.7717,-427.4019"/>
<text text-anchor="middle" x="558.8433" y="-411" font-family="Times,serif" font-size="14.00" fill="#000000">GO:0036094</text>
<text text-anchor="middle" x="558.8433" y="-394.2" font-family="Times,serif" font-size="14.00" fill="#000000">small molecule binding</text>
</g>
<!-- GO:0000166&#45;&gt;GO:0036094 -->
<g id="edge7" class="edge">
<title>GO:0000166&#45;&gt;GO:0036094</title>
<path fill="none" stroke="#000000" d="M558.8433,-238.9263C558.8433,-272.1865 558.8433,-337.2928 558.8433,-375.9227"/>
<polygon fill="#000000" stroke="#000000" points="555.3434,-376.0677 558.8433,-386.0677 562.3434,-376.0678 555.3434,-376.0677"/>
</g>
<!-- GO:0036094&#45;&gt;GO:0005488 -->
<g id="edge9" class="edge">
<title>GO:0036094&#45;&gt;GO:0005488</title>
<path fill="none" stroke="#000000" d="M538.7513,-427.6182C527.9446,-438.8156 514.4707,-452.7764 502.7682,-464.9019"/>
<polygon fill="#000000" stroke="#000000" points="500.1763,-462.5475 495.7503,-472.1735 505.2132,-467.4086 500.1763,-462.5475"/>
</g>
<!-- GO:0003824 -->
<g id="node9" class="node">
<title>GO:0003824</title>
<polygon fill="#00ffff" stroke="#000000" points="647.2557,-513.4019 538.4309,-513.4019 538.4309,-472.1981 647.2557,-472.1981 647.2557,-513.4019"/>
<text text-anchor="middle" x="592.8433" y="-497" font-family="Times,serif" font-size="14.00" fill="#000000">GO:0003824</text>
<text text-anchor="middle" x="592.8433" y="-480.2" font-family="Times,serif" font-size="14.00" fill="#000000">catalytic activity</text>
</g>
<!-- GO:0003824&#45;&gt;GO:0003674 -->
<g id="edge10" class="edge">
<title>GO:0003824&#45;&gt;GO:0003674</title>
<path fill="none" stroke="#000000" d="M577.0324,-513.5954C570.5512,-522.1197 562.9374,-532.1339 555.9223,-541.3605"/>
<polygon fill="#000000" stroke="#000000" points="552.9641,-539.4684 549.6979,-549.5472 558.5365,-543.7051 552.9641,-539.4684"/>
</g>
<!-- GO:0097367 -->
<g id="node10" class="node">
<title>GO:0097367</title>
<polygon fill="#00ff00" stroke="#000000" points="798.8904,-436.2014 650.7962,-436.2014 650.7962,-377.3986 798.8904,-377.3986 798.8904,-436.2014"/>
<text text-anchor="middle" x="724.8433" y="-419.4" font-family="Times,serif" font-size="14.00" fill="#000000">GO:0097367</text>
<text text-anchor="middle" x="724.8433" y="-402.6" font-family="Times,serif" font-size="14.00" fill="#000000">carbohydrate derivative</text>
<text text-anchor="middle" x="724.8433" y="-385.8" font-family="Times,serif" font-size="14.00" fill="#000000">binding</text>
</g>
<!-- GO:0097367&#45;&gt;GO:0005488 -->
<g id="edge11" class="edge">
<title>GO:0097367&#45;&gt;GO:0005488</title>
<path fill="none" stroke="#000000" d="M650.6662,-433.0087C647.6885,-434.0251 644.7388,-435.0255 641.8433,-436 595.0953,-451.733 580.7532,-454.3314 530.0928,-472"/>
<polygon fill="#000000" stroke="#000000" points="528.8329,-468.7328 520.5599,-475.3516 531.1548,-475.3366 528.8329,-468.7328"/>
</g>
<!-- GO:0032555 -->
<g id="node11" class="node">
<title>GO:0032555</title>
<polygon fill="#00ffff" stroke="#000000" points="707.976,-58.6014 571.7106,-58.6014 571.7106,.2014 707.976,.2014 707.976,-58.6014"/>
<text text-anchor="middle" x="639.8433" y="-41.8" font-family="Times,serif" font-size="14.00" fill="#000000">GO:0032555</text>
<text text-anchor="middle" x="639.8433" y="-25" font-family="Times,serif" font-size="14.00" fill="#000000">purine ribonucleotide</text>
<text text-anchor="middle" x="639.8433" y="-8.2" font-family="Times,serif" font-size="14.00" fill="#000000">binding</text>
</g>
<!-- GO:0017076 -->
<g id="node12" class="node">
<title>GO:0017076</title>
<polygon fill="#ffffff" stroke="#000000" points="634.706,-144.2019 474.9806,-144.2019 474.9806,-102.9981 634.706,-102.9981 634.706,-144.2019"/>
<text text-anchor="middle" x="554.8433" y="-127.8" font-family="Times,serif" font-size="14.00" fill="#000000">GO:0017076</text>
<text text-anchor="middle" x="554.8433" y="-111" font-family="Times,serif" font-size="14.00" fill="#000000">purine nucleotide binding</text>
</g>
<!-- GO:0032555&#45;&gt;GO:0017076 -->
<g id="edge12" class="edge">
<title>GO:0032555&#45;&gt;GO:0017076</title>
<path fill="none" stroke="#000000" d="M613.4147,-58.5513C602.882,-70.2488 590.8049,-83.6615 580.364,-95.257"/>
<polygon fill="#000000" stroke="#000000" points="577.5266,-93.1776 573.4362,-102.951 582.7286,-97.8616 577.5266,-93.1776"/>
</g>
<!-- GO:0032553 -->
<g id="node13" class="node">
<title>GO:0032553</title>
<polygon fill="#ffffff" stroke="#000000" points="796.4914,-144.2019 653.1952,-144.2019 653.1952,-102.9981 796.4914,-102.9981 796.4914,-144.2019"/>
<text text-anchor="middle" x="724.8433" y="-127.8" font-family="Times,serif" font-size="14.00" fill="#000000">GO:0032553</text>
<text text-anchor="middle" x="724.8433" y="-111" font-family="Times,serif" font-size="14.00" fill="#000000">ribonucleotide binding</text>
</g>
<!-- GO:0032555&#45;&gt;GO:0032553 -->
<g id="edge13" class="edge">
<title>GO:0032555&#45;&gt;GO:0032553</title>
<path fill="none" stroke="#000000" d="M666.2719,-58.5513C676.8046,-70.2488 688.8817,-83.6615 699.3226,-95.257"/>
<polygon fill="#000000" stroke="#000000" points="696.958,-97.8616 706.2504,-102.951 702.16,-93.1776 696.958,-97.8616"/>
</g>
<!-- GO:0017076&#45;&gt;GO:0000166 -->
<g id="edge14" class="edge">
<title>GO:0017076&#45;&gt;GO:0000166</title>
<path fill="none" stroke="#000000" d="M555.731,-144.5504C556.2593,-157.0165 556.9393,-173.0645 557.5288,-186.9786"/>
<polygon fill="#000000" stroke="#000000" points="554.0377,-187.2653 557.9581,-197.1081 561.0315,-186.9689 554.0377,-187.2653"/>
</g>
<!-- GO:0032553&#45;&gt;GO:0000166 -->
<g id="edge16" class="edge">
<title>GO:0032553&#45;&gt;GO:0000166</title>
<path fill="none" stroke="#000000" d="M688.4139,-144.3165C663.5475,-158.4574 630.4357,-177.2872 603.9096,-192.3719"/>
<polygon fill="#000000" stroke="#000000" points="602.1503,-189.346 595.1877,-197.3318 605.6106,-195.4309 602.1503,-189.346"/>
</g>
<!-- GO:0032553&#45;&gt;GO:0097367 -->
<g id="edge15" class="edge">
<title>GO:0032553&#45;&gt;GO:0097367</title>
<path fill="none" stroke="#000000" d="M724.8433,-144.4244C724.8433,-191.3968 724.8433,-306.2388 724.8433,-367.2304"/>
<polygon fill="#000000" stroke="#000000" points="721.3434,-367.2515 724.8433,-377.2515 728.3434,-367.2516 721.3434,-367.2515"/>
</g>
<!-- GO:0032550 -->
<g id="node14" class="node">
<title>GO:0032550</title>
<polygon fill="#00ffff" stroke="#000000" points="381.5303,-153.0014 244.1563,-153.0014 244.1563,-94.1986 381.5303,-94.1986 381.5303,-153.0014"/>
<text text-anchor="middle" x="312.8433" y="-136.2" font-family="Times,serif" font-size="14.00" fill="#000000">GO:0032550</text>
<text text-anchor="middle" x="312.8433" y="-119.4" font-family="Times,serif" font-size="14.00" fill="#000000">purine ribonucleoside</text>
<text text-anchor="middle" x="312.8433" y="-102.6" font-family="Times,serif" font-size="14.00" fill="#000000">binding</text>
</g>
<!-- GO:0001883 -->
<g id="node15" class="node">
<title>GO:0001883</title>
<polygon fill="#ffffff" stroke="#000000" points="317.7604,-238.6019 155.9262,-238.6019 155.9262,-197.3981 317.7604,-197.3981 317.7604,-238.6019"/>
<text text-anchor="middle" x="236.8433" y="-222.2" font-family="Times,serif" font-size="14.00" fill="#000000">GO:0001883</text>
<text text-anchor="middle" x="236.8433" y="-205.4" font-family="Times,serif" font-size="14.00" fill="#000000">purine nucleoside binding</text>
</g>
<!-- GO:0032550&#45;&gt;GO:0001883 -->
<g id="edge17" class="edge">
<title>GO:0032550&#45;&gt;GO:0001883</title>
<path fill="none" stroke="#000000" d="M289.213,-152.9513C279.8861,-164.5363 269.2047,-177.8037 259.9315,-189.322"/>
<polygon fill="#000000" stroke="#000000" points="257.0123,-187.3667 253.4675,-197.351 262.4649,-191.7565 257.0123,-187.3667"/>
</g>
<!-- GO:0032549 -->
<g id="node16" class="node">
<title>GO:0032549</title>
<polygon fill="#ffffff" stroke="#000000" points="480.0456,-238.6019 335.641,-238.6019 335.641,-197.3981 480.0456,-197.3981 480.0456,-238.6019"/>
<text text-anchor="middle" x="407.8433" y="-222.2" font-family="Times,serif" font-size="14.00" fill="#000000">GO:0032549</text>
<text text-anchor="middle" x="407.8433" y="-205.4" font-family="Times,serif" font-size="14.00" fill="#000000">ribonucleoside binding</text>
</g>
<!-- GO:0032550&#45;&gt;GO:0032549 -->
<g id="edge18" class="edge">
<title>GO:0032550&#45;&gt;GO:0032549</title>
<path fill="none" stroke="#000000" d="M342.3811,-152.9513C354.2662,-164.7612 367.9107,-178.3196 379.6563,-189.991"/>
<polygon fill="#000000" stroke="#000000" points="377.5025,-192.785 387.063,-197.351 382.4366,-187.8196 377.5025,-192.785"/>
</g>
<!-- GO:0001882 -->
<g id="node17" class="node">
<title>GO:0001882</title>
<polygon fill="#ffffff" stroke="#000000" points="461.9942,-333.0019 339.6924,-333.0019 339.6924,-291.7981 461.9942,-291.7981 461.9942,-333.0019"/>
<text text-anchor="middle" x="400.8433" y="-316.6" font-family="Times,serif" font-size="14.00" fill="#000000">GO:0001882</text>
<text text-anchor="middle" x="400.8433" y="-299.8" font-family="Times,serif" font-size="14.00" fill="#000000">nucleoside binding</text>
</g>
<!-- GO:0001883&#45;&gt;GO:0001882 -->
<g id="edge19" class="edge">
<title>GO:0001883&#45;&gt;GO:0001882</title>
<path fill="none" stroke="#000000" d="M272.8338,-238.7165C297.2938,-252.7959 329.8292,-271.5236 355.9778,-286.575"/>
<polygon fill="#000000" stroke="#000000" points="354.5239,-289.7765 364.9368,-291.7318 358.016,-283.7097 354.5239,-289.7765"/>
</g>
<!-- GO:0032549&#45;&gt;GO:0001882 -->
<g id="edge20" class="edge">
<title>GO:0032549&#45;&gt;GO:0001882</title>
<path fill="none" stroke="#000000" d="M406.2898,-238.9504C405.3654,-251.4165 404.1754,-267.4645 403.1436,-281.3786"/>
<polygon fill="#000000" stroke="#000000" points="399.6417,-281.2767 402.3925,-291.5081 406.6225,-281.7944 399.6417,-281.2767"/>
</g>
<!-- GO:0001882&#45;&gt;GO:0097159 -->
<g id="edge24" class="edge">
<title>GO:0001882&#45;&gt;GO:0097159</title>
<path fill="none" stroke="#000000" d="M361.9999,-333.1165C340.248,-344.7175 312.5788,-359.4744 287.7241,-372.7302"/>
<polygon fill="#000000" stroke="#000000" points="285.8871,-369.7433 278.7106,-377.5374 289.1812,-375.9197 285.8871,-369.7433"/>
</g>
<!-- GO:0001882&#45;&gt;GO:1901363 -->
<g id="edge23" class="edge">
<title>GO:0001882&#45;&gt;GO:1901363</title>
<path fill="none" stroke="#000000" d="M399.2898,-333.3504C398.5483,-343.3492 397.636,-355.6525 396.7715,-367.3106"/>
<polygon fill="#000000" stroke="#000000" points="393.2788,-367.084 396.0296,-377.3155 400.2597,-367.6018 393.2788,-367.084"/>
</g>
<!-- GO:0001882&#45;&gt;GO:0036094 -->
<g id="edge21" class="edge">
<title>GO:0001882&#45;&gt;GO:0036094</title>
<path fill="none" stroke="#000000" d="M435.5171,-333.1165C459.0821,-347.1959 490.4273,-365.9236 515.6192,-380.975"/>
<polygon fill="#000000" stroke="#000000" points="513.8707,-384.0074 524.2504,-386.1318 517.4611,-377.9982 513.8707,-384.0074"/>
</g>
<!-- GO:0001882&#45;&gt;GO:0097367 -->
<g id="edge22" class="edge">
<title>GO:0001882&#45;&gt;GO:0097367</title>
<path fill="none" stroke="#000000" d="M462.1177,-327.6403C508.7497,-339.5443 574.6725,-357.0258 640.9442,-377.3924"/>
<polygon fill="#000000" stroke="#000000" points="640.1345,-380.8056 650.7223,-380.418 642.2037,-374.1184 640.1345,-380.8056"/>
</g>
</g>
</svg>
