<?xml version="1.0" encoding="UTF-8" standalone="no"?>
<!DOCTYPE svg PUBLIC "-//W3C//DTD SVG 1.1//EN"
 "http://www.w3.org/Graphics/SVG/1.1/DTD/svg11.dtd">
<!-- Generated by graphviz version 2.40.1 (20161225.0304)
 -->
<!-- Title: G Pages: 1 -->
<svg width="422pt" height="454pt"
 viewBox="0.00 0.00 422.22 454.40" xmlns="http://www.w3.org/2000/svg" xmlns:xlink="http://www.w3.org/1999/xlink">
<g id="graph0" class="graph" transform="scale(1 1) rotate(0) translate(4 450.4)">
<title>G</title>
<polygon fill="#ffffff" stroke="transparent" points="-4,4 -4,-450.4 418.2203,-450.4 418.2203,4 -4,4"/>
<!-- GO:0043227 -->
<g id="node1" class="node">
<title>GO:0043227</title>
<polygon fill="#ff0000" stroke="#000000" points="287.7319,-291.4014 159.8103,-291.4014 159.8103,-232.5986 287.7319,-232.5986 287.7319,-291.4014"/>
<text text-anchor="middle" x="223.7711" y="-274.6" font-family="Times,serif" font-size="14.00" fill="#000000">GO:0043227</text>
<text text-anchor="middle" x="223.7711" y="-257.8" font-family="Times,serif" font-size="14.00" fill="#000000">membrane&#45;bounded</text>
<text text-anchor="middle" x="223.7711" y="-241" font-family="Times,serif" font-size="14.00" fill="#000000">organelle</text>
</g>
<!-- GO:0043226 -->
<g id="node2" class="node">
<title>GO:0043226</title>
<polygon fill="#ffffff" stroke="#000000" points="264.375,-368.6019 175.1672,-368.6019 175.1672,-327.3981 264.375,-327.3981 264.375,-368.6019"/>
<text text-anchor="middle" x="219.7711" y="-352.2" font-family="Times,serif" font-size="14.00" fill="#000000">GO:0043226</text>
<text text-anchor="middle" x="219.7711" y="-335.4" font-family="Times,serif" font-size="14.00" fill="#000000">organelle</text>
</g>
<!-- GO:0043227&#45;&gt;GO:0043226 -->
<g id="edge1" class="edge">
<title>GO:0043227&#45;&gt;GO:0043226</title>
<path fill="none" stroke="#000000" d="M222.3945,-291.5963C222.01,-299.8638 221.5913,-308.8657 221.2036,-317.2008"/>
<polygon fill="#000000" stroke="#000000" points="217.7025,-317.1447 220.7341,-327.2966 224.695,-317.47 217.7025,-317.1447"/>
</g>
<!-- GO:0005575 -->
<g id="node3" class="node">
<title>GO:0005575</title>
<polygon fill="#ffffff" stroke="#000000" points="283.4578,-446.2019 156.0844,-446.2019 156.0844,-404.9981 283.4578,-404.9981 283.4578,-446.2019"/>
<text text-anchor="middle" x="219.7711" y="-429.8" font-family="Times,serif" font-size="14.00" fill="#000000">GO:0005575</text>
<text text-anchor="middle" x="219.7711" y="-413" font-family="Times,serif" font-size="14.00" fill="#000000">cellular_component</text>
</g>
<!-- GO:0043226&#45;&gt;GO:0005575 -->
<g id="edge2" class="edge">
<title>GO:0043226&#45;&gt;GO:0005575</title>
<path fill="none" stroke="#000000" d="M219.7711,-368.7954C219.7711,-376.7109 219.7711,-385.9109 219.7711,-394.5722"/>
<polygon fill="#000000" stroke="#000000" points="216.2712,-394.7472 219.7711,-404.7472 223.2712,-394.7473 216.2712,-394.7472"/>
</g>
<!-- GO:0070062 -->
<g id="node4" class="node">
<title>GO:0070062</title>
<polygon fill="#ffff00" stroke="#000000" points="223.4923,-41.4019 84.0499,-41.4019 84.0499,-.1981 223.4923,-.1981 223.4923,-41.4019"/>
<text text-anchor="middle" x="153.7711" y="-25" font-family="Times,serif" font-size="14.00" fill="#000000">GO:0070062</text>
<text text-anchor="middle" x="153.7711" y="-8.2" font-family="Times,serif" font-size="14.00" fill="#000000">extracellular exosome</text>
</g>
<!-- GO:1903561 -->
<g id="node5" class="node">
<title>GO:1903561</title>
<polygon fill="#ffffff" stroke="#000000" points="135.0977,-119.0019 6.4445,-119.0019 6.4445,-77.7981 135.0977,-77.7981 135.0977,-119.0019"/>
<text text-anchor="middle" x="70.7711" y="-102.6" font-family="Times,serif" font-size="14.00" fill="#000000">GO:1903561</text>
<text text-anchor="middle" x="70.7711" y="-85.8" font-family="Times,serif" font-size="14.00" fill="#000000">extracellular vesicle</text>
</g>
<!-- GO:0070062&#45;&gt;GO:1903561 -->
<g id="edge3" class="edge">
<title>GO:0070062&#45;&gt;GO:1903561</title>
<path fill="none" stroke="#000000" d="M131.5286,-41.5954C122.0389,-50.4677 110.823,-60.9539 100.6273,-70.4862"/>
<polygon fill="#000000" stroke="#000000" points="97.9894,-68.1611 93.075,-77.5472 102.77,-73.2744 97.9894,-68.1611"/>
</g>
<!-- GO:0031988 -->
<g id="node6" class="node">
<title>GO:0031988</title>
<polygon fill="#ffffff" stroke="#000000" points="323.1018,-119.0019 152.4404,-119.0019 152.4404,-77.7981 323.1018,-77.7981 323.1018,-119.0019"/>
<text text-anchor="middle" x="237.7711" y="-102.6" font-family="Times,serif" font-size="14.00" fill="#000000">GO:0031988</text>
<text text-anchor="middle" x="237.7711" y="-85.8" font-family="Times,serif" font-size="14.00" fill="#000000">membrane&#45;bounded vesicle</text>
</g>
<!-- GO:0070062&#45;&gt;GO:0031988 -->
<g id="edge4" class="edge">
<title>GO:0070062&#45;&gt;GO:0031988</title>
<path fill="none" stroke="#000000" d="M176.2816,-41.5954C185.8856,-50.4677 197.2366,-60.9539 207.5552,-70.4862"/>
<polygon fill="#000000" stroke="#000000" points="205.4781,-73.3324 215.1985,-77.5472 210.2281,-68.1906 205.4781,-73.3324"/>
</g>
<!-- GO:0043230 -->
<g id="node7" class="node">
<title>GO:0043230</title>
<polygon fill="#ffffff" stroke="#000000" points="141.314,-282.6019 .2282,-282.6019 .2282,-241.3981 141.314,-241.3981 141.314,-282.6019"/>
<text text-anchor="middle" x="70.7711" y="-266.2" font-family="Times,serif" font-size="14.00" fill="#000000">GO:0043230</text>
<text text-anchor="middle" x="70.7711" y="-249.4" font-family="Times,serif" font-size="14.00" fill="#000000">extracellular organelle</text>
</g>
<!-- GO:1903561&#45;&gt;GO:0043230 -->
<g id="edge5" class="edge">
<title>GO:1903561&#45;&gt;GO:0043230</title>
<path fill="none" stroke="#000000" d="M70.7711,-119.1201C70.7711,-147.3159 70.7711,-198.0064 70.7711,-230.8099"/>
<polygon fill="#000000" stroke="#000000" points="67.2712,-231.1904 70.7711,-241.1904 74.2712,-231.1905 67.2712,-231.1904"/>
</g>
<!-- GO:0031982 -->
<g id="node8" class="node">
<title>GO:0031982</title>
<polygon fill="#ffffff" stroke="#000000" points="268.375,-196.6019 179.1672,-196.6019 179.1672,-155.3981 268.375,-155.3981 268.375,-196.6019"/>
<text text-anchor="middle" x="223.7711" y="-180.2" font-family="Times,serif" font-size="14.00" fill="#000000">GO:0031982</text>
<text text-anchor="middle" x="223.7711" y="-163.4" font-family="Times,serif" font-size="14.00" fill="#000000">vesicle</text>
</g>
<!-- GO:1903561&#45;&gt;GO:0031982 -->
<g id="edge6" class="edge">
<title>GO:1903561&#45;&gt;GO:0031982</title>
<path fill="none" stroke="#000000" d="M111.7723,-119.1954C130.8856,-128.8895 153.7977,-140.5102 173.9049,-150.7084"/>
<polygon fill="#000000" stroke="#000000" points="172.4206,-153.8799 182.9222,-155.2819 175.5869,-147.637 172.4206,-153.8799"/>
</g>
<!-- GO:0031988&#45;&gt;GO:0031982 -->
<g id="edge7" class="edge">
<title>GO:0031988&#45;&gt;GO:0031982</title>
<path fill="none" stroke="#000000" d="M234.0194,-119.1954C232.5756,-127.1978 230.895,-136.5133 229.3174,-145.2575"/>
<polygon fill="#000000" stroke="#000000" points="225.8643,-144.6847 227.5332,-155.1472 232.7531,-145.9275 225.8643,-144.6847"/>
</g>
<!-- GO:0043230&#45;&gt;GO:0043226 -->
<g id="edge8" class="edge">
<title>GO:0043230&#45;&gt;GO:0043226</title>
<path fill="none" stroke="#000000" d="M106.8398,-282.8182C127.4296,-294.7022 153.4123,-309.699 175.2631,-322.3108"/>
<polygon fill="#000000" stroke="#000000" points="173.624,-325.4059 184.0345,-327.3735 177.1232,-319.3432 173.624,-325.4059"/>
</g>
<!-- GO:0044421 -->
<g id="node9" class="node">
<title>GO:0044421</title>
<polygon fill="#ffffff" stroke="#000000" points="153.2601,-368.6019 2.2821,-368.6019 2.2821,-327.3981 153.2601,-327.3981 153.2601,-368.6019"/>
<text text-anchor="middle" x="77.7711" y="-352.2" font-family="Times,serif" font-size="14.00" fill="#000000">GO:0044421</text>
<text text-anchor="middle" x="77.7711" y="-335.4" font-family="Times,serif" font-size="14.00" fill="#000000">extracellular region part</text>
</g>
<!-- GO:0043230&#45;&gt;GO:0044421 -->
<g id="edge9" class="edge">
<title>GO:0043230&#45;&gt;GO:0044421</title>
<path fill="none" stroke="#000000" d="M72.4656,-282.8182C73.3082,-293.1705 74.3431,-305.8848 75.2745,-317.3271"/>
<polygon fill="#000000" stroke="#000000" points="71.7924,-317.6905 76.0922,-327.3735 78.7693,-317.1225 71.7924,-317.6905"/>
</g>
<!-- GO:0031982&#45;&gt;GO:0043227 -->
<g id="edge10" class="edge">
<title>GO:0031982&#45;&gt;GO:0043227</title>
<path fill="none" stroke="#000000" d="M223.7711,-196.8182C223.7711,-204.5358 223.7711,-213.5662 223.7711,-222.4036"/>
<polygon fill="#000000" stroke="#000000" points="220.2712,-222.5991 223.7711,-232.5991 227.2712,-222.5992 220.2712,-222.5991"/>
</g>
<!-- GO:0044421&#45;&gt;GO:0005575 -->
<g id="edge11" class="edge">
<title>GO:0044421&#45;&gt;GO:0005575</title>
<path fill="none" stroke="#000000" d="M115.8245,-368.7954C133.3333,-378.3635 154.2767,-389.8087 172.7616,-399.9103"/>
<polygon fill="#000000" stroke="#000000" points="171.1591,-403.023 181.6127,-404.7472 174.5159,-396.8804 171.1591,-403.023"/>
</g>
<!-- GO:0044424 -->
<g id="node10" class="node">
<title>GO:0044424</title>
<polygon fill="#ff0000" stroke="#000000" points="414.1695,-282.6019 305.3727,-282.6019 305.3727,-241.3981 414.1695,-241.3981 414.1695,-282.6019"/>
<text text-anchor="middle" x="359.7711" y="-266.2" font-family="Times,serif" font-size="14.00" fill="#000000">GO:0044424</text>
<text text-anchor="middle" x="359.7711" y="-249.4" font-family="Times,serif" font-size="14.00" fill="#000000">intracellular part</text>
</g>
<!-- GO:0044464 -->
<g id="node11" class="node">
<title>GO:0044464</title>
<polygon fill="#ffffff" stroke="#000000" points="387.375,-368.6019 298.1672,-368.6019 298.1672,-327.3981 387.375,-327.3981 387.375,-368.6019"/>
<text text-anchor="middle" x="342.7711" y="-352.2" font-family="Times,serif" font-size="14.00" fill="#000000">GO:0044464</text>
<text text-anchor="middle" x="342.7711" y="-335.4" font-family="Times,serif" font-size="14.00" fill="#000000">cell part</text>
</g>
<!-- GO:0044424&#45;&gt;GO:0044464 -->
<g id="edge12" class="edge">
<title>GO:0044424&#45;&gt;GO:0044464</title>
<path fill="none" stroke="#000000" d="M355.6559,-282.8182C353.6095,-293.1705 351.0962,-305.8848 348.8343,-317.3271"/>
<polygon fill="#000000" stroke="#000000" points="345.3542,-316.8846 346.8484,-327.3735 352.2213,-318.2421 345.3542,-316.8846"/>
</g>
<!-- GO:0044464&#45;&gt;GO:0005575 -->
<g id="edge13" class="edge">
<title>GO:0044464&#45;&gt;GO:0005575</title>
<path fill="none" stroke="#000000" d="M309.8094,-368.7954C294.9191,-378.1896 277.1609,-389.3931 261.3661,-399.358"/>
<polygon fill="#000000" stroke="#000000" points="259.4138,-396.4513 252.8238,-404.7472 263.1489,-402.3715 259.4138,-396.4513"/>
</g>
</g>
</svg>
