<?xml version="1.0" encoding="UTF-8" standalone="no"?>
<!DOCTYPE svg PUBLIC "-//W3C//DTD SVG 1.1//EN"
 "http://www.w3.org/Graphics/SVG/1.1/DTD/svg11.dtd">
<!-- Generated by graphviz version 2.40.1 (20161225.0304)
 -->
<!-- Title: G Pages: 1 -->
<svg width="160pt" height="222pt"
 viewBox="0.00 0.00 160.45 221.60" xmlns="http://www.w3.org/2000/svg" xmlns:xlink="http://www.w3.org/1999/xlink">
<g id="graph0" class="graph" transform="scale(1 1) rotate(0) translate(4 217.6)">
<title>G</title>
<polygon fill="#ffffff" stroke="transparent" points="-4,4 -4,-217.6 156.4496,-217.6 156.4496,4 -4,4"/>
<!-- GO:0071554 -->
<g id="node1" class="node">
<title>GO:0071554</title>
<polygon fill="#ffa500" stroke="#000000" points="152.6751,-58.6014 -.2255,-58.6014 -.2255,.2014 152.6751,.2014 152.6751,-58.6014"/>
<text text-anchor="middle" x="76.2248" y="-41.8" font-family="Times,serif" font-size="14.00" fill="#000000">GO:0071554</text>
<text text-anchor="middle" x="76.2248" y="-25" font-family="Times,serif" font-size="14.00" fill="#000000">cell wall organization or</text>
<text text-anchor="middle" x="76.2248" y="-8.2" font-family="Times,serif" font-size="14.00" fill="#000000">biogenesis</text>
</g>
<!-- GO:0009987 -->
<g id="node2" class="node">
<title>GO:0009987</title>
<polygon fill="#ff0000" stroke="#000000" points="128.181,-135.8019 24.2686,-135.8019 24.2686,-94.5981 128.181,-94.5981 128.181,-135.8019"/>
<text text-anchor="middle" x="76.2248" y="-119.4" font-family="Times,serif" font-size="14.00" fill="#000000">GO:0009987</text>
<text text-anchor="middle" x="76.2248" y="-102.6" font-family="Times,serif" font-size="14.00" fill="#000000">cellular process</text>
</g>
<!-- GO:0071554&#45;&gt;GO:0009987 -->
<g id="edge1" class="edge">
<title>GO:0071554&#45;&gt;GO:0009987</title>
<path fill="none" stroke="#000000" d="M76.2248,-58.7963C76.2248,-67.0638 76.2248,-76.0657 76.2248,-84.4008"/>
<polygon fill="#000000" stroke="#000000" points="72.7249,-84.4965 76.2248,-94.4966 79.7249,-84.4966 72.7249,-84.4965"/>
</g>
<!-- GO:0008150 -->
<g id="node3" class="node">
<title>GO:0008150</title>
<polygon fill="#ffffff" stroke="#000000" points="136.6954,-213.4019 15.7542,-213.4019 15.7542,-172.1981 136.6954,-172.1981 136.6954,-213.4019"/>
<text text-anchor="middle" x="76.2248" y="-197" font-family="Times,serif" font-size="14.00" fill="#000000">GO:0008150</text>
<text text-anchor="middle" x="76.2248" y="-180.2" font-family="Times,serif" font-size="14.00" fill="#000000">biological_process</text>
</g>
<!-- GO:0009987&#45;&gt;GO:0008150 -->
<g id="edge2" class="edge">
<title>GO:0009987&#45;&gt;GO:0008150</title>
<path fill="none" stroke="#000000" d="M76.2248,-135.9954C76.2248,-143.9109 76.2248,-153.1109 76.2248,-161.7722"/>
<polygon fill="#000000" stroke="#000000" points="72.7249,-161.9472 76.2248,-171.9472 79.7249,-161.9473 72.7249,-161.9472"/>
</g>
</g>
</svg>
