<?xml version="1.0" encoding="UTF-8" standalone="no"?>
<!DOCTYPE svg PUBLIC "-//W3C//DTD SVG 1.1//EN"
 "http://www.w3.org/Graphics/SVG/1.1/DTD/svg11.dtd">
<!-- Generated by graphviz version 2.40.1 (20161225.0304)
 -->
<!-- Title: G Pages: 1 -->
<svg width="250pt" height="616pt"
 viewBox="0.00 0.00 250.38 616.00" xmlns="http://www.w3.org/2000/svg" xmlns:xlink="http://www.w3.org/1999/xlink">
<g id="graph0" class="graph" transform="scale(1 1) rotate(0) translate(4 612)">
<title>G</title>
<polygon fill="#ffffff" stroke="transparent" points="-4,4 -4,-612 246.376,-612 246.376,4 -4,4"/>
<!-- GO:0003824 -->
<g id="node1" class="node">
<title>GO:0003824</title>
<polygon fill="#ff0000" stroke="#000000" points="176.7659,-530.2019 67.9411,-530.2019 67.9411,-488.9981 176.7659,-488.9981 176.7659,-530.2019"/>
<text text-anchor="middle" x="122.3535" y="-513.8" font-family="Times,serif" font-size="14.00" fill="#000000">GO:0003824</text>
<text text-anchor="middle" x="122.3535" y="-497" font-family="Times,serif" font-size="14.00" fill="#000000">catalytic activity</text>
</g>
<!-- GO:0003674 -->
<g id="node2" class="node">
<title>GO:0003674</title>
<polygon fill="#ffffff" stroke="#000000" points="184.9866,-607.8019 59.7204,-607.8019 59.7204,-566.5981 184.9866,-566.5981 184.9866,-607.8019"/>
<text text-anchor="middle" x="122.3535" y="-591.4" font-family="Times,serif" font-size="14.00" fill="#000000">GO:0003674</text>
<text text-anchor="middle" x="122.3535" y="-574.6" font-family="Times,serif" font-size="14.00" fill="#000000">molecular_function</text>
</g>
<!-- GO:0003824&#45;&gt;GO:0003674 -->
<g id="edge1" class="edge">
<title>GO:0003824&#45;&gt;GO:0003674</title>
<path fill="none" stroke="#000000" d="M122.3535,-530.3954C122.3535,-538.3109 122.3535,-547.5109 122.3535,-556.1722"/>
<polygon fill="#000000" stroke="#000000" points="118.8536,-556.3472 122.3535,-566.3472 125.8536,-556.3473 118.8536,-556.3472"/>
</g>
<!-- GO:0016413 -->
<g id="node3" class="node">
<title>GO:0016413</title>
<polygon fill="#ffa500" stroke="#000000" points="184.6658,-58.6014 60.0412,-58.6014 60.0412,.2014 184.6658,.2014 184.6658,-58.6014"/>
<text text-anchor="middle" x="122.3535" y="-41.8" font-family="Times,serif" font-size="14.00" fill="#000000">GO:0016413</text>
<text text-anchor="middle" x="122.3535" y="-25" font-family="Times,serif" font-size="14.00" fill="#000000">O&#45;acetyltransferase</text>
<text text-anchor="middle" x="122.3535" y="-8.2" font-family="Times,serif" font-size="14.00" fill="#000000">activity</text>
</g>
<!-- GO:0008374 -->
<g id="node4" class="node">
<title>GO:0008374</title>
<polygon fill="#ffffff" stroke="#000000" points="114.5609,-153.0014 .1461,-153.0014 .1461,-94.1986 114.5609,-94.1986 114.5609,-153.0014"/>
<text text-anchor="middle" x="57.3535" y="-136.2" font-family="Times,serif" font-size="14.00" fill="#000000">GO:0008374</text>
<text text-anchor="middle" x="57.3535" y="-119.4" font-family="Times,serif" font-size="14.00" fill="#000000">O&#45;acyltransferase</text>
<text text-anchor="middle" x="57.3535" y="-102.6" font-family="Times,serif" font-size="14.00" fill="#000000">activity</text>
</g>
<!-- GO:0016413&#45;&gt;GO:0008374 -->
<g id="edge2" class="edge">
<title>GO:0016413&#45;&gt;GO:0008374</title>
<path fill="none" stroke="#000000" d="M102.1434,-58.5513C96.2126,-67.1646 89.6415,-76.7078 83.4011,-85.7708"/>
<polygon fill="#000000" stroke="#000000" points="80.3396,-84.0456 77.5511,-94.2669 86.1051,-88.0154 80.3396,-84.0456"/>
</g>
<!-- GO:0016407 -->
<g id="node5" class="node">
<title>GO:0016407</title>
<polygon fill="#ffffff" stroke="#000000" points="242.3985,-153.0014 132.3085,-153.0014 132.3085,-94.1986 242.3985,-94.1986 242.3985,-153.0014"/>
<text text-anchor="middle" x="187.3535" y="-136.2" font-family="Times,serif" font-size="14.00" fill="#000000">GO:0016407</text>
<text text-anchor="middle" x="187.3535" y="-119.4" font-family="Times,serif" font-size="14.00" fill="#000000">acetyltransferase</text>
<text text-anchor="middle" x="187.3535" y="-102.6" font-family="Times,serif" font-size="14.00" fill="#000000">activity</text>
</g>
<!-- GO:0016413&#45;&gt;GO:0016407 -->
<g id="edge3" class="edge">
<title>GO:0016413&#45;&gt;GO:0016407</title>
<path fill="none" stroke="#000000" d="M142.5636,-58.5513C148.4944,-67.1646 155.0655,-76.7078 161.3059,-85.7708"/>
<polygon fill="#000000" stroke="#000000" points="158.6019,-88.0154 167.1559,-94.2669 164.3674,-84.0456 158.6019,-88.0154"/>
</g>
<!-- GO:0016747 -->
<g id="node6" class="node">
<title>GO:0016747</title>
<polygon fill="#ffffff" stroke="#000000" points="197.0762,-280.8 47.6308,-280.8 47.6308,-188.8 197.0762,-188.8 197.0762,-280.8"/>
<text text-anchor="middle" x="122.3535" y="-264.2" font-family="Times,serif" font-size="14.00" fill="#000000">GO:0016747</text>
<text text-anchor="middle" x="122.3535" y="-247.4" font-family="Times,serif" font-size="14.00" fill="#000000">transferase activity,</text>
<text text-anchor="middle" x="122.3535" y="-230.6" font-family="Times,serif" font-size="14.00" fill="#000000">transferring acyl groups</text>
<text text-anchor="middle" x="122.3535" y="-213.8" font-family="Times,serif" font-size="14.00" fill="#000000">other than amino&#45;acyl</text>
<text text-anchor="middle" x="122.3535" y="-197" font-family="Times,serif" font-size="14.00" fill="#000000">groups</text>
</g>
<!-- GO:0008374&#45;&gt;GO:0016747 -->
<g id="edge4" class="edge">
<title>GO:0008374&#45;&gt;GO:0016747</title>
<path fill="none" stroke="#000000" d="M74.4315,-152.8165C79.2772,-161.1064 84.7184,-170.4151 90.1486,-179.7049"/>
<polygon fill="#000000" stroke="#000000" points="87.2636,-181.705 95.3318,-188.5721 93.3069,-178.1725 87.2636,-181.705"/>
</g>
<!-- GO:0016407&#45;&gt;GO:0016747 -->
<g id="edge5" class="edge">
<title>GO:0016407&#45;&gt;GO:0016747</title>
<path fill="none" stroke="#000000" d="M170.2755,-152.8165C165.4298,-161.1064 159.9886,-170.4151 154.5584,-179.7049"/>
<polygon fill="#000000" stroke="#000000" points="151.4001,-178.1725 149.3752,-188.5721 157.4434,-181.705 151.4001,-178.1725"/>
</g>
<!-- GO:0016746 -->
<g id="node7" class="node">
<title>GO:0016746</title>
<polygon fill="#ffffff" stroke="#000000" points="197.0762,-375.4014 47.6308,-375.4014 47.6308,-316.5986 197.0762,-316.5986 197.0762,-375.4014"/>
<text text-anchor="middle" x="122.3535" y="-358.6" font-family="Times,serif" font-size="14.00" fill="#000000">GO:0016746</text>
<text text-anchor="middle" x="122.3535" y="-341.8" font-family="Times,serif" font-size="14.00" fill="#000000">transferase activity,</text>
<text text-anchor="middle" x="122.3535" y="-325" font-family="Times,serif" font-size="14.00" fill="#000000">transferring acyl groups</text>
</g>
<!-- GO:0016747&#45;&gt;GO:0016746 -->
<g id="edge6" class="edge">
<title>GO:0016747&#45;&gt;GO:0016746</title>
<path fill="none" stroke="#000000" d="M122.3535,-280.9928C122.3535,-289.468 122.3535,-298.2437 122.3535,-306.5009"/>
<polygon fill="#000000" stroke="#000000" points="118.8536,-306.621 122.3535,-316.621 125.8536,-306.621 118.8536,-306.621"/>
</g>
<!-- GO:0016740 -->
<g id="node8" class="node">
<title>GO:0016740</title>
<polygon fill="#ffffff" stroke="#000000" points="183.4652,-452.6019 61.2418,-452.6019 61.2418,-411.3981 183.4652,-411.3981 183.4652,-452.6019"/>
<text text-anchor="middle" x="122.3535" y="-436.2" font-family="Times,serif" font-size="14.00" fill="#000000">GO:0016740</text>
<text text-anchor="middle" x="122.3535" y="-419.4" font-family="Times,serif" font-size="14.00" fill="#000000">transferase activity</text>
</g>
<!-- GO:0016746&#45;&gt;GO:0016740 -->
<g id="edge7" class="edge">
<title>GO:0016746&#45;&gt;GO:0016740</title>
<path fill="none" stroke="#000000" d="M122.3535,-375.5963C122.3535,-383.8638 122.3535,-392.8657 122.3535,-401.2008"/>
<polygon fill="#000000" stroke="#000000" points="118.8536,-401.2965 122.3535,-411.2966 125.8536,-401.2966 118.8536,-401.2965"/>
</g>
<!-- GO:0016740&#45;&gt;GO:0003824 -->
<g id="edge8" class="edge">
<title>GO:0016740&#45;&gt;GO:0003824</title>
<path fill="none" stroke="#000000" d="M122.3535,-452.7954C122.3535,-460.7109 122.3535,-469.9109 122.3535,-478.5722"/>
<polygon fill="#000000" stroke="#000000" points="118.8536,-478.7472 122.3535,-488.7472 125.8536,-478.7473 118.8536,-478.7472"/>
</g>
</g>
</svg>
