<?xml version="1.0" encoding="UTF-8" standalone="no"?>
<!DOCTYPE svg PUBLIC "-//W3C//DTD SVG 1.1//EN"
 "http://www.w3.org/Graphics/SVG/1.1/DTD/svg11.dtd">
<!-- Generated by graphviz version 2.40.1 (20161225.0304)
 -->
<!-- Title: G Pages: 1 -->
<svg width="276pt" height="282pt"
 viewBox="0.00 0.00 275.70 282.40" xmlns="http://www.w3.org/2000/svg" xmlns:xlink="http://www.w3.org/1999/xlink">
<g id="graph0" class="graph" transform="scale(1 1) rotate(0) translate(4 278.4)">
<title>G</title>
<polygon fill="#ffffff" stroke="transparent" points="-4,4 -4,-278.4 271.7024,-278.4 271.7024,4 -4,4"/>
<!-- GO:0005615 -->
<g id="node1" class="node">
<title>GO:0005615</title>
<polygon fill="#ffff00" stroke="#000000" points="135.29,-119.0019 15.1982,-119.0019 15.1982,-77.7981 135.29,-77.7981 135.29,-119.0019"/>
<text text-anchor="middle" x="75.2441" y="-102.6" font-family="Times,serif" font-size="14.00" fill="#000000">GO:0005615</text>
<text text-anchor="middle" x="75.2441" y="-85.8" font-family="Times,serif" font-size="14.00" fill="#000000">extracellular space</text>
</g>
<!-- GO:0044421 -->
<g id="node2" class="node">
<title>GO:0044421</title>
<polygon fill="#ffa500" stroke="#000000" points="150.7331,-196.6019 -.2449,-196.6019 -.2449,-155.3981 150.7331,-155.3981 150.7331,-196.6019"/>
<text text-anchor="middle" x="75.2441" y="-180.2" font-family="Times,serif" font-size="14.00" fill="#000000">GO:0044421</text>
<text text-anchor="middle" x="75.2441" y="-163.4" font-family="Times,serif" font-size="14.00" fill="#000000">extracellular region part</text>
</g>
<!-- GO:0005615&#45;&gt;GO:0044421 -->
<g id="edge1" class="edge">
<title>GO:0005615&#45;&gt;GO:0044421</title>
<path fill="none" stroke="#000000" d="M75.2441,-119.1954C75.2441,-127.1109 75.2441,-136.3109 75.2441,-144.9722"/>
<polygon fill="#000000" stroke="#000000" points="71.7442,-145.1472 75.2441,-155.1472 78.7442,-145.1473 71.7442,-145.1472"/>
</g>
<!-- GO:0005575 -->
<g id="node3" class="node">
<title>GO:0005575</title>
<polygon fill="#ffffff" stroke="#000000" points="207.9308,-274.2019 80.5574,-274.2019 80.5574,-232.9981 207.9308,-232.9981 207.9308,-274.2019"/>
<text text-anchor="middle" x="144.2441" y="-257.8" font-family="Times,serif" font-size="14.00" fill="#000000">GO:0005575</text>
<text text-anchor="middle" x="144.2441" y="-241" font-family="Times,serif" font-size="14.00" fill="#000000">cellular_component</text>
</g>
<!-- GO:0044421&#45;&gt;GO:0005575 -->
<g id="edge2" class="edge">
<title>GO:0044421&#45;&gt;GO:0005575</title>
<path fill="none" stroke="#000000" d="M93.7348,-196.7954C101.4692,-205.4937 110.5828,-215.7433 118.9243,-225.1244"/>
<polygon fill="#000000" stroke="#000000" points="116.4419,-227.5999 125.7023,-232.7472 121.673,-222.9485 116.4419,-227.5999"/>
</g>
<!-- GO:0044464 -->
<g id="node4" class="node">
<title>GO:0044464</title>
<polygon fill="#ffa500" stroke="#000000" points="257.848,-196.6019 168.6402,-196.6019 168.6402,-155.3981 257.848,-155.3981 257.848,-196.6019"/>
<text text-anchor="middle" x="213.2441" y="-180.2" font-family="Times,serif" font-size="14.00" fill="#000000">GO:0044464</text>
<text text-anchor="middle" x="213.2441" y="-163.4" font-family="Times,serif" font-size="14.00" fill="#000000">cell part</text>
</g>
<!-- GO:0044464&#45;&gt;GO:0005575 -->
<g id="edge3" class="edge">
<title>GO:0044464&#45;&gt;GO:0005575</title>
<path fill="none" stroke="#000000" d="M194.7534,-196.7954C187.019,-205.4937 177.9054,-215.7433 169.5639,-225.1244"/>
<polygon fill="#000000" stroke="#000000" points="166.8152,-222.9485 162.7859,-232.7472 172.0463,-227.5999 166.8152,-222.9485"/>
</g>
<!-- GO:0044444 -->
<g id="node5" class="node">
<title>GO:0044444</title>
<polygon fill="#00ffff" stroke="#000000" points="267.6607,-41.4019 158.8275,-41.4019 158.8275,-.1981 267.6607,-.1981 267.6607,-41.4019"/>
<text text-anchor="middle" x="213.2441" y="-25" font-family="Times,serif" font-size="14.00" fill="#000000">GO:0044444</text>
<text text-anchor="middle" x="213.2441" y="-8.2" font-family="Times,serif" font-size="14.00" fill="#000000">cytoplasmic part</text>
</g>
<!-- GO:0044424 -->
<g id="node6" class="node">
<title>GO:0044424</title>
<polygon fill="#ffff00" stroke="#000000" points="267.6425,-119.0019 158.8457,-119.0019 158.8457,-77.7981 267.6425,-77.7981 267.6425,-119.0019"/>
<text text-anchor="middle" x="213.2441" y="-102.6" font-family="Times,serif" font-size="14.00" fill="#000000">GO:0044424</text>
<text text-anchor="middle" x="213.2441" y="-85.8" font-family="Times,serif" font-size="14.00" fill="#000000">intracellular part</text>
</g>
<!-- GO:0044444&#45;&gt;GO:0044424 -->
<g id="edge4" class="edge">
<title>GO:0044444&#45;&gt;GO:0044424</title>
<path fill="none" stroke="#000000" d="M213.2441,-41.5954C213.2441,-49.5109 213.2441,-58.7109 213.2441,-67.3722"/>
<polygon fill="#000000" stroke="#000000" points="209.7442,-67.5472 213.2441,-77.5472 216.7442,-67.5473 209.7442,-67.5472"/>
</g>
<!-- GO:0044424&#45;&gt;GO:0044464 -->
<g id="edge5" class="edge">
<title>GO:0044424&#45;&gt;GO:0044464</title>
<path fill="none" stroke="#000000" d="M213.2441,-119.1954C213.2441,-127.1109 213.2441,-136.3109 213.2441,-144.9722"/>
<polygon fill="#000000" stroke="#000000" points="209.7442,-145.1472 213.2441,-155.1472 216.7442,-145.1473 209.7442,-145.1472"/>
</g>
</g>
</svg>
