<?xml version="1.0" encoding="UTF-8" standalone="no"?>
<!DOCTYPE svg PUBLIC "-//W3C//DTD SVG 1.1//EN"
 "http://www.w3.org/Graphics/SVG/1.1/DTD/svg11.dtd">
<!-- Generated by graphviz version 2.40.1 (20161225.0304)
 -->
<!-- Title: G Pages: 1 -->
<svg width="1228pt" height="427pt"
 viewBox="0.00 0.00 1228.10 427.20" xmlns="http://www.w3.org/2000/svg" xmlns:xlink="http://www.w3.org/1999/xlink">
<g id="graph0" class="graph" transform="scale(1 1) rotate(0) translate(4 423.2)">
<title>G</title>
<polygon fill="#ffffff" stroke="transparent" points="-4,4 -4,-423.2 1224.1042,-423.2 1224.1042,4 -4,4"/>
<!-- GO:0080090 -->
<g id="node1" class="node">
<title>GO:0080090</title>
<polygon fill="#00ffff" stroke="#000000" points="747.1161,-153.0014 611.6371,-153.0014 611.6371,-94.1986 747.1161,-94.1986 747.1161,-153.0014"/>
<text text-anchor="middle" x="679.3766" y="-136.2" font-family="Times,serif" font-size="14.00" fill="#000000">GO:0080090</text>
<text text-anchor="middle" x="679.3766" y="-119.4" font-family="Times,serif" font-size="14.00" fill="#000000">regulation of primary</text>
<text text-anchor="middle" x="679.3766" y="-102.6" font-family="Times,serif" font-size="14.00" fill="#000000">metabolic process</text>
</g>
<!-- GO:0019222 -->
<g id="node2" class="node">
<title>GO:0019222</title>
<polygon fill="#00ffff" stroke="#000000" points="769.5055,-247.4014 623.2477,-247.4014 623.2477,-188.5986 769.5055,-188.5986 769.5055,-247.4014"/>
<text text-anchor="middle" x="696.3766" y="-230.6" font-family="Times,serif" font-size="14.00" fill="#000000">GO:0019222</text>
<text text-anchor="middle" x="696.3766" y="-213.8" font-family="Times,serif" font-size="14.00" fill="#000000">regulation of metabolic</text>
<text text-anchor="middle" x="696.3766" y="-197" font-family="Times,serif" font-size="14.00" fill="#000000">process</text>
</g>
<!-- GO:0080090&#45;&gt;GO:0019222 -->
<g id="edge1" class="edge">
<title>GO:0080090&#45;&gt;GO:0019222</title>
<path fill="none" stroke="#000000" d="M684.6623,-152.9513C686.1335,-161.1206 687.7553,-170.1264 689.3111,-178.7657"/>
<polygon fill="#000000" stroke="#000000" points="685.8771,-179.4455 691.0941,-188.6669 692.7663,-178.2048 685.8771,-179.4455"/>
</g>
<!-- GO:0065007 -->
<g id="node3" class="node">
<title>GO:0065007</title>
<polygon fill="#ffff00" stroke="#000000" points="682.63,-333.0019 550.1232,-333.0019 550.1232,-291.7981 682.63,-291.7981 682.63,-333.0019"/>
<text text-anchor="middle" x="616.3766" y="-316.6" font-family="Times,serif" font-size="14.00" fill="#000000">GO:0065007</text>
<text text-anchor="middle" x="616.3766" y="-299.8" font-family="Times,serif" font-size="14.00" fill="#000000">biological regulation</text>
</g>
<!-- GO:0019222&#45;&gt;GO:0065007 -->
<g id="edge2" class="edge">
<title>GO:0019222&#45;&gt;GO:0065007</title>
<path fill="none" stroke="#000000" d="M671.5026,-247.3513C661.5895,-259.0488 650.2228,-272.4615 640.3961,-284.057"/>
<polygon fill="#000000" stroke="#000000" points="637.6709,-281.8592 633.8758,-291.751 643.0112,-286.3848 637.6709,-281.8592"/>
</g>
<!-- GO:0050789 -->
<g id="node4" class="node">
<title>GO:0050789</title>
<polygon fill="#ffff00" stroke="#000000" points="532.291,-341.8014 384.4622,-341.8014 384.4622,-282.9986 532.291,-282.9986 532.291,-341.8014"/>
<text text-anchor="middle" x="458.3766" y="-325" font-family="Times,serif" font-size="14.00" fill="#000000">GO:0050789</text>
<text text-anchor="middle" x="458.3766" y="-308.2" font-family="Times,serif" font-size="14.00" fill="#000000">regulation of biological</text>
<text text-anchor="middle" x="458.3766" y="-291.4" font-family="Times,serif" font-size="14.00" fill="#000000">process</text>
</g>
<!-- GO:0019222&#45;&gt;GO:0050789 -->
<g id="edge3" class="edge">
<title>GO:0019222&#45;&gt;GO:0050789</title>
<path fill="none" stroke="#000000" d="M623.0267,-247.0934C597.36,-257.2738 568.3536,-268.7789 541.9169,-279.2647"/>
<polygon fill="#000000" stroke="#000000" points="540.3093,-276.137 532.3042,-283.0775 542.8902,-282.6439 540.3093,-276.137"/>
</g>
<!-- GO:0008150 -->
<g id="node5" class="node">
<title>GO:0008150</title>
<polygon fill="#ffffff" stroke="#000000" points="923.8472,-419.0019 802.906,-419.0019 802.906,-377.7981 923.8472,-377.7981 923.8472,-419.0019"/>
<text text-anchor="middle" x="863.3766" y="-402.6" font-family="Times,serif" font-size="14.00" fill="#000000">GO:0008150</text>
<text text-anchor="middle" x="863.3766" y="-385.8" font-family="Times,serif" font-size="14.00" fill="#000000">biological_process</text>
</g>
<!-- GO:0065007&#45;&gt;GO:0008150 -->
<g id="edge4" class="edge">
<title>GO:0065007&#45;&gt;GO:0008150</title>
<path fill="none" stroke="#000000" d="M675.8536,-333.1086C711.496,-345.5185 756.9721,-361.3523 794.2142,-374.3192"/>
<polygon fill="#000000" stroke="#000000" points="793.3933,-377.7394 803.9881,-377.7222 795.695,-371.1286 793.3933,-377.7394"/>
</g>
<!-- GO:0050789&#45;&gt;GO:0008150 -->
<g id="edge5" class="edge">
<title>GO:0050789&#45;&gt;GO:0008150</title>
<path fill="none" stroke="#000000" d="M532.4016,-339.1175C535.4214,-339.9931 538.4214,-340.8251 541.3766,-341.6 626.5947,-363.9455 726.8311,-380.0731 792.5565,-389.3092"/>
<polygon fill="#000000" stroke="#000000" points="792.4147,-392.8231 802.8011,-390.7323 793.3778,-385.8896 792.4147,-392.8231"/>
</g>
<!-- GO:0051049 -->
<g id="node6" class="node">
<title>GO:0051049</title>
<polygon fill="#00ffff" stroke="#000000" points="906.0605,-144.2019 764.6927,-144.2019 764.6927,-102.9981 906.0605,-102.9981 906.0605,-144.2019"/>
<text text-anchor="middle" x="835.3766" y="-127.8" font-family="Times,serif" font-size="14.00" fill="#000000">GO:0051049</text>
<text text-anchor="middle" x="835.3766" y="-111" font-family="Times,serif" font-size="14.00" fill="#000000">regulation of transport</text>
</g>
<!-- GO:0032879 -->
<g id="node7" class="node">
<title>GO:0032879</title>
<polygon fill="#00ffff" stroke="#000000" points="876.9805,-247.4014 787.7727,-247.4014 787.7727,-188.5986 876.9805,-188.5986 876.9805,-247.4014"/>
<text text-anchor="middle" x="832.3766" y="-230.6" font-family="Times,serif" font-size="14.00" fill="#000000">GO:0032879</text>
<text text-anchor="middle" x="832.3766" y="-213.8" font-family="Times,serif" font-size="14.00" fill="#000000">regulation of</text>
<text text-anchor="middle" x="832.3766" y="-197" font-family="Times,serif" font-size="14.00" fill="#000000">localization</text>
</g>
<!-- GO:0051049&#45;&gt;GO:0032879 -->
<g id="edge6" class="edge">
<title>GO:0051049&#45;&gt;GO:0032879</title>
<path fill="none" stroke="#000000" d="M834.7108,-144.5504C834.393,-154.5492 834.0021,-166.8525 833.6316,-178.5106"/>
<polygon fill="#000000" stroke="#000000" points="830.1331,-178.4094 833.3136,-188.5155 837.1296,-178.6318 830.1331,-178.4094"/>
</g>
<!-- GO:0032879&#45;&gt;GO:0065007 -->
<g id="edge7" class="edge">
<title>GO:0032879&#45;&gt;GO:0065007</title>
<path fill="none" stroke="#000000" d="M787.7871,-242.6146C784.6224,-244.2061 781.4635,-245.7499 778.3766,-247.2 747.0543,-261.9142 711.4565,-276.4693 681.6233,-288.0819"/>
<polygon fill="#000000" stroke="#000000" points="680.2164,-284.8733 672.1525,-291.7453 682.7418,-291.4019 680.2164,-284.8733"/>
</g>
<!-- GO:0032879&#45;&gt;GO:0050789 -->
<g id="edge8" class="edge">
<title>GO:0032879&#45;&gt;GO:0050789</title>
<path fill="none" stroke="#000000" d="M787.8205,-243.5872C784.6754,-244.9271 781.5094,-246.1506 778.3766,-247.2 680.4106,-280.0161 646.7858,-258.786 542.3689,-283.1722"/>
<polygon fill="#000000" stroke="#000000" points="541.2733,-279.8362 532.3785,-285.5925 542.9215,-286.6394 541.2733,-279.8362"/>
</g>
<!-- GO:0048518 -->
<g id="node8" class="node">
<title>GO:0048518</title>
<polygon fill="#00ff00" stroke="#000000" points="296.13,-247.4014 160.6232,-247.4014 160.6232,-188.5986 296.13,-188.5986 296.13,-247.4014"/>
<text text-anchor="middle" x="228.3766" y="-230.6" font-family="Times,serif" font-size="14.00" fill="#000000">GO:0048518</text>
<text text-anchor="middle" x="228.3766" y="-213.8" font-family="Times,serif" font-size="14.00" fill="#000000">positive regulation of</text>
<text text-anchor="middle" x="228.3766" y="-197" font-family="Times,serif" font-size="14.00" fill="#000000">biological process</text>
</g>
<!-- GO:0048518&#45;&gt;GO:0065007 -->
<g id="edge9" class="edge">
<title>GO:0048518&#45;&gt;GO:0065007</title>
<path fill="none" stroke="#000000" d="M296.1432,-244.5868C299.2466,-245.5232 302.3345,-246.4008 305.3766,-247.2 407.9962,-274.1609 438.8768,-255.7872 541.3766,-283.2 546.776,-284.644 552.3191,-286.3497 557.8293,-288.2"/>
<polygon fill="#000000" stroke="#000000" points="557.0789,-291.6461 567.6737,-291.6614 559.4008,-285.0424 557.0789,-291.6461"/>
</g>
<!-- GO:0048518&#45;&gt;GO:0050789 -->
<g id="edge10" class="edge">
<title>GO:0048518&#45;&gt;GO:0050789</title>
<path fill="none" stroke="#000000" d="M296.1402,-245.8125C321.7433,-256.3209 351.1272,-268.3811 377.7921,-279.3253"/>
<polygon fill="#000000" stroke="#000000" points="376.5196,-282.5863 387.0997,-283.1455 379.1776,-276.1106 376.5196,-282.5863"/>
</g>
<!-- GO:0048519 -->
<g id="node9" class="node">
<title>GO:0048519</title>
<polygon fill="#00ff00" stroke="#000000" points="604.7239,-247.4014 466.0293,-247.4014 466.0293,-188.5986 604.7239,-188.5986 604.7239,-247.4014"/>
<text text-anchor="middle" x="535.3766" y="-230.6" font-family="Times,serif" font-size="14.00" fill="#000000">GO:0048519</text>
<text text-anchor="middle" x="535.3766" y="-213.8" font-family="Times,serif" font-size="14.00" fill="#000000">negative regulation of</text>
<text text-anchor="middle" x="535.3766" y="-197" font-family="Times,serif" font-size="14.00" fill="#000000">biological process</text>
</g>
<!-- GO:0048519&#45;&gt;GO:0065007 -->
<g id="edge11" class="edge">
<title>GO:0048519&#45;&gt;GO:0065007</title>
<path fill="none" stroke="#000000" d="M560.5615,-247.3513C570.5985,-259.0488 582.1073,-272.4615 592.0569,-284.057"/>
<polygon fill="#000000" stroke="#000000" points="589.4906,-286.441 598.6587,-291.751 594.803,-281.8826 589.4906,-286.441"/>
</g>
<!-- GO:0048519&#45;&gt;GO:0050789 -->
<g id="edge12" class="edge">
<title>GO:0048519&#45;&gt;GO:0050789</title>
<path fill="none" stroke="#000000" d="M511.4354,-247.3513C504.2649,-256.1422 496.3042,-265.9018 488.7763,-275.1308"/>
<polygon fill="#000000" stroke="#000000" points="485.9116,-273.1055 482.303,-283.0669 491.336,-277.53 485.9116,-273.1055"/>
</g>
<!-- GO:0051050 -->
<g id="node10" class="node">
<title>GO:0051050</title>
<polygon fill="#ff00ff" stroke="#000000" points="557.13,-58.6014 421.6232,-58.6014 421.6232,.2014 557.13,.2014 557.13,-58.6014"/>
<text text-anchor="middle" x="489.3766" y="-41.8" font-family="Times,serif" font-size="14.00" fill="#000000">GO:0051050</text>
<text text-anchor="middle" x="489.3766" y="-25" font-family="Times,serif" font-size="14.00" fill="#000000">positive regulation of</text>
<text text-anchor="middle" x="489.3766" y="-8.2" font-family="Times,serif" font-size="14.00" fill="#000000">transport</text>
</g>
<!-- GO:0051050&#45;&gt;GO:0051049 -->
<g id="edge14" class="edge">
<title>GO:0051050&#45;&gt;GO:0051049</title>
<path fill="none" stroke="#000000" d="M557.1669,-43.4998C611.4852,-55.4969 689.4142,-73.9224 756.3766,-94.4 761.6202,-96.0035 767.0228,-97.7639 772.4252,-99.6006"/>
<polygon fill="#000000" stroke="#000000" points="771.5202,-102.9915 782.115,-102.972 773.8205,-96.3802 771.5202,-102.9915"/>
</g>
<!-- GO:0051050&#45;&gt;GO:0048518 -->
<g id="edge13" class="edge">
<title>GO:0051050&#45;&gt;GO:0048518</title>
<path fill="none" stroke="#000000" d="M421.5304,-32.8896C335.5126,-39.1497 194.5011,-55.2379 162.3766,-94.4 145.9152,-114.4677 152.3708,-128.8506 162.3766,-152.8 166.7467,-163.2601 173.7027,-172.8969 181.4923,-181.3724"/>
<polygon fill="#000000" stroke="#000000" points="179.0031,-183.833 188.5082,-188.5132 183.9964,-178.9271 179.0031,-183.833"/>
</g>
<!-- GO:0010033 -->
<g id="node11" class="node">
<title>GO:0010033</title>
<polygon fill="#00ff00" stroke="#000000" points="1048.7267,-153.0014 924.0265,-153.0014 924.0265,-94.1986 1048.7267,-94.1986 1048.7267,-153.0014"/>
<text text-anchor="middle" x="986.3766" y="-136.2" font-family="Times,serif" font-size="14.00" fill="#000000">GO:0010033</text>
<text text-anchor="middle" x="986.3766" y="-119.4" font-family="Times,serif" font-size="14.00" fill="#000000">response to organic</text>
<text text-anchor="middle" x="986.3766" y="-102.6" font-family="Times,serif" font-size="14.00" fill="#000000">substance</text>
</g>
<!-- GO:0042221 -->
<g id="node12" class="node">
<title>GO:0042221</title>
<polygon fill="#ffffff" stroke="#000000" points="1028.277,-238.6019 894.4762,-238.6019 894.4762,-197.3981 1028.277,-197.3981 1028.277,-238.6019"/>
<text text-anchor="middle" x="961.3766" y="-222.2" font-family="Times,serif" font-size="14.00" fill="#000000">GO:0042221</text>
<text text-anchor="middle" x="961.3766" y="-205.4" font-family="Times,serif" font-size="14.00" fill="#000000">response to chemical</text>
</g>
<!-- GO:0010033&#45;&gt;GO:0042221 -->
<g id="edge15" class="edge">
<title>GO:0010033&#45;&gt;GO:0042221</title>
<path fill="none" stroke="#000000" d="M978.6035,-152.9513C975.6844,-163.9739 972.3619,-176.5196 969.4188,-187.6326"/>
<polygon fill="#000000" stroke="#000000" points="966.0218,-186.7882 966.8451,-197.351 972.7886,-188.5803 966.0218,-186.7882"/>
</g>
<!-- GO:0050896 -->
<g id="node13" class="node">
<title>GO:0050896</title>
<polygon fill="#ffff00" stroke="#000000" points="928.6982,-333.0019 798.055,-333.0019 798.055,-291.7981 928.6982,-291.7981 928.6982,-333.0019"/>
<text text-anchor="middle" x="863.3766" y="-316.6" font-family="Times,serif" font-size="14.00" fill="#000000">GO:0050896</text>
<text text-anchor="middle" x="863.3766" y="-299.8" font-family="Times,serif" font-size="14.00" fill="#000000">response to stimulus</text>
</g>
<!-- GO:0042221&#45;&gt;GO:0050896 -->
<g id="edge16" class="edge">
<title>GO:0042221&#45;&gt;GO:0050896</title>
<path fill="none" stroke="#000000" d="M939.6272,-238.9504C925.7976,-252.272 907.7216,-269.684 892.6404,-284.2112"/>
<polygon fill="#000000" stroke="#000000" points="889.8392,-282.0498 885.0652,-291.5081 894.6955,-287.0913 889.8392,-282.0498"/>
</g>
<!-- GO:0050896&#45;&gt;GO:0008150 -->
<g id="edge17" class="edge">
<title>GO:0050896&#45;&gt;GO:0008150</title>
<path fill="none" stroke="#000000" d="M863.3766,-333.2182C863.3766,-343.5705 863.3766,-356.2848 863.3766,-367.7271"/>
<polygon fill="#000000" stroke="#000000" points="859.8767,-367.7735 863.3766,-377.7735 866.8767,-367.7735 859.8767,-367.7735"/>
</g>
<!-- GO:0023051 -->
<g id="node14" class="node">
<title>GO:0023051</title>
<polygon fill="#00ffff" stroke="#000000" points="142.63,-238.6019 .1232,-238.6019 .1232,-197.3981 142.63,-197.3981 142.63,-238.6019"/>
<text text-anchor="middle" x="71.3766" y="-222.2" font-family="Times,serif" font-size="14.00" fill="#000000">GO:0023051</text>
<text text-anchor="middle" x="71.3766" y="-205.4" font-family="Times,serif" font-size="14.00" fill="#000000">regulation of signaling</text>
</g>
<!-- GO:0023051&#45;&gt;GO:0065007 -->
<g id="edge18" class="edge">
<title>GO:0023051&#45;&gt;GO:0065007</title>
<path fill="none" stroke="#000000" d="M122.0015,-238.6957C131.6257,-241.9934 141.7115,-245.0284 151.3766,-247.2 321.2128,-285.359 371.9565,-243.2343 541.3766,-283.2 547.2138,-284.577 553.202,-286.3131 559.1264,-288.2491"/>
<polygon fill="#000000" stroke="#000000" points="558.4039,-291.7028 568.9986,-291.6681 560.6947,-285.0882 558.4039,-291.7028"/>
</g>
<!-- GO:0023051&#45;&gt;GO:0050789 -->
<g id="edge19" class="edge">
<title>GO:0023051&#45;&gt;GO:0050789</title>
<path fill="none" stroke="#000000" d="M124.8255,-238.6836C133.6282,-241.75 142.708,-244.7108 151.3766,-247.2 225.7906,-268.5676 312.1761,-286.3015 374.3193,-297.8528"/>
<polygon fill="#000000" stroke="#000000" points="373.9972,-301.3523 384.4662,-299.724 375.2668,-294.4684 373.9972,-301.3523"/>
</g>
<!-- GO:0050794 -->
<g id="node15" class="node">
<title>GO:0050794</title>
<polygon fill="#ffff00" stroke="#000000" points="448.2756,-247.4014 314.4776,-247.4014 314.4776,-188.5986 448.2756,-188.5986 448.2756,-247.4014"/>
<text text-anchor="middle" x="381.3766" y="-230.6" font-family="Times,serif" font-size="14.00" fill="#000000">GO:0050794</text>
<text text-anchor="middle" x="381.3766" y="-213.8" font-family="Times,serif" font-size="14.00" fill="#000000">regulation of cellular</text>
<text text-anchor="middle" x="381.3766" y="-197" font-family="Times,serif" font-size="14.00" fill="#000000">process</text>
</g>
<!-- GO:0050794&#45;&gt;GO:0065007 -->
<g id="edge20" class="edge">
<title>GO:0050794&#45;&gt;GO:0065007</title>
<path fill="none" stroke="#000000" d="M448.0896,-244.7987C481.8063,-258.3428 522.4317,-274.6621 555.3195,-287.8732"/>
<polygon fill="#000000" stroke="#000000" points="554.2345,-291.2092 564.8185,-291.689 556.8438,-284.7137 554.2345,-291.2092"/>
</g>
<!-- GO:0050794&#45;&gt;GO:0050789 -->
<g id="edge21" class="edge">
<title>GO:0050794&#45;&gt;GO:0050789</title>
<path fill="none" stroke="#000000" d="M405.3178,-247.3513C412.4883,-256.1422 420.449,-265.9018 427.9769,-275.1308"/>
<polygon fill="#000000" stroke="#000000" points="425.4172,-277.53 434.4502,-283.0669 430.8416,-273.1055 425.4172,-277.53"/>
</g>
<!-- GO:0010646 -->
<g id="node16" class="node">
<title>GO:0010646</title>
<polygon fill="#00ffff" stroke="#000000" points="437.0098,-153.0014 325.7434,-153.0014 325.7434,-94.1986 437.0098,-94.1986 437.0098,-153.0014"/>
<text text-anchor="middle" x="381.3766" y="-136.2" font-family="Times,serif" font-size="14.00" fill="#000000">GO:0010646</text>
<text text-anchor="middle" x="381.3766" y="-119.4" font-family="Times,serif" font-size="14.00" fill="#000000">regulation of cell</text>
<text text-anchor="middle" x="381.3766" y="-102.6" font-family="Times,serif" font-size="14.00" fill="#000000">communication</text>
</g>
<!-- GO:0010646&#45;&gt;GO:0050794 -->
<g id="edge22" class="edge">
<title>GO:0010646&#45;&gt;GO:0050794</title>
<path fill="none" stroke="#000000" d="M381.3766,-152.9513C381.3766,-161.0318 381.3766,-169.9308 381.3766,-178.4838"/>
<polygon fill="#000000" stroke="#000000" points="377.8767,-178.6668 381.3766,-188.6669 384.8767,-178.6669 377.8767,-178.6668"/>
</g>
<!-- GO:0044699 -->
<g id="node17" class="node">
<title>GO:0044699</title>
<polygon fill="#00ff00" stroke="#000000" points="1098.0579,-333.0019 946.6953,-333.0019 946.6953,-291.7981 1098.0579,-291.7981 1098.0579,-333.0019"/>
<text text-anchor="middle" x="1022.3766" y="-316.6" font-family="Times,serif" font-size="14.00" fill="#000000">GO:0044699</text>
<text text-anchor="middle" x="1022.3766" y="-299.8" font-family="Times,serif" font-size="14.00" fill="#000000">single&#45;organism process</text>
</g>
<!-- GO:0044699&#45;&gt;GO:0008150 -->
<g id="edge23" class="edge">
<title>GO:0044699&#45;&gt;GO:0008150</title>
<path fill="none" stroke="#000000" d="M983.8871,-333.2182C961.8179,-345.155 933.9424,-360.2323 910.5611,-372.8788"/>
<polygon fill="#000000" stroke="#000000" points="908.6423,-369.9374 901.5116,-377.7735 911.9726,-376.0945 908.6423,-369.9374"/>
</g>
<!-- GO:0009719 -->
<g id="node18" class="node">
<title>GO:0009719</title>
<polygon fill="#00ffff" stroke="#000000" points="1196.1202,-247.4014 1046.633,-247.4014 1046.633,-188.5986 1196.1202,-188.5986 1196.1202,-247.4014"/>
<text text-anchor="middle" x="1121.3766" y="-230.6" font-family="Times,serif" font-size="14.00" fill="#000000">GO:0009719</text>
<text text-anchor="middle" x="1121.3766" y="-213.8" font-family="Times,serif" font-size="14.00" fill="#000000">response to endogenous</text>
<text text-anchor="middle" x="1121.3766" y="-197" font-family="Times,serif" font-size="14.00" fill="#000000">stimulus</text>
</g>
<!-- GO:0009719&#45;&gt;GO:0050896 -->
<g id="edge24" class="edge">
<title>GO:0009719&#45;&gt;GO:0050896</title>
<path fill="none" stroke="#000000" d="M1046.526,-244.2234C1005.1338,-258.7844 958.0074,-275.4771 937.3766,-283.2 933.189,-284.7676 928.8771,-286.4057 924.5392,-288.0714"/>
<polygon fill="#000000" stroke="#000000" points="923.1039,-284.8738 915.0396,-291.7454 925.6289,-291.4025 923.1039,-284.8738"/>
</g>
<!-- GO:0009987 -->
<g id="node19" class="node">
<title>GO:0009987</title>
<polygon fill="#00ffff" stroke="#000000" points="1220.3328,-333.0019 1116.4204,-333.0019 1116.4204,-291.7981 1220.3328,-291.7981 1220.3328,-333.0019"/>
<text text-anchor="middle" x="1168.3766" y="-316.6" font-family="Times,serif" font-size="14.00" fill="#000000">GO:0009987</text>
<text text-anchor="middle" x="1168.3766" y="-299.8" font-family="Times,serif" font-size="14.00" fill="#000000">cellular process</text>
</g>
<!-- GO:0009987&#45;&gt;GO:0008150 -->
<g id="edge25" class="edge">
<title>GO:0009987&#45;&gt;GO:0008150</title>
<path fill="none" stroke="#000000" d="M1128.2109,-333.1376C1121.3648,-336.2331 1114.2452,-339.189 1107.3766,-341.6 1050.3618,-361.6133 983.3687,-376.6329 934.0191,-386.1847"/>
<polygon fill="#000000" stroke="#000000" points="933.2467,-382.7688 924.0797,-388.0808 934.5585,-389.6448 933.2467,-382.7688"/>
</g>
<!-- GO:0048523 -->
<g id="node20" class="node">
<title>GO:0048523</title>
<polygon fill="#00ffff" stroke="#000000" points="593.7239,-153.0014 455.0293,-153.0014 455.0293,-94.1986 593.7239,-94.1986 593.7239,-153.0014"/>
<text text-anchor="middle" x="524.3766" y="-136.2" font-family="Times,serif" font-size="14.00" fill="#000000">GO:0048523</text>
<text text-anchor="middle" x="524.3766" y="-119.4" font-family="Times,serif" font-size="14.00" fill="#000000">negative regulation of</text>
<text text-anchor="middle" x="524.3766" y="-102.6" font-family="Times,serif" font-size="14.00" fill="#000000">cellular process</text>
</g>
<!-- GO:0048523&#45;&gt;GO:0048519 -->
<g id="edge26" class="edge">
<title>GO:0048523&#45;&gt;GO:0048519</title>
<path fill="none" stroke="#000000" d="M527.7968,-152.9513C528.7384,-161.0318 529.7753,-169.9308 530.772,-178.4838"/>
<polygon fill="#000000" stroke="#000000" points="527.3246,-179.1392 531.9585,-188.6669 534.2775,-178.3289 527.3246,-179.1392"/>
</g>
<!-- GO:0048523&#45;&gt;GO:0050794 -->
<g id="edge27" class="edge">
<title>GO:0048523&#45;&gt;GO:0050794</title>
<path fill="none" stroke="#000000" d="M479.9144,-152.9513C465.5216,-162.4525 449.4146,-173.0854 434.4609,-182.9569"/>
<polygon fill="#000000" stroke="#000000" points="432.2287,-180.2366 425.8113,-188.6669 436.0851,-186.0785 432.2287,-180.2366"/>
</g>
<!-- GO:0048522 -->
<g id="node21" class="node">
<title>GO:0048522</title>
<polygon fill="#00ffff" stroke="#000000" points="307.13,-153.0014 171.6232,-153.0014 171.6232,-94.1986 307.13,-94.1986 307.13,-153.0014"/>
<text text-anchor="middle" x="239.3766" y="-136.2" font-family="Times,serif" font-size="14.00" fill="#000000">GO:0048522</text>
<text text-anchor="middle" x="239.3766" y="-119.4" font-family="Times,serif" font-size="14.00" fill="#000000">positive regulation of</text>
<text text-anchor="middle" x="239.3766" y="-102.6" font-family="Times,serif" font-size="14.00" fill="#000000">cellular process</text>
</g>
<!-- GO:0048522&#45;&gt;GO:0048518 -->
<g id="edge28" class="edge">
<title>GO:0048522&#45;&gt;GO:0048518</title>
<path fill="none" stroke="#000000" d="M235.9564,-152.9513C235.0148,-161.0318 233.9779,-169.9308 232.9812,-178.4838"/>
<polygon fill="#000000" stroke="#000000" points="229.4757,-178.3289 231.7947,-188.6669 236.4286,-179.1392 229.4757,-178.3289"/>
</g>
<!-- GO:0048522&#45;&gt;GO:0050794 -->
<g id="edge29" class="edge">
<title>GO:0048522&#45;&gt;GO:0050794</title>
<path fill="none" stroke="#000000" d="M283.5279,-152.9513C297.82,-162.4525 313.8144,-173.0854 328.6635,-182.9569"/>
<polygon fill="#000000" stroke="#000000" points="326.9872,-186.0454 337.2526,-188.6669 330.8625,-180.2159 326.9872,-186.0454"/>
</g>
</g>
</svg>
