<?xml version="1.0" encoding="UTF-8" standalone="no"?>
<!DOCTYPE svg PUBLIC "-//W3C//DTD SVG 1.1//EN"
 "http://www.w3.org/Graphics/SVG/1.1/DTD/svg11.dtd">
<!-- Generated by graphviz version 2.40.1 (20161225.0304)
 -->
<!-- Title: G Pages: 1 -->
<svg width="152pt" height="377pt"
 viewBox="0.00 0.00 152.28 376.80" xmlns="http://www.w3.org/2000/svg" xmlns:xlink="http://www.w3.org/1999/xlink">
<g id="graph0" class="graph" transform="scale(1 1) rotate(0) translate(4 372.8)">
<title>G</title>
<polygon fill="#ffffff" stroke="transparent" points="-4,4 -4,-372.8 148.2778,-372.8 148.2778,4 -4,4"/>
<!-- GO:0005159 -->
<g id="node1" class="node">
<title>GO:0005159</title>
<polygon fill="#ffff00" stroke="#000000" points="144.417,-58.6014 -.1392,-58.6014 -.1392,.2014 144.417,.2014 144.417,-58.6014"/>
<text text-anchor="middle" x="72.1389" y="-41.8" font-family="Times,serif" font-size="14.00" fill="#000000">GO:0005159</text>
<text text-anchor="middle" x="72.1389" y="-25" font-family="Times,serif" font-size="14.00" fill="#000000">insulin&#45;like growth</text>
<text text-anchor="middle" x="72.1389" y="-8.2" font-family="Times,serif" font-size="14.00" fill="#000000">factor receptor binding</text>
</g>
<!-- GO:0005102 -->
<g id="node2" class="node">
<title>GO:0005102</title>
<polygon fill="#ff0000" stroke="#000000" points="126.2758,-135.8019 18.002,-135.8019 18.002,-94.5981 126.2758,-94.5981 126.2758,-135.8019"/>
<text text-anchor="middle" x="72.1389" y="-119.4" font-family="Times,serif" font-size="14.00" fill="#000000">GO:0005102</text>
<text text-anchor="middle" x="72.1389" y="-102.6" font-family="Times,serif" font-size="14.00" fill="#000000">receptor binding</text>
</g>
<!-- GO:0005159&#45;&gt;GO:0005102 -->
<g id="edge1" class="edge">
<title>GO:0005159&#45;&gt;GO:0005102</title>
<path fill="none" stroke="#000000" d="M72.1389,-58.7963C72.1389,-67.0638 72.1389,-76.0657 72.1389,-84.4008"/>
<polygon fill="#000000" stroke="#000000" points="68.639,-84.4965 72.1389,-94.4966 75.639,-84.4966 68.639,-84.4965"/>
</g>
<!-- GO:0005515 -->
<g id="node3" class="node">
<title>GO:0005515</title>
<polygon fill="#ffffff" stroke="#000000" points="123.0765,-213.4019 21.2013,-213.4019 21.2013,-172.1981 123.0765,-172.1981 123.0765,-213.4019"/>
<text text-anchor="middle" x="72.1389" y="-197" font-family="Times,serif" font-size="14.00" fill="#000000">GO:0005515</text>
<text text-anchor="middle" x="72.1389" y="-180.2" font-family="Times,serif" font-size="14.00" fill="#000000">protein binding</text>
</g>
<!-- GO:0005102&#45;&gt;GO:0005515 -->
<g id="edge2" class="edge">
<title>GO:0005102&#45;&gt;GO:0005515</title>
<path fill="none" stroke="#000000" d="M72.1389,-135.9954C72.1389,-143.9109 72.1389,-153.1109 72.1389,-161.7722"/>
<polygon fill="#000000" stroke="#000000" points="68.639,-161.9472 72.1389,-171.9472 75.639,-161.9473 68.639,-161.9472"/>
</g>
<!-- GO:0005488 -->
<g id="node4" class="node">
<title>GO:0005488</title>
<polygon fill="#ffffff" stroke="#000000" points="116.7428,-291.0019 27.535,-291.0019 27.535,-249.7981 116.7428,-249.7981 116.7428,-291.0019"/>
<text text-anchor="middle" x="72.1389" y="-274.6" font-family="Times,serif" font-size="14.00" fill="#000000">GO:0005488</text>
<text text-anchor="middle" x="72.1389" y="-257.8" font-family="Times,serif" font-size="14.00" fill="#000000">binding</text>
</g>
<!-- GO:0005515&#45;&gt;GO:0005488 -->
<g id="edge3" class="edge">
<title>GO:0005515&#45;&gt;GO:0005488</title>
<path fill="none" stroke="#000000" d="M72.1389,-213.5954C72.1389,-221.5109 72.1389,-230.7109 72.1389,-239.3722"/>
<polygon fill="#000000" stroke="#000000" points="68.639,-239.5472 72.1389,-249.5472 75.639,-239.5473 68.639,-239.5472"/>
</g>
<!-- GO:0003674 -->
<g id="node5" class="node">
<title>GO:0003674</title>
<polygon fill="#ffffff" stroke="#000000" points="134.772,-368.6019 9.5058,-368.6019 9.5058,-327.3981 134.772,-327.3981 134.772,-368.6019"/>
<text text-anchor="middle" x="72.1389" y="-352.2" font-family="Times,serif" font-size="14.00" fill="#000000">GO:0003674</text>
<text text-anchor="middle" x="72.1389" y="-335.4" font-family="Times,serif" font-size="14.00" fill="#000000">molecular_function</text>
</g>
<!-- GO:0005488&#45;&gt;GO:0003674 -->
<g id="edge4" class="edge">
<title>GO:0005488&#45;&gt;GO:0003674</title>
<path fill="none" stroke="#000000" d="M72.1389,-291.1954C72.1389,-299.1109 72.1389,-308.3109 72.1389,-316.9722"/>
<polygon fill="#000000" stroke="#000000" points="68.639,-317.1472 72.1389,-327.1472 75.639,-317.1473 68.639,-317.1472"/>
</g>
</g>
</svg>
