<?xml version="1.0" encoding="UTF-8" standalone="no"?>
<!DOCTYPE svg PUBLIC "-//W3C//DTD SVG 1.1//EN"
 "http://www.w3.org/Graphics/SVG/1.1/DTD/svg11.dtd">
<!-- Generated by graphviz version 2.40.1 (20161225.0304)
 -->
<!-- Title: G Pages: 1 -->
<svg width="450pt" height="299pt"
 viewBox="0.00 0.00 449.53 299.20" xmlns="http://www.w3.org/2000/svg" xmlns:xlink="http://www.w3.org/1999/xlink">
<g id="graph0" class="graph" transform="scale(1 1) rotate(0) translate(4 295.2)">
<title>G</title>
<polygon fill="#ffffff" stroke="transparent" points="-4,4 -4,-295.2 445.5323,-295.2 445.5323,4 -4,4"/>
<!-- GO:0043226 -->
<g id="node1" class="node">
<title>GO:0043226</title>
<polygon fill="#00ff00" stroke="#000000" points="422.1558,-213.4019 332.948,-213.4019 332.948,-172.1981 422.1558,-172.1981 422.1558,-213.4019"/>
<text text-anchor="middle" x="377.5519" y="-197" font-family="Times,serif" font-size="14.00" fill="#000000">GO:0043226</text>
<text text-anchor="middle" x="377.5519" y="-180.2" font-family="Times,serif" font-size="14.00" fill="#000000">organelle</text>
</g>
<!-- GO:0005575 -->
<g id="node2" class="node">
<title>GO:0005575</title>
<polygon fill="#ffffff" stroke="#000000" points="271.2386,-291.0019 143.8652,-291.0019 143.8652,-249.7981 271.2386,-249.7981 271.2386,-291.0019"/>
<text text-anchor="middle" x="207.5519" y="-274.6" font-family="Times,serif" font-size="14.00" fill="#000000">GO:0005575</text>
<text text-anchor="middle" x="207.5519" y="-257.8" font-family="Times,serif" font-size="14.00" fill="#000000">cellular_component</text>
</g>
<!-- GO:0043226&#45;&gt;GO:0005575 -->
<g id="edge1" class="edge">
<title>GO:0043226&#45;&gt;GO:0005575</title>
<path fill="none" stroke="#000000" d="M332.8864,-213.1885C311.1843,-223.0949 284.9156,-235.0858 262.0444,-245.5258"/>
<polygon fill="#000000" stroke="#000000" points="260.4489,-242.4066 252.8053,-249.7432 263.3558,-248.7745 260.4489,-242.4066"/>
</g>
<!-- GO:0043227 -->
<g id="node3" class="node">
<title>GO:0043227</title>
<polygon fill="#00ffff" stroke="#000000" points="441.5127,-136.2014 313.5911,-136.2014 313.5911,-77.3986 441.5127,-77.3986 441.5127,-136.2014"/>
<text text-anchor="middle" x="377.5519" y="-119.4" font-family="Times,serif" font-size="14.00" fill="#000000">GO:0043227</text>
<text text-anchor="middle" x="377.5519" y="-102.6" font-family="Times,serif" font-size="14.00" fill="#000000">membrane&#45;bounded</text>
<text text-anchor="middle" x="377.5519" y="-85.8" font-family="Times,serif" font-size="14.00" fill="#000000">organelle</text>
</g>
<!-- GO:0043227&#45;&gt;GO:0043226 -->
<g id="edge2" class="edge">
<title>GO:0043227&#45;&gt;GO:0043226</title>
<path fill="none" stroke="#000000" d="M377.5519,-136.3963C377.5519,-144.6638 377.5519,-153.6657 377.5519,-162.0008"/>
<polygon fill="#000000" stroke="#000000" points="374.052,-162.0965 377.5519,-172.0966 381.052,-162.0966 374.052,-162.0965"/>
</g>
<!-- GO:0016020 -->
<g id="node4" class="node">
<title>GO:0016020</title>
<polygon fill="#00ffff" stroke="#000000" points="89.1558,-213.4019 -.052,-213.4019 -.052,-172.1981 89.1558,-172.1981 89.1558,-213.4019"/>
<text text-anchor="middle" x="44.5519" y="-197" font-family="Times,serif" font-size="14.00" fill="#000000">GO:0016020</text>
<text text-anchor="middle" x="44.5519" y="-180.2" font-family="Times,serif" font-size="14.00" fill="#000000">membrane</text>
</g>
<!-- GO:0016020&#45;&gt;GO:0005575 -->
<g id="edge3" class="edge">
<title>GO:0016020&#45;&gt;GO:0005575</title>
<path fill="none" stroke="#000000" d="M88.2329,-213.5954C108.6872,-223.3331 133.2251,-235.015 154.7158,-245.2461"/>
<polygon fill="#000000" stroke="#000000" points="153.4997,-248.5435 164.0332,-249.6819 156.5086,-242.2232 153.4997,-248.5435"/>
</g>
<!-- GO:0044464 -->
<g id="node5" class="node">
<title>GO:0044464</title>
<polygon fill="#ff0000" stroke="#000000" points="196.1558,-213.4019 106.948,-213.4019 106.948,-172.1981 196.1558,-172.1981 196.1558,-213.4019"/>
<text text-anchor="middle" x="151.5519" y="-197" font-family="Times,serif" font-size="14.00" fill="#000000">GO:0044464</text>
<text text-anchor="middle" x="151.5519" y="-180.2" font-family="Times,serif" font-size="14.00" fill="#000000">cell part</text>
</g>
<!-- GO:0044464&#45;&gt;GO:0005575 -->
<g id="edge4" class="edge">
<title>GO:0044464&#45;&gt;GO:0005575</title>
<path fill="none" stroke="#000000" d="M166.5589,-213.5954C172.7105,-222.1197 179.9372,-232.1339 186.5956,-241.3605"/>
<polygon fill="#000000" stroke="#000000" points="183.8135,-243.4864 192.5035,-249.5472 189.4898,-239.39 183.8135,-243.4864"/>
</g>
<!-- GO:0044444 -->
<g id="node6" class="node">
<title>GO:0044444</title>
<polygon fill="#00ffff" stroke="#000000" points="205.9685,-41.4019 97.1353,-41.4019 97.1353,-.1981 205.9685,-.1981 205.9685,-41.4019"/>
<text text-anchor="middle" x="151.5519" y="-25" font-family="Times,serif" font-size="14.00" fill="#000000">GO:0044444</text>
<text text-anchor="middle" x="151.5519" y="-8.2" font-family="Times,serif" font-size="14.00" fill="#000000">cytoplasmic part</text>
</g>
<!-- GO:0044424 -->
<g id="node7" class="node">
<title>GO:0044424</title>
<polygon fill="#ffa500" stroke="#000000" points="205.9503,-127.4019 97.1535,-127.4019 97.1535,-86.1981 205.9503,-86.1981 205.9503,-127.4019"/>
<text text-anchor="middle" x="151.5519" y="-111" font-family="Times,serif" font-size="14.00" fill="#000000">GO:0044424</text>
<text text-anchor="middle" x="151.5519" y="-94.2" font-family="Times,serif" font-size="14.00" fill="#000000">intracellular part</text>
</g>
<!-- GO:0044444&#45;&gt;GO:0044424 -->
<g id="edge5" class="edge">
<title>GO:0044444&#45;&gt;GO:0044424</title>
<path fill="none" stroke="#000000" d="M151.5519,-41.6182C151.5519,-51.9705 151.5519,-64.6848 151.5519,-76.1271"/>
<polygon fill="#000000" stroke="#000000" points="148.052,-76.1735 151.5519,-86.1735 155.052,-76.1735 148.052,-76.1735"/>
</g>
<!-- GO:0044424&#45;&gt;GO:0044464 -->
<g id="edge6" class="edge">
<title>GO:0044424&#45;&gt;GO:0044464</title>
<path fill="none" stroke="#000000" d="M151.5519,-127.6182C151.5519,-137.9705 151.5519,-150.6848 151.5519,-162.1271"/>
<polygon fill="#000000" stroke="#000000" points="148.052,-162.1735 151.5519,-172.1735 155.052,-162.1735 148.052,-162.1735"/>
</g>
<!-- GO:0044425 -->
<g id="node8" class="node">
<title>GO:0044425</title>
<polygon fill="#ff00ff" stroke="#000000" points="314.9039,-213.4019 214.1999,-213.4019 214.1999,-172.1981 314.9039,-172.1981 314.9039,-213.4019"/>
<text text-anchor="middle" x="264.5519" y="-197" font-family="Times,serif" font-size="14.00" fill="#000000">GO:0044425</text>
<text text-anchor="middle" x="264.5519" y="-180.2" font-family="Times,serif" font-size="14.00" fill="#000000">membrane part</text>
</g>
<!-- GO:0044425&#45;&gt;GO:0005575 -->
<g id="edge7" class="edge">
<title>GO:0044425&#45;&gt;GO:0005575</title>
<path fill="none" stroke="#000000" d="M249.2769,-213.5954C243.0155,-222.1197 235.6597,-232.1339 228.8824,-241.3605"/>
<polygon fill="#000000" stroke="#000000" points="225.9682,-239.4158 222.869,-249.5472 231.6098,-243.5598 225.9682,-239.4158"/>
</g>
</g>
</svg>
