<?xml version="1.0" encoding="UTF-8" standalone="no"?>
<!DOCTYPE svg PUBLIC "-//W3C//DTD SVG 1.1//EN"
 "http://www.w3.org/Graphics/SVG/1.1/DTD/svg11.dtd">
<!-- Generated by graphviz version 2.40.1 (20161225.0304)
 -->
<!-- Title: G Pages: 1 -->
<svg width="902pt" height="350pt"
 viewBox="0.00 0.00 902.08 349.60" xmlns="http://www.w3.org/2000/svg" xmlns:xlink="http://www.w3.org/1999/xlink">
<g id="graph0" class="graph" transform="scale(1 1) rotate(0) translate(4 345.6)">
<title>G</title>
<polygon fill="#ffffff" stroke="transparent" points="-4,4 -4,-345.6 898.0765,-345.6 898.0765,4 -4,4"/>
<!-- GO:0048869 -->
<g id="node1" class="node">
<title>GO:0048869</title>
<polygon fill="#00ffff" stroke="#000000" points="339.8469,-58.6014 196.0529,-58.6014 196.0529,.2014 339.8469,.2014 339.8469,-58.6014"/>
<text text-anchor="middle" x="267.9499" y="-41.8" font-family="Times,serif" font-size="14.00" fill="#000000">GO:0048869</text>
<text text-anchor="middle" x="267.9499" y="-25" font-family="Times,serif" font-size="14.00" fill="#000000">cellular developmental</text>
<text text-anchor="middle" x="267.9499" y="-8.2" font-family="Times,serif" font-size="14.00" fill="#000000">process</text>
</g>
<!-- GO:0044763 -->
<g id="node2" class="node">
<title>GO:0044763</title>
<polygon fill="#ffff00" stroke="#000000" points="343.6284,-153.0014 192.2714,-153.0014 192.2714,-94.1986 343.6284,-94.1986 343.6284,-153.0014"/>
<text text-anchor="middle" x="267.9499" y="-136.2" font-family="Times,serif" font-size="14.00" fill="#000000">GO:0044763</text>
<text text-anchor="middle" x="267.9499" y="-119.4" font-family="Times,serif" font-size="14.00" fill="#000000">single&#45;organism cellular</text>
<text text-anchor="middle" x="267.9499" y="-102.6" font-family="Times,serif" font-size="14.00" fill="#000000">process</text>
</g>
<!-- GO:0048869&#45;&gt;GO:0044763 -->
<g id="edge1" class="edge">
<title>GO:0048869&#45;&gt;GO:0044763</title>
<path fill="none" stroke="#000000" d="M267.9499,-58.5513C267.9499,-66.6318 267.9499,-75.5308 267.9499,-84.0838"/>
<polygon fill="#000000" stroke="#000000" points="264.45,-84.2668 267.9499,-94.2669 271.45,-84.2669 264.45,-84.2668"/>
</g>
<!-- GO:0009987 -->
<g id="node3" class="node">
<title>GO:0009987</title>
<polygon fill="#ffa500" stroke="#000000" points="435.9061,-247.0019 331.9937,-247.0019 331.9937,-205.7981 435.9061,-205.7981 435.9061,-247.0019"/>
<text text-anchor="middle" x="383.9499" y="-230.6" font-family="Times,serif" font-size="14.00" fill="#000000">GO:0009987</text>
<text text-anchor="middle" x="383.9499" y="-213.8" font-family="Times,serif" font-size="14.00" fill="#000000">cellular process</text>
</g>
<!-- GO:0044763&#45;&gt;GO:0009987 -->
<g id="edge2" class="edge">
<title>GO:0044763&#45;&gt;GO:0009987</title>
<path fill="none" stroke="#000000" d="M301.1908,-153.0584C317.5305,-167.5387 337.0977,-184.8792 353.1024,-199.0628"/>
<polygon fill="#000000" stroke="#000000" points="350.838,-201.7326 360.6434,-205.7456 355.4807,-196.4938 350.838,-201.7326"/>
</g>
<!-- GO:0044699 -->
<g id="node4" class="node">
<title>GO:0044699</title>
<polygon fill="#ffa500" stroke="#000000" points="313.6312,-247.0019 162.2686,-247.0019 162.2686,-205.7981 313.6312,-205.7981 313.6312,-247.0019"/>
<text text-anchor="middle" x="237.9499" y="-230.6" font-family="Times,serif" font-size="14.00" fill="#000000">GO:0044699</text>
<text text-anchor="middle" x="237.9499" y="-213.8" font-family="Times,serif" font-size="14.00" fill="#000000">single&#45;organism process</text>
</g>
<!-- GO:0044763&#45;&gt;GO:0044699 -->
<g id="edge3" class="edge">
<title>GO:0044763&#45;&gt;GO:0044699</title>
<path fill="none" stroke="#000000" d="M259.3531,-153.0584C255.4347,-166.4856 250.7985,-182.3721 246.8447,-195.9204"/>
<polygon fill="#000000" stroke="#000000" points="243.4191,-195.1655 243.9774,-205.7456 250.1388,-197.1266 243.4191,-195.1655"/>
</g>
<!-- GO:0008150 -->
<g id="node5" class="node">
<title>GO:0008150</title>
<polygon fill="#ffffff" stroke="#000000" points="510.4205,-341.4019 389.4793,-341.4019 389.4793,-300.1981 510.4205,-300.1981 510.4205,-341.4019"/>
<text text-anchor="middle" x="449.9499" y="-325" font-family="Times,serif" font-size="14.00" fill="#000000">GO:0008150</text>
<text text-anchor="middle" x="449.9499" y="-308.2" font-family="Times,serif" font-size="14.00" fill="#000000">biological_process</text>
</g>
<!-- GO:0009987&#45;&gt;GO:0008150 -->
<g id="edge4" class="edge">
<title>GO:0009987&#45;&gt;GO:0008150</title>
<path fill="none" stroke="#000000" d="M398.5974,-247.3504C407.6549,-260.3054 419.417,-277.1287 429.3985,-291.4053"/>
<polygon fill="#000000" stroke="#000000" points="426.7448,-293.718 435.3433,-299.9081 432.4818,-289.707 426.7448,-293.718"/>
</g>
<!-- GO:0044699&#45;&gt;GO:0008150 -->
<g id="edge5" class="edge">
<title>GO:0044699&#45;&gt;GO:0008150</title>
<path fill="none" stroke="#000000" d="M284.4742,-247.1165C316.7835,-261.5033 359.9927,-280.7436 394.1551,-295.9555"/>
<polygon fill="#000000" stroke="#000000" points="392.9751,-299.2614 403.5341,-300.1318 395.8226,-292.8667 392.9751,-299.2614"/>
</g>
<!-- GO:0050789 -->
<g id="node6" class="node">
<title>GO:0050789</title>
<polygon fill="#00ffff" stroke="#000000" points="743.8643,-255.8014 596.0355,-255.8014 596.0355,-196.9986 743.8643,-196.9986 743.8643,-255.8014"/>
<text text-anchor="middle" x="669.9499" y="-239" font-family="Times,serif" font-size="14.00" fill="#000000">GO:0050789</text>
<text text-anchor="middle" x="669.9499" y="-222.2" font-family="Times,serif" font-size="14.00" fill="#000000">regulation of biological</text>
<text text-anchor="middle" x="669.9499" y="-205.4" font-family="Times,serif" font-size="14.00" fill="#000000">process</text>
</g>
<!-- GO:0050789&#45;&gt;GO:0008150 -->
<g id="edge6" class="edge">
<title>GO:0050789&#45;&gt;GO:0008150</title>
<path fill="none" stroke="#000000" d="M605.6977,-255.7542C599.3751,-258.5684 593.0455,-261.3565 586.9499,-264 561.9251,-274.8525 534.1511,-286.4498 510.1886,-296.3171"/>
<polygon fill="#000000" stroke="#000000" points="508.7821,-293.111 500.8629,-300.1493 511.4427,-299.5857 508.7821,-293.111"/>
</g>
<!-- GO:0016043 -->
<g id="node7" class="node">
<title>GO:0016043</title>
<polygon fill="#00ffff" stroke="#000000" points="516.6369,-153.0014 393.2629,-153.0014 393.2629,-94.1986 516.6369,-94.1986 516.6369,-153.0014"/>
<text text-anchor="middle" x="454.9499" y="-136.2" font-family="Times,serif" font-size="14.00" fill="#000000">GO:0016043</text>
<text text-anchor="middle" x="454.9499" y="-119.4" font-family="Times,serif" font-size="14.00" fill="#000000">cellular component</text>
<text text-anchor="middle" x="454.9499" y="-102.6" font-family="Times,serif" font-size="14.00" fill="#000000">organization</text>
</g>
<!-- GO:0016043&#45;&gt;GO:0009987 -->
<g id="edge7" class="edge">
<title>GO:0016043&#45;&gt;GO:0009987</title>
<path fill="none" stroke="#000000" d="M434.6041,-153.0584C424.9668,-167.0121 413.4951,-183.6219 403.9078,-197.5032"/>
<polygon fill="#000000" stroke="#000000" points="401.0182,-195.5283 398.2151,-205.7456 406.778,-199.5064 401.0182,-195.5283"/>
</g>
<!-- GO:0071840 -->
<g id="node8" class="node">
<title>GO:0071840</title>
<polygon fill="#ffffff" stroke="#000000" points="577.6369,-264.1003 454.2629,-264.1003 454.2629,-188.6997 577.6369,-188.6997 577.6369,-264.1003"/>
<text text-anchor="middle" x="515.9499" y="-247.4" font-family="Times,serif" font-size="14.00" fill="#000000">GO:0071840</text>
<text text-anchor="middle" x="515.9499" y="-230.6" font-family="Times,serif" font-size="14.00" fill="#000000">cellular component</text>
<text text-anchor="middle" x="515.9499" y="-213.8" font-family="Times,serif" font-size="14.00" fill="#000000">organization or</text>
<text text-anchor="middle" x="515.9499" y="-197" font-family="Times,serif" font-size="14.00" fill="#000000">biogenesis</text>
</g>
<!-- GO:0016043&#45;&gt;GO:0071840 -->
<g id="edge8" class="edge">
<title>GO:0016043&#45;&gt;GO:0071840</title>
<path fill="none" stroke="#000000" d="M472.4301,-153.0584C477.3924,-161.4212 482.9209,-170.738 488.3276,-179.8497"/>
<polygon fill="#000000" stroke="#000000" points="485.3386,-181.6711 493.4517,-188.485 491.3585,-178.0989 485.3386,-181.6711"/>
</g>
<!-- GO:0071840&#45;&gt;GO:0008150 -->
<g id="edge9" class="edge">
<title>GO:0071840&#45;&gt;GO:0008150</title>
<path fill="none" stroke="#000000" d="M489.4855,-264.2522C483.084,-273.4082 476.3407,-283.0532 470.272,-291.7333"/>
<polygon fill="#000000" stroke="#000000" points="467.3273,-289.8368 464.4658,-300.0379 473.0642,-293.8478 467.3273,-289.8368"/>
</g>
<!-- GO:0065007 -->
<g id="node9" class="node">
<title>GO:0065007</title>
<polygon fill="#00ff00" stroke="#000000" points="894.2033,-247.0019 761.6965,-247.0019 761.6965,-205.7981 894.2033,-205.7981 894.2033,-247.0019"/>
<text text-anchor="middle" x="827.9499" y="-230.6" font-family="Times,serif" font-size="14.00" fill="#000000">GO:0065007</text>
<text text-anchor="middle" x="827.9499" y="-213.8" font-family="Times,serif" font-size="14.00" fill="#000000">biological regulation</text>
</g>
<!-- GO:0065007&#45;&gt;GO:0008150 -->
<g id="edge10" class="edge">
<title>GO:0065007&#45;&gt;GO:0008150</title>
<path fill="none" stroke="#000000" d="M791.8285,-247.0664C779.7717,-253.2644 766.0627,-259.5815 752.9499,-264 675.5992,-290.0641 582.8735,-305.232 520.5442,-313.236"/>
<polygon fill="#000000" stroke="#000000" points="519.911,-309.788 510.425,-314.5068 520.7833,-316.7334 519.911,-309.788"/>
</g>
<!-- GO:0050794 -->
<g id="node10" class="node">
<title>GO:0050794</title>
<polygon fill="#00ffff" stroke="#000000" points="815.8489,-153.0014 682.0509,-153.0014 682.0509,-94.1986 815.8489,-94.1986 815.8489,-153.0014"/>
<text text-anchor="middle" x="748.9499" y="-136.2" font-family="Times,serif" font-size="14.00" fill="#000000">GO:0050794</text>
<text text-anchor="middle" x="748.9499" y="-119.4" font-family="Times,serif" font-size="14.00" fill="#000000">regulation of cellular</text>
<text text-anchor="middle" x="748.9499" y="-102.6" font-family="Times,serif" font-size="14.00" fill="#000000">process</text>
</g>
<!-- GO:0050794&#45;&gt;GO:0050789 -->
<g id="edge12" class="edge">
<title>GO:0050794&#45;&gt;GO:0050789</title>
<path fill="none" stroke="#000000" d="M726.3117,-153.0584C717.7171,-164.2421 707.8114,-177.1321 698.725,-188.956"/>
<polygon fill="#000000" stroke="#000000" points="695.9097,-186.8755 692.5914,-196.9373 701.46,-191.1409 695.9097,-186.8755"/>
</g>
<!-- GO:0050794&#45;&gt;GO:0065007 -->
<g id="edge11" class="edge">
<title>GO:0050794&#45;&gt;GO:0065007</title>
<path fill="none" stroke="#000000" d="M771.5881,-153.0584C782.3114,-167.0121 795.0757,-183.6219 805.7432,-197.5032"/>
<polygon fill="#000000" stroke="#000000" points="803.2088,-199.9492 812.0774,-205.7456 808.7592,-195.6838 803.2088,-199.9492"/>
</g>
<!-- GO:0032502 -->
<g id="node11" class="node">
<title>GO:0032502</title>
<polygon fill="#00ff00" stroke="#000000" points="143.8497,-247.0019 .0501,-247.0019 .0501,-205.7981 143.8497,-205.7981 143.8497,-247.0019"/>
<text text-anchor="middle" x="71.9499" y="-230.6" font-family="Times,serif" font-size="14.00" fill="#000000">GO:0032502</text>
<text text-anchor="middle" x="71.9499" y="-213.8" font-family="Times,serif" font-size="14.00" fill="#000000">developmental process</text>
</g>
<!-- GO:0032502&#45;&gt;GO:0008150 -->
<g id="edge13" class="edge">
<title>GO:0032502&#45;&gt;GO:0008150</title>
<path fill="none" stroke="#000000" d="M111.5432,-247.1438C124.4736,-253.2726 139.079,-259.5295 152.9499,-264 228.4054,-288.3187 318.1886,-303.7116 379.1389,-312.2468"/>
<polygon fill="#000000" stroke="#000000" points="379.0357,-315.7654 389.4192,-313.6597 379.9889,-308.8306 379.0357,-315.7654"/>
</g>
<!-- GO:0044767 -->
<g id="node12" class="node">
<title>GO:0044767</title>
<polygon fill="#00ff00" stroke="#000000" points="173.8497,-153.0014 30.0501,-153.0014 30.0501,-94.1986 173.8497,-94.1986 173.8497,-153.0014"/>
<text text-anchor="middle" x="101.9499" y="-136.2" font-family="Times,serif" font-size="14.00" fill="#000000">GO:0044767</text>
<text text-anchor="middle" x="101.9499" y="-119.4" font-family="Times,serif" font-size="14.00" fill="#000000">single&#45;organism</text>
<text text-anchor="middle" x="101.9499" y="-102.6" font-family="Times,serif" font-size="14.00" fill="#000000">developmental process</text>
</g>
<!-- GO:0044767&#45;&gt;GO:0044699 -->
<g id="edge15" class="edge">
<title>GO:0044767&#45;&gt;GO:0044699</title>
<path fill="none" stroke="#000000" d="M140.922,-153.0584C160.3401,-167.7362 183.646,-185.3527 202.5492,-199.6412"/>
<polygon fill="#000000" stroke="#000000" points="200.5371,-202.5077 210.6251,-205.7456 204.7581,-196.9235 200.5371,-202.5077"/>
</g>
<!-- GO:0044767&#45;&gt;GO:0032502 -->
<g id="edge14" class="edge">
<title>GO:0044767&#45;&gt;GO:0032502</title>
<path fill="none" stroke="#000000" d="M93.3531,-153.0584C89.4347,-166.4856 84.7985,-182.3721 80.8447,-195.9204"/>
<polygon fill="#000000" stroke="#000000" points="77.4191,-195.1655 77.9774,-205.7456 84.1388,-197.1266 77.4191,-195.1655"/>
</g>
</g>
</svg>
