<?xml version="1.0" encoding="UTF-8" standalone="no"?>
<!DOCTYPE svg PUBLIC "-//W3C//DTD SVG 1.1//EN"
 "http://www.w3.org/Graphics/SVG/1.1/DTD/svg11.dtd">
<!-- Generated by graphviz version 2.40.1 (20161225.0304)
 -->
<!-- Title: G Pages: 1 -->
<svg width="162pt" height="316pt"
 viewBox="0.00 0.00 162.01 316.00" xmlns="http://www.w3.org/2000/svg" xmlns:xlink="http://www.w3.org/1999/xlink">
<g id="graph0" class="graph" transform="scale(1 1) rotate(0) translate(4 312)">
<title>G</title>
<polygon fill="#ffffff" stroke="transparent" points="-4,4 -4,-312 158.0078,-312 158.0078,4 -4,4"/>
<!-- GO:0016740 -->
<g id="node1" class="node">
<title>GO:0016740</title>
<polygon fill="#00ffff" stroke="#000000" points="138.1156,-152.6019 15.8922,-152.6019 15.8922,-111.3981 138.1156,-111.3981 138.1156,-152.6019"/>
<text text-anchor="middle" x="77.0039" y="-136.2" font-family="Times,serif" font-size="14.00" fill="#000000">GO:0016740</text>
<text text-anchor="middle" x="77.0039" y="-119.4" font-family="Times,serif" font-size="14.00" fill="#000000">transferase activity</text>
</g>
<!-- GO:0003824 -->
<g id="node2" class="node">
<title>GO:0003824</title>
<polygon fill="#00ff00" stroke="#000000" points="131.4163,-230.2019 22.5915,-230.2019 22.5915,-188.9981 131.4163,-188.9981 131.4163,-230.2019"/>
<text text-anchor="middle" x="77.0039" y="-213.8" font-family="Times,serif" font-size="14.00" fill="#000000">GO:0003824</text>
<text text-anchor="middle" x="77.0039" y="-197" font-family="Times,serif" font-size="14.00" fill="#000000">catalytic activity</text>
</g>
<!-- GO:0016740&#45;&gt;GO:0003824 -->
<g id="edge1" class="edge">
<title>GO:0016740&#45;&gt;GO:0003824</title>
<path fill="none" stroke="#000000" d="M77.0039,-152.7954C77.0039,-160.7109 77.0039,-169.9109 77.0039,-178.5722"/>
<polygon fill="#000000" stroke="#000000" points="73.504,-178.7472 77.0039,-188.7472 80.504,-178.7473 73.504,-178.7472"/>
</g>
<!-- GO:0003674 -->
<g id="node3" class="node">
<title>GO:0003674</title>
<polygon fill="#ffffff" stroke="#000000" points="139.637,-307.8019 14.3708,-307.8019 14.3708,-266.5981 139.637,-266.5981 139.637,-307.8019"/>
<text text-anchor="middle" x="77.0039" y="-291.4" font-family="Times,serif" font-size="14.00" fill="#000000">GO:0003674</text>
<text text-anchor="middle" x="77.0039" y="-274.6" font-family="Times,serif" font-size="14.00" fill="#000000">molecular_function</text>
</g>
<!-- GO:0003824&#45;&gt;GO:0003674 -->
<g id="edge2" class="edge">
<title>GO:0003824&#45;&gt;GO:0003674</title>
<path fill="none" stroke="#000000" d="M77.0039,-230.3954C77.0039,-238.3109 77.0039,-247.5109 77.0039,-256.1722"/>
<polygon fill="#000000" stroke="#000000" points="73.504,-256.3472 77.0039,-266.3472 80.504,-256.3473 73.504,-256.3472"/>
</g>
<!-- GO:0016772 -->
<g id="node4" class="node">
<title>GO:0016772</title>
<polygon fill="#00ffff" stroke="#000000" points="154.0117,-75.3003 -.0039,-75.3003 -.0039,.1003 154.0117,.1003 154.0117,-75.3003"/>
<text text-anchor="middle" x="77.0039" y="-58.6" font-family="Times,serif" font-size="14.00" fill="#000000">GO:0016772</text>
<text text-anchor="middle" x="77.0039" y="-41.8" font-family="Times,serif" font-size="14.00" fill="#000000">transferase activity,</text>
<text text-anchor="middle" x="77.0039" y="-25" font-family="Times,serif" font-size="14.00" fill="#000000">transferring phosphorus&#45;</text>
<text text-anchor="middle" x="77.0039" y="-8.2" font-family="Times,serif" font-size="14.00" fill="#000000">containing groups</text>
</g>
<!-- GO:0016772&#45;&gt;GO:0016740 -->
<g id="edge3" class="edge">
<title>GO:0016772&#45;&gt;GO:0016740</title>
<path fill="none" stroke="#000000" d="M77.0039,-75.4522C77.0039,-83.9406 77.0039,-92.8492 77.0039,-101.0197"/>
<polygon fill="#000000" stroke="#000000" points="73.504,-101.2379 77.0039,-111.2379 80.504,-101.2379 73.504,-101.2379"/>
</g>
</g>
</svg>
