<?xml version="1.0" encoding="UTF-8" standalone="no"?>
<!DOCTYPE svg PUBLIC "-//W3C//DTD SVG 1.1//EN"
 "http://www.w3.org/Graphics/SVG/1.1/DTD/svg11.dtd">
<!-- Generated by graphviz version 2.40.1 (20161225.0304)
 -->
<!-- Title: G Pages: 1 -->
<svg width="578pt" height="394pt"
 viewBox="0.00 0.00 577.59 393.60" xmlns="http://www.w3.org/2000/svg" xmlns:xlink="http://www.w3.org/1999/xlink">
<g id="graph0" class="graph" transform="scale(1 1) rotate(0) translate(4 389.6)">
<title>G</title>
<polygon fill="#ffffff" stroke="transparent" points="-4,4 -4,-389.6 573.5895,-389.6 573.5895,4 -4,4"/>
<!-- GO:0043229 -->
<g id="node1" class="node">
<title>GO:0043229</title>
<polygon fill="#00ff00" stroke="#000000" points="285.6988,-144.2019 146.262,-144.2019 146.262,-102.9981 285.6988,-102.9981 285.6988,-144.2019"/>
<text text-anchor="middle" x="215.9804" y="-127.8" font-family="Times,serif" font-size="14.00" fill="#000000">GO:0043229</text>
<text text-anchor="middle" x="215.9804" y="-111" font-family="Times,serif" font-size="14.00" fill="#000000">intracellular organelle</text>
</g>
<!-- GO:0044424 -->
<g id="node2" class="node">
<title>GO:0044424</title>
<polygon fill="#ff0000" stroke="#000000" points="412.3788,-230.2019 303.582,-230.2019 303.582,-188.9981 412.3788,-188.9981 412.3788,-230.2019"/>
<text text-anchor="middle" x="357.9804" y="-213.8" font-family="Times,serif" font-size="14.00" fill="#000000">GO:0044424</text>
<text text-anchor="middle" x="357.9804" y="-197" font-family="Times,serif" font-size="14.00" fill="#000000">intracellular part</text>
</g>
<!-- GO:0043229&#45;&gt;GO:0044424 -->
<g id="edge1" class="edge">
<title>GO:0043229&#45;&gt;GO:0044424</title>
<path fill="none" stroke="#000000" d="M250.3546,-144.4182C269.8898,-156.2494 294.5191,-171.1657 315.2855,-183.7425"/>
<polygon fill="#000000" stroke="#000000" points="313.556,-186.7869 323.9227,-188.9735 317.1822,-180.7994 313.556,-186.7869"/>
</g>
<!-- GO:0043226 -->
<g id="node3" class="node">
<title>GO:0043226</title>
<polygon fill="#00ff00" stroke="#000000" points="260.5843,-230.2019 171.3765,-230.2019 171.3765,-188.9981 260.5843,-188.9981 260.5843,-230.2019"/>
<text text-anchor="middle" x="215.9804" y="-213.8" font-family="Times,serif" font-size="14.00" fill="#000000">GO:0043226</text>
<text text-anchor="middle" x="215.9804" y="-197" font-family="Times,serif" font-size="14.00" fill="#000000">organelle</text>
</g>
<!-- GO:0043229&#45;&gt;GO:0043226 -->
<g id="edge2" class="edge">
<title>GO:0043229&#45;&gt;GO:0043226</title>
<path fill="none" stroke="#000000" d="M215.9804,-144.4182C215.9804,-154.7705 215.9804,-167.4848 215.9804,-178.9271"/>
<polygon fill="#000000" stroke="#000000" points="212.4805,-178.9735 215.9804,-188.9735 219.4805,-178.9735 212.4805,-178.9735"/>
</g>
<!-- GO:0044464 -->
<g id="node4" class="node">
<title>GO:0044464</title>
<polygon fill="#ffffff" stroke="#000000" points="402.5843,-307.8019 313.3765,-307.8019 313.3765,-266.5981 402.5843,-266.5981 402.5843,-307.8019"/>
<text text-anchor="middle" x="357.9804" y="-291.4" font-family="Times,serif" font-size="14.00" fill="#000000">GO:0044464</text>
<text text-anchor="middle" x="357.9804" y="-274.6" font-family="Times,serif" font-size="14.00" fill="#000000">cell part</text>
</g>
<!-- GO:0044424&#45;&gt;GO:0044464 -->
<g id="edge3" class="edge">
<title>GO:0044424&#45;&gt;GO:0044464</title>
<path fill="none" stroke="#000000" d="M357.9804,-230.3954C357.9804,-238.3109 357.9804,-247.5109 357.9804,-256.1722"/>
<polygon fill="#000000" stroke="#000000" points="354.4805,-256.3472 357.9804,-266.3472 361.4805,-256.3473 354.4805,-256.3472"/>
</g>
<!-- GO:0005575 -->
<g id="node5" class="node">
<title>GO:0005575</title>
<polygon fill="#ffffff" stroke="#000000" points="421.6671,-385.4019 294.2937,-385.4019 294.2937,-344.1981 421.6671,-344.1981 421.6671,-385.4019"/>
<text text-anchor="middle" x="357.9804" y="-369" font-family="Times,serif" font-size="14.00" fill="#000000">GO:0005575</text>
<text text-anchor="middle" x="357.9804" y="-352.2" font-family="Times,serif" font-size="14.00" fill="#000000">cellular_component</text>
</g>
<!-- GO:0043226&#45;&gt;GO:0005575 -->
<g id="edge4" class="edge">
<title>GO:0043226&#45;&gt;GO:0005575</title>
<path fill="none" stroke="#000000" d="M234.3396,-230.4978C252.0167,-250.5312 279.5885,-281.5477 303.9804,-308 312.6997,-317.4558 322.3427,-327.6732 331.0384,-336.8004"/>
<polygon fill="#000000" stroke="#000000" points="328.6403,-339.3571 338.0788,-344.1702 333.7019,-334.5217 328.6403,-339.3571"/>
</g>
<!-- GO:0044464&#45;&gt;GO:0005575 -->
<g id="edge12" class="edge">
<title>GO:0044464&#45;&gt;GO:0005575</title>
<path fill="none" stroke="#000000" d="M357.9804,-307.9954C357.9804,-315.9109 357.9804,-325.1109 357.9804,-333.7722"/>
<polygon fill="#000000" stroke="#000000" points="354.4805,-333.9472 357.9804,-343.9472 361.4805,-333.9473 354.4805,-333.9472"/>
</g>
<!-- GO:0043227 -->
<g id="node6" class="node">
<title>GO:0043227</title>
<polygon fill="#00ff00" stroke="#000000" points="127.9412,-153.0014 .0196,-153.0014 .0196,-94.1986 127.9412,-94.1986 127.9412,-153.0014"/>
<text text-anchor="middle" x="63.9804" y="-136.2" font-family="Times,serif" font-size="14.00" fill="#000000">GO:0043227</text>
<text text-anchor="middle" x="63.9804" y="-119.4" font-family="Times,serif" font-size="14.00" fill="#000000">membrane&#45;bounded</text>
<text text-anchor="middle" x="63.9804" y="-102.6" font-family="Times,serif" font-size="14.00" fill="#000000">organelle</text>
</g>
<!-- GO:0043227&#45;&gt;GO:0043226 -->
<g id="edge5" class="edge">
<title>GO:0043227&#45;&gt;GO:0043226</title>
<path fill="none" stroke="#000000" d="M115.865,-152.9558C133.5883,-162.9834 153.2634,-174.1154 170.448,-183.8383"/>
<polygon fill="#000000" stroke="#000000" points="168.7569,-186.9028 179.1839,-188.7809 172.204,-180.8103 168.7569,-186.9028"/>
</g>
<!-- GO:0043231 -->
<g id="node7" class="node">
<title>GO:0043231</title>
<polygon fill="#00ffff" stroke="#000000" points="215.3592,-58.6014 64.6016,-58.6014 64.6016,.2014 215.3592,.2014 215.3592,-58.6014"/>
<text text-anchor="middle" x="139.9804" y="-41.8" font-family="Times,serif" font-size="14.00" fill="#000000">GO:0043231</text>
<text text-anchor="middle" x="139.9804" y="-25" font-family="Times,serif" font-size="14.00" fill="#000000">intracellular membrane&#45;</text>
<text text-anchor="middle" x="139.9804" y="-8.2" font-family="Times,serif" font-size="14.00" fill="#000000">bounded organelle</text>
</g>
<!-- GO:0043231&#45;&gt;GO:0043229 -->
<g id="edge6" class="edge">
<title>GO:0043231&#45;&gt;GO:0043229</title>
<path fill="none" stroke="#000000" d="M163.6107,-58.5513C172.9376,-70.1363 183.619,-83.4037 192.8922,-94.922"/>
<polygon fill="#000000" stroke="#000000" points="190.3588,-97.3565 199.3562,-102.951 195.8114,-92.9667 190.3588,-97.3565"/>
</g>
<!-- GO:0043231&#45;&gt;GO:0043227 -->
<g id="edge7" class="edge">
<title>GO:0043231&#45;&gt;GO:0043227</title>
<path fill="none" stroke="#000000" d="M116.3501,-58.5513C109.2727,-67.3422 101.4154,-77.1018 93.9853,-86.3308"/>
<polygon fill="#000000" stroke="#000000" points="91.1409,-84.2826 87.5961,-94.2669 96.5934,-88.6724 91.1409,-84.2826"/>
</g>
<!-- GO:0044446 -->
<g id="node8" class="node">
<title>GO:0044446</title>
<polygon fill="#00ff00" stroke="#000000" points="569.6988,-153.0014 430.262,-153.0014 430.262,-94.1986 569.6988,-94.1986 569.6988,-153.0014"/>
<text text-anchor="middle" x="499.9804" y="-136.2" font-family="Times,serif" font-size="14.00" fill="#000000">GO:0044446</text>
<text text-anchor="middle" x="499.9804" y="-119.4" font-family="Times,serif" font-size="14.00" fill="#000000">intracellular organelle</text>
<text text-anchor="middle" x="499.9804" y="-102.6" font-family="Times,serif" font-size="14.00" fill="#000000">part</text>
</g>
<!-- GO:0044446&#45;&gt;GO:0044424 -->
<g id="edge8" class="edge">
<title>GO:0044446&#45;&gt;GO:0044424</title>
<path fill="none" stroke="#000000" d="M451.5092,-152.9558C435.1039,-162.8914 416.9084,-173.9112 400.9597,-183.5703"/>
<polygon fill="#000000" stroke="#000000" points="399.0965,-180.6068 392.3561,-188.7809 402.7228,-186.5943 399.0965,-180.6068"/>
</g>
<!-- GO:0044422 -->
<g id="node9" class="node">
<title>GO:0044422</title>
<polygon fill="#ffffff" stroke="#000000" points="521.8325,-307.8019 428.1283,-307.8019 428.1283,-266.5981 521.8325,-266.5981 521.8325,-307.8019"/>
<text text-anchor="middle" x="474.9804" y="-291.4" font-family="Times,serif" font-size="14.00" fill="#000000">GO:0044422</text>
<text text-anchor="middle" x="474.9804" y="-274.6" font-family="Times,serif" font-size="14.00" fill="#000000">organelle part</text>
</g>
<!-- GO:0044446&#45;&gt;GO:0044422 -->
<g id="edge9" class="edge">
<title>GO:0044446&#45;&gt;GO:0044422</title>
<path fill="none" stroke="#000000" d="M495.5109,-152.8484C491.0579,-181.9891 484.2469,-226.5603 479.706,-256.2759"/>
<polygon fill="#000000" stroke="#000000" points="476.1951,-256.0815 478.1443,-266.4955 483.1148,-257.139 476.1951,-256.0815"/>
</g>
<!-- GO:0044422&#45;&gt;GO:0005575 -->
<g id="edge10" class="edge">
<title>GO:0044422&#45;&gt;GO:0005575</title>
<path fill="none" stroke="#000000" d="M443.6265,-307.9954C429.5938,-317.3026 412.8832,-328.3858 397.9641,-338.2809"/>
<polygon fill="#000000" stroke="#000000" points="395.8199,-335.5031 389.4208,-343.9472 399.689,-341.3367 395.8199,-335.5031"/>
</g>
<!-- GO:0044444 -->
<g id="node10" class="node">
<title>GO:0044444</title>
<polygon fill="#00ffff" stroke="#000000" points="412.397,-144.2019 303.5638,-144.2019 303.5638,-102.9981 412.397,-102.9981 412.397,-144.2019"/>
<text text-anchor="middle" x="357.9804" y="-127.8" font-family="Times,serif" font-size="14.00" fill="#000000">GO:0044444</text>
<text text-anchor="middle" x="357.9804" y="-111" font-family="Times,serif" font-size="14.00" fill="#000000">cytoplasmic part</text>
</g>
<!-- GO:0044444&#45;&gt;GO:0044424 -->
<g id="edge11" class="edge">
<title>GO:0044444&#45;&gt;GO:0044424</title>
<path fill="none" stroke="#000000" d="M357.9804,-144.4182C357.9804,-154.7705 357.9804,-167.4848 357.9804,-178.9271"/>
<polygon fill="#000000" stroke="#000000" points="354.4805,-178.9735 357.9804,-188.9735 361.4805,-178.9735 354.4805,-178.9735"/>
</g>
</g>
</svg>
