<?xml version="1.0" encoding="UTF-8" standalone="no"?>
<!DOCTYPE svg PUBLIC "-//W3C//DTD SVG 1.1//EN"
 "http://www.w3.org/Graphics/SVG/1.1/DTD/svg11.dtd">
<!-- Generated by graphviz version 2.40.1 (20161225.0304)
 -->
<!-- Title: G Pages: 1 -->
<svg width="429pt" height="222pt"
 viewBox="0.00 0.00 429.18 221.60" xmlns="http://www.w3.org/2000/svg" xmlns:xlink="http://www.w3.org/1999/xlink">
<g id="graph0" class="graph" transform="scale(1 1) rotate(0) translate(4 217.6)">
<title>G</title>
<polygon fill="#ffffff" stroke="transparent" points="-4,4 -4,-217.6 425.1831,-217.6 425.1831,4 -4,4"/>
<!-- GO:0071704 -->
<g id="node1" class="node">
<title>GO:0071704</title>
<polygon fill="#00ffff" stroke="#000000" points="116.5282,-58.6014 .157,-58.6014 .157,.2014 116.5282,.2014 116.5282,-58.6014"/>
<text text-anchor="middle" x="58.3426" y="-41.8" font-family="Times,serif" font-size="14.00" fill="#000000">GO:0071704</text>
<text text-anchor="middle" x="58.3426" y="-25" font-family="Times,serif" font-size="14.00" fill="#000000">organic substance</text>
<text text-anchor="middle" x="58.3426" y="-8.2" font-family="Times,serif" font-size="14.00" fill="#000000">metabolic process</text>
</g>
<!-- GO:0008152 -->
<g id="node2" class="node">
<title>GO:0008152</title>
<polygon fill="#ffffff" stroke="#000000" points="129.5282,-135.8019 13.157,-135.8019 13.157,-94.5981 129.5282,-94.5981 129.5282,-135.8019"/>
<text text-anchor="middle" x="71.3426" y="-119.4" font-family="Times,serif" font-size="14.00" fill="#000000">GO:0008152</text>
<text text-anchor="middle" x="71.3426" y="-102.6" font-family="Times,serif" font-size="14.00" fill="#000000">metabolic process</text>
</g>
<!-- GO:0071704&#45;&gt;GO:0008152 -->
<g id="edge1" class="edge">
<title>GO:0071704&#45;&gt;GO:0008152</title>
<path fill="none" stroke="#000000" d="M62.8165,-58.7963C64.0662,-67.0638 65.427,-76.0657 66.6869,-84.4008"/>
<polygon fill="#000000" stroke="#000000" points="63.2576,-85.132 68.213,-94.4966 70.179,-84.0857 63.2576,-85.132"/>
</g>
<!-- GO:0008150 -->
<g id="node3" class="node">
<title>GO:0008150</title>
<polygon fill="#ffffff" stroke="#000000" points="259.8132,-213.4019 138.872,-213.4019 138.872,-172.1981 259.8132,-172.1981 259.8132,-213.4019"/>
<text text-anchor="middle" x="199.3426" y="-197" font-family="Times,serif" font-size="14.00" fill="#000000">GO:0008150</text>
<text text-anchor="middle" x="199.3426" y="-180.2" font-family="Times,serif" font-size="14.00" fill="#000000">biological_process</text>
</g>
<!-- GO:0008152&#45;&gt;GO:0008150 -->
<g id="edge2" class="edge">
<title>GO:0008152&#45;&gt;GO:0008150</title>
<path fill="none" stroke="#000000" d="M105.6443,-135.9954C121.1398,-145.3896 139.6199,-156.5931 156.0568,-166.558"/>
<polygon fill="#000000" stroke="#000000" points="154.5805,-169.7559 164.9463,-171.9472 158.2095,-163.77 154.5805,-169.7559"/>
</g>
<!-- GO:0044699 -->
<g id="node4" class="node">
<title>GO:0044699</title>
<polygon fill="#ffff00" stroke="#000000" points="421.0239,-135.8019 269.6613,-135.8019 269.6613,-94.5981 421.0239,-94.5981 421.0239,-135.8019"/>
<text text-anchor="middle" x="345.3426" y="-119.4" font-family="Times,serif" font-size="14.00" fill="#000000">GO:0044699</text>
<text text-anchor="middle" x="345.3426" y="-102.6" font-family="Times,serif" font-size="14.00" fill="#000000">single&#45;organism process</text>
</g>
<!-- GO:0044699&#45;&gt;GO:0008150 -->
<g id="edge3" class="edge">
<title>GO:0044699&#45;&gt;GO:0008150</title>
<path fill="none" stroke="#000000" d="M306.2173,-135.9954C288.0606,-145.6458 266.3115,-157.2056 247.1868,-167.3705"/>
<polygon fill="#000000" stroke="#000000" points="245.5101,-164.2979 238.3226,-172.0819 248.7955,-170.4791 245.5101,-164.2979"/>
</g>
<!-- GO:0009987 -->
<g id="node5" class="node">
<title>GO:0009987</title>
<polygon fill="#ffff00" stroke="#000000" points="251.2988,-135.8019 147.3864,-135.8019 147.3864,-94.5981 251.2988,-94.5981 251.2988,-135.8019"/>
<text text-anchor="middle" x="199.3426" y="-119.4" font-family="Times,serif" font-size="14.00" fill="#000000">GO:0009987</text>
<text text-anchor="middle" x="199.3426" y="-102.6" font-family="Times,serif" font-size="14.00" fill="#000000">cellular process</text>
</g>
<!-- GO:0009987&#45;&gt;GO:0008150 -->
<g id="edge4" class="edge">
<title>GO:0009987&#45;&gt;GO:0008150</title>
<path fill="none" stroke="#000000" d="M199.3426,-135.9954C199.3426,-143.9109 199.3426,-153.1109 199.3426,-161.7722"/>
<polygon fill="#000000" stroke="#000000" points="195.8427,-161.9472 199.3426,-171.9472 202.8427,-161.9473 195.8427,-161.9472"/>
</g>
<!-- GO:0044763 -->
<g id="node6" class="node">
<title>GO:0044763</title>
<polygon fill="#00ff00" stroke="#000000" points="421.0211,-58.6014 269.6641,-58.6014 269.6641,.2014 421.0211,.2014 421.0211,-58.6014"/>
<text text-anchor="middle" x="345.3426" y="-41.8" font-family="Times,serif" font-size="14.00" fill="#000000">GO:0044763</text>
<text text-anchor="middle" x="345.3426" y="-25" font-family="Times,serif" font-size="14.00" fill="#000000">single&#45;organism cellular</text>
<text text-anchor="middle" x="345.3426" y="-8.2" font-family="Times,serif" font-size="14.00" fill="#000000">process</text>
</g>
<!-- GO:0044763&#45;&gt;GO:0044699 -->
<g id="edge6" class="edge">
<title>GO:0044763&#45;&gt;GO:0044699</title>
<path fill="none" stroke="#000000" d="M345.3426,-58.7963C345.3426,-67.0638 345.3426,-76.0657 345.3426,-84.4008"/>
<polygon fill="#000000" stroke="#000000" points="341.8427,-84.4965 345.3426,-94.4966 348.8427,-84.4966 341.8427,-84.4965"/>
</g>
<!-- GO:0044763&#45;&gt;GO:0009987 -->
<g id="edge5" class="edge">
<title>GO:0044763&#45;&gt;GO:0009987</title>
<path fill="none" stroke="#000000" d="M295.506,-58.5558C278.6386,-68.4914 259.9305,-79.5112 243.5325,-89.1703"/>
<polygon fill="#000000" stroke="#000000" points="241.5265,-86.2898 234.6866,-94.3809 245.0793,-92.3212 241.5265,-86.2898"/>
</g>
<!-- GO:0044237 -->
<g id="node7" class="node">
<title>GO:0044237</title>
<polygon fill="#00ffff" stroke="#000000" points="251.5254,-58.6014 135.1598,-58.6014 135.1598,.2014 251.5254,.2014 251.5254,-58.6014"/>
<text text-anchor="middle" x="193.3426" y="-41.8" font-family="Times,serif" font-size="14.00" fill="#000000">GO:0044237</text>
<text text-anchor="middle" x="193.3426" y="-25" font-family="Times,serif" font-size="14.00" fill="#000000">cellular metabolic</text>
<text text-anchor="middle" x="193.3426" y="-8.2" font-family="Times,serif" font-size="14.00" fill="#000000">process</text>
</g>
<!-- GO:0044237&#45;&gt;GO:0008152 -->
<g id="edge8" class="edge">
<title>GO:0044237&#45;&gt;GO:0008152</title>
<path fill="none" stroke="#000000" d="M151.6983,-58.5558C137.9952,-68.2154 122.8381,-78.8999 109.4147,-88.3623"/>
<polygon fill="#000000" stroke="#000000" points="107.0335,-85.7586 100.8766,-94.3809 111.0666,-91.48 107.0335,-85.7586"/>
</g>
<!-- GO:0044237&#45;&gt;GO:0009987 -->
<g id="edge7" class="edge">
<title>GO:0044237&#45;&gt;GO:0009987</title>
<path fill="none" stroke="#000000" d="M195.4075,-58.7963C195.9843,-67.0638 196.6123,-76.0657 197.1938,-84.4008"/>
<polygon fill="#000000" stroke="#000000" points="193.7106,-84.7644 197.8982,-94.4966 200.6936,-84.2772 193.7106,-84.7644"/>
</g>
</g>
</svg>
