<?xml version="1.0" encoding="UTF-8" standalone="no"?>
<!DOCTYPE svg PUBLIC "-//W3C//DTD SVG 1.1//EN"
 "http://www.w3.org/Graphics/SVG/1.1/DTD/svg11.dtd">
<!-- Generated by graphviz version 2.40.1 (20161225.0304)
 -->
<!-- Title: G Pages: 1 -->
<svg width="300pt" height="488pt"
 viewBox="0.00 0.00 300.11 488.00" xmlns="http://www.w3.org/2000/svg" xmlns:xlink="http://www.w3.org/1999/xlink">
<g id="graph0" class="graph" transform="scale(1 1) rotate(0) translate(4 484)">
<title>G</title>
<polygon fill="#ffffff" stroke="transparent" points="-4,4 -4,-484 296.1098,-484 296.1098,4 -4,4"/>
<!-- GO:0008379 -->
<g id="node1" class="node">
<title>GO:0008379</title>
<polygon fill="#00ffff" stroke="#000000" points="211.4285,-58.6014 67.0547,-58.6014 67.0547,.2014 211.4285,.2014 211.4285,-58.6014"/>
<text text-anchor="middle" x="139.2416" y="-41.8" font-family="Times,serif" font-size="14.00" fill="#000000">GO:0008379</text>
<text text-anchor="middle" x="139.2416" y="-25" font-family="Times,serif" font-size="14.00" fill="#000000">thioredoxin peroxidase</text>
<text text-anchor="middle" x="139.2416" y="-8.2" font-family="Times,serif" font-size="14.00" fill="#000000">activity</text>
</g>
<!-- GO:0004601 -->
<g id="node2" class="node">
<title>GO:0004601</title>
<polygon fill="#00ff00" stroke="#000000" points="126.3729,-135.8019 4.1103,-135.8019 4.1103,-94.5981 126.3729,-94.5981 126.3729,-135.8019"/>
<text text-anchor="middle" x="65.2416" y="-119.4" font-family="Times,serif" font-size="14.00" fill="#000000">GO:0004601</text>
<text text-anchor="middle" x="65.2416" y="-102.6" font-family="Times,serif" font-size="14.00" fill="#000000">peroxidase activity</text>
</g>
<!-- GO:0008379&#45;&gt;GO:0004601 -->
<g id="edge1" class="edge">
<title>GO:0008379&#45;&gt;GO:0004601</title>
<path fill="none" stroke="#000000" d="M113.775,-58.7963C105.9498,-67.8905 97.3598,-77.8734 89.61,-86.88"/>
<polygon fill="#000000" stroke="#000000" points="86.9256,-84.6336 83.0562,-94.4966 92.2317,-89.1993 86.9256,-84.6336"/>
</g>
<!-- GO:0051920 -->
<g id="node3" class="node">
<title>GO:0051920</title>
<polygon fill="#ffffff" stroke="#000000" points="284.2648,-135.8019 144.2184,-135.8019 144.2184,-94.5981 284.2648,-94.5981 284.2648,-135.8019"/>
<text text-anchor="middle" x="214.2416" y="-119.4" font-family="Times,serif" font-size="14.00" fill="#000000">GO:0051920</text>
<text text-anchor="middle" x="214.2416" y="-102.6" font-family="Times,serif" font-size="14.00" fill="#000000">peroxiredoxin activity</text>
</g>
<!-- GO:0008379&#45;&gt;GO:0051920 -->
<g id="edge2" class="edge">
<title>GO:0008379&#45;&gt;GO:0051920</title>
<path fill="none" stroke="#000000" d="M165.0523,-58.7963C172.9833,-67.8905 181.6894,-77.8734 189.5439,-86.88"/>
<polygon fill="#000000" stroke="#000000" points="186.9758,-89.2603 196.1863,-94.4966 192.2514,-84.6595 186.9758,-89.2603"/>
</g>
<!-- GO:0016209 -->
<g id="node4" class="node">
<title>GO:0016209</title>
<polygon fill="#ffa500" stroke="#000000" points="124.7257,-230.2019 -.2425,-230.2019 -.2425,-188.9981 124.7257,-188.9981 124.7257,-230.2019"/>
<text text-anchor="middle" x="62.2416" y="-213.8" font-family="Times,serif" font-size="14.00" fill="#000000">GO:0016209</text>
<text text-anchor="middle" x="62.2416" y="-197" font-family="Times,serif" font-size="14.00" fill="#000000">antioxidant activity</text>
</g>
<!-- GO:0004601&#45;&gt;GO:0016209 -->
<g id="edge3" class="edge">
<title>GO:0004601&#45;&gt;GO:0016209</title>
<path fill="none" stroke="#000000" d="M64.5758,-136.1504C64.1796,-148.6165 63.6696,-164.6645 63.2275,-178.5786"/>
<polygon fill="#000000" stroke="#000000" points="59.725,-178.602 62.9055,-188.7081 66.7215,-178.8244 59.725,-178.602"/>
</g>
<!-- GO:0016684 -->
<g id="node5" class="node">
<title>GO:0016684</title>
<polygon fill="#ffffff" stroke="#000000" points="291.9782,-247.3003 142.505,-247.3003 142.505,-171.8997 291.9782,-171.8997 291.9782,-247.3003"/>
<text text-anchor="middle" x="217.2416" y="-230.6" font-family="Times,serif" font-size="14.00" fill="#000000">GO:0016684</text>
<text text-anchor="middle" x="217.2416" y="-213.8" font-family="Times,serif" font-size="14.00" fill="#000000">oxidoreductase activity,</text>
<text text-anchor="middle" x="217.2416" y="-197" font-family="Times,serif" font-size="14.00" fill="#000000">acting on peroxide as</text>
<text text-anchor="middle" x="217.2416" y="-180.2" font-family="Times,serif" font-size="14.00" fill="#000000">acceptor</text>
</g>
<!-- GO:0004601&#45;&gt;GO:0016684 -->
<g id="edge4" class="edge">
<title>GO:0004601&#45;&gt;GO:0016684</title>
<path fill="none" stroke="#000000" d="M98.5986,-135.9165C113.0358,-144.8827 130.5083,-155.734 147.5543,-166.3205"/>
<polygon fill="#000000" stroke="#000000" points="146.0695,-169.5184 156.4111,-171.8211 149.7626,-163.5719 146.0695,-169.5184"/>
</g>
<!-- GO:0051920&#45;&gt;GO:0016209 -->
<g id="edge5" class="edge">
<title>GO:0051920&#45;&gt;GO:0016209</title>
<path fill="none" stroke="#000000" d="M180.8846,-135.9165C158.3133,-149.9344 128.3228,-168.5601 104.1421,-183.5776"/>
<polygon fill="#000000" stroke="#000000" points="102.1693,-180.6827 95.5208,-188.9318 105.8624,-186.6292 102.1693,-180.6827"/>
</g>
<!-- GO:0051920&#45;&gt;GO:0016684 -->
<g id="edge6" class="edge">
<title>GO:0051920&#45;&gt;GO:0016684</title>
<path fill="none" stroke="#000000" d="M214.9074,-136.1504C215.1507,-143.8068 215.437,-152.8143 215.7241,-161.8487"/>
<polygon fill="#000000" stroke="#000000" points="212.2304,-162.1059 216.0464,-171.9897 219.2269,-161.8835 212.2304,-162.1059"/>
</g>
<!-- GO:0003674 -->
<g id="node6" class="node">
<title>GO:0003674</title>
<polygon fill="#ffffff" stroke="#000000" points="192.8747,-479.8019 67.6085,-479.8019 67.6085,-438.5981 192.8747,-438.5981 192.8747,-479.8019"/>
<text text-anchor="middle" x="130.2416" y="-463.4" font-family="Times,serif" font-size="14.00" fill="#000000">GO:0003674</text>
<text text-anchor="middle" x="130.2416" y="-446.6" font-family="Times,serif" font-size="14.00" fill="#000000">molecular_function</text>
</g>
<!-- GO:0016209&#45;&gt;GO:0003674 -->
<g id="edge7" class="edge">
<title>GO:0016209&#45;&gt;GO:0003674</title>
<path fill="none" stroke="#000000" d="M67.9223,-230.4514C79.9271,-274.5163 107.9209,-377.27 121.9369,-428.7169"/>
<polygon fill="#000000" stroke="#000000" points="118.6194,-429.8551 124.6249,-438.5834 125.3732,-428.0151 118.6194,-429.8551"/>
</g>
<!-- GO:0016491 -->
<g id="node7" class="node">
<title>GO:0016491</title>
<polygon fill="#ffff00" stroke="#000000" points="276.4782,-324.6019 130.005,-324.6019 130.005,-283.3981 276.4782,-283.3981 276.4782,-324.6019"/>
<text text-anchor="middle" x="203.2416" y="-308.2" font-family="Times,serif" font-size="14.00" fill="#000000">GO:0016491</text>
<text text-anchor="middle" x="203.2416" y="-291.4" font-family="Times,serif" font-size="14.00" fill="#000000">oxidoreductase activity</text>
</g>
<!-- GO:0016684&#45;&gt;GO:0016491 -->
<g id="edge8" class="edge">
<title>GO:0016684&#45;&gt;GO:0016491</title>
<path fill="none" stroke="#000000" d="M211.6279,-247.4522C210.3549,-256.036 209.0182,-265.0495 207.7953,-273.2948"/>
<polygon fill="#000000" stroke="#000000" points="204.3257,-272.8326 206.3207,-283.2379 211.2499,-273.8596 204.3257,-272.8326"/>
</g>
<!-- GO:0003824 -->
<g id="node8" class="node">
<title>GO:0003824</title>
<polygon fill="#ffa500" stroke="#000000" points="234.654,-402.2019 125.8292,-402.2019 125.8292,-360.9981 234.654,-360.9981 234.654,-402.2019"/>
<text text-anchor="middle" x="180.2416" y="-385.8" font-family="Times,serif" font-size="14.00" fill="#000000">GO:0003824</text>
<text text-anchor="middle" x="180.2416" y="-369" font-family="Times,serif" font-size="14.00" fill="#000000">catalytic activity</text>
</g>
<!-- GO:0016491&#45;&gt;GO:0003824 -->
<g id="edge9" class="edge">
<title>GO:0016491&#45;&gt;GO:0003824</title>
<path fill="none" stroke="#000000" d="M197.078,-324.7954C194.6804,-332.8848 191.8851,-342.3159 189.269,-351.1424"/>
<polygon fill="#000000" stroke="#000000" points="185.9083,-350.1649 186.4222,-360.7472 192.6197,-352.1541 185.9083,-350.1649"/>
</g>
<!-- GO:0003824&#45;&gt;GO:0003674 -->
<g id="edge10" class="edge">
<title>GO:0003824&#45;&gt;GO:0003674</title>
<path fill="none" stroke="#000000" d="M166.8425,-402.3954C161.4061,-410.8328 155.0292,-420.7297 149.1347,-429.8778"/>
<polygon fill="#000000" stroke="#000000" points="146.1519,-428.0453 143.6777,-438.3472 152.0362,-431.8368 146.1519,-428.0453"/>
</g>
</g>
</svg>
