<?xml version="1.0" encoding="UTF-8" standalone="no"?>
<!DOCTYPE svg PUBLIC "-//W3C//DTD SVG 1.1//EN"
 "http://www.w3.org/Graphics/SVG/1.1/DTD/svg11.dtd">
<!-- Generated by graphviz version 2.40.1 (20161225.0304)
 -->
<!-- Title: G Pages: 1 -->
<svg width="953pt" height="333pt"
 viewBox="0.00 0.00 953.33 332.80" xmlns="http://www.w3.org/2000/svg" xmlns:xlink="http://www.w3.org/1999/xlink">
<g id="graph0" class="graph" transform="scale(1 1) rotate(0) translate(4 328.8)">
<title>G</title>
<polygon fill="#ffffff" stroke="transparent" points="-4,4 -4,-328.8 949.3258,-328.8 949.3258,4 -4,4"/>
<!-- GO:0006979 -->
<g id="node1" class="node">
<title>GO:0006979</title>
<polygon fill="#00ffff" stroke="#000000" points="134.9559,-58.6014 .0147,-58.6014 .0147,.2014 134.9559,.2014 134.9559,-58.6014"/>
<text text-anchor="middle" x="67.4853" y="-41.8" font-family="Times,serif" font-size="14.00" fill="#000000">GO:0006979</text>
<text text-anchor="middle" x="67.4853" y="-25" font-family="Times,serif" font-size="14.00" fill="#000000">response to oxidative</text>
<text text-anchor="middle" x="67.4853" y="-8.2" font-family="Times,serif" font-size="14.00" fill="#000000">stress</text>
</g>
<!-- GO:0006950 -->
<g id="node2" class="node">
<title>GO:0006950</title>
<polygon fill="#00ff00" stroke="#000000" points="124.4545,-144.2019 10.5161,-144.2019 10.5161,-102.9981 124.4545,-102.9981 124.4545,-144.2019"/>
<text text-anchor="middle" x="67.4853" y="-127.8" font-family="Times,serif" font-size="14.00" fill="#000000">GO:0006950</text>
<text text-anchor="middle" x="67.4853" y="-111" font-family="Times,serif" font-size="14.00" fill="#000000">response to stress</text>
</g>
<!-- GO:0006979&#45;&gt;GO:0006950 -->
<g id="edge1" class="edge">
<title>GO:0006979&#45;&gt;GO:0006950</title>
<path fill="none" stroke="#000000" d="M67.4853,-58.5513C67.4853,-69.4614 67.4853,-81.8637 67.4853,-92.892"/>
<polygon fill="#000000" stroke="#000000" points="63.9854,-92.9509 67.4853,-102.951 70.9854,-92.951 63.9854,-92.9509"/>
</g>
<!-- GO:0050896 -->
<g id="node3" class="node">
<title>GO:0050896</title>
<polygon fill="#ffff00" stroke="#000000" points="203.8069,-238.6019 73.1637,-238.6019 73.1637,-197.3981 203.8069,-197.3981 203.8069,-238.6019"/>
<text text-anchor="middle" x="138.4853" y="-222.2" font-family="Times,serif" font-size="14.00" fill="#000000">GO:0050896</text>
<text text-anchor="middle" x="138.4853" y="-205.4" font-family="Times,serif" font-size="14.00" fill="#000000">response to stimulus</text>
</g>
<!-- GO:0006950&#45;&gt;GO:0050896 -->
<g id="edge2" class="edge">
<title>GO:0006950&#45;&gt;GO:0050896</title>
<path fill="none" stroke="#000000" d="M83.2425,-144.5504C93.0781,-157.6276 105.8783,-174.6464 116.6804,-189.0087"/>
<polygon fill="#000000" stroke="#000000" points="113.9641,-191.2201 122.7721,-197.1081 119.5584,-187.0125 113.9641,-191.2201"/>
</g>
<!-- GO:0008150 -->
<g id="node4" class="node">
<title>GO:0008150</title>
<polygon fill="#ffffff" stroke="#000000" points="584.9559,-324.6019 464.0147,-324.6019 464.0147,-283.3981 584.9559,-283.3981 584.9559,-324.6019"/>
<text text-anchor="middle" x="524.4853" y="-308.2" font-family="Times,serif" font-size="14.00" fill="#000000">GO:0008150</text>
<text text-anchor="middle" x="524.4853" y="-291.4" font-family="Times,serif" font-size="14.00" fill="#000000">biological_process</text>
</g>
<!-- GO:0050896&#45;&gt;GO:0008150 -->
<g id="edge3" class="edge">
<title>GO:0050896&#45;&gt;GO:0008150</title>
<path fill="none" stroke="#000000" d="M186.9793,-238.6941C195.3877,-241.8317 204.1182,-244.8125 212.4853,-247.2 293.8987,-270.4309 390.0795,-286.2475 453.9118,-295.1749"/>
<polygon fill="#000000" stroke="#000000" points="453.487,-298.6494 463.8715,-296.5486 454.4435,-291.715 453.487,-298.6494"/>
</g>
<!-- GO:0050789 -->
<g id="node5" class="node">
<title>GO:0050789</title>
<polygon fill="#00ffff" stroke="#000000" points="369.3997,-247.4014 221.5709,-247.4014 221.5709,-188.5986 369.3997,-188.5986 369.3997,-247.4014"/>
<text text-anchor="middle" x="295.4853" y="-230.6" font-family="Times,serif" font-size="14.00" fill="#000000">GO:0050789</text>
<text text-anchor="middle" x="295.4853" y="-213.8" font-family="Times,serif" font-size="14.00" fill="#000000">regulation of biological</text>
<text text-anchor="middle" x="295.4853" y="-197" font-family="Times,serif" font-size="14.00" fill="#000000">process</text>
</g>
<!-- GO:0050789&#45;&gt;GO:0008150 -->
<g id="edge4" class="edge">
<title>GO:0050789&#45;&gt;GO:0008150</title>
<path fill="none" stroke="#000000" d="M369.2029,-245.6843C398.4531,-256.6691 431.7877,-269.1878 460.0533,-279.8028"/>
<polygon fill="#000000" stroke="#000000" points="458.8394,-283.0856 469.4315,-283.3248 461.3004,-276.5324 458.8394,-283.0856"/>
</g>
<!-- GO:0065007 -->
<g id="node6" class="node">
<title>GO:0065007</title>
<polygon fill="#00ffff" stroke="#000000" points="519.7387,-238.6019 387.2319,-238.6019 387.2319,-197.3981 519.7387,-197.3981 519.7387,-238.6019"/>
<text text-anchor="middle" x="453.4853" y="-222.2" font-family="Times,serif" font-size="14.00" fill="#000000">GO:0065007</text>
<text text-anchor="middle" x="453.4853" y="-205.4" font-family="Times,serif" font-size="14.00" fill="#000000">biological regulation</text>
</g>
<!-- GO:0065007&#45;&gt;GO:0008150 -->
<g id="edge5" class="edge">
<title>GO:0065007&#45;&gt;GO:0008150</title>
<path fill="none" stroke="#000000" d="M470.6724,-238.8182C479.7423,-249.8043 491.0084,-263.4506 500.8849,-275.4137"/>
<polygon fill="#000000" stroke="#000000" points="498.3909,-277.8902 507.4565,-283.3735 503.789,-273.4337 498.3909,-277.8902"/>
</g>
<!-- GO:0050794 -->
<g id="node7" class="node">
<title>GO:0050794</title>
<polygon fill="#00ffff" stroke="#000000" points="496.3843,-153.0014 362.5863,-153.0014 362.5863,-94.1986 496.3843,-94.1986 496.3843,-153.0014"/>
<text text-anchor="middle" x="429.4853" y="-136.2" font-family="Times,serif" font-size="14.00" fill="#000000">GO:0050794</text>
<text text-anchor="middle" x="429.4853" y="-119.4" font-family="Times,serif" font-size="14.00" fill="#000000">regulation of cellular</text>
<text text-anchor="middle" x="429.4853" y="-102.6" font-family="Times,serif" font-size="14.00" fill="#000000">process</text>
</g>
<!-- GO:0050794&#45;&gt;GO:0050789 -->
<g id="edge7" class="edge">
<title>GO:0050794&#45;&gt;GO:0050789</title>
<path fill="none" stroke="#000000" d="M387.8214,-152.9513C374.4605,-162.3637 359.5232,-172.8867 345.6218,-182.68"/>
<polygon fill="#000000" stroke="#000000" points="343.2828,-180.0464 337.1234,-188.6669 347.3143,-185.7689 343.2828,-180.0464"/>
</g>
<!-- GO:0050794&#45;&gt;GO:0065007 -->
<g id="edge6" class="edge">
<title>GO:0050794&#45;&gt;GO:0065007</title>
<path fill="none" stroke="#000000" d="M436.9475,-152.9513C439.7499,-163.9739 442.9394,-176.5196 445.7648,-187.6326"/>
<polygon fill="#000000" stroke="#000000" points="442.3794,-188.5217 448.2356,-197.351 449.1636,-186.7969 442.3794,-188.5217"/>
</g>
<!-- GO:0008152 -->
<g id="node8" class="node">
<title>GO:0008152</title>
<polygon fill="#00ff00" stroke="#000000" points="653.6709,-238.6019 537.2997,-238.6019 537.2997,-197.3981 653.6709,-197.3981 653.6709,-238.6019"/>
<text text-anchor="middle" x="595.4853" y="-222.2" font-family="Times,serif" font-size="14.00" fill="#000000">GO:0008152</text>
<text text-anchor="middle" x="595.4853" y="-205.4" font-family="Times,serif" font-size="14.00" fill="#000000">metabolic process</text>
</g>
<!-- GO:0008152&#45;&gt;GO:0008150 -->
<g id="edge8" class="edge">
<title>GO:0008152&#45;&gt;GO:0008150</title>
<path fill="none" stroke="#000000" d="M578.2982,-238.8182C569.2283,-249.8043 557.9622,-263.4506 548.0857,-275.4137"/>
<polygon fill="#000000" stroke="#000000" points="545.1816,-273.4337 541.5141,-283.3735 550.5797,-277.8902 545.1816,-273.4337"/>
</g>
<!-- GO:0044699 -->
<g id="node9" class="node">
<title>GO:0044699</title>
<polygon fill="#ffff00" stroke="#000000" points="945.1666,-238.6019 793.804,-238.6019 793.804,-197.3981 945.1666,-197.3981 945.1666,-238.6019"/>
<text text-anchor="middle" x="869.4853" y="-222.2" font-family="Times,serif" font-size="14.00" fill="#000000">GO:0044699</text>
<text text-anchor="middle" x="869.4853" y="-205.4" font-family="Times,serif" font-size="14.00" fill="#000000">single&#45;organism process</text>
</g>
<!-- GO:0044699&#45;&gt;GO:0008150 -->
<g id="edge9" class="edge">
<title>GO:0044699&#45;&gt;GO:0008150</title>
<path fill="none" stroke="#000000" d="M812.1581,-238.7011C802.9593,-241.7309 793.5007,-244.6759 784.4853,-247.2 721.0559,-264.959 647.6412,-280.5534 595.0331,-290.8866"/>
<polygon fill="#000000" stroke="#000000" points="594.2741,-287.4686 585.129,-292.8181 595.614,-294.3392 594.2741,-287.4686"/>
</g>
<!-- GO:0009987 -->
<g id="node10" class="node">
<title>GO:0009987</title>
<polygon fill="#ffff00" stroke="#000000" points="775.4415,-238.6019 671.5291,-238.6019 671.5291,-197.3981 775.4415,-197.3981 775.4415,-238.6019"/>
<text text-anchor="middle" x="723.4853" y="-222.2" font-family="Times,serif" font-size="14.00" fill="#000000">GO:0009987</text>
<text text-anchor="middle" x="723.4853" y="-205.4" font-family="Times,serif" font-size="14.00" fill="#000000">cellular process</text>
</g>
<!-- GO:0009987&#45;&gt;GO:0008150 -->
<g id="edge10" class="edge">
<title>GO:0009987&#45;&gt;GO:0008150</title>
<path fill="none" stroke="#000000" d="M680.9655,-238.7274C674.7913,-241.6281 668.493,-244.5282 662.4853,-247.2 637.6158,-258.2601 609.918,-269.808 585.9013,-279.5808"/>
<polygon fill="#000000" stroke="#000000" points="584.4991,-276.3726 576.547,-283.3736 587.1294,-282.8596 584.4991,-276.3726"/>
</g>
<!-- GO:0042221 -->
<g id="node11" class="node">
<title>GO:0042221</title>
<polygon fill="#00ffff" stroke="#000000" points="276.3857,-144.2019 142.5849,-144.2019 142.5849,-102.9981 276.3857,-102.9981 276.3857,-144.2019"/>
<text text-anchor="middle" x="209.4853" y="-127.8" font-family="Times,serif" font-size="14.00" fill="#000000">GO:0042221</text>
<text text-anchor="middle" x="209.4853" y="-111" font-family="Times,serif" font-size="14.00" fill="#000000">response to chemical</text>
</g>
<!-- GO:0042221&#45;&gt;GO:0050896 -->
<g id="edge11" class="edge">
<title>GO:0042221&#45;&gt;GO:0050896</title>
<path fill="none" stroke="#000000" d="M193.7281,-144.5504C183.8925,-157.6276 171.0923,-174.6464 160.2902,-189.0087"/>
<polygon fill="#000000" stroke="#000000" points="157.4122,-187.0125 154.1985,-197.1081 163.0065,-191.2201 157.4122,-187.0125"/>
</g>
<!-- GO:0044237 -->
<g id="node12" class="node">
<title>GO:0044237</title>
<polygon fill="#00ffff" stroke="#000000" points="676.6681,-153.0014 560.3025,-153.0014 560.3025,-94.1986 676.6681,-94.1986 676.6681,-153.0014"/>
<text text-anchor="middle" x="618.4853" y="-136.2" font-family="Times,serif" font-size="14.00" fill="#000000">GO:0044237</text>
<text text-anchor="middle" x="618.4853" y="-119.4" font-family="Times,serif" font-size="14.00" fill="#000000">cellular metabolic</text>
<text text-anchor="middle" x="618.4853" y="-102.6" font-family="Times,serif" font-size="14.00" fill="#000000">process</text>
</g>
<!-- GO:0044237&#45;&gt;GO:0008152 -->
<g id="edge13" class="edge">
<title>GO:0044237&#45;&gt;GO:0008152</title>
<path fill="none" stroke="#000000" d="M611.334,-152.9513C608.6484,-163.9739 605.5918,-176.5196 602.8841,-187.6326"/>
<polygon fill="#000000" stroke="#000000" points="599.4831,-186.8067 600.5163,-197.351 606.2841,-188.4637 599.4831,-186.8067"/>
</g>
<!-- GO:0044237&#45;&gt;GO:0009987 -->
<g id="edge12" class="edge">
<title>GO:0044237&#45;&gt;GO:0009987</title>
<path fill="none" stroke="#000000" d="M651.1324,-152.9513C664.5187,-164.9862 679.9244,-178.8367 693.0707,-190.6559"/>
<polygon fill="#000000" stroke="#000000" points="690.7411,-193.268 700.5176,-197.351 695.4212,-188.0624 690.7411,-193.268"/>
</g>
</g>
</svg>
