<?xml version="1.0" encoding="UTF-8" standalone="no"?>
<!DOCTYPE svg PUBLIC "-//W3C//DTD SVG 1.1//EN"
 "http://www.w3.org/Graphics/SVG/1.1/DTD/svg11.dtd">
<!-- Generated by graphviz version 2.40.1 (20161225.0304)
 -->
<!-- Title: G Pages: 1 -->
<svg width="723pt" height="721pt"
 viewBox="0.00 0.00 722.55 720.80" xmlns="http://www.w3.org/2000/svg" xmlns:xlink="http://www.w3.org/1999/xlink">
<g id="graph0" class="graph" transform="scale(1 1) rotate(0) translate(4 716.8)">
<title>G</title>
<polygon fill="#ffffff" stroke="transparent" points="-4,4 -4,-716.8 718.546,-716.8 718.546,4 -4,4"/>
<!-- GO:0050789 -->
<g id="node1" class="node">
<title>GO:0050789</title>
<polygon fill="#00ff00" stroke="#000000" points="147.6213,-635.4014 -.2075,-635.4014 -.2075,-576.5986 147.6213,-576.5986 147.6213,-635.4014"/>
<text text-anchor="middle" x="73.7069" y="-618.6" font-family="Times,serif" font-size="14.00" fill="#000000">GO:0050789</text>
<text text-anchor="middle" x="73.7069" y="-601.8" font-family="Times,serif" font-size="14.00" fill="#000000">regulation of biological</text>
<text text-anchor="middle" x="73.7069" y="-585" font-family="Times,serif" font-size="14.00" fill="#000000">process</text>
</g>
<!-- GO:0008150 -->
<g id="node2" class="node">
<title>GO:0008150</title>
<polygon fill="#ffffff" stroke="#000000" points="421.1775,-712.6019 300.2363,-712.6019 300.2363,-671.3981 421.1775,-671.3981 421.1775,-712.6019"/>
<text text-anchor="middle" x="360.7069" y="-696.2" font-family="Times,serif" font-size="14.00" fill="#000000">GO:0008150</text>
<text text-anchor="middle" x="360.7069" y="-679.4" font-family="Times,serif" font-size="14.00" fill="#000000">biological_process</text>
</g>
<!-- GO:0050789&#45;&gt;GO:0008150 -->
<g id="edge1" class="edge">
<title>GO:0050789&#45;&gt;GO:0008150</title>
<path fill="none" stroke="#000000" d="M147.8364,-632.3548C150.8273,-633.3307 153.7927,-634.2828 156.7069,-635.2 200.835,-649.0886 250.8712,-663.0473 290.3451,-673.6515"/>
<polygon fill="#000000" stroke="#000000" points="289.5783,-677.0694 300.1432,-676.2731 291.3877,-670.3073 289.5783,-677.0694"/>
</g>
<!-- GO:0065007 -->
<g id="node3" class="node">
<title>GO:0065007</title>
<polygon fill="#ffff00" stroke="#000000" points="297.9603,-626.6019 165.4535,-626.6019 165.4535,-585.3981 297.9603,-585.3981 297.9603,-626.6019"/>
<text text-anchor="middle" x="231.7069" y="-610.2" font-family="Times,serif" font-size="14.00" fill="#000000">GO:0065007</text>
<text text-anchor="middle" x="231.7069" y="-593.4" font-family="Times,serif" font-size="14.00" fill="#000000">biological regulation</text>
</g>
<!-- GO:0065007&#45;&gt;GO:0008150 -->
<g id="edge2" class="edge">
<title>GO:0065007&#45;&gt;GO:0008150</title>
<path fill="none" stroke="#000000" d="M262.9342,-626.8182C280.5225,-638.5437 302.6563,-653.2996 321.4145,-665.8051"/>
<polygon fill="#000000" stroke="#000000" points="319.5052,-668.7386 329.7672,-671.3735 323.3881,-662.9143 319.5052,-668.7386"/>
</g>
<!-- GO:0065008 -->
<g id="node4" class="node">
<title>GO:0065008</title>
<polygon fill="#00ffff" stroke="#000000" points="294.6213,-541.0014 146.7925,-541.0014 146.7925,-482.1986 294.6213,-482.1986 294.6213,-541.0014"/>
<text text-anchor="middle" x="220.7069" y="-524.2" font-family="Times,serif" font-size="14.00" fill="#000000">GO:0065008</text>
<text text-anchor="middle" x="220.7069" y="-507.4" font-family="Times,serif" font-size="14.00" fill="#000000">regulation of biological</text>
<text text-anchor="middle" x="220.7069" y="-490.6" font-family="Times,serif" font-size="14.00" fill="#000000">quality</text>
</g>
<!-- GO:0065008&#45;&gt;GO:0065007 -->
<g id="edge3" class="edge">
<title>GO:0065008&#45;&gt;GO:0065007</title>
<path fill="none" stroke="#000000" d="M224.1271,-540.9513C225.3984,-551.8614 226.8436,-564.2637 228.1286,-575.292"/>
<polygon fill="#000000" stroke="#000000" points="224.6668,-575.8233 229.3008,-585.351 231.6197,-575.0131 224.6668,-575.8233"/>
</g>
<!-- GO:0006813 -->
<g id="node5" class="node">
<title>GO:0006813</title>
<polygon fill="#00ff00" stroke="#000000" points="565.6353,-41.4019 417.7785,-41.4019 417.7785,-.1981 565.6353,-.1981 565.6353,-41.4019"/>
<text text-anchor="middle" x="491.7069" y="-25" font-family="Times,serif" font-size="14.00" fill="#000000">GO:0006813</text>
<text text-anchor="middle" x="491.7069" y="-8.2" font-family="Times,serif" font-size="14.00" fill="#000000">potassium ion transport</text>
</g>
<!-- GO:0030001 -->
<g id="node6" class="node">
<title>GO:0030001</title>
<polygon fill="#ffff00" stroke="#000000" points="478.4603,-127.4019 356.9535,-127.4019 356.9535,-86.1981 478.4603,-86.1981 478.4603,-127.4019"/>
<text text-anchor="middle" x="417.7069" y="-111" font-family="Times,serif" font-size="14.00" fill="#000000">GO:0030001</text>
<text text-anchor="middle" x="417.7069" y="-94.2" font-family="Times,serif" font-size="14.00" fill="#000000">metal ion transport</text>
</g>
<!-- GO:0006813&#45;&gt;GO:0030001 -->
<g id="edge4" class="edge">
<title>GO:0006813&#45;&gt;GO:0030001</title>
<path fill="none" stroke="#000000" d="M473.7936,-41.6182C464.2495,-52.7099 452.3723,-66.5132 442.0079,-78.5583"/>
<polygon fill="#000000" stroke="#000000" points="439.3247,-76.3105 435.4553,-86.1735 444.6308,-80.8762 439.3247,-76.3105"/>
</g>
<!-- GO:0015672 -->
<g id="node7" class="node">
<title>GO:0015672</title>
<polygon fill="#ffffff" stroke="#000000" points="635.1797,-136.2014 496.2341,-136.2014 496.2341,-77.3986 635.1797,-77.3986 635.1797,-136.2014"/>
<text text-anchor="middle" x="565.7069" y="-119.4" font-family="Times,serif" font-size="14.00" fill="#000000">GO:0015672</text>
<text text-anchor="middle" x="565.7069" y="-102.6" font-family="Times,serif" font-size="14.00" fill="#000000">monovalent inorganic</text>
<text text-anchor="middle" x="565.7069" y="-85.8" font-family="Times,serif" font-size="14.00" fill="#000000">cation transport</text>
</g>
<!-- GO:0006813&#45;&gt;GO:0015672 -->
<g id="edge5" class="edge">
<title>GO:0006813&#45;&gt;GO:0015672</title>
<path fill="none" stroke="#000000" d="M509.6202,-41.6182C516.9106,-50.0908 525.5624,-60.1456 533.8613,-69.7903"/>
<polygon fill="#000000" stroke="#000000" points="531.233,-72.1019 540.4085,-77.3991 536.5391,-67.5362 531.233,-72.1019"/>
</g>
<!-- GO:0006812 -->
<g id="node8" class="node">
<title>GO:0006812</title>
<polygon fill="#ffffff" stroke="#000000" points="543.68,-213.4019 439.7338,-213.4019 439.7338,-172.1981 543.68,-172.1981 543.68,-213.4019"/>
<text text-anchor="middle" x="491.7069" y="-197" font-family="Times,serif" font-size="14.00" fill="#000000">GO:0006812</text>
<text text-anchor="middle" x="491.7069" y="-180.2" font-family="Times,serif" font-size="14.00" fill="#000000">cation transport</text>
</g>
<!-- GO:0030001&#45;&gt;GO:0006812 -->
<g id="edge6" class="edge">
<title>GO:0030001&#45;&gt;GO:0006812</title>
<path fill="none" stroke="#000000" d="M435.6202,-127.6182C445.1643,-138.7099 457.0415,-152.5132 467.4059,-164.5583"/>
<polygon fill="#000000" stroke="#000000" points="464.783,-166.8762 473.9585,-172.1735 470.0891,-162.3105 464.783,-166.8762"/>
</g>
<!-- GO:0015672&#45;&gt;GO:0006812 -->
<g id="edge7" class="edge">
<title>GO:0015672&#45;&gt;GO:0006812</title>
<path fill="none" stroke="#000000" d="M540.2403,-136.3963C532.4151,-145.4905 523.8251,-155.4734 516.0753,-164.48"/>
<polygon fill="#000000" stroke="#000000" points="513.3909,-162.2336 509.5215,-172.0966 518.697,-166.7993 513.3909,-162.2336"/>
</g>
<!-- GO:0006811 -->
<g id="node9" class="node">
<title>GO:0006811</title>
<polygon fill="#ffa500" stroke="#000000" points="536.3108,-291.0019 447.103,-291.0019 447.103,-249.7981 536.3108,-249.7981 536.3108,-291.0019"/>
<text text-anchor="middle" x="491.7069" y="-274.6" font-family="Times,serif" font-size="14.00" fill="#000000">GO:0006811</text>
<text text-anchor="middle" x="491.7069" y="-257.8" font-family="Times,serif" font-size="14.00" fill="#000000">ion transport</text>
</g>
<!-- GO:0006812&#45;&gt;GO:0006811 -->
<g id="edge8" class="edge">
<title>GO:0006812&#45;&gt;GO:0006811</title>
<path fill="none" stroke="#000000" d="M491.7069,-213.5954C491.7069,-221.5109 491.7069,-230.7109 491.7069,-239.3722"/>
<polygon fill="#000000" stroke="#000000" points="488.207,-239.5472 491.7069,-249.5472 495.207,-239.5473 488.207,-239.5472"/>
</g>
<!-- GO:0044765 -->
<g id="node10" class="node">
<title>GO:0044765</title>
<polygon fill="#ffffff" stroke="#000000" points="571.6712,-368.6019 411.7426,-368.6019 411.7426,-327.3981 571.6712,-327.3981 571.6712,-368.6019"/>
<text text-anchor="middle" x="491.7069" y="-352.2" font-family="Times,serif" font-size="14.00" fill="#000000">GO:0044765</text>
<text text-anchor="middle" x="491.7069" y="-335.4" font-family="Times,serif" font-size="14.00" fill="#000000">single&#45;organism transport</text>
</g>
<!-- GO:0006811&#45;&gt;GO:0044765 -->
<g id="edge9" class="edge">
<title>GO:0006811&#45;&gt;GO:0044765</title>
<path fill="none" stroke="#000000" d="M491.7069,-291.1954C491.7069,-299.1109 491.7069,-308.3109 491.7069,-316.9722"/>
<polygon fill="#000000" stroke="#000000" points="488.207,-317.1472 491.7069,-327.1472 495.207,-317.1473 488.207,-317.1472"/>
</g>
<!-- GO:0006810 -->
<g id="node11" class="node">
<title>GO:0006810</title>
<polygon fill="#ffa500" stroke="#000000" points="437.3108,-446.2019 348.103,-446.2019 348.103,-404.9981 437.3108,-404.9981 437.3108,-446.2019"/>
<text text-anchor="middle" x="392.7069" y="-429.8" font-family="Times,serif" font-size="14.00" fill="#000000">GO:0006810</text>
<text text-anchor="middle" x="392.7069" y="-413" font-family="Times,serif" font-size="14.00" fill="#000000">transport</text>
</g>
<!-- GO:0044765&#45;&gt;GO:0006810 -->
<g id="edge10" class="edge">
<title>GO:0044765&#45;&gt;GO:0006810</title>
<path fill="none" stroke="#000000" d="M465.1767,-368.7954C453.5248,-377.9286 439.6909,-388.7721 427.2487,-398.5248"/>
<polygon fill="#000000" stroke="#000000" points="425.0215,-395.8235 419.3103,-404.7472 429.3399,-401.3327 425.0215,-395.8235"/>
</g>
<!-- GO:1902578 -->
<g id="node12" class="node">
<title>GO:1902578</title>
<polygon fill="#ffffff" stroke="#000000" points="544.9091,-541.0014 438.5047,-541.0014 438.5047,-482.1986 544.9091,-482.1986 544.9091,-541.0014"/>
<text text-anchor="middle" x="491.7069" y="-524.2" font-family="Times,serif" font-size="14.00" fill="#000000">GO:1902578</text>
<text text-anchor="middle" x="491.7069" y="-507.4" font-family="Times,serif" font-size="14.00" fill="#000000">single&#45;organism</text>
<text text-anchor="middle" x="491.7069" y="-490.6" font-family="Times,serif" font-size="14.00" fill="#000000">localization</text>
</g>
<!-- GO:0044765&#45;&gt;GO:1902578 -->
<g id="edge11" class="edge">
<title>GO:0044765&#45;&gt;GO:1902578</title>
<path fill="none" stroke="#000000" d="M491.7069,-368.7201C491.7069,-394.6334 491.7069,-439.5467 491.7069,-472.113"/>
<polygon fill="#000000" stroke="#000000" points="488.207,-472.2128 491.7069,-482.2129 495.207,-472.2129 488.207,-472.2128"/>
</g>
<!-- GO:0051234 -->
<g id="node13" class="node">
<title>GO:0051234</title>
<polygon fill="#ffffff" stroke="#000000" points="420.8536,-541.0014 312.5602,-541.0014 312.5602,-482.1986 420.8536,-482.1986 420.8536,-541.0014"/>
<text text-anchor="middle" x="366.7069" y="-524.2" font-family="Times,serif" font-size="14.00" fill="#000000">GO:0051234</text>
<text text-anchor="middle" x="366.7069" y="-507.4" font-family="Times,serif" font-size="14.00" fill="#000000">establishment of</text>
<text text-anchor="middle" x="366.7069" y="-490.6" font-family="Times,serif" font-size="14.00" fill="#000000">localization</text>
</g>
<!-- GO:0006810&#45;&gt;GO:0051234 -->
<g id="edge12" class="edge">
<title>GO:0006810&#45;&gt;GO:0051234</title>
<path fill="none" stroke="#000000" d="M386.413,-446.4182C384.0291,-454.3036 381.2308,-463.5594 378.5037,-472.5797"/>
<polygon fill="#000000" stroke="#000000" points="375.1393,-471.6141 375.5955,-482.1991 381.8397,-473.6399 375.1393,-471.6141"/>
</g>
<!-- GO:0051179 -->
<g id="node14" class="node">
<title>GO:0051179</title>
<polygon fill="#ffffff" stroke="#000000" points="405.3108,-626.6019 316.103,-626.6019 316.103,-585.3981 405.3108,-585.3981 405.3108,-626.6019"/>
<text text-anchor="middle" x="360.7069" y="-610.2" font-family="Times,serif" font-size="14.00" fill="#000000">GO:0051179</text>
<text text-anchor="middle" x="360.7069" y="-593.4" font-family="Times,serif" font-size="14.00" fill="#000000">localization</text>
</g>
<!-- GO:1902578&#45;&gt;GO:0051179 -->
<g id="edge13" class="edge">
<title>GO:1902578&#45;&gt;GO:0051179</title>
<path fill="none" stroke="#000000" d="M450.9758,-540.9513C433.9626,-553.2112 414.3349,-567.3551 397.736,-579.3165"/>
<polygon fill="#000000" stroke="#000000" points="395.4286,-576.6651 389.3618,-585.351 399.521,-582.3442 395.4286,-576.6651"/>
</g>
<!-- GO:0044699 -->
<g id="node15" class="node">
<title>GO:0044699</title>
<polygon fill="#ffa500" stroke="#000000" points="574.3882,-626.6019 423.0256,-626.6019 423.0256,-585.3981 574.3882,-585.3981 574.3882,-626.6019"/>
<text text-anchor="middle" x="498.7069" y="-610.2" font-family="Times,serif" font-size="14.00" fill="#000000">GO:0044699</text>
<text text-anchor="middle" x="498.7069" y="-593.4" font-family="Times,serif" font-size="14.00" fill="#000000">single&#45;organism process</text>
</g>
<!-- GO:1902578&#45;&gt;GO:0044699 -->
<g id="edge14" class="edge">
<title>GO:1902578&#45;&gt;GO:0044699</title>
<path fill="none" stroke="#000000" d="M493.8834,-540.9513C494.6924,-551.8614 495.612,-564.2637 496.4298,-575.292"/>
<polygon fill="#000000" stroke="#000000" points="492.9457,-575.6372 497.1757,-585.351 499.9266,-575.1195 492.9457,-575.6372"/>
</g>
<!-- GO:0051234&#45;&gt;GO:0051179 -->
<g id="edge15" class="edge">
<title>GO:0051234&#45;&gt;GO:0051179</title>
<path fill="none" stroke="#000000" d="M364.8414,-540.9513C364.1479,-551.8614 363.3596,-564.2637 362.6587,-575.292"/>
<polygon fill="#000000" stroke="#000000" points="359.1608,-575.1491 362.0193,-585.351 366.1467,-575.5932 359.1608,-575.1491"/>
</g>
<!-- GO:0051179&#45;&gt;GO:0008150 -->
<g id="edge16" class="edge">
<title>GO:0051179&#45;&gt;GO:0008150</title>
<path fill="none" stroke="#000000" d="M360.7069,-626.8182C360.7069,-637.1705 360.7069,-649.8848 360.7069,-661.3271"/>
<polygon fill="#000000" stroke="#000000" points="357.207,-661.3735 360.7069,-671.3735 364.207,-661.3735 357.207,-661.3735"/>
</g>
<!-- GO:0044699&#45;&gt;GO:0008150 -->
<g id="edge17" class="edge">
<title>GO:0044699&#45;&gt;GO:0008150</title>
<path fill="none" stroke="#000000" d="M465.3009,-626.8182C446.4008,-638.5966 422.5941,-653.4326 402.4697,-665.9739"/>
<polygon fill="#000000" stroke="#000000" points="400.441,-663.1141 393.8052,-671.3735 404.1433,-669.055 400.441,-663.1141"/>
</g>
<!-- GO:0009987 -->
<g id="node16" class="node">
<title>GO:0009987</title>
<polygon fill="#00ff00" stroke="#000000" points="696.6631,-626.6019 592.7507,-626.6019 592.7507,-585.3981 696.6631,-585.3981 696.6631,-626.6019"/>
<text text-anchor="middle" x="644.7069" y="-610.2" font-family="Times,serif" font-size="14.00" fill="#000000">GO:0009987</text>
<text text-anchor="middle" x="644.7069" y="-593.4" font-family="Times,serif" font-size="14.00" fill="#000000">cellular process</text>
</g>
<!-- GO:0009987&#45;&gt;GO:0008150 -->
<g id="edge18" class="edge">
<title>GO:0009987&#45;&gt;GO:0008150</title>
<path fill="none" stroke="#000000" d="M604.4976,-626.6154C597.6567,-629.7256 590.5502,-632.718 583.7069,-635.2 533.7759,-653.3092 475.564,-667.9279 431.1379,-677.7977"/>
<polygon fill="#000000" stroke="#000000" points="430.3218,-674.3934 421.3041,-679.955 431.8219,-681.2308 430.3218,-674.3934"/>
</g>
<!-- GO:0055085 -->
<g id="node17" class="node">
<title>GO:0055085</title>
<polygon fill="#ff00ff" stroke="#000000" points="712.2651,-291.0019 557.1487,-291.0019 557.1487,-249.7981 712.2651,-249.7981 712.2651,-291.0019"/>
<text text-anchor="middle" x="634.7069" y="-274.6" font-family="Times,serif" font-size="14.00" fill="#000000">GO:0055085</text>
<text text-anchor="middle" x="634.7069" y="-257.8" font-family="Times,serif" font-size="14.00" fill="#000000">transmembrane transport</text>
</g>
<!-- GO:0055085&#45;&gt;GO:0044765 -->
<g id="edge19" class="edge">
<title>GO:0055085&#45;&gt;GO:0044765</title>
<path fill="none" stroke="#000000" d="M596.3855,-291.1954C578.7535,-300.7635 557.6625,-312.2087 539.0475,-322.3103"/>
<polygon fill="#000000" stroke="#000000" points="537.254,-319.3014 530.1341,-327.1472 540.5927,-325.4539 537.254,-319.3014"/>
</g>
<!-- GO:0044763 -->
<g id="node18" class="node">
<title>GO:0044763</title>
<polygon fill="#00ffff" stroke="#000000" points="714.3854,-541.0014 563.0284,-541.0014 563.0284,-482.1986 714.3854,-482.1986 714.3854,-541.0014"/>
<text text-anchor="middle" x="638.7069" y="-524.2" font-family="Times,serif" font-size="14.00" fill="#000000">GO:0044763</text>
<text text-anchor="middle" x="638.7069" y="-507.4" font-family="Times,serif" font-size="14.00" fill="#000000">single&#45;organism cellular</text>
<text text-anchor="middle" x="638.7069" y="-490.6" font-family="Times,serif" font-size="14.00" fill="#000000">process</text>
</g>
<!-- GO:0055085&#45;&gt;GO:0044763 -->
<g id="edge20" class="edge">
<title>GO:0055085&#45;&gt;GO:0044763</title>
<path fill="none" stroke="#000000" d="M635.0549,-291.383C635.7235,-331.7003 637.1972,-420.5666 638.0542,-472.2406"/>
<polygon fill="#000000" stroke="#000000" points="634.5566,-472.4225 638.222,-482.363 641.5556,-472.3063 634.5566,-472.4225"/>
</g>
<!-- GO:0044763&#45;&gt;GO:0044699 -->
<g id="edge22" class="edge">
<title>GO:0044763&#45;&gt;GO:0044699</title>
<path fill="none" stroke="#000000" d="M595.1774,-540.9513C576.8286,-553.3236 555.6341,-567.6148 537.7925,-579.6451"/>
<polygon fill="#000000" stroke="#000000" points="535.6649,-576.8583 529.3304,-585.351 539.5784,-582.6622 535.6649,-576.8583"/>
</g>
<!-- GO:0044763&#45;&gt;GO:0009987 -->
<g id="edge21" class="edge">
<title>GO:0044763&#45;&gt;GO:0009987</title>
<path fill="none" stroke="#000000" d="M640.5724,-540.9513C641.2659,-551.8614 642.0542,-564.2637 642.7551,-575.292"/>
<polygon fill="#000000" stroke="#000000" points="639.2671,-575.5932 643.3945,-585.351 646.253,-575.1491 639.2671,-575.5932"/>
</g>
</g>
</svg>
