<?xml version="1.0" encoding="UTF-8" standalone="no"?>
<!DOCTYPE svg PUBLIC "-//W3C//DTD SVG 1.1//EN"
 "http://www.w3.org/Graphics/SVG/1.1/DTD/svg11.dtd">
<!-- Generated by graphviz version 2.40.1 (20161225.0304)
 -->
<!-- Title: G Pages: 1 -->
<svg width="237pt" height="316pt"
 viewBox="0.00 0.00 236.93 316.00" xmlns="http://www.w3.org/2000/svg" xmlns:xlink="http://www.w3.org/1999/xlink">
<g id="graph0" class="graph" transform="scale(1 1) rotate(0) translate(4 312)">
<title>G</title>
<polygon fill="#ffffff" stroke="transparent" points="-4,4 -4,-312 232.9285,-312 232.9285,4 -4,4"/>
<!-- GO:0031224 -->
<g id="node1" class="node">
<title>GO:0031224</title>
<polygon fill="#ff0000" stroke="#000000" points="228.8053,-153.0014 86.2985,-153.0014 86.2985,-94.1986 228.8053,-94.1986 228.8053,-153.0014"/>
<text text-anchor="middle" x="157.5519" y="-136.2" font-family="Times,serif" font-size="14.00" fill="#000000">GO:0031224</text>
<text text-anchor="middle" x="157.5519" y="-119.4" font-family="Times,serif" font-size="14.00" fill="#000000">intrinsic component of</text>
<text text-anchor="middle" x="157.5519" y="-102.6" font-family="Times,serif" font-size="14.00" fill="#000000">membrane</text>
</g>
<!-- GO:0044425 -->
<g id="node2" class="node">
<title>GO:0044425</title>
<polygon fill="#ff0000" stroke="#000000" points="207.9039,-230.2019 107.1999,-230.2019 107.1999,-188.9981 207.9039,-188.9981 207.9039,-230.2019"/>
<text text-anchor="middle" x="157.5519" y="-213.8" font-family="Times,serif" font-size="14.00" fill="#000000">GO:0044425</text>
<text text-anchor="middle" x="157.5519" y="-197" font-family="Times,serif" font-size="14.00" fill="#000000">membrane part</text>
</g>
<!-- GO:0031224&#45;&gt;GO:0044425 -->
<g id="edge1" class="edge">
<title>GO:0031224&#45;&gt;GO:0044425</title>
<path fill="none" stroke="#000000" d="M157.5519,-153.1963C157.5519,-161.4638 157.5519,-170.4657 157.5519,-178.8008"/>
<polygon fill="#000000" stroke="#000000" points="154.052,-178.8965 157.5519,-188.8966 161.052,-178.8966 154.052,-178.8965"/>
</g>
<!-- GO:0005575 -->
<g id="node3" class="node">
<title>GO:0005575</title>
<polygon fill="#ffffff" stroke="#000000" points="164.2386,-307.8019 36.8652,-307.8019 36.8652,-266.5981 164.2386,-266.5981 164.2386,-307.8019"/>
<text text-anchor="middle" x="100.5519" y="-291.4" font-family="Times,serif" font-size="14.00" fill="#000000">GO:0005575</text>
<text text-anchor="middle" x="100.5519" y="-274.6" font-family="Times,serif" font-size="14.00" fill="#000000">cellular_component</text>
</g>
<!-- GO:0044425&#45;&gt;GO:0005575 -->
<g id="edge2" class="edge">
<title>GO:0044425&#45;&gt;GO:0005575</title>
<path fill="none" stroke="#000000" d="M142.2769,-230.3954C136.0155,-238.9197 128.6597,-248.9339 121.8824,-258.1605"/>
<polygon fill="#000000" stroke="#000000" points="118.9682,-256.2158 115.869,-266.3472 124.6098,-260.3598 118.9682,-256.2158"/>
</g>
<!-- GO:0016021 -->
<g id="node4" class="node">
<title>GO:0016021</title>
<polygon fill="#ffa500" stroke="#000000" points="227.185,-58.6014 87.9188,-58.6014 87.9188,.2014 227.185,.2014 227.185,-58.6014"/>
<text text-anchor="middle" x="157.5519" y="-41.8" font-family="Times,serif" font-size="14.00" fill="#000000">GO:0016021</text>
<text text-anchor="middle" x="157.5519" y="-25" font-family="Times,serif" font-size="14.00" fill="#000000">integral component of</text>
<text text-anchor="middle" x="157.5519" y="-8.2" font-family="Times,serif" font-size="14.00" fill="#000000">membrane</text>
</g>
<!-- GO:0016021&#45;&gt;GO:0031224 -->
<g id="edge3" class="edge">
<title>GO:0016021&#45;&gt;GO:0031224</title>
<path fill="none" stroke="#000000" d="M157.5519,-58.5513C157.5519,-66.6318 157.5519,-75.5308 157.5519,-84.0838"/>
<polygon fill="#000000" stroke="#000000" points="154.052,-84.2668 157.5519,-94.2669 161.052,-84.2669 154.052,-84.2668"/>
</g>
<!-- GO:0044464 -->
<g id="node5" class="node">
<title>GO:0044464</title>
<polygon fill="#ffa500" stroke="#000000" points="89.1558,-230.2019 -.052,-230.2019 -.052,-188.9981 89.1558,-188.9981 89.1558,-230.2019"/>
<text text-anchor="middle" x="44.5519" y="-213.8" font-family="Times,serif" font-size="14.00" fill="#000000">GO:0044464</text>
<text text-anchor="middle" x="44.5519" y="-197" font-family="Times,serif" font-size="14.00" fill="#000000">cell part</text>
</g>
<!-- GO:0044464&#45;&gt;GO:0005575 -->
<g id="edge4" class="edge">
<title>GO:0044464&#45;&gt;GO:0005575</title>
<path fill="none" stroke="#000000" d="M59.5589,-230.3954C65.7105,-238.9197 72.9372,-248.9339 79.5956,-258.1605"/>
<polygon fill="#000000" stroke="#000000" points="76.8135,-260.2864 85.5035,-266.3472 82.4898,-256.19 76.8135,-260.2864"/>
</g>
</g>
</svg>
