<?xml version="1.0" encoding="UTF-8" standalone="no"?>
<!DOCTYPE svg PUBLIC "-//W3C//DTD SVG 1.1//EN"
 "http://www.w3.org/Graphics/SVG/1.1/DTD/svg11.dtd">
<!-- Generated by graphviz version 2.40.1 (20161225.0304)
 -->
<!-- Title: G Pages: 1 -->
<svg width="918pt" height="683pt"
 viewBox="0.00 0.00 917.80 683.20" xmlns="http://www.w3.org/2000/svg" xmlns:xlink="http://www.w3.org/1999/xlink">
<g id="graph0" class="graph" transform="scale(1 1) rotate(0) translate(4 679.2)">
<title>G</title>
<polygon fill="#ffffff" stroke="transparent" points="-4,4 -4,-679.2 913.8023,-679.2 913.8023,4 -4,4"/>
<!-- GO:0031325 -->
<g id="node1" class="node">
<title>GO:0031325</title>
<polygon fill="#00ffff" stroke="#000000" points="287.63,-297.7003 152.1232,-297.7003 152.1232,-222.2997 287.63,-222.2997 287.63,-297.7003"/>
<text text-anchor="middle" x="219.8766" y="-281" font-family="Times,serif" font-size="14.00" fill="#000000">GO:0031325</text>
<text text-anchor="middle" x="219.8766" y="-264.2" font-family="Times,serif" font-size="14.00" fill="#000000">positive regulation of</text>
<text text-anchor="middle" x="219.8766" y="-247.4" font-family="Times,serif" font-size="14.00" fill="#000000">cellular metabolic</text>
<text text-anchor="middle" x="219.8766" y="-230.6" font-family="Times,serif" font-size="14.00" fill="#000000">process</text>
</g>
<!-- GO:0031323 -->
<g id="node2" class="node">
<title>GO:0031323</title>
<polygon fill="#00ffff" stroke="#000000" points="287.7756,-400.6014 153.9776,-400.6014 153.9776,-341.7986 287.7756,-341.7986 287.7756,-400.6014"/>
<text text-anchor="middle" x="220.8766" y="-383.8" font-family="Times,serif" font-size="14.00" fill="#000000">GO:0031323</text>
<text text-anchor="middle" x="220.8766" y="-367" font-family="Times,serif" font-size="14.00" fill="#000000">regulation of cellular</text>
<text text-anchor="middle" x="220.8766" y="-350.2" font-family="Times,serif" font-size="14.00" fill="#000000">metabolic process</text>
</g>
<!-- GO:0031325&#45;&gt;GO:0031323 -->
<g id="edge1" class="edge">
<title>GO:0031325&#45;&gt;GO:0031323</title>
<path fill="none" stroke="#000000" d="M220.2152,-297.6472C220.3131,-308.5338 220.4202,-320.449 220.5192,-331.4589"/>
<polygon fill="#000000" stroke="#000000" points="217.0212,-331.7061 220.6111,-341.6742 224.0209,-331.6431 217.0212,-331.7061"/>
</g>
<!-- GO:0009893 -->
<g id="node3" class="node">
<title>GO:0009893</title>
<polygon fill="#ffffff" stroke="#000000" points="441.63,-400.6014 306.1232,-400.6014 306.1232,-341.7986 441.63,-341.7986 441.63,-400.6014"/>
<text text-anchor="middle" x="373.8766" y="-383.8" font-family="Times,serif" font-size="14.00" fill="#000000">GO:0009893</text>
<text text-anchor="middle" x="373.8766" y="-367" font-family="Times,serif" font-size="14.00" fill="#000000">positive regulation of</text>
<text text-anchor="middle" x="373.8766" y="-350.2" font-family="Times,serif" font-size="14.00" fill="#000000">metabolic process</text>
</g>
<!-- GO:0031325&#45;&gt;GO:0009893 -->
<g id="edge2" class="edge">
<title>GO:0031325&#45;&gt;GO:0009893</title>
<path fill="none" stroke="#000000" d="M272.014,-297.6472C288.9558,-309.8806 307.6966,-323.4129 324.4356,-335.4998"/>
<polygon fill="#000000" stroke="#000000" points="322.8302,-338.6576 332.9865,-341.6742 326.9281,-332.9824 322.8302,-338.6576"/>
</g>
<!-- GO:0048522 -->
<g id="node4" class="node">
<title>GO:0048522</title>
<polygon fill="#00ffff" stroke="#000000" points="135.63,-400.6014 .1232,-400.6014 .1232,-341.7986 135.63,-341.7986 135.63,-400.6014"/>
<text text-anchor="middle" x="67.8766" y="-383.8" font-family="Times,serif" font-size="14.00" fill="#000000">GO:0048522</text>
<text text-anchor="middle" x="67.8766" y="-367" font-family="Times,serif" font-size="14.00" fill="#000000">positive regulation of</text>
<text text-anchor="middle" x="67.8766" y="-350.2" font-family="Times,serif" font-size="14.00" fill="#000000">cellular process</text>
</g>
<!-- GO:0031325&#45;&gt;GO:0048522 -->
<g id="edge3" class="edge">
<title>GO:0031325&#45;&gt;GO:0048522</title>
<path fill="none" stroke="#000000" d="M168.4163,-297.6472C151.6945,-309.8806 133.1971,-323.4129 116.6755,-335.4998"/>
<polygon fill="#000000" stroke="#000000" points="114.2399,-332.9449 108.2357,-341.6742 118.373,-338.5945 114.2399,-332.9449"/>
</g>
<!-- GO:0019222 -->
<g id="node5" class="node">
<title>GO:0019222</title>
<polygon fill="#ffffff" stroke="#000000" points="602.0055,-503.4014 455.7477,-503.4014 455.7477,-444.5986 602.0055,-444.5986 602.0055,-503.4014"/>
<text text-anchor="middle" x="528.8766" y="-486.6" font-family="Times,serif" font-size="14.00" fill="#000000">GO:0019222</text>
<text text-anchor="middle" x="528.8766" y="-469.8" font-family="Times,serif" font-size="14.00" fill="#000000">regulation of metabolic</text>
<text text-anchor="middle" x="528.8766" y="-453" font-family="Times,serif" font-size="14.00" fill="#000000">process</text>
</g>
<!-- GO:0031323&#45;&gt;GO:0019222 -->
<g id="edge4" class="edge">
<title>GO:0031323&#45;&gt;GO:0019222</title>
<path fill="none" stroke="#000000" d="M276.7053,-400.5646C283.4087,-403.568 290.2329,-406.3938 296.8766,-408.8 358.4429,-431.0983 379.2859,-425.8293 445.9645,-444.6767"/>
<polygon fill="#000000" stroke="#000000" points="445.1069,-448.0722 455.6864,-447.5016 447.0602,-441.3502 445.1069,-448.0722"/>
</g>
<!-- GO:0050794 -->
<g id="node6" class="node">
<title>GO:0050794</title>
<polygon fill="#ffff00" stroke="#000000" points="283.7756,-503.4014 149.9776,-503.4014 149.9776,-444.5986 283.7756,-444.5986 283.7756,-503.4014"/>
<text text-anchor="middle" x="216.8766" y="-486.6" font-family="Times,serif" font-size="14.00" fill="#000000">GO:0050794</text>
<text text-anchor="middle" x="216.8766" y="-469.8" font-family="Times,serif" font-size="14.00" fill="#000000">regulation of cellular</text>
<text text-anchor="middle" x="216.8766" y="-453" font-family="Times,serif" font-size="14.00" fill="#000000">process</text>
</g>
<!-- GO:0031323&#45;&gt;GO:0050794 -->
<g id="edge5" class="edge">
<title>GO:0031323&#45;&gt;GO:0050794</title>
<path fill="none" stroke="#000000" d="M219.7304,-400.6584C219.3203,-411.1969 218.8513,-423.2505 218.4136,-434.4994"/>
<polygon fill="#000000" stroke="#000000" points="214.9146,-434.4088 218.023,-444.5373 221.9093,-434.681 214.9146,-434.4088"/>
</g>
<!-- GO:0009893&#45;&gt;GO:0019222 -->
<g id="edge7" class="edge">
<title>GO:0009893&#45;&gt;GO:0019222</title>
<path fill="none" stroke="#000000" d="M418.2934,-400.6584C436.3687,-412.6464 457.3997,-426.5947 476.2386,-439.0891"/>
<polygon fill="#000000" stroke="#000000" points="474.4533,-442.1048 484.7215,-444.7152 478.3223,-436.2712 474.4533,-442.1048"/>
</g>
<!-- GO:0048518 -->
<g id="node7" class="node">
<title>GO:0048518</title>
<polygon fill="#00ffff" stroke="#000000" points="437.63,-503.4014 302.1232,-503.4014 302.1232,-444.5986 437.63,-444.5986 437.63,-503.4014"/>
<text text-anchor="middle" x="369.8766" y="-486.6" font-family="Times,serif" font-size="14.00" fill="#000000">GO:0048518</text>
<text text-anchor="middle" x="369.8766" y="-469.8" font-family="Times,serif" font-size="14.00" fill="#000000">positive regulation of</text>
<text text-anchor="middle" x="369.8766" y="-453" font-family="Times,serif" font-size="14.00" fill="#000000">biological process</text>
</g>
<!-- GO:0009893&#45;&gt;GO:0048518 -->
<g id="edge6" class="edge">
<title>GO:0009893&#45;&gt;GO:0048518</title>
<path fill="none" stroke="#000000" d="M372.7304,-400.6584C372.3203,-411.1969 371.8513,-423.2505 371.4136,-434.4994"/>
<polygon fill="#000000" stroke="#000000" points="367.9146,-434.4088 371.023,-444.5373 374.9093,-434.681 367.9146,-434.4088"/>
</g>
<!-- GO:0048522&#45;&gt;GO:0050794 -->
<g id="edge9" class="edge">
<title>GO:0048522&#45;&gt;GO:0050794</title>
<path fill="none" stroke="#000000" d="M110.574,-400.6584C127.7931,-412.5384 147.8025,-426.3435 165.7862,-438.7511"/>
<polygon fill="#000000" stroke="#000000" points="164.212,-441.9172 174.4307,-444.7152 168.1873,-436.1554 164.212,-441.9172"/>
</g>
<!-- GO:0048522&#45;&gt;GO:0048518 -->
<g id="edge8" class="edge">
<title>GO:0048522&#45;&gt;GO:0048518</title>
<path fill="none" stroke="#000000" d="M124.4686,-400.5282C131.2551,-403.5381 138.16,-406.3754 144.8766,-408.8 205.6902,-430.7531 226.3596,-425.3304 292.3885,-444.8226"/>
<polygon fill="#000000" stroke="#000000" points="291.4299,-448.1892 302.0154,-447.7438 293.4625,-441.4908 291.4299,-448.1892"/>
</g>
<!-- GO:0065007 -->
<g id="node8" class="node">
<title>GO:0065007</title>
<polygon fill="#ffff00" stroke="#000000" points="399.13,-589.0019 266.6232,-589.0019 266.6232,-547.7981 399.13,-547.7981 399.13,-589.0019"/>
<text text-anchor="middle" x="332.8766" y="-572.6" font-family="Times,serif" font-size="14.00" fill="#000000">GO:0065007</text>
<text text-anchor="middle" x="332.8766" y="-555.8" font-family="Times,serif" font-size="14.00" fill="#000000">biological regulation</text>
</g>
<!-- GO:0019222&#45;&gt;GO:0065007 -->
<g id="edge10" class="edge">
<title>GO:0019222&#45;&gt;GO:0065007</title>
<path fill="none" stroke="#000000" d="M468.2032,-503.2223C441.5683,-516.0505 410.6086,-530.9617 385.0287,-543.2818"/>
<polygon fill="#000000" stroke="#000000" points="383.3567,-540.2023 375.866,-547.6949 386.3942,-546.5089 383.3567,-540.2023"/>
</g>
<!-- GO:0050789 -->
<g id="node9" class="node">
<title>GO:0050789</title>
<polygon fill="#ffff00" stroke="#000000" points="564.791,-597.8014 416.9622,-597.8014 416.9622,-538.9986 564.791,-538.9986 564.791,-597.8014"/>
<text text-anchor="middle" x="490.8766" y="-581" font-family="Times,serif" font-size="14.00" fill="#000000">GO:0050789</text>
<text text-anchor="middle" x="490.8766" y="-564.2" font-family="Times,serif" font-size="14.00" fill="#000000">regulation of biological</text>
<text text-anchor="middle" x="490.8766" y="-547.4" font-family="Times,serif" font-size="14.00" fill="#000000">process</text>
</g>
<!-- GO:0019222&#45;&gt;GO:0050789 -->
<g id="edge11" class="edge">
<title>GO:0019222&#45;&gt;GO:0050789</title>
<path fill="none" stroke="#000000" d="M517.0615,-503.3513C513.7015,-511.6982 509.99,-520.9184 506.4435,-529.7286"/>
<polygon fill="#000000" stroke="#000000" points="503.1719,-528.4832 502.6844,-539.0669 509.6655,-531.0972 503.1719,-528.4832"/>
</g>
<!-- GO:0050794&#45;&gt;GO:0065007 -->
<g id="edge12" class="edge">
<title>GO:0050794&#45;&gt;GO:0065007</title>
<path fill="none" stroke="#000000" d="M252.9439,-503.3513C267.8707,-515.4987 285.0705,-529.4958 299.6823,-541.3867"/>
<polygon fill="#000000" stroke="#000000" points="297.5374,-544.1537 307.5028,-547.751 301.9558,-538.7243 297.5374,-544.1537"/>
</g>
<!-- GO:0050794&#45;&gt;GO:0050789 -->
<g id="edge13" class="edge">
<title>GO:0050794&#45;&gt;GO:0050789</title>
<path fill="none" stroke="#000000" d="M283.9283,-500.0268C286.9467,-501.1148 289.9399,-502.1773 292.8766,-503.2 340.5898,-519.8153 355.3935,-522.0891 407.3757,-539.0873"/>
<polygon fill="#000000" stroke="#000000" points="406.563,-542.5047 417.1562,-542.3146 408.7566,-535.8572 406.563,-542.5047"/>
</g>
<!-- GO:0048518&#45;&gt;GO:0065007 -->
<g id="edge14" class="edge">
<title>GO:0048518&#45;&gt;GO:0065007</title>
<path fill="none" stroke="#000000" d="M358.3724,-503.3513C354.008,-514.4864 349.0344,-527.1758 344.6459,-538.3724"/>
<polygon fill="#000000" stroke="#000000" points="341.3606,-537.1633 340.97,-547.751 347.8779,-539.7178 341.3606,-537.1633"/>
</g>
<!-- GO:0048518&#45;&gt;GO:0050789 -->
<g id="edge15" class="edge">
<title>GO:0048518&#45;&gt;GO:0050789</title>
<path fill="none" stroke="#000000" d="M407.4985,-503.3513C419.4494,-512.6749 432.797,-523.0883 445.2486,-532.8026"/>
<polygon fill="#000000" stroke="#000000" points="443.2407,-535.6752 453.278,-539.0669 447.5465,-530.1562 443.2407,-535.6752"/>
</g>
<!-- GO:0008150 -->
<g id="node10" class="node">
<title>GO:0008150</title>
<polygon fill="#ffffff" stroke="#000000" points="635.3472,-675.0019 514.406,-675.0019 514.406,-633.7981 635.3472,-633.7981 635.3472,-675.0019"/>
<text text-anchor="middle" x="574.8766" y="-658.6" font-family="Times,serif" font-size="14.00" fill="#000000">GO:0008150</text>
<text text-anchor="middle" x="574.8766" y="-641.8" font-family="Times,serif" font-size="14.00" fill="#000000">biological_process</text>
</g>
<!-- GO:0065007&#45;&gt;GO:0008150 -->
<g id="edge16" class="edge">
<title>GO:0065007&#45;&gt;GO:0008150</title>
<path fill="none" stroke="#000000" d="M385.219,-589.1125C392.8009,-592.0154 400.525,-594.9201 407.8766,-597.6 439.5506,-609.1462 474.8652,-621.2656 504.832,-631.3301"/>
<polygon fill="#000000" stroke="#000000" points="503.7683,-634.6648 514.3622,-634.5222 505.9917,-628.0273 503.7683,-634.6648"/>
</g>
<!-- GO:0050789&#45;&gt;GO:0008150 -->
<g id="edge17" class="edge">
<title>GO:0050789&#45;&gt;GO:0008150</title>
<path fill="none" stroke="#000000" d="M519.7846,-597.9963C528.7571,-607.1824 538.6152,-617.2752 547.4815,-626.3526"/>
<polygon fill="#000000" stroke="#000000" points="545.1634,-628.9884 554.6546,-633.6966 550.171,-624.0972 545.1634,-628.9884"/>
</g>
<!-- GO:0010628 -->
<g id="node11" class="node">
<title>GO:0010628</title>
<polygon fill="#00ffff" stroke="#000000" points="840.63,-58.6014 705.1232,-58.6014 705.1232,.2014 840.63,.2014 840.63,-58.6014"/>
<text text-anchor="middle" x="772.8766" y="-41.8" font-family="Times,serif" font-size="14.00" fill="#000000">GO:0010628</text>
<text text-anchor="middle" x="772.8766" y="-25" font-family="Times,serif" font-size="14.00" fill="#000000">positive regulation of</text>
<text text-anchor="middle" x="772.8766" y="-8.2" font-family="Times,serif" font-size="14.00" fill="#000000">gene expression</text>
</g>
<!-- GO:0010468 -->
<g id="node12" class="node">
<title>GO:0010468</title>
<polygon fill="#00ffff" stroke="#000000" points="909.7281,-169.8014 792.0251,-169.8014 792.0251,-110.9986 909.7281,-110.9986 909.7281,-169.8014"/>
<text text-anchor="middle" x="850.8766" y="-153" font-family="Times,serif" font-size="14.00" fill="#000000">GO:0010468</text>
<text text-anchor="middle" x="850.8766" y="-136.2" font-family="Times,serif" font-size="14.00" fill="#000000">regulation of gene</text>
<text text-anchor="middle" x="850.8766" y="-119.4" font-family="Times,serif" font-size="14.00" fill="#000000">expression</text>
</g>
<!-- GO:0010628&#45;&gt;GO:0010468 -->
<g id="edge18" class="edge">
<title>GO:0010628&#45;&gt;GO:0010468</title>
<path fill="none" stroke="#000000" d="M793.3702,-58.4165C802.8785,-71.972 814.2975,-88.2513 824.4452,-102.7183"/>
<polygon fill="#000000" stroke="#000000" points="821.6411,-104.8157 830.2491,-110.9926 827.3719,-100.7959 821.6411,-104.8157"/>
</g>
<!-- GO:0010604 -->
<g id="node13" class="node">
<title>GO:0010604</title>
<polygon fill="#00ffff" stroke="#000000" points="774.3788,-178.1003 613.3744,-178.1003 613.3744,-102.6997 774.3788,-102.6997 774.3788,-178.1003"/>
<text text-anchor="middle" x="693.8766" y="-161.4" font-family="Times,serif" font-size="14.00" fill="#000000">GO:0010604</text>
<text text-anchor="middle" x="693.8766" y="-144.6" font-family="Times,serif" font-size="14.00" fill="#000000">positive regulation of</text>
<text text-anchor="middle" x="693.8766" y="-127.8" font-family="Times,serif" font-size="14.00" fill="#000000">macromolecule metabolic</text>
<text text-anchor="middle" x="693.8766" y="-111" font-family="Times,serif" font-size="14.00" fill="#000000">process</text>
</g>
<!-- GO:0010628&#45;&gt;GO:0010604 -->
<g id="edge19" class="edge">
<title>GO:0010628&#45;&gt;GO:0010604</title>
<path fill="none" stroke="#000000" d="M752.1203,-58.4165C744.3201,-69.396 735.2504,-82.1625 726.6236,-94.3055"/>
<polygon fill="#000000" stroke="#000000" points="723.6813,-92.4038 720.743,-102.583 729.3878,-96.4579 723.6813,-92.4038"/>
</g>
<!-- GO:0060255 -->
<g id="node14" class="node">
<title>GO:0060255</title>
<polygon fill="#00ffff" stroke="#000000" points="854.3788,-297.7003 693.3744,-297.7003 693.3744,-222.2997 854.3788,-222.2997 854.3788,-297.7003"/>
<text text-anchor="middle" x="773.8766" y="-281" font-family="Times,serif" font-size="14.00" fill="#000000">GO:0060255</text>
<text text-anchor="middle" x="773.8766" y="-264.2" font-family="Times,serif" font-size="14.00" fill="#000000">regulation of</text>
<text text-anchor="middle" x="773.8766" y="-247.4" font-family="Times,serif" font-size="14.00" fill="#000000">macromolecule metabolic</text>
<text text-anchor="middle" x="773.8766" y="-230.6" font-family="Times,serif" font-size="14.00" fill="#000000">process</text>
</g>
<!-- GO:0010468&#45;&gt;GO:0060255 -->
<g id="edge20" class="edge">
<title>GO:0010468&#45;&gt;GO:0060255</title>
<path fill="none" stroke="#000000" d="M832.0403,-169.6575C823.5545,-182.838 813.3265,-198.7245 803.8294,-213.476"/>
<polygon fill="#000000" stroke="#000000" points="800.8112,-211.6984 798.3407,-222.0012 806.6969,-215.4877 800.8112,-211.6984"/>
</g>
<!-- GO:0010604&#45;&gt;GO:0009893 -->
<g id="edge22" class="edge">
<title>GO:0010604&#45;&gt;GO:0009893</title>
<path fill="none" stroke="#000000" d="M688.0445,-178.1531C680.4089,-214.3477 663.4115,-267.7625 626.8766,-297.6 565.0371,-348.1034 526.4617,-307.8783 450.8766,-333.6 446.9156,-334.9479 442.8955,-336.4535 438.8772,-338.0658"/>
<polygon fill="#000000" stroke="#000000" points="437.3927,-334.8932 429.5329,-341.9977 440.1076,-341.3453 437.3927,-334.8932"/>
</g>
<!-- GO:0010604&#45;&gt;GO:0060255 -->
<g id="edge21" class="edge">
<title>GO:0010604&#45;&gt;GO:0060255</title>
<path fill="none" stroke="#000000" d="M719.1891,-178.2422C726.7036,-189.4763 735.0211,-201.9111 742.8544,-213.6218"/>
<polygon fill="#000000" stroke="#000000" points="739.9851,-215.6275 748.4542,-221.9935 745.8035,-211.7356 739.9851,-215.6275"/>
</g>
<!-- GO:0060255&#45;&gt;GO:0019222 -->
<g id="edge23" class="edge">
<title>GO:0060255&#45;&gt;GO:0019222</title>
<path fill="none" stroke="#000000" d="M781.5084,-297.7209C785.8891,-330.7584 786.275,-378.1508 760.8766,-408.8 741.666,-431.9822 670.7272,-449.7061 612.2957,-460.7818"/>
<polygon fill="#000000" stroke="#000000" points="611.4867,-457.372 602.2927,-462.637 612.7633,-464.2547 611.4867,-457.372"/>
</g>
<!-- GO:0044699 -->
<g id="node15" class="node">
<title>GO:0044699</title>
<polygon fill="#ffff00" stroke="#000000" points="734.5579,-589.0019 583.1953,-589.0019 583.1953,-547.7981 734.5579,-547.7981 734.5579,-589.0019"/>
<text text-anchor="middle" x="658.8766" y="-572.6" font-family="Times,serif" font-size="14.00" fill="#000000">GO:0044699</text>
<text text-anchor="middle" x="658.8766" y="-555.8" font-family="Times,serif" font-size="14.00" fill="#000000">single&#45;organism process</text>
</g>
<!-- GO:0044699&#45;&gt;GO:0008150 -->
<g id="edge24" class="edge">
<title>GO:0044699&#45;&gt;GO:0008150</title>
<path fill="none" stroke="#000000" d="M638.5425,-589.2182C627.6056,-600.4156 613.9694,-614.3764 602.1259,-626.5019"/>
<polygon fill="#000000" stroke="#000000" points="599.507,-624.1741 595.0234,-633.7735 604.5147,-629.0653 599.507,-624.1741"/>
</g>
<!-- GO:0080090 -->
<g id="node16" class="node">
<title>GO:0080090</title>
<polygon fill="#00ffff" stroke="#000000" points="751.6161,-400.6014 616.1371,-400.6014 616.1371,-341.7986 751.6161,-341.7986 751.6161,-400.6014"/>
<text text-anchor="middle" x="683.8766" y="-383.8" font-family="Times,serif" font-size="14.00" fill="#000000">GO:0080090</text>
<text text-anchor="middle" x="683.8766" y="-367" font-family="Times,serif" font-size="14.00" fill="#000000">regulation of primary</text>
<text text-anchor="middle" x="683.8766" y="-350.2" font-family="Times,serif" font-size="14.00" fill="#000000">metabolic process</text>
</g>
<!-- GO:0080090&#45;&gt;GO:0019222 -->
<g id="edge25" class="edge">
<title>GO:0080090&#45;&gt;GO:0019222</title>
<path fill="none" stroke="#000000" d="M639.4598,-400.6584C621.3845,-412.6464 600.3535,-426.5947 581.5146,-439.0891"/>
<polygon fill="#000000" stroke="#000000" points="579.4309,-436.2712 573.0317,-444.7152 583.2999,-442.1048 579.4309,-436.2712"/>
</g>
<!-- GO:0045935 -->
<g id="node17" class="node">
<title>GO:0045935</title>
<polygon fill="#00ffff" stroke="#000000" points="452.8318,-186.4 310.9214,-186.4 310.9214,-94.4 452.8318,-94.4 452.8318,-186.4"/>
<text text-anchor="middle" x="381.8766" y="-169.8" font-family="Times,serif" font-size="14.00" fill="#000000">GO:0045935</text>
<text text-anchor="middle" x="381.8766" y="-153" font-family="Times,serif" font-size="14.00" fill="#000000">positive regulation of</text>
<text text-anchor="middle" x="381.8766" y="-136.2" font-family="Times,serif" font-size="14.00" fill="#000000">nucleobase&#45;containing</text>
<text text-anchor="middle" x="381.8766" y="-119.4" font-family="Times,serif" font-size="14.00" fill="#000000">compound metabolic</text>
<text text-anchor="middle" x="381.8766" y="-102.6" font-family="Times,serif" font-size="14.00" fill="#000000">process</text>
</g>
<!-- GO:0045935&#45;&gt;GO:0031325 -->
<g id="edge27" class="edge">
<title>GO:0045935&#45;&gt;GO:0031325</title>
<path fill="none" stroke="#000000" d="M319.2432,-186.6405C305.9711,-196.4388 292.0047,-206.7499 278.873,-216.4446"/>
<polygon fill="#000000" stroke="#000000" points="276.7846,-213.6359 270.8183,-222.3912 280.9422,-219.2675 276.7846,-213.6359"/>
</g>
<!-- GO:0019219 -->
<g id="node18" class="node">
<title>GO:0019219</title>
<polygon fill="#ffffff" stroke="#000000" points="618.1532,-297.7003 459.6,-297.7003 459.6,-222.2997 618.1532,-222.2997 618.1532,-297.7003"/>
<text text-anchor="middle" x="538.8766" y="-281" font-family="Times,serif" font-size="14.00" fill="#000000">GO:0019219</text>
<text text-anchor="middle" x="538.8766" y="-264.2" font-family="Times,serif" font-size="14.00" fill="#000000">regulation of nucleobase&#45;</text>
<text text-anchor="middle" x="538.8766" y="-247.4" font-family="Times,serif" font-size="14.00" fill="#000000">containing compound</text>
<text text-anchor="middle" x="538.8766" y="-230.6" font-family="Times,serif" font-size="14.00" fill="#000000">metabolic process</text>
</g>
<!-- GO:0045935&#45;&gt;GO:0019219 -->
<g id="edge26" class="edge">
<title>GO:0045935&#45;&gt;GO:0019219</title>
<path fill="none" stroke="#000000" d="M442.5769,-186.6405C455.318,-196.3464 468.7194,-206.5554 481.3406,-216.1701"/>
<polygon fill="#000000" stroke="#000000" points="479.4314,-219.1155 489.5072,-222.3912 483.6733,-213.5471 479.4314,-219.1155"/>
</g>
<!-- GO:0051173 -->
<g id="node19" class="node">
<title>GO:0051173</title>
<polygon fill="#ffffff" stroke="#000000" points="441.63,-297.7003 306.1232,-297.7003 306.1232,-222.2997 441.63,-222.2997 441.63,-297.7003"/>
<text text-anchor="middle" x="373.8766" y="-281" font-family="Times,serif" font-size="14.00" fill="#000000">GO:0051173</text>
<text text-anchor="middle" x="373.8766" y="-264.2" font-family="Times,serif" font-size="14.00" fill="#000000">positive regulation of</text>
<text text-anchor="middle" x="373.8766" y="-247.4" font-family="Times,serif" font-size="14.00" fill="#000000">nitrogen compound</text>
<text text-anchor="middle" x="373.8766" y="-230.6" font-family="Times,serif" font-size="14.00" fill="#000000">metabolic process</text>
</g>
<!-- GO:0045935&#45;&gt;GO:0051173 -->
<g id="edge28" class="edge">
<title>GO:0045935&#45;&gt;GO:0051173</title>
<path fill="none" stroke="#000000" d="M378.7836,-186.6405C378.2209,-195.0523 377.633,-203.8419 377.0676,-212.2951"/>
<polygon fill="#000000" stroke="#000000" points="373.5675,-212.1798 376.3922,-222.3912 380.5519,-212.6471 373.5675,-212.1798"/>
</g>
<!-- GO:0019219&#45;&gt;GO:0031323 -->
<g id="edge29" class="edge">
<title>GO:0019219&#45;&gt;GO:0031323</title>
<path fill="none" stroke="#000000" d="M459.4892,-294.6534C456.5956,-295.6823 453.7184,-296.6686 450.8766,-297.6 384.0829,-319.4917 363.0356,-309.859 296.8766,-333.6 293.1637,-334.9324 289.3953,-336.3978 285.6239,-337.9538"/>
<polygon fill="#000000" stroke="#000000" points="284.0705,-334.812 276.2723,-341.9841 286.841,-341.2404 284.0705,-334.812"/>
</g>
<!-- GO:0019219&#45;&gt;GO:0080090 -->
<g id="edge30" class="edge">
<title>GO:0019219&#45;&gt;GO:0080090</title>
<path fill="none" stroke="#000000" d="M587.967,-297.6472C603.9187,-309.8806 621.5643,-323.4129 637.3251,-335.4998"/>
<polygon fill="#000000" stroke="#000000" points="635.3111,-338.366 645.3762,-341.6742 639.5709,-332.8113 635.3111,-338.366"/>
</g>
<!-- GO:0051171 -->
<g id="node20" class="node">
<title>GO:0051171</title>
<polygon fill="#ffffff" stroke="#000000" points="597.9552,-408.9003 459.798,-408.9003 459.798,-333.4997 597.9552,-333.4997 597.9552,-408.9003"/>
<text text-anchor="middle" x="528.8766" y="-392.2" font-family="Times,serif" font-size="14.00" fill="#000000">GO:0051171</text>
<text text-anchor="middle" x="528.8766" y="-375.4" font-family="Times,serif" font-size="14.00" fill="#000000">regulation of nitrogen</text>
<text text-anchor="middle" x="528.8766" y="-358.6" font-family="Times,serif" font-size="14.00" fill="#000000">compound metabolic</text>
<text text-anchor="middle" x="528.8766" y="-341.8" font-family="Times,serif" font-size="14.00" fill="#000000">process</text>
</g>
<!-- GO:0019219&#45;&gt;GO:0051171 -->
<g id="edge31" class="edge">
<title>GO:0019219&#45;&gt;GO:0051171</title>
<path fill="none" stroke="#000000" d="M535.4911,-297.6472C534.7417,-305.98 533.9382,-314.9155 533.1584,-323.5863"/>
<polygon fill="#000000" stroke="#000000" points="529.6685,-323.3182 532.2587,-333.5915 536.6403,-323.9452 529.6685,-323.3182"/>
</g>
<!-- GO:0051173&#45;&gt;GO:0009893 -->
<g id="edge33" class="edge">
<title>GO:0051173&#45;&gt;GO:0009893</title>
<path fill="none" stroke="#000000" d="M373.8766,-297.6472C373.8766,-308.5338 373.8766,-320.449 373.8766,-331.4589"/>
<polygon fill="#000000" stroke="#000000" points="370.3767,-331.6741 373.8766,-341.6742 377.3767,-331.6742 370.3767,-331.6741"/>
</g>
<!-- GO:0051173&#45;&gt;GO:0051171 -->
<g id="edge32" class="edge">
<title>GO:0051173&#45;&gt;GO:0051171</title>
<path fill="none" stroke="#000000" d="M426.3525,-297.6472C439.735,-307.2481 454.2325,-317.6489 467.9962,-327.5232"/>
<polygon fill="#000000" stroke="#000000" points="466.2892,-330.6061 476.4547,-333.5915 470.3697,-324.9184 466.2892,-330.6061"/>
</g>
<!-- GO:0051171&#45;&gt;GO:0019222 -->
<g id="edge34" class="edge">
<title>GO:0051171&#45;&gt;GO:0019222</title>
<path fill="none" stroke="#000000" d="M528.8766,-408.8952C528.8766,-417.2874 528.8766,-426.2054 528.8766,-434.6618"/>
<polygon fill="#000000" stroke="#000000" points="525.3767,-434.6813 528.8766,-444.6814 532.3767,-434.6814 525.3767,-434.6813"/>
</g>
<!-- GO:0009987 -->
<g id="node21" class="node">
<title>GO:0009987</title>
<polygon fill="#ffff00" stroke="#000000" points="856.8328,-589.0019 752.9204,-589.0019 752.9204,-547.7981 856.8328,-547.7981 856.8328,-589.0019"/>
<text text-anchor="middle" x="804.8766" y="-572.6" font-family="Times,serif" font-size="14.00" fill="#000000">GO:0009987</text>
<text text-anchor="middle" x="804.8766" y="-555.8" font-family="Times,serif" font-size="14.00" fill="#000000">cellular process</text>
</g>
<!-- GO:0009987&#45;&gt;GO:0008150 -->
<g id="edge35" class="edge">
<title>GO:0009987&#45;&gt;GO:0008150</title>
<path fill="none" stroke="#000000" d="M763.5074,-589.0362C756.9963,-592.0416 750.2959,-594.9962 743.8766,-597.6 711.9121,-610.5655 675.7519,-623.0063 645.106,-632.9223"/>
<polygon fill="#000000" stroke="#000000" points="643.8135,-629.6612 635.362,-636.0505 645.9533,-636.3262 643.8135,-629.6612"/>
</g>
<!-- GO:0044763 -->
<g id="node22" class="node">
<title>GO:0044763</title>
<polygon fill="#ff00ff" stroke="#000000" points="844.5551,-503.4014 693.1981,-503.4014 693.1981,-444.5986 844.5551,-444.5986 844.5551,-503.4014"/>
<text text-anchor="middle" x="768.8766" y="-486.6" font-family="Times,serif" font-size="14.00" fill="#000000">GO:0044763</text>
<text text-anchor="middle" x="768.8766" y="-469.8" font-family="Times,serif" font-size="14.00" fill="#000000">single&#45;organism cellular</text>
<text text-anchor="middle" x="768.8766" y="-453" font-family="Times,serif" font-size="14.00" fill="#000000">process</text>
</g>
<!-- GO:0044763&#45;&gt;GO:0044699 -->
<g id="edge37" class="edge">
<title>GO:0044763&#45;&gt;GO:0044699</title>
<path fill="none" stroke="#000000" d="M734.6749,-503.3513C720.6512,-515.3862 704.5118,-529.2367 690.7395,-541.0559"/>
<polygon fill="#000000" stroke="#000000" points="688.2473,-538.5825 682.938,-547.751 692.806,-543.8945 688.2473,-538.5825"/>
</g>
<!-- GO:0044763&#45;&gt;GO:0009987 -->
<g id="edge36" class="edge">
<title>GO:0044763&#45;&gt;GO:0009987</title>
<path fill="none" stroke="#000000" d="M780.0699,-503.3513C784.3163,-514.4864 789.1555,-527.1758 793.4254,-538.3724"/>
<polygon fill="#000000" stroke="#000000" points="790.1684,-539.6545 797.002,-547.751 796.7089,-537.1602 790.1684,-539.6545"/>
</g>
<!-- GO:0051252 -->
<g id="node23" class="node">
<title>GO:0051252</title>
<polygon fill="#00ffff" stroke="#000000" points="595.3486,-169.8014 474.4046,-169.8014 474.4046,-110.9986 595.3486,-110.9986 595.3486,-169.8014"/>
<text text-anchor="middle" x="534.8766" y="-153" font-family="Times,serif" font-size="14.00" fill="#000000">GO:0051252</text>
<text text-anchor="middle" x="534.8766" y="-136.2" font-family="Times,serif" font-size="14.00" fill="#000000">regulation of RNA</text>
<text text-anchor="middle" x="534.8766" y="-119.4" font-family="Times,serif" font-size="14.00" fill="#000000">metabolic process</text>
</g>
<!-- GO:0051252&#45;&gt;GO:0060255 -->
<g id="edge39" class="edge">
<title>GO:0051252&#45;&gt;GO:0060255</title>
<path fill="none" stroke="#000000" d="M576.0918,-169.6117C585.0671,-175.4783 594.6447,-181.377 603.8766,-186.4 629.2738,-200.2182 657.7983,-213.4078 684.1215,-224.7062"/>
<polygon fill="#000000" stroke="#000000" points="682.7595,-227.9303 693.3318,-228.6216 685.4981,-221.4883 682.7595,-227.9303"/>
</g>
<!-- GO:0051252&#45;&gt;GO:0019219 -->
<g id="edge38" class="edge">
<title>GO:0051252&#45;&gt;GO:0019219</title>
<path fill="none" stroke="#000000" d="M535.8551,-169.6575C536.2795,-182.3453 536.7877,-197.5405 537.2651,-211.817"/>
<polygon fill="#000000" stroke="#000000" points="533.7733,-212.1238 537.6057,-222.0012 540.7694,-211.8898 533.7733,-212.1238"/>
</g>
<!-- GO:0051254 -->
<g id="node24" class="node">
<title>GO:0051254</title>
<polygon fill="#ff00ff" stroke="#000000" points="609.6118,-58.6014 460.1414,-58.6014 460.1414,.2014 609.6118,.2014 609.6118,-58.6014"/>
<text text-anchor="middle" x="534.8766" y="-41.8" font-family="Times,serif" font-size="14.00" fill="#000000">GO:0051254</text>
<text text-anchor="middle" x="534.8766" y="-25" font-family="Times,serif" font-size="14.00" fill="#000000">positive regulation of</text>
<text text-anchor="middle" x="534.8766" y="-8.2" font-family="Times,serif" font-size="14.00" fill="#000000">RNA metabolic process</text>
</g>
<!-- GO:0051254&#45;&gt;GO:0010604 -->
<g id="edge42" class="edge">
<title>GO:0051254&#45;&gt;GO:0010604</title>
<path fill="none" stroke="#000000" d="M576.652,-58.4165C593.4876,-70.1908 613.2616,-84.0202 631.7235,-96.9319"/>
<polygon fill="#000000" stroke="#000000" points="629.8977,-99.9261 640.0984,-102.7891 633.9096,-94.1897 629.8977,-99.9261"/>
</g>
<!-- GO:0051254&#45;&gt;GO:0045935 -->
<g id="edge41" class="edge">
<title>GO:0051254&#45;&gt;GO:0045935</title>
<path fill="none" stroke="#000000" d="M494.6777,-58.4165C482.0216,-67.6149 467.6399,-78.0674 453.4827,-88.3569"/>
<polygon fill="#000000" stroke="#000000" points="451.2193,-85.6751 445.1878,-94.3856 455.3347,-91.3376 451.2193,-85.6751"/>
</g>
<!-- GO:0051254&#45;&gt;GO:0051252 -->
<g id="edge40" class="edge">
<title>GO:0051254&#45;&gt;GO:0051252</title>
<path fill="none" stroke="#000000" d="M534.8766,-58.4165C534.8766,-71.3386 534.8766,-86.7358 534.8766,-100.6788"/>
<polygon fill="#000000" stroke="#000000" points="531.3767,-100.9925 534.8766,-110.9926 538.3767,-100.9926 531.3767,-100.9925"/>
</g>
</g>
</svg>
