<?xml version="1.0" encoding="UTF-8" standalone="no"?>
<!DOCTYPE svg PUBLIC "-//W3C//DTD SVG 1.1//EN"
 "http://www.w3.org/Graphics/SVG/1.1/DTD/svg11.dtd">
<!-- Generated by graphviz version 2.40.1 (20161225.0304)
 -->
<!-- Title: G Pages: 1 -->
<svg width="437pt" height="471pt"
 viewBox="0.00 0.00 437.26 471.20" xmlns="http://www.w3.org/2000/svg" xmlns:xlink="http://www.w3.org/1999/xlink">
<g id="graph0" class="graph" transform="scale(1 1) rotate(0) translate(4 467.2)">
<title>G</title>
<polygon fill="#ffffff" stroke="transparent" points="-4,4 -4,-467.2 433.2606,-467.2 433.2606,4 -4,4"/>
<!-- GO:1901363 -->
<g id="node1" class="node">
<title>GO:1901363</title>
<polygon fill="#00ff00" stroke="#000000" points="147.0159,-308.2014 -.0053,-308.2014 -.0053,-249.3986 147.0159,-249.3986 147.0159,-308.2014"/>
<text text-anchor="middle" x="73.5053" y="-291.4" font-family="Times,serif" font-size="14.00" fill="#000000">GO:1901363</text>
<text text-anchor="middle" x="73.5053" y="-274.6" font-family="Times,serif" font-size="14.00" fill="#000000">heterocyclic compound</text>
<text text-anchor="middle" x="73.5053" y="-257.8" font-family="Times,serif" font-size="14.00" fill="#000000">binding</text>
</g>
<!-- GO:0005488 -->
<g id="node2" class="node">
<title>GO:0005488</title>
<polygon fill="#ffffff" stroke="#000000" points="254.1092,-385.4019 164.9014,-385.4019 164.9014,-344.1981 254.1092,-344.1981 254.1092,-385.4019"/>
<text text-anchor="middle" x="209.5053" y="-369" font-family="Times,serif" font-size="14.00" fill="#000000">GO:0005488</text>
<text text-anchor="middle" x="209.5053" y="-352.2" font-family="Times,serif" font-size="14.00" fill="#000000">binding</text>
</g>
<!-- GO:1901363&#45;&gt;GO:0005488 -->
<g id="edge1" class="edge">
<title>GO:1901363&#45;&gt;GO:0005488</title>
<path fill="none" stroke="#000000" d="M119.9284,-308.1558C135.4951,-317.9994 152.7447,-328.9073 167.9172,-338.5017"/>
<polygon fill="#000000" stroke="#000000" points="166.2596,-341.5945 176.5821,-343.9809 170.0008,-335.6781 166.2596,-341.5945"/>
</g>
<!-- GO:0003674 -->
<g id="node3" class="node">
<title>GO:0003674</title>
<polygon fill="#ffffff" stroke="#000000" points="330.1384,-463.0019 204.8722,-463.0019 204.8722,-421.7981 330.1384,-421.7981 330.1384,-463.0019"/>
<text text-anchor="middle" x="267.5053" y="-446.6" font-family="Times,serif" font-size="14.00" fill="#000000">GO:0003674</text>
<text text-anchor="middle" x="267.5053" y="-429.8" font-family="Times,serif" font-size="14.00" fill="#000000">molecular_function</text>
</g>
<!-- GO:0005488&#45;&gt;GO:0003674 -->
<g id="edge2" class="edge">
<title>GO:0005488&#45;&gt;GO:0003674</title>
<path fill="none" stroke="#000000" d="M225.0482,-385.5954C231.4195,-394.1197 238.9044,-404.1339 245.8005,-413.3605"/>
<polygon fill="#000000" stroke="#000000" points="243.1292,-415.6327 251.9195,-421.5472 248.7361,-411.4419 243.1292,-415.6327"/>
</g>
<!-- GO:0046914 -->
<g id="node4" class="node">
<title>GO:0046914</title>
<polygon fill="#00ffff" stroke="#000000" points="271.8792,-58.6014 147.1314,-58.6014 147.1314,.2014 271.8792,.2014 271.8792,-58.6014"/>
<text text-anchor="middle" x="209.5053" y="-41.8" font-family="Times,serif" font-size="14.00" fill="#000000">GO:0046914</text>
<text text-anchor="middle" x="209.5053" y="-25" font-family="Times,serif" font-size="14.00" fill="#000000">transition metal ion</text>
<text text-anchor="middle" x="209.5053" y="-8.2" font-family="Times,serif" font-size="14.00" fill="#000000">binding</text>
</g>
<!-- GO:0046872 -->
<g id="node5" class="node">
<title>GO:0046872</title>
<polygon fill="#00ffff" stroke="#000000" points="266.7783,-135.8019 152.2323,-135.8019 152.2323,-94.5981 266.7783,-94.5981 266.7783,-135.8019"/>
<text text-anchor="middle" x="209.5053" y="-119.4" font-family="Times,serif" font-size="14.00" fill="#000000">GO:0046872</text>
<text text-anchor="middle" x="209.5053" y="-102.6" font-family="Times,serif" font-size="14.00" fill="#000000">metal ion binding</text>
</g>
<!-- GO:0046914&#45;&gt;GO:0046872 -->
<g id="edge3" class="edge">
<title>GO:0046914&#45;&gt;GO:0046872</title>
<path fill="none" stroke="#000000" d="M209.5053,-58.7963C209.5053,-67.0638 209.5053,-76.0657 209.5053,-84.4008"/>
<polygon fill="#000000" stroke="#000000" points="206.0054,-84.4965 209.5053,-94.4966 213.0054,-84.4966 206.0054,-84.4965"/>
</g>
<!-- GO:0043169 -->
<g id="node6" class="node">
<title>GO:0043169</title>
<polygon fill="#ffffff" stroke="#000000" points="257.9982,-213.4019 161.0124,-213.4019 161.0124,-172.1981 257.9982,-172.1981 257.9982,-213.4019"/>
<text text-anchor="middle" x="209.5053" y="-197" font-family="Times,serif" font-size="14.00" fill="#000000">GO:0043169</text>
<text text-anchor="middle" x="209.5053" y="-180.2" font-family="Times,serif" font-size="14.00" fill="#000000">cation binding</text>
</g>
<!-- GO:0046872&#45;&gt;GO:0043169 -->
<g id="edge4" class="edge">
<title>GO:0046872&#45;&gt;GO:0043169</title>
<path fill="none" stroke="#000000" d="M209.5053,-135.9954C209.5053,-143.9109 209.5053,-153.1109 209.5053,-161.7722"/>
<polygon fill="#000000" stroke="#000000" points="206.0054,-161.9472 209.5053,-171.9472 213.0054,-161.9473 206.0054,-161.9472"/>
</g>
<!-- GO:0043167 -->
<g id="node7" class="node">
<title>GO:0043167</title>
<polygon fill="#ffffff" stroke="#000000" points="254.1092,-299.4019 164.9014,-299.4019 164.9014,-258.1981 254.1092,-258.1981 254.1092,-299.4019"/>
<text text-anchor="middle" x="209.5053" y="-283" font-family="Times,serif" font-size="14.00" fill="#000000">GO:0043167</text>
<text text-anchor="middle" x="209.5053" y="-266.2" font-family="Times,serif" font-size="14.00" fill="#000000">ion binding</text>
</g>
<!-- GO:0043169&#45;&gt;GO:0043167 -->
<g id="edge5" class="edge">
<title>GO:0043169&#45;&gt;GO:0043167</title>
<path fill="none" stroke="#000000" d="M209.5053,-213.6182C209.5053,-223.9705 209.5053,-236.6848 209.5053,-248.1271"/>
<polygon fill="#000000" stroke="#000000" points="206.0054,-248.1735 209.5053,-258.1735 213.0054,-248.1735 206.0054,-248.1735"/>
</g>
<!-- GO:0043167&#45;&gt;GO:0005488 -->
<g id="edge6" class="edge">
<title>GO:0043167&#45;&gt;GO:0005488</title>
<path fill="none" stroke="#000000" d="M209.5053,-299.6182C209.5053,-309.9705 209.5053,-322.6848 209.5053,-334.1271"/>
<polygon fill="#000000" stroke="#000000" points="206.0054,-334.1735 209.5053,-344.1735 213.0054,-334.1735 206.0054,-334.1735"/>
</g>
<!-- GO:0003824 -->
<g id="node8" class="node">
<title>GO:0003824</title>
<polygon fill="#00ff00" stroke="#000000" points="380.9177,-385.4019 272.0929,-385.4019 272.0929,-344.1981 380.9177,-344.1981 380.9177,-385.4019"/>
<text text-anchor="middle" x="326.5053" y="-369" font-family="Times,serif" font-size="14.00" fill="#000000">GO:0003824</text>
<text text-anchor="middle" x="326.5053" y="-352.2" font-family="Times,serif" font-size="14.00" fill="#000000">catalytic activity</text>
</g>
<!-- GO:0003824&#45;&gt;GO:0003674 -->
<g id="edge7" class="edge">
<title>GO:0003824&#45;&gt;GO:0003674</title>
<path fill="none" stroke="#000000" d="M310.6944,-385.5954C304.2132,-394.1197 296.5994,-404.1339 289.5843,-413.3605"/>
<polygon fill="#000000" stroke="#000000" points="286.6261,-411.4684 283.3599,-421.5472 292.1985,-415.7051 286.6261,-411.4684"/>
</g>
<!-- GO:0097159 -->
<g id="node9" class="node">
<title>GO:0097159</title>
<polygon fill="#00ff00" stroke="#000000" points="429.0167,-308.2014 271.9939,-308.2014 271.9939,-249.3986 429.0167,-249.3986 429.0167,-308.2014"/>
<text text-anchor="middle" x="350.5053" y="-291.4" font-family="Times,serif" font-size="14.00" fill="#000000">GO:0097159</text>
<text text-anchor="middle" x="350.5053" y="-274.6" font-family="Times,serif" font-size="14.00" fill="#000000">organic cyclic compound</text>
<text text-anchor="middle" x="350.5053" y="-257.8" font-family="Times,serif" font-size="14.00" fill="#000000">binding</text>
</g>
<!-- GO:0097159&#45;&gt;GO:0005488 -->
<g id="edge8" class="edge">
<title>GO:0097159&#45;&gt;GO:0005488</title>
<path fill="none" stroke="#000000" d="M302.3755,-308.1558C286.0857,-318.0914 268.0183,-329.1112 252.1819,-338.7703"/>
<polygon fill="#000000" stroke="#000000" points="250.3537,-335.7857 243.6389,-343.9809 253.9987,-341.7618 250.3537,-335.7857"/>
</g>
</g>
</svg>
