<?xml version="1.0" encoding="UTF-8" standalone="no"?>
<!DOCTYPE svg PUBLIC "-//W3C//DTD SVG 1.1//EN"
 "http://www.w3.org/Graphics/SVG/1.1/DTD/svg11.dtd">
<!-- Generated by graphviz version 2.40.1 (20161225.0304)
 -->
<!-- Title: G Pages: 1 -->
<svg width="736pt" height="394pt"
 viewBox="0.00 0.00 736.31 393.60" xmlns="http://www.w3.org/2000/svg" xmlns:xlink="http://www.w3.org/1999/xlink">
<g id="graph0" class="graph" transform="scale(1 1) rotate(0) translate(4 389.6)">
<title>G</title>
<polygon fill="#ffffff" stroke="transparent" points="-4,4 -4,-389.6 732.3139,-389.6 732.3139,4 -4,4"/>
<!-- GO:0043229 -->
<g id="node1" class="node">
<title>GO:0043229</title>
<polygon fill="#00ff00" stroke="#000000" points="285.6988,-144.2019 146.262,-144.2019 146.262,-102.9981 285.6988,-102.9981 285.6988,-144.2019"/>
<text text-anchor="middle" x="215.9804" y="-127.8" font-family="Times,serif" font-size="14.00" fill="#000000">GO:0043229</text>
<text text-anchor="middle" x="215.9804" y="-111" font-family="Times,serif" font-size="14.00" fill="#000000">intracellular organelle</text>
</g>
<!-- GO:0044424 -->
<g id="node2" class="node">
<title>GO:0044424</title>
<polygon fill="#ff0000" stroke="#000000" points="374.3788,-230.2019 265.582,-230.2019 265.582,-188.9981 374.3788,-188.9981 374.3788,-230.2019"/>
<text text-anchor="middle" x="319.9804" y="-213.8" font-family="Times,serif" font-size="14.00" fill="#000000">GO:0044424</text>
<text text-anchor="middle" x="319.9804" y="-197" font-family="Times,serif" font-size="14.00" fill="#000000">intracellular part</text>
</g>
<!-- GO:0043229&#45;&gt;GO:0044424 -->
<g id="edge1" class="edge">
<title>GO:0043229&#45;&gt;GO:0044424</title>
<path fill="none" stroke="#000000" d="M241.1559,-144.4182C254.9524,-155.8268 272.218,-170.1042 287.0708,-182.3863"/>
<polygon fill="#000000" stroke="#000000" points="285.0998,-185.2981 295.0367,-188.9735 289.5607,-179.9036 285.0998,-185.2981"/>
</g>
<!-- GO:0043226 -->
<g id="node3" class="node">
<title>GO:0043226</title>
<polygon fill="#00ff00" stroke="#000000" points="247.5843,-230.2019 158.3765,-230.2019 158.3765,-188.9981 247.5843,-188.9981 247.5843,-230.2019"/>
<text text-anchor="middle" x="202.9804" y="-213.8" font-family="Times,serif" font-size="14.00" fill="#000000">GO:0043226</text>
<text text-anchor="middle" x="202.9804" y="-197" font-family="Times,serif" font-size="14.00" fill="#000000">organelle</text>
</g>
<!-- GO:0043229&#45;&gt;GO:0043226 -->
<g id="edge2" class="edge">
<title>GO:0043229&#45;&gt;GO:0043226</title>
<path fill="none" stroke="#000000" d="M212.8335,-144.4182C211.2686,-154.7705 209.3466,-167.4848 207.617,-178.9271"/>
<polygon fill="#000000" stroke="#000000" points="204.1324,-178.5627 206.0984,-188.9735 211.0538,-179.609 204.1324,-178.5627"/>
</g>
<!-- GO:0044464 -->
<g id="node4" class="node">
<title>GO:0044464</title>
<polygon fill="#ff0000" stroke="#000000" points="440.5843,-307.8019 351.3765,-307.8019 351.3765,-266.5981 440.5843,-266.5981 440.5843,-307.8019"/>
<text text-anchor="middle" x="395.9804" y="-291.4" font-family="Times,serif" font-size="14.00" fill="#000000">GO:0044464</text>
<text text-anchor="middle" x="395.9804" y="-274.6" font-family="Times,serif" font-size="14.00" fill="#000000">cell part</text>
</g>
<!-- GO:0044424&#45;&gt;GO:0044464 -->
<g id="edge3" class="edge">
<title>GO:0044424&#45;&gt;GO:0044464</title>
<path fill="none" stroke="#000000" d="M340.347,-230.3954C348.9512,-239.1807 359.1051,-249.5484 368.3673,-259.0056"/>
<polygon fill="#000000" stroke="#000000" points="366.06,-261.6518 375.5576,-266.3472 371.061,-256.7539 366.06,-261.6518"/>
</g>
<!-- GO:0005575 -->
<g id="node5" class="node">
<title>GO:0005575</title>
<polygon fill="#ffffff" stroke="#000000" points="513.6671,-385.4019 386.2937,-385.4019 386.2937,-344.1981 513.6671,-344.1981 513.6671,-385.4019"/>
<text text-anchor="middle" x="449.9804" y="-369" font-family="Times,serif" font-size="14.00" fill="#000000">GO:0005575</text>
<text text-anchor="middle" x="449.9804" y="-352.2" font-family="Times,serif" font-size="14.00" fill="#000000">cellular_component</text>
</g>
<!-- GO:0043226&#45;&gt;GO:0005575 -->
<g id="edge4" class="edge">
<title>GO:0043226&#45;&gt;GO:0005575</title>
<path fill="none" stroke="#000000" d="M229.9476,-230.3012C257.4377,-251.0146 301.6526,-283.2695 341.9804,-308 359.8969,-318.987 380.1463,-329.9886 398.2298,-339.3434"/>
<polygon fill="#000000" stroke="#000000" points="396.9694,-342.6303 407.4651,-344.0765 400.162,-336.4008 396.9694,-342.6303"/>
</g>
<!-- GO:0044464&#45;&gt;GO:0005575 -->
<g id="edge6" class="edge">
<title>GO:0044464&#45;&gt;GO:0005575</title>
<path fill="none" stroke="#000000" d="M410.4514,-307.9954C416.3228,-316.4328 423.2098,-326.3297 429.5758,-335.4778"/>
<polygon fill="#000000" stroke="#000000" points="426.8846,-337.7382 435.4694,-343.9472 432.6304,-333.7398 426.8846,-337.7382"/>
</g>
<!-- GO:0042597 -->
<g id="node6" class="node">
<title>GO:0042597</title>
<polygon fill="#00ffff" stroke="#000000" points="507.8802,-230.2019 392.0806,-230.2019 392.0806,-188.9981 507.8802,-188.9981 507.8802,-230.2019"/>
<text text-anchor="middle" x="449.9804" y="-213.8" font-family="Times,serif" font-size="14.00" fill="#000000">GO:0042597</text>
<text text-anchor="middle" x="449.9804" y="-197" font-family="Times,serif" font-size="14.00" fill="#000000">periplasmic space</text>
</g>
<!-- GO:0042597&#45;&gt;GO:0044464 -->
<g id="edge5" class="edge">
<title>GO:0042597&#45;&gt;GO:0044464</title>
<path fill="none" stroke="#000000" d="M435.5094,-230.3954C429.638,-238.8328 422.751,-248.7297 416.385,-257.8778"/>
<polygon fill="#000000" stroke="#000000" points="413.3304,-256.1398 410.4914,-266.3472 419.0762,-260.1382 413.3304,-256.1398"/>
</g>
<!-- GO:0043227 -->
<g id="node7" class="node">
<title>GO:0043227</title>
<polygon fill="#00ffff" stroke="#000000" points="127.9412,-153.0014 .0196,-153.0014 .0196,-94.1986 127.9412,-94.1986 127.9412,-153.0014"/>
<text text-anchor="middle" x="63.9804" y="-136.2" font-family="Times,serif" font-size="14.00" fill="#000000">GO:0043227</text>
<text text-anchor="middle" x="63.9804" y="-119.4" font-family="Times,serif" font-size="14.00" fill="#000000">membrane&#45;bounded</text>
<text text-anchor="middle" x="63.9804" y="-102.6" font-family="Times,serif" font-size="14.00" fill="#000000">organelle</text>
</g>
<!-- GO:0043227&#45;&gt;GO:0043226 -->
<g id="edge7" class="edge">
<title>GO:0043227&#45;&gt;GO:0043226</title>
<path fill="none" stroke="#000000" d="M111.4275,-152.9558C127.3376,-162.7994 144.9677,-173.7073 160.4749,-183.3017"/>
<polygon fill="#000000" stroke="#000000" points="158.9855,-186.4958 169.331,-188.7809 162.6685,-180.5431 158.9855,-186.4958"/>
</g>
<!-- GO:0044430 -->
<g id="node8" class="node">
<title>GO:0044430</title>
<polygon fill="#ff00ff" stroke="#000000" points="578.1117,-49.8019 469.8491,-49.8019 469.8491,-8.5981 578.1117,-8.5981 578.1117,-49.8019"/>
<text text-anchor="middle" x="523.9804" y="-33.4" font-family="Times,serif" font-size="14.00" fill="#000000">GO:0044430</text>
<text text-anchor="middle" x="523.9804" y="-16.6" font-family="Times,serif" font-size="14.00" fill="#000000">cytoskeletal part</text>
</g>
<!-- GO:0044446 -->
<g id="node9" class="node">
<title>GO:0044446</title>
<polygon fill="#ffff00" stroke="#000000" points="593.6988,-153.0014 454.262,-153.0014 454.262,-94.1986 593.6988,-94.1986 593.6988,-153.0014"/>
<text text-anchor="middle" x="523.9804" y="-136.2" font-family="Times,serif" font-size="14.00" fill="#000000">GO:0044446</text>
<text text-anchor="middle" x="523.9804" y="-119.4" font-family="Times,serif" font-size="14.00" fill="#000000">intracellular organelle</text>
<text text-anchor="middle" x="523.9804" y="-102.6" font-family="Times,serif" font-size="14.00" fill="#000000">part</text>
</g>
<!-- GO:0044430&#45;&gt;GO:0044446 -->
<g id="edge8" class="edge">
<title>GO:0044430&#45;&gt;GO:0044446</title>
<path fill="none" stroke="#000000" d="M523.9804,-50.1504C523.9804,-60.1492 523.9804,-72.4525 523.9804,-84.1106"/>
<polygon fill="#000000" stroke="#000000" points="520.4805,-84.1155 523.9804,-94.1155 527.4805,-84.1156 520.4805,-84.1155"/>
</g>
<!-- GO:0044446&#45;&gt;GO:0044424 -->
<g id="edge9" class="edge">
<title>GO:0044446&#45;&gt;GO:0044424</title>
<path fill="none" stroke="#000000" d="M454.6306,-152.8357C429.7496,-163.3248 401.9709,-175.0354 378.1368,-185.0831"/>
<polygon fill="#000000" stroke="#000000" points="376.7249,-181.88 368.8698,-188.9898 379.4441,-188.3302 376.7249,-181.88"/>
</g>
<!-- GO:0044422 -->
<g id="node10" class="node">
<title>GO:0044422</title>
<polygon fill="#ffa500" stroke="#000000" points="551.8325,-307.8019 458.1283,-307.8019 458.1283,-266.5981 551.8325,-266.5981 551.8325,-307.8019"/>
<text text-anchor="middle" x="504.9804" y="-291.4" font-family="Times,serif" font-size="14.00" fill="#000000">GO:0044422</text>
<text text-anchor="middle" x="504.9804" y="-274.6" font-family="Times,serif" font-size="14.00" fill="#000000">organelle part</text>
</g>
<!-- GO:0044446&#45;&gt;GO:0044422 -->
<g id="edge10" class="edge">
<title>GO:0044446&#45;&gt;GO:0044422</title>
<path fill="none" stroke="#000000" d="M523.1753,-153.1799C522.3147,-174.6822 520.5541,-204.445 516.9804,-230.4 515.7978,-238.9891 514.055,-248.2194 512.262,-256.6902"/>
<polygon fill="#000000" stroke="#000000" points="508.823,-256.0323 510.0843,-266.5518 515.6583,-257.5418 508.823,-256.0323"/>
</g>
<!-- GO:0044422&#45;&gt;GO:0005575 -->
<g id="edge11" class="edge">
<title>GO:0044422&#45;&gt;GO:0005575</title>
<path fill="none" stroke="#000000" d="M490.2414,-307.9954C484.1997,-316.5197 477.102,-326.5339 470.5625,-335.7605"/>
<polygon fill="#000000" stroke="#000000" points="467.6871,-333.7647 464.7601,-343.9472 473.3981,-337.8125 467.6871,-333.7647"/>
</g>
<!-- GO:0043234 -->
<g id="node11" class="node">
<title>GO:0043234</title>
<polygon fill="#00ffff" stroke="#000000" points="702.8478,-230.2019 595.113,-230.2019 595.113,-188.9981 702.8478,-188.9981 702.8478,-230.2019"/>
<text text-anchor="middle" x="648.9804" y="-213.8" font-family="Times,serif" font-size="14.00" fill="#000000">GO:0043234</text>
<text text-anchor="middle" x="648.9804" y="-197" font-family="Times,serif" font-size="14.00" fill="#000000">protein complex</text>
</g>
<!-- GO:0032991 -->
<g id="node12" class="node">
<title>GO:0032991</title>
<polygon fill="#00ffff" stroke="#000000" points="728.1477,-307.8019 569.8131,-307.8019 569.8131,-266.5981 728.1477,-266.5981 728.1477,-307.8019"/>
<text text-anchor="middle" x="648.9804" y="-291.4" font-family="Times,serif" font-size="14.00" fill="#000000">GO:0032991</text>
<text text-anchor="middle" x="648.9804" y="-274.6" font-family="Times,serif" font-size="14.00" fill="#000000">macromolecular complex</text>
</g>
<!-- GO:0043234&#45;&gt;GO:0032991 -->
<g id="edge12" class="edge">
<title>GO:0043234&#45;&gt;GO:0032991</title>
<path fill="none" stroke="#000000" d="M648.9804,-230.3954C648.9804,-238.3109 648.9804,-247.5109 648.9804,-256.1722"/>
<polygon fill="#000000" stroke="#000000" points="645.4805,-256.3472 648.9804,-266.3472 652.4805,-256.3473 645.4805,-256.3472"/>
</g>
<!-- GO:0032991&#45;&gt;GO:0005575 -->
<g id="edge13" class="edge">
<title>GO:0032991&#45;&gt;GO:0005575</title>
<path fill="none" stroke="#000000" d="M595.9135,-307.8934C570.2772,-317.8903 539.3397,-329.9544 512.56,-340.3971"/>
<polygon fill="#000000" stroke="#000000" points="510.9446,-337.2703 502.8994,-344.1642 513.4877,-343.792 510.9446,-337.2703"/>
</g>
<!-- GO:0043231 -->
<g id="node13" class="node">
<title>GO:0043231</title>
<polygon fill="#ff00ff" stroke="#000000" points="215.3592,-58.6014 64.6016,-58.6014 64.6016,.2014 215.3592,.2014 215.3592,-58.6014"/>
<text text-anchor="middle" x="139.9804" y="-41.8" font-family="Times,serif" font-size="14.00" fill="#000000">GO:0043231</text>
<text text-anchor="middle" x="139.9804" y="-25" font-family="Times,serif" font-size="14.00" fill="#000000">intracellular membrane&#45;</text>
<text text-anchor="middle" x="139.9804" y="-8.2" font-family="Times,serif" font-size="14.00" fill="#000000">bounded organelle</text>
</g>
<!-- GO:0043231&#45;&gt;GO:0043229 -->
<g id="edge14" class="edge">
<title>GO:0043231&#45;&gt;GO:0043229</title>
<path fill="none" stroke="#000000" d="M163.6107,-58.5513C172.9376,-70.1363 183.619,-83.4037 192.8922,-94.922"/>
<polygon fill="#000000" stroke="#000000" points="190.3588,-97.3565 199.3562,-102.951 195.8114,-92.9667 190.3588,-97.3565"/>
</g>
<!-- GO:0043231&#45;&gt;GO:0043227 -->
<g id="edge15" class="edge">
<title>GO:0043231&#45;&gt;GO:0043227</title>
<path fill="none" stroke="#000000" d="M116.3501,-58.5513C109.2727,-67.3422 101.4154,-77.1018 93.9853,-86.3308"/>
<polygon fill="#000000" stroke="#000000" points="91.1409,-84.2826 87.5961,-94.2669 96.5934,-88.6724 91.1409,-84.2826"/>
</g>
<!-- GO:0044444 -->
<g id="node14" class="node">
<title>GO:0044444</title>
<polygon fill="#00ff00" stroke="#000000" points="412.397,-144.2019 303.5638,-144.2019 303.5638,-102.9981 412.397,-102.9981 412.397,-144.2019"/>
<text text-anchor="middle" x="357.9804" y="-127.8" font-family="Times,serif" font-size="14.00" fill="#000000">GO:0044444</text>
<text text-anchor="middle" x="357.9804" y="-111" font-family="Times,serif" font-size="14.00" fill="#000000">cytoplasmic part</text>
</g>
<!-- GO:0044444&#45;&gt;GO:0044424 -->
<g id="edge16" class="edge">
<title>GO:0044444&#45;&gt;GO:0044424</title>
<path fill="none" stroke="#000000" d="M348.7817,-144.4182C344.114,-154.9818 338.3597,-168.0048 333.2247,-179.6261"/>
<polygon fill="#000000" stroke="#000000" points="329.9347,-178.412 329.0944,-188.9735 336.3375,-181.2412 329.9347,-178.412"/>
</g>
</g>
</svg>
