<?xml version="1.0" encoding="UTF-8" standalone="no"?>
<!DOCTYPE svg PUBLIC "-//W3C//DTD SVG 1.1//EN"
 "http://www.w3.org/Graphics/SVG/1.1/DTD/svg11.dtd">
<!-- Generated by graphviz version 2.40.1 (20161225.0304)
 -->
<!-- Title: G Pages: 1 -->
<svg width="600pt" height="410pt"
 viewBox="0.00 0.00 600.36 410.40" xmlns="http://www.w3.org/2000/svg" xmlns:xlink="http://www.w3.org/1999/xlink">
<g id="graph0" class="graph" transform="scale(1 1) rotate(0) translate(4 406.4)">
<title>G</title>
<polygon fill="#ffffff" stroke="transparent" points="-4,4 -4,-406.4 596.357,-406.4 596.357,4 -4,4"/>
<!-- GO:0016021 -->
<g id="node1" class="node">
<title>GO:0016021</title>
<polygon fill="#00ffff" stroke="#000000" points="141.0097,-153.0014 1.7435,-153.0014 1.7435,-94.1986 141.0097,-94.1986 141.0097,-153.0014"/>
<text text-anchor="middle" x="71.3766" y="-136.2" font-family="Times,serif" font-size="14.00" fill="#000000">GO:0016021</text>
<text text-anchor="middle" x="71.3766" y="-119.4" font-family="Times,serif" font-size="14.00" fill="#000000">integral component of</text>
<text text-anchor="middle" x="71.3766" y="-102.6" font-family="Times,serif" font-size="14.00" fill="#000000">membrane</text>
</g>
<!-- GO:0031224 -->
<g id="node2" class="node">
<title>GO:0031224</title>
<polygon fill="#ffffff" stroke="#000000" points="142.63,-247.4014 .1232,-247.4014 .1232,-188.5986 142.63,-188.5986 142.63,-247.4014"/>
<text text-anchor="middle" x="71.3766" y="-230.6" font-family="Times,serif" font-size="14.00" fill="#000000">GO:0031224</text>
<text text-anchor="middle" x="71.3766" y="-213.8" font-family="Times,serif" font-size="14.00" fill="#000000">intrinsic component of</text>
<text text-anchor="middle" x="71.3766" y="-197" font-family="Times,serif" font-size="14.00" fill="#000000">membrane</text>
</g>
<!-- GO:0016021&#45;&gt;GO:0031224 -->
<g id="edge1" class="edge">
<title>GO:0016021&#45;&gt;GO:0031224</title>
<path fill="none" stroke="#000000" d="M71.3766,-152.9513C71.3766,-161.0318 71.3766,-169.9308 71.3766,-178.4838"/>
<polygon fill="#000000" stroke="#000000" points="67.8767,-178.6668 71.3766,-188.6669 74.8767,-178.6669 67.8767,-178.6668"/>
</g>
<!-- GO:0044425 -->
<g id="node3" class="node">
<title>GO:0044425</title>
<polygon fill="#ffffff" stroke="#000000" points="121.7286,-324.6019 21.0246,-324.6019 21.0246,-283.3981 121.7286,-283.3981 121.7286,-324.6019"/>
<text text-anchor="middle" x="71.3766" y="-308.2" font-family="Times,serif" font-size="14.00" fill="#000000">GO:0044425</text>
<text text-anchor="middle" x="71.3766" y="-291.4" font-family="Times,serif" font-size="14.00" fill="#000000">membrane part</text>
</g>
<!-- GO:0031224&#45;&gt;GO:0044425 -->
<g id="edge2" class="edge">
<title>GO:0031224&#45;&gt;GO:0044425</title>
<path fill="none" stroke="#000000" d="M71.3766,-247.5963C71.3766,-255.8638 71.3766,-264.8657 71.3766,-273.2008"/>
<polygon fill="#000000" stroke="#000000" points="67.8767,-273.2965 71.3766,-283.2966 74.8767,-273.2966 67.8767,-273.2965"/>
</g>
<!-- GO:0005575 -->
<g id="node4" class="node">
<title>GO:0005575</title>
<polygon fill="#ffffff" stroke="#000000" points="301.0633,-402.2019 173.6899,-402.2019 173.6899,-360.9981 301.0633,-360.9981 301.0633,-402.2019"/>
<text text-anchor="middle" x="237.3766" y="-385.8" font-family="Times,serif" font-size="14.00" fill="#000000">GO:0005575</text>
<text text-anchor="middle" x="237.3766" y="-369" font-family="Times,serif" font-size="14.00" fill="#000000">cellular_component</text>
</g>
<!-- GO:0044425&#45;&gt;GO:0005575 -->
<g id="edge3" class="edge">
<title>GO:0044425&#45;&gt;GO:0005575</title>
<path fill="none" stroke="#000000" d="M115.8616,-324.7954C136.7857,-334.5768 161.906,-346.3198 183.8623,-356.5837"/>
<polygon fill="#000000" stroke="#000000" points="182.5157,-359.8177 193.0569,-360.8819 185.4801,-353.4763 182.5157,-359.8177"/>
</g>
<!-- GO:0016020 -->
<g id="node5" class="node">
<title>GO:0016020</title>
<polygon fill="#ffff00" stroke="#000000" points="228.9805,-324.6019 139.7727,-324.6019 139.7727,-283.3981 228.9805,-283.3981 228.9805,-324.6019"/>
<text text-anchor="middle" x="184.3766" y="-308.2" font-family="Times,serif" font-size="14.00" fill="#000000">GO:0016020</text>
<text text-anchor="middle" x="184.3766" y="-291.4" font-family="Times,serif" font-size="14.00" fill="#000000">membrane</text>
</g>
<!-- GO:0016020&#45;&gt;GO:0005575 -->
<g id="edge4" class="edge">
<title>GO:0016020&#45;&gt;GO:0005575</title>
<path fill="none" stroke="#000000" d="M198.5796,-324.7954C204.3423,-333.2328 211.1018,-343.1297 217.3499,-352.2778"/>
<polygon fill="#000000" stroke="#000000" points="214.6041,-354.4634 223.1344,-360.7472 220.3846,-350.5154 214.6041,-354.4634"/>
</g>
<!-- GO:0043231 -->
<g id="node6" class="node">
<title>GO:0043231</title>
<polygon fill="#00ff00" stroke="#000000" points="527.7554,-58.6014 376.9978,-58.6014 376.9978,.2014 527.7554,.2014 527.7554,-58.6014"/>
<text text-anchor="middle" x="452.3766" y="-41.8" font-family="Times,serif" font-size="14.00" fill="#000000">GO:0043231</text>
<text text-anchor="middle" x="452.3766" y="-25" font-family="Times,serif" font-size="14.00" fill="#000000">intracellular membrane&#45;</text>
<text text-anchor="middle" x="452.3766" y="-8.2" font-family="Times,serif" font-size="14.00" fill="#000000">bounded organelle</text>
</g>
<!-- GO:0043229 -->
<g id="node7" class="node">
<title>GO:0043229</title>
<polygon fill="#ffffff" stroke="#000000" points="446.095,-144.2019 306.6582,-144.2019 306.6582,-102.9981 446.095,-102.9981 446.095,-144.2019"/>
<text text-anchor="middle" x="376.3766" y="-127.8" font-family="Times,serif" font-size="14.00" fill="#000000">GO:0043229</text>
<text text-anchor="middle" x="376.3766" y="-111" font-family="Times,serif" font-size="14.00" fill="#000000">intracellular organelle</text>
</g>
<!-- GO:0043231&#45;&gt;GO:0043229 -->
<g id="edge5" class="edge">
<title>GO:0043231&#45;&gt;GO:0043229</title>
<path fill="none" stroke="#000000" d="M428.7463,-58.5513C419.4194,-70.1363 408.738,-83.4037 399.4648,-94.922"/>
<polygon fill="#000000" stroke="#000000" points="396.5456,-92.9667 393.0008,-102.951 401.9982,-97.3565 396.5456,-92.9667"/>
</g>
<!-- GO:0043227 -->
<g id="node8" class="node">
<title>GO:0043227</title>
<polygon fill="#ffffff" stroke="#000000" points="592.3374,-153.0014 464.4158,-153.0014 464.4158,-94.1986 592.3374,-94.1986 592.3374,-153.0014"/>
<text text-anchor="middle" x="528.3766" y="-136.2" font-family="Times,serif" font-size="14.00" fill="#000000">GO:0043227</text>
<text text-anchor="middle" x="528.3766" y="-119.4" font-family="Times,serif" font-size="14.00" fill="#000000">membrane&#45;bounded</text>
<text text-anchor="middle" x="528.3766" y="-102.6" font-family="Times,serif" font-size="14.00" fill="#000000">organelle</text>
</g>
<!-- GO:0043231&#45;&gt;GO:0043227 -->
<g id="edge6" class="edge">
<title>GO:0043231&#45;&gt;GO:0043227</title>
<path fill="none" stroke="#000000" d="M476.0069,-58.5513C483.0843,-67.3422 490.9416,-77.1018 498.3717,-86.3308"/>
<polygon fill="#000000" stroke="#000000" points="495.7636,-88.6724 504.7609,-94.2669 501.2161,-84.2826 495.7636,-88.6724"/>
</g>
<!-- GO:0044424 -->
<g id="node9" class="node">
<title>GO:0044424</title>
<polygon fill="#ffff00" stroke="#000000" points="334.775,-238.6019 225.9782,-238.6019 225.9782,-197.3981 334.775,-197.3981 334.775,-238.6019"/>
<text text-anchor="middle" x="280.3766" y="-222.2" font-family="Times,serif" font-size="14.00" fill="#000000">GO:0044424</text>
<text text-anchor="middle" x="280.3766" y="-205.4" font-family="Times,serif" font-size="14.00" fill="#000000">intracellular part</text>
</g>
<!-- GO:0043229&#45;&gt;GO:0044424 -->
<g id="edge7" class="edge">
<title>GO:0043229&#45;&gt;GO:0044424</title>
<path fill="none" stroke="#000000" d="M355.0711,-144.5504C341.5237,-157.872 323.8166,-175.284 309.0431,-189.8112"/>
<polygon fill="#000000" stroke="#000000" points="306.2988,-187.6011 301.6226,-197.1081 311.2068,-192.5923 306.2988,-187.6011"/>
</g>
<!-- GO:0043226 -->
<g id="node10" class="node">
<title>GO:0043226</title>
<polygon fill="#ffffff" stroke="#000000" points="441.9805,-238.6019 352.7727,-238.6019 352.7727,-197.3981 441.9805,-197.3981 441.9805,-238.6019"/>
<text text-anchor="middle" x="397.3766" y="-222.2" font-family="Times,serif" font-size="14.00" fill="#000000">GO:0043226</text>
<text text-anchor="middle" x="397.3766" y="-205.4" font-family="Times,serif" font-size="14.00" fill="#000000">organelle</text>
</g>
<!-- GO:0043229&#45;&gt;GO:0043226 -->
<g id="edge8" class="edge">
<title>GO:0043229&#45;&gt;GO:0043226</title>
<path fill="none" stroke="#000000" d="M381.0372,-144.5504C383.8104,-157.0165 387.3804,-173.0645 390.4756,-186.9786"/>
<polygon fill="#000000" stroke="#000000" points="387.141,-188.1068 392.729,-197.1081 393.974,-186.5867 387.141,-188.1068"/>
</g>
<!-- GO:0043227&#45;&gt;GO:0043226 -->
<g id="edge9" class="edge">
<title>GO:0043227&#45;&gt;GO:0043226</title>
<path fill="none" stroke="#000000" d="M487.6455,-152.9513C470.6323,-165.2112 451.0046,-179.3551 434.4057,-191.3165"/>
<polygon fill="#000000" stroke="#000000" points="432.0983,-188.6651 426.0315,-197.351 436.1907,-194.3442 432.0983,-188.6651"/>
</g>
<!-- GO:0044464 -->
<g id="node11" class="node">
<title>GO:0044464</title>
<polygon fill="#ff0000" stroke="#000000" points="335.9805,-324.6019 246.7727,-324.6019 246.7727,-283.3981 335.9805,-283.3981 335.9805,-324.6019"/>
<text text-anchor="middle" x="291.3766" y="-308.2" font-family="Times,serif" font-size="14.00" fill="#000000">GO:0044464</text>
<text text-anchor="middle" x="291.3766" y="-291.4" font-family="Times,serif" font-size="14.00" fill="#000000">cell part</text>
</g>
<!-- GO:0044424&#45;&gt;GO:0044464 -->
<g id="edge10" class="edge">
<title>GO:0044424&#45;&gt;GO:0044464</title>
<path fill="none" stroke="#000000" d="M283.0394,-238.8182C284.3635,-249.1705 285.9898,-261.8848 287.4533,-273.3271"/>
<polygon fill="#000000" stroke="#000000" points="283.9978,-273.8984 288.7383,-283.3735 290.9412,-273.0102 283.9978,-273.8984"/>
</g>
<!-- GO:0043226&#45;&gt;GO:0005575 -->
<g id="edge11" class="edge">
<title>GO:0043226&#45;&gt;GO:0005575</title>
<path fill="none" stroke="#000000" d="M391.5836,-238.7835C384.173,-262.1573 369.348,-300.072 345.3766,-324.8 333.0502,-337.5154 317.2582,-347.9831 301.5781,-356.3152"/>
<polygon fill="#000000" stroke="#000000" points="299.7228,-353.3316 292.386,-360.9751 302.8879,-359.5752 299.7228,-353.3316"/>
</g>
<!-- GO:0044464&#45;&gt;GO:0005575 -->
<g id="edge12" class="edge">
<title>GO:0044464&#45;&gt;GO:0005575</title>
<path fill="none" stroke="#000000" d="M276.9056,-324.7954C271.0342,-333.2328 264.1472,-343.1297 257.7812,-352.2778"/>
<polygon fill="#000000" stroke="#000000" points="254.7266,-350.5398 251.8876,-360.7472 260.4724,-354.5382 254.7266,-350.5398"/>
</g>
<!-- GO:0044444 -->
<g id="node12" class="node">
<title>GO:0044444</title>
<polygon fill="#00ff00" stroke="#000000" points="288.7932,-144.2019 179.96,-144.2019 179.96,-102.9981 288.7932,-102.9981 288.7932,-144.2019"/>
<text text-anchor="middle" x="234.3766" y="-127.8" font-family="Times,serif" font-size="14.00" fill="#000000">GO:0044444</text>
<text text-anchor="middle" x="234.3766" y="-111" font-family="Times,serif" font-size="14.00" fill="#000000">cytoplasmic part</text>
</g>
<!-- GO:0044444&#45;&gt;GO:0044424 -->
<g id="edge13" class="edge">
<title>GO:0044444&#45;&gt;GO:0044424</title>
<path fill="none" stroke="#000000" d="M244.5855,-144.5504C250.7792,-157.2609 258.7874,-173.6952 265.6578,-187.7945"/>
<polygon fill="#000000" stroke="#000000" points="262.6694,-189.6518 270.1962,-197.1081 268.962,-186.5854 262.6694,-189.6518"/>
</g>
</g>
</svg>
