<?xml version="1.0" encoding="UTF-8" standalone="no"?>
<!DOCTYPE svg PUBLIC "-//W3C//DTD SVG 1.1//EN"
 "http://www.w3.org/Graphics/SVG/1.1/DTD/svg11.dtd">
<!-- Generated by graphviz version 2.40.1 (20161225.0304)
 -->
<!-- Title: G Pages: 1 -->
<svg width="242pt" height="454pt"
 viewBox="0.00 0.00 241.89 454.40" xmlns="http://www.w3.org/2000/svg" xmlns:xlink="http://www.w3.org/1999/xlink">
<g id="graph0" class="graph" transform="scale(1 1) rotate(0) translate(4 450.4)">
<title>G</title>
<polygon fill="#ffffff" stroke="transparent" points="-4,4 -4,-450.4 237.8931,-450.4 237.8931,4 -4,4"/>
<!-- GO:0046914 -->
<g id="node1" class="node">
<title>GO:0046914</title>
<polygon fill="#00ffff" stroke="#000000" points="124.8108,-58.6014 .063,-58.6014 .063,.2014 124.8108,.2014 124.8108,-58.6014"/>
<text text-anchor="middle" x="62.4369" y="-41.8" font-family="Times,serif" font-size="14.00" fill="#000000">GO:0046914</text>
<text text-anchor="middle" x="62.4369" y="-25" font-family="Times,serif" font-size="14.00" fill="#000000">transition metal ion</text>
<text text-anchor="middle" x="62.4369" y="-8.2" font-family="Times,serif" font-size="14.00" fill="#000000">binding</text>
</g>
<!-- GO:0046872 -->
<g id="node2" class="node">
<title>GO:0046872</title>
<polygon fill="#ffffff" stroke="#000000" points="119.7099,-135.8019 5.1639,-135.8019 5.1639,-94.5981 119.7099,-94.5981 119.7099,-135.8019"/>
<text text-anchor="middle" x="62.4369" y="-119.4" font-family="Times,serif" font-size="14.00" fill="#000000">GO:0046872</text>
<text text-anchor="middle" x="62.4369" y="-102.6" font-family="Times,serif" font-size="14.00" fill="#000000">metal ion binding</text>
</g>
<!-- GO:0046914&#45;&gt;GO:0046872 -->
<g id="edge1" class="edge">
<title>GO:0046914&#45;&gt;GO:0046872</title>
<path fill="none" stroke="#000000" d="M62.4369,-58.7963C62.4369,-67.0638 62.4369,-76.0657 62.4369,-84.4008"/>
<polygon fill="#000000" stroke="#000000" points="58.937,-84.4965 62.4369,-94.4966 65.937,-84.4966 58.937,-84.4965"/>
</g>
<!-- GO:0043169 -->
<g id="node3" class="node">
<title>GO:0043169</title>
<polygon fill="#ffffff" stroke="#000000" points="110.9298,-213.4019 13.944,-213.4019 13.944,-172.1981 110.9298,-172.1981 110.9298,-213.4019"/>
<text text-anchor="middle" x="62.4369" y="-197" font-family="Times,serif" font-size="14.00" fill="#000000">GO:0043169</text>
<text text-anchor="middle" x="62.4369" y="-180.2" font-family="Times,serif" font-size="14.00" fill="#000000">cation binding</text>
</g>
<!-- GO:0046872&#45;&gt;GO:0043169 -->
<g id="edge2" class="edge">
<title>GO:0046872&#45;&gt;GO:0043169</title>
<path fill="none" stroke="#000000" d="M62.4369,-135.9954C62.4369,-143.9109 62.4369,-153.1109 62.4369,-161.7722"/>
<polygon fill="#000000" stroke="#000000" points="58.937,-161.9472 62.4369,-171.9472 65.937,-161.9473 58.937,-161.9472"/>
</g>
<!-- GO:0043167 -->
<g id="node4" class="node">
<title>GO:0043167</title>
<polygon fill="#ffffff" stroke="#000000" points="107.0408,-291.0019 17.833,-291.0019 17.833,-249.7981 107.0408,-249.7981 107.0408,-291.0019"/>
<text text-anchor="middle" x="62.4369" y="-274.6" font-family="Times,serif" font-size="14.00" fill="#000000">GO:0043167</text>
<text text-anchor="middle" x="62.4369" y="-257.8" font-family="Times,serif" font-size="14.00" fill="#000000">ion binding</text>
</g>
<!-- GO:0043169&#45;&gt;GO:0043167 -->
<g id="edge3" class="edge">
<title>GO:0043169&#45;&gt;GO:0043167</title>
<path fill="none" stroke="#000000" d="M62.4369,-213.5954C62.4369,-221.5109 62.4369,-230.7109 62.4369,-239.3722"/>
<polygon fill="#000000" stroke="#000000" points="58.937,-239.5472 62.4369,-249.5472 65.937,-239.5473 58.937,-239.5472"/>
</g>
<!-- GO:0005488 -->
<g id="node5" class="node">
<title>GO:0005488</title>
<polygon fill="#ffffff" stroke="#000000" points="107.0408,-368.6019 17.833,-368.6019 17.833,-327.3981 107.0408,-327.3981 107.0408,-368.6019"/>
<text text-anchor="middle" x="62.4369" y="-352.2" font-family="Times,serif" font-size="14.00" fill="#000000">GO:0005488</text>
<text text-anchor="middle" x="62.4369" y="-335.4" font-family="Times,serif" font-size="14.00" fill="#000000">binding</text>
</g>
<!-- GO:0043167&#45;&gt;GO:0005488 -->
<g id="edge4" class="edge">
<title>GO:0043167&#45;&gt;GO:0005488</title>
<path fill="none" stroke="#000000" d="M62.4369,-291.1954C62.4369,-299.1109 62.4369,-308.3109 62.4369,-316.9722"/>
<polygon fill="#000000" stroke="#000000" points="58.937,-317.1472 62.4369,-327.1472 65.937,-317.1473 58.937,-317.1472"/>
</g>
<!-- GO:0003674 -->
<g id="node6" class="node">
<title>GO:0003674</title>
<polygon fill="#ffffff" stroke="#000000" points="183.07,-446.2019 57.8038,-446.2019 57.8038,-404.9981 183.07,-404.9981 183.07,-446.2019"/>
<text text-anchor="middle" x="120.4369" y="-429.8" font-family="Times,serif" font-size="14.00" fill="#000000">GO:0003674</text>
<text text-anchor="middle" x="120.4369" y="-413" font-family="Times,serif" font-size="14.00" fill="#000000">molecular_function</text>
</g>
<!-- GO:0005488&#45;&gt;GO:0003674 -->
<g id="edge5" class="edge">
<title>GO:0005488&#45;&gt;GO:0003674</title>
<path fill="none" stroke="#000000" d="M77.9798,-368.7954C84.3511,-377.3197 91.836,-387.3339 98.7321,-396.5605"/>
<polygon fill="#000000" stroke="#000000" points="96.0608,-398.8327 104.8511,-404.7472 101.6677,-394.6419 96.0608,-398.8327"/>
</g>
<!-- GO:0003824 -->
<g id="node7" class="node">
<title>GO:0003824</title>
<polygon fill="#ff00ff" stroke="#000000" points="233.8493,-368.6019 125.0245,-368.6019 125.0245,-327.3981 233.8493,-327.3981 233.8493,-368.6019"/>
<text text-anchor="middle" x="179.4369" y="-352.2" font-family="Times,serif" font-size="14.00" fill="#000000">GO:0003824</text>
<text text-anchor="middle" x="179.4369" y="-335.4" font-family="Times,serif" font-size="14.00" fill="#000000">catalytic activity</text>
</g>
<!-- GO:0003824&#45;&gt;GO:0003674 -->
<g id="edge6" class="edge">
<title>GO:0003824&#45;&gt;GO:0003674</title>
<path fill="none" stroke="#000000" d="M163.626,-368.7954C157.1448,-377.3197 149.531,-387.3339 142.5159,-396.5605"/>
<polygon fill="#000000" stroke="#000000" points="139.5577,-394.6684 136.2915,-404.7472 145.1301,-398.9051 139.5577,-394.6684"/>
</g>
</g>
</svg>
