<?xml version="1.0" encoding="UTF-8" standalone="no"?>
<!DOCTYPE svg PUBLIC "-//W3C//DTD SVG 1.1//EN"
 "http://www.w3.org/Graphics/SVG/1.1/DTD/svg11.dtd">
<!-- Generated by graphviz version 2.40.1 (20161225.0304)
 -->
<!-- Title: G Pages: 1 -->
<svg width="805pt" height="505pt"
 viewBox="0.00 0.00 805.47 504.80" xmlns="http://www.w3.org/2000/svg" xmlns:xlink="http://www.w3.org/1999/xlink">
<g id="graph0" class="graph" transform="scale(1 1) rotate(0) translate(4 500.8)">
<title>G</title>
<polygon fill="#ffffff" stroke="transparent" points="-4,4 -4,-500.8 801.465,-500.8 801.465,4 -4,4"/>
<!-- GO:0004872 -->
<g id="node1" class="node">
<title>GO:0004872</title>
<polygon fill="#ff00ff" stroke="#000000" points="641.9695,-324.6019 534.2739,-324.6019 534.2739,-283.3981 641.9695,-283.3981 641.9695,-324.6019"/>
<text text-anchor="middle" x="588.1217" y="-308.2" font-family="Times,serif" font-size="14.00" fill="#000000">GO:0004872</text>
<text text-anchor="middle" x="588.1217" y="-291.4" font-family="Times,serif" font-size="14.00" fill="#000000">receptor activity</text>
</g>
<!-- GO:0060089 -->
<g id="node2" class="node">
<title>GO:0060089</title>
<polygon fill="#ffffff" stroke="#000000" points="654.8983,-419.4014 521.3451,-419.4014 521.3451,-360.5986 654.8983,-360.5986 654.8983,-419.4014"/>
<text text-anchor="middle" x="588.1217" y="-402.6" font-family="Times,serif" font-size="14.00" fill="#000000">GO:0060089</text>
<text text-anchor="middle" x="588.1217" y="-385.8" font-family="Times,serif" font-size="14.00" fill="#000000">molecular transducer</text>
<text text-anchor="middle" x="588.1217" y="-369" font-family="Times,serif" font-size="14.00" fill="#000000">activity</text>
</g>
<!-- GO:0004872&#45;&gt;GO:0060089 -->
<g id="edge1" class="edge">
<title>GO:0004872&#45;&gt;GO:0060089</title>
<path fill="none" stroke="#000000" d="M588.1217,-324.8182C588.1217,-332.5358 588.1217,-341.5662 588.1217,-350.4036"/>
<polygon fill="#000000" stroke="#000000" points="584.6218,-350.5991 588.1217,-360.5991 591.6218,-350.5992 584.6218,-350.5991"/>
</g>
<!-- GO:0003674 -->
<g id="node3" class="node">
<title>GO:0003674</title>
<polygon fill="#ffffff" stroke="#000000" points="650.7548,-496.6019 525.4886,-496.6019 525.4886,-455.3981 650.7548,-455.3981 650.7548,-496.6019"/>
<text text-anchor="middle" x="588.1217" y="-480.2" font-family="Times,serif" font-size="14.00" fill="#000000">GO:0003674</text>
<text text-anchor="middle" x="588.1217" y="-463.4" font-family="Times,serif" font-size="14.00" fill="#000000">molecular_function</text>
</g>
<!-- GO:0060089&#45;&gt;GO:0003674 -->
<g id="edge2" class="edge">
<title>GO:0060089&#45;&gt;GO:0003674</title>
<path fill="none" stroke="#000000" d="M588.1217,-419.5963C588.1217,-427.8638 588.1217,-436.8657 588.1217,-445.2008"/>
<polygon fill="#000000" stroke="#000000" points="584.6218,-445.2965 588.1217,-455.2966 591.6218,-445.2966 584.6218,-445.2965"/>
</g>
<!-- GO:0001664 -->
<g id="node4" class="node">
<title>GO:0001664</title>
<polygon fill="#ffffff" stroke="#000000" points="118.3654,-153.0014 -.122,-153.0014 -.122,-94.1986 118.3654,-94.1986 118.3654,-153.0014"/>
<text text-anchor="middle" x="59.1217" y="-136.2" font-family="Times,serif" font-size="14.00" fill="#000000">GO:0001664</text>
<text text-anchor="middle" x="59.1217" y="-119.4" font-family="Times,serif" font-size="14.00" fill="#000000">G&#45;protein coupled</text>
<text text-anchor="middle" x="59.1217" y="-102.6" font-family="Times,serif" font-size="14.00" fill="#000000">receptor binding</text>
</g>
<!-- GO:0005102 -->
<g id="node5" class="node">
<title>GO:0005102</title>
<polygon fill="#ffffff" stroke="#000000" points="113.2586,-238.6019 4.9848,-238.6019 4.9848,-197.3981 113.2586,-197.3981 113.2586,-238.6019"/>
<text text-anchor="middle" x="59.1217" y="-222.2" font-family="Times,serif" font-size="14.00" fill="#000000">GO:0005102</text>
<text text-anchor="middle" x="59.1217" y="-205.4" font-family="Times,serif" font-size="14.00" fill="#000000">receptor binding</text>
</g>
<!-- GO:0001664&#45;&gt;GO:0005102 -->
<g id="edge3" class="edge">
<title>GO:0001664&#45;&gt;GO:0005102</title>
<path fill="none" stroke="#000000" d="M59.1217,-152.9513C59.1217,-163.8614 59.1217,-176.2637 59.1217,-187.292"/>
<polygon fill="#000000" stroke="#000000" points="55.6218,-187.3509 59.1217,-197.351 62.6218,-187.351 55.6218,-187.3509"/>
</g>
<!-- GO:0005515 -->
<g id="node6" class="node">
<title>GO:0005515</title>
<polygon fill="#ffffff" stroke="#000000" points="245.0593,-324.6019 143.1841,-324.6019 143.1841,-283.3981 245.0593,-283.3981 245.0593,-324.6019"/>
<text text-anchor="middle" x="194.1217" y="-308.2" font-family="Times,serif" font-size="14.00" fill="#000000">GO:0005515</text>
<text text-anchor="middle" x="194.1217" y="-291.4" font-family="Times,serif" font-size="14.00" fill="#000000">protein binding</text>
</g>
<!-- GO:0005102&#45;&gt;GO:0005515 -->
<g id="edge4" class="edge">
<title>GO:0005102&#45;&gt;GO:0005515</title>
<path fill="none" stroke="#000000" d="M91.8014,-238.8182C110.2907,-250.5966 133.5799,-265.4326 153.2668,-277.9739"/>
<polygon fill="#000000" stroke="#000000" points="151.4284,-280.9526 161.7429,-283.3735 155.1894,-275.0488 151.4284,-280.9526"/>
</g>
<!-- GO:0005488 -->
<g id="node7" class="node">
<title>GO:0005488</title>
<polygon fill="#ffffff" stroke="#000000" points="430.7256,-410.6019 341.5178,-410.6019 341.5178,-369.3981 430.7256,-369.3981 430.7256,-410.6019"/>
<text text-anchor="middle" x="386.1217" y="-394.2" font-family="Times,serif" font-size="14.00" fill="#000000">GO:0005488</text>
<text text-anchor="middle" x="386.1217" y="-377.4" font-family="Times,serif" font-size="14.00" fill="#000000">binding</text>
</g>
<!-- GO:0005515&#45;&gt;GO:0005488 -->
<g id="edge5" class="edge">
<title>GO:0005515&#45;&gt;GO:0005488</title>
<path fill="none" stroke="#000000" d="M240.5995,-324.8182C268.1197,-337.1449 303.1167,-352.8207 331.8932,-365.7102"/>
<polygon fill="#000000" stroke="#000000" points="330.8368,-369.072 341.3939,-369.9657 333.6984,-362.6836 330.8368,-369.072"/>
</g>
<!-- GO:0005488&#45;&gt;GO:0003674 -->
<g id="edge6" class="edge">
<title>GO:0005488&#45;&gt;GO:0003674</title>
<path fill="none" stroke="#000000" d="M430.952,-409.0862C460.1299,-421.5085 498.4782,-437.8349 529.9904,-451.251"/>
<polygon fill="#000000" stroke="#000000" points="528.961,-454.6167 539.5329,-455.3137 531.703,-448.1761 528.961,-454.6167"/>
</g>
<!-- GO:0004930 -->
<g id="node8" class="node">
<title>GO:0004930</title>
<polygon fill="#ffffff" stroke="#000000" points="728.3654,-58.6014 609.878,-58.6014 609.878,.2014 728.3654,.2014 728.3654,-58.6014"/>
<text text-anchor="middle" x="669.1217" y="-41.8" font-family="Times,serif" font-size="14.00" fill="#000000">GO:0004930</text>
<text text-anchor="middle" x="669.1217" y="-25" font-family="Times,serif" font-size="14.00" fill="#000000">G&#45;protein coupled</text>
<text text-anchor="middle" x="669.1217" y="-8.2" font-family="Times,serif" font-size="14.00" fill="#000000">receptor activity</text>
</g>
<!-- GO:0004888 -->
<g id="node9" class="node">
<title>GO:0004888</title>
<polygon fill="#ff00ff" stroke="#000000" points="747.7488,-153.0014 590.4946,-153.0014 590.4946,-94.1986 747.7488,-94.1986 747.7488,-153.0014"/>
<text text-anchor="middle" x="669.1217" y="-136.2" font-family="Times,serif" font-size="14.00" fill="#000000">GO:0004888</text>
<text text-anchor="middle" x="669.1217" y="-119.4" font-family="Times,serif" font-size="14.00" fill="#000000">transmembrane signaling</text>
<text text-anchor="middle" x="669.1217" y="-102.6" font-family="Times,serif" font-size="14.00" fill="#000000">receptor activity</text>
</g>
<!-- GO:0004930&#45;&gt;GO:0004888 -->
<g id="edge7" class="edge">
<title>GO:0004930&#45;&gt;GO:0004888</title>
<path fill="none" stroke="#000000" d="M669.1217,-58.5513C669.1217,-66.6318 669.1217,-75.5308 669.1217,-84.0838"/>
<polygon fill="#000000" stroke="#000000" points="665.6218,-84.2668 669.1217,-94.2669 672.6218,-84.2669 665.6218,-84.2668"/>
</g>
<!-- GO:0038023 -->
<g id="node10" class="node">
<title>GO:0038023</title>
<polygon fill="#ffffff" stroke="#000000" points="797.3087,-247.4014 680.9347,-247.4014 680.9347,-188.5986 797.3087,-188.5986 797.3087,-247.4014"/>
<text text-anchor="middle" x="739.1217" y="-230.6" font-family="Times,serif" font-size="14.00" fill="#000000">GO:0038023</text>
<text text-anchor="middle" x="739.1217" y="-213.8" font-family="Times,serif" font-size="14.00" fill="#000000">signaling receptor</text>
<text text-anchor="middle" x="739.1217" y="-197" font-family="Times,serif" font-size="14.00" fill="#000000">activity</text>
</g>
<!-- GO:0004888&#45;&gt;GO:0038023 -->
<g id="edge8" class="edge">
<title>GO:0004888&#45;&gt;GO:0038023</title>
<path fill="none" stroke="#000000" d="M690.8864,-152.9513C697.3392,-161.6534 704.4959,-171.3047 711.2781,-180.4509"/>
<polygon fill="#000000" stroke="#000000" points="708.6026,-182.719 717.3704,-188.6669 714.2255,-178.5496 708.6026,-182.719"/>
</g>
<!-- GO:0099600 -->
<g id="node11" class="node">
<title>GO:0099600</title>
<polygon fill="#ffffff" stroke="#000000" points="662.7737,-247.4014 511.4697,-247.4014 511.4697,-188.5986 662.7737,-188.5986 662.7737,-247.4014"/>
<text text-anchor="middle" x="587.1217" y="-230.6" font-family="Times,serif" font-size="14.00" fill="#000000">GO:0099600</text>
<text text-anchor="middle" x="587.1217" y="-213.8" font-family="Times,serif" font-size="14.00" fill="#000000">transmembrane receptor</text>
<text text-anchor="middle" x="587.1217" y="-197" font-family="Times,serif" font-size="14.00" fill="#000000">activity</text>
</g>
<!-- GO:0004888&#45;&gt;GO:0099600 -->
<g id="edge9" class="edge">
<title>GO:0004888&#45;&gt;GO:0099600</title>
<path fill="none" stroke="#000000" d="M643.6259,-152.9513C635.9126,-161.831 627.3408,-171.699 619.2526,-181.0103"/>
<polygon fill="#000000" stroke="#000000" points="616.5173,-178.8221 612.6018,-188.6669 621.8019,-183.4126 616.5173,-178.8221"/>
</g>
<!-- GO:0038023&#45;&gt;GO:0004872 -->
<g id="edge10" class="edge">
<title>GO:0038023&#45;&gt;GO:0004872</title>
<path fill="none" stroke="#000000" d="M687.5784,-247.3558C670.1333,-257.2914 650.7845,-268.3112 633.825,-277.9703"/>
<polygon fill="#000000" stroke="#000000" points="631.6334,-275.1906 624.6761,-283.1809 635.0978,-281.2732 631.6334,-275.1906"/>
</g>
<!-- GO:0004871 -->
<g id="node12" class="node">
<title>GO:0004871</title>
<polygon fill="#ffffff" stroke="#000000" points="787.8626,-419.4014 676.3808,-419.4014 676.3808,-360.5986 787.8626,-360.5986 787.8626,-419.4014"/>
<text text-anchor="middle" x="732.1217" y="-402.6" font-family="Times,serif" font-size="14.00" fill="#000000">GO:0004871</text>
<text text-anchor="middle" x="732.1217" y="-385.8" font-family="Times,serif" font-size="14.00" fill="#000000">signal transducer</text>
<text text-anchor="middle" x="732.1217" y="-369" font-family="Times,serif" font-size="14.00" fill="#000000">activity</text>
</g>
<!-- GO:0038023&#45;&gt;GO:0004871 -->
<g id="edge11" class="edge">
<title>GO:0038023&#45;&gt;GO:0004871</title>
<path fill="none" stroke="#000000" d="M737.9184,-247.5679C736.7629,-275.9587 735.0096,-319.0404 733.7338,-350.3878"/>
<polygon fill="#000000" stroke="#000000" points="730.2307,-350.3966 733.321,-360.5307 737.2249,-350.6813 730.2307,-350.3966"/>
</g>
<!-- GO:0099600&#45;&gt;GO:0004872 -->
<g id="edge12" class="edge">
<title>GO:0099600&#45;&gt;GO:0004872</title>
<path fill="none" stroke="#000000" d="M587.4658,-247.5963C587.562,-255.8638 587.6667,-264.8657 587.7636,-273.2008"/>
<polygon fill="#000000" stroke="#000000" points="584.2648,-273.338 587.881,-283.2966 591.2644,-273.2565 584.2648,-273.338"/>
</g>
<!-- GO:0004871&#45;&gt;GO:0003674 -->
<g id="edge13" class="edge">
<title>GO:0004871&#45;&gt;GO:0003674</title>
<path fill="none" stroke="#000000" d="M682.9678,-419.3558C666.3315,-429.2914 647.8796,-440.3112 631.7063,-449.9703"/>
<polygon fill="#000000" stroke="#000000" points="629.7724,-447.0486 622.9815,-455.1809 633.3616,-453.0584 629.7724,-447.0486"/>
</g>
<!-- GO:0042277 -->
<g id="node13" class="node">
<title>GO:0042277</title>
<polygon fill="#ff00ff" stroke="#000000" points="379.1145,-238.6019 275.1289,-238.6019 275.1289,-197.3981 379.1145,-197.3981 379.1145,-238.6019"/>
<text text-anchor="middle" x="327.1217" y="-222.2" font-family="Times,serif" font-size="14.00" fill="#000000">GO:0042277</text>
<text text-anchor="middle" x="327.1217" y="-205.4" font-family="Times,serif" font-size="14.00" fill="#000000">peptide binding</text>
</g>
<!-- GO:0033218 -->
<g id="node14" class="node">
<title>GO:0033218</title>
<polygon fill="#ffffff" stroke="#000000" points="377.6146,-324.6019 280.6288,-324.6019 280.6288,-283.3981 377.6146,-283.3981 377.6146,-324.6019"/>
<text text-anchor="middle" x="329.1217" y="-308.2" font-family="Times,serif" font-size="14.00" fill="#000000">GO:0033218</text>
<text text-anchor="middle" x="329.1217" y="-291.4" font-family="Times,serif" font-size="14.00" fill="#000000">amide binding</text>
</g>
<!-- GO:0042277&#45;&gt;GO:0033218 -->
<g id="edge14" class="edge">
<title>GO:0042277&#45;&gt;GO:0033218</title>
<path fill="none" stroke="#000000" d="M327.6058,-238.8182C327.8466,-249.1705 328.1423,-261.8848 328.4084,-273.3271"/>
<polygon fill="#000000" stroke="#000000" points="324.9104,-273.4576 328.642,-283.3735 331.9085,-273.2948 324.9104,-273.4576"/>
</g>
<!-- GO:0033218&#45;&gt;GO:0005488 -->
<g id="edge15" class="edge">
<title>GO:0033218&#45;&gt;GO:0005488</title>
<path fill="none" stroke="#000000" d="M342.9198,-324.8182C350.0613,-335.593 358.8987,-348.9267 366.7163,-360.7216"/>
<polygon fill="#000000" stroke="#000000" points="364.0086,-362.9717 372.4507,-369.3735 369.8434,-359.1045 364.0086,-362.9717"/>
</g>
<!-- GO:0043167 -->
<g id="node15" class="node">
<title>GO:0043167</title>
<polygon fill="#ff00ff" stroke="#000000" points="487.7256,-324.6019 398.5178,-324.6019 398.5178,-283.3981 487.7256,-283.3981 487.7256,-324.6019"/>
<text text-anchor="middle" x="443.1217" y="-308.2" font-family="Times,serif" font-size="14.00" fill="#000000">GO:0043167</text>
<text text-anchor="middle" x="443.1217" y="-291.4" font-family="Times,serif" font-size="14.00" fill="#000000">ion binding</text>
</g>
<!-- GO:0043167&#45;&gt;GO:0005488 -->
<g id="edge16" class="edge">
<title>GO:0043167&#45;&gt;GO:0005488</title>
<path fill="none" stroke="#000000" d="M429.3236,-324.8182C422.1821,-335.593 413.3447,-348.9267 405.5271,-360.7216"/>
<polygon fill="#000000" stroke="#000000" points="402.4,-359.1045 399.7927,-369.3735 408.2348,-362.9717 402.4,-359.1045"/>
</g>
<!-- GO:0005509 -->
<g id="node16" class="node">
<title>GO:0005509</title>
<polygon fill="#ffffff" stroke="#000000" points="509.1091,-49.8019 381.1343,-49.8019 381.1343,-8.5981 509.1091,-8.5981 509.1091,-49.8019"/>
<text text-anchor="middle" x="445.1217" y="-33.4" font-family="Times,serif" font-size="14.00" fill="#000000">GO:0005509</text>
<text text-anchor="middle" x="445.1217" y="-16.6" font-family="Times,serif" font-size="14.00" fill="#000000">calcium ion binding</text>
</g>
<!-- GO:0046872 -->
<g id="node17" class="node">
<title>GO:0046872</title>
<polygon fill="#ff00ff" stroke="#000000" points="502.3947,-144.2019 387.8487,-144.2019 387.8487,-102.9981 502.3947,-102.9981 502.3947,-144.2019"/>
<text text-anchor="middle" x="445.1217" y="-127.8" font-family="Times,serif" font-size="14.00" fill="#000000">GO:0046872</text>
<text text-anchor="middle" x="445.1217" y="-111" font-family="Times,serif" font-size="14.00" fill="#000000">metal ion binding</text>
</g>
<!-- GO:0005509&#45;&gt;GO:0046872 -->
<g id="edge17" class="edge">
<title>GO:0005509&#45;&gt;GO:0046872</title>
<path fill="none" stroke="#000000" d="M445.1217,-50.1504C445.1217,-62.6165 445.1217,-78.6645 445.1217,-92.5786"/>
<polygon fill="#000000" stroke="#000000" points="441.6218,-92.7081 445.1217,-102.7081 448.6218,-92.7082 441.6218,-92.7081"/>
</g>
<!-- GO:0043169 -->
<g id="node18" class="node">
<title>GO:0043169</title>
<polygon fill="#ffffff" stroke="#000000" points="493.6146,-238.6019 396.6288,-238.6019 396.6288,-197.3981 493.6146,-197.3981 493.6146,-238.6019"/>
<text text-anchor="middle" x="445.1217" y="-222.2" font-family="Times,serif" font-size="14.00" fill="#000000">GO:0043169</text>
<text text-anchor="middle" x="445.1217" y="-205.4" font-family="Times,serif" font-size="14.00" fill="#000000">cation binding</text>
</g>
<!-- GO:0046872&#45;&gt;GO:0043169 -->
<g id="edge18" class="edge">
<title>GO:0046872&#45;&gt;GO:0043169</title>
<path fill="none" stroke="#000000" d="M445.1217,-144.5504C445.1217,-157.0165 445.1217,-173.0645 445.1217,-186.9786"/>
<polygon fill="#000000" stroke="#000000" points="441.6218,-187.1081 445.1217,-197.1081 448.6218,-187.1082 441.6218,-187.1081"/>
</g>
<!-- GO:0043169&#45;&gt;GO:0043167 -->
<g id="edge19" class="edge">
<title>GO:0043169&#45;&gt;GO:0043167</title>
<path fill="none" stroke="#000000" d="M444.6376,-238.8182C444.3968,-249.1705 444.1011,-261.8848 443.835,-273.3271"/>
<polygon fill="#000000" stroke="#000000" points="440.3349,-273.2948 443.6014,-283.3735 447.333,-273.4576 440.3349,-273.2948"/>
</g>
<!-- GO:0008092 -->
<g id="node19" class="node">
<title>GO:0008092</title>
<polygon fill="#ffffff" stroke="#000000" points="257.1435,-247.4014 131.0999,-247.4014 131.0999,-188.5986 257.1435,-188.5986 257.1435,-247.4014"/>
<text text-anchor="middle" x="194.1217" y="-230.6" font-family="Times,serif" font-size="14.00" fill="#000000">GO:0008092</text>
<text text-anchor="middle" x="194.1217" y="-213.8" font-family="Times,serif" font-size="14.00" fill="#000000">cytoskeletal protein</text>
<text text-anchor="middle" x="194.1217" y="-197" font-family="Times,serif" font-size="14.00" fill="#000000">binding</text>
</g>
<!-- GO:0008092&#45;&gt;GO:0005515 -->
<g id="edge20" class="edge">
<title>GO:0008092&#45;&gt;GO:0005515</title>
<path fill="none" stroke="#000000" d="M194.1217,-247.5963C194.1217,-255.8638 194.1217,-264.8657 194.1217,-273.2008"/>
<polygon fill="#000000" stroke="#000000" points="190.6218,-273.2965 194.1217,-283.2966 197.6218,-273.2966 190.6218,-273.2965"/>
</g>
</g>
</svg>
