<?xml version="1.0" encoding="UTF-8" standalone="no"?>
<!DOCTYPE svg PUBLIC "-//W3C//DTD SVG 1.1//EN"
 "http://www.w3.org/Graphics/SVG/1.1/DTD/svg11.dtd">
<!-- Generated by graphviz version 2.40.1 (20161225.0304)
 -->
<!-- Title: G Pages: 1 -->
<svg width="756pt" height="394pt"
 viewBox="0.00 0.00 756.22 393.60" xmlns="http://www.w3.org/2000/svg" xmlns:xlink="http://www.w3.org/1999/xlink">
<g id="graph0" class="graph" transform="scale(1 1) rotate(0) translate(4 389.6)">
<title>G</title>
<polygon fill="#ffffff" stroke="transparent" points="-4,4 -4,-389.6 752.2245,-389.6 752.2245,4 -4,4"/>
<!-- GO:0043229 -->
<g id="node1" class="node">
<title>GO:0043229</title>
<polygon fill="#ffff00" stroke="#000000" points="285.6988,-144.2019 146.262,-144.2019 146.262,-102.9981 285.6988,-102.9981 285.6988,-144.2019"/>
<text text-anchor="middle" x="215.9804" y="-127.8" font-family="Times,serif" font-size="14.00" fill="#000000">GO:0043229</text>
<text text-anchor="middle" x="215.9804" y="-111" font-family="Times,serif" font-size="14.00" fill="#000000">intracellular organelle</text>
</g>
<!-- GO:0044424 -->
<g id="node2" class="node">
<title>GO:0044424</title>
<polygon fill="#ff0000" stroke="#000000" points="383.3788,-230.2019 274.582,-230.2019 274.582,-188.9981 383.3788,-188.9981 383.3788,-230.2019"/>
<text text-anchor="middle" x="328.9804" y="-213.8" font-family="Times,serif" font-size="14.00" fill="#000000">GO:0044424</text>
<text text-anchor="middle" x="328.9804" y="-197" font-family="Times,serif" font-size="14.00" fill="#000000">intracellular part</text>
</g>
<!-- GO:0043229&#45;&gt;GO:0044424 -->
<g id="edge1" class="edge">
<title>GO:0043229&#45;&gt;GO:0044424</title>
<path fill="none" stroke="#000000" d="M243.3345,-144.4182C258.4638,-155.9325 277.4325,-170.3688 293.6705,-182.7269"/>
<polygon fill="#000000" stroke="#000000" points="291.8009,-185.7024 301.8782,-188.9735 296.0403,-180.1321 291.8009,-185.7024"/>
</g>
<!-- GO:0043226 -->
<g id="node3" class="node">
<title>GO:0043226</title>
<polygon fill="#ffff00" stroke="#000000" points="256.5843,-230.2019 167.3765,-230.2019 167.3765,-188.9981 256.5843,-188.9981 256.5843,-230.2019"/>
<text text-anchor="middle" x="211.9804" y="-213.8" font-family="Times,serif" font-size="14.00" fill="#000000">GO:0043226</text>
<text text-anchor="middle" x="211.9804" y="-197" font-family="Times,serif" font-size="14.00" fill="#000000">organelle</text>
</g>
<!-- GO:0043229&#45;&gt;GO:0043226 -->
<g id="edge2" class="edge">
<title>GO:0043229&#45;&gt;GO:0043226</title>
<path fill="none" stroke="#000000" d="M215.0121,-144.4182C214.5306,-154.7705 213.9392,-167.4848 213.407,-178.9271"/>
<polygon fill="#000000" stroke="#000000" points="209.9083,-178.8217 212.9398,-188.9735 216.9007,-179.147 209.9083,-178.8217"/>
</g>
<!-- GO:0044464 -->
<g id="node4" class="node">
<title>GO:0044464</title>
<polygon fill="#ff0000" stroke="#000000" points="361.5843,-307.8019 272.3765,-307.8019 272.3765,-266.5981 361.5843,-266.5981 361.5843,-307.8019"/>
<text text-anchor="middle" x="316.9804" y="-291.4" font-family="Times,serif" font-size="14.00" fill="#000000">GO:0044464</text>
<text text-anchor="middle" x="316.9804" y="-274.6" font-family="Times,serif" font-size="14.00" fill="#000000">cell part</text>
</g>
<!-- GO:0044424&#45;&gt;GO:0044464 -->
<g id="edge3" class="edge">
<title>GO:0044424&#45;&gt;GO:0044464</title>
<path fill="none" stroke="#000000" d="M325.7646,-230.3954C324.5271,-238.3978 323.0866,-247.7133 321.7344,-256.4575"/>
<polygon fill="#000000" stroke="#000000" points="318.2745,-255.9298 320.2051,-266.3472 325.1923,-256.9996 318.2745,-255.9298"/>
</g>
<!-- GO:0005575 -->
<g id="node5" class="node">
<title>GO:0005575</title>
<polygon fill="#ffffff" stroke="#000000" points="487.6671,-385.4019 360.2937,-385.4019 360.2937,-344.1981 487.6671,-344.1981 487.6671,-385.4019"/>
<text text-anchor="middle" x="423.9804" y="-369" font-family="Times,serif" font-size="14.00" fill="#000000">GO:0005575</text>
<text text-anchor="middle" x="423.9804" y="-352.2" font-family="Times,serif" font-size="14.00" fill="#000000">cellular_component</text>
</g>
<!-- GO:0043226&#45;&gt;GO:0005575 -->
<g id="edge4" class="edge">
<title>GO:0043226&#45;&gt;GO:0005575</title>
<path fill="none" stroke="#000000" d="M217.7813,-230.5669C224.937,-252.7313 239.1711,-287.29 262.9804,-308 287.4929,-329.3216 320.5297,-342.7978 350.2975,-351.2379"/>
<polygon fill="#000000" stroke="#000000" points="349.6847,-354.6973 360.2503,-353.9113 351.5006,-347.937 349.6847,-354.6973"/>
</g>
<!-- GO:0044464&#45;&gt;GO:0005575 -->
<g id="edge8" class="edge">
<title>GO:0044464&#45;&gt;GO:0005575</title>
<path fill="none" stroke="#000000" d="M345.6544,-307.9954C358.3679,-317.2156 373.4847,-328.1788 387.0311,-338.0031"/>
<polygon fill="#000000" stroke="#000000" points="385.0772,-340.9096 395.2272,-343.9472 389.1868,-335.2429 385.0772,-340.9096"/>
</g>
<!-- GO:0043227 -->
<g id="node6" class="node">
<title>GO:0043227</title>
<polygon fill="#00ff00" stroke="#000000" points="127.9412,-153.0014 .0196,-153.0014 .0196,-94.1986 127.9412,-94.1986 127.9412,-153.0014"/>
<text text-anchor="middle" x="63.9804" y="-136.2" font-family="Times,serif" font-size="14.00" fill="#000000">GO:0043227</text>
<text text-anchor="middle" x="63.9804" y="-119.4" font-family="Times,serif" font-size="14.00" fill="#000000">membrane&#45;bounded</text>
<text text-anchor="middle" x="63.9804" y="-102.6" font-family="Times,serif" font-size="14.00" fill="#000000">organelle</text>
</g>
<!-- GO:0043227&#45;&gt;GO:0043226 -->
<g id="edge5" class="edge">
<title>GO:0043227&#45;&gt;GO:0043226</title>
<path fill="none" stroke="#000000" d="M114.4997,-152.9558C131.5982,-162.8914 150.5625,-173.9112 167.1851,-183.5703"/>
<polygon fill="#000000" stroke="#000000" points="165.7475,-186.7829 176.1523,-188.7809 169.2645,-180.7305 165.7475,-186.7829"/>
</g>
<!-- GO:0016020 -->
<g id="node7" class="node">
<title>GO:0016020</title>
<polygon fill="#ffff00" stroke="#000000" points="468.5843,-307.8019 379.3765,-307.8019 379.3765,-266.5981 468.5843,-266.5981 468.5843,-307.8019"/>
<text text-anchor="middle" x="423.9804" y="-291.4" font-family="Times,serif" font-size="14.00" fill="#000000">GO:0016020</text>
<text text-anchor="middle" x="423.9804" y="-274.6" font-family="Times,serif" font-size="14.00" fill="#000000">membrane</text>
</g>
<!-- GO:0016020&#45;&gt;GO:0005575 -->
<g id="edge6" class="edge">
<title>GO:0016020&#45;&gt;GO:0005575</title>
<path fill="none" stroke="#000000" d="M423.9804,-307.9954C423.9804,-315.9109 423.9804,-325.1109 423.9804,-333.7722"/>
<polygon fill="#000000" stroke="#000000" points="420.4805,-333.9472 423.9804,-343.9472 427.4805,-333.9473 420.4805,-333.9472"/>
</g>
<!-- GO:0097458 -->
<g id="node8" class="node">
<title>GO:0097458</title>
<polygon fill="#ff00ff" stroke="#000000" points="490.5843,-230.2019 401.3765,-230.2019 401.3765,-188.9981 490.5843,-188.9981 490.5843,-230.2019"/>
<text text-anchor="middle" x="445.9804" y="-213.8" font-family="Times,serif" font-size="14.00" fill="#000000">GO:0097458</text>
<text text-anchor="middle" x="445.9804" y="-197" font-family="Times,serif" font-size="14.00" fill="#000000">neuron part</text>
</g>
<!-- GO:0097458&#45;&gt;GO:0044464 -->
<g id="edge7" class="edge">
<title>GO:0097458&#45;&gt;GO:0044464</title>
<path fill="none" stroke="#000000" d="M411.4108,-230.3954C395.7941,-239.7896 377.1697,-250.9931 360.6044,-260.958"/>
<polygon fill="#000000" stroke="#000000" points="358.4104,-258.1933 351.6455,-266.3472 362.0187,-264.1916 358.4104,-258.1933"/>
</g>
<!-- GO:0043231 -->
<g id="node9" class="node">
<title>GO:0043231</title>
<polygon fill="#00ff00" stroke="#000000" points="215.3592,-58.6014 64.6016,-58.6014 64.6016,.2014 215.3592,.2014 215.3592,-58.6014"/>
<text text-anchor="middle" x="139.9804" y="-41.8" font-family="Times,serif" font-size="14.00" fill="#000000">GO:0043231</text>
<text text-anchor="middle" x="139.9804" y="-25" font-family="Times,serif" font-size="14.00" fill="#000000">intracellular membrane&#45;</text>
<text text-anchor="middle" x="139.9804" y="-8.2" font-family="Times,serif" font-size="14.00" fill="#000000">bounded organelle</text>
</g>
<!-- GO:0043231&#45;&gt;GO:0043229 -->
<g id="edge9" class="edge">
<title>GO:0043231&#45;&gt;GO:0043229</title>
<path fill="none" stroke="#000000" d="M163.6107,-58.5513C172.9376,-70.1363 183.619,-83.4037 192.8922,-94.922"/>
<polygon fill="#000000" stroke="#000000" points="190.3588,-97.3565 199.3562,-102.951 195.8114,-92.9667 190.3588,-97.3565"/>
</g>
<!-- GO:0043231&#45;&gt;GO:0043227 -->
<g id="edge10" class="edge">
<title>GO:0043231&#45;&gt;GO:0043227</title>
<path fill="none" stroke="#000000" d="M116.3501,-58.5513C109.2727,-67.3422 101.4154,-77.1018 93.9853,-86.3308"/>
<polygon fill="#000000" stroke="#000000" points="91.1409,-84.2826 87.5961,-94.2669 96.5934,-88.6724 91.1409,-84.2826"/>
</g>
<!-- GO:0044446 -->
<g id="node10" class="node">
<title>GO:0044446</title>
<polygon fill="#00ffff" stroke="#000000" points="593.6988,-153.0014 454.262,-153.0014 454.262,-94.1986 593.6988,-94.1986 593.6988,-153.0014"/>
<text text-anchor="middle" x="523.9804" y="-136.2" font-family="Times,serif" font-size="14.00" fill="#000000">GO:0044446</text>
<text text-anchor="middle" x="523.9804" y="-119.4" font-family="Times,serif" font-size="14.00" fill="#000000">intracellular organelle</text>
<text text-anchor="middle" x="523.9804" y="-102.6" font-family="Times,serif" font-size="14.00" fill="#000000">part</text>
</g>
<!-- GO:0044446&#45;&gt;GO:0044424 -->
<g id="edge11" class="edge">
<title>GO:0044446&#45;&gt;GO:0044424</title>
<path fill="none" stroke="#000000" d="M457.6902,-152.8357C434.0121,-163.2783 407.5886,-174.9318 384.8737,-184.9496"/>
<polygon fill="#000000" stroke="#000000" points="383.4503,-181.7521 375.7129,-188.9898 386.275,-188.1568 383.4503,-181.7521"/>
</g>
<!-- GO:0044422 -->
<g id="node11" class="node">
<title>GO:0044422</title>
<polygon fill="#00ff00" stroke="#000000" points="579.8325,-307.8019 486.1283,-307.8019 486.1283,-266.5981 579.8325,-266.5981 579.8325,-307.8019"/>
<text text-anchor="middle" x="532.9804" y="-291.4" font-family="Times,serif" font-size="14.00" fill="#000000">GO:0044422</text>
<text text-anchor="middle" x="532.9804" y="-274.6" font-family="Times,serif" font-size="14.00" fill="#000000">organelle part</text>
</g>
<!-- GO:0044446&#45;&gt;GO:0044422 -->
<g id="edge12" class="edge">
<title>GO:0044446&#45;&gt;GO:0044422</title>
<path fill="none" stroke="#000000" d="M525.5894,-152.8484C527.1925,-181.9891 529.6445,-226.5603 531.2792,-256.2759"/>
<polygon fill="#000000" stroke="#000000" points="527.7973,-256.7029 531.8414,-266.4955 534.7867,-256.3183 527.7973,-256.7029"/>
</g>
<!-- GO:0044422&#45;&gt;GO:0005575 -->
<g id="edge13" class="edge">
<title>GO:0044422&#45;&gt;GO:0005575</title>
<path fill="none" stroke="#000000" d="M503.7704,-307.9954C490.8193,-317.2156 475.42,-328.1788 461.6203,-338.0031"/>
<polygon fill="#000000" stroke="#000000" points="459.3876,-335.2963 453.271,-343.9472 463.4474,-340.9988 459.3876,-335.2963"/>
</g>
<!-- GO:0044444 -->
<g id="node12" class="node">
<title>GO:0044444</title>
<polygon fill="#ffff00" stroke="#000000" points="412.397,-144.2019 303.5638,-144.2019 303.5638,-102.9981 412.397,-102.9981 412.397,-144.2019"/>
<text text-anchor="middle" x="357.9804" y="-127.8" font-family="Times,serif" font-size="14.00" fill="#000000">GO:0044444</text>
<text text-anchor="middle" x="357.9804" y="-111" font-family="Times,serif" font-size="14.00" fill="#000000">cytoplasmic part</text>
</g>
<!-- GO:0044444&#45;&gt;GO:0044424 -->
<g id="edge14" class="edge">
<title>GO:0044444&#45;&gt;GO:0044424</title>
<path fill="none" stroke="#000000" d="M350.9603,-144.4182C347.4338,-154.8761 343.0944,-167.7446 339.2056,-179.277"/>
<polygon fill="#000000" stroke="#000000" points="335.8147,-178.3794 335.9358,-188.9735 342.4477,-180.6161 335.8147,-178.3794"/>
</g>
<!-- GO:0044421 -->
<g id="node13" class="node">
<title>GO:0044421</title>
<polygon fill="#00ffff" stroke="#000000" points="748.4694,-307.8019 597.4914,-307.8019 597.4914,-266.5981 748.4694,-266.5981 748.4694,-307.8019"/>
<text text-anchor="middle" x="672.9804" y="-291.4" font-family="Times,serif" font-size="14.00" fill="#000000">GO:0044421</text>
<text text-anchor="middle" x="672.9804" y="-274.6" font-family="Times,serif" font-size="14.00" fill="#000000">extracellular region part</text>
</g>
<!-- GO:0044421&#45;&gt;GO:0005575 -->
<g id="edge15" class="edge">
<title>GO:0044421&#45;&gt;GO:0005575</title>
<path fill="none" stroke="#000000" d="M606.5801,-307.8934C572.8682,-318.3996 531.8302,-331.189 497.2041,-341.9801"/>
<polygon fill="#000000" stroke="#000000" points="496.125,-338.6503 487.6193,-344.9672 498.2078,-345.3333 496.125,-338.6503"/>
</g>
</g>
</svg>
