<?xml version="1.0" encoding="UTF-8" standalone="no"?>
<!DOCTYPE svg PUBLIC "-//W3C//DTD SVG 1.1//EN"
 "http://www.w3.org/Graphics/SVG/1.1/DTD/svg11.dtd">
<!-- Generated by graphviz version 2.40.1 (20161225.0304)
 -->
<!-- Title: G Pages: 1 -->
<svg width="854pt" height="505pt"
 viewBox="0.00 0.00 853.73 504.80" xmlns="http://www.w3.org/2000/svg" xmlns:xlink="http://www.w3.org/1999/xlink">
<g id="graph0" class="graph" transform="scale(1 1) rotate(0) translate(4 500.8)">
<title>G</title>
<polygon fill="#ffffff" stroke="transparent" points="-4,4 -4,-500.8 849.735,-500.8 849.735,4 -4,4"/>
<!-- GO:0009793 -->
<g id="node1" class="node">
<title>GO:0009793</title>
<polygon fill="#ff0000" stroke="#000000" points="472.2993,-58.6014 295.9259,-58.6014 295.9259,.2014 472.2993,.2014 472.2993,-58.6014"/>
<text text-anchor="middle" x="384.1126" y="-41.8" font-family="Times,serif" font-size="14.00" fill="#000000">GO:0009793</text>
<text text-anchor="middle" x="384.1126" y="-25" font-family="Times,serif" font-size="14.00" fill="#000000">embryo development ending</text>
<text text-anchor="middle" x="384.1126" y="-8.2" font-family="Times,serif" font-size="14.00" fill="#000000">in seed dormancy</text>
</g>
<!-- GO:0009790 -->
<g id="node2" class="node">
<title>GO:0009790</title>
<polygon fill="#ffffff" stroke="#000000" points="576.1946,-135.8019 442.0306,-135.8019 442.0306,-94.5981 576.1946,-94.5981 576.1946,-135.8019"/>
<text text-anchor="middle" x="509.1126" y="-119.4" font-family="Times,serif" font-size="14.00" fill="#000000">GO:0009790</text>
<text text-anchor="middle" x="509.1126" y="-102.6" font-family="Times,serif" font-size="14.00" fill="#000000">embryo development</text>
</g>
<!-- GO:0009793&#45;&gt;GO:0009790 -->
<g id="edge1" class="edge">
<title>GO:0009793&#45;&gt;GO:0009790</title>
<path fill="none" stroke="#000000" d="M426.7809,-58.5558C440.9548,-68.3074 456.6467,-79.1035 470.4968,-88.6323"/>
<polygon fill="#000000" stroke="#000000" points="468.63,-91.5963 478.8523,-94.3809 472.5977,-85.8293 468.63,-91.5963"/>
</g>
<!-- GO:0044702 -->
<g id="node3" class="node">
<title>GO:0044702</title>
<polygon fill="#ffffff" stroke="#000000" points="450.338,-230.6014 317.8872,-230.6014 317.8872,-171.7986 450.338,-171.7986 450.338,-230.6014"/>
<text text-anchor="middle" x="384.1126" y="-213.8" font-family="Times,serif" font-size="14.00" fill="#000000">GO:0044702</text>
<text text-anchor="middle" x="384.1126" y="-197" font-family="Times,serif" font-size="14.00" fill="#000000">single organism</text>
<text text-anchor="middle" x="384.1126" y="-180.2" font-family="Times,serif" font-size="14.00" fill="#000000">reproductive process</text>
</g>
<!-- GO:0009793&#45;&gt;GO:0044702 -->
<g id="edge2" class="edge">
<title>GO:0009793&#45;&gt;GO:0044702</title>
<path fill="none" stroke="#000000" d="M384.1126,-58.7679C384.1126,-87.1587 384.1126,-130.2404 384.1126,-161.5878"/>
<polygon fill="#000000" stroke="#000000" points="380.6127,-161.7306 384.1126,-171.7307 387.6127,-161.7307 380.6127,-161.7306"/>
</g>
<!-- GO:0003006 -->
<g id="node4" class="node">
<title>GO:0003006</title>
<polygon fill="#ffffff" stroke="#000000" points="158.5312,-230.6014 3.694,-230.6014 3.694,-171.7986 158.5312,-171.7986 158.5312,-230.6014"/>
<text text-anchor="middle" x="81.1126" y="-213.8" font-family="Times,serif" font-size="14.00" fill="#000000">GO:0003006</text>
<text text-anchor="middle" x="81.1126" y="-197" font-family="Times,serif" font-size="14.00" fill="#000000">developmental process</text>
<text text-anchor="middle" x="81.1126" y="-180.2" font-family="Times,serif" font-size="14.00" fill="#000000">involved in reproduction</text>
</g>
<!-- GO:0009793&#45;&gt;GO:0003006 -->
<g id="edge3" class="edge">
<title>GO:0009793&#45;&gt;GO:0003006</title>
<path fill="none" stroke="#000000" d="M295.9831,-42.8545C231.7378,-54.368 151.6501,-72.4597 126.1126,-94.4 106.1714,-111.5323 94.8633,-138.9987 88.5704,-161.7868"/>
<polygon fill="#000000" stroke="#000000" points="85.1608,-160.9939 86.0945,-171.5475 91.9459,-162.7151 85.1608,-160.9939"/>
</g>
<!-- GO:0007275 -->
<g id="node5" class="node">
<title>GO:0007275</title>
<polygon fill="#ffffff" stroke="#000000" points="611.7523,-230.6014 468.4729,-230.6014 468.4729,-171.7986 611.7523,-171.7986 611.7523,-230.6014"/>
<text text-anchor="middle" x="540.1126" y="-213.8" font-family="Times,serif" font-size="14.00" fill="#000000">GO:0007275</text>
<text text-anchor="middle" x="540.1126" y="-197" font-family="Times,serif" font-size="14.00" fill="#000000">multicellular organism</text>
<text text-anchor="middle" x="540.1126" y="-180.2" font-family="Times,serif" font-size="14.00" fill="#000000">development</text>
</g>
<!-- GO:0009790&#45;&gt;GO:0007275 -->
<g id="edge4" class="edge">
<title>GO:0009790&#45;&gt;GO:0007275</title>
<path fill="none" stroke="#000000" d="M516.6168,-136.0182C519.4592,-143.9036 522.7956,-153.1594 526.0471,-162.1797"/>
<polygon fill="#000000" stroke="#000000" points="522.8309,-163.5786 529.5146,-171.7991 529.4161,-161.2048 522.8309,-163.5786"/>
</g>
<!-- GO:0022414 -->
<g id="node6" class="node">
<title>GO:0022414</title>
<polygon fill="#ffffff" stroke="#000000" points="132.338,-316.2019 -.1128,-316.2019 -.1128,-274.9981 132.338,-274.9981 132.338,-316.2019"/>
<text text-anchor="middle" x="66.1126" y="-299.8" font-family="Times,serif" font-size="14.00" fill="#000000">GO:0022414</text>
<text text-anchor="middle" x="66.1126" y="-283" font-family="Times,serif" font-size="14.00" fill="#000000">reproductive process</text>
</g>
<!-- GO:0044702&#45;&gt;GO:0022414 -->
<g id="edge5" class="edge">
<title>GO:0044702&#45;&gt;GO:0022414</title>
<path fill="none" stroke="#000000" d="M317.5929,-227.5325C314.7366,-228.5257 311.901,-229.4861 309.1126,-230.4 293.0243,-235.6728 207.2939,-258.4733 142.177,-275.637"/>
<polygon fill="#000000" stroke="#000000" points="141.1024,-272.3006 132.3239,-278.2326 142.8856,-279.0697 141.1024,-272.3006"/>
</g>
<!-- GO:0044699 -->
<g id="node7" class="node">
<title>GO:0044699</title>
<polygon fill="#ffffff" stroke="#000000" points="541.7939,-410.6019 390.4313,-410.6019 390.4313,-369.3981 541.7939,-369.3981 541.7939,-410.6019"/>
<text text-anchor="middle" x="466.1126" y="-394.2" font-family="Times,serif" font-size="14.00" fill="#000000">GO:0044699</text>
<text text-anchor="middle" x="466.1126" y="-377.4" font-family="Times,serif" font-size="14.00" fill="#000000">single&#45;organism process</text>
</g>
<!-- GO:0044702&#45;&gt;GO:0044699 -->
<g id="edge6" class="edge">
<title>GO:0044702&#45;&gt;GO:0044699</title>
<path fill="none" stroke="#000000" d="M450.4795,-228.4438C465.8649,-238.0652 480.2998,-250.554 489.1126,-266.4 505.2693,-295.4508 494.0624,-333.6806 482.3314,-359.8865"/>
<polygon fill="#000000" stroke="#000000" points="479.1523,-358.4221 478.0355,-368.958 485.4788,-361.4182 479.1523,-358.4221"/>
</g>
<!-- GO:0003006&#45;&gt;GO:0022414 -->
<g id="edge8" class="edge">
<title>GO:0003006&#45;&gt;GO:0022414</title>
<path fill="none" stroke="#000000" d="M76.4487,-230.5513C74.7151,-241.4614 72.7444,-253.8637 70.9921,-264.892"/>
<polygon fill="#000000" stroke="#000000" points="67.5064,-264.5256 69.3937,-274.951 74.4197,-265.6242 67.5064,-264.5256"/>
</g>
<!-- GO:0032502 -->
<g id="node8" class="node">
<title>GO:0032502</title>
<polygon fill="#ffffff" stroke="#000000" points="348.0124,-410.6019 204.2128,-410.6019 204.2128,-369.3981 348.0124,-369.3981 348.0124,-410.6019"/>
<text text-anchor="middle" x="276.1126" y="-394.2" font-family="Times,serif" font-size="14.00" fill="#000000">GO:0032502</text>
<text text-anchor="middle" x="276.1126" y="-377.4" font-family="Times,serif" font-size="14.00" fill="#000000">developmental process</text>
</g>
<!-- GO:0003006&#45;&gt;GO:0032502 -->
<g id="edge7" class="edge">
<title>GO:0003006&#45;&gt;GO:0032502</title>
<path fill="none" stroke="#000000" d="M109.9826,-230.4671C120.2325,-241.3926 131.5821,-254.1296 141.1126,-266.4 160.1078,-290.8562 157.3802,-302.7404 179.1126,-324.8 193.7857,-339.694 212.3614,-353.161 229.321,-363.937"/>
<polygon fill="#000000" stroke="#000000" points="227.6687,-367.0305 238.0132,-369.3201 231.3543,-361.0793 227.6687,-367.0305"/>
</g>
<!-- GO:0044767 -->
<g id="node9" class="node">
<title>GO:0044767</title>
<polygon fill="#ffffff" stroke="#000000" points="480.0124,-325.0014 336.2128,-325.0014 336.2128,-266.1986 480.0124,-266.1986 480.0124,-325.0014"/>
<text text-anchor="middle" x="408.1126" y="-308.2" font-family="Times,serif" font-size="14.00" fill="#000000">GO:0044767</text>
<text text-anchor="middle" x="408.1126" y="-291.4" font-family="Times,serif" font-size="14.00" fill="#000000">single&#45;organism</text>
<text text-anchor="middle" x="408.1126" y="-274.6" font-family="Times,serif" font-size="14.00" fill="#000000">developmental process</text>
</g>
<!-- GO:0007275&#45;&gt;GO:0044767 -->
<g id="edge9" class="edge">
<title>GO:0007275&#45;&gt;GO:0044767</title>
<path fill="none" stroke="#000000" d="M499.0705,-230.5513C485.9091,-239.9637 471.1947,-250.4867 457.5008,-260.28"/>
<polygon fill="#000000" stroke="#000000" points="455.2273,-257.6029 449.1293,-266.2669 459.2993,-263.2967 455.2273,-257.6029"/>
</g>
<!-- GO:0048856 -->
<g id="node10" class="node">
<title>GO:0048856</title>
<polygon fill="#ffffff" stroke="#000000" points="318.0096,-325.0014 188.2156,-325.0014 188.2156,-266.1986 318.0096,-266.1986 318.0096,-325.0014"/>
<text text-anchor="middle" x="253.1126" y="-308.2" font-family="Times,serif" font-size="14.00" fill="#000000">GO:0048856</text>
<text text-anchor="middle" x="253.1126" y="-291.4" font-family="Times,serif" font-size="14.00" fill="#000000">anatomical structure</text>
<text text-anchor="middle" x="253.1126" y="-274.6" font-family="Times,serif" font-size="14.00" fill="#000000">development</text>
</g>
<!-- GO:0007275&#45;&gt;GO:0048856 -->
<g id="edge10" class="edge">
<title>GO:0007275&#45;&gt;GO:0048856</title>
<path fill="none" stroke="#000000" d="M468.2252,-227.4512C465.153,-228.4667 462.1058,-229.454 459.1126,-230.4 404.0747,-247.7951 386.5794,-247.3138 328.0911,-266.2086"/>
<polygon fill="#000000" stroke="#000000" points="326.7475,-262.9659 318.3401,-269.4132 328.933,-269.616 326.7475,-262.9659"/>
</g>
<!-- GO:0044707 -->
<g id="node11" class="node">
<title>GO:0044707</title>
<polygon fill="#ffffff" stroke="#000000" points="831.7527,-325.0014 706.4725,-325.0014 706.4725,-266.1986 831.7527,-266.1986 831.7527,-325.0014"/>
<text text-anchor="middle" x="769.1126" y="-308.2" font-family="Times,serif" font-size="14.00" fill="#000000">GO:0044707</text>
<text text-anchor="middle" x="769.1126" y="-291.4" font-family="Times,serif" font-size="14.00" fill="#000000">single&#45;multicellular</text>
<text text-anchor="middle" x="769.1126" y="-274.6" font-family="Times,serif" font-size="14.00" fill="#000000">organism process</text>
</g>
<!-- GO:0007275&#45;&gt;GO:0044707 -->
<g id="edge11" class="edge">
<title>GO:0007275&#45;&gt;GO:0044707</title>
<path fill="none" stroke="#000000" d="M611.0014,-230.4223C638.2621,-241.6599 669.4005,-254.496 696.7941,-265.7884"/>
<polygon fill="#000000" stroke="#000000" points="695.7357,-269.1377 706.3149,-269.7131 698.4036,-262.666 695.7357,-269.1377"/>
</g>
<!-- GO:0008150 -->
<g id="node12" class="node">
<title>GO:0008150</title>
<polygon fill="#ffffff" stroke="#000000" points="442.5832,-496.6019 321.642,-496.6019 321.642,-455.3981 442.5832,-455.3981 442.5832,-496.6019"/>
<text text-anchor="middle" x="382.1126" y="-480.2" font-family="Times,serif" font-size="14.00" fill="#000000">GO:0008150</text>
<text text-anchor="middle" x="382.1126" y="-463.4" font-family="Times,serif" font-size="14.00" fill="#000000">biological_process</text>
</g>
<!-- GO:0022414&#45;&gt;GO:0008150 -->
<g id="edge12" class="edge">
<title>GO:0022414&#45;&gt;GO:0008150</title>
<path fill="none" stroke="#000000" d="M82.6137,-316.6579C105.1852,-344.0935 148.2652,-391.7856 195.1126,-419.2 230.8474,-440.1115 275.0038,-453.993 311.4337,-462.7951"/>
<polygon fill="#000000" stroke="#000000" points="310.9564,-466.2778 321.4905,-465.1447 312.549,-459.4613 310.9564,-466.2778"/>
</g>
<!-- GO:0044699&#45;&gt;GO:0008150 -->
<g id="edge13" class="edge">
<title>GO:0044699&#45;&gt;GO:0008150</title>
<path fill="none" stroke="#000000" d="M445.7785,-410.8182C434.8416,-422.0156 421.2054,-435.9764 409.3619,-448.1019"/>
<polygon fill="#000000" stroke="#000000" points="406.743,-445.7741 402.2594,-455.3735 411.7507,-450.6653 406.743,-445.7741"/>
</g>
<!-- GO:0032502&#45;&gt;GO:0008150 -->
<g id="edge14" class="edge">
<title>GO:0032502&#45;&gt;GO:0008150</title>
<path fill="none" stroke="#000000" d="M301.7722,-410.8182C315.834,-422.2268 333.4317,-436.5042 348.5701,-448.7863"/>
<polygon fill="#000000" stroke="#000000" points="346.7185,-451.791 356.6893,-455.3735 351.1288,-446.3551 346.7185,-451.791"/>
</g>
<!-- GO:0044767&#45;&gt;GO:0044699 -->
<g id="edge16" class="edge">
<title>GO:0044767&#45;&gt;GO:0044699</title>
<path fill="none" stroke="#000000" d="M426.1462,-324.9513C433.1259,-336.3113 441.0995,-349.2891 448.0792,-360.6491"/>
<polygon fill="#000000" stroke="#000000" points="445.2086,-362.6629 453.4257,-369.351 451.1728,-358.9984 445.2086,-362.6629"/>
</g>
<!-- GO:0044767&#45;&gt;GO:0032502 -->
<g id="edge15" class="edge">
<title>GO:0044767&#45;&gt;GO:0032502</title>
<path fill="none" stroke="#000000" d="M367.0705,-324.9513C349.9275,-337.2112 330.1499,-351.3551 313.4243,-363.3165"/>
<polygon fill="#000000" stroke="#000000" points="311.0843,-360.687 304.9862,-369.351 315.1562,-366.3808 311.0843,-360.687"/>
</g>
<!-- GO:0048856&#45;&gt;GO:0032502 -->
<g id="edge17" class="edge">
<title>GO:0048856&#45;&gt;GO:0032502</title>
<path fill="none" stroke="#000000" d="M260.2639,-324.9513C262.9495,-335.9739 266.0061,-348.5196 268.7138,-359.6326"/>
<polygon fill="#000000" stroke="#000000" points="265.3138,-360.4637 271.0816,-369.351 272.1148,-358.8067 265.3138,-360.4637"/>
</g>
<!-- GO:0044707&#45;&gt;GO:0044699 -->
<g id="edge19" class="edge">
<title>GO:0044707&#45;&gt;GO:0044699</title>
<path fill="none" stroke="#000000" d="M706.0859,-321.7574C703.0659,-322.8226 700.0638,-323.8432 697.1126,-324.8 633.538,-345.4117 615.2241,-341.9246 551.1126,-360.8 545.4551,-362.4657 539.6153,-364.276 533.7703,-366.152"/>
<polygon fill="#000000" stroke="#000000" points="532.3787,-362.9245 523.9601,-369.3571 534.5527,-369.5784 532.3787,-362.9245"/>
</g>
<!-- GO:0032501 -->
<g id="node13" class="node">
<title>GO:0032501</title>
<polygon fill="#ffffff" stroke="#000000" points="845.8576,-419.4014 692.3676,-419.4014 692.3676,-360.5986 845.8576,-360.5986 845.8576,-419.4014"/>
<text text-anchor="middle" x="769.1126" y="-402.6" font-family="Times,serif" font-size="14.00" fill="#000000">GO:0032501</text>
<text text-anchor="middle" x="769.1126" y="-385.8" font-family="Times,serif" font-size="14.00" fill="#000000">multicellular organismal</text>
<text text-anchor="middle" x="769.1126" y="-369" font-family="Times,serif" font-size="14.00" fill="#000000">process</text>
</g>
<!-- GO:0044707&#45;&gt;GO:0032501 -->
<g id="edge18" class="edge">
<title>GO:0044707&#45;&gt;GO:0032501</title>
<path fill="none" stroke="#000000" d="M769.1126,-324.9513C769.1126,-333.0318 769.1126,-341.9308 769.1126,-350.4838"/>
<polygon fill="#000000" stroke="#000000" points="765.6127,-350.6668 769.1126,-360.6669 772.6127,-350.6669 765.6127,-350.6668"/>
</g>
<!-- GO:0009960 -->
<g id="node14" class="node">
<title>GO:0009960</title>
<polygon fill="#ff0000" stroke="#000000" points="288.8534,-135.8019 135.3718,-135.8019 135.3718,-94.5981 288.8534,-94.5981 288.8534,-135.8019"/>
<text text-anchor="middle" x="212.1126" y="-119.4" font-family="Times,serif" font-size="14.00" fill="#000000">GO:0009960</text>
<text text-anchor="middle" x="212.1126" y="-102.6" font-family="Times,serif" font-size="14.00" fill="#000000">endosperm development</text>
</g>
<!-- GO:0009960&#45;&gt;GO:0003006 -->
<g id="edge20" class="edge">
<title>GO:0009960&#45;&gt;GO:0003006</title>
<path fill="none" stroke="#000000" d="M180.4012,-136.0182C166.6008,-145.078 150.0447,-155.9469 134.4433,-166.189"/>
<polygon fill="#000000" stroke="#000000" points="132.3364,-163.3853 125.8976,-171.7991 136.178,-169.237 132.3364,-163.3853"/>
</g>
<!-- GO:0009888 -->
<g id="node15" class="node">
<title>GO:0009888</title>
<polygon fill="#ffffff" stroke="#000000" points="299.8136,-221.8019 176.4116,-221.8019 176.4116,-180.5981 299.8136,-180.5981 299.8136,-221.8019"/>
<text text-anchor="middle" x="238.1126" y="-205.4" font-family="Times,serif" font-size="14.00" fill="#000000">GO:0009888</text>
<text text-anchor="middle" x="238.1126" y="-188.6" font-family="Times,serif" font-size="14.00" fill="#000000">tissue development</text>
</g>
<!-- GO:0009960&#45;&gt;GO:0009888 -->
<g id="edge21" class="edge">
<title>GO:0009960&#45;&gt;GO:0009888</title>
<path fill="none" stroke="#000000" d="M218.4065,-136.0182C221.5682,-146.4761 225.4586,-159.3446 228.9452,-170.877"/>
<polygon fill="#000000" stroke="#000000" points="225.6325,-172.0143 231.8767,-180.5735 232.333,-169.9885 225.6325,-172.0143"/>
</g>
<!-- GO:0009888&#45;&gt;GO:0048856 -->
<g id="edge22" class="edge">
<title>GO:0009888&#45;&gt;GO:0048856</title>
<path fill="none" stroke="#000000" d="M241.4416,-222.1504C243.0304,-232.1492 244.9853,-244.4525 246.8378,-256.1106"/>
<polygon fill="#000000" stroke="#000000" points="243.4016,-256.7887 248.4276,-266.1155 250.3148,-255.6901 243.4016,-256.7887"/>
</g>
<!-- GO:0009987 -->
<g id="node16" class="node">
<title>GO:0009987</title>
<polygon fill="#00ff00" stroke="#000000" points="664.0688,-410.6019 560.1564,-410.6019 560.1564,-369.3981 664.0688,-369.3981 664.0688,-410.6019"/>
<text text-anchor="middle" x="612.1126" y="-394.2" font-family="Times,serif" font-size="14.00" fill="#000000">GO:0009987</text>
<text text-anchor="middle" x="612.1126" y="-377.4" font-family="Times,serif" font-size="14.00" fill="#000000">cellular process</text>
</g>
<!-- GO:0009987&#45;&gt;GO:0008150 -->
<g id="edge23" class="edge">
<title>GO:0009987&#45;&gt;GO:0008150</title>
<path fill="none" stroke="#000000" d="M570.7434,-410.6362C564.2323,-413.6416 557.5319,-416.5962 551.1126,-419.2 519.1481,-432.1655 482.9879,-444.6063 452.342,-454.5223"/>
<polygon fill="#000000" stroke="#000000" points="451.0495,-451.2612 442.598,-457.6505 453.1893,-457.9262 451.0495,-451.2612"/>
</g>
<!-- GO:0044763 -->
<g id="node17" class="node">
<title>GO:0044763</title>
<polygon fill="#00ffff" stroke="#000000" points="687.7911,-325.0014 536.4341,-325.0014 536.4341,-266.1986 687.7911,-266.1986 687.7911,-325.0014"/>
<text text-anchor="middle" x="612.1126" y="-308.2" font-family="Times,serif" font-size="14.00" fill="#000000">GO:0044763</text>
<text text-anchor="middle" x="612.1126" y="-291.4" font-family="Times,serif" font-size="14.00" fill="#000000">single&#45;organism cellular</text>
<text text-anchor="middle" x="612.1126" y="-274.6" font-family="Times,serif" font-size="14.00" fill="#000000">process</text>
</g>
<!-- GO:0044763&#45;&gt;GO:0044699 -->
<g id="edge25" class="edge">
<title>GO:0044763&#45;&gt;GO:0044699</title>
<path fill="none" stroke="#000000" d="M566.7176,-324.9513C547.4954,-337.3799 525.2785,-351.7448 506.6198,-363.809"/>
<polygon fill="#000000" stroke="#000000" points="504.5458,-360.9821 498.0486,-369.351 508.3465,-366.8604 504.5458,-360.9821"/>
</g>
<!-- GO:0044763&#45;&gt;GO:0009987 -->
<g id="edge24" class="edge">
<title>GO:0044763&#45;&gt;GO:0009987</title>
<path fill="none" stroke="#000000" d="M612.1126,-324.9513C612.1126,-335.8614 612.1126,-348.2637 612.1126,-359.292"/>
<polygon fill="#000000" stroke="#000000" points="608.6127,-359.3509 612.1126,-369.351 615.6127,-359.351 608.6127,-359.3509"/>
</g>
</g>
</svg>
