<?xml version="1.0" encoding="UTF-8" standalone="no"?>
<!DOCTYPE svg PUBLIC "-//W3C//DTD SVG 1.1//EN"
 "http://www.w3.org/Graphics/SVG/1.1/DTD/svg11.dtd">
<!-- Generated by graphviz version 2.40.1 (20161225.0304)
 -->
<!-- Title: G Pages: 1 -->
<svg width="330pt" height="222pt"
 viewBox="0.00 0.00 330.26 221.60" xmlns="http://www.w3.org/2000/svg" xmlns:xlink="http://www.w3.org/1999/xlink">
<g id="graph0" class="graph" transform="scale(1 1) rotate(0) translate(4 217.6)">
<title>G</title>
<polygon fill="#ffffff" stroke="transparent" points="-4,4 -4,-217.6 326.2606,-217.6 326.2606,4 -4,4"/>
<!-- GO:0097159 -->
<g id="node1" class="node">
<title>GO:0097159</title>
<polygon fill="#ffffff" stroke="#000000" points="157.2667,-58.6014 .2439,-58.6014 .2439,.2014 157.2667,.2014 157.2667,-58.6014"/>
<text text-anchor="middle" x="78.7553" y="-41.8" font-family="Times,serif" font-size="14.00" fill="#000000">GO:0097159</text>
<text text-anchor="middle" x="78.7553" y="-25" font-family="Times,serif" font-size="14.00" fill="#000000">organic cyclic compound</text>
<text text-anchor="middle" x="78.7553" y="-8.2" font-family="Times,serif" font-size="14.00" fill="#000000">binding</text>
</g>
<!-- GO:0005488 -->
<g id="node2" class="node">
<title>GO:0005488</title>
<polygon fill="#ffffff" stroke="#000000" points="208.3592,-135.8019 119.1514,-135.8019 119.1514,-94.5981 208.3592,-94.5981 208.3592,-135.8019"/>
<text text-anchor="middle" x="163.7553" y="-119.4" font-family="Times,serif" font-size="14.00" fill="#000000">GO:0005488</text>
<text text-anchor="middle" x="163.7553" y="-102.6" font-family="Times,serif" font-size="14.00" fill="#000000">binding</text>
</g>
<!-- GO:0097159&#45;&gt;GO:0005488 -->
<g id="edge1" class="edge">
<title>GO:0097159&#45;&gt;GO:0005488</title>
<path fill="none" stroke="#000000" d="M108.0075,-58.7963C117.0867,-67.9824 127.0622,-78.0752 136.034,-87.1526"/>
<polygon fill="#000000" stroke="#000000" points="133.7736,-89.8446 143.2926,-94.4966 138.7523,-84.9239 133.7736,-89.8446"/>
</g>
<!-- GO:0003674 -->
<g id="node3" class="node">
<title>GO:0003674</title>
<polygon fill="#ffffff" stroke="#000000" points="226.3884,-213.4019 101.1222,-213.4019 101.1222,-172.1981 226.3884,-172.1981 226.3884,-213.4019"/>
<text text-anchor="middle" x="163.7553" y="-197" font-family="Times,serif" font-size="14.00" fill="#000000">GO:0003674</text>
<text text-anchor="middle" x="163.7553" y="-180.2" font-family="Times,serif" font-size="14.00" fill="#000000">molecular_function</text>
</g>
<!-- GO:0005488&#45;&gt;GO:0003674 -->
<g id="edge2" class="edge">
<title>GO:0005488&#45;&gt;GO:0003674</title>
<path fill="none" stroke="#000000" d="M163.7553,-135.9954C163.7553,-143.9109 163.7553,-153.1109 163.7553,-161.7722"/>
<polygon fill="#000000" stroke="#000000" points="160.2554,-161.9472 163.7553,-171.9472 167.2554,-161.9473 160.2554,-161.9472"/>
</g>
<!-- GO:1901363 -->
<g id="node4" class="node">
<title>GO:1901363</title>
<polygon fill="#ffffff" stroke="#000000" points="322.2659,-58.6014 175.2447,-58.6014 175.2447,.2014 322.2659,.2014 322.2659,-58.6014"/>
<text text-anchor="middle" x="248.7553" y="-41.8" font-family="Times,serif" font-size="14.00" fill="#000000">GO:1901363</text>
<text text-anchor="middle" x="248.7553" y="-25" font-family="Times,serif" font-size="14.00" fill="#000000">heterocyclic compound</text>
<text text-anchor="middle" x="248.7553" y="-8.2" font-family="Times,serif" font-size="14.00" fill="#000000">binding</text>
</g>
<!-- GO:1901363&#45;&gt;GO:0005488 -->
<g id="edge3" class="edge">
<title>GO:1901363&#45;&gt;GO:0005488</title>
<path fill="none" stroke="#000000" d="M219.5031,-58.7963C210.4239,-67.9824 200.4484,-78.0752 191.4766,-87.1526"/>
<polygon fill="#000000" stroke="#000000" points="188.7583,-84.9239 184.218,-94.4966 193.737,-89.8446 188.7583,-84.9239"/>
</g>
</g>
</svg>
