<?xml version="1.0" encoding="UTF-8" standalone="no"?>
<!DOCTYPE svg PUBLIC "-//W3C//DTD SVG 1.1//EN"
 "http://www.w3.org/Graphics/SVG/1.1/DTD/svg11.dtd">
<!-- Generated by graphviz version 2.40.1 (20161225.0304)
 -->
<!-- Title: G Pages: 1 -->
<svg width="451pt" height="394pt"
 viewBox="0.00 0.00 450.59 393.60" xmlns="http://www.w3.org/2000/svg" xmlns:xlink="http://www.w3.org/1999/xlink">
<g id="graph0" class="graph" transform="scale(1 1) rotate(0) translate(4 389.6)">
<title>G</title>
<polygon fill="#ffffff" stroke="transparent" points="-4,4 -4,-389.6 446.5895,-389.6 446.5895,4 -4,4"/>
<!-- GO:0005634 -->
<g id="node1" class="node">
<title>GO:0005634</title>
<polygon fill="#ff0000" stroke="#000000" points="347.213,-41.4019 258.0052,-41.4019 258.0052,-.1981 347.213,-.1981 347.213,-41.4019"/>
<text text-anchor="middle" x="302.6091" y="-25" font-family="Times,serif" font-size="14.00" fill="#000000">GO:0005634</text>
<text text-anchor="middle" x="302.6091" y="-8.2" font-family="Times,serif" font-size="14.00" fill="#000000">nucleus</text>
</g>
<!-- GO:0043231 -->
<g id="node2" class="node">
<title>GO:0043231</title>
<polygon fill="#ffffff" stroke="#000000" points="377.9879,-136.2014 227.2303,-136.2014 227.2303,-77.3986 377.9879,-77.3986 377.9879,-136.2014"/>
<text text-anchor="middle" x="302.6091" y="-119.4" font-family="Times,serif" font-size="14.00" fill="#000000">GO:0043231</text>
<text text-anchor="middle" x="302.6091" y="-102.6" font-family="Times,serif" font-size="14.00" fill="#000000">intracellular membrane&#45;</text>
<text text-anchor="middle" x="302.6091" y="-85.8" font-family="Times,serif" font-size="14.00" fill="#000000">bounded organelle</text>
</g>
<!-- GO:0005634&#45;&gt;GO:0043231 -->
<g id="edge1" class="edge">
<title>GO:0005634&#45;&gt;GO:0043231</title>
<path fill="none" stroke="#000000" d="M302.6091,-41.6182C302.6091,-49.3358 302.6091,-58.3662 302.6091,-67.2036"/>
<polygon fill="#000000" stroke="#000000" points="299.1092,-67.3991 302.6091,-77.3991 306.1092,-67.3992 299.1092,-67.3991"/>
</g>
<!-- GO:0043229 -->
<g id="node3" class="node">
<title>GO:0043229</title>
<polygon fill="#ffffff" stroke="#000000" points="296.3275,-221.8019 156.8907,-221.8019 156.8907,-180.5981 296.3275,-180.5981 296.3275,-221.8019"/>
<text text-anchor="middle" x="226.6091" y="-205.4" font-family="Times,serif" font-size="14.00" fill="#000000">GO:0043229</text>
<text text-anchor="middle" x="226.6091" y="-188.6" font-family="Times,serif" font-size="14.00" fill="#000000">intracellular organelle</text>
</g>
<!-- GO:0043231&#45;&gt;GO:0043229 -->
<g id="edge2" class="edge">
<title>GO:0043231&#45;&gt;GO:0043229</title>
<path fill="none" stroke="#000000" d="M278.9788,-136.1513C269.6519,-147.7363 258.9705,-161.0037 249.6973,-172.522"/>
<polygon fill="#000000" stroke="#000000" points="246.7781,-170.5667 243.2333,-180.551 252.2307,-174.9565 246.7781,-170.5667"/>
</g>
<!-- GO:0043227 -->
<g id="node4" class="node">
<title>GO:0043227</title>
<polygon fill="#ffffff" stroke="#000000" points="442.5699,-230.6014 314.6483,-230.6014 314.6483,-171.7986 442.5699,-171.7986 442.5699,-230.6014"/>
<text text-anchor="middle" x="378.6091" y="-213.8" font-family="Times,serif" font-size="14.00" fill="#000000">GO:0043227</text>
<text text-anchor="middle" x="378.6091" y="-197" font-family="Times,serif" font-size="14.00" fill="#000000">membrane&#45;bounded</text>
<text text-anchor="middle" x="378.6091" y="-180.2" font-family="Times,serif" font-size="14.00" fill="#000000">organelle</text>
</g>
<!-- GO:0043231&#45;&gt;GO:0043227 -->
<g id="edge3" class="edge">
<title>GO:0043231&#45;&gt;GO:0043227</title>
<path fill="none" stroke="#000000" d="M326.2394,-136.1513C333.3168,-144.9422 341.1741,-154.7018 348.6042,-163.9308"/>
<polygon fill="#000000" stroke="#000000" points="345.9961,-166.2724 354.9934,-171.8669 351.4486,-161.8826 345.9961,-166.2724"/>
</g>
<!-- GO:0044424 -->
<g id="node5" class="node">
<title>GO:0044424</title>
<polygon fill="#ffffff" stroke="#000000" points="246.0075,-307.8019 137.2107,-307.8019 137.2107,-266.5981 246.0075,-266.5981 246.0075,-307.8019"/>
<text text-anchor="middle" x="191.6091" y="-291.4" font-family="Times,serif" font-size="14.00" fill="#000000">GO:0044424</text>
<text text-anchor="middle" x="191.6091" y="-274.6" font-family="Times,serif" font-size="14.00" fill="#000000">intracellular part</text>
</g>
<!-- GO:0043229&#45;&gt;GO:0044424 -->
<g id="edge4" class="edge">
<title>GO:0043229&#45;&gt;GO:0044424</title>
<path fill="none" stroke="#000000" d="M218.1366,-222.0182C213.8375,-232.5818 208.5374,-245.6048 203.8078,-257.2261"/>
<polygon fill="#000000" stroke="#000000" points="200.5314,-255.9918 200.0036,-266.5735 207.015,-258.6306 200.5314,-255.9918"/>
</g>
<!-- GO:0043226 -->
<g id="node6" class="node">
<title>GO:0043226</title>
<polygon fill="#ffffff" stroke="#000000" points="353.213,-307.8019 264.0052,-307.8019 264.0052,-266.5981 353.213,-266.5981 353.213,-307.8019"/>
<text text-anchor="middle" x="308.6091" y="-291.4" font-family="Times,serif" font-size="14.00" fill="#000000">GO:0043226</text>
<text text-anchor="middle" x="308.6091" y="-274.6" font-family="Times,serif" font-size="14.00" fill="#000000">organelle</text>
</g>
<!-- GO:0043229&#45;&gt;GO:0043226 -->
<g id="edge5" class="edge">
<title>GO:0043229&#45;&gt;GO:0043226</title>
<path fill="none" stroke="#000000" d="M246.459,-222.0182C257.1356,-233.2156 270.4471,-247.1764 282.0086,-259.3019"/>
<polygon fill="#000000" stroke="#000000" points="279.5081,-261.7514 288.942,-266.5735 284.5743,-256.9208 279.5081,-261.7514"/>
</g>
<!-- GO:0043227&#45;&gt;GO:0043226 -->
<g id="edge6" class="edge">
<title>GO:0043227&#45;&gt;GO:0043226</title>
<path fill="none" stroke="#000000" d="M354.5191,-230.7963C347.1916,-239.7986 339.1553,-249.6719 331.8827,-258.6067"/>
<polygon fill="#000000" stroke="#000000" points="329.059,-256.5314 325.4607,-266.4966 334.488,-260.9504 329.059,-256.5314"/>
</g>
<!-- GO:0044464 -->
<g id="node7" class="node">
<title>GO:0044464</title>
<polygon fill="#ffffff" stroke="#000000" points="240.213,-385.4019 151.0052,-385.4019 151.0052,-344.1981 240.213,-344.1981 240.213,-385.4019"/>
<text text-anchor="middle" x="195.6091" y="-369" font-family="Times,serif" font-size="14.00" fill="#000000">GO:0044464</text>
<text text-anchor="middle" x="195.6091" y="-352.2" font-family="Times,serif" font-size="14.00" fill="#000000">cell part</text>
</g>
<!-- GO:0044424&#45;&gt;GO:0044464 -->
<g id="edge7" class="edge">
<title>GO:0044424&#45;&gt;GO:0044464</title>
<path fill="none" stroke="#000000" d="M192.681,-307.9954C193.089,-315.9109 193.5633,-325.1109 194.0097,-333.7722"/>
<polygon fill="#000000" stroke="#000000" points="190.524,-334.1407 194.5342,-343.9472 197.5147,-333.7803 190.524,-334.1407"/>
</g>
<!-- GO:0005575 -->
<g id="node8" class="node">
<title>GO:0005575</title>
<polygon fill="#ffffff" stroke="#000000" points="133.2958,-385.4019 5.9224,-385.4019 5.9224,-344.1981 133.2958,-344.1981 133.2958,-385.4019"/>
<text text-anchor="middle" x="69.6091" y="-369" font-family="Times,serif" font-size="14.00" fill="#000000">GO:0005575</text>
<text text-anchor="middle" x="69.6091" y="-352.2" font-family="Times,serif" font-size="14.00" fill="#000000">cellular_component</text>
</g>
<!-- GO:0043226&#45;&gt;GO:0005575 -->
<g id="edge8" class="edge">
<title>GO:0043226&#45;&gt;GO:0005575</title>
<path fill="none" stroke="#000000" d="M263.9084,-304.6941C260.7702,-305.8371 257.6476,-306.9498 254.6091,-308 218.1931,-320.5866 177.2786,-333.2948 143.2038,-343.4898"/>
<polygon fill="#000000" stroke="#000000" points="141.9084,-340.2236 133.3238,-346.4329 143.9068,-346.9323 141.9084,-340.2236"/>
</g>
<!-- GO:0044446 -->
<g id="node9" class="node">
<title>GO:0044446</title>
<polygon fill="#00ffff" stroke="#000000" points="139.3275,-230.6014 -.1093,-230.6014 -.1093,-171.7986 139.3275,-171.7986 139.3275,-230.6014"/>
<text text-anchor="middle" x="69.6091" y="-213.8" font-family="Times,serif" font-size="14.00" fill="#000000">GO:0044446</text>
<text text-anchor="middle" x="69.6091" y="-197" font-family="Times,serif" font-size="14.00" fill="#000000">intracellular organelle</text>
<text text-anchor="middle" x="69.6091" y="-180.2" font-family="Times,serif" font-size="14.00" fill="#000000">part</text>
</g>
<!-- GO:0044446&#45;&gt;GO:0044424 -->
<g id="edge9" class="edge">
<title>GO:0044446&#45;&gt;GO:0044424</title>
<path fill="none" stroke="#000000" d="M111.2534,-230.5558C124.9565,-240.2154 140.1136,-250.8999 153.537,-260.3623"/>
<polygon fill="#000000" stroke="#000000" points="151.8851,-263.48 162.0751,-266.3809 155.9182,-257.7586 151.8851,-263.48"/>
</g>
<!-- GO:0044422 -->
<g id="node10" class="node">
<title>GO:0044422</title>
<polygon fill="#ffffff" stroke="#000000" points="116.4612,-307.8019 22.757,-307.8019 22.757,-266.5981 116.4612,-266.5981 116.4612,-307.8019"/>
<text text-anchor="middle" x="69.6091" y="-291.4" font-family="Times,serif" font-size="14.00" fill="#000000">GO:0044422</text>
<text text-anchor="middle" x="69.6091" y="-274.6" font-family="Times,serif" font-size="14.00" fill="#000000">organelle part</text>
</g>
<!-- GO:0044446&#45;&gt;GO:0044422 -->
<g id="edge10" class="edge">
<title>GO:0044446&#45;&gt;GO:0044422</title>
<path fill="none" stroke="#000000" d="M69.6091,-230.7963C69.6091,-239.0638 69.6091,-248.0657 69.6091,-256.4008"/>
<polygon fill="#000000" stroke="#000000" points="66.1092,-256.4965 69.6091,-266.4966 73.1092,-256.4966 66.1092,-256.4965"/>
</g>
<!-- GO:0044422&#45;&gt;GO:0005575 -->
<g id="edge11" class="edge">
<title>GO:0044422&#45;&gt;GO:0005575</title>
<path fill="none" stroke="#000000" d="M69.6091,-307.9954C69.6091,-315.9109 69.6091,-325.1109 69.6091,-333.7722"/>
<polygon fill="#000000" stroke="#000000" points="66.1092,-333.9472 69.6091,-343.9472 73.1092,-333.9473 66.1092,-333.9472"/>
</g>
</g>
</svg>
