<?xml version="1.0" encoding="UTF-8" standalone="no"?>
<!DOCTYPE svg PUBLIC "-//W3C//DTD SVG 1.1//EN"
 "http://www.w3.org/Graphics/SVG/1.1/DTD/svg11.dtd">
<!-- Generated by graphviz version 2.40.1 (20161225.0304)
 -->
<!-- Title: G Pages: 1 -->
<svg width="998pt" height="488pt"
 viewBox="0.00 0.00 998.50 488.00" xmlns="http://www.w3.org/2000/svg" xmlns:xlink="http://www.w3.org/1999/xlink">
<g id="graph0" class="graph" transform="scale(1 1) rotate(0) translate(4 484)">
<title>G</title>
<polygon fill="#ffffff" stroke="transparent" points="-4,4 -4,-484 994.4987,-484 994.4987,4 -4,4"/>
<!-- GO:0043229 -->
<g id="node1" class="node">
<title>GO:0043229</title>
<polygon fill="#ff0000" stroke="#000000" points="306.8836,-238.6019 167.4468,-238.6019 167.4468,-197.3981 306.8836,-197.3981 306.8836,-238.6019"/>
<text text-anchor="middle" x="237.1652" y="-222.2" font-family="Times,serif" font-size="14.00" fill="#000000">GO:0043229</text>
<text text-anchor="middle" x="237.1652" y="-205.4" font-family="Times,serif" font-size="14.00" fill="#000000">intracellular organelle</text>
</g>
<!-- GO:0044424 -->
<g id="node2" class="node">
<title>GO:0044424</title>
<polygon fill="#ffffff" stroke="#000000" points="605.5636,-324.6019 496.7668,-324.6019 496.7668,-283.3981 605.5636,-283.3981 605.5636,-324.6019"/>
<text text-anchor="middle" x="551.1652" y="-308.2" font-family="Times,serif" font-size="14.00" fill="#000000">GO:0044424</text>
<text text-anchor="middle" x="551.1652" y="-291.4" font-family="Times,serif" font-size="14.00" fill="#000000">intracellular part</text>
</g>
<!-- GO:0043229&#45;&gt;GO:0044424 -->
<g id="edge1" class="edge">
<title>GO:0043229&#45;&gt;GO:0044424</title>
<path fill="none" stroke="#000000" d="M289.7319,-238.6721C298.1783,-241.7057 306.8699,-244.6594 315.1652,-247.2 372.534,-264.7702 439.0862,-280.3653 486.8632,-290.7478"/>
<polygon fill="#000000" stroke="#000000" points="486.25,-294.196 496.7632,-292.8831 487.7259,-287.3533 486.25,-294.196"/>
</g>
<!-- GO:0043226 -->
<g id="node3" class="node">
<title>GO:0043226</title>
<polygon fill="#ffffff" stroke="#000000" points="363.7691,-324.6019 274.5613,-324.6019 274.5613,-283.3981 363.7691,-283.3981 363.7691,-324.6019"/>
<text text-anchor="middle" x="319.1652" y="-308.2" font-family="Times,serif" font-size="14.00" fill="#000000">GO:0043226</text>
<text text-anchor="middle" x="319.1652" y="-291.4" font-family="Times,serif" font-size="14.00" fill="#000000">organelle</text>
</g>
<!-- GO:0043229&#45;&gt;GO:0043226 -->
<g id="edge2" class="edge">
<title>GO:0043229&#45;&gt;GO:0043226</title>
<path fill="none" stroke="#000000" d="M257.0151,-238.8182C267.6917,-250.0156 281.0032,-263.9764 292.5647,-276.1019"/>
<polygon fill="#000000" stroke="#000000" points="290.0642,-278.5514 299.4981,-283.3735 295.1304,-273.7208 290.0642,-278.5514"/>
</g>
<!-- GO:0044464 -->
<g id="node4" class="node">
<title>GO:0044464</title>
<polygon fill="#ffffff" stroke="#000000" points="595.7691,-402.2019 506.5613,-402.2019 506.5613,-360.9981 595.7691,-360.9981 595.7691,-402.2019"/>
<text text-anchor="middle" x="551.1652" y="-385.8" font-family="Times,serif" font-size="14.00" fill="#000000">GO:0044464</text>
<text text-anchor="middle" x="551.1652" y="-369" font-family="Times,serif" font-size="14.00" fill="#000000">cell part</text>
</g>
<!-- GO:0044424&#45;&gt;GO:0044464 -->
<g id="edge3" class="edge">
<title>GO:0044424&#45;&gt;GO:0044464</title>
<path fill="none" stroke="#000000" d="M551.1652,-324.7954C551.1652,-332.7109 551.1652,-341.9109 551.1652,-350.5722"/>
<polygon fill="#000000" stroke="#000000" points="547.6653,-350.7472 551.1652,-360.7472 554.6653,-350.7473 547.6653,-350.7472"/>
</g>
<!-- GO:0005575 -->
<g id="node5" class="node">
<title>GO:0005575</title>
<polygon fill="#ffffff" stroke="#000000" points="721.8519,-479.8019 594.4785,-479.8019 594.4785,-438.5981 721.8519,-438.5981 721.8519,-479.8019"/>
<text text-anchor="middle" x="658.1652" y="-463.4" font-family="Times,serif" font-size="14.00" fill="#000000">GO:0005575</text>
<text text-anchor="middle" x="658.1652" y="-446.6" font-family="Times,serif" font-size="14.00" fill="#000000">cellular_component</text>
</g>
<!-- GO:0043226&#45;&gt;GO:0005575 -->
<g id="edge4" class="edge">
<title>GO:0043226&#45;&gt;GO:0005575</title>
<path fill="none" stroke="#000000" d="M352.7574,-324.7762C387.9176,-345.9912 445.1436,-379.0387 497.1652,-402.4 525.222,-414.9995 556.9857,-426.7169 584.8416,-436.1974"/>
<polygon fill="#000000" stroke="#000000" points="583.925,-439.5818 594.5191,-439.4552 586.1584,-432.9476 583.925,-439.5818"/>
</g>
<!-- GO:0044464&#45;&gt;GO:0005575 -->
<g id="edge7" class="edge">
<title>GO:0044464&#45;&gt;GO:0005575</title>
<path fill="none" stroke="#000000" d="M579.8392,-402.3954C592.5527,-411.6156 607.6695,-422.5788 621.2159,-432.4031"/>
<polygon fill="#000000" stroke="#000000" points="619.262,-435.3096 629.412,-438.3472 623.3716,-429.6429 619.262,-435.3096"/>
</g>
<!-- GO:0043227 -->
<g id="node6" class="node">
<title>GO:0043227</title>
<polygon fill="#ffff00" stroke="#000000" points="149.126,-247.4014 21.2044,-247.4014 21.2044,-188.5986 149.126,-188.5986 149.126,-247.4014"/>
<text text-anchor="middle" x="85.1652" y="-230.6" font-family="Times,serif" font-size="14.00" fill="#000000">GO:0043227</text>
<text text-anchor="middle" x="85.1652" y="-213.8" font-family="Times,serif" font-size="14.00" fill="#000000">membrane&#45;bounded</text>
<text text-anchor="middle" x="85.1652" y="-197" font-family="Times,serif" font-size="14.00" fill="#000000">organelle</text>
</g>
<!-- GO:0043227&#45;&gt;GO:0043226 -->
<g id="edge5" class="edge">
<title>GO:0043227&#45;&gt;GO:0043226</title>
<path fill="none" stroke="#000000" d="M149.2009,-243.788C152.2271,-244.952 155.2268,-246.0945 158.1652,-247.2 193.4609,-260.4788 233.4406,-274.5884 264.7303,-285.4231"/>
<polygon fill="#000000" stroke="#000000" points="263.9723,-288.8641 274.567,-288.8205 266.2576,-282.2476 263.9723,-288.8641"/>
</g>
<!-- GO:0005737 -->
<g id="node7" class="node">
<title>GO:0005737</title>
<polygon fill="#ff0000" stroke="#000000" points="584.7691,-238.6019 495.5613,-238.6019 495.5613,-197.3981 584.7691,-197.3981 584.7691,-238.6019"/>
<text text-anchor="middle" x="540.1652" y="-222.2" font-family="Times,serif" font-size="14.00" fill="#000000">GO:0005737</text>
<text text-anchor="middle" x="540.1652" y="-205.4" font-family="Times,serif" font-size="14.00" fill="#000000">cytoplasm</text>
</g>
<!-- GO:0005737&#45;&gt;GO:0044424 -->
<g id="edge6" class="edge">
<title>GO:0005737&#45;&gt;GO:0044424</title>
<path fill="none" stroke="#000000" d="M542.828,-238.8182C544.1521,-249.1705 545.7784,-261.8848 547.2419,-273.3271"/>
<polygon fill="#000000" stroke="#000000" points="543.7864,-273.8984 548.5269,-283.3735 550.7298,-273.0102 543.7864,-273.8984"/>
</g>
<!-- GO:0016020 -->
<g id="node8" class="node">
<title>GO:0016020</title>
<polygon fill="#ffff00" stroke="#000000" points="702.7691,-402.2019 613.5613,-402.2019 613.5613,-360.9981 702.7691,-360.9981 702.7691,-402.2019"/>
<text text-anchor="middle" x="658.1652" y="-385.8" font-family="Times,serif" font-size="14.00" fill="#000000">GO:0016020</text>
<text text-anchor="middle" x="658.1652" y="-369" font-family="Times,serif" font-size="14.00" fill="#000000">membrane</text>
</g>
<!-- GO:0016020&#45;&gt;GO:0005575 -->
<g id="edge8" class="edge">
<title>GO:0016020&#45;&gt;GO:0005575</title>
<path fill="none" stroke="#000000" d="M658.1652,-402.3954C658.1652,-410.3109 658.1652,-419.5109 658.1652,-428.1722"/>
<polygon fill="#000000" stroke="#000000" points="654.6653,-428.3472 658.1652,-438.3472 661.6653,-428.3473 654.6653,-428.3472"/>
</g>
<!-- GO:0031988 -->
<g id="node9" class="node">
<title>GO:0031988</title>
<polygon fill="#00ffff" stroke="#000000" points="170.4959,-41.4019 -.1655,-41.4019 -.1655,-.1981 170.4959,-.1981 170.4959,-41.4019"/>
<text text-anchor="middle" x="85.1652" y="-25" font-family="Times,serif" font-size="14.00" fill="#000000">GO:0031988</text>
<text text-anchor="middle" x="85.1652" y="-8.2" font-family="Times,serif" font-size="14.00" fill="#000000">membrane&#45;bounded vesicle</text>
</g>
<!-- GO:0031982 -->
<g id="node10" class="node">
<title>GO:0031982</title>
<polygon fill="#ffffff" stroke="#000000" points="129.7691,-135.8019 40.5613,-135.8019 40.5613,-94.5981 129.7691,-94.5981 129.7691,-135.8019"/>
<text text-anchor="middle" x="85.1652" y="-119.4" font-family="Times,serif" font-size="14.00" fill="#000000">GO:0031982</text>
<text text-anchor="middle" x="85.1652" y="-102.6" font-family="Times,serif" font-size="14.00" fill="#000000">vesicle</text>
</g>
<!-- GO:0031988&#45;&gt;GO:0031982 -->
<g id="edge9" class="edge">
<title>GO:0031988&#45;&gt;GO:0031982</title>
<path fill="none" stroke="#000000" d="M85.1652,-41.7504C85.1652,-54.2165 85.1652,-70.2645 85.1652,-84.1786"/>
<polygon fill="#000000" stroke="#000000" points="81.6653,-84.3081 85.1652,-94.3081 88.6653,-84.3082 81.6653,-84.3081"/>
</g>
<!-- GO:0031982&#45;&gt;GO:0043227 -->
<g id="edge10" class="edge">
<title>GO:0031982&#45;&gt;GO:0043227</title>
<path fill="none" stroke="#000000" d="M85.1652,-136.0031C85.1652,-148.1833 85.1652,-163.9676 85.1652,-178.4305"/>
<polygon fill="#000000" stroke="#000000" points="81.6653,-178.6577 85.1652,-188.6577 88.6653,-178.6578 81.6653,-178.6577"/>
</g>
<!-- GO:0044430 -->
<g id="node11" class="node">
<title>GO:0044430</title>
<polygon fill="#00ff00" stroke="#000000" points="853.2965,-135.8019 745.0339,-135.8019 745.0339,-94.5981 853.2965,-94.5981 853.2965,-135.8019"/>
<text text-anchor="middle" x="799.1652" y="-119.4" font-family="Times,serif" font-size="14.00" fill="#000000">GO:0044430</text>
<text text-anchor="middle" x="799.1652" y="-102.6" font-family="Times,serif" font-size="14.00" fill="#000000">cytoskeletal part</text>
</g>
<!-- GO:0044446 -->
<g id="node12" class="node">
<title>GO:0044446</title>
<polygon fill="#ffa500" stroke="#000000" points="868.8836,-247.4014 729.4468,-247.4014 729.4468,-188.5986 868.8836,-188.5986 868.8836,-247.4014"/>
<text text-anchor="middle" x="799.1652" y="-230.6" font-family="Times,serif" font-size="14.00" fill="#000000">GO:0044446</text>
<text text-anchor="middle" x="799.1652" y="-213.8" font-family="Times,serif" font-size="14.00" fill="#000000">intracellular organelle</text>
<text text-anchor="middle" x="799.1652" y="-197" font-family="Times,serif" font-size="14.00" fill="#000000">part</text>
</g>
<!-- GO:0044430&#45;&gt;GO:0044446 -->
<g id="edge11" class="edge">
<title>GO:0044430&#45;&gt;GO:0044446</title>
<path fill="none" stroke="#000000" d="M799.1652,-136.0031C799.1652,-148.1833 799.1652,-163.9676 799.1652,-178.4305"/>
<polygon fill="#000000" stroke="#000000" points="795.6653,-178.6577 799.1652,-188.6577 802.6653,-178.6578 795.6653,-178.6577"/>
</g>
<!-- GO:0044446&#45;&gt;GO:0044424 -->
<g id="edge12" class="edge">
<title>GO:0044446&#45;&gt;GO:0044424</title>
<path fill="none" stroke="#000000" d="M729.4192,-243.9077C726.2945,-245.0279 723.1988,-246.1298 720.1652,-247.2 685.6434,-259.3782 646.9499,-272.4267 615.3068,-282.9422"/>
<polygon fill="#000000" stroke="#000000" points="614.1147,-279.6501 605.7253,-286.1206 616.3187,-286.2941 614.1147,-279.6501"/>
</g>
<!-- GO:0044422 -->
<g id="node13" class="node">
<title>GO:0044422</title>
<polygon fill="#ffa500" stroke="#000000" points="814.0173,-402.2019 720.3131,-402.2019 720.3131,-360.9981 814.0173,-360.9981 814.0173,-402.2019"/>
<text text-anchor="middle" x="767.1652" y="-385.8" font-family="Times,serif" font-size="14.00" fill="#000000">GO:0044422</text>
<text text-anchor="middle" x="767.1652" y="-369" font-family="Times,serif" font-size="14.00" fill="#000000">organelle part</text>
</g>
<!-- GO:0044446&#45;&gt;GO:0044422 -->
<g id="edge13" class="edge">
<title>GO:0044446&#45;&gt;GO:0044422</title>
<path fill="none" stroke="#000000" d="M793.4442,-247.2484C787.7193,-276.517 778.9497,-321.3516 773.1376,-351.066"/>
<polygon fill="#000000" stroke="#000000" points="769.6998,-350.4096 771.215,-360.8955 776.5696,-351.7534 769.6998,-350.4096"/>
</g>
<!-- GO:0044422&#45;&gt;GO:0005575 -->
<g id="edge14" class="edge">
<title>GO:0044422&#45;&gt;GO:0005575</title>
<path fill="none" stroke="#000000" d="M737.9552,-402.3954C725.0041,-411.6156 709.6048,-422.5788 695.8051,-432.4031"/>
<polygon fill="#000000" stroke="#000000" points="693.5724,-429.6963 687.4558,-438.3472 697.6322,-435.3988 693.5724,-429.6963"/>
</g>
<!-- GO:0005856 -->
<g id="node14" class="node">
<title>GO:0005856</title>
<polygon fill="#ffff00" stroke="#000000" points="438.7691,-41.4019 349.5613,-41.4019 349.5613,-.1981 438.7691,-.1981 438.7691,-41.4019"/>
<text text-anchor="middle" x="394.1652" y="-25" font-family="Times,serif" font-size="14.00" fill="#000000">GO:0005856</text>
<text text-anchor="middle" x="394.1652" y="-8.2" font-family="Times,serif" font-size="14.00" fill="#000000">cytoskeleton</text>
</g>
<!-- GO:0043232 -->
<g id="node15" class="node">
<title>GO:0043232</title>
<polygon fill="#ffa500" stroke="#000000" points="458.126,-152.9003 330.2044,-152.9003 330.2044,-77.4997 458.126,-77.4997 458.126,-152.9003"/>
<text text-anchor="middle" x="394.1652" y="-136.2" font-family="Times,serif" font-size="14.00" fill="#000000">GO:0043232</text>
<text text-anchor="middle" x="394.1652" y="-119.4" font-family="Times,serif" font-size="14.00" fill="#000000">intracellular non&#45;</text>
<text text-anchor="middle" x="394.1652" y="-102.6" font-family="Times,serif" font-size="14.00" fill="#000000">membrane&#45;bounded</text>
<text text-anchor="middle" x="394.1652" y="-85.8" font-family="Times,serif" font-size="14.00" fill="#000000">organelle</text>
</g>
<!-- GO:0005856&#45;&gt;GO:0043232 -->
<g id="edge15" class="edge">
<title>GO:0005856&#45;&gt;GO:0043232</title>
<path fill="none" stroke="#000000" d="M394.1652,-41.7504C394.1652,-49.4068 394.1652,-58.4143 394.1652,-67.4487"/>
<polygon fill="#000000" stroke="#000000" points="390.6653,-67.5897 394.1652,-77.5897 397.6653,-67.5897 390.6653,-67.5897"/>
</g>
<!-- GO:0043232&#45;&gt;GO:0043229 -->
<g id="edge16" class="edge">
<title>GO:0043232&#45;&gt;GO:0043229</title>
<path fill="none" stroke="#000000" d="M336.5957,-152.8952C316.8911,-165.7973 295.2884,-179.9422 277.2677,-191.7418"/>
<polygon fill="#000000" stroke="#000000" points="275.1817,-188.9241 268.7329,-197.3302 279.0163,-194.7804 275.1817,-188.9241"/>
</g>
<!-- GO:0043228 -->
<g id="node16" class="node">
<title>GO:0043228</title>
<polygon fill="#ffffff" stroke="#000000" points="477.7871,-247.4014 324.5433,-247.4014 324.5433,-188.5986 477.7871,-188.5986 477.7871,-247.4014"/>
<text text-anchor="middle" x="401.1652" y="-230.6" font-family="Times,serif" font-size="14.00" fill="#000000">GO:0043228</text>
<text text-anchor="middle" x="401.1652" y="-213.8" font-family="Times,serif" font-size="14.00" fill="#000000">non&#45;membrane&#45;bounded</text>
<text text-anchor="middle" x="401.1652" y="-197" font-family="Times,serif" font-size="14.00" fill="#000000">organelle</text>
</g>
<!-- GO:0043232&#45;&gt;GO:0043228 -->
<g id="edge17" class="edge">
<title>GO:0043232&#45;&gt;GO:0043228</title>
<path fill="none" stroke="#000000" d="M396.732,-152.8952C397.3034,-161.2874 397.9107,-170.2054 398.4865,-178.6618"/>
<polygon fill="#000000" stroke="#000000" points="394.9974,-178.9423 399.1688,-188.6814 401.9813,-178.4667 394.9974,-178.9423"/>
</g>
<!-- GO:0043228&#45;&gt;GO:0043226 -->
<g id="edge18" class="edge">
<title>GO:0043228&#45;&gt;GO:0043226</title>
<path fill="none" stroke="#000000" d="M372.9455,-247.5963C364.1867,-256.7824 354.5633,-266.8752 345.9081,-275.9526"/>
<polygon fill="#000000" stroke="#000000" points="343.2734,-273.6439 338.9057,-283.2966 348.3396,-278.4744 343.2734,-273.6439"/>
</g>
<!-- GO:0043234 -->
<g id="node17" class="node">
<title>GO:0043234</title>
<polygon fill="#00ff00" stroke="#000000" points="965.0326,-324.6019 857.2978,-324.6019 857.2978,-283.3981 965.0326,-283.3981 965.0326,-324.6019"/>
<text text-anchor="middle" x="911.1652" y="-308.2" font-family="Times,serif" font-size="14.00" fill="#000000">GO:0043234</text>
<text text-anchor="middle" x="911.1652" y="-291.4" font-family="Times,serif" font-size="14.00" fill="#000000">protein complex</text>
</g>
<!-- GO:0032991 -->
<g id="node18" class="node">
<title>GO:0032991</title>
<polygon fill="#00ff00" stroke="#000000" points="990.3325,-402.2019 831.9979,-402.2019 831.9979,-360.9981 990.3325,-360.9981 990.3325,-402.2019"/>
<text text-anchor="middle" x="911.1652" y="-385.8" font-family="Times,serif" font-size="14.00" fill="#000000">GO:0032991</text>
<text text-anchor="middle" x="911.1652" y="-369" font-family="Times,serif" font-size="14.00" fill="#000000">macromolecular complex</text>
</g>
<!-- GO:0043234&#45;&gt;GO:0032991 -->
<g id="edge19" class="edge">
<title>GO:0043234&#45;&gt;GO:0032991</title>
<path fill="none" stroke="#000000" d="M911.1652,-324.7954C911.1652,-332.7109 911.1652,-341.9109 911.1652,-350.5722"/>
<polygon fill="#000000" stroke="#000000" points="907.6653,-350.7472 911.1652,-360.7472 914.6653,-350.7473 907.6653,-350.7472"/>
</g>
<!-- GO:0032991&#45;&gt;GO:0005575 -->
<g id="edge20" class="edge">
<title>GO:0032991&#45;&gt;GO:0005575</title>
<path fill="none" stroke="#000000" d="M843.6982,-402.2934C809.1772,-412.8817 767.0955,-425.789 731.7418,-436.6326"/>
<polygon fill="#000000" stroke="#000000" points="730.4946,-433.3542 721.9606,-439.6327 732.5473,-440.0464 730.4946,-433.3542"/>
</g>
<!-- GO:0043231 -->
<g id="node19" class="node">
<title>GO:0043231</title>
<polygon fill="#00ff00" stroke="#000000" points="305.544,-144.6014 154.7864,-144.6014 154.7864,-85.7986 305.544,-85.7986 305.544,-144.6014"/>
<text text-anchor="middle" x="230.1652" y="-127.8" font-family="Times,serif" font-size="14.00" fill="#000000">GO:0043231</text>
<text text-anchor="middle" x="230.1652" y="-111" font-family="Times,serif" font-size="14.00" fill="#000000">intracellular membrane&#45;</text>
<text text-anchor="middle" x="230.1652" y="-94.2" font-family="Times,serif" font-size="14.00" fill="#000000">bounded organelle</text>
</g>
<!-- GO:0043231&#45;&gt;GO:0043229 -->
<g id="edge21" class="edge">
<title>GO:0043231&#45;&gt;GO:0043229</title>
<path fill="none" stroke="#000000" d="M232.1711,-144.6584C233.0765,-157.9539 234.146,-173.6608 235.0626,-187.1212"/>
<polygon fill="#000000" stroke="#000000" points="231.5874,-187.6065 235.7588,-197.3456 238.5712,-187.1309 231.5874,-187.6065"/>
</g>
<!-- GO:0043231&#45;&gt;GO:0043227 -->
<g id="edge22" class="edge">
<title>GO:0043231&#45;&gt;GO:0043227</title>
<path fill="none" stroke="#000000" d="M188.614,-144.6584C171.9291,-156.4874 152.552,-170.2251 135.1095,-182.5912"/>
<polygon fill="#000000" stroke="#000000" points="132.856,-179.8985 126.7224,-188.5373 136.9046,-185.6089 132.856,-179.8985"/>
</g>
<!-- GO:0044444 -->
<g id="node20" class="node">
<title>GO:0044444</title>
<polygon fill="#ffa500" stroke="#000000" points="711.5818,-238.6019 602.7486,-238.6019 602.7486,-197.3981 711.5818,-197.3981 711.5818,-238.6019"/>
<text text-anchor="middle" x="657.1652" y="-222.2" font-family="Times,serif" font-size="14.00" fill="#000000">GO:0044444</text>
<text text-anchor="middle" x="657.1652" y="-205.4" font-family="Times,serif" font-size="14.00" fill="#000000">cytoplasmic part</text>
</g>
<!-- GO:0044444&#45;&gt;GO:0044424 -->
<g id="edge23" class="edge">
<title>GO:0044444&#45;&gt;GO:0044424</title>
<path fill="none" stroke="#000000" d="M631.5056,-238.8182C617.4438,-250.2268 599.8461,-264.5042 584.7077,-276.7863"/>
<polygon fill="#000000" stroke="#000000" points="582.149,-274.3551 576.5885,-283.3735 586.5593,-279.791 582.149,-274.3551"/>
</g>
</g>
</svg>
