<?xml version="1.0" encoding="UTF-8" standalone="no"?>
<!DOCTYPE svg PUBLIC "-//W3C//DTD SVG 1.1//EN"
 "http://www.w3.org/Graphics/SVG/1.1/DTD/svg11.dtd">
<!-- Generated by graphviz version 2.40.1 (20161225.0304)
 -->
<!-- Title: G Pages: 1 -->
<svg width="242pt" height="299pt"
 viewBox="0.00 0.00 242.47 299.20" xmlns="http://www.w3.org/2000/svg" xmlns:xlink="http://www.w3.org/1999/xlink">
<g id="graph0" class="graph" transform="scale(1 1) rotate(0) translate(4 295.2)">
<title>G</title>
<polygon fill="#ffffff" stroke="transparent" points="-4,4 -4,-295.2 238.4671,-295.2 238.4671,4 -4,4"/>
<!-- GO:0003824 -->
<g id="node1" class="node">
<title>GO:0003824</title>
<polygon fill="#00ff00" stroke="#000000" points="108.8686,-213.4019 .0438,-213.4019 .0438,-172.1981 108.8686,-172.1981 108.8686,-213.4019"/>
<text text-anchor="middle" x="54.4562" y="-197" font-family="Times,serif" font-size="14.00" fill="#000000">GO:0003824</text>
<text text-anchor="middle" x="54.4562" y="-180.2" font-family="Times,serif" font-size="14.00" fill="#000000">catalytic activity</text>
</g>
<!-- GO:0003674 -->
<g id="node2" class="node">
<title>GO:0003674</title>
<polygon fill="#ffffff" stroke="#000000" points="175.0893,-291.0019 49.8231,-291.0019 49.8231,-249.7981 175.0893,-249.7981 175.0893,-291.0019"/>
<text text-anchor="middle" x="112.4562" y="-274.6" font-family="Times,serif" font-size="14.00" fill="#000000">GO:0003674</text>
<text text-anchor="middle" x="112.4562" y="-257.8" font-family="Times,serif" font-size="14.00" fill="#000000">molecular_function</text>
</g>
<!-- GO:0003824&#45;&gt;GO:0003674 -->
<g id="edge1" class="edge">
<title>GO:0003824&#45;&gt;GO:0003674</title>
<path fill="none" stroke="#000000" d="M69.9991,-213.5954C76.3704,-222.1197 83.8553,-232.1339 90.7514,-241.3605"/>
<polygon fill="#000000" stroke="#000000" points="88.0801,-243.6327 96.8704,-249.5472 93.687,-239.4419 88.0801,-243.6327"/>
</g>
<!-- GO:0008092 -->
<g id="node3" class="node">
<title>GO:0008092</title>
<polygon fill="#00ffff" stroke="#000000" points="234.478,-58.6014 108.4344,-58.6014 108.4344,.2014 234.478,.2014 234.478,-58.6014"/>
<text text-anchor="middle" x="171.4562" y="-41.8" font-family="Times,serif" font-size="14.00" fill="#000000">GO:0008092</text>
<text text-anchor="middle" x="171.4562" y="-25" font-family="Times,serif" font-size="14.00" fill="#000000">cytoskeletal protein</text>
<text text-anchor="middle" x="171.4562" y="-8.2" font-family="Times,serif" font-size="14.00" fill="#000000">binding</text>
</g>
<!-- GO:0005515 -->
<g id="node4" class="node">
<title>GO:0005515</title>
<polygon fill="#ffffff" stroke="#000000" points="222.3938,-135.8019 120.5186,-135.8019 120.5186,-94.5981 222.3938,-94.5981 222.3938,-135.8019"/>
<text text-anchor="middle" x="171.4562" y="-119.4" font-family="Times,serif" font-size="14.00" fill="#000000">GO:0005515</text>
<text text-anchor="middle" x="171.4562" y="-102.6" font-family="Times,serif" font-size="14.00" fill="#000000">protein binding</text>
</g>
<!-- GO:0008092&#45;&gt;GO:0005515 -->
<g id="edge2" class="edge">
<title>GO:0008092&#45;&gt;GO:0005515</title>
<path fill="none" stroke="#000000" d="M171.4562,-58.7963C171.4562,-67.0638 171.4562,-76.0657 171.4562,-84.4008"/>
<polygon fill="#000000" stroke="#000000" points="167.9563,-84.4965 171.4562,-94.4966 174.9563,-84.4966 167.9563,-84.4965"/>
</g>
<!-- GO:0005488 -->
<g id="node5" class="node">
<title>GO:0005488</title>
<polygon fill="#ffffff" stroke="#000000" points="216.0601,-213.4019 126.8523,-213.4019 126.8523,-172.1981 216.0601,-172.1981 216.0601,-213.4019"/>
<text text-anchor="middle" x="171.4562" y="-197" font-family="Times,serif" font-size="14.00" fill="#000000">GO:0005488</text>
<text text-anchor="middle" x="171.4562" y="-180.2" font-family="Times,serif" font-size="14.00" fill="#000000">binding</text>
</g>
<!-- GO:0005515&#45;&gt;GO:0005488 -->
<g id="edge3" class="edge">
<title>GO:0005515&#45;&gt;GO:0005488</title>
<path fill="none" stroke="#000000" d="M171.4562,-135.9954C171.4562,-143.9109 171.4562,-153.1109 171.4562,-161.7722"/>
<polygon fill="#000000" stroke="#000000" points="167.9563,-161.9472 171.4562,-171.9472 174.9563,-161.9473 167.9563,-161.9472"/>
</g>
<!-- GO:0005488&#45;&gt;GO:0003674 -->
<g id="edge4" class="edge">
<title>GO:0005488&#45;&gt;GO:0003674</title>
<path fill="none" stroke="#000000" d="M155.6453,-213.5954C149.1641,-222.1197 141.5503,-232.1339 134.5352,-241.3605"/>
<polygon fill="#000000" stroke="#000000" points="131.577,-239.4684 128.3108,-249.5472 137.1494,-243.7051 131.577,-239.4684"/>
</g>
</g>
</svg>
