<?xml version="1.0" encoding="UTF-8" standalone="no"?>
<!DOCTYPE svg PUBLIC "-//W3C//DTD SVG 1.1//EN"
 "http://www.w3.org/Graphics/SVG/1.1/DTD/svg11.dtd">
<!-- Generated by graphviz version 2.40.1 (20161225.0304)
 -->
<!-- Title: G Pages: 1 -->
<svg width="350pt" height="410pt"
 viewBox="0.00 0.00 350.31 410.40" xmlns="http://www.w3.org/2000/svg" xmlns:xlink="http://www.w3.org/1999/xlink">
<g id="graph0" class="graph" transform="scale(1 1) rotate(0) translate(4 406.4)">
<title>G</title>
<polygon fill="#ffffff" stroke="transparent" points="-4,4 -4,-406.4 346.3051,-406.4 346.3051,4 -4,4"/>
<!-- GO:0044459 -->
<g id="node1" class="node">
<title>GO:0044459</title>
<polygon fill="#00ff00" stroke="#000000" points="342.0591,-238.6019 199.0447,-238.6019 199.0447,-197.3981 342.0591,-197.3981 342.0591,-238.6019"/>
<text text-anchor="middle" x="270.5519" y="-222.2" font-family="Times,serif" font-size="14.00" fill="#000000">GO:0044459</text>
<text text-anchor="middle" x="270.5519" y="-205.4" font-family="Times,serif" font-size="14.00" fill="#000000">plasma membrane part</text>
</g>
<!-- GO:0044425 -->
<g id="node2" class="node">
<title>GO:0044425</title>
<polygon fill="#ffa500" stroke="#000000" points="207.9039,-324.6019 107.1999,-324.6019 107.1999,-283.3981 207.9039,-283.3981 207.9039,-324.6019"/>
<text text-anchor="middle" x="157.5519" y="-308.2" font-family="Times,serif" font-size="14.00" fill="#000000">GO:0044425</text>
<text text-anchor="middle" x="157.5519" y="-291.4" font-family="Times,serif" font-size="14.00" fill="#000000">membrane part</text>
</g>
<!-- GO:0044459&#45;&gt;GO:0044425 -->
<g id="edge1" class="edge">
<title>GO:0044459&#45;&gt;GO:0044425</title>
<path fill="none" stroke="#000000" d="M243.1978,-238.8182C228.0685,-250.3325 209.0998,-264.7688 192.8618,-277.1269"/>
<polygon fill="#000000" stroke="#000000" points="190.492,-274.5321 184.6541,-283.3735 194.7314,-280.1024 190.492,-274.5321"/>
</g>
<!-- GO:0044464 -->
<g id="node3" class="node">
<title>GO:0044464</title>
<polygon fill="#ff0000" stroke="#000000" points="315.1558,-324.6019 225.948,-324.6019 225.948,-283.3981 315.1558,-283.3981 315.1558,-324.6019"/>
<text text-anchor="middle" x="270.5519" y="-308.2" font-family="Times,serif" font-size="14.00" fill="#000000">GO:0044464</text>
<text text-anchor="middle" x="270.5519" y="-291.4" font-family="Times,serif" font-size="14.00" fill="#000000">cell part</text>
</g>
<!-- GO:0044459&#45;&gt;GO:0044464 -->
<g id="edge2" class="edge">
<title>GO:0044459&#45;&gt;GO:0044464</title>
<path fill="none" stroke="#000000" d="M270.5519,-238.8182C270.5519,-249.1705 270.5519,-261.8848 270.5519,-273.3271"/>
<polygon fill="#000000" stroke="#000000" points="267.052,-273.3735 270.5519,-283.3735 274.052,-273.3735 267.052,-273.3735"/>
</g>
<!-- GO:0005575 -->
<g id="node4" class="node">
<title>GO:0005575</title>
<polygon fill="#ffffff" stroke="#000000" points="221.2386,-402.2019 93.8652,-402.2019 93.8652,-360.9981 221.2386,-360.9981 221.2386,-402.2019"/>
<text text-anchor="middle" x="157.5519" y="-385.8" font-family="Times,serif" font-size="14.00" fill="#000000">GO:0005575</text>
<text text-anchor="middle" x="157.5519" y="-369" font-family="Times,serif" font-size="14.00" fill="#000000">cellular_component</text>
</g>
<!-- GO:0044425&#45;&gt;GO:0005575 -->
<g id="edge3" class="edge">
<title>GO:0044425&#45;&gt;GO:0005575</title>
<path fill="none" stroke="#000000" d="M157.5519,-324.7954C157.5519,-332.7109 157.5519,-341.9109 157.5519,-350.5722"/>
<polygon fill="#000000" stroke="#000000" points="154.052,-350.7472 157.5519,-360.7472 161.052,-350.7473 154.052,-350.7472"/>
</g>
<!-- GO:0044464&#45;&gt;GO:0005575 -->
<g id="edge4" class="edge">
<title>GO:0044464&#45;&gt;GO:0005575</title>
<path fill="none" stroke="#000000" d="M240.27,-324.7954C226.7169,-334.1026 210.5777,-345.1858 196.1687,-355.0809"/>
<polygon fill="#000000" stroke="#000000" points="194.1795,-352.201 187.9174,-360.7472 198.1422,-357.9714 194.1795,-352.201"/>
</g>
<!-- GO:0016021 -->
<g id="node5" class="node">
<title>GO:0016021</title>
<polygon fill="#ffa500" stroke="#000000" points="179.185,-153.0014 39.9188,-153.0014 39.9188,-94.1986 179.185,-94.1986 179.185,-153.0014"/>
<text text-anchor="middle" x="109.5519" y="-136.2" font-family="Times,serif" font-size="14.00" fill="#000000">GO:0016021</text>
<text text-anchor="middle" x="109.5519" y="-119.4" font-family="Times,serif" font-size="14.00" fill="#000000">integral component of</text>
<text text-anchor="middle" x="109.5519" y="-102.6" font-family="Times,serif" font-size="14.00" fill="#000000">membrane</text>
</g>
<!-- GO:0031224 -->
<g id="node6" class="node">
<title>GO:0031224</title>
<polygon fill="#ffffff" stroke="#000000" points="180.8053,-247.4014 38.2985,-247.4014 38.2985,-188.5986 180.8053,-188.5986 180.8053,-247.4014"/>
<text text-anchor="middle" x="109.5519" y="-230.6" font-family="Times,serif" font-size="14.00" fill="#000000">GO:0031224</text>
<text text-anchor="middle" x="109.5519" y="-213.8" font-family="Times,serif" font-size="14.00" fill="#000000">intrinsic component of</text>
<text text-anchor="middle" x="109.5519" y="-197" font-family="Times,serif" font-size="14.00" fill="#000000">membrane</text>
</g>
<!-- GO:0016021&#45;&gt;GO:0031224 -->
<g id="edge5" class="edge">
<title>GO:0016021&#45;&gt;GO:0031224</title>
<path fill="none" stroke="#000000" d="M109.5519,-152.9513C109.5519,-161.0318 109.5519,-169.9308 109.5519,-178.4838"/>
<polygon fill="#000000" stroke="#000000" points="106.052,-178.6668 109.5519,-188.6669 113.052,-178.6669 106.052,-178.6668"/>
</g>
<!-- GO:0031224&#45;&gt;GO:0044425 -->
<g id="edge6" class="edge">
<title>GO:0031224&#45;&gt;GO:0044425</title>
<path fill="none" stroke="#000000" d="M126.0708,-247.5963C130.8902,-256.2312 136.1569,-265.6673 140.9797,-274.3081"/>
<polygon fill="#000000" stroke="#000000" points="138.0666,-276.2704 145.9965,-283.2966 144.179,-272.8588 138.0666,-276.2704"/>
</g>
<!-- GO:0016020 -->
<g id="node7" class="node">
<title>GO:0016020</title>
<polygon fill="#00ffff" stroke="#000000" points="89.1558,-324.6019 -.052,-324.6019 -.052,-283.3981 89.1558,-283.3981 89.1558,-324.6019"/>
<text text-anchor="middle" x="44.5519" y="-308.2" font-family="Times,serif" font-size="14.00" fill="#000000">GO:0016020</text>
<text text-anchor="middle" x="44.5519" y="-291.4" font-family="Times,serif" font-size="14.00" fill="#000000">membrane</text>
</g>
<!-- GO:0016020&#45;&gt;GO:0005575 -->
<g id="edge7" class="edge">
<title>GO:0016020&#45;&gt;GO:0005575</title>
<path fill="none" stroke="#000000" d="M74.8338,-324.7954C88.3869,-334.1026 104.5261,-345.1858 118.9351,-355.0809"/>
<polygon fill="#000000" stroke="#000000" points="116.9616,-357.9714 127.1864,-360.7472 120.9243,-352.201 116.9616,-357.9714"/>
</g>
<!-- GO:0005887 -->
<g id="node8" class="node">
<title>GO:0005887</title>
<polygon fill="#00ff00" stroke="#000000" points="258.185,-58.6014 118.9188,-58.6014 118.9188,.2014 258.185,.2014 258.185,-58.6014"/>
<text text-anchor="middle" x="188.5519" y="-41.8" font-family="Times,serif" font-size="14.00" fill="#000000">GO:0005887</text>
<text text-anchor="middle" x="188.5519" y="-25" font-family="Times,serif" font-size="14.00" fill="#000000">integral component of</text>
<text text-anchor="middle" x="188.5519" y="-8.2" font-family="Times,serif" font-size="14.00" fill="#000000">plasma membrane</text>
</g>
<!-- GO:0005887&#45;&gt;GO:0016021 -->
<g id="edge8" class="edge">
<title>GO:0005887&#45;&gt;GO:0016021</title>
<path fill="none" stroke="#000000" d="M163.9889,-58.5513C156.6321,-67.3422 148.4646,-77.1018 140.7412,-86.3308"/>
<polygon fill="#000000" stroke="#000000" points="137.8335,-84.3517 134.0998,-94.2669 143.2017,-88.8442 137.8335,-84.3517"/>
</g>
<!-- GO:0031226 -->
<g id="node9" class="node">
<title>GO:0031226</title>
<polygon fill="#ffffff" stroke="#000000" points="339.8053,-153.0014 197.2985,-153.0014 197.2985,-94.1986 339.8053,-94.1986 339.8053,-153.0014"/>
<text text-anchor="middle" x="268.5519" y="-136.2" font-family="Times,serif" font-size="14.00" fill="#000000">GO:0031226</text>
<text text-anchor="middle" x="268.5519" y="-119.4" font-family="Times,serif" font-size="14.00" fill="#000000">intrinsic component of</text>
<text text-anchor="middle" x="268.5519" y="-102.6" font-family="Times,serif" font-size="14.00" fill="#000000">plasma membrane</text>
</g>
<!-- GO:0005887&#45;&gt;GO:0031226 -->
<g id="edge9" class="edge">
<title>GO:0005887&#45;&gt;GO:0031226</title>
<path fill="none" stroke="#000000" d="M213.4259,-58.5513C220.951,-67.431 229.3138,-77.299 237.2047,-86.6103"/>
<polygon fill="#000000" stroke="#000000" points="234.5579,-88.9007 243.6933,-94.2669 239.8982,-84.375 234.5579,-88.9007"/>
</g>
<!-- GO:0031226&#45;&gt;GO:0044459 -->
<g id="edge10" class="edge">
<title>GO:0031226&#45;&gt;GO:0044459</title>
<path fill="none" stroke="#000000" d="M269.1737,-152.9513C269.4049,-163.8614 269.6677,-176.2637 269.9013,-187.292"/>
<polygon fill="#000000" stroke="#000000" points="266.4033,-187.4274 270.1144,-197.351 273.4017,-187.2791 266.4033,-187.4274"/>
</g>
<!-- GO:0031226&#45;&gt;GO:0031224 -->
<g id="edge11" class="edge">
<title>GO:0031226&#45;&gt;GO:0031224</title>
<path fill="none" stroke="#000000" d="M219.1149,-152.9513C202.8126,-162.6301 184.5324,-173.4833 167.6447,-183.5097"/>
<polygon fill="#000000" stroke="#000000" points="165.7702,-180.5521 158.9583,-188.6669 169.3439,-186.5712 165.7702,-180.5521"/>
</g>
</g>
</svg>
