<?xml version="1.0" encoding="UTF-8" standalone="no"?>
<!DOCTYPE svg PUBLIC "-//W3C//DTD SVG 1.1//EN"
 "http://www.w3.org/Graphics/SVG/1.1/DTD/svg11.dtd">
<!-- Generated by graphviz version 2.40.1 (20161225.0304)
 -->
<!-- Title: G Pages: 1 -->
<svg width="338pt" height="222pt"
 viewBox="0.00 0.00 337.96 221.60" xmlns="http://www.w3.org/2000/svg" xmlns:xlink="http://www.w3.org/1999/xlink">
<g id="graph0" class="graph" transform="scale(1 1) rotate(0) translate(4 217.6)">
<title>G</title>
<polygon fill="#ffffff" stroke="transparent" points="-4,4 -4,-217.6 333.9615,-217.6 333.9615,4 -4,4"/>
<!-- GO:1901363 -->
<g id="node1" class="node">
<title>GO:1901363</title>
<polygon fill="#ffffff" stroke="#000000" points="147.0159,-58.6014 -.0053,-58.6014 -.0053,.2014 147.0159,.2014 147.0159,-58.6014"/>
<text text-anchor="middle" x="73.5053" y="-41.8" font-family="Times,serif" font-size="14.00" fill="#000000">GO:1901363</text>
<text text-anchor="middle" x="73.5053" y="-25" font-family="Times,serif" font-size="14.00" fill="#000000">heterocyclic compound</text>
<text text-anchor="middle" x="73.5053" y="-8.2" font-family="Times,serif" font-size="14.00" fill="#000000">binding</text>
</g>
<!-- GO:0005488 -->
<g id="node2" class="node">
<title>GO:0005488</title>
<polygon fill="#ffffff" stroke="#000000" points="203.1092,-135.8019 113.9014,-135.8019 113.9014,-94.5981 203.1092,-94.5981 203.1092,-135.8019"/>
<text text-anchor="middle" x="158.5053" y="-119.4" font-family="Times,serif" font-size="14.00" fill="#000000">GO:0005488</text>
<text text-anchor="middle" x="158.5053" y="-102.6" font-family="Times,serif" font-size="14.00" fill="#000000">binding</text>
</g>
<!-- GO:1901363&#45;&gt;GO:0005488 -->
<g id="edge1" class="edge">
<title>GO:1901363&#45;&gt;GO:0005488</title>
<path fill="none" stroke="#000000" d="M102.7575,-58.7963C111.8367,-67.9824 121.8122,-78.0752 130.784,-87.1526"/>
<polygon fill="#000000" stroke="#000000" points="128.5236,-89.8446 138.0426,-94.4966 133.5023,-84.9239 128.5236,-89.8446"/>
</g>
<!-- GO:0003674 -->
<g id="node3" class="node">
<title>GO:0003674</title>
<polygon fill="#ffffff" stroke="#000000" points="279.1384,-213.4019 153.8722,-213.4019 153.8722,-172.1981 279.1384,-172.1981 279.1384,-213.4019"/>
<text text-anchor="middle" x="216.5053" y="-197" font-family="Times,serif" font-size="14.00" fill="#000000">GO:0003674</text>
<text text-anchor="middle" x="216.5053" y="-180.2" font-family="Times,serif" font-size="14.00" fill="#000000">molecular_function</text>
</g>
<!-- GO:0005488&#45;&gt;GO:0003674 -->
<g id="edge2" class="edge">
<title>GO:0005488&#45;&gt;GO:0003674</title>
<path fill="none" stroke="#000000" d="M174.0482,-135.9954C180.4195,-144.5197 187.9044,-154.5339 194.8005,-163.7605"/>
<polygon fill="#000000" stroke="#000000" points="192.1292,-166.0327 200.9195,-171.9472 197.7361,-161.8419 192.1292,-166.0327"/>
</g>
<!-- GO:0003824 -->
<g id="node4" class="node">
<title>GO:0003824</title>
<polygon fill="#ffffff" stroke="#000000" points="329.9177,-135.8019 221.0929,-135.8019 221.0929,-94.5981 329.9177,-94.5981 329.9177,-135.8019"/>
<text text-anchor="middle" x="275.5053" y="-119.4" font-family="Times,serif" font-size="14.00" fill="#000000">GO:0003824</text>
<text text-anchor="middle" x="275.5053" y="-102.6" font-family="Times,serif" font-size="14.00" fill="#000000">catalytic activity</text>
</g>
<!-- GO:0003824&#45;&gt;GO:0003674 -->
<g id="edge3" class="edge">
<title>GO:0003824&#45;&gt;GO:0003674</title>
<path fill="none" stroke="#000000" d="M259.6944,-135.9954C253.2132,-144.5197 245.5994,-154.5339 238.5843,-163.7605"/>
<polygon fill="#000000" stroke="#000000" points="235.6261,-161.8684 232.3599,-171.9472 241.1985,-166.1051 235.6261,-161.8684"/>
</g>
<!-- GO:0097159 -->
<g id="node5" class="node">
<title>GO:0097159</title>
<polygon fill="#ffffff" stroke="#000000" points="322.0167,-58.6014 164.9939,-58.6014 164.9939,.2014 322.0167,.2014 322.0167,-58.6014"/>
<text text-anchor="middle" x="243.5053" y="-41.8" font-family="Times,serif" font-size="14.00" fill="#000000">GO:0097159</text>
<text text-anchor="middle" x="243.5053" y="-25" font-family="Times,serif" font-size="14.00" fill="#000000">organic cyclic compound</text>
<text text-anchor="middle" x="243.5053" y="-8.2" font-family="Times,serif" font-size="14.00" fill="#000000">binding</text>
</g>
<!-- GO:0097159&#45;&gt;GO:0005488 -->
<g id="edge4" class="edge">
<title>GO:0097159&#45;&gt;GO:0005488</title>
<path fill="none" stroke="#000000" d="M214.2531,-58.7963C205.1739,-67.9824 195.1984,-78.0752 186.2266,-87.1526"/>
<polygon fill="#000000" stroke="#000000" points="183.5083,-84.9239 178.968,-94.4966 188.487,-89.8446 183.5083,-84.9239"/>
</g>
</g>
</svg>
