<?xml version="1.0" encoding="UTF-8" standalone="no"?>
<!DOCTYPE svg PUBLIC "-//W3C//DTD SVG 1.1//EN"
 "http://www.w3.org/Graphics/SVG/1.1/DTD/svg11.dtd">
<!-- Generated by graphviz version 2.40.1 (20161225.0304)
 -->
<!-- Title: G Pages: 1 -->
<svg width="597pt" height="238pt"
 viewBox="0.00 0.00 597.43 238.40" xmlns="http://www.w3.org/2000/svg" xmlns:xlink="http://www.w3.org/1999/xlink">
<g id="graph0" class="graph" transform="scale(1 1) rotate(0) translate(4 234.4)">
<title>G</title>
<polygon fill="#ffffff" stroke="transparent" points="-4,4 -4,-234.4 593.4345,-234.4 593.4345,4 -4,4"/>
<!-- GO:0050789 -->
<g id="node1" class="node">
<title>GO:0050789</title>
<polygon fill="#00ffff" stroke="#000000" points="147.6213,-153.0014 -.2075,-153.0014 -.2075,-94.1986 147.6213,-94.1986 147.6213,-153.0014"/>
<text text-anchor="middle" x="73.7069" y="-136.2" font-family="Times,serif" font-size="14.00" fill="#000000">GO:0050789</text>
<text text-anchor="middle" x="73.7069" y="-119.4" font-family="Times,serif" font-size="14.00" fill="#000000">regulation of biological</text>
<text text-anchor="middle" x="73.7069" y="-102.6" font-family="Times,serif" font-size="14.00" fill="#000000">process</text>
</g>
<!-- GO:0008150 -->
<g id="node2" class="node">
<title>GO:0008150</title>
<polygon fill="#ffffff" stroke="#000000" points="372.1775,-230.2019 251.2363,-230.2019 251.2363,-188.9981 372.1775,-188.9981 372.1775,-230.2019"/>
<text text-anchor="middle" x="311.7069" y="-213.8" font-family="Times,serif" font-size="14.00" fill="#000000">GO:0008150</text>
<text text-anchor="middle" x="311.7069" y="-197" font-family="Times,serif" font-size="14.00" fill="#000000">biological_process</text>
</g>
<!-- GO:0050789&#45;&gt;GO:0008150 -->
<g id="edge1" class="edge">
<title>GO:0050789&#45;&gt;GO:0008150</title>
<path fill="none" stroke="#000000" d="M147.707,-150.3395C178.7358,-161.5516 214.5515,-174.4934 244.782,-185.417"/>
<polygon fill="#000000" stroke="#000000" points="243.7933,-188.7812 254.3876,-188.888 246.1722,-182.1978 243.7933,-188.7812"/>
</g>
<!-- GO:0065007 -->
<g id="node3" class="node">
<title>GO:0065007</title>
<polygon fill="#00ff00" stroke="#000000" points="297.9603,-144.2019 165.4535,-144.2019 165.4535,-102.9981 297.9603,-102.9981 297.9603,-144.2019"/>
<text text-anchor="middle" x="231.7069" y="-127.8" font-family="Times,serif" font-size="14.00" fill="#000000">GO:0065007</text>
<text text-anchor="middle" x="231.7069" y="-111" font-family="Times,serif" font-size="14.00" fill="#000000">biological regulation</text>
</g>
<!-- GO:0065007&#45;&gt;GO:0008150 -->
<g id="edge2" class="edge">
<title>GO:0065007&#45;&gt;GO:0008150</title>
<path fill="none" stroke="#000000" d="M251.0727,-144.4182C261.3906,-155.5099 274.2308,-169.3132 285.4355,-181.3583"/>
<polygon fill="#000000" stroke="#000000" points="283.1457,-184.0355 292.5195,-188.9735 288.2711,-179.2677 283.1457,-184.0355"/>
</g>
<!-- GO:0050794 -->
<g id="node4" class="node">
<title>GO:0050794</title>
<polygon fill="#00ffff" stroke="#000000" points="258.6059,-58.6014 124.8079,-58.6014 124.8079,.2014 258.6059,.2014 258.6059,-58.6014"/>
<text text-anchor="middle" x="191.7069" y="-41.8" font-family="Times,serif" font-size="14.00" fill="#000000">GO:0050794</text>
<text text-anchor="middle" x="191.7069" y="-25" font-family="Times,serif" font-size="14.00" fill="#000000">regulation of cellular</text>
<text text-anchor="middle" x="191.7069" y="-8.2" font-family="Times,serif" font-size="14.00" fill="#000000">process</text>
</g>
<!-- GO:0050794&#45;&gt;GO:0050789 -->
<g id="edge4" class="edge">
<title>GO:0050794&#45;&gt;GO:0050789</title>
<path fill="none" stroke="#000000" d="M155.0178,-58.5513C143.3632,-67.8749 130.3465,-78.2883 118.2037,-88.0026"/>
<polygon fill="#000000" stroke="#000000" points="115.9956,-85.2868 110.3733,-94.2669 120.3685,-90.7529 115.9956,-85.2868"/>
</g>
<!-- GO:0050794&#45;&gt;GO:0065007 -->
<g id="edge3" class="edge">
<title>GO:0050794&#45;&gt;GO:0065007</title>
<path fill="none" stroke="#000000" d="M204.1439,-58.5513C208.8622,-69.6864 214.239,-82.3758 218.9833,-93.5724"/>
<polygon fill="#000000" stroke="#000000" points="215.8331,-95.109 222.9573,-102.951 222.2784,-92.3779 215.8331,-95.109"/>
</g>
<!-- GO:0044699 -->
<g id="node5" class="node">
<title>GO:0044699</title>
<polygon fill="#ffff00" stroke="#000000" points="467.3882,-144.2019 316.0256,-144.2019 316.0256,-102.9981 467.3882,-102.9981 467.3882,-144.2019"/>
<text text-anchor="middle" x="391.7069" y="-127.8" font-family="Times,serif" font-size="14.00" fill="#000000">GO:0044699</text>
<text text-anchor="middle" x="391.7069" y="-111" font-family="Times,serif" font-size="14.00" fill="#000000">single&#45;organism process</text>
</g>
<!-- GO:0044699&#45;&gt;GO:0008150 -->
<g id="edge5" class="edge">
<title>GO:0044699&#45;&gt;GO:0008150</title>
<path fill="none" stroke="#000000" d="M372.3411,-144.4182C362.0232,-155.5099 349.183,-169.3132 337.9783,-181.3583"/>
<polygon fill="#000000" stroke="#000000" points="335.1427,-179.2677 330.8943,-188.9735 340.2681,-184.0355 335.1427,-179.2677"/>
</g>
<!-- GO:0009987 -->
<g id="node6" class="node">
<title>GO:0009987</title>
<polygon fill="#ffff00" stroke="#000000" points="589.6631,-144.2019 485.7507,-144.2019 485.7507,-102.9981 589.6631,-102.9981 589.6631,-144.2019"/>
<text text-anchor="middle" x="537.7069" y="-127.8" font-family="Times,serif" font-size="14.00" fill="#000000">GO:0009987</text>
<text text-anchor="middle" x="537.7069" y="-111" font-family="Times,serif" font-size="14.00" fill="#000000">cellular process</text>
</g>
<!-- GO:0009987&#45;&gt;GO:0008150 -->
<g id="edge6" class="edge">
<title>GO:0009987&#45;&gt;GO:0008150</title>
<path fill="none" stroke="#000000" d="M495.9896,-144.3477C489.585,-147.3061 483.008,-150.2173 476.7069,-152.8 446.1068,-165.3424 411.6022,-177.516 382.0866,-187.3548"/>
<polygon fill="#000000" stroke="#000000" points="380.6755,-184.135 372.2811,-190.5991 382.8743,-190.7807 380.6755,-184.135"/>
</g>
<!-- GO:0044763 -->
<g id="node7" class="node">
<title>GO:0044763</title>
<polygon fill="#00ffff" stroke="#000000" points="506.3854,-58.6014 355.0284,-58.6014 355.0284,.2014 506.3854,.2014 506.3854,-58.6014"/>
<text text-anchor="middle" x="430.7069" y="-41.8" font-family="Times,serif" font-size="14.00" fill="#000000">GO:0044763</text>
<text text-anchor="middle" x="430.7069" y="-25" font-family="Times,serif" font-size="14.00" fill="#000000">single&#45;organism cellular</text>
<text text-anchor="middle" x="430.7069" y="-8.2" font-family="Times,serif" font-size="14.00" fill="#000000">process</text>
</g>
<!-- GO:0044763&#45;&gt;GO:0044699 -->
<g id="edge8" class="edge">
<title>GO:0044763&#45;&gt;GO:0044699</title>
<path fill="none" stroke="#000000" d="M418.5808,-58.5513C413.9805,-69.6864 408.7381,-82.3758 404.1124,-93.5724"/>
<polygon fill="#000000" stroke="#000000" points="400.8213,-92.3722 400.2377,-102.951 407.2909,-95.0451 400.8213,-92.3722"/>
</g>
<!-- GO:0044763&#45;&gt;GO:0009987 -->
<g id="edge7" class="edge">
<title>GO:0044763&#45;&gt;GO:0009987</title>
<path fill="none" stroke="#000000" d="M463.9758,-58.5513C477.6171,-70.5862 493.3163,-84.4367 506.713,-96.2559"/>
<polygon fill="#000000" stroke="#000000" points="504.4874,-98.9598 514.3018,-102.951 509.1185,-93.7106 504.4874,-98.9598"/>
</g>
</g>
</svg>
