<?xml version="1.0" encoding="UTF-8" standalone="no"?>
<!DOCTYPE svg PUBLIC "-//W3C//DTD SVG 1.1//EN"
 "http://www.w3.org/Graphics/SVG/1.1/DTD/svg11.dtd">
<!-- Generated by graphviz version 2.40.1 (20161225.0304)
 -->
<!-- Title: G Pages: 1 -->
<svg width="795pt" height="394pt"
 viewBox="0.00 0.00 794.66 393.60" xmlns="http://www.w3.org/2000/svg" xmlns:xlink="http://www.w3.org/1999/xlink">
<g id="graph0" class="graph" transform="scale(1 1) rotate(0) translate(4 389.6)">
<title>G</title>
<polygon fill="#ffffff" stroke="transparent" points="-4,4 -4,-389.6 790.6561,-389.6 790.6561,4 -4,4"/>
<!-- GO:0043229 -->
<g id="node1" class="node">
<title>GO:0043229</title>
<polygon fill="#ffff00" stroke="#000000" points="285.6988,-144.2019 146.262,-144.2019 146.262,-102.9981 285.6988,-102.9981 285.6988,-144.2019"/>
<text text-anchor="middle" x="215.9804" y="-127.8" font-family="Times,serif" font-size="14.00" fill="#000000">GO:0043229</text>
<text text-anchor="middle" x="215.9804" y="-111" font-family="Times,serif" font-size="14.00" fill="#000000">intracellular organelle</text>
</g>
<!-- GO:0044424 -->
<g id="node2" class="node">
<title>GO:0044424</title>
<polygon fill="#ff0000" stroke="#000000" points="394.3788,-230.2019 285.582,-230.2019 285.582,-188.9981 394.3788,-188.9981 394.3788,-230.2019"/>
<text text-anchor="middle" x="339.9804" y="-213.8" font-family="Times,serif" font-size="14.00" fill="#000000">GO:0044424</text>
<text text-anchor="middle" x="339.9804" y="-197" font-family="Times,serif" font-size="14.00" fill="#000000">intracellular part</text>
</g>
<!-- GO:0043229&#45;&gt;GO:0044424 -->
<g id="edge1" class="edge">
<title>GO:0043229&#45;&gt;GO:0044424</title>
<path fill="none" stroke="#000000" d="M245.9973,-144.4182C262.7516,-156.0381 283.7968,-170.634 301.7229,-183.0665"/>
<polygon fill="#000000" stroke="#000000" points="300.0281,-186.1505 310.2399,-188.9735 304.0174,-180.3985 300.0281,-186.1505"/>
</g>
<!-- GO:0043226 -->
<g id="node3" class="node">
<title>GO:0043226</title>
<polygon fill="#ffa500" stroke="#000000" points="260.5843,-230.2019 171.3765,-230.2019 171.3765,-188.9981 260.5843,-188.9981 260.5843,-230.2019"/>
<text text-anchor="middle" x="215.9804" y="-213.8" font-family="Times,serif" font-size="14.00" fill="#000000">GO:0043226</text>
<text text-anchor="middle" x="215.9804" y="-197" font-family="Times,serif" font-size="14.00" fill="#000000">organelle</text>
</g>
<!-- GO:0043229&#45;&gt;GO:0043226 -->
<g id="edge2" class="edge">
<title>GO:0043229&#45;&gt;GO:0043226</title>
<path fill="none" stroke="#000000" d="M215.9804,-144.4182C215.9804,-154.7705 215.9804,-167.4848 215.9804,-178.9271"/>
<polygon fill="#000000" stroke="#000000" points="212.4805,-178.9735 215.9804,-188.9735 219.4805,-178.9735 212.4805,-178.9735"/>
</g>
<!-- GO:0044464 -->
<g id="node4" class="node">
<title>GO:0044464</title>
<polygon fill="#ff0000" stroke="#000000" points="391.5843,-307.8019 302.3765,-307.8019 302.3765,-266.5981 391.5843,-266.5981 391.5843,-307.8019"/>
<text text-anchor="middle" x="346.9804" y="-291.4" font-family="Times,serif" font-size="14.00" fill="#000000">GO:0044464</text>
<text text-anchor="middle" x="346.9804" y="-274.6" font-family="Times,serif" font-size="14.00" fill="#000000">cell part</text>
</g>
<!-- GO:0044424&#45;&gt;GO:0044464 -->
<g id="edge3" class="edge">
<title>GO:0044424&#45;&gt;GO:0044464</title>
<path fill="none" stroke="#000000" d="M341.8563,-230.3954C342.5703,-238.3109 343.4002,-247.5109 344.1815,-256.1722"/>
<polygon fill="#000000" stroke="#000000" points="340.715,-256.7021 345.0994,-266.3472 347.6867,-256.0732 340.715,-256.7021"/>
</g>
<!-- GO:0005575 -->
<g id="node5" class="node">
<title>GO:0005575</title>
<polygon fill="#ffffff" stroke="#000000" points="517.6671,-385.4019 390.2937,-385.4019 390.2937,-344.1981 517.6671,-344.1981 517.6671,-385.4019"/>
<text text-anchor="middle" x="453.9804" y="-369" font-family="Times,serif" font-size="14.00" fill="#000000">GO:0005575</text>
<text text-anchor="middle" x="453.9804" y="-352.2" font-family="Times,serif" font-size="14.00" fill="#000000">cellular_component</text>
</g>
<!-- GO:0043226&#45;&gt;GO:0005575 -->
<g id="edge4" class="edge">
<title>GO:0043226&#45;&gt;GO:0005575</title>
<path fill="none" stroke="#000000" d="M227.4723,-230.5489C240.6135,-252.6978 264.0885,-287.2434 292.9804,-308 318.8246,-326.5671 351.309,-339.5509 380.3183,-348.3688"/>
<polygon fill="#000000" stroke="#000000" points="379.428,-351.755 390.0084,-351.2016 381.3922,-345.0362 379.428,-351.755"/>
</g>
<!-- GO:0044464&#45;&gt;GO:0005575 -->
<g id="edge7" class="edge">
<title>GO:0044464&#45;&gt;GO:0005575</title>
<path fill="none" stroke="#000000" d="M375.6544,-307.9954C388.3679,-317.2156 403.4847,-328.1788 417.0311,-338.0031"/>
<polygon fill="#000000" stroke="#000000" points="415.0772,-340.9096 425.2272,-343.9472 419.1868,-335.2429 415.0772,-340.9096"/>
</g>
<!-- GO:0043227 -->
<g id="node6" class="node">
<title>GO:0043227</title>
<polygon fill="#ffff00" stroke="#000000" points="127.9412,-153.0014 .0196,-153.0014 .0196,-94.1986 127.9412,-94.1986 127.9412,-153.0014"/>
<text text-anchor="middle" x="63.9804" y="-136.2" font-family="Times,serif" font-size="14.00" fill="#000000">GO:0043227</text>
<text text-anchor="middle" x="63.9804" y="-119.4" font-family="Times,serif" font-size="14.00" fill="#000000">membrane&#45;bounded</text>
<text text-anchor="middle" x="63.9804" y="-102.6" font-family="Times,serif" font-size="14.00" fill="#000000">organelle</text>
</g>
<!-- GO:0043227&#45;&gt;GO:0043226 -->
<g id="edge5" class="edge">
<title>GO:0043227&#45;&gt;GO:0043226</title>
<path fill="none" stroke="#000000" d="M115.865,-152.9558C133.5883,-162.9834 153.2634,-174.1154 170.448,-183.8383"/>
<polygon fill="#000000" stroke="#000000" points="168.7569,-186.9028 179.1839,-188.7809 172.204,-180.8103 168.7569,-186.9028"/>
</g>
<!-- GO:0005737 -->
<g id="node7" class="node">
<title>GO:0005737</title>
<polygon fill="#ff00ff" stroke="#000000" points="392.5843,-144.2019 303.3765,-144.2019 303.3765,-102.9981 392.5843,-102.9981 392.5843,-144.2019"/>
<text text-anchor="middle" x="347.9804" y="-127.8" font-family="Times,serif" font-size="14.00" fill="#000000">GO:0005737</text>
<text text-anchor="middle" x="347.9804" y="-111" font-family="Times,serif" font-size="14.00" fill="#000000">cytoplasm</text>
</g>
<!-- GO:0005737&#45;&gt;GO:0044424 -->
<g id="edge6" class="edge">
<title>GO:0005737&#45;&gt;GO:0044424</title>
<path fill="none" stroke="#000000" d="M346.0438,-144.4182C345.0808,-154.7705 343.8981,-167.4848 342.8337,-178.9271"/>
<polygon fill="#000000" stroke="#000000" points="339.3405,-178.6923 341.8991,-188.9735 346.3104,-179.3407 339.3405,-178.6923"/>
</g>
<!-- GO:0016020 -->
<g id="node8" class="node">
<title>GO:0016020</title>
<polygon fill="#ffff00" stroke="#000000" points="498.5843,-307.8019 409.3765,-307.8019 409.3765,-266.5981 498.5843,-266.5981 498.5843,-307.8019"/>
<text text-anchor="middle" x="453.9804" y="-291.4" font-family="Times,serif" font-size="14.00" fill="#000000">GO:0016020</text>
<text text-anchor="middle" x="453.9804" y="-274.6" font-family="Times,serif" font-size="14.00" fill="#000000">membrane</text>
</g>
<!-- GO:0016020&#45;&gt;GO:0005575 -->
<g id="edge8" class="edge">
<title>GO:0016020&#45;&gt;GO:0005575</title>
<path fill="none" stroke="#000000" d="M453.9804,-307.9954C453.9804,-315.9109 453.9804,-325.1109 453.9804,-333.7722"/>
<polygon fill="#000000" stroke="#000000" points="450.4805,-333.9472 453.9804,-343.9472 457.4805,-333.9473 450.4805,-333.9472"/>
</g>
<!-- GO:0005886 -->
<g id="node9" class="node">
<title>GO:0005886</title>
<polygon fill="#ff00ff" stroke="#000000" points="531.2212,-230.2019 412.7396,-230.2019 412.7396,-188.9981 531.2212,-188.9981 531.2212,-230.2019"/>
<text text-anchor="middle" x="471.9804" y="-213.8" font-family="Times,serif" font-size="14.00" fill="#000000">GO:0005886</text>
<text text-anchor="middle" x="471.9804" y="-197" font-family="Times,serif" font-size="14.00" fill="#000000">plasma membrane</text>
</g>
<!-- GO:0005886&#45;&gt;GO:0044464 -->
<g id="edge10" class="edge">
<title>GO:0005886&#45;&gt;GO:0044464</title>
<path fill="none" stroke="#000000" d="M438.4827,-230.3954C423.3503,-239.7896 405.3033,-250.9931 389.2517,-260.958"/>
<polygon fill="#000000" stroke="#000000" points="387.2205,-258.0993 380.5706,-266.3472 390.9126,-264.0465 387.2205,-258.0993"/>
</g>
<!-- GO:0005886&#45;&gt;GO:0016020 -->
<g id="edge9" class="edge">
<title>GO:0005886&#45;&gt;GO:0016020</title>
<path fill="none" stroke="#000000" d="M467.1567,-230.3954C465.3005,-238.3978 463.1397,-247.7133 461.1114,-256.4575"/>
<polygon fill="#000000" stroke="#000000" points="457.6676,-255.815 458.8174,-266.3472 464.4865,-257.3967 457.6676,-255.815"/>
</g>
<!-- GO:0043234 -->
<g id="node10" class="node">
<title>GO:0043234</title>
<polygon fill="#00ff00" stroke="#000000" points="656.8478,-230.2019 549.113,-230.2019 549.113,-188.9981 656.8478,-188.9981 656.8478,-230.2019"/>
<text text-anchor="middle" x="602.9804" y="-213.8" font-family="Times,serif" font-size="14.00" fill="#000000">GO:0043234</text>
<text text-anchor="middle" x="602.9804" y="-197" font-family="Times,serif" font-size="14.00" fill="#000000">protein complex</text>
</g>
<!-- GO:0032991 -->
<g id="node11" class="node">
<title>GO:0032991</title>
<polygon fill="#ffff00" stroke="#000000" points="675.1477,-307.8019 516.8131,-307.8019 516.8131,-266.5981 675.1477,-266.5981 675.1477,-307.8019"/>
<text text-anchor="middle" x="595.9804" y="-291.4" font-family="Times,serif" font-size="14.00" fill="#000000">GO:0032991</text>
<text text-anchor="middle" x="595.9804" y="-274.6" font-family="Times,serif" font-size="14.00" fill="#000000">macromolecular complex</text>
</g>
<!-- GO:0043234&#45;&gt;GO:0032991 -->
<g id="edge11" class="edge">
<title>GO:0043234&#45;&gt;GO:0032991</title>
<path fill="none" stroke="#000000" d="M601.1045,-230.3954C600.3905,-238.3109 599.5606,-247.5109 598.7793,-256.1722"/>
<polygon fill="#000000" stroke="#000000" points="595.2741,-256.0732 597.8614,-266.3472 602.2458,-256.7021 595.2741,-256.0732"/>
</g>
<!-- GO:0032991&#45;&gt;GO:0005575 -->
<g id="edge12" class="edge">
<title>GO:0032991&#45;&gt;GO:0005575</title>
<path fill="none" stroke="#000000" d="M557.927,-307.9954C540.4182,-317.5635 519.4748,-329.0087 500.9899,-339.1103"/>
<polygon fill="#000000" stroke="#000000" points="499.2356,-336.0804 492.1388,-343.9472 502.5924,-342.223 499.2356,-336.0804"/>
</g>
<!-- GO:0043231 -->
<g id="node12" class="node">
<title>GO:0043231</title>
<polygon fill="#ffff00" stroke="#000000" points="215.3592,-58.6014 64.6016,-58.6014 64.6016,.2014 215.3592,.2014 215.3592,-58.6014"/>
<text text-anchor="middle" x="139.9804" y="-41.8" font-family="Times,serif" font-size="14.00" fill="#000000">GO:0043231</text>
<text text-anchor="middle" x="139.9804" y="-25" font-family="Times,serif" font-size="14.00" fill="#000000">intracellular membrane&#45;</text>
<text text-anchor="middle" x="139.9804" y="-8.2" font-family="Times,serif" font-size="14.00" fill="#000000">bounded organelle</text>
</g>
<!-- GO:0043231&#45;&gt;GO:0043229 -->
<g id="edge13" class="edge">
<title>GO:0043231&#45;&gt;GO:0043229</title>
<path fill="none" stroke="#000000" d="M163.6107,-58.5513C172.9376,-70.1363 183.619,-83.4037 192.8922,-94.922"/>
<polygon fill="#000000" stroke="#000000" points="190.3588,-97.3565 199.3562,-102.951 195.8114,-92.9667 190.3588,-97.3565"/>
</g>
<!-- GO:0043231&#45;&gt;GO:0043227 -->
<g id="edge14" class="edge">
<title>GO:0043231&#45;&gt;GO:0043227</title>
<path fill="none" stroke="#000000" d="M116.3501,-58.5513C109.2727,-67.3422 101.4154,-77.1018 93.9853,-86.3308"/>
<polygon fill="#000000" stroke="#000000" points="91.1409,-84.2826 87.5961,-94.2669 96.5934,-88.6724 91.1409,-84.2826"/>
</g>
<!-- GO:0005829 -->
<g id="node13" class="node">
<title>GO:0005829</title>
<polygon fill="#00ffff" stroke="#000000" points="509.5843,-49.8019 420.3765,-49.8019 420.3765,-8.5981 509.5843,-8.5981 509.5843,-49.8019"/>
<text text-anchor="middle" x="464.9804" y="-33.4" font-family="Times,serif" font-size="14.00" fill="#000000">GO:0005829</text>
<text text-anchor="middle" x="464.9804" y="-16.6" font-family="Times,serif" font-size="14.00" fill="#000000">cytosol</text>
</g>
<!-- GO:0044444 -->
<g id="node14" class="node">
<title>GO:0044444</title>
<polygon fill="#ffa500" stroke="#000000" points="519.397,-144.2019 410.5638,-144.2019 410.5638,-102.9981 519.397,-102.9981 519.397,-144.2019"/>
<text text-anchor="middle" x="464.9804" y="-127.8" font-family="Times,serif" font-size="14.00" fill="#000000">GO:0044444</text>
<text text-anchor="middle" x="464.9804" y="-111" font-family="Times,serif" font-size="14.00" fill="#000000">cytoplasmic part</text>
</g>
<!-- GO:0005829&#45;&gt;GO:0044444 -->
<g id="edge15" class="edge">
<title>GO:0005829&#45;&gt;GO:0044444</title>
<path fill="none" stroke="#000000" d="M464.9804,-50.1504C464.9804,-62.6165 464.9804,-78.6645 464.9804,-92.5786"/>
<polygon fill="#000000" stroke="#000000" points="461.4805,-92.7081 464.9804,-102.7081 468.4805,-92.7082 461.4805,-92.7081"/>
</g>
<!-- GO:0044444&#45;&gt;GO:0044424 -->
<g id="edge16" class="edge">
<title>GO:0044444&#45;&gt;GO:0044424</title>
<path fill="none" stroke="#000000" d="M434.7214,-144.4182C417.832,-156.0381 396.6171,-170.634 378.5465,-183.0665"/>
<polygon fill="#000000" stroke="#000000" points="376.2154,-180.4219 369.9608,-188.9735 380.1831,-186.1889 376.2154,-180.4219"/>
</g>
<!-- GO:0044446 -->
<g id="node15" class="node">
<title>GO:0044446</title>
<polygon fill="#00ff00" stroke="#000000" points="727.6988,-153.0014 588.262,-153.0014 588.262,-94.1986 727.6988,-94.1986 727.6988,-153.0014"/>
<text text-anchor="middle" x="657.9804" y="-136.2" font-family="Times,serif" font-size="14.00" fill="#000000">GO:0044446</text>
<text text-anchor="middle" x="657.9804" y="-119.4" font-family="Times,serif" font-size="14.00" fill="#000000">intracellular organelle</text>
<text text-anchor="middle" x="657.9804" y="-102.6" font-family="Times,serif" font-size="14.00" fill="#000000">part</text>
</g>
<!-- GO:0044446&#45;&gt;GO:0044424 -->
<g id="edge17" class="edge">
<title>GO:0044446&#45;&gt;GO:0044424</title>
<path fill="none" stroke="#000000" d="M588.1238,-140.2753C539.3194,-152.2156 472.4626,-169.1492 404.7219,-188.6608"/>
<polygon fill="#000000" stroke="#000000" points="403.3539,-185.4132 394.723,-191.558 405.3021,-192.1366 403.3539,-185.4132"/>
</g>
<!-- GO:0044422 -->
<g id="node16" class="node">
<title>GO:0044422</title>
<polygon fill="#ffffff" stroke="#000000" points="786.8325,-307.8019 693.1283,-307.8019 693.1283,-266.5981 786.8325,-266.5981 786.8325,-307.8019"/>
<text text-anchor="middle" x="739.9804" y="-291.4" font-family="Times,serif" font-size="14.00" fill="#000000">GO:0044422</text>
<text text-anchor="middle" x="739.9804" y="-274.6" font-family="Times,serif" font-size="14.00" fill="#000000">organelle part</text>
</g>
<!-- GO:0044446&#45;&gt;GO:0044422 -->
<g id="edge18" class="edge">
<title>GO:0044446&#45;&gt;GO:0044422</title>
<path fill="none" stroke="#000000" d="M672.6404,-152.8484C687.4385,-182.3726 710.1757,-227.7359 725.0646,-257.4411"/>
<polygon fill="#000000" stroke="#000000" points="721.9929,-259.1239 729.6028,-266.4955 728.2509,-255.9873 721.9929,-259.1239"/>
</g>
<!-- GO:0044422&#45;&gt;GO:0005575 -->
<g id="edge19" class="edge">
<title>GO:0044422&#45;&gt;GO:0005575</title>
<path fill="none" stroke="#000000" d="M693.0594,-305.0681C689.9994,-306.0968 686.9538,-307.0839 683.9804,-308 632.3464,-323.9086 573.1428,-338.4464 527.7332,-348.8314"/>
<polygon fill="#000000" stroke="#000000" points="526.9451,-345.4212 517.9687,-351.0493 528.4956,-352.2474 526.9451,-345.4212"/>
</g>
</g>
</svg>
