<?xml version="1.0" encoding="UTF-8" standalone="no"?>
<!DOCTYPE svg PUBLIC "-//W3C//DTD SVG 1.1//EN"
 "http://www.w3.org/Graphics/SVG/1.1/DTD/svg11.dtd">
<!-- Generated by graphviz version 2.40.1 (20161225.0304)
 -->
<!-- Title: G Pages: 1 -->
<svg width="984pt" height="488pt"
 viewBox="0.00 0.00 984.14 488.00" xmlns="http://www.w3.org/2000/svg" xmlns:xlink="http://www.w3.org/1999/xlink">
<g id="graph0" class="graph" transform="scale(1 1) rotate(0) translate(4 484)">
<title>G</title>
<polygon fill="#ffffff" stroke="transparent" points="-4,4 -4,-484 980.1442,-484 980.1442,4 -4,4"/>
<!-- GO:0043229 -->
<g id="node1" class="node">
<title>GO:0043229</title>
<polygon fill="#ff0000" stroke="#000000" points="310.5291,-238.6019 171.0923,-238.6019 171.0923,-197.3981 310.5291,-197.3981 310.5291,-238.6019"/>
<text text-anchor="middle" x="240.8107" y="-222.2" font-family="Times,serif" font-size="14.00" fill="#000000">GO:0043229</text>
<text text-anchor="middle" x="240.8107" y="-205.4" font-family="Times,serif" font-size="14.00" fill="#000000">intracellular organelle</text>
</g>
<!-- GO:0044424 -->
<g id="node2" class="node">
<title>GO:0044424</title>
<polygon fill="#ffffff" stroke="#000000" points="591.2091,-324.6019 482.4123,-324.6019 482.4123,-283.3981 591.2091,-283.3981 591.2091,-324.6019"/>
<text text-anchor="middle" x="536.8107" y="-308.2" font-family="Times,serif" font-size="14.00" fill="#000000">GO:0044424</text>
<text text-anchor="middle" x="536.8107" y="-291.4" font-family="Times,serif" font-size="14.00" fill="#000000">intracellular part</text>
</g>
<!-- GO:0043229&#45;&gt;GO:0044424 -->
<g id="edge1" class="edge">
<title>GO:0043229&#45;&gt;GO:0044424</title>
<path fill="none" stroke="#000000" d="M294.5376,-238.6592C302.9498,-241.6615 311.5819,-244.6091 319.8107,-247.2 370.4681,-263.1496 428.736,-278.2253 472.1296,-288.8317"/>
<polygon fill="#000000" stroke="#000000" points="471.4449,-292.2671 481.9886,-291.2272 473.0977,-285.465 471.4449,-292.2671"/>
</g>
<!-- GO:0043226 -->
<g id="node3" class="node">
<title>GO:0043226</title>
<polygon fill="#ffffff" stroke="#000000" points="361.4146,-324.6019 272.2068,-324.6019 272.2068,-283.3981 361.4146,-283.3981 361.4146,-324.6019"/>
<text text-anchor="middle" x="316.8107" y="-308.2" font-family="Times,serif" font-size="14.00" fill="#000000">GO:0043226</text>
<text text-anchor="middle" x="316.8107" y="-291.4" font-family="Times,serif" font-size="14.00" fill="#000000">organelle</text>
</g>
<!-- GO:0043229&#45;&gt;GO:0043226 -->
<g id="edge2" class="edge">
<title>GO:0043229&#45;&gt;GO:0043226</title>
<path fill="none" stroke="#000000" d="M259.2082,-238.8182C269.0102,-249.9099 281.2084,-263.7132 291.8529,-275.7583"/>
<polygon fill="#000000" stroke="#000000" points="289.338,-278.1979 298.5826,-283.3735 294.5833,-273.5625 289.338,-278.1979"/>
</g>
<!-- GO:0044464 -->
<g id="node4" class="node">
<title>GO:0044464</title>
<polygon fill="#ffffff" stroke="#000000" points="581.4146,-402.2019 492.2068,-402.2019 492.2068,-360.9981 581.4146,-360.9981 581.4146,-402.2019"/>
<text text-anchor="middle" x="536.8107" y="-385.8" font-family="Times,serif" font-size="14.00" fill="#000000">GO:0044464</text>
<text text-anchor="middle" x="536.8107" y="-369" font-family="Times,serif" font-size="14.00" fill="#000000">cell part</text>
</g>
<!-- GO:0044424&#45;&gt;GO:0044464 -->
<g id="edge3" class="edge">
<title>GO:0044424&#45;&gt;GO:0044464</title>
<path fill="none" stroke="#000000" d="M536.8107,-324.7954C536.8107,-332.7109 536.8107,-341.9109 536.8107,-350.5722"/>
<polygon fill="#000000" stroke="#000000" points="533.3108,-350.7472 536.8107,-360.7472 540.3108,-350.7473 533.3108,-350.7472"/>
</g>
<!-- GO:0005575 -->
<g id="node5" class="node">
<title>GO:0005575</title>
<polygon fill="#ffffff" stroke="#000000" points="707.4974,-479.8019 580.124,-479.8019 580.124,-438.5981 707.4974,-438.5981 707.4974,-479.8019"/>
<text text-anchor="middle" x="643.8107" y="-463.4" font-family="Times,serif" font-size="14.00" fill="#000000">GO:0005575</text>
<text text-anchor="middle" x="643.8107" y="-446.6" font-family="Times,serif" font-size="14.00" fill="#000000">cellular_component</text>
</g>
<!-- GO:0043226&#45;&gt;GO:0005575 -->
<g id="edge4" class="edge">
<title>GO:0043226&#45;&gt;GO:0005575</title>
<path fill="none" stroke="#000000" d="M347.6297,-324.7646C380.2262,-346.1225 433.6403,-379.424 482.8107,-402.4 510.6748,-415.4201 542.402,-427.2173 570.2826,-436.6437"/>
<polygon fill="#000000" stroke="#000000" points="569.3776,-440.0314 579.9713,-439.8772 571.5936,-433.3914 569.3776,-440.0314"/>
</g>
<!-- GO:0044464&#45;&gt;GO:0005575 -->
<g id="edge7" class="edge">
<title>GO:0044464&#45;&gt;GO:0005575</title>
<path fill="none" stroke="#000000" d="M565.4847,-402.3954C578.1982,-411.6156 593.315,-422.5788 606.8614,-432.4031"/>
<polygon fill="#000000" stroke="#000000" points="604.9075,-435.3096 615.0575,-438.3472 609.0171,-429.6429 604.9075,-435.3096"/>
</g>
<!-- GO:0043227 -->
<g id="node6" class="node">
<title>GO:0043227</title>
<polygon fill="#00ff00" stroke="#000000" points="456.7715,-247.4014 328.8499,-247.4014 328.8499,-188.5986 456.7715,-188.5986 456.7715,-247.4014"/>
<text text-anchor="middle" x="392.8107" y="-230.6" font-family="Times,serif" font-size="14.00" fill="#000000">GO:0043227</text>
<text text-anchor="middle" x="392.8107" y="-213.8" font-family="Times,serif" font-size="14.00" fill="#000000">membrane&#45;bounded</text>
<text text-anchor="middle" x="392.8107" y="-197" font-family="Times,serif" font-size="14.00" fill="#000000">organelle</text>
</g>
<!-- GO:0043227&#45;&gt;GO:0043226 -->
<g id="edge5" class="edge">
<title>GO:0043227&#45;&gt;GO:0043226</title>
<path fill="none" stroke="#000000" d="M366.6558,-247.5963C358.6191,-256.6905 349.797,-266.6734 341.8377,-275.68"/>
<polygon fill="#000000" stroke="#000000" points="339.1061,-273.4855 335.1068,-283.2966 344.3514,-278.1209 339.1061,-273.4855"/>
</g>
<!-- GO:0005737 -->
<g id="node7" class="node">
<title>GO:0005737</title>
<polygon fill="#ffa500" stroke="#000000" points="690.4146,-238.6019 601.2068,-238.6019 601.2068,-197.3981 690.4146,-197.3981 690.4146,-238.6019"/>
<text text-anchor="middle" x="645.8107" y="-222.2" font-family="Times,serif" font-size="14.00" fill="#000000">GO:0005737</text>
<text text-anchor="middle" x="645.8107" y="-205.4" font-family="Times,serif" font-size="14.00" fill="#000000">cytoplasm</text>
</g>
<!-- GO:0005737&#45;&gt;GO:0044424 -->
<g id="edge6" class="edge">
<title>GO:0005737&#45;&gt;GO:0044424</title>
<path fill="none" stroke="#000000" d="M619.4248,-238.8182C604.8312,-250.3325 586.5339,-264.7688 570.8707,-277.1269"/>
<polygon fill="#000000" stroke="#000000" points="568.6363,-274.4316 562.9536,-283.3735 572.9722,-279.9271 568.6363,-274.4316"/>
</g>
<!-- GO:0016020 -->
<g id="node8" class="node">
<title>GO:0016020</title>
<polygon fill="#00ffff" stroke="#000000" points="688.4146,-402.2019 599.2068,-402.2019 599.2068,-360.9981 688.4146,-360.9981 688.4146,-402.2019"/>
<text text-anchor="middle" x="643.8107" y="-385.8" font-family="Times,serif" font-size="14.00" fill="#000000">GO:0016020</text>
<text text-anchor="middle" x="643.8107" y="-369" font-family="Times,serif" font-size="14.00" fill="#000000">membrane</text>
</g>
<!-- GO:0016020&#45;&gt;GO:0005575 -->
<g id="edge8" class="edge">
<title>GO:0016020&#45;&gt;GO:0005575</title>
<path fill="none" stroke="#000000" d="M643.8107,-402.3954C643.8107,-410.3109 643.8107,-419.5109 643.8107,-428.1722"/>
<polygon fill="#000000" stroke="#000000" points="640.3108,-428.3472 643.8107,-438.3472 647.3108,-428.3473 640.3108,-428.3472"/>
</g>
<!-- GO:0044430 -->
<g id="node9" class="node">
<title>GO:0044430</title>
<polygon fill="#00ff00" stroke="#000000" points="831.942,-135.8019 723.6794,-135.8019 723.6794,-94.5981 831.942,-94.5981 831.942,-135.8019"/>
<text text-anchor="middle" x="777.8107" y="-119.4" font-family="Times,serif" font-size="14.00" fill="#000000">GO:0044430</text>
<text text-anchor="middle" x="777.8107" y="-102.6" font-family="Times,serif" font-size="14.00" fill="#000000">cytoskeletal part</text>
</g>
<!-- GO:0044446 -->
<g id="node10" class="node">
<title>GO:0044446</title>
<polygon fill="#ffff00" stroke="#000000" points="847.5291,-247.4014 708.0923,-247.4014 708.0923,-188.5986 847.5291,-188.5986 847.5291,-247.4014"/>
<text text-anchor="middle" x="777.8107" y="-230.6" font-family="Times,serif" font-size="14.00" fill="#000000">GO:0044446</text>
<text text-anchor="middle" x="777.8107" y="-213.8" font-family="Times,serif" font-size="14.00" fill="#000000">intracellular organelle</text>
<text text-anchor="middle" x="777.8107" y="-197" font-family="Times,serif" font-size="14.00" fill="#000000">part</text>
</g>
<!-- GO:0044430&#45;&gt;GO:0044446 -->
<g id="edge9" class="edge">
<title>GO:0044430&#45;&gt;GO:0044446</title>
<path fill="none" stroke="#000000" d="M777.8107,-136.0031C777.8107,-148.1833 777.8107,-163.9676 777.8107,-178.4305"/>
<polygon fill="#000000" stroke="#000000" points="774.3108,-178.6577 777.8107,-188.6577 781.3108,-178.6578 774.3108,-178.6577"/>
</g>
<!-- GO:0044446&#45;&gt;GO:0044424 -->
<g id="edge10" class="edge">
<title>GO:0044446&#45;&gt;GO:0044424</title>
<path fill="none" stroke="#000000" d="M708.0987,-244.1874C705.3013,-245.2097 702.5305,-246.2172 699.8107,-247.2 667.2584,-258.9631 630.8998,-271.6738 600.7957,-282.0826"/>
<polygon fill="#000000" stroke="#000000" points="599.5643,-278.805 591.2542,-285.3771 601.849,-285.4217 599.5643,-278.805"/>
</g>
<!-- GO:0044422 -->
<g id="node11" class="node">
<title>GO:0044422</title>
<polygon fill="#ffa500" stroke="#000000" points="799.6628,-402.2019 705.9586,-402.2019 705.9586,-360.9981 799.6628,-360.9981 799.6628,-402.2019"/>
<text text-anchor="middle" x="752.8107" y="-385.8" font-family="Times,serif" font-size="14.00" fill="#000000">GO:0044422</text>
<text text-anchor="middle" x="752.8107" y="-369" font-family="Times,serif" font-size="14.00" fill="#000000">organelle part</text>
</g>
<!-- GO:0044446&#45;&gt;GO:0044422 -->
<g id="edge11" class="edge">
<title>GO:0044446&#45;&gt;GO:0044422</title>
<path fill="none" stroke="#000000" d="M773.3412,-247.2484C768.8882,-276.3891 762.0772,-320.9603 757.5363,-350.6759"/>
<polygon fill="#000000" stroke="#000000" points="754.0254,-350.4815 755.9746,-360.8955 760.9451,-351.539 754.0254,-350.4815"/>
</g>
<!-- GO:0044422&#45;&gt;GO:0005575 -->
<g id="edge12" class="edge">
<title>GO:0044422&#45;&gt;GO:0005575</title>
<path fill="none" stroke="#000000" d="M723.6007,-402.3954C710.6496,-411.6156 695.2503,-422.5788 681.4506,-432.4031"/>
<polygon fill="#000000" stroke="#000000" points="679.2179,-429.6963 673.1013,-438.3472 683.2777,-435.3988 679.2179,-429.6963"/>
</g>
<!-- GO:0005856 -->
<g id="node12" class="node">
<title>GO:0005856</title>
<polygon fill="#ffa500" stroke="#000000" points="200.4146,-41.4019 111.2068,-41.4019 111.2068,-.1981 200.4146,-.1981 200.4146,-41.4019"/>
<text text-anchor="middle" x="155.8107" y="-25" font-family="Times,serif" font-size="14.00" fill="#000000">GO:0005856</text>
<text text-anchor="middle" x="155.8107" y="-8.2" font-family="Times,serif" font-size="14.00" fill="#000000">cytoskeleton</text>
</g>
<!-- GO:0043232 -->
<g id="node13" class="node">
<title>GO:0043232</title>
<polygon fill="#ffa500" stroke="#000000" points="219.7715,-152.9003 91.8499,-152.9003 91.8499,-77.4997 219.7715,-77.4997 219.7715,-152.9003"/>
<text text-anchor="middle" x="155.8107" y="-136.2" font-family="Times,serif" font-size="14.00" fill="#000000">GO:0043232</text>
<text text-anchor="middle" x="155.8107" y="-119.4" font-family="Times,serif" font-size="14.00" fill="#000000">intracellular non&#45;</text>
<text text-anchor="middle" x="155.8107" y="-102.6" font-family="Times,serif" font-size="14.00" fill="#000000">membrane&#45;bounded</text>
<text text-anchor="middle" x="155.8107" y="-85.8" font-family="Times,serif" font-size="14.00" fill="#000000">organelle</text>
</g>
<!-- GO:0005856&#45;&gt;GO:0043232 -->
<g id="edge13" class="edge">
<title>GO:0005856&#45;&gt;GO:0043232</title>
<path fill="none" stroke="#000000" d="M155.8107,-41.7504C155.8107,-49.4068 155.8107,-58.4143 155.8107,-67.4487"/>
<polygon fill="#000000" stroke="#000000" points="152.3108,-67.5897 155.8107,-77.5897 159.3108,-67.5897 152.3108,-67.5897"/>
</g>
<!-- GO:0043232&#45;&gt;GO:0043229 -->
<g id="edge14" class="edge">
<title>GO:0043232&#45;&gt;GO:0043229</title>
<path fill="none" stroke="#000000" d="M186.9789,-152.8952C196.9681,-164.9763 207.8583,-178.147 217.2138,-189.4616"/>
<polygon fill="#000000" stroke="#000000" points="214.6502,-191.8538 223.7199,-197.3302 220.0449,-187.3931 214.6502,-191.8538"/>
</g>
<!-- GO:0043228 -->
<g id="node14" class="node">
<title>GO:0043228</title>
<polygon fill="#ffffff" stroke="#000000" points="153.4326,-247.4014 .1888,-247.4014 .1888,-188.5986 153.4326,-188.5986 153.4326,-247.4014"/>
<text text-anchor="middle" x="76.8107" y="-230.6" font-family="Times,serif" font-size="14.00" fill="#000000">GO:0043228</text>
<text text-anchor="middle" x="76.8107" y="-213.8" font-family="Times,serif" font-size="14.00" fill="#000000">non&#45;membrane&#45;bounded</text>
<text text-anchor="middle" x="76.8107" y="-197" font-family="Times,serif" font-size="14.00" fill="#000000">organelle</text>
</g>
<!-- GO:0043232&#45;&gt;GO:0043228 -->
<g id="edge15" class="edge">
<title>GO:0043232&#45;&gt;GO:0043228</title>
<path fill="none" stroke="#000000" d="M126.8426,-152.8952C119.8973,-161.9329 112.4833,-171.5805 105.5484,-180.6046"/>
<polygon fill="#000000" stroke="#000000" points="102.6598,-178.6195 99.3416,-188.6814 108.2102,-182.8849 102.6598,-178.6195"/>
</g>
<!-- GO:0043228&#45;&gt;GO:0043226 -->
<g id="edge16" class="edge">
<title>GO:0043228&#45;&gt;GO:0043226</title>
<path fill="none" stroke="#000000" d="M153.7385,-245.5658C189.1508,-258.2552 230.3331,-273.0122 262.4524,-284.5216"/>
<polygon fill="#000000" stroke="#000000" points="261.5186,-287.9049 272.1131,-287.9834 263.8799,-281.3151 261.5186,-287.9049"/>
</g>
<!-- GO:0043234 -->
<g id="node15" class="node">
<title>GO:0043234</title>
<polygon fill="#00ffff" stroke="#000000" points="950.6781,-324.6019 842.9433,-324.6019 842.9433,-283.3981 950.6781,-283.3981 950.6781,-324.6019"/>
<text text-anchor="middle" x="896.8107" y="-308.2" font-family="Times,serif" font-size="14.00" fill="#000000">GO:0043234</text>
<text text-anchor="middle" x="896.8107" y="-291.4" font-family="Times,serif" font-size="14.00" fill="#000000">protein complex</text>
</g>
<!-- GO:0032991 -->
<g id="node16" class="node">
<title>GO:0032991</title>
<polygon fill="#00ffff" stroke="#000000" points="975.978,-402.2019 817.6434,-402.2019 817.6434,-360.9981 975.978,-360.9981 975.978,-402.2019"/>
<text text-anchor="middle" x="896.8107" y="-385.8" font-family="Times,serif" font-size="14.00" fill="#000000">GO:0032991</text>
<text text-anchor="middle" x="896.8107" y="-369" font-family="Times,serif" font-size="14.00" fill="#000000">macromolecular complex</text>
</g>
<!-- GO:0043234&#45;&gt;GO:0032991 -->
<g id="edge17" class="edge">
<title>GO:0043234&#45;&gt;GO:0032991</title>
<path fill="none" stroke="#000000" d="M896.8107,-324.7954C896.8107,-332.7109 896.8107,-341.9109 896.8107,-350.5722"/>
<polygon fill="#000000" stroke="#000000" points="893.3108,-350.7472 896.8107,-360.7472 900.3108,-350.7473 893.3108,-350.7472"/>
</g>
<!-- GO:0032991&#45;&gt;GO:0005575 -->
<g id="edge18" class="edge">
<title>GO:0032991&#45;&gt;GO:0005575</title>
<path fill="none" stroke="#000000" d="M829.3437,-402.2934C794.8227,-412.8817 752.741,-425.789 717.3873,-436.6326"/>
<polygon fill="#000000" stroke="#000000" points="716.1401,-433.3542 707.6061,-439.6327 718.1928,-440.0464 716.1401,-433.3542"/>
</g>
<!-- GO:0043231 -->
<g id="node17" class="node">
<title>GO:0043231</title>
<polygon fill="#00ffff" stroke="#000000" points="391.1895,-144.6014 240.4319,-144.6014 240.4319,-85.7986 391.1895,-85.7986 391.1895,-144.6014"/>
<text text-anchor="middle" x="315.8107" y="-127.8" font-family="Times,serif" font-size="14.00" fill="#000000">GO:0043231</text>
<text text-anchor="middle" x="315.8107" y="-111" font-family="Times,serif" font-size="14.00" fill="#000000">intracellular membrane&#45;</text>
<text text-anchor="middle" x="315.8107" y="-94.2" font-family="Times,serif" font-size="14.00" fill="#000000">bounded organelle</text>
</g>
<!-- GO:0043231&#45;&gt;GO:0043229 -->
<g id="edge19" class="edge">
<title>GO:0043231&#45;&gt;GO:0043229</title>
<path fill="none" stroke="#000000" d="M294.3187,-144.6584C284.1384,-158.6121 272.0204,-175.2219 261.893,-189.1032"/>
<polygon fill="#000000" stroke="#000000" points="258.946,-187.2042 255.8795,-197.3456 264.6009,-191.33 258.946,-187.2042"/>
</g>
<!-- GO:0043231&#45;&gt;GO:0043227 -->
<g id="edge20" class="edge">
<title>GO:0043231&#45;&gt;GO:0043227</title>
<path fill="none" stroke="#000000" d="M337.8758,-144.6584C346.1722,-155.7346 355.7221,-168.4844 364.5084,-180.2146"/>
<polygon fill="#000000" stroke="#000000" points="361.946,-182.6319 370.7424,-188.5373 367.5486,-178.4353 361.946,-182.6319"/>
</g>
<!-- GO:0005829 -->
<g id="node18" class="node">
<title>GO:0005829</title>
<polygon fill="#00ffff" stroke="#000000" points="573.4146,-135.8019 484.2068,-135.8019 484.2068,-94.5981 573.4146,-94.5981 573.4146,-135.8019"/>
<text text-anchor="middle" x="528.8107" y="-119.4" font-family="Times,serif" font-size="14.00" fill="#000000">GO:0005829</text>
<text text-anchor="middle" x="528.8107" y="-102.6" font-family="Times,serif" font-size="14.00" fill="#000000">cytosol</text>
</g>
<!-- GO:0044444 -->
<g id="node19" class="node">
<title>GO:0044444</title>
<polygon fill="#ffa500" stroke="#000000" points="583.2273,-238.6019 474.3941,-238.6019 474.3941,-197.3981 583.2273,-197.3981 583.2273,-238.6019"/>
<text text-anchor="middle" x="528.8107" y="-222.2" font-family="Times,serif" font-size="14.00" fill="#000000">GO:0044444</text>
<text text-anchor="middle" x="528.8107" y="-205.4" font-family="Times,serif" font-size="14.00" fill="#000000">cytoplasmic part</text>
</g>
<!-- GO:0005829&#45;&gt;GO:0044444 -->
<g id="edge21" class="edge">
<title>GO:0005829&#45;&gt;GO:0044444</title>
<path fill="none" stroke="#000000" d="M528.8107,-136.0031C528.8107,-150.6337 528.8107,-170.4642 528.8107,-186.9586"/>
<polygon fill="#000000" stroke="#000000" points="525.3108,-187.2278 528.8107,-197.2278 532.3108,-187.2279 525.3108,-187.2278"/>
</g>
<!-- GO:0044444&#45;&gt;GO:0044424 -->
<g id="edge22" class="edge">
<title>GO:0044444&#45;&gt;GO:0044424</title>
<path fill="none" stroke="#000000" d="M530.7473,-238.8182C531.7103,-249.1705 532.893,-261.8848 533.9574,-273.3271"/>
<polygon fill="#000000" stroke="#000000" points="530.4807,-273.7407 534.892,-283.3735 537.4506,-273.0923 530.4807,-273.7407"/>
</g>
</g>
</svg>
