<?xml version="1.0" encoding="UTF-8" standalone="no"?>
<!DOCTYPE svg PUBLIC "-//W3C//DTD SVG 1.1//EN"
 "http://www.w3.org/Graphics/SVG/1.1/DTD/svg11.dtd">
<!-- Generated by graphviz version 2.40.1 (20161225.0304)
 -->
<!-- Title: G Pages: 1 -->
<svg width="1045pt" height="333pt"
 viewBox="0.00 0.00 1045.47 332.80" xmlns="http://www.w3.org/2000/svg" xmlns:xlink="http://www.w3.org/1999/xlink">
<g id="graph0" class="graph" transform="scale(1 1) rotate(0) translate(4 328.8)">
<title>G</title>
<polygon fill="#ffffff" stroke="transparent" points="-4,4 -4,-328.8 1041.4713,-328.8 1041.4713,4 -4,4"/>
<!-- GO:0050789 -->
<g id="node1" class="node">
<title>GO:0050789</title>
<polygon fill="#00ffff" stroke="#000000" points="743.7577,-239.0014 595.9289,-239.0014 595.9289,-180.1986 743.7577,-180.1986 743.7577,-239.0014"/>
<text text-anchor="middle" x="669.8433" y="-222.2" font-family="Times,serif" font-size="14.00" fill="#000000">GO:0050789</text>
<text text-anchor="middle" x="669.8433" y="-205.4" font-family="Times,serif" font-size="14.00" fill="#000000">regulation of biological</text>
<text text-anchor="middle" x="669.8433" y="-188.6" font-family="Times,serif" font-size="14.00" fill="#000000">process</text>
</g>
<!-- GO:0008150 -->
<g id="node2" class="node">
<title>GO:0008150</title>
<polygon fill="#ffffff" stroke="#000000" points="566.3139,-324.6019 445.3727,-324.6019 445.3727,-283.3981 566.3139,-283.3981 566.3139,-324.6019"/>
<text text-anchor="middle" x="505.8433" y="-308.2" font-family="Times,serif" font-size="14.00" fill="#000000">GO:0008150</text>
<text text-anchor="middle" x="505.8433" y="-291.4" font-family="Times,serif" font-size="14.00" fill="#000000">biological_process</text>
</g>
<!-- GO:0050789&#45;&gt;GO:0008150 -->
<g id="edge1" class="edge">
<title>GO:0050789&#45;&gt;GO:0008150</title>
<path fill="none" stroke="#000000" d="M618.8517,-238.9513C596.9665,-251.5486 571.6255,-266.1351 550.4933,-278.2991"/>
<polygon fill="#000000" stroke="#000000" points="548.6373,-275.3289 541.7166,-283.351 552.1294,-281.3956 548.6373,-275.3289"/>
</g>
<!-- GO:0016043 -->
<g id="node3" class="node">
<title>GO:0016043</title>
<polygon fill="#00ffff" stroke="#000000" points="154.5303,-136.2014 31.1563,-136.2014 31.1563,-77.3986 154.5303,-77.3986 154.5303,-136.2014"/>
<text text-anchor="middle" x="92.8433" y="-119.4" font-family="Times,serif" font-size="14.00" fill="#000000">GO:0016043</text>
<text text-anchor="middle" x="92.8433" y="-102.6" font-family="Times,serif" font-size="14.00" fill="#000000">cellular component</text>
<text text-anchor="middle" x="92.8433" y="-85.8" font-family="Times,serif" font-size="14.00" fill="#000000">organization</text>
</g>
<!-- GO:0009987 -->
<g id="node4" class="node">
<title>GO:0009987</title>
<polygon fill="#ffa500" stroke="#000000" points="245.7995,-230.2019 141.8871,-230.2019 141.8871,-188.9981 245.7995,-188.9981 245.7995,-230.2019"/>
<text text-anchor="middle" x="193.8433" y="-213.8" font-family="Times,serif" font-size="14.00" fill="#000000">GO:0009987</text>
<text text-anchor="middle" x="193.8433" y="-197" font-family="Times,serif" font-size="14.00" fill="#000000">cellular process</text>
</g>
<!-- GO:0016043&#45;&gt;GO:0009987 -->
<g id="edge2" class="edge">
<title>GO:0016043&#45;&gt;GO:0009987</title>
<path fill="none" stroke="#000000" d="M121.7858,-136.2584C135.754,-150.4754 152.4309,-167.4496 166.2216,-181.486"/>
<polygon fill="#000000" stroke="#000000" points="164.0456,-184.2653 173.5506,-188.9456 169.0389,-179.3594 164.0456,-184.2653"/>
</g>
<!-- GO:0071840 -->
<g id="node5" class="node">
<title>GO:0071840</title>
<polygon fill="#ffffff" stroke="#000000" points="123.5303,-247.3003 .1563,-247.3003 .1563,-171.8997 123.5303,-171.8997 123.5303,-247.3003"/>
<text text-anchor="middle" x="61.8433" y="-230.6" font-family="Times,serif" font-size="14.00" fill="#000000">GO:0071840</text>
<text text-anchor="middle" x="61.8433" y="-213.8" font-family="Times,serif" font-size="14.00" fill="#000000">cellular component</text>
<text text-anchor="middle" x="61.8433" y="-197" font-family="Times,serif" font-size="14.00" fill="#000000">organization or</text>
<text text-anchor="middle" x="61.8433" y="-180.2" font-family="Times,serif" font-size="14.00" fill="#000000">biogenesis</text>
</g>
<!-- GO:0016043&#45;&gt;GO:0071840 -->
<g id="edge3" class="edge">
<title>GO:0016043&#45;&gt;GO:0071840</title>
<path fill="none" stroke="#000000" d="M83.9599,-136.2584C81.5421,-144.2763 78.8598,-153.1712 76.2211,-161.9215"/>
<polygon fill="#000000" stroke="#000000" points="72.8131,-161.1003 73.2768,-171.685 79.515,-163.1213 72.8131,-161.1003"/>
</g>
<!-- GO:0009987&#45;&gt;GO:0008150 -->
<g id="edge4" class="edge">
<title>GO:0009987&#45;&gt;GO:0008150</title>
<path fill="none" stroke="#000000" d="M222.893,-230.2106C232.6795,-236.4053 243.9009,-242.7345 254.8433,-247.2 313.4023,-271.0977 383.9497,-285.9342 435.3203,-294.4232"/>
<polygon fill="#000000" stroke="#000000" points="434.8998,-297.9005 445.3295,-296.0372 436.0142,-290.9898 434.8998,-297.9005"/>
</g>
<!-- GO:0071840&#45;&gt;GO:0008150 -->
<g id="edge5" class="edge">
<title>GO:0071840&#45;&gt;GO:0008150</title>
<path fill="none" stroke="#000000" d="M123.6568,-243.8431C126.7252,-245.0647 129.7971,-246.1937 132.8433,-247.2 234.5714,-280.807 358.566,-294.6563 434.8512,-300.2762"/>
<polygon fill="#000000" stroke="#000000" points="435.0691,-303.8003 445.2914,-301.0158 435.5638,-296.8178 435.0691,-303.8003"/>
</g>
<!-- GO:0065007 -->
<g id="node6" class="node">
<title>GO:0065007</title>
<polygon fill="#00ffff" stroke="#000000" points="894.0967,-230.2019 761.5899,-230.2019 761.5899,-188.9981 894.0967,-188.9981 894.0967,-230.2019"/>
<text text-anchor="middle" x="827.8433" y="-213.8" font-family="Times,serif" font-size="14.00" fill="#000000">GO:0065007</text>
<text text-anchor="middle" x="827.8433" y="-197" font-family="Times,serif" font-size="14.00" fill="#000000">biological regulation</text>
</g>
<!-- GO:0065007&#45;&gt;GO:0008150 -->
<g id="edge6" class="edge">
<title>GO:0065007&#45;&gt;GO:0008150</title>
<path fill="none" stroke="#000000" d="M790.8479,-230.3412C778.9726,-236.3979 765.5893,-242.6141 752.8433,-247.2 694.9355,-268.0348 626.5752,-283.058 576.4689,-292.4009"/>
<polygon fill="#000000" stroke="#000000" points="575.5866,-289.0042 566.3822,-294.251 576.8496,-295.8894 575.5866,-289.0042"/>
</g>
<!-- GO:0098609 -->
<g id="node7" class="node">
<title>GO:0098609</title>
<polygon fill="#00ff00" stroke="#000000" points="1032.1896,-41.4019 917.497,-41.4019 917.497,-.1981 1032.1896,-.1981 1032.1896,-41.4019"/>
<text text-anchor="middle" x="974.8433" y="-25" font-family="Times,serif" font-size="14.00" fill="#000000">GO:0098609</text>
<text text-anchor="middle" x="974.8433" y="-8.2" font-family="Times,serif" font-size="14.00" fill="#000000">cell&#45;cell adhesion</text>
</g>
<!-- GO:0007155 -->
<g id="node8" class="node">
<title>GO:0007155</title>
<polygon fill="#00ff00" stroke="#000000" points="1019.8194,-127.4019 929.8672,-127.4019 929.8672,-86.1981 1019.8194,-86.1981 1019.8194,-127.4019"/>
<text text-anchor="middle" x="974.8433" y="-111" font-family="Times,serif" font-size="14.00" fill="#000000">GO:0007155</text>
<text text-anchor="middle" x="974.8433" y="-94.2" font-family="Times,serif" font-size="14.00" fill="#000000">cell adhesion</text>
</g>
<!-- GO:0098609&#45;&gt;GO:0007155 -->
<g id="edge7" class="edge">
<title>GO:0098609&#45;&gt;GO:0007155</title>
<path fill="none" stroke="#000000" d="M974.8433,-41.6182C974.8433,-51.9705 974.8433,-64.6848 974.8433,-76.1271"/>
<polygon fill="#000000" stroke="#000000" points="971.3434,-76.1735 974.8433,-86.1735 978.3434,-76.1735 971.3434,-76.1735"/>
</g>
<!-- GO:0022610 -->
<g id="node9" class="node">
<title>GO:0022610</title>
<polygon fill="#ffffff" stroke="#000000" points="1037.5996,-230.2019 912.087,-230.2019 912.087,-188.9981 1037.5996,-188.9981 1037.5996,-230.2019"/>
<text text-anchor="middle" x="974.8433" y="-213.8" font-family="Times,serif" font-size="14.00" fill="#000000">GO:0022610</text>
<text text-anchor="middle" x="974.8433" y="-197" font-family="Times,serif" font-size="14.00" fill="#000000">biological adhesion</text>
</g>
<!-- GO:0007155&#45;&gt;GO:0022610 -->
<g id="edge8" class="edge">
<title>GO:0007155&#45;&gt;GO:0022610</title>
<path fill="none" stroke="#000000" d="M974.8433,-127.6031C974.8433,-142.2337 974.8433,-162.0642 974.8433,-178.5586"/>
<polygon fill="#000000" stroke="#000000" points="971.3434,-178.8278 974.8433,-188.8278 978.3434,-178.8279 971.3434,-178.8278"/>
</g>
<!-- GO:0022610&#45;&gt;GO:0008150 -->
<g id="edge9" class="edge">
<title>GO:0022610&#45;&gt;GO:0008150</title>
<path fill="none" stroke="#000000" d="M941.0882,-230.2416C929.3533,-236.591 915.863,-243.0052 902.8433,-247.2 792.2618,-282.8282 657.1687,-296.1426 576.499,-301.0951"/>
<polygon fill="#000000" stroke="#000000" points="576.2304,-297.6047 566.4531,-301.6857 576.6414,-304.5926 576.2304,-297.6047"/>
</g>
<!-- GO:0050794 -->
<g id="node10" class="node">
<title>GO:0050794</title>
<polygon fill="#00ffff" stroke="#000000" points="815.7423,-136.2014 681.9443,-136.2014 681.9443,-77.3986 815.7423,-77.3986 815.7423,-136.2014"/>
<text text-anchor="middle" x="748.8433" y="-119.4" font-family="Times,serif" font-size="14.00" fill="#000000">GO:0050794</text>
<text text-anchor="middle" x="748.8433" y="-102.6" font-family="Times,serif" font-size="14.00" fill="#000000">regulation of cellular</text>
<text text-anchor="middle" x="748.8433" y="-85.8" font-family="Times,serif" font-size="14.00" fill="#000000">process</text>
</g>
<!-- GO:0050794&#45;&gt;GO:0050789 -->
<g id="edge11" class="edge">
<title>GO:0050794&#45;&gt;GO:0050789</title>
<path fill="none" stroke="#000000" d="M726.2051,-136.2584C717.6105,-147.4421 707.7048,-160.3321 698.6184,-172.156"/>
<polygon fill="#000000" stroke="#000000" points="695.8031,-170.0755 692.4848,-180.1373 701.3534,-174.3409 695.8031,-170.0755"/>
</g>
<!-- GO:0050794&#45;&gt;GO:0065007 -->
<g id="edge10" class="edge">
<title>GO:0050794&#45;&gt;GO:0065007</title>
<path fill="none" stroke="#000000" d="M771.4815,-136.2584C782.2048,-150.2121 794.9691,-166.8219 805.6366,-180.7032"/>
<polygon fill="#000000" stroke="#000000" points="803.1022,-183.1492 811.9708,-188.9456 808.6526,-178.8838 803.1022,-183.1492"/>
</g>
<!-- GO:0044699 -->
<g id="node11" class="node">
<title>GO:0044699</title>
<polygon fill="#ff0000" stroke="#000000" points="415.5246,-230.2019 264.162,-230.2019 264.162,-188.9981 415.5246,-188.9981 415.5246,-230.2019"/>
<text text-anchor="middle" x="339.8433" y="-213.8" font-family="Times,serif" font-size="14.00" fill="#000000">GO:0044699</text>
<text text-anchor="middle" x="339.8433" y="-197" font-family="Times,serif" font-size="14.00" fill="#000000">single&#45;organism process</text>
</g>
<!-- GO:0044699&#45;&gt;GO:0008150 -->
<g id="edge12" class="edge">
<title>GO:0044699&#45;&gt;GO:0008150</title>
<path fill="none" stroke="#000000" d="M376.2727,-230.3165C401.1391,-244.4574 434.2509,-263.2872 460.777,-278.3719"/>
<polygon fill="#000000" stroke="#000000" points="459.076,-281.4309 469.4989,-283.3318 462.5363,-275.346 459.076,-281.4309"/>
</g>
<!-- GO:0032502 -->
<g id="node12" class="node">
<title>GO:0032502</title>
<polygon fill="#00ff00" stroke="#000000" points="577.7431,-230.2019 433.9435,-230.2019 433.9435,-188.9981 577.7431,-188.9981 577.7431,-230.2019"/>
<text text-anchor="middle" x="505.8433" y="-213.8" font-family="Times,serif" font-size="14.00" fill="#000000">GO:0032502</text>
<text text-anchor="middle" x="505.8433" y="-197" font-family="Times,serif" font-size="14.00" fill="#000000">developmental process</text>
</g>
<!-- GO:0032502&#45;&gt;GO:0008150 -->
<g id="edge13" class="edge">
<title>GO:0032502&#45;&gt;GO:0008150</title>
<path fill="none" stroke="#000000" d="M505.8433,-230.5504C505.8433,-243.0165 505.8433,-259.0645 505.8433,-272.9786"/>
<polygon fill="#000000" stroke="#000000" points="502.3434,-273.1081 505.8433,-283.1081 509.3434,-273.1082 502.3434,-273.1081"/>
</g>
<!-- GO:0044767 -->
<g id="node13" class="node">
<title>GO:0044767</title>
<polygon fill="#00ffff" stroke="#000000" points="547.7431,-136.2014 403.9435,-136.2014 403.9435,-77.3986 547.7431,-77.3986 547.7431,-136.2014"/>
<text text-anchor="middle" x="475.8433" y="-119.4" font-family="Times,serif" font-size="14.00" fill="#000000">GO:0044767</text>
<text text-anchor="middle" x="475.8433" y="-102.6" font-family="Times,serif" font-size="14.00" fill="#000000">single&#45;organism</text>
<text text-anchor="middle" x="475.8433" y="-85.8" font-family="Times,serif" font-size="14.00" fill="#000000">developmental process</text>
</g>
<!-- GO:0044767&#45;&gt;GO:0044699 -->
<g id="edge15" class="edge">
<title>GO:0044767&#45;&gt;GO:0044699</title>
<path fill="none" stroke="#000000" d="M436.8712,-136.2584C417.4531,-150.9362 394.1472,-168.5527 375.244,-182.8412"/>
<polygon fill="#000000" stroke="#000000" points="373.0351,-180.1235 367.1681,-188.9456 377.2561,-185.7077 373.0351,-180.1235"/>
</g>
<!-- GO:0044767&#45;&gt;GO:0032502 -->
<g id="edge14" class="edge">
<title>GO:0044767&#45;&gt;GO:0032502</title>
<path fill="none" stroke="#000000" d="M484.4401,-136.2584C488.3585,-149.6856 492.9947,-165.5721 496.9485,-179.1204"/>
<polygon fill="#000000" stroke="#000000" points="493.6544,-180.3266 499.8158,-188.9456 500.3741,-178.3655 493.6544,-180.3266"/>
</g>
<!-- GO:0044763 -->
<g id="node14" class="node">
<title>GO:0044763</title>
<polygon fill="#ffff00" stroke="#000000" points="354.5218,-136.2014 203.1648,-136.2014 203.1648,-77.3986 354.5218,-77.3986 354.5218,-136.2014"/>
<text text-anchor="middle" x="278.8433" y="-119.4" font-family="Times,serif" font-size="14.00" fill="#000000">GO:0044763</text>
<text text-anchor="middle" x="278.8433" y="-102.6" font-family="Times,serif" font-size="14.00" fill="#000000">single&#45;organism cellular</text>
<text text-anchor="middle" x="278.8433" y="-85.8" font-family="Times,serif" font-size="14.00" fill="#000000">process</text>
</g>
<!-- GO:0044763&#45;&gt;GO:0009987 -->
<g id="edge16" class="edge">
<title>GO:0044763&#45;&gt;GO:0009987</title>
<path fill="none" stroke="#000000" d="M254.4857,-136.2584C242.8392,-150.3438 228.955,-167.1355 217.4123,-181.0954"/>
<polygon fill="#000000" stroke="#000000" points="214.5963,-179.0086 210.9213,-188.9456 219.991,-183.4692 214.5963,-179.0086"/>
</g>
<!-- GO:0044763&#45;&gt;GO:0044699 -->
<g id="edge17" class="edge">
<title>GO:0044763&#45;&gt;GO:0044699</title>
<path fill="none" stroke="#000000" d="M296.3235,-136.2584C304.5253,-150.0805 314.2736,-166.5087 322.4628,-180.3096"/>
<polygon fill="#000000" stroke="#000000" points="319.4742,-182.1318 327.5873,-188.9456 325.4942,-178.5596 319.4742,-182.1318"/>
</g>
</g>
</svg>
