<?xml version="1.0" encoding="UTF-8" standalone="no"?>
<!DOCTYPE svg PUBLIC "-//W3C//DTD SVG 1.1//EN"
 "http://www.w3.org/Graphics/SVG/1.1/DTD/svg11.dtd">
<!-- Generated by graphviz version 2.40.1 (20161225.0304)
 -->
<!-- Title: G Pages: 1 -->
<svg width="1188pt" height="538pt"
 viewBox="0.00 0.00 1187.95 538.40" xmlns="http://www.w3.org/2000/svg" xmlns:xlink="http://www.w3.org/1999/xlink">
<g id="graph0" class="graph" transform="scale(1 1) rotate(0) translate(4 534.4)">
<title>G</title>
<polygon fill="#ffffff" stroke="transparent" points="-4,4 -4,-534.4 1183.952,-534.4 1183.952,4 -4,4"/>
<!-- GO:0016787 -->
<g id="node1" class="node">
<title>GO:0016787</title>
<polygon fill="#ffffff" stroke="#000000" points="115.8749,-324.6019 .0417,-324.6019 .0417,-283.3981 115.8749,-283.3981 115.8749,-324.6019"/>
<text text-anchor="middle" x="57.9583" y="-308.2" font-family="Times,serif" font-size="14.00" fill="#000000">GO:0016787</text>
<text text-anchor="middle" x="57.9583" y="-291.4" font-family="Times,serif" font-size="14.00" fill="#000000">hydrolase activity</text>
</g>
<!-- GO:0003824 -->
<g id="node2" class="node">
<title>GO:0003824</title>
<polygon fill="#ffffff" stroke="#000000" points="249.3707,-435.8019 140.5459,-435.8019 140.5459,-394.5981 249.3707,-394.5981 249.3707,-435.8019"/>
<text text-anchor="middle" x="194.9583" y="-419.4" font-family="Times,serif" font-size="14.00" fill="#000000">GO:0003824</text>
<text text-anchor="middle" x="194.9583" y="-402.6" font-family="Times,serif" font-size="14.00" fill="#000000">catalytic activity</text>
</g>
<!-- GO:0016787&#45;&gt;GO:0003824 -->
<g id="edge1" class="edge">
<title>GO:0016787&#45;&gt;GO:0003824</title>
<path fill="none" stroke="#000000" d="M83.4059,-324.6553C105.375,-342.4871 137.2798,-368.3836 161.3465,-387.918"/>
<polygon fill="#000000" stroke="#000000" points="159.2121,-390.6934 169.1821,-394.278 163.6236,-385.2584 159.2121,-390.6934"/>
</g>
<!-- GO:0003674 -->
<g id="node3" class="node">
<title>GO:0003674</title>
<polygon fill="#ffffff" stroke="#000000" points="406.5914,-530.2019 281.3252,-530.2019 281.3252,-488.9981 406.5914,-488.9981 406.5914,-530.2019"/>
<text text-anchor="middle" x="343.9583" y="-513.8" font-family="Times,serif" font-size="14.00" fill="#000000">GO:0003674</text>
<text text-anchor="middle" x="343.9583" y="-497" font-family="Times,serif" font-size="14.00" fill="#000000">molecular_function</text>
</g>
<!-- GO:0003824&#45;&gt;GO:0003674 -->
<g id="edge2" class="edge">
<title>GO:0003824&#45;&gt;GO:0003674</title>
<path fill="none" stroke="#000000" d="M227.657,-435.9165C249.7827,-449.9344 279.1814,-468.5601 302.8848,-483.5776"/>
<polygon fill="#000000" stroke="#000000" points="301.0154,-486.5365 311.3359,-488.9318 304.7617,-480.6234 301.0154,-486.5365"/>
</g>
<!-- GO:0003700 -->
<g id="node4" class="node">
<title>GO:0003700</title>
<polygon fill="#ffffff" stroke="#000000" points="413.59,-341.7003 274.3266,-341.7003 274.3266,-266.2997 413.59,-266.2997 413.59,-341.7003"/>
<text text-anchor="middle" x="343.9583" y="-325" font-family="Times,serif" font-size="14.00" fill="#000000">GO:0003700</text>
<text text-anchor="middle" x="343.9583" y="-308.2" font-family="Times,serif" font-size="14.00" fill="#000000">transcription factor</text>
<text text-anchor="middle" x="343.9583" y="-291.4" font-family="Times,serif" font-size="14.00" fill="#000000">activity, sequence&#45;</text>
<text text-anchor="middle" x="343.9583" y="-274.6" font-family="Times,serif" font-size="14.00" fill="#000000">specific DNA binding</text>
</g>
<!-- GO:0001071 -->
<g id="node5" class="node">
<title>GO:0001071</title>
<polygon fill="#ffffff" stroke="#000000" points="408.4852,-452.9003 279.4314,-452.9003 279.4314,-377.4997 408.4852,-377.4997 408.4852,-452.9003"/>
<text text-anchor="middle" x="343.9583" y="-436.2" font-family="Times,serif" font-size="14.00" fill="#000000">GO:0001071</text>
<text text-anchor="middle" x="343.9583" y="-419.4" font-family="Times,serif" font-size="14.00" fill="#000000">nucleic acid binding</text>
<text text-anchor="middle" x="343.9583" y="-402.6" font-family="Times,serif" font-size="14.00" fill="#000000">transcription factor</text>
<text text-anchor="middle" x="343.9583" y="-385.8" font-family="Times,serif" font-size="14.00" fill="#000000">activity</text>
</g>
<!-- GO:0003700&#45;&gt;GO:0001071 -->
<g id="edge3" class="edge">
<title>GO:0003700&#45;&gt;GO:0001071</title>
<path fill="none" stroke="#000000" d="M343.9583,-341.6472C343.9583,-349.98 343.9583,-358.9155 343.9583,-367.5863"/>
<polygon fill="#000000" stroke="#000000" points="340.4584,-367.5915 343.9583,-377.5915 347.4584,-367.5916 340.4584,-367.5915"/>
</g>
<!-- GO:0001071&#45;&gt;GO:0003674 -->
<g id="edge4" class="edge">
<title>GO:0001071&#45;&gt;GO:0003674</title>
<path fill="none" stroke="#000000" d="M343.9583,-453.0522C343.9583,-461.5406 343.9583,-470.4492 343.9583,-478.6197"/>
<polygon fill="#000000" stroke="#000000" points="340.4584,-478.8379 343.9583,-488.8379 347.4584,-478.8379 340.4584,-478.8379"/>
</g>
<!-- GO:0097159 -->
<g id="node6" class="node">
<title>GO:0097159</title>
<polygon fill="#ffffff" stroke="#000000" points="589.4697,-333.4014 432.4469,-333.4014 432.4469,-274.5986 589.4697,-274.5986 589.4697,-333.4014"/>
<text text-anchor="middle" x="510.9583" y="-316.6" font-family="Times,serif" font-size="14.00" fill="#000000">GO:0097159</text>
<text text-anchor="middle" x="510.9583" y="-299.8" font-family="Times,serif" font-size="14.00" fill="#000000">organic cyclic compound</text>
<text text-anchor="middle" x="510.9583" y="-283" font-family="Times,serif" font-size="14.00" fill="#000000">binding</text>
</g>
<!-- GO:0005488 -->
<g id="node7" class="node">
<title>GO:0005488</title>
<polygon fill="#ffffff" stroke="#000000" points="725.5622,-435.8019 636.3544,-435.8019 636.3544,-394.5981 725.5622,-394.5981 725.5622,-435.8019"/>
<text text-anchor="middle" x="680.9583" y="-419.4" font-family="Times,serif" font-size="14.00" fill="#000000">GO:0005488</text>
<text text-anchor="middle" x="680.9583" y="-402.6" font-family="Times,serif" font-size="14.00" fill="#000000">binding</text>
</g>
<!-- GO:0097159&#45;&gt;GO:0005488 -->
<g id="edge5" class="edge">
<title>GO:0097159&#45;&gt;GO:0005488</title>
<path fill="none" stroke="#000000" d="M555.6238,-333.2165C581.9357,-350.4276 614.9603,-372.0296 640.504,-388.7381"/>
<polygon fill="#000000" stroke="#000000" points="638.9192,-391.8837 649.2038,-394.4288 642.7511,-386.0257 638.9192,-391.8837"/>
</g>
<!-- GO:0005488&#45;&gt;GO:0003674 -->
<g id="edge6" class="edge">
<title>GO:0005488&#45;&gt;GO:0003674</title>
<path fill="none" stroke="#000000" d="M636.2073,-427.7356C580.178,-443.4304 483.4643,-470.5218 416.7297,-489.2154"/>
<polygon fill="#000000" stroke="#000000" points="415.3841,-485.9575 406.6988,-492.0252 417.2723,-492.698 415.3841,-485.9575"/>
</g>
<!-- GO:0019899 -->
<g id="node8" class="node">
<title>GO:0019899</title>
<polygon fill="#ffffff" stroke="#000000" points="729.7741,-221.8019 624.1425,-221.8019 624.1425,-180.5981 729.7741,-180.5981 729.7741,-221.8019"/>
<text text-anchor="middle" x="676.9583" y="-205.4" font-family="Times,serif" font-size="14.00" fill="#000000">GO:0019899</text>
<text text-anchor="middle" x="676.9583" y="-188.6" font-family="Times,serif" font-size="14.00" fill="#000000">enzyme binding</text>
</g>
<!-- GO:0005515 -->
<g id="node9" class="node">
<title>GO:0005515</title>
<polygon fill="#ffffff" stroke="#000000" points="873.8959,-324.6019 772.0207,-324.6019 772.0207,-283.3981 873.8959,-283.3981 873.8959,-324.6019"/>
<text text-anchor="middle" x="822.9583" y="-308.2" font-family="Times,serif" font-size="14.00" fill="#000000">GO:0005515</text>
<text text-anchor="middle" x="822.9583" y="-291.4" font-family="Times,serif" font-size="14.00" fill="#000000">protein binding</text>
</g>
<!-- GO:0019899&#45;&gt;GO:0005515 -->
<g id="edge7" class="edge">
<title>GO:0019899&#45;&gt;GO:0005515</title>
<path fill="none" stroke="#000000" d="M706.5036,-222.0031C729.1624,-237.9574 760.6032,-260.0952 785.1054,-277.3474"/>
<polygon fill="#000000" stroke="#000000" points="783.2654,-280.3324 793.457,-283.2278 787.2955,-274.6088 783.2654,-280.3324"/>
</g>
<!-- GO:0005515&#45;&gt;GO:0005488 -->
<g id="edge8" class="edge">
<title>GO:0005515&#45;&gt;GO:0005488</title>
<path fill="none" stroke="#000000" d="M796.582,-324.6553C773.8111,-342.4871 740.7419,-368.3836 715.7968,-387.918"/>
<polygon fill="#000000" stroke="#000000" points="713.3905,-385.3569 707.6752,-394.278 717.7064,-390.8681 713.3905,-385.3569"/>
</g>
<!-- GO:0016740 -->
<g id="node10" class="node">
<title>GO:0016740</title>
<polygon fill="#ffffff" stroke="#000000" points="256.07,-324.6019 133.8466,-324.6019 133.8466,-283.3981 256.07,-283.3981 256.07,-324.6019"/>
<text text-anchor="middle" x="194.9583" y="-308.2" font-family="Times,serif" font-size="14.00" fill="#000000">GO:0016740</text>
<text text-anchor="middle" x="194.9583" y="-291.4" font-family="Times,serif" font-size="14.00" fill="#000000">transferase activity</text>
</g>
<!-- GO:0016740&#45;&gt;GO:0003824 -->
<g id="edge9" class="edge">
<title>GO:0016740&#45;&gt;GO:0003824</title>
<path fill="none" stroke="#000000" d="M194.9583,-324.6553C194.9583,-341.3242 194.9583,-365.0401 194.9583,-384.0189"/>
<polygon fill="#000000" stroke="#000000" points="191.4584,-384.278 194.9583,-394.278 198.4584,-384.278 191.4584,-384.278"/>
</g>
<!-- GO:0003676 -->
<g id="node11" class="node">
<title>GO:0003676</title>
<polygon fill="#ffffff" stroke="#000000" points="595.4852,-221.8019 466.4314,-221.8019 466.4314,-180.5981 595.4852,-180.5981 595.4852,-221.8019"/>
<text text-anchor="middle" x="530.9583" y="-205.4" font-family="Times,serif" font-size="14.00" fill="#000000">GO:0003676</text>
<text text-anchor="middle" x="530.9583" y="-188.6" font-family="Times,serif" font-size="14.00" fill="#000000">nucleic acid binding</text>
</g>
<!-- GO:0003676&#45;&gt;GO:0097159 -->
<g id="edge10" class="edge">
<title>GO:0003676&#45;&gt;GO:0097159</title>
<path fill="none" stroke="#000000" d="M526.911,-222.0031C524.5413,-234.1833 521.4704,-249.9676 518.6566,-264.4305"/>
<polygon fill="#000000" stroke="#000000" points="515.1411,-264.1734 516.6669,-274.6577 522.0123,-265.5102 515.1411,-264.1734"/>
</g>
<!-- GO:1901363 -->
<g id="node12" class="node">
<title>GO:1901363</title>
<polygon fill="#ffffff" stroke="#000000" points="754.4689,-333.4014 607.4477,-333.4014 607.4477,-274.5986 754.4689,-274.5986 754.4689,-333.4014"/>
<text text-anchor="middle" x="680.9583" y="-316.6" font-family="Times,serif" font-size="14.00" fill="#000000">GO:1901363</text>
<text text-anchor="middle" x="680.9583" y="-299.8" font-family="Times,serif" font-size="14.00" fill="#000000">heterocyclic compound</text>
<text text-anchor="middle" x="680.9583" y="-283" font-family="Times,serif" font-size="14.00" fill="#000000">binding</text>
</g>
<!-- GO:0003676&#45;&gt;GO:1901363 -->
<g id="edge11" class="edge">
<title>GO:0003676&#45;&gt;GO:1901363</title>
<path fill="none" stroke="#000000" d="M561.313,-222.0031C580.8975,-235.425 606.8677,-253.2232 629.6069,-268.8072"/>
<polygon fill="#000000" stroke="#000000" points="627.9163,-271.8916 638.1437,-274.6577 631.8736,-266.1175 627.9163,-271.8916"/>
</g>
<!-- GO:1901363&#45;&gt;GO:0005488 -->
<g id="edge12" class="edge">
<title>GO:1901363&#45;&gt;GO:0005488</title>
<path fill="none" stroke="#000000" d="M680.9583,-333.2165C680.9583,-348.797 680.9583,-367.9758 680.9583,-383.8653"/>
<polygon fill="#000000" stroke="#000000" points="677.4584,-384.2555 680.9583,-394.2556 684.4584,-384.2556 677.4584,-384.2555"/>
</g>
<!-- GO:0003723 -->
<g id="node13" class="node">
<title>GO:0003723</title>
<polygon fill="#ffffff" stroke="#000000" points="576.7895,-127.4019 485.1271,-127.4019 485.1271,-86.1981 576.7895,-86.1981 576.7895,-127.4019"/>
<text text-anchor="middle" x="530.9583" y="-111" font-family="Times,serif" font-size="14.00" fill="#000000">GO:0003723</text>
<text text-anchor="middle" x="530.9583" y="-94.2" font-family="Times,serif" font-size="14.00" fill="#000000">RNA binding</text>
</g>
<!-- GO:0003723&#45;&gt;GO:0003676 -->
<g id="edge13" class="edge">
<title>GO:0003723&#45;&gt;GO:0003676</title>
<path fill="none" stroke="#000000" d="M530.9583,-127.7504C530.9583,-140.2165 530.9583,-156.2645 530.9583,-170.1786"/>
<polygon fill="#000000" stroke="#000000" points="527.4584,-170.3081 530.9583,-180.3081 534.4584,-170.3082 527.4584,-170.3081"/>
</g>
<!-- GO:0042803 -->
<g id="node14" class="node">
<title>GO:0042803</title>
<polygon fill="#ffffff" stroke="#000000" points="966.7628,-136.2014 805.1538,-136.2014 805.1538,-77.3986 966.7628,-77.3986 966.7628,-136.2014"/>
<text text-anchor="middle" x="885.9583" y="-119.4" font-family="Times,serif" font-size="14.00" fill="#000000">GO:0042803</text>
<text text-anchor="middle" x="885.9583" y="-102.6" font-family="Times,serif" font-size="14.00" fill="#000000">protein homodimerization</text>
<text text-anchor="middle" x="885.9583" y="-85.8" font-family="Times,serif" font-size="14.00" fill="#000000">activity</text>
</g>
<!-- GO:0046983 -->
<g id="node15" class="node">
<title>GO:0046983</title>
<polygon fill="#ffffff" stroke="#000000" points="877.8721,-230.6014 748.0445,-230.6014 748.0445,-171.7986 877.8721,-171.7986 877.8721,-230.6014"/>
<text text-anchor="middle" x="812.9583" y="-213.8" font-family="Times,serif" font-size="14.00" fill="#000000">GO:0046983</text>
<text text-anchor="middle" x="812.9583" y="-197" font-family="Times,serif" font-size="14.00" fill="#000000">protein dimerization</text>
<text text-anchor="middle" x="812.9583" y="-180.2" font-family="Times,serif" font-size="14.00" fill="#000000">activity</text>
</g>
<!-- GO:0042803&#45;&gt;GO:0046983 -->
<g id="edge14" class="edge">
<title>GO:0042803&#45;&gt;GO:0046983</title>
<path fill="none" stroke="#000000" d="M863.2608,-136.1513C856.4628,-144.9422 848.9156,-154.7018 841.7788,-163.9308"/>
<polygon fill="#000000" stroke="#000000" points="838.9904,-161.8151 835.6418,-171.8669 844.5279,-166.0973 838.9904,-161.8151"/>
</g>
<!-- GO:0042802 -->
<g id="node16" class="node">
<title>GO:0042802</title>
<polygon fill="#ffffff" stroke="#000000" points="1049.6025,-221.8019 896.3141,-221.8019 896.3141,-180.5981 1049.6025,-180.5981 1049.6025,-221.8019"/>
<text text-anchor="middle" x="972.9583" y="-205.4" font-family="Times,serif" font-size="14.00" fill="#000000">GO:0042802</text>
<text text-anchor="middle" x="972.9583" y="-188.6" font-family="Times,serif" font-size="14.00" fill="#000000">identical protein binding</text>
</g>
<!-- GO:0042803&#45;&gt;GO:0042802 -->
<g id="edge15" class="edge">
<title>GO:0042803&#45;&gt;GO:0042802</title>
<path fill="none" stroke="#000000" d="M913.0087,-136.1513C923.8929,-147.9612 936.3884,-161.5196 947.1449,-173.191"/>
<polygon fill="#000000" stroke="#000000" points="944.5772,-175.5695 953.928,-180.551 949.7247,-170.8256 944.5772,-175.5695"/>
</g>
<!-- GO:0046983&#45;&gt;GO:0005515 -->
<g id="edge16" class="edge">
<title>GO:0046983&#45;&gt;GO:0005515</title>
<path fill="none" stroke="#000000" d="M815.8239,-230.6584C817.1172,-243.9539 818.6452,-259.6608 819.9545,-273.1212"/>
<polygon fill="#000000" stroke="#000000" points="816.4973,-273.7315 820.9491,-283.3456 823.4644,-273.0537 816.4973,-273.7315"/>
</g>
<!-- GO:0042802&#45;&gt;GO:0005515 -->
<g id="edge17" class="edge">
<title>GO:0042802&#45;&gt;GO:0005515</title>
<path fill="none" stroke="#000000" d="M942.6036,-222.0031C919.2223,-238.0271 886.7394,-260.2887 861.5189,-277.5731"/>
<polygon fill="#000000" stroke="#000000" points="859.538,-274.6876 853.2679,-283.2278 863.4953,-280.4617 859.538,-274.6876"/>
</g>
<!-- GO:0046872 -->
<g id="node17" class="node">
<title>GO:0046872</title>
<polygon fill="#ffffff" stroke="#000000" points="1173.2313,-127.4019 1058.6853,-127.4019 1058.6853,-86.1981 1173.2313,-86.1981 1173.2313,-127.4019"/>
<text text-anchor="middle" x="1115.9583" y="-111" font-family="Times,serif" font-size="14.00" fill="#000000">GO:0046872</text>
<text text-anchor="middle" x="1115.9583" y="-94.2" font-family="Times,serif" font-size="14.00" fill="#000000">metal ion binding</text>
</g>
<!-- GO:0043169 -->
<g id="node18" class="node">
<title>GO:0043169</title>
<polygon fill="#ffffff" stroke="#000000" points="1164.4512,-221.8019 1067.4654,-221.8019 1067.4654,-180.5981 1164.4512,-180.5981 1164.4512,-221.8019"/>
<text text-anchor="middle" x="1115.9583" y="-205.4" font-family="Times,serif" font-size="14.00" fill="#000000">GO:0043169</text>
<text text-anchor="middle" x="1115.9583" y="-188.6" font-family="Times,serif" font-size="14.00" fill="#000000">cation binding</text>
</g>
<!-- GO:0046872&#45;&gt;GO:0043169 -->
<g id="edge18" class="edge">
<title>GO:0046872&#45;&gt;GO:0043169</title>
<path fill="none" stroke="#000000" d="M1115.9583,-127.7504C1115.9583,-140.2165 1115.9583,-156.2645 1115.9583,-170.1786"/>
<polygon fill="#000000" stroke="#000000" points="1112.4584,-170.3081 1115.9583,-180.3081 1119.4584,-170.3082 1112.4584,-170.3081"/>
</g>
<!-- GO:0043167 -->
<g id="node19" class="node">
<title>GO:0043167</title>
<polygon fill="#ffffff" stroke="#000000" points="1071.5622,-324.6019 982.3544,-324.6019 982.3544,-283.3981 1071.5622,-283.3981 1071.5622,-324.6019"/>
<text text-anchor="middle" x="1026.9583" y="-308.2" font-family="Times,serif" font-size="14.00" fill="#000000">GO:0043167</text>
<text text-anchor="middle" x="1026.9583" y="-291.4" font-family="Times,serif" font-size="14.00" fill="#000000">ion binding</text>
</g>
<!-- GO:0043169&#45;&gt;GO:0043167 -->
<g id="edge19" class="edge">
<title>GO:0043169&#45;&gt;GO:0043167</title>
<path fill="none" stroke="#000000" d="M1097.9478,-222.0031C1084.6781,-237.3304 1066.4675,-258.3647 1051.8131,-275.2913"/>
<polygon fill="#000000" stroke="#000000" points="1048.8413,-273.3766 1044.942,-283.2278 1054.1335,-277.9584 1048.8413,-273.3766"/>
</g>
<!-- GO:0043167&#45;&gt;GO:0005488 -->
<g id="edge20" class="edge">
<title>GO:0043167&#45;&gt;GO:0005488</title>
<path fill="none" stroke="#000000" d="M982.0796,-318.4235C918.8164,-338.7554 803.5497,-375.8007 735.4508,-397.6868"/>
<polygon fill="#000000" stroke="#000000" points="734.207,-394.4102 725.7575,-400.8021 736.3489,-401.0744 734.207,-394.4102"/>
</g>
<!-- GO:0005509 -->
<g id="node20" class="node">
<title>GO:0005509</title>
<polygon fill="#ffffff" stroke="#000000" points="1179.9457,-41.4019 1051.9709,-41.4019 1051.9709,-.1981 1179.9457,-.1981 1179.9457,-41.4019"/>
<text text-anchor="middle" x="1115.9583" y="-25" font-family="Times,serif" font-size="14.00" fill="#000000">GO:0005509</text>
<text text-anchor="middle" x="1115.9583" y="-8.2" font-family="Times,serif" font-size="14.00" fill="#000000">calcium ion binding</text>
</g>
<!-- GO:0005509&#45;&gt;GO:0046872 -->
<g id="edge21" class="edge">
<title>GO:0005509&#45;&gt;GO:0046872</title>
<path fill="none" stroke="#000000" d="M1115.9583,-41.6182C1115.9583,-51.9705 1115.9583,-64.6848 1115.9583,-76.1271"/>
<polygon fill="#000000" stroke="#000000" points="1112.4584,-76.1735 1115.9583,-86.1735 1119.4584,-76.1735 1112.4584,-76.1735"/>
</g>
</g>
</svg>
