<?xml version="1.0" encoding="UTF-8" standalone="no"?>
<!DOCTYPE svg PUBLIC "-//W3C//DTD SVG 1.1//EN"
 "http://www.w3.org/Graphics/SVG/1.1/DTD/svg11.dtd">
<!-- Generated by graphviz version 2.40.1 (20161225.0304)
 -->
<!-- Title: G Pages: 1 -->
<svg width="960pt" height="410pt"
 viewBox="0.00 0.00 959.93 410.40" xmlns="http://www.w3.org/2000/svg" xmlns:xlink="http://www.w3.org/1999/xlink">
<g id="graph0" class="graph" transform="scale(1 1) rotate(0) translate(4 406.4)">
<title>G</title>
<polygon fill="#ffffff" stroke="transparent" points="-4,4 -4,-406.4 955.9285,-406.4 955.9285,4 -4,4"/>
<!-- GO:0005887 -->
<g id="node1" class="node">
<title>GO:0005887</title>
<polygon fill="#00ffff" stroke="#000000" points="220.0097,-58.6014 80.7435,-58.6014 80.7435,.2014 220.0097,.2014 220.0097,-58.6014"/>
<text text-anchor="middle" x="150.3766" y="-41.8" font-family="Times,serif" font-size="14.00" fill="#000000">GO:0005887</text>
<text text-anchor="middle" x="150.3766" y="-25" font-family="Times,serif" font-size="14.00" fill="#000000">integral component of</text>
<text text-anchor="middle" x="150.3766" y="-8.2" font-family="Times,serif" font-size="14.00" fill="#000000">plasma membrane</text>
</g>
<!-- GO:0016021 -->
<g id="node2" class="node">
<title>GO:0016021</title>
<polygon fill="#ff0000" stroke="#000000" points="141.0097,-153.0014 1.7435,-153.0014 1.7435,-94.1986 141.0097,-94.1986 141.0097,-153.0014"/>
<text text-anchor="middle" x="71.3766" y="-136.2" font-family="Times,serif" font-size="14.00" fill="#000000">GO:0016021</text>
<text text-anchor="middle" x="71.3766" y="-119.4" font-family="Times,serif" font-size="14.00" fill="#000000">integral component of</text>
<text text-anchor="middle" x="71.3766" y="-102.6" font-family="Times,serif" font-size="14.00" fill="#000000">membrane</text>
</g>
<!-- GO:0005887&#45;&gt;GO:0016021 -->
<g id="edge1" class="edge">
<title>GO:0005887&#45;&gt;GO:0016021</title>
<path fill="none" stroke="#000000" d="M125.8136,-58.5513C118.4568,-67.3422 110.2893,-77.1018 102.5659,-86.3308"/>
<polygon fill="#000000" stroke="#000000" points="99.6582,-84.3517 95.9245,-94.2669 105.0264,-88.8442 99.6582,-84.3517"/>
</g>
<!-- GO:0031226 -->
<g id="node3" class="node">
<title>GO:0031226</title>
<polygon fill="#ffffff" stroke="#000000" points="301.63,-153.0014 159.1232,-153.0014 159.1232,-94.1986 301.63,-94.1986 301.63,-153.0014"/>
<text text-anchor="middle" x="230.3766" y="-136.2" font-family="Times,serif" font-size="14.00" fill="#000000">GO:0031226</text>
<text text-anchor="middle" x="230.3766" y="-119.4" font-family="Times,serif" font-size="14.00" fill="#000000">intrinsic component of</text>
<text text-anchor="middle" x="230.3766" y="-102.6" font-family="Times,serif" font-size="14.00" fill="#000000">plasma membrane</text>
</g>
<!-- GO:0005887&#45;&gt;GO:0031226 -->
<g id="edge2" class="edge">
<title>GO:0005887&#45;&gt;GO:0031226</title>
<path fill="none" stroke="#000000" d="M175.2506,-58.5513C182.7757,-67.431 191.1385,-77.299 199.0294,-86.6103"/>
<polygon fill="#000000" stroke="#000000" points="196.3826,-88.9007 205.518,-94.2669 201.7229,-84.375 196.3826,-88.9007"/>
</g>
<!-- GO:0031224 -->
<g id="node4" class="node">
<title>GO:0031224</title>
<polygon fill="#ffffff" stroke="#000000" points="142.63,-247.4014 .1232,-247.4014 .1232,-188.5986 142.63,-188.5986 142.63,-247.4014"/>
<text text-anchor="middle" x="71.3766" y="-230.6" font-family="Times,serif" font-size="14.00" fill="#000000">GO:0031224</text>
<text text-anchor="middle" x="71.3766" y="-213.8" font-family="Times,serif" font-size="14.00" fill="#000000">intrinsic component of</text>
<text text-anchor="middle" x="71.3766" y="-197" font-family="Times,serif" font-size="14.00" fill="#000000">membrane</text>
</g>
<!-- GO:0016021&#45;&gt;GO:0031224 -->
<g id="edge3" class="edge">
<title>GO:0016021&#45;&gt;GO:0031224</title>
<path fill="none" stroke="#000000" d="M71.3766,-152.9513C71.3766,-161.0318 71.3766,-169.9308 71.3766,-178.4838"/>
<polygon fill="#000000" stroke="#000000" points="67.8767,-178.6668 71.3766,-188.6669 74.8767,-178.6669 67.8767,-178.6668"/>
</g>
<!-- GO:0031226&#45;&gt;GO:0031224 -->
<g id="edge5" class="edge">
<title>GO:0031226&#45;&gt;GO:0031224</title>
<path fill="none" stroke="#000000" d="M180.9396,-152.9513C164.6373,-162.6301 146.3571,-173.4833 129.4694,-183.5097"/>
<polygon fill="#000000" stroke="#000000" points="127.5949,-180.5521 120.783,-188.6669 131.1686,-186.5712 127.5949,-180.5521"/>
</g>
<!-- GO:0044459 -->
<g id="node5" class="node">
<title>GO:0044459</title>
<polygon fill="#00ff00" stroke="#000000" points="303.8838,-238.6019 160.8694,-238.6019 160.8694,-197.3981 303.8838,-197.3981 303.8838,-238.6019"/>
<text text-anchor="middle" x="232.3766" y="-222.2" font-family="Times,serif" font-size="14.00" fill="#000000">GO:0044459</text>
<text text-anchor="middle" x="232.3766" y="-205.4" font-family="Times,serif" font-size="14.00" fill="#000000">plasma membrane part</text>
</g>
<!-- GO:0031226&#45;&gt;GO:0044459 -->
<g id="edge4" class="edge">
<title>GO:0031226&#45;&gt;GO:0044459</title>
<path fill="none" stroke="#000000" d="M230.9984,-152.9513C231.2296,-163.8614 231.4924,-176.2637 231.726,-187.292"/>
<polygon fill="#000000" stroke="#000000" points="228.228,-187.4274 231.9391,-197.351 235.2264,-187.2791 228.228,-187.4274"/>
</g>
<!-- GO:0044425 -->
<g id="node6" class="node">
<title>GO:0044425</title>
<polygon fill="#ffffff" stroke="#000000" points="282.7286,-324.6019 182.0246,-324.6019 182.0246,-283.3981 282.7286,-283.3981 282.7286,-324.6019"/>
<text text-anchor="middle" x="232.3766" y="-308.2" font-family="Times,serif" font-size="14.00" fill="#000000">GO:0044425</text>
<text text-anchor="middle" x="232.3766" y="-291.4" font-family="Times,serif" font-size="14.00" fill="#000000">membrane part</text>
</g>
<!-- GO:0031224&#45;&gt;GO:0044425 -->
<g id="edge6" class="edge">
<title>GO:0031224&#45;&gt;GO:0044425</title>
<path fill="none" stroke="#000000" d="M126.3334,-247.3558C145.1921,-257.4294 166.1374,-268.6176 184.3986,-278.372"/>
<polygon fill="#000000" stroke="#000000" points="182.9318,-281.5565 193.4014,-283.1809 186.2299,-275.3821 182.9318,-281.5565"/>
</g>
<!-- GO:0044459&#45;&gt;GO:0044425 -->
<g id="edge7" class="edge">
<title>GO:0044459&#45;&gt;GO:0044425</title>
<path fill="none" stroke="#000000" d="M232.3766,-238.8182C232.3766,-249.1705 232.3766,-261.8848 232.3766,-273.3271"/>
<polygon fill="#000000" stroke="#000000" points="228.8767,-273.3735 232.3766,-283.3735 235.8767,-273.3735 228.8767,-273.3735"/>
</g>
<!-- GO:0044464 -->
<g id="node7" class="node">
<title>GO:0044464</title>
<polygon fill="#ff0000" stroke="#000000" points="557.9805,-324.6019 468.7727,-324.6019 468.7727,-283.3981 557.9805,-283.3981 557.9805,-324.6019"/>
<text text-anchor="middle" x="513.3766" y="-308.2" font-family="Times,serif" font-size="14.00" fill="#000000">GO:0044464</text>
<text text-anchor="middle" x="513.3766" y="-291.4" font-family="Times,serif" font-size="14.00" fill="#000000">cell part</text>
</g>
<!-- GO:0044459&#45;&gt;GO:0044464 -->
<g id="edge8" class="edge">
<title>GO:0044459&#45;&gt;GO:0044464</title>
<path fill="none" stroke="#000000" d="M287.2747,-238.6485C295.6483,-241.6206 304.217,-244.562 312.3766,-247.2 361.6247,-263.1217 418.4388,-278.9459 459.0731,-289.832"/>
<polygon fill="#000000" stroke="#000000" points="458.2168,-293.2259 468.781,-292.4213 460.0208,-286.4623 458.2168,-293.2259"/>
</g>
<!-- GO:0005575 -->
<g id="node8" class="node">
<title>GO:0005575</title>
<polygon fill="#ffffff" stroke="#000000" points="757.0633,-402.2019 629.6899,-402.2019 629.6899,-360.9981 757.0633,-360.9981 757.0633,-402.2019"/>
<text text-anchor="middle" x="693.3766" y="-385.8" font-family="Times,serif" font-size="14.00" fill="#000000">GO:0005575</text>
<text text-anchor="middle" x="693.3766" y="-369" font-family="Times,serif" font-size="14.00" fill="#000000">cellular_component</text>
</g>
<!-- GO:0044425&#45;&gt;GO:0005575 -->
<g id="edge9" class="edge">
<title>GO:0044425&#45;&gt;GO:0005575</title>
<path fill="none" stroke="#000000" d="M282.5893,-312.4523C363.9836,-326.1534 525.1183,-353.2771 619.5765,-369.1773"/>
<polygon fill="#000000" stroke="#000000" points="619.187,-372.6608 629.6293,-370.8694 620.349,-365.758 619.187,-372.6608"/>
</g>
<!-- GO:0044464&#45;&gt;GO:0005575 -->
<g id="edge10" class="edge">
<title>GO:0044464&#45;&gt;GO:0005575</title>
<path fill="none" stroke="#000000" d="M558.3339,-323.3816C581.8791,-333.5322 610.966,-346.0719 636.1076,-356.9107"/>
<polygon fill="#000000" stroke="#000000" points="634.9618,-360.2281 645.5304,-360.973 637.7331,-353.8 634.9618,-360.2281"/>
</g>
<!-- GO:0043226 -->
<g id="node9" class="node">
<title>GO:0043226</title>
<polygon fill="#00ff00" stroke="#000000" points="844.9805,-324.6019 755.7727,-324.6019 755.7727,-283.3981 844.9805,-283.3981 844.9805,-324.6019"/>
<text text-anchor="middle" x="800.3766" y="-308.2" font-family="Times,serif" font-size="14.00" fill="#000000">GO:0043226</text>
<text text-anchor="middle" x="800.3766" y="-291.4" font-family="Times,serif" font-size="14.00" fill="#000000">organelle</text>
</g>
<!-- GO:0043226&#45;&gt;GO:0005575 -->
<g id="edge11" class="edge">
<title>GO:0043226&#45;&gt;GO:0005575</title>
<path fill="none" stroke="#000000" d="M771.7026,-324.7954C758.9891,-334.0156 743.8723,-344.9788 730.3259,-354.8031"/>
<polygon fill="#000000" stroke="#000000" points="728.1702,-352.0429 722.1298,-360.7472 732.2798,-357.7096 728.1702,-352.0429"/>
</g>
<!-- GO:0030054 -->
<g id="node10" class="node">
<title>GO:0030054</title>
<polygon fill="#00ffff" stroke="#000000" points="951.9805,-324.6019 862.7727,-324.6019 862.7727,-283.3981 951.9805,-283.3981 951.9805,-324.6019"/>
<text text-anchor="middle" x="907.3766" y="-308.2" font-family="Times,serif" font-size="14.00" fill="#000000">GO:0030054</text>
<text text-anchor="middle" x="907.3766" y="-291.4" font-family="Times,serif" font-size="14.00" fill="#000000">cell junction</text>
</g>
<!-- GO:0030054&#45;&gt;GO:0005575 -->
<g id="edge12" class="edge">
<title>GO:0030054&#45;&gt;GO:0005575</title>
<path fill="none" stroke="#000000" d="M862.5992,-321.6995C859.8206,-322.7586 857.0628,-323.7994 854.3766,-324.8 824.5559,-335.9081 791.4305,-347.6893 763.0172,-357.6253"/>
<polygon fill="#000000" stroke="#000000" points="761.8622,-354.3213 753.5736,-360.9205 764.1685,-360.9305 761.8622,-354.3213"/>
</g>
<!-- GO:0043227 -->
<g id="node11" class="node">
<title>GO:0043227</title>
<polygon fill="#00ffff" stroke="#000000" points="935.3374,-247.4014 807.4158,-247.4014 807.4158,-188.5986 935.3374,-188.5986 935.3374,-247.4014"/>
<text text-anchor="middle" x="871.3766" y="-230.6" font-family="Times,serif" font-size="14.00" fill="#000000">GO:0043227</text>
<text text-anchor="middle" x="871.3766" y="-213.8" font-family="Times,serif" font-size="14.00" fill="#000000">membrane&#45;bounded</text>
<text text-anchor="middle" x="871.3766" y="-197" font-family="Times,serif" font-size="14.00" fill="#000000">organelle</text>
</g>
<!-- GO:0043227&#45;&gt;GO:0043226 -->
<g id="edge13" class="edge">
<title>GO:0043227&#45;&gt;GO:0043226</title>
<path fill="none" stroke="#000000" d="M846.9424,-247.5963C839.5103,-256.5986 831.3591,-266.4719 823.9827,-275.4067"/>
<polygon fill="#000000" stroke="#000000" points="821.1365,-273.3567 817.469,-283.2966 826.5346,-277.8133 821.1365,-273.3567"/>
</g>
<!-- GO:0016020 -->
<g id="node12" class="node">
<title>GO:0016020</title>
<polygon fill="#ff0000" stroke="#000000" points="737.9805,-324.6019 648.7727,-324.6019 648.7727,-283.3981 737.9805,-283.3981 737.9805,-324.6019"/>
<text text-anchor="middle" x="693.3766" y="-308.2" font-family="Times,serif" font-size="14.00" fill="#000000">GO:0016020</text>
<text text-anchor="middle" x="693.3766" y="-291.4" font-family="Times,serif" font-size="14.00" fill="#000000">membrane</text>
</g>
<!-- GO:0016020&#45;&gt;GO:0005575 -->
<g id="edge14" class="edge">
<title>GO:0016020&#45;&gt;GO:0005575</title>
<path fill="none" stroke="#000000" d="M693.3766,-324.7954C693.3766,-332.7109 693.3766,-341.9109 693.3766,-350.5722"/>
<polygon fill="#000000" stroke="#000000" points="689.8767,-350.7472 693.3766,-360.7472 696.8767,-350.7473 689.8767,-350.7472"/>
</g>
<!-- GO:0097458 -->
<g id="node13" class="node">
<title>GO:0097458</title>
<polygon fill="#ff00ff" stroke="#000000" points="410.9805,-238.6019 321.7727,-238.6019 321.7727,-197.3981 410.9805,-197.3981 410.9805,-238.6019"/>
<text text-anchor="middle" x="366.3766" y="-222.2" font-family="Times,serif" font-size="14.00" fill="#000000">GO:0097458</text>
<text text-anchor="middle" x="366.3766" y="-205.4" font-family="Times,serif" font-size="14.00" fill="#000000">neuron part</text>
</g>
<!-- GO:0097458&#45;&gt;GO:0044464 -->
<g id="edge15" class="edge">
<title>GO:0097458&#45;&gt;GO:0044464</title>
<path fill="none" stroke="#000000" d="M401.9612,-238.8182C422.2745,-250.7022 447.9085,-265.699 469.466,-278.3108"/>
<polygon fill="#000000" stroke="#000000" points="467.7209,-281.3448 478.1197,-283.3735 471.2557,-275.3028 467.7209,-281.3448"/>
</g>
<!-- GO:0005886 -->
<g id="node14" class="node">
<title>GO:0005886</title>
<polygon fill="#ffa500" stroke="#000000" points="789.6174,-238.6019 671.1358,-238.6019 671.1358,-197.3981 789.6174,-197.3981 789.6174,-238.6019"/>
<text text-anchor="middle" x="730.3766" y="-222.2" font-family="Times,serif" font-size="14.00" fill="#000000">GO:0005886</text>
<text text-anchor="middle" x="730.3766" y="-205.4" font-family="Times,serif" font-size="14.00" fill="#000000">plasma membrane</text>
</g>
<!-- GO:0005886&#45;&gt;GO:0044464 -->
<g id="edge17" class="edge">
<title>GO:0005886&#45;&gt;GO:0044464</title>
<path fill="none" stroke="#000000" d="M682.207,-238.6302C675.2338,-241.5452 668.1321,-244.4752 661.3766,-247.2 630.5538,-259.6324 595.8771,-272.9749 567.8413,-283.6023"/>
<polygon fill="#000000" stroke="#000000" points="566.3337,-280.4304 558.2189,-287.2422 568.8104,-286.9777 566.3337,-280.4304"/>
</g>
<!-- GO:0005886&#45;&gt;GO:0016020 -->
<g id="edge16" class="edge">
<title>GO:0005886&#45;&gt;GO:0016020</title>
<path fill="none" stroke="#000000" d="M721.4199,-238.8182C716.8751,-249.3818 711.2722,-262.4048 706.2724,-274.0261"/>
<polygon fill="#000000" stroke="#000000" points="702.9879,-272.8043 702.2508,-283.3735 709.418,-275.5708 702.9879,-272.8043"/>
</g>
<!-- GO:0042995 -->
<g id="node15" class="node">
<title>GO:0042995</title>
<polygon fill="#ff00ff" stroke="#000000" points="525.8498,-238.6019 428.9034,-238.6019 428.9034,-197.3981 525.8498,-197.3981 525.8498,-238.6019"/>
<text text-anchor="middle" x="477.3766" y="-222.2" font-family="Times,serif" font-size="14.00" fill="#000000">GO:0042995</text>
<text text-anchor="middle" x="477.3766" y="-205.4" font-family="Times,serif" font-size="14.00" fill="#000000">cell projection</text>
</g>
<!-- GO:0042995&#45;&gt;GO:0044464 -->
<g id="edge18" class="edge">
<title>GO:0042995&#45;&gt;GO:0044464</title>
<path fill="none" stroke="#000000" d="M486.0912,-238.8182C490.5131,-249.3818 495.9646,-262.4048 500.8294,-274.0261"/>
<polygon fill="#000000" stroke="#000000" points="497.6523,-275.5006 504.7423,-283.3735 504.1094,-272.7976 497.6523,-275.5006"/>
</g>
<!-- GO:0044424 -->
<g id="node16" class="node">
<title>GO:0044424</title>
<polygon fill="#ffff00" stroke="#000000" points="652.775,-238.6019 543.9782,-238.6019 543.9782,-197.3981 652.775,-197.3981 652.775,-238.6019"/>
<text text-anchor="middle" x="598.3766" y="-222.2" font-family="Times,serif" font-size="14.00" fill="#000000">GO:0044424</text>
<text text-anchor="middle" x="598.3766" y="-205.4" font-family="Times,serif" font-size="14.00" fill="#000000">intracellular part</text>
</g>
<!-- GO:0044424&#45;&gt;GO:0044464 -->
<g id="edge19" class="edge">
<title>GO:0044424&#45;&gt;GO:0044464</title>
<path fill="none" stroke="#000000" d="M577.8005,-238.8182C566.7333,-250.0156 552.9348,-263.9764 540.9503,-276.1019"/>
<polygon fill="#000000" stroke="#000000" points="538.3036,-273.8008 533.7632,-283.3735 543.2822,-278.7216 538.3036,-273.8008"/>
</g>
</g>
</svg>
