<?xml version="1.0" encoding="UTF-8" standalone="no"?>
<!DOCTYPE svg PUBLIC "-//W3C//DTD SVG 1.1//EN"
 "http://www.w3.org/Graphics/SVG/1.1/DTD/svg11.dtd">
<!-- Generated by graphviz version 2.40.1 (20161225.0304)
 -->
<!-- Title: G Pages: 1 -->
<svg width="214pt" height="205pt"
 viewBox="0.00 0.00 214.00 204.80" xmlns="http://www.w3.org/2000/svg" xmlns:xlink="http://www.w3.org/1999/xlink">
<g id="graph0" class="graph" transform="scale(1 1) rotate(0) translate(4 200.8)">
<title>G</title>
<polygon fill="#ffffff" stroke="transparent" points="-4,4 -4,-200.8 210.0011,-200.8 210.0011,4 -4,4"/>
<!-- GO:0016020 -->
<g id="node1" class="node">
<title>GO:0016020</title>
<polygon fill="#00ff00" stroke="#000000" points="89.1558,-119.0019 -.052,-119.0019 -.052,-77.7981 89.1558,-77.7981 89.1558,-119.0019"/>
<text text-anchor="middle" x="44.5519" y="-102.6" font-family="Times,serif" font-size="14.00" fill="#000000">GO:0016020</text>
<text text-anchor="middle" x="44.5519" y="-85.8" font-family="Times,serif" font-size="14.00" fill="#000000">membrane</text>
</g>
<!-- GO:0005575 -->
<g id="node2" class="node">
<title>GO:0005575</title>
<polygon fill="#ffffff" stroke="#000000" points="161.2386,-196.6019 33.8652,-196.6019 33.8652,-155.3981 161.2386,-155.3981 161.2386,-196.6019"/>
<text text-anchor="middle" x="97.5519" y="-180.2" font-family="Times,serif" font-size="14.00" fill="#000000">GO:0005575</text>
<text text-anchor="middle" x="97.5519" y="-163.4" font-family="Times,serif" font-size="14.00" fill="#000000">cellular_component</text>
</g>
<!-- GO:0016020&#45;&gt;GO:0005575 -->
<g id="edge1" class="edge">
<title>GO:0016020&#45;&gt;GO:0005575</title>
<path fill="none" stroke="#000000" d="M58.7549,-119.1954C64.5176,-127.6328 71.2771,-137.5297 77.5252,-146.6778"/>
<polygon fill="#000000" stroke="#000000" points="74.7794,-148.8634 83.3097,-155.1472 80.5599,-144.9154 74.7794,-148.8634"/>
</g>
<!-- GO:0044464 -->
<g id="node3" class="node">
<title>GO:0044464</title>
<polygon fill="#ff0000" stroke="#000000" points="196.1558,-119.0019 106.948,-119.0019 106.948,-77.7981 196.1558,-77.7981 196.1558,-119.0019"/>
<text text-anchor="middle" x="151.5519" y="-102.6" font-family="Times,serif" font-size="14.00" fill="#000000">GO:0044464</text>
<text text-anchor="middle" x="151.5519" y="-85.8" font-family="Times,serif" font-size="14.00" fill="#000000">cell part</text>
</g>
<!-- GO:0044464&#45;&gt;GO:0005575 -->
<g id="edge2" class="edge">
<title>GO:0044464&#45;&gt;GO:0005575</title>
<path fill="none" stroke="#000000" d="M137.0809,-119.1954C131.2095,-127.6328 124.3225,-137.5297 117.9565,-146.6778"/>
<polygon fill="#000000" stroke="#000000" points="114.9019,-144.9398 112.0629,-155.1472 120.6477,-148.9382 114.9019,-144.9398"/>
</g>
<!-- GO:0044424 -->
<g id="node4" class="node">
<title>GO:0044424</title>
<polygon fill="#00ff00" stroke="#000000" points="205.9503,-41.4019 97.1535,-41.4019 97.1535,-.1981 205.9503,-.1981 205.9503,-41.4019"/>
<text text-anchor="middle" x="151.5519" y="-25" font-family="Times,serif" font-size="14.00" fill="#000000">GO:0044424</text>
<text text-anchor="middle" x="151.5519" y="-8.2" font-family="Times,serif" font-size="14.00" fill="#000000">intracellular part</text>
</g>
<!-- GO:0044424&#45;&gt;GO:0044464 -->
<g id="edge3" class="edge">
<title>GO:0044424&#45;&gt;GO:0044464</title>
<path fill="none" stroke="#000000" d="M151.5519,-41.5954C151.5519,-49.5109 151.5519,-58.7109 151.5519,-67.3722"/>
<polygon fill="#000000" stroke="#000000" points="148.052,-67.5472 151.5519,-77.5472 155.052,-67.5473 148.052,-67.5472"/>
</g>
</g>
</svg>
