<?xml version="1.0" encoding="UTF-8" standalone="no"?>
<!DOCTYPE svg PUBLIC "-//W3C//DTD SVG 1.1//EN"
 "http://www.w3.org/Graphics/SVG/1.1/DTD/svg11.dtd">
<!-- Generated by graphviz version 2.40.1 (20161225.0304)
 -->
<!-- Title: G Pages: 1 -->
<svg width="1516pt" height="538pt"
 viewBox="0.00 0.00 1516.10 538.40" xmlns="http://www.w3.org/2000/svg" xmlns:xlink="http://www.w3.org/1999/xlink">
<g id="graph0" class="graph" transform="scale(1 1) rotate(0) translate(4 534.4)">
<title>G</title>
<polygon fill="#ffffff" stroke="transparent" points="-4,4 -4,-534.4 1512.099,-534.4 1512.099,4 -4,4"/>
<!-- GO:0019899 -->
<g id="node1" class="node">
<title>GO:0019899</title>
<polygon fill="#00ffff" stroke="#000000" points="581.6416,-247.0019 476.01,-247.0019 476.01,-205.7981 581.6416,-205.7981 581.6416,-247.0019"/>
<text text-anchor="middle" x="528.8258" y="-230.6" font-family="Times,serif" font-size="14.00" fill="#000000">GO:0019899</text>
<text text-anchor="middle" x="528.8258" y="-213.8" font-family="Times,serif" font-size="14.00" fill="#000000">enzyme binding</text>
</g>
<!-- GO:0005515 -->
<g id="node2" class="node">
<title>GO:0005515</title>
<polygon fill="#ffffff" stroke="#000000" points="894.7634,-349.8019 792.8882,-349.8019 792.8882,-308.5981 894.7634,-308.5981 894.7634,-349.8019"/>
<text text-anchor="middle" x="843.8258" y="-333.4" font-family="Times,serif" font-size="14.00" fill="#000000">GO:0005515</text>
<text text-anchor="middle" x="843.8258" y="-316.6" font-family="Times,serif" font-size="14.00" fill="#000000">protein binding</text>
</g>
<!-- GO:0019899&#45;&gt;GO:0005515 -->
<g id="edge1" class="edge">
<title>GO:0019899&#45;&gt;GO:0005515</title>
<path fill="none" stroke="#000000" d="M559.1016,-247.1911C568.9041,-253.2502 580.0366,-259.4551 590.8258,-264 653.7238,-290.4954 730.0872,-308.3692 782.3575,-318.6031"/>
<polygon fill="#000000" stroke="#000000" points="781.9983,-322.098 792.4792,-320.5482 783.3195,-315.2238 781.9983,-322.098"/>
</g>
<!-- GO:0005488 -->
<g id="node3" class="node">
<title>GO:0005488</title>
<polygon fill="#ffffff" stroke="#000000" points="1098.4297,-444.2019 1009.2219,-444.2019 1009.2219,-402.9981 1098.4297,-402.9981 1098.4297,-444.2019"/>
<text text-anchor="middle" x="1053.8258" y="-427.8" font-family="Times,serif" font-size="14.00" fill="#000000">GO:0005488</text>
<text text-anchor="middle" x="1053.8258" y="-411" font-family="Times,serif" font-size="14.00" fill="#000000">binding</text>
</g>
<!-- GO:0005515&#45;&gt;GO:0005488 -->
<g id="edge2" class="edge">
<title>GO:0005515&#45;&gt;GO:0005488</title>
<path fill="none" stroke="#000000" d="M884.9566,-349.896C890.9277,-352.8013 897.0179,-355.7111 902.8258,-358.4 934.6039,-373.1123 970.5882,-388.6915 999.456,-400.9306"/>
<polygon fill="#000000" stroke="#000000" points="998.3832,-404.2769 1008.9568,-404.9471 1001.1089,-397.8294 998.3832,-404.2769"/>
</g>
<!-- GO:0003674 -->
<g id="node4" class="node">
<title>GO:0003674</title>
<polygon fill="#ffffff" stroke="#000000" points="379.4589,-530.2019 254.1927,-530.2019 254.1927,-488.9981 379.4589,-488.9981 379.4589,-530.2019"/>
<text text-anchor="middle" x="316.8258" y="-513.8" font-family="Times,serif" font-size="14.00" fill="#000000">GO:0003674</text>
<text text-anchor="middle" x="316.8258" y="-497" font-family="Times,serif" font-size="14.00" fill="#000000">molecular_function</text>
</g>
<!-- GO:0005488&#45;&gt;GO:0003674 -->
<g id="edge3" class="edge">
<title>GO:0005488&#45;&gt;GO:0003674</title>
<path fill="none" stroke="#000000" d="M1009.1081,-428.8181C886.0188,-443.1813 541.3255,-483.4033 389.8236,-501.0819"/>
<polygon fill="#000000" stroke="#000000" points="389.2183,-497.6287 379.6914,-502.2643 390.0297,-504.5816 389.2183,-497.6287"/>
</g>
<!-- GO:0004872 -->
<g id="node5" class="node">
<title>GO:0004872</title>
<polygon fill="#ffff00" stroke="#000000" points="165.6736,-349.8019 57.978,-349.8019 57.978,-308.5981 165.6736,-308.5981 165.6736,-349.8019"/>
<text text-anchor="middle" x="111.8258" y="-333.4" font-family="Times,serif" font-size="14.00" fill="#000000">GO:0004872</text>
<text text-anchor="middle" x="111.8258" y="-316.6" font-family="Times,serif" font-size="14.00" fill="#000000">receptor activity</text>
</g>
<!-- GO:0060089 -->
<g id="node6" class="node">
<title>GO:0060089</title>
<polygon fill="#ffffff" stroke="#000000" points="178.6024,-453.0014 45.0492,-453.0014 45.0492,-394.1986 178.6024,-394.1986 178.6024,-453.0014"/>
<text text-anchor="middle" x="111.8258" y="-436.2" font-family="Times,serif" font-size="14.00" fill="#000000">GO:0060089</text>
<text text-anchor="middle" x="111.8258" y="-419.4" font-family="Times,serif" font-size="14.00" fill="#000000">molecular transducer</text>
<text text-anchor="middle" x="111.8258" y="-402.6" font-family="Times,serif" font-size="14.00" fill="#000000">activity</text>
</g>
<!-- GO:0004872&#45;&gt;GO:0060089 -->
<g id="edge4" class="edge">
<title>GO:0004872&#45;&gt;GO:0060089</title>
<path fill="none" stroke="#000000" d="M111.8258,-350.1504C111.8258,-360.1492 111.8258,-372.4525 111.8258,-384.1106"/>
<polygon fill="#000000" stroke="#000000" points="108.3259,-384.1155 111.8258,-394.1155 115.3259,-384.1156 108.3259,-384.1155"/>
</g>
<!-- GO:0060089&#45;&gt;GO:0003674 -->
<g id="edge5" class="edge">
<title>GO:0060089&#45;&gt;GO:0003674</title>
<path fill="none" stroke="#000000" d="M178.6668,-451.6406C204.361,-462.4197 233.4705,-474.6314 258.3215,-485.0567"/>
<polygon fill="#000000" stroke="#000000" points="257.0459,-488.3171 267.6213,-488.9581 259.7539,-481.8621 257.0459,-488.3171"/>
</g>
<!-- GO:1901363 -->
<g id="node7" class="node">
<title>GO:1901363</title>
<polygon fill="#00ffff" stroke="#000000" points="1059.3364,-358.6014 912.3152,-358.6014 912.3152,-299.7986 1059.3364,-299.7986 1059.3364,-358.6014"/>
<text text-anchor="middle" x="985.8258" y="-341.8" font-family="Times,serif" font-size="14.00" fill="#000000">GO:1901363</text>
<text text-anchor="middle" x="985.8258" y="-325" font-family="Times,serif" font-size="14.00" fill="#000000">heterocyclic compound</text>
<text text-anchor="middle" x="985.8258" y="-308.2" font-family="Times,serif" font-size="14.00" fill="#000000">binding</text>
</g>
<!-- GO:1901363&#45;&gt;GO:0005488 -->
<g id="edge6" class="edge">
<title>GO:1901363&#45;&gt;GO:0005488</title>
<path fill="none" stroke="#000000" d="M1006.9687,-358.5513C1015.2328,-370.0238 1024.6854,-383.1462 1032.9259,-394.5861"/>
<polygon fill="#000000" stroke="#000000" points="1030.2667,-396.8826 1038.9515,-402.951 1035.9465,-392.7912 1030.2667,-396.8826"/>
</g>
<!-- GO:0043169 -->
<g id="node8" class="node">
<title>GO:0043169</title>
<polygon fill="#00ffff" stroke="#000000" points="1304.3187,-247.0019 1207.3329,-247.0019 1207.3329,-205.7981 1304.3187,-205.7981 1304.3187,-247.0019"/>
<text text-anchor="middle" x="1255.8258" y="-230.6" font-family="Times,serif" font-size="14.00" fill="#000000">GO:0043169</text>
<text text-anchor="middle" x="1255.8258" y="-213.8" font-family="Times,serif" font-size="14.00" fill="#000000">cation binding</text>
</g>
<!-- GO:0043167 -->
<g id="node9" class="node">
<title>GO:0043167</title>
<polygon fill="#ffffff" stroke="#000000" points="1166.4297,-349.8019 1077.2219,-349.8019 1077.2219,-308.5981 1166.4297,-308.5981 1166.4297,-349.8019"/>
<text text-anchor="middle" x="1121.8258" y="-333.4" font-family="Times,serif" font-size="14.00" fill="#000000">GO:0043167</text>
<text text-anchor="middle" x="1121.8258" y="-316.6" font-family="Times,serif" font-size="14.00" fill="#000000">ion binding</text>
</g>
<!-- GO:0043169&#45;&gt;GO:0043167 -->
<g id="edge7" class="edge">
<title>GO:0043169&#45;&gt;GO:0043167</title>
<path fill="none" stroke="#000000" d="M1228.7089,-247.2031C1208.0033,-263.0877 1179.3077,-285.102 1156.8625,-302.3211"/>
<polygon fill="#000000" stroke="#000000" points="1154.7062,-299.564 1148.9024,-308.4278 1158.9669,-305.1179 1154.7062,-299.564"/>
</g>
<!-- GO:0043167&#45;&gt;GO:0005488 -->
<g id="edge8" class="edge">
<title>GO:0043167&#45;&gt;GO:0005488</title>
<path fill="none" stroke="#000000" d="M1106.7344,-350.1504C1097.4025,-363.1054 1085.284,-379.9287 1074.9999,-394.2053"/>
<polygon fill="#000000" stroke="#000000" points="1071.88,-392.5484 1068.875,-402.7081 1077.5598,-396.6398 1071.88,-392.5484"/>
</g>
<!-- GO:0016740 -->
<g id="node10" class="node">
<title>GO:0016740</title>
<polygon fill="#00ffff" stroke="#000000" points="441.9375,-349.8019 319.7141,-349.8019 319.7141,-308.5981 441.9375,-308.5981 441.9375,-349.8019"/>
<text text-anchor="middle" x="380.8258" y="-333.4" font-family="Times,serif" font-size="14.00" fill="#000000">GO:0016740</text>
<text text-anchor="middle" x="380.8258" y="-316.6" font-family="Times,serif" font-size="14.00" fill="#000000">transferase activity</text>
</g>
<!-- GO:0003824 -->
<g id="node11" class="node">
<title>GO:0003824</title>
<polygon fill="#00ff00" stroke="#000000" points="435.2382,-444.2019 326.4134,-444.2019 326.4134,-402.9981 435.2382,-402.9981 435.2382,-444.2019"/>
<text text-anchor="middle" x="380.8258" y="-427.8" font-family="Times,serif" font-size="14.00" fill="#000000">GO:0003824</text>
<text text-anchor="middle" x="380.8258" y="-411" font-family="Times,serif" font-size="14.00" fill="#000000">catalytic activity</text>
</g>
<!-- GO:0016740&#45;&gt;GO:0003824 -->
<g id="edge9" class="edge">
<title>GO:0016740&#45;&gt;GO:0003824</title>
<path fill="none" stroke="#000000" d="M380.8258,-350.1504C380.8258,-362.6165 380.8258,-378.6645 380.8258,-392.5786"/>
<polygon fill="#000000" stroke="#000000" points="377.3259,-392.7081 380.8258,-402.7081 384.3259,-392.7082 377.3259,-392.7081"/>
</g>
<!-- GO:0003824&#45;&gt;GO:0003674 -->
<g id="edge10" class="edge">
<title>GO:0003824&#45;&gt;GO:0003674</title>
<path fill="none" stroke="#000000" d="M365.3332,-444.4182C357.2361,-455.2987 347.1972,-468.7884 338.3565,-480.6681"/>
<polygon fill="#000000" stroke="#000000" points="335.3381,-478.8616 332.1757,-488.9735 340.9537,-483.0407 335.3381,-478.8616"/>
</g>
<!-- GO:0004672 -->
<g id="node12" class="node">
<title>GO:0004672</title>
<polygon fill="#ff00ff" stroke="#000000" points="485.2388,-41.4019 344.4128,-41.4019 344.4128,-.1981 485.2388,-.1981 485.2388,-41.4019"/>
<text text-anchor="middle" x="414.8258" y="-25" font-family="Times,serif" font-size="14.00" fill="#000000">GO:0004672</text>
<text text-anchor="middle" x="414.8258" y="-8.2" font-family="Times,serif" font-size="14.00" fill="#000000">protein kinase activity</text>
</g>
<!-- GO:0016773 -->
<g id="node13" class="node">
<title>GO:0016773</title>
<polygon fill="#ffffff" stroke="#000000" points="417.1889,-152.9003 274.4627,-152.9003 274.4627,-77.4997 417.1889,-77.4997 417.1889,-152.9003"/>
<text text-anchor="middle" x="345.8258" y="-136.2" font-family="Times,serif" font-size="14.00" fill="#000000">GO:0016773</text>
<text text-anchor="middle" x="345.8258" y="-119.4" font-family="Times,serif" font-size="14.00" fill="#000000">phosphotransferase</text>
<text text-anchor="middle" x="345.8258" y="-102.6" font-family="Times,serif" font-size="14.00" fill="#000000">activity, alcohol group</text>
<text text-anchor="middle" x="345.8258" y="-85.8" font-family="Times,serif" font-size="14.00" fill="#000000">as acceptor</text>
</g>
<!-- GO:0004672&#45;&gt;GO:0016773 -->
<g id="edge11" class="edge">
<title>GO:0004672&#45;&gt;GO:0016773</title>
<path fill="none" stroke="#000000" d="M399.5125,-41.7504C393.495,-49.983 386.3356,-59.7779 379.2377,-69.4886"/>
<polygon fill="#000000" stroke="#000000" points="376.3918,-67.451 373.3164,-77.5897 382.0431,-71.5818 376.3918,-67.451"/>
</g>
<!-- GO:0016301 -->
<g id="node14" class="node">
<title>GO:0016301</title>
<polygon fill="#ffffff" stroke="#000000" points="532.5821,-135.8019 435.0695,-135.8019 435.0695,-94.5981 532.5821,-94.5981 532.5821,-135.8019"/>
<text text-anchor="middle" x="483.8258" y="-119.4" font-family="Times,serif" font-size="14.00" fill="#000000">GO:0016301</text>
<text text-anchor="middle" x="483.8258" y="-102.6" font-family="Times,serif" font-size="14.00" fill="#000000">kinase activity</text>
</g>
<!-- GO:0004672&#45;&gt;GO:0016301 -->
<g id="edge12" class="edge">
<title>GO:0004672&#45;&gt;GO:0016301</title>
<path fill="none" stroke="#000000" d="M430.1391,-41.7504C439.6976,-54.8276 452.1373,-71.8464 462.6351,-86.2087"/>
<polygon fill="#000000" stroke="#000000" points="459.8285,-88.3002 468.5553,-94.3081 465.4799,-84.1695 459.8285,-88.3002"/>
</g>
<!-- GO:0016772 -->
<g id="node15" class="node">
<title>GO:0016772</title>
<polygon fill="#ffffff" stroke="#000000" points="457.8336,-264.1003 303.818,-264.1003 303.818,-188.6997 457.8336,-188.6997 457.8336,-264.1003"/>
<text text-anchor="middle" x="380.8258" y="-247.4" font-family="Times,serif" font-size="14.00" fill="#000000">GO:0016772</text>
<text text-anchor="middle" x="380.8258" y="-230.6" font-family="Times,serif" font-size="14.00" fill="#000000">transferase activity,</text>
<text text-anchor="middle" x="380.8258" y="-213.8" font-family="Times,serif" font-size="14.00" fill="#000000">transferring phosphorus&#45;</text>
<text text-anchor="middle" x="380.8258" y="-197" font-family="Times,serif" font-size="14.00" fill="#000000">containing groups</text>
</g>
<!-- GO:0016773&#45;&gt;GO:0016772 -->
<g id="edge13" class="edge">
<title>GO:0016773&#45;&gt;GO:0016772</title>
<path fill="none" stroke="#000000" d="M357.6752,-152.8472C360.3264,-161.2706 363.1715,-170.3098 365.9284,-179.0689"/>
<polygon fill="#000000" stroke="#000000" points="362.6477,-180.3037 368.9886,-188.7915 369.3248,-178.202 362.6477,-180.3037"/>
</g>
<!-- GO:0016301&#45;&gt;GO:0016772 -->
<g id="edge14" class="edge">
<title>GO:0016301&#45;&gt;GO:0016772</title>
<path fill="none" stroke="#000000" d="M464.6937,-135.8553C452.8946,-148.5937 437.2835,-165.4476 422.7318,-181.1578"/>
<polygon fill="#000000" stroke="#000000" points="419.9223,-179.0404 415.6947,-188.7552 425.0578,-183.7972 419.9223,-179.0404"/>
</g>
<!-- GO:0016772&#45;&gt;GO:0016740 -->
<g id="edge15" class="edge">
<title>GO:0016772&#45;&gt;GO:0016740</title>
<path fill="none" stroke="#000000" d="M380.8258,-264.0952C380.8258,-275.3552 380.8258,-287.5618 380.8258,-298.3299"/>
<polygon fill="#000000" stroke="#000000" points="377.3259,-298.5302 380.8258,-308.5302 384.3259,-298.5302 377.3259,-298.5302"/>
</g>
<!-- GO:0042802 -->
<g id="node16" class="node">
<title>GO:0042802</title>
<polygon fill="#00ff00" stroke="#000000" points="753.47,-247.0019 600.1816,-247.0019 600.1816,-205.7981 753.47,-205.7981 753.47,-247.0019"/>
<text text-anchor="middle" x="676.8258" y="-230.6" font-family="Times,serif" font-size="14.00" fill="#000000">GO:0042802</text>
<text text-anchor="middle" x="676.8258" y="-213.8" font-family="Times,serif" font-size="14.00" fill="#000000">identical protein binding</text>
</g>
<!-- GO:0042802&#45;&gt;GO:0005515 -->
<g id="edge16" class="edge">
<title>GO:0042802&#45;&gt;GO:0005515</title>
<path fill="none" stroke="#000000" d="M710.6207,-247.2031C736.765,-263.2967 773.1308,-285.6824 801.2608,-302.9983"/>
<polygon fill="#000000" stroke="#000000" points="799.7305,-306.1662 810.0811,-308.4278 803.4,-300.2051 799.7305,-306.1662"/>
</g>
<!-- GO:0050839 -->
<g id="node17" class="node">
<title>GO:0050839</title>
<polygon fill="#00ffff" stroke="#000000" points="916.1165,-255.8014 771.5351,-255.8014 771.5351,-196.9986 916.1165,-196.9986 916.1165,-255.8014"/>
<text text-anchor="middle" x="843.8258" y="-239" font-family="Times,serif" font-size="14.00" fill="#000000">GO:0050839</text>
<text text-anchor="middle" x="843.8258" y="-222.2" font-family="Times,serif" font-size="14.00" fill="#000000">cell adhesion molecule</text>
<text text-anchor="middle" x="843.8258" y="-205.4" font-family="Times,serif" font-size="14.00" fill="#000000">binding</text>
</g>
<!-- GO:0050839&#45;&gt;GO:0005515 -->
<g id="edge17" class="edge">
<title>GO:0050839&#45;&gt;GO:0005515</title>
<path fill="none" stroke="#000000" d="M843.8258,-255.8584C843.8258,-269.1539 843.8258,-284.8608 843.8258,-298.3212"/>
<polygon fill="#000000" stroke="#000000" points="840.3259,-298.5456 843.8258,-308.5456 847.3259,-298.5457 840.3259,-298.5456"/>
</g>
<!-- GO:0005102 -->
<g id="node18" class="node">
<title>GO:0005102</title>
<polygon fill="#00ffff" stroke="#000000" points="1041.9627,-247.0019 933.6889,-247.0019 933.6889,-205.7981 1041.9627,-205.7981 1041.9627,-247.0019"/>
<text text-anchor="middle" x="987.8258" y="-230.6" font-family="Times,serif" font-size="14.00" fill="#000000">GO:0005102</text>
<text text-anchor="middle" x="987.8258" y="-213.8" font-family="Times,serif" font-size="14.00" fill="#000000">receptor binding</text>
</g>
<!-- GO:0005102&#45;&gt;GO:0005515 -->
<g id="edge18" class="edge">
<title>GO:0005102&#45;&gt;GO:0005515</title>
<path fill="none" stroke="#000000" d="M958.6853,-247.2031C936.3369,-263.1574 905.3267,-285.2952 881.1602,-302.5474"/>
<polygon fill="#000000" stroke="#000000" points="879.0283,-299.7689 872.923,-308.4278 883.0955,-305.4661 879.0283,-299.7689"/>
</g>
<!-- GO:0097159 -->
<g id="node19" class="node">
<title>GO:0097159</title>
<polygon fill="#00ffff" stroke="#000000" points="1341.3372,-358.6014 1184.3144,-358.6014 1184.3144,-299.7986 1341.3372,-299.7986 1341.3372,-358.6014"/>
<text text-anchor="middle" x="1262.8258" y="-341.8" font-family="Times,serif" font-size="14.00" fill="#000000">GO:0097159</text>
<text text-anchor="middle" x="1262.8258" y="-325" font-family="Times,serif" font-size="14.00" fill="#000000">organic cyclic compound</text>
<text text-anchor="middle" x="1262.8258" y="-308.2" font-family="Times,serif" font-size="14.00" fill="#000000">binding</text>
</g>
<!-- GO:0097159&#45;&gt;GO:0005488 -->
<g id="edge19" class="edge">
<title>GO:0097159&#45;&gt;GO:0005488</title>
<path fill="none" stroke="#000000" d="M1198.1282,-358.4223C1169.2804,-371.4521 1135.6748,-386.6309 1108.1554,-399.0607"/>
<polygon fill="#000000" stroke="#000000" points="1106.3659,-396.0285 1098.6931,-403.3346 1109.2474,-402.4079 1106.3659,-396.0285"/>
</g>
<!-- GO:0097367 -->
<g id="node20" class="node">
<title>GO:0097367</title>
<polygon fill="#ff00ff" stroke="#000000" points="1507.8729,-358.6014 1359.7787,-358.6014 1359.7787,-299.7986 1507.8729,-299.7986 1507.8729,-358.6014"/>
<text text-anchor="middle" x="1433.8258" y="-341.8" font-family="Times,serif" font-size="14.00" fill="#000000">GO:0097367</text>
<text text-anchor="middle" x="1433.8258" y="-325" font-family="Times,serif" font-size="14.00" fill="#000000">carbohydrate derivative</text>
<text text-anchor="middle" x="1433.8258" y="-308.2" font-family="Times,serif" font-size="14.00" fill="#000000">binding</text>
</g>
<!-- GO:0097367&#45;&gt;GO:0005488 -->
<g id="edge20" class="edge">
<title>GO:0097367&#45;&gt;GO:0005488</title>
<path fill="none" stroke="#000000" d="M1359.7582,-355.7616C1356.7502,-356.6803 1353.7643,-357.564 1350.8258,-358.4 1267.3085,-382.1621 1168.5038,-402.3055 1108.5348,-413.6707"/>
<polygon fill="#000000" stroke="#000000" points="1107.7075,-410.2648 1098.5274,-415.554 1109.0022,-417.1441 1107.7075,-410.2648"/>
</g>
<!-- GO:0004888 -->
<g id="node21" class="node">
<title>GO:0004888</title>
<polygon fill="#00ffff" stroke="#000000" points="222.4529,-144.6014 65.1987,-144.6014 65.1987,-85.7986 222.4529,-85.7986 222.4529,-144.6014"/>
<text text-anchor="middle" x="143.8258" y="-127.8" font-family="Times,serif" font-size="14.00" fill="#000000">GO:0004888</text>
<text text-anchor="middle" x="143.8258" y="-111" font-family="Times,serif" font-size="14.00" fill="#000000">transmembrane signaling</text>
<text text-anchor="middle" x="143.8258" y="-94.2" font-family="Times,serif" font-size="14.00" fill="#000000">receptor activity</text>
</g>
<!-- GO:0038023 -->
<g id="node22" class="node">
<title>GO:0038023</title>
<polygon fill="#ffffff" stroke="#000000" points="286.0128,-255.8014 169.6388,-255.8014 169.6388,-196.9986 286.0128,-196.9986 286.0128,-255.8014"/>
<text text-anchor="middle" x="227.8258" y="-239" font-family="Times,serif" font-size="14.00" fill="#000000">GO:0038023</text>
<text text-anchor="middle" x="227.8258" y="-222.2" font-family="Times,serif" font-size="14.00" fill="#000000">signaling receptor</text>
<text text-anchor="middle" x="227.8258" y="-205.4" font-family="Times,serif" font-size="14.00" fill="#000000">activity</text>
</g>
<!-- GO:0004888&#45;&gt;GO:0038023 -->
<g id="edge21" class="edge">
<title>GO:0004888&#45;&gt;GO:0038023</title>
<path fill="none" stroke="#000000" d="M165.8958,-144.4165C176.1356,-157.972 188.4329,-174.2513 199.3612,-188.7183"/>
<polygon fill="#000000" stroke="#000000" points="196.7912,-191.1229 205.6115,-196.9926 202.3767,-186.9036 196.7912,-191.1229"/>
</g>
<!-- GO:0099600 -->
<g id="node23" class="node">
<title>GO:0099600</title>
<polygon fill="#ffffff" stroke="#000000" points="151.4778,-255.8014 .1738,-255.8014 .1738,-196.9986 151.4778,-196.9986 151.4778,-255.8014"/>
<text text-anchor="middle" x="75.8258" y="-239" font-family="Times,serif" font-size="14.00" fill="#000000">GO:0099600</text>
<text text-anchor="middle" x="75.8258" y="-222.2" font-family="Times,serif" font-size="14.00" fill="#000000">transmembrane receptor</text>
<text text-anchor="middle" x="75.8258" y="-205.4" font-family="Times,serif" font-size="14.00" fill="#000000">activity</text>
</g>
<!-- GO:0004888&#45;&gt;GO:0099600 -->
<g id="edge22" class="edge">
<title>GO:0004888&#45;&gt;GO:0099600</title>
<path fill="none" stroke="#000000" d="M125.9596,-144.4165C117.7477,-157.8453 107.9012,-173.9472 99.1169,-188.3122"/>
<polygon fill="#000000" stroke="#000000" points="96.0398,-186.6353 93.8088,-196.9926 102.0118,-190.2872 96.0398,-186.6353"/>
</g>
<!-- GO:0038023&#45;&gt;GO:0004872 -->
<g id="edge23" class="edge">
<title>GO:0038023&#45;&gt;GO:0004872</title>
<path fill="none" stroke="#000000" d="M194.5849,-255.8584C178.2452,-270.3387 158.678,-287.6792 142.6733,-301.8628"/>
<polygon fill="#000000" stroke="#000000" points="140.295,-299.2938 135.1323,-308.5456 144.9377,-304.5326 140.295,-299.2938"/>
</g>
<!-- GO:0004871 -->
<g id="node24" class="node">
<title>GO:0004871</title>
<polygon fill="#ffffff" stroke="#000000" points="308.5667,-453.0014 197.0849,-453.0014 197.0849,-394.1986 308.5667,-394.1986 308.5667,-453.0014"/>
<text text-anchor="middle" x="252.8258" y="-436.2" font-family="Times,serif" font-size="14.00" fill="#000000">GO:0004871</text>
<text text-anchor="middle" x="252.8258" y="-419.4" font-family="Times,serif" font-size="14.00" fill="#000000">signal transducer</text>
<text text-anchor="middle" x="252.8258" y="-402.6" font-family="Times,serif" font-size="14.00" fill="#000000">activity</text>
</g>
<!-- GO:0038023&#45;&gt;GO:0004871 -->
<g id="edge24" class="edge">
<title>GO:0038023&#45;&gt;GO:0004871</title>
<path fill="none" stroke="#000000" d="M231.5686,-255.9228C235.889,-290.0024 243.0144,-346.2074 247.8114,-384.0461"/>
<polygon fill="#000000" stroke="#000000" points="244.3684,-384.7175 249.0983,-394.1978 251.3128,-383.837 244.3684,-384.7175"/>
</g>
<!-- GO:0099600&#45;&gt;GO:0004872 -->
<g id="edge25" class="edge">
<title>GO:0099600&#45;&gt;GO:0004872</title>
<path fill="none" stroke="#000000" d="M86.142,-255.8584C90.8441,-269.2856 96.4075,-285.1721 101.152,-298.7204"/>
<polygon fill="#000000" stroke="#000000" points="97.9842,-300.2644 104.5928,-308.5456 104.5909,-297.9508 97.9842,-300.2644"/>
</g>
<!-- GO:0004871&#45;&gt;GO:0003674 -->
<g id="edge26" class="edge">
<title>GO:0004871&#45;&gt;GO:0003674</title>
<path fill="none" stroke="#000000" d="M274.851,-453.1963C281.482,-462.1068 288.748,-471.8705 295.3433,-480.7329"/>
<polygon fill="#000000" stroke="#000000" points="292.6406,-482.9638 301.4186,-488.8966 298.2563,-478.7846 292.6406,-482.9638"/>
</g>
<!-- GO:0046983 -->
<g id="node25" class="node">
<title>GO:0046983</title>
<polygon fill="#00ff00" stroke="#000000" points="1189.7396,-255.8014 1059.912,-255.8014 1059.912,-196.9986 1189.7396,-196.9986 1189.7396,-255.8014"/>
<text text-anchor="middle" x="1124.8258" y="-239" font-family="Times,serif" font-size="14.00" fill="#000000">GO:0046983</text>
<text text-anchor="middle" x="1124.8258" y="-222.2" font-family="Times,serif" font-size="14.00" fill="#000000">protein dimerization</text>
<text text-anchor="middle" x="1124.8258" y="-205.4" font-family="Times,serif" font-size="14.00" fill="#000000">activity</text>
</g>
<!-- GO:0046983&#45;&gt;GO:0005515 -->
<g id="edge27" class="edge">
<title>GO:0046983&#45;&gt;GO:0005515</title>
<path fill="none" stroke="#000000" d="M1070.5028,-255.7766C1063.9692,-258.7779 1057.3131,-261.5998 1050.8258,-264 987.3361,-287.4898 966.4384,-276.8451 902.8258,-300 899.2885,-301.2876 895.6847,-302.7272 892.0901,-304.2585"/>
<polygon fill="#000000" stroke="#000000" points="890.3463,-301.2043 882.6486,-308.4842 893.2059,-307.5936 890.3463,-301.2043"/>
</g>
</g>
</svg>
