<?xml version="1.0" encoding="UTF-8" standalone="no"?>
<!DOCTYPE svg PUBLIC "-//W3C//DTD SVG 1.1//EN"
 "http://www.w3.org/Graphics/SVG/1.1/DTD/svg11.dtd">
<!-- Generated by graphviz version 2.40.1 (20161225.0304)
 -->
<!-- Title: G Pages: 1 -->
<svg width="493pt" height="660pt"
 viewBox="0.00 0.00 493.31 660.00" xmlns="http://www.w3.org/2000/svg" xmlns:xlink="http://www.w3.org/1999/xlink">
<g id="graph0" class="graph" transform="scale(1 1) rotate(0) translate(4 656)">
<title>G</title>
<polygon fill="#ffffff" stroke="transparent" points="-4,4 -4,-656 489.3139,-656 489.3139,4 -4,4"/>
<!-- GO:0043234 -->
<g id="node1" class="node">
<title>GO:0043234</title>
<polygon fill="#ff0000" stroke="#000000" points="133.2009,-496.6019 25.4661,-496.6019 25.4661,-455.3981 133.2009,-455.3981 133.2009,-496.6019"/>
<text text-anchor="middle" x="79.3335" y="-480.2" font-family="Times,serif" font-size="14.00" fill="#000000">GO:0043234</text>
<text text-anchor="middle" x="79.3335" y="-463.4" font-family="Times,serif" font-size="14.00" fill="#000000">protein complex</text>
</g>
<!-- GO:0032991 -->
<g id="node2" class="node">
<title>GO:0032991</title>
<polygon fill="#ffffff" stroke="#000000" points="158.5008,-574.2019 .1662,-574.2019 .1662,-532.9981 158.5008,-532.9981 158.5008,-574.2019"/>
<text text-anchor="middle" x="79.3335" y="-557.8" font-family="Times,serif" font-size="14.00" fill="#000000">GO:0032991</text>
<text text-anchor="middle" x="79.3335" y="-541" font-family="Times,serif" font-size="14.00" fill="#000000">macromolecular complex</text>
</g>
<!-- GO:0043234&#45;&gt;GO:0032991 -->
<g id="edge1" class="edge">
<title>GO:0043234&#45;&gt;GO:0032991</title>
<path fill="none" stroke="#000000" d="M79.3335,-496.7954C79.3335,-504.7109 79.3335,-513.9109 79.3335,-522.5722"/>
<polygon fill="#000000" stroke="#000000" points="75.8336,-522.7472 79.3335,-532.7472 82.8336,-522.7473 75.8336,-522.7472"/>
</g>
<!-- GO:0005575 -->
<g id="node3" class="node">
<title>GO:0005575</title>
<polygon fill="#ffffff" stroke="#000000" points="285.0202,-651.8019 157.6468,-651.8019 157.6468,-610.5981 285.0202,-610.5981 285.0202,-651.8019"/>
<text text-anchor="middle" x="221.3335" y="-635.4" font-family="Times,serif" font-size="14.00" fill="#000000">GO:0005575</text>
<text text-anchor="middle" x="221.3335" y="-618.6" font-family="Times,serif" font-size="14.00" fill="#000000">cellular_component</text>
</g>
<!-- GO:0032991&#45;&gt;GO:0005575 -->
<g id="edge2" class="edge">
<title>GO:0032991&#45;&gt;GO:0005575</title>
<path fill="none" stroke="#000000" d="M117.3869,-574.3954C134.8957,-583.9635 155.8391,-595.4087 174.324,-605.5103"/>
<polygon fill="#000000" stroke="#000000" points="172.7215,-608.623 183.1751,-610.3472 176.0783,-602.4804 172.7215,-608.623"/>
</g>
<!-- GO:0005634 -->
<g id="node4" class="node">
<title>GO:0005634</title>
<polygon fill="#00ffff" stroke="#000000" points="336.9374,-230.2019 247.7296,-230.2019 247.7296,-188.9981 336.9374,-188.9981 336.9374,-230.2019"/>
<text text-anchor="middle" x="292.3335" y="-213.8" font-family="Times,serif" font-size="14.00" fill="#000000">GO:0005634</text>
<text text-anchor="middle" x="292.3335" y="-197" font-family="Times,serif" font-size="14.00" fill="#000000">nucleus</text>
</g>
<!-- GO:0043231 -->
<g id="node5" class="node">
<title>GO:0043231</title>
<polygon fill="#00ffff" stroke="#000000" points="367.7123,-325.0014 216.9547,-325.0014 216.9547,-266.1986 367.7123,-266.1986 367.7123,-325.0014"/>
<text text-anchor="middle" x="292.3335" y="-308.2" font-family="Times,serif" font-size="14.00" fill="#000000">GO:0043231</text>
<text text-anchor="middle" x="292.3335" y="-291.4" font-family="Times,serif" font-size="14.00" fill="#000000">intracellular membrane&#45;</text>
<text text-anchor="middle" x="292.3335" y="-274.6" font-family="Times,serif" font-size="14.00" fill="#000000">bounded organelle</text>
</g>
<!-- GO:0005634&#45;&gt;GO:0043231 -->
<g id="edge3" class="edge">
<title>GO:0005634&#45;&gt;GO:0043231</title>
<path fill="none" stroke="#000000" d="M292.3335,-230.4182C292.3335,-238.1358 292.3335,-247.1662 292.3335,-256.0036"/>
<polygon fill="#000000" stroke="#000000" points="288.8336,-256.1991 292.3335,-266.1991 295.8336,-256.1992 288.8336,-256.1991"/>
</g>
<!-- GO:0043229 -->
<g id="node6" class="node">
<title>GO:0043229</title>
<polygon fill="#00ff00" stroke="#000000" points="339.0519,-410.6019 199.6151,-410.6019 199.6151,-369.3981 339.0519,-369.3981 339.0519,-410.6019"/>
<text text-anchor="middle" x="269.3335" y="-394.2" font-family="Times,serif" font-size="14.00" fill="#000000">GO:0043229</text>
<text text-anchor="middle" x="269.3335" y="-377.4" font-family="Times,serif" font-size="14.00" fill="#000000">intracellular organelle</text>
</g>
<!-- GO:0043231&#45;&gt;GO:0043229 -->
<g id="edge4" class="edge">
<title>GO:0043231&#45;&gt;GO:0043229</title>
<path fill="none" stroke="#000000" d="M285.1822,-324.9513C282.4966,-335.9739 279.44,-348.5196 276.7323,-359.6326"/>
<polygon fill="#000000" stroke="#000000" points="273.3313,-358.8067 274.3645,-369.351 280.1323,-360.4637 273.3313,-358.8067"/>
</g>
<!-- GO:0043227 -->
<g id="node7" class="node">
<title>GO:0043227</title>
<polygon fill="#ffffff" stroke="#000000" points="485.2943,-419.4014 357.3727,-419.4014 357.3727,-360.5986 485.2943,-360.5986 485.2943,-419.4014"/>
<text text-anchor="middle" x="421.3335" y="-402.6" font-family="Times,serif" font-size="14.00" fill="#000000">GO:0043227</text>
<text text-anchor="middle" x="421.3335" y="-385.8" font-family="Times,serif" font-size="14.00" fill="#000000">membrane&#45;bounded</text>
<text text-anchor="middle" x="421.3335" y="-369" font-family="Times,serif" font-size="14.00" fill="#000000">organelle</text>
</g>
<!-- GO:0043231&#45;&gt;GO:0043227 -->
<g id="edge5" class="edge">
<title>GO:0043231&#45;&gt;GO:0043227</title>
<path fill="none" stroke="#000000" d="M332.4428,-324.9513C345.3051,-334.3637 359.6851,-344.8867 373.0678,-354.68"/>
<polygon fill="#000000" stroke="#000000" points="371.1121,-357.5858 381.249,-360.6669 375.2459,-351.9368 371.1121,-357.5858"/>
</g>
<!-- GO:0044424 -->
<g id="node8" class="node">
<title>GO:0044424</title>
<polygon fill="#ff0000" stroke="#000000" points="267.7319,-496.6019 158.9351,-496.6019 158.9351,-455.3981 267.7319,-455.3981 267.7319,-496.6019"/>
<text text-anchor="middle" x="213.3335" y="-480.2" font-family="Times,serif" font-size="14.00" fill="#000000">GO:0044424</text>
<text text-anchor="middle" x="213.3335" y="-463.4" font-family="Times,serif" font-size="14.00" fill="#000000">intracellular part</text>
</g>
<!-- GO:0043229&#45;&gt;GO:0044424 -->
<g id="edge6" class="edge">
<title>GO:0043229&#45;&gt;GO:0044424</title>
<path fill="none" stroke="#000000" d="M255.7775,-410.8182C248.7613,-421.593 240.0789,-434.9267 232.3985,-446.7216"/>
<polygon fill="#000000" stroke="#000000" points="229.2885,-445.0836 226.7647,-455.3735 235.1545,-448.9034 229.2885,-445.0836"/>
</g>
<!-- GO:0043226 -->
<g id="node9" class="node">
<title>GO:0043226</title>
<polygon fill="#ffffff" stroke="#000000" points="374.9374,-496.6019 285.7296,-496.6019 285.7296,-455.3981 374.9374,-455.3981 374.9374,-496.6019"/>
<text text-anchor="middle" x="330.3335" y="-480.2" font-family="Times,serif" font-size="14.00" fill="#000000">GO:0043226</text>
<text text-anchor="middle" x="330.3335" y="-463.4" font-family="Times,serif" font-size="14.00" fill="#000000">organelle</text>
</g>
<!-- GO:0043229&#45;&gt;GO:0043226 -->
<g id="edge7" class="edge">
<title>GO:0043229&#45;&gt;GO:0043226</title>
<path fill="none" stroke="#000000" d="M284.0999,-410.8182C291.8174,-421.6987 301.3857,-435.1884 309.812,-447.0681"/>
<polygon fill="#000000" stroke="#000000" points="307.0628,-449.2419 315.7031,-455.3735 312.7724,-445.1921 307.0628,-449.2419"/>
</g>
<!-- GO:0043227&#45;&gt;GO:0043226 -->
<g id="edge8" class="edge">
<title>GO:0043227&#45;&gt;GO:0043226</title>
<path fill="none" stroke="#000000" d="M390.271,-419.3558C380.4391,-428.6474 369.6039,-438.8873 359.8813,-448.0757"/>
<polygon fill="#000000" stroke="#000000" points="357.2269,-445.7686 352.363,-455.1809 362.0349,-450.8561 357.2269,-445.7686"/>
</g>
<!-- GO:0044464 -->
<g id="node10" class="node">
<title>GO:0044464</title>
<polygon fill="#ffffff" stroke="#000000" points="265.9374,-574.2019 176.7296,-574.2019 176.7296,-532.9981 265.9374,-532.9981 265.9374,-574.2019"/>
<text text-anchor="middle" x="221.3335" y="-557.8" font-family="Times,serif" font-size="14.00" fill="#000000">GO:0044464</text>
<text text-anchor="middle" x="221.3335" y="-541" font-family="Times,serif" font-size="14.00" fill="#000000">cell part</text>
</g>
<!-- GO:0044424&#45;&gt;GO:0044464 -->
<g id="edge9" class="edge">
<title>GO:0044424&#45;&gt;GO:0044464</title>
<path fill="none" stroke="#000000" d="M215.4774,-496.7954C216.2934,-504.7109 217.2418,-513.9109 218.1348,-522.5722"/>
<polygon fill="#000000" stroke="#000000" points="214.6766,-523.1589 219.1837,-532.7472 221.6397,-522.441 214.6766,-523.1589"/>
</g>
<!-- GO:0043226&#45;&gt;GO:0005575 -->
<g id="edge10" class="edge">
<title>GO:0043226&#45;&gt;GO:0005575</title>
<path fill="none" stroke="#000000" d="M320.5776,-496.8852C310.5363,-517.4556 293.7894,-549.3464 275.3335,-574.4 268.0308,-584.3132 259.1435,-594.3154 250.7044,-603.1049"/>
<polygon fill="#000000" stroke="#000000" points="247.9662,-600.8978 243.4546,-610.4841 252.9595,-605.8036 247.9662,-600.8978"/>
</g>
<!-- GO:0044464&#45;&gt;GO:0005575 -->
<g id="edge11" class="edge">
<title>GO:0044464&#45;&gt;GO:0005575</title>
<path fill="none" stroke="#000000" d="M221.3335,-574.3954C221.3335,-582.3109 221.3335,-591.5109 221.3335,-600.1722"/>
<polygon fill="#000000" stroke="#000000" points="217.8336,-600.3472 221.3335,-610.3472 224.8336,-600.3473 217.8336,-600.3472"/>
</g>
<!-- GO:0031463 -->
<g id="node11" class="node">
<title>GO:0031463</title>
<polygon fill="#ff0000" stroke="#000000" points="184.4942,-58.6014 48.1728,-58.6014 48.1728,.2014 184.4942,.2014 184.4942,-58.6014"/>
<text text-anchor="middle" x="116.3335" y="-41.8" font-family="Times,serif" font-size="14.00" fill="#000000">GO:0031463</text>
<text text-anchor="middle" x="116.3335" y="-25" font-family="Times,serif" font-size="14.00" fill="#000000">Cul3&#45;RING ubiquitin</text>
<text text-anchor="middle" x="116.3335" y="-8.2" font-family="Times,serif" font-size="14.00" fill="#000000">ligase complex</text>
</g>
<!-- GO:0031461 -->
<g id="node12" class="node">
<title>GO:0031461</title>
<polygon fill="#ffffff" stroke="#000000" points="186.6534,-153.0014 46.0136,-153.0014 46.0136,-94.1986 186.6534,-94.1986 186.6534,-153.0014"/>
<text text-anchor="middle" x="116.3335" y="-136.2" font-family="Times,serif" font-size="14.00" fill="#000000">GO:0031461</text>
<text text-anchor="middle" x="116.3335" y="-119.4" font-family="Times,serif" font-size="14.00" fill="#000000">cullin&#45;RING ubiquitin</text>
<text text-anchor="middle" x="116.3335" y="-102.6" font-family="Times,serif" font-size="14.00" fill="#000000">ligase complex</text>
</g>
<!-- GO:0031463&#45;&gt;GO:0031461 -->
<g id="edge12" class="edge">
<title>GO:0031463&#45;&gt;GO:0031461</title>
<path fill="none" stroke="#000000" d="M116.3335,-58.5513C116.3335,-66.6318 116.3335,-75.5308 116.3335,-84.0838"/>
<polygon fill="#000000" stroke="#000000" points="112.8336,-84.2668 116.3335,-94.2669 119.8336,-84.2669 112.8336,-84.2668"/>
</g>
<!-- GO:0000151 -->
<g id="node13" class="node">
<title>GO:0000151</title>
<polygon fill="#ffffff" stroke="#000000" points="193.7619,-230.2019 38.9051,-230.2019 38.9051,-188.9981 193.7619,-188.9981 193.7619,-230.2019"/>
<text text-anchor="middle" x="116.3335" y="-213.8" font-family="Times,serif" font-size="14.00" fill="#000000">GO:0000151</text>
<text text-anchor="middle" x="116.3335" y="-197" font-family="Times,serif" font-size="14.00" fill="#000000">ubiquitin ligase complex</text>
</g>
<!-- GO:0031461&#45;&gt;GO:0000151 -->
<g id="edge13" class="edge">
<title>GO:0031461&#45;&gt;GO:0000151</title>
<path fill="none" stroke="#000000" d="M116.3335,-153.1963C116.3335,-161.4638 116.3335,-170.4657 116.3335,-178.8008"/>
<polygon fill="#000000" stroke="#000000" points="112.8336,-178.8965 116.3335,-188.8966 119.8336,-178.8966 112.8336,-178.8965"/>
</g>
<!-- GO:0000151&#45;&gt;GO:0044424 -->
<g id="edge14" class="edge">
<title>GO:0000151&#45;&gt;GO:0044424</title>
<path fill="none" stroke="#000000" d="M131.7139,-230.2799C138.8418,-240.677 146.9139,-253.7344 152.3335,-266.4 179.8634,-330.7371 168.7027,-352.6473 190.3335,-419.2 193.2007,-428.0215 196.7827,-437.4226 200.26,-445.9853"/>
<polygon fill="#000000" stroke="#000000" points="197.0284,-447.3296 204.0979,-455.2209 203.4925,-444.6434 197.0284,-447.3296"/>
</g>
<!-- GO:1990234 -->
<g id="node14" class="node">
<title>GO:1990234</title>
<polygon fill="#ffffff" stroke="#000000" points="143.6643,-316.2019 15.0027,-316.2019 15.0027,-274.9981 143.6643,-274.9981 143.6643,-316.2019"/>
<text text-anchor="middle" x="79.3335" y="-299.8" font-family="Times,serif" font-size="14.00" fill="#000000">GO:1990234</text>
<text text-anchor="middle" x="79.3335" y="-283" font-family="Times,serif" font-size="14.00" fill="#000000">transferase complex</text>
</g>
<!-- GO:0000151&#45;&gt;GO:1990234 -->
<g id="edge15" class="edge">
<title>GO:0000151&#45;&gt;GO:1990234</title>
<path fill="none" stroke="#000000" d="M107.3768,-230.4182C102.832,-240.9818 97.2291,-254.0048 92.2293,-265.6261"/>
<polygon fill="#000000" stroke="#000000" points="88.9448,-264.4043 88.2077,-274.9735 95.3749,-267.1708 88.9448,-264.4043"/>
</g>
<!-- GO:1902494 -->
<g id="node15" class="node">
<title>GO:1902494</title>
<polygon fill="#ffffff" stroke="#000000" points="136.9648,-410.6019 21.7022,-410.6019 21.7022,-369.3981 136.9648,-369.3981 136.9648,-410.6019"/>
<text text-anchor="middle" x="79.3335" y="-394.2" font-family="Times,serif" font-size="14.00" fill="#000000">GO:1902494</text>
<text text-anchor="middle" x="79.3335" y="-377.4" font-family="Times,serif" font-size="14.00" fill="#000000">catalytic complex</text>
</g>
<!-- GO:1990234&#45;&gt;GO:1902494 -->
<g id="edge16" class="edge">
<title>GO:1990234&#45;&gt;GO:1902494</title>
<path fill="none" stroke="#000000" d="M79.3335,-316.5504C79.3335,-329.0165 79.3335,-345.0645 79.3335,-358.9786"/>
<polygon fill="#000000" stroke="#000000" points="75.8336,-359.1081 79.3335,-369.1081 82.8336,-359.1082 75.8336,-359.1081"/>
</g>
<!-- GO:1902494&#45;&gt;GO:0043234 -->
<g id="edge17" class="edge">
<title>GO:1902494&#45;&gt;GO:0043234</title>
<path fill="none" stroke="#000000" d="M79.3335,-410.8182C79.3335,-421.1705 79.3335,-433.8848 79.3335,-445.3271"/>
<polygon fill="#000000" stroke="#000000" points="75.8336,-445.3735 79.3335,-455.3735 82.8336,-445.3735 75.8336,-445.3735"/>
</g>
</g>
</svg>
