<?xml version="1.0" encoding="UTF-8" standalone="no"?>
<!DOCTYPE svg PUBLIC "-//W3C//DTD SVG 1.1//EN"
 "http://www.w3.org/Graphics/SVG/1.1/DTD/svg11.dtd">
<!-- Generated by graphviz version 2.40.1 (20161225.0304)
 -->
<!-- Title: G Pages: 1 -->
<svg width="381pt" height="471pt"
 viewBox="0.00 0.00 381.10 471.20" xmlns="http://www.w3.org/2000/svg" xmlns:xlink="http://www.w3.org/1999/xlink">
<g id="graph0" class="graph" transform="scale(1 1) rotate(0) translate(4 467.2)">
<title>G</title>
<polygon fill="#ffffff" stroke="transparent" points="-4,4 -4,-467.2 377.1038,-467.2 377.1038,4 -4,4"/>
<!-- GO:0042627 -->
<g id="node1" class="node">
<title>GO:0042627</title>
<polygon fill="#ff0000" stroke="#000000" points="89.1558,-49.8019 -.052,-49.8019 -.052,-8.5981 89.1558,-8.5981 89.1558,-49.8019"/>
<text text-anchor="middle" x="44.5519" y="-33.4" font-family="Times,serif" font-size="14.00" fill="#000000">GO:0042627</text>
<text text-anchor="middle" x="44.5519" y="-16.6" font-family="Times,serif" font-size="14.00" fill="#000000">chylomicron</text>
</g>
<!-- GO:0034358 -->
<g id="node2" class="node">
<title>GO:0034358</title>
<polygon fill="#ffffff" stroke="#000000" points="173.6452,-153.0014 53.4586,-153.0014 53.4586,-94.1986 173.6452,-94.1986 173.6452,-153.0014"/>
<text text-anchor="middle" x="113.5519" y="-136.2" font-family="Times,serif" font-size="14.00" fill="#000000">GO:0034358</text>
<text text-anchor="middle" x="113.5519" y="-119.4" font-family="Times,serif" font-size="14.00" fill="#000000">plasma lipoprotein</text>
<text text-anchor="middle" x="113.5519" y="-102.6" font-family="Times,serif" font-size="14.00" fill="#000000">particle</text>
</g>
<!-- GO:0042627&#45;&gt;GO:0034358 -->
<g id="edge1" class="edge">
<title>GO:0042627&#45;&gt;GO:0034358</title>
<path fill="none" stroke="#000000" d="M59.8652,-50.1504C67.5428,-60.6542 77.0792,-73.7011 85.9751,-85.8717"/>
<polygon fill="#000000" stroke="#000000" points="83.274,-88.1076 92.0007,-94.1155 88.9253,-83.9768 83.274,-88.1076"/>
</g>
<!-- GO:1990777 -->
<g id="node3" class="node">
<title>GO:1990777</title>
<polygon fill="#ffffff" stroke="#000000" points="167.9657,-230.2019 45.1381,-230.2019 45.1381,-188.9981 167.9657,-188.9981 167.9657,-230.2019"/>
<text text-anchor="middle" x="106.5519" y="-213.8" font-family="Times,serif" font-size="14.00" fill="#000000">GO:1990777</text>
<text text-anchor="middle" x="106.5519" y="-197" font-family="Times,serif" font-size="14.00" fill="#000000">lipoprotein particle</text>
</g>
<!-- GO:0034358&#45;&gt;GO:1990777 -->
<g id="edge2" class="edge">
<title>GO:0034358&#45;&gt;GO:1990777</title>
<path fill="none" stroke="#000000" d="M111.1429,-153.1963C110.47,-161.4638 109.7372,-170.4657 109.0588,-178.8008"/>
<polygon fill="#000000" stroke="#000000" points="105.56,-178.6455 108.2371,-188.8966 112.5369,-179.2135 105.56,-178.6455"/>
</g>
<!-- GO:0044421 -->
<g id="node4" class="node">
<title>GO:0044421</title>
<polygon fill="#ff0000" stroke="#000000" points="337.0409,-230.2019 186.0629,-230.2019 186.0629,-188.9981 337.0409,-188.9981 337.0409,-230.2019"/>
<text text-anchor="middle" x="261.5519" y="-213.8" font-family="Times,serif" font-size="14.00" fill="#000000">GO:0044421</text>
<text text-anchor="middle" x="261.5519" y="-197" font-family="Times,serif" font-size="14.00" fill="#000000">extracellular region part</text>
</g>
<!-- GO:0034358&#45;&gt;GO:0044421 -->
<g id="edge3" class="edge">
<title>GO:0034358&#45;&gt;GO:0044421</title>
<path fill="none" stroke="#000000" d="M164.0712,-152.9558C181.1697,-162.8914 200.134,-173.9112 216.7566,-183.5703"/>
<polygon fill="#000000" stroke="#000000" points="215.319,-186.7829 225.7238,-188.7809 218.836,-180.7305 215.319,-186.7829"/>
</g>
<!-- GO:0032994 -->
<g id="node5" class="node">
<title>GO:0032994</title>
<polygon fill="#ffffff" stroke="#000000" points="199.2514,-307.8019 61.8524,-307.8019 61.8524,-266.5981 199.2514,-266.5981 199.2514,-307.8019"/>
<text text-anchor="middle" x="130.5519" y="-291.4" font-family="Times,serif" font-size="14.00" fill="#000000">GO:0032994</text>
<text text-anchor="middle" x="130.5519" y="-274.6" font-family="Times,serif" font-size="14.00" fill="#000000">protein&#45;lipid complex</text>
</g>
<!-- GO:1990777&#45;&gt;GO:0032994 -->
<g id="edge4" class="edge">
<title>GO:1990777&#45;&gt;GO:0032994</title>
<path fill="none" stroke="#000000" d="M112.9835,-230.3954C115.4854,-238.4848 118.4022,-247.9159 121.132,-256.7424"/>
<polygon fill="#000000" stroke="#000000" points="117.8041,-257.8279 124.1026,-266.3472 124.4916,-255.7595 117.8041,-257.8279"/>
</g>
<!-- GO:0005575 -->
<g id="node6" class="node">
<title>GO:0005575</title>
<polygon fill="#ffffff" stroke="#000000" points="319.2386,-463.0019 191.8652,-463.0019 191.8652,-421.7981 319.2386,-421.7981 319.2386,-463.0019"/>
<text text-anchor="middle" x="255.5519" y="-446.6" font-family="Times,serif" font-size="14.00" fill="#000000">GO:0005575</text>
<text text-anchor="middle" x="255.5519" y="-429.8" font-family="Times,serif" font-size="14.00" fill="#000000">cellular_component</text>
</g>
<!-- GO:0044421&#45;&gt;GO:0005575 -->
<g id="edge5" class="edge">
<title>GO:0044421&#45;&gt;GO:0005575</title>
<path fill="none" stroke="#000000" d="M261.0194,-230.2594C259.9609,-271.331 257.5873,-363.4279 256.3446,-411.6417"/>
<polygon fill="#000000" stroke="#000000" points="252.8421,-411.7 256.0832,-421.7869 259.8397,-411.8804 252.8421,-411.7"/>
</g>
<!-- GO:0032991 -->
<g id="node7" class="node">
<title>GO:0032991</title>
<polygon fill="#ff0000" stroke="#000000" points="221.7192,-385.4019 63.3846,-385.4019 63.3846,-344.1981 221.7192,-344.1981 221.7192,-385.4019"/>
<text text-anchor="middle" x="142.5519" y="-369" font-family="Times,serif" font-size="14.00" fill="#000000">GO:0032991</text>
<text text-anchor="middle" x="142.5519" y="-352.2" font-family="Times,serif" font-size="14.00" fill="#000000">macromolecular complex</text>
</g>
<!-- GO:0032994&#45;&gt;GO:0032991 -->
<g id="edge6" class="edge">
<title>GO:0032994&#45;&gt;GO:0032991</title>
<path fill="none" stroke="#000000" d="M133.7677,-307.9954C135.0052,-315.9978 136.4457,-325.3133 137.7979,-334.0575"/>
<polygon fill="#000000" stroke="#000000" points="134.34,-334.5996 139.3272,-343.9472 141.2578,-333.5298 134.34,-334.5996"/>
</g>
<!-- GO:0032991&#45;&gt;GO:0005575 -->
<g id="edge9" class="edge">
<title>GO:0032991&#45;&gt;GO:0005575</title>
<path fill="none" stroke="#000000" d="M172.8338,-385.5954C186.3869,-394.9026 202.5261,-405.9858 216.9351,-415.8809"/>
<polygon fill="#000000" stroke="#000000" points="214.9616,-418.7714 225.1864,-421.5472 218.9243,-413.001 214.9616,-418.7714"/>
</g>
<!-- GO:0072562 -->
<g id="node8" class="node">
<title>GO:0072562</title>
<polygon fill="#ff0000" stroke="#000000" points="324.5751,-144.2019 198.5287,-144.2019 198.5287,-102.9981 324.5751,-102.9981 324.5751,-144.2019"/>
<text text-anchor="middle" x="261.5519" y="-127.8" font-family="Times,serif" font-size="14.00" fill="#000000">GO:0072562</text>
<text text-anchor="middle" x="261.5519" y="-111" font-family="Times,serif" font-size="14.00" fill="#000000">blood microparticle</text>
</g>
<!-- GO:0072562&#45;&gt;GO:0044421 -->
<g id="edge7" class="edge">
<title>GO:0072562&#45;&gt;GO:0044421</title>
<path fill="none" stroke="#000000" d="M261.5519,-144.4182C261.5519,-154.7705 261.5519,-167.4848 261.5519,-178.9271"/>
<polygon fill="#000000" stroke="#000000" points="258.052,-178.9735 261.5519,-188.9735 265.052,-178.9735 258.052,-178.9735"/>
</g>
<!-- GO:0034364 -->
<g id="node9" class="node">
<title>GO:0034364</title>
<polygon fill="#ff0000" stroke="#000000" points="257.9811,-58.6014 107.1227,-58.6014 107.1227,.2014 257.9811,.2014 257.9811,-58.6014"/>
<text text-anchor="middle" x="182.5519" y="-41.8" font-family="Times,serif" font-size="14.00" fill="#000000">GO:0034364</text>
<text text-anchor="middle" x="182.5519" y="-25" font-family="Times,serif" font-size="14.00" fill="#000000">high&#45;density lipoprotein</text>
<text text-anchor="middle" x="182.5519" y="-8.2" font-family="Times,serif" font-size="14.00" fill="#000000">particle</text>
</g>
<!-- GO:0034364&#45;&gt;GO:0034358 -->
<g id="edge8" class="edge">
<title>GO:0034364&#45;&gt;GO:0034358</title>
<path fill="none" stroke="#000000" d="M161.0981,-58.5513C154.7375,-67.2534 147.683,-76.9047 140.9977,-86.0509"/>
<polygon fill="#000000" stroke="#000000" points="138.0678,-84.1282 134.9924,-94.2669 143.7192,-88.2589 138.0678,-84.1282"/>
</g>
<!-- GO:0044464 -->
<g id="node10" class="node">
<title>GO:0044464</title>
<polygon fill="#00ffff" stroke="#000000" points="373.1558,-385.4019 283.948,-385.4019 283.948,-344.1981 373.1558,-344.1981 373.1558,-385.4019"/>
<text text-anchor="middle" x="328.5519" y="-369" font-family="Times,serif" font-size="14.00" fill="#000000">GO:0044464</text>
<text text-anchor="middle" x="328.5519" y="-352.2" font-family="Times,serif" font-size="14.00" fill="#000000">cell part</text>
</g>
<!-- GO:0044464&#45;&gt;GO:0005575 -->
<g id="edge10" class="edge">
<title>GO:0044464&#45;&gt;GO:0005575</title>
<path fill="none" stroke="#000000" d="M308.9892,-385.5954C300.7247,-394.3807 290.9716,-404.7484 282.075,-414.2056"/>
<polygon fill="#000000" stroke="#000000" points="279.4712,-411.8654 275.1686,-421.5472 284.5698,-416.6617 279.4712,-411.8654"/>
</g>
</g>
</svg>
