<?xml version="1.0" encoding="UTF-8" standalone="no"?>
<!DOCTYPE svg PUBLIC "-//W3C//DTD SVG 1.1//EN"
 "http://www.w3.org/Graphics/SVG/1.1/DTD/svg11.dtd">
<!-- Generated by graphviz version 2.40.1 (20161225.0304)
 -->
<!-- Title: G Pages: 1 -->
<svg width="810pt" height="538pt"
 viewBox="0.00 0.00 810.49 538.40" xmlns="http://www.w3.org/2000/svg" xmlns:xlink="http://www.w3.org/1999/xlink">
<g id="graph0" class="graph" transform="scale(1 1) rotate(0) translate(4 534.4)">
<title>G</title>
<polygon fill="#ffffff" stroke="transparent" points="-4,4 -4,-534.4 806.4927,-534.4 806.4927,4 -4,4"/>
<!-- GO:0017127 -->
<g id="node1" class="node">
<title>GO:0017127</title>
<polygon fill="#ff0000" stroke="#000000" points="141.3371,-58.6014 .2205,-58.6014 .2205,.2014 141.3371,.2014 141.3371,-58.6014"/>
<text text-anchor="middle" x="70.7788" y="-41.8" font-family="Times,serif" font-size="14.00" fill="#000000">GO:0017127</text>
<text text-anchor="middle" x="70.7788" y="-25" font-family="Times,serif" font-size="14.00" fill="#000000">cholesterol transporter</text>
<text text-anchor="middle" x="70.7788" y="-8.2" font-family="Times,serif" font-size="14.00" fill="#000000">activity</text>
</g>
<!-- GO:0015248 -->
<g id="node2" class="node">
<title>GO:0015248</title>
<polygon fill="#ffffff" stroke="#000000" points="126.5169,-161.4014 15.0407,-161.4014 15.0407,-102.5986 126.5169,-102.5986 126.5169,-161.4014"/>
<text text-anchor="middle" x="70.7788" y="-144.6" font-family="Times,serif" font-size="14.00" fill="#000000">GO:0015248</text>
<text text-anchor="middle" x="70.7788" y="-127.8" font-family="Times,serif" font-size="14.00" fill="#000000">sterol transporter</text>
<text text-anchor="middle" x="70.7788" y="-111" font-family="Times,serif" font-size="14.00" fill="#000000">activity</text>
</g>
<!-- GO:0017127&#45;&gt;GO:0015248 -->
<g id="edge1" class="edge">
<title>GO:0017127&#45;&gt;GO:0015248</title>
<path fill="none" stroke="#000000" d="M70.7788,-58.6584C70.7788,-69.1969 70.7788,-81.2505 70.7788,-92.4994"/>
<polygon fill="#000000" stroke="#000000" points="67.2789,-92.5373 70.7788,-102.5373 74.2789,-92.5374 67.2789,-92.5373"/>
</g>
<!-- GO:0005319 -->
<g id="node3" class="node">
<title>GO:0005319</title>
<polygon fill="#ffffff" stroke="#000000" points="123.5876,-264.2014 17.97,-264.2014 17.97,-205.3986 123.5876,-205.3986 123.5876,-264.2014"/>
<text text-anchor="middle" x="70.7788" y="-247.4" font-family="Times,serif" font-size="14.00" fill="#000000">GO:0005319</text>
<text text-anchor="middle" x="70.7788" y="-230.6" font-family="Times,serif" font-size="14.00" fill="#000000">lipid transporter</text>
<text text-anchor="middle" x="70.7788" y="-213.8" font-family="Times,serif" font-size="14.00" fill="#000000">activity</text>
</g>
<!-- GO:0015248&#45;&gt;GO:0005319 -->
<g id="edge2" class="edge">
<title>GO:0015248&#45;&gt;GO:0005319</title>
<path fill="none" stroke="#000000" d="M70.7788,-161.4584C70.7788,-171.9969 70.7788,-184.0505 70.7788,-195.2994"/>
<polygon fill="#000000" stroke="#000000" points="67.2789,-195.3373 70.7788,-205.3373 74.2789,-195.3374 67.2789,-195.3373"/>
</g>
<!-- GO:0022892 -->
<g id="node4" class="node">
<title>GO:0022892</title>
<polygon fill="#ffffff" stroke="#000000" points="131.9073,-358.6014 9.6503,-358.6014 9.6503,-299.7986 131.9073,-299.7986 131.9073,-358.6014"/>
<text text-anchor="middle" x="70.7788" y="-341.8" font-family="Times,serif" font-size="14.00" fill="#000000">GO:0022892</text>
<text text-anchor="middle" x="70.7788" y="-325" font-family="Times,serif" font-size="14.00" fill="#000000">substrate&#45;specific</text>
<text text-anchor="middle" x="70.7788" y="-308.2" font-family="Times,serif" font-size="14.00" fill="#000000">transporter activity</text>
</g>
<!-- GO:0005319&#45;&gt;GO:0022892 -->
<g id="edge3" class="edge">
<title>GO:0005319&#45;&gt;GO:0022892</title>
<path fill="none" stroke="#000000" d="M70.7788,-264.1513C70.7788,-272.2318 70.7788,-281.1308 70.7788,-289.6838"/>
<polygon fill="#000000" stroke="#000000" points="67.2789,-289.8668 70.7788,-299.8669 74.2789,-289.8669 67.2789,-289.8668"/>
</g>
<!-- GO:0005215 -->
<g id="node5" class="node">
<title>GO:0005215</title>
<polygon fill="#ffffff" stroke="#000000" points="141.9073,-444.2019 19.6503,-444.2019 19.6503,-402.9981 141.9073,-402.9981 141.9073,-444.2019"/>
<text text-anchor="middle" x="80.7788" y="-427.8" font-family="Times,serif" font-size="14.00" fill="#000000">GO:0005215</text>
<text text-anchor="middle" x="80.7788" y="-411" font-family="Times,serif" font-size="14.00" fill="#000000">transporter activity</text>
</g>
<!-- GO:0022892&#45;&gt;GO:0005215 -->
<g id="edge4" class="edge">
<title>GO:0022892&#45;&gt;GO:0005215</title>
<path fill="none" stroke="#000000" d="M73.888,-358.5513C75.0438,-369.4614 76.3576,-381.8637 77.5258,-392.892"/>
<polygon fill="#000000" stroke="#000000" points="74.0574,-393.3754 78.5914,-402.951 81.0184,-392.6379 74.0574,-393.3754"/>
</g>
<!-- GO:0003674 -->
<g id="node6" class="node">
<title>GO:0003674</title>
<polygon fill="#ffffff" stroke="#000000" points="292.4119,-530.2019 167.1457,-530.2019 167.1457,-488.9981 292.4119,-488.9981 292.4119,-530.2019"/>
<text text-anchor="middle" x="229.7788" y="-513.8" font-family="Times,serif" font-size="14.00" fill="#000000">GO:0003674</text>
<text text-anchor="middle" x="229.7788" y="-497" font-family="Times,serif" font-size="14.00" fill="#000000">molecular_function</text>
</g>
<!-- GO:0005215&#45;&gt;GO:0003674 -->
<g id="edge5" class="edge">
<title>GO:0005215&#45;&gt;GO:0003674</title>
<path fill="none" stroke="#000000" d="M116.8475,-444.4182C137.4373,-456.3022 163.42,-471.299 185.2708,-483.9108"/>
<polygon fill="#000000" stroke="#000000" points="183.6317,-487.0059 194.0422,-488.9735 187.1309,-480.9432 183.6317,-487.0059"/>
</g>
<!-- GO:0060228 -->
<g id="node7" class="node">
<title>GO:0060228</title>
<polygon fill="#ff0000" stroke="#000000" points="297.5871,-169.7003 147.9705,-169.7003 147.9705,-94.2997 297.5871,-94.2997 297.5871,-169.7003"/>
<text text-anchor="middle" x="222.7788" y="-153" font-family="Times,serif" font-size="14.00" fill="#000000">GO:0060228</text>
<text text-anchor="middle" x="222.7788" y="-136.2" font-family="Times,serif" font-size="14.00" fill="#000000">phosphatidylcholine&#45;</text>
<text text-anchor="middle" x="222.7788" y="-119.4" font-family="Times,serif" font-size="14.00" fill="#000000">sterol O&#45;acyltransferase</text>
<text text-anchor="middle" x="222.7788" y="-102.6" font-family="Times,serif" font-size="14.00" fill="#000000">activator activity</text>
</g>
<!-- GO:0008047 -->
<g id="node8" class="node">
<title>GO:0008047</title>
<polygon fill="#ffffff" stroke="#000000" points="306.2818,-255.4019 149.2758,-255.4019 149.2758,-214.1981 306.2818,-214.1981 306.2818,-255.4019"/>
<text text-anchor="middle" x="227.7788" y="-239" font-family="Times,serif" font-size="14.00" fill="#000000">GO:0008047</text>
<text text-anchor="middle" x="227.7788" y="-222.2" font-family="Times,serif" font-size="14.00" fill="#000000">enzyme activator activity</text>
</g>
<!-- GO:0060228&#45;&gt;GO:0008047 -->
<g id="edge6" class="edge">
<title>GO:0060228&#45;&gt;GO:0008047</title>
<path fill="none" stroke="#000000" d="M224.6122,-169.6952C225.1599,-180.9552 225.7536,-193.1618 226.2773,-203.9299"/>
<polygon fill="#000000" stroke="#000000" points="222.7917,-204.3121 226.7735,-214.1302 229.7834,-203.9719 222.7917,-204.3121"/>
</g>
<!-- GO:0030234 -->
<g id="node9" class="node">
<title>GO:0030234</title>
<polygon fill="#ffffff" stroke="#000000" points="309.3364,-349.8019 150.2212,-349.8019 150.2212,-308.5981 309.3364,-308.5981 309.3364,-349.8019"/>
<text text-anchor="middle" x="229.7788" y="-333.4" font-family="Times,serif" font-size="14.00" fill="#000000">GO:0030234</text>
<text text-anchor="middle" x="229.7788" y="-316.6" font-family="Times,serif" font-size="14.00" fill="#000000">enzyme regulator activity</text>
</g>
<!-- GO:0008047&#45;&gt;GO:0030234 -->
<g id="edge7" class="edge">
<title>GO:0008047&#45;&gt;GO:0030234</title>
<path fill="none" stroke="#000000" d="M228.2227,-255.7504C228.4868,-268.2165 228.8268,-284.2645 229.1216,-298.1786"/>
<polygon fill="#000000" stroke="#000000" points="225.625,-298.3846 229.3362,-308.3081 232.6235,-298.2362 225.625,-298.3846"/>
</g>
<!-- GO:0098772 -->
<g id="node10" class="node">
<title>GO:0098772</title>
<polygon fill="#ffffff" stroke="#000000" points="290.9115,-453.0014 168.6461,-453.0014 168.6461,-394.1986 290.9115,-394.1986 290.9115,-453.0014"/>
<text text-anchor="middle" x="229.7788" y="-436.2" font-family="Times,serif" font-size="14.00" fill="#000000">GO:0098772</text>
<text text-anchor="middle" x="229.7788" y="-419.4" font-family="Times,serif" font-size="14.00" fill="#000000">molecular function</text>
<text text-anchor="middle" x="229.7788" y="-402.6" font-family="Times,serif" font-size="14.00" fill="#000000">regulator</text>
</g>
<!-- GO:0030234&#45;&gt;GO:0098772 -->
<g id="edge8" class="edge">
<title>GO:0030234&#45;&gt;GO:0098772</title>
<path fill="none" stroke="#000000" d="M229.7788,-350.1504C229.7788,-360.1492 229.7788,-372.4525 229.7788,-384.1106"/>
<polygon fill="#000000" stroke="#000000" points="226.2789,-384.1155 229.7788,-394.1155 233.2789,-384.1156 226.2789,-384.1155"/>
</g>
<!-- GO:0098772&#45;&gt;GO:0003674 -->
<g id="edge9" class="edge">
<title>GO:0098772&#45;&gt;GO:0003674</title>
<path fill="none" stroke="#000000" d="M229.7788,-453.1963C229.7788,-461.4638 229.7788,-470.4657 229.7788,-478.8008"/>
<polygon fill="#000000" stroke="#000000" points="226.2789,-478.8965 229.7788,-488.8966 233.2789,-478.8966 226.2789,-478.8965"/>
</g>
<!-- GO:0043169 -->
<g id="node11" class="node">
<title>GO:0043169</title>
<polygon fill="#ffa500" stroke="#000000" points="423.2717,-255.4019 326.2859,-255.4019 326.2859,-214.1981 423.2717,-214.1981 423.2717,-255.4019"/>
<text text-anchor="middle" x="374.7788" y="-239" font-family="Times,serif" font-size="14.00" fill="#000000">GO:0043169</text>
<text text-anchor="middle" x="374.7788" y="-222.2" font-family="Times,serif" font-size="14.00" fill="#000000">cation binding</text>
</g>
<!-- GO:0043167 -->
<g id="node12" class="node">
<title>GO:0043167</title>
<polygon fill="#ffffff" stroke="#000000" points="418.3827,-349.8019 329.1749,-349.8019 329.1749,-308.5981 418.3827,-308.5981 418.3827,-349.8019"/>
<text text-anchor="middle" x="373.7788" y="-333.4" font-family="Times,serif" font-size="14.00" fill="#000000">GO:0043167</text>
<text text-anchor="middle" x="373.7788" y="-316.6" font-family="Times,serif" font-size="14.00" fill="#000000">ion binding</text>
</g>
<!-- GO:0043169&#45;&gt;GO:0043167 -->
<g id="edge10" class="edge">
<title>GO:0043169&#45;&gt;GO:0043167</title>
<path fill="none" stroke="#000000" d="M374.5569,-255.7504C374.4248,-268.2165 374.2548,-284.2645 374.1074,-298.1786"/>
<polygon fill="#000000" stroke="#000000" points="370.6063,-298.2716 374.0001,-308.3081 377.6059,-298.3458 370.6063,-298.2716"/>
</g>
<!-- GO:0005488 -->
<g id="node13" class="node">
<title>GO:0005488</title>
<polygon fill="#ffffff" stroke="#000000" points="559.3827,-444.2019 470.1749,-444.2019 470.1749,-402.9981 559.3827,-402.9981 559.3827,-444.2019"/>
<text text-anchor="middle" x="514.7788" y="-427.8" font-family="Times,serif" font-size="14.00" fill="#000000">GO:0005488</text>
<text text-anchor="middle" x="514.7788" y="-411" font-family="Times,serif" font-size="14.00" fill="#000000">binding</text>
</g>
<!-- GO:0043167&#45;&gt;GO:0005488 -->
<g id="edge11" class="edge">
<title>GO:0043167&#45;&gt;GO:0005488</title>
<path fill="none" stroke="#000000" d="M404.7218,-349.9165C425.4759,-363.8114 452.9923,-382.2337 475.319,-397.1815"/>
<polygon fill="#000000" stroke="#000000" points="473.6511,-400.2769 483.9079,-402.9318 477.5455,-394.4601 473.6511,-400.2769"/>
</g>
<!-- GO:0005488&#45;&gt;GO:0003674 -->
<g id="edge12" class="edge">
<title>GO:0005488&#45;&gt;GO:0003674</title>
<path fill="none" stroke="#000000" d="M469.934,-437.1321C424.9982,-450.6917 355.0994,-471.784 302.276,-487.7237"/>
<polygon fill="#000000" stroke="#000000" points="301.1838,-484.3973 292.6213,-490.637 303.206,-491.0988 301.1838,-484.3973"/>
</g>
<!-- GO:0031210 -->
<g id="node14" class="node">
<title>GO:0031210</title>
<polygon fill="#ffa500" stroke="#000000" points="453.321,-58.6014 324.2366,-58.6014 324.2366,.2014 453.321,.2014 453.321,-58.6014"/>
<text text-anchor="middle" x="388.7788" y="-41.8" font-family="Times,serif" font-size="14.00" fill="#000000">GO:0031210</text>
<text text-anchor="middle" x="388.7788" y="-25" font-family="Times,serif" font-size="14.00" fill="#000000">phosphatidylcholine</text>
<text text-anchor="middle" x="388.7788" y="-8.2" font-family="Times,serif" font-size="14.00" fill="#000000">binding</text>
</g>
<!-- GO:0070405 -->
<g id="node15" class="node">
<title>GO:0070405</title>
<polygon fill="#ffffff" stroke="#000000" points="462.7283,-152.6019 314.8293,-152.6019 314.8293,-111.3981 462.7283,-111.3981 462.7283,-152.6019"/>
<text text-anchor="middle" x="388.7788" y="-136.2" font-family="Times,serif" font-size="14.00" fill="#000000">GO:0070405</text>
<text text-anchor="middle" x="388.7788" y="-119.4" font-family="Times,serif" font-size="14.00" fill="#000000">ammonium ion binding</text>
</g>
<!-- GO:0031210&#45;&gt;GO:0070405 -->
<g id="edge13" class="edge">
<title>GO:0031210&#45;&gt;GO:0070405</title>
<path fill="none" stroke="#000000" d="M388.7788,-58.6584C388.7788,-71.9539 388.7788,-87.6608 388.7788,-101.1212"/>
<polygon fill="#000000" stroke="#000000" points="385.2789,-101.3456 388.7788,-111.3456 392.2789,-101.3457 385.2789,-101.3456"/>
</g>
<!-- GO:0070405&#45;&gt;GO:0043169 -->
<g id="edge14" class="edge">
<title>GO:0070405&#45;&gt;GO:0043169</title>
<path fill="none" stroke="#000000" d="M385.9457,-152.8031C383.9532,-167.4337 381.2525,-187.2642 379.0062,-203.7586"/>
<polygon fill="#000000" stroke="#000000" points="375.4892,-203.647 377.6077,-214.0278 382.4252,-204.5916 375.4892,-203.647"/>
</g>
<!-- GO:0015485 -->
<g id="node16" class="node">
<title>GO:0015485</title>
<polygon fill="#ff0000" stroke="#000000" points="719.4812,-49.8019 596.0764,-49.8019 596.0764,-8.5981 719.4812,-8.5981 719.4812,-49.8019"/>
<text text-anchor="middle" x="657.7788" y="-33.4" font-family="Times,serif" font-size="14.00" fill="#000000">GO:0015485</text>
<text text-anchor="middle" x="657.7788" y="-16.6" font-family="Times,serif" font-size="14.00" fill="#000000">cholesterol binding</text>
</g>
<!-- GO:0032934 -->
<g id="node17" class="node">
<title>GO:0032934</title>
<polygon fill="#ffffff" stroke="#000000" points="640.6618,-152.6019 546.8958,-152.6019 546.8958,-111.3981 640.6618,-111.3981 640.6618,-152.6019"/>
<text text-anchor="middle" x="593.7788" y="-136.2" font-family="Times,serif" font-size="14.00" fill="#000000">GO:0032934</text>
<text text-anchor="middle" x="593.7788" y="-119.4" font-family="Times,serif" font-size="14.00" fill="#000000">sterol binding</text>
</g>
<!-- GO:0015485&#45;&gt;GO:0032934 -->
<g id="edge15" class="edge">
<title>GO:0015485&#45;&gt;GO:0032934</title>
<path fill="none" stroke="#000000" d="M644.8274,-50.0031C635.4587,-65.0517 622.6649,-85.6017 612.2292,-102.364"/>
<polygon fill="#000000" stroke="#000000" points="609.0248,-100.8887 606.7109,-111.2278 614.9673,-104.5884 609.0248,-100.8887"/>
</g>
<!-- GO:0043178 -->
<g id="node18" class="node">
<title>GO:0043178</title>
<polygon fill="#ffffff" stroke="#000000" points="774.7716,-152.6019 670.786,-152.6019 670.786,-111.3981 774.7716,-111.3981 774.7716,-152.6019"/>
<text text-anchor="middle" x="722.7788" y="-136.2" font-family="Times,serif" font-size="14.00" fill="#000000">GO:0043178</text>
<text text-anchor="middle" x="722.7788" y="-119.4" font-family="Times,serif" font-size="14.00" fill="#000000">alcohol binding</text>
</g>
<!-- GO:0015485&#45;&gt;GO:0043178 -->
<g id="edge16" class="edge">
<title>GO:0015485&#45;&gt;GO:0043178</title>
<path fill="none" stroke="#000000" d="M670.9325,-50.0031C680.4477,-65.0517 693.4413,-85.6017 704.0401,-102.364"/>
<polygon fill="#000000" stroke="#000000" points="701.3421,-104.6462 709.6446,-111.2278 707.2586,-100.9052 701.3421,-104.6462"/>
</g>
<!-- GO:0005496 -->
<g id="node19" class="node">
<title>GO:0005496</title>
<polygon fill="#ffffff" stroke="#000000" points="637.1617,-255.4019 536.3959,-255.4019 536.3959,-214.1981 637.1617,-214.1981 637.1617,-255.4019"/>
<text text-anchor="middle" x="586.7788" y="-239" font-family="Times,serif" font-size="14.00" fill="#000000">GO:0005496</text>
<text text-anchor="middle" x="586.7788" y="-222.2" font-family="Times,serif" font-size="14.00" fill="#000000">steroid binding</text>
</g>
<!-- GO:0032934&#45;&gt;GO:0005496 -->
<g id="edge17" class="edge">
<title>GO:0032934&#45;&gt;GO:0005496</title>
<path fill="none" stroke="#000000" d="M592.3622,-152.8031C591.366,-167.4337 590.0157,-187.2642 588.8925,-203.7586"/>
<polygon fill="#000000" stroke="#000000" points="585.3808,-203.8131 588.1932,-214.0278 592.3646,-204.2887 585.3808,-203.8131"/>
</g>
<!-- GO:0036094 -->
<g id="node20" class="node">
<title>GO:0036094</title>
<polygon fill="#ffffff" stroke="#000000" points="802.7072,-255.4019 654.8504,-255.4019 654.8504,-214.1981 802.7072,-214.1981 802.7072,-255.4019"/>
<text text-anchor="middle" x="728.7788" y="-239" font-family="Times,serif" font-size="14.00" fill="#000000">GO:0036094</text>
<text text-anchor="middle" x="728.7788" y="-222.2" font-family="Times,serif" font-size="14.00" fill="#000000">small molecule binding</text>
</g>
<!-- GO:0043178&#45;&gt;GO:0036094 -->
<g id="edge18" class="edge">
<title>GO:0043178&#45;&gt;GO:0036094</title>
<path fill="none" stroke="#000000" d="M723.993,-152.8031C724.8469,-167.4337 726.0043,-187.2642 726.967,-203.7586"/>
<polygon fill="#000000" stroke="#000000" points="723.4896,-204.2488 727.5664,-214.0278 730.4777,-203.8408 723.4896,-204.2488"/>
</g>
<!-- GO:0097159 -->
<g id="node21" class="node">
<title>GO:0097159</title>
<polygon fill="#ffffff" stroke="#000000" points="593.2902,-358.6014 436.2674,-358.6014 436.2674,-299.7986 593.2902,-299.7986 593.2902,-358.6014"/>
<text text-anchor="middle" x="514.7788" y="-341.8" font-family="Times,serif" font-size="14.00" fill="#000000">GO:0097159</text>
<text text-anchor="middle" x="514.7788" y="-325" font-family="Times,serif" font-size="14.00" fill="#000000">organic cyclic compound</text>
<text text-anchor="middle" x="514.7788" y="-308.2" font-family="Times,serif" font-size="14.00" fill="#000000">binding</text>
</g>
<!-- GO:0005496&#45;&gt;GO:0097159 -->
<g id="edge19" class="edge">
<title>GO:0005496&#45;&gt;GO:0097159</title>
<path fill="none" stroke="#000000" d="M570.7997,-255.7504C562.7883,-266.2542 552.8373,-279.3011 543.5546,-291.4717"/>
<polygon fill="#000000" stroke="#000000" points="540.5486,-289.6417 537.267,-299.7155 546.1144,-293.8869 540.5486,-289.6417"/>
</g>
<!-- GO:0008289 -->
<g id="node22" class="node">
<title>GO:0008289</title>
<polygon fill="#ffffff" stroke="#000000" points="700.3827,-349.8019 611.1749,-349.8019 611.1749,-308.5981 700.3827,-308.5981 700.3827,-349.8019"/>
<text text-anchor="middle" x="655.7788" y="-333.4" font-family="Times,serif" font-size="14.00" fill="#000000">GO:0008289</text>
<text text-anchor="middle" x="655.7788" y="-316.6" font-family="Times,serif" font-size="14.00" fill="#000000">lipid binding</text>
</g>
<!-- GO:0005496&#45;&gt;GO:0008289 -->
<g id="edge20" class="edge">
<title>GO:0005496&#45;&gt;GO:0008289</title>
<path fill="none" stroke="#000000" d="M602.0921,-255.7504C611.6506,-268.8276 624.0903,-285.8464 634.5881,-300.2087"/>
<polygon fill="#000000" stroke="#000000" points="631.7815,-302.3002 640.5083,-308.3081 637.4329,-298.1695 631.7815,-302.3002"/>
</g>
<!-- GO:0036094&#45;&gt;GO:0005488 -->
<g id="edge21" class="edge">
<title>GO:0036094&#45;&gt;GO:0005488</title>
<path fill="none" stroke="#000000" d="M731.673,-255.8294C734.1526,-282.7955 734.1242,-329.5152 709.7788,-358.4 691.4466,-380.1504 620.3622,-400.0892 569.3134,-412.042"/>
<polygon fill="#000000" stroke="#000000" points="568.3532,-408.6714 559.3924,-414.3243 569.9225,-415.4932 568.3532,-408.6714"/>
</g>
<!-- GO:0097159&#45;&gt;GO:0005488 -->
<g id="edge22" class="edge">
<title>GO:0097159&#45;&gt;GO:0005488</title>
<path fill="none" stroke="#000000" d="M514.7788,-358.5513C514.7788,-369.4614 514.7788,-381.8637 514.7788,-392.892"/>
<polygon fill="#000000" stroke="#000000" points="511.2789,-392.9509 514.7788,-402.951 518.2789,-392.951 511.2789,-392.9509"/>
</g>
<!-- GO:0008289&#45;&gt;GO:0005488 -->
<g id="edge23" class="edge">
<title>GO:0008289&#45;&gt;GO:0005488</title>
<path fill="none" stroke="#000000" d="M624.8358,-349.9165C604.0817,-363.8114 576.5653,-382.2337 554.2386,-397.1815"/>
<polygon fill="#000000" stroke="#000000" points="552.0121,-394.4601 545.6497,-402.9318 555.9065,-400.2769 552.0121,-394.4601"/>
</g>
</g>
</svg>
