<?xml version="1.0" encoding="UTF-8" standalone="no"?>
<!DOCTYPE svg PUBLIC "-//W3C//DTD SVG 1.1//EN"
 "http://www.w3.org/Graphics/SVG/1.1/DTD/svg11.dtd">
<!-- Generated by graphviz version 2.40.1 (20161225.0304)
 -->
<!-- Title: G Pages: 1 -->
<svg width="590pt" height="906pt"
 viewBox="0.00 0.00 590.20 905.60" xmlns="http://www.w3.org/2000/svg" xmlns:xlink="http://www.w3.org/1999/xlink">
<g id="graph0" class="graph" transform="scale(1 1) rotate(0) translate(4 901.6)">
<title>G</title>
<polygon fill="#ffffff" stroke="transparent" points="-4,4 -4,-901.6 586.2003,-901.6 586.2003,4 -4,4"/>
<!-- GO:0080090 -->
<g id="node1" class="node">
<title>GO:0080090</title>
<polygon fill="#ff0000" stroke="#000000" points="236.2406,-623.0014 100.7616,-623.0014 100.7616,-564.1986 236.2406,-564.1986 236.2406,-623.0014"/>
<text text-anchor="middle" x="168.5011" y="-606.2" font-family="Times,serif" font-size="14.00" fill="#000000">GO:0080090</text>
<text text-anchor="middle" x="168.5011" y="-589.4" font-family="Times,serif" font-size="14.00" fill="#000000">regulation of primary</text>
<text text-anchor="middle" x="168.5011" y="-572.6" font-family="Times,serif" font-size="14.00" fill="#000000">metabolic process</text>
</g>
<!-- GO:0019222 -->
<g id="node2" class="node">
<title>GO:0019222</title>
<polygon fill="#ffffff" stroke="#000000" points="413.63,-725.8014 267.3722,-725.8014 267.3722,-666.9986 413.63,-666.9986 413.63,-725.8014"/>
<text text-anchor="middle" x="340.5011" y="-709" font-family="Times,serif" font-size="14.00" fill="#000000">GO:0019222</text>
<text text-anchor="middle" x="340.5011" y="-692.2" font-family="Times,serif" font-size="14.00" fill="#000000">regulation of metabolic</text>
<text text-anchor="middle" x="340.5011" y="-675.4" font-family="Times,serif" font-size="14.00" fill="#000000">process</text>
</g>
<!-- GO:0080090&#45;&gt;GO:0019222 -->
<g id="edge1" class="edge">
<title>GO:0080090&#45;&gt;GO:0019222</title>
<path fill="none" stroke="#000000" d="M217.7894,-623.0584C238.0278,-635.1544 261.6056,-649.2462 282.6543,-661.8264"/>
<polygon fill="#000000" stroke="#000000" points="281.1238,-664.9892 291.5032,-667.1152 284.7151,-658.9806 281.1238,-664.9892"/>
</g>
<!-- GO:0065007 -->
<g id="node3" class="node">
<title>GO:0065007</title>
<polygon fill="#ff0000" stroke="#000000" points="564.7545,-811.4019 432.2477,-811.4019 432.2477,-770.1981 564.7545,-770.1981 564.7545,-811.4019"/>
<text text-anchor="middle" x="498.5011" y="-795" font-family="Times,serif" font-size="14.00" fill="#000000">GO:0065007</text>
<text text-anchor="middle" x="498.5011" y="-778.2" font-family="Times,serif" font-size="14.00" fill="#000000">biological regulation</text>
</g>
<!-- GO:0019222&#45;&gt;GO:0065007 -->
<g id="edge2" class="edge">
<title>GO:0019222&#45;&gt;GO:0065007</title>
<path fill="none" stroke="#000000" d="M389.6272,-725.7513C410.6175,-738.2923 434.9076,-752.8049 455.2118,-764.936"/>
<polygon fill="#000000" stroke="#000000" points="453.5606,-768.0265 463.9402,-770.151 457.1509,-762.0174 453.5606,-768.0265"/>
</g>
<!-- GO:0050789 -->
<g id="node4" class="node">
<title>GO:0050789</title>
<polygon fill="#ffffff" stroke="#000000" points="414.4155,-820.2014 266.5867,-820.2014 266.5867,-761.3986 414.4155,-761.3986 414.4155,-820.2014"/>
<text text-anchor="middle" x="340.5011" y="-803.4" font-family="Times,serif" font-size="14.00" fill="#000000">GO:0050789</text>
<text text-anchor="middle" x="340.5011" y="-786.6" font-family="Times,serif" font-size="14.00" fill="#000000">regulation of biological</text>
<text text-anchor="middle" x="340.5011" y="-769.8" font-family="Times,serif" font-size="14.00" fill="#000000">process</text>
</g>
<!-- GO:0019222&#45;&gt;GO:0050789 -->
<g id="edge3" class="edge">
<title>GO:0019222&#45;&gt;GO:0050789</title>
<path fill="none" stroke="#000000" d="M340.5011,-725.7513C340.5011,-733.8318 340.5011,-742.7308 340.5011,-751.2838"/>
<polygon fill="#000000" stroke="#000000" points="337.0012,-751.4668 340.5011,-761.4669 344.0012,-751.4669 337.0012,-751.4668"/>
</g>
<!-- GO:0008150 -->
<g id="node5" class="node">
<title>GO:0008150</title>
<polygon fill="#ffffff" stroke="#000000" points="479.9717,-897.4019 359.0305,-897.4019 359.0305,-856.1981 479.9717,-856.1981 479.9717,-897.4019"/>
<text text-anchor="middle" x="419.5011" y="-881" font-family="Times,serif" font-size="14.00" fill="#000000">GO:0008150</text>
<text text-anchor="middle" x="419.5011" y="-864.2" font-family="Times,serif" font-size="14.00" fill="#000000">biological_process</text>
</g>
<!-- GO:0065007&#45;&gt;GO:0008150 -->
<g id="edge4" class="edge">
<title>GO:0065007&#45;&gt;GO:0008150</title>
<path fill="none" stroke="#000000" d="M479.3774,-811.6182C469.1885,-822.7099 456.5087,-836.5132 445.4441,-848.5583"/>
<polygon fill="#000000" stroke="#000000" points="442.6362,-846.4413 438.4487,-856.1735 447.7913,-851.1768 442.6362,-846.4413"/>
</g>
<!-- GO:0050789&#45;&gt;GO:0008150 -->
<g id="edge5" class="edge">
<title>GO:0050789&#45;&gt;GO:0008150</title>
<path fill="none" stroke="#000000" d="M367.6884,-820.3963C376.0424,-829.4905 385.2128,-839.4734 393.4862,-848.48"/>
<polygon fill="#000000" stroke="#000000" points="391.1402,-851.0999 400.4828,-856.0966 396.2953,-846.3643 391.1402,-851.0999"/>
</g>
<!-- GO:0060255 -->
<g id="node6" class="node">
<title>GO:0060255</title>
<polygon fill="#ff0000" stroke="#000000" points="161.0033,-520.1003 -.0011,-520.1003 -.0011,-444.6997 161.0033,-444.6997 161.0033,-520.1003"/>
<text text-anchor="middle" x="80.5011" y="-503.4" font-family="Times,serif" font-size="14.00" fill="#000000">GO:0060255</text>
<text text-anchor="middle" x="80.5011" y="-486.6" font-family="Times,serif" font-size="14.00" fill="#000000">regulation of</text>
<text text-anchor="middle" x="80.5011" y="-469.8" font-family="Times,serif" font-size="14.00" fill="#000000">macromolecule metabolic</text>
<text text-anchor="middle" x="80.5011" y="-453" font-family="Times,serif" font-size="14.00" fill="#000000">process</text>
</g>
<!-- GO:0060255&#45;&gt;GO:0019222 -->
<g id="edge6" class="edge">
<title>GO:0060255&#45;&gt;GO:0019222</title>
<path fill="none" stroke="#000000" d="M72.1441,-520.1644C67.1742,-553.2308 66.0609,-600.6411 91.5011,-631.2 112.7712,-656.7497 193.4302,-674.6248 257.258,-685.1156"/>
<polygon fill="#000000" stroke="#000000" points="256.9172,-688.6057 267.3458,-686.736 258.0274,-681.6943 256.9172,-688.6057"/>
</g>
<!-- GO:0050794 -->
<g id="node7" class="node">
<title>GO:0050794</title>
<polygon fill="#ff0000" stroke="#000000" points="565.4001,-725.8014 431.6021,-725.8014 431.6021,-666.9986 565.4001,-666.9986 565.4001,-725.8014"/>
<text text-anchor="middle" x="498.5011" y="-709" font-family="Times,serif" font-size="14.00" fill="#000000">GO:0050794</text>
<text text-anchor="middle" x="498.5011" y="-692.2" font-family="Times,serif" font-size="14.00" fill="#000000">regulation of cellular</text>
<text text-anchor="middle" x="498.5011" y="-675.4" font-family="Times,serif" font-size="14.00" fill="#000000">process</text>
</g>
<!-- GO:0050794&#45;&gt;GO:0065007 -->
<g id="edge7" class="edge">
<title>GO:0050794&#45;&gt;GO:0065007</title>
<path fill="none" stroke="#000000" d="M498.5011,-725.7513C498.5011,-736.6614 498.5011,-749.0637 498.5011,-760.092"/>
<polygon fill="#000000" stroke="#000000" points="495.0012,-760.1509 498.5011,-770.151 502.0012,-760.151 495.0012,-760.1509"/>
</g>
<!-- GO:0050794&#45;&gt;GO:0050789 -->
<g id="edge8" class="edge">
<title>GO:0050794&#45;&gt;GO:0050789</title>
<path fill="none" stroke="#000000" d="M449.375,-725.7513C433.1753,-735.4301 415.01,-746.2833 398.2286,-756.3097"/>
<polygon fill="#000000" stroke="#000000" points="396.3862,-753.3333 389.5968,-761.4669 399.9765,-759.3424 396.3862,-753.3333"/>
</g>
<!-- GO:0006355 -->
<g id="node8" class="node">
<title>GO:0006355</title>
<polygon fill="#ff0000" stroke="#000000" points="353.7392,-75.3003 225.263,-75.3003 225.263,.1003 353.7392,.1003 353.7392,-75.3003"/>
<text text-anchor="middle" x="289.5011" y="-58.6" font-family="Times,serif" font-size="14.00" fill="#000000">GO:0006355</text>
<text text-anchor="middle" x="289.5011" y="-41.8" font-family="Times,serif" font-size="14.00" fill="#000000">regulation of</text>
<text text-anchor="middle" x="289.5011" y="-25" font-family="Times,serif" font-size="14.00" fill="#000000">transcription, DNA&#45;</text>
<text text-anchor="middle" x="289.5011" y="-8.2" font-family="Times,serif" font-size="14.00" fill="#000000">templated</text>
</g>
<!-- GO:2000112 -->
<g id="node9" class="node">
<title>GO:2000112</title>
<polygon fill="#ffffff" stroke="#000000" points="506.4001,-297.7003 372.6021,-297.7003 372.6021,-222.2997 506.4001,-222.2997 506.4001,-297.7003"/>
<text text-anchor="middle" x="439.5011" y="-281" font-family="Times,serif" font-size="14.00" fill="#000000">GO:2000112</text>
<text text-anchor="middle" x="439.5011" y="-264.2" font-family="Times,serif" font-size="14.00" fill="#000000">regulation of cellular</text>
<text text-anchor="middle" x="439.5011" y="-247.4" font-family="Times,serif" font-size="14.00" fill="#000000">macromolecule</text>
<text text-anchor="middle" x="439.5011" y="-230.6" font-family="Times,serif" font-size="14.00" fill="#000000">biosynthetic process</text>
</g>
<!-- GO:0006355&#45;&gt;GO:2000112 -->
<g id="edge9" class="edge">
<title>GO:0006355&#45;&gt;GO:2000112</title>
<path fill="none" stroke="#000000" d="M332.944,-75.4847C344.0139,-86.3572 355.3548,-98.6779 364.5011,-111.2 387.5195,-142.7144 407.1047,-182.3345 420.4832,-212.7666"/>
<polygon fill="#000000" stroke="#000000" points="417.4246,-214.512 424.6052,-222.3024 423.85,-211.7345 417.4246,-214.512"/>
</g>
<!-- GO:0010468 -->
<g id="node10" class="node">
<title>GO:0010468</title>
<polygon fill="#ff0000" stroke="#000000" points="183.3526,-178.2014 65.6496,-178.2014 65.6496,-119.3986 183.3526,-119.3986 183.3526,-178.2014"/>
<text text-anchor="middle" x="124.5011" y="-161.4" font-family="Times,serif" font-size="14.00" fill="#000000">GO:0010468</text>
<text text-anchor="middle" x="124.5011" y="-144.6" font-family="Times,serif" font-size="14.00" fill="#000000">regulation of gene</text>
<text text-anchor="middle" x="124.5011" y="-127.8" font-family="Times,serif" font-size="14.00" fill="#000000">expression</text>
</g>
<!-- GO:0006355&#45;&gt;GO:0010468 -->
<g id="edge10" class="edge">
<title>GO:0006355&#45;&gt;GO:0010468</title>
<path fill="none" stroke="#000000" d="M233.6396,-75.2472C215.2407,-87.647 194.8617,-101.3812 176.743,-113.5921"/>
<polygon fill="#000000" stroke="#000000" points="174.385,-110.9606 168.0485,-119.4517 178.2971,-116.7654 174.385,-110.9606"/>
</g>
<!-- GO:1903506 -->
<g id="node11" class="node">
<title>GO:1903506</title>
<polygon fill="#ffffff" stroke="#000000" points="355.3484,-186.5003 223.6538,-186.5003 223.6538,-111.0997 355.3484,-111.0997 355.3484,-186.5003"/>
<text text-anchor="middle" x="289.5011" y="-169.8" font-family="Times,serif" font-size="14.00" fill="#000000">GO:1903506</text>
<text text-anchor="middle" x="289.5011" y="-153" font-family="Times,serif" font-size="14.00" fill="#000000">regulation of nucleic</text>
<text text-anchor="middle" x="289.5011" y="-136.2" font-family="Times,serif" font-size="14.00" fill="#000000">acid&#45;templated</text>
<text text-anchor="middle" x="289.5011" y="-119.4" font-family="Times,serif" font-size="14.00" fill="#000000">transcription</text>
</g>
<!-- GO:0006355&#45;&gt;GO:1903506 -->
<g id="edge11" class="edge">
<title>GO:0006355&#45;&gt;GO:1903506</title>
<path fill="none" stroke="#000000" d="M289.5011,-75.2472C289.5011,-83.58 289.5011,-92.5155 289.5011,-101.1863"/>
<polygon fill="#000000" stroke="#000000" points="286.0012,-101.1915 289.5011,-111.1915 293.0012,-101.1916 286.0012,-101.1915"/>
</g>
<!-- GO:0031326 -->
<g id="node12" class="node">
<title>GO:0031326</title>
<polygon fill="#ffffff" stroke="#000000" points="528.4001,-400.6014 394.6021,-400.6014 394.6021,-341.7986 528.4001,-341.7986 528.4001,-400.6014"/>
<text text-anchor="middle" x="461.5011" y="-383.8" font-family="Times,serif" font-size="14.00" fill="#000000">GO:0031326</text>
<text text-anchor="middle" x="461.5011" y="-367" font-family="Times,serif" font-size="14.00" fill="#000000">regulation of cellular</text>
<text text-anchor="middle" x="461.5011" y="-350.2" font-family="Times,serif" font-size="14.00" fill="#000000">biosynthetic process</text>
</g>
<!-- GO:2000112&#45;&gt;GO:0031326 -->
<g id="edge12" class="edge">
<title>GO:2000112&#45;&gt;GO:0031326</title>
<path fill="none" stroke="#000000" d="M446.9493,-297.6472C449.1253,-308.646 451.5091,-320.6948 453.706,-331.7991"/>
<polygon fill="#000000" stroke="#000000" points="450.2853,-332.5436 455.6597,-341.6742 457.1522,-331.185 450.2853,-332.5436"/>
</g>
<!-- GO:0010556 -->
<g id="node13" class="node">
<title>GO:0010556</title>
<polygon fill="#ffffff" stroke="#000000" points="376.4163,-408.9003 246.5859,-408.9003 246.5859,-333.4997 376.4163,-333.4997 376.4163,-408.9003"/>
<text text-anchor="middle" x="311.5011" y="-392.2" font-family="Times,serif" font-size="14.00" fill="#000000">GO:0010556</text>
<text text-anchor="middle" x="311.5011" y="-375.4" font-family="Times,serif" font-size="14.00" fill="#000000">regulation of</text>
<text text-anchor="middle" x="311.5011" y="-358.6" font-family="Times,serif" font-size="14.00" fill="#000000">macromolecule</text>
<text text-anchor="middle" x="311.5011" y="-341.8" font-family="Times,serif" font-size="14.00" fill="#000000">biosynthetic process</text>
</g>
<!-- GO:2000112&#45;&gt;GO:0010556 -->
<g id="edge13" class="edge">
<title>GO:2000112&#45;&gt;GO:0010556</title>
<path fill="none" stroke="#000000" d="M396.1661,-297.6472C385.3234,-307.0669 373.5941,-317.2567 362.4205,-326.9638"/>
<polygon fill="#000000" stroke="#000000" points="360.0451,-324.391 354.7914,-333.5915 364.636,-329.6754 360.0451,-324.391"/>
</g>
<!-- GO:0010468&#45;&gt;GO:0060255 -->
<g id="edge14" class="edge">
<title>GO:0010468&#45;&gt;GO:0060255</title>
<path fill="none" stroke="#000000" d="M120.4499,-178.2366C115.4482,-214.6953 106.7182,-278.7102 99.5011,-333.6 95.052,-367.4379 90.179,-405.6252 86.482,-434.8416"/>
<polygon fill="#000000" stroke="#000000" points="83.0075,-434.4198 85.226,-444.7798 89.9523,-435.2976 83.0075,-434.4198"/>
</g>
<!-- GO:2001141 -->
<g id="node14" class="node">
<title>GO:2001141</title>
<polygon fill="#ffffff" stroke="#000000" points="354.4163,-289.4014 224.5859,-289.4014 224.5859,-230.5986 354.4163,-230.5986 354.4163,-289.4014"/>
<text text-anchor="middle" x="289.5011" y="-272.6" font-family="Times,serif" font-size="14.00" fill="#000000">GO:2001141</text>
<text text-anchor="middle" x="289.5011" y="-255.8" font-family="Times,serif" font-size="14.00" fill="#000000">regulation of RNA</text>
<text text-anchor="middle" x="289.5011" y="-239" font-family="Times,serif" font-size="14.00" fill="#000000">biosynthetic process</text>
</g>
<!-- GO:1903506&#45;&gt;GO:2001141 -->
<g id="edge15" class="edge">
<title>GO:1903506&#45;&gt;GO:2001141</title>
<path fill="none" stroke="#000000" d="M289.5011,-186.4472C289.5011,-197.3338 289.5011,-209.249 289.5011,-220.2589"/>
<polygon fill="#000000" stroke="#000000" points="286.0012,-220.4741 289.5011,-230.4742 293.0012,-220.4742 286.0012,-220.4741"/>
</g>
<!-- GO:0009889 -->
<g id="node15" class="node">
<title>GO:0009889</title>
<polygon fill="#ffffff" stroke="#000000" points="485.4163,-511.8014 355.5859,-511.8014 355.5859,-452.9986 485.4163,-452.9986 485.4163,-511.8014"/>
<text text-anchor="middle" x="420.5011" y="-495" font-family="Times,serif" font-size="14.00" fill="#000000">GO:0009889</text>
<text text-anchor="middle" x="420.5011" y="-478.2" font-family="Times,serif" font-size="14.00" fill="#000000">regulation of</text>
<text text-anchor="middle" x="420.5011" y="-461.4" font-family="Times,serif" font-size="14.00" fill="#000000">biosynthetic process</text>
</g>
<!-- GO:0031326&#45;&gt;GO:0009889 -->
<g id="edge16" class="edge">
<title>GO:0031326&#45;&gt;GO:0009889</title>
<path fill="none" stroke="#000000" d="M450.7288,-400.4165C445.871,-413.5919 440.0644,-429.3405 434.8447,-443.4973"/>
<polygon fill="#000000" stroke="#000000" points="431.5193,-442.3992 431.3438,-452.9926 438.0871,-444.8208 431.5193,-442.3992"/>
</g>
<!-- GO:0031323 -->
<g id="node16" class="node">
<title>GO:0031323</title>
<polygon fill="#ff0000" stroke="#000000" points="582.4001,-623.0014 448.6021,-623.0014 448.6021,-564.1986 582.4001,-564.1986 582.4001,-623.0014"/>
<text text-anchor="middle" x="515.5011" y="-606.2" font-family="Times,serif" font-size="14.00" fill="#000000">GO:0031323</text>
<text text-anchor="middle" x="515.5011" y="-589.4" font-family="Times,serif" font-size="14.00" fill="#000000">regulation of cellular</text>
<text text-anchor="middle" x="515.5011" y="-572.6" font-family="Times,serif" font-size="14.00" fill="#000000">metabolic process</text>
</g>
<!-- GO:0031326&#45;&gt;GO:0031323 -->
<g id="edge17" class="edge">
<title>GO:0031326&#45;&gt;GO:0031323</title>
<path fill="none" stroke="#000000" d="M476.9524,-400.56C483.2942,-413.7595 490.154,-429.7307 494.5011,-444.8 504.9479,-481.0137 510.2916,-523.7419 512.9649,-554.0994"/>
<polygon fill="#000000" stroke="#000000" points="509.4951,-554.6109 513.8031,-564.2903 516.4715,-554.0371 509.4951,-554.6109"/>
</g>
<!-- GO:0010556&#45;&gt;GO:0060255 -->
<g id="edge18" class="edge">
<title>GO:0010556&#45;&gt;GO:0060255</title>
<path fill="none" stroke="#000000" d="M246.1874,-404.5279C243.2556,-405.9793 240.3499,-407.4089 237.5011,-408.8 215.8436,-419.3753 192.3766,-430.5346 170.3503,-440.8782"/>
<polygon fill="#000000" stroke="#000000" points="168.5773,-437.8438 161.0081,-445.2572 171.5482,-444.1821 168.5773,-437.8438"/>
</g>
<!-- GO:0010556&#45;&gt;GO:0009889 -->
<g id="edge19" class="edge">
<title>GO:0010556&#45;&gt;GO:0009889</title>
<path fill="none" stroke="#000000" d="M348.4035,-408.8472C360.0648,-420.7439 372.9302,-433.869 384.5258,-445.6986"/>
<polygon fill="#000000" stroke="#000000" points="382.0598,-448.1828 391.5594,-452.8742 387.0588,-443.2827 382.0598,-448.1828"/>
</g>
<!-- GO:2001141&#45;&gt;GO:0031326 -->
<g id="edge20" class="edge">
<title>GO:2001141&#45;&gt;GO:0031326</title>
<path fill="none" stroke="#000000" d="M334.6921,-289.2165C357.1195,-303.7161 384.3673,-321.3321 407.8489,-336.5132"/>
<polygon fill="#000000" stroke="#000000" points="406.0156,-339.4957 416.3136,-341.9858 409.8161,-333.6172 406.0156,-339.4957"/>
</g>
<!-- GO:2001141&#45;&gt;GO:0010556 -->
<g id="edge22" class="edge">
<title>GO:2001141&#45;&gt;GO:0010556</title>
<path fill="none" stroke="#000000" d="M295.2813,-289.2165C297.3491,-299.6682 299.7372,-311.7391 302.0344,-323.3501"/>
<polygon fill="#000000" stroke="#000000" points="298.645,-324.2525 304.0193,-333.383 305.5119,-322.8939 298.645,-324.2525"/>
</g>
<!-- GO:0051252 -->
<g id="node17" class="node">
<title>GO:0051252</title>
<polygon fill="#ffffff" stroke="#000000" points="228.9731,-400.6014 108.0291,-400.6014 108.0291,-341.7986 228.9731,-341.7986 228.9731,-400.6014"/>
<text text-anchor="middle" x="168.5011" y="-383.8" font-family="Times,serif" font-size="14.00" fill="#000000">GO:0051252</text>
<text text-anchor="middle" x="168.5011" y="-367" font-family="Times,serif" font-size="14.00" fill="#000000">regulation of RNA</text>
<text text-anchor="middle" x="168.5011" y="-350.2" font-family="Times,serif" font-size="14.00" fill="#000000">metabolic process</text>
</g>
<!-- GO:2001141&#45;&gt;GO:0051252 -->
<g id="edge21" class="edge">
<title>GO:2001141&#45;&gt;GO:0051252</title>
<path fill="none" stroke="#000000" d="M257.7098,-289.2165C242.5461,-303.1521 224.25,-319.9663 208.1843,-334.7308"/>
<polygon fill="#000000" stroke="#000000" points="205.4949,-332.4489 200.5002,-341.7926 210.2315,-337.603 205.4949,-332.4489"/>
</g>
<!-- GO:0009889&#45;&gt;GO:0019222 -->
<g id="edge23" class="edge">
<title>GO:0009889&#45;&gt;GO:0019222</title>
<path fill="none" stroke="#000000" d="M421.9526,-511.8357C422.3289,-542.9642 419.5656,-592.7852 401.5011,-631.2 396.7537,-641.2954 389.8546,-650.8676 382.3887,-659.4128"/>
<polygon fill="#000000" stroke="#000000" points="379.6337,-657.2371 375.4185,-666.9573 384.7753,-661.9873 379.6337,-657.2371"/>
</g>
<!-- GO:0031323&#45;&gt;GO:0019222 -->
<g id="edge24" class="edge">
<title>GO:0031323&#45;&gt;GO:0019222</title>
<path fill="none" stroke="#000000" d="M465.3531,-623.0584C444.6698,-635.2084 420.5585,-649.372 399.0702,-661.9948"/>
<polygon fill="#000000" stroke="#000000" points="397.2032,-659.0323 390.3536,-667.1152 400.7488,-665.068 397.2032,-659.0323"/>
</g>
<!-- GO:0031323&#45;&gt;GO:0050794 -->
<g id="edge25" class="edge">
<title>GO:0031323&#45;&gt;GO:0050794</title>
<path fill="none" stroke="#000000" d="M510.6296,-623.0584C508.8868,-633.5969 506.8935,-645.6505 505.0333,-656.8994"/>
<polygon fill="#000000" stroke="#000000" points="501.5518,-656.5003 503.3733,-666.9373 508.4581,-657.6424 501.5518,-656.5003"/>
</g>
<!-- GO:0051252&#45;&gt;GO:0060255 -->
<g id="edge27" class="edge">
<title>GO:0051252&#45;&gt;GO:0060255</title>
<path fill="none" stroke="#000000" d="M145.3801,-400.4165C136.6078,-411.5016 126.3939,-424.4082 116.7017,-436.6556"/>
<polygon fill="#000000" stroke="#000000" points="113.8892,-434.5694 110.4282,-444.583 119.3784,-438.9134 113.8892,-434.5694"/>
</g>
<!-- GO:0019219 -->
<g id="node18" class="node">
<title>GO:0019219</title>
<polygon fill="#ffffff" stroke="#000000" points="337.7777,-520.1003 179.2245,-520.1003 179.2245,-444.6997 337.7777,-444.6997 337.7777,-520.1003"/>
<text text-anchor="middle" x="258.5011" y="-503.4" font-family="Times,serif" font-size="14.00" fill="#000000">GO:0019219</text>
<text text-anchor="middle" x="258.5011" y="-486.6" font-family="Times,serif" font-size="14.00" fill="#000000">regulation of nucleobase&#45;</text>
<text text-anchor="middle" x="258.5011" y="-469.8" font-family="Times,serif" font-size="14.00" fill="#000000">containing compound</text>
<text text-anchor="middle" x="258.5011" y="-453" font-family="Times,serif" font-size="14.00" fill="#000000">metabolic process</text>
</g>
<!-- GO:0051252&#45;&gt;GO:0019219 -->
<g id="edge26" class="edge">
<title>GO:0051252&#45;&gt;GO:0019219</title>
<path fill="none" stroke="#000000" d="M192.1475,-400.4165C201.1193,-411.5016 211.5653,-424.4082 221.4778,-436.6556"/>
<polygon fill="#000000" stroke="#000000" points="218.882,-439.0118 227.8938,-444.583 224.3232,-434.608 218.882,-439.0118"/>
</g>
<!-- GO:0019219&#45;&gt;GO:0080090 -->
<g id="edge29" class="edge">
<title>GO:0019219&#45;&gt;GO:0080090</title>
<path fill="none" stroke="#000000" d="M228.0312,-520.0472C218.5843,-531.7194 208.1803,-544.5741 198.7486,-556.2276"/>
<polygon fill="#000000" stroke="#000000" points="195.9685,-554.0991 192.3979,-564.0742 201.4097,-558.503 195.9685,-554.0991"/>
</g>
<!-- GO:0019219&#45;&gt;GO:0031323 -->
<g id="edge28" class="edge">
<title>GO:0019219&#45;&gt;GO:0031323</title>
<path fill="none" stroke="#000000" d="M337.7066,-516.671C370.0573,-530.6687 407.3211,-546.7921 439.3507,-560.6509"/>
<polygon fill="#000000" stroke="#000000" points="438.1055,-563.9256 448.6731,-564.6846 440.8853,-557.5012 438.1055,-563.9256"/>
</g>
<!-- GO:0051171 -->
<g id="node19" class="node">
<title>GO:0051171</title>
<polygon fill="#ff0000" stroke="#000000" points="392.5797,-631.3003 254.4225,-631.3003 254.4225,-555.8997 392.5797,-555.8997 392.5797,-631.3003"/>
<text text-anchor="middle" x="323.5011" y="-614.6" font-family="Times,serif" font-size="14.00" fill="#000000">GO:0051171</text>
<text text-anchor="middle" x="323.5011" y="-597.8" font-family="Times,serif" font-size="14.00" fill="#000000">regulation of nitrogen</text>
<text text-anchor="middle" x="323.5011" y="-581" font-family="Times,serif" font-size="14.00" fill="#000000">compound metabolic</text>
<text text-anchor="middle" x="323.5011" y="-564.2" font-family="Times,serif" font-size="14.00" fill="#000000">process</text>
</g>
<!-- GO:0019219&#45;&gt;GO:0051171 -->
<g id="edge30" class="edge">
<title>GO:0019219&#45;&gt;GO:0051171</title>
<path fill="none" stroke="#000000" d="M280.5071,-520.0472C285.5897,-528.7423 291.0558,-538.0936 296.3295,-547.1157"/>
<polygon fill="#000000" stroke="#000000" points="293.4496,-549.1245 301.5177,-555.9915 299.4929,-545.592 293.4496,-549.1245"/>
</g>
<!-- GO:0051171&#45;&gt;GO:0019222 -->
<g id="edge31" class="edge">
<title>GO:0051171&#45;&gt;GO:0019222</title>
<path fill="none" stroke="#000000" d="M329.7347,-631.2952C331.1226,-639.6874 332.5973,-648.6054 333.9958,-657.0618"/>
<polygon fill="#000000" stroke="#000000" points="330.568,-657.7864 335.6527,-667.0814 337.4742,-656.6443 330.568,-657.7864"/>
</g>
</g>
</svg>
