<?xml version="1.0" encoding="UTF-8" standalone="no"?>
<!DOCTYPE svg PUBLIC "-//W3C//DTD SVG 1.1//EN"
 "http://www.w3.org/Graphics/SVG/1.1/DTD/svg11.dtd">
<!-- Generated by graphviz version 2.40.1 (20161225.0304)
 -->
<!-- Title: G Pages: 1 -->
<svg width="294pt" height="471pt"
 viewBox="0.00 0.00 293.59 471.20" xmlns="http://www.w3.org/2000/svg" xmlns:xlink="http://www.w3.org/1999/xlink">
<g id="graph0" class="graph" transform="scale(1 1) rotate(0) translate(4 467.2)">
<title>G</title>
<polygon fill="#ffffff" stroke="transparent" points="-4,4 -4,-467.2 289.5895,-467.2 289.5895,4 -4,4"/>
<!-- GO:0043231 -->
<g id="node1" class="node">
<title>GO:0043231</title>
<polygon fill="#ff0000" stroke="#000000" points="220.9879,-136.2014 70.2303,-136.2014 70.2303,-77.3986 220.9879,-77.3986 220.9879,-136.2014"/>
<text text-anchor="middle" x="145.6091" y="-119.4" font-family="Times,serif" font-size="14.00" fill="#000000">GO:0043231</text>
<text text-anchor="middle" x="145.6091" y="-102.6" font-family="Times,serif" font-size="14.00" fill="#000000">intracellular membrane&#45;</text>
<text text-anchor="middle" x="145.6091" y="-85.8" font-family="Times,serif" font-size="14.00" fill="#000000">bounded organelle</text>
</g>
<!-- GO:0043229 -->
<g id="node2" class="node">
<title>GO:0043229</title>
<polygon fill="#ffffff" stroke="#000000" points="139.3275,-221.8019 -.1093,-221.8019 -.1093,-180.5981 139.3275,-180.5981 139.3275,-221.8019"/>
<text text-anchor="middle" x="69.6091" y="-205.4" font-family="Times,serif" font-size="14.00" fill="#000000">GO:0043229</text>
<text text-anchor="middle" x="69.6091" y="-188.6" font-family="Times,serif" font-size="14.00" fill="#000000">intracellular organelle</text>
</g>
<!-- GO:0043231&#45;&gt;GO:0043229 -->
<g id="edge1" class="edge">
<title>GO:0043231&#45;&gt;GO:0043229</title>
<path fill="none" stroke="#000000" d="M121.9788,-136.1513C112.6519,-147.7363 101.9705,-161.0037 92.6973,-172.522"/>
<polygon fill="#000000" stroke="#000000" points="89.7781,-170.5667 86.2333,-180.551 95.2307,-174.9565 89.7781,-170.5667"/>
</g>
<!-- GO:0043227 -->
<g id="node3" class="node">
<title>GO:0043227</title>
<polygon fill="#ffffff" stroke="#000000" points="285.5699,-230.6014 157.6483,-230.6014 157.6483,-171.7986 285.5699,-171.7986 285.5699,-230.6014"/>
<text text-anchor="middle" x="221.6091" y="-213.8" font-family="Times,serif" font-size="14.00" fill="#000000">GO:0043227</text>
<text text-anchor="middle" x="221.6091" y="-197" font-family="Times,serif" font-size="14.00" fill="#000000">membrane&#45;bounded</text>
<text text-anchor="middle" x="221.6091" y="-180.2" font-family="Times,serif" font-size="14.00" fill="#000000">organelle</text>
</g>
<!-- GO:0043231&#45;&gt;GO:0043227 -->
<g id="edge2" class="edge">
<title>GO:0043231&#45;&gt;GO:0043227</title>
<path fill="none" stroke="#000000" d="M169.2394,-136.1513C176.3168,-144.9422 184.1741,-154.7018 191.6042,-163.9308"/>
<polygon fill="#000000" stroke="#000000" points="188.9961,-166.2724 197.9934,-171.8669 194.4486,-161.8826 188.9961,-166.2724"/>
</g>
<!-- GO:0044424 -->
<g id="node4" class="node">
<title>GO:0044424</title>
<polygon fill="#ff0000" stroke="#000000" points="124.0075,-307.8019 15.2107,-307.8019 15.2107,-266.5981 124.0075,-266.5981 124.0075,-307.8019"/>
<text text-anchor="middle" x="69.6091" y="-291.4" font-family="Times,serif" font-size="14.00" fill="#000000">GO:0044424</text>
<text text-anchor="middle" x="69.6091" y="-274.6" font-family="Times,serif" font-size="14.00" fill="#000000">intracellular part</text>
</g>
<!-- GO:0043229&#45;&gt;GO:0044424 -->
<g id="edge3" class="edge">
<title>GO:0043229&#45;&gt;GO:0044424</title>
<path fill="none" stroke="#000000" d="M69.6091,-222.0182C69.6091,-232.3705 69.6091,-245.0848 69.6091,-256.5271"/>
<polygon fill="#000000" stroke="#000000" points="66.1092,-256.5735 69.6091,-266.5735 73.1092,-256.5735 66.1092,-256.5735"/>
</g>
<!-- GO:0043226 -->
<g id="node5" class="node">
<title>GO:0043226</title>
<polygon fill="#ff0000" stroke="#000000" points="231.213,-307.8019 142.0052,-307.8019 142.0052,-266.5981 231.213,-266.5981 231.213,-307.8019"/>
<text text-anchor="middle" x="186.6091" y="-291.4" font-family="Times,serif" font-size="14.00" fill="#000000">GO:0043226</text>
<text text-anchor="middle" x="186.6091" y="-274.6" font-family="Times,serif" font-size="14.00" fill="#000000">organelle</text>
</g>
<!-- GO:0043229&#45;&gt;GO:0043226 -->
<g id="edge4" class="edge">
<title>GO:0043229&#45;&gt;GO:0043226</title>
<path fill="none" stroke="#000000" d="M97.9315,-222.0182C113.5963,-233.5325 133.2365,-247.9688 150.0492,-260.3269"/>
<polygon fill="#000000" stroke="#000000" points="148.4171,-263.471 158.5475,-266.5735 152.5629,-257.8308 148.4171,-263.471"/>
</g>
<!-- GO:0043227&#45;&gt;GO:0043226 -->
<g id="edge5" class="edge">
<title>GO:0043227&#45;&gt;GO:0043226</title>
<path fill="none" stroke="#000000" d="M209.5641,-230.7963C206.0873,-239.3393 202.2913,-248.6667 198.8054,-257.2321"/>
<polygon fill="#000000" stroke="#000000" points="195.5627,-255.9149 195.0349,-266.4966 202.0463,-258.5536 195.5627,-255.9149"/>
</g>
<!-- GO:0044464 -->
<g id="node6" class="node">
<title>GO:0044464</title>
<polygon fill="#ffffff" stroke="#000000" points="136.213,-385.4019 47.0052,-385.4019 47.0052,-344.1981 136.213,-344.1981 136.213,-385.4019"/>
<text text-anchor="middle" x="91.6091" y="-369" font-family="Times,serif" font-size="14.00" fill="#000000">GO:0044464</text>
<text text-anchor="middle" x="91.6091" y="-352.2" font-family="Times,serif" font-size="14.00" fill="#000000">cell part</text>
</g>
<!-- GO:0044424&#45;&gt;GO:0044464 -->
<g id="edge6" class="edge">
<title>GO:0044424&#45;&gt;GO:0044464</title>
<path fill="none" stroke="#000000" d="M75.5047,-307.9954C77.7734,-315.9978 80.4144,-325.3133 82.8934,-334.0575"/>
<polygon fill="#000000" stroke="#000000" points="79.6023,-335.2811 85.6972,-343.9472 86.3369,-333.3717 79.6023,-335.2811"/>
</g>
<!-- GO:0005575 -->
<g id="node7" class="node">
<title>GO:0005575</title>
<polygon fill="#ffffff" stroke="#000000" points="191.2958,-463.0019 63.9224,-463.0019 63.9224,-421.7981 191.2958,-421.7981 191.2958,-463.0019"/>
<text text-anchor="middle" x="127.6091" y="-446.6" font-family="Times,serif" font-size="14.00" fill="#000000">GO:0005575</text>
<text text-anchor="middle" x="127.6091" y="-429.8" font-family="Times,serif" font-size="14.00" fill="#000000">cellular_component</text>
</g>
<!-- GO:0043226&#45;&gt;GO:0005575 -->
<g id="edge7" class="edge">
<title>GO:0043226&#45;&gt;GO:0005575</title>
<path fill="none" stroke="#000000" d="M178.7744,-307.8094C168.5918,-334.5947 150.734,-381.5697 139.0392,-412.3331"/>
<polygon fill="#000000" stroke="#000000" points="135.7582,-411.1143 135.4762,-421.7054 142.3013,-413.6018 135.7582,-411.1143"/>
</g>
<!-- GO:0044464&#45;&gt;GO:0005575 -->
<g id="edge9" class="edge">
<title>GO:0044464&#45;&gt;GO:0005575</title>
<path fill="none" stroke="#000000" d="M101.2564,-385.5954C105.0496,-393.7718 109.4787,-403.3189 113.6113,-412.227"/>
<polygon fill="#000000" stroke="#000000" points="110.5517,-413.9488 117.9351,-421.5472 116.9017,-411.0029 110.5517,-413.9488"/>
</g>
<!-- GO:0005634 -->
<g id="node8" class="node">
<title>GO:0005634</title>
<polygon fill="#ff0000" stroke="#000000" points="190.213,-41.4019 101.0052,-41.4019 101.0052,-.1981 190.213,-.1981 190.213,-41.4019"/>
<text text-anchor="middle" x="145.6091" y="-25" font-family="Times,serif" font-size="14.00" fill="#000000">GO:0005634</text>
<text text-anchor="middle" x="145.6091" y="-8.2" font-family="Times,serif" font-size="14.00" fill="#000000">nucleus</text>
</g>
<!-- GO:0005634&#45;&gt;GO:0043231 -->
<g id="edge8" class="edge">
<title>GO:0005634&#45;&gt;GO:0043231</title>
<path fill="none" stroke="#000000" d="M145.6091,-41.6182C145.6091,-49.3358 145.6091,-58.3662 145.6091,-67.2036"/>
<polygon fill="#000000" stroke="#000000" points="142.1092,-67.3991 145.6091,-77.3991 149.1092,-67.3992 142.1092,-67.3991"/>
</g>
</g>
</svg>
