<?xml version="1.0" encoding="UTF-8" standalone="no"?>
<!DOCTYPE svg PUBLIC "-//W3C//DTD SVG 1.1//EN"
 "http://www.w3.org/Graphics/SVG/1.1/DTD/svg11.dtd">
<!-- Generated by graphviz version 2.40.1 (20161225.0304)
 -->
<!-- Title: G Pages: 1 -->
<svg width="488pt" height="272pt"
 viewBox="0.00 0.00 488.32 272.00" xmlns="http://www.w3.org/2000/svg" xmlns:xlink="http://www.w3.org/1999/xlink">
<g id="graph0" class="graph" transform="scale(1 1) rotate(0) translate(4 268)">
<title>G</title>
<polygon fill="#ffffff" stroke="transparent" points="-4,4 -4,-268 484.3209,-268 484.3209,4 -4,4"/>
<!-- GO:1901363 -->
<g id="node1" class="node">
<title>GO:1901363</title>
<polygon fill="#00ffff" stroke="#000000" points="147.0159,-67.0014 -.0053,-67.0014 -.0053,-8.1986 147.0159,-8.1986 147.0159,-67.0014"/>
<text text-anchor="middle" x="73.5053" y="-50.2" font-family="Times,serif" font-size="14.00" fill="#000000">GO:1901363</text>
<text text-anchor="middle" x="73.5053" y="-33.4" font-family="Times,serif" font-size="14.00" fill="#000000">heterocyclic compound</text>
<text text-anchor="middle" x="73.5053" y="-16.6" font-family="Times,serif" font-size="14.00" fill="#000000">binding</text>
</g>
<!-- GO:0005488 -->
<g id="node2" class="node">
<title>GO:0005488</title>
<polygon fill="#ffffff" stroke="#000000" points="288.1092,-169.4019 198.9014,-169.4019 198.9014,-128.1981 288.1092,-128.1981 288.1092,-169.4019"/>
<text text-anchor="middle" x="243.5053" y="-153" font-family="Times,serif" font-size="14.00" fill="#000000">GO:0005488</text>
<text text-anchor="middle" x="243.5053" y="-136.2" font-family="Times,serif" font-size="14.00" fill="#000000">binding</text>
</g>
<!-- GO:1901363&#45;&gt;GO:0005488 -->
<g id="edge1" class="edge">
<title>GO:1901363&#45;&gt;GO:0005488</title>
<path fill="none" stroke="#000000" d="M118.1708,-66.8165C144.4827,-84.0276 177.5073,-105.6296 203.051,-122.3381"/>
<polygon fill="#000000" stroke="#000000" points="201.4662,-125.4837 211.7508,-128.0288 205.2981,-119.6257 201.4662,-125.4837"/>
</g>
<!-- GO:0003674 -->
<g id="node3" class="node">
<title>GO:0003674</title>
<polygon fill="#ffffff" stroke="#000000" points="369.1384,-263.8019 243.8722,-263.8019 243.8722,-222.5981 369.1384,-222.5981 369.1384,-263.8019"/>
<text text-anchor="middle" x="306.5053" y="-247.4" font-family="Times,serif" font-size="14.00" fill="#000000">GO:0003674</text>
<text text-anchor="middle" x="306.5053" y="-230.6" font-family="Times,serif" font-size="14.00" fill="#000000">molecular_function</text>
</g>
<!-- GO:0005488&#45;&gt;GO:0003674 -->
<g id="edge2" class="edge">
<title>GO:0005488&#45;&gt;GO:0003674</title>
<path fill="none" stroke="#000000" d="M257.487,-169.7504C266.1328,-182.7054 277.3602,-199.5287 286.8881,-213.8053"/>
<polygon fill="#000000" stroke="#000000" points="284.1003,-215.9332 292.5626,-222.3081 289.9228,-212.0474 284.1003,-215.9332"/>
</g>
<!-- GO:0003700 -->
<g id="node4" class="node">
<title>GO:0003700</title>
<polygon fill="#ffa500" stroke="#000000" points="480.137,-75.3003 340.8736,-75.3003 340.8736,.1003 480.137,.1003 480.137,-75.3003"/>
<text text-anchor="middle" x="410.5053" y="-58.6" font-family="Times,serif" font-size="14.00" fill="#000000">GO:0003700</text>
<text text-anchor="middle" x="410.5053" y="-41.8" font-family="Times,serif" font-size="14.00" fill="#000000">transcription factor</text>
<text text-anchor="middle" x="410.5053" y="-25" font-family="Times,serif" font-size="14.00" fill="#000000">activity, sequence&#45;</text>
<text text-anchor="middle" x="410.5053" y="-8.2" font-family="Times,serif" font-size="14.00" fill="#000000">specific DNA binding</text>
</g>
<!-- GO:0001071 -->
<g id="node5" class="node">
<title>GO:0001071</title>
<polygon fill="#ffffff" stroke="#000000" points="455.0322,-186.5003 325.9784,-186.5003 325.9784,-111.0997 455.0322,-111.0997 455.0322,-186.5003"/>
<text text-anchor="middle" x="390.5053" y="-169.8" font-family="Times,serif" font-size="14.00" fill="#000000">GO:0001071</text>
<text text-anchor="middle" x="390.5053" y="-153" font-family="Times,serif" font-size="14.00" fill="#000000">nucleic acid binding</text>
<text text-anchor="middle" x="390.5053" y="-136.2" font-family="Times,serif" font-size="14.00" fill="#000000">transcription factor</text>
<text text-anchor="middle" x="390.5053" y="-119.4" font-family="Times,serif" font-size="14.00" fill="#000000">activity</text>
</g>
<!-- GO:0003700&#45;&gt;GO:0001071 -->
<g id="edge3" class="edge">
<title>GO:0003700&#45;&gt;GO:0001071</title>
<path fill="none" stroke="#000000" d="M403.7342,-75.2472C402.2355,-83.58 400.6284,-92.5155 399.0689,-101.1863"/>
<polygon fill="#000000" stroke="#000000" points="395.5949,-100.7299 397.2694,-111.1915 402.4844,-101.969 395.5949,-100.7299"/>
</g>
<!-- GO:0001071&#45;&gt;GO:0003674 -->
<g id="edge4" class="edge">
<title>GO:0001071&#45;&gt;GO:0003674</title>
<path fill="none" stroke="#000000" d="M356.8233,-186.6522C348.4213,-196.0944 339.5567,-206.0565 331.6482,-214.9442"/>
<polygon fill="#000000" stroke="#000000" points="329.0129,-212.6406 324.9801,-222.4379 334.2424,-217.2939 329.0129,-212.6406"/>
</g>
<!-- GO:0097159 -->
<g id="node6" class="node">
<title>GO:0097159</title>
<polygon fill="#00ffff" stroke="#000000" points="322.0167,-67.0014 164.9939,-67.0014 164.9939,-8.1986 322.0167,-8.1986 322.0167,-67.0014"/>
<text text-anchor="middle" x="243.5053" y="-50.2" font-family="Times,serif" font-size="14.00" fill="#000000">GO:0097159</text>
<text text-anchor="middle" x="243.5053" y="-33.4" font-family="Times,serif" font-size="14.00" fill="#000000">organic cyclic compound</text>
<text text-anchor="middle" x="243.5053" y="-16.6" font-family="Times,serif" font-size="14.00" fill="#000000">binding</text>
</g>
<!-- GO:0097159&#45;&gt;GO:0005488 -->
<g id="edge5" class="edge">
<title>GO:0097159&#45;&gt;GO:0005488</title>
<path fill="none" stroke="#000000" d="M243.5053,-66.8165C243.5053,-82.397 243.5053,-101.5758 243.5053,-117.4653"/>
<polygon fill="#000000" stroke="#000000" points="240.0054,-117.8555 243.5053,-127.8556 247.0054,-117.8556 240.0054,-117.8555"/>
</g>
</g>
</svg>
