<?xml version="1.0" encoding="UTF-8" standalone="no"?>
<!DOCTYPE svg PUBLIC "-//W3C//DTD SVG 1.1//EN"
 "http://www.w3.org/Graphics/SVG/1.1/DTD/svg11.dtd">
<!-- Generated by graphviz version 2.40.1 (20161225.0304)
 -->
<!-- Title: G Pages: 1 -->
<svg width="146pt" height="377pt"
 viewBox="0.00 0.00 146.08 376.80" xmlns="http://www.w3.org/2000/svg" xmlns:xlink="http://www.w3.org/1999/xlink">
<g id="graph0" class="graph" transform="scale(1 1) rotate(0) translate(4 372.8)">
<title>G</title>
<polygon fill="#ffffff" stroke="transparent" points="-4,4 -4,-372.8 142.08,-372.8 142.08,4 -4,4"/>
<!-- GO:0005520 -->
<g id="node1" class="node">
<title>GO:0005520</title>
<polygon fill="#ff0000" stroke="#000000" points="130.4706,-58.6014 7.6094,-58.6014 7.6094,.2014 130.4706,.2014 130.4706,-58.6014"/>
<text text-anchor="middle" x="69.04" y="-41.8" font-family="Times,serif" font-size="14.00" fill="#000000">GO:0005520</text>
<text text-anchor="middle" x="69.04" y="-25" font-family="Times,serif" font-size="14.00" fill="#000000">insulin&#45;like growth</text>
<text text-anchor="middle" x="69.04" y="-8.2" font-family="Times,serif" font-size="14.00" fill="#000000">factor binding</text>
</g>
<!-- GO:0019838 -->
<g id="node2" class="node">
<title>GO:0019838</title>
<polygon fill="#ffffff" stroke="#000000" points="138.12,-135.8019 -.04,-135.8019 -.04,-94.5981 138.12,-94.5981 138.12,-135.8019"/>
<text text-anchor="middle" x="69.04" y="-119.4" font-family="Times,serif" font-size="14.00" fill="#000000">GO:0019838</text>
<text text-anchor="middle" x="69.04" y="-102.6" font-family="Times,serif" font-size="14.00" fill="#000000">growth factor binding</text>
</g>
<!-- GO:0005520&#45;&gt;GO:0019838 -->
<g id="edge1" class="edge">
<title>GO:0005520&#45;&gt;GO:0019838</title>
<path fill="none" stroke="#000000" d="M69.04,-58.7963C69.04,-67.0638 69.04,-76.0657 69.04,-84.4008"/>
<polygon fill="#000000" stroke="#000000" points="65.5401,-84.4965 69.04,-94.4966 72.5401,-84.4966 65.5401,-84.4965"/>
</g>
<!-- GO:0005515 -->
<g id="node3" class="node">
<title>GO:0005515</title>
<polygon fill="#ffffff" stroke="#000000" points="119.9776,-213.4019 18.1024,-213.4019 18.1024,-172.1981 119.9776,-172.1981 119.9776,-213.4019"/>
<text text-anchor="middle" x="69.04" y="-197" font-family="Times,serif" font-size="14.00" fill="#000000">GO:0005515</text>
<text text-anchor="middle" x="69.04" y="-180.2" font-family="Times,serif" font-size="14.00" fill="#000000">protein binding</text>
</g>
<!-- GO:0019838&#45;&gt;GO:0005515 -->
<g id="edge2" class="edge">
<title>GO:0019838&#45;&gt;GO:0005515</title>
<path fill="none" stroke="#000000" d="M69.04,-135.9954C69.04,-143.9109 69.04,-153.1109 69.04,-161.7722"/>
<polygon fill="#000000" stroke="#000000" points="65.5401,-161.9472 69.04,-171.9472 72.5401,-161.9473 65.5401,-161.9472"/>
</g>
<!-- GO:0005488 -->
<g id="node4" class="node">
<title>GO:0005488</title>
<polygon fill="#ffffff" stroke="#000000" points="113.6439,-291.0019 24.4361,-291.0019 24.4361,-249.7981 113.6439,-249.7981 113.6439,-291.0019"/>
<text text-anchor="middle" x="69.04" y="-274.6" font-family="Times,serif" font-size="14.00" fill="#000000">GO:0005488</text>
<text text-anchor="middle" x="69.04" y="-257.8" font-family="Times,serif" font-size="14.00" fill="#000000">binding</text>
</g>
<!-- GO:0005515&#45;&gt;GO:0005488 -->
<g id="edge3" class="edge">
<title>GO:0005515&#45;&gt;GO:0005488</title>
<path fill="none" stroke="#000000" d="M69.04,-213.5954C69.04,-221.5109 69.04,-230.7109 69.04,-239.3722"/>
<polygon fill="#000000" stroke="#000000" points="65.5401,-239.5472 69.04,-249.5472 72.5401,-239.5473 65.5401,-239.5472"/>
</g>
<!-- GO:0003674 -->
<g id="node5" class="node">
<title>GO:0003674</title>
<polygon fill="#ffffff" stroke="#000000" points="131.6731,-368.6019 6.4069,-368.6019 6.4069,-327.3981 131.6731,-327.3981 131.6731,-368.6019"/>
<text text-anchor="middle" x="69.04" y="-352.2" font-family="Times,serif" font-size="14.00" fill="#000000">GO:0003674</text>
<text text-anchor="middle" x="69.04" y="-335.4" font-family="Times,serif" font-size="14.00" fill="#000000">molecular_function</text>
</g>
<!-- GO:0005488&#45;&gt;GO:0003674 -->
<g id="edge4" class="edge">
<title>GO:0005488&#45;&gt;GO:0003674</title>
<path fill="none" stroke="#000000" d="M69.04,-291.1954C69.04,-299.1109 69.04,-308.3109 69.04,-316.9722"/>
<polygon fill="#000000" stroke="#000000" points="65.5401,-317.1472 69.04,-327.1472 72.5401,-317.1473 65.5401,-317.1472"/>
</g>
</g>
</svg>
