<?xml version="1.0" encoding="UTF-8" standalone="no"?>
<!DOCTYPE svg PUBLIC "-//W3C//DTD SVG 1.1//EN"
 "http://www.w3.org/Graphics/SVG/1.1/DTD/svg11.dtd">
<!-- Generated by graphviz version 2.40.1 (20161225.0304)
 -->
<!-- Title: G Pages: 1 -->
<svg width="1272pt" height="822pt"
 viewBox="0.00 0.00 1271.80 821.60" xmlns="http://www.w3.org/2000/svg" xmlns:xlink="http://www.w3.org/1999/xlink">
<g id="graph0" class="graph" transform="scale(1 1) rotate(0) translate(4 817.6)">
<title>G</title>
<polygon fill="#ffffff" stroke="transparent" points="-4,4 -4,-817.6 1267.7967,-817.6 1267.7967,4 -4,4"/>
<!-- GO:0033072 -->
<g id="node1" class="node">
<title>GO:0033072</title>
<polygon fill="#ffffff" stroke="#000000" points="431.3192,-58.6014 274.596,-58.6014 274.596,.2014 431.3192,.2014 431.3192,-58.6014"/>
<text text-anchor="middle" x="352.9576" y="-41.8" font-family="Times,serif" font-size="14.00" fill="#000000">GO:0033072</text>
<text text-anchor="middle" x="352.9576" y="-25" font-family="Times,serif" font-size="14.00" fill="#000000">vancomycin biosynthetic</text>
<text text-anchor="middle" x="352.9576" y="-8.2" font-family="Times,serif" font-size="14.00" fill="#000000">process</text>
</g>
<!-- GO:1901137 -->
<g id="node2" class="node">
<title>GO:1901137</title>
<polygon fill="#ffffff" stroke="#000000" points="184.0047,-153.0014 35.9105,-153.0014 35.9105,-94.1986 184.0047,-94.1986 184.0047,-153.0014"/>
<text text-anchor="middle" x="109.9576" y="-136.2" font-family="Times,serif" font-size="14.00" fill="#000000">GO:1901137</text>
<text text-anchor="middle" x="109.9576" y="-119.4" font-family="Times,serif" font-size="14.00" fill="#000000">carbohydrate derivative</text>
<text text-anchor="middle" x="109.9576" y="-102.6" font-family="Times,serif" font-size="14.00" fill="#000000">biosynthetic process</text>
</g>
<!-- GO:0033072&#45;&gt;GO:1901137 -->
<g id="edge1" class="edge">
<title>GO:0033072&#45;&gt;GO:1901137</title>
<path fill="none" stroke="#000000" d="M277.735,-58.4223C251.1767,-68.7396 221.1501,-80.4042 193.9146,-90.9846"/>
<polygon fill="#000000" stroke="#000000" points="192.4616,-87.7941 184.4077,-94.6778 194.9965,-94.3191 192.4616,-87.7941"/>
</g>
<!-- GO:0030651 -->
<g id="node3" class="node">
<title>GO:0030651</title>
<polygon fill="#ffffff" stroke="#000000" points="648.8728,-153.0014 519.0424,-153.0014 519.0424,-94.1986 648.8728,-94.1986 648.8728,-153.0014"/>
<text text-anchor="middle" x="583.9576" y="-136.2" font-family="Times,serif" font-size="14.00" fill="#000000">GO:0030651</text>
<text text-anchor="middle" x="583.9576" y="-119.4" font-family="Times,serif" font-size="14.00" fill="#000000">peptide antibiotic</text>
<text text-anchor="middle" x="583.9576" y="-102.6" font-family="Times,serif" font-size="14.00" fill="#000000">biosynthetic process</text>
</g>
<!-- GO:0033072&#45;&gt;GO:0030651 -->
<g id="edge2" class="edge">
<title>GO:0033072&#45;&gt;GO:0030651</title>
<path fill="none" stroke="#000000" d="M424.4655,-58.4223C451.3717,-69.4177 482.0225,-81.9434 509.2157,-93.0561"/>
<polygon fill="#000000" stroke="#000000" points="508.0974,-96.38 518.6783,-96.9231 510.7454,-89.9002 508.0974,-96.38"/>
</g>
<!-- GO:0033071 -->
<g id="node4" class="node">
<title>GO:0033071</title>
<polygon fill="#ffffff" stroke="#000000" points="345.5889,-153.0014 202.3263,-153.0014 202.3263,-94.1986 345.5889,-94.1986 345.5889,-153.0014"/>
<text text-anchor="middle" x="273.9576" y="-136.2" font-family="Times,serif" font-size="14.00" fill="#000000">GO:0033071</text>
<text text-anchor="middle" x="273.9576" y="-119.4" font-family="Times,serif" font-size="14.00" fill="#000000">vancomycin metabolic</text>
<text text-anchor="middle" x="273.9576" y="-102.6" font-family="Times,serif" font-size="14.00" fill="#000000">process</text>
</g>
<!-- GO:0033072&#45;&gt;GO:0033071 -->
<g id="edge3" class="edge">
<title>GO:0033072&#45;&gt;GO:0033071</title>
<path fill="none" stroke="#000000" d="M328.3946,-58.5513C321.0378,-67.3422 312.8703,-77.1018 305.1469,-86.3308"/>
<polygon fill="#000000" stroke="#000000" points="302.2392,-84.3517 298.5055,-94.2669 307.6074,-88.8442 302.2392,-84.3517"/>
</g>
<!-- GO:0019184 -->
<g id="node5" class="node">
<title>GO:0019184</title>
<polygon fill="#ffffff" stroke="#000000" points="500.6599,-153.0014 363.2553,-153.0014 363.2553,-94.1986 500.6599,-94.1986 500.6599,-153.0014"/>
<text text-anchor="middle" x="431.9576" y="-136.2" font-family="Times,serif" font-size="14.00" fill="#000000">GO:0019184</text>
<text text-anchor="middle" x="431.9576" y="-119.4" font-family="Times,serif" font-size="14.00" fill="#000000">nonribosomal peptide</text>
<text text-anchor="middle" x="431.9576" y="-102.6" font-family="Times,serif" font-size="14.00" fill="#000000">biosynthetic process</text>
</g>
<!-- GO:0033072&#45;&gt;GO:0019184 -->
<g id="edge4" class="edge">
<title>GO:0033072&#45;&gt;GO:0019184</title>
<path fill="none" stroke="#000000" d="M377.5206,-58.5513C384.8774,-67.3422 393.0449,-77.1018 400.7683,-86.3308"/>
<polygon fill="#000000" stroke="#000000" points="398.3078,-88.8442 407.4097,-94.2669 403.676,-84.3517 398.3078,-88.8442"/>
</g>
<!-- GO:1901576 -->
<g id="node6" class="node">
<title>GO:1901576</title>
<polygon fill="#ffffff" stroke="#000000" points="129.8728,-555.8014 .0424,-555.8014 .0424,-496.9986 129.8728,-496.9986 129.8728,-555.8014"/>
<text text-anchor="middle" x="64.9576" y="-539" font-family="Times,serif" font-size="14.00" fill="#000000">GO:1901576</text>
<text text-anchor="middle" x="64.9576" y="-522.2" font-family="Times,serif" font-size="14.00" fill="#000000">organic substance</text>
<text text-anchor="middle" x="64.9576" y="-505.4" font-family="Times,serif" font-size="14.00" fill="#000000">biosynthetic process</text>
</g>
<!-- GO:1901137&#45;&gt;GO:1901576 -->
<g id="edge5" class="edge">
<title>GO:1901137&#45;&gt;GO:1901576</title>
<path fill="none" stroke="#000000" d="M95.9675,-152.8207C91.3171,-163.8479 86.6439,-176.6638 83.9576,-188.8 60.5712,-294.455 61.0128,-422.9958 63.0928,-486.6829"/>
<polygon fill="#000000" stroke="#000000" points="59.609,-487.2001 63.4659,-497.0679 66.6045,-486.9486 59.609,-487.2001"/>
</g>
<!-- GO:1901135 -->
<g id="node7" class="node">
<title>GO:1901135</title>
<polygon fill="#ffffff" stroke="#000000" points="241.0047,-247.4014 92.9105,-247.4014 92.9105,-188.5986 241.0047,-188.5986 241.0047,-247.4014"/>
<text text-anchor="middle" x="166.9576" y="-230.6" font-family="Times,serif" font-size="14.00" fill="#000000">GO:1901135</text>
<text text-anchor="middle" x="166.9576" y="-213.8" font-family="Times,serif" font-size="14.00" fill="#000000">carbohydrate derivative</text>
<text text-anchor="middle" x="166.9576" y="-197" font-family="Times,serif" font-size="14.00" fill="#000000">metabolic process</text>
</g>
<!-- GO:1901137&#45;&gt;GO:1901135 -->
<g id="edge6" class="edge">
<title>GO:1901137&#45;&gt;GO:1901135</title>
<path fill="none" stroke="#000000" d="M127.6803,-152.9513C132.8275,-161.4758 138.5247,-170.9111 143.9465,-179.8904"/>
<polygon fill="#000000" stroke="#000000" points="141.0807,-181.9155 149.2459,-188.6669 147.073,-178.2972 141.0807,-181.9155"/>
</g>
<!-- GO:0030650 -->
<g id="node8" class="node">
<title>GO:0030650</title>
<polygon fill="#ffffff" stroke="#000000" points="637.1432,-247.4014 520.772,-247.4014 520.772,-188.5986 637.1432,-188.5986 637.1432,-247.4014"/>
<text text-anchor="middle" x="578.9576" y="-230.6" font-family="Times,serif" font-size="14.00" fill="#000000">GO:0030650</text>
<text text-anchor="middle" x="578.9576" y="-213.8" font-family="Times,serif" font-size="14.00" fill="#000000">peptide antibiotic</text>
<text text-anchor="middle" x="578.9576" y="-197" font-family="Times,serif" font-size="14.00" fill="#000000">metabolic process</text>
</g>
<!-- GO:0030651&#45;&gt;GO:0030650 -->
<g id="edge7" class="edge">
<title>GO:0030651&#45;&gt;GO:0030650</title>
<path fill="none" stroke="#000000" d="M582.403,-152.9513C581.975,-161.0318 581.5036,-169.9308 581.0506,-178.4838"/>
<polygon fill="#000000" stroke="#000000" points="577.5452,-178.4957 580.5113,-188.6669 584.5354,-178.866 577.5452,-178.4957"/>
</g>
<!-- GO:0017000 -->
<g id="node9" class="node">
<title>GO:0017000</title>
<polygon fill="#ffffff" stroke="#000000" points="833.2761,-247.4014 692.6391,-247.4014 692.6391,-188.5986 833.2761,-188.5986 833.2761,-247.4014"/>
<text text-anchor="middle" x="762.9576" y="-230.6" font-family="Times,serif" font-size="14.00" fill="#000000">GO:0017000</text>
<text text-anchor="middle" x="762.9576" y="-213.8" font-family="Times,serif" font-size="14.00" fill="#000000">antibiotic biosynthetic</text>
<text text-anchor="middle" x="762.9576" y="-197" font-family="Times,serif" font-size="14.00" fill="#000000">process</text>
</g>
<!-- GO:0030651&#45;&gt;GO:0017000 -->
<g id="edge8" class="edge">
<title>GO:0030651&#45;&gt;GO:0017000</title>
<path fill="none" stroke="#000000" d="M639.6131,-152.9513C658.2186,-162.7633 679.1124,-173.7822 698.3415,-183.9231"/>
<polygon fill="#000000" stroke="#000000" points="696.8585,-187.0979 707.3365,-188.6669 700.1239,-180.9062 696.8585,-187.0979"/>
</g>
<!-- GO:0043043 -->
<g id="node10" class="node">
<title>GO:0043043</title>
<polygon fill="#ffffff" stroke="#000000" points="499.6043,-247.4014 370.3109,-247.4014 370.3109,-188.5986 499.6043,-188.5986 499.6043,-247.4014"/>
<text text-anchor="middle" x="434.9576" y="-230.6" font-family="Times,serif" font-size="14.00" fill="#000000">GO:0043043</text>
<text text-anchor="middle" x="434.9576" y="-213.8" font-family="Times,serif" font-size="14.00" fill="#000000">peptide biosynthetic</text>
<text text-anchor="middle" x="434.9576" y="-197" font-family="Times,serif" font-size="14.00" fill="#000000">process</text>
</g>
<!-- GO:0030651&#45;&gt;GO:0043043 -->
<g id="edge9" class="edge">
<title>GO:0030651&#45;&gt;GO:0043043</title>
<path fill="none" stroke="#000000" d="M537.6298,-152.9513C522.493,-162.5413 505.5365,-173.2842 489.8327,-183.2335"/>
<polygon fill="#000000" stroke="#000000" points="487.8309,-180.3584 481.2567,-188.6669 491.5772,-186.2715 487.8309,-180.3584"/>
</g>
<!-- GO:0033071&#45;&gt;GO:1901135 -->
<g id="edge11" class="edge">
<title>GO:0033071&#45;&gt;GO:1901135</title>
<path fill="none" stroke="#000000" d="M240.6887,-152.9513C230.3218,-162.0973 218.7665,-172.292 207.9364,-181.8467"/>
<polygon fill="#000000" stroke="#000000" points="205.3892,-179.4265 200.206,-188.6669 210.0203,-184.6757 205.3892,-179.4265"/>
</g>
<!-- GO:0033071&#45;&gt;GO:0030650 -->
<g id="edge10" class="edge">
<title>GO:0033071&#45;&gt;GO:0030650</title>
<path fill="none" stroke="#000000" d="M345.7777,-150.2822C348.5314,-151.1563 351.265,-151.9992 353.9576,-152.8 421.7454,-172.9618 441.643,-167.1107 508.9576,-188.8 509.5451,-188.9893 510.1345,-189.1814 510.7257,-189.3763"/>
<polygon fill="#000000" stroke="#000000" points="509.8125,-192.7642 520.4073,-192.7416 512.1108,-186.1523 509.8125,-192.7642"/>
</g>
<!-- GO:0019184&#45;&gt;GO:0043043 -->
<g id="edge12" class="edge">
<title>GO:0019184&#45;&gt;GO:0043043</title>
<path fill="none" stroke="#000000" d="M432.8904,-152.9513C433.1472,-161.0318 433.43,-169.9308 433.7018,-178.4838"/>
<polygon fill="#000000" stroke="#000000" points="430.2094,-178.7831 434.0254,-188.6669 437.2059,-178.5607 430.2094,-178.7831"/>
</g>
<!-- GO:0071704 -->
<g id="node11" class="node">
<title>GO:0071704</title>
<polygon fill="#ffffff" stroke="#000000" points="554.1432,-658.6014 437.772,-658.6014 437.772,-599.7986 554.1432,-599.7986 554.1432,-658.6014"/>
<text text-anchor="middle" x="495.9576" y="-641.8" font-family="Times,serif" font-size="14.00" fill="#000000">GO:0071704</text>
<text text-anchor="middle" x="495.9576" y="-625" font-family="Times,serif" font-size="14.00" fill="#000000">organic substance</text>
<text text-anchor="middle" x="495.9576" y="-608.2" font-family="Times,serif" font-size="14.00" fill="#000000">metabolic process</text>
</g>
<!-- GO:1901576&#45;&gt;GO:0071704 -->
<g id="edge13" class="edge">
<title>GO:1901576&#45;&gt;GO:0071704</title>
<path fill="none" stroke="#000000" d="M121.0942,-555.6412C128.6435,-558.822 136.3939,-561.7245 143.9576,-564 253.562,-596.9745 287.1681,-575.4326 398.9576,-600 408.3277,-602.0592 418.109,-604.5667 427.7007,-607.238"/>
<polygon fill="#000000" stroke="#000000" points="427.0255,-610.6851 437.6024,-610.069 428.9499,-603.9548 427.0255,-610.6851"/>
</g>
<!-- GO:0009058 -->
<g id="node12" class="node">
<title>GO:0009058</title>
<polygon fill="#ffffff" stroke="#000000" points="245.8728,-649.8019 116.0424,-649.8019 116.0424,-608.5981 245.8728,-608.5981 245.8728,-649.8019"/>
<text text-anchor="middle" x="180.9576" y="-633.4" font-family="Times,serif" font-size="14.00" fill="#000000">GO:0009058</text>
<text text-anchor="middle" x="180.9576" y="-616.6" font-family="Times,serif" font-size="14.00" fill="#000000">biosynthetic process</text>
</g>
<!-- GO:1901576&#45;&gt;GO:0009058 -->
<g id="edge14" class="edge">
<title>GO:1901576&#45;&gt;GO:0009058</title>
<path fill="none" stroke="#000000" d="M98.1985,-555.8584C114.5382,-570.3387 134.1054,-587.6792 150.1101,-601.8628"/>
<polygon fill="#000000" stroke="#000000" points="147.8457,-604.5326 157.6511,-608.5456 152.4884,-599.2938 147.8457,-604.5326"/>
</g>
<!-- GO:1901135&#45;&gt;GO:0071704 -->
<g id="edge15" class="edge">
<title>GO:1901135&#45;&gt;GO:0071704</title>
<path fill="none" stroke="#000000" d="M158.3196,-247.5447C146.5343,-292.6789 129.0293,-381.1103 148.9576,-452.8 164.411,-508.3919 168.7098,-530.8802 215.9576,-564 283.8342,-611.5802 318.5072,-580.029 398.9576,-600 408.4307,-602.3516 418.3555,-605.056 428.0907,-607.8497"/>
<polygon fill="#000000" stroke="#000000" points="427.1591,-611.2237 437.7391,-610.6634 429.1189,-604.5037 427.1591,-611.2237"/>
</g>
<!-- GO:0006518 -->
<g id="node13" class="node">
<title>GO:0006518</title>
<polygon fill="#ffffff" stroke="#000000" points="515.8537,-333.0019 354.0615,-333.0019 354.0615,-291.7981 515.8537,-291.7981 515.8537,-333.0019"/>
<text text-anchor="middle" x="434.9576" y="-316.6" font-family="Times,serif" font-size="14.00" fill="#000000">GO:0006518</text>
<text text-anchor="middle" x="434.9576" y="-299.8" font-family="Times,serif" font-size="14.00" fill="#000000">peptide metabolic process</text>
</g>
<!-- GO:0030650&#45;&gt;GO:0006518 -->
<g id="edge16" class="edge">
<title>GO:0030650&#45;&gt;GO:0006518</title>
<path fill="none" stroke="#000000" d="M534.1845,-247.3513C515.3114,-259.7236 493.5113,-274.0148 475.16,-286.0451"/>
<polygon fill="#000000" stroke="#000000" points="472.9004,-283.3413 466.4561,-291.751 476.7381,-289.1955 472.9004,-283.3413"/>
</g>
<!-- GO:0016999 -->
<g id="node14" class="node">
<title>GO:0016999</title>
<polygon fill="#ffffff" stroke="#000000" points="826.5467,-341.8014 699.3685,-341.8014 699.3685,-282.9986 826.5467,-282.9986 826.5467,-341.8014"/>
<text text-anchor="middle" x="762.9576" y="-325" font-family="Times,serif" font-size="14.00" fill="#000000">GO:0016999</text>
<text text-anchor="middle" x="762.9576" y="-308.2" font-family="Times,serif" font-size="14.00" fill="#000000">antibiotic metabolic</text>
<text text-anchor="middle" x="762.9576" y="-291.4" font-family="Times,serif" font-size="14.00" fill="#000000">process</text>
</g>
<!-- GO:0030650&#45;&gt;GO:0016999 -->
<g id="edge17" class="edge">
<title>GO:0030650&#45;&gt;GO:0016999</title>
<path fill="none" stroke="#000000" d="M635.9163,-247.2223C655.2285,-257.1303 676.9627,-268.2809 696.9212,-278.5205"/>
<polygon fill="#000000" stroke="#000000" points="695.4563,-281.7026 705.9513,-283.1533 698.6516,-275.4744 695.4563,-281.7026"/>
</g>
<!-- GO:0017000&#45;&gt;GO:0016999 -->
<g id="edge19" class="edge">
<title>GO:0017000&#45;&gt;GO:0016999</title>
<path fill="none" stroke="#000000" d="M762.9576,-247.3513C762.9576,-255.4318 762.9576,-264.3308 762.9576,-272.8838"/>
<polygon fill="#000000" stroke="#000000" points="759.4577,-273.0668 762.9576,-283.0669 766.4577,-273.0669 759.4577,-273.0668"/>
</g>
<!-- GO:0044249 -->
<g id="node15" class="node">
<title>GO:0044249</title>
<polygon fill="#ffffff" stroke="#000000" points="688.87,-555.8014 559.0452,-555.8014 559.0452,-496.9986 688.87,-496.9986 688.87,-555.8014"/>
<text text-anchor="middle" x="623.9576" y="-539" font-family="Times,serif" font-size="14.00" fill="#000000">GO:0044249</text>
<text text-anchor="middle" x="623.9576" y="-522.2" font-family="Times,serif" font-size="14.00" fill="#000000">cellular biosynthetic</text>
<text text-anchor="middle" x="623.9576" y="-505.4" font-family="Times,serif" font-size="14.00" fill="#000000">process</text>
</g>
<!-- GO:0017000&#45;&gt;GO:0044249 -->
<g id="edge18" class="edge">
<title>GO:0017000&#45;&gt;GO:0044249</title>
<path fill="none" stroke="#000000" d="M802.9227,-247.3784C814.8051,-257.6533 827.0212,-269.9607 835.9576,-283.2 878.968,-346.9202 916.7375,-391.7935 869.9576,-452.8 832.433,-501.7364 794.9937,-470.9785 735.9576,-488.8 723.8724,-492.4482 711.1245,-496.5155 698.7312,-500.5896"/>
<polygon fill="#000000" stroke="#000000" points="697.2794,-497.3834 688.8873,-503.8504 699.4807,-504.0283 697.2794,-497.3834"/>
</g>
<!-- GO:0043043&#45;&gt;GO:0006518 -->
<g id="edge21" class="edge">
<title>GO:0043043&#45;&gt;GO:0006518</title>
<path fill="none" stroke="#000000" d="M434.9576,-247.3513C434.9576,-258.2614 434.9576,-270.6637 434.9576,-281.692"/>
<polygon fill="#000000" stroke="#000000" points="431.4577,-281.7509 434.9576,-291.751 438.4577,-281.751 431.4577,-281.7509"/>
</g>
<!-- GO:0043604 -->
<g id="node16" class="node">
<title>GO:0043604</title>
<polygon fill="#ffffff" stroke="#000000" points="656.1043,-341.8014 533.8109,-341.8014 533.8109,-282.9986 656.1043,-282.9986 656.1043,-341.8014"/>
<text text-anchor="middle" x="594.9576" y="-325" font-family="Times,serif" font-size="14.00" fill="#000000">GO:0043604</text>
<text text-anchor="middle" x="594.9576" y="-308.2" font-family="Times,serif" font-size="14.00" fill="#000000">amide biosynthetic</text>
<text text-anchor="middle" x="594.9576" y="-291.4" font-family="Times,serif" font-size="14.00" fill="#000000">process</text>
</g>
<!-- GO:0043043&#45;&gt;GO:0043604 -->
<g id="edge20" class="edge">
<title>GO:0043043&#45;&gt;GO:0043604</title>
<path fill="none" stroke="#000000" d="M484.7055,-247.3513C501.1104,-257.0301 519.5055,-267.8833 536.4994,-277.9097"/>
<polygon fill="#000000" stroke="#000000" points="534.8492,-280.9998 545.2404,-283.0669 538.4063,-274.9709 534.8492,-280.9998"/>
</g>
<!-- GO:1901566 -->
<g id="node17" class="node">
<title>GO:1901566</title>
<polygon fill="#ffffff" stroke="#000000" points="322.0945,-444.6014 157.8207,-444.6014 157.8207,-385.7986 322.0945,-385.7986 322.0945,-444.6014"/>
<text text-anchor="middle" x="239.9576" y="-427.8" font-family="Times,serif" font-size="14.00" fill="#000000">GO:1901566</text>
<text text-anchor="middle" x="239.9576" y="-411" font-family="Times,serif" font-size="14.00" fill="#000000">organonitrogen compound</text>
<text text-anchor="middle" x="239.9576" y="-394.2" font-family="Times,serif" font-size="14.00" fill="#000000">biosynthetic process</text>
</g>
<!-- GO:0043043&#45;&gt;GO:1901566 -->
<g id="edge22" class="edge">
<title>GO:0043043&#45;&gt;GO:1901566</title>
<path fill="none" stroke="#000000" d="M389.5856,-247.2448C374.6836,-257.7745 358.486,-270.2674 344.9576,-283.2 314.7453,-312.0819 285.5819,-349.7919 265.6898,-377.5072"/>
<polygon fill="#000000" stroke="#000000" points="262.7605,-375.5873 259.8231,-385.7668 268.4674,-379.6408 262.7605,-375.5873"/>
</g>
<!-- GO:0008152 -->
<g id="node18" class="node">
<title>GO:0008152</title>
<polygon fill="#ffffff" stroke="#000000" points="745.1432,-735.8019 628.772,-735.8019 628.772,-694.5981 745.1432,-694.5981 745.1432,-735.8019"/>
<text text-anchor="middle" x="686.9576" y="-719.4" font-family="Times,serif" font-size="14.00" fill="#000000">GO:0008152</text>
<text text-anchor="middle" x="686.9576" y="-702.6" font-family="Times,serif" font-size="14.00" fill="#000000">metabolic process</text>
</g>
<!-- GO:0071704&#45;&gt;GO:0008152 -->
<g id="edge23" class="edge">
<title>GO:0071704&#45;&gt;GO:0008152</title>
<path fill="none" stroke="#000000" d="M554.3017,-655.4701C578.9016,-666.5465 607.3984,-679.3775 631.6603,-690.3018"/>
<polygon fill="#000000" stroke="#000000" points="630.5239,-693.6285 641.0793,-694.5427 633.3979,-687.2456 630.5239,-693.6285"/>
</g>
<!-- GO:0009058&#45;&gt;GO:0008152 -->
<g id="edge24" class="edge">
<title>GO:0009058&#45;&gt;GO:0008152</title>
<path fill="none" stroke="#000000" d="M228.1551,-649.8035C236.94,-653.0686 246.133,-656.1158 254.9576,-658.4 380.7464,-690.9597 532.22,-705.3976 618.2813,-711.3737"/>
<polygon fill="#000000" stroke="#000000" points="618.2328,-714.8783 628.4462,-712.0612 618.7052,-707.8943 618.2328,-714.8783"/>
</g>
<!-- GO:1901564 -->
<g id="node19" class="node">
<title>GO:1901564</title>
<polygon fill="#ffffff" stroke="#000000" points="389.0945,-555.8014 224.8207,-555.8014 224.8207,-496.9986 389.0945,-496.9986 389.0945,-555.8014"/>
<text text-anchor="middle" x="306.9576" y="-539" font-family="Times,serif" font-size="14.00" fill="#000000">GO:1901564</text>
<text text-anchor="middle" x="306.9576" y="-522.2" font-family="Times,serif" font-size="14.00" fill="#000000">organonitrogen compound</text>
<text text-anchor="middle" x="306.9576" y="-505.4" font-family="Times,serif" font-size="14.00" fill="#000000">metabolic process</text>
</g>
<!-- GO:0006518&#45;&gt;GO:1901564 -->
<g id="edge25" class="edge">
<title>GO:0006518&#45;&gt;GO:1901564</title>
<path fill="none" stroke="#000000" d="M409.6384,-333.0314C396.2109,-344.9696 380.2115,-360.9057 368.9576,-377.6 356.4284,-396.1861 335.3039,-449.7725 321.2463,-487.2811"/>
<polygon fill="#000000" stroke="#000000" points="317.8686,-486.3222 317.6581,-496.915 324.4284,-488.7655 317.8686,-486.3222"/>
</g>
<!-- GO:0043603 -->
<g id="node20" class="node">
<title>GO:0043603</title>
<polygon fill="#ffffff" stroke="#000000" points="532.3509,-444.6014 377.5643,-444.6014 377.5643,-385.7986 532.3509,-385.7986 532.3509,-444.6014"/>
<text text-anchor="middle" x="454.9576" y="-427.8" font-family="Times,serif" font-size="14.00" fill="#000000">GO:0043603</text>
<text text-anchor="middle" x="454.9576" y="-411" font-family="Times,serif" font-size="14.00" fill="#000000">cellular amide metabolic</text>
<text text-anchor="middle" x="454.9576" y="-394.2" font-family="Times,serif" font-size="14.00" fill="#000000">process</text>
</g>
<!-- GO:0006518&#45;&gt;GO:0043603 -->
<g id="edge26" class="edge">
<title>GO:0006518&#45;&gt;GO:0043603</title>
<path fill="none" stroke="#000000" d="M439.0049,-333.2031C441.3746,-345.3833 444.4455,-361.1676 447.2593,-375.6305"/>
<polygon fill="#000000" stroke="#000000" points="443.9036,-376.7102 449.249,-385.8577 450.7748,-375.3734 443.9036,-376.7102"/>
</g>
<!-- GO:0017144 -->
<g id="node21" class="node">
<title>GO:0017144</title>
<polygon fill="#ffffff" stroke="#000000" points="860.8035,-435.8019 715.1117,-435.8019 715.1117,-394.5981 860.8035,-394.5981 860.8035,-435.8019"/>
<text text-anchor="middle" x="787.9576" y="-419.4" font-family="Times,serif" font-size="14.00" fill="#000000">GO:0017144</text>
<text text-anchor="middle" x="787.9576" y="-402.6" font-family="Times,serif" font-size="14.00" fill="#000000">drug metabolic process</text>
</g>
<!-- GO:0016999&#45;&gt;GO:0017144 -->
<g id="edge27" class="edge">
<title>GO:0016999&#45;&gt;GO:0017144</title>
<path fill="none" stroke="#000000" d="M770.1216,-341.8584C773.387,-355.2856 777.2504,-371.1721 780.5452,-384.7204"/>
<polygon fill="#000000" stroke="#000000" points="777.1707,-385.6559 782.9347,-394.5456 783.9724,-384.0018 777.1707,-385.6559"/>
</g>
<!-- GO:0044249&#45;&gt;GO:0009058 -->
<g id="edge28" class="edge">
<title>GO:0044249&#45;&gt;GO:0009058</title>
<path fill="none" stroke="#000000" d="M571.9415,-555.633C564.7161,-558.8578 557.2635,-561.7738 549.9576,-564 423.6093,-602.4997 382.9797,-567.4966 254.9576,-600 249.2976,-601.437 243.4886,-603.1959 237.7343,-605.1311"/>
<polygon fill="#000000" stroke="#000000" points="236.3963,-601.8918 228.1377,-608.5286 238.7325,-608.4905 236.3963,-601.8918"/>
</g>
<!-- GO:0044237 -->
<g id="node22" class="node">
<title>GO:0044237</title>
<polygon fill="#ffffff" stroke="#000000" points="728.1404,-658.6014 611.7748,-658.6014 611.7748,-599.7986 728.1404,-599.7986 728.1404,-658.6014"/>
<text text-anchor="middle" x="669.9576" y="-641.8" font-family="Times,serif" font-size="14.00" fill="#000000">GO:0044237</text>
<text text-anchor="middle" x="669.9576" y="-625" font-family="Times,serif" font-size="14.00" fill="#000000">cellular metabolic</text>
<text text-anchor="middle" x="669.9576" y="-608.2" font-family="Times,serif" font-size="14.00" fill="#000000">process</text>
</g>
<!-- GO:0044249&#45;&gt;GO:0044237 -->
<g id="edge29" class="edge">
<title>GO:0044249&#45;&gt;GO:0044237</title>
<path fill="none" stroke="#000000" d="M637.1394,-555.8584C641.9513,-566.612 647.4691,-578.9431 652.59,-590.3871"/>
<polygon fill="#000000" stroke="#000000" points="649.4947,-592.0391 656.7739,-599.7373 655.8842,-589.1799 649.4947,-592.0391"/>
</g>
<!-- GO:0043604&#45;&gt;GO:0043603 -->
<g id="edge31" class="edge">
<title>GO:0043604&#45;&gt;GO:0043603</title>
<path fill="none" stroke="#000000" d="M554.8392,-341.8584C538.7297,-353.6874 520.0208,-367.4251 503.1797,-379.7912"/>
<polygon fill="#000000" stroke="#000000" points="501.0707,-376.9975 495.0818,-385.7373 505.2138,-382.6398 501.0707,-376.9975"/>
</g>
<!-- GO:0044271 -->
<g id="node23" class="node">
<title>GO:0044271</title>
<polygon fill="#ffffff" stroke="#000000" points="697.499,-452.9003 550.4162,-452.9003 550.4162,-377.4997 697.499,-377.4997 697.499,-452.9003"/>
<text text-anchor="middle" x="623.9576" y="-436.2" font-family="Times,serif" font-size="14.00" fill="#000000">GO:0044271</text>
<text text-anchor="middle" x="623.9576" y="-419.4" font-family="Times,serif" font-size="14.00" fill="#000000">cellular nitrogen</text>
<text text-anchor="middle" x="623.9576" y="-402.6" font-family="Times,serif" font-size="14.00" fill="#000000">compound biosynthetic</text>
<text text-anchor="middle" x="623.9576" y="-385.8" font-family="Times,serif" font-size="14.00" fill="#000000">process</text>
</g>
<!-- GO:0043604&#45;&gt;GO:0044271 -->
<g id="edge30" class="edge">
<title>GO:0043604&#45;&gt;GO:0044271</title>
<path fill="none" stroke="#000000" d="M603.2678,-341.8584C605.5297,-349.8763 608.039,-358.7712 610.5074,-367.5215"/>
<polygon fill="#000000" stroke="#000000" points="607.1781,-368.6109 613.2617,-377.285 613.9151,-366.7103 607.1781,-368.6109"/>
</g>
<!-- GO:1901566&#45;&gt;GO:1901576 -->
<g id="edge32" class="edge">
<title>GO:1901566&#45;&gt;GO:1901576</title>
<path fill="none" stroke="#000000" d="M193.9784,-444.4165C171.1598,-458.9161 143.4367,-476.5321 119.5456,-491.7132"/>
<polygon fill="#000000" stroke="#000000" points="117.4963,-488.8685 110.9332,-497.1858 121.2505,-494.7767 117.4963,-488.8685"/>
</g>
<!-- GO:1901566&#45;&gt;GO:1901564 -->
<g id="edge33" class="edge">
<title>GO:1901566&#45;&gt;GO:1901564</title>
<path fill="none" stroke="#000000" d="M257.5611,-444.4165C265.6522,-457.8453 275.3539,-473.9472 284.009,-488.3122"/>
<polygon fill="#000000" stroke="#000000" points="281.0803,-490.2334 289.2391,-496.9926 287.0761,-486.6208 281.0803,-490.2334"/>
</g>
<!-- GO:0008150 -->
<g id="node24" class="node">
<title>GO:0008150</title>
<polygon fill="#ffffff" stroke="#000000" points="909.4282,-813.4019 788.487,-813.4019 788.487,-772.1981 909.4282,-772.1981 909.4282,-813.4019"/>
<text text-anchor="middle" x="848.9576" y="-797" font-family="Times,serif" font-size="14.00" fill="#000000">GO:0008150</text>
<text text-anchor="middle" x="848.9576" y="-780.2" font-family="Times,serif" font-size="14.00" fill="#000000">biological_process</text>
</g>
<!-- GO:0008152&#45;&gt;GO:0008150 -->
<g id="edge34" class="edge">
<title>GO:0008152&#45;&gt;GO:0008150</title>
<path fill="none" stroke="#000000" d="M730.3706,-735.9954C750.6994,-745.7331 775.0868,-757.415 796.4456,-767.6461"/>
<polygon fill="#000000" stroke="#000000" points="795.1751,-770.9183 805.7059,-772.0819 798.1992,-764.6052 795.1751,-770.9183"/>
</g>
<!-- GO:1901564&#45;&gt;GO:0071704 -->
<g id="edge35" class="edge">
<title>GO:1901564&#45;&gt;GO:0071704</title>
<path fill="none" stroke="#000000" d="M360.8645,-555.7208C383.4068,-567.9819 409.7539,-582.3125 433.1646,-595.0459"/>
<polygon fill="#000000" stroke="#000000" points="431.5221,-598.1368 441.9791,-599.8403 434.8668,-591.9875 431.5221,-598.1368"/>
</g>
<!-- GO:0006807 -->
<g id="node25" class="node">
<title>GO:0006807</title>
<polygon fill="#ffffff" stroke="#000000" points="389.7195,-658.6014 264.1957,-658.6014 264.1957,-599.7986 389.7195,-599.7986 389.7195,-658.6014"/>
<text text-anchor="middle" x="326.9576" y="-641.8" font-family="Times,serif" font-size="14.00" fill="#000000">GO:0006807</text>
<text text-anchor="middle" x="326.9576" y="-625" font-family="Times,serif" font-size="14.00" fill="#000000">nitrogen compound</text>
<text text-anchor="middle" x="326.9576" y="-608.2" font-family="Times,serif" font-size="14.00" fill="#000000">metabolic process</text>
</g>
<!-- GO:1901564&#45;&gt;GO:0006807 -->
<g id="edge36" class="edge">
<title>GO:1901564&#45;&gt;GO:0006807</title>
<path fill="none" stroke="#000000" d="M312.6888,-555.8584C314.7391,-566.3969 317.0841,-578.4505 319.2727,-589.6994"/>
<polygon fill="#000000" stroke="#000000" points="315.8802,-590.5898 321.2256,-599.7373 322.7514,-589.253 315.8802,-590.5898"/>
</g>
<!-- GO:0034641 -->
<g id="node26" class="node">
<title>GO:0034641</title>
<polygon fill="#ffffff" stroke="#000000" points="540.7691,-564.1003 407.1461,-564.1003 407.1461,-488.6997 540.7691,-488.6997 540.7691,-564.1003"/>
<text text-anchor="middle" x="473.9576" y="-547.4" font-family="Times,serif" font-size="14.00" fill="#000000">GO:0034641</text>
<text text-anchor="middle" x="473.9576" y="-530.6" font-family="Times,serif" font-size="14.00" fill="#000000">cellular nitrogen</text>
<text text-anchor="middle" x="473.9576" y="-513.8" font-family="Times,serif" font-size="14.00" fill="#000000">compound metabolic</text>
<text text-anchor="middle" x="473.9576" y="-497" font-family="Times,serif" font-size="14.00" fill="#000000">process</text>
</g>
<!-- GO:0043603&#45;&gt;GO:0034641 -->
<g id="edge37" class="edge">
<title>GO:0043603&#45;&gt;GO:0034641</title>
<path fill="none" stroke="#000000" d="M459.9496,-444.4165C461.7354,-454.8682 463.7979,-466.9391 465.7818,-478.5501"/>
<polygon fill="#000000" stroke="#000000" points="462.3618,-479.3154 467.4961,-488.583 469.2618,-478.1364 462.3618,-479.3154"/>
</g>
<!-- GO:0017144&#45;&gt;GO:0044237 -->
<g id="edge38" class="edge">
<title>GO:0017144&#45;&gt;GO:0044237</title>
<path fill="none" stroke="#000000" d="M771.9226,-435.8037C761.0831,-450.2122 746.8212,-470.1418 735.9576,-488.8 725.3352,-507.0439 702.9739,-555.5907 687.2334,-590.4874"/>
<polygon fill="#000000" stroke="#000000" points="683.8955,-589.376 682.9846,-599.9316 690.2793,-592.248 683.8955,-589.376"/>
</g>
<!-- GO:0044237&#45;&gt;GO:0008152 -->
<g id="edge40" class="edge">
<title>GO:0044237&#45;&gt;GO:0008152</title>
<path fill="none" stroke="#000000" d="M675.808,-658.7963C677.4605,-667.1556 679.2613,-676.2658 680.9243,-684.6784"/>
<polygon fill="#000000" stroke="#000000" points="677.4922,-685.3651 682.8651,-694.4966 684.3593,-684.0076 677.4922,-685.3651"/>
</g>
<!-- GO:0009987 -->
<g id="node27" class="node">
<title>GO:0009987</title>
<polygon fill="#ffffff" stroke="#000000" points="900.9138,-735.8019 797.0014,-735.8019 797.0014,-694.5981 900.9138,-694.5981 900.9138,-735.8019"/>
<text text-anchor="middle" x="848.9576" y="-719.4" font-family="Times,serif" font-size="14.00" fill="#000000">GO:0009987</text>
<text text-anchor="middle" x="848.9576" y="-702.6" font-family="Times,serif" font-size="14.00" fill="#000000">cellular process</text>
</g>
<!-- GO:0044237&#45;&gt;GO:0009987 -->
<g id="edge39" class="edge">
<title>GO:0044237&#45;&gt;GO:0009987</title>
<path fill="none" stroke="#000000" d="M728.5689,-657.3596C750.5068,-667.8996 775.2669,-679.7955 796.603,-690.0464"/>
<polygon fill="#000000" stroke="#000000" points="795.3005,-693.3036 805.8299,-694.4794 798.332,-686.994 795.3005,-693.3036"/>
</g>
<!-- GO:0044271&#45;&gt;GO:0044249 -->
<g id="edge41" class="edge">
<title>GO:0044271&#45;&gt;GO:0044249</title>
<path fill="none" stroke="#000000" d="M623.9576,-452.8472C623.9576,-463.7338 623.9576,-475.649 623.9576,-486.6589"/>
<polygon fill="#000000" stroke="#000000" points="620.4577,-486.8741 623.9576,-496.8742 627.4577,-486.8742 620.4577,-486.8741"/>
</g>
<!-- GO:0044271&#45;&gt;GO:0034641 -->
<g id="edge42" class="edge">
<title>GO:0044271&#45;&gt;GO:0034641</title>
<path fill="none" stroke="#000000" d="M573.1744,-452.8472C560.2237,-462.4481 546.1938,-472.8489 532.8741,-482.7232"/>
<polygon fill="#000000" stroke="#000000" points="530.6374,-480.0245 524.6885,-488.7915 534.8062,-485.6478 530.6374,-480.0245"/>
</g>
<!-- GO:0009987&#45;&gt;GO:0008150 -->
<g id="edge63" class="edge">
<title>GO:0009987&#45;&gt;GO:0008150</title>
<path fill="none" stroke="#000000" d="M848.9576,-735.9954C848.9576,-743.9109 848.9576,-753.1109 848.9576,-761.7722"/>
<polygon fill="#000000" stroke="#000000" points="845.4577,-761.9472 848.9576,-771.9472 852.4577,-761.9473 845.4577,-761.9472"/>
</g>
<!-- GO:0030259 -->
<g id="node28" class="node">
<title>GO:0030259</title>
<polygon fill="#ffffff" stroke="#000000" points="1133.0662,-238.6019 1012.849,-238.6019 1012.849,-197.3981 1133.0662,-197.3981 1133.0662,-238.6019"/>
<text text-anchor="middle" x="1072.9576" y="-222.2" font-family="Times,serif" font-size="14.00" fill="#000000">GO:0030259</text>
<text text-anchor="middle" x="1072.9576" y="-205.4" font-family="Times,serif" font-size="14.00" fill="#000000">lipid glycosylation</text>
</g>
<!-- GO:0070085 -->
<g id="node29" class="node">
<title>GO:0070085</title>
<polygon fill="#ffffff" stroke="#000000" points="1047.8948,-333.0019 956.0204,-333.0019 956.0204,-291.7981 1047.8948,-291.7981 1047.8948,-333.0019"/>
<text text-anchor="middle" x="1001.9576" y="-316.6" font-family="Times,serif" font-size="14.00" fill="#000000">GO:0070085</text>
<text text-anchor="middle" x="1001.9576" y="-299.8" font-family="Times,serif" font-size="14.00" fill="#000000">glycosylation</text>
</g>
<!-- GO:0030259&#45;&gt;GO:0070085 -->
<g id="edge43" class="edge">
<title>GO:0030259&#45;&gt;GO:0070085</title>
<path fill="none" stroke="#000000" d="M1057.2004,-238.9504C1047.3648,-252.0276 1034.5646,-269.0464 1023.7625,-283.4087"/>
<polygon fill="#000000" stroke="#000000" points="1020.8845,-281.4125 1017.6708,-291.5081 1026.4788,-285.6201 1020.8845,-281.4125"/>
</g>
<!-- GO:0030258 -->
<g id="node30" class="node">
<title>GO:0030258</title>
<polygon fill="#ffffff" stroke="#000000" points="1203.1725,-333.0019 1086.7427,-333.0019 1086.7427,-291.7981 1203.1725,-291.7981 1203.1725,-333.0019"/>
<text text-anchor="middle" x="1144.9576" y="-316.6" font-family="Times,serif" font-size="14.00" fill="#000000">GO:0030258</text>
<text text-anchor="middle" x="1144.9576" y="-299.8" font-family="Times,serif" font-size="14.00" fill="#000000">lipid modification</text>
</g>
<!-- GO:0030259&#45;&gt;GO:0030258 -->
<g id="edge44" class="edge">
<title>GO:0030259&#45;&gt;GO:0030258</title>
<path fill="none" stroke="#000000" d="M1088.9367,-238.9504C1098.9108,-252.0276 1111.8913,-269.0464 1122.8456,-283.4087"/>
<polygon fill="#000000" stroke="#000000" points="1120.1757,-285.6795 1129.0231,-291.5081 1125.7415,-281.4343 1120.1757,-285.6795"/>
</g>
<!-- GO:0044723 -->
<g id="node31" class="node">
<title>GO:0044723</title>
<polygon fill="#ffffff" stroke="#000000" points="1064.7342,-452.9003 917.181,-452.9003 917.181,-377.4997 1064.7342,-377.4997 1064.7342,-452.9003"/>
<text text-anchor="middle" x="990.9576" y="-436.2" font-family="Times,serif" font-size="14.00" fill="#000000">GO:0044723</text>
<text text-anchor="middle" x="990.9576" y="-419.4" font-family="Times,serif" font-size="14.00" fill="#000000">single&#45;organism</text>
<text text-anchor="middle" x="990.9576" y="-402.6" font-family="Times,serif" font-size="14.00" fill="#000000">carbohydrate metabolic</text>
<text text-anchor="middle" x="990.9576" y="-385.8" font-family="Times,serif" font-size="14.00" fill="#000000">process</text>
</g>
<!-- GO:0070085&#45;&gt;GO:0044723 -->
<g id="edge45" class="edge">
<title>GO:0070085&#45;&gt;GO:0044723</title>
<path fill="none" stroke="#000000" d="M999.7316,-333.2031C998.6722,-343.1035 997.358,-355.385 996.0721,-367.4026"/>
<polygon fill="#000000" stroke="#000000" points="992.5887,-367.0616 995.0048,-377.3773 999.549,-367.8064 992.5887,-367.0616"/>
</g>
<!-- GO:0044255 -->
<g id="node32" class="node">
<title>GO:0044255</title>
<polygon fill="#ffffff" stroke="#000000" points="1228.8119,-444.6014 1083.1033,-444.6014 1083.1033,-385.7986 1228.8119,-385.7986 1228.8119,-444.6014"/>
<text text-anchor="middle" x="1155.9576" y="-427.8" font-family="Times,serif" font-size="14.00" fill="#000000">GO:0044255</text>
<text text-anchor="middle" x="1155.9576" y="-411" font-family="Times,serif" font-size="14.00" fill="#000000">cellular lipid metabolic</text>
<text text-anchor="middle" x="1155.9576" y="-394.2" font-family="Times,serif" font-size="14.00" fill="#000000">process</text>
</g>
<!-- GO:0030258&#45;&gt;GO:0044255 -->
<g id="edge46" class="edge">
<title>GO:0030258&#45;&gt;GO:0044255</title>
<path fill="none" stroke="#000000" d="M1147.1836,-333.2031C1148.4869,-345.3833 1150.1759,-361.1676 1151.7235,-375.6305"/>
<polygon fill="#000000" stroke="#000000" points="1148.2737,-376.2869 1152.8179,-385.8577 1155.2339,-375.5421 1148.2737,-376.2869"/>
</g>
<!-- GO:0044710 -->
<g id="node33" class="node">
<title>GO:0044710</title>
<polygon fill="#ffffff" stroke="#000000" points="1094.3658,-658.6014 929.5494,-658.6014 929.5494,-599.7986 1094.3658,-599.7986 1094.3658,-658.6014"/>
<text text-anchor="middle" x="1011.9576" y="-641.8" font-family="Times,serif" font-size="14.00" fill="#000000">GO:0044710</text>
<text text-anchor="middle" x="1011.9576" y="-625" font-family="Times,serif" font-size="14.00" fill="#000000">single&#45;organism metabolic</text>
<text text-anchor="middle" x="1011.9576" y="-608.2" font-family="Times,serif" font-size="14.00" fill="#000000">process</text>
</g>
<!-- GO:0044723&#45;&gt;GO:0044710 -->
<g id="edge47" class="edge">
<title>GO:0044723&#45;&gt;GO:0044710</title>
<path fill="none" stroke="#000000" d="M1064.8004,-448.1829C1080.4692,-458.8046 1094.9758,-472.2309 1103.9576,-488.8 1119.8855,-518.1828 1119.3061,-534.3105 1103.9576,-564 1098.0697,-575.3892 1089.1732,-585.2183 1079.1927,-593.5401"/>
<polygon fill="#000000" stroke="#000000" points="1076.7552,-591.001 1070.993,-599.8918 1081.042,-596.5349 1076.7552,-591.001"/>
</g>
<!-- GO:0005975 -->
<g id="node34" class="node">
<title>GO:0005975</title>
<polygon fill="#ffffff" stroke="#000000" points="892.7342,-555.8014 745.181,-555.8014 745.181,-496.9986 892.7342,-496.9986 892.7342,-555.8014"/>
<text text-anchor="middle" x="818.9576" y="-539" font-family="Times,serif" font-size="14.00" fill="#000000">GO:0005975</text>
<text text-anchor="middle" x="818.9576" y="-522.2" font-family="Times,serif" font-size="14.00" fill="#000000">carbohydrate metabolic</text>
<text text-anchor="middle" x="818.9576" y="-505.4" font-family="Times,serif" font-size="14.00" fill="#000000">process</text>
</g>
<!-- GO:0044723&#45;&gt;GO:0005975 -->
<g id="edge48" class="edge">
<title>GO:0044723&#45;&gt;GO:0005975</title>
<path fill="none" stroke="#000000" d="M932.7262,-452.8472C913.3724,-465.3597 891.9168,-479.231 872.9013,-491.5248"/>
<polygon fill="#000000" stroke="#000000" points="870.85,-488.6831 864.3525,-497.0517 874.6505,-494.5616 870.85,-488.6831"/>
</g>
<!-- GO:0044255&#45;&gt;GO:0044237 -->
<g id="edge51" class="edge">
<title>GO:0044255&#45;&gt;GO:0044237</title>
<path fill="none" stroke="#000000" d="M1095.0798,-444.469C1088.0274,-447.4544 1080.8817,-450.3023 1073.9576,-452.8 1015.9489,-473.725 987.8043,-449.8956 939.9576,-488.8 910.903,-512.4244 931.5521,-541.0556 901.9576,-564 842.9818,-609.7236 809.0056,-577.1753 737.9576,-600 737.8582,-600.0319 737.7588,-600.0639 737.6593,-600.0961"/>
<polygon fill="#000000" stroke="#000000" points="736.6126,-596.7548 728.2943,-603.3166 738.889,-603.3743 736.6126,-596.7548"/>
</g>
<!-- GO:0044763 -->
<g id="node35" class="node">
<title>GO:0044763</title>
<polygon fill="#ffffff" stroke="#000000" points="1263.6361,-658.6014 1112.2791,-658.6014 1112.2791,-599.7986 1263.6361,-599.7986 1263.6361,-658.6014"/>
<text text-anchor="middle" x="1187.9576" y="-641.8" font-family="Times,serif" font-size="14.00" fill="#000000">GO:0044763</text>
<text text-anchor="middle" x="1187.9576" y="-625" font-family="Times,serif" font-size="14.00" fill="#000000">single&#45;organism cellular</text>
<text text-anchor="middle" x="1187.9576" y="-608.2" font-family="Times,serif" font-size="14.00" fill="#000000">process</text>
</g>
<!-- GO:0044255&#45;&gt;GO:0044763 -->
<g id="edge49" class="edge">
<title>GO:0044255&#45;&gt;GO:0044763</title>
<path fill="none" stroke="#000000" d="M1160.34,-444.5071C1165.9734,-482.1806 1175.7757,-547.7333 1182.0598,-589.7582"/>
<polygon fill="#000000" stroke="#000000" points="1178.6364,-590.5319 1183.5769,-599.9043 1185.5595,-589.4966 1178.6364,-590.5319"/>
</g>
<!-- GO:0006629 -->
<g id="node36" class="node">
<title>GO:0006629</title>
<polygon fill="#ffffff" stroke="#000000" points="1094.8147,-547.0019 949.1005,-547.0019 949.1005,-505.7981 1094.8147,-505.7981 1094.8147,-547.0019"/>
<text text-anchor="middle" x="1021.9576" y="-530.6" font-family="Times,serif" font-size="14.00" fill="#000000">GO:0006629</text>
<text text-anchor="middle" x="1021.9576" y="-513.8" font-family="Times,serif" font-size="14.00" fill="#000000">lipid metabolic process</text>
</g>
<!-- GO:0044255&#45;&gt;GO:0006629 -->
<g id="edge50" class="edge">
<title>GO:0044255&#45;&gt;GO:0006629</title>
<path fill="none" stroke="#000000" d="M1120.7507,-444.4165C1100.4411,-461.2704 1075.0577,-482.3348 1055.1062,-498.8916"/>
<polygon fill="#000000" stroke="#000000" points="1052.6567,-496.3761 1047.1964,-505.4556 1057.1269,-501.7629 1052.6567,-496.3761"/>
</g>
<!-- GO:0044710&#45;&gt;GO:0008152 -->
<g id="edge52" class="edge">
<title>GO:0044710&#45;&gt;GO:0008152</title>
<path fill="none" stroke="#000000" d="M929.2855,-655.7323C926.1409,-656.6484 923.0234,-657.5409 919.9576,-658.4 864.865,-673.8387 801.782,-689.0691 755.1611,-699.8664"/>
<polygon fill="#000000" stroke="#000000" points="754.1317,-696.5119 745.1742,-702.1699 755.705,-703.3328 754.1317,-696.5119"/>
</g>
<!-- GO:0044699 -->
<g id="node37" class="node">
<title>GO:0044699</title>
<polygon fill="#ffffff" stroke="#000000" points="1087.6389,-735.8019 936.2763,-735.8019 936.2763,-694.5981 1087.6389,-694.5981 1087.6389,-735.8019"/>
<text text-anchor="middle" x="1011.9576" y="-719.4" font-family="Times,serif" font-size="14.00" fill="#000000">GO:0044699</text>
<text text-anchor="middle" x="1011.9576" y="-702.6" font-family="Times,serif" font-size="14.00" fill="#000000">single&#45;organism process</text>
</g>
<!-- GO:0044710&#45;&gt;GO:0044699 -->
<g id="edge53" class="edge">
<title>GO:0044710&#45;&gt;GO:0044699</title>
<path fill="none" stroke="#000000" d="M1011.9576,-658.7963C1011.9576,-667.0638 1011.9576,-676.0657 1011.9576,-684.4008"/>
<polygon fill="#000000" stroke="#000000" points="1008.4577,-684.4965 1011.9576,-694.4966 1015.4577,-684.4966 1008.4577,-684.4965"/>
</g>
<!-- GO:0005975&#45;&gt;GO:0071704 -->
<g id="edge54" class="edge">
<title>GO:0005975&#45;&gt;GO:0071704</title>
<path fill="none" stroke="#000000" d="M744.8549,-549.9844C690.4124,-567.3116 617.008,-590.6737 564.0379,-607.5323"/>
<polygon fill="#000000" stroke="#000000" points="562.8617,-604.2336 554.3942,-610.6016 564.9847,-610.9039 562.8617,-604.2336"/>
</g>
<!-- GO:0044238 -->
<g id="node38" class="node">
<title>GO:0044238</title>
<polygon fill="#ffffff" stroke="#000000" points="910.9606,-649.8019 746.9546,-649.8019 746.9546,-608.5981 910.9606,-608.5981 910.9606,-649.8019"/>
<text text-anchor="middle" x="828.9576" y="-633.4" font-family="Times,serif" font-size="14.00" fill="#000000">GO:0044238</text>
<text text-anchor="middle" x="828.9576" y="-616.6" font-family="Times,serif" font-size="14.00" fill="#000000">primary metabolic process</text>
</g>
<!-- GO:0005975&#45;&gt;GO:0044238 -->
<g id="edge55" class="edge">
<title>GO:0005975&#45;&gt;GO:0044238</title>
<path fill="none" stroke="#000000" d="M821.8232,-555.8584C823.1165,-569.1539 824.6445,-584.8608 825.9538,-598.3212"/>
<polygon fill="#000000" stroke="#000000" points="822.4966,-598.9315 826.9484,-608.5456 829.4637,-598.2537 822.4966,-598.9315"/>
</g>
<!-- GO:0044763&#45;&gt;GO:0009987 -->
<g id="edge56" class="edge">
<title>GO:0044763&#45;&gt;GO:0009987</title>
<path fill="none" stroke="#000000" d="M1112.1088,-655.7991C1109.0273,-656.7074 1105.9683,-657.5787 1102.9576,-658.4 1025.9308,-679.4138 1004.6753,-676.106 926.9576,-694.4 921.6713,-695.6443 916.1982,-696.9886 910.716,-698.3739"/>
<polygon fill="#000000" stroke="#000000" points="909.6925,-695.023 900.8766,-700.8992 911.4327,-701.8033 909.6925,-695.023"/>
</g>
<!-- GO:0044763&#45;&gt;GO:0044699 -->
<g id="edge57" class="edge">
<title>GO:0044763&#45;&gt;GO:0044699</title>
<path fill="none" stroke="#000000" d="M1127.8806,-658.5558C1106.8961,-668.8096 1083.5483,-680.2182 1063.3372,-690.094"/>
<polygon fill="#000000" stroke="#000000" points="1061.7397,-686.9791 1054.2916,-694.5141 1064.8129,-693.2684 1061.7397,-686.9791"/>
</g>
<!-- GO:0006629&#45;&gt;GO:0071704 -->
<g id="edge58" class="edge">
<title>GO:0006629&#45;&gt;GO:0071704</title>
<path fill="none" stroke="#000000" d="M963.6342,-547.0394C944.2169,-553.2732 922.3416,-559.6183 901.9576,-564 771.0981,-592.1291 734.3181,-574.3119 602.9576,-600 590.2326,-602.4884 576.799,-605.688 563.9098,-609.0524"/>
<polygon fill="#000000" stroke="#000000" points="562.94,-605.6887 554.1802,-611.6483 564.7445,-612.4521 562.94,-605.6887"/>
</g>
<!-- GO:0006629&#45;&gt;GO:0044710 -->
<g id="edge59" class="edge">
<title>GO:0006629&#45;&gt;GO:0044710</title>
<path fill="none" stroke="#000000" d="M1019.934,-547.2031C1018.7491,-559.3833 1017.2137,-575.1676 1015.8068,-589.6305"/>
<polygon fill="#000000" stroke="#000000" points="1012.2966,-589.5658 1014.8119,-599.8577 1019.2637,-590.2436 1012.2966,-589.5658"/>
</g>
<!-- GO:0006629&#45;&gt;GO:0044238 -->
<g id="edge60" class="edge">
<title>GO:0006629&#45;&gt;GO:0044238</title>
<path fill="none" stroke="#000000" d="M982.9012,-547.2031C952.2941,-563.5057 909.5654,-586.2649 876.8878,-603.6704"/>
<polygon fill="#000000" stroke="#000000" points="875.1366,-600.6375 867.9559,-608.4278 878.4274,-606.8158 875.1366,-600.6375"/>
</g>
<!-- GO:0044699&#45;&gt;GO:0008150 -->
<g id="edge61" class="edge">
<title>GO:0044699&#45;&gt;GO:0008150</title>
<path fill="none" stroke="#000000" d="M968.2766,-735.9954C947.8223,-745.7331 923.2844,-757.415 901.7937,-767.6461"/>
<polygon fill="#000000" stroke="#000000" points="900.0009,-764.6232 892.4763,-772.0819 903.0098,-770.9435 900.0009,-764.6232"/>
</g>
<!-- GO:0044238&#45;&gt;GO:0008152 -->
<g id="edge62" class="edge">
<title>GO:0044238&#45;&gt;GO:0008152</title>
<path fill="none" stroke="#000000" d="M794.5834,-650.0182C775.0482,-661.8494 750.4189,-676.7657 729.6525,-689.3425"/>
<polygon fill="#000000" stroke="#000000" points="727.7558,-686.3994 721.0153,-694.5735 731.382,-692.3869 727.7558,-686.3994"/>
</g>
</g>
</svg>
