<?xml version="1.0" encoding="UTF-8" standalone="no"?>
<!DOCTYPE svg PUBLIC "-//W3C//DTD SVG 1.1//EN"
 "http://www.w3.org/Graphics/SVG/1.1/DTD/svg11.dtd">
<!-- Generated by graphviz version 2.40.1 (20161225.0304)
 -->
<!-- Title: G Pages: 1 -->
<svg width="749pt" height="616pt"
 viewBox="0.00 0.00 748.71 616.00" xmlns="http://www.w3.org/2000/svg" xmlns:xlink="http://www.w3.org/1999/xlink">
<g id="graph0" class="graph" transform="scale(1 1) rotate(0) translate(4 612)">
<title>G</title>
<polygon fill="#ffffff" stroke="transparent" points="-4,4 -4,-612 744.7101,-612 744.7101,4 -4,4"/>
<!-- GO:0005737 -->
<g id="node1" class="node">
<title>GO:0005737</title>
<polygon fill="#ff0000" stroke="#000000" points="420.9805,-272.2019 331.7727,-272.2019 331.7727,-230.9981 420.9805,-230.9981 420.9805,-272.2019"/>
<text text-anchor="middle" x="376.3766" y="-255.8" font-family="Times,serif" font-size="14.00" fill="#000000">GO:0005737</text>
<text text-anchor="middle" x="376.3766" y="-239" font-family="Times,serif" font-size="14.00" fill="#000000">cytoplasm</text>
</g>
<!-- GO:0044424 -->
<g id="node2" class="node">
<title>GO:0044424</title>
<polygon fill="#ffffff" stroke="#000000" points="430.775,-366.6019 321.9782,-366.6019 321.9782,-325.3981 430.775,-325.3981 430.775,-366.6019"/>
<text text-anchor="middle" x="376.3766" y="-350.2" font-family="Times,serif" font-size="14.00" fill="#000000">GO:0044424</text>
<text text-anchor="middle" x="376.3766" y="-333.4" font-family="Times,serif" font-size="14.00" fill="#000000">intracellular part</text>
</g>
<!-- GO:0005737&#45;&gt;GO:0044424 -->
<g id="edge1" class="edge">
<title>GO:0005737&#45;&gt;GO:0044424</title>
<path fill="none" stroke="#000000" d="M376.3766,-272.5504C376.3766,-285.0165 376.3766,-301.0645 376.3766,-314.9786"/>
<polygon fill="#000000" stroke="#000000" points="372.8767,-315.1081 376.3766,-325.1081 379.8767,-315.1082 372.8767,-315.1081"/>
</g>
<!-- GO:0044464 -->
<g id="node3" class="node">
<title>GO:0044464</title>
<polygon fill="#ffffff" stroke="#000000" points="426.9805,-452.6019 337.7727,-452.6019 337.7727,-411.3981 426.9805,-411.3981 426.9805,-452.6019"/>
<text text-anchor="middle" x="382.3766" y="-436.2" font-family="Times,serif" font-size="14.00" fill="#000000">GO:0044464</text>
<text text-anchor="middle" x="382.3766" y="-419.4" font-family="Times,serif" font-size="14.00" fill="#000000">cell part</text>
</g>
<!-- GO:0044424&#45;&gt;GO:0044464 -->
<g id="edge2" class="edge">
<title>GO:0044424&#45;&gt;GO:0044464</title>
<path fill="none" stroke="#000000" d="M377.829,-366.8182C378.5513,-377.1705 379.4383,-389.8848 380.2366,-401.3271"/>
<polygon fill="#000000" stroke="#000000" points="376.75,-401.6414 380.9375,-411.3735 383.733,-401.1541 376.75,-401.6414"/>
</g>
<!-- GO:0005575 -->
<g id="node4" class="node">
<title>GO:0005575</title>
<polygon fill="#ffffff" stroke="#000000" points="446.0633,-530.2019 318.6899,-530.2019 318.6899,-488.9981 446.0633,-488.9981 446.0633,-530.2019"/>
<text text-anchor="middle" x="382.3766" y="-513.8" font-family="Times,serif" font-size="14.00" fill="#000000">GO:0005575</text>
<text text-anchor="middle" x="382.3766" y="-497" font-family="Times,serif" font-size="14.00" fill="#000000">cellular_component</text>
</g>
<!-- GO:0044464&#45;&gt;GO:0005575 -->
<g id="edge3" class="edge">
<title>GO:0044464&#45;&gt;GO:0005575</title>
<path fill="none" stroke="#000000" d="M382.3766,-452.7954C382.3766,-460.7109 382.3766,-469.9109 382.3766,-478.5722"/>
<polygon fill="#000000" stroke="#000000" points="378.8767,-478.7472 382.3766,-488.7472 385.8767,-478.7473 378.8767,-478.7472"/>
</g>
<!-- GO:0009326 -->
<g id="node5" class="node">
<title>GO:0009326</title>
<polygon fill="#ff00ff" stroke="#000000" points="734.8718,-281.0014 587.8814,-281.0014 587.8814,-222.1986 734.8718,-222.1986 734.8718,-281.0014"/>
<text text-anchor="middle" x="661.3766" y="-264.2" font-family="Times,serif" font-size="14.00" fill="#000000">GO:0009326</text>
<text text-anchor="middle" x="661.3766" y="-247.4" font-family="Times,serif" font-size="14.00" fill="#000000">formate dehydrogenase</text>
<text text-anchor="middle" x="661.3766" y="-230.6" font-family="Times,serif" font-size="14.00" fill="#000000">complex</text>
</g>
<!-- GO:1990204 -->
<g id="node6" class="node">
<title>GO:1990204</title>
<polygon fill="#ffffff" stroke="#000000" points="737.8325,-366.6019 584.9207,-366.6019 584.9207,-325.3981 737.8325,-325.3981 737.8325,-366.6019"/>
<text text-anchor="middle" x="661.3766" y="-350.2" font-family="Times,serif" font-size="14.00" fill="#000000">GO:1990204</text>
<text text-anchor="middle" x="661.3766" y="-333.4" font-family="Times,serif" font-size="14.00" fill="#000000">oxidoreductase complex</text>
</g>
<!-- GO:0009326&#45;&gt;GO:1990204 -->
<g id="edge4" class="edge">
<title>GO:0009326&#45;&gt;GO:1990204</title>
<path fill="none" stroke="#000000" d="M661.3766,-280.9513C661.3766,-291.8614 661.3766,-304.2637 661.3766,-315.292"/>
<polygon fill="#000000" stroke="#000000" points="657.8767,-315.3509 661.3766,-325.351 664.8767,-315.351 657.8767,-315.3509"/>
</g>
<!-- GO:1990204&#45;&gt;GO:0044464 -->
<g id="edge5" class="edge">
<title>GO:1990204&#45;&gt;GO:0044464</title>
<path fill="none" stroke="#000000" d="M603.0206,-366.6345C594.1273,-369.6085 585.0312,-372.5543 576.3766,-375.2 517.4033,-393.2282 501.3246,-393.0891 442.3766,-411.2 440.5192,-411.7707 438.6331,-412.3614 436.7311,-412.9666"/>
<polygon fill="#000000" stroke="#000000" points="435.5718,-409.6632 427.1478,-416.0888 437.7402,-416.3188 435.5718,-409.6632"/>
</g>
<!-- GO:1902494 -->
<g id="node7" class="node">
<title>GO:1902494</title>
<polygon fill="#ffffff" stroke="#000000" points="719.0079,-452.6019 603.7453,-452.6019 603.7453,-411.3981 719.0079,-411.3981 719.0079,-452.6019"/>
<text text-anchor="middle" x="661.3766" y="-436.2" font-family="Times,serif" font-size="14.00" fill="#000000">GO:1902494</text>
<text text-anchor="middle" x="661.3766" y="-419.4" font-family="Times,serif" font-size="14.00" fill="#000000">catalytic complex</text>
</g>
<!-- GO:1990204&#45;&gt;GO:1902494 -->
<g id="edge6" class="edge">
<title>GO:1990204&#45;&gt;GO:1902494</title>
<path fill="none" stroke="#000000" d="M661.3766,-366.8182C661.3766,-377.1705 661.3766,-389.8848 661.3766,-401.3271"/>
<polygon fill="#000000" stroke="#000000" points="657.8767,-401.3735 661.3766,-411.3735 664.8767,-401.3735 657.8767,-401.3735"/>
</g>
<!-- GO:0043234 -->
<g id="node8" class="node">
<title>GO:0043234</title>
<polygon fill="#ffffff" stroke="#000000" points="715.244,-530.2019 607.5092,-530.2019 607.5092,-488.9981 715.244,-488.9981 715.244,-530.2019"/>
<text text-anchor="middle" x="661.3766" y="-513.8" font-family="Times,serif" font-size="14.00" fill="#000000">GO:0043234</text>
<text text-anchor="middle" x="661.3766" y="-497" font-family="Times,serif" font-size="14.00" fill="#000000">protein complex</text>
</g>
<!-- GO:1902494&#45;&gt;GO:0043234 -->
<g id="edge7" class="edge">
<title>GO:1902494&#45;&gt;GO:0043234</title>
<path fill="none" stroke="#000000" d="M661.3766,-452.7954C661.3766,-460.7109 661.3766,-469.9109 661.3766,-478.5722"/>
<polygon fill="#000000" stroke="#000000" points="657.8767,-478.7472 661.3766,-488.7472 664.8767,-478.7473 657.8767,-478.7472"/>
</g>
<!-- GO:0032991 -->
<g id="node9" class="node">
<title>GO:0032991</title>
<polygon fill="#ffffff" stroke="#000000" points="740.5439,-607.8019 582.2093,-607.8019 582.2093,-566.5981 740.5439,-566.5981 740.5439,-607.8019"/>
<text text-anchor="middle" x="661.3766" y="-591.4" font-family="Times,serif" font-size="14.00" fill="#000000">GO:0032991</text>
<text text-anchor="middle" x="661.3766" y="-574.6" font-family="Times,serif" font-size="14.00" fill="#000000">macromolecular complex</text>
</g>
<!-- GO:0043234&#45;&gt;GO:0032991 -->
<g id="edge8" class="edge">
<title>GO:0043234&#45;&gt;GO:0032991</title>
<path fill="none" stroke="#000000" d="M661.3766,-530.3954C661.3766,-538.3109 661.3766,-547.5109 661.3766,-556.1722"/>
<polygon fill="#000000" stroke="#000000" points="657.8767,-556.3472 661.3766,-566.3472 664.8767,-556.3473 657.8767,-556.3472"/>
</g>
<!-- GO:0005886 -->
<g id="node10" class="node">
<title>GO:0005886</title>
<polygon fill="#ff00ff" stroke="#000000" points="567.6174,-366.6019 449.1358,-366.6019 449.1358,-325.3981 567.6174,-325.3981 567.6174,-366.6019"/>
<text text-anchor="middle" x="508.3766" y="-350.2" font-family="Times,serif" font-size="14.00" fill="#000000">GO:0005886</text>
<text text-anchor="middle" x="508.3766" y="-333.4" font-family="Times,serif" font-size="14.00" fill="#000000">plasma membrane</text>
</g>
<!-- GO:0005886&#45;&gt;GO:0044464 -->
<g id="edge10" class="edge">
<title>GO:0005886&#45;&gt;GO:0044464</title>
<path fill="none" stroke="#000000" d="M477.8755,-366.8182C460.851,-378.4381 439.4664,-393.034 421.2512,-405.4665"/>
<polygon fill="#000000" stroke="#000000" points="418.8832,-402.8452 412.5968,-411.3735 422.8294,-408.6269 418.8832,-402.8452"/>
</g>
<!-- GO:0016020 -->
<g id="node11" class="node">
<title>GO:0016020</title>
<polygon fill="#ffffff" stroke="#000000" points="540.9805,-452.6019 451.7727,-452.6019 451.7727,-411.3981 540.9805,-411.3981 540.9805,-452.6019"/>
<text text-anchor="middle" x="496.3766" y="-436.2" font-family="Times,serif" font-size="14.00" fill="#000000">GO:0016020</text>
<text text-anchor="middle" x="496.3766" y="-419.4" font-family="Times,serif" font-size="14.00" fill="#000000">membrane</text>
</g>
<!-- GO:0005886&#45;&gt;GO:0016020 -->
<g id="edge9" class="edge">
<title>GO:0005886&#45;&gt;GO:0016020</title>
<path fill="none" stroke="#000000" d="M505.4717,-366.8182C504.0272,-377.1705 502.2531,-389.8848 500.6565,-401.3271"/>
<polygon fill="#000000" stroke="#000000" points="497.1703,-400.9857 499.2547,-411.3735 504.1032,-401.9532 497.1703,-400.9857"/>
</g>
<!-- GO:0016020&#45;&gt;GO:0005575 -->
<g id="edge11" class="edge">
<title>GO:0016020&#45;&gt;GO:0005575</title>
<path fill="none" stroke="#000000" d="M465.8267,-452.7954C452.1537,-462.1026 435.8717,-473.1858 421.3351,-483.0809"/>
<polygon fill="#000000" stroke="#000000" points="419.3079,-480.2268 413.0108,-488.7472 423.2469,-486.0134 419.3079,-480.2268"/>
</g>
<!-- GO:0071575 -->
<g id="node12" class="node">
<title>GO:0071575</title>
<polygon fill="#ff00ff" stroke="#000000" points="224.3283,-75.3003 78.4249,-75.3003 78.4249,.1003 224.3283,.1003 224.3283,-75.3003"/>
<text text-anchor="middle" x="151.3766" y="-58.6" font-family="Times,serif" font-size="14.00" fill="#000000">GO:0071575</text>
<text text-anchor="middle" x="151.3766" y="-41.8" font-family="Times,serif" font-size="14.00" fill="#000000">integral component of</text>
<text text-anchor="middle" x="151.3766" y="-25" font-family="Times,serif" font-size="14.00" fill="#000000">external side of plasma</text>
<text text-anchor="middle" x="151.3766" y="-8.2" font-family="Times,serif" font-size="14.00" fill="#000000">membrane</text>
</g>
<!-- GO:0031233 -->
<g id="node13" class="node">
<title>GO:0031233</title>
<polygon fill="#ffffff" stroke="#000000" points="305.3283,-186.5003 159.4249,-186.5003 159.4249,-111.0997 305.3283,-111.0997 305.3283,-186.5003"/>
<text text-anchor="middle" x="232.3766" y="-169.8" font-family="Times,serif" font-size="14.00" fill="#000000">GO:0031233</text>
<text text-anchor="middle" x="232.3766" y="-153" font-family="Times,serif" font-size="14.00" fill="#000000">intrinsic component of</text>
<text text-anchor="middle" x="232.3766" y="-136.2" font-family="Times,serif" font-size="14.00" fill="#000000">external side of plasma</text>
<text text-anchor="middle" x="232.3766" y="-119.4" font-family="Times,serif" font-size="14.00" fill="#000000">membrane</text>
</g>
<!-- GO:0071575&#45;&gt;GO:0031233 -->
<g id="edge12" class="edge">
<title>GO:0071575&#45;&gt;GO:0031233</title>
<path fill="none" stroke="#000000" d="M178.7995,-75.2472C185.2651,-84.1235 192.2288,-93.6835 198.927,-102.8791"/>
<polygon fill="#000000" stroke="#000000" points="196.2651,-105.1693 204.9819,-111.1915 201.9232,-101.0478 196.2651,-105.1693"/>
</g>
<!-- GO:0005887 -->
<g id="node14" class="node">
<title>GO:0005887</title>
<polygon fill="#ffffff" stroke="#000000" points="141.0097,-178.2014 1.7435,-178.2014 1.7435,-119.3986 141.0097,-119.3986 141.0097,-178.2014"/>
<text text-anchor="middle" x="71.3766" y="-161.4" font-family="Times,serif" font-size="14.00" fill="#000000">GO:0005887</text>
<text text-anchor="middle" x="71.3766" y="-144.6" font-family="Times,serif" font-size="14.00" fill="#000000">integral component of</text>
<text text-anchor="middle" x="71.3766" y="-127.8" font-family="Times,serif" font-size="14.00" fill="#000000">plasma membrane</text>
</g>
<!-- GO:0071575&#45;&gt;GO:0005887 -->
<g id="edge13" class="edge">
<title>GO:0071575&#45;&gt;GO:0005887</title>
<path fill="none" stroke="#000000" d="M124.2922,-75.2472C115.9757,-86.8072 106.8248,-99.527 98.5053,-111.0911"/>
<polygon fill="#000000" stroke="#000000" points="95.6171,-109.1126 92.6182,-119.2742 101.2994,-113.2006 95.6171,-109.1126"/>
</g>
<!-- GO:0031226 -->
<g id="node15" class="node">
<title>GO:0031226</title>
<polygon fill="#ffffff" stroke="#000000" points="302.63,-281.0014 160.1232,-281.0014 160.1232,-222.1986 302.63,-222.1986 302.63,-281.0014"/>
<text text-anchor="middle" x="231.3766" y="-264.2" font-family="Times,serif" font-size="14.00" fill="#000000">GO:0031226</text>
<text text-anchor="middle" x="231.3766" y="-247.4" font-family="Times,serif" font-size="14.00" fill="#000000">intrinsic component of</text>
<text text-anchor="middle" x="231.3766" y="-230.6" font-family="Times,serif" font-size="14.00" fill="#000000">plasma membrane</text>
</g>
<!-- GO:0031233&#45;&gt;GO:0031226 -->
<g id="edge14" class="edge">
<title>GO:0031233&#45;&gt;GO:0031226</title>
<path fill="none" stroke="#000000" d="M232.0099,-186.4952C231.9283,-194.8874 231.8415,-203.8054 231.7593,-212.2618"/>
<polygon fill="#000000" stroke="#000000" points="228.2593,-212.2478 231.6618,-222.2814 235.259,-212.3159 228.2593,-212.2478"/>
</g>
<!-- GO:0005887&#45;&gt;GO:0031226 -->
<g id="edge16" class="edge">
<title>GO:0005887&#45;&gt;GO:0031226</title>
<path fill="none" stroke="#000000" d="M117.2262,-178.2584C135.9686,-190.3004 157.7896,-204.3204 177.3032,-216.8578"/>
<polygon fill="#000000" stroke="#000000" points="175.4921,-219.8543 185.7971,-222.3152 179.2759,-213.9651 175.4921,-219.8543"/>
</g>
<!-- GO:0016021 -->
<g id="node16" class="node">
<title>GO:0016021</title>
<polygon fill="#ffffff" stroke="#000000" points="141.0097,-281.0014 1.7435,-281.0014 1.7435,-222.1986 141.0097,-222.1986 141.0097,-281.0014"/>
<text text-anchor="middle" x="71.3766" y="-264.2" font-family="Times,serif" font-size="14.00" fill="#000000">GO:0016021</text>
<text text-anchor="middle" x="71.3766" y="-247.4" font-family="Times,serif" font-size="14.00" fill="#000000">integral component of</text>
<text text-anchor="middle" x="71.3766" y="-230.6" font-family="Times,serif" font-size="14.00" fill="#000000">membrane</text>
</g>
<!-- GO:0005887&#45;&gt;GO:0016021 -->
<g id="edge15" class="edge">
<title>GO:0005887&#45;&gt;GO:0016021</title>
<path fill="none" stroke="#000000" d="M71.3766,-178.2584C71.3766,-188.7969 71.3766,-200.8505 71.3766,-212.0994"/>
<polygon fill="#000000" stroke="#000000" points="67.8767,-212.1373 71.3766,-222.1373 74.8767,-212.1374 67.8767,-212.1373"/>
</g>
<!-- GO:0044459 -->
<g id="node17" class="node">
<title>GO:0044459</title>
<polygon fill="#ffffff" stroke="#000000" points="303.8838,-366.6019 160.8694,-366.6019 160.8694,-325.3981 303.8838,-325.3981 303.8838,-366.6019"/>
<text text-anchor="middle" x="232.3766" y="-350.2" font-family="Times,serif" font-size="14.00" fill="#000000">GO:0044459</text>
<text text-anchor="middle" x="232.3766" y="-333.4" font-family="Times,serif" font-size="14.00" fill="#000000">plasma membrane part</text>
</g>
<!-- GO:0031226&#45;&gt;GO:0044459 -->
<g id="edge17" class="edge">
<title>GO:0031226&#45;&gt;GO:0044459</title>
<path fill="none" stroke="#000000" d="M231.6875,-280.9513C231.8031,-291.8614 231.9345,-304.2637 232.0513,-315.292"/>
<polygon fill="#000000" stroke="#000000" points="228.552,-315.3887 232.1579,-325.351 235.5516,-315.3144 228.552,-315.3887"/>
</g>
<!-- GO:0031224 -->
<g id="node18" class="node">
<title>GO:0031224</title>
<polygon fill="#ffffff" stroke="#000000" points="142.63,-375.4014 .1232,-375.4014 .1232,-316.5986 142.63,-316.5986 142.63,-375.4014"/>
<text text-anchor="middle" x="71.3766" y="-358.6" font-family="Times,serif" font-size="14.00" fill="#000000">GO:0031224</text>
<text text-anchor="middle" x="71.3766" y="-341.8" font-family="Times,serif" font-size="14.00" fill="#000000">intrinsic component of</text>
<text text-anchor="middle" x="71.3766" y="-325" font-family="Times,serif" font-size="14.00" fill="#000000">membrane</text>
</g>
<!-- GO:0031226&#45;&gt;GO:0031224 -->
<g id="edge18" class="edge">
<title>GO:0031226&#45;&gt;GO:0031224</title>
<path fill="none" stroke="#000000" d="M181.6287,-280.9513C165.2238,-290.6301 146.8287,-301.4833 129.8348,-311.5097"/>
<polygon fill="#000000" stroke="#000000" points="127.9279,-308.5709 121.0938,-316.6669 131.485,-314.5998 127.9279,-308.5709"/>
</g>
<!-- GO:0016021&#45;&gt;GO:0031224 -->
<g id="edge19" class="edge">
<title>GO:0016021&#45;&gt;GO:0031224</title>
<path fill="none" stroke="#000000" d="M71.3766,-280.9513C71.3766,-289.0318 71.3766,-297.9308 71.3766,-306.4838"/>
<polygon fill="#000000" stroke="#000000" points="67.8767,-306.6668 71.3766,-316.6669 74.8767,-306.6669 67.8767,-306.6668"/>
</g>
<!-- GO:0044459&#45;&gt;GO:0044464 -->
<g id="edge21" class="edge">
<title>GO:0044459&#45;&gt;GO:0044464</title>
<path fill="none" stroke="#000000" d="M268.6874,-366.8182C289.4153,-378.7022 315.5725,-393.699 337.5699,-406.3108"/>
<polygon fill="#000000" stroke="#000000" points="335.984,-409.436 346.4002,-411.3735 339.4657,-403.3633 335.984,-409.436"/>
</g>
<!-- GO:0044425 -->
<g id="node19" class="node">
<title>GO:0044425</title>
<polygon fill="#ffffff" stroke="#000000" points="282.7286,-452.6019 182.0246,-452.6019 182.0246,-411.3981 282.7286,-411.3981 282.7286,-452.6019"/>
<text text-anchor="middle" x="232.3766" y="-436.2" font-family="Times,serif" font-size="14.00" fill="#000000">GO:0044425</text>
<text text-anchor="middle" x="232.3766" y="-419.4" font-family="Times,serif" font-size="14.00" fill="#000000">membrane part</text>
</g>
<!-- GO:0044459&#45;&gt;GO:0044425 -->
<g id="edge20" class="edge">
<title>GO:0044459&#45;&gt;GO:0044425</title>
<path fill="none" stroke="#000000" d="M232.3766,-366.8182C232.3766,-377.1705 232.3766,-389.8848 232.3766,-401.3271"/>
<polygon fill="#000000" stroke="#000000" points="228.8767,-401.3735 232.3766,-411.3735 235.8767,-401.3735 228.8767,-401.3735"/>
</g>
<!-- GO:0031224&#45;&gt;GO:0044425 -->
<g id="edge22" class="edge">
<title>GO:0031224&#45;&gt;GO:0044425</title>
<path fill="none" stroke="#000000" d="M126.3334,-375.3558C145.1921,-385.4294 166.1374,-396.6176 184.3986,-406.372"/>
<polygon fill="#000000" stroke="#000000" points="182.9318,-409.5565 193.4014,-411.1809 186.2299,-403.3821 182.9318,-409.5565"/>
</g>
<!-- GO:0044425&#45;&gt;GO:0005575 -->
<g id="edge23" class="edge">
<title>GO:0044425&#45;&gt;GO:0005575</title>
<path fill="none" stroke="#000000" d="M272.5738,-452.7954C291.228,-462.4458 313.573,-474.0056 333.2216,-484.1705"/>
<polygon fill="#000000" stroke="#000000" points="331.8386,-487.3956 342.3287,-488.8819 335.0551,-481.1783 331.8386,-487.3956"/>
</g>
</g>
</svg>
